<?xml version="1.0" encoding="UTF-8"?>
<svg xmlns="http://www.w3.org/2000/svg" width="253" height="256" viewBox="0 0 253 256" fill="none">
  <rect y="0.0849609" width="253" height="255" rx="81" fill="url(#paint0_linear_4802_29850)"></rect>
  <path fill-rule="evenodd" clip-rule="evenodd" d="M31.4813 157.769C32.9349 155.957 35.7376 156.231 36.8873 158.249C37.6168 159.53 37.4212 161.132 36.4482 162.239C30.7265 168.749 28.2577 173.813 29.9012 176.699C35.1774 185.961 80.8377 169.254 131.886 139.381C133.646 138.351 135.39 137.319 137.115 136.286C137.718 135.925 138.065 135.26 138.065 134.557C138.065 122.665 147.628 113.024 159.426 113.024C161.061 113.024 162.653 113.209 164.182 113.559C167.474 114.314 171.075 114.253 173.815 112.28C201.593 92.28 218.435 74.9644 214.764 68.5205C213.199 65.7718 208.077 65.3101 200.313 66.8006C198.895 67.0729 197.444 66.4421 196.729 65.187C195.614 63.2298 196.761 60.7554 198.989 60.4269C214.267 58.1748 225.104 60.058 228.903 66.7275C236.019 79.2202 216.44 104.992 182.355 131.198C181.325 131.989 180.786 133.259 180.786 134.557C180.786 146.45 171.223 156.091 159.426 156.091C157.669 156.091 155.962 155.877 154.328 155.474C151.247 154.714 147.902 154.682 145.176 156.307C144.207 156.885 143.231 157.461 142.251 158.035C84.8142 191.645 30.4873 205.259 20.9078 188.442C16.979 181.545 21.1872 170.6 31.4813 157.769Z" fill="#F2F6FC"></path>
  <ellipse cx="159.426" cy="134.557" rx="10.6804" ry="10.7669" fill="#40587A"></ellipse>
  <path d="M101.646 192.235C98.7209 190.531 100.123 187.675 107.228 185.301C122.21 181.986 119.682 188.688 141.241 186.11C162.8 183.531 174.166 174.571 179.891 168.677C184.471 163.962 188.704 157.582 188.501 159.833C187.527 164.622 179.658 177.244 155.979 189.425C126.381 204.651 106.132 194.847 101.646 192.235Z" fill="#080F1B" fill-opacity="0.11"></path>
  <path d="M196.87 80.5745C199.633 78.7284 200.406 74.9842 198.401 72.3333C185.548 55.3329 167.124 43.3721 146.312 38.6598C123.552 33.5064 99.696 37.4213 79.7321 49.5863C59.7682 61.7513 45.2413 81.2247 39.1883 103.936C33.66 124.678 35.5908 146.654 44.5204 166.012C45.9257 169.059 49.6423 170.128 52.5776 168.503C55.4847 166.894 56.5251 163.248 55.1611 160.218C47.6834 143.607 46.1165 124.829 50.8436 107.093C56.0887 87.4133 68.6763 70.5395 85.9752 59.9984C103.274 49.4573 123.945 46.065 143.667 50.5305C161.411 54.548 177.151 64.6459 188.262 79.001C190.317 81.6568 194.077 82.44 196.87 80.5745Z" fill="#F2F6FC"></path>
  <path d="M74.9302 194.927C72.8978 197.581 73.3671 201.4 76.1215 203.264C89.0703 212.024 104.079 217.279 119.697 218.467C137.314 219.807 154.934 215.914 170.381 207.27C185.827 198.626 198.423 185.608 206.612 169.826C213.871 155.836 217.384 140.216 216.857 124.504C216.744 121.162 213.778 118.741 210.469 119.076C207.146 119.413 204.742 122.402 204.819 125.759C205.125 139.088 202.077 152.315 195.917 164.188C188.822 177.863 177.908 189.142 164.523 196.633C151.138 204.123 135.87 207.496 120.605 206.335C107.351 205.327 94.6031 200.938 83.5425 193.627C80.7574 191.786 76.9708 192.262 74.9302 194.927Z" fill="#F2F6FC"></path>
  <defs>
    <linearGradient id="paint0_linear_4802_29850" x1="126.5" y1="0.0849609" x2="126.5" y2="255.085" gradientUnits="userSpaceOnUse">
      <stop stop-color="#3B577F"></stop>
      <stop offset="1" stop-color="#435774"></stop>
    </linearGradient>
  </defs>
</svg>
