<?xml version="1.0" encoding="UTF-8"?>
<svg xmlns="http://www.w3.org/2000/svg" width="800" height="86" viewBox="0 0 800 86" fill="none">
  <g clip-path="url(#clip0_10135_184280)">
    <rect width="800" height="86" rx="10" fill="#F4F7FB"></rect>
    <circle cx="47.5" cy="39.5" r="135.5" fill="white"></circle>
    <circle cx="47.5" cy="39.5" r="105.5" fill="#E7EEF9"></circle>
    <circle cx="47.5" cy="39.5" r="105.5" fill="#E7EEF9"></circle>
    <circle cx="47.5" cy="39.5" r="69.5" fill="#D2DEF0"></circle>
    <ellipse cx="48.4999" cy="42.9994" rx="25.5609" ry="26.5834" fill="url(#paint0_linear_10135_184280)"></ellipse>
    <path fill-rule="evenodd" clip-rule="evenodd" d="M19.6251 52.4846C20.0712 51.9097 20.9529 51.9948 21.3046 52.6317C21.5185 53.0192 21.4605 53.4988 21.1731 53.8354C19.4239 55.8839 18.6679 57.4777 19.1686 58.3844C20.7707 61.2859 34.6351 56.0522 50.1357 46.6945C50.6678 46.3733 51.1949 46.0514 51.7167 45.7291C51.9044 45.6132 52.0117 45.4041 52.0117 45.1835C52.0117 41.458 54.9156 38.438 58.4978 38.438C60.4129 38.438 62.4972 38.4974 64.0211 37.3374C71.7636 31.4432 76.3639 26.422 75.3011 24.4972C74.8282 23.6406 73.2864 23.4931 70.9493 23.9513C70.4986 24.0397 70.0369 23.8372 69.8149 23.4351C69.4784 22.8257 69.8344 22.0645 70.5226 21.9601C75.1555 21.2574 78.4416 21.8481 79.5942 23.9356C81.7543 27.8477 75.8136 35.9169 65.4699 44.1233C65.1504 44.3768 64.9839 44.7756 64.9839 45.1835C64.9839 48.9089 62.08 51.929 58.4978 51.929C58.3241 51.929 58.1519 51.9219 57.9816 51.908C56.3769 51.7766 54.6611 51.7057 53.2827 52.5379C35.8426 63.0665 19.3465 67.331 16.4378 62.063C15.2478 59.9078 16.5163 56.491 19.6251 52.4846Z" fill="white"></path>
    <ellipse cx="58.4979" cy="45.1833" rx="3.24304" ry="3.37276" fill="#70AF09"></ellipse>
    <g opacity="0.32">
      <path d="M35.4015 33.9091C33.8284 37.9488 34.3247 42.2088 32.3952 41.3962C30.4658 40.5835 30.1769 36.6499 31.75 32.6102C33.3231 28.5705 36.1625 25.9545 38.0919 26.7671C40.0214 27.5798 36.9746 29.8694 35.4015 33.9091Z" fill="#E5E5E5"></path>
      <path d="M34.1903 45.4094C34.3309 46.7397 33.7386 47.8988 32.8675 47.9984C31.9963 48.0979 31.1762 47.1002 31.0357 45.7699C30.8951 44.4396 31.4874 43.2804 32.3585 43.1809C33.2296 43.0813 34.0498 44.0791 34.1903 45.4094Z" fill="#E5E5E5"></path>
    </g>
    <path d="M40.9534 63.2511C40.0652 62.7174 40.4909 61.8229 42.6484 61.0793C47.1975 60.0408 46.4299 62.1402 52.9763 61.3325C59.5226 60.5247 62.9737 57.718 64.712 55.8718C66.1026 54.3947 67.388 52.396 67.3264 53.1012C67.0305 54.6013 64.6413 58.5554 57.4514 62.371C48.4641 67.1406 42.3154 64.0695 40.9534 63.2511Z" fill="#080F1B" fill-opacity="0.11"></path>
    <path d="M69.9109 28.2429C70.7325 27.6767 70.9634 26.5574 70.3757 25.7511C66.4709 20.3941 60.8586 16.6248 54.5156 15.1432C47.6045 13.5289 40.3609 14.7552 34.299 18.5659C28.2371 22.3767 23.8261 28.4768 21.9881 35.591C20.3108 42.0835 20.8948 48.9619 23.6008 55.0224C24.0268 55.9765 25.1885 56.311 26.0959 55.7929C26.9618 55.2984 27.2726 54.2088 26.8708 53.2962C24.5722 48.0743 24.085 42.1625 25.5272 36.58C27.1198 30.4154 30.942 25.1296 36.1947 21.8276C41.4474 18.5255 47.724 17.4629 53.7126 18.8617C59.0899 20.1178 63.8611 23.2712 67.2337 27.7542C67.865 28.5933 69.0463 28.8388 69.9109 28.2429Z" fill="white"></path>
    <path d="M32.8289 64.1108C32.2166 64.9357 32.3499 66.1087 33.1704 66.6831C37.1096 69.4409 41.6788 71.095 46.4342 71.4682C51.7835 71.8881 57.1339 70.6687 61.8241 67.9608C66.5144 65.2529 70.339 61.1752 72.8254 56.2315C75.0356 51.8368 76.1022 46.9289 75.9349 41.9935C75.9 40.9652 75.0142 40.2273 74.0179 40.3315C73.0007 40.4378 72.2578 41.3801 72.281 42.4306C72.3734 46.6049 71.4481 50.7469 69.5781 54.4651C67.4237 58.7489 64.1096 62.2822 60.0455 64.6287C55.9813 66.9751 51.3452 68.0317 46.7099 67.6679C42.6855 67.352 38.815 65.9775 35.4566 63.6873C34.613 63.112 33.4533 63.2697 32.8289 64.1108Z" fill="white"></path>
    <path d="M93.72 24H87.66V38H90.9V34.14H93.72C97.46 34.14 99.8 32.2 99.8 29.08C99.8 25.94 97.46 24 93.72 24ZM93.54 31.5H90.9V26.64H93.54C95.52 26.64 96.52 27.54 96.52 29.08C96.52 30.6 95.52 31.5 93.54 31.5ZM102.113 38H112.373V35.36H105.353V24H102.113V38ZM124.761 38H128.161L121.901 24H118.701L112.461 38H115.781L117.021 35H123.521L124.761 38ZM118.061 32.54L120.281 27.18L122.501 32.54H118.061ZM139.253 24V32.5L132.293 24H129.613V38H132.813V29.5L139.793 38H142.453V24H139.253ZM148.985 35.4V32.16H155.485V29.64H148.985V26.6H156.345V24H145.765V38H156.605V35.4H148.985ZM162.083 38H165.323V26.64H169.803V24H157.603V26.64H162.083V38Z" fill="#233654"></path>
    <path d="M97.9 48L93.58 58L89.32 48H85.82L91.86 62H95.06L101.12 48H97.9ZM108.349 48H102.289V62H105.529V58.14H108.349C112.089 58.14 114.429 56.2 114.429 53.08C114.429 49.94 112.089 48 108.349 48ZM108.169 55.5H105.529V50.64H108.169C110.149 50.64 111.149 51.54 111.149 53.08C111.149 54.6 110.149 55.5 108.169 55.5ZM126.382 48V56.5L119.422 48H116.742V62H119.942V53.5L126.922 62H129.582V48H126.382Z" fill="#70AF09"></path>
    <path d="M218.179 16.9L214.246 26.307L210.405 16.9H204.563L211.371 33H216.707L223.515 16.9H218.179ZM231.806 16.9H224.055V33H229.483V29.044H231.806C236.291 29.044 239.143 26.698 239.143 22.972C239.143 19.246 236.291 16.9 231.806 16.9ZM231.461 24.858H229.483V21.086H231.461C232.956 21.086 233.669 21.799 233.669 22.972C233.669 24.145 232.956 24.858 231.461 24.858ZM251.503 16.9V24.214L245.385 16.9H240.923V33H246.213V25.686L252.331 33H256.793V16.9H251.503ZM266.028 28.308H272.928V24.398H266.028V28.308ZM288.096 22.581H287.268L287.383 20.994H293.616V16.9H282.921L282.116 26.675H286.785C288.74 26.675 289.223 27.135 289.223 27.825C289.223 28.653 288.326 29.09 287.107 29.09C285.75 29.09 284.186 28.722 282.806 27.917L280.966 31.919C282.691 32.885 285.106 33.368 287.314 33.368C292.466 33.368 294.674 30.585 294.674 27.71C294.674 24.858 292.857 22.581 288.096 22.581ZM305.528 16.9L305.321 23.179C305.206 26.307 304.976 28.722 303.182 28.722C302.998 28.722 302.791 28.699 302.584 28.653L302.308 33C303.159 33.207 303.941 33.299 304.608 33.299C309.047 33.299 309.875 29.182 310.059 22.972L310.105 21.109H313.785V33H319.121V16.9H305.528ZM330.153 33.368C335.397 33.368 339.238 29.826 339.238 24.95C339.238 20.074 335.397 16.532 330.153 16.532C324.909 16.532 321.068 20.074 321.068 24.95C321.068 29.826 324.909 33.368 330.153 33.368ZM330.153 28.975C328.152 28.975 326.542 27.457 326.542 24.95C326.542 22.443 328.152 20.925 330.153 20.925C332.154 20.925 333.764 22.443 333.764 24.95C333.764 27.457 332.154 28.975 330.153 28.975ZM357.223 16.9H351.565L348.138 22.903H346.482V16.9H341.054V33H346.482V27.181H348L351.082 33H357.2L352.439 24.72L357.223 16.9ZM370.301 33H375.913L368.875 16.9H363.539L356.501 33H362.021L363.102 30.194H369.22L370.301 33ZM364.597 26.284L366.161 22.236L367.725 26.284H364.597ZM393.177 28.791V16.9H387.841V28.791H382.735V16.9H377.399V33H390.325V36.151H395.293V28.791H393.177ZM397.119 33H402.248L407.768 24.651V33H413.104V16.9H407.998L402.455 25.272V16.9H397.119V33ZM423.945 15.98C427.602 15.98 429.005 14.577 429.005 12.024H425.394C425.394 13.036 425.003 13.496 423.945 13.496C422.887 13.496 422.542 13.036 422.542 12.024H418.931C418.931 14.577 420.288 15.98 423.945 15.98ZM415.964 33H421.093L426.613 24.651V33H431.949V16.9H426.843L421.3 25.272V16.9H415.964V33ZM441.704 33H450.191C454.446 33 456.976 31.022 456.976 27.733C456.976 24.582 454.814 22.857 450.881 22.857H447.04V20.994H455.665V16.9H441.704V33ZM447.04 29.205V26.629H449.823C450.95 26.629 451.525 27.043 451.525 27.871C451.525 28.722 450.904 29.205 449.823 29.205H447.04ZM464.178 28.906V26.79H470.986V22.88H464.178V20.994H471.929V16.9H458.842V33H472.228V28.906H464.178ZM482.526 33.368C485.677 33.368 488.161 32.218 489.748 30.148L486.321 27.089C485.378 28.285 484.251 28.975 482.802 28.975C480.548 28.975 479.03 27.411 479.03 24.95C479.03 22.489 480.548 20.925 482.802 20.925C484.251 20.925 485.378 21.615 486.321 22.811L489.748 19.752C488.161 17.682 485.677 16.532 482.526 16.532C477.351 16.532 473.556 20.005 473.556 24.95C473.556 29.895 477.351 33.368 482.526 33.368ZM491.388 16.9V33H496.724V21.109H501.623V33H506.959V16.9H491.388ZM511.922 16.9L511.715 23.179C511.6 26.307 511.37 28.722 509.576 28.722C509.392 28.722 509.185 28.699 508.978 28.653L508.702 33C509.553 33.207 510.335 33.299 511.002 33.299C515.441 33.299 516.269 29.182 516.453 22.972L516.499 21.109H520.179V33H525.515V16.9H511.922ZM540.802 33H546.414L539.376 16.9H534.04L527.002 33H532.522L533.603 30.194H539.721L540.802 33ZM535.098 26.284L536.662 22.236L538.226 26.284H535.098ZM560.799 16.9H546.033V21.109H550.748V33H556.084V21.109H560.799V16.9ZM573.031 16.9V22.604H568.017V16.9H562.589V33H568.017V27.066H573.031V33H578.459V16.9H573.031ZM589.51 33.368C594.754 33.368 598.595 29.826 598.595 24.95C598.595 20.074 594.754 16.532 589.51 16.532C584.266 16.532 580.425 20.074 580.425 24.95C580.425 29.826 584.266 33.368 589.51 33.368ZM589.51 28.975C587.509 28.975 585.899 27.457 585.899 24.95C585.899 22.443 587.509 20.925 589.51 20.925C591.511 20.925 593.121 22.443 593.121 24.95C593.121 27.457 591.511 28.975 589.51 28.975Z" fill="#87AB49"></path>
    <rect width="178" height="86" transform="translate(622)" fill="#E7EEF9"></rect>
    <path d="M646.94 12.9H643.534V22H644.496V19.127H646.94C649.254 19.127 650.658 17.957 650.658 16.02C650.658 14.07 649.254 12.9 646.94 12.9ZM646.914 18.282H644.496V13.732H646.914C648.734 13.732 649.696 14.564 649.696 16.02C649.696 17.45 648.734 18.282 646.914 18.282ZM658.37 18.581C658.37 16.527 656.979 15.11 655.055 15.11C653.131 15.11 651.714 16.553 651.714 18.581C651.714 20.609 653.17 22.065 655.302 22.065C656.381 22.065 657.33 21.675 657.941 20.947L657.421 20.349C656.901 20.947 656.16 21.246 655.328 21.246C653.833 21.246 652.741 20.297 652.637 18.867H658.357C658.357 18.763 658.37 18.659 658.37 18.581ZM655.055 15.903C656.394 15.903 657.369 16.839 657.486 18.178H652.637C652.754 16.839 653.729 15.903 655.055 15.903ZM665.25 15.162H660.414V22H661.337V15.981H665.25V15.162ZM666.584 22H667.416L671.966 16.566V22H672.889V15.162H672.07L667.507 20.596V15.162H666.584V22ZM678.394 22.065C679.551 22.065 680.526 21.597 681.072 20.713L680.383 20.245C679.915 20.934 679.187 21.246 678.394 21.246C676.899 21.246 675.807 20.193 675.807 18.581C675.807 16.982 676.899 15.916 678.394 15.916C679.187 15.916 679.915 16.241 680.383 16.93L681.072 16.462C680.526 15.565 679.551 15.11 678.394 15.11C676.353 15.11 674.871 16.54 674.871 18.581C674.871 20.622 676.353 22.065 678.394 22.065ZM687.542 15.162H681.445V15.981H684.032V22H684.955V15.981H687.542V15.162ZM692.399 15.11C691.268 15.11 690.319 15.604 689.76 16.514V15.162H688.876V24.522H689.799V20.713C690.371 21.597 691.307 22.065 692.399 22.065C694.349 22.065 695.805 20.661 695.805 18.581C695.805 16.514 694.349 15.11 692.399 15.11ZM692.334 21.246C690.878 21.246 689.786 20.18 689.786 18.581C689.786 16.995 690.878 15.916 692.334 15.916C693.777 15.916 694.882 16.995 694.882 18.581C694.882 20.18 693.777 21.246 692.334 21.246ZM700.104 15.11C699.025 15.11 698.011 15.448 697.322 16.033L697.738 16.722C698.297 16.228 699.129 15.916 700.013 15.916C701.287 15.916 701.95 16.553 701.95 17.723V18.139H699.778C697.816 18.139 697.14 19.023 697.14 20.076C697.14 21.259 698.089 22.065 699.636 22.065C700.767 22.065 701.573 21.636 701.989 20.934V22H702.873V17.762C702.873 15.994 701.872 15.11 700.104 15.11ZM699.778 21.337C698.687 21.337 698.05 20.843 698.05 20.05C698.05 19.348 698.479 18.828 699.805 18.828H701.95V19.946C701.586 20.843 700.819 21.337 699.778 21.337ZM711.349 21.194V15.162H710.426V21.194H706.253V15.162H705.33V22H711.583V23.716H712.454V21.194H711.349ZM714.216 22H715.048L719.598 16.566V22H720.521V15.162H719.702L715.139 20.596V15.162H714.216V22ZM725.546 15.162C723.778 15.162 722.634 15.942 722.634 17.502C722.634 18.607 723.232 19.322 724.285 19.608L722.582 22H723.583L725.169 19.738H725.429H727.574V22H728.419V15.162H725.546ZM723.57 17.528C723.57 16.436 724.298 15.981 725.572 15.981H727.574V19.049H725.507C724.233 19.049 723.57 18.568 723.57 17.528ZM734.453 22H735.376V18.984H739.679V22H740.602V15.162H739.679V18.191H735.376V15.162H734.453V22ZM749.218 18.581C749.218 16.527 747.827 15.11 745.903 15.11C743.979 15.11 742.562 16.553 742.562 18.581C742.562 20.609 744.018 22.065 746.15 22.065C747.229 22.065 748.178 21.675 748.789 20.947L748.269 20.349C747.749 20.947 747.008 21.246 746.176 21.246C744.681 21.246 743.589 20.297 743.485 18.867H749.205C749.205 18.763 749.218 18.659 749.218 18.581ZM745.903 15.903C747.242 15.903 748.217 16.839 748.334 18.178H743.485C743.602 16.839 744.577 15.903 745.903 15.903ZM648.123 30.162H642.026V30.981H644.613V37H645.536V30.981H648.123V30.162ZM652.981 30.11C651.85 30.11 650.901 30.604 650.342 31.514V30.162H649.458V39.522H650.381V35.713C650.953 36.597 651.889 37.065 652.981 37.065C654.931 37.065 656.387 35.661 656.387 33.581C656.387 31.514 654.931 30.11 652.981 30.11ZM652.916 36.246C651.46 36.246 650.368 35.18 650.368 33.581C650.368 31.995 651.46 30.916 652.916 30.916C654.359 30.916 655.464 31.995 655.464 33.581C655.464 35.18 654.359 36.246 652.916 36.246ZM664.363 33.581C664.363 31.527 662.972 30.11 661.048 30.11C659.124 30.11 657.707 31.553 657.707 33.581C657.707 35.609 659.163 37.065 661.295 37.065C662.374 37.065 663.323 36.675 663.934 35.947L663.414 35.349C662.894 35.947 662.153 36.246 661.321 36.246C659.826 36.246 658.734 35.297 658.63 33.867H664.35C664.35 33.763 664.363 33.659 664.363 33.581ZM661.048 30.903C662.387 30.903 663.362 31.839 663.479 33.178H658.63C658.747 31.839 659.722 30.903 661.048 30.903ZM669.721 30.331C668.434 30.331 667.407 30.968 666.861 32.021C666.952 29.837 667.836 28.862 669.773 28.433L672.659 27.77L672.503 26.925L669.435 27.627C667.108 28.173 665.977 29.603 665.977 32.58C665.977 35.362 667.251 37.078 669.552 37.078C671.593 37.078 672.997 35.687 672.997 33.672C672.997 31.696 671.645 30.331 669.721 30.331ZM669.578 36.311C668.122 36.311 667.082 35.232 667.082 33.698C667.082 32.177 668.109 31.163 669.578 31.163C671.047 31.163 672.061 32.177 672.061 33.698C672.061 35.232 671.034 36.311 669.578 36.311ZM679.686 30.162L677.112 35.973L674.538 30.162H673.576L676.631 36.987L676.332 37.65C675.942 38.508 675.526 38.794 674.915 38.794C674.421 38.794 674.005 38.612 673.667 38.274L673.238 38.963C673.654 39.379 674.265 39.587 674.902 39.587C675.877 39.587 676.605 39.158 677.177 37.819L680.596 30.162H679.686ZM687.836 33.581C687.836 31.527 686.445 30.11 684.521 30.11C682.597 30.11 681.18 31.553 681.18 33.581C681.18 35.609 682.636 37.065 684.768 37.065C685.847 37.065 686.796 36.675 687.407 35.947L686.887 35.349C686.367 35.947 685.626 36.246 684.794 36.246C683.299 36.246 682.207 35.297 682.103 33.867H687.823C687.823 33.763 687.836 33.659 687.836 33.581ZM684.521 30.903C685.86 30.903 686.835 31.839 686.952 33.178H682.103C682.22 31.839 683.195 30.903 684.521 30.903ZM694.385 30.162H688.288V30.981H690.875V37H691.798V30.981H694.385V30.162ZM698.262 37.065C699.419 37.065 700.394 36.597 700.94 35.713L700.251 35.245C699.783 35.934 699.055 36.246 698.262 36.246C696.767 36.246 695.675 35.193 695.675 33.581C695.675 31.982 696.767 30.916 698.262 30.916C699.055 30.916 699.783 31.241 700.251 31.93L700.94 31.462C700.394 30.565 699.419 30.11 698.262 30.11C696.221 30.11 694.739 31.54 694.739 33.581C694.739 35.622 696.221 37.065 698.262 37.065ZM704.878 30.162C703.11 30.162 701.966 30.942 701.966 32.502C701.966 33.607 702.564 34.322 703.617 34.608L701.914 37H702.915L704.501 34.738H704.761H706.906V37H707.751V30.162H704.878ZM702.902 32.528C702.902 31.436 703.63 30.981 704.904 30.981H706.906V34.049H704.839C703.565 34.049 702.902 33.568 702.902 32.528Z" fill="#1C2129"></path>
    <rect x="642" y="44" width="138" height="32" rx="10" fill="#FB1B43"></rect>
    <path d="M663.35 65.2813C665.058 65.2813 666.472 64.6653 667.396 63.5313L665.94 62.1873C665.282 62.9573 664.456 63.3493 663.476 63.3493C661.642 63.3493 660.34 62.0613 660.34 60.2133C660.34 58.3653 661.642 57.0773 663.476 57.0773C664.456 57.0773 665.282 57.4693 665.94 58.2253L667.396 56.8813C666.472 55.7613 665.058 55.1453 663.364 55.1453C660.312 55.1453 658.044 57.2593 658.044 60.2133C658.044 63.1673 660.312 65.2813 663.35 65.2813ZM675.216 65.1133H677.792L674.488 60.0453L677.694 55.3133H675.3L672.724 59.2753H671.1V55.3133H668.846V65.1133H671.1V61.1653H672.668L675.216 65.1133ZM686.167 65.1133H688.547L684.165 55.3133H681.925L677.557 65.1133H679.881L680.749 63.0133H685.299L686.167 65.1133ZM681.477 61.2913L683.031 57.5393L684.585 61.2913H681.477ZM694.919 55.3133V59.7233C694.289 60.0033 693.561 60.1573 692.819 60.1573C691.461 60.1573 690.719 59.4713 690.719 58.1273V55.3133H688.479V58.3793C688.479 60.7453 689.921 62.0473 692.553 62.0473C693.281 62.0473 694.065 61.8933 694.919 61.5853V65.1133H697.159V55.3133H694.919ZM707.099 65.1133H709.479L705.097 55.3133H702.857L698.489 65.1133H700.813L701.681 63.0133H706.231L707.099 65.1133ZM702.409 61.2913L703.963 57.5393L705.517 61.2913H702.409ZM717.776 55.3133H709.278V57.1613H712.4V65.1133H714.64V57.1613H717.776V55.3133ZM723.946 58.5333H721.454V55.3133H719.2V65.1133H723.624C726.144 65.1133 727.656 63.9513 727.656 61.6973C727.656 59.5833 726.312 58.5333 723.946 58.5333ZM723.498 63.4333H721.454V60.2133H723.498C724.674 60.2133 725.374 60.6613 725.374 61.7393C725.374 62.8453 724.66 63.4333 723.498 63.4333Z" fill="white"></path>
    <path d="M762.11 55.7228C762.367 55.5267 762.723 55.5267 762.979 55.7228L767.101 58.8742C767.476 59.1605 767.476 59.7244 767.101 60.0107C766.845 60.2067 766.489 60.2067 766.232 60.0107L762.11 56.8593C761.736 56.573 761.736 56.0091 762.11 55.7228Z" fill="white"></path>
    <path d="M762.11 63.1941C761.736 62.9078 761.736 62.3439 762.11 62.0576L766.232 58.9062C766.489 58.7101 766.845 58.7101 767.101 58.9062C767.476 59.1925 767.476 59.7564 767.101 60.0427L762.979 63.1941C762.723 63.3901 762.367 63.3901 762.11 63.1941Z" fill="white"></path>
    <path d="M206.888 57H211.464C214.232 57 215.768 55.816 215.768 53.656C215.768 51.576 214.36 50.472 211.72 50.472H208.056V46.808H215.08V45.8H206.888V57ZM208.056 56.056V51.416H211.448C213.544 51.416 214.584 52.152 214.584 53.704C214.584 55.256 213.512 56.056 211.448 56.056H208.056ZM225.617 52.792C225.617 50.264 223.905 48.52 221.537 48.52C219.169 48.52 217.425 50.296 217.425 52.792C217.425 55.288 219.217 57.08 221.841 57.08C223.169 57.08 224.337 56.6 225.089 55.704L224.449 54.968C223.809 55.704 222.897 56.072 221.873 56.072C220.033 56.072 218.689 54.904 218.561 53.144H225.601C225.601 53.016 225.617 52.888 225.617 52.792ZM221.537 49.496C223.185 49.496 224.385 50.648 224.529 52.296H218.561C218.705 50.648 219.905 49.496 221.537 49.496ZM231.993 52.616C232.969 52.296 233.625 51.624 233.625 50.744C233.625 49.368 232.153 48.488 230.233 48.488C229.209 48.488 228.153 48.728 227.113 49.272L227.433 50.152C228.329 49.688 229.257 49.464 230.121 49.464C231.465 49.464 232.457 49.976 232.457 50.904C232.457 51.736 231.593 52.232 230.361 52.232H228.985V53.064H230.425C231.833 53.064 232.697 53.592 232.697 54.488C232.697 55.512 231.561 56.12 230.041 56.12C229.017 56.12 227.929 55.8 227.145 55.208L226.761 56.056C227.657 56.744 228.889 57.096 230.089 57.096C232.185 57.096 233.865 56.104 233.865 54.584C233.865 53.592 233.177 52.888 231.993 52.616ZM244.104 57.08C246.568 57.08 248.376 55.288 248.376 52.792C248.376 50.296 246.568 48.52 244.104 48.52C241.64 48.52 239.816 50.296 239.816 52.792C239.816 55.288 241.64 57.08 244.104 57.08ZM244.104 56.072C242.312 56.072 240.968 54.76 240.968 52.792C240.968 50.824 242.312 49.512 244.104 49.512C245.896 49.512 247.224 50.824 247.224 52.792C247.224 54.76 245.896 56.072 244.104 56.072ZM256.756 48.584H250.804V57H251.94V49.592H256.756V48.584ZM262.733 48.52C261.341 48.52 260.173 49.128 259.485 50.248V48.584H258.397V60.104H259.533V55.416C260.237 56.504 261.389 57.08 262.733 57.08C265.133 57.08 266.925 55.352 266.925 52.792C266.925 50.248 265.133 48.52 262.733 48.52ZM262.653 56.072C260.861 56.072 259.517 54.76 259.517 52.792C259.517 50.84 260.861 49.512 262.653 49.512C264.429 49.512 265.789 50.84 265.789 52.792C265.789 54.76 264.429 56.072 262.653 56.072ZM272.215 48.52C270.887 48.52 269.639 48.936 268.791 49.656L269.303 50.504C269.991 49.896 271.015 49.512 272.103 49.512C273.671 49.512 274.487 50.296 274.487 51.736V52.248H271.815C269.399 52.248 268.567 53.336 268.567 54.632C268.567 56.088 269.735 57.08 271.639 57.08C273.031 57.08 274.023 56.552 274.535 55.688V57H275.623V51.784C275.623 49.608 274.391 48.52 272.215 48.52ZM271.815 56.184C270.471 56.184 269.687 55.576 269.687 54.6C269.687 53.736 270.215 53.096 271.847 53.096H274.487V54.472C274.039 55.576 273.095 56.184 271.815 56.184ZM278.647 57H279.783V53.288H285.079V57H286.215V48.584H285.079V52.312H279.783V48.584H278.647V57ZM289.444 57H290.468L296.068 50.312V57H297.204V48.584H296.196L290.58 55.272V48.584H289.444V57ZM305.676 48.584V52.584C304.732 52.984 303.836 53.208 303.02 53.208C301.612 53.208 300.732 52.568 300.732 51.288V48.584H299.596V51.352C299.596 53.256 300.844 54.136 302.812 54.136C303.756 54.136 304.732 53.912 305.676 53.496V57H306.812V48.584H305.676ZM317.414 52.792C317.414 50.264 315.702 48.52 313.334 48.52C310.966 48.52 309.222 50.296 309.222 52.792C309.222 55.288 311.014 57.08 313.638 57.08C314.966 57.08 316.134 56.6 316.886 55.704L316.246 54.968C315.606 55.704 314.694 56.072 313.67 56.072C311.83 56.072 310.486 54.904 310.358 53.144H317.398C317.398 53.016 317.414 52.888 317.414 52.792ZM313.334 49.496C314.982 49.496 316.182 50.648 316.326 52.296H310.358C310.502 50.648 311.702 49.496 313.334 49.496ZM319.929 57H321.065V53.288H326.361V57H327.497V48.584H326.361V52.312H321.065V48.584H319.929V57ZM330.725 57H331.749L337.349 50.312V57H338.485V48.584H337.477L331.861 55.272V48.584H330.725V57ZM345.565 47.384C346.989 47.384 347.933 46.648 347.965 45.304H347.149C347.117 46.152 346.477 46.68 345.565 46.68C344.653 46.68 344.013 46.152 343.997 45.304H343.181C343.213 46.648 344.141 47.384 345.565 47.384ZM341.741 57H342.765L348.365 50.312V57H349.501V48.584H348.493L342.877 55.272V48.584H341.741V57ZM360.464 57.08C361.888 57.08 363.088 56.504 363.76 55.416L362.912 54.84C362.336 55.688 361.44 56.072 360.464 56.072C358.624 56.072 357.28 54.776 357.28 52.792C357.28 50.824 358.624 49.512 360.464 49.512C361.44 49.512 362.336 49.912 362.912 50.76L363.76 50.184C363.088 49.08 361.888 48.52 360.464 48.52C357.952 48.52 356.128 50.28 356.128 52.792C356.128 55.304 357.952 57.08 360.464 57.08ZM372.12 57H373.464L369.912 52.664L373.224 48.584H371.992L369.032 52.28H367.096V48.584H365.96V57H367.096V53.256H369.016L372.12 57ZM378.432 57.08C380.896 57.08 382.704 55.288 382.704 52.792C382.704 50.296 380.896 48.52 378.432 48.52C375.968 48.52 374.144 50.296 374.144 52.792C374.144 55.288 375.968 57.08 378.432 57.08ZM378.432 56.072C376.64 56.072 375.296 54.76 375.296 52.792C375.296 50.824 376.64 49.512 378.432 49.512C380.224 49.512 381.552 50.824 381.552 52.792C381.552 54.76 380.224 56.072 378.432 56.072ZM389.468 48.52C388.076 48.52 386.908 49.128 386.22 50.248V48.584H385.132V60.104H386.268V55.416C386.972 56.504 388.124 57.08 389.468 57.08C391.868 57.08 393.66 55.352 393.66 52.792C393.66 50.248 391.868 48.52 389.468 48.52ZM389.388 56.072C387.596 56.072 386.252 54.76 386.252 52.792C386.252 50.84 387.596 49.512 389.388 49.512C391.164 49.512 392.524 50.84 392.524 52.792C392.524 54.76 391.164 56.072 389.388 56.072ZM399.572 57.08C402.036 57.08 403.844 55.288 403.844 52.792C403.844 50.296 402.036 48.52 399.572 48.52C397.108 48.52 395.284 50.296 395.284 52.792C395.284 55.288 397.108 57.08 399.572 57.08ZM399.572 56.072C397.78 56.072 396.436 54.76 396.436 52.792C396.436 50.824 397.78 49.512 399.572 49.512C401.364 49.512 402.692 50.824 402.692 52.792C402.692 54.76 401.364 56.072 399.572 56.072ZM409.792 57.08C411.216 57.08 412.416 56.504 413.088 55.416L412.24 54.84C411.664 55.688 410.768 56.072 409.792 56.072C407.952 56.072 406.608 54.776 406.608 52.792C406.608 50.824 407.952 49.512 409.792 49.512C410.768 49.512 411.664 49.912 412.24 50.76L413.088 50.184C412.416 49.08 411.216 48.52 409.792 48.52C407.28 48.52 405.456 50.28 405.456 52.792C405.456 55.304 407.28 57.08 409.792 57.08ZM421.052 48.584H413.548V49.592H416.732V57H417.868V49.592H421.052V48.584ZM422.694 57H423.718L429.318 50.312V57H430.454V48.584H429.446L423.83 55.272V48.584H422.694V57ZM206.616 73H207.64L213.24 66.312V73H214.376V64.584H213.368L207.752 71.272V64.584H206.616V73ZM227.739 64.584H220.235V65.592H223.419V73H224.555V65.592H227.739V64.584ZM233.718 64.52C232.326 64.52 231.158 65.128 230.47 66.248V64.584H229.382V76.104H230.518V71.416C231.222 72.504 232.374 73.08 233.718 73.08C236.118 73.08 237.91 71.352 237.91 68.792C237.91 66.248 236.118 64.52 233.718 64.52ZM233.638 72.072C231.846 72.072 230.502 70.76 230.502 68.792C230.502 66.84 231.846 65.512 233.638 65.512C235.414 65.512 236.774 66.84 236.774 68.792C236.774 70.76 235.414 72.072 233.638 72.072ZM243.2 64.52C241.872 64.52 240.624 64.936 239.776 65.656L240.288 66.504C240.976 65.896 242 65.512 243.088 65.512C244.656 65.512 245.472 66.296 245.472 67.736V68.248H242.799C240.384 68.248 239.552 69.336 239.552 70.632C239.552 72.088 240.72 73.08 242.624 73.08C244.016 73.08 245.008 72.552 245.52 71.688V73H246.608V67.784C246.608 65.608 245.376 64.52 243.2 64.52ZM242.799 72.184C241.456 72.184 240.672 71.576 240.672 70.6C240.672 69.736 241.2 69.096 242.832 69.096H245.472V70.472C245.024 71.576 244.08 72.184 242.799 72.184ZM259.792 68.776C259.792 66.184 257.968 64.664 254.832 64.52V61.128H253.728V64.52C250.592 64.648 248.8 66.168 248.8 68.776C248.8 71.416 250.608 72.968 253.728 73.096V76.104H254.832V73.08C257.968 72.952 259.792 71.416 259.792 68.776ZM249.92 68.776C249.92 66.824 251.232 65.656 253.728 65.528V72.088C251.232 71.944 249.92 70.776 249.92 68.776ZM254.832 72.088V65.528C257.344 65.656 258.672 66.808 258.672 68.776C258.672 70.792 257.344 71.96 254.832 72.088ZM262.194 73H263.218L268.818 66.312V73H269.954V64.584H268.946L263.33 71.272V64.584H262.194V73ZM279.37 73H280.714L277.162 68.664L280.474 64.584H279.242L276.282 68.28H274.346V64.584H273.21V73H274.346V69.256H276.266L279.37 73ZM285.246 64.52C283.918 64.52 282.67 64.936 281.822 65.656L282.334 66.504C283.022 65.896 284.046 65.512 285.134 65.512C286.702 65.512 287.518 66.296 287.518 67.736V68.248H284.846C282.43 68.248 281.598 69.336 281.598 70.632C281.598 72.088 282.766 73.08 284.67 73.08C286.062 73.08 287.054 72.552 287.566 71.688V73H288.654V67.784C288.654 65.608 287.422 64.52 285.246 64.52ZM284.846 72.184C283.502 72.184 282.718 71.576 282.718 70.6C282.718 69.736 283.246 69.096 284.878 69.096H287.518V70.472C287.07 71.576 286.126 72.184 284.846 72.184Z" fill="#1C2129"></path>
  </g>
  <defs>
    <linearGradient id="paint0_linear_10135_184280" x1="21.3928" y1="-2.46483" x2="62.3597" y2="64.6461" gradientUnits="userSpaceOnUse">
      <stop offset="0.394669" stop-color="#FF3A3A"></stop>
      <stop offset="0.72037" stop-color="#D64D12"></stop>
      <stop offset="0.749987" stop-color="#87AB49"></stop>
    </linearGradient>
    <clipPath id="clip0_10135_184280">
      <rect width="800" height="86" rx="10" fill="white"></rect>
    </clipPath>
  </defs>
</svg>
