<svg xmlns="http://www.w3.org/2000/svg" viewBox="0 0 155.269 38.035">
    <defs>
        <style>
            .cls-1{fill:none}.cls-2{clip-path:url(#clip-path)}.cls-3{fill:#fff}
        </style>
        <clipPath id="clip-path">
            <path id="Path_266" d="M24.946 16.844l-7.938-4.583L1.7 3.42C.847 2.929 0 3.226 0 4.252v36.019c0 .769.605 1.1 1.344.674L17.008 31.9l7.938-4.582 7.63-4.4c.9-.517.809-1.226.054-1.633s-7.684-4.441-7.684-4.441z" class="cls-1" data-name="Path 266" transform="translate(0 -3.189)"/>
        </clipPath>
    </defs>
    <g id="Artwork_1" data-name="Artwork 1" transform="translate(77.634 19.018)">
        <g id="Group_40" data-name="Group 40" transform="translate(-77.634 -19.018)">
            <g id="Group_36" class="cls-2" data-name="Group 36" transform="translate(0 .091)">
                <path id="Path_265" d="M.012-17.951v39l19.664-19.5z" class="cls-3" data-name="Path 265" transform="translate(-.012 17.345)"/>
            </g>
            <g id="Group_37" class="cls-2" data-name="Group 37" transform="translate(0 .091)">
                <path id="Path_267" d="M24.958-8.492l-7.938-4.583L.012-22.9v.142l19.664 19.5z" class="cls-3" data-name="Path 267" transform="translate(-.012 22.147)"/>
            </g>
            <g id="Group_38" class="cls-2" data-name="Group 38" transform="translate(0 .091)">
                <path id="Path_269" d="M.012 681.371v.142l17.008-9.821 7.937-4.583-5.281-5.237z" class="cls-3" data-name="Path 269" transform="translate(-.012 -642.981)"/>
            </g>
            <g id="Group_39" class="cls-2" data-name="Group 39" transform="translate(0 .091)">
                <path id="Path_271" d="M690.9 479.269l-5.281 5.237 5.281 5.237 9.072-5.237z" class="cls-3" data-name="Path 271" transform="translate(-665.955 -465.614)"/>
            </g>
            <path id="Path_273" d="M1485.78 350.387a4.9 4.9 0 0 1-2.023-.409 3.814 3.814 0 0 1-1.537-1.257h-.124a15.271 15.271 0 0 1 .124 1.883v4.667h-1.72v-16.432h1.4l.238 1.552h.083a3.988 3.988 0 0 1 1.542-1.345 4.684 4.684 0 0 1 2.017-.414 4.191 4.191 0 0 1 3.482 1.542 8.212 8.212 0 0 1-.02 8.667 4.2 4.2 0 0 1-3.462 1.546zm-.249-10.3a3.044 3.044 0 0 0-2.514.962 4.955 4.955 0 0 0-.8 3.063v.382a5.675 5.675 0 0 0 .8 3.42 3.029 3.029 0 0 0 2.556 1.029 2.659 2.659 0 0 0 2.3-1.19 5.647 5.647 0 0 0 .833-3.281 5.436 5.436 0 0 0-.833-3.254 2.737 2.737 0 0 0-2.345-1.133zm8.934 10.089h-1.718v-16.1h1.718zm9.875 0l-.342-1.614h-.083a4.764 4.764 0 0 1-1.692 1.443 5.14 5.14 0 0 1-2.105.378 3.789 3.789 0 0 1-2.644-.869 3.168 3.168 0 0 1-.957-2.473q0-3.435 5.495-3.6l1.925-.062v-.7a2.873 2.873 0 0 0-.575-1.971 2.358 2.358 0 0 0-1.837-.637 7.483 7.483 0 0 0-3.208.869l-.528-1.314a8.072 8.072 0 0 1 1.837-.714 7.953 7.953 0 0 1 2-.259 4.322 4.322 0 0 1 3.006.9 3.76 3.76 0 0 1 .977 2.887v7.74h-1.273zm-3.88-1.21a3.487 3.487 0 0 0 2.519-.879 3.258 3.258 0 0 0 .916-2.463V344.6l-1.719.072a6.261 6.261 0 0 0-2.954.637 1.92 1.92 0 0 0-.905 1.754 1.768 1.768 0 0 0 .564 1.417 2.34 2.34 0 0 0 1.578.487zm6.15-10.131h1.841l2.484 6.467a24.75 24.75 0 0 1 1.015 3.2h.083q.135-.529.564-1.807t2.809-7.859h1.843l-4.874 12.914a6.443 6.443 0 0 1-1.692 2.717 3.6 3.6 0 0 1-2.374.8 6.936 6.936 0 0 1-1.553-.176v-1.371a6 6 0 0 0 1.273.124 2.623 2.623 0 0 0 2.525-1.987l.631-1.614zm-52.65 1.054a3.864 3.864 0 0 1-.309 6.571 1.669 1.669 0 0 0-.664 1.164 1.3 1.3 0 0 0 .618 1.02l.854.663c1.044.878 1.991 1.685 1.991 3.322 0 2.23-2.159 4.482-6.238 4.482-3.44 0-5.1-1.636-5.1-3.393a3.413 3.413 0 0 1 1.826-2.894 10.227 10.227 0 0 1 4.531-1.092 2.483 2.483 0 0 1-.712-1.611 2.144 2.144 0 0 1 .237-.926c-.262.024-.522.048-.76.048a3.75 3.75 0 0 1-3.937-3.723 4.266 4.266 0 0 1 1.517-3.179 6.468 6.468 0 0 1 4.248-1.3h4.885l-1.518.854h-1.47zm-1.685 10.533a3.684 3.684 0 0 0-.545-.025 9.489 9.489 0 0 0-2.491.381 2.664 2.664 0 0 0-2.04 2.443c0 1.683 1.638 2.895 4.176 2.895 2.276 0 3.487-1.093 3.487-2.563 0-1.212-.783-1.85-2.587-3.131zm.688-4.508a2.4 2.4 0 0 0 .592-1.732c0-1.707-1.019-4.364-2.988-4.364a2.215 2.215 0 0 0-1.661.783 2.74 2.74 0 0 0-.522 1.755c0 1.589.925 4.222 2.966 4.222a2.429 2.429 0 0 0 1.614-.66zm-13.937 4.128a5.589 5.589 0 0 1-5.778-5.59 5.868 5.868 0 0 1 6.135-5.754 5.536 5.536 0 0 1 5.659 5.589 5.786 5.786 0 0 1-6.015 5.759zm2.96-1.918a4.285 4.285 0 0 0 .711-2.63c0-2.085-.995-6.063-3.932-6.063a3.3 3.3 0 0 0-2.131.807 3.583 3.583 0 0 0-1.09 2.89c0 2.343 1.161 6.2 4.027 6.2a3.025 3.025 0 0 0 2.414-1.206zm-15.8 1.918a5.589 5.589 0 0 1-5.779-5.59 5.869 5.869 0 0 1 6.135-5.754 5.536 5.536 0 0 1 5.659 5.589 5.786 5.786 0 0 1-6.011 5.759zm2.961-1.918a4.291 4.291 0 0 0 .711-2.63c0-2.085-1-6.063-3.932-6.063a3.3 3.3 0 0 0-2.131.807 3.582 3.582 0 0 0-1.089 2.89c0 2.343 1.16 6.2 4.027 6.2a3.028 3.028 0 0 0 2.415-1.206zm-10.549 1.547l-3.405.786a25.234 25.234 0 0 1-3.928.4c-6.573 0-9.072-4.834-9.072-8.62 0-4.619 3.547-8.9 9.62-8.9a13.72 13.72 0 0 1 3.642.5 9.292 9.292 0 0 1 3.143 1.476l-1.977 1.881-.833.19.6-.953a6.806 6.806 0 0 0-5.1-2.237c-3.762 0-6.6 2.858-6.6 7.025a8.42 8.42 0 0 0 8.428 8.69 7.091 7.091 0 0 0 3.024-.6v-3.833l-3.595.19 1.9-1.025h5.048l-.618.6a.555.555 0 0 0-.238.38c-.025.215-.047.906-.047 1.144v2.906z" class="cls-3" data-name="Path 273" transform="translate(-1361.98 -323.78)"/>
            <path id="Path_274" d="M3298.046 331.035c-.786-.072-.951-.214-.951-1.143v-13.477c0-.051.008-.1.013-.154.1-.833.334-.976 1.073-1.4h-3.406l-1.786.857h1.821v.011-.009 14.7c0 .475-.094.548-.642 1.261h4.215l.881-.522c-.407-.054-.812-.077-1.218-.124zm9.689.219c-.259.142-.519.308-.779.426a5.51 5.51 0 0 1-2.3.45 5.053 5.053 0 0 1-3.145-.923 6.12 6.12 0 0 1-2.41-4.99 5.358 5.358 0 0 1 5.414-5.461 4.6 4.6 0 0 1 2.437.663 3.916 3.916 0 0 1 1.653 2.34l-5.551 2.241-1.821.142c.59 3 2.624 4.751 4.871 4.751a6.11 6.11 0 0 0 2.885-.826l-1.253 1.182zm-2.222-7.047c.448-.165.685-.307.685-.638a2.346 2.346 0 0 0-2.341-2.034c-.947 0-2.719.733-2.719 3.287 0 .4.048.827.072 1.254l4.3-1.87zm4.5-3.289v1.56h-.19v-1.56h-.516v-.162h1.222v.162zm2.127 1.56V320.9h-.009l-.48 1.575h-.148l-.485-1.575h-.006v1.575h-.172v-1.722h.3l.438 1.392h.006l.432-1.392h.3v1.722h-.17z" class="cls-3" data-name="Path 274" transform="translate(-3198.541 -305.826)"/>
            <path id="Path_275" d="M1408.3 4.925h-1.183a7.808 7.808 0 0 0-.337-1.383h-1.708a7.161 7.161 0 0 0-.348 1.383h-1.113q0-.144.863-2.366a18.581 18.581 0 0 0 .863-2.447h1.4a20.407 20.407 0 0 0 .782 2.412 21.278 21.278 0 0 1 .781 2.401zm-1.708-2.089a20.8 20.8 0 0 1-.632-2.063h-.059q0 .144-.654 2.063zm6.476 2.089h-.913a9.012 9.012 0 0 0-1.017-1.6 8.839 8.839 0 0 1-1.213-2.089h-.059a12.987 12.987 0 0 1 .093 1.464q0 .913.052 2.226h-.91q.055-1.146.055-2.518 0-1.35-.055-2.3h1.1a6.95 6.95 0 0 0 .913 1.564 9.193 9.193 0 0 1 1.116 1.971h.055a13.957 13.957 0 0 1-.089-1.479q0-1-.052-2.056h.924q-.052.917-.052 2.3t.052 2.517zm5.359-2.573a2.728 2.728 0 0 1-.673 1.834 2.35 2.35 0 0 1-1.886.784q-.547 0-1.509-.044.048-1.117.048-2.518 0-1.345-.048-2.3h.647q.159 0 .473-.011c.209-.007.346-.011.41-.011a2.492 2.492 0 0 1 1.936.666 2.3 2.3 0 0 1 .6 1.6zm-1.009.159a1.782 1.782 0 0 0-.414-1.2 1.57 1.57 0 0 0-1.264-.486 3.857 3.857 0 0 0-.437.033q.037.74.037 1.545 0 .884.037 1.752a2.446 2.446 0 0 0 .48.048 1.4 1.4 0 0 0 1.177-.494 1.912 1.912 0 0 0 .384-1.2zm5.951 2.414h-1.094a7.275 7.275 0 0 0-.658-1.616.862.862 0 0 0-.739-.307h-.41q0 .951.033 1.919h-1.028q.048-1.117.048-2.518 0-1.345-.048-2.3h.639q.111 0 .464-.011t.652-.011q1.7 0 1.7 1.161a1.3 1.3 0 0 1-.969 1.283v.055a1.154 1.154 0 0 1 .654.582 12.93 12.93 0 0 1 .755 1.763zm-1.386-3.4q0-.736-.947-.736a3.248 3.248 0 0 0-.614.052q.041.573.041 1.494c.136.005.25.007.344.007q1.174-.002 1.175-.819zm6.686.906a2.655 2.655 0 0 1-.7 1.882 2.256 2.256 0 0 1-1.719.747 2.173 2.173 0 0 1-1.634-.686 2.417 2.417 0 0 1-.658-1.743 2.656 2.656 0 0 1 .7-1.882 2.256 2.256 0 0 1 1.717-.749 2.175 2.175 0 0 1 1.634.684 2.414 2.414 0 0 1 .659 1.745zm-1.02.107a1.909 1.909 0 0 0-.4-1.253 1.218 1.218 0 0 0-.976-.481 1.127 1.127 0 0 0-.917.484 1.936 1.936 0 0 0-.378 1.224 1.905 1.905 0 0 0 .4 1.251 1.217 1.217 0 0 0 .974.483 1.127 1.127 0 0 0 .917-.486 1.936 1.936 0 0 0 .377-1.222zm3.111 2.389h-1.046q.048-1.146.048-2.518 0-1.35-.048-2.3h1.046q-.048.932-.048 2.3-.002 1.391.046 2.516zm5.359-2.573a2.728 2.728 0 0 1-.673 1.834 2.35 2.35 0 0 1-1.886.784q-.547 0-1.509-.044.048-1.117.048-2.518 0-1.345-.048-2.3h.647q.159 0 .473-.011t.41-.011a2.492 2.492 0 0 1 1.936.666 2.3 2.3 0 0 1 .6 1.6zm-1.009.159a1.782 1.782 0 0 0-.414-1.2 1.57 1.57 0 0 0-1.264-.486 3.852 3.852 0 0 0-.436.033q.037.74.037 1.545 0 .884.037 1.752a2.446 2.446 0 0 0 .48.048 1.4 1.4 0 0 0 1.177-.494 1.912 1.912 0 0 0 .384-1.2zm8.119 2.414h-1.183a7.807 7.807 0 0 0-.337-1.383H1440a7.166 7.166 0 0 0-.348 1.383h-1.112q0-.144.863-2.366a18.569 18.569 0 0 0 .863-2.447h1.4a20.38 20.38 0 0 0 .782 2.412 21.278 21.278 0 0 1 .782 2.4zm-1.708-2.089a20.931 20.931 0 0 1-.633-2.063h-.059q0 .144-.654 2.063zm6.021-1.464a1.441 1.441 0 0 1-.656 1.305 2.924 2.924 0 0 1-1.61.422c-.116 0-.2 0-.248-.007q0 .7.041 1.834h-1.039q.048-1.068.048-2.518 0-1.331-.048-2.3h.643q.137 0 .525-.011t.673-.011a2.116 2.116 0 0 1 1.187.318 1.076 1.076 0 0 1 .485.964zm-.954.2q0-.791-1.05-.791a2.983 2.983 0 0 0-.554.055q.041.7.041 1.583c.062.005.133.007.214.007q1.347.001 1.346-.853zm5.388-.2a1.441 1.441 0 0 1-.656 1.305 2.924 2.924 0 0 1-1.61.422c-.116 0-.2 0-.248-.007q0 .7.041 1.834h-1.039q.048-1.068.048-2.518 0-1.331-.048-2.3h.643q.137 0 .525-.011t.673-.011a2.117 2.117 0 0 1 1.187.318 1.077 1.077 0 0 1 .485.964zm-.954.2q0-.791-1.05-.791a2.98 2.98 0 0 0-.554.055q.041.7.041 1.583c.062.005.133.007.214.007q1.347.001 1.347-.853zm8.2.854a2.655 2.655 0 0 1-.7 1.882 2.253 2.253 0 0 1-1.719.747 2.172 2.172 0 0 1-1.634-.686 2.416 2.416 0 0 1-.658-1.743 2.655 2.655 0 0 1 .7-1.882 2.253 2.253 0 0 1 1.721-.746 2.176 2.176 0 0 1 1.634.684 2.415 2.415 0 0 1 .658 1.745zm-1.021.107a1.909 1.909 0 0 0-.4-1.253 1.217 1.217 0 0 0-.976-.48 1.127 1.127 0 0 0-.917.484 1.935 1.935 0 0 0-.377 1.224 1.9 1.9 0 0 0 .4 1.251 1.217 1.217 0 0 0 .974.483 1.126 1.126 0 0 0 .917-.486 1.931 1.931 0 0 0 .377-1.222zm6.032 2.389h-.913a9.009 9.009 0 0 0-1.017-1.6 8.836 8.836 0 0 1-1.213-2.089h-.059a13.016 13.016 0 0 1 .093 1.464q0 .913.052 2.226h-.91q.055-1.146.056-2.518 0-1.35-.056-2.3h1.1a6.952 6.952 0 0 0 .913 1.564 9.178 9.178 0 0 1 1.117 1.971h.055a13.957 13.957 0 0 1-.089-1.479q0-1-.052-2.056h.925q-.052.917-.052 2.3t.052 2.518z" class="cls-3" data-name="Path 275" transform="translate(-1363.354)"/>
        </g>
    </g>
</svg>
