<svg xmlns="http://www.w3.org/2000/svg" viewBox="0 0 132.017 35.212"><defs><style>.cls-1{fill:#fff}</style></defs><g id="Artwork_3" data-name="Artwork 3" transform="translate(66.009 17.606)"><g id="Group_33" data-name="Group 33" transform="translate(-66.009 -17.606)"><path id="Path_256" d="M20.927 16.373A7 7 0 0 1 24.26 10.5a7.168 7.168 0 0 0-5.644-3.051c-2.374-.25-4.678 1.42-5.887 1.42-1.234 0-3.1-1.4-5.1-1.355a7.516 7.516 0 0 0-6.329 3.86c-2.736 4.734-.7 11.691 1.925 15.518 1.311 1.875 2.843 3.967 4.848 3.893 1.962-.08 2.694-1.249 5.061-1.249 2.345 0 3.033 1.249 5.078 1.2 2.105-.033 3.431-1.883 4.7-3.774a15.467 15.467 0 0 0 2.147-4.372 6.768 6.768 0 0 1-4.132-6.217zM17.064 4.935A6.885 6.885 0 0 0 18.641 0 7.016 7.016 0 0 0 14.1 2.346 6.552 6.552 0 0 0 12.487 7.1a5.8 5.8 0 0 0 4.577-2.164z" class="cls-1" data-name="Path 256"/><path id="Path_257" d="M1367.692 554.468h-2.741l-1.5-4.717h-5.22l-1.43 4.717h-2.669l5.173-16.06h3.194l5.2 16.06zm-4.7-6.7-1.358-4.194q-.216-.643-.81-3.025h-.048q-.239 1.025-.763 3.025l-1.335 4.194zm17.972.764a6.559 6.559 0 0 1-1.606 4.669 4.7 4.7 0 0 1-3.571 1.525 3.577 3.577 0 0 1-3.307-1.642v6.076h-2.574v-12.47q0-1.855-.1-3.806h2.263l.144 1.836h.048a4.579 4.579 0 0 1 7.328-.455 6.411 6.411 0 0 1 1.379 4.27zm-2.622.094a4.778 4.778 0 0 0-.763-2.789 2.637 2.637 0 0 0-2.24-1.143 2.677 2.677 0 0 0-1.727.631 2.932 2.932 0 0 0-1.013 1.657 3.36 3.36 0 0 0-.119.783v1.935a3.1 3.1 0 0 0 .775 2.134 2.575 2.575 0 0 0 2.013.87 2.638 2.638 0 0 0 2.263-1.12 4.929 4.929 0 0 0 .811-2.956zm15.945-.094a6.559 6.559 0 0 1-1.605 4.669 4.71 4.71 0 0 1-3.572 1.525 3.577 3.577 0 0 1-3.308-1.642v6.076h-2.573v-12.47q0-1.855-.1-3.806h2.263l.144 1.836h.048a4.58 4.58 0 0 1 7.33-.455 6.423 6.423 0 0 1 1.377 4.27zm-2.623.094a4.773 4.773 0 0 0-.764-2.789 2.635 2.635 0 0 0-2.238-1.143 2.688 2.688 0 0 0-1.73.631 2.926 2.926 0 0 0-1.011 1.657 3.436 3.436 0 0 0-.121.783v1.935a3.1 3.1 0 0 0 .774 2.134 2.578 2.578 0 0 0 2.016.87 2.635 2.635 0 0 0 2.263-1.12 4.927 4.927 0 0 0 .811-2.956zm17.519 1.333a4.281 4.281 0 0 1-1.428 3.337 6.333 6.333 0 0 1-4.376 1.406 7.64 7.64 0 0 1-4.16-1l.595-2.145a7.153 7.153 0 0 0 3.718 1 3.5 3.5 0 0 0 2.263-.655 2.14 2.14 0 0 0 .812-1.75 2.242 2.242 0 0 0-.669-1.645 6.2 6.2 0 0 0-2.216-1.238q-4.219-1.573-4.22-4.6a4.057 4.057 0 0 1 1.49-3.24 5.89 5.89 0 0 1 3.945-1.264 7.8 7.8 0 0 1 3.647.763l-.646 2.1a6.382 6.382 0 0 0-3.087-.739 3.14 3.14 0 0 0-2.13.667 1.91 1.91 0 0 0-.646 1.455 1.967 1.967 0 0 0 .74 1.573 8.343 8.343 0 0 0 2.334 1.238 7.93 7.93 0 0 1 3.05 1.953 4.059 4.059 0 0 1 .988 2.788zm8.531-5.144h-2.837v5.622q0 2.145 1.5 2.143a4.525 4.525 0 0 0 1.143-.12l.071 1.954a5.842 5.842 0 0 1-2 .285 3.084 3.084 0 0 1-2.384-.93 4.571 4.571 0 0 1-.858-3.122v-5.837h-1.69v-1.931h1.69v-2.12l2.528-.763v2.883h2.837zm12.774 3.764a6.347 6.347 0 0 1-1.526 4.384 5.434 5.434 0 0 1-4.242 1.763 5.181 5.181 0 0 1-4.064-1.69 6.159 6.159 0 0 1-1.514-4.265 6.3 6.3 0 0 1 1.561-4.407 5.411 5.411 0 0 1 4.208-1.716 5.29 5.29 0 0 1 4.1 1.692 6.073 6.073 0 0 1 1.479 4.238zm-2.668.059a5.186 5.186 0 0 0-.689-2.732 2.546 2.546 0 0 0-2.313-1.379 2.584 2.584 0 0 0-2.36 1.379 5.267 5.267 0 0 0-.69 2.78 5.181 5.181 0 0 0 .69 2.733 2.64 2.64 0 0 0 4.651-.023 5.206 5.206 0 0 0 .711-2.759zm11.037-3.491a4.485 4.485 0 0 0-.811-.071 2.434 2.434 0 0 0-2.1 1.026 3.868 3.868 0 0 0-.642 2.287v6.076h-2.574v-7.934q0-1.823-.075-3.646h2.242l.103 2.215h.071a3.972 3.972 0 0 1 1.287-1.835 3.112 3.112 0 0 1 1.86-.62 4.126 4.126 0 0 1 .643.047v2.455zm11.51 2.98a6.021 6.021 0 0 1-.094 1.167h-7.721a3.358 3.358 0 0 0 1.12 2.624 3.836 3.836 0 0 0 2.525.808 8.573 8.573 0 0 0 3.124-.547l.4 1.785a9.648 9.648 0 0 1-3.883.716 5.626 5.626 0 0 1-4.232-1.583 5.854 5.854 0 0 1-1.537-4.253 6.637 6.637 0 0 1 1.432-4.359 4.932 4.932 0 0 1 4.05-1.857 4.317 4.317 0 0 1 3.792 1.857 6.251 6.251 0 0 1 1.021 3.642zm-2.454-.667a3.484 3.484 0 0 0-.5-1.978 2.248 2.248 0 0 0-2.05-1.074 2.44 2.44 0 0 0-2.049 1.049 3.844 3.844 0 0 0-.762 2z" class="cls-1" data-name="Path 257" transform="translate(-1318.353 -523.951)"/><path id="Path_258" d="M1413 23.72a16.436 16.436 0 0 1-1.85-.094v-7.765a14.014 14.014 0 0 1 2.179-.164c2.951 0 4.311 1.452 4.311 3.818-.001 2.73-1.607 4.205-4.64 4.205zm.432-7.027a5.165 5.165 0 0 0-1.019.082v5.9a6.677 6.677 0 0 0 .854.035c1.934 0 3.035-1.1 3.035-3.162a2.575 2.575 0 0 0-2.87-2.855zm8.443 7.086a2.709 2.709 0 0 1-2.741-2.928 2.772 2.772 0 0 1 2.835-3.01 2.688 2.688 0 0 1 2.741 2.917 2.789 2.789 0 0 1-2.836 3.021zm.048-5.013c-.914 0-1.5.854-1.5 2.049 0 1.172.6 2.026 1.487 2.026s1.487-.914 1.487-2.05c0-1.159-.585-2.025-1.475-2.025zm12.273-.807-1.781 5.691h-1.16l-.738-2.472a18.76 18.76 0 0 1-.458-1.838h-.024a12.308 12.308 0 0 1-.456 1.838l-.785 2.472h-1.172l-1.675-5.691h1.3l.645 2.706q.228.967.386 1.827h.024c.093-.479.245-1.078.468-1.815l.809-2.716h1.031l.774 2.659c.187.644.339 1.277.458 1.874h.034a16.389 16.389 0 0 1 .386-1.874l.692-2.659h1.242zm6.554 5.691h-1.265v-3.268c0-1.006-.386-1.511-1.148-1.511a1.314 1.314 0 0 0-1.265 1.394v3.385h-1.265v-4.065c0-.5-.012-1.043-.047-1.628h1.113l.059.879h.035a2.045 2.045 0 0 1 1.8-.994c1.2 0 1.98.914 1.98 2.4v3.408zm3.489 0h-1.266v-8.3h1.266zm4.612.129a2.71 2.71 0 0 1-2.741-2.928 2.772 2.772 0 0 1 2.834-3.01 2.687 2.687 0 0 1 2.741 2.917 2.788 2.788 0 0 1-2.834 3.021zm.047-5.013c-.914 0-1.5.854-1.5 2.049 0 1.172.6 2.026 1.486 2.026s1.487-.914 1.487-2.05c0-1.159-.583-2.025-1.474-2.025zm7.775 4.884-.092-.655h-.034a1.944 1.944 0 0 1-1.665.784 1.655 1.655 0 0 1-1.744-1.675c0-1.4 1.218-2.131 3.327-2.131v-.1c0-.749-.4-1.125-1.182-1.125a2.665 2.665 0 0 0-1.487.422l-.257-.831a3.639 3.639 0 0 1 1.954-.492c1.487 0 2.238.784 2.238 2.354v2.1a8.6 8.6 0 0 0 .082 1.359h-1.141zm-.174-2.835c-1.405 0-2.11.34-2.11 1.148a.806.806 0 0 0 .868.889 1.211 1.211 0 0 0 1.242-1.159zm7.375 2.835-.059-.914h-.035a1.909 1.909 0 0 1-1.828 1.043c-1.372 0-2.389-1.207-2.389-2.9 0-1.78 1.054-3.034 2.493-3.034a1.71 1.71 0 0 1 1.605.774h.026v-3.272h1.266v6.769c0 .55.013 1.066.047 1.534h-1.126zm-.187-3.349a1.377 1.377 0 0 0-1.333-1.476c-.938 0-1.511.831-1.511 2 0 1.148.6 1.933 1.486 1.933a1.42 1.42 0 0 0 1.358-1.511V20.3zm9.295 3.478a2.709 2.709 0 0 1-2.74-2.928 2.772 2.772 0 0 1 2.834-3.01 2.687 2.687 0 0 1 2.741 2.917 2.787 2.787 0 0 1-2.836 3.021zm.047-5.013c-.913 0-1.5.854-1.5 2.049 0 1.172.6 2.026 1.486 2.026s1.487-.914 1.487-2.05c0-1.159-.583-2.025-1.475-2.025zm9.592 4.884h-1.266v-3.268c0-1.006-.386-1.511-1.148-1.511a1.313 1.313 0 0 0-1.264 1.394v3.385h-1.266v-4.065c0-.5-.012-1.043-.047-1.628h1.113l.059.879h.035a2.044 2.044 0 0 1 1.8-1c1.2 0 1.981.914 1.981 2.4zm8.511-4.743h-1.392v2.764c0 .7.244 1.055.736 1.055a2.493 2.493 0 0 0 .561-.059l.035.961a2.8 2.8 0 0 1-.981.141c-1 0-1.593-.55-1.593-1.991v-2.87h-.831v-.948h.83v-1.044l1.242-.375v1.417h1.392v.95zm6.7 4.743h-1.264v-3.244c0-1.019-.385-1.534-1.148-1.534a1.241 1.241 0 0 0-1.266 1.347v3.431h-1.264v-8.3h1.264v3.419h.025a1.919 1.919 0 0 1 1.712-.926c1.2 0 1.941.936 1.941 2.424zm6.861-2.542h-3.8a1.634 1.634 0 0 0 1.794 1.686 4.276 4.276 0 0 0 1.534-.269l.2.879a4.754 4.754 0 0 1-1.91.351 2.642 2.642 0 0 1-2.834-2.869 2.78 2.78 0 0 1 2.692-3.057c1.455 0 2.367 1.078 2.367 2.706a2.435 2.435 0 0 1-.043.573zm-1.16-.9c0-.879-.443-1.5-1.252-1.5a1.5 1.5 0 0 0-1.383 1.5z" class="cls-1" data-name="Path 258" transform="translate(-1373.866 -14.942)"/></g></g></svg>