<svg width="1099" height="600" viewBox="0 0 1099 600" fill="none" xmlns="http://www.w3.org/2000/svg">
<g filter="url(#filter0_f_5796_19342)">
<circle cx="315.5" cy="261.5" r="150.5" fill="#F15A23" fill-opacity="0.15"/>
</g>
<g filter="url(#filter1_f_5796_19342)">
<circle cx="822.5" cy="357.5" r="150.5" fill="#107C10" fill-opacity="0.15"/>
</g>
<g filter="url(#filter2_b_5796_19342)">
<rect x="365" y="232" width="289" height="197" rx="5" fill="white" fill-opacity="0.07"/>
<rect x="365" y="232" width="289" height="24.4071" fill="white" fill-opacity="0.06"/>
<ellipse cx="378.927" cy="244.204" rx="3.48193" ry="3.48673" fill="white" fill-opacity="0.52"/>
<ellipse cx="391.115" cy="244.204" rx="3.48193" ry="3.48673" fill="white" fill-opacity="0.52"/>
<ellipse cx="403.302" cy="244.204" rx="3.48193" ry="3.48673" fill="white" fill-opacity="0.52"/>
<g clip-path="url(#clip0_5796_19342)">
<path d="M456.93 358.746C463.814 381.73 485.104 398.491 510.298 398.491C541.066 398.491 566.009 373.514 566.009 342.703C566.009 311.893 541.066 286.916 510.298 286.916C480.774 286.916 456.615 309.916 454.707 338.997C458.318 345.059 459.719 348.809 456.927 358.746H456.93Z" fill="url(#paint0_linear_5796_19342)"/>
<path d="M507.429 328.73L507.434 329.006L493.802 348.836C491.594 348.735 489.38 349.124 487.277 349.991C486.361 350.363 485.487 350.831 484.669 351.385L454.733 339.03C454.733 339.03 454.04 350.442 456.927 358.946L478.09 367.691C479.134 372.447 482.407 376.617 487.216 378.622C490.999 380.196 495.251 380.202 499.039 378.639C502.826 377.076 505.839 374.071 507.416 370.285C508.258 368.268 508.663 366.096 508.607 363.911L528.094 349.956L528.573 349.964C540.246 349.964 549.734 340.435 549.734 328.73C549.734 317.025 540.263 307.531 528.573 307.507C516.905 307.507 507.411 317.025 507.411 328.73H507.429ZM504.156 368.915C501.624 375.017 494.639 377.888 488.569 375.355C485.875 374.221 483.691 372.135 482.434 369.494L489.323 372.353C490.387 372.796 491.528 373.026 492.681 373.027C493.833 373.029 494.975 372.804 496.041 372.363C497.106 371.923 498.075 371.277 498.891 370.462C499.707 369.647 500.355 368.678 500.797 367.613C501.693 365.459 501.698 363.037 500.812 360.879C499.926 358.721 498.22 357.004 496.071 356.105L488.933 353.15C491.68 352.104 494.803 352.069 497.724 353.284C500.684 354.509 502.947 356.818 504.159 359.769C505.371 362.721 505.364 365.975 504.142 368.915M528.592 342.878C524.851 342.868 521.267 341.373 518.625 338.722C515.982 336.071 514.497 332.479 514.493 328.734C514.498 324.989 515.983 321.398 518.626 318.748C521.268 316.097 524.852 314.604 528.592 314.593C532.332 314.603 535.917 316.096 538.56 318.746C541.203 321.397 542.689 324.988 542.694 328.734C542.69 332.48 541.204 336.072 538.561 338.723C535.918 341.375 532.333 342.868 528.592 342.878ZM518.028 328.711C518.025 325.897 519.139 323.197 521.124 321.204C523.109 319.212 525.802 318.09 528.613 318.085C534.454 318.085 539.205 322.845 539.205 328.711C539.206 331.526 538.091 334.226 536.105 336.218C534.119 338.21 531.424 339.331 528.613 339.333C525.802 339.329 523.109 338.208 521.124 336.216C519.139 334.225 518.026 331.525 518.028 328.711Z" fill="white"/>
</g>
</g>
<g filter="url(#filter3_b_5796_19342)">
<rect x="556" y="135" width="166" height="113" rx="5" fill="white" fill-opacity="0.07"/>
<rect x="556" y="135" width="166" height="14" fill="white" fill-opacity="0.06"/>
<circle cx="564" cy="142" r="2" fill="white" fill-opacity="0.52"/>
<circle cx="571" cy="142" r="2" fill="white" fill-opacity="0.52"/>
<circle cx="578" cy="142" r="2" fill="white" fill-opacity="0.52"/>
<g clip-path="url(#clip1_5796_19342)">
<path fill-rule="evenodd" clip-rule="evenodd" d="M662.74 182.118C662.74 181.854 662.477 181.642 662.215 181.695L657.12 180.955H656.962H649.871C649.451 177.626 648.191 172.024 645.774 168.801C644.461 167.004 642.886 166.106 641.205 166.106C640.154 166.106 639.104 166.476 638.263 167.11C637.423 166.581 636.372 166.37 635.374 166.423C630.542 166.898 629.071 174.033 628.756 180.955C624.554 180.955 620.3 181.008 616.098 181.114C615.783 181.114 615.52 181.325 615.52 181.642C615.415 183.598 614.942 191.207 614.312 202.939C613.629 215.358 613.261 222.122 613.156 223.919C613.156 224.183 613.366 224.394 613.629 224.447L633.956 227.565L654.073 230.63C654.231 230.63 654.389 230.63 654.546 230.524L664.473 224.13C664.789 223.972 664.946 223.654 664.894 223.285L662.74 182.118ZM641.205 168.008C642.203 168.061 643.148 168.537 643.726 169.329C646.195 172.024 647.403 177.732 647.928 180.955H644.881C644.199 176.675 642.465 171.232 639.839 168.378C640.259 168.114 640.785 168.008 641.205 168.008ZM638.421 169.646C640.732 172.024 642.308 176.992 642.938 180.955H635.532C635.742 177.309 636.477 172.236 638.421 169.646ZM629.702 208.065L624.187 210.073C623.241 210.443 623.084 210.919 623.871 211.183C624.922 211.447 626.025 211.394 627.075 211.024L629.702 210.073V212.874L629.176 212.98C626.445 213.455 623.609 213.191 620.93 212.293C618.356 211.553 617.884 210.02 619.092 209.122C619.985 208.541 620.983 208.065 622.033 207.695L629.702 204.947V208.065ZM635.637 168.325C636.057 168.272 636.53 168.325 636.898 168.537C634.482 171.866 633.799 177.679 633.589 180.955H630.7C631.067 173.134 632.801 168.589 635.637 168.325ZM636.11 196.122V216.045L630.752 214.354V190.573C633.221 191.102 635.69 191.789 638.106 192.581C642.623 194.167 644.146 196.069 644.146 200.455C644.146 204.736 641.52 206.374 638.211 204.736V196.809C638.211 195.858 638.053 195.012 637.16 194.748C636.53 194.589 636.11 195.171 636.11 196.122ZM650.974 210.073C650.344 210.866 648.768 211.447 648.768 211.447L637.108 215.675V212.557L645.722 209.492C646.667 209.122 646.825 208.646 646.037 208.382C644.987 208.118 643.884 208.171 642.833 208.541L637.108 210.549V207.325L637.423 207.22C638.736 206.797 640.049 206.533 641.415 206.374C643.936 206.11 646.457 206.427 648.821 207.272C651.342 208.065 651.605 209.281 650.974 210.073Z" fill="#0072CE"/>
</g>
</g>
<g filter="url(#filter4_b_5796_19342)">
<rect x="672" y="371" width="166" height="113" rx="5" fill="white" fill-opacity="0.07"/>
<rect x="672" y="371" width="166" height="14" fill="white" fill-opacity="0.06"/>
<circle cx="680" cy="378" r="2" fill="white" fill-opacity="0.52"/>
<circle cx="687" cy="378" r="2" fill="white" fill-opacity="0.52"/>
<circle cx="694" cy="378" r="2" fill="white" fill-opacity="0.52"/>
<g clip-path="url(#clip2_5796_19342)">
<path d="M751.265 466.48C746.267 466.007 741.207 464.231 736.86 461.425C733.218 459.075 732.396 458.108 732.396 456.179C732.396 452.305 736.702 445.518 744.069 437.783C748.252 433.389 754.08 428.241 754.71 428.38C755.936 428.651 765.732 438.104 769.4 442.555C775.199 449.59 777.864 455.352 776.509 457.921C775.48 459.873 769.091 463.69 764.398 465.156C760.53 466.365 755.449 466.877 751.265 466.48ZM727.476 452.151C724.449 447.557 722.92 443.035 722.182 436.493C721.938 434.334 722.024 433.099 722.735 428.664C723.619 423.144 726.799 416.75 730.623 412.819C732.25 411.147 732.395 411.103 734.38 411.767C736.785 412.572 739.357 414.33 743.346 417.899L745.676 419.983L744.402 421.528C738.499 428.697 732.268 438.866 729.923 445.155C728.648 448.572 728.136 452.003 728.686 453.432C729.056 454.398 728.716 454.038 727.472 452.153L727.476 452.151ZM780.605 452.932C780.904 451.488 780.526 448.837 779.64 446.161C777.72 440.368 771.304 429.592 765.412 422.264L763.557 419.957L765.564 418.135C768.184 415.755 770.003 414.33 771.967 413.119C773.515 412.164 775.728 411.319 776.68 411.319C777.266 411.319 779.331 413.445 780.998 415.758C783.58 419.339 785.479 423.688 786.441 428.209C787.063 431.134 787.115 437.386 786.541 440.303C786.066 442.696 785.071 445.798 784.106 447.903C783.374 449.479 781.572 452.541 780.78 453.538C780.373 454.051 780.373 454.05 780.599 452.944L780.605 452.932ZM751.8 410.225C749.081 408.86 744.887 407.394 742.57 406.999C741.759 406.861 740.373 406.782 739.493 406.827C737.581 406.923 737.666 406.824 740.732 405.391C743.281 404.2 745.408 403.499 748.296 402.899C751.542 402.224 757.647 402.217 760.842 402.883C764.292 403.603 768.356 405.099 770.645 406.494L771.327 406.907L769.766 406.829C766.662 406.674 762.139 407.915 757.283 410.251C755.818 410.957 754.545 411.52 754.452 411.505C754.359 411.487 753.165 410.912 751.797 410.225H751.8Z" fill="#107C10"/>
</g>
</g>
<g filter="url(#filter5_b_5796_19342)">
<rect x="124" y="231" width="166" height="113" rx="5" fill="white" fill-opacity="0.07"/>
<rect x="124" y="231" width="166" height="14" fill="white" fill-opacity="0.06"/>
<circle cx="132" cy="238" r="2" fill="white" fill-opacity="0.52"/>
<circle cx="139" cy="238" r="2" fill="white" fill-opacity="0.52"/>
<circle cx="146" cy="238" r="2" fill="white" fill-opacity="0.52"/>
<g clip-path="url(#clip3_5796_19342)">
<path d="M205.617 293.225L179.234 318.276C179.531 319.227 180.063 320.105 180.791 320.842C181.519 321.578 182.423 322.154 183.434 322.525C184.445 322.897 185.536 323.054 186.625 322.984C187.713 322.915 188.769 322.621 189.713 322.124L219.398 306.802L205.617 293.225Z" fill="#EA4335"/>
<path d="M232.299 288.966L219.461 282.303L205.012 293.795L219.52 306.766L232.259 300.173C233.388 299.638 234.333 298.833 234.993 297.845C235.653 296.857 236.001 295.724 236.001 294.57C236.001 293.415 235.653 292.283 234.993 291.295C234.333 290.307 233.388 289.502 232.259 288.966H232.299Z" fill="#FBBC04"/>
<path d="M179.236 270.74C179.077 271.274 178.997 271.825 179 272.379V316.637C179.002 317.19 179.081 317.741 179.236 318.276L206.523 293.866L179.236 270.74Z" fill="#4285F4"/>
<path d="M205.814 294.507L219.457 282.303L189.811 266.909C188.696 266.317 187.427 266.003 186.135 266C184.574 265.997 183.055 266.457 181.809 267.31C180.563 268.162 179.659 269.36 179.234 270.722L205.814 294.507Z" fill="#34A853"/>
</g>
</g>
<g filter="url(#filter6_b_5796_19342)">
<rect x="247" y="379" width="166" height="113" rx="5" fill="white" fill-opacity="0.07"/>
<rect x="247" y="379" width="166" height="14" fill="white" fill-opacity="0.06"/>
<circle cx="255" cy="386" r="2" fill="white" fill-opacity="0.52"/>
<circle cx="262" cy="386" r="2" fill="white" fill-opacity="0.52"/>
<circle cx="269" cy="386" r="2" fill="white" fill-opacity="0.52"/>
<g clip-path="url(#clip4_5796_19342)">
<mask id="mask0_5796_19342" style="mask-type:luminance" maskUnits="userSpaceOnUse" x="277" y="396" width="105" height="93">
<path d="M277.941 396.849H381.779V488.122H277.941V396.849Z" fill="white"/>
</mask>
<g mask="url(#mask0_5796_19342)">
<path fill-rule="evenodd" clip-rule="evenodd" d="M352.914 410H307.085C303.371 410 302 411.371 302 415.089V459.944C302 460.364 302.017 460.755 302.054 461.117C302.139 461.929 302.155 462.715 302.909 463.61C302.983 463.698 303.753 464.271 303.753 464.271C304.167 464.474 304.45 464.624 304.917 464.812L327.484 474.269C328.656 474.807 329.146 475.016 329.997 474.999V474.999C329.998 474.999 329.999 474.999 330 474.999C330.001 474.999 330.002 474.999 330.003 474.999V474.999C330.854 475.016 331.344 474.807 332.516 474.269L355.082 464.812C355.55 464.624 355.833 464.474 356.247 464.271C356.247 464.271 357.017 463.698 357.091 463.61C357.845 462.715 357.861 461.929 357.946 461.117C357.983 460.755 358 460.364 358 459.944V415.089C358 411.371 356.629 410 352.914 410Z" fill="white"/>
<path d="M349.845 455.096L349.834 455.2L349.824 455.313L349.803 455.417L349.772 455.52L349.752 455.613L349.721 455.717L349.68 455.81L349.638 455.893L349.598 455.986L349.546 456.069L349.494 456.151L349.433 456.234L349.381 456.317L349.32 456.389L349.247 456.462L349.186 456.524L349.103 456.596L349.031 456.658L348.948 456.721L348.866 456.772L348.784 456.834L348.691 456.885L348.598 456.927L348.506 456.978L348.403 457.02L348.3 457.061L348.197 457.092L348.094 457.123L348.001 457.154L347.898 457.175L347.806 457.196L347.713 457.216L347.61 457.237L347.507 457.247L347.414 457.258L347.311 457.268L347.198 457.279L347.095 457.289H346.992H346.879H346.765H346.662L346.56 457.279H346.446L346.344 457.268L346.24 457.258L346.127 457.247L346.024 457.227L345.921 457.216L345.818 457.196L345.715 457.175L345.612 457.154L345.509 457.134L345.406 457.103L345.313 457.082L345.211 457.051L345.108 457.02L345.015 456.978L344.912 456.947L344.819 456.917L344.717 456.875L344.624 456.834L344.531 456.792L344.438 456.741L344.345 456.7L344.253 456.648L344.171 456.596L344.078 456.545L343.996 456.493L343.913 456.441L343.831 456.379L343.749 456.317L343.666 456.255L343.584 456.193L343.511 456.131L343.429 456.058L343.491 455.976L343.563 455.903L343.625 455.82L343.697 455.738L343.759 455.665L343.82 455.582L343.893 455.5L343.954 455.427L344.027 455.344L344.088 455.272L344.16 455.189L344.222 455.106L344.284 455.034L344.356 454.951L344.418 454.868L344.49 454.796L344.552 454.713L344.634 454.775L344.726 454.837L344.809 454.9L344.902 454.962L344.984 455.013L345.077 455.075L345.159 455.127L345.252 455.168L345.334 455.22L345.427 455.262L345.52 455.303L345.612 455.344L345.705 455.375L345.798 455.417L345.901 455.448L346.004 455.479L346.096 455.51L346.199 455.531L346.302 455.551L346.405 455.572L346.518 455.582L346.622 455.603H346.725L346.838 455.613H346.941H347.064L347.177 455.603L347.281 455.582L347.373 455.562L347.466 455.541L347.548 455.51L347.62 455.469L347.703 455.407L347.764 455.334L347.806 455.251L347.837 455.158L347.847 455.055V455.034L347.837 454.91L347.795 454.806L347.744 454.734L347.672 454.672L347.589 454.61L347.507 454.568L347.414 454.527L347.311 454.486L347.188 454.434L347.116 454.413L347.034 454.393L346.941 454.361L346.848 454.341L346.745 454.31L346.642 454.289L346.529 454.258L346.426 454.237L346.313 454.206L346.21 454.186L346.106 454.155L346.004 454.134L345.901 454.103L345.808 454.072L345.705 454.051L345.612 454.02L345.52 453.989L345.427 453.958L345.313 453.917L345.211 453.875L345.108 453.834L345.004 453.792L344.912 453.741L344.809 453.689L344.726 453.637L344.634 453.586L344.552 453.523L344.469 453.472L344.397 453.41L344.325 453.337L344.253 453.265L344.191 453.192L344.13 453.12L344.078 453.048L344.027 452.965L343.975 452.872L343.933 452.8L343.902 452.717L343.872 452.624L343.841 452.541L343.82 452.438L343.8 452.344L343.789 452.241L343.779 452.138L343.769 452.024V451.91V451.889V451.786L343.779 451.682L343.789 451.589L343.8 451.486L343.82 451.393L343.841 451.3L343.872 451.206L343.893 451.113L343.933 451.02L343.975 450.927L344.016 450.834L344.067 450.741L344.119 450.648L344.181 450.565L344.243 450.482L344.314 450.399L344.387 450.327L344.459 450.244L344.541 450.172L344.613 450.12L344.696 450.058L344.778 449.996L344.86 449.944L344.953 449.892L345.046 449.851L345.138 449.799L345.231 449.758L345.334 449.727L345.437 449.686L345.53 449.655L345.612 449.634L345.705 449.613L345.798 449.592L345.901 449.572L345.993 449.551L346.096 449.541L346.199 449.53L346.302 449.52L346.405 449.51H346.508H346.622H346.735H346.848L346.961 449.52L347.074 449.53H347.177L347.291 449.541L347.394 449.561L347.507 449.572L347.61 449.592L347.703 449.613L347.806 449.634L347.908 449.655L348.001 449.675L348.104 449.706L348.197 449.737L348.289 449.758L348.393 449.799L348.485 449.83L348.578 449.872L348.67 449.913L348.774 449.955L348.866 450.006L348.948 450.048L349.041 450.099L349.134 450.151L349.216 450.203L349.309 450.265L349.391 450.317L349.474 450.379L349.556 450.441L349.638 450.503L349.577 450.586L349.525 450.668L349.464 450.751L349.402 450.834L349.34 450.927L349.288 451.01L349.226 451.093L349.165 451.175L349.113 451.258L349.052 451.341L348.99 451.424L348.938 451.507L348.877 451.6L348.814 451.682L348.753 451.765L348.701 451.848L348.64 451.931L348.557 451.869L348.465 451.817L348.382 451.765L348.3 451.703L348.207 451.662L348.124 451.61L348.032 451.569L347.95 451.527L347.857 451.486L347.775 451.444L347.682 451.413L347.6 451.372L347.486 451.341L347.383 451.31L347.281 451.279L347.177 451.258L347.074 451.238L346.972 451.217L346.869 451.206L346.765 451.196L346.673 451.186H346.57H346.446L346.333 451.206L346.23 451.227L346.137 451.248L346.055 451.289L345.983 451.331L345.89 451.413L345.828 451.507L345.788 451.6L345.777 451.703V451.724L345.788 451.858L345.839 451.972L345.88 452.034L345.952 452.107L346.045 452.158L346.127 452.21L346.23 452.251L346.344 452.293L346.467 452.334L346.549 452.355L346.631 452.386L346.725 452.407L346.817 452.438L346.92 452.458L347.034 452.489L347.147 452.52L347.26 452.552L347.373 452.572L347.476 452.603L347.589 452.634L347.693 452.655L347.795 452.686L347.898 452.717L347.991 452.748L348.094 452.779L348.187 452.81L348.279 452.841L348.393 452.882L348.496 452.934L348.598 452.975L348.701 453.027L348.794 453.079L348.887 453.13L348.969 453.182L349.052 453.244L349.134 453.296L349.216 453.368L349.299 453.441L349.371 453.523L349.443 453.596L349.504 453.679L349.567 453.772L349.618 453.854L349.669 453.948L349.711 454.03L349.742 454.123L349.772 454.217L349.793 454.31L349.814 454.413L349.834 454.517L349.845 454.62L349.855 454.734V454.848V454.868V454.982L349.845 455.096ZM342.623 457.165H342.519H342.417H342.314H342.211H342.108H342.005H341.902H341.799H341.685H341.583H341.48H341.377H341.273H341.171H341.068H340.965H340.861H340.759H340.656H340.553H340.45H340.347H340.244H340.141H340.038H339.935H339.832H339.729H339.616H339.513H339.41H339.307H339.204H339.101H338.998H338.895H338.792H338.689H338.586H338.483H338.38H338.277H338.174H338.071H337.968H337.865H337.762H337.649H337.546H337.443H337.34H337.237H337.134H337.031H336.928H336.825H336.722V457.061V456.958V456.854V456.751V456.648V456.545V456.441V456.338V456.234V456.131V456.027V455.924V455.82V455.717V455.613V455.51V455.407V455.303V455.21V455.106V455.003V454.9V454.796V454.693V454.589V454.486V454.382V454.279V454.175V454.072V453.968V453.865V453.761V453.658V453.554V453.451V453.347V453.244V453.141V453.037V452.934V452.831V452.727V452.624V452.52V452.417V452.314V452.21V452.107V452.003V451.9V451.796V451.693V451.589V451.496V451.393V451.289V451.186V451.082V450.979V450.875V450.772V450.668V450.565V450.462V450.358V450.255V450.151V450.048V449.944V449.841V449.737V449.634H336.825H336.928H337.031H337.134H337.237H337.34H337.443H337.546H337.649H337.752H337.855H337.958H338.061H338.164H338.257H338.36H338.462H338.565H338.669H338.771H338.874H338.977H339.08H339.183H339.286H339.389H339.492H339.595H339.698H339.801H339.904H340.007H340.11H340.213H340.316H340.419H340.522H340.625H340.728H340.831H340.934H341.037H341.139H341.233H341.335H341.438H341.541H341.645H341.747H341.85H341.953H342.056H342.159H342.262H342.365H342.468H342.571H342.674V449.737V449.83V449.934V450.037V450.141V450.234V450.337V450.441V450.534V450.637V450.741V450.834V450.937V451.041V451.144V451.238V451.341H342.571H342.468H342.365H342.262H342.159H342.056H341.963H341.861H341.758H341.655H341.551H341.449H341.346H341.243H341.139H341.037H340.934H340.831H340.728H340.635H340.532H340.429H340.326H340.223H340.12H340.018H339.914H339.811H339.708H339.606H339.502H339.399H339.307H339.204H339.101H338.998H338.895H338.792H338.689V451.444V451.548V451.651V451.755V451.858V451.951V452.055V452.158V452.262V452.365V452.469V452.572H338.792H338.895H338.998H339.101H339.204H339.307H339.41H339.513H339.606H339.708H339.811H339.914H340.018H340.12H340.223H340.326H340.429H340.532H340.635H340.738H340.841H340.944H341.047H341.15H341.253H341.356H341.449H341.551H341.655H341.758H341.861H341.963H342.067H342.17H342.272V452.676V452.769V452.872V452.975V453.068V453.172V453.275V453.368V453.472V453.575V453.679V453.772V453.875V453.979V454.072V454.175H342.17H342.067H341.963H341.861H341.758H341.655H341.551H341.449H341.356H341.253H341.15H341.047H340.944H340.841H340.738H340.635H340.532H340.429H340.326H340.223H340.12H340.018H339.914H339.811H339.708H339.606H339.513H339.41H339.307H339.204H339.101H338.998H338.895H338.792H338.689V454.279V454.393V454.496V454.6V454.713V454.817V454.92V455.034V455.137V455.241V455.355V455.458H338.792H338.895H338.998H339.101H339.204H339.307H339.41H339.513H339.616H339.729H339.832H339.935H340.038H340.141H340.244H340.347H340.45H340.553H340.656H340.759H340.861H340.965H341.068H341.171H341.273H341.377H341.48H341.583H341.685H341.799H341.902H342.005H342.108H342.211H342.314H342.417H342.519H342.623H342.726V455.562V455.655V455.758V455.862V455.965V456.058V456.162V456.265V456.358V456.462V456.565V456.658V456.761V456.865V456.968V457.061V457.165H342.623ZM335.099 457.165H334.996H334.893H334.779H334.677H334.574H334.471H334.367H334.265H334.151H334.049H333.946H333.842H333.74H333.637H333.524H333.42H333.317H333.214V457.061V456.958V456.854V456.751V456.647V456.543V456.44V456.336V456.233V456.13V456.026V455.922V455.819V455.715V455.612V455.508V455.404V455.3V455.197V455.094V454.99V454.887V454.783V454.679V454.576V454.472V454.369V454.265V454.161V454.058V453.954V453.851V453.747V453.644V453.54V453.436V453.333V453.23V453.126V453.022V452.919V452.815V452.711L333.163 452.794L333.101 452.888L333.05 452.971L332.988 453.054L332.936 453.147L332.874 453.23L332.823 453.312L332.771 453.406L332.71 453.489L332.658 453.571L332.596 453.654L332.545 453.748L332.483 453.831L332.432 453.914L332.38 454.007L332.318 454.09L332.267 454.173L332.205 454.266L332.154 454.349L332.092 454.431L332.041 454.525L331.989 454.608L331.927 454.691L331.876 454.784L331.814 454.867L331.763 454.95L331.701 455.033L331.649 455.126L331.598 455.209L331.536 455.292L331.485 455.385L331.423 455.468L331.371 455.551L331.309 455.645L331.258 455.727H331.217L331.155 455.634L331.103 455.551L331.042 455.458L330.99 455.375L330.928 455.282L330.877 455.198L330.815 455.105L330.764 455.022L330.702 454.929L330.65 454.847L330.588 454.753L330.537 454.67L330.475 454.577L330.423 454.494L330.362 454.4L330.31 454.318L330.249 454.225L330.187 454.142L330.135 454.048L330.074 453.965L330.022 453.872L329.96 453.789L329.909 453.696L329.847 453.613L329.796 453.52L329.734 453.437L329.682 453.344L329.62 453.26L329.569 453.167L329.507 453.085L329.455 452.991L329.394 452.909L329.342 452.815L329.281 452.732V452.836V452.939V453.043V453.147V453.25V453.354V453.457V453.561V453.665V453.768V453.861V453.965V454.068V454.172V454.276V454.379V454.483V454.586V454.69V454.793V454.897V455.001V455.104V455.207V455.311V455.414V455.518V455.622V455.725V455.829V455.932V456.036V456.13V456.233V456.336V456.44V456.543V456.647V456.751V456.854V456.958V457.061V457.165H329.178H329.075H328.972H328.869H328.766H328.663H328.56H328.457H328.354H328.251H328.148H328.045H327.942H327.839H327.736H327.633H327.53H327.427H327.324V457.061V456.958V456.854V456.751V456.648V456.545V456.441V456.338V456.234V456.131V456.027V455.924V455.82V455.717V455.613V455.51V455.407V455.303V455.21V455.106V455.003V454.9V454.796V454.693V454.589V454.486V454.382V454.279V454.175V454.072V453.968V453.865V453.761V453.658V453.554V453.451V453.347V453.244V453.141V453.037V452.934V452.831V452.727V452.624V452.52V452.417V452.314V452.21V452.107V452.003V451.9V451.796V451.693V451.589V451.496V451.393V451.289V451.186V451.082V450.979V450.875V450.772V450.668V450.565V450.462V450.358V450.255V450.151V450.048V449.944V449.841V449.737V449.634H327.427H327.53H327.623H327.726H327.828H327.932H328.024H328.127H328.231H328.333H328.426H328.529H328.632H328.735H328.827H328.93H329.034H329.137H329.229H329.332H329.435L329.487 449.717L329.538 449.81L329.6 449.892L329.651 449.985L329.703 450.068L329.754 450.161L329.806 450.243L329.867 450.336L329.919 450.419L329.971 450.502L330.022 450.594L330.074 450.677L330.135 450.77L330.187 450.853L330.239 450.945L330.29 451.028L330.352 451.111L330.404 451.203L330.455 451.286L330.506 451.379L330.557 451.462L330.619 451.555L330.671 451.637L330.722 451.73L330.774 451.813L330.825 451.895L330.887 451.988L330.939 452.071L330.99 452.164L331.042 452.247L331.093 452.34L331.155 452.423L331.207 452.515L331.258 452.598L331.309 452.515L331.361 452.423L331.423 452.34L331.474 452.247L331.525 452.164L331.577 452.071L331.639 451.988L331.69 451.895L331.742 451.813L331.793 451.73L331.855 451.637L331.906 451.555L331.958 451.462L332.01 451.379L332.071 451.286L332.123 451.203L332.175 451.111L332.226 451.028L332.278 450.945L332.339 450.853L332.391 450.77L332.442 450.677L332.494 450.594L332.555 450.502L332.607 450.419L332.658 450.336L332.71 450.243L332.771 450.161L332.823 450.068L332.874 449.985L332.926 449.892L332.988 449.81L333.039 449.717L333.091 449.634H333.194H333.297H333.39H333.493H333.595H333.698H333.791H333.894H333.997H334.1H334.193H334.296H334.398H334.501H334.594H334.697H334.8H334.903H334.996H335.099H335.202V449.737V449.841V449.944V450.048V450.151V450.255V450.358V450.462V450.565V450.668V450.772V450.875V450.979V451.082V451.186V451.289V451.393V451.496V451.589V451.693V451.796V451.9V452.003V452.107V452.21V452.314V452.417V452.52V452.624V452.727V452.831V452.934V453.037V453.141V453.244V453.347V453.451V453.554V453.658V453.761V453.865V453.968V454.072V454.175V454.279V454.382V454.486V454.589V454.693V454.796V454.9V455.003V455.106V455.21V455.303V455.407V455.51V455.613V455.717V455.82V455.924V456.027V456.131V456.234V456.338V456.441V456.545V456.648V456.751V456.854V456.958V457.061V457.165H335.099ZM323.151 454.061L323.12 453.968L323.079 453.864L323.038 453.771L323.006 453.677L322.966 453.584L322.924 453.481L322.893 453.387L322.852 453.294L322.811 453.201L322.78 453.107L322.739 453.004L322.708 452.911L322.667 452.817L322.626 452.724L322.595 452.631L322.554 452.527L322.512 452.433L322.481 452.34L322.44 452.247L322.399 452.143L322.368 452.049L322.327 451.956L322.286 452.049L322.255 452.143L322.214 452.247L322.172 452.34L322.142 452.433L322.101 452.527L322.059 452.631L322.018 452.724L321.987 452.817L321.946 452.911L321.905 453.004L321.874 453.107L321.833 453.201L321.791 453.294L321.76 453.387L321.72 453.481L321.678 453.584L321.637 453.677L321.607 453.771L321.565 453.864L321.524 453.968L321.493 454.061L321.452 454.155H321.555H321.658H321.76H321.864H321.967H322.069H322.172H322.276H322.368H322.471H322.575H322.677H322.78H322.883H322.986H323.089H323.192L323.151 454.061ZM326.385 457.165H326.281H326.189H326.086H325.982H325.88H325.777H325.684H325.581H325.478H325.375H325.272H325.169H325.076H324.974H324.871H324.767H324.665H324.572H324.469H324.366L324.325 457.072L324.294 456.978L324.253 456.885L324.211 456.782L324.181 456.689L324.139 456.596L324.098 456.503L324.068 456.41L324.026 456.317L323.985 456.224L323.954 456.131L323.913 456.027L323.872 455.934L323.841 455.841L323.799 455.748H323.696H323.594H323.491H323.388H323.295H323.192H323.089H322.986H322.883H322.78H322.677H322.575H322.471H322.368H322.276H322.172H322.069H321.967H321.864H321.76H321.658H321.555H321.452H321.349H321.256H321.153H321.05H320.947H320.844L320.803 455.841L320.772 455.934L320.731 456.027L320.69 456.131L320.659 456.224L320.618 456.317L320.576 456.41L320.545 456.503L320.505 456.596L320.463 456.689L320.432 456.782L320.391 456.885L320.35 456.978L320.319 457.072L320.278 457.165H320.175H320.072H319.969H319.866H319.763H319.65H319.547H319.444H319.341H319.238H319.135H319.032H318.929H318.826H318.723H318.61H318.506H318.404H318.301H318.198L318.239 457.072L318.28 456.978L318.321 456.885L318.362 456.782L318.393 456.689L318.435 456.596L318.476 456.503L318.517 456.41L318.558 456.317L318.6 456.213L318.64 456.12L318.682 456.027L318.713 455.934L318.754 455.841L318.795 455.748L318.836 455.645L318.877 455.551L318.918 455.458L318.96 455.365L319.001 455.272L319.032 455.179L319.073 455.075L319.114 454.982L319.156 454.889L319.196 454.796L319.238 454.703L319.279 454.61L319.32 454.506L319.351 454.413L319.392 454.32L319.434 454.227L319.475 454.134L319.516 454.041L319.557 453.937L319.598 453.844L319.639 453.751L319.67 453.658L319.712 453.565L319.752 453.472L319.794 453.368L319.835 453.275L319.876 453.182L319.917 453.089L319.959 452.996L319.99 452.903L320.031 452.81L320.072 452.707L320.113 452.614L320.154 452.52L320.195 452.427L320.237 452.334L320.278 452.241L320.309 452.138L320.35 452.045L320.391 451.951L320.432 451.858L320.474 451.765L320.515 451.672L320.556 451.569L320.597 451.475L320.628 451.382L320.669 451.289L320.71 451.196L320.751 451.103L320.793 451L320.834 450.906L320.875 450.813L320.916 450.72L320.947 450.627L320.988 450.534L321.03 450.43L321.071 450.337L321.112 450.244L321.153 450.151L321.195 450.058L321.235 449.965L321.266 449.861L321.308 449.768L321.349 449.675L321.39 449.582H321.493H321.586H321.689H321.791H321.895H321.987H322.09H322.193H322.296H322.389H322.492H322.595H322.698H322.791H322.893H322.996H323.1H323.192H323.295L323.336 449.675L323.378 449.768L323.418 449.861L323.46 449.965L323.491 450.058L323.532 450.151L323.573 450.244L323.614 450.337L323.656 450.43L323.696 450.534L323.738 450.627L323.779 450.72L323.81 450.813L323.851 450.906L323.892 451L323.934 451.103L323.975 451.196L324.016 451.289L324.057 451.382L324.098 451.475L324.129 451.569L324.17 451.672L324.211 451.765L324.253 451.858L324.294 451.951L324.335 452.045L324.376 452.138L324.417 452.241L324.449 452.334L324.489 452.427L324.531 452.52L324.572 452.614L324.613 452.707L324.654 452.81L324.696 452.903L324.737 452.996L324.767 453.089L324.809 453.182L324.85 453.275L324.891 453.368L324.932 453.472L324.974 453.565L325.015 453.658L325.056 453.751L325.087 453.844L325.128 453.937L325.169 454.041L325.21 454.134L325.252 454.227L325.293 454.32L325.334 454.413L325.375 454.506L325.406 454.61L325.447 454.703L325.488 454.796L325.53 454.889L325.57 454.982L325.612 455.075L325.653 455.179L325.695 455.272L325.725 455.365L325.766 455.458L325.808 455.551L325.849 455.645L325.89 455.748L325.931 455.841L325.973 455.934L326.013 456.027L326.045 456.12L326.086 456.213L326.127 456.317L326.168 456.41L326.209 456.503L326.25 456.596L326.291 456.689L326.333 456.782L326.364 456.885L326.405 456.978L326.446 457.072L326.487 457.165H326.385ZM317.363 456.203L317.28 456.265L317.209 456.317L317.126 456.379L317.044 456.431L316.962 456.493L316.879 456.545L316.797 456.596L316.704 456.648L316.611 456.7L316.519 456.751L316.426 456.792L316.333 456.844L316.23 456.885L316.138 456.927L316.034 456.968L315.942 457.01L315.849 457.041L315.756 457.072L315.664 457.103L315.561 457.134L315.468 457.165L315.365 457.186L315.272 457.206L315.17 457.227L315.066 457.247L314.963 457.258L314.85 457.268L314.747 457.279L314.634 457.289L314.531 457.299L314.418 457.31H314.304H314.191H314.078H313.975L313.872 457.299L313.759 457.289L313.656 457.279L313.553 457.268L313.45 457.258L313.347 457.237L313.244 457.216L313.151 457.196L313.048 457.175L312.956 457.144L312.853 457.123L312.76 457.092L312.667 457.051L312.575 457.02L312.472 456.978L312.379 456.937L312.286 456.896L312.194 456.854L312.101 456.803L312.019 456.751L311.926 456.7L311.843 456.648L311.761 456.596L311.678 456.534L311.596 456.472L311.514 456.41L311.442 456.348L311.37 456.286L311.297 456.213L311.226 456.151L311.153 456.079L311.081 456.007L311.019 455.934L310.958 455.851L310.896 455.779L310.844 455.696L310.783 455.613L310.731 455.531L310.68 455.448L310.628 455.355L310.576 455.272L310.536 455.179L310.494 455.086L310.453 454.993L310.412 454.9L310.381 454.817L310.34 454.724L310.319 454.63L310.289 454.537L310.268 454.434L310.237 454.341L310.216 454.237L310.206 454.144L310.185 454.041L310.175 453.948L310.164 453.844L310.155 453.741L310.145 453.637V453.523V453.42V453.399V453.296L310.155 453.182V453.079L310.164 452.975L310.175 452.861L310.196 452.758L310.206 452.655L310.227 452.562L310.258 452.458L310.278 452.355L310.309 452.262L310.34 452.158L310.371 452.065L310.412 451.962L310.453 451.869L310.494 451.776L310.536 451.682L310.576 451.589L310.628 451.496L310.68 451.413L310.731 451.331L310.783 451.248L310.834 451.165L310.896 451.082L310.958 451L311.019 450.917L311.081 450.844L311.153 450.772L311.215 450.699L311.287 450.627L311.36 450.555L311.431 450.493L311.514 450.42L311.586 450.358L311.668 450.296L311.751 450.244L311.833 450.182L311.916 450.13L311.998 450.079L312.09 450.027L312.183 449.975L312.276 449.924L312.368 449.882L312.461 449.841L312.564 449.789L312.646 449.758L312.749 449.727L312.842 449.686L312.935 449.665L313.027 449.634L313.131 449.613L313.223 449.582L313.326 449.561L313.429 449.551L313.532 449.53L313.635 449.52L313.738 449.51L313.841 449.499L313.944 449.489H314.057H314.16H314.273H314.387L314.5 449.499L314.614 449.51H314.716L314.819 449.52L314.932 449.541L315.025 449.551L315.128 449.572L315.231 449.592L315.324 449.613L315.417 449.634L315.509 449.655L315.602 449.686L315.695 449.706L315.777 449.737L315.87 449.768L315.963 449.81L316.055 449.851L316.148 449.892L316.241 449.944L316.333 449.986L316.416 450.037L316.508 450.089L316.59 450.141L316.684 450.193L316.766 450.255L316.848 450.306L316.931 450.368L317.013 450.43L317.095 450.503L317.178 450.565L317.115 450.648L317.044 450.72L316.982 450.803L316.91 450.886L316.848 450.969L316.786 451.041L316.714 451.124L316.652 451.206L316.59 451.279L316.519 451.362L316.457 451.444L316.385 451.527L316.323 451.6L316.261 451.682L316.189 451.765L316.127 451.848L316.055 451.92L315.993 452.003L315.911 451.941L315.829 451.869L315.746 451.817L315.664 451.755L315.582 451.703L315.499 451.651L315.417 451.6L315.324 451.548L315.241 451.507L315.159 451.465L315.077 451.434L314.984 451.403L314.892 451.372L314.799 451.351L314.696 451.331L314.593 451.31L314.49 451.3L314.377 451.289L314.263 451.279H314.15H314.047L313.944 451.289L313.851 451.3L313.748 451.32L313.656 451.341L313.563 451.372L313.47 451.403L313.378 451.444L313.285 451.486L313.203 451.537L313.121 451.589L313.038 451.641L312.966 451.703L312.893 451.765L312.822 451.827L312.76 451.9L312.688 451.972L312.626 452.055L312.575 452.127L312.523 452.21L312.472 452.303L312.42 452.386L312.379 452.479L312.348 452.572L312.307 452.665L312.276 452.769L312.255 452.872L312.235 452.965L312.214 453.079L312.204 453.182L312.194 453.285V453.399V453.42V453.523L312.204 453.627L312.214 453.72L312.224 453.824L312.245 453.917L312.266 454.01L312.286 454.103L312.317 454.196L312.348 454.279L312.389 454.382L312.43 454.475L312.482 454.568L312.533 454.651L312.585 454.734L312.646 454.817L312.709 454.889L312.78 454.962L312.842 455.034L312.914 455.096L312.997 455.158L313.079 455.22L313.161 455.272L313.244 455.324L313.336 455.365L313.429 455.407L313.522 455.448L313.625 455.479L313.728 455.51L313.831 455.531L313.934 455.551L314.037 455.562L314.15 455.572H314.263H314.387L314.5 455.562L314.614 455.551L314.716 455.541L314.819 455.52L314.923 455.5L315.025 455.469L315.118 455.448L315.211 455.407L315.293 455.365L315.386 455.324L315.458 455.282L315.54 455.231V455.127V455.024V454.92V454.817V454.703V454.6V454.496V454.393V454.289H315.437H315.344H315.241H315.139H315.036H314.943H314.84H314.737H314.634H314.541H314.438H314.336H314.233H314.14H314.037V454.186V454.093V453.989V453.886V453.782V453.689V453.586V453.482V453.379V453.285V453.182V453.079V452.975V452.882V452.779H314.14H314.243H314.346H314.449H314.551H314.654H314.758H314.861H314.963H315.066H315.17H315.272H315.375H315.478H315.582H315.684H315.787H315.89H315.993H316.096H316.199H316.302H316.405H316.508H316.611H316.714H316.817H316.92H317.023H317.126H317.229H317.332H317.435V452.882V452.985V453.089V453.182V453.285V453.389V453.492V453.596V453.699V453.792V453.896V453.999V454.103V454.206V454.31V454.413V454.506V454.61V454.713V454.817V454.92V455.024V455.127V455.22V455.324V455.427V455.531V455.634V455.738V455.831V455.934V456.038V456.141L317.363 456.203Z" fill="#211919"/>
<path d="M314.052 432.594H318.515V429.141H314.052V422.091H318.692V418.638H310.262V443.56H318.763V440.107H314.052V432.594Z" fill="#211919"/>
<path d="M346.02 433.342V438.967C346.02 439.964 345.559 440.427 344.604 440.427H343.895C342.903 440.427 342.442 439.964 342.442 438.967V423.23C342.442 422.234 342.903 421.771 343.895 421.771H344.532C345.489 421.771 345.95 422.234 345.95 423.23V428.108H349.668V423.017C349.668 419.92 348.181 418.424 345.1 418.424H343.257C340.176 418.424 338.652 419.955 338.652 423.053V439.145C338.652 442.243 340.176 443.773 343.257 443.773H345.135C348.217 443.773 349.74 442.243 349.74 439.145V433.342H346.02Z" fill="#211919"/>
<path d="M332.859 443.56H336.65V418.638H332.859V443.56Z" fill="#211919"/>
<path d="M327.359 429.71C327.359 430.707 326.899 431.17 325.943 431.17H324.384V421.985H325.943C326.899 421.985 327.359 422.447 327.359 423.444V429.71ZM326.544 418.638H320.594V443.56H324.384V434.516H326.544C329.626 434.516 331.149 432.986 331.149 429.889V423.266C331.149 420.169 329.626 418.638 326.544 418.638Z" fill="#211919"/>
<path fill-rule="evenodd" clip-rule="evenodd" d="M319.203 466.094H340.9L329.825 469.747L319.203 466.094Z" fill="#211919"/>
</g>
</g>
</g>
<g filter="url(#filter7_b_5796_19342)">
<rect x="282" y="95" width="166" height="113" rx="5" fill="white" fill-opacity="0.07"/>
<rect x="282" y="95" width="166" height="14" fill="white" fill-opacity="0.06"/>
<circle cx="290" cy="102" r="2" fill="white" fill-opacity="0.52"/>
<circle cx="297" cy="102" r="2" fill="white" fill-opacity="0.52"/>
<circle cx="304" cy="102" r="2" fill="white" fill-opacity="0.52"/>
<g clip-path="url(#clip5_5796_19342)">
<path d="M363.704 126C343.61 126 334.936 143.904 334.936 143.904L337.489 145.734C337.489 145.734 334.276 151.85 334.365 159.695C334.365 175.709 347.1 190.794 365.847 190.794C382.877 190.794 396.946 176.918 396.946 159.734C396.946 137.322 379.583 126 363.704 126ZM363.878 131.463C379.578 131.463 391.761 144.128 391.761 158.85C391.761 174.457 380.034 185.311 366.37 185.311C356.313 185.311 347.241 177.645 347.241 167.134C347.241 161.063 350.464 156.831 354.076 154.575L354.605 155.149C353.616 155.923 350.798 160.456 350.798 164.91C350.798 173.18 357.276 178.908 365.439 178.908C375.837 178.908 382.771 170.031 382.771 159.723C382.771 147.73 372.196 137.549 359.469 137.549C352.43 137.549 346.456 140.579 343.023 143.254L342.489 142.77C346.98 135.838 354.758 131.463 363.878 131.463ZM359.194 142.936C367.315 142.936 375.244 148.314 377.223 155.948L376.504 156.221C372.95 151.524 367.127 147.631 360.251 147.631C347.598 147.631 340.953 159.14 341.929 168.752L341.184 169.026C341.184 169.026 339.786 165.939 339.786 162.279C339.786 151.679 348.482 142.936 359.194 142.936ZM364.562 156.238C368.407 156.238 371.482 159.358 371.482 163.061C371.482 166.126 369.516 167.942 369.516 167.942L371.844 169.572C371.844 169.572 369.536 173.2 364.823 173.2C360.315 173.2 356.329 169.558 356.329 164.66C356.329 159.613 360.665 156.238 364.562 156.238Z" fill="white"/>
</g>
</g>
<g filter="url(#filter8_b_5796_19342)">
<rect x="755" y="219" width="166" height="113" rx="5" fill="white" fill-opacity="0.07"/>
<rect x="755" y="219" width="166" height="14" fill="white" fill-opacity="0.06"/>
<circle cx="763" cy="226" r="2" fill="white" fill-opacity="0.52"/>
<circle cx="770" cy="226" r="2" fill="white" fill-opacity="0.52"/>
<circle cx="777" cy="226" r="2" fill="white" fill-opacity="0.52"/>
<g clip-path="url(#clip6_5796_19342)">
<path d="M854.89 255H822.11C815.971 255 811 259.971 811 266.11V298.897C811 305.029 815.971 310 822.11 310H854.897C861.029 310 866.007 305.029 866.007 298.89V266.11C866 259.971 861.029 255 854.89 255Z" fill="url(#paint1_linear_5796_19342)"/>
<path d="M838.266 267.636L839.379 265.711C840.067 264.508 841.6 264.102 842.803 264.79C844.006 265.477 844.412 267.011 843.724 268.214L832.992 286.79H840.754C843.271 286.79 844.68 289.746 843.587 291.795H820.831C819.442 291.795 818.328 290.681 818.328 289.292C818.328 287.904 819.442 286.79 820.831 286.79H827.211L835.378 272.634L832.827 268.207C832.14 267.004 832.546 265.484 833.749 264.783C834.952 264.096 836.471 264.501 837.172 265.704L838.266 267.636ZM828.613 294.373L826.207 298.546C825.519 299.749 823.986 300.155 822.783 299.467C821.58 298.78 821.174 297.247 821.862 296.044L823.649 292.95C825.671 292.324 827.314 292.806 828.613 294.373ZM849.334 286.804H855.845C857.234 286.804 858.347 287.917 858.347 289.306C858.347 290.695 857.234 291.809 855.845 291.809H852.229L854.669 296.044C855.357 297.247 854.951 298.766 853.748 299.467C852.545 300.155 851.026 299.749 850.324 298.546C846.213 291.417 843.126 286.082 841.077 282.527C838.981 278.911 840.479 275.281 841.957 274.051C843.601 276.869 846.055 281.125 849.334 286.804Z" fill="white"/>
</g>
</g>
<defs>
<filter id="filter0_f_5796_19342" x="0" y="-54" width="631" height="631" filterUnits="userSpaceOnUse" color-interpolation-filters="sRGB">
<feFlood flood-opacity="0" result="BackgroundImageFix"/>
<feBlend mode="normal" in="SourceGraphic" in2="BackgroundImageFix" result="shape"/>
<feGaussianBlur stdDeviation="82.5" result="effect1_foregroundBlur_5796_19342"/>
</filter>
<filter id="filter1_f_5796_19342" x="507" y="42" width="631" height="631" filterUnits="userSpaceOnUse" color-interpolation-filters="sRGB">
<feFlood flood-opacity="0" result="BackgroundImageFix"/>
<feBlend mode="normal" in="SourceGraphic" in2="BackgroundImageFix" result="shape"/>
<feGaussianBlur stdDeviation="82.5" result="effect1_foregroundBlur_5796_19342"/>
</filter>
<filter id="filter2_b_5796_19342" x="358.3" y="225.3" width="302.4" height="210.4" filterUnits="userSpaceOnUse" color-interpolation-filters="sRGB">
<feFlood flood-opacity="0" result="BackgroundImageFix"/>
<feGaussianBlur in="BackgroundImageFix" stdDeviation="3.35"/>
<feComposite in2="SourceAlpha" operator="in" result="effect1_backgroundBlur_5796_19342"/>
<feBlend mode="normal" in="SourceGraphic" in2="effect1_backgroundBlur_5796_19342" result="shape"/>
</filter>
<filter id="filter3_b_5796_19342" x="549.3" y="128.3" width="179.4" height="126.4" filterUnits="userSpaceOnUse" color-interpolation-filters="sRGB">
<feFlood flood-opacity="0" result="BackgroundImageFix"/>
<feGaussianBlur in="BackgroundImageFix" stdDeviation="3.35"/>
<feComposite in2="SourceAlpha" operator="in" result="effect1_backgroundBlur_5796_19342"/>
<feBlend mode="normal" in="SourceGraphic" in2="effect1_backgroundBlur_5796_19342" result="shape"/>
</filter>
<filter id="filter4_b_5796_19342" x="665.3" y="364.3" width="179.4" height="126.4" filterUnits="userSpaceOnUse" color-interpolation-filters="sRGB">
<feFlood flood-opacity="0" result="BackgroundImageFix"/>
<feGaussianBlur in="BackgroundImageFix" stdDeviation="3.35"/>
<feComposite in2="SourceAlpha" operator="in" result="effect1_backgroundBlur_5796_19342"/>
<feBlend mode="normal" in="SourceGraphic" in2="effect1_backgroundBlur_5796_19342" result="shape"/>
</filter>
<filter id="filter5_b_5796_19342" x="117.3" y="224.3" width="179.4" height="126.4" filterUnits="userSpaceOnUse" color-interpolation-filters="sRGB">
<feFlood flood-opacity="0" result="BackgroundImageFix"/>
<feGaussianBlur in="BackgroundImageFix" stdDeviation="3.35"/>
<feComposite in2="SourceAlpha" operator="in" result="effect1_backgroundBlur_5796_19342"/>
<feBlend mode="normal" in="SourceGraphic" in2="effect1_backgroundBlur_5796_19342" result="shape"/>
</filter>
<filter id="filter6_b_5796_19342" x="240.3" y="372.3" width="179.4" height="126.4" filterUnits="userSpaceOnUse" color-interpolation-filters="sRGB">
<feFlood flood-opacity="0" result="BackgroundImageFix"/>
<feGaussianBlur in="BackgroundImageFix" stdDeviation="3.35"/>
<feComposite in2="SourceAlpha" operator="in" result="effect1_backgroundBlur_5796_19342"/>
<feBlend mode="normal" in="SourceGraphic" in2="effect1_backgroundBlur_5796_19342" result="shape"/>
</filter>
<filter id="filter7_b_5796_19342" x="275.3" y="88.3" width="179.4" height="126.4" filterUnits="userSpaceOnUse" color-interpolation-filters="sRGB">
<feFlood flood-opacity="0" result="BackgroundImageFix"/>
<feGaussianBlur in="BackgroundImageFix" stdDeviation="3.35"/>
<feComposite in2="SourceAlpha" operator="in" result="effect1_backgroundBlur_5796_19342"/>
<feBlend mode="normal" in="SourceGraphic" in2="effect1_backgroundBlur_5796_19342" result="shape"/>
</filter>
<filter id="filter8_b_5796_19342" x="748.3" y="212.3" width="179.4" height="126.4" filterUnits="userSpaceOnUse" color-interpolation-filters="sRGB">
<feFlood flood-opacity="0" result="BackgroundImageFix"/>
<feGaussianBlur in="BackgroundImageFix" stdDeviation="3.35"/>
<feComposite in2="SourceAlpha" operator="in" result="effect1_backgroundBlur_5796_19342"/>
<feBlend mode="normal" in="SourceGraphic" in2="effect1_backgroundBlur_5796_19342" result="shape"/>
</filter>
<linearGradient id="paint0_linear_5796_19342" x1="6019.79" y1="286.916" x2="6019.79" y2="11444.4" gradientUnits="userSpaceOnUse">
<stop stop-color="#111D2E"/>
<stop offset="0.212" stop-color="#051839"/>
<stop offset="0.407" stop-color="#0A1B48"/>
<stop offset="0.581" stop-color="#132E62"/>
<stop offset="0.738" stop-color="#144B7E"/>
<stop offset="0.873" stop-color="#136497"/>
<stop offset="1" stop-color="#1387B8"/>
</linearGradient>
<linearGradient id="paint1_linear_5796_19342" x1="838.503" y1="255" x2="838.503" y2="310" gradientUnits="userSpaceOnUse">
<stop stop-color="#18BFFB"/>
<stop offset="1" stop-color="#2072F3"/>
</linearGradient>
<clipPath id="clip0_5796_19342">
<rect width="113.163" height="113.319" fill="white" transform="translate(453.789 286.044)"/>
</clipPath>
<clipPath id="clip1_5796_19342">
<rect width="52" height="65" fill="white" transform="translate(613 166)"/>
</clipPath>
<clipPath id="clip2_5796_19342">
<rect width="65" height="65" fill="white" transform="translate(722 402)"/>
</clipPath>
<clipPath id="clip3_5796_19342">
<rect width="57" height="57" fill="white" transform="translate(179 266)"/>
</clipPath>
<clipPath id="clip4_5796_19342">
<rect width="56" height="65" fill="white" transform="translate(302 410)"/>
</clipPath>
<clipPath id="clip5_5796_19342">
<rect width="63" height="65" fill="white" transform="translate(334 126)"/>
</clipPath>
<clipPath id="clip6_5796_19342">
<rect width="55" height="55" fill="white" transform="translate(811 255)"/>
</clipPath>
</defs>
</svg>
