<svg width="512" height="512" viewBox="0 0 512 512" fill="none" xmlns="http://www.w3.org/2000/svg">
<g clip-path="url(#clip0_1182_57682)">
<path d="M504.313 317.928C470.122 455.072 331.217 538.535 194.057 504.336C56.9537 470.145 -26.5095 331.231 7.69612 194.099C41.8717 56.9393 180.777 -26.5302 317.895 7.66039C455.045 41.851 538.503 180.78 504.309 317.93L504.311 317.928H504.313Z" fill="#F7931A"/>
<path d="M368.886 219.526C373.981 185.458 348.044 167.145 312.577 154.929L324.083 108.781L295.991 101.781L284.791 146.714C277.406 144.872 269.821 143.137 262.284 141.416L273.565 96.1863L245.491 89.1865L233.979 135.32C227.868 133.928 221.865 132.553 216.042 131.104L216.074 130.959L177.335 121.285L169.862 151.289C169.862 151.289 190.704 156.066 190.265 156.36C201.64 159.2 203.697 166.73 203.356 172.699L190.25 225.272C191.033 225.471 192.049 225.759 193.17 226.209C192.233 225.977 191.236 225.723 190.201 225.475L171.83 299.123C170.44 302.579 166.912 307.766 158.958 305.796C159.24 306.204 138.541 300.701 138.541 300.701L124.594 332.857L161.151 341.97C167.951 343.676 174.616 345.46 181.179 347.138L169.554 393.815L197.614 400.815L209.126 354.633C216.791 356.714 224.23 358.634 231.513 360.443L220.04 406.407L248.133 413.407L259.756 366.817C307.658 375.883 343.677 372.228 358.838 328.9C371.054 294.016 358.23 273.895 333.029 260.774C351.384 256.541 365.21 244.468 368.896 219.53L368.887 219.524L368.886 219.526ZM304.703 309.527C296.021 344.411 237.287 325.554 218.245 320.825L233.671 258.986C252.712 263.74 313.776 273.147 304.704 309.527H304.703ZM313.391 219.021C305.471 250.751 256.586 234.631 240.729 230.678L254.714 174.593C270.572 178.546 321.64 185.924 313.393 219.021H313.391Z" fill="white"/>
<path d="M270.75 387.446C270.75 322.996 322.996 270.75 387.446 270.75C451.897 270.75 504.143 322.996 504.143 387.446C504.143 451.897 451.897 504.143 387.446 504.143C322.996 504.143 270.75 451.897 270.75 387.446Z" fill="white" stroke="#F7931A" stroke-width="5"/>
<path d="M405.923 307.982C398.816 326.429 391.71 346.296 383.182 366.162C383.182 366.162 383.182 369 386.024 369H444.298C444.298 369 444.298 370.419 445.72 371.838L360.441 466.911C359.019 465.492 359.019 464.073 359.019 462.654L388.867 398.799V393.123H329.172V387.447L401.659 307.982H405.923Z" fill="#F7931A"/>
</g>
<defs>
<clipPath id="clip0_1182_57682">
<rect width="512" height="512" fill="white"/>
</clipPath>
</defs>
</svg>
