<svg width="30" height="30" viewBox="0 0 30 30" fill="none" xmlns="http://www.w3.org/2000/svg">
<g clip-path="url(#clip0_1229_3323)">
<path d="M15 30C23.2843 30 30 23.2843 30 15C30 6.71572 23.2843 0 15 0C6.71572 0 0 6.71572 0 15C0 23.2843 6.71572 30 15 30Z" fill="#0AC18E"/>
<path d="M19.6789 9.96329C18.9251 8.25387 17.1928 7.88842 15.0723 8.2425L14.3908 5.60034L12.7842 6.0153L13.4542 8.64985C13.0317 8.75643 12.5977 8.84778 12.1675 8.96965L11.4974 6.35034L9.8908 6.7653L10.5723 9.40746C10.2258 9.50643 7.32861 10.2488 7.32861 10.2488L7.77023 11.9697C7.77023 11.9697 8.95043 11.6384 8.939 11.6651C9.59385 11.4938 9.90223 11.8212 10.0469 12.1296L11.92 19.3706C11.9428 19.58 11.9048 19.9379 11.4555 20.0598C11.4821 20.075 10.2867 20.3605 10.2867 20.3605L10.4619 22.3668C10.4619 22.3668 13.3324 21.6321 13.7094 21.5369L14.3984 24.2095L16.005 23.7945L15.3159 21.1029C15.7576 21.0001 16.1878 20.8935 16.6065 20.7831L17.2918 23.4595L18.8984 23.0445L18.2094 20.3757C20.6839 19.7742 22.4314 18.2133 22.0736 15.8262C21.8451 14.3872 20.2728 13.2069 18.967 13.0737C19.7702 12.3618 20.1776 11.3224 19.6789 9.96329ZM18.906 16.264C19.2258 18.6282 15.9403 18.9176 14.8553 19.2031L13.9111 15.6663C14.9999 15.3808 18.3654 14.1816 18.906 16.264ZM16.9263 11.4481C17.2652 13.5496 14.4555 13.7932 13.5495 14.0255L12.689 10.8161C13.5989 10.5915 16.2373 9.50262 16.9263 11.4481Z" fill="white"/>
</g>
<defs>
<clipPath id="clip0_1229_3323">
<rect width="30" height="30" fill="white"/>
</clipPath>
</defs>
</svg>
