<svg width="30" height="30" viewBox="0 0 30 30" fill="none" xmlns="http://www.w3.org/2000/svg">
<g clip-path="url(#clip0_1229_3317)">
<path d="M29.5496 18.6286C27.5462 26.6644 19.4073 31.5548 11.3705 29.5509C3.33712 27.5476 -1.5533 19.4081 0.450936 11.373C2.45342 3.33629 10.5924 -1.5545 18.6266 0.44885C26.6628 2.45221 31.5529 10.5926 29.5493 18.6287L29.5495 18.6286H29.5496Z" fill="#F7931A"/>
<path d="M21.6143 12.8629C21.9129 10.8667 20.3931 9.79371 18.315 9.07793L18.9891 6.37395L17.3431 5.96379L16.6868 8.59658C16.2541 8.48865 15.8097 8.38693 15.3681 8.28615L16.0291 5.63597L14.3842 5.22583L13.7096 7.92896C13.3515 7.8474 12.9998 7.76684 12.6586 7.68193L12.6605 7.67344L10.3906 7.1066L9.95277 8.86465C9.95277 8.86465 11.1739 9.14455 11.1482 9.16178C11.8148 9.32812 11.9353 9.76939 11.9153 10.1191L11.1473 13.1996C11.1933 13.2112 11.2528 13.2281 11.3185 13.2545C11.2636 13.2409 11.2051 13.226 11.1445 13.2115L10.0681 17.5268C9.98664 17.7293 9.77986 18.0332 9.31387 17.9178C9.33033 17.9417 8.1175 17.6193 8.1175 17.6193L7.30029 19.5034L9.4423 20.0374C9.8408 20.1373 10.2313 20.2419 10.6159 20.3402L9.93473 23.0752L11.5788 23.4853L12.2533 20.7793C12.7025 20.9013 13.1384 21.0138 13.5651 21.1198L12.8928 23.813L14.5389 24.2231L15.2199 21.4932C18.0268 22.0245 20.1372 21.8103 21.0255 19.2715C21.7414 17.2276 20.9899 16.0486 19.5133 15.2798C20.5888 15.0318 21.3989 14.3244 21.6149 12.8631L21.6144 12.8628L21.6143 12.8629ZM17.8536 18.1364C17.3449 20.1804 13.9035 19.0755 12.7877 18.7984L13.6916 15.175C14.8073 15.4536 18.3852 16.0048 17.8537 18.1364H17.8536ZM18.3626 12.8333C17.8986 14.6925 15.0343 13.748 14.1051 13.5163L14.9246 10.2301C15.8538 10.4617 18.846 10.894 18.3628 12.8333H18.3626Z" fill="white"/>
</g>
<defs>
<clipPath id="clip0_1229_3317">
<rect width="30" height="30" fill="white"/>
</clipPath>
</defs>
</svg>
