<svg xmlns="http://www.w3.org/2000/svg" xmlns:xlink="http://www.w3.org/1999/xlink" width="518.131" height="479.136" viewBox="0 0 518.131 479.136"><defs><radialGradient id="a" cx="31.481" cy="67.67" r="48.663" gradientUnits="userSpaceOnUse"><stop offset="0" stop-color="#fff35e"/><stop offset="1" stop-color="#ffb32c"/></radialGradient><linearGradient id="b" x1="0.5" y1="0.404" x2="0.494" y2="0.932" gradientUnits="objectBoundingBox"><stop offset="0.005" stop-color="#ffb32c"/><stop offset="1" stop-color="#fff35e"/></linearGradient></defs><g transform="translate(-128.937 -1354.932)"><circle cx="166.701" cy="166.701" r="166.701" transform="translate(240.799 1427.799)" fill="#d5d7db" opacity="0.204"/><circle cx="239.568" cy="239.568" r="239.568" transform="translate(167.932 1354.932)" fill="#d5d7db" opacity="0.152"/><g transform="translate(-670.676 1096.705)"><g transform="translate(829.624 619.962)"><ellipse cx="233.644" cy="10.466" rx="233.644" ry="10.466" opacity="0.08"/></g><g transform="translate(799.613 364.391)"><g transform="translate(88.602 39.519)"><rect width="262.044" height="175.944" rx="10.585" transform="translate(1.071 1.069)" fill="#01b5b6"/><path d="M1091.481,565.705H865.446a19.1,19.1,0,0,1-19.075-19.073V406.7a19.1,19.1,0,0,1,19.075-19.075h226.035a19.1,19.1,0,0,1,19.073,19.075V546.632A19.094,19.094,0,0,1,1091.481,565.705ZM865.446,389.762A16.956,16.956,0,0,0,848.511,406.7V546.632a16.955,16.955,0,0,0,16.935,16.935h226.035a16.954,16.954,0,0,0,16.935-16.935V406.7a16.955,16.955,0,0,0-16.935-16.937Z" transform="translate(-846.371 -387.624)" fill="#2d2d39"/><path d="M1109.045,486.321a18,18,0,0,1-18,18H865a18,18,0,0,1-18-18V473.664h262.045Z" transform="translate(-845.93 -327.312)" fill="#2d2d39"/><path d="M955.368,531.079H910.981l6.417-45.991H948.95Z" transform="translate(-801.082 -319.305)" fill="#2d2d39"/><path d="M996.9,524.691a10.36,10.36,0,0,0-9.015-10.272l-20.4-2.671H923.1l-20.4,2.671a10.359,10.359,0,0,0-9.013,10.272Z" transform="translate(-813.202 -300.617)" fill="#2d2d39"/><path d="M927.7,477.458a8.913,8.913,0,1,0,8.913,8.913A8.913,8.913,0,0,0,927.7,477.458Zm0,15.865a6.952,6.952,0,1,1,6.952-6.952A6.952,6.952,0,0,1,927.7,493.323Z" transform="translate(-795.609 -324.653)" fill="#fff"/><circle cx="2.897" cy="2.897" r="2.897" transform="translate(154.286 159.008)" fill="#fff"/><circle cx="2.897" cy="2.897" r="2.897" transform="translate(169.126 159.008)" fill="#fff"/><path d="M986.314,522.937l-20.4-2.671-2.958-20.67-18.964,1.693-3.125,19.263-44.452,4.29c-.16.117-.332.219-.485.345H991.51A10.312,10.312,0,0,0,986.314,522.937Z" transform="translate(-811.629 -309.135)" fill="#fff" opacity="0.1"/><g transform="translate(24.69 24.778)"><rect width="11.409" height="11.409" fill="#c0f3ff"/><rect width="11.409" height="2.674" transform="translate(0 13.726)" fill="#c0f3ff"/><g transform="translate(19.252)"><rect width="11.409" height="11.409" fill="#c0f3ff"/><rect width="11.409" height="2.674" transform="translate(0 13.726)" fill="#c0f3ff"/></g><g transform="translate(0 25.313)"><rect width="11.409" height="11.409" fill="#c0f3ff"/><rect width="11.409" height="2.674" transform="translate(0 13.726)" fill="#c0f3ff"/></g><g transform="translate(19.252 25.313)"><rect width="11.409" height="11.409" fill="#c0f3ff"/><rect width="11.409" height="2.674" transform="translate(0 13.726)" fill="#c0f3ff"/></g><g transform="translate(0 51.335)"><rect width="11.409" height="11.409" fill="#c0f3ff"/><rect width="11.409" height="2.674" transform="translate(0 13.726)" fill="#c0f3ff"/></g><g transform="translate(19.252 51.335)"><rect width="11.409" height="11.409" fill="#c0f3ff"/><rect width="11.409" height="2.674" transform="translate(0 13.726)" fill="#c0f3ff"/></g><g transform="translate(205.428 92.052)"><rect width="11.409" height="11.409" fill="#c0f3ff"/><rect width="11.409" height="2.674" transform="translate(0 13.726)" fill="#c0f3ff"/></g><g transform="translate(186.621 92.052)"><rect width="11.409" height="11.409" fill="#c0f3ff"/><rect width="11.409" height="2.674" transform="translate(0 13.726)" fill="#c0f3ff"/></g></g><g transform="translate(16.538 17.113)" opacity="0.3"><rect width="233.207" height="123.535" fill="#00a3a3"/></g><g transform="translate(102.911 38.092)"><g transform="translate(4.145 3.591)"><path d="M959.489,416.58a1.74,1.74,0,0,0-1.289-1.7,101.671,101.671,0,0,0-23.91-2.749,99.059,99.059,0,0,0-23.7,2.744,1.739,1.739,0,0,0-1.282,1.7v49.532a1.774,1.774,0,0,0,.643,1.376l23.507,17.966a1.64,1.64,0,0,0,2.1,0l23.3-17.962a1.779,1.779,0,0,0,.636-1.371V416.58Z" transform="translate(-909.309 -412.129)" fill="#ffcb78"/><path d="M910.572,415.249a1.723,1.723,0,0,0-1.259,1.7l0,.235.153,24.329L909.532,466a1.762,1.762,0,0,0,.638,1.361l23.281,17.792a1.627,1.627,0,0,0,2.074,0c.008.005,5.838-4.479,5.844-4.485l17.246-13.3a1.765,1.765,0,0,0,.635-1.357l.077-24.5.151-24.331,0-.231a1.726,1.726,0,0,0-1.266-1.7,103.325,103.325,0,0,0-23.926-2.713A100.792,100.792,0,0,0,910.572,415.249Z" transform="translate(-909.306 -411.84)" fill="#ffca77"/><path d="M910.554,415.627a1.705,1.705,0,0,0-1.237,1.689l0,.233.3,24.127.131,24.222a1.751,1.751,0,0,0,.633,1.345l23.055,17.62a1.611,1.611,0,0,0,2.052,0c.015.012,5.78-4.414,5.8-4.428l17.09-13.174a1.754,1.754,0,0,0,.629-1.342l.155-24.242.3-24.128,0-.23a1.711,1.711,0,0,0-1.242-1.692,104.97,104.97,0,0,0-23.941-2.677A102.3,102.3,0,0,0,910.554,415.627Z" transform="translate(-909.303 -411.551)" fill="#ffca76"/><path d="M910.534,416a1.689,1.689,0,0,0-1.213,1.684l.005.231.458,23.924.2,23.951a1.736,1.736,0,0,0,.628,1.33l22.829,17.445a1.6,1.6,0,0,0,2.029.008c.024.019,5.722-4.348,5.746-4.368l16.933-13.053a1.748,1.748,0,0,0,.626-1.328l.233-23.98.453-23.926.005-.228a1.694,1.694,0,0,0-1.218-1.686,106.514,106.514,0,0,0-23.958-2.643A103.98,103.98,0,0,0,910.534,416Z" transform="translate(-909.301 -411.263)" fill="#ffc975"/><path d="M910.515,416.379a1.679,1.679,0,0,0-1.191,1.677l.009.231.609,23.722.262,23.679a1.72,1.72,0,0,0,.622,1.315l22.6,17.273a1.582,1.582,0,0,0,2.007.012c.032.026,5.664-4.283,5.7-4.309l16.777-12.934a1.728,1.728,0,0,0,.621-1.313l.311-23.718.605-23.725.005-.224a1.679,1.679,0,0,0-1.2-1.681,108.223,108.223,0,0,0-23.972-2.606A105.822,105.822,0,0,0,910.515,416.379Z" transform="translate(-909.299 -410.973)" fill="#ffc974"/><path d="M910.495,416.755a1.665,1.665,0,0,0-1.167,1.672l.009.228.764,23.521.327,23.407a1.711,1.711,0,0,0,.619,1.3l22.375,17.1a1.57,1.57,0,0,0,1.985.015c.039.032,5.608-4.217,5.647-4.249l16.619-12.813a1.721,1.721,0,0,0,.619-1.3l.388-23.456.757-23.523.007-.224a1.662,1.662,0,0,0-1.172-1.674,109.94,109.94,0,0,0-23.987-2.57A107.562,107.562,0,0,0,910.495,416.755Z" transform="translate(-909.296 -410.684)" fill="#ffc873"/><path d="M910.476,417.131a1.648,1.648,0,0,0-1.143,1.667l.01.226.917,23.319.391,23.137a1.69,1.69,0,0,0,.614,1.284l22.148,16.926a1.555,1.555,0,0,0,1.963.02c.048.039,5.55-4.152,5.6-4.191l16.462-12.691a1.707,1.707,0,0,0,.614-1.284l.466-23.2.908-23.32.008-.223a1.65,1.65,0,0,0-1.148-1.669,111.687,111.687,0,0,0-24-2.535A109.317,109.317,0,0,0,910.476,417.131Z" transform="translate(-909.293 -410.395)" fill="#ffc872"/><path d="M910.458,417.508a1.636,1.636,0,0,0-1.121,1.662l.012.224,1.068,23.118.458,22.863a1.68,1.68,0,0,0,.609,1.271L933.405,483.4a1.542,1.542,0,0,0,1.941.024c.056.046,5.493-4.086,5.549-4.132L957.2,466.72a1.7,1.7,0,0,0,.611-1.271l.543-22.934,1.06-23.118.01-.221a1.636,1.636,0,0,0-1.124-1.664c-2.9-.82-13.337-2.5-24.018-2.5C923.621,415.014,913.315,416.689,910.458,417.508Z" transform="translate(-909.291 -410.107)" fill="#ffc771"/><path d="M910.438,417.886a1.617,1.617,0,0,0-1.1,1.653l.014.225,1.221,22.915.522,22.592a1.662,1.662,0,0,0,.6,1.254l21.7,16.581a1.526,1.526,0,0,0,1.919.027c.064.053,5.436-4.019,5.5-4.072l16.149-12.449a1.691,1.691,0,0,0,.605-1.257l.623-22.671,1.209-22.917.012-.219a1.621,1.621,0,0,0-1.1-1.658c-2.851-.82-13.506-2.463-24.033-2.463C923.772,415.426,913.251,417.064,910.438,417.886Z" transform="translate(-909.288 -409.818)" fill="#ffc670"/><path d="M910.418,418.262a1.6,1.6,0,0,0-1.073,1.648l.015.223,1.374,22.713.587,22.32a1.658,1.658,0,0,0,.6,1.24l21.47,16.406a1.511,1.511,0,0,0,1.9.032c.072.058,5.379-3.955,5.45-4.014L956.727,466.5a1.678,1.678,0,0,0,.6-1.243l.7-22.409,1.361-22.715.014-.218a1.606,1.606,0,0,0-1.077-1.652c-2.806-.823-13.674-2.429-24.05-2.429C923.922,415.838,913.187,417.44,910.418,418.262Z" transform="translate(-909.285 -409.529)" fill="#ffc66f"/><path d="M910.4,418.638a1.591,1.591,0,0,0-1.05,1.643l.017.221,1.526,22.511.653,22.048a1.638,1.638,0,0,0,.594,1.225l21.242,16.234a1.5,1.5,0,0,0,1.876.036c.08.065,5.321-3.888,5.4-3.955l15.834-12.208a1.658,1.658,0,0,0,.6-1.226l.777-22.148,1.512-22.512.015-.216a1.594,1.594,0,0,0-1.053-1.647c-2.761-.823-13.841-2.393-24.065-2.393C924.074,416.25,913.124,417.817,910.4,418.638Z" transform="translate(-909.283 -409.24)" fill="#ffc56e"/><path d="M910.379,419.014a1.576,1.576,0,0,0-1.026,1.638c.005.005.012.213.019.219l1.679,22.308.718,21.778a1.623,1.623,0,0,0,.59,1.209l21.014,16.061a1.487,1.487,0,0,0,1.854.039c.088.072,5.265-3.824,5.351-3.9l15.678-12.087a1.653,1.653,0,0,0,.6-1.213l.854-21.886,1.665-22.312.014-.213a1.575,1.575,0,0,0-1.029-1.641c-2.715-.825-14.007-2.356-24.079-2.356C924.225,416.663,913.06,418.19,910.379,419.014Z" transform="translate(-909.28 -408.951)" fill="#ffc56d"/><path d="M910.362,419.39a1.565,1.565,0,0,0-1.005,1.631c.007.007.014.213.022.219l1.832,22.108.783,21.5a1.611,1.611,0,0,0,.585,1.194l20.787,15.887a1.474,1.474,0,0,0,1.832.044c.1.078,5.207-3.757,5.3-3.837l15.52-11.965a1.639,1.639,0,0,0,.592-1.2l.932-21.624,1.817-22.109.015-.211a1.563,1.563,0,0,0-1.005-1.636c-2.671-.825-14.176-2.32-24.094-2.32C924.376,417.075,913,418.567,910.362,419.39Z" transform="translate(-909.279 -408.662)" fill="#ffc46c"/><path d="M910.342,419.766a1.551,1.551,0,0,0-.981,1.626c.008.007.015.211.024.216l1.984,21.907.849,21.231a1.6,1.6,0,0,0,.58,1.18l20.561,15.714a1.46,1.46,0,0,0,1.81.048c.1.085,5.149-3.693,5.253-3.778l15.363-11.844a1.63,1.63,0,0,0,.589-1.186l1.01-21.363,1.966-21.907.017-.209a1.55,1.55,0,0,0-.981-1.631c-2.625-.827-14.344-2.284-24.11-2.284C924.529,417.487,912.933,418.943,910.342,419.766Z" transform="translate(-909.276 -408.373)" fill="#ffc46b"/><path d="M910.323,420.144a1.538,1.538,0,0,0-.958,1.619c.008.007.017.208.026.214l2.136,21.7.913,20.961a1.582,1.582,0,0,0,.575,1.163l20.335,15.542a1.445,1.445,0,0,0,1.788.051c.112.092,5.093-3.626,5.2-3.718l15.207-11.723a1.624,1.624,0,0,0,.583-1.172l1.089-21.1,2.118-21.7c.007-.005.014-.2.019-.208a1.54,1.54,0,0,0-.958-1.626c-2.58-.827-14.513-2.249-24.125-2.249C924.679,417.9,912.869,419.319,910.323,420.144Z" transform="translate(-909.273 -408.084)" fill="#ffc36a"/><path d="M910.3,420.521a1.524,1.524,0,0,0-.934,1.614c.009.007.017.206.026.213l2.291,21.5.976,20.689a1.574,1.574,0,0,0,.572,1.15l20.109,15.368a1.432,1.432,0,0,0,1.766.054c.119.1,5.035-3.562,5.154-3.66l15.05-11.6a1.608,1.608,0,0,0,.58-1.155l1.165-20.84,2.269-21.5c.007-.007.014-.2.02-.206a1.522,1.522,0,0,0-.934-1.619c-2.534-.828-14.681-2.215-24.142-2.215C924.831,418.311,912.806,419.7,910.3,420.521Z" transform="translate(-909.271 -407.796)" fill="#ffc269"/><path d="M910.284,420.9a1.509,1.509,0,0,0-.91,1.607c.009.01.019.2.027.213l2.443,21.3,1.043,20.418a1.558,1.558,0,0,0,.568,1.133l19.881,15.195a1.417,1.417,0,0,0,1.743.06c.128.105,4.977-3.5,5.1-3.6l14.892-11.482a1.594,1.594,0,0,0,.578-1.141L956.9,444.02l2.421-21.3c.009-.007.015-.2.022-.206a1.511,1.511,0,0,0-.91-1.612c-2.489-.83-14.849-2.179-24.157-2.179C924.982,418.723,912.742,420.072,910.284,420.9Z" transform="translate(-909.269 -407.507)" fill="#ffc268"/><path d="M910.267,421.273a1.5,1.5,0,0,0-.888,1.6c.009.01.019.2.029.211l2.6,21.1,1.107,20.146a1.545,1.545,0,0,0,.563,1.119l19.655,15.021a1.4,1.4,0,0,0,1.721.063c.136.112,4.921-3.429,5.056-3.541l14.735-11.361a1.587,1.587,0,0,0,.573-1.128l1.32-20.315,2.572-21.1c.008-.007.017-.2.024-.2a1.5,1.5,0,0,0-.888-1.607c-2.443-.83-15.016-2.143-24.171-2.143C925.133,419.135,912.679,420.448,910.267,421.273Z" transform="translate(-909.266 -407.218)" fill="#ffc167"/><path d="M910.247,421.649a1.484,1.484,0,0,0-.864,1.6c.01.01.02.2.03.209l2.749,20.9,1.172,19.872a1.529,1.529,0,0,0,.558,1.1l19.428,14.849a1.393,1.393,0,0,0,1.7.066c.143.117,4.863-3.364,5.006-3.482l14.579-11.24a1.58,1.58,0,0,0,.57-1.114l1.4-20.053,2.721-20.9c.01-.007.017-.192.026-.2a1.486,1.486,0,0,0-.864-1.6c-2.4-.828-15.183-2.106-24.186-2.106C925.286,419.548,912.614,420.825,910.247,421.649Z" transform="translate(-909.264 -406.928)" fill="#ffc166"/><path d="M910.228,422.027a1.472,1.472,0,0,0-.84,1.59c.01.01.02.2.032.208l2.9,20.694,1.238,19.6a1.526,1.526,0,0,0,.553,1.089l19.2,14.674a1.379,1.379,0,0,0,1.677.071,58.817,58.817,0,0,0,4.957-3.424l14.423-11.118a1.567,1.567,0,0,0,.565-1.1l1.476-19.792,2.875-20.7c.009-.007.017-.191.025-.2a1.474,1.474,0,0,0-.84-1.6c-2.353-.828-15.351-2.07-24.2-2.07C925.437,419.96,912.55,421.2,910.228,422.027Z" transform="translate(-909.262 -406.64)" fill="#ffc065"/><path d="M910.209,422.4a1.457,1.457,0,0,0-.816,1.584c.01.012.022.2.034.207l3.053,20.492,1.3,19.33a1.506,1.506,0,0,0,.548,1.073l18.976,14.5a1.364,1.364,0,0,0,1.655.075,54.43,54.43,0,0,0,4.907-3.364l14.264-11a1.562,1.562,0,0,0,.563-1.085l1.553-19.531,3.026-20.493c.009-.009.019-.189.027-.2a1.464,1.464,0,0,0-.816-1.592c-2.307-.828-15.52-2.034-24.217-2.034C925.588,420.372,912.487,421.578,910.209,422.4Z" transform="translate(-909.26 -406.351)" fill="#ffc064"/><path d="M910.19,422.779a1.451,1.451,0,0,0-.794,1.578c.012.012.024.194.037.206l3.2,20.289,1.369,19.058a1.492,1.492,0,0,0,.544,1.06L933.3,479.3a1.351,1.351,0,0,0,1.633.078,50.306,50.306,0,0,0,4.858-3.3L953.9,465.195a1.545,1.545,0,0,0,.558-1.07l1.631-19.269,3.177-20.291c.01-.008.02-.187.029-.2a1.449,1.449,0,0,0-.793-1.585c-2.26-.83-15.688-2-24.234-2C925.741,420.784,912.424,421.956,910.19,422.779Z" transform="translate(-909.258 -406.062)" fill="#ffbf63"/><path d="M910.173,423.155a1.438,1.438,0,0,0-.772,1.573c.012.012.026.192.039.2L912.8,445.02l1.434,18.787a1.472,1.472,0,0,0,.539,1.043l18.522,14.156a1.336,1.336,0,0,0,1.611.083c.175.145,4.634-3.1,4.809-3.247l13.951-10.755a1.531,1.531,0,0,0,.554-1.056l1.708-19.007,3.329-20.088c.01-.009.02-.185.031-.194a1.438,1.438,0,0,0-.769-1.58c-2.216-.828-15.856-1.965-24.249-1.965C925.892,421.2,912.36,422.334,910.173,423.155Z" transform="translate(-909.256 -405.773)" fill="#ffbe62"/><path d="M910.154,423.532a1.426,1.426,0,0,0-.748,1.568c.013.012.025.191.041.2l3.511,19.886,1.5,18.515a1.468,1.468,0,0,0,.534,1.029l18.3,13.982a1.324,1.324,0,0,0,1.589.087c.184.151,4.576-3.036,4.759-3.188l13.795-10.634a1.529,1.529,0,0,0,.549-1.041l1.788-18.746,3.478-19.886c.012-.01.022-.182.032-.192a1.425,1.425,0,0,0-.747-1.575c-2.169-.827-16.023-1.929-24.263-1.929C926.043,421.608,912.3,422.712,910.154,423.532Z" transform="translate(-909.254 -405.484)" fill="#ffbe61"/><path d="M910.135,423.908a1.417,1.417,0,0,0-.725,1.561c.014.014.027.189.043.2l3.662,19.685L914.68,463.6a1.449,1.449,0,0,0,.529,1.012l18.07,13.81a1.314,1.314,0,0,0,1.566.09c.192.158,4.52-2.971,4.71-3.128l13.637-10.514a1.518,1.518,0,0,0,.548-1.027l1.864-18.484,3.63-19.684c.012-.01.024-.18.034-.19a1.414,1.414,0,0,0-.723-1.57c-2.123-.827-16.192-1.893-24.278-1.893C926.2,422.02,912.232,423.09,910.135,423.908Z" transform="translate(-909.252 -405.196)" fill="#ffbd60"/><path d="M910.116,424.285a1.4,1.4,0,0,0-.7,1.555c.014.014.029.187.044.2l3.815,19.483,1.63,17.971a1.441,1.441,0,0,0,.524,1l17.843,13.635a1.3,1.3,0,0,0,1.545.1c.2.165,4.462-2.905,4.661-3.07l13.48-10.391a1.506,1.506,0,0,0,.543-1.014l1.943-18.221,3.781-19.485c.014-.008.024-.177.036-.187a1.406,1.406,0,0,0-.7-1.565c-2.078-.825-16.358-1.856-24.293-1.856C926.347,422.433,912.169,423.467,910.116,424.285Z" transform="translate(-909.25 -404.906)" fill="#ffbd5f"/><path d="M910.1,424.662a1.392,1.392,0,0,0-.677,1.55c.014.014.029.184.044.2l3.97,19.281,1.694,17.7a1.43,1.43,0,0,0,.519.983l17.617,13.463a1.285,1.285,0,0,0,1.523.1c.207.17,4.4-2.839,4.611-3.011l13.324-10.27a1.508,1.508,0,0,0,.539-1l2.019-17.959,3.934-19.282c.012-.01.024-.175.036-.187a1.394,1.394,0,0,0-.675-1.558c-2.033-.823-16.527-1.82-24.309-1.82C926.5,422.845,912.1,423.845,910.1,424.662Z" transform="translate(-909.248 -404.617)" fill="#ffbc5e"/><path d="M910.08,425.038a1.38,1.38,0,0,0-.655,1.545c.014.014.031.182.046.2l4.122,19.078,1.76,17.428a1.414,1.414,0,0,0,.516.968l17.389,13.29a1.276,1.276,0,0,0,1.5.1c.216.175,4.348-2.776,4.562-2.953l13.166-10.151a1.483,1.483,0,0,0,.536-.983l2.1-17.7,4.086-19.08c.012-.01.025-.173.037-.185a1.381,1.381,0,0,0-.651-1.551c-1.987-.822-16.7-1.786-24.324-1.786S912.042,424.223,910.08,425.038Z" transform="translate(-909.247 -404.329)" fill="#ffbc5d"/><path d="M910.062,425.414a1.369,1.369,0,0,0-.631,1.538c.015.017.031.182.047.2l4.275,18.876,1.825,17.156a1.4,1.4,0,0,0,.51.953l17.163,13.116a1.262,1.262,0,0,0,1.478.109c.223.182,4.29-2.71,4.513-2.893l13.009-10.031a1.473,1.473,0,0,0,.533-.97l2.175-17.437,4.236-18.877c.013-.012.025-.172.039-.184a1.373,1.373,0,0,0-.628-1.546c-1.941-.82-16.864-1.75-24.341-1.75C926.8,423.669,911.979,424.6,910.062,425.414Z" transform="translate(-909.245 -404.04)" fill="#ffbb5c"/><path d="M910.043,425.79a1.363,1.363,0,0,0-.609,1.533c.017.017.034.179.051.194l4.428,18.675,1.89,16.882a1.382,1.382,0,0,0,.505.937l16.937,12.944a1.25,1.25,0,0,0,1.456.112c.231.189,4.232-2.645,4.463-2.835l12.853-9.908a1.474,1.474,0,0,0,.529-.956l2.252-17.175,4.387-18.675c.014-.012.027-.168.041-.182a1.363,1.363,0,0,0-.6-1.541c-1.9-.816-17.032-1.715-24.356-1.715C926.956,424.081,911.916,424.983,910.043,425.79Z" transform="translate(-909.244 -403.751)" fill="#ffba5b"/><path d="M910.025,426.167a1.354,1.354,0,0,0-.585,1.528c.017.017.034.177.053.192l4.579,18.473,1.956,16.612a1.38,1.38,0,0,0,.5.922l16.71,12.771a1.241,1.241,0,0,0,1.434.116c.24.2,4.176-2.579,4.414-2.776l12.7-9.787a1.464,1.464,0,0,0,.524-.942l2.33-16.913,4.538-18.473c.015-.012.029-.167.043-.18a1.353,1.353,0,0,0-.582-1.536c-1.849-.815-17.2-1.679-24.37-1.679S911.852,425.362,910.025,426.167Z" transform="translate(-909.243 -403.462)" fill="#ffba5a"/><path d="M910.006,426.545a1.343,1.343,0,0,0-.561,1.521c.017.017.036.174.054.189l4.732,18.272,2.021,16.34a1.361,1.361,0,0,0,.495.907l16.484,12.6a1.227,1.227,0,0,0,1.412.121c.247.2,4.118-2.514,4.365-2.716l12.538-9.667a1.454,1.454,0,0,0,.522-.927l2.407-16.652,4.69-18.27c.015-.014.029-.165.044-.179a1.47,1.47,0,0,0-.558-1.531c-1.919-.481-17.367-1.643-24.385-1.643S911.789,425.742,910.006,426.545Z" transform="translate(-909.241 -403.173)" fill="#ffb959"/><path d="M909.988,426.92a1.457,1.457,0,0,0-.539,1.514c.017.019.036.174.056.189l4.885,18.07,2.085,16.069a1.348,1.348,0,0,0,.492.891l16.256,12.424a1.213,1.213,0,0,0,1.39.124c.255.209,4.06-2.448,4.315-2.659L951.31,464a1.455,1.455,0,0,0,.517-.914l2.485-16.391,4.841-18.069c.015-.012.031-.162.046-.175a1.463,1.463,0,0,0-.534-1.524c-1.876-.473-17.535-1.607-24.4-1.607S911.84,426.447,909.988,426.92Z" transform="translate(-909.238 -402.884)" fill="#ffb958"/><path d="M909.969,427.3a1.456,1.456,0,0,0-.515,1.509c.019.019.037.17.058.187l5.037,17.867,2.152,15.8a1.34,1.34,0,0,0,.486.876l16.03,12.252a1.2,1.2,0,0,0,1.368.128c.264.216,4-2.381,4.266-2.6l12.225-9.425a1.438,1.438,0,0,0,.514-.9l2.563-16.127,4.992-17.869c.015-.012.031-.16.044-.173a1.458,1.458,0,0,0-.508-1.519c-1.835-.461-17.7-1.572-24.416-1.572S911.781,426.834,909.969,427.3Z" transform="translate(-909.236 -402.595)" fill="#ffb857"/><path d="M909.951,427.673a1.454,1.454,0,0,0-.492,1.5c.019.019.037.168.06.185l5.19,17.665,2.216,15.525a1.332,1.332,0,0,0,.481.862l15.8,12.079a1.192,1.192,0,0,0,1.346.131c.272.221,3.946-2.317,4.217-2.54l12.068-9.3a1.431,1.431,0,0,0,.509-.885l2.641-15.865,5.144-17.666c.015-.014.032-.158.046-.172a1.455,1.455,0,0,0-.485-1.514c-1.793-.451-17.87-1.536-24.433-1.536C927.716,426.142,911.722,427.22,909.951,427.673Z" transform="translate(-909.235 -402.306)" fill="#ffb856"/><path d="M909.932,428.049a1.451,1.451,0,0,0-.468,1.5c.019.019.039.167.061.184l5.343,17.464,2.281,15.253a1.313,1.313,0,0,0,.476.845L933.2,475.2a1.178,1.178,0,0,0,1.323.136c.279.228,3.888-2.25,4.167-2.482l11.91-9.182a1.426,1.426,0,0,0,.507-.871l2.718-15.6,5.3-17.464c.017-.014.032-.155.048-.17a1.455,1.455,0,0,0-.461-1.509c-1.752-.441-18.039-1.5-24.448-1.5S911.662,427.609,909.932,428.049Z" transform="translate(-909.233 -402.018)" fill="#ffb755"/><path d="M909.916,428.425a1.447,1.447,0,0,0-.446,1.492c.019.021.041.165.061.184l5.5,17.261,2.347,14.98a1.306,1.306,0,0,0,.471.832L933.2,474.906a1.167,1.167,0,0,0,1.3.139c.287.235,3.832-2.186,4.118-2.422l11.754-9.061a1.416,1.416,0,0,0,.5-.856l2.8-15.343,5.447-17.262c.017-.015.034-.153.049-.168a1.451,1.451,0,0,0-.439-1.5c-1.709-.429-18.205-1.465-24.462-1.465S911.6,428,909.916,428.425Z" transform="translate(-909.232 -401.729)" fill="#ffb654"/><path d="M909.9,428.8a1.441,1.441,0,0,0-.422,1.485c.019.02.041.163.063.182l5.649,17.059,2.412,14.708a1.293,1.293,0,0,0,.468.816l15.123,11.56a1.16,1.16,0,0,0,1.279.143c.3.242,3.775-2.119,4.069-2.363l11.6-8.94a1.415,1.415,0,0,0,.5-.842l2.873-15.081,5.6-17.059c.019-.015.036-.151.051-.168a1.451,1.451,0,0,0-.415-1.5c-1.667-.418-18.374-1.429-24.477-1.429S911.544,428.382,909.9,428.8Z" transform="translate(-909.231 -401.44)" fill="#ffb653"/><path d="M909.88,429.18a1.448,1.448,0,0,0-.4,1.48c.022.02.044.16.066.18l5.8,16.857,2.478,14.438a1.283,1.283,0,0,0,.463.8l14.9,11.385a1.144,1.144,0,0,0,1.257.148c.3.248,3.717-2.055,4.02-2.3l11.441-8.82a1.4,1.4,0,0,0,.493-.827l2.953-14.819,5.748-16.857c.019-.015.036-.15.053-.167a1.446,1.446,0,0,0-.391-1.49c-1.626-.41-18.542-1.395-24.492-1.395S911.485,428.77,909.88,429.18Z" transform="translate(-909.23 -401.151)" fill="#ffb552"/><path d="M909.862,429.555a1.446,1.446,0,0,0-.376,1.475c.022.021.044.158.068.177l5.953,16.656,2.543,14.166a1.269,1.269,0,0,0,.457.786l14.671,11.213a1.134,1.134,0,0,0,1.235.151c.311.255,3.66-1.988,3.97-2.245l11.282-8.7a1.4,1.4,0,0,0,.492-.813l3.029-14.557,5.9-16.656c.019-.015.037-.146.054-.163a1.449,1.449,0,0,0-.367-1.485c-1.585-.4-18.711-1.357-24.508-1.357S911.427,429.156,909.862,429.555Z" transform="translate(-909.229 -400.862)" fill="#ffb552"/><path d="M909.844,429.932a1.443,1.443,0,0,0-.352,1.468c.022.022.046.158.07.177l6.106,16.455,2.608,13.893a1.271,1.271,0,0,0,.452.771l14.445,11.039a1.125,1.125,0,0,0,1.213.155c.32.262,3.6-1.924,3.921-2.186l11.126-8.578a1.393,1.393,0,0,0,.487-.8l3.108-14.3,6.052-16.453c.019-.015.037-.145.054-.162a1.446,1.446,0,0,0-.344-1.48c-1.543-.388-18.877-1.322-24.525-1.322S911.368,429.542,909.844,429.932Z" transform="translate(-909.228 -400.573)" fill="#ffb451"/><path d="M909.828,430.308a1.445,1.445,0,0,0-.33,1.463c.022.024.046.155.071.175l6.258,16.253L918.5,461.82a1.257,1.257,0,0,0,.447.755l14.218,10.866a1.113,1.113,0,0,0,1.191.16c.327.269,3.545-1.857,3.871-2.126l10.969-8.457a1.389,1.389,0,0,0,.483-.784l3.184-14.035,6.2-16.251c.019-.015.037-.141.056-.16a1.45,1.45,0,0,0-.32-1.475c-1.5-.378-19.046-1.286-24.54-1.286S911.309,429.93,909.828,430.308Z" transform="translate(-909.227 -400.284)" fill="#ffb450"/><path d="M909.81,430.684a1.445,1.445,0,0,0-.306,1.458c.024.024.048.153.073.173l6.411,16.05,2.738,13.349a1.247,1.247,0,0,0,.443.742l13.992,10.692c.279.23.89.393,1.168.163.335.274,3.489-1.791,3.822-2.068l10.811-8.335a1.383,1.383,0,0,0,.481-.771l3.261-13.771,6.355-16.05c.02-.017.039-.139.058-.158a1.446,1.446,0,0,0-.3-1.47c-1.459-.366-19.212-1.25-24.553-1.25S911.251,430.317,909.81,430.684Z" transform="translate(-909.226 -399.995)" fill="#ffb34f"/><path d="M909.792,431.062a1.445,1.445,0,0,0-.282,1.451c.024.024.048.15.075.172l6.564,15.848,2.8,13.079a1.229,1.229,0,0,0,.439.725l13.764,10.521c.271.221.876.39,1.146.167.344.281,3.431-1.726,3.773-2.009l10.655-8.214a1.381,1.381,0,0,0,.476-.757l3.341-13.509,6.5-15.848c.02-.017.041-.138.06-.157a1.449,1.449,0,0,0-.274-1.465c-1.417-.355-19.381-1.214-24.569-1.214S911.192,430.7,909.792,431.062Z" transform="translate(-909.226 -399.706)" fill="#ffb24e"/><path d="M909.775,431.438a1.446,1.446,0,0,0-.259,1.444c.024.026.049.15.077.172l6.715,15.646,2.869,12.807a1.233,1.233,0,0,0,.434.711l13.536,10.345c.264.216.863.39,1.126.172.35.287,3.373-1.66,3.724-1.949l10.5-8.095a1.378,1.378,0,0,0,.473-.74l3.417-13.249,6.656-15.646c.022-.019.041-.136.061-.155a1.451,1.451,0,0,0-.25-1.458c-1.376-.347-19.549-1.18-24.584-1.18S911.134,431.091,909.775,431.438Z" transform="translate(-909.225 -399.418)" fill="#ffb24d"/><path d="M909.757,431.815a1.448,1.448,0,0,0-.235,1.439c.024.025.049.148.078.17l6.868,15.443L919.4,461.4a1.215,1.215,0,0,0,.429.694l13.31,10.173c.257.209.849.386,1.1.175.359.294,3.315-1.6,3.674-1.891l10.342-7.972a1.377,1.377,0,0,0,.468-.726l3.5-12.987,6.807-15.443c.022-.019.043-.134.063-.153a1.453,1.453,0,0,0-.226-1.453c-1.335-.335-19.718-1.145-24.6-1.145S911.075,431.478,909.757,431.815Z" transform="translate(-909.225 -399.129)" fill="#ffb14c"/><path d="M909.742,432.191a1.455,1.455,0,0,0-.214,1.434c.025.026.053.145.082.168l7.022,15.242,3,12.262a1.211,1.211,0,0,0,.423.68l13.084,10c.248.2.835.383,1.082.179.368.3,3.259-1.529,3.625-1.832l10.184-7.852a1.373,1.373,0,0,0,.466-.713l3.572-12.725,6.959-15.242c.022-.017.044-.131.065-.15a1.46,1.46,0,0,0-.2-1.447c-1.293-.325-19.886-1.109-24.616-1.109S911.017,431.866,909.742,432.191Z" transform="translate(-909.224 -398.84)" fill="#ffb14b"/><path d="M909.725,432.567a1.458,1.458,0,0,0-.191,1.429c.027.026.055.143.082.167l7.175,15.04,3.065,11.99a1.208,1.208,0,0,0,.418.665l12.858,9.827c.24.2.82.381,1.06.184.376.308,3.2-1.465,3.575-1.772l10.027-7.731a1.372,1.372,0,0,0,.461-.7l3.65-12.463,7.112-15.04c.022-.019.044-.129.065-.15a1.461,1.461,0,0,0-.178-1.441c-1.252-.315-20.055-1.072-24.632-1.072S910.959,432.252,909.725,432.567Z" transform="translate(-909.224 -398.551)" fill="#ffb04a"/><path d="M909.707,432.943a1.465,1.465,0,0,0-.167,1.422c.027.027.054.141.083.165l7.328,14.839,3.13,11.72a1.2,1.2,0,0,0,.415.65l12.63,9.653c.233.191.806.378,1.038.187.383.315,3.143-1.4,3.526-1.715l9.871-7.608c.151-.126.458-.483.458-.684l3.728-12.2,7.262-14.838c.022-.019.044-.126.066-.148a1.469,1.469,0,0,0-.155-1.436c-1.209-.3-20.221-1.036-24.647-1.036S910.9,432.638,909.707,432.943Z" transform="translate(-909.224 -398.262)" fill="#ffb049"/><path d="M909.69,433.321a1.465,1.465,0,0,0-.143,1.415c.027.027.056.139.085.163l7.481,14.637,3.194,11.448a1.184,1.184,0,0,0,.41.634l12.4,9.481c.224.182.793.376,1.016.19.391.321,3.087-1.334,3.477-1.655l9.714-7.488c.146-.121.453-.476.453-.67l3.807-11.941L959,434.9c.024-.019.046-.124.068-.146a1.469,1.469,0,0,0-.133-1.431c-1.167-.293-20.388-1-24.661-1S910.844,433.027,909.69,433.321Z" transform="translate(-909.224 -397.973)" fill="#ffaf48"/><path d="M909.673,433.7a1.475,1.475,0,0,0-.119,1.41c.027.027.056.138.087.162l7.632,14.434,3.261,11.175a1.183,1.183,0,0,0,.4.621l12.177,9.308c.216.175.777.372.993.194.4.328,3.029-1.267,3.427-1.6l9.556-7.369c.141-.116.451-.468.451-.655l3.883-11.677,7.564-14.434c.024-.02.048-.122.07-.145a1.476,1.476,0,0,0-.109-1.424c-1.126-.284-20.556-.966-24.676-.966S910.786,433.413,909.673,433.7Z" transform="translate(-909.224 -397.684)" fill="#ffae47"/><path d="M909.658,434.073a1.476,1.476,0,0,0-.1,1.405c.027.027.058.134.089.16l7.785,14.234,3.325,10.9a1.185,1.185,0,0,0,.4.6l11.951,9.134c.208.17.764.371.971.2.407.333,2.972-1.2,3.378-1.538l9.4-7.246c.136-.112.446-.461.446-.641l3.962-11.415,7.716-14.232c.024-.02.048-.121.071-.143a1.481,1.481,0,0,0-.085-1.419c-1.083-.272-20.725-.93-24.691-.93S910.728,433.8,909.658,434.073Z" transform="translate(-909.225 -397.395)" fill="#ffae46"/><path d="M909.642,434.45a1.479,1.479,0,0,0-.073,1.4c.029.029.058.134.09.16l7.938,14.031,3.39,10.631c0,.175.264.483.395.59l11.725,8.961c.2.163.75.367.949.2.415.34,2.916-1.136,3.329-1.478l9.243-7.125c.131-.107.442-.454.442-.626l4.038-11.155,7.867-14.03c.026-.022.049-.119.073-.141a1.492,1.492,0,0,0-.061-1.414c-1.043-.262-20.893-.895-24.708-.895S910.671,434.188,909.642,434.45Z" transform="translate(-909.225 -397.106)" fill="#ffad45"/><path d="M909.639,434.826a1.307,1.307,0,0,0-.049,1.393,1.037,1.037,0,0,0,.092.158l8.09,13.829,3.456,10.361c0,.167.264.471.391.573l11.5,8.789c.192.156.736.364.927.206.424.347,2.858-1.07,3.279-1.419l9.087-7c.124-.1.437-.446.437-.612l4.118-10.893,8.017-13.829c.025-.02.054-.11.075-.138a1.316,1.316,0,0,0-.037-1.408c-1-.252-21.061-.859-24.724-.859S910.627,434.574,909.639,434.826Z" transform="translate(-909.239 -396.818)" fill="#ffad44"/><path d="M909.622,435.2a1.316,1.316,0,0,0-.026,1.386.912.912,0,0,0,.094.156l8.243,13.626,3.519,10.089c0,.16.267.461.388.56l11.271,8.614c.184.151.721.362.9.211.43.354,2.8-1.005,3.23-1.359l8.929-6.884c.121-.1.435-.439.435-.6l4.195-10.631,8.168-13.626c.027-.02.056-.109.075-.136a1.325,1.325,0,0,0-.012-1.4c-.959-.24-21.23-.822-24.739-.822S910.569,434.96,909.622,435.2Z" transform="translate(-909.239 -396.528)" fill="#ffac43"/><path d="M909.6,435.579a1.33,1.33,0,0,0,0,1.381,1.121,1.121,0,0,0,.1.155l8.394,13.424,3.586,9.816c0,.153.267.451.383.544l11.044,8.442c.175.145.708.361.883.214.439.361,2.744-.939,3.181-1.3l8.772-6.761c.116-.1.432-.432.432-.585l4.271-10.369,8.321-13.424a.952.952,0,0,0,.075-.134,1.328,1.328,0,0,0,.01-1.4c-.917-.23-21.4-.786-24.753-.786S910.512,435.348,909.6,435.579Z" transform="translate(-909.239 -396.239)" fill="#ffac42"/><path d="M909.59,435.956a1.338,1.338,0,0,0,.019,1.374.833.833,0,0,0,.1.153l8.547,13.223,3.65,9.546c0,.146.267.439.378.529L933.1,469.05c.168.136.694.357.861.219.448.366,2.686-.876,3.132-1.243l8.615-6.642c.109-.09.427-.424.427-.57l4.349-10.107,8.473-13.222c.027-.022.056-.105.077-.133a1.34,1.34,0,0,0,.034-1.391c-.876-.221-21.563-.752-24.768-.752S910.454,435.735,909.59,435.956Z" transform="translate(-909.239 -395.951)" fill="#ffab41"/><path d="M909.573,436.332a1.349,1.349,0,0,0,.042,1.369,1.053,1.053,0,0,0,.1.151l8.7,13.023,3.715,9.272c0,.139.267.429.373.514l10.592,8.095c.16.131.679.355.839.225.456.372,2.628-.81,3.082-1.184l8.457-6.522c.105-.087.425-.417.425-.555l4.426-9.847,8.624-13.019a.926.926,0,0,0,.078-.131,1.354,1.354,0,0,0,.058-1.386c-.833-.209-21.732-.716-24.783-.716S910.4,436.121,909.573,436.332Z" transform="translate(-909.24 -395.662)" fill="#ffaa40"/><path d="M909.557,436.708a1.363,1.363,0,0,0,.066,1.364,1.143,1.143,0,0,0,.1.15l8.854,12.82,3.781,9c0,.133.269.418.369.5l10.364,7.921c.151.124.665.352.817.228.463.379,2.572-.743,3.033-1.126l8.3-6.4c.1-.082.42-.41.42-.541l4.506-9.583,8.774-12.818a1.154,1.154,0,0,0,.08-.131,1.364,1.364,0,0,0,.082-1.379c-.793-.2-21.9-.68-24.8-.68S910.34,436.509,909.557,436.708Z" transform="translate(-909.241 -395.373)" fill="#ffaa3f"/><path d="M909.541,437.085a1.376,1.376,0,0,0,.09,1.359.989.989,0,0,0,.1.148l9.007,12.618,3.846,8.729c0,.126.269.407.364.483l10.138,7.75c.145.117.651.349.794.231.471.384,2.514-.679,2.984-1.067l8.144-6.278c.094-.078.417-.4.417-.527l4.583-9.321,8.925-12.616a.931.931,0,0,0,.082-.129,1.381,1.381,0,0,0,.105-1.374c-.75-.189-22.068-.645-24.815-.645S910.283,436.9,909.541,437.085Z" transform="translate(-909.242 -395.084)" fill="#ffa93e"/><path d="M909.525,437.463a1.389,1.389,0,0,0,.114,1.351,1.143,1.143,0,0,0,.1.148l9.16,12.415,3.911,8.457c0,.119.269.4.359.469l9.912,7.574c.136.112.636.347.772.236.48.391,2.456-.612,2.934-1.007l7.988-6.157c.088-.073.412-.395.412-.514l4.661-9.059,9.076-12.415a.918.918,0,0,0,.083-.126,1.4,1.4,0,0,0,.129-1.369c-.709-.177-22.237-.609-24.831-.609S910.226,437.282,909.525,437.463Z" transform="translate(-909.243 -394.795)" fill="#ffa93d"/><path d="M909.511,437.838a1.4,1.4,0,0,0,.136,1.345,1,1,0,0,0,.105.146l9.311,12.213,3.977,8.187c0,.111.27.384.354.452l9.685,7.4c.127.105.622.345.75.24.486.4,2.4-.548,2.885-.949l7.83-6.037c.085-.068.41-.386.41-.5l4.737-8.8,9.228-12.213a.886.886,0,0,0,.085-.124,1.41,1.41,0,0,0,.151-1.364c-.667-.167-22.4-.572-24.844-.572S910.169,437.67,909.511,437.838Z" transform="translate(-909.244 -394.506)" fill="#ffa83c"/><path d="M909.5,438.214a1.421,1.421,0,0,0,.16,1.34,1,1,0,0,0,.107.145l9.464,12.011,4.042,7.915c0,.1.27.374.349.439l9.459,7.229c.119.1.609.342.728.243.495.4,2.342-.481,2.835-.89l7.673-5.916c.078-.065.4-.379.4-.483l4.815-8.537,9.381-12.011a.919.919,0,0,0,.085-.122,1.429,1.429,0,0,0,.175-1.357c-.624-.158-22.572-.537-24.86-.537S910.113,438.056,909.5,438.214Z" transform="translate(-909.245 -394.217)" fill="#ffa83b"/><path d="M909.48,438.591a1.443,1.443,0,0,0,.182,1.335,1.3,1.3,0,0,0,.11.143l9.617,11.81,4.106,7.641c0,.1.27.364.344.424L933.073,467c.112.092.594.34.706.248.5.412,2.284-.417,2.786-.83l7.517-5.8c.073-.059.4-.372.4-.469l4.894-8.275,9.531-11.808a1.071,1.071,0,0,0,.087-.121,1.447,1.447,0,0,0,.2-1.352c-.583-.146-22.739-.5-24.875-.5S910.057,438.444,909.48,438.591Z" transform="translate(-909.248 -393.928)" fill="#ffa73a"/><path d="M909.466,438.967a1.459,1.459,0,0,0,.206,1.328,1.169,1.169,0,0,0,.112.143l9.769,11.607,4.172,7.37c0,.09.271.352.34.408l9,6.882c.1.085.58.337.684.252.51.418,2.227-.35,2.737-.771l7.36-5.674c.066-.056.4-.366.4-.456l4.972-8.013,9.682-11.606a1.038,1.038,0,0,0,.089-.119,1.465,1.465,0,0,0,.223-1.347c-.543-.136-22.907-.466-24.89-.466S910,438.831,909.466,438.967Z" transform="translate(-909.25 -393.639)" fill="#ffa639"/><path d="M909.451,439.343a1.484,1.484,0,0,0,.229,1.323,1,1,0,0,0,.114.139l9.922,11.407,4.237,7.1c0,.083.272.342.335.393l8.779,6.71c.1.078.566.333.662.255.519.425,2.17-.286,2.688-.713l7.2-5.552c.063-.053.395-.357.395-.441l5.048-7.753,9.833-11.4a.994.994,0,0,0,.09-.117,1.489,1.489,0,0,0,.247-1.342c-.5-.126-23.076-.43-24.907-.43S909.946,439.217,909.451,439.343Z" transform="translate(-909.252 -393.351)" fill="#ffa638"/><path d="M909.438,439.721a1.5,1.5,0,0,0,.252,1.317,1.127,1.127,0,0,0,.116.138l10.075,11.2,4.3,6.826c0,.078.272.332.33.379l8.552,6.535c.087.073.551.332.64.26.527.432,2.113-.219,2.638-.653l7.045-5.431c.058-.048.39-.35.39-.427l5.127-7.491,9.985-11.2a1.185,1.185,0,0,0,.092-.116,1.51,1.51,0,0,0,.271-1.337c-.459-.114-23.244-.395-24.923-.395S909.891,439.606,909.438,439.721Z" transform="translate(-909.255 -393.062)" fill="#ffa537"/><path d="M909.425,440.1a1.519,1.519,0,0,0,.276,1.311,1.139,1.139,0,0,0,.117.136l10.226,11,4.368,6.556c0,.07.272.32.325.362l8.326,6.363c.08.066.537.33.617.264.534.437,2.055-.153,2.589-.594l6.889-5.312c.051-.043.386-.342.386-.412l5.2-7.227,10.136-11a1,1,0,0,0,.094-.112,1.537,1.537,0,0,0,.294-1.332c-.418-.1-23.412-.359-24.938-.359S909.836,439.992,909.425,440.1Z" transform="translate(-909.258 -392.773)" fill="#ffa536"/><path d="M909.411,440.473a1.544,1.544,0,0,0,.3,1.3,1.1,1.1,0,0,0,.117.136l10.381,10.8L924.642,459c0,.063.274.31.32.349l8.1,6.19c.071.058.524.327.6.267.542.444,2-.088,2.54-.536l6.731-5.19c.048-.039.384-.335.384-.4l5.281-6.965,10.286-10.8a1,1,0,0,0,.1-.112,1.546,1.546,0,0,0,.316-1.323c-.374-.1-23.579-.323-24.952-.323S909.782,440.378,909.411,440.473Z" transform="translate(-909.262 -392.484)" fill="#ffa435"/><path d="M909.4,440.849a1.566,1.566,0,0,0,.323,1.3,1.284,1.284,0,0,0,.119.134l10.534,10.6,4.5,6.011c0,.054.274.3.316.332l7.872,6.018c.063.051.509.323.573.27.551.451,1.941-.022,2.49-.476l6.574-5.069c.042-.034.379-.328.379-.383l5.36-6.705,10.439-10.6a1.189,1.189,0,0,0,.1-.111,1.57,1.57,0,0,0,.34-1.318c-.333-.083-23.747-.287-24.967-.287S909.728,440.766,909.4,440.849Z" transform="translate(-909.265 -392.195)" fill="#ffa434"/><path d="M909.385,441.226a1.594,1.594,0,0,0,.347,1.294,1.309,1.309,0,0,0,.121.133l10.686,10.4,4.564,5.739c0,.049.274.288.311.318l7.646,5.843c.056.046.5.321.551.276.56.458,1.883.043,2.441-.417l6.418-4.948a2.492,2.492,0,0,0,.376-.369l5.436-6.443,10.59-10.395a1.154,1.154,0,0,0,.1-.109,1.6,1.6,0,0,0,.364-1.313c-.293-.073-23.916-.252-24.982-.252S909.674,441.152,909.385,441.226Z" transform="translate(-909.27 -391.906)" fill="#ffa333"/><path d="M909.374,441.6a1.612,1.612,0,0,0,.369,1.289,1.275,1.275,0,0,0,.122.131L920.7,453.216l4.628,5.467c0,.042.274.277.306.3l7.42,5.671c.047.039.481.318.529.279.566.464,1.827.109,2.391-.359l6.261-4.826a2.627,2.627,0,0,0,.371-.356l5.515-6.181,10.742-10.192c.034-.029.068-.075.1-.107a1.62,1.62,0,0,0,.388-1.308c-.25-.063-24.082-.216-25-.216S909.621,441.539,909.374,441.6Z" transform="translate(-909.274 -391.617)" fill="#ffa232"/><path d="M909.362,441.98a1.643,1.643,0,0,0,.391,1.281,1.327,1.327,0,0,0,.126.131l10.99,9.991,4.695,5.2a2.2,2.2,0,0,0,.3.287l7.193,5.5c.039.032.466.315.507.282a2.157,2.157,0,0,0,2.342-.3l6.1-4.7a2.975,2.975,0,0,0,.369-.342l5.591-5.919,10.893-9.99c.034-.029.07-.073.1-.106a1.646,1.646,0,0,0,.412-1.3c-.209-.051-24.251-.18-25.015-.18S909.568,441.927,909.362,441.98Z" transform="translate(-909.279 -391.328)" fill="#ffa231"/><path d="M909.351,442.356a1.673,1.673,0,0,0,.415,1.276,1.555,1.555,0,0,0,.128.129l11.143,9.789,4.759,4.924a2.392,2.392,0,0,0,.3.272l6.967,5.324a2.231,2.231,0,0,0,.485.287,2.037,2.037,0,0,0,2.293-.24l5.947-4.586a3.752,3.752,0,0,0,.364-.325l5.671-5.659,11.043-9.787c.036-.029.07-.071.1-.1a1.675,1.675,0,0,0,.435-1.3c-.167-.041-24.419-.145-25.03-.145S909.516,442.314,909.351,442.356Z" transform="translate(-909.284 -391.04)" fill="#ffa130"/><path d="M909.34,442.732a1.7,1.7,0,0,0,.439,1.271,1.144,1.144,0,0,0,.129.126l11.3,9.59,4.824,4.652a3.1,3.1,0,0,0,.292.257l6.739,5.151a3.009,3.009,0,0,0,.463.291,1.925,1.925,0,0,0,2.244-.182l5.79-4.463a4.635,4.635,0,0,0,.36-.311l5.748-5.4,11.194-9.587a1.437,1.437,0,0,0,.1-.1,1.694,1.694,0,0,0,.458-1.291c-.124-.032-24.586-.111-25.043-.111S909.464,442.7,909.34,442.732Z" transform="translate(-909.29 -390.751)" fill="#ffa12f"/><path d="M909.329,443.108a1.732,1.732,0,0,0,.463,1.266,1.525,1.525,0,0,0,.131.124l11.448,9.388,4.89,4.38c0,.014.277.233.287.242l6.513,4.979a4.257,4.257,0,0,0,.441.294,1.821,1.821,0,0,0,2.194-.122l5.634-4.343c.01-.008.355-.284.355-.3l5.826-5.134,11.345-9.386c.037-.029.071-.066.105-.1a1.73,1.73,0,0,0,.481-1.286c-.083-.02-24.754-.073-25.059-.073S909.412,443.088,909.329,443.108Z" transform="translate(-909.296 -390.461)" fill="#ffa02e"/><path d="M909.319,443.484a1.75,1.75,0,0,0,.485,1.259,1.143,1.143,0,0,0,.133.124l11.6,9.185,4.955,4.108c0,.007.277.223.282.228l6.287,4.8c.007.007.41.306.418.3a1.727,1.727,0,0,0,2.145-.063l5.475-4.222c.005-.005.354-.277.354-.284l5.9-4.872,11.5-9.184c.036-.031.071-.065.1-.1a1.754,1.754,0,0,0,.507-1.281c-.041-.01-24.922-.037-25.074-.037S909.36,443.474,909.319,443.484Z" transform="translate(-909.302 -390.172)" fill="#ffa02d"/><path d="M909.309,443.862a1.774,1.774,0,0,0,.643,1.376l11.754,8.983,11.754,8.983a1.64,1.64,0,0,0,2.1,0l11.648-8.981,11.65-8.981a1.779,1.779,0,0,0,.636-1.371l-25.091,0Z" transform="translate(-909.309 -389.885)" fill="#ff9f2c"/></g><g transform="translate(29.235 3.592)" opacity="0.7"><path d="M925.216,485.442l23.3-17.961a1.779,1.779,0,0,0,.636-1.371V416.58a1.74,1.74,0,0,0-1.289-1.7,101.611,101.611,0,0,0-23.8-2.747v73.676A1.632,1.632,0,0,0,925.216,485.442Z" transform="translate(-924.059 -412.13)" fill="#ffcb78" opacity="0.5"/></g><circle cx="13.439" cy="13.439" r="13.439" transform="matrix(0.231, -0.973, 0.973, 0.231, 13.06, 47.374)" fill="#fff"/><path d="M929.137,445.134s-3.351-4.81-11.755-10.685l1.731-2.407c7.353,3.878,9.556,6.618,9.556,6.618,7.824-9.961,16.129-12.723,16.129-12.723C934.058,437.162,932.669,440.118,929.137,445.134Z" transform="translate(-899.505 -398.859)" fill="#6bc16b"/><path d="M936.107,492.522a1.074,1.074,0,0,1-.66-.228L907.282,470.22a1.076,1.076,0,0,1-.41-.842V414.937a1.072,1.072,0,0,1,.691-1c.422-.16,10.553-3.919,28.544-3.919s28.024,3.761,28.442,3.921a1.071,1.071,0,0,1,.687,1v54.441a1.071,1.071,0,0,1-.408.84l-28.059,22.075A1.073,1.073,0,0,1,936.107,492.522Zm-27.095-23.664,27.095,21.235L963.1,468.86V415.7c-2.541-.828-12.028-3.545-26.989-3.545s-24.535,2.721-27.095,3.547Z" transform="translate(-906.872 -410.018)" fill="#fff"/><g transform="translate(29.235 7.399)" opacity="0.9"><path d="M947.316,463.29V415.417c0-.748-1.834-1.049-1.834-1.049v47.87a1.648,1.648,0,0,1-.59,1.271l-20.834,15.8v2.441l22.667-17.193A1.649,1.649,0,0,0,947.316,463.29Z" transform="translate(-924.059 -414.368)" fill="#fff" opacity="0.5"/></g><path d="M933.675,413.067a89.921,89.921,0,0,0-22.14,2.6,1.618,1.618,0,0,0-1.194,1.582V465.17c0,.5,2.808,2.147,2.808,2.147v-48.3a1.615,1.615,0,0,1,1.192-1.582,90.772,90.772,0,0,1,19.333-2.7Z" transform="translate(-904.44 -407.884)" fill="#fff" opacity="0.7"/><path d="M929.137,443.8s-3.462-4.218-11.376-9.876l-.379.527c8.4,5.875,11.755,10.685,11.755,10.685,3.531-5.016,4.921-7.972,15.661-19.2C944.8,425.937,934.422,434.047,929.137,443.8Z" transform="translate(-899.505 -398.859)" fill="#6bc16b" opacity="0.5"/></g><g transform="translate(1.07 1.07)" opacity="0.1"><path d="M847,507.336c27.13-25.821,96.064-92.187,123.987-119.083H897.854C882.914,399.08,860.9,415.047,847,425.186Z" transform="translate(-847 -388.253)" fill="#fff"/><path d="M863.594,564.2H979.82l127.814-134.2V406.256a18,18,0,0,0-18-18h-54.975L849.012,556.722A17.964,17.964,0,0,0,863.594,564.2Z" transform="translate(-845.59 -388.253)" fill="#fff"/><path d="M1014.711,529.892a18,18,0,0,0,18-18V437.192c-21.528,25.994-57.1,68.946-76.826,92.7Z" transform="translate(-770.671 -353.948)" fill="#fff"/></g></g><g transform="translate(0 144.484)"><rect width="158.108" height="34.888" rx="4.763" transform="translate(0.573 22.427)" fill="#fff7e9"/><g transform="translate(0.573 39.871)"><path d="M794.619,482.115a8.1,8.1,0,0,0,8.1,8.1H944.626a8.1,8.1,0,0,0,8.1-8.1v-9.342H794.619Z" transform="translate(-794.619 -472.773)" fill="#f4e8d4"/></g><path d="M817.1,477.482l4.235-2.924a2.557,2.557,0,1,0-2.907-4.206l-3.227,2.226v-3.921a2.558,2.558,0,1,0-5.117,0v3.836l-3.123-2.221a2.558,2.558,0,0,0-2.968,4.167l4.193,2.982-4.235,2.924a2.558,2.558,0,1,0,2.909,4.208l3.225-2.227v3.921a2.558,2.558,0,1,0,5.117,0v-3.836l3.123,2.221a2.558,2.558,0,1,0,2.968-4.167Z" transform="translate(-788.278 -437.581)" fill="#af9782"/><path d="M835.127,477.482l4.235-2.924a2.557,2.557,0,1,0-2.909-4.206l-3.225,2.226v-3.921a2.558,2.558,0,1,0-5.116,0v3.836l-3.123-2.221a2.558,2.558,0,0,0-2.968,4.167l4.193,2.982-4.235,2.924a2.558,2.558,0,1,0,2.908,4.208l3.225-2.227v3.921a2.558,2.558,0,1,0,5.116,0v-3.836l3.123,2.221a2.558,2.558,0,1,0,2.968-4.167Z" transform="translate(-775.642 -437.581)" fill="#af9782"/><path d="M879.817,477.482l4.235-2.924a2.557,2.557,0,1,0-2.908-4.206l-3.225,2.226v-3.921a2.558,2.558,0,1,0-5.117,0v3.836l-3.123-2.221a2.558,2.558,0,1,0-2.968,4.167l4.193,2.982-4.235,2.924a2.558,2.558,0,1,0,2.908,4.208l3.225-2.227v3.921a2.558,2.558,0,1,0,5.117,0v-3.836l3.123,2.221a2.558,2.558,0,1,0,2.968-4.167Z" transform="translate(-744.316 -437.581)" fill="#af9782"/><path d="M944.626,462.518H802.721a8.1,8.1,0,0,0-8.1,8.1v2.625a8.1,8.1,0,0,1,8.1-8.1H944.626a8.1,8.1,0,0,1,8.1,8.1V470.62A8.1,8.1,0,0,0,944.626,462.518Z" transform="translate(-794.046 -440.091)" fill="#c1a795" opacity="0.2"/><path d="M944.626,487.45H802.721a8.1,8.1,0,0,1-8.1-8.1v-2.625a8.1,8.1,0,0,0,8.1,8.1H944.626a8.1,8.1,0,0,0,8.1-8.1v2.625A8.1,8.1,0,0,1,944.626,487.45Z" transform="translate(-794.046 -430.134)" fill="#c1a795" opacity="0.2"/><path d="M944.861,498.214h-141.9a8.684,8.684,0,0,1-8.675-8.673V470.855a8.684,8.684,0,0,1,8.675-8.673h141.9a8.684,8.684,0,0,1,8.675,8.673V489.54A8.684,8.684,0,0,1,944.861,498.214Zm-141.9-34.887a7.537,7.537,0,0,0-7.53,7.529V489.54a7.538,7.538,0,0,0,7.53,7.529h141.9a7.538,7.538,0,0,0,7.53-7.529V470.855a7.537,7.537,0,0,0-7.53-7.529Z" transform="translate(-794.282 -440.326)" fill="#c1a795"/><path d="M804.453,464.822s-3.6,1.59-4.916,4.344c-2.05,4.3-2.74,13.909-2.74,13.909s-1.521-10.259.539-14.892C799.1,464.224,804.453,464.822,804.453,464.822Z" transform="translate(-792.898 -438.498)" fill="#fff"/><path d="M881.1,488.065s3.6-1.592,4.914-4.346c2.051-4.3,2.742-13.909,2.742-13.909s1.521,10.26-.539,14.892C886.459,488.662,881.1,488.065,881.1,488.065Z" transform="translate(-733.423 -434.979)" fill="#fff"/><path d="M860.248,491.492c.553-.08,1.1-.18,1.631-.3l.063-.015c.526-.119,1.041-.257,1.548-.417l.073-.022c.507-.162,1.005-.34,1.492-.539l.032-.014a17.68,17.68,0,0,0,6.265-4.324c.088-.1.182-.184.267-.282.236-.265.456-.548.675-.83.134-.174.271-.342.4-.521.185-.26.36-.531.532-.8.141-.223.282-.446.413-.675.15-.26.289-.526.427-.8s.262-.532.383-.8.23-.527.335-.8c.117-.3.224-.614.328-.929.087-.262.173-.524.25-.793.1-.349.18-.709.26-1.07.056-.255.119-.507.167-.767.077-.417.129-.849.18-1.281.027-.223.065-.439.085-.667.06-.667.094-1.349.094-2.05a23.053,23.053,0,0,0-3.25-11.92c-3.421-5.671-9.213-9.4-15.782-9.4a18.278,18.278,0,0,0-14.686,7.758,22.846,22.846,0,0,0-4.346,13.562c0,.7.034,1.383.094,2.05.02.228.058.444.085.667.051.432.1.864.18,1.281.048.26.111.512.167.767.08.361.162.721.26,1.07.076.269.163.531.25.793.1.315.211.626.328.929q.158.406.335.8.181.408.383.8c.138.27.277.536.427.8.131.23.272.452.413.675.172.272.347.543.532.8.129.179.265.347.4.521.219.282.439.565.675.83.085.1.179.187.267.282a17.67,17.67,0,0,0,6.266,4.324l.031.014q.73.3,1.492.538l.073.024c.507.16,1.022.3,1.546.417l.065.015c.536.119,1.078.219,1.631.3V543.51h6.746v-1.88h11.276v-3.341h-3.341v-7.517h1.88v-3.341h-1.671v-6.055h3.132v-2.924H860.248Zm-8.02-23.392a5.545,5.545,0,0,1-.721-2.7,5.611,5.611,0,0,1,10.262-3.137,5.488,5.488,0,0,1,.517.954,5.6,5.6,0,0,1-10.058,4.884Z" transform="translate(-763.578 -447.83)" fill="#c1a795" opacity="0.5"/><g transform="translate(73.934)"><path d="M857.116,449.669c-10.51,0-19.032,9.546-19.032,21.322s8.522,18.932,19.032,18.932,19.032-7.158,19.032-18.932S867.626,449.669,857.116,449.669Zm0,19.534a5.61,5.61,0,1,1,5.61-5.61A5.609,5.609,0,0,1,857.116,469.2Z" transform="translate(-837.512 -449.097)" fill="#ffcb78"/><path d="M847.432,470.509v56.585H853.7v-1.879h11.275v-3.341H861.63v-7.517h1.879v-3.341h-1.67v-6.055h3.132v-2.923H853.7V470.509Z" transform="translate(-830.96 -434.489)" fill="#ffcb78"/><path d="M876.023,463.352c-4.113,5.957-11.062,9.308-18.944,9.308s-14.831-3.351-18.944-9.308c.893,10.606,9.029,16.979,18.944,16.979.162,0,.318-.015.48-.019v51.8h2.082V480.168C868.362,479.163,875.209,473.027,876.023,463.352Z" transform="translate(-837.476 -439.506)" fill="#ffcb78" opacity="0.4"/><path d="M850.779,491.1v15.638h6.3v-6.085h-3.222v-4.8h3.222V491.1Z" transform="translate(-828.614 -420.053)" fill="#ffcb78" opacity="0.4"/><path d="M861.056,542.51h-7.409v-52.1c-9.677-1.594-15.9-9.073-15.9-19.185,0-12.072,8.794-21.893,19.6-21.893s19.6,9.821,19.6,21.893c0,10.112-6.222,17.591-15.9,19.185v25.9h11.276v4.067H869.2v4.911h1.67v4.485h-1.88v6.372h3.343v4.487H861.056Zm-6.265-1.145h5.12v-1.88h11.274v-2.2h-3.341v-8.661h1.88v-2.2h-1.67v-7.2h3.132v-1.778H859.912v-28.03l.492-.071c9.36-1.332,15.407-8.449,15.407-18.127,0-11.441-8.28-20.748-18.459-20.748s-18.459,9.308-18.459,20.748c0,9.679,6.047,16.8,15.407,18.127l.492.071Zm2.56-71.354a6.183,6.183,0,1,1,6.183-6.183A6.191,6.191,0,0,1,857.352,470.012Zm0-11.221a5.038,5.038,0,1,0,5.038,5.038A5.045,5.045,0,0,0,857.352,458.79Z" transform="translate(-837.748 -449.333)" fill="#fc9e38"/></g></g><g transform="translate(299.913 140.039)"><rect width="171.015" height="107.756" rx="5.701" transform="translate(0 0)" fill="#2d2d39"/><path d="M1063.927,488.7a1.337,1.337,0,0,0,1.337,1.337h4.331a1.338,1.338,0,0,0,1.339-1.337v-13.46a1.338,1.338,0,0,0-1.339-1.337h-4.331a1.337,1.337,0,0,0-1.337,1.337Zm4.872-13.763a1.338,1.338,0,0,1,1.339,1.339v11.39A1.338,1.338,0,0,1,1068.8,489h-2.739a1.337,1.337,0,0,1-1.337-1.337v-11.39a1.337,1.337,0,0,1,1.337-1.339Z" transform="translate(-905.182 -427.667)" fill="#fff"/><g transform="translate(12.934 7.768)"><rect width="137.25" height="92.221" fill="#fff"/></g><g transform="translate(0)" opacity="0.1"><path d="M992.22,446.72,970.6,470.595v74.184a9.683,9.683,0,0,0,4.861,8.4c14.809-23.718,49.961-79.408,67.046-106.455Z" transform="translate(-970.601 -446.72)" fill="#fff"/><path d="M1073.158,554.476c13.5-24.489,36.994-65.452,53.8-94.591v-3.468a9.7,9.7,0,0,0-9.7-9.7h-61.852l-63.9,107.756Z" transform="translate(-955.942 -446.72)" fill="#fff"/><path d="M1077.61,538.756a9.7,9.7,0,0,0,9.7-9.7V469.147l-39.229,69.609Z" transform="translate(-916.292 -430.999)" fill="#fff"/></g><g transform="translate(12.934 7.768)"><rect width="137.25" height="10.185" fill="#a6b5d6"/><g transform="translate(7.322 16.523)"><rect width="27.897" height="29.834" fill="#a6b5d6"/><rect width="26.038" height="27.846" transform="translate(0.929 0.994)" fill="#c9dff0"/><path d="M1003.745,479.956c0-4.554-1.886-8.246-6.073-8.246h-6.318c-4.186,0-6.073,3.693-6.073,8.246v2.376h18.463Z" transform="translate(-980.566 -453.493)" fill="#8faac1"/><ellipse cx="5.298" cy="6.27" rx="5.298" ry="6.27" transform="translate(8.651 4.788)" fill="#8faac1"/></g><rect width="21.013" height="4.664" transform="translate(10.764 49.046)" fill="#a6b5d6"/><rect width="21.013" height="4.664" transform="translate(10.764 81.756)" fill="#a6b5d6"/><rect width="22.551" height="5.105" transform="translate(43.934 17.517)" fill="#a6b5d6"/><rect width="9.394" height="9.169" transform="translate(43.934 68.616)" fill="#a6b5d6"/><rect width="118.154" height="0.963" transform="translate(8.252 60.195)" fill="#a6b5d6"/><rect width="82.472" height="5.159" transform="translate(43.934 28.71)" fill="#c9dff0"/><rect width="65.499" height="2.58" transform="translate(60.907 68.616)" fill="#c9dff0"/><rect width="65.499" height="2.58" transform="translate(60.907 75.205)" fill="#c9dff0"/><rect width="9.394" height="8.133" transform="translate(43.934 84.088)" fill="#a6b5d6"/><rect width="65.499" height="2.58" transform="translate(60.907 84.088)" fill="#c9dff0"/><rect width="65.499" height="1.543" transform="translate(60.907 90.678)" fill="#c9dff0"/><rect width="82.472" height="5.159" transform="translate(43.934 38.63)" fill="#c9dff0"/><rect width="82.472" height="5.159" transform="translate(43.934 48.55)" fill="#c9dff0"/><rect width="9.169" height="9.169" transform="translate(10.85 68.616)" fill="#c9dff0"/><rect width="9.169" height="9.169" transform="translate(22.522 68.616)" fill="#c9dff0"/></g><g transform="translate(12.177 7.011)"><path d="M1116.523,544.577H977.76V450.842h138.764Zm-137.25-1.516H1115.01V452.356H979.274Z" transform="translate(-977.76 -450.842)" fill="#6c6c7f"/></g><g transform="translate(109.747 56.295)"><circle cx="35.215" cy="35.215" r="35.215" transform="translate(0 67.486) rotate(-73.375)" fill="#2d2d39"/><circle cx="33.953" cy="33.953" r="33.953" transform="translate(9.866 9.866)" fill="#fff"/><circle cx="31.481" cy="31.481" r="31.481" transform="translate(12.337 12.337)" fill="url(#a)"/><path d="M1093.851,509.458s-5.772-17.052-23.348-17.052-23.347,17.052-23.347,17.052h21.551v21.408a2.757,2.757,0,0,1-2.754,2.754,2.877,2.877,0,0,1-2.873-2.875,1.8,1.8,0,0,0-3.593,0,6.472,6.472,0,0,0,6.466,6.465,6.354,6.354,0,0,0,6.346-6.345V509.458Z" transform="translate(-1026.685 -470.991)" fill="#2d2d39"/><path d="M1072.719,505.693c-11.439,0-21.806,2.8-29.4,7.341a30.308,30.308,0,0,1,59.842.652C1095.493,508.763,1084.694,505.693,1072.719,505.693Z" transform="translate(-1029.373 -474.169)" fill="#fff" opacity="0.2"/><path d="M1072.719,516.232c-11.439,0-21.806-2.8-29.4-7.341a30.308,30.308,0,0,0,59.842-.65C1095.493,513.162,1084.694,516.232,1072.719,516.232Z" transform="translate(-1029.373 -459.891)" fill="#ffb32c" opacity="0.2"/></g></g><g transform="translate(255.646)"><path d="M1060.494,380.414c-16.064,1.026-34.591-.342-58.213-16.023-28.685,16.035-42.922,16.035-57.705,16.01v94.472a35.574,35.574,0,0,0,14.661,28.777l41.126,29.889a3.787,3.787,0,0,0,4.843-.01l40.743-29.862a35.578,35.578,0,0,0,14.545-28.694Z" transform="translate(-944.576 -364.391)" fill="#d6d6d6"/><g transform="translate(2.529 90.104)" opacity="0.2"><path d="M958.194,466.518l41.126,29.889a3.787,3.787,0,0,0,4.843-.01l40.743-29.862a35.578,35.578,0,0,0,14.545-28.694V417.363c-20.487,12.153-62.756,32.888-113.389,33.448A35.526,35.526,0,0,0,958.194,466.518Z" transform="translate(-946.063 -417.363)" fill="#716e82"/></g><g transform="translate(6.641 9.74)"><path d="M1051.116,384.3c-14.223.907-30.628-.3-51.543-14.188-25.4,14.2-38,14.2-51.094,14.174V467.94a31.5,31.5,0,0,0,12.98,25.48l36.416,26.465a3.353,3.353,0,0,0,4.286-.01l36.076-26.442a31.5,31.5,0,0,0,12.878-25.406Z" transform="translate(-948.48 -370.117)" fill="#a5a5a5"/></g><g transform="translate(6.641 9.74)" opacity="0.5"><path d="M999.574,370.117c-25.4,14.2-38,14.2-51.094,14.174v58.677c22.422-14.72,58.563-33.378,102.636-38.063V384.3C1036.893,385.211,1020.489,384,999.574,370.117Z" transform="translate(-948.48 -370.117)" fill="#a5a5a5"/></g><g transform="translate(10.89 93.882)" opacity="0.3"><path d="M959.709,458.745l36.416,26.465a3.353,3.353,0,0,0,4.286-.01l36.076-26.442a31.5,31.5,0,0,0,12.878-25.406V419.584c-20.835,11.48-56.317,27.073-98.387,29.372A31.436,31.436,0,0,0,959.709,458.745Z" transform="translate(-950.978 -419.584)" fill="#a5a5a5"/></g><path d="M1046.428,386.249c-13.3.849-28.646-.282-48.207-13.269-23.756,13.279-35.547,13.279-47.789,13.257v78.236a29.464,29.464,0,0,0,12.142,23.832l34.059,24.753a3.135,3.135,0,0,0,4.009-.009l33.742-24.73a29.463,29.463,0,0,0,12.044-23.763Z" transform="translate(-940.471 -358.37)" fill="url(#b)"/><g transform="translate(57.959 14.742)"><path d="M980.861,513l33.742-24.73a29.463,29.463,0,0,0,12.045-23.763V386.195c-13.254.845-28.537-.281-48-13.137V513.689A3.121,3.121,0,0,0,980.861,513Z" transform="translate(-978.65 -373.058)" fill="#ffb32c"/></g><g transform="translate(12.609 17.443)" opacity="0.2"><path d="M1042.688,387.184c-12.568.8-27.066-.267-45.548-12.538-22.444,12.548-33.584,12.548-45.151,12.528v49.658c20.786-13.186,52.492-28.874,90.7-33.581Z" transform="translate(-951.989 -374.646)" fill="#fff"/></g><path d="M952.958,432.692s31.526,12.164,87.275,0c0,0-2.114,6.29-5.96,9.558s-33.54,26.914-37.614,27.107-37.287-26.326-37.287-26.326S954.3,438.6,952.958,432.692Z" transform="translate(-938.7 -316.514)" fill="#ffb32c" opacity="0.2"/></g></g></g></g></svg>