<svg width="30" height="31" viewBox="0 0 30 31" fill="none" xmlns="http://www.w3.org/2000/svg">
<rect y="0.987854" width="30" height="30" rx="15" fill="#F1F4FB"/>
<path fill-rule="evenodd" clip-rule="evenodd" d="M17.7492 15.9048C18.5516 15.1341 19.0542 14.0301 19.0542 12.8041C19.0542 10.4743 17.2395 8.58557 15.0009 8.58557C12.7622 8.58557 10.9475 10.4743 10.9475 12.8041C10.9475 14.0299 11.4498 15.1335 12.252 15.9043C11.2874 16.3044 10.401 16.9147 9.65469 17.7081C8.45838 18.9798 7.70445 20.6338 7.49819 22.4C7.43462 22.9443 7.88489 23.3901 8.43294 23.3901C8.98098 23.3901 9.41719 22.9431 9.50331 22.4019C9.69504 21.1969 10.2344 20.0755 11.058 19.1999C12.1035 18.0886 13.5214 17.4642 14.9999 17.4642C16.4784 17.4642 17.8964 18.0886 18.9418 19.1999C19.7655 20.0755 20.3048 21.1969 20.4966 22.4019C20.5827 22.9431 21.0189 23.3901 21.5669 23.3901C22.115 23.3901 22.5653 22.9443 22.5017 22.4C22.2954 20.6338 21.5415 18.9798 20.3452 17.7081C19.5992 16.9151 18.7133 16.305 17.7492 15.9048ZM15.0009 15.3352C13.6577 15.3352 12.5688 14.2019 12.5688 12.8041C12.5688 11.4062 13.6577 10.273 15.0009 10.273C16.344 10.273 17.4329 11.4062 17.4329 12.8041C17.4329 14.2019 16.344 15.3352 15.0009 15.3352Z" fill="#87AB49"/>
</svg>
