<svg xmlns="http://www.w3.org/2000/svg" width="439.1" height="436.891" viewBox="0 0 439.1 436.891"><g transform="translate(-181.99 -914.109)"><g transform="translate(-432.26 828.055)"><circle cx="152.003" cy="152.003" r="152.003" transform="translate(682.811 152.497)" fill="#d5d7db" opacity="0.204"/><circle cx="218.445" cy="218.445" r="218.445" transform="translate(616.369 86.055)" fill="#d5d7db" opacity="0.152"/></g><g transform="translate(-283.762 479.745)"><path d="M481.363,509.84c-.354.577-.874,5.08-1.088,6.212-.4,2.1-3.7,4.967-4.032,4.927a3.212,3.212,0,0,1-4.215-.786c-.922-1.131-1.752-9.92-1.516-11.755-2.717,3.106-5.176,22.055,1.07,22.819C485.163,532.952,481.695,509.312,481.363,509.84Z" transform="translate(6.448 244.546)" fill="#15202e"/><g transform="translate(517.348 752.385)"><path d="M509.674,517.671c-2.167,3.079-16.608-.93-17.874-2.036a73.111,73.111,0,0,0-11.178-7.334l-.022.013a.239.239,0,0,0-.122.17c-1.035,3.364-2.922,6.482-2.914,10.13.013,1.651.258,4.32,1.913,5.176,3.005,2.25,12.222.49,13.1.6,1.529,1.2,11.405,3.8,17.2,3.289A5.827,5.827,0,0,0,514.357,525C514.789,524.245,517.388,520.117,509.674,517.671Z" transform="translate(-477.564 -508.301)" fill="#15202e"/></g><g transform="translate(529.134 512.202)"><path d="M503.867,518.468a67.5,67.5,0,0,0-2.119-9.605c-.127-1.42-.249-2.844-.411-4.272-.2-1.887-.088-11.838-.009-13.93a54.787,54.787,0,0,0-.59-11.283c.013-.135-.245-7.71-1.245-11.226a27.512,27.512,0,0,0-2.1-5.425c-.052-.114-.1-.227-.162-.328a15.474,15.474,0,0,0-3.669-4.8c-3.027-2.6-7.4-4.609-11.475-4.233-2.289.192-2.525,3.914-.14,4.124a24.164,24.164,0,0,1,5.259.747,13.988,13.988,0,0,1,2.769,1.175c-.039.044-.079.074-.122.118a5.764,5.764,0,0,0-1.118,2.625c-.8,2.551-2.25,5.491-5.058,6.229a.711.711,0,0,1-.114.039,22.578,22.578,0,0,0-2.14,5.281c-.913,3.652,5.111,4.054,5.111,4.054.467,2.481,2.713,17.787,3.141,20.264a75.858,75.858,0,0,1,1.009,7.932c.135,2.075.476,7.526.454,8.1-.057,1.459,1.035,5.565,1.721,8.09l3.778,23.872,6.316.384s1.293-22.767,1.328-23.439A17.076,17.076,0,0,0,503.867,518.468Z" transform="translate(-480.262 -453.316)" fill="#ffc89f"/><path d="M500.739,479.378c.013-.135-.245-7.71-1.245-11.226a27.512,27.512,0,0,0-2.1-5.425c-.052-.114-.1-.227-.162-.328a15.474,15.474,0,0,0-3.669-4.8c-3.027-2.6-7.4-4.609-11.475-4.233-2.289.192-2.525,3.914-.14,4.124a24.164,24.164,0,0,1,5.259.747,13.988,13.988,0,0,1,2.769,1.175c-.039.044-.079.074-.122.118a5.764,5.764,0,0,0-1.118,2.625c-.8,2.551-2.25,5.491-5.058,6.229a.711.711,0,0,1-.114.039,22.578,22.578,0,0,0-2.14,5.281c-.913,3.652,5.111,4.054,5.111,4.054.363,1.9,1.769,11.392,2.59,16.8,4.124-.647,8.151-1.485,12.165-2.42.013-.638.026-1.153.039-1.472A54.787,54.787,0,0,0,500.739,479.378Z" transform="translate(-480.262 -453.316)" fill="#f0b990"/><path d="M494.915,478.932c-.127-1.42-.249-2.844-.41-4.272-.17-1.586-.109-8.95-.048-12.458-4.014.935-8.042,1.773-12.165,2.42.253,1.629.454,2.887.55,3.464a75.824,75.824,0,0,1,1.009,7.932c.135,2.075.476,7.526.454,8.1-.057,1.459,1.035,5.565,1.721,8.09l3.778,23.872,6.316.384s1.293-22.767,1.328-23.439a17.073,17.073,0,0,0-.415-4.486A67.478,67.478,0,0,0,494.915,478.932Z" transform="translate(-473.429 -423.385)" fill="#ffc89f"/><g transform="translate(17.692 95.559)"><path d="M484.834,482.5l-.166-2.52s-.061-.162-.153-.459a5.2,5.2,0,0,0-.135-1.131,2.326,2.326,0,0,0,1.035-.485,16.2,16.2,0,0,0,1.6-1.874c.122-.148.24-.323.363-.489a1.79,1.79,0,0,0,.38-.35c.507.629,1.013,1.267,1.5,1.931.135.175.28.393.419.577l-.865,1.424c-.031,1.747,0,5.683,0,5.683l-1.765,3.713s-.481,3.315-1.14,3.63c-.14.07-.485,0-.826-.419a3.086,3.086,0,0,1-.716-2.424c.231-.8.791-2.713.791-2.713Z" transform="translate(-484.312 -475.192)" fill="#d4a47d"/></g><g transform="translate(13.519 90.046)"><path d="M485.292,490.721c-.528.07-1.153-.384-1.293-1.31-.109-.681-.262-1.856-.262-1.856h0l-.38-2.774c.232-.5,1.874-7.622,1.874-7.622l1.153-3.228,4.573.1c-.048.1,1.014,6.081-.585,7.212a30.139,30.139,0,0,0-4.246,4.442s.048,1.865.109,2.442C486.476,490.061,485.9,490.634,485.292,490.721Z" transform="translate(-483.357 -473.93)" fill="#ffc89f"/></g><path d="M485.265,474.006l1.529.979,1.957,1.66,3.149,8.335-2.551,7.046-3.521,3.822a.775.775,0,0,1-1.07.17.765.765,0,0,1-.118-1.074l3.162-6.019s.3-7.867-2.551-6.749C483.522,482.851,485.318,474.12,485.265,474.006Z" transform="translate(-466.077 -383.628)" fill="#ffc89f"/></g><path d="M481.409,495.729c0,.087.013,3.966.031,4.067,3.647-.629,19.255-3.005,23.374-3.774l-1.524-33.744a11.779,11.779,0,0,0-23.527,1.2Z" transform="translate(47.139 51.442)" fill="#15202e"/><path d="M476.2,460c-.236-.022-2.215-.336-3.263-.511l-6.53,23.252a9.652,9.652,0,0,0,6.124,12.187c5.049,1.664,7.2-3.014,8.88-8.064l9.654-23.71A137.146,137.146,0,0,0,476.2,460Z" transform="translate(0.562 79.683)" fill="#ffc89f"/><path d="M473.575,460c-.236-.022-2.215-.336-3.263-.511L466.7,472.328c5.22,1.835,10.518,3.822,15.909,5.163l5.832-14.336A137.146,137.146,0,0,0,473.575,460Z" transform="translate(3.19 79.683)" fill="#f0b990"/><path d="M479.858,489.292c-2.167,1.533-5.486,5.766-6.5,19.185-.144,2.014-.673,9.448-.76,11.147-.28,6.006-.4,12.1-.314,18.1.035,2.044.092,8.273,0,9.361-.14,1.8-.249,3.617-.336,5.417-.467,3.429-.983,6.854-1.524,10.265a18.456,18.456,0,0,0-1.048,3.206,7.1,7.1,0,0,0-.026,3.136c-.074.424-.135.843-.218,1.262-.249,1.406-.511,2.813-.742,4.237a10.919,10.919,0,0,0-.017,5.425c1.057,3.04,6.133,3.73,8.653,2.11,2.525-1.6,2.914-5.587,3.075-8.282.044-.808.035-1.621.009-2.429a3.224,3.224,0,0,1,.245-1.341,8.122,8.122,0,0,0,.974-3.364c.03-.4-.354-5.517-.245-6.906,1.127-4.748,3.123-11.864,4.355-16.7,2.267-8.889,5.5-17.5,8.02-26.327,2.595-9.1,3.425-18.228,3.835-27.506Z" transform="translate(7.674 180.06)" fill="#ffc89f"/><path d="M498.064,565.585c-5.386-9.4.319-52.125,1.162-65.863a23.655,23.655,0,0,1,2.367-9.946H480.483a1.489,1.489,0,0,0-.048.249c-1.656,6.513-4.005,13.1-4.193,19.866-.376,12.9,9.138,48.329,8.915,55.772l-.319,10.091s8.195,3.258,8.977,2.962,12.266,2.747,20.95,1.323C508.356,577,502.69,573.675,498.064,565.585Z" transform="translate(35.293 181.69)" fill="#ffc89f"/><path d="M472.125,494.722c1.966,1.127,4.359,3.106,6.64,3.468a46.756,46.756,0,0,0,7.588.869,10.582,10.582,0,0,0,3.267-.424c.2-.074.367-.131.524-.183.275-3.04.459-6.094.6-9.16H473.3a10.531,10.531,0,0,0-3.328,4.355A21.4,21.4,0,0,1,472.125,494.722Z" transform="translate(14.227 180.06)" fill="#f0b990"/><path d="M483.431,497.385a20.663,20.663,0,0,0,5.613,1.808,30.546,30.546,0,0,0,6.159.022c.655-.066,1.293-.157,1.909-.275a22.634,22.634,0,0,1,2.315-9.164H478.315a1.5,1.5,0,0,0-.048.249c-.437,1.717-.917,3.42-1.393,5.146A25.017,25.017,0,0,1,483.431,497.385Z" transform="translate(37.461 181.69)" fill="#f0b990"/><g transform="translate(517.348 749.301)"><path d="M507.577,518.73c-2.167,3.075-14.511-2.691-15.778-3.792a73.058,73.058,0,0,0-11.178-7.343l-.022.017a.23.23,0,0,0-.122.17c-1.035,3.359-2.922,6.482-2.914,10.125.013,1.656.258,4.325,1.913,5.167,3.005,2.263,12.222.5,13.1.625,1.529,1.2,11.405,3.774,17.2,3.276a5.834,5.834,0,0,0,4.578-2.677C514.789,523.543,515.3,521.18,507.577,518.73Z" transform="translate(-477.564 -507.595)" fill="#17283d"/></g><g transform="translate(575.356 531.904)"><path d="M600.4,566.873c-.065-5.687-.135-11.375-.144-17.062a72.207,72.207,0,0,0-1.027-13.537,88.551,88.551,0,0,0-8.915-24.536c-4.22-8.029-9.151-15.559-13.821-23.321-2.311-3.857-4.8-7.692-6.862-11.689-1.027-1.97-2.158-3.979-3.136-6.041l-7.828,12.672-5.194,97.427,46.953-12.008C600.417,568.144,600.409,567.5,600.4,566.873Z" transform="translate(-279.914 -414.508)" fill="#cc2221"/><g transform="translate(0 0)"><g transform="translate(0 67.23)"><path d="M520.863,494.861h-23.1a3.337,3.337,0,0,1-3.123-2.5l-3.735-16.634a1.967,1.967,0,0,1,2-2.507h27.952a2.573,2.573,0,0,1,2.56,2.564v16.512A2.562,2.562,0,0,1,520.863,494.861Z" transform="translate(-490.844 -473.217)" fill="#fa5555"/><path d="M511.226,487.158a2.334,2.334,0,0,1,0,3.289h0a2.333,2.333,0,0,1-3.289,0l-10.186-10.2a2.315,2.315,0,0,1,0-3.28h0a2.323,2.323,0,0,1,3.28,0Z" transform="translate(-469.876 -462.884)" fill="#ff4140"/><g transform="translate(287.469)"><path d="M561.381,494.861h23.1a3.337,3.337,0,0,0,3.123-2.5l3.73-16.634a1.968,1.968,0,0,0-2-2.507H561.381a2.574,2.574,0,0,0-2.564,2.564v16.512A2.563,2.563,0,0,0,561.381,494.861Z" transform="translate(-549.37 -473.217)" fill="#fa5555"/><path d="M557.339,487.158a2.318,2.318,0,0,0,0,3.289h0a2.318,2.318,0,0,0,3.276,0l10.2-10.2a2.315,2.315,0,0,0,0-3.28h0a2.328,2.328,0,0,0-3.285,0Z" transform="translate(-556.654 -462.884)" fill="#ff4140"/></g></g><g transform="translate(29.294 142.904)"><path d="M548.718,508.743v45.188a18.211,18.211,0,0,1-17.936,18.032H515.748a18.2,18.2,0,0,1-18.2-18.206V508.743a18.2,18.2,0,0,1,18.2-18.2h14.769A18.2,18.2,0,0,1,548.718,508.743Z" transform="translate(-497.55 -490.541)" fill="#26252e"/><g transform="translate(20.216 43.938)"><rect width="2.794" height="37.483" transform="translate(7.934)" fill="#26252e"/><rect width="2.807" height="37.483" fill="#26252e"/></g><g transform="translate(29.762 34.609)"><path d="M525.769,501.294v4.061l-20.224,20.339-1.182,1.194v-4.065l1.182-1.19Z" transform="translate(-504.363 -488.932)" fill="#26252e"/><path d="M525.769,504.12v4.074l-17.933,18.031h-3.472v-.572l1.182-1.177Z" transform="translate(-504.363 -479.413)" fill="#26252e"/><path d="M525.769,498.464v4.082l-20.224,20.331-1.182,1.182V520l1.182-1.185Z" transform="translate(-504.363 -498.464)" fill="#26252e"/></g><g transform="translate(0 34.609)"><path d="M497.55,501.294v4.061l20.215,20.339,1.186,1.194v-4.065l-1.186-1.19Z" transform="translate(-497.55 -488.932)" fill="#26252e"/><path d="M497.55,504.12v4.074l17.933,18.031h3.468v-.572l-1.186-1.177Z" transform="translate(-497.55 -479.413)" fill="#26252e"/><path d="M497.55,498.464v4.082l20.215,20.331,1.186,1.182V520l-1.186-1.185Z" transform="translate(-497.55 -498.464)" fill="#26252e"/></g><g transform="translate(219.778)"><path d="M599.036,508.743v45.188a18.2,18.2,0,0,1-17.927,18.032H566.07a18.2,18.2,0,0,1-18.206-18.206V508.743a18.2,18.2,0,0,1,18.206-18.2h14.764A18.2,18.2,0,0,1,599.036,508.743Z" transform="translate(-547.864 -490.541)" fill="#26252e"/><g transform="translate(20.222 43.938)"><rect width="2.807" height="37.483" transform="translate(7.926)" fill="#26252e"/><rect width="2.807" height="37.483" fill="#26252e"/></g><g transform="translate(29.769 34.609)"><path d="M576.084,501.294v4.061l-20.219,20.339-1.186,1.194v-4.065l1.186-1.19Z" transform="translate(-554.679 -488.932)" fill="#26252e"/><path d="M576.084,504.12v4.074l-17.929,18.031h-3.477v-.572l1.186-1.177Z" transform="translate(-554.679 -479.413)" fill="#26252e"/><path d="M576.084,498.464v4.082l-20.219,20.331-1.186,1.182V520l1.186-1.185Z" transform="translate(-554.679 -498.464)" fill="#26252e"/></g><g transform="translate(0.002 34.609)"><path d="M547.864,501.294v4.061l20.22,20.339,1.186,1.194v-4.065l-1.186-1.19Z" transform="translate(-547.864 -488.932)" fill="#26252e"/><path d="M547.864,504.12v4.074l17.929,18.031h3.477v-.572l-1.186-1.177Z" transform="translate(-547.864 -479.413)" fill="#26252e"/><path d="M547.864,498.464v4.082l20.22,20.331,1.186,1.182V520l-1.186-1.185Z" transform="translate(-547.864 -498.464)" fill="#26252e"/></g></g></g><g transform="translate(24.472 104.96)"><path d="M777.037,506.143v53.549a20.024,20.024,0,0,1-17.8,19.421,1539.839,1539.839,0,0,1-222.285,1.642q-11.355-.734-22.706-1.642a19.778,19.778,0,0,1-13.925-8.05,19.367,19.367,0,0,1-3.879-11.37V506.143a19.744,19.744,0,0,1,5.788-13.6,21.3,21.3,0,0,1,2.04-1.808,19.547,19.547,0,0,1,7.037-3.486,18.717,18.717,0,0,1,2.94-.516,1539.464,1539.464,0,0,1,244.991,0,20.02,20.02,0,0,1,17.8,19.408Z" transform="translate(-496.446 -481.854)" fill="#cc2221"/></g><g transform="translate(19.675 90.101)"><path d="M785.527,503.566V558.95a20.7,20.7,0,0,1-18.4,20.08,1591.673,1591.673,0,0,1-229.877,1.69c-7.832-.5-15.664-1.079-23.479-1.69a20.485,20.485,0,0,1-14.406-8.317,20.123,20.123,0,0,1-4.019-11.763V503.566a21.087,21.087,0,0,1,8.086-15.935,20.128,20.128,0,0,1,7.29-3.595,18.046,18.046,0,0,1,3.049-.542,1593.955,1593.955,0,0,1,253.356,0,20.717,20.717,0,0,1,18.4,20.072Z" transform="translate(-495.348 -478.453)" fill="#ff4140"/></g><path d="M760.86,549.893c-7.456-19.224-13.829-38.833-19.932-58.524-4.818-12.3-16.5-25.029-29.939-27.545a553.93,553.93,0,0,0-163.15.083c-13.415,2.525-25.064,15.262-29.826,27.567-5.967,19.635-12.2,39.213-19.478,58.419A541.719,541.719,0,0,0,760.86,549.893Z" transform="translate(-464.932 -457.826)" fill="#ff4140"/><path d="M499.517,543.187s12.825-37.618,17.726-53.732c4.128-10.523,14.445-22.286,26.3-24.58a549.857,549.857,0,0,1,161.629-.079c11.851,2.267,22.229,14.048,26.414,24.575,5,16.179,18.132,53.828,18.132,53.828Z" transform="translate(-461.631 -454.326)" fill="#26252e"/><path d="M558.436,466.494a5.448,5.448,0,0,1-5.456,5.452H529.689a5.441,5.441,0,0,1-5.447-5.452h0a5.438,5.438,0,0,1,5.447-5.438H552.98a5.445,5.445,0,0,1,5.456,5.438Z" transform="translate(-378.354 -446.946)" fill="#1c1c1f"/><g transform="translate(71.521 40.017)"><path d="M568.925,515.77V480.594a13.614,13.614,0,0,0-13.62-13.607H520.833a13.613,13.613,0,0,0-13.616,13.607V515.77Z" transform="translate(-507.217 -466.987)" fill="#1c1c1f"/><path d="M596.672,515.77V480.594a13.617,13.617,0,0,0-13.62-13.607h-34.46a13.615,13.615,0,0,0-13.624,13.607V515.77Z" transform="translate(-413.748 -466.987)" fill="#1c1c1f"/></g><path d="M777.893,490.053,768.257,478.9H506.379l-10.042,11.151Z" transform="translate(-472.341 -386.837)" fill="#ff4140"/><path d="M.78,0H75.874a.777.777,0,0,1,.777.777V15.636a.778.778,0,0,1-.778.778H.779A.779.779,0,0,1,0,15.635V.78A.78.78,0,0,1,.78,0Z" transform="translate(126.425 187.149)" fill="#26252e"/><path d="M753.574,483.9,724.521,508a17.065,17.065,0,0,1-10.907,4.731H540.724a17.053,17.053,0,0,1-10.916-4.739L500.673,483.9c-2.442-2.625-1.533-4.744,2.053-4.744H751.512C755.1,479.154,756.016,481.273,753.574,483.9Z" transform="translate(-462.35 -385.99)" fill="#fa5555"/><g transform="translate(15.281 121.085)"><path d="M543.754,510.479v5.657a10.828,10.828,0,0,1-10.824,10.829H505.179a10.834,10.834,0,0,1-10.837-10.829V496.375a10.831,10.831,0,0,1,10.837-10.829h9.378a19.043,19.043,0,0,1,10.435,3.748l14.227,11.763A13.918,13.918,0,0,1,543.754,510.479Z" transform="translate(-494.342 -485.546)" fill="#cc2221"/><path d="M502.673,521.236a7.6,7.6,0,0,1-7.588-7.6V493.879a7.6,7.6,0,0,1,7.588-7.592h9.378a15.855,15.855,0,0,1,8.369,3.005l14.231,11.776a10.757,10.757,0,0,1,3.355,6.915v5.657a7.6,7.6,0,0,1-7.583,7.6Z" transform="translate(-491.836 -483.05)" fill="#e0e0e0"/><path d="M551.473,510.479v5.657A10.829,10.829,0,0,0,562.3,526.965h27.755a10.823,10.823,0,0,0,10.824-10.829V496.375a10.82,10.82,0,0,0-10.824-10.829h-9.383a18.991,18.991,0,0,0-10.427,3.748l-14.231,11.763A13.947,13.947,0,0,0,551.473,510.479Z" transform="translate(-301.918 -485.546)" fill="#cc2221"/><path d="M559.806,521.236a7.612,7.612,0,0,1-7.592-7.6v-5.657a10.7,10.7,0,0,1,3.377-6.915l14.223-11.776a15.841,15.841,0,0,1,8.365-3.005h9.383a7.6,7.6,0,0,1,7.587,7.592V513.64a7.6,7.6,0,0,1-7.587,7.6Z" transform="translate(-299.422 -483.05)" fill="#e0e0e0"/></g><rect width="40.141" height="13.467" transform="translate(43.985 174.088)" fill="#cc2221"/><rect width="40.137" height="13.467" transform="translate(245.418 174.088)" fill="#cc2221"/><g transform="translate(39.651 4.539)" opacity="0.3"><g transform="translate(7.688)"><path d="M619.114,458.865c-3.809,0-7.627.035-11.44.131l-103.2,52.99c-.935,2.826-1.878,5.661-2.791,8.4l119.757-61.508C620.664,458.874,619.887,458.865,619.114,458.865Z" transform="translate(-501.681 -458.865)" fill="#242130"/></g><g transform="translate(0 0.079)"><path d="M633.852,458.883,506.237,524.418c-3.495,10.449-6.316,18.709-6.316,18.709h10.091L670.5,460.7C658.27,459.691,646.026,459.079,633.852,458.883Z" transform="translate(-499.921 -458.883)" fill="#242130"/></g><g transform="translate(171.431 49.923)"><path d="M606.148,470.294l-66.981,34.412h16.651l52.8-27.109C607.786,475.173,606.956,472.727,606.148,470.294Z" transform="translate(-539.167 -470.294)" fill="#242130"/></g></g><g transform="translate(89.526 133.171)"><path d="M661.821,519.039A16.435,16.435,0,0,1,648.266,534.6a511.214,511.214,0,0,1-123.365,0,16.448,16.448,0,0,1-13.563-15.559V507.612A16.482,16.482,0,0,1,524.9,492.031a513.469,513.469,0,0,1,123.365,0,16.47,16.47,0,0,1,13.554,15.581Z" transform="translate(-511.339 -488.313)" fill="#ccc"/><path d="M583.159,530.287a511.734,511.734,0,0,1-61.027-3.678,11.9,11.9,0,0,1-9.675-11.139v-11.3a11.9,11.9,0,0,1,9.675-11.134,508.065,508.065,0,0,1,122.045,0,11.9,11.9,0,0,1,9.675,11.134v11.3a11.9,11.9,0,0,1-9.675,11.139A511.6,511.6,0,0,1,583.159,530.287Z" transform="translate(-507.577 -484.809)" fill="#26252e"/></g><g transform="translate(97.332 145.669)"><path d="M648.005,493.957a2.783,2.783,0,0,1-2.787,2.787H515.909a2.777,2.777,0,0,1-2.783-2.787h0a2.776,2.776,0,0,1,2.783-2.783h129.31a2.782,2.782,0,0,1,2.787,2.783Z" transform="translate(-513.126 -491.174)" fill="#1c1c1f"/><path d="M648.005,496.132a2.793,2.793,0,0,1-2.787,2.8H515.909a2.787,2.787,0,0,1-2.783-2.8h0a2.775,2.775,0,0,1,2.783-2.778h129.31a2.781,2.781,0,0,1,2.787,2.778Z" transform="translate(-513.126 -483.831)" fill="#1c1c1f"/><path d="M648.005,498.409a2.791,2.791,0,0,1-2.787,2.8H515.909a2.784,2.784,0,0,1-2.783-2.8h0a2.779,2.779,0,0,1,2.783-2.782h129.31a2.785,2.785,0,0,1,2.787,2.782Z" transform="translate(-513.126 -476.176)" fill="#1c1c1f"/></g><path d="M510.609,494.836a7.373,7.373,0,1,1-7.374-7.365A7.379,7.379,0,0,1,510.609,494.836Z" transform="translate(-473.941 -357.977)" fill="#fff"/><path d="M570.89,494.836a7.376,7.376,0,1,1-7.382-7.365A7.386,7.386,0,0,1,570.89,494.836Z" transform="translate(-270.921 -357.977)" fill="#fff"/><rect width="6.296" height="15.493" transform="translate(159.839 4.537)" fill="#1c1c1f"/><g transform="translate(47.573 165.121)"><rect width="29.059" height="13.526" fill="#e0e0e0"/><rect width="29.076" height="13.526" transform="translate(205.323)" fill="#e0e0e0"/></g><path d="M512.2,504.112a7.321,7.321,0,1,0-7.317,7.33A7.33,7.33,0,0,0,512.2,504.112Z" transform="translate(-468.219 -326.6)" fill="#e0e0e0"/><path d="M570.792,504.112a7.321,7.321,0,1,0-7.321,7.33A7.326,7.326,0,0,0,570.792,504.112Z" transform="translate(-270.884 -326.6)" fill="#e0e0e0"/><path d="M542.325,488.917c0-1.891-3.582-3.411-8-3.411s-8,1.52-8,3.411,3.582,3.407,8,3.407S542.325,490.8,542.325,488.917Z" transform="translate(-371.338 -364.596)" fill="#fff"/></g></g><path d="M511.909,497.821h9.553c-2.664-7.172-1.656-14.24-.559-21.452a66.028,66.028,0,0,0-1.075-19.211c-2.167-9.479-6.81-15.061-15.983-18.289a27.383,27.383,0,0,0-2.922-.821c-1.577,1.651-1.04,5.154,1.712,5.451,9.108,1,12.17,9.942,12.4,18.547a11.622,11.622,0,0,0-2.044-2.022c-1.468-5.648-4.075-10.846-10.029-12.794a12.183,12.183,0,0,0-4.15-.642,11.164,11.164,0,0,0-7.749-1.813A3.462,3.462,0,0,0,489.9,439.5a11.2,11.2,0,0,0-2.1-.791c-.616.214-1.227.4-1.826.651-5.211,2.141-8.23,5.893-10.444,10.256a51.11,51.11,0,0,0-1.725,6.19c-3.748,17.481,3.709,35.618-1.708,52.706-1.634,5.137,5.879,8.806,7.78,3.547.219-.611.419-1.227.629-1.843a9.282,9.282,0,0,0,1.6,1.852c.048.441.079.887.135,1.319.4,2.7,2.97,5.32,5.9,4.73,7.946-1.568,16.11-1.673,23.771-3.944Z" transform="translate(20.584 7.464)" fill="#b05223"/><path d="M500.117,462.242l2.5-15.315-16.337-.834-.362,16.324.022.048a7.8,7.8,0,0,1-1.393-1.9,44.77,44.77,0,0,1-5.491,2.455,4.792,4.792,0,0,1-.183.856,11.227,11.227,0,0,1-3.761,4.718c1.171-.865-.6.489-.891.721-.738.625-1.441,1.28-2.184,1.891l.009.009c.341-.262.266-.175.044.026.651.607,1.341,1.166,2.005,1.743.109.1.594.485.83.677.437.293.891.568,1.354.852.214.114.424.232.629.332-.2-.114.708.245,1,.319.2.044.743.144.987.183.345.009.69.018,1.035.009.721,0,1.433-.061,2.14-.122.083-.009,1.891-.262,1.3-.157,1.909-.314,3.8-.638,5.727-.913a27.989,27.989,0,0,1,9.531.424c.992.188,2.022.411,3.058.686a14.572,14.572,0,0,1,4.674-3.11,2.916,2.916,0,0,1-.061-.441c0-.065-.009-.114-.009-.17a3.18,3.18,0,0,1,1.516-2.778c1.372-.93,12.462.083,12.283-.485C515.738,467.235,502.07,463.295,500.117,462.242Z" transform="translate(21.176 34.56)" fill="#d4a47d"/><path d="M496.668,465.557c.437-.131.865-.275,1.293-.415a81.764,81.764,0,0,1-8.679-2.9l2.5-15.315-16.337-.834-.192,8.391C480.681,461.211,488.544,468.266,496.668,465.557Z" transform="translate(32.011 34.56)" fill="#a88f7b" opacity="0.3"/><path d="M546.478,623.041c-1.184,7-38.929,6.439-50.985,4-7.7-1.564-15.782-1.323-22.867-5.141-2.979-1.6-3.94-3.665-3.87-5.919,0-.039.384-2.306.463-2.6.061-.184.55-1.542.625-1.7,0,0,1.966-4.141,2.2-4.6,5.107-10.357,5.465-21.522,6.819-32.709.524-4.324,1.022-9.418,2.782-13.755.494-2.306,1.048-4.6,1.721-6.858a60.075,60.075,0,0,1,3.337-15.236c0-.166.009-.332.013-.494a.522.522,0,0,1,.3-.463c1.306-3.8,2.721-7.43,3.888-10.61,2.35-6.408,4.823-12.51,5.718-19.294-.9-8.653-1.817-18.018-1.808-20.159l-6.889,20.853-21.308-6.382s12.148-37.077,17.354-43.48c1.044-1.28,18.883-8.9,18.94-8.994.288,1.529,1.5,3.311,2.2,4.718a16.357,16.357,0,0,0,8.4,8.125c3.512,1.389,7.771.69,10.016-2.5.336-.489,1.468-3.027,2.337-4.8a4.666,4.666,0,0,1,.939-1.433c6.028,1.38,10.3,1.8,11.554,2.9,2.831,2.5,4.215,8.557,4.106,12.191-.2,6.552-4.355,33.7-4.862,40.3-.035.467,8.483,75.949,8.382,77.486C545.915,587.711,548.6,610.377,546.478,623.041Z" transform="translate(2.91 46.018)" fill="#17283d"/><path d="M485.28,484.321c-2.114-1.765-3.176-4.586-3.879-7.05a146.921,146.921,0,0,0-8.024-18.848c.162,3.254.983,11.492,1.782,19.163a53.666,53.666,0,0,1-2.171,9.344A20.364,20.364,0,0,1,485.28,484.321Z" transform="translate(24.372 76.089)" fill="#15202e"/><path d="M544.108,583.312c.1-1.537-8.417-77.019-8.382-77.486.507-6.591,4.661-33.744,4.862-40.3.109-3.634-1.275-9.693-4.106-12.191-1.254-1.109-5.526-1.524-11.554-2.9a4.667,4.667,0,0,0-.939,1.433c-.192.4-.4.856-.62,1.311,4,1.817,7.583,5.63,10.051,9.046,5.643,7.753,3.529,15.861-.345,22.915-4.237,8.461-16.223,7.758-24.68,11.278-.349,0-.708,1.765-.349,1.765,6.342.354,12.336-5.285,18.682-3.525,5.993,1.411,4.224,10.221,3.879,15.52-2.472,29.249.7,57.449,4.233,86.716,1.053,7.758-.716,15.865-7.4,19.395-12.7,7.054-27.864,2.109-41.956,2.109-6.316,0-12.161-2.808-18.307-3.464a6.864,6.864,0,0,0,3.582,3.8c7.085,3.818,15.166,3.578,22.867,5.141,12.056,2.437,49.8,3,50.985-4C546.724,607.215,544.042,584.548,544.108,583.312Z" transform="translate(4.783 49.181)" fill="#15202e"/><path d="M475.127,459.835c-.057-.729-.782-20.508,14.494-20.936,18.084-.5,15,20.465,15,20.5-.21,2.616-1.123,10.409-2.053,13.266-1.28,3.966-4.154,10.9-7.565,11.562-4.866.939-15.2-6.963-15.961-7.387C474.677,474.39,474.93,459.971,475.127,459.835Z" transform="translate(31.279 10.299)" fill="#ffc89f"/><path d="M488.205,438.9c-7.286.214-10.925,4.809-12.746,9.658a31.018,31.018,0,0,1,19.827,5.666c8.815,6.347,5.639,20.089-2.11,26.785-3.237,2.586-7.068-.459-11.217-1.258,3.63,2.311,8.658,5.058,11.628,4.477,3.411-.664,6.286-7.6,7.565-11.562.93-2.857,1.843-10.65,2.053-13.266C503.205,459.363,506.289,438.4,488.205,438.9Z" transform="translate(32.695 10.299)" fill="#f0b990"/><path d="M473.689,444.041c.149.546.367,1.542.467,1.839A10.82,10.82,0,0,1,473.689,444.041Z" transform="translate(26.733 27.649)" fill="#2b1e16"/><g transform="translate(502.098 470.079)"><path d="M480.984,447.236c1.712,2.752,1.865,5.757.341,6.705s-4.15-.524-5.862-3.276-1.861-5.761-.336-6.705S479.276,444.488,480.984,447.236Z" transform="translate(-474.073 -443.672)" fill="#ffc89f"/></g><path d="M522.654,460.933l-.022-.044h.017c-.162-1.035-.367-2.075-.6-3.115-.153-.633-.31-1.249-.476-1.865-.917-1.258-1.83-2.538-2.73-3.8a8.071,8.071,0,0,0,.087-1.9,6.249,6.249,0,0,0-.07-.856c-2.7-4.591-6.762-7.745-12.794-9.872a32.884,32.884,0,0,0-9.474-1.621,30.848,30.848,0,0,0-8.4,2.11,18.277,18.277,0,0,0-6.482,4.443,29.135,29.135,0,0,0-1.066,3.267c-3.866,4.674-5.5,9.951-6.469,15.717a27.721,27.721,0,0,0-1.184,6.3,54.1,54.1,0,0,0-1.411,7.4c-.162,1.817-.288,3.639-.345,5.473-.21,7.3.542,14.611,3.246,21.452,2.459,6.2,6.316,12.222,12.93,14.476a9.2,9.2,0,0,0,5.753.127c2.088-1.773,3.28-5.01,3.87-7.352,1.171-4.613.59-9.37-.485-13.943-.756-3.259-1.87-6.622-2.817-10.016-.192-2.018-.428-4.071-.594-6.142.057-2.8.148-5.617.118-8.43a21.551,21.551,0,0,1,.773-3.329c1.494-4.661,5.451-7.618,8.584-11.108,1.638-1.835,2.935-3.944,4.665-5.7.236-.227.5-.432.738-.647a52.114,52.114,0,0,1,5.521,5.36l.044.048a26.689,26.689,0,0,1,4.176,9.326,34.187,34.187,0,0,1,.192,12.921,36.652,36.652,0,0,1-1.594,6.268c-.638,1.856-1.926,3.495-1.97,5.5a.57.57,0,0,0,1.083.3c4.062-8.295,5.849-17.739,3.809-26.868a21.38,21.38,0,0,0-1.236-3.77,7.76,7.76,0,0,0,4.3.76.482.482,0,0,0,.393-.306C522.706,461.3,522.684,461.112,522.654,460.933Z" transform="translate(18.361 6.847)" fill="#b05223"/><path d="M481.363,509.061c-.354.581-.874,5.089-1.088,6.22-.4,2.088-3.7,4.954-4.032,4.919a3.215,3.215,0,0,1-4.215-.8c-.922-1.118-1.752-9.911-1.516-11.746-2.717,3.1-5.176,22.055,1.07,22.823C485.163,532.173,481.695,508.537,481.363,509.061Z" transform="translate(6.448 241.922)" fill="#17283d"/><path d="M473.329,465.129a11.167,11.167,0,0,1,5.412,1.516,7.833,7.833,0,0,1,3.556,5.364c1.127,6.277.384,12.895-1.677,23.374l-2.324-.153S483.537,468.462,473.329,465.129Z" transform="translate(25.521 98.675)" fill="#2278ba"/><g transform="translate(465.752 561.465)"><path d="M488.05,469.709c-.157-.384-.3-.738-.446-1.1a3.22,3.22,0,0,1-.629-.686c-.4-.559-.821-.6-1.428-.83-.45-.166-.891-.349-1.328-.542a7.969,7.969,0,0,0-3.377-.646,5.733,5.733,0,0,0-2.123.293,16,16,0,0,0-.24,1.953h.026a13.266,13.266,0,0,1,2.04.1,6.123,6.123,0,0,1,2.97.677.567.567,0,0,1,.044.9.527.527,0,0,1,.074.175h.018c1.4.14,1.594,1.485,2.411,2.651.411.585,1.053.935,1.345.026a2.426,2.426,0,0,0,.682.437c.651.218,1.1-.389.983-.983A14.047,14.047,0,0,0,488.05,469.709Z" transform="translate(-422.882 -460.184)" fill="#d4a47d"/><path d="M532.445,473.489A19.6,19.6,0,0,0,530.483,470a55.317,55.317,0,0,0-6.714-3.9l-13.122,2.018s-22.6-3.42-32.25-3.525a29.18,29.18,0,0,0-11.711,2.009c-.992,2.966-1.555,6.557.2,9.138,3.3,4.844,32.141,3.062,43.467-1.773,3.075.756,6.692,2.32,10.016,1.346,1.267-.4,2.63-1.149,3.909-.944.695.109,2.6.524,2.8-.472.28-1.441-1.725-1.756-2.346-1.808a17.54,17.54,0,0,0-2.682-.227,17.78,17.78,0,0,1,1.839-.341,9.314,9.314,0,0,1,5.539.852c.992.629,1.577,2.4,2.311,3.35.227.315.979.847,1.394.459C533.886,475.49,532.72,474.014,532.445,473.489Z" transform="translate(-465.752 -464.594)" fill="#ffc89f"/></g><path d="M485.49,465.349a11.149,11.149,0,0,0-5.622-.253,7.9,7.9,0,0,0-5.037,4.006c-3.027,5.626-4.355,12.143-5.648,22.745l2.263.581S474.74,465.349,485.49,465.349Z" transform="translate(11.56 97.718)" fill="#62b2f0"/><g transform="translate(473.344 585.117)"><path d="M495.59,498.065,472.771,494.6a6.026,6.026,0,0,1-5.01-7.836l4.643-16.014,30.634,4.665-.336,16.677A6.007,6.007,0,0,1,495.59,498.065Z" transform="translate(-467.49 -467.519)" fill="#2278ba"/><path d="M500.21,471.737l-.306,14.747a6.014,6.014,0,0,1-7.107,5.989L469.978,489a6.517,6.517,0,0,1-2.32-.8,6.141,6.141,0,0,0,4.543,3.066l22.819,3.468a6.007,6.007,0,0,0,7.111-5.976l.336-16.677Z" transform="translate(-466.921 -464.185)" fill="#2278ba"/><path d="M495.69,489l-5.53.406a35.89,35.89,0,0,1-13.559-2.158l-4.11-1.677a7.091,7.091,0,0,1-3.971-9.121l2.542-6.439,30.625,4.661s.24,3.1.524,6.91A6.973,6.973,0,0,1,495.69,489Z" transform="translate(-465.655 -470.008)" fill="#62b2f0"/></g><path d="M476.479,476.3a2.835,2.835,0,1,0-2.835,2.844A2.833,2.833,0,0,0,476.479,476.3Z" transform="translate(17.033 126.773)" fill="#fff"/><g transform="translate(505.126 689.31)"><path d="M488.549,505.943a4.737,4.737,0,0,1,4.538-4.578H517.61a4.735,4.735,0,0,1,4.539,4.578l.131,6h6.81v-6c-.175-6.705-5.25-12.082-11.479-12.082H493.087c-6.233,0-11.3,5.377-11.475,12.082v6h6.57Z" transform="translate(-451.707 -493.861)" fill="#15202e"/><path d="M490.748,496.134a5.1,5.1,0,0,1,.629,2.154l.131,6h6.81v-6a12.958,12.958,0,0,0-.227-2.154Z" transform="translate(-420.936 -486.205)" fill="#15202e"/><path d="M481.835,496.134a13.008,13.008,0,0,0-.223,2.154v6h6.57l.367-6a5.233,5.233,0,0,1,.629-2.154Z" transform="translate(-451.707 -486.205)" fill="#15202e"/><path d="M4.179,0h98.935a4.179,4.179,0,0,1,4.179,4.179V76.794a4.179,4.179,0,0,1-4.179,4.179H4.181A4.181,4.181,0,0,1,0,76.792V4.179A4.179,4.179,0,0,1,4.179,0Z" transform="translate(0 15.385)" fill="#17283d"/><path d="M561.507,575.484h-2.494a.247.247,0,0,1,0-.494h2.494a.247.247,0,0,1,0,.494Zm-4.979,0h-2.486a.247.247,0,1,1,0-.494h2.486a.247.247,0,1,1,0,.494Zm-4.98,0h-2.485a.247.247,0,1,1,0-.494h2.485a.247.247,0,1,1,0,.494Zm-4.975,0h-2.481a.247.247,0,1,1,0-.494h2.481a.247.247,0,1,1,0,.494Zm-4.975,0h-2.486a.247.247,0,1,1,0-.494H541.6a.247.247,0,1,1,0,.494Zm-4.971,0h-2.485a.247.247,0,1,1,0-.494h2.485a.247.247,0,0,1,0,.494Zm-4.98,0h-2.49a.247.247,0,1,1,0-.494h2.49a.247.247,0,1,1,0,.494Zm-4.98,0h-2.49a.247.247,0,0,1,0-.494h2.49a.247.247,0,1,1,0,.494Zm-4.967,0h-2.49a.247.247,0,1,1,0-.494h2.49a.247.247,0,1,1,0,.494Zm-4.984,0h-2.486a.247.247,0,0,1,0-.494h2.486a.247.247,0,1,1,0,.494Zm-4.967,0h-2.494a.247.247,0,0,1,0-.494h2.494a.247.247,0,1,1,0,.494Zm-4.984,0h-2.477a.247.247,0,1,1,0-.494h2.477a.247.247,0,1,1,0,.494Zm-4.975,0h-2.477a.247.247,0,1,1,0-.494h2.477a.247.247,0,1,1,0,.494Zm-4.971,0h-2.49a.247.247,0,1,1,0-.494h2.49a.247.247,0,0,1,0,.494Zm-4.984,0h-.061a16.545,16.545,0,0,1-2.512-.188.25.25,0,0,1-.214-.284.24.24,0,0,1,.28-.205,19.226,19.226,0,0,0,2.446.183h.061a.247.247,0,1,1,0,.494Zm72.153-.061a.237.237,0,0,1-.245-.223.269.269,0,0,1,.227-.288,14.286,14.286,0,0,0,2.416-.389.256.256,0,0,1,.3.183.251.251,0,0,1-.183.306,16.568,16.568,0,0,1-2.486.411Zm-77.115-.686a.229.229,0,0,1-.074-.018,15.183,15.183,0,0,1-2.341-.93.25.25,0,0,1-.114-.336.259.259,0,0,1,.337-.114,16,16,0,0,0,2.263.909.257.257,0,0,1,.17.314A.252.252,0,0,1,486.873,574.737Zm81.933-.489a.255.255,0,0,1-.1-.485,17.314,17.314,0,0,0,2.188-1.088.24.24,0,0,1,.345.078.25.25,0,0,1-.087.341,16.155,16.155,0,0,1-2.249,1.127A.33.33,0,0,1,568.806,574.248Zm-86.384-1.7a.2.2,0,0,1-.14-.048,15.7,15.7,0,0,1-1.957-1.581.253.253,0,1,1,.349-.367,16.035,16.035,0,0,0,1.9,1.542.251.251,0,0,1-.149.454Zm90.621-.865a.262.262,0,0,1-.2-.092.255.255,0,0,1,.035-.354,16.071,16.071,0,0,0,1.747-1.7.246.246,0,0,1,.354-.018.236.236,0,0,1,.022.349,17.449,17.449,0,0,1-1.8,1.743A.244.244,0,0,1,573.043,571.683Zm-94.207-2.547a.3.3,0,0,1-.21-.092,18.269,18.269,0,0,1-1.389-2.11.252.252,0,0,1,.1-.341.259.259,0,0,1,.336.1,15.908,15.908,0,0,0,1.358,2.04.262.262,0,0,1-.044.349A.231.231,0,0,1,478.836,569.137Zm97.488-1.166a.286.286,0,0,1-.135-.039.25.25,0,0,1-.07-.345,15.6,15.6,0,0,0,1.171-2.162.243.243,0,0,1,.323-.109.246.246,0,0,1,.127.328,17.006,17.006,0,0,1-1.206,2.215A.247.247,0,0,1,576.324,567.97Zm-99.908-3.154a.262.262,0,0,1-.24-.166,17.928,17.928,0,0,1-.694-2.416.254.254,0,0,1,.2-.3.243.243,0,0,1,.293.188,17.424,17.424,0,0,0,.677,2.35.246.246,0,0,1-.144.323A.314.314,0,0,1,476.416,564.817Zm101.935-1.381h-.07a.255.255,0,0,1-.17-.31,13.94,13.94,0,0,0,.463-2.4.26.26,0,0,1,.284-.218.252.252,0,0,1,.218.28,16.308,16.308,0,0,1-.48,2.468A.243.243,0,0,1,578.35,563.436Zm-102.939-3.473a.249.249,0,0,1-.253-.245c-.013-.28-.022-.581-.022-.869v-1.629a.251.251,0,0,1,.254-.24.257.257,0,0,1,.253.24v1.629c0,.284,0,.568.017.843a.258.258,0,0,1-.236.271Zm103.52-1.446a.249.249,0,0,1-.245-.24v-2.485a.25.25,0,0,1,.245-.258.257.257,0,0,1,.262.258v2.485A.256.256,0,0,1,578.932,558.518Zm-103.542-3.525a.252.252,0,0,1-.254-.245v-2.5a.253.253,0,0,1,.254-.249.259.259,0,0,1,.253.249v2.5A.258.258,0,0,1,475.389,554.993Zm103.542-1.446a.254.254,0,0,1-.245-.249v-2.49a.249.249,0,0,1,.245-.253.255.255,0,0,1,.262.253v2.49A.26.26,0,0,1,578.932,553.547Zm-103.542-3.538a.248.248,0,0,1-.254-.253V547.27a.255.255,0,0,1,.254-.249.262.262,0,0,1,.253.249v2.485A.254.254,0,0,1,475.389,550.009Zm103.542-1.428a.26.26,0,0,1-.245-.262v-2.49a.246.246,0,0,1,.245-.24.253.253,0,0,1,.262.24v2.49A.266.266,0,0,1,578.932,548.581Zm-103.542-3.552a.248.248,0,0,1-.254-.24v-2.494a.249.249,0,0,1,.254-.245.255.255,0,0,1,.253.245v2.494A.254.254,0,0,1,475.389,545.029ZM578.932,543.6a.258.258,0,0,1-.245-.253v-2.49a.244.244,0,0,1,.245-.245.251.251,0,0,1,.262.245v2.49A.264.264,0,0,1,578.932,543.6Zm-103.542-3.543a.252.252,0,0,1-.254-.245v-2.485a.258.258,0,0,1,.254-.262.264.264,0,0,1,.253.262v2.485A.258.258,0,0,1,475.389,540.058Zm103.542-1.433a.253.253,0,0,1-.245-.258v-2.481a.245.245,0,0,1,.245-.249.252.252,0,0,1,.262.249v2.481A.259.259,0,0,1,578.932,538.625Zm-103.542-3.547a.249.249,0,0,1-.254-.245v-2.485a.254.254,0,0,1,.254-.258.26.26,0,0,1,.253.258v2.485A.255.255,0,0,1,475.389,535.079Zm103.542-1.428a.253.253,0,0,1-.245-.266v-2.477a.248.248,0,0,1,.245-.249.255.255,0,0,1,.262.249v2.477A.258.258,0,0,1,578.932,533.65ZM475.389,530.1a.246.246,0,0,1-.254-.245v-2.49a.255.255,0,0,1,.254-.249.262.262,0,0,1,.253.249v2.49A.252.252,0,0,1,475.389,530.1Zm103.542-1.433a.244.244,0,0,1-.245-.245v-2.5a.247.247,0,0,1,.245-.245.254.254,0,0,1,.262.245v2.5A.251.251,0,0,1,578.932,528.671Zm-103.542-3.538a.25.25,0,0,1-.254-.249V522.4a.252.252,0,0,1,.254-.245.258.258,0,0,1,.253.245v2.485A.256.256,0,0,1,475.389,525.132Zm103.542-1.442a.251.251,0,0,1-.245-.249v-2.485a.241.241,0,0,1,.245-.245.248.248,0,0,1,.262.245v2.485A.258.258,0,0,1,578.932,523.691Zm-103.542-3.529a.254.254,0,0,1-.254-.258v-2.481a.25.25,0,0,1,.254-.249.256.256,0,0,1,.253.249V519.9A.26.26,0,0,1,475.389,520.161Zm103.542-1.441a.251.251,0,0,1-.245-.249v-2.49a.252.252,0,0,1,.245-.253.258.258,0,0,1,.262.253v2.49A.258.258,0,0,1,578.932,518.72Zm-103.542-3.534a.255.255,0,0,1-.254-.258v-.537a16.6,16.6,0,0,1,.114-1.975.26.26,0,0,1,.288-.218.25.25,0,0,1,.214.271,16.684,16.684,0,0,0-.109,1.922v.537A.26.26,0,0,1,475.389,515.186Zm103.525-1.442a.254.254,0,0,1-.253-.24,14.985,14.985,0,0,0-.314-2.42.252.252,0,0,1,.2-.3.244.244,0,0,1,.288.192,15.972,15.972,0,0,1,.323,2.494.246.246,0,0,1-.236.271Zm-102.935-3.49-.066,0a.261.261,0,0,1-.179-.315,16.588,16.588,0,0,1,.869-2.367.251.251,0,0,1,.454.214,14.607,14.607,0,0,0-.83,2.3A.264.264,0,0,1,475.979,510.255Zm101.908-1.363a.228.228,0,0,1-.218-.162,16.165,16.165,0,0,0-1.035-2.21.24.24,0,0,1,.1-.336.223.223,0,0,1,.332.092,15.732,15.732,0,0,1,1.07,2.284.243.243,0,0,1-.149.315A.173.173,0,0,1,577.887,508.892Zm-99.868-3.154a.279.279,0,0,1-.135-.03.265.265,0,0,1-.079-.354,17.408,17.408,0,0,1,1.542-2.009.235.235,0,0,1,.345-.017.253.253,0,0,1,.022.349,15.777,15.777,0,0,0-1.485,1.957A.229.229,0,0,1,478.019,505.738Zm97.457-1.162a.241.241,0,0,1-.2-.1,16.562,16.562,0,0,0-1.647-1.817.247.247,0,0,1-.013-.345.264.264,0,0,1,.363-.018,19.1,19.1,0,0,1,1.7,1.869.263.263,0,0,1-.044.349A.3.3,0,0,1,575.476,504.576Zm-94.164-2.538a.229.229,0,0,1-.2-.1.241.241,0,0,1,.035-.345,17.493,17.493,0,0,1,2.057-1.472.267.267,0,0,1,.345.1.25.25,0,0,1-.087.341,16.669,16.669,0,0,0-1.992,1.411A.227.227,0,0,1,481.312,502.038Zm90.56-.869a.22.22,0,0,1-.144-.048,17.883,17.883,0,0,0-2.11-1.236.249.249,0,0,1-.118-.332.252.252,0,0,1,.336-.113,15.438,15.438,0,0,1,2.18,1.28.248.248,0,0,1,.061.341A.264.264,0,0,1,571.873,501.169Zm-86.31-1.686a.284.284,0,0,1-.249-.153.262.262,0,0,1,.149-.332,16.175,16.175,0,0,1,2.4-.773.229.229,0,0,1,.293.188.245.245,0,0,1-.179.3,16.336,16.336,0,0,0-2.333.756A.129.129,0,0,1,485.563,499.483Zm81.863-.5-.079-.009a17.314,17.314,0,0,0-2.385-.546.231.231,0,0,1-.21-.275.236.236,0,0,1,.275-.218,15.476,15.476,0,0,1,2.464.568.254.254,0,0,1,.166.319A.223.223,0,0,1,567.426,498.985Zm-77.058-.668a.266.266,0,0,1-.253-.227.251.251,0,0,1,.236-.266,12.85,12.85,0,0,1,1.424-.07h1.088a.248.248,0,0,1,.24.253.237.237,0,0,1-.24.24h-1.088c-.467,0-.926.026-1.389.07Zm72.148-.07h-2.485a.239.239,0,0,1-.249-.24.25.25,0,0,1,.249-.253h2.485a.246.246,0,0,1,.245.253A.235.235,0,0,1,562.516,498.247Zm-4.971,0H555.06a.253.253,0,0,1-.262-.24.264.264,0,0,1,.262-.253h2.485a.255.255,0,0,1,.245.253A.243.243,0,0,1,557.545,498.247Zm-4.975,0h-2.494a.244.244,0,0,1-.249-.24.256.256,0,0,1,.249-.253h2.494a.252.252,0,0,1,.245.253A.241.241,0,0,1,552.57,498.247Zm-4.975,0H545.1a.245.245,0,0,1-.254-.24.256.256,0,0,1,.254-.253h2.494a.255.255,0,0,1,.244.253A.243.243,0,0,1,547.595,498.247Zm-4.975,0h-2.494a.241.241,0,0,1-.245-.24.252.252,0,0,1,.245-.253h2.494a.259.259,0,0,1,.249.253A.247.247,0,0,1,542.619,498.247Zm-4.979,0h-2.49a.241.241,0,0,1-.245-.24.252.252,0,0,1,.245-.253h2.49a.253.253,0,0,1,.249.253A.242.242,0,0,1,537.64,498.247Zm-4.975,0h-2.481a.24.24,0,0,1-.253-.24.251.251,0,0,1,.253-.253h2.481a.253.253,0,0,1,.249.253A.242.242,0,0,1,532.664,498.247Zm-4.975,0H525.2a.244.244,0,0,1-.249-.24.256.256,0,0,1,.249-.253h2.49a.256.256,0,0,1,.249.253A.244.244,0,0,1,527.689,498.247Zm-4.98,0h-2.481a.243.243,0,0,1-.253-.24.254.254,0,0,1,.253-.253h2.481a.256.256,0,0,1,.253.253A.245.245,0,0,1,522.709,498.247Zm-4.975,0h-2.481a.245.245,0,0,1-.254-.24.256.256,0,0,1,.254-.253h2.481a.259.259,0,0,1,.253.253A.248.248,0,0,1,517.734,498.247Zm-4.975,0h-2.486a.248.248,0,0,1-.253-.24.259.259,0,0,1,.253-.253h2.486a.255.255,0,0,1,.245.253A.243.243,0,0,1,512.759,498.247Zm-4.971,0h-2.494a.242.242,0,0,1-.249-.24.253.253,0,0,1,.249-.253h2.494a.248.248,0,0,1,.24.253A.237.237,0,0,1,507.788,498.247Zm-4.984,0h-2.481a.243.243,0,0,1-.253-.24.254.254,0,0,1,.253-.253H502.8a.254.254,0,0,1,.253.253A.243.243,0,0,1,502.8,498.247Zm-4.966,0h-2.5a.243.243,0,0,1-.245-.24.255.255,0,0,1,.245-.253h2.5a.259.259,0,0,1,.249.253A.247.247,0,0,1,497.837,498.247Z" transform="translate(-473.519 -480.752)" fill="#e0e0e0"/><path d="M3.325,0H96.483a3.323,3.323,0,0,1,3.323,3.323V70.176A3.323,3.323,0,0,1,96.483,73.5H3.322A3.322,3.322,0,0,1,0,70.177V3.325A3.325,3.325,0,0,1,3.325,0Z" transform="translate(3.737 19.122)" fill="#17283d"/><path d="M495.65,498.283v73.1a14.547,14.547,0,0,0,12.318-14.323V512.606A14.54,14.54,0,0,0,495.65,498.283Z" transform="translate(-404.425 -478.967)" fill="#15202e"/><path d="M487.07,498.317a14.558,14.558,0,0,0-11.449,14.175V556.95a14.579,14.579,0,0,0,11.449,14.183Z" transform="translate(-471.886 -478.853)" fill="#15202e"/><rect width="4.091" height="73.499" transform="translate(20.232 19.122)" fill="#15202e"/><rect width="4.078" height="73.499" transform="translate(82.145 19.122)" fill="#15202e"/><g transform="translate(27.358 32.538)"><path d="M490.98,501.31a9.942,9.942,0,1,0,9.942,9.946A9.948,9.948,0,0,0,490.98,501.31Z" transform="translate(-481.029 -501.31)" fill="#17283d"/><path d="M490.494,501.454a9.313,9.313,0,1,0,9.317,9.317A9.315,9.315,0,0,0,490.494,501.454Z" transform="translate(-480.544 -500.825)" fill="#85b53c"/><path d="M495.038,512.793l-5.063-3.438a25.889,25.889,0,0,1-1.45,3.468l1.581,1.948-.175.533-2.167-1.468-.389.708-.564-.179.114-.817-2.612-.122.179-.537,2.411-.6a27.489,27.489,0,0,1,.926-3.652l-6.1-.306.476-1.437,3.621-.917h0l.214-.638a.363.363,0,1,1,.69.227l-.066.21,2.486-.629c.764-1.756,1.586-3.215,2.053-3.062s.258,1.83-.183,3.691l1.612,2,.066-.21a.343.343,0,0,1,.467-.223.359.359,0,0,1,.227.45l-.214.651h0l2.337,2.913Z" transform="translate(-478.675 -498.745)" fill="#fff"/></g><g transform="translate(57.463 24.735)"><rect width="14.703" height="14.542" transform="matrix(0.524, -0.852, 0.852, 0.524, 0, 12.526)" fill="#ff4140"/><rect width="14.048" height="13.867" transform="translate(0.463 12.424) rotate(-58.425)" fill="#ff4140"/><path d="M498.754,507.193a2.113,2.113,0,0,0-.821-.279l.035-5.159a.238.238,0,0,0-.127-.21l-.044-.013-.943-.472-.022-.009a2.173,2.173,0,0,0-.376-.114c-.157-.009-.642-.039-.769.293-.166.428.55,1.048.856,1.3l.017.018a.192.192,0,0,0,.271-.048.2.2,0,0,0-.026-.288,2.263,2.263,0,0,1-.729-.826.77.77,0,0,1,.354-.017,2,2,0,0,1,.249.07l.882.437-.013,2.621-3.464-1.511.009-.664c.4.21.747.262.83.127.1-.17-.214-.559-.708-.856s-.992-.419-1.092-.262.17.493.6.773a.334.334,0,0,0-.053.118l0,.778-1.276.576a2.181,2.181,0,0,0-.681-.7,1.97,1.97,0,1,0,.454,2.966l1.31.887a.528.528,0,0,0,.2.21.413.413,0,0,0,.564-.079.218.218,0,0,0,.039-.153l3.259-1.568-.009,1.782a2.006,2.006,0,0,0-1.49.931,1.974,1.974,0,1,0,2.717-.651Zm-9.4-3.459a1.671,1.671,0,0,1,.52-.516l0,.039.633,1.184-.018.022,0,.013-.009.017-.018.035-1.35-.035A1.6,1.6,0,0,1,489.358,503.733Zm.472,2.114a1.57,1.57,0,0,1-.7-1.245l1.332.031.009.013.009.035.009.009.009.022,0,.013Zm.93-1.533-.153.079-.642-1.184-.03-.022a1.526,1.526,0,0,1,1.516.013Zm1.415-.192a1.463,1.463,0,0,1,.057.481.063.063,0,0,0-.044-.026l-.944-.022Zm-.638-.869a1.541,1.541,0,0,1,.476.5l-1.088.48Zm-1.625,2.647.677-1.11.192.131.564,1.035A1.582,1.582,0,0,1,489.912,505.9Zm1.529.009-.481-.865.847.563A1.606,1.606,0,0,1,491.441,505.909Zm-.315-1.262,1.061.035c.022,0,.031-.018.039-.026a1.549,1.549,0,0,1-.17.616Zm2.451,1.638-1.18-.777a1.964,1.964,0,0,0,.157-1.551l1.105-.5-.048,2.826Zm.494.057-.022-.017h-.018l.074-2.879,3.145,1.376Zm3.451.992,0,1.136-.5-.935-.035-.026A1.221,1.221,0,0,1,497.522,507.333Zm-1.123.729a1.458,1.458,0,0,1,.515-.516l0,.039.594,1.1v.166l-1.341-.044A1.435,1.435,0,0,1,496.4,508.062Zm.467,2.114a1.544,1.544,0,0,1-.695-1.267l1.363.048.035.057Zm1.066-1.743v-1.1a1.536,1.536,0,0,1,.559.188Zm.642-.856a1.541,1.541,0,0,1,.695,1.332l-.035-.013-1.306-.035v-.223Zm-1.625,2.651.721-1.158.052.009h.009l.647,1.2A1.587,1.587,0,0,1,496.949,510.229Zm1.52.009-.647-1.188a.238.238,0,0,0,.083-.078l1.328.035.031-.013a1.452,1.452,0,0,1-.214.694A1.627,1.627,0,0,1,498.47,510.237Z" transform="translate(-485.26 -494.777)" fill="#fff"/></g></g></g></g></svg>