<svg width="213" height="213" viewBox="0 0 213 213" fill="none" xmlns="http://www.w3.org/2000/svg">
<rect width="213" height="213" rx="106.5" fill="white"/>
<g clip-path="url(#clip0_4_109576)">
<path d="M178.475 77.4367H105.927C89.7133 77.4208 76.5563 90.5518 76.54 106.766C76.5352 111.802 77.8257 116.755 80.2878 121.148L44.0143 58.9083C70.4345 24.7137 119.573 18.4115 153.767 44.8317C164.749 53.3165 173.276 64.5696 178.475 77.4367Z" fill="#F44336"/>
<path d="M184.216 106.795C184.18 150.017 149.15 185.047 105.927 185.083C102.654 185.095 99.3837 184.877 96.1412 184.431L131.371 121.474C139.445 107.417 134.632 89.478 120.606 81.351C116.166 78.78 111.124 77.4292 105.992 77.4366H178.474C182.284 86.7547 184.235 96.7279 184.216 106.795Z" fill="#FFC107"/>
<path d="M131.371 121.474L96.1411 184.431H96.076C53.2046 179.015 22.8415 139.869 28.2581 96.9978C30.0113 83.1215 35.4521 69.9688 44.0143 58.9087L80.2877 121.148L80.4835 121.474C88.5725 135.526 106.521 140.36 120.574 132.272C125.062 129.688 128.787 125.963 131.371 121.474Z" fill="#4CAF50"/>
<path d="M131.371 121.474C123.282 135.526 105.333 140.36 91.2809 132.271C86.7925 129.688 83.0674 125.962 80.4835 121.474L80.2878 121.148C72.3608 107.004 77.4012 89.1113 91.5455 81.1843C95.9388 78.7222 100.891 77.4317 105.927 77.4366H105.992C111.124 77.4292 116.166 78.78 120.606 81.351C134.633 89.4783 139.445 107.418 131.371 121.474Z" fill="#F44336"/>
<path d="M131.371 121.474C123.282 135.526 105.333 140.36 91.2809 132.271C86.7925 129.688 83.0674 125.962 80.4835 121.474L80.2878 121.148C72.3608 107.004 77.4012 89.1113 91.5455 81.1843C95.9388 78.7222 100.891 77.4317 105.927 77.4366H105.992C111.124 77.4292 116.166 78.78 120.606 81.351C134.633 89.4783 139.445 107.418 131.371 121.474Z" fill="#2196F3"/>
<path d="M105.817 139.415C100.129 139.414 94.5418 137.916 89.6172 135.07C84.6517 132.198 80.5278 128.072 77.6587 123.105C68.6509 107.503 73.9966 87.553 89.5986 78.5452C94.5629 75.6791 100.195 74.1718 105.928 74.1748C123.943 74.1607 138.559 88.7542 138.573 106.77C138.577 112.504 137.07 118.139 134.202 123.105C128.324 133.212 117.509 139.426 105.817 139.415ZM105.986 80.6988C96.6241 80.6489 87.9567 85.6315 83.2887 93.7469C76.0825 106.242 80.3704 122.214 92.8659 129.42C105.361 136.627 121.333 132.339 128.539 119.843C135.746 107.362 131.469 91.4016 118.988 84.1951C115.036 81.9137 110.555 80.7082 105.992 80.6991H105.986V80.6988Z" fill="#FAFAFA"/>
</g>
<defs>
<clipPath id="clip0_4_109576">
<rect width="156.584" height="156.584" fill="white" transform="translate(27.6324 28.5)"/>
</clipPath>
</defs>
</svg>
