<svg xmlns="http://www.w3.org/2000/svg" xmlns:xlink="http://www.w3.org/1999/xlink" width="434.612" height="484.479" viewBox="0 0 434.612 484.479"><defs><clipPath id="a"><circle cx="37.313" cy="37.313" r="37.313" fill="none"/></clipPath><clipPath id="b"><circle cx="32.79" cy="32.79" r="32.79" fill="none"/></clipPath></defs><g transform="translate(-609.812 -17.521)"><g transform="translate(609.812 17.521)" opacity="0.398"><g opacity="0.3"><path d="M827.118,452.133A217.305,217.305,0,0,1,673.46,81.169,217.305,217.305,0,1,1,980.776,388.485,215.878,215.878,0,0,1,827.118,452.133Zm0-422.5c-113.143,0-205.192,92.049-205.192,205.192s92.049,205.192,205.192,205.192S1032.31,347.97,1032.31,234.827,940.261,29.635,827.118,29.635Z" transform="translate(-609.812 -17.521)" fill="#3f5b6b"/><g transform="translate(52.17 2.247)"><path d="M797.1,451.427c-1.491-.336-36.948-8.573-72.264-39.639a191.43,191.43,0,0,1-48.578-66.41c-14.306-32.112-21.111-69.693-20.229-111.695,1.555-74,37.954-128.3,68.216-160.821,32.68-35.122,64.6-52.626,65.942-53.354l5.777,10.649c-.314.17-31.783,17.473-63.127,51.256-28.7,30.935-63.225,82.507-64.7,152.525-1.531,72.865,20.236,129.643,64.7,168.754,33.015,29.043,66.584,36.839,66.919,36.914Z" transform="translate(-655.952 -19.508)" fill="#3f5b6b"/></g><g transform="translate(125.605 5.064)"><path d="M846.929,446.116c-1.343-.285-33.266-7.324-64.9-37.3-18.5-17.529-33.057-39.313-43.275-64.747-12.671-31.534-18.648-68.782-17.768-110.706,1.555-73.989,37.536-128.079,67.446-160.429C820.739,37.986,851.058,22.72,852.386,22l7.017,8.589-2.888-5.324,2.892,5.323c-.311.168-31.4,17.279-62.364,50.869-28.36,30.764-62.478,82.133-63.949,152.155-1.5,71.61,18.127,128.991,56.77,165.936,29.179,27.9,59.288,34.655,59.589,34.719Z" transform="translate(-720.899 -22)" fill="#3f5b6b"/></g><g transform="translate(237.873 2.803)"><path d="M836.445,446.382l-2.472-11.86c.3-.063,30.962-6.824,60.686-34.734C934,362.846,954,305.473,952.495,233.873c-1.474-70.164-37.347-122.642-67.18-154.309-32.462-34.459-64.8-52.332-65.125-52.508L824.711,20c1.387.759,35.653,15.411,69.422,51.257C914,92.349,929.973,115.174,941.6,139.1a225.745,225.745,0,0,1,23.01,94.52c.881,41.939-5.217,79.2-18.125,110.744-10.408,25.435-25.23,47.219-44.054,64.746C870.253,439.067,837.811,446.1,836.445,446.382Z" transform="translate(-820.19 -20)" fill="#3f5b6b"/></g><g transform="translate(174.288 5.064)"><path d="M770.418,449.134,767.811,437.3c.314-.071,32.741-7.577,64.194-36.282,42.141-38.463,62.735-94.787,61.21-167.411-1.47-70.014-36.38-121.789-65.407-152.9-31.7-33.975-63.536-51.469-63.854-51.641L769.872,22c1.357.735,33.475,14.844,66.509,50.146,30.6,32.7,67.392,87.2,68.946,161.211.882,41.971-5.587,79.42-19.227,111.3a187.191,187.191,0,0,1-46.421,65.756C805.863,441.054,771.85,448.818,770.418,449.134Z" transform="translate(-763.954 -22)" fill="#3f5b6b"/></g><g transform="translate(66.39 59.41)"><path d="M815.8,138.758a202.711,202.711,0,0,1-61.616-9.656c-52.833-16.791-84.339-49.285-85.655-50.66l8.75-8.378c.3.318,31.024,31.888,81.071,47.65,66.808,21.041,134.775,5.442,202.016-46.363l7.395,9.6c-38.8,29.889-78.654,48.4-118.472,55.024A203.906,203.906,0,0,1,815.8,138.758Z" transform="translate(-668.528 -70.064)" fill="#3f5b6b"/></g><g transform="translate(67.071 297.566)"><path d="M959.611,349.385c-.305-.317-31.025-31.887-81.072-47.65C811.73,280.7,743.764,296.293,676.524,348.1l-7.394-9.6c38.794-29.888,78.653-48.4,118.471-55.024a201.854,201.854,0,0,1,95.105,6.869c52.833,16.791,84.34,49.285,85.655,50.66Z" transform="translate(-669.13 -280.692)" fill="#3f5b6b"/></g><g transform="translate(4.922 206.934)"><rect width="423.585" height="12.114" fill="#3f5b6b"/></g></g></g><g transform="translate(633.148 93.805)"><g transform="translate(0 51.897)"><g transform="translate(0 24.423)"><g transform="translate(0 103.313)"><path d="M908.261,270.035l-41.945-26.178-52.246,9.692-52.246-9.692-41.945,26.178A40.115,40.115,0,0,0,701,304.069V421.538H927.139V304.069A40.118,40.118,0,0,0,908.261,270.035Z" transform="translate(-621.231 -243.857)" fill="#00343f"/><path d="M901.2,270.035l-41.945-26.178-52.246,9.692L755,243.9v15.118l49.751,9.23L857,258.556l41.945,26.178a40.118,40.118,0,0,1,18.878,34.034v102.77h2.261V304.069A40.118,40.118,0,0,0,901.2,270.035Z" transform="translate(-614.173 -243.857)" fill="#00262e"/><path d="M719.878,269.889A40.115,40.115,0,0,0,701,303.923v1.468a40.1,40.1,0,0,1,16.617-20.8l41.945-26.178.234.044V244.976Z" transform="translate(-621.231 -243.711)" fill="#00414f"/><g transform="translate(252.138 28.474)"><path d="M981.607,395.3a27.305,27.305,0,0,0-5.483-18.272l-73.379-97.1a27.422,27.422,0,0,0-38.411-5.344h0A27.422,27.422,0,0,0,858.991,313l57.557,76.159-32.683,15.8a27.422,27.422,0,0,0-12.75,36.624h0a27.421,27.421,0,0,0,36.624,12.75L966.747,425.8A27.427,27.427,0,0,0,981.607,395.3Z" transform="translate(-853.445 -269.04)" fill="#00343f"/><path d="M979.13,395.3a27.3,27.3,0,0,0-5.483-18.272l-73.379-97.1a27.42,27.42,0,0,0-27.875-10.224,27.347,27.347,0,0,1,7.523,6.832l73.379,97.1a27.305,27.305,0,0,1,5.483,18.272,27.427,27.427,0,0,1-14.86,30.506l-59.008,28.532a27.48,27.48,0,0,1-5.934,2.067,27.391,27.391,0,0,0,26.286,1.325L964.271,425.8A27.427,27.427,0,0,0,979.13,395.3Z" transform="translate(-850.968 -269.039)" fill="#00262e"/></g><path d="M753.045,275.5h0a27.422,27.422,0,0,0-38.585,3.9L637.479,373.66a27.3,27.3,0,0,0-6.166,18.052,27.426,27.426,0,0,0,13.7,31.044l57.892,30.732a27.422,27.422,0,0,0,25.716-48.441l-32.065-17.023,60.382-73.94A27.423,27.423,0,0,0,753.045,275.5Z" transform="translate(-630.451 -240.53)" fill="#00343f"/><path d="M714.213,453.487l-57.892-30.732a27.425,27.425,0,0,1-13.7-31.044,27.3,27.3,0,0,1,6.166-18.052l76.981-94.265a27.291,27.291,0,0,1,15.592-9.484,27.413,27.413,0,0,0-26.9,9.484l-76.981,94.265a27.3,27.3,0,0,0-6.166,18.052,27.426,27.426,0,0,0,13.7,31.044l57.892,30.732a27.306,27.306,0,0,0,18.507,2.611A27.424,27.424,0,0,1,714.213,453.487Z" transform="translate(-630.451 -240.529)" fill="#00414f"/><path d="M862.586,267.926s16.608,6.369,32.282,27.1l-.155-13.193L876.622,266Z" transform="translate(-600.112 -240.963)" fill="#00262e"/><path d="M734.766,271.2s-25.169,19.865-32.916,26.62l2.728-13.309L730.287,265Z" transform="translate(-621.119 -241.094)" fill="#00414f"/></g><g transform="translate(120.402 14.899)"><path d="M809.369,322.537c-.009-.01-55.665-44.821-55.665-44.821s-43.375-31.809,9.4-91.088l33.254-18.8,32.531-2.17L860.7,186.628s16.627,26.747,15.9,34.7c-.286,3.146,1.837,6.5,2.814,9.378a35.679,35.679,0,0,1,2.118,15.952c-2.7,22.463-25.778,38.306-39.952,53.961C839.254,303.188,808.914,322.046,809.369,322.537Z" transform="translate(-736.936 -165.663)" fill="#002329"/><path d="M779.317,248.406l21.125,43.638,26.32-41.836Z" transform="translate(-731.397 -154.849)" fill="#001b1f"/><path d="M879.414,223.553c-.341-1-.822-2.068-1.29-3.159-2.765,22.4-25.785,38.221-39.936,53.85-2.326,2.569-32.667,21.427-32.211,21.917-.009-.01-55.665-44.821-55.665-44.821a45.4,45.4,0,0,1-13.343-18.205A46.394,46.394,0,0,0,753.7,270.563s55.656,44.811,55.665,44.821c-.456-.491,29.885-19.348,32.211-21.917,14.174-15.656,37.251-31.5,39.952-53.961A35.677,35.677,0,0,0,879.414,223.553Z" transform="translate(-736.935 -158.51)" fill="#001b1f"/></g><g transform="translate(145.754)"><g transform="translate(1.875)"><path d="M851.043,207.589c0,30.433-19.852,72.116-44.711,72.116s-45.316-41.683-45.316-72.116,20.154-55.1,45.014-55.1S851.043,177.157,851.043,207.589Z" transform="translate(-761.016 -152.486)" fill="#ede9d3"/><path d="M845.817,207.224c0-23.98-12.518-44.372-29.986-51.946L801,176.33v69.746a2.575,2.575,0,0,0,4.5,1.822l2.732-3.121a.7.7,0,0,0,.684-.715V237.7h16.96s.639,30.259-16.041,39.912C830.453,269.459,845.817,234,845.817,207.224Z" transform="translate(-755.79 -152.121)" fill="#d4d0bc"/></g><g transform="translate(0 51.352)"><path d="M0,0H9.307a2,2,0,0,1,2,2V5.5a5.125,5.125,0,0,1-5.125,5.125H0a0,0,0,0,1,0,0V0A0,0,0,0,1,0,0Z" transform="translate(82.541)" fill="#0a3036"/><path d="M0,0H7.313a5.125,5.125,0,0,1,5.125,5.125v3.5a2,2,0,0,1-2,2H0a0,0,0,0,1,0,0V0A0,0,0,0,1,0,0Z" transform="translate(12.438 10.621) rotate(180)" fill="#0a3036"/><g transform="translate(10.184 1.18)"><path d="M792.033,226.088H776.34c-3.295,0-6.1-3.029-6.615-7.141l-1.278-10.221c-.641-5.134,2.5-9.779,6.615-9.779h18.247c4.116,0,7.257,4.645,6.615,9.779l-1.277,10.221C798.133,223.059,795.328,226.088,792.033,226.088Z" transform="translate(-768.364 -198.946)" fill="#0a3036"/><g transform="translate(-768.364 -198.946)" fill="none" stroke-miterlimit="10"><path d="M792.033,226.088H776.34c-3.295,0-6.1-3.029-6.615-7.141l-1.278-10.221c-.641-5.134,2.5-9.779,6.615-9.779h18.247c4.116,0,7.257,4.645,6.615,9.779l-1.277,10.221C798.133,223.059,795.328,226.088,792.033,226.088Z" stroke="none"/><path d="M 792.0328369140625 226.0883178710938 C 795.32763671875 226.0883178710938 798.1328735351562 223.0591888427734 798.6473388671875 218.9468383789062 L 799.9238891601562 208.7253723144531 C 800.566162109375 203.5908813476562 797.425048828125 198.9459838867188 793.3093872070312 198.9459838867188 L 775.0621948242188 198.9459838867188 C 770.9476318359375 198.9459838867188 767.8065185546875 203.5908813476562 768.4476318359375 208.7253723144531 L 769.7252807617188 218.9468383789062 C 770.2398071289062 223.0591888427734 773.0451049804688 226.0883178710938 776.3399047851562 226.0883178710938 L 792.0328369140625 226.0883178710938 M 792.0328369140625 228.1315612792969 L 776.3399047851562 228.1315612792969 C 774.1708374023438 228.1315612792969 772.0936889648438 227.1785583496094 770.490966796875 225.4481201171875 C 768.9912719726562 223.8289489746094 767.9993286132812 221.6101684570312 767.6978759765625 219.2005157470703 L 766.420166015625 208.9788055419922 C 765.9931030273438 205.5586395263672 766.9822387695312 202.1078338623047 769.0661010742188 199.7476348876953 C 770.685791015625 197.9130859375 772.8153076171875 196.9027404785156 775.0621948242188 196.9027404785156 L 793.3093872070312 196.9027404785156 C 795.5571899414062 196.9027404785156 797.6871948242188 197.9134216308594 799.30712890625 199.7486114501953 C 801.3905639648438 202.1089019775391 802.3790893554688 205.5595092773438 801.9513549804688 208.9789733886719 L 800.6748046875 219.2000579833984 C 800.373291015625 221.6101531982422 799.3814086914062 223.8289337158203 797.8817749023438 225.4481048583984 C 796.279052734375 227.1785583496094 794.201904296875 228.1315612792969 792.0328369140625 228.1315612792969 Z" stroke="none" fill="#0a3036"/></g><g transform="translate(0.005)"><path d="M775.062,198.946a5.271,5.271,0,0,0-.585.041l-6.1,8.017a10.79,10.79,0,0,0,.07,1.722l.664,5.312,11.483-15.091Z" transform="translate(-768.369 -198.946)" fill="#fff" opacity="0.55"/><path d="M797.949,207.8a10.662,10.662,0,0,0,.07-1.753l-14.544,19.116h6.085L797,215.38Z" transform="translate(-766.395 -198.018)" fill="#fff" opacity="0.55"/><path d="M793.06,198.946h-4.448l-18.341,22.868a7.223,7.223,0,0,0,3.971,3.943l21.1-26.3A5.446,5.446,0,0,0,793.06,198.946Z" transform="translate(-768.12 -198.946)" fill="#fff" opacity="0.55"/></g></g><g transform="translate(53.151 1.18)"><path d="M830.033,226.088H814.34c-3.295,0-6.1-3.029-6.615-7.141l-1.278-10.221c-.641-5.134,2.5-9.779,6.615-9.779h18.247c4.116,0,7.257,4.645,6.615,9.779l-1.277,10.221C836.133,223.059,833.328,226.088,830.033,226.088Z" transform="translate(-806.364 -198.946)" fill="#0a3036"/><g transform="translate(-806.364 -198.946)" fill="none" stroke-miterlimit="10"><path d="M830.033,226.088H814.34c-3.295,0-6.1-3.029-6.615-7.141l-1.278-10.221c-.641-5.134,2.5-9.779,6.615-9.779h18.247c4.116,0,7.257,4.645,6.615,9.779l-1.277,10.221C836.133,223.059,833.328,226.088,830.033,226.088Z" stroke="none"/><path d="M 830.0327758789062 226.0883178710938 C 833.32763671875 226.0883178710938 836.1328735351562 223.0591888427734 836.6472778320312 218.9468383789062 L 837.9238891601562 208.7253723144531 C 838.5661010742188 203.5908813476562 835.425048828125 198.9459838867188 831.3093872070312 198.9459838867188 L 813.0621337890625 198.9459838867188 C 808.947509765625 198.9459838867188 805.806396484375 203.5908813476562 806.4475708007812 208.7253723144531 L 807.7252807617188 218.9468383789062 C 808.23974609375 223.0591888427734 811.0450439453125 226.0883178710938 814.3399047851562 226.0883178710938 L 830.0327758789062 226.0883178710938 M 830.0327758789062 228.1315612792969 L 814.3399047851562 228.1315612792969 C 812.1708374023438 228.1315612792969 810.0936279296875 227.1785583496094 808.4909057617188 225.4481201171875 C 806.9912109375 223.8289337158203 805.9993286132812 221.6101531982422 805.6978149414062 219.2004852294922 L 804.4201049804688 208.9788055419922 C 803.9930419921875 205.5586853027344 804.9821166992188 202.1078948974609 807.06591796875 199.7476959228516 C 808.6856689453125 197.9131011962891 810.815185546875 196.9027404785156 813.0621337890625 196.9027404785156 L 831.3093872070312 196.9027404785156 C 833.55712890625 196.9027404785156 835.6871948242188 197.9134063720703 837.3070678710938 199.7485504150391 C 839.3905029296875 202.1088256835938 840.3790283203125 205.5594482421875 839.9513549804688 208.9789581298828 L 838.6747436523438 219.2000579833984 C 838.373291015625 221.6101379394531 837.3814086914062 223.8289184570312 835.8817749023438 225.4481048583984 C 834.279052734375 227.1785583496094 832.2018432617188 228.1315612792969 830.0327758789062 228.1315612792969 Z" stroke="none" fill="#0a3036"/></g><g transform="translate(0.005)"><path d="M813.062,198.946a5.273,5.273,0,0,0-.585.041l-6.1,8.017a10.79,10.79,0,0,0,.07,1.722l.664,5.312,11.483-15.091Z" transform="translate(-806.369 -198.946)" fill="#fff" opacity="0.55"/><path d="M835.949,207.8a10.668,10.668,0,0,0,.07-1.753l-14.544,19.116h6.085L835,215.38Z" transform="translate(-804.395 -198.018)" fill="#fff" opacity="0.55"/><path d="M831.06,198.946h-4.448l-18.341,22.868a7.223,7.223,0,0,0,3.971,3.943l21.1-26.3A5.446,5.446,0,0,0,831.06,198.946Z" transform="translate(-806.12 -198.946)" fill="#fff" opacity="0.55"/></g></g><rect width="10.176" height="7.081" transform="translate(42.966 4.72)" fill="#0a3036"/></g></g><path d="M761.016,199.4a85.709,85.709,0,0,0,4.675,26.546S761.016,188.809,761.016,199.4Z" transform="translate(-613.387 -146.603)" fill="#b3b1af"/></g><g transform="translate(124.158)"><path d="M740.258,225.873s18.7-18.4,73.2-16.841c50.6,1.446,62.7,16.841,62.7,16.841s-7.23-72.292-36.146-80.967c0,0-13.736-11.567-28.194-13.736s-25.3,8.676-31.809,10.844S753.994,150.69,740.258,225.873Z" transform="translate(-740.258 -130.886)" fill="#00343f"/><g transform="translate(59.196 0.001)"><path d="M833.178,144.907s-13.736-11.567-28.194-13.736a27.282,27.282,0,0,0-12.372,1.088,78.066,78.066,0,0,1,14.56,9.256c22.477,6.743,31.849,51.919,34.909,71.708,21.22,5.021,27.243,12.651,27.243,12.651S862.094,153.581,833.178,144.907Z" transform="translate(-792.612 -130.886)" fill="#00262e"/></g><path d="M796.978,146.538c5.92-1.973,15.432-11.125,27.989-11.126a47.776,47.776,0,0,0-13.141-4.241c-14.458-2.169-25.3,8.676-31.809,10.844s-26.024,8.675-39.76,83.858c0,0,5.7-5.592,19.942-10.349C773.639,154.33,790.93,148.554,796.978,146.538Z" transform="translate(-740.258 -130.886)" fill="#00414f"/></g></g><g transform="translate(58.286 247.692)"><ellipse cx="128.899" cy="6.784" rx="128.899" ry="6.784" transform="translate(0 146.934)" fill="#334a57" opacity="0.4"/><g transform="translate(15.675)"><path d="M897.235,456.581H719.058a20.213,20.213,0,0,1-20.206-19.675l-2.982-112.1a20.213,20.213,0,0,1,20.206-20.751H900.813a20.214,20.214,0,0,1,20.2,20.858l-3.579,112.1A20.212,20.212,0,0,1,897.235,456.581Z" transform="translate(-695.864 -304.05)" fill="#d4d0bc"/><path d="M917.437,421.3a20.213,20.213,0,0,1-20.2,19.569H719.058a20.213,20.213,0,0,1-20.206-19.676l-2.717-102.144a20.322,20.322,0,0,0-.265,3.832l2.982,112.1a20.213,20.213,0,0,0,20.206,19.675H897.235a20.212,20.212,0,0,0,20.2-19.568l3.579-112.1a20.424,20.424,0,0,0-.305-4.222Z" transform="translate(-695.864 -302.127)" fill="#b3b1af"/><path d="M812.47,349.534c-20.017-13.011-36.7,2.668-39.367,14.679a32.517,32.517,0,0,0,3,21.686s-6.005,9.674,7.339,12.344c0,0,6.005,0,5.338,5.672,0,0,.611.2,1.668.445v-2.448h1.334v2.735c.686.136,1.471.27,2.336.388v-3.123h1.334v3.282c.939.1,1.945.165,3,.191v-3.473h1.334v3.48c.867-.011,1.759-.055,2.668-.141v-3.339H803.8v3.181c.773-.109,1.552-.245,2.336-.423v-2.758h1.334v2.415c.445-.125.891-.26,1.334-.413,0,0-2.335-7.006,4-6.672s12.01-7.007,8.674-12.01C821.477,385.231,832.487,362.544,812.47,349.534Zm-28.358,39.033c-2.335-.334-4.336-3-4.671-9.674-.361-7.222,6.871-6.885,12.281-5.67a5.388,5.388,0,0,1,2.335.975,4.02,4.02,0,0,1,1.251,3.178C795.21,381.912,789.251,389.3,784.112,388.566Zm15.875,5.809-1.081-.931a.7.7,0,0,0-.915-.042l-1.165.86c-.723.533-1.551-.415-1.284-1.469l2.05-8.075c.28-1.1,1.435-1.1,1.707.01l2.025,8.23C801.594,394.05,800.7,394.993,799.987,394.376Zm17.327-15.484c-.334,6.672-2.335,9.341-4.671,9.674-5.138.734-11.1-6.654-11.194-11.192A4.016,4.016,0,0,1,802.7,374.2a5.388,5.388,0,0,1,2.335-.975C810.443,372.007,817.674,371.67,817.314,378.892Z" transform="translate(-685.862 -298.746)" fill="#fff"/></g></g><g transform="translate(311.493 44.767)"><g transform="translate(31.638 13.906)"><path d="M943.163,150.709l-3.123,4.755c-.414.63-1.284.621-1.307-.012l-.035-.957a.474.474,0,0,0-.4-.469l-.955-.18c-.591-.112-.5-.952.137-1.3l4.908-2.679C943.06,149.5,943.584,150.07,943.163,150.709Zm-8.82-5.718c-.9-1.3-.5-3.5,2.625-6.714,3.388-3.475,6.524.236,8.4,3.451a3.6,3.6,0,0,1,.587,1.593,2.7,2.7,0,0,1-.992,2.067C942.683,147.411,936.327,147.854,934.343,144.991Z" transform="translate(-933.921 -136.879)" opacity="0.11"/></g><path d="M964.209,139.332c-2.74-15.786-18.068-16.832-25.194-12.66a21.819,21.819,0,0,0-9.294,11.377s-7.5,1.464-2.72,9.246c0,0,2.742,2.955-.353,5.216,0,0,.183.39.543,1.023l1.2-1.117.608.656-1.344,1.249c.247.4.538.846.875,1.325l1.536-1.426.609.657-1.615,1.5c.381.505.807,1.032,1.278,1.564l1.708-1.585.608.656-1.711,1.59c.4.421.83.84,1.288,1.247l1.642-1.524.609.657-1.564,1.452c.406.33.829.651,1.273.955l1.357-1.258.609.656-1.188,1.1c.266.162.535.32.813.468,0,0,2.38-4.348,5.11-1.078s8.929,2.708,9.868-1.217C950.764,160.061,966.949,155.118,964.209,139.332Zm-32.146,3.874c-.9-1.3-.5-3.5,2.626-6.714,3.388-3.475,6.524.236,8.4,3.451a3.6,3.6,0,0,1,.587,1.593,2.7,2.7,0,0,1-.992,2.067C940.4,145.627,934.048,146.069,932.063,143.206Zm4.391,10.46-.035-.957a.474.474,0,0,0-.4-.469l-.955-.18c-.591-.112-.5-.952.137-1.3l4.908-2.679c.67-.366,1.194.2.773.844l-3.123,4.755C937.347,154.308,936.477,154.3,936.454,153.666Zm15.527,1.453c-3.434,2.882-5.66,3.116-6.891,2.12-2.708-2.192-1.794-8.5.392-10.616a2.7,2.7,0,0,1,2.135-.836,3.606,3.606,0,0,1,1.546.7C952.229,148.6,955.7,152,951.981,155.119Z" transform="translate(-903.395 -124.58)" fill="#3f5b6b"/><g transform="translate(8.758 21.819)"><rect width="29.31" height="2.949" transform="matrix(0.213, 0.977, -0.977, 0.213, 8.238, 4.447)" fill="#3f5b6b"/><path d="M916.254,145.451a10.34,10.34,0,0,1,2.127-.064c1.937.024,3.377-1.546,5.279-1.508a3.291,3.291,0,0,1,3.061,2.5A3.241,3.241,0,0,1,924,150.331c-.557.042-1.116-.023-1.675-.024a7.1,7.1,0,0,0-2.535.526,10.951,10.951,0,0,1-2.61,1.057,3.327,3.327,0,0,1-3.414-2.557,3.266,3.266,0,0,1,2.229-3.819C916.079,145.489,916.166,145.469,916.254,145.451Z" transform="translate(-913.685 -143.877)" fill="#3f5b6b"/><path d="M922.221,171.478a10.259,10.259,0,0,1,2.127-.075c1.938.015,3.371-1.561,5.272-1.532a3.289,3.289,0,0,1,3.072,2.481,3.242,3.242,0,0,1-2.707,3.97c-.556.044-1.116-.017-1.675-.017a7.1,7.1,0,0,0-2.533.538,10.955,10.955,0,0,1-2.6,1.07,3.329,3.329,0,0,1-3.426-2.542,3.264,3.264,0,0,1,2.21-3.829C922.046,171.517,922.133,171.5,922.221,171.478Z" transform="translate(-912.903 -140.48)" fill="#3f5b6b"/></g><g transform="translate(0 29.75)"><rect width="29.31" height="2.949" transform="translate(31.951 16.28) rotate(-162.899)" fill="#3f5b6b"/><path d="M939.833,162.654a10.3,10.3,0,0,1-.988,1.885c-.97,1.677-.311,3.7-1.276,5.34a3.292,3.292,0,0,1-3.677,1.442,3.242,3.242,0,0,1-2.11-4.317c.237-.505.568-.961.844-1.446a7.124,7.124,0,0,0,.786-2.467,10.928,10.928,0,0,1,.359-2.793,3.327,3.327,0,0,1,3.9-1.719,3.262,3.262,0,0,1,2.233,3.815C939.886,162.482,939.861,162.568,939.833,162.654Z" transform="translate(-902.596 -149.903)" fill="#3f5b6b"/><path d="M914.228,155.081a10.4,10.4,0,0,1-.979,1.889c-.963,1.68-.294,3.7-1.253,5.346a3.293,3.293,0,0,1-3.67,1.459,3.243,3.243,0,0,1-2.129-4.308c.234-.507.562-.963.836-1.45a7.133,7.133,0,0,0,.776-2.472,10.846,10.846,0,0,1,.346-2.794,3.328,3.328,0,0,1,3.9-1.737,3.264,3.264,0,0,1,2.251,3.806C914.28,154.908,914.255,155,914.228,155.081Z" transform="translate(-905.939 -150.891)" fill="#3f5b6b"/></g></g><circle cx="37.313" cy="37.313" r="37.313" transform="translate(277.641 124.39)" fill="#b8d9d8"/><g transform="translate(296.297 134.024)"><path d="M9.918,0h5.855a9.918,9.918,0,0,1,9.918,9.918v13.02a0,0,0,0,1,0,0H0a0,0,0,0,1,0,0V9.918A9.918,9.918,0,0,1,9.918,0Z" transform="translate(5.811)" fill="none" stroke="#17052b" stroke-miterlimit="10" stroke-width="2.434"/><rect width="37.313" height="37.313" rx="9.016" transform="translate(0 18.045)" fill="#3f5b6b"/><path d="M924.836,220.787a10.182,10.182,0,0,1,.623,3.518v16.923a10.2,10.2,0,0,1-10.194,10.194H898.34a10.154,10.154,0,0,1-5.289-1.478,10.2,10.2,0,0,0,9.571,6.677h16.924a10.194,10.194,0,0,0,10.194-10.194V229.5A10.187,10.187,0,0,0,924.836,220.787Z" transform="translate(-892.428 -201.264)" fill="#17052b"/><path d="M913.777,234.495a4.282,4.282,0,1,0-7.316,3.021,2.01,2.01,0,0,1,.466,2.1,2.725,2.725,0,1,0,5.293.914,2.689,2.689,0,0,0-.121-.8,2.336,2.336,0,0,1,.507-2.29A4.262,4.262,0,0,0,913.777,234.495Z" transform="translate(-890.838 -200.032)" fill="#0c0317"/></g><g transform="translate(16.45 117.606)"><circle cx="37.313" cy="37.313" r="37.313" transform="translate(7.915 3.392)" opacity="0.11"/><circle cx="37.313" cy="37.313" r="37.313" fill="#3f5b6b"/><g clip-path="url(#a)"><path d="M691.352,209,715.1,228.222l27.137,11.307-48.62,46.359L671,246.313Z" transform="translate(-641.602 -186.386)" fill="#00343f"/></g><g transform="translate(24.37 13.656)"><path d="M686.435,203.439c-9.644-6.269-17.681,1.286-18.967,7.073a15.666,15.666,0,0,0,1.447,10.448s-2.893,4.661,3.536,5.947c0,0,2.893,0,2.572,2.732,0,0,.294.095.8.215v-1.179h.642v1.318c.331.064.709.13,1.125.187v-1.5h.643v1.582c.452.046.937.079,1.446.092v-1.673h.643v1.677c.417-.006.848-.026,1.286-.068v-1.609h.643v1.532c.372-.052.747-.118,1.125-.2v-1.329h.643v1.163c.214-.06.429-.126.642-.2,0,0-1.125-3.375,1.929-3.215s5.787-3.375,4.179-5.786C690.775,220.638,696.079,209.708,686.435,203.439Zm-13.662,18.806c-1.125-.161-2.09-1.446-2.251-4.661-.173-3.479,3.311-3.317,5.917-2.732a2.578,2.578,0,0,1,1.125.469,1.936,1.936,0,0,1,.6,1.531C678.12,219.039,675.248,222.6,672.773,222.245Zm7.648,2.8-.521-.449a.338.338,0,0,0-.441-.02l-.561.415c-.348.257-.747-.2-.619-.708l.988-3.891c.135-.531.691-.528.822,0l.976,3.965C681.194,224.887,680.766,225.341,680.421,225.044Zm8.348-7.46c-.161,3.215-1.125,4.5-2.25,4.661-2.476.354-5.347-3.206-5.393-5.392a1.936,1.936,0,0,1,.6-1.531,2.573,2.573,0,0,1,1.125-.469C685.458,214.267,688.943,214.1,688.769,217.584Z" transform="translate(-666.478 -201.077)" fill="#fff"/><g transform="translate(0 27.268)"><rect width="21.042" height="2.117" transform="translate(4.614 3.773) rotate(30.577)" fill="#fff"/><path d="M666.885,230.546a7.324,7.324,0,0,1,1.005-1.15c.959-1.009.836-2.532,1.785-3.515a2.361,2.361,0,0,1,2.808-.391,2.328,2.328,0,0,1,.751,3.367c-.25.313-.556.576-.83.868a5.118,5.118,0,0,0-.962,1.591,7.791,7.791,0,0,1-.718,1.889,2.387,2.387,0,0,1-3.012.547,2.342,2.342,0,0,1-.922-3.037Q666.835,230.629,666.885,230.546Z" transform="translate(-666.553 -225.194)" fill="#fff"/><path d="M683.493,240.117a7.374,7.374,0,0,1,1-1.154c.954-1.013.824-2.536,1.768-3.523a2.363,2.363,0,0,1,2.806-.4,2.327,2.327,0,0,1,.767,3.364c-.249.314-.554.579-.827.873a5.11,5.11,0,0,0-.954,1.6,7.844,7.844,0,0,1-.709,1.893,2.389,2.389,0,0,1-3.01.561,2.342,2.342,0,0,1-.935-3.034C683.427,240.229,683.459,240.172,683.493,240.117Z" transform="translate(-664.382 -223.945)" fill="#fff"/></g><g transform="translate(0.036 27.15)"><rect width="21.042" height="2.117" transform="matrix(-0.866, 0.5, -0.5, -0.866, 22.281, 5.675)" fill="#fff"/><path d="M687.436,226.259a7.313,7.313,0,0,1,.509,1.44c.408,1.33,1.8,1.971,2.187,3.28a2.364,2.364,0,0,1-1.038,2.639,2.329,2.329,0,0,1-3.3-1c-.15-.372-.228-.768-.349-1.15a5.107,5.107,0,0,0-.914-1.619,7.834,7.834,0,0,1-1.295-1.554,2.388,2.388,0,0,1,1-2.892,2.343,2.343,0,0,1,3.1.687C687.371,226.147,687.4,226.2,687.436,226.259Z" transform="translate(-664.43 -225.089)" fill="#fff"/><path d="M670.946,236.031a7.3,7.3,0,0,1,.517,1.438c.414,1.327,1.8,1.963,2.2,3.27a2.361,2.361,0,0,1-1.024,2.644,2.329,2.329,0,0,1-3.307-.984c-.151-.371-.232-.767-.354-1.148a5.118,5.118,0,0,0-.922-1.615,7.807,7.807,0,0,1-1.3-1.548,2.39,2.39,0,0,1,.988-2.9,2.344,2.344,0,0,1,3.1.675C670.882,235.919,670.915,235.975,670.946,236.031Z" transform="translate(-666.584 -223.811)" fill="#fff"/></g></g></g><g transform="translate(85.557)"><path d="M725.612,137.68h0a21.527,21.527,0,0,1-19.4-23.465L707.9,96.538a4.279,4.279,0,0,1,3.872-3.861,29.057,29.057,0,0,0,16.306-6.817,3.651,3.651,0,0,1,5.093.349A34.8,34.8,0,0,0,747.8,95.9a4.438,4.438,0,0,1,2.961,4.625l-1.686,17.763A21.527,21.527,0,0,1,725.612,137.68Z" transform="translate(-706.118 -84.988)" fill="#00343f"/><path d="M748.449,95.09a4.459,4.459,0,0,1,.172,1.706l-1.687,17.763a21.527,21.527,0,0,1-23.465,19.4h0a21.452,21.452,0,0,1-14.416-7.55,21.487,21.487,0,0,0,16.177,9.953h0a21.527,21.527,0,0,0,23.465-19.4L750.38,99.2A4.454,4.454,0,0,0,748.449,95.09Z" transform="translate(-705.735 -83.668)" fill="#00262e"/><path d="M725.606,132.951h0a18.063,18.063,0,0,1-16.274-19.69l1.408-14.831a3.589,3.589,0,0,1,3.248-3.239,24.379,24.379,0,0,0,13.681-5.721,3.066,3.066,0,0,1,4.274.293,29.189,29.189,0,0,0,12.282,8.129,3.726,3.726,0,0,1,2.485,3.881l-1.416,14.9A18.063,18.063,0,0,1,725.606,132.951Z" transform="translate(-705.709 -84.498)" fill="#f5be66"/><path d="M743.953,96.857c-.2-.068-.4-.141-.608-.217,0,.025,0,.051,0,.076l-1.415,14.9a18.063,18.063,0,0,1-19.69,16.274h0a17.979,17.979,0,0,1-10.909-5.06,18.039,18.039,0,0,0,14.007,9.083h0a18.063,18.063,0,0,0,19.689-16.275l1.416-14.9A3.726,3.726,0,0,0,743.953,96.857Z" transform="translate(-705.438 -83.465)" fill="#db9151"/><g transform="translate(17.537 12.408)"><path d="M721.635,97.781l1.72,19.913a1.673,1.673,0,0,0,1.511,1.523l1.854.176a1.677,1.677,0,0,0,1.784-1.263l4.8-19.293a1.676,1.676,0,0,0-1.468-2.073l-8.377-.8A1.677,1.677,0,0,0,721.635,97.781Z" transform="translate(-721.628 -95.961)" fill="#00343f"/><path d="M727.113,121.188a2.227,2.227,0,1,1-2.006-2.428A2.226,2.226,0,0,1,727.113,121.188Z" transform="translate(-721.492 -92.983)" fill="#00343f"/></g></g><g transform="translate(236.936 5.667)"><circle cx="32.79" cy="32.79" r="32.79" fill="#f5be66"/><g clip-path="url(#b)"><path d="M881.3,113.51l20.671,10.182,23.847,9.936-42.727,40.739L860,133.286Z" transform="translate(-837.386 -86.927)" fill="#db9151"/></g><g transform="translate(11.981 10.72)"><g transform="translate(29.036 14.401)"><path d="M885.6,112.217s-3.167,5.807-7.918,6.863" transform="translate(-876.093 -112.217)" fill="none" stroke="#00171c" stroke-linecap="round" stroke-linejoin="round" stroke-width="0.934"/><path d="M885.189,116.419a9.994,9.994,0,0,1-8.446,3.7" transform="translate(-876.215 -111.668)" fill="none" stroke="#00171c" stroke-linecap="round" stroke-linejoin="round" stroke-width="0.934"/><path d="M876.276,122.592s10.03,1.584,16.366-8.974" transform="translate(-876.276 -112.034)" fill="none" stroke="#00171c" stroke-linecap="round" stroke-linejoin="round" stroke-width="0.934"/></g><g transform="translate(0 14.401)"><path d="M856.666,112.217s3.167,5.807,7.918,6.863" transform="translate(-849.803 -112.217)" fill="none" stroke="#00171c" stroke-linecap="round" stroke-linejoin="round" stroke-width="0.934"/><path d="M857.133,116.419a9.994,9.994,0,0,0,8.446,3.7" transform="translate(-849.742 -111.668)" fill="none" stroke="#00171c" stroke-linecap="round" stroke-linejoin="round" stroke-width="0.934"/><path d="M866.962,122.592s-10.03,1.584-16.366-8.974" transform="translate(-850.596 -112.034)" fill="none" stroke="#00171c" stroke-linecap="round" stroke-linejoin="round" stroke-width="0.934"/></g><g transform="translate(0.398 28.821)"><path d="M852.689,128.663s6.615.071,9.856-3.561" transform="translate(-850.72 -124.954)" fill="none" stroke="#00171c" stroke-linecap="round" stroke-linejoin="round" stroke-width="0.934"/><path d="M856.584,130.539a10,10,0,0,0,7.349-5.568" transform="translate(-850.211 -124.971)" fill="none" stroke="#00171c" stroke-linecap="round" stroke-linejoin="round" stroke-width="0.934"/><path d="M866.771,125.476s-3.515,9.526-15.823,9.9" transform="translate(-850.948 -124.905)" fill="none" stroke="#00171c" stroke-linecap="round" stroke-linejoin="round" stroke-width="0.934"/></g><g transform="translate(23.627 28.821)"><path d="M884.884,128.663s-6.615.071-9.856-3.561" transform="translate(-871.03 -124.954)" fill="none" stroke="#00171c" stroke-linecap="round" stroke-linejoin="round" stroke-width="0.934"/><path d="M880.7,130.539a9.994,9.994,0,0,1-7.348-5.568" transform="translate(-871.249 -124.971)" fill="none" stroke="#00171c" stroke-linecap="round" stroke-linejoin="round" stroke-width="0.934"/><path d="M871.492,125.476s3.515,9.526,15.823,9.9" transform="translate(-871.492 -124.905)" fill="none" stroke="#00171c" stroke-linecap="round" stroke-linejoin="round" stroke-width="0.934"/></g><circle cx="6.306" cy="6.306" r="6.306" transform="translate(15.134 5.675)" fill="#00171c"/><path d="M885.738,124.58c0,8.01-6.494,15.133-14.5,15.133s-14.5-7.123-14.5-15.133a14.5,14.5,0,0,1,29.007,0Z" transform="translate(-849.794 -98.096)" fill="#3f5b6b"/><path d="M881.722,114.208a14.459,14.459,0,0,1,1.322,6.049c0,8.01-6.494,15.133-14.5,15.133a14.154,14.154,0,0,1-10.5-4.83,14.646,14.646,0,0,0,13.019,8.614c8.01,0,14.5-7.123,14.5-15.133A14.454,14.454,0,0,0,881.722,114.208Z" transform="translate(-849.623 -97.556)" fill="#480119"/><path d="M877.47,135.925,870.9,125.006a1.233,1.233,0,0,0-2.083-.047l-6.662,10.007a13.825,13.825,0,0,0,8.372,2.875A13.664,13.664,0,0,0,877.47,135.925Z" transform="translate(-849.085 -96.223)" fill="#00171c"/><path d="M870.633,125.006a1.233,1.233,0,0,0-2.083-.047l-.51.765,5.38,8.939a13.647,13.647,0,0,1-6.945,1.917,13.437,13.437,0,0,1-2.29-.2,13.472,13.472,0,0,0,13.019-.458Z" transform="translate(-848.82 -96.223)" fill="#000d0f"/><path d="M871.788,106.417s4.414-2.521,2.522-6.936" transform="translate(-847.826 -99.481)" fill="none" stroke="#00171c" stroke-linecap="round" stroke-linejoin="round" stroke-width="0.934"/><path d="M869.205,106.417s-4.414-2.521-2.523-6.936" transform="translate(-848.555 -99.481)" fill="none" stroke="#00171c" stroke-linecap="round" stroke-linejoin="round" stroke-width="0.934"/></g></g></g></g></svg>