<svg xmlns="http://www.w3.org/2000/svg" id="detective" width="89.348" height="76.657" viewBox="0 0 89.348 76.657">
    <defs>
        <style>
            .cls-1{fill:#ffffff}.cls-2{fill:#87AB49}
        </style>
    </defs>
    <path id="Path_42305" d="M303.921 307.816v6.98a13.961 13.961 0 1 1-27.921 0v-6.98zm0 0" class="cls-1" data-name="Path 42305" transform="translate(-232.836 -252.1)"/>
    <path id="Path_42306" d="M138.823 44.465H76c2.273-5.174 7.991-28.88 18.037-33.759 4.075-1.977 7.149.211 8.151 2.367a5.71 5.71 0 0 0 2.215 2.5 5.831 5.831 0 0 0 6.016 0 5.71 5.71 0 0 0 2.215-2.5c1.117-2.4 4.31-4.243 8.417-2.031 10.064 5.424 15.512 28.258 17.772 33.423zm0 0" class="cls-1" data-name="Path 42306" transform="translate(-67.737 -6.199)"/>
    <path id="Path_42307" d="M103.921 314.8a13.961 13.961 0 0 1-27.921 0v-6.98h27.921zm0 0" class="cls-1" data-name="Path 42307" transform="translate(-67.737 -252.1)"/>
    <path id="Path_42308" d="M247.745 137.816a1.745 1.745 0 1 0 1.745 1.745 1.745 1.745 0 0 0-1.745-1.745zm0 0" class="cls-2" data-name="Path 42308" transform="translate(-203.071 -113.766)"/>
    <path id="Path_42309" d="M84.113 34.52h-6.79C73.743 24.3 68.55 6.378 59.141 1.305c-4.705-2.533-9.153-.764-10.826 2.831a4.009 4.009 0 0 1-7.282 0c-1.614-3.472-5.955-5.4-10.5-3.2-9.559 4.642-14.9 23.285-18.512 33.583H5.235a5.235 5.235 0 1 0 0 10.47h78.878a5.235 5.235 0 1 0 0-10.47zm-65.957-6.98h19.538a1.745 1.745 0 1 0 0-3.49H19.376C24.636 9.519 29.55 5.3 32.062 4.077c2.74-1.329 4.995-.217 5.807 1.532a7.5 7.5 0 0 0 13.61 0c.836-1.8 3.1-2.795 6.006-1.232 2.523 1.361 7.422 5.723 12.487 19.673H51.654a1.745 1.745 0 0 0 0 3.49h19.539c.882 2.544 1.8 5.169 2.432 6.98h-57.9c.63-1.806 1.544-4.42 2.431-6.98zM84.113 41.5H5.235a1.745 1.745 0 1 1 0-3.49h78.878a1.745 1.745 0 0 1 0 3.49zm0 0" class="cls-2" data-name="Path 42309"/>
    <path id="Path_42310" d="M95.666 297.813H67.745A1.745 1.745 0 0 0 66 299.558v6.98a15.707 15.707 0 0 0 30.386 5.589 6.7 6.7 0 0 1 5.542 0 15.707 15.707 0 0 0 30.385-5.59v-6.98a1.745 1.745 0 0 0-1.745-1.745h-27.921a1.745 1.745 0 0 0-1.745 1.745v1.743h-3.49v-1.745a1.745 1.745 0 0 0-1.746-1.742zm-13.96 20.941a12.229 12.229 0 0 1-12.216-12.215V301.3h24.431v5.235a12.2 12.2 0 0 1-12.215 12.219zm22.686-17.454h24.431v5.235a12.216 12.216 0 0 1-24.431 0zm-3.49 3.49v1.745a15.932 15.932 0 0 0 .09 1.665 10.217 10.217 0 0 0-3.67 0 15.93 15.93 0 0 0 .09-1.665v-1.745zm0 0" class="cls-2" data-name="Path 42310" transform="translate(-54.482 -245.842)"/>
    <path id="Path_42311" d="M114.725 344.8a5.241 5.241 0 0 1-5.235-5.235 1.745 1.745 0 1 0-3.49 0 8.736 8.736 0 0 0 8.725 8.725 1.745 1.745 0 0 0 0-3.49zm0 0" class="cls-2" data-name="Path 42311" transform="translate(-87.502 -278.865)"/>
    <path id="Path_42312" d="M347.745 348.287a8.736 8.736 0 0 0 8.725-8.725 1.745 1.745 0 0 0-3.49 0 5.241 5.241 0 0 1-5.235 5.235 1.745 1.745 0 1 0 0 3.49zm0 0" class="cls-2" data-name="Path 42312" transform="translate(-285.62 -278.865)"/>
</svg>
