<svg xmlns="http://www.w3.org/2000/svg" width="13.033" height="16.5" viewBox="0 0 13.033 16.5">
    <defs>
        <style>
            .cls-1{fill:#fff;stroke:#fff;stroke-width:.5px}
        </style>
    </defs>
    <g id="_001-document" data-name="001-document" transform="translate(-6.25 .25)">
        <path id="Path_47115" d="M23.433 22h-6.666a.267.267 0 0 0 0 .533h6.667a.267.267 0 1 0 0-.533z" class="cls-1" data-name="Path 47115" transform="translate(-7.333 -16.133)"/>
        <path id="Path_47116" d="M16.767 14.533h2.667a.267.267 0 0 0 0-.533h-2.667a.267.267 0 0 0 0 .533z" class="cls-1" data-name="Path 47116" transform="translate(-7.333 -10.267)"/>
        <path id="Path_47117" d="M23.433 30h-6.666a.267.267 0 0 0 0 .533h6.667a.267.267 0 0 0 0-.533z" class="cls-1" data-name="Path 47117" transform="translate(-7.333 -22)"/>
        <path id="Path_47118" d="M23.433 38h-6.666a.267.267 0 0 0 0 .533h6.667a.267.267 0 0 0 0-.533z" class="cls-1" data-name="Path 47118" transform="translate(-7.333 -27.867)"/>
        <path id="Path_47119" d="M23.433 46h-6.666a.267.267 0 0 0 0 .533h6.667a.267.267 0 0 0 0-.533z" class="cls-1" data-name="Path 47119" transform="translate(-7.333 -33.733)"/>
        <path id="Path_47120" d="M15.144 0H6.5v16h12.533V3.89zm.156.91l2.823 2.823H15.3zM7.033 15.467V.533h7.733v3.734H18.5v11.2z" class="cls-1" data-name="Path 47120"/>
    </g>
</svg>
