<svg width="20" height="16" viewBox="0 0 20 16" fill="none" xmlns="http://www.w3.org/2000/svg">
<path d="M15.4584 5.34801C15.4195 2.70386 13.0959 0.563843 10.2452 0.563843C8.97721 0.563843 7.75555 0.99308 6.8054 1.77249C5.9574 2.46807 5.3773 3.39761 5.14758 4.41817C5.1308 4.418 5.11416 4.41786 5.09756 4.41786C2.66213 4.4179 0.680664 6.2617 0.680664 8.52799C0.680664 10.7943 2.66213 12.6381 5.0976 12.6381H6.71869C6.93816 12.6381 7.11616 12.4725 7.11616 12.2682C7.11616 12.0639 6.93816 11.8984 6.71869 11.8984H5.0976C3.1004 11.8984 1.4756 10.3864 1.4756 8.52799C1.4756 6.66956 3.1004 5.15761 5.0976 5.15761C5.204 5.15761 5.31648 5.16293 5.44152 5.17387C5.65344 5.19216 5.84371 5.05206 5.87258 4.8556C6.01571 3.87938 6.53366 2.98152 7.33107 2.3274C8.13594 1.66715 9.17087 1.30356 10.2452 1.30356C12.6817 1.30356 14.6639 3.1481 14.6639 5.41535C14.6639 5.49698 14.6476 5.70808 14.6476 5.70808C14.6393 5.81688 14.6831 5.92354 14.7672 5.99952C14.8513 6.0755 14.967 6.11296 15.0838 6.10216C15.1895 6.09223 15.2962 6.08725 15.4008 6.08725C17.1225 6.08725 18.5232 7.39068 18.5232 8.9928C18.5232 10.5949 17.1225 11.8983 15.4008 11.8983H13.6207C13.4012 11.8983 13.2232 12.0639 13.2232 12.2682C13.2232 12.4725 13.4012 12.638 13.6207 12.638H15.4008C17.5608 12.638 19.3182 11.0028 19.3182 8.9928C19.3181 7.0008 17.592 5.3768 15.4584 5.34801Z" fill="#87AB49"/>
<path d="M10.9828 3.33373C9.3208 3.33373 7.89809 4.4895 7.67342 6.02211C7.64375 6.2245 7.79613 6.41036 8.01352 6.43857C8.24532 6.46865 8.43388 6.30752 8.46107 6.1221C8.63223 4.9542 9.71634 4.07347 10.9828 4.07347C11.2024 4.07347 11.3803 3.9079 11.3803 3.70362C11.3803 3.4993 11.2023 3.33373 10.9828 3.33373Z" fill="#87AB49"/>
<path d="M12.0844 12.8954C11.9382 12.7431 11.6869 12.7299 11.5232 12.866L10.5671 13.6608V9.11062C10.5671 8.90634 10.3891 8.74077 10.1696 8.74077C9.9501 8.74077 9.77217 8.90634 9.77217 9.11062V13.6608L8.81612 12.866C8.65246 12.7299 8.40111 12.7431 8.25493 12.8954C8.10866 13.0478 8.12279 13.2815 8.28652 13.4177L9.73227 14.6196C9.85695 14.7233 10.0133 14.775 10.1696 14.775C10.3259 14.775 10.4822 14.7232 10.6069 14.6196L12.0527 13.4177C12.2165 13.2816 12.2306 13.0478 12.0844 12.8954Z" fill="#87AB49"/>
<path d="M15.4584 5.34801C15.4195 2.70386 13.0959 0.563843 10.2452 0.563843C8.97721 0.563843 7.75555 0.99308 6.8054 1.77249C5.9574 2.46807 5.3773 3.39761 5.14758 4.41817C5.1308 4.418 5.11416 4.41786 5.09756 4.41786C2.66213 4.4179 0.680664 6.2617 0.680664 8.52799C0.680664 10.7943 2.66213 12.6381 5.0976 12.6381H6.71869C6.93816 12.6381 7.11616 12.4725 7.11616 12.2682C7.11616 12.0639 6.93816 11.8984 6.71869 11.8984H5.0976C3.1004 11.8984 1.4756 10.3864 1.4756 8.52799C1.4756 6.66956 3.1004 5.15761 5.0976 5.15761C5.204 5.15761 5.31648 5.16293 5.44152 5.17387C5.65344 5.19216 5.84371 5.05206 5.87258 4.8556C6.01571 3.87938 6.53366 2.98152 7.33107 2.3274C8.13594 1.66715 9.17087 1.30356 10.2452 1.30356C12.6817 1.30356 14.6639 3.1481 14.6639 5.41535C14.6639 5.49698 14.6476 5.70808 14.6476 5.70808C14.6393 5.81688 14.6831 5.92354 14.7672 5.99952C14.8513 6.0755 14.967 6.11296 15.0838 6.10216C15.1895 6.09223 15.2962 6.08725 15.4008 6.08725C17.1225 6.08725 18.5232 7.39068 18.5232 8.9928C18.5232 10.5949 17.1225 11.8983 15.4008 11.8983H13.6207C13.4012 11.8983 13.2232 12.0639 13.2232 12.2682C13.2232 12.4725 13.4012 12.638 13.6207 12.638H15.4008C17.5608 12.638 19.3182 11.0028 19.3182 8.9928C19.3181 7.0008 17.592 5.3768 15.4584 5.34801Z" stroke="#87AB49" stroke-width="0.8"/>
<path d="M10.9828 3.33373C9.3208 3.33373 7.89809 4.4895 7.67342 6.02211C7.64375 6.2245 7.79613 6.41036 8.01352 6.43857C8.24532 6.46865 8.43388 6.30752 8.46107 6.1221C8.63223 4.9542 9.71634 4.07347 10.9828 4.07347C11.2024 4.07347 11.3803 3.9079 11.3803 3.70362C11.3803 3.4993 11.2023 3.33373 10.9828 3.33373Z" stroke="#87AB49" stroke-width="0.8"/>
<path d="M12.0844 12.8954C11.9382 12.7431 11.6869 12.7299 11.5232 12.866L10.5671 13.6608V9.11062C10.5671 8.90634 10.3891 8.74077 10.1696 8.74077C9.9501 8.74077 9.77217 8.90634 9.77217 9.11062V13.6608L8.81612 12.866C8.65246 12.7299 8.40111 12.7431 8.25493 12.8954C8.10866 13.0478 8.12279 13.2815 8.28652 13.4177L9.73227 14.6196C9.85695 14.7233 10.0133 14.775 10.1696 14.775C10.3259 14.775 10.4822 14.7232 10.6069 14.6196L12.0527 13.4177C12.2165 13.2816 12.2306 13.0478 12.0844 12.8954Z" stroke="#87AB49" stroke-width="0.8"/>
</svg>
