<svg width="514" height="548" viewBox="0 0 514 548" fill="none" xmlns="http://www.w3.org/2000/svg">
<g clip-path="url(#clip0_237_1566)">
<path d="M410.06 380C409.543 380 409.121 379.599 409.121 379.11V312.269C409.121 303.947 406.301 300.992 398.361 300.992H351.846C339 300.992 339 294.334 339 287.285V251.088V232.989V214.89C339 214.401 339.423 214 339.94 214C340.457 214 340.879 214.401 340.879 214.89V232.989V251.088V287.285C340.879 294.468 340.879 299.212 351.846 299.212H398.361C407.457 299.212 411 302.87 411 312.269V379.11C411 379.599 410.577 380 410.06 380Z" fill="#5A78A6"/>
<path d="M115.9 469.83C115.35 469.83 114.9 469.38 114.9 468.83V303.67C114.9 289 122.38 289 130.3 289H216.49C223.88 289 229.89 282.99 229.89 275.6V194.26C229.89 193.71 230.34 193.26 230.89 193.26C231.44 193.26 231.89 193.71 231.89 194.26V275.6C231.89 284.09 224.98 291 216.49 291H130.3C122.23 291 116.9 291 116.9 303.67V468.83C116.9 469.38 116.46 469.83 115.9 469.83Z" fill="#5A78A6"/>
<path d="M236.034 445C235.465 445 235 444.549 235 443.998V333.654C235 318.96 242.732 318.96 250.918 318.96H270.082C277.721 318.96 283.933 312.94 283.933 305.538V194.002C283.933 193.451 284.398 193 284.966 193C285.535 193 286 193.451 286 194.002V305.538C286 314.042 278.858 320.963 270.082 320.963H250.918C242.577 320.963 237.067 320.963 237.067 333.654V444.008C237.067 444.549 236.602 445 236.034 445Z" fill="#5A78A6"/>
<path d="M51.0373 436C50.4668 436 50 435.603 50 435.118V292.919C50 279.98 57.7587 279.98 65.9739 279.98H169.026C176.692 279.98 182.925 274.68 182.925 268.162V222.882C182.925 222.397 183.392 222 183.963 222C184.533 222 185 222.397 185 222.882V268.162C185 275.65 177.833 281.744 169.026 281.744H65.9739C57.6032 281.744 52.0745 281.744 52.0745 292.919V435.118C52.0745 435.612 51.6078 436 51.0373 436Z" fill="#5A78A6"/>
<path d="M182.128 239.606C182.36 239.129 182.935 238.931 183.411 239.163L190.533 242.629C191.009 242.861 191.208 243.436 190.976 243.912L188.35 249.307C188.118 249.784 187.543 249.982 187.067 249.75L179.945 246.284C179.469 246.052 179.27 245.477 179.502 245.001L182.128 239.606Z" fill="#D7DEED"/>
<path d="M182.405 228.663C182.851 227.746 183.96 227.363 184.878 227.81L198.563 234.47C199.48 234.917 199.863 236.026 199.417 236.943L194.366 247.32C193.92 248.237 192.811 248.62 191.893 248.173L178.208 241.513C177.291 241.066 176.908 239.957 177.354 239.04L182.405 228.663Z" fill="#879EC1"/>
<path d="M179.729 239.873C179.935 239.45 180.447 239.266 180.879 239.476L191.759 244.771C192.181 244.977 192.366 245.489 192.155 245.921C191.95 246.344 191.437 246.528 191.006 246.318L180.126 241.023C179.699 240.804 179.523 240.296 179.729 239.873Z" fill="#879EC1"/>
<path d="M226.199 256.197C226.251 255.67 226.721 255.284 227.248 255.336L235.13 256.111C235.658 256.163 236.044 256.633 235.992 257.16L235.405 263.131C235.353 263.659 234.883 264.045 234.356 263.993L226.474 263.218C225.946 263.166 225.56 262.696 225.612 262.169L226.199 256.197Z" fill="#D7DEED"/>
<path d="M222.655 245.841C222.755 244.826 223.662 244.081 224.677 244.181L239.824 245.67C240.839 245.77 241.584 246.677 241.484 247.692L240.356 259.177C240.256 260.192 239.349 260.936 238.333 260.837L223.186 259.348C222.171 259.248 221.426 258.341 221.526 257.326L222.655 245.841Z" fill="#879EC1"/>
<path d="M224.043 257.282C224.089 256.814 224.505 256.463 224.983 256.51L237.025 257.694C237.492 257.74 237.843 258.156 237.796 258.634C237.75 259.101 237.334 259.452 236.856 259.405L224.814 258.222C224.338 258.165 223.997 257.749 224.043 257.282Z" fill="#879EC1"/>
<path d="M278.78 251.414C278.676 250.895 279.012 250.388 279.532 250.284L287.296 248.722C287.816 248.617 288.322 248.954 288.427 249.473L289.61 255.356C289.715 255.875 289.378 256.382 288.859 256.486L281.094 258.048C280.575 258.153 280.068 257.816 279.964 257.296L278.78 251.414Z" fill="#D7DEED"/>
<path d="M272.365 242.545C272.164 241.545 272.814 240.568 273.814 240.367L288.735 237.365C289.735 237.164 290.712 237.814 290.913 238.814L293.189 250.127C293.391 251.127 292.741 252.104 291.741 252.306L276.82 255.308C275.82 255.509 274.842 254.859 274.641 253.859L272.365 242.545Z" fill="#879EC1"/>
<path d="M277.035 253.081C276.942 252.621 277.238 252.163 277.708 252.069L289.571 249.682C290.031 249.589 290.489 249.885 290.583 250.356C290.676 250.816 290.38 251.274 289.91 251.368L278.038 253.757C277.575 253.84 277.127 253.542 277.035 253.081Z" fill="#879EC1"/>
<path d="M332.519 222.81C332.192 222.393 332.265 221.79 332.682 221.462L338.912 216.572C339.328 216.245 339.932 216.318 340.259 216.734L343.964 221.454C344.292 221.871 344.219 222.475 343.802 222.802L337.572 227.692C337.155 228.019 336.552 227.947 336.224 227.53L332.519 222.81Z" fill="#D7DEED"/>
<path d="M322.798 217.779C322.169 216.977 322.309 215.811 323.111 215.182L335.083 205.784C335.885 205.154 337.051 205.294 337.681 206.097L344.806 215.174C345.436 215.976 345.296 217.142 344.493 217.771L332.521 227.169C331.719 227.799 330.554 227.659 329.924 226.856L322.798 217.779Z" fill="#879EC1"/>
<path d="M331.711 225.085C331.421 224.715 331.479 224.174 331.857 223.877L341.375 216.406C341.744 216.116 342.286 216.174 342.582 216.551C342.872 216.921 342.814 217.462 342.437 217.759L332.919 225.23C332.535 225.519 332.002 225.454 331.711 225.085Z" fill="#879EC1"/>
<path d="M55.4401 427.29C55.4401 427.82 55.0101 428.25 54.4801 428.25H46.5601C46.0301 428.25 45.6001 427.82 45.6001 427.29V421.29C45.6001 420.76 46.0301 420.33 46.5601 420.33H54.4801C55.0101 420.33 55.4401 420.76 55.4401 421.29V427.29Z" fill="#D7DEED"/>
<path d="M59.9801 437.24C59.9801 438.26 59.1501 439.09 58.1301 439.09H42.9101C41.8901 439.09 41.0601 438.26 41.0601 437.24V425.7C41.0601 424.68 41.8901 423.85 42.9101 423.85H58.1301C59.1501 423.85 59.9801 424.68 59.9801 425.7V437.24Z" fill="#879EC1"/>
<path d="M57.4802 426C57.4802 426.47 57.1002 426.86 56.6202 426.86H44.5201C44.0501 426.86 43.6602 426.48 43.6602 426C43.6602 425.53 44.0401 425.14 44.5201 425.14H56.6202C57.1002 425.14 57.4802 425.52 57.4802 426Z" fill="#879EC1"/>
<path d="M120.83 464.65C120.83 465.18 120.4 465.61 119.87 465.61H111.95C111.42 465.61 110.99 465.18 110.99 464.65V458.65C110.99 458.12 111.42 457.69 111.95 457.69H119.87C120.4 457.69 120.83 458.12 120.83 458.65V464.65Z" fill="#D7DEED"/>
<path d="M125.36 474.61C125.36 475.63 124.53 476.46 123.51 476.46H108.29C107.27 476.46 106.44 475.63 106.44 474.61V463.07C106.44 462.05 107.27 461.22 108.29 461.22H123.51C124.53 461.22 125.36 462.05 125.36 463.07V474.61Z" fill="#879EC1"/>
<path d="M122.87 463.36C122.87 463.83 122.49 464.22 122.01 464.22H109.91C109.44 464.22 109.05 463.84 109.05 463.36C109.05 462.89 109.43 462.5 109.91 462.5H122.01C122.48 462.51 122.87 462.89 122.87 463.36Z" fill="#879EC1"/>
<path d="M240.69 439.64C240.69 440.17 240.26 440.6 239.73 440.6H231.81C231.28 440.6 230.85 440.17 230.85 439.64V433.64C230.85 433.11 231.28 432.68 231.81 432.68H239.73C240.26 432.68 240.69 433.11 240.69 433.64V439.64Z" fill="#D7DEED"/>
<path d="M245.23 449.6C245.23 450.62 244.4 451.45 243.38 451.45H228.16C227.14 451.45 226.31 450.62 226.31 449.6V438.06C226.31 437.04 227.14 436.21 228.16 436.21H243.38C244.4 436.21 245.23 437.04 245.23 438.06V449.6Z" fill="#879EC1"/>
<path d="M242.73 438.35C242.73 438.82 242.35 439.21 241.87 439.21H229.77C229.3 439.21 228.91 438.83 228.91 438.35C228.91 437.88 229.29 437.49 229.77 437.49H241.87C242.35 437.5 242.73 437.88 242.73 438.35Z" fill="#879EC1"/>
<path d="M414.88 374.58C414.88 375.11 414.45 375.54 413.92 375.54H406C405.47 375.54 405.04 375.11 405.04 374.58V368.58C405.04 368.05 405.47 367.62 406 367.62H413.92C414.45 367.62 414.88 368.05 414.88 368.58V374.58Z" fill="#D7DEED"/>
<path d="M419.41 384.54C419.41 385.56 418.58 386.39 417.56 386.39H402.34C401.32 386.39 400.49 385.56 400.49 384.54V373C400.49 371.98 401.32 371.15 402.34 371.15H417.56C418.58 371.15 419.41 371.98 419.41 373V384.54Z" fill="#879EC1"/>
<path d="M416.91 373.29C416.91 373.76 416.53 374.15 416.05 374.15H403.95C403.48 374.15 403.09 373.77 403.09 373.29C403.09 372.82 403.47 372.43 403.95 372.43H416.05C416.53 372.43 416.91 372.82 416.91 373.29Z" fill="#879EC1"/>
<path d="M507.33 503.03C507.33 504.65 506.09 505.96 504.56 505.96H315.36C313.83 505.96 312.59 504.65 312.59 503.03V381.1C312.59 379.48 313.83 378.16 315.36 378.16H504.56C506.09 378.16 507.33 379.47 507.33 381.1V503.03Z" fill="#D0D9EF"/>
<path d="M499.3 386.38H321V488.12H499.3V386.38Z" fill="#F1F4FB"/>
<path d="M381.769 421.836H337.615C335.067 421.836 333 419.768 333 417.221V397.519C333 394.972 335.067 392.904 337.615 392.904H381.769C384.316 392.904 386.383 394.972 386.383 397.519V417.221C386.383 419.768 384.316 421.836 381.769 421.836Z" fill="#87AB49"/>
<path d="M378.071 417.941V431.2L370.687 417.941H378.071Z" fill="#87AB49"/>
<path d="M377.837 403.051H340.457C339.651 403.051 338.993 402.398 338.993 401.586C338.993 400.78 339.645 400.122 340.457 400.122H377.837C378.643 400.122 379.301 400.774 379.301 401.586C379.301 402.398 378.649 403.051 377.837 403.051Z" fill="white"/>
<path d="M377.837 408.828H340.457C339.651 408.828 338.993 408.176 338.993 407.364C338.993 406.558 339.645 405.899 340.457 405.899H377.837C378.643 405.899 379.301 406.552 379.301 407.364C379.301 408.176 378.649 408.828 377.837 408.828Z" fill="white"/>
<path d="M363.685 414.606H340.457C339.651 414.606 338.993 413.954 338.993 413.142C338.993 412.335 339.645 411.677 340.457 411.677H363.685C364.491 411.677 365.149 412.329 365.149 413.142C365.149 413.948 364.497 414.606 363.685 414.606Z" fill="white"/>
<path d="M485 392.898H417.184C414.422 392.898 412.184 395.137 412.184 397.898V398.051C412.184 400.812 414.422 403.051 417.184 403.051H485C487.761 403.051 490 400.812 490 398.051V397.898C490 395.137 487.761 392.898 485 392.898Z" fill="#D7DEED"/>
<path d="M485 409.53H417.184C414.422 409.53 412.184 411.768 412.184 414.53V414.682C412.184 417.444 414.422 419.682 417.184 419.682H485C487.761 419.682 490 417.444 490 414.682V414.53C490 411.768 487.761 409.53 485 409.53Z" fill="#D7DEED"/>
<path d="M485 426.155H417.184C414.422 426.155 412.184 428.394 412.184 431.155V431.308C412.184 434.069 414.422 436.308 417.184 436.308H485C487.761 436.308 490 434.069 490 431.308V431.155C490 428.394 487.761 426.155 485 426.155Z" fill="#D7DEED"/>
<path d="M417.729 473.921C418.658 469.985 416.221 466.042 412.286 465.112C408.35 464.183 404.407 466.62 403.478 470.555C402.548 474.491 404.985 478.435 408.921 479.364C412.856 480.293 416.8 477.856 417.729 473.921Z" fill="#E7F1D7"/>
<path d="M414.67 472.18L407.926 468.285V476.074L414.67 472.18Z" fill="#87AB49"/>
<path d="M480.256 441.454H339.744C334.362 441.454 330 445.816 330 451.197C330 456.579 334.362 460.941 339.744 460.941H480.256C485.638 460.941 490 456.579 490 451.197C490 445.816 485.638 441.454 480.256 441.454Z" fill="#D7DEED"/>
<path d="M493.24 494.84C493.24 495.09 493.04 495.29 492.79 495.29H483.24C482.99 495.29 482.79 495.09 482.79 494.84V493.38C482.79 493.13 482.99 492.93 483.24 492.93H492.79C493.04 492.93 493.24 493.13 493.24 493.38V494.84Z" fill="#D0D9EF"/>
<path d="M426.27 492.93H393.64V533.81H426.27V492.93Z" fill="#D0D9EF"/>
<path d="M451.06 536V534.41C451.06 532.88 449.82 531.64 448.29 531.64H371.62C370.09 531.64 368.84 532.88 368.84 534.41V536H451.06Z" fill="#D0D9EF"/>
<path d="M304.81 525.08V447.44C304.81 445.3 303.08 443.57 300.94 443.57H170.6C168.46 443.57 166.73 445.3 166.73 447.44V525.08H304.81Z" fill="#D0D9EF"/>
<path d="M144.03 528.89V531.15C144.03 533.29 145.76 535.02 147.9 535.02H323.65C325.79 535.02 327.52 533.29 327.52 531.15V528.89H144.03Z" fill="#D0D9EF"/>
<path d="M225.16 528.89V529.88C225.16 530.82 225.92 531.57 226.85 531.57H244.69C245.63 531.57 246.38 530.81 246.38 529.88V528.89H225.16Z" fill="#D0D9EF"/>
<path d="M155.84 535.02V535.38C155.84 535.72 156.26 536 156.78 536H166.72C167.24 536 167.66 535.72 167.66 535.38V535.02H155.84Z" fill="#D0D9EF"/>
<path d="M303.87 535.02V535.38C303.87 535.72 304.29 536 304.82 536H314.76C315.28 536 315.71 535.72 315.71 535.38V535.02H303.87Z" fill="#D0D9EF"/>
<path d="M327.52 525.08H144.03V528.89H327.52V525.08Z" fill="#D0D9EF"/>
<path d="M300.15 449H172V521.27H300.15V449Z" fill="#F1F4FB"/>
<path d="M161.22 530.09C161.22 530.21 161.12 530.31 161 530.31H159.49C159.37 530.31 159.27 530.21 159.27 530.09V529.82C159.27 529.7 159.37 529.6 159.49 529.6H161C161.12 529.6 161.22 529.7 161.22 529.82V530.09Z" fill="#D0D9EF"/>
<path d="M163.5 530.09C163.5 530.21 163.4 530.31 163.28 530.31H161.77C161.65 530.31 161.55 530.21 161.55 530.09V529.82C161.55 529.7 161.65 529.6 161.77 529.6H163.28C163.4 529.6 163.5 529.7 163.5 529.82V530.09Z" fill="#D0D9EF"/>
<path d="M165.78 530.09C165.78 530.21 165.68 530.31 165.56 530.31H164.05C163.93 530.31 163.83 530.21 163.83 530.09V529.82C163.83 529.7 163.93 529.6 164.05 529.6H165.56C165.68 529.6 165.78 529.7 165.78 529.82V530.09Z" fill="#D0D9EF"/>
<path d="M168.06 530.09C168.06 530.21 167.96 530.31 167.84 530.31H166.33C166.21 530.31 166.11 530.21 166.11 530.09V529.82C166.11 529.7 166.21 529.6 166.33 529.6H167.84C167.96 529.6 168.06 529.7 168.06 529.82V530.09Z" fill="#D0D9EF"/>
<path d="M170.34 530.09C170.34 530.21 170.24 530.31 170.12 530.31H168.61C168.49 530.31 168.39 530.21 168.39 530.09V529.82C168.39 529.7 168.49 529.6 168.61 529.6H170.12C170.24 529.6 170.34 529.7 170.34 529.82V530.09Z" fill="#D0D9EF"/>
<path d="M172.61 530.09C172.61 530.21 172.51 530.31 172.39 530.31H170.88C170.76 530.31 170.66 530.21 170.66 530.09V529.82C170.66 529.7 170.76 529.6 170.88 529.6H172.39C172.51 529.6 172.61 529.7 172.61 529.82V530.09Z" fill="#D0D9EF"/>
<path d="M174.89 530.09C174.89 530.21 174.79 530.31 174.67 530.31H173.16C173.04 530.31 172.94 530.21 172.94 530.09V529.82C172.94 529.7 173.04 529.6 173.16 529.6H174.67C174.79 529.6 174.89 529.7 174.89 529.82V530.09Z" fill="#D0D9EF"/>
<path d="M177.17 530.09C177.17 530.21 177.07 530.31 176.95 530.31H175.44C175.32 530.31 175.22 530.21 175.22 530.09V529.82C175.22 529.7 175.32 529.6 175.44 529.6H176.95C177.07 529.6 177.17 529.7 177.17 529.82V530.09Z" fill="#D0D9EF"/>
<path d="M161.22 531.08C161.22 531.2 161.12 531.3 161 531.3H159.49C159.37 531.3 159.27 531.2 159.27 531.08V530.81C159.27 530.69 159.37 530.59 159.49 530.59H161C161.12 530.59 161.22 530.69 161.22 530.81V531.08Z" fill="#D0D9EF"/>
<path d="M163.5 531.08C163.5 531.2 163.4 531.3 163.28 531.3H161.77C161.65 531.3 161.55 531.2 161.55 531.08V530.81C161.55 530.69 161.65 530.59 161.77 530.59H163.28C163.4 530.59 163.5 530.69 163.5 530.81V531.08Z" fill="#D0D9EF"/>
<path d="M165.78 531.08C165.78 531.2 165.68 531.3 165.56 531.3H164.05C163.93 531.3 163.83 531.2 163.83 531.08V530.81C163.83 530.69 163.93 530.59 164.05 530.59H165.56C165.68 530.59 165.78 530.69 165.78 530.81V531.08Z" fill="#D0D9EF"/>
<path d="M168.06 531.08C168.06 531.2 167.96 531.3 167.84 531.3H166.33C166.21 531.3 166.11 531.2 166.11 531.08V530.81C166.11 530.69 166.21 530.59 166.33 530.59H167.84C167.96 530.59 168.06 530.69 168.06 530.81V531.08Z" fill="#D0D9EF"/>
<path d="M170.34 531.08C170.34 531.2 170.24 531.3 170.12 531.3H168.61C168.49 531.3 168.39 531.2 168.39 531.08V530.81C168.39 530.69 168.49 530.59 168.61 530.59H170.12C170.24 530.59 170.34 530.69 170.34 530.81V531.08Z" fill="#D0D9EF"/>
<path d="M172.61 531.08C172.61 531.2 172.51 531.3 172.39 531.3H170.88C170.76 531.3 170.66 531.2 170.66 531.08V530.81C170.66 530.69 170.76 530.59 170.88 530.59H172.39C172.51 530.59 172.61 530.69 172.61 530.81V531.08Z" fill="#D0D9EF"/>
<path d="M174.89 531.08C174.89 531.2 174.79 531.3 174.67 531.3H173.16C173.04 531.3 172.94 531.2 172.94 531.08V530.81C172.94 530.69 173.04 530.59 173.16 530.59H174.67C174.79 530.59 174.89 530.69 174.89 530.81V531.08Z" fill="#D0D9EF"/>
<path d="M177.17 531.08C177.17 531.2 177.07 531.3 176.95 531.3H175.44C175.32 531.3 175.22 531.2 175.22 531.08V530.81C175.22 530.69 175.32 530.59 175.44 530.59H176.95C177.07 530.59 177.17 530.69 177.17 530.81V531.08Z" fill="#D0D9EF"/>
<path d="M161.22 532.07C161.22 532.19 161.12 532.29 161 532.29H159.49C159.37 532.29 159.27 532.19 159.27 532.07V531.8C159.27 531.68 159.37 531.58 159.49 531.58H161C161.12 531.58 161.22 531.68 161.22 531.8V532.07Z" fill="#D0D9EF"/>
<path d="M163.5 532.07C163.5 532.19 163.4 532.29 163.28 532.29H161.77C161.65 532.29 161.55 532.19 161.55 532.07V531.8C161.55 531.68 161.65 531.58 161.77 531.58H163.28C163.4 531.58 163.5 531.68 163.5 531.8V532.07Z" fill="#D0D9EF"/>
<path d="M165.78 532.07C165.78 532.19 165.68 532.29 165.56 532.29H164.05C163.93 532.29 163.83 532.19 163.83 532.07V531.8C163.83 531.68 163.93 531.58 164.05 531.58H165.56C165.68 531.58 165.78 531.68 165.78 531.8V532.07Z" fill="#D0D9EF"/>
<path d="M168.06 532.07C168.06 532.19 167.96 532.29 167.84 532.29H166.33C166.21 532.29 166.11 532.19 166.11 532.07V531.8C166.11 531.68 166.21 531.58 166.33 531.58H167.84C167.96 531.58 168.06 531.68 168.06 531.8V532.07Z" fill="#D0D9EF"/>
<path d="M170.34 532.07C170.34 532.19 170.24 532.29 170.12 532.29H168.61C168.49 532.29 168.39 532.19 168.39 532.07V531.8C168.39 531.68 168.49 531.58 168.61 531.58H170.12C170.24 531.58 170.34 531.68 170.34 531.8V532.07Z" fill="#D0D9EF"/>
<path d="M172.61 532.07C172.61 532.19 172.51 532.29 172.39 532.29H170.88C170.76 532.29 170.66 532.19 170.66 532.07V531.8C170.66 531.68 170.76 531.58 170.88 531.58H172.39C172.51 531.58 172.61 531.68 172.61 531.8V532.07Z" fill="#D0D9EF"/>
<path d="M174.89 532.07C174.89 532.19 174.79 532.29 174.67 532.29H173.16C173.04 532.29 172.94 532.19 172.94 532.07V531.8C172.94 531.68 173.04 531.58 173.16 531.58H174.67C174.79 531.58 174.89 531.68 174.89 531.8V532.07Z" fill="#D0D9EF"/>
<path d="M177.17 532.07C177.17 532.19 177.07 532.29 176.95 532.29H175.44C175.32 532.29 175.22 532.19 175.22 532.07V531.8C175.22 531.68 175.32 531.58 175.44 531.58H176.95C177.07 531.58 177.17 531.68 177.17 531.8V532.07Z" fill="#D0D9EF"/>
<path d="M161.22 533.06C161.22 533.18 161.12 533.28 161 533.28H159.49C159.37 533.28 159.27 533.18 159.27 533.06V532.79C159.27 532.67 159.37 532.57 159.49 532.57H161C161.12 532.57 161.22 532.67 161.22 532.79V533.06Z" fill="#D0D9EF"/>
<path d="M163.5 533.06C163.5 533.18 163.4 533.28 163.28 533.28H161.77C161.65 533.28 161.55 533.18 161.55 533.06V532.79C161.55 532.67 161.65 532.57 161.77 532.57H163.28C163.4 532.57 163.5 532.67 163.5 532.79V533.06Z" fill="#D0D9EF"/>
<path d="M165.78 533.06C165.78 533.18 165.68 533.28 165.56 533.28H164.05C163.93 533.28 163.83 533.18 163.83 533.06V532.79C163.83 532.67 163.93 532.57 164.05 532.57H165.56C165.68 532.57 165.78 532.67 165.78 532.79V533.06Z" fill="#D0D9EF"/>
<path d="M168.06 533.06C168.06 533.18 167.96 533.28 167.84 533.28H166.33C166.21 533.28 166.11 533.18 166.11 533.06V532.79C166.11 532.67 166.21 532.57 166.33 532.57H167.84C167.96 532.57 168.06 532.67 168.06 532.79V533.06Z" fill="#D0D9EF"/>
<path d="M170.34 533.06C170.34 533.18 170.24 533.28 170.12 533.28H168.61C168.49 533.28 168.39 533.18 168.39 533.06V532.79C168.39 532.67 168.49 532.57 168.61 532.57H170.12C170.24 532.57 170.34 532.67 170.34 532.79V533.06Z" fill="#D0D9EF"/>
<path d="M172.61 533.06C172.61 533.18 172.51 533.28 172.39 533.28H170.88C170.76 533.28 170.66 533.18 170.66 533.06V532.79C170.66 532.67 170.76 532.57 170.88 532.57H172.39C172.51 532.57 172.61 532.67 172.61 532.79V533.06Z" fill="#D0D9EF"/>
<path d="M174.89 533.06C174.89 533.18 174.79 533.28 174.67 533.28H173.16C173.04 533.28 172.94 533.18 172.94 533.06V532.79C172.94 532.67 173.04 532.57 173.16 532.57H174.67C174.79 532.57 174.89 532.67 174.89 532.79V533.06Z" fill="#D0D9EF"/>
<path d="M177.17 533.06C177.17 533.18 177.07 533.28 176.95 533.28H175.44C175.32 533.28 175.22 533.18 175.22 533.06V532.79C175.22 532.67 175.32 532.57 175.44 532.57H176.95C177.07 532.57 177.17 532.67 177.17 532.79V533.06Z" fill="#D0D9EF"/>
<path d="M292.26 531.57C292.26 532.32 291.65 532.93 290.9 532.93C290.15 532.93 289.54 532.32 289.54 531.57C289.54 530.82 290.15 530.21 290.9 530.21C291.65 530.21 292.26 530.82 292.26 531.57Z" fill="#D0D9EF"/>
<path d="M291.95 531.57C291.95 532.15 291.48 532.63 290.89 532.63C290.31 532.63 289.84 532.16 289.84 531.57C289.84 530.99 290.31 530.51 290.89 530.51C291.48 530.51 291.95 530.99 291.95 531.57Z" fill="#D0D9EF"/>
<path d="M295.98 531.57C295.98 532.32 295.37 532.93 294.62 532.93C293.87 532.93 293.26 532.32 293.26 531.57C293.26 530.82 293.87 530.21 294.62 530.21C295.37 530.21 295.98 530.82 295.98 531.57Z" fill="#D0D9EF"/>
<path d="M295.68 531.57C295.68 532.15 295.21 532.63 294.63 532.63C294.05 532.63 293.57 532.16 293.57 531.57C293.57 530.99 294.04 530.51 294.63 530.51C295.2 530.51 295.68 530.99 295.68 531.57Z" fill="#D0D9EF"/>
<path d="M300.144 449H172.144V522.038H300.144V449Z" fill="#F1F4FB"/>
<path d="M215.769 474.453H184.071C182.242 474.453 180.758 472.969 180.758 471.14V456.997C180.758 455.168 182.242 453.684 184.071 453.684H215.769C217.597 453.684 219.081 455.168 219.081 456.997V471.14C219.081 472.969 217.597 474.453 215.769 474.453Z" fill="#87AB49"/>
<path d="M213.114 471.657V481.176L207.813 471.657H213.114Z" fill="#87AB49"/>
<path d="M212.946 460.968H186.112C185.533 460.968 185.06 460.499 185.06 459.916C185.06 459.338 185.529 458.865 186.112 458.865H212.946C213.525 458.865 213.997 459.333 213.997 459.916C213.997 460.499 213.529 460.968 212.946 460.968Z" fill="white"/>
<path d="M212.946 465.115H186.112C185.533 465.115 185.06 464.647 185.06 464.064C185.06 463.485 185.529 463.013 186.112 463.013H212.946C213.525 463.013 213.997 463.481 213.997 464.064C213.997 464.647 213.529 465.115 212.946 465.115Z" fill="white"/>
<path d="M202.786 469.263H186.112C185.533 469.263 185.06 468.795 185.06 468.212C185.06 467.633 185.529 467.161 186.112 467.161H202.786C203.365 467.161 203.838 467.629 203.838 468.212C203.838 468.79 203.369 469.263 202.786 469.263Z" fill="white"/>
<path d="M289.878 453.679H241.193C239.211 453.679 237.604 455.286 237.604 457.269V457.378C237.604 459.361 239.211 460.968 241.193 460.968H289.878C291.86 460.968 293.467 459.361 293.467 457.378V457.269C293.467 455.286 291.86 453.679 289.878 453.679Z" fill="#D7DEED"/>
<path d="M289.878 465.619H241.193C239.211 465.619 237.604 467.226 237.604 469.208V469.318C237.604 471.3 239.211 472.907 241.193 472.907H289.878C291.86 472.907 293.467 471.3 293.467 469.318V469.208C293.467 467.226 291.86 465.619 289.878 465.619Z" fill="#D7DEED"/>
<path d="M289.878 477.554H241.193C239.211 477.554 237.604 479.161 237.604 481.144V481.253C237.604 483.235 239.211 484.843 241.193 484.843H289.878C291.86 484.843 293.467 483.235 293.467 481.253V481.144C293.467 479.161 291.86 477.554 289.878 477.554Z" fill="#D7DEED"/>
<path d="M241.584 511.845C242.252 509.019 240.502 506.188 237.677 505.521C234.852 504.854 232.02 506.604 231.353 509.429C230.686 512.254 232.436 515.085 235.261 515.752C238.086 516.419 240.917 514.67 241.584 511.845Z" fill="#E7F1D7"/>
<path d="M239.388 510.595L234.547 507.799V513.391L239.388 510.595Z" fill="#87AB49"/>
<path d="M286.472 488.537H185.599C181.736 488.537 178.604 491.669 178.604 495.532C178.604 499.395 181.736 502.527 185.599 502.527H286.472C290.335 502.527 293.467 499.395 293.467 495.532C293.467 491.669 290.335 488.537 286.472 488.537Z" fill="#D7DEED"/>
<path d="M77.52 431.7C77.52 432.12 77.18 432.45 76.77 432.45H68.25C67.83 432.45 67.5 432.11 67.5 431.7V431.12C67.5 430.71 67.84 430.37 68.25 430.37H76.77C77.19 430.37 77.52 430.71 77.52 431.12V431.7Z" fill="#D0D9EF"/>
<path d="M8.01991 445.49C8.28991 445.49 8.49991 445.63 8.49991 445.8V449.36C8.49991 449.53 8.27991 449.67 8.01991 449.67H7.63991C7.36991 449.67 7.15991 449.53 7.15991 449.36V445.8C7.15991 445.63 7.37991 445.49 7.63991 445.49H8.01991Z" fill="#D0D9EF"/>
<path d="M8.01991 450.48C8.28991 450.48 8.49991 450.62 8.49991 450.8V454.36C8.49991 454.53 8.27991 454.67 8.01991 454.67H7.63991C7.36991 454.67 7.15991 454.53 7.15991 454.36V450.8C7.15991 450.63 7.37991 450.48 7.63991 450.48H8.01991Z" fill="#D0D9EF"/>
<path d="M87.3098 534.34C87.3098 535.26 86.5698 536 85.6498 536H9.48983C8.56983 536 7.82983 535.26 7.82983 534.34V433.06C7.82983 432.14 8.56983 431.4 9.48983 431.4H85.6598C86.5798 431.4 87.3198 432.14 87.3198 433.06V534.34H87.3098Z" fill="#D0D9EF"/>
<path d="M81.3198 437.32H13.8198V526.39H81.3198V437.32Z" fill="#F1F4FB"/>
<path d="M54.37 531.59C54.37 531.91 54.11 532.18 53.78 532.18H41.36C41.04 532.18 40.77 531.92 40.77 531.59V529.7C40.77 529.38 41.03 529.12 41.36 529.12H53.78C54.1 529.12 54.37 529.38 54.37 529.7V531.59Z" fill="#D0D9EF"/>
<path d="M120.4 468.83C120.4 469.23 120.07 469.56 119.67 469.56H112.14C111.74 469.56 111.41 469.23 111.41 468.83C111.41 468.43 111.74 468.1 112.14 468.1H119.67C120.07 468.1 120.4 468.43 120.4 468.83Z" fill="#D0D9EF"/>
<path d="M135.44 532.95C135.44 534.63 129.53 536 122.25 536H109.55C102.27 536 96.3599 534.64 96.3599 532.95V471.88C96.3599 470.2 102.26 468.83 109.55 468.83H122.25C129.53 468.83 135.44 470.19 135.44 471.88V532.95Z" fill="#D0D9EF"/>
<path d="M132.27 476H99.5398V526.47H132.27V476Z" fill="#F1F4FB"/>
<path d="M120.4 473.23C120.4 473.63 120.07 473.96 119.67 473.96H112.14C111.74 473.96 111.41 473.63 111.41 473.23C111.41 472.82 111.74 472.5 112.14 472.5H119.67C120.07 472.49 120.4 472.82 120.4 473.23Z" fill="#D0D9EF"/>
<path d="M121.4 531.37C121.4 532.32 120.63 533.09 119.68 533.09H112.13C111.18 533.09 110.41 532.32 110.41 531.37V529.88C110.41 528.93 111.18 528.16 112.13 528.16H119.68C120.63 528.16 121.4 528.93 121.4 529.88V531.37Z" fill="#D0D9EF"/>
<circle cx="247.057" cy="129" r="110.618" fill="url(#paint0_linear_237_1566)"/>
<path fill-rule="evenodd" clip-rule="evenodd" d="M122.224 168.312C124.129 165.958 127.778 166.315 129.285 168.94C130.252 170.624 129.994 172.738 128.706 174.192C121.2 182.667 117.963 189.262 120.121 193.02C127.054 205.094 187.054 183.315 254.135 144.376C256.45 143.032 258.743 141.686 261.013 140.337C261.801 139.87 262.254 139.004 262.254 138.088C262.254 122.586 274.821 110.019 290.323 110.019C293.087 110.019 295.758 110.418 298.281 111.163C301.497 112.112 305.067 112.008 307.802 110.068C345.154 83.5687 367.927 60.5182 363.041 52.0095C360.981 48.4222 354.237 47.8232 344.014 49.7749C342.172 50.1265 340.288 49.3095 339.354 47.6832C337.887 45.1281 339.385 41.8875 342.3 41.461C362.382 38.5228 376.627 40.9769 381.62 49.6721C390.972 65.9577 365.239 99.5548 320.442 133.717C319.097 134.743 318.392 136.396 318.392 138.088C318.392 153.59 305.825 166.157 290.323 166.157C287.441 166.157 284.66 165.723 282.043 164.916C279.032 163.988 275.712 163.993 273.004 165.605C271.268 166.639 269.517 167.667 267.754 168.691C192.279 212.502 120.891 230.248 108.303 208.327C103.137 199.33 108.677 185.051 122.224 168.312Z" fill="#D7DEED"/>
<circle cx="290.324" cy="138.088" r="14.0346" fill="#87AB49"/>
<g opacity="0.32">
<path d="M190.371 91.1678C183.563 107.978 185.711 125.704 177.361 122.323C169.011 118.941 167.76 102.573 174.568 85.7626C181.376 68.9528 193.664 58.067 202.014 61.4487C210.364 64.8303 197.178 74.3579 190.371 91.1678Z" fill="#EAEBEF"/>
<path d="M185.129 139.022C185.737 144.558 183.174 149.381 179.404 149.796C175.634 150.21 172.085 146.058 171.477 140.522C170.869 134.987 173.432 130.163 177.202 129.749C180.972 129.335 184.521 133.487 185.129 139.022Z" fill="#EAEBEF"/>
</g>
<path opacity="0.1" d="M214.398 213.271C210.554 211.05 212.397 207.328 221.733 204.234C241.42 199.912 238.098 208.648 266.428 205.287C294.758 201.926 309.693 190.247 317.216 182.564C323.234 176.418 328.797 168.101 328.53 171.035C327.25 177.277 316.91 193.731 285.795 209.609C246.901 229.456 220.292 216.676 214.398 213.271Z" fill="black"/>
<path d="M339.477 67.7548C343.128 65.3357 344.146 60.3963 341.489 56.9151C324.601 34.7896 300.412 19.223 273.091 13.0866C243.182 6.36904 211.835 11.4722 185.601 27.3293C159.367 43.1863 140.278 68.5698 132.324 98.1736C125.058 125.217 127.598 153.869 139.338 179.106C141.186 183.077 146.032 184.471 149.871 182.363C153.71 180.255 155.083 175.445 153.276 171.456C143.482 149.823 141.436 125.379 147.64 102.289C154.532 76.6368 171.073 54.6417 193.805 40.9014C216.536 27.1611 243.699 22.7392 269.616 28.56C292.943 33.7995 313.635 46.9728 328.237 65.6998C330.93 69.1534 335.827 70.174 339.477 67.7548Z" fill="#D7DEED"/>
<path d="M179.305 216.763C176.629 220.229 177.257 225.233 180.894 227.672C197.901 239.076 217.609 245.917 238.117 247.465C261.267 249.212 284.421 244.138 304.719 232.87C325.017 221.602 341.568 204.634 352.328 184.062C361.86 165.838 366.477 145.494 365.792 125.029C365.646 120.652 361.731 117.473 357.373 117.911C353.016 118.349 349.871 122.239 349.972 126.617C350.375 143.993 346.371 161.235 338.275 176.712C328.952 194.537 314.61 209.24 297.022 219.004C279.433 228.768 259.37 233.165 239.31 231.651C221.894 230.336 205.142 224.616 190.608 215.085C186.946 212.684 181.982 213.296 179.305 216.763Z" fill="#D7DEED"/>
<path d="M109 501.55C110.977 499.904 113.468 499.002 116.04 499.002C118.612 499.002 121.103 499.904 123.08 501.55" stroke="#9BC256" stroke-width="2" stroke-linecap="round" stroke-linejoin="round"/>
<path d="M105.42 498C108.342 495.424 112.104 494.003 116 494.003C119.896 494.003 123.657 495.424 126.58 498" stroke="#9BC256" stroke-width="2" stroke-linecap="round" stroke-linejoin="round"/>
<path d="M112.53 505.11C113.545 504.389 114.76 504.001 116.005 504.001C117.25 504.001 118.465 504.389 119.48 505.11" stroke="#9BC256" stroke-width="2" stroke-linecap="round" stroke-linejoin="round"/>
<path d="M116 509H116.01" stroke="#9BC256" stroke-width="2" stroke-linecap="round" stroke-linejoin="round"/>
<path d="M131.866 476H100.134C99.5064 476 99 476.449 99 477V516.589V526C99 526.553 99.5096 527 100.134 527H131.866C132.494 527 133 526.551 133 526V486.604V477C133 476.449 132.494 476 131.866 476Z" fill="#F1F4FB"/>
<path d="M117.059 487.118H105.831C105.182 487.118 104.657 486.593 104.657 485.944V480.934C104.657 480.286 105.182 479.76 105.831 479.76H117.059C117.707 479.76 118.233 480.286 118.233 480.934V485.944C118.233 486.593 117.707 487.118 117.059 487.118Z" fill="#87AB49"/>
<path d="M116.118 486.127V489.5L114.242 486.127H116.118Z" fill="#87AB49"/>
<path d="M116.059 482.341H106.556C106.35 482.341 106.185 482.176 106.185 481.971C106.185 481.766 106.35 481.6 106.556 481.6H116.059C116.264 481.6 116.43 481.766 116.43 481.971C116.433 482.176 116.264 482.341 116.059 482.341Z" fill="#F1F4FB"/>
<path d="M116.059 483.81H106.556C106.35 483.81 106.185 483.644 106.185 483.439C106.185 483.234 106.35 483.069 106.556 483.069H116.059C116.264 483.069 116.43 483.234 116.43 483.439C116.433 483.644 116.264 483.81 116.059 483.81Z" fill="#F1F4FB"/>
<path d="M112.462 485.279H106.556C106.35 485.279 106.185 485.113 106.185 484.908C106.185 484.703 106.35 484.537 106.556 484.537H112.462C112.667 484.537 112.832 484.703 112.832 484.908C112.832 485.113 112.667 485.279 112.462 485.279Z" fill="#F1F4FB"/>
<path d="M127.02 491.637H105.205C104.35 491.637 103.657 492.33 103.657 493.184C103.657 494.039 104.35 494.732 105.205 494.732H127.02C127.875 494.732 128.567 494.039 128.567 493.184C128.567 492.33 127.875 491.637 127.02 491.637Z" fill="#D7DEED"/>
<path d="M127.02 496.706H105.205C104.35 496.706 103.657 497.399 103.657 498.253C103.657 499.108 104.35 499.801 105.205 499.801H127.02C127.875 499.801 128.567 499.108 128.567 498.253C128.567 497.399 127.875 496.706 127.02 496.706Z" fill="#D7DEED"/>
<path d="M127.02 501.775H105.205C104.35 501.775 103.657 502.468 103.657 503.323C103.657 504.177 104.35 504.87 105.205 504.87H127.02C127.875 504.87 128.567 504.177 128.567 503.323C128.567 502.468 127.875 501.775 127.02 501.775Z" fill="#D7DEED"/>
<path d="M116 523.394C117.846 523.394 119.342 521.898 119.342 520.052C119.342 518.206 117.846 516.71 116 516.71C114.154 516.71 112.658 518.206 112.658 520.052C112.658 521.898 114.154 523.394 116 523.394Z" fill="#E7F1D7"/>
<path d="M117.851 520.052L114.773 518.274V521.83L117.851 520.052Z" fill="#87AB49"/>
<path d="M78.7659 437H16.2342C14.9979 437 14 437.793 14 438.764V508.628V525.236C14 526.212 15.0042 527 16.2342 527H78.7659C80.0022 527 81 526.207 81 525.236V455.714V438.764C81 437.793 80.0022 437 78.7659 437Z" fill="#F1F4FB"/>
<path d="M49.5863 456.621H27.4608C26.1824 456.621 25.1475 455.694 25.1475 454.549V445.708C25.1475 444.563 26.1824 443.636 27.4608 443.636H49.5863C50.8646 443.636 51.8995 444.563 51.8995 445.708V454.549C51.8995 455.694 50.8646 456.621 49.5863 456.621Z" fill="#87AB49"/>
<path d="M47.7322 454.871V460.823L44.0354 454.871H47.7322Z" fill="#87AB49"/>
<path d="M47.616 448.19H28.8884C28.4844 448.19 28.158 447.898 28.158 447.536C28.158 447.174 28.4844 446.882 28.8884 446.882H47.616C48.02 446.882 48.3465 447.174 48.3465 447.536C48.352 447.898 48.02 448.19 47.616 448.19Z" fill="white"/>
<path d="M47.616 450.782H28.8884C28.4844 450.782 28.158 450.49 28.158 450.128C28.158 449.766 28.4844 449.474 28.8884 449.474H47.616C48.02 449.474 48.3465 449.766 48.3465 450.128C48.352 450.49 48.02 450.782 47.616 450.782Z" fill="white"/>
<path d="M40.5268 453.375H28.8884C28.4844 453.375 28.158 453.082 28.158 452.72C28.158 452.359 28.4844 452.066 28.8884 452.066H40.5268C40.9307 452.066 41.2572 452.359 41.2572 452.72C41.2572 453.082 40.9307 453.375 40.5268 453.375Z" fill="white"/>
<path d="M70.2653 464.595H25.1775C24.0729 464.595 23.1775 465.49 23.1775 466.595V468.056C23.1775 469.161 24.0729 470.056 25.1775 470.056H70.2653C71.3699 470.056 72.2653 469.161 72.2653 468.056V466.595C72.2653 465.49 71.3699 464.595 70.2653 464.595Z" fill="#D7DEED"/>
<path d="M70.2653 473.54H25.1775C24.0729 473.54 23.1775 474.435 23.1775 475.54V477.002C23.1775 478.106 24.0729 479.002 25.1775 479.002H70.2653C71.3699 479.002 72.2653 478.106 72.2653 477.002V475.54C72.2653 474.435 71.3699 473.54 70.2653 473.54Z" fill="#D7DEED"/>
<path d="M70.2653 482.486H25.1775C24.0729 482.486 23.1775 483.381 23.1775 484.486V485.947C23.1775 487.052 24.0729 487.947 25.1775 487.947H70.2653C71.3699 487.947 72.2653 487.052 72.2653 485.947V484.486C72.2653 483.381 71.3699 482.486 70.2653 482.486Z" fill="#D7DEED"/>
<path d="M47.4999 520.636C51.1371 520.636 54.0856 517.996 54.0856 514.739C54.0856 511.482 51.1371 508.841 47.4999 508.841C43.8628 508.841 40.9143 511.482 40.9143 514.739C40.9143 517.996 43.8628 520.636 47.4999 520.636Z" fill="#E7F1D7"/>
<path d="M51.1469 514.739L45.0815 511.602V517.876L51.1469 514.739Z" fill="#87AB49"/>
</g>
<defs>
<linearGradient id="paint0_linear_237_1566" x1="129.748" y1="-60.184" x2="297.088" y2="224.915" gradientUnits="userSpaceOnUse">
<stop offset="0.394669" stop-color="#FF3A3A"/>
<stop offset="0.72037" stop-color="#D64D12"/>
<stop offset="0.749987" stop-color="#70AF09"/>
</linearGradient>
<clipPath id="clip0_237_1566">
<rect width="514" height="548" fill="white"/>
</clipPath>
</defs>
</svg>
