<svg width="50" height="50" viewBox="0 0 50 50" fill="none" xmlns="http://www.w3.org/2000/svg">
<circle opacity="0.24" cx="25" cy="25" r="25" fill="#9BC256"/>
<g clip-path="url(#clip0_231_5342)">
<path d="M16.25 16.25C14.2976 17.3295 12.7623 19.031 11.8882 21.0836C11.0142 23.1363 10.8517 25.4223 11.4265 27.5779C12.0014 29.7336 13.2806 31.6351 15.0606 32.98C16.8406 34.3249 19.0193 35.0359 21.25 35H32.5C33.2247 34.9991 33.9438 34.8723 34.625 34.625M38.2625 31.1875C38.6652 30.2366 38.8261 29.2008 38.7307 28.1726C38.6353 27.1443 38.2866 26.1558 37.7158 25.2952C37.145 24.4347 36.3698 23.729 35.4597 23.2412C34.5495 22.7534 33.5326 22.4988 32.5 22.5H30.925C30.4147 20.4906 29.2926 18.6895 27.7138 17.3458C26.135 16.0022 24.1776 15.1824 22.1125 15L38.2625 31.1875Z" stroke="#87AB49" stroke-width="1.75" stroke-linecap="round" stroke-linejoin="round"/>
<path d="M11.25 11.25L38.75 38.75" stroke="#87AB49" stroke-width="1.75" stroke-linecap="round" stroke-linejoin="round"/>
</g>
<defs>
<clipPath id="clip0_231_5342">
<rect width="30" height="30" fill="white" transform="translate(10 10)"/>
</clipPath>
</defs>
</svg>
