<svg width="380" height="227" viewBox="0 0 380 227" fill="none" xmlns="http://www.w3.org/2000/svg">
<g clip-path="url(#clip0_239_2547)">
<rect width="380" height="227" rx="10" fill="#F0F3FA"/>
<path opacity="0.1" d="M30.7758 227V166.131L36.1136 171.656H16.9163V161.448H42.9497V227H30.7758Z" fill="#233654"/>
<path d="M273.515 87.5894H208.773C206.134 87.5894 204 85.4477 204 82.8166V30.7728C204 28.1337 206.134 26 208.773 26H273.515C276.154 26 278.288 28.1418 278.288 30.7728V82.8086C278.296 85.4557 276.154 87.5894 273.515 87.5894Z" fill="#D7DEED"/>
<path d="M125.214 158.409C120.682 158.409 117.008 154.735 117.008 150.203V78.8596C117.008 75.2258 120.153 72.29 124.027 72.29H130.733C133.469 72.29 135.955 70.7979 137.102 68.4717L138.546 65.5438C139.693 63.2176 142.18 61.7256 144.915 61.7256H176.761C179.239 61.7256 181.542 62.9529 182.801 64.9583L184.365 67.4369C185.625 69.4343 187.927 70.6696 190.405 70.6696H231.002C234.877 70.6696 238.021 73.6135 238.021 77.2393V150.203C238.021 154.735 234.347 158.409 229.815 158.409H125.214Z" fill="white"/>
<g opacity="0.3">
<path d="M125.214 158.409C120.682 158.409 117.008 154.735 117.008 150.203V78.8596C117.008 75.2258 120.153 72.29 124.027 72.29H130.733C133.469 72.29 135.955 70.7979 137.102 68.4717L138.546 65.5438C139.693 63.2176 142.18 61.7256 144.915 61.7256H176.761C179.239 61.7256 181.542 62.9529 182.801 64.9583L184.365 67.4369C185.625 69.4343 187.927 70.6696 190.405 70.6696H231.002C234.877 70.6696 238.021 73.6135 238.021 77.2393V150.203C238.021 154.735 234.347 158.409 229.815 158.409H125.214Z" fill="#879EC1"/>
</g>
<path d="M186.402 70.6616L160.581 70.6054L158.271 66.2898C156.771 63.4903 153.723 61.7256 150.378 61.7256H125.134C120.642 61.7256 117 65.1347 117 69.3461V72.29V149.754C117 154.535 121.139 158.409 126.241 158.409H228.772C233.874 158.409 238.013 154.535 238.013 149.754V76.5735C238.013 73.3087 235.366 70.6616 232.101 70.6616H186.402Z" fill="white"/>
<path d="M264.67 203.44H108.7C105.04 203.44 102.07 200.47 102.07 196.81V194.87C102.07 191.21 105.04 188.24 108.7 188.24H264.66C268.32 188.24 271.29 191.21 271.29 194.87V196.81C271.29 200.47 268.32 203.44 264.67 203.44Z" fill="white"/>
<path d="M180.06 203.44H108.7C105.04 203.44 102.07 200.47 102.07 196.81V194.87C102.07 191.21 105.04 188.24 108.7 188.24H180.06C183.72 188.24 186.69 191.21 186.69 194.87V196.81C186.68 200.47 183.72 203.44 180.06 203.44Z" fill="#9BC256"/>
<g opacity="0.3">
<path d="M114.86 188.25L105.85 202.54L107.26 203.17C107.66 203.35 108.09 203.44 108.52 203.44H111.38L121.16 188.25H114.86Z" fill="white"/>
</g>
<g opacity="0.3">
<path d="M130.95 188.25L121.38 203.44H127.49L137.27 188.25H130.95Z" fill="white"/>
</g>
<g opacity="0.3">
<path d="M147.05 188.25L137.47 203.44H143.59L153.36 188.25H147.05Z" fill="white"/>
</g>
<g opacity="0.3">
<path d="M163.14 188.25L153.57 203.44H159.68L169.46 188.25H163.14Z" fill="white"/>
</g>
<g opacity="0.3">
<path d="M179.24 188.25L169.67 203.44H175.78L183.48 191.47L184.39 190.17C183.21 188.87 181.4 188.34 179.24 188.25Z" fill="white"/>
</g>
<path fill-rule="evenodd" clip-rule="evenodd" d="M227.84 60.2598C228.095 59.9449 228.583 59.9926 228.785 60.344C228.914 60.5693 228.879 60.8521 228.707 61.0466C227.703 62.1806 227.27 63.063 227.558 63.5659C228.486 65.1814 236.514 62.2673 245.49 57.0572C254.465 51.8471 260.99 46.3138 260.062 44.6983C259.786 44.2183 258.884 44.1381 257.516 44.3993C257.269 44.4463 257.017 44.337 256.892 44.1194C256.696 43.7775 256.897 43.3439 257.287 43.2869C259.974 42.8937 261.88 43.2221 262.548 44.3855C264.232 47.3186 257.411 54.4485 247.312 60.3106C237.213 66.1727 227.661 68.5471 225.977 65.614C225.286 64.4102 226.027 62.4996 227.84 60.2598Z" fill="white"/>
<path d="M256.909 46.8052C257.397 46.4815 257.534 45.8206 257.178 45.3548C254.918 42.3943 251.682 40.3115 248.026 39.4904C244.024 38.5916 239.83 39.2744 236.32 41.3961C232.81 43.5178 230.255 46.9142 229.191 50.8753C228.219 54.4937 228.559 58.3275 230.13 61.7043C230.377 62.2356 231.025 62.4221 231.539 62.1401C232.053 61.858 232.236 61.2144 231.995 60.6806C230.684 57.7861 230.41 54.5154 231.24 51.4259C232.163 47.9936 234.376 45.0506 237.417 43.2121C240.459 41.3736 244.094 40.7819 247.561 41.5608C250.682 42.2618 253.451 44.0245 255.405 46.5302C255.765 46.9923 256.42 47.1288 256.909 46.8052Z" fill="white"/>
<path d="M235.477 66.7429C235.119 67.2068 235.203 67.8763 235.69 68.2026C237.966 69.7285 240.603 70.6438 243.347 70.8509C246.444 71.0847 249.542 70.4058 252.258 68.8981C254.974 67.3904 257.189 65.12 258.628 62.3675C259.904 59.929 260.521 57.2069 260.43 54.4686C260.41 53.883 259.886 53.4577 259.303 53.5163C258.72 53.5749 258.3 54.0953 258.313 54.6811C258.367 57.0061 257.831 59.3131 256.748 61.384C255.501 63.7691 253.582 65.7364 251.228 67.0428C248.875 68.3492 246.19 68.9375 243.506 68.735C241.176 68.5591 238.934 67.7937 236.99 66.5185C236.5 66.1972 235.835 66.2791 235.477 66.7429Z" fill="white"/>
<path d="M193.359 102.032C192.67 102.032 192.008 102.082 191.32 102.208C189.587 95.0992 183.164 90 175.544 90C166.598 90 159.309 97.184 159.309 106.001C159.309 106.905 159.385 107.784 159.538 108.688C154.747 109.065 151 113.034 151 117.832C151 122.881 155.18 127 160.303 127H193.333C200.316 127 206 121.399 206 114.516C206.025 107.633 200.342 102.032 193.359 102.032Z" fill="#D7DEED"/>
<path d="M198.851 133.447C198.569 132.737 197.852 132.255 197.084 132.255H192.704C192.243 120.692 187.479 113.82 177.414 110.117C176.082 109.635 174.674 109.255 173.214 109.027C172.317 108.875 171.421 109.382 171.114 110.244C170.806 111.106 171.139 112.044 171.908 112.526C177.926 116.178 180.667 122.112 180.974 132.255H176.748C175.98 132.255 175.263 132.712 174.981 133.422C174.674 134.132 174.853 134.944 175.391 135.501L185.431 145.442C185.815 145.822 186.301 146 186.788 146C187.275 146 187.761 145.823 188.12 145.467L198.416 135.527C198.979 134.994 199.158 134.157 198.851 133.447Z" fill="#9BC256"/>
</g>
<defs>
<clipPath id="clip0_239_2547">
<rect width="380" height="227" rx="10" fill="white"/>
</clipPath>
</defs>
</svg>
