<svg width="202" height="202" viewBox="0 0 202 202" fill="none" xmlns="http://www.w3.org/2000/svg">
<rect x="1" y="1" width="200" height="200" rx="100" fill="#87AB49"/>
<path d="M182.637 39.7343V138.468H20.8944V39.7343C20.8944 33.2292 26.1667 27.9569 32.6718 27.9569H170.859C177.364 27.9569 182.637 33.2292 182.637 39.7343Z" fill="#2E3D51"/>
<path d="M6.78125 160.008C6.78125 167.758 13.0664 174.043 20.8159 174.043H181.18C188.934 174.043 195.219 167.758 195.219 160.008H6.78125Z" fill="#B0D0FF"/>
<path d="M182.703 138.468H182.637H20.9651L6.78125 160.008H195.219L182.703 138.468Z" fill="#D9F3FF"/>
<path d="M123.711 149.236L127.581 160.008H75.9535L79.8204 149.236C80.0442 148.616 80.637 148.2 81.3004 148.2H122.235C122.898 148.2 123.487 148.616 123.711 149.236Z" fill="#C4E3FA"/>
<path d="M170.632 40.1268V127.629H31.3684V40.1268H170.632Z" fill="#87AB49"/>
<path d="M133.639 73.0563C133.58 71.537 133.329 70.0334 132.897 68.5809C130.027 58.9784 119.918 53.5216 110.32 56.3874C105.491 50.6126 98.3501 47.2757 90.8204 47.2796C76.7936 47.2835 65.4245 58.6604 65.4324 72.6912C65.4324 73.0955 65.4402 73.496 65.4599 73.8964C58.4524 76.5895 53.8278 83.3183 53.8239 90.8244C53.816 100.851 61.9384 108.985 71.9649 108.993H130.027C138.656 108.989 146.088 102.916 147.807 94.4596C149.805 84.6373 143.465 75.0545 133.639 73.0563Z" fill="white"/>
<path d="M111.109 112.134H106.818C106.005 112.134 105.35 111.478 105.346 110.666L105.284 106.577C105.249 104.22 103.327 102.327 100.969 102.327C98.5861 102.327 96.654 104.259 96.654 106.642V110.666C96.6501 111.478 95.9945 112.134 95.1819 112.134H90.891C88.669 112.134 87.3303 114.591 88.5316 116.46L98.6366 132.183C99.7436 133.902 102.256 133.902 103.363 132.183L113.468 116.46C114.669 114.591 113.331 112.134 111.109 112.134Z" fill="#FB1B43"/>
<path d="M18.5586 160.008H6.78125C6.78125 167.758 13.0664 174.043 20.8159 174.043H32.5933C24.8438 174.043 18.5586 167.758 18.5586 160.008Z" fill="#87AEDD"/>
<path d="M20.9651 138.468L6.78125 160.008H18.5586L32.7424 138.468H20.9651Z" fill="#ADD3E0"/>
<path d="M32.1339 40.1268H43.9113V127.629H32.1339V40.1268Z" fill="#87AB49"/>
<path d="M41.4525 56.5347C40.3686 56.5347 39.4896 55.6557 39.4896 54.5718V51.0441C39.4896 49.9602 40.3686 49.0812 41.4525 49.0812C42.5364 49.0812 43.4154 49.9602 43.4154 51.0441V54.5718C43.4154 55.6557 42.5364 56.5347 41.4525 56.5347Z" fill="#F4F8FC"/>
<path d="M41.4525 94.6316C40.3686 94.6316 39.4896 93.7526 39.4896 92.6687V63.5112C39.4896 62.4273 40.3686 61.5483 41.4525 61.5483C42.5364 61.5483 43.4154 62.4273 43.4154 63.5112V92.6687C43.4154 93.7526 42.5364 94.6316 41.4525 94.6316Z" fill="#F4F8FC"/>
<path d="M76.2798 70.4051C77.4115 70.4051 78.3911 70.5937 79.2186 70.9709C80.0582 71.3482 80.7032 71.8836 81.1534 72.5772C81.6037 73.2708 81.8288 74.0922 81.8288 75.0414C81.8288 75.9784 81.6037 76.7998 81.1534 77.5056C80.7032 78.1993 80.0582 78.7347 79.2186 79.1119C78.3911 79.477 77.4115 79.6595 76.2798 79.6595H73.7061V83.1824H70.749V70.4051H76.2798ZM76.1155 77.2501C77.0038 77.2501 77.6792 77.0615 78.1416 76.6842C78.6041 76.2948 78.8353 75.7472 78.8353 75.0414C78.8353 74.3235 78.6041 73.7759 78.1416 73.3986C77.6792 73.0092 77.0038 72.8145 76.1155 72.8145H73.7061V77.2501H76.1155Z" fill="#87AB49"/>
<path d="M83.9174 69.6384H86.7649V83.1824H83.9174V69.6384Z" fill="#87AB49"/>
<path d="M93.3687 73.2161C94.8898 73.2161 96.058 73.5812 96.8733 74.3113C97.6886 75.0293 98.0963 76.1184 98.0963 77.5786V83.1824H95.4313V81.9595C94.8959 82.8721 93.898 83.3285 92.4377 83.3285C91.6833 83.3285 91.0261 83.2007 90.4664 82.9451C89.9188 82.6896 89.4989 82.3367 89.2069 81.8864C88.9148 81.4362 88.7688 80.9251 88.7688 80.3532C88.7688 79.4405 89.1095 78.7225 89.791 78.1993C90.4846 77.676 91.5494 77.4144 92.9853 77.4144H95.2488C95.2488 76.7937 95.0601 76.3192 94.6829 75.9906C94.3057 75.6499 93.7398 75.4795 92.9853 75.4795C92.4621 75.4795 91.9449 75.5647 91.4338 75.7351C90.9349 75.8932 90.509 76.1123 90.1561 76.3922L89.1339 74.4026C89.6693 74.0253 90.3082 73.7333 91.0505 73.5264C91.8049 73.3195 92.5777 73.2161 93.3687 73.2161ZM93.1496 81.4119C93.6364 81.4119 94.0684 81.3023 94.4456 81.0833C94.8228 80.8521 95.0906 80.5174 95.2488 80.0794V79.0754H93.2956C92.1274 79.0754 91.5433 79.4587 91.5433 80.2254C91.5433 80.5904 91.6833 80.8825 91.9631 81.1015C92.2552 81.3084 92.6507 81.4119 93.1496 81.4119Z" fill="#87AB49"/>
<path d="M106.642 73.2161C107.859 73.2161 108.839 73.5812 109.581 74.3113C110.336 75.0414 110.713 76.1245 110.713 77.5604V83.1824H107.865V77.9985C107.865 77.2197 107.695 76.6416 107.354 76.2644C107.013 75.875 106.521 75.6803 105.876 75.6803C105.158 75.6803 104.586 75.9054 104.16 76.3557C103.734 76.7937 103.521 77.4509 103.521 78.327V83.1824H100.673V73.3621H103.393V74.5121C103.77 74.0983 104.239 73.7819 104.799 73.5629C105.358 73.3317 105.973 73.2161 106.642 73.2161Z" fill="#87AB49"/>
<path d="M123.02 78.3088C123.02 78.3453 123.002 78.6008 122.966 79.0754H115.537C115.67 79.6839 115.987 80.1645 116.486 80.5174C116.985 80.8703 117.605 81.0468 118.348 81.0468C118.859 81.0468 119.309 80.9738 119.698 80.8277C120.1 80.6695 120.471 80.4262 120.812 80.0976L122.327 81.7404C121.402 82.7991 120.051 83.3285 118.275 83.3285C117.167 83.3285 116.188 83.1155 115.336 82.6896C114.484 82.2515 113.827 81.6491 113.364 80.8825C112.902 80.1159 112.671 79.2458 112.671 78.2723C112.671 77.3109 112.896 76.4469 113.346 75.6803C113.809 74.9015 114.435 74.2991 115.226 73.8732C116.029 73.4351 116.924 73.2161 117.909 73.2161C118.871 73.2161 119.741 73.423 120.52 73.8367C121.298 74.2504 121.907 74.8467 122.345 75.6255C122.795 76.3922 123.02 77.2866 123.02 78.3088ZM117.928 75.37C117.283 75.37 116.741 75.5525 116.303 75.9176C115.865 76.2827 115.597 76.7816 115.5 77.4144H120.337C120.24 76.7937 119.972 76.3009 119.534 75.9358C119.096 75.5586 118.56 75.37 117.928 75.37Z" fill="#87AB49"/>
<path d="M131.25 82.7078C130.97 82.9147 130.623 83.0729 130.21 83.1824C129.808 83.2798 129.382 83.3285 128.932 83.3285C127.764 83.3285 126.857 83.0303 126.212 82.434C125.579 81.8378 125.263 80.9616 125.263 79.8056V75.7716H123.748V73.5812H125.263V71.19H128.111V73.5812H130.556V75.7716H128.111V79.769C128.111 80.1828 128.214 80.5053 128.421 80.7365C128.64 80.9555 128.944 81.065 129.333 81.065C129.784 81.065 130.167 80.9433 130.483 80.7L131.25 82.7078Z" fill="#87AB49"/>
<path d="M93.5417 85.3396L88.0109 98.117H85.0904L79.5779 85.3396H82.7722L86.6602 94.4663L90.6029 85.3396H93.5417Z" fill="#87AB49"/>
<path d="M100.139 85.3396C101.271 85.3396 102.251 85.5283 103.078 85.9055C103.918 86.2827 104.563 86.8182 105.013 87.5118C105.463 88.2054 105.688 89.0268 105.688 89.976C105.688 90.913 105.463 91.7344 105.013 92.4402C104.563 93.1338 103.918 93.6693 103.078 94.0465C102.251 94.4116 101.271 94.5941 100.139 94.5941H97.5656V98.117H94.6085V85.3396H100.139ZM99.975 92.1847C100.863 92.1847 101.539 91.996 102.001 91.6188C102.464 91.2294 102.695 90.6818 102.695 89.976C102.695 89.258 102.464 88.7104 102.001 88.3332C101.539 87.9438 100.863 87.7491 99.975 87.7491H97.5656V92.1847H99.975Z" fill="#87AB49"/>
<path d="M119.518 85.3396V98.117H117.09L110.72 90.3593V98.117H107.799V85.3396H110.245L116.598 93.0973V85.3396H119.518Z" fill="#87AB49"/>
</svg>
