<svg width="219" height="170" viewBox="0 0 219 170" fill="none" xmlns="http://www.w3.org/2000/svg">
<path d="M213.335 0H5.29685C2.54602 0 0.31604 2.23829 0.31604 4.99935V165.001C0.31604 167.762 2.54602 170 5.29685 170H213.335C216.086 170 218.316 167.762 218.316 165.001V4.99935C218.316 2.23829 216.086 0 213.335 0Z" fill="#F4F6FA"/>
<path d="M179.498 127.078H128.79C124.939 127.078 121.817 130.212 121.817 134.078V143.643C121.817 147.509 124.939 150.642 128.79 150.642H179.498C183.349 150.642 186.471 147.509 186.471 143.643V134.078C186.471 130.212 183.349 127.078 179.498 127.078Z" fill="#71B00A"/>
<path fill-rule="evenodd" clip-rule="evenodd" d="M39.1355 128.078C35.8373 128.078 33.1604 130.763 33.1604 134.078V143.643C33.1604 146.958 35.8373 149.643 39.1355 149.643H89.8431C93.1412 149.643 95.8181 146.958 95.8181 143.643V134.078C95.8181 130.763 93.1412 128.078 89.8431 128.078H39.1355ZM32.1604 134.078C32.1604 130.214 35.2815 127.078 39.1355 127.078H89.8431C93.697 127.078 96.8181 130.214 96.8181 134.078V143.643C96.8181 147.507 93.697 150.643 89.8431 150.643H39.1355C35.2815 150.643 32.1604 147.507 32.1604 143.643V134.078Z" fill="#7791B8"/>
<path opacity="0.454" d="M183.954 80.0006H34.4067C33.0175 80.0006 31.8914 81.1311 31.8914 82.5256C31.8914 83.9201 33.0175 85.0506 34.4067 85.0506H183.954C185.344 85.0506 186.47 83.9201 186.47 82.5256C186.47 81.1311 185.344 80.0006 183.954 80.0006Z" fill="#5A78A6"/>
<path opacity="0.454" d="M183.954 91.999H34.4067C33.0175 91.999 31.8914 93.1295 31.8914 94.524C31.8914 95.9185 33.0175 97.049 34.4067 97.049H183.954C185.344 97.049 186.47 95.9185 186.47 94.524C186.47 93.1295 185.344 91.999 183.954 91.999Z" fill="#5A78A6"/>
<path opacity="0.454" d="M146.185 103.998H74.6077C73.2185 103.998 72.0924 105.128 72.0924 106.523C72.0924 107.917 73.2185 109.048 74.6077 109.048H146.185C147.574 109.048 148.7 107.917 148.7 106.523C148.7 105.128 147.574 103.998 146.185 103.998Z" fill="#5A78A6"/>
<path fill-rule="evenodd" clip-rule="evenodd" d="M151.193 133.282C151.745 133.282 152.193 133.73 152.193 134.282V139.438C152.193 139.991 151.745 140.438 151.193 140.438H151.185L154.144 142.264L157.103 140.438H157.095C156.542 140.438 156.095 139.991 156.095 139.438V134.282C156.095 133.73 156.542 133.282 157.095 133.282C157.647 133.282 158.095 133.73 158.095 134.282V138.438H160.629C161.076 138.438 161.469 138.735 161.591 139.165C161.713 139.596 161.534 140.055 161.154 140.289L154.669 144.29C154.347 144.489 153.941 144.489 153.619 144.29L147.134 140.289C146.754 140.055 146.575 139.596 146.697 139.165C146.819 138.735 147.212 138.438 147.659 138.438H150.193V134.282C150.193 133.73 150.641 133.282 151.193 133.282Z" fill="#56820D"/>
<path fill-rule="evenodd" clip-rule="evenodd" d="M59.7988 134.153C60.1901 133.763 60.8233 133.764 61.2131 134.155L69.1824 142.154C69.5721 142.546 69.571 143.179 69.1797 143.568C68.7885 143.958 68.1553 143.957 67.7655 143.566L59.7962 135.567C59.4064 135.176 59.4076 134.542 59.7988 134.153Z" fill="#7791B8"/>
<path fill-rule="evenodd" clip-rule="evenodd" d="M69.1797 134.153C69.571 134.542 69.5721 135.176 69.1824 135.567L61.2131 143.566C60.8233 143.957 60.1901 143.958 59.7988 143.568C59.4076 143.179 59.4064 142.546 59.7962 142.154L67.7655 134.155C68.1553 133.764 68.7885 133.763 69.1797 134.153Z" fill="#7791B8"/>
<path d="M107.22 21.7672L107.127 21.7762C100.606 22.4587 94.3629 24.7837 88.9763 28.5353C89.4425 58.8744 105.238 64.4307 107.127 64.9826L107.22 65.0096C108.586 64.6326 124.99 59.4623 125.464 28.5353C120.052 24.7649 113.774 22.4361 107.22 21.7672ZM110.731 50.9014C110.748 51.1289 110.719 51.3574 110.646 51.5733C110.572 51.7891 110.456 51.9878 110.304 52.1573C110.188 52.2935 110.045 52.4036 109.884 52.4802C109.723 52.5569 109.547 52.5985 109.369 52.6022H104.955C104.777 52.5984 104.601 52.5567 104.44 52.4801C104.279 52.4034 104.136 52.2934 104.02 52.1573C103.868 51.9879 103.752 51.7892 103.678 51.5734C103.605 51.3575 103.576 51.1289 103.593 50.9014L104.436 42.2885C103.698 41.7191 103.155 40.9328 102.884 40.0391C102.613 39.1454 102.626 38.189 102.922 37.3033C103.218 36.4175 103.782 35.6467 104.536 35.0982C105.289 34.5497 106.195 34.2509 107.125 34.2436H107.158C108.344 34.2462 109.48 34.7201 110.318 35.5614C111.156 36.4028 111.628 37.5431 111.631 38.733C111.633 39.4367 111.477 40.1317 111.174 40.7666C110.872 41.4015 110.431 41.9599 109.885 42.4005L110.731 50.9014Z" fill="#B3E14A"/>
<path d="M80.4272 42.9944C80.4272 27.5324 92.9617 14.998 108.424 14.998H110.208C125.67 14.998 138.205 27.5324 138.205 42.9944C138.205 58.4564 125.67 70.9908 110.208 70.9908H108.424C92.9617 70.9908 80.4272 58.4564 80.4272 42.9944Z" fill="#F4F6FA"/>
<ellipse cx="109.316" cy="42.9944" rx="19.6912" ry="19.083" fill="url(#paint0_linear_6215_77271)"/>
<path fill-rule="evenodd" clip-rule="evenodd" d="M87.1125 49.7545C87.4474 49.3544 88.0734 49.4162 88.3394 49.8651C88.5174 50.1655 88.4704 50.5468 88.2352 50.8049C86.9083 52.2601 86.3371 53.3925 86.7199 54.0387C87.9541 56.1216 98.6348 52.3645 110.576 45.647C110.99 45.4142 111.4 45.1808 111.806 44.9472C111.942 44.8686 112.021 44.7198 112.021 44.5623C112.021 41.888 114.258 39.72 117.018 39.72C118.501 39.72 120.1 39.7625 121.309 38.904C127.252 34.6841 130.78 31.0915 129.963 29.7126C129.594 29.0907 128.383 28.9894 126.549 29.3321C126.235 29.3905 125.916 29.2532 125.753 28.9791C125.491 28.536 125.751 27.9667 126.261 27.8942C129.841 27.3853 132.38 27.8081 133.27 29.3094C134.935 32.1198 130.351 37.9185 122.372 43.8139C122.138 43.9869 122.014 44.2712 122.014 44.5623C122.014 47.2367 119.777 49.4047 117.018 49.4047C116.876 49.4047 116.735 49.3989 116.596 49.3876C115.371 49.2884 114.071 49.2393 113 49.8417C99.565 57.3997 86.857 60.4611 84.6162 56.6794C83.6943 55.1235 84.6879 52.6516 87.1125 49.7545Z" fill="#D7DEED"/>
<ellipse cx="117.018" cy="44.5624" rx="2.49833" ry="2.42116" fill="#70AF09"/>
<g opacity="0.32">
<path d="M99.2251 36.4679C98.0133 39.3678 98.3956 42.4259 96.9092 41.8425C95.4228 41.2591 95.2002 38.4354 96.4121 35.5354C97.624 32.6355 99.8113 30.7576 101.298 31.341C102.784 31.9244 100.437 33.568 99.2251 36.4679Z" fill="#E5E5E5"/>
<path d="M98.2921 44.7234C98.4003 45.6784 97.9441 46.5105 97.273 46.5819C96.6019 46.6534 95.9701 45.9372 95.8618 44.9822C95.7536 44.0272 96.2098 43.1951 96.8809 43.1237C97.552 43.0522 98.1838 43.7685 98.2921 44.7234Z" fill="#E5E5E5"/>
</g>
<path d="M103.502 57.5322C102.818 57.1491 103.146 56.507 104.808 55.9731C108.312 55.2276 107.721 56.7347 112.764 56.1549C117.807 55.575 120.466 53.5602 121.805 52.2349C122.876 51.1746 123.866 49.7398 123.819 50.246C123.591 51.3228 121.75 54.1613 116.212 56.9004C109.288 60.3243 104.551 58.1197 103.502 57.5322Z" fill="#080F1B" fill-opacity="0.11"/>
<path d="M125.734 32.4506C126.397 32.0249 126.581 31.1324 126.091 30.5149C123.087 26.7213 118.795 24.0523 113.95 22.9978C108.626 21.8389 103.046 22.7193 98.3762 25.4549C93.7063 28.1904 90.3082 32.5694 88.8923 37.6764C87.5978 42.3457 88.0518 47.2931 90.1463 51.6496C90.4753 52.3339 91.3128 52.5743 91.9831 52.2176C92.679 51.8473 92.927 50.9777 92.5959 50.2624C90.8749 46.5443 90.5199 42.3497 91.6187 38.3863C92.8456 33.961 95.79 30.1666 99.8365 27.7962C103.883 25.4259 108.718 24.663 113.332 25.6672C117.493 26.5729 121.183 28.8528 123.783 32.0938C124.256 32.6837 125.098 32.8593 125.734 32.4506Z" fill="#D7DEED"/>
<path d="M97.2648 58.1226C96.7848 58.7253 96.9039 59.6058 97.5638 60.0333C100.585 61.9906 104.084 63.1648 107.724 63.431C111.845 63.7324 115.967 62.8571 119.58 60.9132C123.194 58.9693 126.14 56.0421 128.055 52.4932C129.747 49.3583 130.569 45.8595 130.453 42.3391C130.428 41.5705 129.719 41.0068 128.937 41.0829C128.168 41.1579 127.618 41.8245 127.636 42.5806C127.708 45.579 126.995 48.5544 125.554 51.2252C123.894 54.3003 121.341 56.8368 118.21 58.5212C115.079 60.2056 111.508 60.9641 107.937 60.7029C104.836 60.4761 101.854 59.4892 99.2669 57.8449C98.6135 57.4296 97.7375 57.5293 97.2648 58.1226Z" fill="#D7DEED"/>
<defs>
<linearGradient id="paint0_linear_6215_77271" x1="88.4335" y1="10.3577" x2="116.853" y2="60.3196" gradientUnits="userSpaceOnUse">
<stop offset="0.394669" stop-color="#E87D1B"/>
<stop offset="0.72037" stop-color="#D64D12"/>
<stop offset="0.749987" stop-color="#70AF09"/>
</linearGradient>
</defs>
</svg>
