<svg width="213" height="213" viewBox="0 0 213 213" fill="none" xmlns="http://www.w3.org/2000/svg">
<rect width="213" height="213" rx="106.5" fill="white"/>
<g clip-path="url(#clip0_4_109520)">
<path d="M168.986 145.13C166.886 146.222 164.721 147.182 162.502 148.005C155.478 150.62 148.039 151.946 140.544 151.92C111.613 151.92 86.4125 132.041 86.4125 106.474C86.4501 103.05 87.3993 99.6986 89.1624 96.7637C90.9255 93.8287 93.4388 91.4167 96.4437 89.7756C70.2648 90.8766 63.5366 118.156 63.5366 134.121C63.5366 179.383 105.19 183.909 114.182 183.909C119.014 183.909 126.292 182.503 130.696 181.096L131.492 180.851C148.345 175.027 162.713 163.636 172.228 148.556C172.504 148.098 172.623 147.561 172.566 147.029C172.508 146.497 172.278 145.998 171.91 145.61C171.542 145.221 171.057 144.964 170.529 144.877C170.001 144.791 169.459 144.88 168.986 145.13V145.13Z" fill="url(#paint0_linear_4_109520)"/>
<path opacity="0.35" d="M168.986 145.13C166.886 146.222 164.721 147.182 162.502 148.005C155.478 150.62 148.039 151.946 140.544 151.92C111.613 151.92 86.4125 132.041 86.4125 106.474C86.4501 103.05 87.3993 99.6986 89.1624 96.7637C90.9255 93.8287 93.4388 91.4167 96.4437 89.7756C70.2648 90.8766 63.5366 118.156 63.5366 134.121C63.5366 179.383 105.19 183.909 114.182 183.909C119.014 183.909 126.292 182.503 130.696 181.096L131.492 180.851C148.345 175.027 162.713 163.636 172.228 148.556C172.504 148.098 172.623 147.561 172.566 147.029C172.508 146.497 172.278 145.998 171.91 145.61C171.542 145.221 171.057 144.964 170.529 144.877C170.001 144.791 169.459 144.88 168.986 145.13V145.13Z" fill="url(#paint1_radial_4_109520)"/>
<path d="M92.2844 176.203C86.84 172.821 82.1206 168.393 78.3999 163.175C74.1509 157.359 71.2262 150.684 69.8309 143.618C68.4356 136.552 68.6035 129.266 70.323 122.272C72.0424 115.278 75.2716 108.744 79.784 103.131C84.2964 97.5169 89.9826 92.9587 96.4437 89.7759C98.401 88.8584 101.643 87.2681 105.986 87.3293C109.041 87.3529 112.05 88.083 114.777 89.4624C117.504 90.8418 119.875 92.8331 121.705 95.2808C124.166 98.5904 125.515 102.595 125.558 106.719C125.558 106.596 140.544 58.031 76.626 58.031C49.7744 58.031 27.6936 83.4759 27.6936 105.862C27.5868 117.688 30.115 129.389 35.0946 140.115C43.2497 157.48 57.4967 171.247 75.1314 178.801C92.766 186.356 112.561 187.172 130.758 181.096C124.382 183.11 117.646 183.715 111.014 182.87C104.382 182.025 98.0124 179.75 92.3456 176.203H92.2844Z" fill="url(#paint2_linear_4_109520)"/>
<path opacity="0.41" d="M92.2844 176.203C86.84 172.821 82.1206 168.393 78.3999 163.175C74.1509 157.359 71.2262 150.684 69.8309 143.618C68.4356 136.552 68.6035 129.266 70.323 122.272C72.0424 115.278 75.2716 108.744 79.784 103.131C84.2964 97.5169 89.9826 92.9587 96.4437 89.7759C98.401 88.8584 101.643 87.2681 105.986 87.3293C109.041 87.3529 112.05 88.083 114.777 89.4624C117.504 90.8418 119.875 92.8331 121.705 95.2808C124.166 98.5904 125.515 102.595 125.558 106.719C125.558 106.596 140.544 58.031 76.626 58.031C49.7744 58.031 27.6936 83.4759 27.6936 105.862C27.5868 117.688 30.115 129.389 35.0946 140.115C43.2497 157.48 57.4967 171.247 75.1314 178.801C92.766 186.356 112.561 187.172 130.758 181.096C124.382 183.11 117.646 183.715 111.014 182.87C104.382 182.025 98.0124 179.75 92.3456 176.203H92.2844Z" fill="url(#paint3_radial_4_109520)"/>
<path d="M120.849 119.624C120.298 120.236 118.769 121.154 118.769 123.05C118.769 124.64 119.809 126.23 121.705 127.515C130.452 133.631 147.028 132.775 147.089 132.775C153.609 132.771 160.009 131.018 165.622 127.698C171.272 124.393 175.961 119.669 179.222 113.993C182.484 108.317 184.206 101.888 184.216 95.3417C184.4 81.6406 179.323 72.527 177.305 68.49C164.276 43.1675 136.324 28.6101 105.924 28.6101C85.3494 28.6081 65.6006 36.7054 50.9493 51.1507C36.2979 65.596 27.9218 85.2281 27.6324 105.801C27.9383 83.4756 50.1414 65.4318 76.5649 65.4318C78.7057 65.4318 90.9388 65.6153 102.254 71.5483C110.204 75.4987 116.787 81.7411 121.155 89.4698C124.886 95.9534 125.558 104.211 125.558 107.514C125.558 110.817 123.907 115.649 120.788 119.686L120.849 119.624Z" fill="url(#paint4_radial_4_109520)"/>
<path d="M120.849 119.624C120.298 120.236 118.769 121.154 118.769 123.05C118.769 124.64 119.809 126.23 121.705 127.515C130.452 133.631 147.028 132.775 147.089 132.775C153.609 132.771 160.009 131.018 165.622 127.698C171.272 124.393 175.961 119.669 179.222 113.993C182.484 108.317 184.206 101.888 184.216 95.3417C184.4 81.6406 179.323 72.527 177.305 68.49C164.276 43.1675 136.324 28.6101 105.924 28.6101C85.3494 28.6081 65.6006 36.7054 50.9493 51.1507C36.2979 65.596 27.9218 85.2281 27.6324 105.801C27.9383 83.4756 50.1414 65.4318 76.5649 65.4318C78.7057 65.4318 90.9388 65.6153 102.254 71.5483C110.204 75.4987 116.787 81.7411 121.155 89.4698C124.886 95.9534 125.558 104.211 125.558 107.514C125.558 110.817 123.907 115.649 120.788 119.686L120.849 119.624Z" fill="url(#paint5_radial_4_109520)"/>
</g>
<defs>
<linearGradient id="paint0_linear_4_109520" x1="63.5366" y1="136.873" x2="172.656" y2="136.873" gradientUnits="userSpaceOnUse">
<stop stop-color="#0C59A4"/>
<stop offset="1" stop-color="#114A8B"/>
</linearGradient>
<radialGradient id="paint1_radial_4_109520" cx="0" cy="0" r="1" gradientUnits="userSpaceOnUse" gradientTransform="translate(123.785 137.696) scale(58.3519 55.4343)">
<stop offset="0.7" stop-opacity="0"/>
<stop offset="0.9" stop-opacity="0.5"/>
<stop offset="1"/>
</radialGradient>
<linearGradient id="paint2_linear_4_109520" x1="121.032" y1="89.5313" x2="52.955" y2="163.725" gradientUnits="userSpaceOnUse">
<stop stop-color="#1B9DE2"/>
<stop offset="0.2" stop-color="#1595DF"/>
<stop offset="0.7" stop-color="#0680D7"/>
<stop offset="1" stop-color="#0078D4"/>
</linearGradient>
<radialGradient id="paint3_radial_4_109520" cx="0" cy="0" r="1" gradientUnits="userSpaceOnUse" gradientTransform="translate(70.7878 150.291) rotate(-81.3844) scale(87.7028 70.8551)">
<stop offset="0.8" stop-opacity="0"/>
<stop offset="0.9" stop-opacity="0.5"/>
<stop offset="1"/>
</radialGradient>
<radialGradient id="paint4_radial_4_109520" cx="0" cy="0" r="1" gradientUnits="userSpaceOnUse" gradientTransform="translate(43.4682 57.5512) rotate(92.2906) scale(123.898 263.877)">
<stop stop-color="#35C1F1"/>
<stop offset="0.1" stop-color="#34C1ED"/>
<stop offset="0.2" stop-color="#2FC2DF"/>
<stop offset="0.3" stop-color="#2BC3D2"/>
<stop offset="0.7" stop-color="#36C752"/>
</radialGradient>
<radialGradient id="paint5_radial_4_109520" cx="0" cy="0" r="1" gradientUnits="userSpaceOnUse" gradientTransform="translate(174.466 75.8911) rotate(73.7398) scale(59.5141 48.3968)">
<stop stop-color="#66EB6E"/>
<stop offset="1" stop-color="#66EB6E" stop-opacity="0"/>
</radialGradient>
<clipPath id="clip0_4_109520">
<rect width="156.584" height="156.584" fill="white" transform="translate(27.6324 28.6101)"/>
</clipPath>
</defs>
</svg>
