<svg width="50" height="51" viewBox="0 0 50 51" fill="none" xmlns="http://www.w3.org/2000/svg">
<g clip-path="url(#clip0_9019_167549)">
<path d="M45.1367 38.207C44.4662 38.5555 43.7748 38.862 43.0664 39.125C40.8233 39.9599 38.4481 40.3833 36.0547 40.375C26.8164 40.375 18.7695 34.0273 18.7695 25.8633C18.7815 24.7701 19.0846 23.6998 19.6476 22.7627C20.2106 21.8255 21.0132 21.0553 21.9727 20.5312C13.6133 20.8828 11.4648 29.5938 11.4648 34.6914C11.4648 49.1445 24.7656 50.5898 27.6367 50.5898C29.1797 50.5898 31.5039 50.1406 32.9102 49.6914L33.1641 49.6133C38.5457 47.7535 43.1335 44.1163 46.1719 39.3008C46.2602 39.1545 46.2981 38.9832 46.2798 38.8133C46.2614 38.6434 46.1879 38.4842 46.0704 38.3601C45.953 38.236 45.798 38.1538 45.6294 38.1261C45.4607 38.0985 45.2877 38.1269 45.1367 38.207Z" fill="url(#paint0_linear_9019_167549)"/>
<path opacity="0.35" d="M45.1367 38.207C44.4662 38.5555 43.7748 38.862 43.0664 39.125C40.8233 39.9599 38.4481 40.3833 36.0547 40.375C26.8164 40.375 18.7695 34.0273 18.7695 25.8633C18.7815 24.7701 19.0846 23.6998 19.6476 22.7627C20.2106 21.8255 21.0132 21.0553 21.9727 20.5312C13.6133 20.8828 11.4648 29.5938 11.4648 34.6914C11.4648 49.1445 24.7656 50.5898 27.6367 50.5898C29.1797 50.5898 31.5039 50.1406 32.9102 49.6914L33.1641 49.6133C38.5457 47.7535 43.1335 44.1163 46.1719 39.3008C46.2602 39.1545 46.2981 38.9832 46.2798 38.8133C46.2614 38.6434 46.1879 38.4842 46.0704 38.3601C45.953 38.236 45.798 38.1538 45.6294 38.1261C45.4607 38.0985 45.2877 38.1269 45.1367 38.207Z" fill="url(#paint1_radial_9019_167549)"/>
<path d="M20.6446 48.1289C18.9061 47.0491 17.3991 45.6351 16.211 43.9687C14.8542 42.1117 13.9203 39.9802 13.4748 37.7239C13.0292 35.4676 13.0829 33.1411 13.6319 30.9078C14.1809 28.6744 15.2121 26.5882 16.653 24.7957C18.0939 23.0031 19.9096 21.5476 21.9727 20.5312C22.5977 20.2383 23.6329 19.7305 25.0196 19.75C25.9954 19.7575 26.9562 19.9907 27.827 20.4311C28.6978 20.8716 29.4549 21.5075 30.0391 22.2891C30.825 23.3459 31.2558 24.6245 31.2696 25.9414C31.2696 25.9023 36.0547 10.3945 15.6446 10.3945C7.07037 10.3945 0.0195919 18.5195 0.0195919 25.668C-0.0145125 29.444 0.792791 33.1803 2.38287 36.6055C4.98692 42.1504 9.53626 46.5463 15.1673 48.9586C20.7984 51.3708 27.1191 51.6316 32.9297 49.6914C30.894 50.3344 28.743 50.5276 26.6253 50.2578C24.5075 49.9881 22.4736 49.2617 20.6641 48.1289H20.6446Z" fill="url(#paint2_linear_9019_167549)"/>
<path opacity="0.41" d="M20.6446 48.1289C18.9061 47.0491 17.3991 45.6351 16.211 43.9687C14.8542 42.1117 13.9203 39.9802 13.4748 37.7239C13.0292 35.4676 13.0829 33.1411 13.6319 30.9078C14.1809 28.6744 15.2121 26.5882 16.653 24.7957C18.0939 23.0031 19.9096 21.5476 21.9727 20.5312C22.5977 20.2383 23.6329 19.7305 25.0196 19.75C25.9954 19.7575 26.9562 19.9907 27.827 20.4311C28.6978 20.8716 29.4549 21.5075 30.0391 22.2891C30.825 23.3459 31.2558 24.6245 31.2696 25.9414C31.2696 25.9023 36.0547 10.3945 15.6446 10.3945C7.07037 10.3945 0.0195919 18.5195 0.0195919 25.668C-0.0145125 29.444 0.792791 33.1803 2.38287 36.6055C4.98692 42.1504 9.53626 46.5463 15.1673 48.9586C20.7984 51.3708 27.1191 51.6316 32.9297 49.6914C30.894 50.3344 28.743 50.5276 26.6253 50.2578C24.5075 49.9881 22.4736 49.2617 20.6641 48.1289H20.6446Z" fill="url(#paint3_radial_9019_167549)"/>
<path d="M29.7656 30.0625C29.5898 30.2578 29.1016 30.5508 29.1016 31.1562C29.1016 31.6641 29.4336 32.1719 30.0391 32.582C32.832 34.5352 38.125 34.2617 38.1445 34.2617C40.2267 34.2603 42.2703 33.7005 44.0625 32.6406C45.8668 31.5853 47.3639 30.0766 48.4054 28.2643C49.4469 26.452 49.9966 24.3989 50 22.3086C50.0586 17.9336 48.4375 15.0234 47.793 13.7344C43.6328 5.64844 34.707 1 25 1C18.4301 0.99935 12.1239 3.58496 7.44547 8.1976C2.76704 12.8102 0.0923899 19.0791 0 25.6484C0.0976562 18.5195 7.1875 12.7578 15.625 12.7578C16.3086 12.7578 20.2148 12.8164 23.8281 14.7109C26.3666 15.9724 28.4688 17.9657 29.8633 20.4336C31.0547 22.5039 31.2695 25.1406 31.2695 26.1953C31.2695 27.25 30.7422 28.793 29.7461 30.082L29.7656 30.0625Z" fill="url(#paint4_radial_9019_167549)"/>
<path d="M29.7656 30.0625C29.5898 30.2578 29.1016 30.5508 29.1016 31.1562C29.1016 31.6641 29.4336 32.1719 30.0391 32.582C32.832 34.5352 38.125 34.2617 38.1445 34.2617C40.2267 34.2603 42.2703 33.7005 44.0625 32.6406C45.8668 31.5853 47.3639 30.0766 48.4054 28.2643C49.4469 26.452 49.9966 24.3989 50 22.3086C50.0586 17.9336 48.4375 15.0234 47.793 13.7344C43.6328 5.64844 34.707 1 25 1C18.4301 0.99935 12.1239 3.58496 7.44547 8.1976C2.76704 12.8102 0.0923899 19.0791 0 25.6484C0.0976562 18.5195 7.1875 12.7578 15.625 12.7578C16.3086 12.7578 20.2148 12.8164 23.8281 14.7109C26.3666 15.9724 28.4688 17.9657 29.8633 20.4336C31.0547 22.5039 31.2695 25.1406 31.2695 26.1953C31.2695 27.25 30.7422 28.793 29.7461 30.082L29.7656 30.0625Z" fill="url(#paint5_radial_9019_167549)"/>
</g>
<defs>
<linearGradient id="paint0_linear_9019_167549" x1="11.4648" y1="35.5703" x2="46.3086" y2="35.5703" gradientUnits="userSpaceOnUse">
<stop stop-color="#0C59A4"/>
<stop offset="1" stop-color="#114A8B"/>
</linearGradient>
<radialGradient id="paint1_radial_9019_167549" cx="0" cy="0" r="1" gradientUnits="userSpaceOnUse" gradientTransform="translate(30.7031 35.833) scale(18.6328 17.7012)">
<stop offset="0.7" stop-opacity="0"/>
<stop offset="0.9" stop-opacity="0.5"/>
<stop offset="1"/>
</radialGradient>
<linearGradient id="paint2_linear_9019_167549" x1="29.8243" y1="20.4531" x2="8.086" y2="44.1445" gradientUnits="userSpaceOnUse">
<stop stop-color="#1B9DE2"/>
<stop offset="0.2" stop-color="#1595DF"/>
<stop offset="0.7" stop-color="#0680D7"/>
<stop offset="1" stop-color="#0078D4"/>
</linearGradient>
<radialGradient id="paint3_radial_9019_167549" cx="0" cy="0" r="1" gradientUnits="userSpaceOnUse" gradientTransform="translate(13.7803 39.8549) rotate(-81.3844) scale(28.0051 22.6253)">
<stop offset="0.8" stop-opacity="0"/>
<stop offset="0.9" stop-opacity="0.5"/>
<stop offset="1"/>
</radialGradient>
<radialGradient id="paint4_radial_9019_167549" cx="0" cy="0" r="1" gradientUnits="userSpaceOnUse" gradientTransform="translate(5.05664 10.2414) rotate(92.2906) scale(39.5629 84.2607)">
<stop stop-color="#35C1F1"/>
<stop offset="0.1" stop-color="#34C1ED"/>
<stop offset="0.2" stop-color="#2FC2DF"/>
<stop offset="0.3" stop-color="#2BC3D2"/>
<stop offset="0.7" stop-color="#36C752"/>
</radialGradient>
<radialGradient id="paint5_radial_9019_167549" cx="0" cy="0" r="1" gradientUnits="userSpaceOnUse" gradientTransform="translate(46.8867 16.0977) rotate(73.7398) scale(19.0039 15.454)">
<stop stop-color="#66EB6E"/>
<stop offset="1" stop-color="#66EB6E" stop-opacity="0"/>
</radialGradient>
<clipPath id="clip0_9019_167549">
<rect width="50" height="50" fill="white" transform="translate(0 1)"/>
</clipPath>
</defs>
</svg>
