<svg width="21" height="20" viewBox="0 0 21 20" fill="none" xmlns="http://www.w3.org/2000/svg">
<path d="M18.1693 8.89461C17.8899 6.85875 16.8133 5.01724 15.1762 3.77518C13.5391 2.53312 11.4757 1.99227 9.43984 2.27159C7.40398 2.55092 5.56247 3.62754 4.32041 5.26463C3.07835 6.90171 2.53749 8.96515 2.81682 11.001C3.04695 12.686 3.82129 14.2497 5.02199 15.4541C6.22269 16.6585 7.78401 17.4377 9.46833 17.673C9.81297 17.7181 10.1602 17.7408 10.5078 17.741C11.9121 17.7433 13.2902 17.36 14.4917 16.633C14.576 16.5823 14.6495 16.5153 14.708 16.4361C14.7665 16.3569 14.8088 16.267 14.8325 16.1715C14.8562 16.0759 14.8608 15.9766 14.8462 15.8793C14.8315 15.7819 14.7978 15.6884 14.7471 15.6041C14.6963 15.5198 14.6294 15.4463 14.5502 15.3878C14.471 15.3293 14.381 15.287 14.2855 15.2633C14.0925 15.2154 13.8884 15.2461 13.7181 15.3487C12.8629 15.8621 11.8972 16.1631 10.9017 16.2267C9.9063 16.2904 8.91011 16.1147 7.99649 15.7144C7.08287 15.3141 6.27839 14.7009 5.65034 13.926C5.02229 13.1511 4.58894 12.2371 4.38653 11.2604C4.18412 10.2836 4.21855 9.27267 4.48692 8.312C4.7553 7.35133 5.24982 6.46889 5.92913 5.7385C6.60843 5.00811 7.45277 4.45102 8.3915 4.11381C9.33023 3.77661 10.3361 3.6691 11.3249 3.80029C12.2433 3.9224 13.123 4.24729 13.9004 4.75141C14.6778 5.25552 15.3332 5.92625 15.8194 6.71499C16.3055 7.50373 16.6101 8.39073 16.711 9.31172C16.812 10.2327 16.7069 11.1646 16.4032 12.04C16.3244 12.2504 16.182 12.4312 15.9958 12.5571C15.8097 12.683 15.5889 12.7478 15.3642 12.7426C15.0681 12.7422 14.7843 12.6244 14.5749 12.415C14.3655 12.2056 14.2477 11.9218 14.2473 11.6257V6.99561C14.2473 6.7968 14.1683 6.60614 14.0278 6.46556C13.8872 6.32498 13.6965 6.246 13.4977 6.246C13.2989 6.246 13.1082 6.32498 12.9677 6.46556C12.8271 6.60614 12.7481 6.7968 12.7481 6.99561V7.00261C12.1798 6.5737 11.5011 6.31553 10.7915 6.2583C10.0818 6.20106 9.37055 6.34714 8.74088 6.67944C8.11122 7.01173 7.58923 7.5165 7.236 8.13465C6.88277 8.75281 6.7129 9.45879 6.74629 10.17C6.77968 10.8812 7.01494 11.5681 7.42454 12.1505C7.83413 12.7328 8.40112 13.1864 9.05915 13.4583C9.71717 13.7301 10.439 13.8089 11.1402 13.6854C11.8414 13.562 12.4929 13.2413 13.0185 12.7611C13.2308 13.2034 13.5635 13.5769 13.9784 13.8388C14.3933 14.1007 14.8736 14.2404 15.3642 14.2418C15.9006 14.247 16.4252 14.085 16.8653 13.7784C17.3054 13.4717 17.639 13.0356 17.8199 12.5307C18.2239 11.3637 18.3437 10.1172 18.1693 8.89461ZM10.4993 12.2429C10.0545 12.2429 9.61972 12.111 9.24991 11.8639C8.88009 11.6168 8.59185 11.2655 8.42165 10.8546C8.25144 10.4437 8.2069 9.99154 8.29367 9.55531C8.38045 9.11908 8.59463 8.71838 8.90913 8.40388C9.22363 8.08938 9.62433 7.8752 10.0606 7.78843C10.4968 7.70166 10.949 7.74619 11.3599 7.9164C11.7708 8.08661 12.122 8.37484 12.3691 8.74466C12.6162 9.11448 12.7481 9.54926 12.7481 9.99404C12.7474 10.5903 12.5103 11.1619 12.0887 11.5835C11.6671 12.0051 11.0955 12.2422 10.4993 12.2429Z" fill="white"/>
</svg>
