<svg xmlns="http://www.w3.org/2000/svg" width="35.044" height="42.6" viewBox="0 0 35.044 42.6">
    <defs>
        <style>
            .cls-1{fill:#87AB49;stroke:#87AB49;stroke-width:.5px}
        </style>
    </defs>
    <g id="_006-padlock" data-name="006-padlock" transform="translate(-7.617 -14.5)">
        <path id="Path_30627" d="M95.305 135.113h-1.079v-5.4A9.726 9.726 0 0 0 84.51 120h-6.477a9.726 9.726 0 0 0-9.715 9.715v5.4h-1.08A3.239 3.239 0 0 0 64 138.351v20.51a3.239 3.239 0 0 0 3.238 3.238h28.067a3.239 3.239 0 0 0 3.238-3.238v-20.51a3.239 3.239 0 0 0-3.238-3.238zm-24.828-5.4a7.566 7.566 0 0 1 7.556-7.556h6.477a7.566 7.566 0 0 1 7.556 7.556v5.4h-2.158v-5.4a5.4 5.4 0 0 0-5.4-5.4h-6.475a5.4 5.4 0 0 0-5.4 5.4v5.4h-2.156zm17.272 5.4H74.795v-5.4a3.239 3.239 0 0 1 3.238-3.238h6.477a3.239 3.239 0 0 1 3.238 3.238zm8.636 23.749a1.08 1.08 0 0 1-1.079 1.079H67.238a1.08 1.08 0 0 1-1.079-1.079v-20.51a1.08 1.08 0 0 1 1.079-1.079h28.067a1.08 1.08 0 0 1 1.079 1.079zm0 0" class="cls-1" data-name="Path 30627" transform="translate(-56.133 -105.25)"/>
        <path id="Path_30628" d="M158.7 264.156a5.4 5.4 0 0 0-4.549 9.559v5.4a3.238 3.238 0 0 0 6.477 0v-5.4a5.408 5.408 0 0 0 2-5.659 5.334 5.334 0 0 0-3.928-3.9zm.311 8.04a1.081 1.081 0 0 0-.54.936v5.98a1.079 1.079 0 1 1-2.159 0v-5.98a1.081 1.081 0 0 0-.54-.936 3.238 3.238 0 0 1-.385-5.341 3.179 3.179 0 0 1 2-.7 3.544 3.544 0 0 1 .819.1 3.2 3.2 0 0 1 2.324 2.307 3.256 3.256 0 0 1-1.516 3.632zm0 0" class="cls-1" data-name="Path 30628" transform="translate(-132.253 -229.819)"/>
    </g>
</svg>
