<svg width="20" height="21" viewBox="0 0 20 21" fill="none" xmlns="http://www.w3.org/2000/svg">
<path fill-rule="evenodd" clip-rule="evenodd" d="M18.9619 5.90837C18.9619 3.75179 17.2137 2.00354 15.0571 2.00354H4.94376C2.78718 2.00354 1.03893 3.75179 1.03893 5.90837V15.7467C1.03893 17.9033 2.78718 19.6516 4.94376 19.6516H15.0571C17.2137 19.6516 18.9619 17.9033 18.9619 15.7467V14.6771C18.9619 14.2456 18.6121 13.8958 18.1807 13.8958C17.7492 13.8958 17.3994 14.2456 17.3994 14.6771V15.7467C17.3994 17.0404 16.3507 18.0891 15.0571 18.0891H4.94376C3.65013 18.0891 2.60143 17.0404 2.60143 15.7467V5.90837C2.60143 4.61474 3.65013 3.56604 4.94376 3.56604H15.0571C16.3507 3.56604 17.3994 4.61474 17.3994 5.90837V6.63432C17.3994 7.06579 17.7492 7.41557 18.1807 7.41557C18.6121 7.41557 18.9619 7.06579 18.9619 6.63432V5.90837Z" fill="#87AB49"/>
<path fill-rule="evenodd" clip-rule="evenodd" d="M9.74053 6.64118C9.43544 6.33608 8.94078 6.33608 8.63568 6.64118L6.15928 9.11757C5.29848 9.97837 5.29848 11.374 6.15928 12.2348L8.63568 14.7112C8.94078 15.0163 9.43544 15.0163 9.74053 14.7112C10.0456 14.4061 10.0456 13.9114 9.74053 13.6063L7.26413 11.1299C7.01353 10.8793 7.01353 10.473 7.26413 10.2224L9.74053 7.74603C10.0456 7.44093 10.0456 6.94627 9.74053 6.64118ZM18.9619 10.6762C18.9619 10.2447 18.6121 9.89494 18.1807 9.89494H10.4594C10.028 9.89494 9.6782 10.2447 9.6782 10.6762C9.6782 11.1077 10.028 11.4574 10.4594 11.4574H18.1807C18.6121 11.4574 18.9619 11.1077 18.9619 10.6762Z" fill="#87AB49"/>
</svg>
