<svg width="20" height="20" viewBox="0 0 20 20" fill="none" xmlns="http://www.w3.org/2000/svg">
<path d="M18.2786 13.6582H17.0286V13.3791H16.8912V13.6582H15.6412V13.3791H15.5039V13.6582H14.2539V13.3791H14.1165V13.6582H12.8665V13.3791H12.7291V13.6582H11.4791V13.3791H11.3418V13.6582H10.0918V13.3791H9.95441V13.6582H8.70441V13.3791H8.56247V13.6582H7.31247V13.3791H7.17511V13.6582H5.9251V13.3791H5.78774V13.6582H4.53774V13.3791H4.40038V13.6582H3.15038V13.3791H3.01302V13.6582H1.76301V13.3791H1.60734V13.6582H0.705322C0.723637 13.704 0.737374 13.7497 0.755689 13.7955H2.16595V13.9328H0.815215C0.83353 13.9785 0.861 14.0243 0.883893 14.07H1.05789V14.3491H1.47456V14.2073H1.19525V14.07H1.60734V14.4864H1.0762C2.72455 17.7534 6.0991 20 10.0094 20C13.9425 20 17.3354 17.7259 18.9746 14.4269V14.2073H18.5579V14.3491H18.8372V14.4864H18.4205V14.07H18.9791V13.7909H19.1165V14.1386C19.1623 14.038 19.2127 13.9419 19.2539 13.8412V13.7909H19.2722C19.2905 13.7451 19.3042 13.6994 19.3225 13.6536H18.4205V13.3745H18.2832V13.6582H18.2786ZM2.99928 14.491H2.30331V14.2119H1.88664V14.3537H2.16595V14.491H1.74928V14.0746H2.30331V13.7955H2.44067V14.3491H2.57803V13.7955H2.7154V14.3491H2.85276V13.7955H2.9947V14.491H2.99928ZM3.13664 13.7955H4.94067V13.9328H3.13664V13.7955ZM3.55331 14.491H3.41594V14.3537H3.55331V14.491ZM4.38665 14.491H3.69525V14.2119H3.27858V14.491H3.14122V14.0746H3.83719V14.3537H4.25386V14.2119H3.97455V14.0746H4.39122V14.491H4.38665ZM5.77401 14.491H5.07804V14.2119H4.66137V14.3537H4.94067V14.491H4.524V14.0746H5.08261V13.7955H5.21998V14.3491H5.36192V13.7955H5.49928V14.3491H5.63664V13.7955H5.77401V14.491ZM5.91595 13.7955H7.71998V13.9328H5.91595V13.7955ZM6.33262 14.491H6.19525V14.3537H6.33262V14.491ZM7.16595 14.491H6.46997V14.2119H6.05331V14.491H5.91595V14.0746H6.61191V14.3537H7.02858V14.2119H6.74928V14.0746H7.16595V14.491ZM8.55331 14.491H7.86192V14.2119H7.44525V14.3537H7.71998V14.491H7.30331V14.0746H7.86192V13.7955H7.99928V14.3491H8.13664V13.7955H8.274V14.3491H8.41137V13.7955H8.54873V14.491H8.55331ZM9.10734 14.491H8.96998V14.3537H9.10734V14.491ZM9.94525 14.491H9.24928V14.2119H8.83261V14.491H8.69525V14.0746H9.39122V14.3537H9.80789V14.2119H9.53316V14.0746H9.94983V14.491H9.94525ZM8.69525 13.9373V13.8H10.4993V13.9373H8.69525ZM11.3326 14.491H10.6366V14.2119H10.22V14.3537H10.4993V14.491H10.0826V14.0746H10.6412V13.7955H10.7786V14.3491H10.9159V13.7955H11.0533V14.3491H11.1907V13.7955H11.328V14.491H11.3326ZM11.4746 13.7955H13.2832V13.9328H11.4746V13.7955ZM11.8912 14.491H11.7539V14.3537H11.8912V14.491ZM12.7246 14.491H12.0286V14.2119H11.6119V14.491H11.4746V14.0746H12.1705V14.3537H12.5872V14.2119H12.3079V14.0746H12.7246V14.491ZM14.1119 14.491H13.4159V14.2119H12.9993V14.3537H13.2786V14.491H12.8619V14.0746H13.4205V13.7955H13.5579V14.3491H13.6952V13.7955H13.8326V14.3491H13.97V13.7955H14.1073V14.491H14.1119ZM14.2493 13.7955H16.0579V13.9328H14.2493V13.7955ZM14.6659 14.491H14.5286V14.3537H14.6659V14.491ZM15.4993 14.491H14.8033V14.2119H14.3866V14.491H14.2493V14.0746H14.9453V14.3537H15.3619V14.2119H15.0826V14.0746H15.4993V14.491ZM16.8912 14.491H16.1953V14.2119H15.7786V14.3537H16.0579V14.491H15.6412V14.0746H16.1998V13.7955H16.3372V14.3491H16.4746V13.7955H16.6165V14.3491H16.7539V13.7955H16.8912V14.491ZM17.4498 14.491H17.3125V14.3537H17.4498V14.491ZM18.2786 14.491H17.5826V14.2119H17.1659V14.491H17.0286V14.0746H17.7246V14.3537H18.1412V14.2119H17.8619V14.0746H18.2786V14.491ZM18.8372 13.7955V13.9328H17.0286V13.7955H18.8372Z" fill="#DA0000"/>
<path d="M0.60006 13.3791H1.60738H1.74475H2.99475H3.13211H4.38211H4.51947H5.76947H5.90684H7.15683H7.2942H8.5442H8.68614H9.93614H10.0735H11.3235H11.4609H12.7109H12.8482H14.0982H14.2356H15.4856H15.623H16.873H17.0103H18.2603H18.3977H19.4004C19.7805 12.3221 20.0002 11.1874 20.0002 10.0023C20.0002 8.81263 19.7805 7.67788 19.4004 6.62549H0.60006C0.220023 7.68245 0.000244141 8.81721 0.000244141 10.0023C0.0048229 11.192 0.220023 12.3221 0.60006 13.3791Z" fill="#F1F4FB"/>
<path d="M19.4231 6.62091H18.4204V6.34181H19.3224C19.3041 6.29605 19.2903 6.24573 19.272 6.20455H18.979V5.92543H18.5623V6.06269H18.837V6.19997H18.4204V5.78358H18.9744V5.56853C17.3398 2.26951 13.9423 0 10.0092 0C6.09894 0 2.71981 2.24663 1.07604 5.51362H2.16121V5.65089H1.00736C0.984469 5.69664 0.961571 5.74241 0.938677 5.78816H1.04399V6.06727H1.46065V5.93001H1.18136V5.78816H1.60718V6.20455H0.911206V5.92543H0.874575C0.842523 5.99864 0.801316 6.07184 0.769265 6.14963V6.20455H0.750953C0.732638 6.2503 0.718902 6.29605 0.700587 6.34181H1.60718V6.62091H0.599854H19.4231ZM2.99912 6.62091H1.74912V6.34181H2.99912V6.62091ZM2.99912 6.20455H2.30315V5.92543H1.88648V6.06269H2.16579V6.19997H1.74912V5.78358H2.30315V5.50446H2.44051V6.05812H2.57787V5.50446H2.71524V6.05812H2.8526V5.50446H2.99454V6.20455H2.99912ZM14.2491 5.50904H16.0577V5.64632H14.2491V5.50904ZM11.4744 5.50904H13.283V5.64632H11.4744V5.50904ZM8.69509 5.50904H10.5037V5.64632H8.69509V5.50904ZM5.91579 5.50904H7.72439V5.64632H5.91579V5.50904ZM3.13648 5.51362H4.94509V5.65089H3.13648V5.51362ZM4.38649 6.62091H3.13648V6.34181H4.38649V6.62091ZM3.41579 6.20455V6.06727H3.55315V6.20455H3.41579ZM4.38649 6.20455H3.69509V5.92543H3.27842V6.20455H3.14106V5.78816H3.83703V6.06727H4.2537V5.93001H3.97439V5.78816H4.39106V6.20455H4.38649ZM5.77385 6.62091H4.52384V6.34181H5.77385V6.62091ZM5.77385 6.20455H5.07788V5.92543H4.66121V6.06269H4.94051V6.19997H4.52384V5.78358H5.08245V5.50446H5.21982V6.05812H5.36176V5.50446H5.49912V6.05812H5.63648V5.4999H5.77385V6.20455ZM7.16579 6.62091H5.91579V6.34181H7.16579V6.62091ZM6.19509 6.20455V6.06727H6.33246V6.20455H6.19509ZM7.16579 6.20455H6.46981V5.92543H6.05315V6.20455H5.91579V5.78816H6.61175V6.06727H7.02842V5.93001H6.74912V5.78816H7.16579V6.20455ZM8.55315 6.62091H7.30315V6.34181H8.55315V6.62091ZM8.55315 6.20455H7.86176V5.92543H7.44509V6.06269H7.72439V6.19997H7.30773V5.78358H7.86634V5.50446H8.0037V6.05812H8.14106V5.50446H8.27843V6.05812H8.41578V5.50446H8.55315V6.20455ZM9.94509 6.62091H8.69509V6.34181H9.94509V6.62091ZM8.96982 6.20455V6.06727H9.10718V6.20455H8.96982ZM9.94509 6.20455H9.24912V5.92543H8.83245V6.20455H8.69509V5.78816H9.39106V6.06727H9.80773V5.93001H9.533V5.78816H9.94967V6.20455H9.94509ZM11.3325 6.62091H10.0825V6.34181H11.3325V6.62091ZM11.3325 6.20455H10.6365V5.92543H10.2198V6.06269H10.4991V6.19997H10.0825V5.78358H10.6411V5.50446H10.7784V6.05812H10.9158V5.50446H11.0532V6.05812H11.1905V5.50446H11.3279V6.20455H11.3325ZM12.7244 6.62091H11.4744V6.34181H12.7244V6.62091ZM11.7491 6.20455V6.06727H11.8911V6.20455H11.7491ZM12.7244 6.20455H12.0284V5.92543H11.6118V6.20455H11.4744V5.78816H12.1704V6.06727H12.587V5.93001H12.3077V5.78816H12.7244V6.20455ZM14.1118 6.62091H12.8618V6.34181H14.1118V6.62091ZM14.1118 6.20455H13.4158V5.92543H12.9991V6.06269H13.2784V6.19997H12.8618V5.78358H13.4204V5.50446H13.5577V6.05812H13.6951V5.50446H13.8325V6.05812H13.9698V5.50446H14.1072V6.20455H14.1118ZM15.4991 6.62091H14.2491V6.34181H15.4991V6.62091ZM14.5284 6.20455V6.06727H14.6658V6.20455H14.5284ZM15.4991 6.20455H14.8032V5.92543H14.3865V6.20455H14.2491V5.78816H14.9451V6.06727H15.3618V5.93001H15.0825V5.78816H15.4991V6.20455ZM16.8911 6.62091H15.6411V6.34181H16.8911V6.62091ZM16.8911 6.20455H16.1951V5.92543H15.7784V6.06269H16.0577V6.19997H15.6411V5.78358H16.1951V5.50446H16.3325V6.05812H16.4698V5.50446H16.6118V6.05812H16.7491V5.50446H16.8865V6.20455H16.8911ZM17.0284 5.50904H18.8325V5.64632H17.0284V5.50904ZM18.2784 6.62091H17.0284V6.34181H18.2784V6.62091ZM17.3077 6.20455V6.06727H17.4451V6.20455H17.3077ZM18.2784 6.20455H17.5825V5.92543H17.1658V6.20455H17.0284V5.78816H17.7244V6.06727H18.1411V5.93001H17.8618V5.78816H18.2784V6.20455Z" fill="#239F40"/>
<path d="M8.41586 14.354H8.2785V13.7954H8.13655V14.354H7.9992V13.7954H7.86183V14.0747H7.30322V14.4914H7.71989V14.354H7.44059V14.2121H7.86183V14.4914H8.55322V13.7954H8.41586V14.354Z" fill="#DA0000"/>
<path d="M2.85726 14.354H2.7199V13.7954H2.57796V14.354H2.4406V13.7954H2.30324V14.0747H1.74463V14.4914H2.1613V14.354H1.88657V14.2121H2.30324V14.4914H2.9992V13.7954H2.85726V14.354Z" fill="#DA0000"/>
<path d="M4.38648 13.3789H3.13647V13.6582H4.38648V13.3789Z" fill="#DA0000"/>
<path d="M3.54874 14.3535H3.41138V14.4909H3.54874V14.3535Z" fill="#DA0000"/>
<path d="M2.99463 13.3789H1.74463V13.6582H2.99463V13.3789Z" fill="#DA0000"/>
<path d="M6.33243 14.3535H6.19507V14.4909H6.33243V14.3535Z" fill="#DA0000"/>
<path d="M7.7198 13.7954H5.91577V13.9328H7.7198V13.7954Z" fill="#DA0000"/>
<path d="M5.63657 14.354H5.4992V13.7954H5.35726V14.354H5.2199V13.7954H5.08253V14.0747H4.52393V14.4914H4.94059V14.354H4.66587V14.2121H5.08253V14.4914H5.77393V13.7954H5.63657V14.354Z" fill="#DA0000"/>
<path d="M3.96981 14.2116H4.24912V14.3535H3.83245V14.0742H3.13647V14.4909H3.27384V14.2116H3.69051V14.4909H4.38648V14.0742H3.96981V14.2116Z" fill="#DA0000"/>
<path d="M4.94051 13.7954H3.13647V13.9328H4.94051V13.7954Z" fill="#DA0000"/>
<path d="M15.4993 13.3789H14.2493V13.6582H15.4993V13.3789Z" fill="#DA0000"/>
<path d="M5.77393 13.3789H4.52393V13.6582H5.77393V13.3789Z" fill="#DA0000"/>
<path d="M12.7244 13.3789H11.4744V13.6582H12.7244V13.3789Z" fill="#DA0000"/>
<path d="M16.8911 13.3789H15.6411V13.6582H16.8911V13.3789Z" fill="#DA0000"/>
<path d="M18.2783 13.3789H17.0283V13.6582H18.2783V13.3789Z" fill="#DA0000"/>
<path d="M14.1118 13.3789H12.8618V13.6582H14.1118V13.3789Z" fill="#DA0000"/>
<path d="M8.55322 13.3789H7.30322V13.6582H8.55322V13.3789Z" fill="#DA0000"/>
<path d="M7.16577 13.3789H5.91577V13.6582H7.16577V13.3789Z" fill="#DA0000"/>
<path d="M9.94507 13.3789H8.69507V13.6582H9.94507V13.3789Z" fill="#DA0000"/>
<path d="M11.3325 13.3789H10.0825V13.6582H11.3325V13.3789Z" fill="#DA0000"/>
<path d="M6.7491 14.2116H7.02841V14.3535H6.61174V14.0742H5.91577V14.4909H6.05314V14.2116H6.4698V14.4909H7.16577V14.0742H6.7491V14.2116Z" fill="#DA0000"/>
<path d="M16.0579 13.7954H14.2493V13.9328H16.0579V13.7954Z" fill="#DA0000"/>
<path d="M16.7538 14.354H16.6118V13.7954H16.4745V14.354H16.3371V13.7954H16.1951V14.0747H15.6411V14.4914H16.0578V14.354H15.7785V14.2121H16.1951V14.4914H16.8911V13.7954H16.7538V14.354Z" fill="#DA0000"/>
<path d="M15.0872 14.2116H15.3619V14.3535H14.9452V14.0742H14.2493V14.4909H14.3912V14.2116H14.8079V14.4909H15.4993V14.0742H15.0872V14.2116Z" fill="#DA0000"/>
<path d="M14.6659 14.3535H14.5286V14.4909H14.6659V14.3535Z" fill="#DA0000"/>
<path d="M17.4452 14.3535H17.3079V14.4909H17.4452V14.3535Z" fill="#DA0000"/>
<path d="M17.8617 14.2116H18.141V14.3535H17.7243V14.0742H17.0283V14.4909H17.1703V14.2116H17.5869V14.4909H18.2783V14.0742H17.8617V14.2116Z" fill="#DA0000"/>
<path d="M18.8369 13.7954H17.0283V13.9328H18.8369V13.7954Z" fill="#DA0000"/>
<path d="M9.10733 14.3535H8.96997V14.4909H9.10733V14.3535Z" fill="#DA0000"/>
<path d="M11.1952 14.354H11.0578V13.7954H10.9159V14.354H10.7785V13.7954H10.6411V14.0747H10.0825V14.4914H10.4992V14.354H10.2199V14.2121H10.6411V14.4914H11.3325V13.7954H11.1952V14.354Z" fill="#DA0000"/>
<path d="M10.4991 13.7954H8.69507V13.9328H10.4991V13.7954Z" fill="#DA0000"/>
<path d="M9.52841 14.2116H9.80313V14.3535H9.39104V14.0742H8.69507V14.4909H8.83243V14.2116H9.2491V14.4909H9.94507V14.0742H9.52841V14.2116Z" fill="#DA0000"/>
<path d="M13.283 13.7954H11.4744V13.9328H13.283V13.7954Z" fill="#DA0000"/>
<path d="M13.9745 14.354H13.8325V13.7954H13.6951V14.354H13.5578V13.7954H13.4158V14.0747H12.8618V14.4914H13.2785V14.354H12.9992V14.2121H13.4158V14.4914H14.1118V13.7954H13.9745V14.354Z" fill="#DA0000"/>
<path d="M12.3077 14.2116H12.5824V14.3535H12.1658V14.0742H11.4744V14.4909H11.6117V14.2116H12.0284V14.4909H12.7244V14.0742H12.3077V14.2116Z" fill="#DA0000"/>
<path d="M11.8866 14.3535H11.7493V14.4909H11.8866V14.3535Z" fill="#DA0000"/>
<path d="M6.7491 5.93003H7.02841V6.06738H6.61174V5.78809H5.91577V6.20475H6.05314V5.93003H6.4698V6.20475H7.16577V5.78809H6.7491V5.93003Z" fill="#239F40"/>
<path d="M6.33243 6.06689H6.19507V6.20427H6.33243V6.06689Z" fill="#239F40"/>
<path d="M5.77393 6.34619H4.52393V6.62549H5.77393V6.34619Z" fill="#239F40"/>
<path d="M5.63657 6.0674H5.4992V5.51337H5.35726V6.0674H5.2199V5.51337H5.08253V5.7881H4.52393V6.20477H4.94059V6.0674H4.66587V5.93004H5.08253V6.20477H5.77393V5.50879H5.63657V6.0674Z" fill="#239F40"/>
<path d="M7.16577 6.34619H5.91577V6.62549H7.16577V6.34619Z" fill="#239F40"/>
<path d="M8.55322 6.34619H7.30322V6.62549H8.55322V6.34619Z" fill="#239F40"/>
<path d="M9.94507 6.34619H8.69507V6.62549H9.94507V6.34619Z" fill="#239F40"/>
<path d="M8.41586 6.0674H8.2785V5.50879H8.13655V6.0674H7.9992V5.50879H7.86183V5.7881H7.30322V6.20477H7.71989V6.0674H7.44059V5.93004H7.86183V6.20477H8.55322V5.50879H8.41586V6.0674Z" fill="#239F40"/>
<path d="M9.52841 5.93003H9.80313V6.06738H9.39104V5.78809H8.69507V6.20475H8.83243V5.93003H9.2491V6.20475H9.94507V5.78809H9.52841V5.93003Z" fill="#239F40"/>
<path d="M9.10733 6.06689H8.96997V6.20427H9.10733V6.06689Z" fill="#239F40"/>
<path d="M16.0579 5.50879H14.2493V5.64616H16.0579V5.50879Z" fill="#239F40"/>
<path d="M2.85726 6.06721H2.7199V5.51318H2.57796V6.06721H2.4406V5.51318H2.30324V5.78791H1.74463V6.20458H2.16587V6.06721H1.88657V5.92985H2.30324V6.20458H2.9992V5.51318H2.85726V6.06721Z" fill="#239F40"/>
<path d="M2.99463 6.34619H1.74463V6.62549H2.99463V6.34619Z" fill="#239F40"/>
<path d="M3.55314 6.06689H3.41577V6.20427H3.55314V6.06689Z" fill="#239F40"/>
<path d="M13.283 5.50879H11.4744V5.64616H13.283V5.50879Z" fill="#239F40"/>
<path d="M10.5037 5.50879H8.69507V5.64616H10.5037V5.50879Z" fill="#239F40"/>
<path d="M4.38648 6.34619H3.13647V6.62549H4.38648V6.34619Z" fill="#239F40"/>
<path d="M4.94508 5.51318H3.13647V5.65054H4.94508V5.51318Z" fill="#239F40"/>
<path d="M7.72438 5.50879H5.91577V5.64616H7.72438V5.50879Z" fill="#239F40"/>
<path d="M3.96981 5.93003H4.24912V6.06738H3.83245V5.78809H3.13647V6.20475H3.27384V5.93003H3.69051V6.20475H4.38648V5.78809H3.96981V5.93003Z" fill="#239F40"/>
<path d="M18.8324 5.50879H17.0283V5.64616H18.8324V5.50879Z" fill="#239F40"/>
<path d="M11.3325 6.34619H10.0825V6.62549H11.3325V6.34619Z" fill="#239F40"/>
<path d="M16.8911 6.3418H15.6411V6.62109H16.8911V6.3418Z" fill="#239F40"/>
<path d="M18.2783 6.3418H17.0283V6.62109H18.2783V6.3418Z" fill="#239F40"/>
<path d="M15.0872 5.92544H15.3619V6.06738H14.9452V5.78809H14.2493V6.20475H14.3912V5.93003L14.8079 5.92544V6.20475H15.4993V5.78809H15.0872V5.92544Z" fill="#239F40"/>
<path d="M17.4452 6.06689H17.3079V6.20427H17.4452V6.06689Z" fill="#239F40"/>
<path d="M17.8617 5.92544H18.141V6.06738H17.7243V5.78809H17.0283V6.20475H17.1703V5.92544H17.5869V6.20475H18.2783V5.78809H17.8617V5.92544Z" fill="#239F40"/>
<path d="M16.7538 6.0674H16.6118V5.50879H16.4745V6.0674H16.3371V5.50879H16.1951V5.7881H15.6411V6.20477H16.0578V6.0674H15.7785V5.92546H16.1951V6.20477H16.8911V5.50879H16.7538V6.0674Z" fill="#239F40"/>
<path d="M11.8912 6.06689H11.7493V6.20427H11.8912V6.06689Z" fill="#239F40"/>
<path d="M12.7244 6.34619H11.4744V6.62549H12.7244V6.34619Z" fill="#239F40"/>
<path d="M14.6659 6.06689H14.5286V6.20427H14.6659V6.06689Z" fill="#239F40"/>
<path d="M11.1952 6.0674H11.0578V5.50879H10.9159V6.0674H10.7785V5.50879H10.6411V5.7881H10.0825V6.20477H10.4992V6.0674H10.2199V5.93004H10.6411V6.20477H11.3325V5.50879H11.1952V6.0674Z" fill="#239F40"/>
<path d="M12.3077 5.93003H12.5824V6.06738H12.1658V5.78809H11.4744V6.20475H11.6117V5.93003H12.0284V6.20475H12.7244V5.78809H12.3077V5.93003Z" fill="#239F40"/>
<path d="M15.4993 6.3418H14.2493V6.62109H15.4993V6.3418Z" fill="#239F40"/>
<path d="M14.1118 6.34619H12.8618V6.62549H14.1118V6.34619Z" fill="#239F40"/>
<path d="M13.9745 6.0674H13.8325V5.50879H13.6951V6.0674H13.5578V5.50879H13.4158V5.7881H12.8618V6.20477H13.2785V6.0674H12.9992V5.93004H13.4158V6.20477H14.1118V5.50879H13.9745V6.0674Z" fill="#239F40"/>
<path d="M2.85726 6.06721H2.7199V5.51318H2.57796V6.06721H2.4406V5.51318H2.30324V5.78791H1.74463V6.20458H2.16587V6.06721H1.88657V5.92985H2.30324V6.20458H2.9992V5.51318H2.85726V6.06721Z" fill="#F1F4FB"/>
<path d="M2.16581 5.51318H1.08065C1.05775 5.55897 1.03486 5.60475 1.01196 5.65054H2.16581V5.51318Z" fill="#F1F4FB"/>
<path d="M0.773927 6.14941C0.76477 6.16773 0.760194 6.18606 0.755615 6.20437H0.773927V6.14941Z" fill="#F1F4FB"/>
<path d="M0.911198 6.20475H1.60717V5.78809H1.1905V5.93003H1.46981V6.06738H1.05314V5.78809H0.947829C0.924935 5.83387 0.902044 5.87966 0.87915 5.93003H0.915781V6.20475H0.911198Z" fill="#F1F4FB"/>
<path d="M4.94508 5.51318H3.13647V5.65054H4.94508V5.51318Z" fill="#F1F4FB"/>
<path d="M5.63657 6.0674H5.4992V5.51337H5.35726V6.0674H5.2199V5.51337H5.08253V5.7881H4.52393V6.20477H4.94059V6.0674H4.66587V5.93004H5.08253V6.20477H5.77393V5.50879H5.63657V6.0674Z" fill="#F1F4FB"/>
<path d="M3.27384 5.93003H3.69051V6.20475H4.38648V5.78809H3.96981V5.93003H4.24912V6.06738H3.83245V5.78809H3.13647V6.20475H3.27384V5.93003Z" fill="#F1F4FB"/>
<path d="M3.55314 6.06689H3.41577V6.20427H3.55314V6.06689Z" fill="#F1F4FB"/>
<path d="M7.72438 5.50879H5.91577V5.64616H7.72438V5.50879Z" fill="#F1F4FB"/>
<path d="M6.33243 6.06689H6.19507V6.20427H6.33243V6.06689Z" fill="#F1F4FB"/>
<path d="M6.05314 5.93003H6.4698V6.20475H7.16577V5.78809H6.7491V5.93003H7.02841V6.06738H6.61174V5.78809H5.91577V6.20475H6.05314V5.93003Z" fill="#F1F4FB"/>
<path d="M8.41586 6.0674H8.2785V5.50879H8.13655V6.0674H7.9992V5.50879H7.86183V5.7881H7.30322V6.20477H7.71989V6.0674H7.44059V5.93004H7.86183V6.20477H8.55322V5.50879H8.41586V6.0674Z" fill="#F1F4FB"/>
<path d="M9.10733 6.06689H8.96997V6.20427H9.10733V6.06689Z" fill="#F1F4FB"/>
<path d="M8.83243 5.93003H9.2491V6.20475H9.94507V5.78809H9.52841V5.93003H9.80313V6.06738H9.39104V5.78809H8.69507V6.20475H8.83243V5.93003Z" fill="#F1F4FB"/>
<path d="M11.1952 6.0674H11.0578V5.50879H10.9159V6.0674H10.7785V5.50879H10.6411V5.7881H10.0825V6.20477H10.4992V6.0674H10.2199V5.93004H10.6411V6.20477H11.3325V5.50879H11.1952V6.0674Z" fill="#F1F4FB"/>
<path d="M10.5037 5.50879H8.69507V5.64616H10.5037V5.50879Z" fill="#F1F4FB"/>
<path d="M11.8912 6.06689H11.7493V6.20427H11.8912V6.06689Z" fill="#F1F4FB"/>
<path d="M11.6117 5.93003H12.0284V6.20475H12.7244V5.78809H12.3077V5.93003H12.5824V6.06738H12.1658V5.78809H11.4744V6.20475H11.6117V5.93003Z" fill="#F1F4FB"/>
<path d="M13.9745 6.0674H13.8325V5.50879H13.6951V6.0674H13.5578V5.50879H13.4158V5.7881H12.8618V6.20477H13.2785V6.0674H12.9992V5.93004H13.4158V6.20477H14.1118V5.50879H13.9745V6.0674Z" fill="#F1F4FB"/>
<path d="M13.283 5.50879H11.4744V5.64616H13.283V5.50879Z" fill="#F1F4FB"/>
<path d="M14.3912 5.93003L14.8079 5.92544V6.20475H15.4993V5.78809H15.0872V5.92544H15.3619V6.06738H14.9452V5.78809H14.2493V6.20475H14.3912V5.93003Z" fill="#F1F4FB"/>
<path d="M16.7538 6.0674H16.6118V5.50879H16.4745V6.0674H16.3371V5.50879H16.1951V5.7881H15.6411V6.20477H16.0578V6.0674H15.7785V5.92546H16.1951V6.20477H16.8911V5.50879H16.7538V6.0674Z" fill="#F1F4FB"/>
<path d="M14.6659 6.06689H14.5286V6.20427H14.6659V6.06689Z" fill="#F1F4FB"/>
<path d="M16.0579 5.50879H14.2493V5.64616H16.0579V5.50879Z" fill="#F1F4FB"/>
<path d="M17.4452 6.06689H17.3079V6.20427H17.4452V6.06689Z" fill="#F1F4FB"/>
<path d="M18.8324 5.50879H17.0283V5.64616H18.8324V5.50879Z" fill="#F1F4FB"/>
<path d="M18.4204 5.78827V6.20494H18.8371V6.06757H18.5624V5.93021H18.979V6.20951H19.2721C19.2537 6.16372 19.2354 6.11794 19.2171 6.07215H19.1164V5.8661C19.0706 5.76995 19.0248 5.67379 18.979 5.57764V5.79284H18.4204V5.78827Z" fill="#F1F4FB"/>
<path d="M17.1703 5.92544H17.5869V6.20475H18.2783V5.78809H17.8617V5.92544H18.141V6.06738H17.7243V5.78809H17.0283V6.20475H17.1703V5.92544Z" fill="#F1F4FB"/>
<path d="M2.99463 6.34619H1.74463V6.62549H2.99463V6.34619Z" fill="#F1F4FB"/>
<path d="M1.60724 6.34619H0.705225C0.668595 6.43777 0.636543 6.52933 0.604492 6.62549H1.61182V6.34619H1.60724Z" fill="#F1F4FB"/>
<path d="M4.38648 6.34619H3.13647V6.62549H4.38648V6.34619Z" fill="#F1F4FB"/>
<path d="M5.77393 6.34619H4.52393V6.62549H5.77393V6.34619Z" fill="#F1F4FB"/>
<path d="M8.55322 6.34619H7.30322V6.62549H8.55322V6.34619Z" fill="#F1F4FB"/>
<path d="M7.16577 6.34619H5.91577V6.62549H7.16577V6.34619Z" fill="#F1F4FB"/>
<path d="M11.3325 6.34619H10.0825V6.62549H11.3325V6.34619Z" fill="#F1F4FB"/>
<path d="M9.94507 6.34619H8.69507V6.62549H9.94507V6.34619Z" fill="#F1F4FB"/>
<path d="M12.7244 6.34619H11.4744V6.62549H12.7244V6.34619Z" fill="#F1F4FB"/>
<path d="M14.1118 6.34619H12.8618V6.62549H14.1118V6.34619Z" fill="#F1F4FB"/>
<path d="M15.4993 6.3418H14.2493V6.62109H15.4993V6.3418Z" fill="#F1F4FB"/>
<path d="M16.8911 6.3418H15.6411V6.62109H16.8911V6.3418Z" fill="#F1F4FB"/>
<path d="M18.2783 6.3418H17.0283V6.62109H18.2783V6.3418Z" fill="#F1F4FB"/>
<path d="M18.4204 6.62109H19.4232C19.3911 6.52952 19.3591 6.43337 19.3224 6.3418H18.4204V6.62109Z" fill="#F1F4FB"/>
<path d="M2.85726 14.354H2.7199V13.7954H2.57796V14.354H2.4406V13.7954H2.30324V14.0747H1.74463V14.4914H2.1613V14.354H1.88657V14.2121H2.30324V14.4914H2.9992V13.7954H2.85726V14.354Z" fill="#F1F4FB"/>
<path d="M1.60717 14.0742H1.1905V14.2116H1.46981V14.3535H1.05314V14.0742H0.87915C0.943253 14.2162 1.01194 14.3535 1.08062 14.4909H1.60717V14.0742Z" fill="#F1F4FB"/>
<path d="M2.16123 13.7954H0.750977C0.769292 13.8412 0.787604 13.887 0.805919 13.9328H2.15665V13.7954H2.16123Z" fill="#F1F4FB"/>
<path d="M3.96981 14.2116H4.24912V14.3535H3.83245V14.0742H3.13647V14.4909H3.27384V14.2116H3.69051V14.4909H4.38648V14.0742H3.96981V14.2116Z" fill="#F1F4FB"/>
<path d="M3.54874 14.3535H3.41138V14.4909H3.54874V14.3535Z" fill="#F1F4FB"/>
<path d="M4.94051 13.7954H3.13647V13.9328H4.94051V13.7954Z" fill="#F1F4FB"/>
<path d="M5.63657 14.354H5.4992V13.7954H5.35726V14.354H5.2199V13.7954H5.08253V14.0747H4.52393V14.4914H4.94059V14.354H4.66587V14.2121H5.08253V14.4914H5.77393V13.7954H5.63657V14.354Z" fill="#F1F4FB"/>
<path d="M7.7198 13.7954H5.91577V13.9328H7.7198V13.7954Z" fill="#F1F4FB"/>
<path d="M6.7491 14.2116H7.02841V14.3535H6.61174V14.0742H5.91577V14.4909H6.05314V14.2116H6.4698V14.4909H7.16577V14.0742H6.7491V14.2116Z" fill="#F1F4FB"/>
<path d="M8.41586 14.354H8.2785V13.7954H8.13655V14.354H7.9992V13.7954H7.86183V14.0747H7.30322V14.4914H7.71989V14.354H7.44059V14.2121H7.86183V14.4914H8.55322V13.7954H8.41586V14.354Z" fill="#F1F4FB"/>
<path d="M6.33243 14.3535H6.19507V14.4909H6.33243V14.3535Z" fill="#F1F4FB"/>
<path d="M9.52841 14.2116H9.80313V14.3535H9.39104V14.0742H8.69507V14.4909H8.83243V14.2116H9.2491V14.4909H9.94507V14.0742H9.52841V14.2116Z" fill="#F1F4FB"/>
<path d="M10.4991 13.7954H8.69507V13.9328H10.4991V13.7954Z" fill="#F1F4FB"/>
<path d="M11.1952 14.354H11.0578V13.7954H10.9159V14.354H10.7785V13.7954H10.6411V14.0747H10.0825V14.4914H10.4992V14.354H10.2199V14.2121H10.6411V14.4914H11.3325V13.7954H11.1952V14.354Z" fill="#F1F4FB"/>
<path d="M9.10733 14.3535H8.96997V14.4909H9.10733V14.3535Z" fill="#F1F4FB"/>
<path d="M12.3077 14.2116H12.5824V14.3535H12.1658V14.0742H11.4744V14.4909H11.6117V14.2116H12.0284V14.4909H12.7244V14.0742H12.3077V14.2116Z" fill="#F1F4FB"/>
<path d="M13.9745 14.354H13.8325V13.7954H13.6951V14.354H13.5578V13.7954H13.4158V14.0747H12.8618V14.4914H13.2785V14.354H12.9992V14.2121H13.4158V14.4914H14.1118V13.7954H13.9745V14.354Z" fill="#F1F4FB"/>
<path d="M13.283 13.7954H11.4744V13.9328H13.283V13.7954Z" fill="#F1F4FB"/>
<path d="M11.8866 14.3535H11.7493V14.4909H11.8866V14.3535Z" fill="#F1F4FB"/>
<path d="M14.6659 14.3535H14.5286V14.4909H14.6659V14.3535Z" fill="#F1F4FB"/>
<path d="M16.0579 13.7954H14.2493V13.9328H16.0579V13.7954Z" fill="#F1F4FB"/>
<path d="M16.7538 14.354H16.6118V13.7954H16.4745V14.354H16.3371V13.7954H16.1951V14.0747H15.6411V14.4914H16.0578V14.354H15.7785V14.2121H16.1951V14.4914H16.8911V13.7954H16.7538V14.354Z" fill="#F1F4FB"/>
<path d="M15.0872 14.2116H15.3619V14.3535H14.9452V14.0742H14.2493V14.4909H14.3912V14.2116H14.8079V14.4909H15.4993V14.0742H15.0872V14.2116Z" fill="#F1F4FB"/>
<path d="M19.2537 13.8458C19.2582 13.8275 19.2628 13.8137 19.272 13.7954H19.2537V13.8458Z" fill="#F1F4FB"/>
<path d="M17.8617 14.2116H18.141V14.3535H17.7243V14.0742H17.0283V14.4909H17.1703V14.2116H17.5869V14.4909H18.2783V14.0742H17.8617V14.2116Z" fill="#F1F4FB"/>
<path d="M19.1164 13.7954H18.979V14.0747H18.4204V14.4914H18.8371V14.354H18.5578V14.2121H18.9744V14.4319C19.0202 14.3357 19.0706 14.2396 19.1118 14.1434V13.7954H19.1164Z" fill="#F1F4FB"/>
<path d="M17.4452 14.3535H17.3079V14.4909H17.4452V14.3535Z" fill="#F1F4FB"/>
<path d="M18.8369 13.7954H17.0283V13.9328H18.8369V13.7954Z" fill="#F1F4FB"/>
<path d="M2.99463 13.3789H1.74463V13.6582H2.99463V13.3789Z" fill="#F1F4FB"/>
<path d="M1.60718 13.3789H0.599854C0.631905 13.4705 0.663957 13.5666 0.700587 13.6582H1.60718V13.3789Z" fill="#F1F4FB"/>
<path d="M4.38648 13.3789H3.13647V13.6582H4.38648V13.3789Z" fill="#F1F4FB"/>
<path d="M5.77393 13.3789H4.52393V13.6582H5.77393V13.3789Z" fill="#F1F4FB"/>
<path d="M7.16577 13.3789H5.91577V13.6582H7.16577V13.3789Z" fill="#F1F4FB"/>
<path d="M8.55322 13.3789H7.30322V13.6582H8.55322V13.3789Z" fill="#F1F4FB"/>
<path d="M11.3325 13.3789H10.0825V13.6582H11.3325V13.3789Z" fill="#F1F4FB"/>
<path d="M9.94507 13.3789H8.69507V13.6582H9.94507V13.3789Z" fill="#F1F4FB"/>
<path d="M14.1118 13.3789H12.8618V13.6582H14.1118V13.3789Z" fill="#F1F4FB"/>
<path d="M12.7244 13.3789H11.4744V13.6582H12.7244V13.3789Z" fill="#F1F4FB"/>
<path d="M15.4993 13.3789H14.2493V13.6582H15.4993V13.3789Z" fill="#F1F4FB"/>
<path d="M16.8911 13.3789H15.6411V13.6582H16.8911V13.3789Z" fill="#F1F4FB"/>
<path d="M18.4204 13.3789V13.6582H19.3224C19.3591 13.5666 19.3911 13.4751 19.4232 13.3789H18.4204Z" fill="#F1F4FB"/>
<path d="M18.2783 13.3789H17.0283V13.6582H18.2783V13.3789Z" fill="#F1F4FB"/>
<path d="M10.7465 7.04169C10.7465 7.04169 10.7556 7.07832 10.7556 7.09664C10.7739 7.24773 10.7098 7.40799 10.5862 7.49498C10.4946 7.56367 10.3756 7.59573 10.2611 7.57741C10.165 7.56368 10.078 7.51788 10.0093 7.45378C9.94518 7.52246 9.8536 7.56826 9.75745 7.57741C9.64756 7.59115 9.53309 7.56367 9.44151 7.49957C9.29499 7.39884 9.22631 7.20652 9.2721 7.03711C9.295 7.06916 9.31788 7.10122 9.34536 7.12869C9.43235 7.21569 9.54683 7.26605 9.66587 7.27063C9.78492 7.27979 9.90854 7.24316 10.0047 7.1699C10.0505 7.20195 10.11 7.22943 10.165 7.24774C10.2886 7.28437 10.4259 7.27063 10.5358 7.21569C10.6274 7.18821 10.7007 7.11953 10.7465 7.04169Z" fill="#DA0000"/>
<path d="M9.64767 7.84233C9.7713 7.74167 9.89493 7.64559 10.014 7.54492C10.1376 7.64559 10.2612 7.74167 10.3849 7.84233C10.3757 8.24041 10.3757 8.62934 10.3665 9.02742C10.3665 9.19671 10.362 9.36602 10.3574 9.53532C10.3528 9.9883 10.3436 10.4413 10.3391 10.8943C10.3345 11.0727 10.3345 11.2512 10.3299 11.425C10.3299 11.5669 10.3299 11.7041 10.3253 11.846C10.3665 11.8185 10.4032 11.7865 10.4352 11.7591C10.6458 11.5852 10.8336 11.3793 10.9893 11.1551C11.2411 10.7845 11.4105 10.3589 11.4792 9.91509C11.5616 9.37974 11.4929 8.81694 11.2823 8.3182C11.1953 8.10315 11.0762 7.89724 10.9389 7.70964C11.2182 7.92927 11.4563 8.20839 11.6257 8.51953C11.8592 8.94049 11.9828 9.42092 11.9737 9.89678C11.9691 10.5877 11.6898 11.2695 11.2136 11.7682C11.0167 11.9741 10.7878 12.148 10.536 12.2898C10.9572 12.4362 11.4105 12.482 11.8546 12.4317C11.6852 12.5003 11.5066 12.5506 11.3281 12.5827C10.9938 12.6467 10.6504 12.6422 10.3162 12.5827C10.3162 12.5964 10.3162 12.6147 10.3024 12.6238C10.2063 12.7337 10.1101 12.8435 10.014 12.9579C9.91782 12.8435 9.81709 12.7337 9.72093 12.6193C9.71178 12.6101 9.71635 12.5964 9.71177 12.5827C9.67514 12.5873 9.64309 12.5964 9.60646 12.601C9.12569 12.6742 8.62203 12.6147 8.17331 12.4317C8.37478 12.4546 8.58082 12.4546 8.77771 12.4408C9.02038 12.418 9.25848 12.3676 9.48742 12.2898C9.4279 12.2532 9.36837 12.2212 9.30885 12.1846C8.92423 11.9375 8.60372 11.5898 8.38394 11.1871C8.15042 10.757 8.03137 10.2583 8.04969 9.76866C8.06343 9.3294 8.18705 8.89015 8.40225 8.51037C8.57624 8.2038 8.80976 7.92927 9.08449 7.70964C9.06159 7.74624 9.03412 7.78286 9.01122 7.81946C8.7365 8.22669 8.56709 8.70255 8.5213 9.19215C8.47093 9.74579 8.57624 10.3132 8.82349 10.8073C9.02496 11.2146 9.32716 11.576 9.68888 11.8506C9.68888 11.7316 9.68888 11.6126 9.68888 11.4937C9.67972 11.3381 9.6843 11.1825 9.67973 11.027C9.67515 10.5694 9.66599 10.1118 9.66141 9.65427C9.66141 9.48497 9.65225 9.3111 9.65225 9.14181C9.65683 8.7117 9.65225 8.27702 9.64767 7.84233Z" fill="#DA0000"/>
<path d="M7.69695 8.2269C7.98541 7.93406 8.35629 7.72358 8.75006 7.61377C8.71801 7.63665 8.69053 7.65952 8.65848 7.6824C8.32881 7.94321 8.05409 8.27266 7.8572 8.64328C7.65574 9.02763 7.54127 9.45774 7.52295 9.88785C7.49548 10.4415 7.62827 11.0043 7.90299 11.4847C7.99915 11.654 8.11361 11.8142 8.23724 11.9606C8.17314 11.9286 8.11362 11.892 8.05409 11.8554C7.6649 11.5945 7.35354 11.2148 7.17497 10.7847C7.06508 10.5193 7.00556 10.2356 7.00098 9.9519V9.82378C7.00556 9.63161 7.03761 9.43487 7.08797 9.24727C7.20244 8.86749 7.40849 8.51059 7.69695 8.2269Z" fill="#DA0000"/>
<path d="M11.2729 7.61816C11.3096 7.62732 11.3462 7.64103 11.3874 7.65018C11.6301 7.72797 11.859 7.84694 12.0651 7.99793C12.3764 8.22671 12.6283 8.53328 12.7931 8.88102C12.9396 9.17844 13.0175 9.50789 13.0266 9.84191V9.9563C13.022 10.057 13.0129 10.1622 12.9991 10.2629C12.9579 10.5283 12.8709 10.7891 12.7381 11.027C12.5229 11.4296 12.1841 11.7637 11.7858 11.9787C12.033 11.6905 12.2253 11.3564 12.349 10.995C12.4726 10.6381 12.5275 10.2629 12.5092 9.88766C12.4863 9.45298 12.3673 9.02288 12.1658 8.63395C11.946 8.2313 11.6392 7.87897 11.2729 7.61816Z" fill="#DA0000"/>
</svg>
