<svg width="170" height="169" fill="none" xmlns="http://www.w3.org/2000/svg"><rect x=".5" width="169" height="169" rx="83" fill="#D7DEED"/><circle cx="85" cy="84.5" r="73.182" fill="#F1F4FB"/><circle cx="85" cy="84.5" r="73.182" fill="#F1F4FB"/><circle cx="85" cy="84.5" r="73.182" fill="#F1F4FB"/><circle cx="85" cy="84.5" r="45.339" fill="#fff"/><g clip-path="url(#a)"><path d="M142.828 124.828C150.813 113.4 155.5 99.498 155.5 84.5 155.5 45.564 123.936 14 85 14S14.5 45.564 14.5 84.5c0 14.999 4.687 28.9 12.672 40.328h115.656z" fill="#87AB49"/><path d="M142.832 30.523v94.305C130.09 143.067 108.937 155 85 155c-23.937 0-45.09-11.933-57.832-30.172V30.523l15.193-2.17L85 22.262l42.639 6.091 15.193 2.17z" fill="#E9EFFF"/><path d="m49.108 27.39-6.747.963-15.193 2.17v94.305C39.91 143.067 61.063 155 85 155c23.937 0 45.09-11.933 57.832-30.172-51.762 0-93.723-41.961-93.723-93.723V27.39z" fill="#D3DCFB"/><path d="M142.832 30.523H27.168V19.508A5.508 5.508 0 0 1 32.676 14h104.648a5.508 5.508 0 0 1 5.508 5.508v11.015z" fill="#5A78A6"/><path d="M46.048 27.77a2.754 2.754 0 0 1 2.754-2.754v-5.508a2.754 2.754 0 1 1 0-5.508H32.676a5.508 5.508 0 0 0-5.508 5.508v11.015h21.634a2.754 2.754 0 0 1-2.754-2.753z" fill="#5A78A6"/><path d="M131.128 25.016a2.754 2.754 0 1 0 0-5.508 2.754 2.754 0 0 0 0 5.508z" fill="#CAD4EB"/><path d="M121.489 25.016a2.754 2.754 0 1 0 0-5.508 2.754 2.754 0 0 0 0 5.508z" fill="#D7DEED"/><path d="M111.851 25.016a2.753 2.753 0 1 0 0-5.507 2.753 2.753 0 0 0 0 5.507z" fill="#F1F4FB"/><path d="M38.872 25.016h59.21a2.754 2.754 0 1 0 0-5.508h-59.21a2.754 2.754 0 1 0 0 5.508z" fill="#466087"/><path d="M85 102.813c17.491 0 31.67-14.179 31.67-31.67 0-17.49-14.179-31.67-31.67-31.67-17.49 0-31.67 14.18-31.67 31.67 0 17.491 14.18 31.67 31.67 31.67z" fill="#fff"/><path d="M105.51 89.519a27.434 27.434 0 0 0 7.029-18.375c0-15.21-12.33-27.54-27.539-27.54-15.21 0-27.54 12.33-27.54 27.54a27.434 27.434 0 0 0 7.03 18.375h41.02z" fill="#E9EFFF"/><path d="M102.32 82.761c-2.367-2.09-12.62-3.777-12.62-3.777V66.928h-9.4v12.056s-10.253 1.688-12.62 3.777c-.973.86-2.146 3.705-3.19 6.758 5.042 5.624 12.362 9.164 20.51 9.164 8.148 0 15.468-3.54 20.51-9.164-1.044-3.053-2.217-5.898-3.19-6.758z" fill="#1E9EF4"/><path d="M96.254 94.918c-10.338 0-19.344-5.698-24.053-14.123-1.949.573-3.704 1.245-4.52 1.966-.974.86-2.147 3.705-3.192 6.758 5.042 5.624 12.363 9.164 20.51 9.164 5.181 0 10.027-1.432 14.166-3.92-.956.101-1.927.154-2.91.154zM80.3 66.928v12.056c5.049 0 7.88-3.875 7.88-3.875l1.52-8.181h-9.4z" fill="#1886EA"/><path d="M93.74 62.239c0 6.436-3.913 13.984-8.74 13.984s-8.74-7.548-8.74-13.984S80.173 51.175 85 51.175s8.74 4.627 8.74 11.064z" fill="#4FABF7"/><path d="M79.265 62.239c0-5.753 3.127-10.06 7.238-10.91A7.4 7.4 0 0 0 85 51.174c-4.827 0-8.74 4.627-8.74 11.064 0 6.436 3.913 13.984 8.74 13.984.513 0 1.015-.085 1.503-.245-4.111-1.346-7.238-7.986-7.238-13.74z" fill="#1E9EF4"/><path d="M118.047 122.779H51.953a5.508 5.508 0 0 1 0-11.015h66.094a5.508 5.508 0 1 1 0 11.015z" fill="#5A78A6"/><path d="M72.607 119.337a2.066 2.066 0 1 0 0-4.132 2.066 2.066 0 0 0 0 4.132zM80.87 119.337a2.066 2.066 0 1 0-.001-4.132 2.066 2.066 0 0 0 0 4.132zM89.13 119.337a2.066 2.066 0 1 0 0-4.131 2.066 2.066 0 0 0 0 4.131zM97.393 119.337a2.066 2.066 0 1 0-.001-4.131 2.066 2.066 0 0 0 0 4.131zM105.654 119.337a2.066 2.066 0 1 0 0-4.132 2.066 2.066 0 0 0 0 4.132zM113.916 119.337a2.065 2.065 0 1 0 0-4.13 2.065 2.065 0 0 0 0 4.13zM64.346 119.337a2.066 2.066 0 1 0 0-4.131 2.066 2.066 0 0 0 0 4.131zM56.084 119.337a2.066 2.066 0 1 0 0-4.131 2.066 2.066 0 0 0 0 4.131z" fill="#46628B"/><path d="M112.539 137.926H51.953a5.508 5.508 0 0 1 0-11.016h60.586v11.016z" fill="#fff"/><path d="M112.539 137.926h5.508a5.508 5.508 0 1 0 0-11.016h-5.508a5.508 5.508 0 1 0 0 11.016z" fill="#87AB49"/><path d="M74.002 134.483a2.065 2.065 0 1 0 .001-4.13 2.065 2.065 0 0 0-.001 4.13zM82.264 134.483a2.065 2.065 0 1 0 0-4.13 2.065 2.065 0 0 0 0 4.13zM90.525 134.483a2.065 2.065 0 1 0 .001-4.13 2.065 2.065 0 0 0 0 4.13zM98.787 134.483a2.065 2.065 0 1 0 .001-4.13 2.065 2.065 0 0 0 0 4.13zM65.74 134.483a2.065 2.065 0 1 0 .001-4.13 2.065 2.065 0 0 0 0 4.13zM57.478 134.483a2.065 2.065 0 1 0 .002-4.13 2.065 2.065 0 0 0-.002 4.13z" fill="#BEC8F7"/><path d="M113.444 130.686v3.465c0 .44.49.702.856.458l2.597-1.732a.552.552 0 0 0 0-.917l-2.597-1.732a.55.55 0 0 0-.856.458z" fill="#fff"/></g><defs><clipPath id="a"><path fill="#fff" transform="translate(14.5 14)" d="M0 0h141v141H0z"/></clipPath></defs></svg>