<svg width="170" height="169" fill="none" xmlns="http://www.w3.org/2000/svg"><rect x=".5" width="169" height="169" rx="83" fill="#D7DEED"/><circle cx="85" cy="84.5" r="73.182" fill="#F1F4FB"/><circle cx="85" cy="84.5" r="73.182" fill="#F1F4FB"/><circle cx="85" cy="84.5" r="73.182" fill="#F1F4FB"/><circle cx="85" cy="84.5" r="45.339" fill="#fff"/><g clip-path="url(#a)"><path d="M126.67 132.525c13.709-11.499 22.416-28.685 22.416-47.893 0-34.62-28.279-62.686-63.164-62.686-34.885 0-63.165 28.065-63.165 62.686 0 13.775 4.48 26.509 12.07 36.853l91.843 11.04z" fill="#CAD4EB"/><path d="M125.891 79.196c-14.373-5.29-23.853-18.984-23.853-34.36V34.404H41.995c-4.073 0-7.375 3.276-7.375 7.319v79.483a63.245 63.245 0 0 0 6.479 7.59l79.844 8.005a63.522 63.522 0 0 0 5.994-4.499V79.382a3.03 3.03 0 0 1-1.046-.186z" fill="#E9EFFF"/><path d="M66.716 34.403H41.995c-4.073 0-7.375 3.276-7.375 7.319v79.483a63.245 63.245 0 0 0 6.479 7.59l25.617 2.568V39.689c-2.883-2.862 0-5.286 0-5.286z" fill="#BEC8F7"/><path d="M102.038 44.837v-3.115H44.656a2.651 2.651 0 0 0-2.661 2.64v16.44a2.651 2.651 0 0 0 2.661 2.641h62.416a36.755 36.755 0 0 1-5.034-18.606z" fill="#879EC1"/><path d="M97.594 56.125c1.971 0 3.569-1.586 3.569-3.543 0-1.956-1.598-3.542-3.57-3.542-1.97 0-3.569 1.586-3.569 3.542 0 1.957 1.599 3.543 3.57 3.543z" fill="#FFDD40"/><path d="M86.879 56.125c1.97 0 3.569-1.586 3.569-3.543 0-1.956-1.598-3.542-3.57-3.542-1.97 0-3.569 1.586-3.569 3.542 0 1.957 1.598 3.543 3.57 3.543z" fill="#FB1B43"/><path d="M98.23 53.536c.873 0 1.582-.703 1.582-1.57 0-.868-.709-1.57-1.583-1.57-.873 0-1.582.702-1.582 1.57 0 .867.709 1.57 1.582 1.57z" fill="#FFE98D"/><path d="M87.504 53.536c.874 0 1.583-.703 1.583-1.57 0-.868-.709-1.57-1.583-1.57s-1.582.702-1.582 1.57c0 .867.708 1.57 1.582 1.57z" fill="#FC90A5"/><path d="M107.072 63.443H44.656a2.651 2.651 0 0 0-2.661 2.642v16.439a2.651 2.651 0 0 0 2.661 2.64h72.245a2.652 2.652 0 0 0 2.662-2.64v-6.379a36.363 36.363 0 0 1-12.491-12.702z" fill="#879EC1"/><path d="M101.065 75.056c.45-1.905-.742-3.812-2.662-4.258-1.92-.446-3.841.737-4.29 2.643-.45 1.905.742 3.812 2.662 4.258 1.92.446 3.841-.737 4.29-2.643z" fill="#708DB8"/><path d="M90.355 75.06c.45-1.905-.743-3.81-2.663-4.257-1.92-.446-3.84.737-4.29 2.643-.45 1.905.742 3.811 2.662 4.258 1.92.446 3.842-.737 4.29-2.643z" fill="#FB1B43"/><path d="M111.863 74.66c.197-1.947-1.233-3.684-3.195-3.88-1.961-.195-3.711 1.224-3.908 3.17-.197 1.947 1.233 3.684 3.194 3.88 1.962.195 3.712-1.224 3.909-3.17z" fill="#CAD4EB"/><path d="M116.901 85.165H44.656a2.651 2.651 0 0 0-2.661 2.641v16.439a2.652 2.652 0 0 0 2.661 2.642h72.245a2.652 2.652 0 0 0 2.662-2.642V87.806a2.652 2.652 0 0 0-2.662-2.641z" fill="#879EC1"/><path d="M116.901 106.887H44.656a2.651 2.651 0 0 0-2.661 2.641v16.439a2.651 2.651 0 0 0 2.661 2.641h72.245a2.651 2.651 0 0 0 2.662-2.641v-16.439a2.651 2.651 0 0 0-2.662-2.641z" fill="#879EC1"/><path d="M66.645 61.803c0-.465-.204-.904-.55-1.22a10.792 10.792 0 0 1-3.547-8c0-3.168 1.368-6.017 3.547-8.002.346-.315.55-.754.55-1.22 0-.905-.74-1.64-1.652-1.64H44.656a2.66 2.66 0 0 0-1.387.39v20.941c.404.246.878.39 1.387.39h21.99v-1.639zM66.645 83.525c0-.466-.204-.905-.55-1.22a10.792 10.792 0 0 1-3.547-8.001c0-3.167 1.368-6.016 3.547-8.002.346-.315.55-.754.55-1.22v-1.639H44.656c-.51 0-.983.145-1.387.39v20.941c.404.246.878.39 1.387.39h21.99v-1.639zM66.095 88.024c.346-.315.55-.754.55-1.22v-1.64H44.656c-.51 0-.983.145-1.387.391v20.941c.404.246.878.391 1.387.391h21.99v-1.64c0-.466-.205-.905-.55-1.22a10.791 10.791 0 0 1-3.548-8.001c0-3.168 1.368-6.017 3.547-8.002z" fill="#7C95BA"/><path d="M66.095 109.746c.346-.315.55-.754.55-1.22v-1.639H44.656c-.51 0-.983.144-1.387.39v20.941c.404.246.878.39 1.387.39h20.337c.912 0 1.652-.734 1.652-1.64 0-.465-.204-.904-.55-1.219a10.792 10.792 0 0 1-3.547-8.002c0-3.167 1.368-6.016 3.547-8.001z" fill="#7C95BA"/><path d="M116.901 128.608H44.656a2.663 2.663 0 0 0-2.337 1.378c11.337 10.738 26.694 17.332 43.603 17.332 12.366 0 23.9-3.53 33.641-9.625v-6.443a2.652 2.652 0 0 0-2.662-2.642z" fill="#879EC1"/><path d="M43.269 128.996v1.868a63.24 63.24 0 0 0 19.922 12.269 10.792 10.792 0 0 1 2.904-11.665c.346-.315.55-.755.55-1.22 0-.906-.74-1.64-1.652-1.64H44.656c-.509 0-.983.143-1.387.388z" fill="#7C95BA"/><path d="M101.163 139.469c0 1.956-1.598 3.542-3.57 3.542-1.97 0-3.57-1.585-3.57-3.542 0-1.956 1.599-3.542 3.57-3.542 1.972 0 3.57 1.586 3.57 3.542z" fill="#708DB8"/><path d="M90.448 139.469c0 1.956-1.598 3.542-3.57 3.542-1.97 0-3.569-1.585-3.569-3.542 0-1.956 1.598-3.542 3.57-3.542 1.97 0 3.569 1.586 3.569 3.542z" fill="#FB1B43"/><path d="M111.878 139.469c0 1.956-1.598 3.542-3.57 3.542-1.971 0-3.569-1.585-3.569-3.542 0-1.956 1.598-3.542 3.569-3.542 1.972 0 3.57 1.586 3.57 3.542z" fill="#CAD4EB"/><path d="M51.333 56.914a2.04 2.04 0 0 1-2.049-2.032v-4.599a2.04 2.04 0 0 1 2.049-2.033 2.04 2.04 0 0 1 2.048 2.033v4.599a2.04 2.04 0 0 1-2.048 2.032zM58.903 56.914a2.04 2.04 0 0 1-2.048-2.032v-4.599a2.04 2.04 0 0 1 2.048-2.033 2.04 2.04 0 0 1 2.049 2.033v4.599a2.04 2.04 0 0 1-2.049 2.032zM66.474 56.914a2.04 2.04 0 0 1-2.048-2.032v-4.599a2.04 2.04 0 0 1 2.048-2.033 2.04 2.04 0 0 1 2.048 2.033v4.599a2.04 2.04 0 0 1-2.048 2.032zM74.045 56.914a2.04 2.04 0 0 1-2.048-2.032v-4.599a2.04 2.04 0 0 1 2.048-2.033 2.04 2.04 0 0 1 2.049 2.033v4.599a2.04 2.04 0 0 1-2.05 2.032z" fill="#1C2E7A"/><path d="M51.333 78.636a2.04 2.04 0 0 1-2.049-2.033v-4.598a2.04 2.04 0 0 1 2.049-2.033 2.04 2.04 0 0 1 2.048 2.033v4.598a2.04 2.04 0 0 1-2.048 2.033zM58.903 78.636a2.04 2.04 0 0 1-2.048-2.033v-4.598a2.04 2.04 0 0 1 2.048-2.033 2.04 2.04 0 0 1 2.049 2.033v4.598a2.04 2.04 0 0 1-2.049 2.033zM66.474 78.636a2.04 2.04 0 0 1-2.048-2.033v-4.598a2.04 2.04 0 0 1 2.048-2.033 2.04 2.04 0 0 1 2.048 2.033v4.598a2.04 2.04 0 0 1-2.048 2.033zM74.045 78.636a2.04 2.04 0 0 1-2.048-2.033v-4.598a2.04 2.04 0 0 1 2.048-2.033 2.04 2.04 0 0 1 2.049 2.033v4.598a2.04 2.04 0 0 1-2.05 2.033zM51.333 100.358a2.04 2.04 0 0 1-2.049-2.033v-4.599a2.04 2.04 0 0 1 2.049-2.032 2.04 2.04 0 0 1 2.048 2.032v4.6a2.04 2.04 0 0 1-2.048 2.032zM58.903 100.358a2.04 2.04 0 0 1-2.048-2.033v-4.599a2.04 2.04 0 0 1 2.048-2.032 2.04 2.04 0 0 1 2.049 2.032v4.6a2.04 2.04 0 0 1-2.049 2.032zM66.474 100.358a2.04 2.04 0 0 1-2.048-2.033v-4.599a2.04 2.04 0 0 1 2.048-2.032 2.04 2.04 0 0 1 2.048 2.032v4.6a2.04 2.04 0 0 1-2.048 2.032zM74.045 100.358a2.04 2.04 0 0 1-2.048-2.033v-4.599a2.04 2.04 0 0 1 2.048-2.032 2.04 2.04 0 0 1 2.049 2.032v4.6a2.04 2.04 0 0 1-2.05 2.032zM51.333 122.08a2.041 2.041 0 0 1-2.049-2.033v-4.599a2.04 2.04 0 0 1 2.049-2.033 2.04 2.04 0 0 1 2.048 2.033v4.599a2.041 2.041 0 0 1-2.048 2.033zM58.903 122.08a2.041 2.041 0 0 1-2.048-2.033v-4.599a2.04 2.04 0 0 1 2.048-2.033 2.04 2.04 0 0 1 2.049 2.033v4.599a2.041 2.041 0 0 1-2.049 2.033zM66.474 122.08a2.041 2.041 0 0 1-2.048-2.033v-4.599a2.04 2.04 0 0 1 2.048-2.033 2.04 2.04 0 0 1 2.048 2.033v4.599a2.041 2.041 0 0 1-2.048 2.033zM74.045 122.08a2.041 2.041 0 0 1-2.048-2.033v-4.599a2.04 2.04 0 0 1 2.048-2.033 2.04 2.04 0 0 1 2.049 2.033v4.599a2.041 2.041 0 0 1-2.05 2.033zM51.333 135.137c-.68 0-1.282.33-1.654.837a63.01 63.01 0 0 0 3.702 2.393v-1.197a2.04 2.04 0 0 0-2.048-2.033zM58.903 135.137a2.04 2.04 0 0 0-2.048 2.033v3.127a62.671 62.671 0 0 0 4.048 1.907c.031-.141.049-.286.049-.436v-4.598a2.04 2.04 0 0 0-2.049-2.033zM66.474 143.801a2.04 2.04 0 0 1-2.048-2.033v-4.598a2.04 2.04 0 0 1 2.048-2.033 2.04 2.04 0 0 1 2.048 2.033v4.598a2.04 2.04 0 0 1-2.048 2.033zM74.045 143.801a2.04 2.04 0 0 1-2.048-2.033v-4.598a2.04 2.04 0 0 1 2.048-2.033 2.04 2.04 0 0 1 2.049 2.033v4.598a2.04 2.04 0 0 1-2.05 2.033z" fill="#4D678D"/><path d="M117.514 82.523a.612.612 0 0 1-.613.61H44.656a.611.611 0 0 1-.613-.61V66.084c0-.335.275-.608.613-.608h61.105a39.113 39.113 0 0 1-2.198-4.066H44.656a.611.611 0 0 1-.613-.608V44.363c0-.336.275-.608.613-.608H99.89v-4.067H44.656c-2.597 0-4.71 2.097-4.71 4.675v16.439c0 .98.307 1.89.828 2.641a4.623 4.623 0 0 0-.828 2.641v16.44c0 .98.307 1.889.828 2.64a4.62 4.62 0 0 0-.828 2.642v16.439c0 .98.307 1.89.828 2.642a4.62 4.62 0 0 0-.828 2.641v16.439c0 .82.217 1.589.593 2.26a63.423 63.423 0 0 0 3.504 3.327v-.304c0-.336.275-.609.613-.609h72.245c.338 0 .613.273.613.609v7.674a63.25 63.25 0 0 0 4.097-2.569v-5.105c0-.98-.307-1.89-.828-2.642a4.621 4.621 0 0 0 .828-2.641v-16.439c0-.98-.307-1.889-.828-2.641a4.625 4.625 0 0 0 .828-2.642V87.806c0-.98-.307-1.89-.828-2.641a4.624 4.624 0 0 0 .828-2.642v-2.686a38.657 38.657 0 0 1-4.097-2.326v5.012zm0 43.444a.611.611 0 0 1-.613.608H44.656a.611.611 0 0 1-.613-.608v-16.439c0-.336.275-.609.613-.609h72.245c.338 0 .613.273.613.609v16.439zm0-21.722a.612.612 0 0 1-.613.609H44.656a.611.611 0 0 1-.613-.609V87.806c0-.335.275-.608.613-.608h72.245c.338 0 .613.273.613.608v16.439z" fill="#4B6BB2"/><path d="M117.514 82.523a.612.612 0 0 1-.613.61H44.656a.611.611 0 0 1-.613-.61V66.084c0-.335.275-.608.613-.608h61.105a39.113 39.113 0 0 1-2.198-4.066H44.656a.611.611 0 0 1-.613-.608V44.363c0-.336.275-.608.613-.608H99.89v-4.067H44.656c-2.597 0-4.71 2.097-4.71 4.675v16.439c0 .98.307 1.89.828 2.641a4.623 4.623 0 0 0-.828 2.641v16.44c0 .98.307 1.889.828 2.64a4.62 4.62 0 0 0-.828 2.642v16.439c0 .98.307 1.89.828 2.642a4.62 4.62 0 0 0-.828 2.641v16.439c0 .82.217 1.589.593 2.26a63.423 63.423 0 0 0 3.504 3.327v-.304c0-.336.275-.609.613-.609h72.245c.338 0 .613.273.613.609v7.674a63.25 63.25 0 0 0 4.097-2.569v-5.105c0-.98-.307-1.89-.828-2.642a4.621 4.621 0 0 0 .828-2.641v-16.439c0-.98-.307-1.889-.828-2.641a4.625 4.625 0 0 0 .828-2.642V87.806c0-.98-.307-1.89-.828-2.641a4.624 4.624 0 0 0 .828-2.642v-2.686a38.657 38.657 0 0 1-4.097-2.326v5.012zm0 43.444a.611.611 0 0 1-.613.608H44.656a.611.611 0 0 1-.613-.608v-16.439c0-.336.275-.609.613-.609h72.245c.338 0 .613.273.613.609v16.439zm0-21.722a.612.612 0 0 1-.613.609H44.656a.611.611 0 0 1-.613-.609V87.806c0-.335.275-.608.613-.608h72.245c.338 0 .613.273.613.608v16.439z" fill="#5A78A6"/><path d="M151.177 30.662c-5.91-1.389-6.511-6.21-6.494-8.238a1.298 1.298 0 0 0-.877-1.235 51.34 51.34 0 0 0-33.753 0 1.297 1.297 0 0 0-.876 1.235c.017 2.027-.585 6.85-6.494 8.238-.596.14-1.021.661-1.021 1.268V44.84c0 15.552 9.619 29.36 24.081 34.683a3.437 3.437 0 0 0 2.374 0c14.453-5.32 24.08-19.123 24.08-34.684V31.93c0-.607-.425-1.128-1.02-1.268z" fill="#9FC65F"/><path d="M143.768 66.066a1.18 1.18 0 0 0-1.091-.838c-2.314-.1-3.076-1.557-3.325-2.574a1.168 1.168 0 0 0-1.205-.88c-7.917.441-9.403-5.915-9.674-7.905a2.667 2.667 0 0 0-.442-1.147l-4.967-7.268a.71.71 0 0 0-.369-.617c-8.14-4.551-7.398-13.063-6.785-16.256a1.165 1.165 0 0 0-.93-1.364c-2.624-.505-3.428-2.61-3.668-3.667a1.165 1.165 0 0 0-.704-.803c-.621-.26-.99-.646-1.201-1.067a1.289 1.289 0 0 0-.231.743c.018 2.028-.584 6.85-6.493 8.239-.596.14-1.021.66-1.021 1.268v12.908c0 15.553 9.619 29.36 24.081 34.683a3.432 3.432 0 0 0 2.373 0 36.645 36.645 0 0 0 16.456-12.132c-.441-.376-.678-.888-.804-1.323z" fill="#92B459"/><path d="M125.032 81.424c-15.375-5.659-25.415-20.289-25.415-36.586V31.93c0-1.55 1.067-2.884 2.594-3.243 4.102-.964 4.94-3.929 4.92-6.246a3.328 3.328 0 0 1 2.245-3.167c11.319-3.941 23.788-3.942 35.107 0a3.326 3.326 0 0 1 2.244 3.167c-.019 2.317.818 5.282 4.92 6.246 1.528.36 2.595 1.693 2.595 3.243v12.908c0 16.419-10.149 30.967-25.415 36.586a5.498 5.498 0 0 1-3.795 0zm-21.325-48.929V44.84c0 14.478 8.864 27.67 22.747 32.78.306.113.644.113.951 0 13.652-5.026 22.747-18.051 22.747-32.78V32.495c-6.465-1.799-7.408-7.22-7.505-9.556a49.473 49.473 0 0 0-31.435 0c-.097 2.336-1.04 7.757-7.505 9.556z" fill="#C0E385"/><path d="M143.768 66.066a1.14 1.14 0 0 0-.347-.538 34.619 34.619 0 0 1-16.016 12.09 1.375 1.375 0 0 1-.951 0c-13.883-5.11-22.747-18.3-22.747-32.78V32.496c6.19-1.722 7.318-6.764 7.487-9.24a1.21 1.21 0 0 0-.586-.508c-1.7-.712-1.521-2.364-1.342-3.103.027-.112.035-.225.029-.338a3.325 3.325 0 0 0-2.163 3.135c.019 2.317-.818 5.282-4.92 6.246-1.528.36-2.595 1.693-2.595 3.243V44.84c0 16.297 10.04 30.926 25.415 36.586 1.224.45 2.572.45 3.796 0a38.698 38.698 0 0 0 17.743-13.291c-.181-.128-.4-.21-.638-.225-1.392-.09-1.945-1.084-2.165-1.843z" fill="#ADCF73"/><path d="M126.929 71.752a28.871 28.871 0 0 0 12.303-10.076c3.439-4.947 5.256-10.77 5.256-16.838v-8.7c-3.339-1.999-5.733-5.082-6.835-8.81a43.812 43.812 0 0 0-21.448 0c-1.102 3.728-3.495 6.811-6.835 8.81v8.7c0 6.068 1.817 11.889 5.254 16.835a28.87 28.87 0 0 0 12.305 10.079z" fill="#93BB4E"/><path d="M138.965 62.046a1.179 1.179 0 0 0-.818-.271c-7.917.44-9.403-5.916-9.674-7.906a2.68 2.68 0 0 0-.442-1.147l-4.968-7.268a.71.71 0 0 0-.368-.617c-8.141-4.551-7.398-13.063-6.785-16.256a1.14 1.14 0 0 0 .005-.377c-1.201 3.334-3.47 6.094-6.544 7.934v8.7c0 6.068 1.816 11.889 5.254 16.835a28.872 28.872 0 0 0 12.304 10.08 28.852 28.852 0 0 0 12.036-9.707z" fill="#87AB49"/><path d="m124.109 53.73-4.902-4.865a2.692 2.692 0 0 1 0-3.828 2.741 2.741 0 0 1 3.856 0l2.974 2.952 5.656-5.613a2.743 2.743 0 0 1 3.857 0 2.693 2.693 0 0 1 0 3.827l-7.585 7.527a2.742 2.742 0 0 1-3.856 0z" fill="#E9EFFF"/><path d="M64.668 128.608a2.04 2.04 0 0 1 2.048-2.032h-22.06a.611.611 0 0 1-.613-.609v-16.439c0-.336.275-.609.613-.609h22.06a2.04 2.04 0 0 1-2.048-2.033c0-1.122.917-2.033 2.048-2.033h-22.06a.611.611 0 0 1-.613-.608v-16.44c0-.335.275-.607.613-.607h22.06a2.04 2.04 0 0 1-2.048-2.033 2.04 2.04 0 0 1 2.048-2.033h-22.06a.611.611 0 0 1-.613-.609V66.084c0-.335.275-.608.613-.608h22.06a2.04 2.04 0 0 1-2.048-2.033 2.04 2.04 0 0 1 2.048-2.033h-22.06a.611.611 0 0 1-.613-.608v-16.44c0-.335.275-.608.613-.608h22.06a2.04 2.04 0 0 1-2.048-2.032 2.04 2.04 0 0 1 2.048-2.034h-22.06c-2.597 0-4.71 2.097-4.71 4.675v16.439c0 .98.307 1.89.828 2.641a4.623 4.623 0 0 0-.828 2.641v16.44c0 .98.307 1.889.828 2.64a4.62 4.62 0 0 0-.828 2.642v16.439c0 .98.307 1.89.828 2.642a4.62 4.62 0 0 0-.828 2.641v16.439c0 .82.217 1.589.593 2.26a63.423 63.423 0 0 0 3.504 3.327v-.304c0-.336.275-.609.613-.609h22.06a2.04 2.04 0 0 1-2.048-2.033z" fill="#4D6B99"/><path d="M97.594 121.29c1.971 0 3.569-1.586 3.569-3.543 0-1.956-1.598-3.542-3.57-3.542-1.97 0-3.569 1.586-3.569 3.542 0 1.957 1.599 3.543 3.57 3.543z" fill="#708DB8"/><path d="M86.879 121.29c1.97 0 3.569-1.586 3.569-3.543 0-1.956-1.598-3.542-3.57-3.542-1.97 0-3.569 1.586-3.569 3.542 0 1.957 1.598 3.543 3.57 3.543z" fill="#FB1B43"/><path d="M108.308 121.29c1.972 0 3.57-1.586 3.57-3.543 0-1.956-1.598-3.542-3.57-3.542-1.971 0-3.569 1.586-3.569 3.542 0 1.957 1.598 3.543 3.569 3.543z" fill="#CAD4EB"/><path d="M101.163 96.026c0 1.956-1.598 3.542-3.57 3.542-1.97 0-3.57-1.586-3.57-3.542 0-1.957 1.599-3.543 3.57-3.543 1.972 0 3.57 1.586 3.57 3.543z" fill="#708DB8"/><path d="M90.448 96.026c0 1.956-1.598 3.542-3.57 3.542-1.97 0-3.569-1.586-3.569-3.542 0-1.957 1.598-3.543 3.57-3.543 1.97 0 3.569 1.586 3.569 3.543z" fill="#FB1B43"/><path d="M111.878 96.026c0 1.956-1.598 3.542-3.57 3.542-1.971 0-3.569-1.586-3.569-3.542 0-1.957 1.598-3.543 3.569-3.543 1.972 0 3.57 1.586 3.57 3.543z" fill="#CAD4EB"/></g><defs><clipPath id="a"><path fill="#fff" transform="translate(22.5 16.318)" d="M0 0h132v131H0z"/></clipPath></defs></svg>