<svg width="50" height="53" viewBox="0 0 50 53" fill="none" xmlns="http://www.w3.org/2000/svg">
<g clip-path="url(#clip0_7846_143365)">
<path d="M48.192 18.2927C47.1045 15.6758 44.8983 12.8503 43.1707 11.9571C44.4027 14.3427 45.2577 16.9047 45.7056 19.552L45.7101 19.594C42.8801 12.5416 38.0829 9.69348 34.1627 3.49999C33.9644 3.18677 33.7662 2.8729 33.5731 2.54159C33.4626 2.35236 33.3742 2.18186 33.2973 2.02492C33.1347 1.71012 33.0095 1.37742 32.924 1.03358C32.9241 1.01771 32.9184 1.00236 32.9079 0.990445C32.8974 0.978534 32.8829 0.970898 32.8672 0.968994C32.8517 0.964762 32.8355 0.964762 32.82 0.968994C32.8168 0.968994 32.8116 0.974807 32.8078 0.976098C32.8039 0.97739 32.7955 0.983202 32.7897 0.985786L32.7994 0.968994C26.5122 4.65021 24.3778 11.4637 24.184 14.8737C21.6724 15.0459 19.2709 15.9711 17.293 17.5287C17.0868 17.3539 16.8712 17.1905 16.6472 17.0391C16.0769 15.0428 16.0526 12.9301 16.5768 10.9212C14.2679 12.0396 12.2163 13.6252 10.5519 15.5776H10.5403C9.54827 14.3202 9.61802 10.174 9.67485 9.30793C9.38138 9.42587 9.10125 9.57459 8.83915 9.75161C7.96342 10.3766 7.14476 11.0779 6.39275 11.8473C5.53579 12.7162 4.75311 13.6552 4.05292 14.6547V14.6586V14.6541C2.44386 16.9349 1.30246 19.5118 0.694612 22.2361L0.661028 22.4014C0.613883 22.6217 0.44403 23.7247 0.414968 23.9643C0.414968 23.9831 0.411093 24.0005 0.409156 24.0192C0.190057 25.1581 0.0542887 26.3113 0.00292969 27.4699V27.5991C0.0139917 33.8627 2.37285 39.8945 6.61386 44.5039C10.8549 49.1133 16.6698 51.9653 22.9108 52.4968C29.1518 53.0284 35.3653 51.2009 40.3248 47.3751C45.2842 43.5494 48.6292 38.0033 49.6994 31.8318C49.7414 31.5089 49.7756 31.1892 49.8131 30.8631C50.3286 26.6018 49.7705 22.2793 48.1894 18.2888L48.192 18.2927ZM19.3429 37.8871C19.4598 37.9433 19.5696 38.004 19.6897 38.0576L19.7071 38.0686C19.5857 38.0105 19.4643 37.95 19.3429 37.8871V37.8871ZM45.7108 19.6011V19.5772L45.7153 19.6037L45.7108 19.6011Z" fill="url(#paint0_linear_7846_143365)"/>
<path d="M48.1917 18.2926C47.1042 15.6757 44.898 12.8502 43.1704 11.957C44.4024 14.3427 45.2574 16.9047 45.7053 19.552V19.5759L45.7098 19.6023C47.6394 25.1236 47.3604 31.1769 44.931 36.4972C42.0622 42.6526 35.1208 48.9617 24.2515 48.6517C12.5104 48.3191 2.16423 39.6036 0.233206 28.1919C-0.11877 26.3919 0.233206 25.4794 0.410163 24.0166C0.168785 25.1528 0.0340833 26.3091 0.0078125 27.4705V27.5996C0.0188745 33.8632 2.37773 39.8951 6.61874 44.5045C10.8597 49.1139 16.6747 51.9658 22.9157 52.4974C29.1567 53.029 35.3702 51.2015 40.3297 47.3757C45.2891 43.5499 48.6341 38.0039 49.7043 31.8324C49.7463 31.5095 49.7805 31.1898 49.8179 30.8636C50.3335 26.6024 49.7754 22.2799 48.1943 18.2894L48.1917 18.2926Z" fill="url(#paint1_radial_7846_143365)"/>
<path d="M48.1917 18.2926C47.1042 15.6757 44.898 12.8502 43.1704 11.957C44.4024 14.3427 45.2574 16.9047 45.7053 19.552V19.5759L45.7098 19.6023C47.6394 25.1236 47.3604 31.1769 44.931 36.4972C42.0622 42.6526 35.1208 48.9617 24.2515 48.6517C12.5104 48.3191 2.16423 39.6036 0.233206 28.1919C-0.11877 26.3919 0.233206 25.4794 0.410163 24.0166C0.168785 25.1528 0.0340833 26.3091 0.0078125 27.4705V27.5996C0.0188745 33.8632 2.37773 39.8951 6.61874 44.5045C10.8597 49.1139 16.6747 51.9658 22.9157 52.4974C29.1567 53.029 35.3702 51.2015 40.3297 47.3757C45.2891 43.5499 48.6341 38.0039 49.7043 31.8324C49.7463 31.5095 49.7805 31.1898 49.8179 30.8636C50.3335 26.6024 49.7754 22.2799 48.1943 18.2894L48.1917 18.2926Z" fill="url(#paint2_radial_7846_143365)"/>
<path d="M36.0245 21.2309C36.0787 21.269 36.1291 21.3071 36.1801 21.3452C35.5514 20.2303 34.7687 19.2096 33.8552 18.3131C26.0729 10.5308 31.8163 1.44405 32.7844 0.979052L32.7941 0.964844C26.5069 4.64606 24.3725 11.4595 24.1787 14.8695C24.4706 14.8495 24.76 14.825 25.0583 14.825C27.2889 14.8293 29.4786 15.4241 31.4047 16.5491C33.3309 17.674 34.9248 19.2889 36.0245 21.2296V21.2309Z" fill="url(#paint3_radial_7846_143365)"/>
<path d="M25.0713 22.7869C25.03 23.4095 22.8303 25.5569 22.0611 25.5569C14.9441 25.5569 13.7881 29.8626 13.7881 29.8626C14.1032 33.4883 16.6297 36.4759 19.6838 38.0517C19.8233 38.1241 19.9648 38.1893 20.1062 38.2532C20.3512 38.3617 20.5962 38.4621 20.8412 38.5542C21.8893 38.9251 22.9872 39.1369 24.0981 39.1826C36.5755 39.7677 38.9909 24.264 29.9874 19.7625C32.1112 19.4862 34.262 20.0084 36.0226 21.2279C34.923 19.2872 33.329 17.6723 31.4029 16.5474C29.4768 15.4224 27.2871 14.8276 25.0565 14.8232C24.7594 14.8232 24.4688 14.8478 24.1769 14.8678C21.6652 15.04 19.2638 15.9652 17.2859 17.5228C17.6676 17.8457 18.0983 18.2771 19.0057 19.1716C20.7043 20.8449 25.0604 22.5783 25.0701 22.7818L25.0713 22.7869Z" fill="url(#paint4_radial_7846_143365)"/>
<path d="M25.0713 22.7869C25.03 23.4095 22.8303 25.5569 22.0611 25.5569C14.9441 25.5569 13.7881 29.8626 13.7881 29.8626C14.1032 33.4883 16.6297 36.4759 19.6838 38.0517C19.8233 38.1241 19.9648 38.1893 20.1062 38.2532C20.3512 38.3617 20.5962 38.4621 20.8412 38.5542C21.8893 38.9251 22.9872 39.1369 24.0981 39.1826C36.5755 39.7677 38.9909 24.264 29.9874 19.7625C32.1112 19.4862 34.262 20.0084 36.0226 21.2279C34.923 19.2872 33.329 17.6723 31.4029 16.5474C29.4768 15.4224 27.2871 14.8276 25.0565 14.8232C24.7594 14.8232 24.4688 14.8478 24.1769 14.8678C21.6652 15.04 19.2638 15.9652 17.2859 17.5228C17.6676 17.8457 18.0983 18.2771 19.0057 19.1716C20.7043 20.8449 25.0604 22.5783 25.0701 22.7818L25.0713 22.7869Z" fill="url(#paint5_radial_7846_143365)"/>
<path d="M16.1197 16.6969C16.3225 16.826 16.4897 16.9384 16.6363 17.0398C16.0661 15.0435 16.0418 12.9308 16.5659 10.9219C14.257 12.0403 12.2054 13.6259 10.541 15.5783C10.6631 15.5751 14.2939 15.5098 16.1197 16.6969V16.6969Z" fill="url(#paint6_radial_7846_143365)"/>
<path d="M0.228487 28.193C2.16016 39.6048 12.5057 48.3234 24.2468 48.6528C35.1161 48.9602 42.0588 42.6505 44.9262 36.4983C47.3557 31.1781 47.6347 25.1247 45.7051 19.6035V19.5796C45.7051 19.5609 45.7012 19.5499 45.7051 19.5557L45.7096 19.5977C46.5976 25.3953 43.6488 31.0095 39.0382 34.8134L39.024 34.8457C30.0405 42.1629 21.4446 39.2593 19.7073 38.0748C19.5859 38.0167 19.4645 37.9562 19.3431 37.8933C14.106 35.3901 11.9419 30.6213 12.4069 26.5268C11.1637 26.5451 9.94192 26.2025 8.88952 25.5406C7.83712 24.8786 6.99928 23.9256 6.47752 22.7971C7.85236 21.9549 9.41995 21.4788 11.0309 21.4141C12.6419 21.3495 14.2426 21.6984 15.6806 22.4277C18.6444 23.773 22.017 23.9056 25.0774 22.7971C25.0677 22.5937 20.7116 20.8596 19.013 19.1869C18.1056 18.2925 17.6749 17.8617 17.2932 17.5381C17.0869 17.3634 16.8713 17.2 16.6474 17.0486C16.4988 16.9472 16.3316 16.8374 16.1307 16.7057C14.305 15.5186 10.6741 15.5839 10.554 15.5871H10.5424C9.55037 14.3297 9.62012 10.1834 9.67695 9.31738C9.38348 9.43532 9.10335 9.58405 8.84125 9.76107C7.96552 10.3861 7.14686 11.0874 6.39485 11.8568C5.53482 12.7232 4.7489 13.6601 4.04533 14.6577V14.6616V14.6571C2.43627 16.9379 1.29488 19.5148 0.687025 22.2391C0.674754 22.2901 -0.214551 26.178 0.223966 28.1943L0.228487 28.193Z" fill="url(#paint7_radial_7846_143365)"/>
<path d="M33.8542 18.3116C34.768 19.2091 35.5507 20.231 36.1792 21.347C36.3167 21.451 36.4453 21.5543 36.5544 21.6544C42.2293 26.8856 39.2559 34.2804 39.0344 34.8035C43.6443 31.0054 46.5906 25.3873 45.7058 19.5878C42.8745 12.5289 38.0721 9.68079 34.1584 3.4873C33.9601 3.17407 33.7618 2.8602 33.5687 2.52889C33.4583 2.33966 33.3698 2.16916 33.293 2.01223C33.1304 1.69742 33.0051 1.36472 32.9197 1.02088C32.9198 1.00502 32.9141 0.989662 32.9036 0.97775C32.8931 0.965838 32.8786 0.958203 32.8629 0.956299C32.8474 0.952067 32.8311 0.952067 32.8157 0.956299C32.8125 0.956299 32.8073 0.962111 32.8034 0.963403C32.7996 0.964695 32.7912 0.970507 32.7854 0.97309C31.8173 1.43227 26.0752 10.5249 33.8574 18.3007L33.8542 18.3116Z" fill="url(#paint8_radial_7846_143365)"/>
<path d="M36.5542 21.6576C36.4451 21.5575 36.3166 21.4542 36.179 21.3502C36.128 21.3121 36.0776 21.274 36.0234 21.2359C34.2627 20.0164 32.1119 19.4942 29.9881 19.7705C38.991 24.2719 36.5756 39.7718 24.0988 39.1905C22.9879 39.1449 21.8901 38.9331 20.8419 38.5622C20.5969 38.4704 20.3519 38.3701 20.1069 38.2612C19.9655 38.1966 19.8241 38.132 19.6846 38.0597L19.702 38.0707C21.4419 39.2584 30.0353 42.1601 39.0187 34.8415L39.0329 34.8092C39.257 34.2861 42.2304 26.8914 36.553 21.6602L36.5542 21.6576Z" fill="url(#paint9_radial_7846_143365)"/>
<path d="M13.7883 29.8588C13.7883 29.8588 14.9437 25.5531 22.0613 25.5531C22.8305 25.5531 25.0321 23.4057 25.0715 22.7832C22.0112 23.8917 18.6386 23.7591 15.6747 22.4137C14.2368 21.6844 12.6361 21.3355 11.0251 21.4002C9.41411 21.4648 7.84652 21.941 6.47168 22.7832C6.99344 23.9117 7.83128 24.8646 8.88368 25.5266C9.93608 26.1886 11.1579 26.5312 12.401 26.5128C11.9373 30.6054 14.1008 35.3736 19.3372 37.8794C19.4541 37.9356 19.5639 37.9963 19.684 38.0499C16.6273 36.4708 14.1034 33.4845 13.7883 29.8608V29.8588Z" fill="url(#paint10_radial_7846_143365)"/>
<path d="M48.1917 18.2927C47.1041 15.6758 44.898 12.8503 43.1704 11.9571C44.4023 14.3427 45.2574 16.9047 45.7053 19.552L45.7098 19.594C42.8798 12.5416 38.0826 9.69348 34.1624 3.49999C33.9641 3.18677 33.7659 2.8729 33.5727 2.54159C33.4623 2.35236 33.3738 2.18186 33.297 2.02492C33.1344 1.71012 33.0091 1.37742 32.9237 1.03358C32.9238 1.01771 32.9181 1.00236 32.9076 0.990445C32.8971 0.978534 32.8826 0.970898 32.8669 0.968994C32.8514 0.964762 32.8351 0.964762 32.8197 0.968994C32.8165 0.968994 32.8113 0.974807 32.8074 0.976098C32.8036 0.97739 32.7952 0.983202 32.7894 0.985786L32.799 0.968994C26.5119 4.65021 24.3774 11.4637 24.1837 14.8737C24.4756 14.8537 24.7649 14.8291 25.0633 14.8291C27.2939 14.8334 29.4836 15.4283 31.4097 16.5532C33.3359 17.6782 34.9298 19.2931 36.0295 21.2338C34.2688 20.0143 32.1181 19.4921 29.9942 19.7684C38.9971 24.2698 36.5817 39.7697 24.1049 39.1884C22.994 39.1428 21.8962 38.931 20.848 38.5601C20.603 38.4684 20.358 38.368 20.113 38.2591C19.9716 38.1945 19.8302 38.1299 19.6907 38.0576L19.7081 38.0686C19.5867 38.0105 19.4653 37.95 19.3439 37.8871C19.4608 37.9433 19.5706 38.004 19.6907 38.0576C16.634 36.4779 14.1101 33.4916 13.7949 29.8685C13.7949 29.8685 14.9503 25.5628 22.068 25.5628C22.8371 25.5628 25.0388 23.4154 25.0782 22.7928C25.0685 22.5894 20.7124 20.8553 19.0138 19.1826C18.1065 18.2882 17.6757 17.8574 17.294 17.5338C17.0877 17.3591 16.8721 17.1957 16.6482 17.0443C16.0779 15.048 16.0536 12.9353 16.5778 10.9264C14.2689 12.0448 12.2173 13.6304 10.5529 15.5828H10.5412C9.54924 14.3254 9.61899 10.1791 9.67583 9.31309C9.38236 9.43103 9.10223 9.57976 8.84012 9.75678C7.9644 10.3818 7.14574 11.0831 6.39373 11.8525C5.53677 12.7213 4.75409 13.6604 4.05389 14.6599V14.6638V14.6593C2.44483 16.9401 1.30344 19.517 0.695588 22.2413L0.662005 22.4066C0.614859 22.6268 0.403674 23.7454 0.37332 23.9857C0.180153 25.1403 0.0567915 26.3056 0.00390625 27.4751V27.6042C0.0149682 33.8678 2.37383 39.8997 6.61483 44.5091C10.8558 49.1185 16.6708 51.9705 22.9118 52.502C29.1528 53.0336 35.3663 51.2061 40.3258 47.3803C45.2852 43.5545 48.6302 38.0085 49.7004 31.837C49.7423 31.5141 49.7766 31.1944 49.814 30.8682C50.3296 26.607 49.7715 22.2845 48.1904 18.294L48.1917 18.2927ZM45.7085 19.5785L45.713 19.605L45.7085 19.5785Z" fill="url(#paint11_linear_7846_143365)"/>
</g>
<defs>
<linearGradient id="paint0_linear_7846_143365" x1="44.8789" y1="8.96429" x2="3.32443" y2="49.0573" gradientUnits="userSpaceOnUse">
<stop offset="0.048" stop-color="#FFF44F"/>
<stop offset="0.111" stop-color="#FFE847"/>
<stop offset="0.225" stop-color="#FFC830"/>
<stop offset="0.368" stop-color="#FF980E"/>
<stop offset="0.401" stop-color="#FF8B16"/>
<stop offset="0.462" stop-color="#FF672A"/>
<stop offset="0.534" stop-color="#FF3647"/>
<stop offset="0.705" stop-color="#E31587"/>
</linearGradient>
<radialGradient id="paint1_radial_7846_143365" cx="0" cy="0" r="1" gradientUnits="userSpaceOnUse" gradientTransform="translate(43.2705 6.77749) scale(52.1829)">
<stop offset="0.129" stop-color="#FFBD4F"/>
<stop offset="0.186" stop-color="#FFAC31"/>
<stop offset="0.247" stop-color="#FF9D17"/>
<stop offset="0.283" stop-color="#FF980E"/>
<stop offset="0.403" stop-color="#FF563B"/>
<stop offset="0.467" stop-color="#FF3750"/>
<stop offset="0.71" stop-color="#F5156C"/>
<stop offset="0.782" stop-color="#EB0878"/>
<stop offset="0.86" stop-color="#E50080"/>
</radialGradient>
<radialGradient id="paint2_radial_7846_143365" cx="0" cy="0" r="1" gradientUnits="userSpaceOnUse" gradientTransform="translate(23.8957 28.0898) scale(52.1829)">
<stop offset="0.3" stop-color="#960E18"/>
<stop offset="0.351" stop-color="#B11927" stop-opacity="0.74"/>
<stop offset="0.435" stop-color="#DB293D" stop-opacity="0.343"/>
<stop offset="0.497" stop-color="#F5334B" stop-opacity="0.094"/>
<stop offset="0.53" stop-color="#FF3750" stop-opacity="0"/>
</radialGradient>
<radialGradient id="paint3_radial_7846_143365" cx="0" cy="0" r="1" gradientUnits="userSpaceOnUse" gradientTransform="translate(30.3541 -4.84761) scale(37.8003)">
<stop offset="0.132" stop-color="#FFF44F"/>
<stop offset="0.252" stop-color="#FFDC3E"/>
<stop offset="0.506" stop-color="#FF9D12"/>
<stop offset="0.526" stop-color="#FF980E"/>
</radialGradient>
<radialGradient id="paint4_radial_7846_143365" cx="0" cy="0" r="1" gradientUnits="userSpaceOnUse" gradientTransform="translate(18.0835 41.6516) scale(24.845)">
<stop offset="0.353" stop-color="#3A8EE6"/>
<stop offset="0.472" stop-color="#5C79F0"/>
<stop offset="0.669" stop-color="#9059FF"/>
<stop offset="1" stop-color="#C139E6"/>
</radialGradient>
<radialGradient id="paint5_radial_7846_143365" cx="0" cy="0" r="1" gradientUnits="userSpaceOnUse" gradientTransform="translate(26.4198 23.6097) rotate(-13.5916) scale(13.1749 15.4246)">
<stop offset="0.206" stop-color="#9059FF" stop-opacity="0"/>
<stop offset="0.278" stop-color="#8C4FF3" stop-opacity="0.064"/>
<stop offset="0.747" stop-color="#7716A8" stop-opacity="0.45"/>
<stop offset="0.975" stop-color="#6E008B" stop-opacity="0.6"/>
</radialGradient>
<radialGradient id="paint6_radial_7846_143365" cx="0" cy="0" r="1" gradientUnits="userSpaceOnUse" gradientTransform="translate(23.2496 4.83947) scale(17.8765)">
<stop stop-color="#FFE226"/>
<stop offset="0.121" stop-color="#FFDB27"/>
<stop offset="0.295" stop-color="#FFC82A"/>
<stop offset="0.502" stop-color="#FFA930"/>
<stop offset="0.732" stop-color="#FF7E37"/>
<stop offset="0.792" stop-color="#FF7139"/>
</radialGradient>
<radialGradient id="paint7_radial_7846_143365" cx="0" cy="0" r="1" gradientUnits="userSpaceOnUse" gradientTransform="translate(37.4579 -6.78505) scale(76.2723)">
<stop offset="0.113" stop-color="#FFF44F"/>
<stop offset="0.456" stop-color="#FF980E"/>
<stop offset="0.622" stop-color="#FF5634"/>
<stop offset="0.716" stop-color="#FF3647"/>
<stop offset="0.904" stop-color="#E31587"/>
</radialGradient>
<radialGradient id="paint8_radial_7846_143365" cx="0" cy="0" r="1" gradientUnits="userSpaceOnUse" gradientTransform="translate(31.1185 -2.55636) rotate(83.976) scale(55.8934 36.6824)">
<stop stop-color="#FFF44F"/>
<stop offset="0.06" stop-color="#FFE847"/>
<stop offset="0.168" stop-color="#FFC830"/>
<stop offset="0.304" stop-color="#FF980E"/>
<stop offset="0.356" stop-color="#FF8B16"/>
<stop offset="0.455" stop-color="#FF672A"/>
<stop offset="0.57" stop-color="#FF3647"/>
<stop offset="0.737" stop-color="#E31587"/>
</radialGradient>
<radialGradient id="paint9_radial_7846_143365" cx="0" cy="0" r="1" gradientUnits="userSpaceOnUse" gradientTransform="translate(23.2502 11.2985) scale(47.6104)">
<stop offset="0.137" stop-color="#FFF44F"/>
<stop offset="0.48" stop-color="#FF980E"/>
<stop offset="0.592" stop-color="#FF5634"/>
<stop offset="0.655" stop-color="#FF3647"/>
<stop offset="0.904" stop-color="#E31587"/>
</radialGradient>
<radialGradient id="paint10_radial_7846_143365" cx="0" cy="0" r="1" gradientUnits="userSpaceOnUse" gradientTransform="translate(35.5204 13.8811) scale(52.1119)">
<stop offset="0.094" stop-color="#FFF44F"/>
<stop offset="0.231" stop-color="#FFE141"/>
<stop offset="0.509" stop-color="#FFAF1E"/>
<stop offset="0.626" stop-color="#FF980E"/>
</radialGradient>
<linearGradient id="paint11_linear_7846_143365" x1="44.3749" y1="8.75116" x2="9.02224" y2="44.1102" gradientUnits="userSpaceOnUse">
<stop offset="0.167" stop-color="#FFF44F" stop-opacity="0.8"/>
<stop offset="0.266" stop-color="#FFF44F" stop-opacity="0.634"/>
<stop offset="0.489" stop-color="#FFF44F" stop-opacity="0.217"/>
<stop offset="0.6" stop-color="#FFF44F" stop-opacity="0"/>
</linearGradient>
<clipPath id="clip0_7846_143365">
<rect width="50" height="51.6469" fill="white" transform="translate(0 0.964844)"/>
</clipPath>
</defs>
</svg>
