<svg xmlns="http://www.w3.org/2000/svg" width="41.221" height="42.705" viewBox="0 0 41.221 42.705">
    <defs>
        <style>
            .cls-1,.cls-2{fill:#ffffff;stroke:#ffffff;stroke-width:5px}.cls-2{stroke-linecap:round}.cls-3{fill:#87AB49}
        </style>
    </defs>
    <g id="_004-anonymous" data-name="004-anonymous" transform="translate(-3.58)">
        <g id="Group_7917" data-name="Group 7917" transform="translate(-1 1)">
            <path id="Path_30616" d="M69.554 98.663a1.244 1.244 0 0 0-1.689.49l-1.082 1.966h-3.391l-1.216-2.01a1.244 1.244 0 0 0-1.064-.6h-5.058a1.244 1.244 0 0 0-1.064.6l-1.216 2.01h-3.392L49.3 99.154a1.244 1.244 0 1 0-2.179 1.2l1.436 2.61a1.243 1.243 0 0 0 1.09.644h4.829a1.244 1.244 0 0 0 1.064-.6L56.756 101h3.654l1.216 2.01a1.244 1.244 0 0 0 1.064.6h4.829a1.244 1.244 0 0 0 1.09-.644l1.436-2.61a1.244 1.244 0 0 0-.491-1.693z" class="cls-1" data-name="Path 30616" transform="translate(-34.392 -78.088)"/>
            <path id="Path_30617" d="M93.767 138.6l2.414-5.8h-4.828z" class="cls-2" data-name="Path 30617" transform="translate(-69.577 -105.274)"/>
            <path id="Path_30618" d="M39.391 36.5a5.023 5.023 0 0 1 4.332 2.5 1.244 1.244 0 0 0 2.153-1.247 7.492 7.492 0 0 0-12.972 0A1.244 1.244 0 1 0 35.057 39a5.022 5.022 0 0 1 4.334-2.5z" class="cls-1" data-name="Path 30618" transform="translate(-23.112 -26.958)"/>
            <path id="Path_30620" d="M115.727 34.007a7.518 7.518 0 0 0-6.487 3.743 1.244 1.244 0 1 0 2.153 1.25 5 5 0 0 1 8.666 0 1.244 1.244 0 0 0 2.153-1.247 7.518 7.518 0 0 0-6.485-3.746z" class="cls-1" data-name="Path 30620" transform="translate(-83.623 -26.957)"/>
        </g>
        <path id="Path_30615" d="M44.436 4.927a1.244 1.244 0 0 0-.88-.364h-.012a3.276 3.276 0 0 1-2.328-.963 3.3 3.3 0 0 1-.976-2.354A1.244 1.244 0 0 0 39 0H9.385a1.244 1.244 0 0 0-1.244 1.244A3.3 3.3 0 0 1 7.165 3.6a3.276 3.276 0 0 1-2.329.964h-.012A1.244 1.244 0 0 0 3.58 5.81a46.476 46.476 0 0 0 3.38 17.328 40.809 40.809 0 0 0 16.572 19.379 1.244 1.244 0 0 0 1.316 0 40.807 40.807 0 0 0 16.573-19.379A46.476 46.476 0 0 0 44.8 5.81a1.243 1.243 0 0 0-.364-.883zM24.19 39.987C9.165 30.253 6.321 15.563 6.084 6.916a5.749 5.749 0 0 0 2.838-1.557A5.77 5.77 0 0 0 10.5 2.487h27.384a5.77 5.77 0 0 0 1.574 2.872A5.749 5.749 0 0 0 42.3 6.916c-.24 8.647-3.084 23.337-18.11 33.071z" class="cls-3" data-name="Path 30615"/>
        <path id="Path_30619" d="M54.224 55.071a.829.829 0 0 0 0 1.658h3.288a.829.829 0 0 0 0-1.658z" class="cls-3" data-name="Path 30619" transform="translate(-39.488 -43.654)"/>
        <path id="Path_30621" d="M133.848 56.729a.829.829 0 0 0 0-1.658h-3.288a.829.829 0 1 0 0 1.658z" class="cls-3" data-name="Path 30621" transform="translate(-99.999 -43.654)"/>
        <path id="Path_50168" d="M69.554 98.663a1.244 1.244 0 0 0-1.689.49l-1.082 1.966h-3.391l-1.216-2.01a1.244 1.244 0 0 0-1.064-.6h-5.058a1.244 1.244 0 0 0-1.064.6l-1.216 2.01h-3.392L49.3 99.154a1.244 1.244 0 1 0-2.179 1.2l1.436 2.61a1.243 1.243 0 0 0 1.09.644h4.829a1.244 1.244 0 0 0 1.064-.6L56.756 101h3.654l1.216 2.01a1.244 1.244 0 0 0 1.064.6h4.829a1.244 1.244 0 0 0 1.09-.644l1.436-2.61a1.244 1.244 0 0 0-.491-1.693z" class="cls-3" data-name="Path 50168" transform="translate(-34.392 -78.088)"/>
        <path id="Path_50167" d="M93.767 141.158l2.414-8.353h-4.828z" class="cls-3" data-name="Path 50167" transform="translate(-69.577 -105.274)"/>
        <path id="Path_50166" d="M39.391 36.5a5.023 5.023 0 0 1 4.332 2.5 1.244 1.244 0 0 0 2.153-1.247 7.492 7.492 0 0 0-12.972 0A1.244 1.244 0 1 0 35.057 39a5.022 5.022 0 0 1 4.334-2.5z" class="cls-3" data-name="Path 50166" transform="translate(-23.112 -26.958)"/>
        <path id="Path_50165" d="M115.727 34.007a7.518 7.518 0 0 0-6.487 3.743 1.244 1.244 0 1 0 2.153 1.25 5 5 0 0 1 8.666 0 1.244 1.244 0 0 0 2.153-1.247 7.518 7.518 0 0 0-6.485-3.746z" class="cls-3" data-name="Path 50165" transform="translate(-83.623 -26.957)"/>
        <path id="Path_30622" d="M96.225 119.325a.829.829 0 0 0 0-1.658h-2.553a.829.829 0 0 0 0 1.658z" class="cls-3" data-name="Path 30622" transform="translate(-70.758 -93.274)"/>
    </g>
</svg>
