<svg xmlns="http://www.w3.org/2000/svg" xmlns:xlink="http://www.w3.org/1999/xlink" width="1366" height="312" viewBox="0 0 1366 312"><defs><clipPath id="a"><rect width="1366" height="312" transform="translate(0 2600)" fill="#102154"/></clipPath><linearGradient id="b" x1="0.088" y1="1.201" x2="0.916" y2="-0.193" gradientUnits="objectBoundingBox"><stop offset="0" stop-color="#132237" stop-opacity="0"/><stop offset="1" stop-color="#fff"/></linearGradient><linearGradient id="c" x1="0.5" x2="0.5" y2="1" gradientUnits="objectBoundingBox"><stop offset="0" stop-color="#8c4fdb"/><stop offset="1" stop-color="#8c4fdb" stop-opacity="0"/></linearGradient><linearGradient id="d" x1="0.737" y1="0.127" x2="0.244" y2="0.883" xlink:href="#c"/><linearGradient id="e" x1="0.69" y1="0.205" x2="0.136" y2="0.813" gradientUnits="objectBoundingBox"><stop offset="0" stop-color="#8c4fdb"/><stop offset="1" stop-color="#0ceba0" stop-opacity="0"/></linearGradient><linearGradient id="f" x1="1.011" y1="0.054" x2="0.372" y2="0.61" gradientUnits="objectBoundingBox"><stop offset="0" stop-color="#fff"/><stop offset="1" stop-color="#132237" stop-opacity="0"/></linearGradient><linearGradient id="g" x1="1.011" y1="0.055" x2="0.373" y2="0.611" xlink:href="#f"/><linearGradient id="h" x1="0.755" y1="0.276" x2="0.118" y2="0.831" xlink:href="#f"/><linearGradient id="i" x1="0.755" y1="0.277" x2="0.118" y2="0.833" gradientUnits="objectBoundingBox"><stop offset="0" stop-color="#8c4fdb"/><stop offset="1" stop-color="#132237" stop-opacity="0"/></linearGradient><linearGradient id="j" x1="0.756" y1="0.277" x2="0.118" y2="0.833" xlink:href="#i"/><linearGradient id="k" x1="1.011" y1="0.055" x2="0.373" y2="0.611" gradientUnits="objectBoundingBox"><stop offset="0" stop-color="#fff"/><stop offset="1" stop-color="#8c4fdb" stop-opacity="0"/></linearGradient></defs><g transform="translate(0 -2600)" clip-path="url(#a)"><g transform="translate(-12 2377)"><path d="M319,819.667s746.516-564.515,1215.374-609.584V201C1534.489,201.115,1049.42,256.762,319,819.667Z" transform="matrix(0.996, 0.087, -0.087, 0.996, -241.995, -143.824)" opacity="0.2" fill="url(#b)"/><rect width="49" height="49" transform="translate(1030.632 612.314)" fill="none" opacity="0.75"/><g transform="translate(-200 -317)"><path d="M1056.4,625s1.7,5.3,3.2,7.4c1.9,2.6,6.6,5.2,6.6,5.2s-5.4,1.8-7.3,3.3-5.3,6.5-5.3,6.5-1.6-5.2-3.4-7.6c-1.7-2.4-6.4-5-6.4-5s5-1.7,7.2-3.3C1053.6,629.7,1056.4,625,1056.4,625Z" fill="#fff8a5"/></g><rect width="50" height="50" transform="translate(1073.632 227.314)" fill="none" opacity="0.75"/><path d="M1098.4,240.6s2.3,5.1,4.1,6.9c2.2,2.3,7.2,4.4,7.2,4.4s-5.1,2.5-6.8,4.2-4.5,7.1-4.5,7.1-2.3-4.9-4.3-7.1c-2-2.1-7-4.2-7-4.2s4.8-2.3,6.8-4.2C1096.2,245.7,1098.4,240.6,1098.4,240.6Z" fill="#fff8a5"/><g transform="translate(379.9 91.4)"><ellipse cx="331.7" cy="331.7" rx="331.7" ry="331.7" transform="translate(0 0)" opacity="0.06" fill="url(#c)"/><ellipse cx="202.279" cy="202.279" rx="202.279" ry="202.279" transform="translate(129.421 129.421)" opacity="0.2" fill="url(#d)"/><ellipse cx="261.094" cy="261.094" rx="261.094" ry="261.094" transform="translate(70.605 70.605)" opacity="0.2" fill="url(#e)"/></g><path d="M1139,372.1a9.743,9.743,0,0,0,1.3,2.2,9.636,9.636,0,0,0,2.3,1.4,12.039,12.039,0,0,0-2.1,1.3,14.226,14.226,0,0,0-1.4,2.2,12.633,12.633,0,0,0-1.3-2.2,6.9,6.9,0,0,0-2.2-1.3,9.846,9.846,0,0,0,2.1-1.3A12.254,12.254,0,0,0,1139,372.1Z" fill="#fff"/><path d="M1288.8,313.7a9.743,9.743,0,0,0,1.3,2.2,9.636,9.636,0,0,0,2.3,1.4,12.039,12.039,0,0,0-2.1,1.3,14.226,14.226,0,0,0-1.4,2.2,12.633,12.633,0,0,0-1.3-2.2,6.9,6.9,0,0,0-2.2-1.3,9.846,9.846,0,0,0,2.1-1.3A16.689,16.689,0,0,0,1288.8,313.7Z" fill="#fff"/><path d="M1001.4,513.6a9.747,9.747,0,0,0,1.3,2.2,9.638,9.638,0,0,0,2.3,1.4,12.039,12.039,0,0,0-2.1,1.3,14.226,14.226,0,0,0-1.4,2.2,12.64,12.64,0,0,0-1.3-2.2,6.9,6.9,0,0,0-2.2-1.3,9.846,9.846,0,0,0,2.1-1.3A12.253,12.253,0,0,0,1001.4,513.6Z" fill="#fff"/><circle cx="13.4" cy="13.4" r="13.4" transform="translate(957.9 604.7)" fill="none" stroke="#fff" stroke-miterlimit="10" stroke-width="5.638"/><circle cx="3.7" cy="3.7" r="3.7" transform="translate(1054.9 517)" fill="#fff"/><path d="M603.5,191.6s2.3,5.1,4.1,6.9c2.2,2.3,7.2,4.4,7.2,4.4s-5.1,2.5-6.8,4.2-4.5,7.1-4.5,7.1-2.3-4.9-4.3-7.1c-2-2.1-7-4.2-7-4.2s4.8-2.3,6.8-4.2C601.3,196.6,603.5,191.6,603.5,191.6Z" fill="#fff"/><path d="M606,408.6a4.647,4.647,0,0,0,3,3.1,10.774,10.774,0,0,0-1.8,1.1,10.268,10.268,0,0,0-1.2,1.9,8.359,8.359,0,0,0-1.2-1.9,5.66,5.66,0,0,0-1.9-1.1,8.442,8.442,0,0,0,1.8-1.1A6.789,6.789,0,0,0,606,408.6Z" fill="#fff"/><path d="M458.5,461.9a17.065,17.065,0,0,0,2.1,3.6,15.061,15.061,0,0,0,3.8,2.3,18.967,18.967,0,0,0-3.6,2.2,20.938,20.938,0,0,0-2.3,3.7,16.757,16.757,0,0,0-2.3-3.7,13.438,13.438,0,0,0-3.7-2.2,19.846,19.846,0,0,0,3.6-2.2A14.832,14.832,0,0,0,458.5,461.9Z" transform="translate(213 8)" fill="#fff"/><rect width="41" height="40" transform="translate(629.632 605.314)" fill="none" opacity="0.75"/><path d="M650.2,618.1a19.782,19.782,0,0,0,2.5,4.2,17.862,17.862,0,0,0,4.4,2.7,25.565,25.565,0,0,0-4.2,2.5c-1.1,1-2.7,4.4-2.7,4.4a25.279,25.279,0,0,0-2.6-4.4,14.919,14.919,0,0,0-4.3-2.5,26.585,26.585,0,0,0,4.2-2.5A19.444,19.444,0,0,0,650.2,618.1Z" fill="#fff8a5"/><circle cx="13.4" cy="13.4" r="13.4" transform="translate(333.6 314.8)" fill="none" stroke="#fff" stroke-miterlimit="10" stroke-width="5.638"/><circle cx="3.7" cy="3.7" r="3.7" transform="translate(687.3 148.1)" fill="#fff"/><circle cx="3.7" cy="3.7" r="3.7" transform="translate(273.7 362)" fill="#fff"/><path d="M865.4,237.1a9.746,9.746,0,0,0,1.3,2.2,9.638,9.638,0,0,0,2.3,1.4,12.04,12.04,0,0,0-2.1,1.3,14.226,14.226,0,0,0-1.4,2.2,12.639,12.639,0,0,0-1.3-2.2,6.9,6.9,0,0,0-2.2-1.3,9.845,9.845,0,0,0,2.1-1.3A12.253,12.253,0,0,0,865.4,237.1Z" fill="#fff"/><path d="M997,201.1a12.732,12.732,0,0,0,1.6,2.7,10.953,10.953,0,0,0,2.8,1.7,19.672,19.672,0,0,0-2.7,1.6,14.526,14.526,0,0,0-1.7,2.8,15.336,15.336,0,0,0-1.7-2.8,10.966,10.966,0,0,0-2.7-1.6,15.879,15.879,0,0,0,2.7-1.6A15.334,15.334,0,0,0,997,201.1Z" fill="#fff"/><circle cx="37.1" cy="37.1" r="37.1" transform="translate(988.1 408.4)" fill="url(#f)"/><circle cx="48.3" cy="48.3" r="48.3" transform="translate(388.5 294)" fill="url(#g)"/><circle cx="22.8" cy="22.8" r="22.8" transform="translate(756.9 661.7)" opacity="0.16" fill="url(#h)"/><circle cx="75.3" cy="75.3" r="75.3" transform="translate(357.2 467.8)" opacity="0.21" fill="url(#i)"/><circle cx="64" cy="64" r="64" transform="translate(1099 233.9)" opacity="0.13" fill="url(#j)"/><rect width="1057.1" height="706.2" transform="translate(319 63.1)" fill="none"/><g transform="translate(534.755 252.614)"><ellipse cx="165.717" cy="165.717" rx="165.717" ry="165.717" transform="translate(0 0)" fill="url(#k)"/><ellipse cx="27.288" cy="27.288" rx="27.288" ry="27.288" transform="translate(99.483 30.203)" fill="#132237"/></g></g></g></svg>