<svg width="83" height="33" viewBox="0 0 83 33" fill="none" xmlns="http://www.w3.org/2000/svg">
<path opacity="0.463" fill-rule="evenodd" clip-rule="evenodd" d="M61.2604 24.4009C60.9341 24.6245 60.5642 24.7476 60.1506 24.77C60.4866 24.5762 60.8565 24.4532 61.2604 24.4009Z" fill="#92ADDA"/>
<path opacity="0.937" fill-rule="evenodd" clip-rule="evenodd" d="M62.1787 25.1243C62.131 25.3143 62.012 25.4331 61.8215 25.4806C61.9237 25.3602 61.9832 25.2177 62.0001 25.053C62.048 25.1066 62.1075 25.1304 62.1787 25.1243Z" fill="#7398E1"/>
<path opacity="0.224" fill-rule="evenodd" clip-rule="evenodd" d="M53.1072 25.1955C53.312 25.1861 53.431 25.2812 53.4643 25.4805C53.3033 25.4361 53.1842 25.3411 53.1072 25.1955Z" fill="#7197D6"/>
<path opacity="0.894" fill-rule="evenodd" clip-rule="evenodd" d="M22.4643 25.5517C23.5893 25.5393 23.8988 26.0382 23.3929 27.0485C22.8416 27.316 22.3773 27.221 22.0001 26.7634C21.8421 26.2299 21.9968 25.826 22.4643 25.5517Z" fill="#6D6F72"/>
<path opacity="0.939" fill-rule="evenodd" clip-rule="evenodd" d="M4.82153 25.7656C6.1571 25.739 7.49043 25.7747 8.82153 25.8725C10.2249 26.3801 10.7368 27.3661 10.3572 28.8304C10.1654 29.485 9.74868 29.9127 9.10725 30.1133C9.17353 30.3886 9.28068 30.6499 9.42868 30.8973C9.69653 31.3607 9.98225 31.8121 10.2858 32.2515C10.3866 32.4048 10.4462 32.5711 10.4644 32.7504C9.86868 32.7623 9.27346 32.7504 8.67868 32.7148C8.24318 31.9446 7.8146 31.1725 7.39296 30.3984C7.06299 30.3276 6.72965 30.3038 6.39296 30.3271C6.39296 31.1349 6.39296 31.9427 6.39296 32.7504C5.86915 32.7504 5.34534 32.7504 4.82153 32.7504C4.82153 30.4221 4.82153 28.0939 4.82153 25.7656ZM6.39296 27.191C7.01452 27.1714 7.63357 27.1951 8.2501 27.2623C8.55853 27.462 8.77282 27.7352 8.89296 28.082C8.7871 28.4258 8.57282 28.6872 8.2501 28.866C7.63529 28.9614 7.01624 28.9971 6.39296 28.9729C6.39296 28.379 6.39296 27.785 6.39296 27.191Z" fill="#6C6E71"/>
<path opacity="0.18" fill-rule="evenodd" clip-rule="evenodd" d="M53.4644 25.4805C53.5843 25.5084 53.7034 25.544 53.8215 25.5874C54.0026 25.7802 54.1931 25.9584 54.3929 26.1219C54.0206 25.9958 53.711 25.782 53.4644 25.4805Z" fill="#7B9EDB"/>
<path opacity="0.553" fill-rule="evenodd" clip-rule="evenodd" d="M61.5357 25.6943C61.5419 25.7653 61.518 25.8247 61.4643 25.8725C61.2301 26.0015 60.9921 26.1084 60.75 26.1933C60.975 25.9738 61.2369 25.8074 61.5357 25.6943Z" fill="#7EA3E7"/>
<path opacity="0.09" fill-rule="evenodd" clip-rule="evenodd" d="M54.3928 26.122C54.4909 26.1108 54.5862 26.1227 54.6785 26.1576C54.9522 26.3169 55.214 26.4714 55.4643 26.6209C55.0679 26.5216 54.7108 26.3553 54.3928 26.122Z" fill="#88A9DD"/>
<path opacity="0.671" fill-rule="evenodd" clip-rule="evenodd" d="M60.75 26.1934C60.7445 26.2825 60.6969 26.3418 60.6072 26.3715C60.1207 26.5582 59.6207 26.6889 59.1072 26.7636C59.6368 26.5477 60.1845 26.3576 60.75 26.1934Z" fill="#7B9FE7"/>
<path opacity="0.227" fill-rule="evenodd" clip-rule="evenodd" d="M56.1785 26.7634C57.1545 26.8563 58.1308 26.8563 59.107 26.7634C59.0772 26.8149 59.0296 26.8505 58.9642 26.8703C58.0597 27.0108 57.1549 27.0108 56.2499 26.8703C56.2102 26.843 56.1864 26.8074 56.1785 26.7634Z" fill="#8CADE2"/>
<path opacity="0.929" fill-rule="evenodd" clip-rule="evenodd" d="M47.3928 27.3338C47.4983 27.3151 47.5935 27.3389 47.6785 27.4051C47.9233 27.9175 48.1851 28.4164 48.4642 28.9018C49.092 29.0636 49.723 29.2061 50.357 29.3295C50.4047 29.4008 50.4047 29.472 50.357 29.5433C49.9532 29.9345 49.5603 30.3384 49.1785 30.755C49.1547 30.85 49.1308 30.9451 49.107 31.0401C49.2485 31.5994 49.32 32.1696 49.3213 32.7507C48.707 32.5306 48.1118 32.2692 47.5356 31.9666C46.9595 32.2692 46.3643 32.5306 45.7499 32.7507C45.7513 32.1696 45.8227 31.5994 45.9642 31.0401C45.9404 30.9451 45.9165 30.85 45.8928 30.755C45.4719 30.3235 45.0671 29.8839 44.6785 29.4364C44.6888 29.3814 44.7126 29.3338 44.7499 29.2938C45.3787 29.2012 45.9978 29.0705 46.607 28.9018C46.9063 28.3997 47.1682 27.877 47.3928 27.3338Z" fill="#FCAF03"/>
<path opacity="0.927" fill-rule="evenodd" clip-rule="evenodd" d="M54.0357 27.3337C54.1852 27.3381 54.2923 27.4094 54.3572 27.5476C54.5897 27.9401 54.804 28.3441 55 28.7592C55.0557 28.8468 55.1271 28.918 55.2143 28.973C55.7935 29.0951 56.3769 29.1902 56.9643 29.2581C56.9755 29.356 56.9636 29.4511 56.9286 29.5432C56.5738 29.9687 56.1928 30.3725 55.7857 30.7549C55.8028 31.4198 55.8385 32.085 55.8929 32.7506C55.2998 32.5202 54.7165 32.2589 54.1429 31.9666C53.5693 32.2589 52.986 32.5202 52.3929 32.7506C52.4472 32.085 52.483 31.4198 52.5 30.7549C52.093 30.3725 51.712 29.9687 51.3572 29.5432C51.3222 29.4511 51.3102 29.356 51.3215 29.2581C51.955 29.2003 52.574 29.0816 53.1786 28.9018C53.4671 28.373 53.7528 27.8503 54.0357 27.3337Z" fill="#FCAF03"/>
<path opacity="0.93" fill-rule="evenodd" clip-rule="evenodd" d="M60.6071 27.3338C60.7127 27.3151 60.8079 27.3389 60.8928 27.4051C61.1376 27.9175 61.3995 28.4164 61.6785 28.9018C62.3063 29.0636 62.9373 29.2061 63.5714 29.3295C63.619 29.4008 63.619 29.472 63.5714 29.5433C63.1675 29.9345 62.7747 30.3384 62.3928 30.755C62.369 30.85 62.3452 30.9451 62.3214 31.0401C62.4629 31.5994 62.5343 32.1696 62.5357 32.7507C61.9213 32.5306 61.3261 32.2692 60.75 31.9666C60.1738 32.2692 59.5786 32.5306 58.9643 32.7507C58.9633 32.1652 59.0347 31.595 59.1785 31.0401C59.1548 30.9451 59.1309 30.85 59.1071 30.755C58.6863 30.3235 58.2815 29.8839 57.8928 29.4364C57.9032 29.3814 57.927 29.3338 57.9643 29.2938C58.593 29.2012 59.2121 29.0705 59.8214 28.9018C60.1206 28.3997 60.3825 27.877 60.6071 27.3338Z" fill="#FCAF03"/>
<path opacity="0.932" fill-rule="evenodd" clip-rule="evenodd" d="M67.2501 27.3337C67.3995 27.3381 67.5067 27.4094 67.5715 27.5476C67.804 27.9401 68.0183 28.3441 68.2144 28.7592C68.27 28.8468 68.3415 28.918 68.4287 28.973C69.0079 29.0951 69.5912 29.1902 70.1787 29.2581C70.1899 29.356 70.178 29.4511 70.143 29.5432C69.7862 29.9705 69.4052 30.3744 69.0001 30.7549C69.0172 31.4198 69.0529 32.085 69.1072 32.7506C68.5142 32.5202 67.9308 32.2589 67.3572 31.9666C66.7837 32.2589 66.2003 32.5202 65.6072 32.7506C65.6616 32.085 65.6973 31.4198 65.7144 30.7549C65.3073 30.3725 64.9263 29.9687 64.5715 29.5432C64.5365 29.4511 64.5246 29.356 64.5358 29.2581C65.1693 29.2003 65.7883 29.0816 66.393 28.9018C66.6805 28.3753 66.9662 27.8525 67.2501 27.3337Z" fill="#FCAF03"/>
<path opacity="0.931" fill-rule="evenodd" clip-rule="evenodd" d="M73.8214 27.3338C73.9271 27.3151 74.0221 27.3389 74.1071 27.4051C74.3521 27.9175 74.6135 28.4164 74.8928 28.9018C75.5192 29.0634 76.15 29.206 76.7857 29.3295C76.8335 29.4008 76.8335 29.472 76.7857 29.5433C76.3807 29.9472 75.9764 30.3511 75.5714 30.755C75.6471 31.415 75.7064 32.0802 75.75 32.7507C75.1357 32.5306 74.5407 32.2692 73.9642 31.9666C73.3878 32.2692 72.7928 32.5306 72.1785 32.7507C72.1871 32.1247 72.2585 31.5071 72.3928 30.8975C72.0114 30.4103 71.5949 29.9589 71.1428 29.5433C71.1078 29.4511 71.0959 29.3561 71.1071 29.2582C71.7637 29.2084 72.4064 29.0896 73.0357 28.9018C73.335 28.3997 73.5971 27.877 73.8214 27.3338Z" fill="#FCAF03"/>
<path opacity="0.921" fill-rule="evenodd" clip-rule="evenodd" d="M13.6072 32.9644C13.5596 32.9644 13.512 32.9644 13.4644 32.9644C11.7978 32.8099 10.9168 31.8953 10.8215 30.2203C10.8077 28.857 11.4505 27.9779 12.7501 27.5832C14.2159 27.3038 15.2517 27.8383 15.8572 29.1868C15.9992 29.6753 16.0587 30.1742 16.0358 30.6836C14.8215 30.6836 13.6072 30.6836 12.3929 30.6836C12.4264 31.1564 12.6645 31.4771 13.1072 31.6458C13.8029 31.8256 14.4339 31.695 15.0001 31.2538C15.1352 31.4607 15.3019 31.6507 15.5001 31.824C15.6024 32.0023 15.6142 32.1805 15.5358 32.3585C14.944 32.7492 14.3012 32.9512 13.6072 32.9644ZM13.1787 28.6879C13.9607 28.5907 14.4132 28.9233 14.5358 29.6858C13.7962 29.7094 13.0581 29.6857 12.3215 29.6145C12.4634 29.1643 12.7492 28.8555 13.1787 28.6879Z" fill="#6D6E71"/>
<path opacity="0.919" fill-rule="evenodd" clip-rule="evenodd" d="M27.1785 32.9644C27.1308 32.9644 27.0833 32.9644 27.0356 32.9644C25.0001 32.6998 24.131 31.5357 24.4285 29.472C24.8258 28.2205 25.683 27.5553 26.9999 27.4763C28.4463 27.5653 29.2796 28.3256 29.4999 29.7571C29.5356 30.0651 29.5475 30.3739 29.5356 30.6837C28.3211 30.6718 27.1068 30.6837 25.8928 30.7193C26.238 31.616 26.8808 31.9249 27.8213 31.6459C28.0884 31.5452 28.3384 31.4144 28.5713 31.2539C28.8095 31.539 29.0119 31.8479 29.1785 32.1804C28.6228 32.7188 27.9561 32.9802 27.1785 32.9644ZM26.7499 28.688C27.2553 28.629 27.6601 28.7953 27.9642 29.1869C28.0675 29.3379 28.1151 29.5041 28.1071 29.6858C27.3448 29.6977 26.5828 29.6858 25.8213 29.6502C26.0039 29.195 26.3135 28.8742 26.7499 28.688Z" fill="#6D6E71"/>
<path opacity="0.916" fill-rule="evenodd" clip-rule="evenodd" d="M40.1785 27.4763C40.9036 27.4791 41.5703 27.6811 42.1785 28.0821C42.2262 28.1534 42.2738 28.2247 42.3214 28.296C42.1426 28.6388 41.9402 28.9595 41.7143 29.2582C41.1999 28.7784 40.5928 28.6002 39.8928 28.7236C39.4835 28.8604 39.4359 29.0742 39.75 29.3651C40.2976 29.4839 40.8452 29.6026 41.3928 29.7215C42.4072 30.1664 42.7286 30.9148 42.3571 31.9666C42.033 32.4317 41.5925 32.7287 41.0357 32.8575C40.488 32.9051 39.9405 32.9051 39.3928 32.8575C38.8245 32.7284 38.3245 32.467 37.8928 32.0735C38.0705 31.8117 38.2372 31.5385 38.3928 31.2539C38.452 31.1886 38.5234 31.1412 38.6071 31.1113C39.2238 31.6409 39.9381 31.8429 40.75 31.7171C41.0996 31.5159 41.1235 31.2783 40.8214 31.0044C40.3013 30.8768 39.7775 30.758 39.25 30.648C38.3448 30.3748 37.9757 29.7689 38.1428 28.8305C38.2713 28.2745 38.6046 27.8943 39.1428 27.6901C39.4923 27.5933 39.8375 27.522 40.1785 27.4763Z" fill="#6D6E71"/>
<path opacity="0.92" fill-rule="evenodd" clip-rule="evenodd" d="M16.1072 27.69C16.631 27.69 17.1548 27.69 17.6786 27.69C18.0544 28.7909 18.4592 29.8838 18.8929 30.9686C19.3269 29.883 19.7316 28.7901 20.1072 27.69C20.6077 27.6781 21.1077 27.69 21.6072 27.7256C21.6398 27.7551 21.6637 27.7908 21.6786 27.8325C21.0421 29.4587 20.3873 31.0742 19.7143 32.6792C19.1827 32.7728 18.647 32.7728 18.1072 32.6792C17.3979 31.0306 16.7312 29.3676 16.1072 27.69Z" fill="#6D6E71"/>
<path opacity="0.966" fill-rule="evenodd" clip-rule="evenodd" d="M22.1785 27.6902C22.6308 27.6902 23.0833 27.6902 23.5356 27.6902C23.5356 29.377 23.5356 31.0638 23.5356 32.7507C23.0833 32.7507 22.6308 32.7507 22.1785 32.7507C22.1785 31.0638 22.1785 29.377 22.1785 27.6902Z" fill="#6C6D70"/>
<path opacity="0.918" fill-rule="evenodd" clip-rule="evenodd" d="M29.8215 27.6902C30.3215 27.6902 30.8215 27.6902 31.3215 27.6902C31.6053 28.7036 31.8791 29.7253 32.143 30.755C32.4763 29.7571 32.8096 28.7593 33.143 27.7614C33.6008 27.6917 34.0651 27.668 34.5358 27.6902C34.8347 28.692 35.1561 29.6898 35.5001 30.6837C35.8307 29.724 36.1164 28.7499 36.3572 27.7614C36.6012 27.7152 36.8512 27.6914 37.1072 27.6902C37.3822 27.6807 37.6441 27.7164 37.893 27.7971C37.4095 29.4288 36.8975 31.0562 36.3572 32.6794C35.8516 32.7492 35.3397 32.7729 34.8215 32.7506C34.523 31.7025 34.2015 30.6572 33.8572 29.6146C33.5353 30.6624 33.2139 31.7078 32.893 32.7506C32.367 32.7742 31.8432 32.7504 31.3215 32.6794C30.7452 31.0367 30.2452 29.3737 29.8215 27.6902Z" fill="#6D6E71"/>
<path d="M37.1674 14.6069C37.1674 18.1654 34.3994 20.7876 31.0023 20.7876C27.6052 20.7876 24.8372 18.1654 24.8372 14.6069C24.8372 11.0234 27.6052 8.42627 31.0023 8.42627C34.3994 8.42627 37.1674 11.0234 37.1674 14.6069ZM34.4686 14.6069C34.4686 12.3832 32.8643 10.8618 31.0023 10.8618C29.1403 10.8618 27.536 12.3832 27.536 14.6069C27.536 16.8083 29.1403 18.3521 31.0023 18.3521C32.8643 18.3521 34.4686 16.8055 34.4686 14.6069Z" fill="#EA4335"/>
<path d="M50.4675 14.6069C50.4675 18.1654 47.6994 20.7876 44.3023 20.7876C40.9053 20.7876 38.1372 18.1654 38.1372 14.6069C38.1372 11.0262 40.9053 8.42627 44.3023 8.42627C47.6994 8.42627 50.4675 11.0234 50.4675 14.6069ZM47.7687 14.6069C47.7687 12.3832 46.1644 10.8618 44.3023 10.8618C42.4403 10.8618 40.836 12.3832 40.836 14.6069C40.836 16.8083 42.4403 18.3521 44.3023 18.3521C46.1644 18.3521 47.7687 16.8055 47.7687 14.6069Z" fill="#FBBC05"/>
<path d="M63.2133 8.79967V19.8959C63.2133 24.4603 60.5367 26.3245 57.3723 26.3245C54.3937 26.3245 52.6009 24.321 51.9249 22.6825L54.2745 21.6988C54.6929 22.7048 55.7181 23.8918 57.3696 23.8918C59.3951 23.8918 60.6503 22.6351 60.6503 20.2693V19.3804H60.5561C59.952 20.1299 58.7882 20.7848 57.3197 20.7848C54.2468 20.7848 51.4316 18.093 51.4316 14.6292C51.4316 11.1404 54.2468 8.42627 57.3197 8.42627C58.7855 8.42627 59.9492 9.08112 60.5561 9.80842H60.6503V8.80246H63.2133V8.79967ZM60.8414 14.6292C60.8414 12.4529 59.3978 10.8618 57.5608 10.8618C55.6988 10.8618 54.1388 12.4529 54.1388 14.6292C54.1388 16.7833 55.6988 18.3521 57.5608 18.3521C59.3978 18.3521 60.8414 16.7833 60.8414 14.6292Z" fill="#4285F4"/>
<path d="M67.4389 2.2959V20.4087H64.8066V2.2959H67.4389Z" fill="#34A853"/>
<path d="M77.6967 16.6412L79.7914 18.0457C79.1153 19.0516 77.4861 20.7849 74.6709 20.7849C71.1796 20.7849 68.5723 18.0708 68.5723 14.6042C68.5723 10.9287 71.2018 8.42358 74.3689 8.42358C77.5581 8.42358 79.1181 10.9761 79.628 12.3555L79.9078 13.0577L71.6922 16.4796C72.3212 17.7197 73.2993 18.3522 74.6709 18.3522C76.0452 18.3522 76.9984 17.6723 77.6967 16.6412ZM71.2489 14.4175L76.7407 12.1242C76.4387 11.3523 75.5299 10.8145 74.4603 10.8145C73.0888 10.8145 71.1796 12.0322 71.2489 14.4175Z" fill="#EA4335"/>
<path d="M14.8732 12.9991V10.3769H23.6595C23.7454 10.8339 23.7898 11.3745 23.7898 11.9597C23.7898 13.9271 23.255 16.3598 21.5315 18.093C19.8551 19.8486 17.7133 20.7849 14.8759 20.7849C9.61686 20.7849 5.19458 16.4768 5.19458 11.1878C5.19458 5.89889 9.61686 1.59082 14.8759 1.59082C17.7853 1.59082 19.8579 2.7389 21.4151 4.23529L19.5753 6.08559C18.4586 5.03226 16.9458 4.213 14.8732 4.213C11.0328 4.213 8.02916 7.32562 8.02916 11.1878C8.02916 15.0501 11.0328 18.1627 14.8732 18.1627C17.3642 18.1627 18.7828 17.1567 19.6917 16.2427C20.4287 15.5015 20.9136 14.4426 21.1048 12.9963L14.8732 12.9991Z" fill="#4285F4"/>
</svg>
