<svg width="116" height="29" viewBox="0 0 116 29" fill="none" xmlns="http://www.w3.org/2000/svg">
<path d="M18.4153 18.3899C21.5811 16.6734 23.9812 15.3655 24.188 15.2639C24.8498 14.9163 25.5332 13.9965 24.188 13.2821C23.7537 13.0575 21.4154 11.7902 18.4153 10.156L14.2563 14.3035L18.4153 18.3899Z" fill="#FFD900"/>
<path d="M14.2563 14.3035L1.01367 27.4826C1.32449 27.5233 1.67544 27.442 2.08918 27.2174C2.95781 26.7479 12.166 21.7823 18.4152 18.391L14.2563 14.3035Z" fill="#F43249"/>
<path d="M14.2563 14.3035L18.4153 10.1763C18.4153 10.1763 3.02067 1.88039 2.08925 1.39054C1.7383 1.18525 1.34515 1.12427 0.993164 1.18525L14.2563 14.3035Z" fill="#00EE76"/>
<path d="M14.2563 14.3034L0.993168 1.18524C0.454902 1.30821 0 1.77774 0 2.73812C0 4.27068 0 24.6624 0 25.9297C0 26.8088 0.351983 27.442 1.01375 27.503L14.2563 14.3034Z" fill="#00D3FF"/>
<path d="M56.2033 11.7928C53.936 11.7928 52.0629 13.4778 52.0629 15.7881C52.0629 18.0796 53.9164 19.7834 56.2033 19.7834C58.4902 19.7834 60.3436 18.0985 60.3436 15.7881C60.3436 13.4778 58.4902 11.7928 56.2033 11.7928ZM56.2033 18.1936C54.9608 18.1936 53.8772 17.1896 53.8772 15.7702C53.8772 14.3311 54.9618 13.3469 56.2033 13.3469C57.4448 13.3469 58.5294 14.3311 58.5294 15.7702C58.5294 17.1896 57.4448 18.1936 56.2033 18.1936ZM47.193 11.7928C44.9061 11.7928 43.0526 13.4778 43.0526 15.7881C43.0526 18.0796 44.9061 19.7834 47.193 19.7834C49.4799 19.7834 51.3333 18.0985 51.3333 15.7881C51.3333 13.4778 49.4799 11.7928 47.193 11.7928ZM47.193 18.1936C45.9505 18.1936 44.8668 17.1896 44.8668 15.7702C44.8668 14.3311 45.9514 13.3469 47.193 13.3469C48.4355 13.3469 49.5191 14.3311 49.5191 15.7702C49.5191 17.1896 48.4541 18.1936 47.193 18.1936ZM36.4871 13.0238V14.7088H40.6667C40.548 15.6553 40.2136 16.3561 39.7203 16.8298C39.1094 17.4166 38.163 18.0608 36.4871 18.0608C33.904 18.0608 31.9133 16.0537 31.9133 13.5729C31.9133 11.0921 33.905 9.04738 36.4871 9.04738C37.8865 9.04738 38.8926 9.57764 39.6419 10.2595L40.8834 9.06622C39.838 8.10083 38.4386 7.36243 36.4871 7.36243C32.9577 7.36243 30 10.1456 30 13.5353C30 16.9249 32.9577 19.7081 36.4871 19.7081C38.3994 19.7081 39.8194 19.1025 40.9628 17.9657C42.1259 16.8487 42.4809 15.2767 42.4809 14.0081C42.4809 13.6106 42.4417 13.2508 42.3818 12.9475L36.4871 13.0238ZM80.2962 14.3302C79.9608 13.4401 78.8968 11.7928 76.7668 11.7928C74.6368 11.7928 72.8824 13.4025 72.8824 15.7881C72.8824 18.0222 74.6368 19.7834 76.9639 19.7834C78.8566 19.7834 79.9412 18.6664 80.3942 18.0222L78.9948 17.1133C78.5212 17.7764 77.8906 18.2115 76.9639 18.2115C76.0372 18.2115 75.387 17.814 74.9722 16.9993L80.4727 14.7841L80.2962 14.3302ZM74.6966 15.6751C74.6574 14.1409 75.9391 13.3459 76.8452 13.3459C77.5749 13.3459 78.1662 13.6869 78.3829 14.1983L74.6966 15.6751ZM70.2209 19.5188H72.0351V7.81639H70.2209V19.5188ZM67.2642 12.6829H67.2053C66.7915 12.2091 66.0226 11.7928 65.0361 11.7928C62.9659 11.7928 61.0929 13.5541 61.0929 15.7881C61.0929 18.0222 62.9855 19.7646 65.0361 19.7646C66.0217 19.7646 66.7905 19.3483 67.2053 18.8557H67.2642V19.4236C67.2642 20.9579 66.4159 21.7717 65.0557 21.7717C63.9515 21.7717 63.2611 20.9956 62.9855 20.3514L61.4086 20.9956C61.8617 22.0561 63.065 23.3624 65.0557 23.3624C67.1847 23.3624 68.9793 22.1503 68.9793 19.2155V12.0387H67.2642V12.6829ZM65.194 18.1936C63.9515 18.1936 62.9071 17.1896 62.9071 15.7891C62.9071 14.3886 63.9525 13.3657 65.194 13.3657C66.4169 13.3657 67.4024 14.3886 67.4024 15.7891C67.4015 17.1708 66.4159 18.1936 65.194 18.1936ZM88.7544 7.81639H84.4169V19.5188H86.2311V15.0874H88.7544C90.7657 15.0874 92.7369 13.6859 92.7369 11.4519C92.7369 9.21785 90.7657 7.81639 88.7544 7.81639ZM88.8132 13.4599H86.2498V9.44484H88.8132C90.1538 9.44484 90.9422 10.5242 90.9422 11.4519C90.9236 12.3608 90.1548 13.4599 88.8132 13.4599ZM99.9732 11.774C98.6718 11.774 97.3116 12.3231 96.7595 13.5729L98.357 14.2171C98.712 13.5729 99.3426 13.3648 100.013 13.3648C100.96 13.3648 101.906 13.9139 101.926 14.8793V14.9932C101.59 14.8039 100.901 14.5383 100.033 14.5383C98.2982 14.5383 96.5428 15.466 96.5428 17.1708C96.5428 18.7427 97.9628 19.7458 99.5397 19.7458C100.763 19.7458 101.432 19.2155 101.846 18.5911H101.905V19.4999H103.659V15.0121C103.64 12.9485 102.043 11.774 99.9732 11.774ZM99.7564 18.1748C99.1651 18.1748 98.3364 17.8903 98.3364 17.1905C98.3364 16.2817 99.3612 15.9407 100.249 15.9407C101.037 15.9407 101.412 16.1112 101.905 16.3382C101.767 17.4175 100.801 18.1748 99.7564 18.1748ZM109.989 12.0396L107.918 17.0954H107.86L105.711 12.0396H103.759L106.993 19.1213L105.159 23.0789H107.052L112 12.0396H109.989ZM93.743 19.5188H95.5572V7.81639H93.743V19.5188Z" fill="#5A78A6"/>
</svg>
