<svg width="486" height="342" viewBox="0 0 486 342" fill="none" xmlns="http://www.w3.org/2000/svg">
<g clip-path="url(#clip0_7_776)">
<path d="M196.21 341.275C210.827 341.275 222.677 329.443 222.677 314.846C222.677 300.25 210.827 288.418 196.21 288.418C181.593 288.418 169.743 300.25 169.743 314.846C169.743 329.443 181.593 341.275 196.21 341.275Z" fill="#3F5C8D"/>
<path d="M354.325 339.79C369.132 335.35 384.874 330.72 396.617 320.164C407.11 310.731 414.194 296.327 409.847 282.18C405.509 268.063 392.515 258.649 379.098 253.967C371.489 251.312 363.529 249.839 355.571 248.681C346.92 247.423 338.231 246.393 329.547 245.401C294.381 241.384 259.084 238.931 223.654 238.04C206.171 237.601 188.692 237.611 171.207 237.865C155.592 238.091 139.147 238.085 124.661 231.458C113.396 226.305 103.172 216.929 100.033 204.608C96.4096 190.386 103.093 175.902 112.679 165.602C117.733 160.172 123.639 155.602 129.731 151.401C136.341 146.842 143.181 142.606 150.169 138.653C163.932 130.869 178.322 124.245 193.187 118.849C200.521 116.187 207.963 113.889 215.47 111.77C221.809 109.981 228.167 108.189 234.294 105.75C246.137 101.037 257.401 93.0532 260.412 79.9643C263.266 67.5592 258.454 54.0925 250.018 44.877C240.258 34.2153 225.542 29.5416 211.434 28.7854C195.595 27.9364 180.121 31.8948 165.234 36.9184C149.355 42.2766 133.819 48.4375 117.606 52.7775C101.527 57.077 85.1381 60.1191 68.5866 61.8762C60.4841 62.7377 52.1367 63.7105 43.986 63.051C37.1549 62.4982 30.3588 60.4921 25.3244 55.6511C21.0077 51.5002 18.4362 45.7955 19.3202 39.7753C19.4808 38.6819 21.1443 39.1467 20.9847 40.2335C19.9085 47.5618 24.8972 54.3146 31.0446 57.7737C38.1493 61.7715 46.7947 61.777 54.7048 61.3198C71.8559 60.2854 88.8909 57.8264 105.633 53.9682C122.085 50.2162 137.948 44.8524 153.794 39.1227C168.843 33.681 184.229 28.3698 200.307 27.1911C214.257 26.1684 228.932 28.1978 241.086 35.4777C251.767 41.8758 259.621 52.5457 262.124 64.7896C264.569 76.7541 261.182 88.7966 252.112 97.1459C242.721 105.791 229.845 109.486 217.845 112.89C202.625 117.208 187.732 122.254 173.316 128.807C158.704 135.43 144.69 143.297 131.429 152.321C118.629 161.056 105.997 172.046 101.949 187.628C100.064 194.886 100.412 202.584 103.567 209.44C106.372 215.535 110.993 220.663 116.376 224.618C129.218 234.054 145.404 235.992 160.917 236.185C178.34 236.401 195.764 235.814 213.193 236.1C248.712 236.682 284.158 238.841 319.531 242.576C328.395 243.513 337.248 244.549 346.089 245.683C354.042 246.703 362.021 247.717 369.839 249.529C383.742 252.751 397.27 258.947 405.91 270.717C409.745 275.819 412.121 281.865 412.784 288.209C413.389 294.83 411.766 301.463 408.768 307.353C402.133 320.39 389.704 328.682 376.505 334.129C369.436 337.047 362.103 339.258 354.784 341.453C353.718 341.772 353.262 340.109 354.325 339.79Z" fill="#F1F4FB"/>
<path d="M20.4348 53.7192C28.0613 53.7192 34.2437 47.5457 34.2437 39.9303C34.2437 32.3149 28.0613 26.1414 20.4348 26.1414C12.8084 26.1414 6.62598 32.3149 6.62598 39.9303C6.62598 47.5457 12.8084 53.7192 20.4348 53.7192Z" fill="#F1F4FB"/>
<path d="M116.234 79.8608C123.86 79.8608 130.043 73.6873 130.043 66.0719C130.043 58.4565 123.86 52.283 116.234 52.283C108.607 52.283 102.425 58.4565 102.425 66.0719C102.425 73.6873 108.607 79.8608 116.234 79.8608Z" fill="#F1F4FB"/>
<path d="M197.361 27.5778C204.987 27.5778 211.17 21.4043 211.17 13.7889C211.17 6.1735 204.987 0 197.361 0C189.734 0 183.552 6.1735 183.552 13.7889C183.552 21.4043 189.734 27.5778 197.361 27.5778Z" fill="#F1F4FB"/>
<path d="M247.993 86.1806C255.62 86.1806 261.802 80.0071 261.802 72.3917C261.802 64.7763 255.62 58.6028 247.993 58.6028C240.367 58.6028 234.184 64.7763 234.184 72.3917C234.184 80.0071 240.367 86.1806 247.993 86.1806Z" fill="#F2F2F2"/>
<path d="M293.809 136.991C301.435 136.991 307.618 130.817 307.618 123.202C307.618 115.587 301.435 109.413 293.809 109.413C286.182 109.413 280 115.587 280 123.202C280 130.817 286.182 136.991 293.809 136.991Z" fill="#F1F4FB"/>
<path d="M92.6436 186.725C100.27 186.725 106.452 180.551 106.452 172.936C106.452 165.32 100.27 159.147 92.6436 159.147C85.0172 159.147 78.8348 165.32 78.8348 172.936C78.8348 180.551 85.0172 186.725 92.6436 186.725Z" fill="#F1F4FB"/>
<path d="M184.703 237.859C192.329 237.859 198.512 231.685 198.512 224.07C198.512 216.454 192.329 210.281 184.703 210.281C177.076 210.281 170.894 216.454 170.894 224.07C170.894 231.685 177.076 237.859 184.703 237.859Z" fill="#F1F4FB"/>
<path d="M283.666 266.585C291.293 266.585 297.475 260.412 297.475 252.796C297.475 245.181 291.293 239.008 283.666 239.008C276.04 239.008 269.857 245.181 269.857 252.796C269.857 260.412 276.04 266.585 283.666 266.585Z" fill="#F1F4FB"/>
<path d="M399.315 260.266C406.942 260.266 413.124 254.092 413.124 246.477C413.124 238.861 406.942 232.688 399.315 232.688C391.689 232.688 385.506 238.861 385.506 246.477C385.506 254.092 391.689 260.266 399.315 260.266Z" fill="#F1F4FB"/>
<ellipse cx="301.694" cy="126.478" rx="125.958" ry="125.776" fill="#F1F4FB"/>
<path d="M302.288 209.917C347.783 209.917 384.664 172.643 384.664 126.663C384.664 80.6832 347.783 43.4092 302.288 43.4092C256.794 43.4092 219.913 80.6832 219.913 126.663C219.913 172.643 256.794 209.917 302.288 209.917Z" fill="url(#paint0_linear_7_776)"/>
<path fill-rule="evenodd" clip-rule="evenodd" d="M209.295 156.291C210.718 154.51 213.475 154.777 214.602 156.758C214.944 157.372 215.086 158.077 215.009 158.775C214.932 159.473 214.64 160.13 214.172 160.655C208.567 167.045 206.149 172.015 207.759 174.848C212.924 183.937 257.602 167.544 307.557 138.238C309.277 137.227 310.984 136.216 312.673 135.201C312.961 135.022 313.198 134.772 313.361 134.474C313.524 134.177 313.607 133.843 313.603 133.504C313.603 121.838 322.961 112.379 334.508 112.379C340.689 112.379 347.397 112.566 352.368 108.888C377.283 90.448 392.083 74.7407 388.66 68.7175C387.126 66.0229 382.121 65.5692 374.532 67.0273C373.852 67.1643 373.146 67.0849 372.513 66.8004C371.88 66.5158 371.353 66.0404 371.004 65.441C369.915 63.5222 371.039 61.1011 373.224 60.779C388.174 58.5693 398.777 60.4188 402.496 66.958C409.457 79.2156 390.3 104.496 356.95 130.206C356.458 130.603 356.064 131.106 355.797 131.679C355.53 132.251 355.397 132.876 355.41 133.507C355.41 145.172 346.051 154.631 334.508 154.631C333.938 154.632 333.369 154.608 332.801 154.562C327.651 154.143 322.156 153.925 317.699 156.536C261.494 189.51 208.335 202.869 198.959 186.368C195.116 179.604 199.23 168.874 209.295 156.291Z" fill="#D2E1F8"/>
<path d="M334.508 144.071C340.28 144.071 344.959 139.341 344.959 133.507C344.959 127.673 340.28 122.943 334.508 122.943C328.736 122.943 324.057 127.673 324.057 133.507C324.057 139.341 328.736 144.071 334.508 144.071Z" fill="#70AF09"/>
<path opacity="0.32" d="M260.072 98.1927C255.004 110.842 256.603 124.183 250.384 121.641C244.165 119.095 243.236 106.775 248.303 94.123C253.374 81.4706 262.524 73.2792 268.744 75.8215C274.963 78.3672 265.143 85.5403 260.072 98.1927ZM256.17 134.207C256.621 138.374 254.713 142.003 251.904 142.315C249.101 142.627 246.458 139.503 246.003 135.336C245.553 131.169 247.46 127.543 250.266 127.231C253.076 126.92 255.716 130.044 256.17 134.207Z" fill="#E5E5E5"/>
<path d="M277.967 190.091C275.105 188.419 276.475 185.616 283.43 183.289C298.088 180.033 295.615 186.614 316.711 184.082C337.81 181.554 348.934 172.76 354.532 166.979C359.014 162.352 363.159 156.093 362.961 158.303C362.007 162.999 354.307 175.385 331.133 187.334C302.17 202.273 282.354 192.654 277.967 190.091Z" fill="#080F1B" fill-opacity="0.11"/>
<path d="M371.167 80.5317C373.863 78.7272 374.619 75.0731 372.666 72.4824C360.119 55.787 342.052 44.0734 321.674 39.4226C299.387 34.3687 276.005 38.2157 256.52 50.1423C236.985 62.0778 222.771 81.1829 216.847 103.464C211.454 123.751 213.299 145.279 222.063 164.357C223.437 167.346 227.086 168.396 229.965 166.799C232.806 165.223 233.822 161.669 232.49 158.712C225.134 142.327 223.637 123.916 228.251 106.561C233.385 87.2545 245.702 70.6987 262.632 60.3564C279.516 50.0234 299.776 46.6909 319.087 51.0706C336.437 55.0298 351.863 64.9009 362.715 78.987C364.73 81.5985 368.427 82.3674 371.167 80.5317ZM251.817 192.738C249.829 195.339 250.287 199.076 252.975 200.901C265.645 209.508 280.35 214.654 295.629 215.826C312.867 217.142 330.113 213.322 345.229 204.839C360.385 196.315 372.708 183.546 380.678 168.108C387.776 154.381 391.229 139.065 390.706 123.626C390.595 120.356 387.699 117.987 384.463 118.316C381.209 118.645 378.85 121.582 378.927 124.876C379.229 137.972 376.235 150.934 370.217 162.573C363.31 175.952 352.63 187.018 339.496 194.404C326.427 201.747 311.473 205.06 296.52 203.925C283.561 202.932 271.074 198.639 260.249 191.456C257.526 189.652 253.815 190.123 251.82 192.738H251.817Z" fill="#D2E1F8"/>
<path d="M193.375 39.0706C152.011 39.3624 118.142 72.928 117.554 114.229C117.549 114.611 117.546 117.292 117.547 120.799C117.547 125.941 119.593 130.872 123.234 134.508C126.874 138.144 131.813 140.187 136.962 140.187C139.514 140.187 142.042 139.684 144.4 138.708C146.758 137.731 148.9 136.301 150.704 134.497C152.508 132.694 153.938 130.553 154.913 128.198C155.888 125.842 156.389 123.318 156.387 120.769C156.385 118.384 156.384 116.733 156.384 116.631C156.383 110.248 158.045 103.975 161.208 98.4278C164.372 92.881 168.926 88.252 174.425 84.9961C179.923 81.7402 186.175 79.9696 192.566 79.8585C198.958 79.7473 205.268 81.2995 210.877 84.3622C216.485 87.4249 221.198 91.8928 224.553 97.3262C227.908 102.76 229.788 108.972 230.009 115.351C230.231 121.73 228.785 128.057 225.815 133.709C222.845 139.361 218.452 144.144 213.069 147.587L213.076 147.595C213.076 147.595 185.442 165.359 177.017 189.729L177.024 189.731C175.543 194.723 174.792 199.903 174.796 205.11C174.796 207.25 174.922 225.978 175.165 241.178C175.251 246.423 177.397 251.424 181.142 255.102C184.887 258.78 189.93 260.841 195.183 260.84C197.822 260.84 200.435 260.319 202.872 259.306C205.309 258.294 207.522 256.81 209.382 254.941C211.243 253.071 212.715 250.853 213.714 248.413C214.712 245.974 215.218 243.361 215.202 240.725C215.117 226.805 215.072 210.595 215.072 209.419C215.072 194.455 229.528 179.546 241.403 169.823C255.077 158.627 264.917 143.37 268.869 126.159C269.744 122.616 270.226 118.987 270.307 115.338C270.307 105.276 268.313 95.3134 264.44 86.024C260.567 76.7347 254.891 68.3024 247.74 61.2131C240.589 54.1237 232.104 48.5174 222.773 44.7172C213.443 40.917 203.452 38.9979 193.375 39.0706Z" fill="#3F5C8D"/>
<path d="M485.672 342H1.04168C0.860332 342 0.686591 341.927 0.558542 341.799C0.430493 341.671 0.358582 341.497 0.358582 341.316C0.358582 341.135 0.430493 340.961 0.558542 340.833C0.686591 340.705 0.860332 340.632 1.04168 340.632H485.672C485.853 340.632 486.027 340.704 486.156 340.832C486.284 340.961 486.357 341.135 486.357 341.316C486.357 341.497 486.284 341.671 486.156 341.8C486.027 341.928 485.853 342 485.672 342Z" fill="#F1F4FB"/>
<path d="M142.444 131.016C137.295 131.016 132.357 128.973 128.716 125.337C125.075 121.701 123.029 116.77 123.029 111.628C123.028 108.121 123.031 105.44 123.036 105.059C123.2 93.0471 126.229 81.2476 131.873 70.6389C122.6 83.3149 117.502 98.5551 117.283 114.251C117.277 114.633 117.275 117.314 117.275 120.821C117.275 125.963 119.321 130.894 122.962 134.53C126.603 138.166 131.541 140.208 136.69 140.209C140.922 140.207 145.037 138.827 148.41 136.277C151.784 133.727 154.232 130.147 155.383 126.081C151.828 129.264 147.219 131.022 142.444 131.016Z" fill="#233654"/>
<path d="M194.691 79.9233C200.644 80.2072 206.439 81.9296 211.578 84.9424C216.718 87.9553 221.048 92.1687 224.198 97.2209C227.347 102.273 229.222 108.013 229.66 113.948C230.099 119.883 229.088 125.835 226.716 131.294C230.148 127.27 232.67 122.553 234.111 117.467C235.552 112.38 235.878 107.043 235.066 101.819C234.255 96.5955 232.324 91.608 229.407 87.1967C226.49 82.7854 222.655 79.0541 218.163 76.2571C213.671 73.4601 208.627 71.6631 203.377 70.9888C198.126 70.3145 192.792 70.7787 187.737 72.3497C182.682 73.9206 178.026 76.5615 174.086 80.0922C170.146 83.6228 167.015 87.9603 164.906 92.8089C168.551 88.5271 173.132 85.1385 178.297 82.9044C183.461 80.6703 189.07 79.6504 194.691 79.9233Z" fill="#233654"/>
<path d="M200.664 251.669C195.411 251.671 190.369 249.61 186.624 245.931C182.879 242.253 180.733 237.252 180.647 232.007C180.404 216.807 180.278 198.08 180.278 195.939C180.274 190.732 181.025 185.552 182.506 180.56L182.499 180.558C183.374 178.053 184.431 175.614 185.66 173.261C181.885 178.285 178.88 183.843 176.746 189.751L176.753 189.753C175.271 194.745 174.52 199.925 174.524 205.132C174.524 207.272 174.65 226 174.894 241.2C174.979 246.445 177.125 251.446 180.87 255.124C184.615 258.802 189.658 260.863 194.911 260.862C199.242 260.861 203.456 259.458 206.921 256.864C210.386 254.269 212.915 250.622 214.129 246.471C210.448 249.822 205.645 251.676 200.664 251.669Z" fill="#233654"/>
<path d="M73.1644 334.717L80.2178 334.716L83.5739 307.548L73.1626 307.548L73.1644 334.717Z" fill="#FFB8B8"/>
<path d="M93.8223 341.257L71.6529 341.258L71.6525 332.705L85.2564 332.704C87.5281 332.704 89.7068 333.605 91.3132 335.209C92.9196 336.813 93.8222 338.988 93.8223 341.257Z" fill="#233654"/>
<path d="M47.8481 334.717L54.9016 334.716L58.2577 307.548L47.8464 307.548L47.8481 334.717Z" fill="#FFB8B8"/>
<path d="M68.506 341.257L46.3366 341.258L46.3362 332.705L59.9402 332.704C62.2119 332.704 64.3906 333.605 65.997 335.209C67.6034 336.813 68.5059 338.988 68.506 341.257Z" fill="#233654"/>
<path d="M54.0123 326.361L47.1222 325.999C46.7669 325.981 46.4189 325.892 46.0983 325.738C45.7776 325.584 45.4908 325.368 45.2543 325.102C45.0178 324.837 44.8365 324.527 44.7207 324.191C44.605 323.855 44.5571 323.5 44.5799 323.145L52.815 232.101L90.7382 242.319L94.3919 241.324L82.966 321.923C82.8687 322.529 82.5672 323.084 82.1113 323.496C81.6554 323.908 81.0723 324.153 80.4585 324.189L73.0311 324.535C72.6597 324.555 72.2881 324.499 71.9397 324.369C71.5913 324.238 71.2738 324.038 71.0071 323.779C70.7404 323.52 70.5305 323.208 70.3905 322.864C70.2504 322.52 70.1834 322.151 70.1937 321.78L71.5395 273.406C71.5457 273.182 71.4679 272.964 71.3213 272.795C71.1747 272.625 70.9699 272.517 70.7473 272.491C70.5247 272.465 70.3005 272.523 70.1187 272.654C69.937 272.785 69.811 272.98 69.7655 273.199L56.7869 324.225C56.6644 324.83 56.3354 325.374 55.856 325.765C55.3766 326.155 54.7765 326.367 54.158 326.365C54.1097 326.365 54.0611 326.364 54.0123 326.361Z" fill="#233654"/>
<path d="M74.4308 157.607C82.2355 157.607 88.5624 151.289 88.5624 143.496C88.5624 135.702 82.2355 129.385 74.4308 129.385C66.6261 129.385 60.2991 135.702 60.2991 143.496C60.2991 151.289 66.6261 157.607 74.4308 157.607Z" fill="#FFB8B8"/>
<path d="M50.9025 184.954L52.4563 218.431L53.018 230.61C53.0404 231.14 53.2207 231.652 53.5358 232.079C53.8509 232.506 54.2865 232.83 54.7869 233.009L91.2285 246.191C91.5229 246.3 91.8348 246.355 92.1488 246.352C92.5078 246.354 92.8634 246.283 93.1944 246.145C93.5255 246.006 93.8252 245.802 94.0756 245.546C94.3261 245.289 94.5221 244.984 94.6521 244.65C94.7821 244.316 94.8433 243.959 94.8322 243.601L93.3381 183.408C93.24 178.47 91.4195 173.72 88.1904 169.978C84.9613 166.237 80.526 163.737 75.6492 162.91C75.2967 162.857 74.9381 162.803 74.5795 162.755C71.5554 162.38 68.4858 162.672 65.5866 163.609C62.6875 164.546 60.0292 166.106 57.7988 168.18C55.4893 170.301 53.6746 172.903 52.4829 175.801C51.2912 178.7 50.7517 181.824 50.9025 184.954Z" fill="#D2E1F8"/>
<path d="M108.637 239.511C107.775 239.244 106.987 238.779 106.337 238.154C105.687 237.529 105.192 236.761 104.892 235.911C104.592 235.062 104.495 234.153 104.609 233.259C104.722 232.365 105.044 231.51 105.548 230.763L93.1898 214.354L103.854 213.695L113.954 229.378C115.035 230.213 115.788 231.401 116.079 232.734C116.371 234.068 116.183 235.461 115.549 236.67C114.914 237.879 113.874 238.826 112.61 239.346C111.346 239.865 109.939 239.924 108.637 239.511Z" fill="#FFB8B8"/>
<path d="M99.9478 227.793C99.6204 227.66 99.3226 227.464 99.0716 227.216C98.8207 226.967 98.6215 226.672 98.4857 226.346L79.8678 182.053C79.5025 181.185 79.3119 180.255 79.3069 179.314C79.302 178.373 79.4827 177.441 79.8388 176.57C80.195 175.698 80.7195 174.906 81.3825 174.238C82.0455 173.569 82.8338 173.038 83.7026 172.673C84.5714 172.309 85.5035 172.12 86.4457 172.116C87.3878 172.111 88.3216 172.293 89.1936 172.649C90.0656 173.005 90.8588 173.53 91.5277 174.192C92.1967 174.855 92.7283 175.642 93.0923 176.51L111.71 220.804C111.985 221.461 111.988 222.2 111.719 222.859C111.449 223.518 110.929 224.043 110.271 224.319L102.006 227.783C101.681 227.921 101.331 227.992 100.978 227.994C100.625 227.996 100.274 227.928 99.9478 227.793Z" fill="#D2E1F8"/>
<path d="M69.8874 226.231L87.7694 192.041C88.1142 191.383 88.7062 190.889 89.4154 190.667C90.1246 190.445 90.8931 190.512 91.5524 190.855L117.508 204.391C118.167 204.736 118.661 205.327 118.884 206.035C119.107 206.743 119.039 207.511 118.695 208.169L100.813 242.359C100.469 243.017 99.8766 243.511 99.1673 243.733C98.4581 243.955 97.6896 243.887 97.0303 243.545L71.0746 230.008C70.4161 229.664 69.9213 229.073 69.6987 228.365C69.4762 227.657 69.544 226.889 69.8874 226.231Z" fill="#233654"/>
<path d="M81.8797 210.61C81.5618 209.767 81.0509 209.009 80.3877 208.398C79.7246 207.787 78.9275 207.339 78.0602 207.09C77.1928 206.841 76.2792 206.798 75.3923 206.964C74.5053 207.131 73.6696 207.502 72.9517 208.048L55.8181 196.698L55.789 207.367L72.0638 216.509C72.9622 217.538 74.1945 218.218 75.5447 218.429C76.8949 218.641 78.2767 218.372 79.4478 217.668C80.6189 216.964 81.5044 215.871 81.9491 214.581C82.3938 213.29 82.3692 211.885 81.8797 210.61Z" fill="#FFB8B8"/>
<path d="M60.217 213.009L46.2144 201.934C44.6996 201.426 43.3308 200.558 42.2256 199.406C41.1204 198.254 40.3118 196.851 39.8691 195.317C39.4264 193.784 39.363 192.167 39.6841 190.604C40.0053 189.041 40.7015 187.579 41.7131 186.343L54.4271 169.705C55.3106 168.627 56.5531 167.902 57.9276 167.664C59.3021 167.425 60.7166 167.689 61.9127 168.406C63.1087 169.123 64.0064 170.246 64.4416 171.569C64.8768 172.893 64.8205 174.328 64.2829 175.614L54.2233 192.046L69.0068 199.047C69.3505 199.21 69.6558 199.444 69.9024 199.733C70.149 200.023 70.3313 200.361 70.4372 200.726C70.5431 201.091 70.5703 201.474 70.517 201.85C70.4636 202.226 70.3309 202.587 70.1277 202.908L64.1601 212.339C63.9584 212.657 63.6919 212.929 63.3781 213.138C63.0642 213.347 62.7099 213.488 62.3381 213.552C62.3233 213.554 62.3084 213.556 62.2936 213.559C61.9283 213.614 61.5555 213.593 61.1983 213.499C60.8411 213.404 60.5072 213.238 60.217 213.009Z" fill="#D2E1F8"/>
<path d="M63.7526 152.945C63.6919 152.768 63.6727 152.579 63.6963 152.393C63.72 152.208 63.7859 152.03 63.889 151.874C63.9921 151.717 64.1296 151.587 64.2911 151.491C64.4526 151.396 64.6337 151.34 64.8207 151.325C65.2034 151.346 65.578 151.444 65.9217 151.613C66.2655 151.783 66.5713 152.02 66.8207 152.311C67.3321 152.899 67.9275 153.41 68.5877 153.826C69.2714 154.17 70.1985 154.121 70.5882 153.465C70.9542 152.849 70.7034 152.024 70.4819 151.308C69.9181 149.488 69.6027 147.6 69.5441 145.695C69.4803 143.569 69.7806 141.35 70.9593 139.692C72.4805 137.552 75.2006 136.74 77.7748 136.799C80.349 136.858 82.8815 137.651 85.4313 138.153C86.3116 138.326 87.3463 138.414 87.9351 137.733C88.5611 137.009 88.3312 135.836 88.0649 134.858C87.3739 132.32 86.6408 129.696 85.0354 127.646C83.2996 125.517 80.82 124.123 78.096 123.745C75.4808 123.422 72.8262 123.723 70.3502 124.623C66.3162 125.893 62.7666 128.362 60.176 131.701C57.5056 135.251 56.3516 139.713 56.9666 144.111C57.5673 147.941 59.5999 151.402 62.6545 153.795L63.7526 152.945Z" fill="#233654"/>
<path d="M190.379 334.829C186.619 333.194 183.291 330.708 180.658 327.569C178.025 324.43 176.159 320.722 175.206 316.739C174.254 312.756 174.241 308.607 175.17 304.618C176.099 300.629 177.943 296.911 180.557 293.756C177.526 295.966 175 298.794 173.148 302.053C171.295 305.312 170.157 308.928 169.811 312.659C169.464 316.391 169.917 320.154 171.138 323.697C172.359 327.241 174.321 330.485 176.893 333.214C179.466 335.942 182.59 338.094 186.059 339.524C189.528 340.955 193.262 341.633 197.013 341.513C200.764 341.393 204.446 340.477 207.816 338.827C211.186 337.177 214.165 334.83 216.557 331.942C212.827 334.665 208.447 336.364 203.854 336.871C199.261 337.377 194.615 336.673 190.379 334.829Z" fill="#233654"/>
<path d="M458.101 82.6359C458.709 78.4188 462.621 75.4931 466.838 76.1013C471.055 76.7094 473.981 80.6211 473.373 84.8383C472.765 89.0554 468.853 91.9811 464.636 91.3729C460.419 90.7648 457.493 86.8531 458.101 82.6359Z" fill="#D2E1F8"/>
</g>
<defs>
<linearGradient id="paint0_linear_7_776" x1="214.928" y1="-15.7244" x2="341.524" y2="197.682" gradientUnits="userSpaceOnUse">
<stop offset="0.395" stop-color="#E35959"/>
<stop offset="0.72" stop-color="#E26630"/>
<stop offset="0.75" stop-color="#95DB24"/>
</linearGradient>
<clipPath id="clip0_7_776">
<rect width="486" height="342" fill="white"/>
</clipPath>
</defs>
</svg>
