<svg width="602" height="601" viewBox="0 0 602 601" fill="none" xmlns="http://www.w3.org/2000/svg">
<ellipse cx="301" cy="300.5" rx="301" ry="300.5" fill="#E8EEF9"/>
<circle cx="271.5" cy="298.5" r="173.5" fill="#E8EDF8"/>
<circle opacity="0.1" cx="271.5" cy="298.5" r="210.5" fill="#E8EDF8"/>
<circle cx="270.521" cy="297.847" r="96.2746" fill="#BBC9E0"/>
<path fill-rule="evenodd" clip-rule="evenodd" d="M160.891 332.372C162.564 330.306 165.768 330.619 167.092 332.925C167.941 334.403 167.714 336.259 166.584 337.536C159.992 344.979 157.149 350.77 159.045 354.07C165.133 364.674 217.826 345.548 276.737 311.351C278.77 310.171 280.784 308.988 282.778 307.804C283.469 307.393 283.867 306.633 283.867 305.829V305.829C283.867 292.215 294.903 281.178 308.518 281.178C310.712 281.178 312.84 281.465 314.866 282.004C318.107 282.865 321.679 282.779 324.411 280.835C356.892 257.726 376.647 237.665 372.38 230.234C370.57 227.083 364.647 226.557 355.668 228.271C354.05 228.58 352.396 227.863 351.576 226.435C350.287 224.191 351.603 221.345 354.163 220.97C371.8 218.39 384.311 220.545 388.696 228.181C396.909 242.483 374.309 271.989 334.969 301.991C333.787 302.892 333.168 304.343 333.168 305.829V305.829C333.168 319.443 322.132 330.48 308.518 330.48C306.203 330.48 303.963 330.161 301.839 329.564C298.805 328.713 295.486 328.702 292.776 330.311C291.426 331.112 290.066 331.91 288.697 332.705C222.415 371.18 159.721 386.765 148.666 367.513C144.129 359.613 148.995 347.073 160.891 332.372Z" fill="white"/>
<circle cx="308.518" cy="305.829" r="12.3254" fill="#E5E5E5"/>
<path d="M351.685 244.061C354.891 241.937 355.786 237.599 353.453 234.541C338.621 215.111 317.378 201.44 293.384 196.051C267.118 190.151 239.589 194.633 216.55 208.559C193.511 222.485 176.747 244.777 169.762 270.775C163.381 294.524 165.611 319.687 175.922 341.851C177.544 345.338 181.8 346.562 185.172 344.711V344.711C188.543 342.86 189.748 338.636 188.162 335.132C179.561 316.134 177.764 294.667 183.212 274.389C189.265 251.861 203.791 232.545 223.755 220.478C243.718 208.411 267.573 204.528 290.332 209.64C310.819 214.241 328.991 225.81 341.814 242.256C344.179 245.289 348.48 246.186 351.685 244.061V244.061Z" fill="white"/>
<path d="M211.021 374.922C208.67 377.966 209.221 382.36 212.416 384.502C227.351 394.518 244.659 400.525 262.67 401.884C283 403.418 303.334 398.962 321.16 389.067C338.986 379.171 353.521 364.27 362.971 346.203C371.342 330.199 375.396 312.332 374.795 294.36C374.667 290.516 371.228 287.724 367.401 288.109V288.109C363.575 288.494 360.813 291.909 360.902 295.754C361.255 311.014 357.739 326.156 350.63 339.748C342.441 355.403 329.846 368.315 314.4 376.89C298.954 385.465 281.334 389.326 263.718 387.996C248.422 386.842 233.711 381.818 220.947 373.448C217.731 371.339 213.371 371.877 211.021 374.922V374.922Z" fill="white"/>
<ellipse cx="270.521" cy="396.518" rx="77.7949" ry="5.66228" fill="#849DC5"/>
<g clip-path="url(#clip0_3_122)">
<path d="M306.271 263.451C304.865 263.331 303.891 261.285 304.097 258.88C304.302 256.476 305.608 254.624 307.014 254.745C308.421 254.865 309.394 256.911 309.189 259.315C308.984 261.719 307.678 263.571 306.271 263.451Z" fill="white"/>
<path d="M271.345 222.323C269.667 221.886 264.603 221.452 260.998 224.7C259.84 225.743 259.347 227.513 259.522 229.184C260.004 233.797 265.586 236.862 270.341 236.979C276.224 237.123 279.85 234.96 280.168 231.069C280.507 226.913 277.921 223.677 271.345 222.323ZM259.855 229.149C259.692 227.579 260.13 226.261 261.157 225.234C262.309 224.08 264.189 223.357 266.403 223.172C263.354 224.056 261.098 226.244 260.986 228.923C260.901 230.946 262.041 232.988 263.873 234.512C262.815 234.073 260.219 232.653 259.855 229.149Z" fill="#1C2129"/>
<path d="M234.817 296.577C230.045 301.098 220.243 335.887 219.532 346.339C219.532 346.339 233.638 349.802 234.003 348.892C237.417 340.395 250.606 307.764 252.714 292.024C245.643 292.112 236.962 294.542 234.817 296.577Z" fill="#F6C496"/>
<path d="M308.348 296.577C313.119 301.098 322.309 337.045 323.642 348.371C323.642 348.371 309.3 351.611 308.935 350.702C305.521 342.204 292.56 307.764 290.449 292.024C297.521 292.112 306.202 294.542 308.348 296.577Z" fill="#F6C496"/>
<path d="M270.722 392.67C289.24 392.67 304.252 385.462 304.252 376.57C304.252 367.678 289.24 360.47 270.722 360.47C252.204 360.47 237.193 367.678 237.193 376.57C237.193 385.462 252.204 392.67 270.722 392.67Z" fill="#1B1B2D"/>
<path d="M307.83 297.445C306.111 293.876 284.341 287.725 281.585 285.546C280.292 284.522 279.347 276.378 279.347 276.378L263.24 276.046C263.24 276.046 263.61 284.114 261.433 285.181C260.009 285.878 236.974 290.998 233.991 296.807C231.009 302.615 241.79 325.146 243.413 319.891C245.792 334.132 249.863 364.004 249.863 364.004C249.863 364.004 256.254 367.87 270.626 367.852C287.217 367.831 293.579 364.829 293.579 364.829C293.579 364.829 297.683 336.782 300.748 321.534C302.091 326.935 310.285 302.546 307.83 297.445Z" fill="#F6C496"/>
<path d="M220.846 331.772C223.985 333.59 232.665 336.333 239.675 338.066L241.517 331.259L245.076 364.023L296.298 363.354L300.861 331.985L302.746 338.607C302.781 338.828 303.122 339.506 303.349 339.501C309.078 339.37 320.495 335.511 322.654 333.934C322.654 333.934 316.75 304.118 306.392 293.823C299.493 286.965 281.586 285.547 281.586 285.547C281.586 285.547 279.839 294.27 271.601 294.33C263.127 294.391 261.431 285.182 261.431 285.182C261.431 285.182 242.579 285.143 234.205 294.718C227.722 302.131 220.846 331.772 220.846 331.772Z" fill="#87AB49"/>
<path d="M302.564 317.034C302.564 316.326 301.661 315.981 301.314 317.034C294.483 337.876 283.486 356.181 271.482 355.952C259.598 355.726 250.967 346.248 241.995 317.918C241.646 316.817 240.457 317.226 240.543 318.377L241.507 331.256L245.077 364.025C245.077 364.025 253.451 371.367 272.002 370.952C287.743 370.6 296.299 363.355 296.299 363.355L300.851 331.98L302.564 317.034Z" fill="#687B1C"/>
<path d="M270.556 370.805C271.313 369.953 271.266 367.597 270.405 366.079C266.737 359.609 256.357 359.588 256.357 359.588C256.357 359.588 237.342 340.818 232.151 339.866C228.728 339.239 223.72 341.975 221.061 343.956C219.816 344.882 219.137 346.254 219.726 347.625C220.938 350.44 223.642 354.666 226.469 356.431C230.968 359.236 254.298 364.087 254.298 364.087C254.298 364.087 258.499 365.532 260.465 367.962C262.997 371.094 267.844 373.856 270.556 370.805Z" fill="#F6C496"/>
<path d="M219.666 347.471L220.177 348.596C221.532 351.336 223.913 354.921 226.469 356.431C232.794 360.173 254.297 364.087 254.297 364.087C228.333 357.363 219.666 347.471 219.666 347.471Z" fill="#DEAA7A"/>
<path d="M270.557 370.805C271.211 370.07 271.263 368.215 270.713 366.744C270.713 366.77 270.84 369.921 267.556 369.767C266.809 369.731 265.938 369.449 265 369.033C265.012 369.033 265.024 369.038 265.035 369.04C265.249 369.07 265.464 369.088 265.68 369.093C265.89 369.096 266.1 369.087 266.309 369.066C266.678 369.023 267.041 368.929 267.385 368.789C267.626 368.688 267.853 368.556 268.061 368.397C268.138 368.337 268.21 368.27 268.276 368.197C267.967 368.35 267.64 368.463 267.303 368.534C267.153 368.562 266.992 368.594 266.821 368.613C266.651 368.642 266.467 368.638 266.279 368.656C266.091 368.656 265.896 368.656 265.699 368.642C265.499 368.632 265.3 368.61 265.103 368.577C264.903 368.554 264.704 368.518 264.509 368.471C264.315 368.422 264.119 368.395 263.938 368.332C263.756 368.269 263.572 368.237 263.405 368.18C263.295 368.141 263.194 368.109 263.091 368.075C260.323 366.569 257.333 364.59 255.342 364.499C256.717 365.09 259.118 366.293 260.467 367.962C262.998 371.094 267.845 373.856 270.557 370.805Z" fill="#EF6E4B"/>
<path d="M270.794 370.516C270.071 369.616 270.243 367.236 271.191 365.747C275.234 359.398 285.726 359.915 285.726 359.915C285.726 359.915 305.917 341.929 311.214 341.236C314.708 340.78 319.624 343.805 322.21 345.944C323.419 346.945 324.036 348.367 323.368 349.722C321.998 352.504 319.048 356.636 316.097 358.273C311.404 360.875 287.575 364.568 287.575 364.568C287.575 364.568 283.253 365.809 281.141 368.165C278.419 371.199 273.378 373.739 270.794 370.516Z" fill="#F6C496"/>
<path d="M323.422 349.616L322.846 350.727C321.336 353.427 318.744 356.925 316.082 358.32C309.495 361.774 287.559 364.616 287.559 364.616C314.15 359.165 323.422 349.616 323.422 349.616Z" fill="#DEAA7A"/>
<path d="M270.772 370.564C270.149 369.787 270.192 367.909 270.825 366.451C270.825 366.479 270.532 369.656 273.859 369.67C274.614 369.673 275.51 369.433 276.48 369.061C276.467 369.061 276.455 369.065 276.443 369.066C276.226 369.086 276.008 369.093 275.789 369.087C275.577 369.08 275.365 369.059 275.155 369.027C274.784 368.964 274.423 368.851 274.082 368.691C273.844 368.577 273.621 368.432 273.419 368.261C273.344 368.196 273.275 368.124 273.213 368.047C273.516 368.218 273.84 368.349 274.176 368.438C274.328 368.474 274.487 368.516 274.661 368.543C274.832 368.581 275.019 368.587 275.204 368.614C275.395 368.624 275.591 368.633 275.791 368.631C275.994 368.631 276.196 368.619 276.397 368.595C276.6 368.582 276.803 368.557 277.003 368.519C277.201 368.48 277.401 368.462 277.587 368.409C277.774 368.355 277.962 368.331 278.134 368.282C278.247 368.248 278.351 368.222 278.457 368.192C281.332 366.813 284.456 364.969 286.473 364.98C285.054 365.506 282.564 366.597 281.112 368.214C278.397 371.246 273.354 373.786 270.772 370.564Z" fill="#EF6E4B"/>
<path d="M288.658 261.315C287.973 260.94 287.007 261.247 286.286 261.652C287.378 251.452 280.935 240.712 271.391 241.052C261.59 241.395 256.098 251.612 256.504 261.242C255.511 260.54 254.331 260.016 253.622 260.821C250.996 263.8 254.953 269.922 257.568 269.138C257.913 269.034 258.087 268.475 258.262 268.145C258.262 268.145 259.062 275.905 260.876 277.613C266.864 283.246 266.864 283.246 271.725 283.233C276.453 283.219 276.453 283.172 281.785 277.745C283.45 276.051 284.068 268.691 284.068 268.691C284.316 269.187 284.834 269.408 285.347 269.436C287.017 269.526 292.786 263.572 288.658 261.315Z" fill="#F6C496"/>
<path d="M257.461 263.723C256.454 260.874 254.831 260.441 254.831 260.441C254.831 260.441 252.943 251.367 253.843 247.31C255.214 241.117 260.037 234.113 270.874 234.113C279.678 234.113 286.737 240.352 288.232 246.654C289.398 251.567 287.693 261.16 287.693 261.16C287.693 261.16 286.463 261.471 285.874 262.688L285.349 263.966L284.936 263.852C284.936 263.852 286.775 255.248 284.639 254.275C282.877 253.475 282.8 251.42 280.928 248.479C278.55 244.745 276.53 248.058 271.438 248.032C266.377 248.008 263.585 244.425 262.235 248.084C260.789 252.004 260.871 253.694 258.94 254.565C255.923 255.926 257.961 263.67 257.961 263.67L257.461 263.723Z" fill="#1C2129"/>
<path d="M285.349 263.963L284.936 263.849C282.587 271.354 277.297 274.024 271.82 274.038C266.343 274.052 260.675 271.409 257.96 263.669L257.461 263.719C258.154 267.253 254.923 273.713 256.738 279.114C258.273 283.685 268.563 289.517 272.669 289.444C276.705 289.371 283.465 283.813 285.734 279.625C288.675 274.198 284.425 266.019 285.349 263.963Z" fill="#1C2129"/>
<path d="M235.307 336.897L238.416 337.745L236.645 342.272C236.645 342.272 235.151 342.262 233.34 342.845C231.529 343.428 231.13 343.705 231.13 343.705C231.13 343.705 233.739 341.894 234.353 340.452C234.967 339.01 235.307 336.897 235.307 336.897Z" fill="#DEAA7A"/>
<path d="M304.644 339.457L306.21 343.65C306.21 343.65 307.189 343.536 309.192 344.065C311.194 344.594 311.701 344.986 311.701 344.986C311.701 344.986 309.237 343.029 308.731 341.58C308.426 340.705 308.188 339.808 308.02 338.897L304.644 339.457Z" fill="#DEAA7A"/>
<path d="M240.669 317.705L235.307 336.897L239.678 338.064L241.857 330.62L240.669 317.705Z" fill="#687B1C"/>
<path d="M302.564 317.034L308.016 338.897L303.11 339.711L300.578 331.263L302.564 317.034Z" fill="#687B1C"/>
<path d="M301.341 369.946H241.996C241.19 369.946 240.446 369.331 240.343 368.575L234.384 325.165C234.236 324.086 234.909 323.196 235.881 323.196H307.456C308.428 323.196 309.101 324.086 308.953 325.165L302.994 368.576C302.89 369.331 302.146 369.946 301.341 369.946Z" fill="#E0E8F5"/>
<path d="M301.95 369.947H241.386C240.96 369.947 240.614 370.292 240.614 370.718V371.358C240.614 371.784 240.96 372.13 241.386 372.13H301.95C302.377 372.13 302.722 371.784 302.722 371.358V370.718C302.722 370.292 302.377 369.947 301.95 369.947Z" fill="#C9BFD8"/>
<path d="M305.298 324.688C305.298 324.688 297.48 357.752 265.793 361.18C257.008 362.131 248.621 359.925 241.738 355.592C241.654 355.54 241.557 355.512 241.458 355.513C241.359 355.514 241.263 355.543 241.18 355.597C241.097 355.651 241.031 355.727 240.99 355.817C240.949 355.907 240.934 356.006 240.948 356.104L242.467 367.171C242.564 367.879 243.26 368.455 244.014 368.455H299.573C300.327 368.455 301.023 367.879 301.121 367.171L306.699 326.53C306.838 325.52 306.21 324.688 305.298 324.688Z" fill="#C7D2E4"/>
<path d="M271.668 351.39C275.474 351.39 278.559 349.867 278.559 347.987C278.559 346.108 275.474 344.585 271.668 344.585C267.862 344.585 264.777 346.108 264.777 347.987C264.777 349.867 267.862 351.39 271.668 351.39Z" fill="white"/>
<path d="M239.334 326.062L283.035 323.196H235.873C234.901 323.196 234.228 324.086 234.376 325.165L239.179 360.154L237.636 327.965C237.613 327.488 237.778 327.022 238.096 326.666C238.413 326.31 238.858 326.093 239.334 326.062V326.062Z" fill="white"/>
<path d="M216.465 365.455C216.465 365.455 222.978 360.516 239.796 364.022C256.615 367.528 271.054 377.997 283.808 383.979C297.724 390.507 300.209 390.734 300.209 390.734C300.209 390.734 304.704 389.727 310.839 387.61C315.914 385.859 322.508 383.773 323.587 384.987C325.104 386.694 322.812 393.424 315.662 395.897C304.371 399.804 300.045 398.735 300.045 398.735C296.464 398.049 243.812 392.072 235.088 388.822C224.318 384.81 211.975 375.967 216.465 365.455Z" fill="#F6C496"/>
<path d="M296.062 394.042C296.147 393.908 297.602 392.014 298.843 390.395C299.918 390.722 300.209 390.735 300.209 390.735L306.325 389.072C306.325 389.072 300.451 390.819 299.989 393.548C299.435 396.826 306.736 398.505 313.101 396.738C304.431 399.581 300.361 398.789 300.361 398.789C299.833 398.697 298.209 398.35 295.835 398.085C295.891 396.225 295.978 394.177 296.062 394.042Z" fill="#DEAA7A"/>
<path d="M216.094 365.089C216.094 365.089 221.339 357.74 238.138 361.343C254.937 364.946 271.545 377.66 284.267 383.718C289.214 386.081 294.283 388.179 299.453 390.004C299.511 390.026 299.564 390.061 299.606 390.106C299.649 390.151 299.681 390.205 299.7 390.264C299.719 390.323 299.724 390.386 299.715 390.447C299.706 390.509 299.683 390.567 299.649 390.619C298.891 391.758 298.471 392.375 298.123 394.311C297.896 395.576 297.962 397.253 298.717 398.407C298.74 398.441 298.752 398.482 298.753 398.523C298.754 398.565 298.743 398.606 298.721 398.641C298.699 398.677 298.668 398.705 298.63 398.723C298.593 398.741 298.551 398.749 298.51 398.744C288.226 397.324 242.56 392.716 234.592 389.694C223.842 385.618 211.547 375.575 216.094 365.089Z" fill="#2E2E47"/>
<path d="M299.453 390.002C298.479 389.655 297.043 389.142 295.227 388.441C295.227 388.441 283.949 394.251 276.664 393.791C259.691 392.718 240.476 388.819 235.394 386.892C227.682 383.969 217.653 377.317 215.142 370.289C215.616 378.77 226.614 387.155 235.564 390.549C243.534 393.57 288.224 397.326 298.508 398.747C298.549 398.751 298.591 398.744 298.629 398.726C298.666 398.708 298.697 398.679 298.719 398.644C298.741 398.608 298.752 398.567 298.752 398.526C298.751 398.484 298.739 398.444 298.716 398.409C298.32 397.806 298 396.148 298.177 394.454C298.38 392.498 298.889 391.756 299.647 390.616C299.682 390.565 299.704 390.506 299.713 390.445C299.722 390.384 299.717 390.321 299.698 390.262C299.68 390.203 299.648 390.149 299.605 390.104C299.563 390.059 299.511 390.024 299.453 390.002V390.002Z" fill="#1B1B2D"/>
<path d="M324.67 366.494C324.67 366.494 320.664 360.765 304.169 364.113C287.674 367.461 271.113 378.515 258.553 384.374C244.851 390.768 242.416 390.972 242.416 390.972C242.416 390.972 238.037 389.922 232.072 387.749C227.137 385.951 220.724 383.804 219.65 385.007C218.144 386.699 220.279 393.447 227.23 395.987C238.209 399.998 242.454 398.97 242.454 398.97C245.965 398.318 297.529 392.84 306.107 389.674C316.697 385.765 328.898 377.043 324.67 366.494Z" fill="#F6C496"/>
<path d="M246.42 394.318C246.339 394.183 244.945 392.276 243.757 390.643C242.701 390.96 242.416 390.97 242.416 390.97L236.463 389.25C236.463 389.25 242.178 391.052 242.588 393.784C243.08 397.065 235.917 398.675 229.722 396.849C238.156 399.772 242.145 399.017 242.145 399.017C242.661 398.931 244.253 398.599 246.579 398.355C246.553 396.501 246.499 394.449 246.42 394.318Z" fill="#DEAA7A"/>
<path d="M325.038 366.131C325.038 366.131 319.925 359.34 303.448 362.786C286.971 366.231 270.637 378.174 258.108 384.109C253.242 386.422 248.255 388.472 243.168 390.25C243.111 390.272 243.059 390.307 243.016 390.352C242.974 390.396 242.942 390.45 242.923 390.509C242.904 390.567 242.898 390.629 242.905 390.69C242.913 390.752 242.934 390.81 242.968 390.862C243.69 392.007 244.091 392.628 244.403 394.567C244.605 395.832 244.515 397.509 243.759 398.653C243.736 398.687 243.723 398.727 243.721 398.768C243.72 398.809 243.73 398.85 243.75 398.885C243.771 398.921 243.802 398.95 243.838 398.969C243.875 398.988 243.916 398.996 243.957 398.993C254.032 397.668 298.744 393.494 306.582 390.549C317.15 386.578 329.323 376.655 325.038 366.131Z" fill="#2E2E47"/>
<path d="M243.167 390.247C244.124 389.909 245.533 389.41 247.324 388.726L263.409 381.341C263.409 381.341 248.735 388.526 248.919 391.76C249.076 394.489 251.865 395.768 258.995 395.374C275.603 394.462 300.838 389.617 305.836 387.74C313.42 384.89 323.325 378.336 325.887 371.334C325.294 379.808 315.382 387.243 306.579 390.55C298.74 393.498 254.031 397.673 243.955 398.995C243.914 398.999 243.873 398.99 243.836 398.972C243.8 398.953 243.77 398.924 243.749 398.888C243.728 398.853 243.718 398.812 243.72 398.771C243.721 398.73 243.734 398.69 243.757 398.656C244.154 398.054 244.491 396.403 244.345 394.708C244.176 392.752 243.69 392.005 242.966 390.859C242.933 390.807 242.912 390.748 242.904 390.687C242.897 390.626 242.903 390.564 242.922 390.505C242.941 390.447 242.973 390.393 243.015 390.349C243.058 390.304 243.109 390.269 243.167 390.247V390.247Z" fill="#1B1B2D"/>
<path d="M277.566 275.817C280.557 274.268 280.557 270.965 280.557 270.965C280.557 270.965 280.121 271.425 279.195 271.855C278.554 272.152 277.378 272.161 275.986 271.147C274.391 269.984 272.974 270.54 272.241 270.974C271.898 271.178 271.825 271.197 271.482 270.993C270.754 270.56 269.185 269.954 267.79 271.09C266.732 271.95 266.417 272.134 265.226 272.085C263.987 272.035 263.015 271.152 263.015 271.152C263.015 271.152 263.596 275.171 266.69 276.046C268.896 276.67 271.117 275.817 271.67 274.309C271.804 273.944 271.803 273.962 271.94 274.262C272.759 276.046 275.481 276.716 277.566 275.817Z" fill="#161616"/>
<path d="M274.067 235.966C275.771 236.468 278.933 236.788 279.507 239.954C280.087 243.146 277.452 245.47 274.258 246.607C271.064 247.745 268.354 247.309 266.442 246.607C264.53 245.906 262.425 244.091 260.9 248.906C259.374 253.721 257.262 252.245 256.713 255.31C256.164 258.374 257.476 261.16 257.476 261.16C257.143 258.771 257.054 255.419 258.939 254.567C260.867 253.696 260.787 252.006 262.234 248.086C263.583 244.427 266.373 248.011 271.437 248.035C276.531 248.059 278.545 244.748 280.927 248.482C282.799 251.422 282.876 253.477 284.638 254.277C286.773 255.248 284.935 263.855 284.935 263.855L285.348 263.969L285.872 262.691C286.45 261.595 287.692 261.163 287.692 261.163C287.692 261.163 289.397 251.57 288.231 246.656C287.14 242.057 283.412 237.067 277.759 235.284C277.76 235.281 276.145 236.044 274.067 235.966Z" fill="black"/>
<path d="M285.732 279.613C288.675 274.183 284.425 266.005 285.349 263.947L284.936 263.834C284.417 265.468 283.709 267.036 282.827 268.507C282.827 268.507 287.397 276.046 279.819 286.096C282.314 284.168 284.591 281.716 285.732 279.613Z" fill="#161616"/>
<path d="M277.989 225.306C277.989 225.306 278.125 225.45 278.311 225.663C277.143 224.454 275.456 223.456 273.145 222.766C274.179 223.265 277.362 225.375 277.301 229.277C277.232 233.61 274.067 235.966 274.067 235.966C274.067 235.966 275.796 235.634 277.213 235.383C276.865 235.534 276.509 235.662 276.145 235.766C276.145 235.766 281.236 235.155 281.236 231.193C281.236 227.945 277.989 225.306 277.989 225.306ZM278.322 234.823C279.419 233.866 280.109 232.633 280.235 231.097C280.347 229.727 280.114 228.452 279.529 227.308C280.203 228.375 280.845 229.738 280.845 231.114C280.848 232.903 279.552 234.091 278.322 234.82V234.823Z" fill="#15152D"/>
<path d="M264.065 235.219C264.065 235.219 267.761 235.761 271.12 235.857C274.578 235.857 277.759 235.281 277.759 235.281C277.759 235.281 275.634 236.494 271.025 236.494C266.579 236.494 264.065 235.219 264.065 235.219Z" fill="#FCC646"/>
</g>
<path d="M340.158 203.742C338.551 200.977 338.918 197.765 340.977 196.567C343.036 195.369 346.007 196.639 347.614 199.404C349.221 202.168 348.855 205.38 346.796 206.578C344.737 207.776 341.765 206.506 340.158 203.742Z" fill="white"/>
<path d="M206.602 252.465C203.89 251.076 203.18 247.041 205.016 243.453C206.853 239.864 210.54 238.081 213.252 239.47C215.965 240.859 216.675 244.894 214.838 248.483C213.002 252.071 209.315 253.854 206.602 252.465Z" fill="white"/>
<path d="M199.273 315.184C196.955 317.161 192.954 316.279 190.337 313.213C187.72 310.147 187.478 306.058 189.797 304.081C192.115 302.103 196.116 302.985 198.733 306.051C201.35 309.117 201.592 313.206 199.273 315.184Z" fill="white"/>
<path d="M280.162 174.11C279.73 172.064 281.798 169.895 284.782 169.264C287.765 168.633 290.533 169.78 290.965 171.826C291.397 173.872 289.329 176.042 286.346 176.672C283.363 177.303 280.594 176.156 280.162 174.11Z" fill="#A4BBE0"/>
<path d="M401.95 332.482C401.95 332.482 401.134 334.434 399.539 337.739C397.943 341.045 395.597 345.711 392.51 351.119C390.984 353.83 389.189 356.681 387.327 359.696C385.386 362.666 383.295 365.758 381.022 368.861C379.921 370.441 378.676 371.95 377.479 373.522C376.221 375.043 374.95 376.581 373.666 378.136C371.043 381.184 368.297 384.212 365.326 386.999C362.457 389.892 359.374 392.552 356.272 395.086C354.677 396.295 353.097 397.492 351.531 398.678C349.909 399.779 348.355 400.952 346.734 401.958C343.504 403.994 340.315 405.865 337.2 407.505C335.619 408.28 334.083 409.033 332.593 409.764L328.182 411.685C326.777 412.351 325.354 412.758 324.039 413.285C322.709 413.765 321.472 414.326 320.256 414.669C317.834 415.376 315.744 416.177 313.972 416.629C310.436 417.571 308.394 418.176 308.394 418.176C308.394 418.176 310.493 418.132 314.207 417.937C316.063 417.839 318.291 417.495 320.866 417.151C323.421 416.72 326.317 416.172 329.41 415.319C330.956 414.872 332.563 414.407 334.232 413.924L339.271 412.044C340.992 411.365 342.703 410.539 344.49 409.759C346.276 408.979 347.971 407.931 349.769 406.999C353.278 404.985 356.833 402.756 360.225 400.183C363.568 397.556 366.901 394.798 369.987 391.779C373.073 388.76 375.92 385.515 378.619 382.256C381.306 378.982 383.675 375.55 385.859 372.181C388.1 368.844 389.916 365.407 391.635 362.169C393.313 358.905 394.754 355.756 395.945 352.788C397.915 348.047 399.531 343.167 400.781 338.188C401.673 334.583 401.95 332.482 401.95 332.482Z" fill="white"/>
<path d="M241.054 176.318C241.054 176.318 239.322 176.03 236.243 176C234.716 176.041 232.823 175.991 230.7 176.243L227.291 176.586L223.548 177.225C220.936 177.684 218.142 178.379 215.221 179.237C212.337 180.198 209.226 181.09 206.206 182.494C203.098 183.714 200.043 185.306 196.977 187C193.841 188.581 191.001 190.747 187.991 192.643C185.142 194.764 182.382 197.012 179.693 199.238C177.161 201.644 174.713 204.058 172.382 206.411C170.221 208.93 168.21 211.43 166.304 213.776C164.38 216.115 162.949 218.62 161.481 220.798C160.034 222.997 158.719 225.006 157.817 226.96C156.829 228.855 156.038 230.542 155.376 231.918C154.061 234.675 153.394 236.279 153.394 236.279C153.394 236.279 154.62 235.003 156.618 232.718C157.612 231.573 158.831 230.199 160.15 228.582C161.426 226.932 163.138 225.285 164.86 223.399L167.578 220.49C168.522 219.494 169.39 218.376 170.489 217.411C172.597 215.401 174.821 213.304 177.038 211.07C179.441 209.028 181.914 206.92 184.367 204.725C187.006 202.759 189.608 200.657 192.302 198.691L196.444 195.894C197.813 194.951 199.17 193.999 200.611 193.211C202.02 192.365 203.417 191.526 204.8 190.696C206.181 189.861 207.633 189.206 209.003 188.439C211.747 186.904 214.519 185.674 217.132 184.424C218.435 183.788 219.773 183.362 221.019 182.8C222.275 182.265 223.485 181.717 224.686 181.318C227.069 180.447 229.264 179.631 231.25 179.023C233.226 178.361 234.982 177.898 236.43 177.464C237.888 177.109 239.037 176.757 239.83 176.604L241.054 176.318Z" fill="white"/>
<defs>
<clipPath id="clip0_3_122">
<rect width="110.797" height="177.086" fill="white" transform="translate(215.122 222.022)"/>
</clipPath>
</defs>
</svg>
