<svg xmlns="http://www.w3.org/2000/svg" width="436.891" height="436.891" viewBox="0 0 436.891 436.891"><g transform="translate(-184.109 -884.109)"><g transform="translate(-432.26 798.055)"><circle cx="152.003" cy="152.003" r="152.003" transform="translate(682.811 152.497)" fill="#d5d7db" opacity="0.204"/><circle cx="218.445" cy="218.445" r="218.445" transform="translate(616.369 86.055)" fill="#d5d7db" opacity="0.152"/></g><g transform="translate(-689.438 646.543)"><g transform="translate(988.81 316.973)"><rect width="116.842" height="199.157" transform="translate(6.625 21.195)" fill="rgba(213,215,219,0.45)"/><rect width="58.422" height="199.157" transform="translate(65.045 21.195)" fill="rgba(120,126,140,0.19)"/><rect width="16.203" height="20.967" transform="translate(16.514 46.005)" fill="#2b697e"/><rect width="16.202" height="20.967" transform="translate(40.638 46.005)" fill="#2b697e"/><rect width="16.204" height="20.967" transform="translate(74.093 46.005)" fill="#255e6d"/><rect width="16.202" height="20.967" transform="translate(98.218 46.005)" fill="#255e6d"/><rect width="16.203" height="20.968" transform="translate(16.514 78.762)" fill="#2b697e"/><rect width="16.202" height="20.968" transform="translate(40.638 78.762)" fill="#2b697e"/><rect width="16.204" height="20.968" transform="translate(74.093 78.762)" fill="#255e6d"/><rect width="16.202" height="20.968" transform="translate(98.218 78.762)" fill="#255e6d"/><rect width="16.203" height="20.968" transform="translate(16.514 111.521)" fill="#2b697e"/><rect width="16.202" height="20.968" transform="translate(40.638 111.521)" fill="#2b697e"/><rect width="16.204" height="20.968" transform="translate(74.093 111.521)" fill="#255e6d"/><rect width="16.202" height="20.968" transform="translate(98.218 111.521)" fill="#255e6d"/><rect width="16.203" height="20.966" transform="translate(16.514 144.28)" fill="#2b697e"/><rect width="16.202" height="20.966" transform="translate(40.638 144.28)" fill="#2b697e"/><rect width="16.204" height="20.966" transform="translate(74.093 144.28)" fill="#255e6d"/><rect width="16.202" height="20.966" transform="translate(98.218 144.28)" fill="#255e6d"/><rect width="16.203" height="20.967" transform="translate(16.514 177.037)" fill="#2b697e"/><rect width="16.202" height="20.967" transform="translate(40.638 177.037)" fill="#2b697e"/><rect width="16.204" height="20.967" transform="translate(74.093 177.037)" fill="#255e6d"/><rect width="16.202" height="20.967" transform="translate(98.218 177.037)" fill="#255e6d"/><rect width="130.094" height="38.739" fill="#2b697e"/><rect width="65.048" height="38.739" transform="translate(65.045)" fill="#255e6d"/><g transform="translate(26.114 6.42)"><path d="M994.7,348.389h-5.121V321.753H994.7v11.418h5.819V321.753h5.218v26.636h-5.218V336.977H994.7Z" transform="translate(-989.583 -321.449)" fill="#fff"/><path d="M1003.43,328.233c0-4.262,2.744-6.7,7.775-6.7s7.776,2.435,7.776,6.7v13.854c0,4.26-2.75,6.694-7.776,6.694s-7.775-2.433-7.775-6.694Zm5.123,14.118a2.654,2.654,0,0,0,5.307,0V327.968a2.654,2.654,0,0,0-5.307,0Z" transform="translate(-983.954 -321.537)" fill="#fff"/><path d="M1015.784,321.753h15.833v3.8h-5.353v22.832h-5.121V325.558h-5.359Z" transform="translate(-978.932 -321.449)" fill="#fff"/><path d="M1033.757,332.978h7.032v3.806h-7.032v7.8h8.848v3.8h-13.971V321.753h13.971v3.8h-8.848Z" transform="translate(-973.708 -321.449)" fill="#fff"/><path d="M1040.824,321.753h5.121v22.832h8.431v3.8h-13.552Z" transform="translate(-968.753 -321.449)" fill="#fff"/></g></g><g transform="translate(1135.093 476.493)"><path d="M5.892,0H72.056a5.89,5.89,0,0,1,5.89,5.89V84.83a5.889,5.889,0,0,1-5.889,5.889H5.889A5.889,5.889,0,0,1,0,84.83V5.892A5.892,5.892,0,0,1,5.892,0Z" transform="translate(0 15.851)" fill="#ff9e45"/><path d="M1188.131,382.073h-33.408v90.719h33.408a5.567,5.567,0,0,0,5.566-5.569V387.639A5.566,5.566,0,0,0,1188.131,382.073Z" transform="translate(-1115.751 -366.223)" fill="#ed7626"/><path d="M1138.759,381.154v-7.548a3.776,3.776,0,0,1,3.773-3.772h22.14a3.774,3.774,0,0,1,3.771,3.772v7.548h4.529v-7.548a8.311,8.311,0,0,0-8.3-8.3h-22.14a8.311,8.311,0,0,0-8.3,8.3v7.548Z" transform="translate(-1114.628 -365.304)" fill="#9cb033"/><rect width="3.567" height="90.719" transform="translate(8.483 15.851)" fill="#f38331"/><rect width="3.567" height="90.719" transform="translate(66.108 15.851)" fill="#f38331"/><rect width="8.377" height="4.241" transform="translate(14.278 106.569)" fill="#ff9e45"/><rect width="8.376" height="4.241" transform="translate(54.155 106.569)" fill="#ed7626"/></g><g transform="translate(1193.436 524.257)"><path d="M5.216,0H63.787A5.214,5.214,0,0,1,69,5.214V41.2a5.212,5.212,0,0,1-5.212,5.212H5.214A5.214,5.214,0,0,1,0,41.2V5.216A5.216,5.216,0,0,1,5.216,0Z" transform="translate(0 14.032)" fill="#9cb033"/><path d="M1241.289,430.682h-29.574V477.1h29.574a4.928,4.928,0,0,0,4.928-4.93V435.608A4.927,4.927,0,0,0,1241.289,430.682Z" transform="translate(-1177.216 -416.649)" fill="#86972d"/><path d="M1197.583,429.869v-6.682a3.343,3.343,0,0,1,3.34-3.34h19.6a3.341,3.341,0,0,1,3.339,3.34v6.682h4.009v-6.682a7.359,7.359,0,0,0-7.348-7.351h-19.6a7.358,7.358,0,0,0-7.347,7.351v6.682Z" transform="translate(-1176.222 -415.836)" fill="#103754"/><rect width="3.162" height="46.416" transform="translate(7.507 14.032)" fill="#f38331"/><rect width="3.158" height="46.416" transform="translate(58.522 14.032)" fill="#f38331"/><rect width="5.829" height="2.597" transform="translate(6.173 60.449)" fill="#9cb033"/><rect width="5.829" height="2.597" transform="translate(57.328 60.449)" fill="#86972d"/></g><g transform="translate(963.623 454.451)"><rect width="53.399" height="100.085" rx="3.13" fill="#174f78"/><path d="M994.389,414.717h-22.3V514.8h22.3a4.4,4.4,0,0,0,4.4-4.4v-91.28A4.4,4.4,0,0,0,994.389,414.717Z" transform="translate(-945.392 -414.717)" fill="#103754"/><rect width="46.797" height="73.846" transform="translate(3.302 10.778)" fill="#f1f2f2"/><g transform="translate(3.302 10.778)"><rect width="46.797" height="73.846" transform="translate(0)" fill="#ffe18f"/><g transform="translate(0 0)"><path d="M997.447,440.131a17.469,17.469,0,0,0-6.741-3.653c-8.429-2.592-18.131-5.34-20.391-14.1h-3.037c1.792,8.182,9.063,12.8,17.245,15.429,1.214.391,2.471.72,3.713,1.072a1.229,1.229,0,0,0-.577.906c-1.1,6.7-3.91,12.917-5.606,19.46a1.485,1.485,0,0,0,2.862.789c1.7-6.543,4.512-12.763,5.606-19.46a1.516,1.516,0,0,0-.2-1.055c2.8.944,5.352,2.28,6.944,5.09.065.115.12.235.18.35Z" transform="translate(-950.65 -422.38)" fill="#ffc929"/><path d="M964.383,422.38c-.3,7.006-4.608,13.148-8.927,18.625v4.73c1.7-2.128,3.485-4.342,5.139-6.658,3.056,3.163,6.66,5.872,8.85,9.746,1.367,2.419,1.608,5.543,1.917,8.251.323,2.824.443,5.671.526,8.511.142,4.86-.08,9.763-.235,14.664-5.357-.1-10.4,1.674-15.422,3.359a1.477,1.477,0,0,0-.775.579v1.738a1.264,1.264,0,0,0,1.565.544c4.748-1.591,9.494-3.317,14.553-3.252a103.338,103.338,0,0,0,.384,13.009h2.954a116.684,116.684,0,0,1-.107-16.476q.146-4.177.138-8.366c6.7,4.94,14.549,8.065,21.5,12.626,1.606,1.054,3.091-1.516,1.5-2.563-7.388-4.845-15.927-7.975-22.788-13.621a1.7,1.7,0,0,0-.256-.172c-.036-1.834-.087-3.668-.176-5.5-.245-5.121-.491-10.891-3.065-15.446-2.27-4.016-6.222-6.817-9.357-10.144,2.785-4.342,4.885-9.04,5.051-14.186Z" transform="translate(-955.456 -422.38)" fill="#ffc929"/></g><path d="M993.5,439.808l-6.448-2.615L977,467.7l16.5,8.017Z" transform="translate(-946.698 -416.358)" fill="#3a9341"/><g transform="translate(14.594 28.16)"><path d="M978.71,442.4h0a12.872,12.872,0,0,0-11.148,19.318l11.148,19.32,11.149-19.32A12.875,12.875,0,0,0,978.71,442.4Zm0,16.1h0a3.218,3.218,0,1,1,0-6.436h0a3.218,3.218,0,1,1,0,6.436Z" transform="translate(-965.832 -442.401)" fill="#ef4136"/><path d="M975.027,442.4c-.046,0-.091,0-.136,0v9.664c.045,0,.09-.006.136-.006a3.218,3.218,0,1,1,0,6.436c-.046,0-.091-.006-.136-.007V480.8l.136.236,11.149-19.32A12.875,12.875,0,0,0,975.027,442.4Z" transform="translate(-962.149 -442.401)" fill="#be1e2d"/></g></g><path d="M967.7,420.191a1.376,1.376,0,1,1,0-2.751h13.483a1.376,1.376,0,0,1,0,2.751Z" transform="translate(-947.738 -413.61)" fill="#fff"/><path d="M1.564,0H8.341A1.565,1.565,0,0,1,9.906,1.565V8.34A1.564,1.564,0,0,1,8.342,9.9H1.565A1.565,1.565,0,0,1,0,8.338V1.564A1.564,1.564,0,0,1,1.564,0Z" transform="translate(21.747 87.159)" fill="#bbbdbf"/><path d="M970.517,477.31a1.323,1.323,0,0,0-1.321,1.321v5.5a1.324,1.324,0,0,0,1.321,1.322h5.5a1.324,1.324,0,0,0,1.322-1.322v-5.5a1.323,1.323,0,0,0-1.322-1.321Zm0,0a1.323,1.323,0,0,0-1.321,1.321v5.5a1.324,1.324,0,0,0,1.321,1.322h5.5a1.324,1.324,0,0,0,1.322-1.322v-5.5a1.323,1.323,0,0,0-1.322-1.321Z" transform="translate(-946.569 -389.272)" fill="#174f78"/><path d="M974.843,477.31h-2.751v8.146h2.751a1.324,1.324,0,0,0,1.322-1.322v-5.5A1.323,1.323,0,0,0,974.843,477.31Z" transform="translate(-945.392 -389.272)" fill="#103754"/></g><g transform="translate(927.244 487.509)"><path d="M970.848,460.022a21.8,21.8,0,1,0-21.8,21.8A21.8,21.8,0,0,0,970.848,460.022Z" transform="translate(-927.244 -438.221)" fill="#2ab54b"/><path d="M944.7,493.462l.148-23.455-10.475-12.389h0l10.326,8.555,1.574-9.734,1.967,10.472,11.5-8.31-11.5,11.407-.148,23.455Z" transform="translate(-924.346 -430.815)" fill="#5f4325"/></g><g transform="translate(1097.102 481.809)"><path d="M1091.614,455.969a21.8,21.8,0,1,0-21.8,21.8A21.8,21.8,0,0,0,1091.614,455.969Z" transform="translate(-1048.01 -434.168)" fill="#2ab54b"/><path d="M1065.465,489.41l.148-23.455-10.475-12.389h0l10.326,8.554,1.574-9.734,1.967,10.472,11.5-8.31-11.5,11.407-.148,23.455Z" transform="translate(-1045.112 -426.762)" fill="#5f4325"/></g><g transform="translate(1037.645 520.624)"><path d="M1048.03,485.743c.024-.411.062-.82.062-1.236a20.7,20.7,0,0,0-41.395,0c0,.416.038.826.062,1.236Z" transform="translate(-1005.346 -460.934)" fill="#fcd21b"/><path d="M1042.048,485.743c.024-.411.062-.82.062-1.236a20.7,20.7,0,0,0-20.7-20.7v21.933Z" transform="translate(-999.364 -460.934)" fill="#f6c016"/><rect width="1.853" height="2.47" transform="translate(21.122 1.13)" fill="#fcd21b"/><rect width="0.926" height="2.47" transform="translate(22.048 1.13)" fill="#f6c016"/><path d="M1024.284,462.894c0-.625-.994-1.129-2.228-1.129s-2.228.5-2.228,1.129,1,1.129,2.228,1.129S1024.284,463.519,1024.284,462.894Z" transform="translate(-1000.008 -461.765)" fill="#f6c016"/><path d="M1048.421,479.4h-41.334l-1.35,4.209h44.1Z" transform="translate(-1005.736 -454.594)" fill="#f6c016"/><path d="M1021.412,483.613h22.048l-1.412-4.209h-20.636Z" transform="translate(-999.364 -454.594)" fill="#dda812"/></g><g transform="translate(1088.461 542.535)"><path d="M1074.5,474.954h-9.39a.888.888,0,0,0-.954.8v2.933a.887.887,0,0,0,.954.8h9.39a.887.887,0,0,0,.957-.8v-2.933a.888.888,0,0,0-.957-.8" transform="translate(-1064.158 -437.352)" fill="#58595b"/><path d="M1143.369,470.722a11.675,11.675,0,1,0,11.673,11.676,11.69,11.69,0,0,0-11.673-11.676" transform="translate(-1067.858 -437.12)" fill="#103754"/><path d="M1143.773,487.514a4.713,4.713,0,1,1,4.713-4.712,4.718,4.718,0,0,1-4.713,4.712" transform="translate(-1068.261 -437.524)" fill="#fff"/><path d="M1092.212,470.723a11.675,11.675,0,1,0,11.675,11.675,11.689,11.689,0,0,0-11.675-11.675" transform="translate(-1065.055 -437.12)" fill="#103754"/><path d="M1092.616,487.514a4.713,4.713,0,1,1,4.712-4.712,4.719,4.719,0,0,1-4.712,4.712" transform="translate(-1065.459 -437.524)" fill="#fff"/><path d="M1177.09,465.593a3.076,3.076,0,0,0,0,6.132,2.618,2.618,0,0,0,1.155-.271,30.074,30.074,0,0,0-.533-5.78,2.647,2.647,0,0,0-.622-.08" transform="translate(-1070.189 -436.839)" fill="#d3e4e3"/><path d="M1168.4,466.994a2.955,2.955,0,0,1,2.83-3.067,2.643,2.643,0,0,1,.622.08,8.708,8.708,0,0,0-.755-2.217c-2.4-4.458-26.938-6.949-26.938-6.949s-13.6-16.7-15.732-17.929-8.963-1.739-16.006-1.739-16.59.478-18.2,2.091-13.165,12.8-15.644,18.08c-.36.763-5.651.478-8.2.478s-3.027,23.44-3.027,23.44a.953.953,0,0,0,.9,1.286h9.325c0-.033-.007-.065-.007-.1a13.92,13.92,0,0,1,27.84,0c0,.032,0,.064,0,.1h20.524c0-.033-.007-.065-.007-.1a13.92,13.92,0,0,1,27.84,0c0,.032,0,.064,0,.1h17.109a.954.954,0,0,0,.955-.953,83.4,83.4,0,0,0,.564-9.809,2.62,2.62,0,0,1-1.155.271,2.953,2.953,0,0,1-2.83-3.064" transform="translate(-1064.33 -435.173)" fill="#f1c30f"/><path d="M1110.973,455.393a.478.478,0,0,1-.478.476h-25.567a.477.477,0,0,1-.436-.285.471.471,0,0,1,.084-.514l12.67-15.241a.477.477,0,0,1,.352-.157l12.953-.018a.478.478,0,0,1,.478.476Z" transform="translate(-1065.27 -435.419)" fill="#d3e4e3"/><path d="M1141.345,455.6a.475.475,0,0,1-.428.268h-24.594a.479.479,0,0,1-.479-.476l-.177-15.2a.476.476,0,0,1,.476-.477l13.484.116a.482.482,0,0,1,.374.18l11.29,15.087a.48.48,0,0,1,.053.507" transform="translate(-1066.98 -435.422)" fill="#d3e4e3"/><path d="M1176.126,483.652H1158.7a22.975,22.975,0,0,0-.308-3.9h18.653s-.038,3.9-.921,3.9" transform="translate(-1069.32 -437.615)" fill="#d3e4e3"/></g></g></g></svg>