<svg xmlns="http://www.w3.org/2000/svg" width="89.348" height="76.657" viewBox="0 0 89.348 76.657"><g transform="translate(0 0)"><path d="M303.921,307.816v6.98a13.961,13.961,0,1,1-27.921,0v-6.98Zm0,0" transform="translate(-232.836 -252.1)" fill="#ffffff"/><path d="M138.823,44.465H76c2.273-5.174,7.991-28.88,18.037-33.759,4.075-1.977,7.149.211,8.151,2.367a5.71,5.71,0,0,0,2.215,2.5,5.831,5.831,0,0,0,6.016,0,5.71,5.71,0,0,0,2.215-2.5c1.117-2.4,4.31-4.243,8.417-2.031C131.115,16.466,136.563,39.3,138.823,44.465Zm0,0" transform="translate(-67.737 -6.199)" fill="#ffffff"/><path d="M103.921,314.8A13.961,13.961,0,0,1,76,314.8v-6.98h27.921Zm0,0" transform="translate(-67.737 -252.1)" fill="#ffffff"/><path d="M247.745,137.816a1.745,1.745,0,1,0,1.745,1.745A1.745,1.745,0,0,0,247.745,137.816Zm0,0" transform="translate(-203.071 -113.766)" fill="#87AB49"/><path d="M84.113,34.52h-6.79C73.743,24.3,68.55,6.378,59.141,1.305,54.436-1.228,49.988.541,48.315,4.136a4.009,4.009,0,0,1-7.282,0c-1.614-3.472-5.955-5.4-10.5-3.2-9.559,4.642-14.9,23.285-18.512,33.583H5.235a5.235,5.235,0,1,0,0,10.47H84.113a5.235,5.235,0,1,0,0-10.47ZM18.156,27.54H37.694a1.745,1.745,0,1,0,0-3.49H19.376C24.636,9.519,29.55,5.3,32.062,4.077c2.74-1.329,4.995-.217,5.807,1.532a7.5,7.5,0,0,0,13.61,0c.836-1.8,3.1-2.795,6.006-1.232C60.008,5.738,64.907,10.1,69.972,24.05H51.654a1.745,1.745,0,0,0,0,3.49H71.193c.882,2.544,1.8,5.169,2.432,6.98h-57.9C16.355,32.714,17.269,30.1,18.156,27.54ZM84.113,41.5H5.235a1.745,1.745,0,1,1,0-3.49H84.113a1.745,1.745,0,0,1,0,3.49Zm0,0" transform="translate(0 0)" fill="#87AB49"/><path d="M95.666,297.813H67.745A1.745,1.745,0,0,0,66,299.558v6.98a15.707,15.707,0,0,0,30.386,5.589,6.7,6.7,0,0,1,5.542,0,15.707,15.707,0,0,0,30.385-5.59v-6.98a1.745,1.745,0,0,0-1.745-1.745H102.647a1.745,1.745,0,0,0-1.745,1.745V301.3h-3.49v-1.745A1.745,1.745,0,0,0,95.666,297.813ZM81.706,318.754A12.229,12.229,0,0,1,69.49,306.539V301.3H93.921v5.235A12.2,12.2,0,0,1,81.706,318.754ZM104.392,301.3h24.431v5.235a12.216,12.216,0,0,1-24.431,0Zm-3.49,3.49v1.745a15.932,15.932,0,0,0,.09,1.665,10.217,10.217,0,0,0-3.67,0,15.93,15.93,0,0,0,.09-1.665v-1.745Zm0,0" transform="translate(-54.482 -245.842)" fill="#87AB49"/><path d="M114.725,344.8a5.241,5.241,0,0,1-5.235-5.235,1.745,1.745,0,1,0-3.49,0,8.736,8.736,0,0,0,8.725,8.725,1.745,1.745,0,0,0,0-3.49Zm0,0" transform="translate(-87.502 -278.865)" fill="#87AB49"/><path d="M347.745,348.287a8.736,8.736,0,0,0,8.725-8.725,1.745,1.745,0,0,0-3.49,0,5.241,5.241,0,0,1-5.235,5.235,1.745,1.745,0,1,0,0,3.49Zm0,0" transform="translate(-285.62 -278.865)" fill="#87AB49"/></g></svg>
