<svg xmlns="http://www.w3.org/2000/svg" width="76.211" height="61.619" viewBox="0 0 76.211 61.619"><g transform="translate(305.703 -153.261)"><path d="M33.845,0A33.845,33.845,0,0,1,67.69,33.845c.1.357-67.321.448-67.69,0A33.845,33.845,0,0,1,33.845,0Z" transform="translate(-301.751 180.732)" fill="#ffffff"/><g transform="translate(-305.703 153.261)"><g transform="translate(0 0)"><path d="M80.57,86.168,79.7,82.922a48.646,48.646,0,0,0-5.548,1.849l1.252,3.118A45.4,45.4,0,0,1,80.57,86.168Z" transform="translate(-55.316 -69.289)" fill="#87AB49"/><path d="M40.434,102.992l-1.617-2.946a48.987,48.987,0,0,0-4.949,3.118l1.959,2.73A45.708,45.708,0,0,1,40.434,102.992Z" transform="translate(-25.264 -82.063)" fill="#87AB49"/><path d="M0,131.059l2.554,2.183a45.211,45.211,0,0,1,3.782-3.918l-2.272-2.475A48.469,48.469,0,0,0,0,131.059Z" transform="translate(0 -102.057)" fill="#87AB49"/><path d="M278.2,138.1l-2.474,2.273a45.589,45.589,0,0,1,3.437,4.225l2.73-1.959A48.762,48.762,0,0,0,278.2,138.1Z" transform="translate(-205.681 -110.449)" fill="#87AB49"/><path d="M243.18,111.03a45.2,45.2,0,0,1,4.348,3.279l2.182-2.555a48.248,48.248,0,0,0-4.674-3.524Z" transform="translate(-181.403 -88.168)" fill="#87AB49"/><path d="M211.42,89.952a48.576,48.576,0,0,0-5.382-2.294l-1.128,3.165a45.019,45.019,0,0,1,5.008,2.134Z" transform="translate(-152.855 -72.822)" fill="#87AB49"/><path d="M105.926,48.652h2.284l1.9-2.887,3.665.025-2.308,7.956v.188a1.825,1.825,0,0,0,1.822,1.823H116.6l5.254-9.743,4.061.134a3.75,3.75,0,0,0,3.812-3.675,3.581,3.581,0,0,0-1.142-2.625,3.89,3.89,0,0,0-2.709-1.05h0l-4.052.135L116.6,29.259h-3.316a1.826,1.826,0,0,0-1.818,1.823v.187l2.289,7.893-3.681.032-1.87-2.83h-2.282a1.7,1.7,0,0,0-1.7,1.7v8.89A1.7,1.7,0,0,0,105.926,48.652Zm.943-9.518h0l1.8,2.716,8.606-.074L114.408,31.9h.618l5.248,9.731,5.646-.189a1.233,1.233,0,0,1,.852.328.964.964,0,0,1,.315.7,1.1,1.1,0,0,1-1.124,1.033l-5.654-.187-5.283,9.8h-.618l2.883-9.942-8.594-.06-1.827,2.768V39.134Z" transform="translate(-77.75 -29.258)" fill="#87AB49"/><path d="M63.736,154.4a30.123,30.123,0,0,0-6.683-.755A29.982,29.982,0,0,0,27.1,183.392h3.36a26.745,26.745,0,0,1,.345-4.018,15.234,15.234,0,0,1,4.461,1.772c-.029.217-.063.436-.1.657-.076.49-.157,1.032-.191,1.589h3.371c.035-.381.1-.782.14-1.077.062-.4.124-.808.162-1.2.209-2.11-2.184-3.8-7.1-5.02a26.434,26.434,0,0,1,19.093-18.318,10.38,10.38,0,0,0-1.071,3.676c-.082.742-.188,1.411-.282,2-.376,2.378-.765,4.837,2.45,6.268a12.013,12.013,0,0,0,4.078,1.044,9.345,9.345,0,0,1,1.389.216,9.965,9.965,0,0,1,.048,2.413,4.936,4.936,0,0,0,.122,1.932,17.522,17.522,0,0,0,3.888,8.062h5.057a13.462,13.462,0,0,1-5.667-8.837L60.59,174c.007-.131.015-.274.023-.4.108-1.749.31-5.006-2.183-5.767a11.352,11.352,0,0,0-2.255-.409,8.676,8.676,0,0,1-3.061-.771c-.862-.384-.862-.384-.5-2.674.1-.627.212-1.338.3-2.158a8.068,8.068,0,0,1,2.112-4.74c.669-.05,1.344-.08,2.025-.08a26.775,26.775,0,0,1,5.938.671,26.634,26.634,0,0,1,20.7,25.145c-.279.183-.627.376-1,.571h4.363A29.965,29.965,0,0,0,63.736,154.4Z" transform="translate(-20.219 -122.046)" fill="#87AB49"/></g></g></g></svg>
