<svg xmlns="http://www.w3.org/2000/svg" width="72" height="62.478" viewBox="0 0 72 62.478"><g transform="translate(-23.406 -29.047)"><rect width="60" height="56" rx="6" transform="translate(23.406 29.048)" fill="#ffffff"/><g transform="translate(31.406 32.636)"><g transform="translate(24.307 4.492)"><path d="M221.6,56.377H195.7a1.248,1.248,0,0,0,0,2.5h25.9a1.248,1.248,0,1,0,0-2.5Z" transform="translate(-194.457 -56.377)" fill="#87AB49"/></g><g transform="translate(10.775 4.492)"><path d="M88.326,56.743a1.247,1.247,0,1,0,.366.882A1.257,1.257,0,0,0,88.326,56.743Z" transform="translate(-86.196 -56.378)" fill="#87AB49"/></g><g transform="translate(6.189 4.492)"><path d="M51.645,56.743a1.247,1.247,0,1,0,.366.882A1.257,1.257,0,0,0,51.645,56.743Z" transform="translate(-49.515 -56.378)" fill="#87AB49"/></g><g transform="translate(15.358 4.492)"><path d="M125,56.743a1.25,1.25,0,1,0,.364.882A1.259,1.259,0,0,0,125,56.743Z" transform="translate(-122.867 -56.378)" fill="#87AB49"/></g><g transform="translate(0 0)"><path d="M63.635,72.41l-9.822-9.822,1.541-1.541h0L56.9,59.5l4.852,4.852a1.248,1.248,0,0,0,1.765-1.765l-5.734-5.734a1.248,1.248,0,0,0-1.765,0L54.473,58.4l-.747-.747A14.6,14.6,0,0,0,31.991,38.163l-.035,0H7.985a1.248,1.248,0,0,0-1.248,1.248V56.876a1.248,1.248,0,0,0,1.248,1.248H31.8a14.584,14.584,0,0,0,20.162,1.293l.747.747-1.542,1.542a1.248,1.248,0,0,0,0,1.765L56.394,68.7v5.4a2.748,2.748,0,0,1-2.745,2.745H5.24A2.748,2.748,0,0,1,2.5,74.094V31.923h53.9v5.624a1.248,1.248,0,1,0,2.5,0V25.685a5.246,5.246,0,0,0-5.24-5.24H5.24A5.246,5.246,0,0,0,0,25.685V74.094a5.246,5.246,0,0,0,5.24,5.24H53.649a5.246,5.246,0,0,0,5.24-5.24v-2.9l2.981,2.981a1.248,1.248,0,1,0,1.765-1.765ZM27.949,48.626l-1.572-3.037a1.248,1.248,0,0,0-2.216,1.147L27.09,52.4a1.241,1.241,0,0,0,1.631.557,14.54,14.54,0,0,0,1.229,2.676H9.233V40.657H30.074a14.522,14.522,0,0,0-2.13,7.589Q27.944,48.437,27.949,48.626ZM42.555,60.361A12.129,12.129,0,0,1,30.44,48.246c0-.1,0-.19,0-.285l2.3,4.434a1.247,1.247,0,0,0,1.108.674h.019a1.248,1.248,0,0,0,1.106-.707L37.689,46.7a1.248,1.248,0,1,0-2.25-1.08l-1.635,3.4-1.78-3.438a1.247,1.247,0,0,0-1.12-.673,12.116,12.116,0,1,1,11.65,15.446ZM2.5,25.685A2.748,2.748,0,0,1,5.24,22.94H53.649a2.748,2.748,0,0,1,2.745,2.745v3.743H2.5Z" transform="translate(0 -20.445)" fill="#87AB49"/></g><g transform="translate(9.726 24.469)"><path d="M90.891,216.321a1.248,1.248,0,0,0-1.665.585l-1.635,3.4-1.78-3.438a1.248,1.248,0,0,0-2.233.033l-1.635,3.4-1.78-3.438a1.248,1.248,0,0,0-2.216,1.147l2.93,5.659a1.248,1.248,0,0,0,2.233-.033l1.635-3.4,1.78,3.438a1.247,1.247,0,0,0,1.108.674h.019a1.248,1.248,0,0,0,1.106-.707l2.718-5.659A1.247,1.247,0,0,0,90.891,216.321Z" transform="translate(-77.808 -216.198)" fill="#87AB49"/></g><g transform="translate(38.316 24.469)"><path d="M319.612,216.322a1.248,1.248,0,0,0-1.665.585l-1.635,3.4-1.78-3.438a1.248,1.248,0,0,0-2.233.033l-1.635,3.4-1.78-3.438a1.248,1.248,0,1,0-2.216,1.147l2.93,5.659a1.248,1.248,0,0,0,1.108.674h.019a1.248,1.248,0,0,0,1.106-.707l1.635-3.4,1.78,3.438a1.248,1.248,0,0,0,1.108.674h.019a1.248,1.248,0,0,0,1.106-.707l2.718-5.659A1.248,1.248,0,0,0,319.612,216.322Z" transform="translate(-306.529 -216.199)" fill="#87AB49"/></g><g transform="translate(6.737 47.161)"><path d="M56.028,398.1a1.247,1.247,0,1,0,.366.882A1.251,1.251,0,0,0,56.028,398.1Z" transform="translate(-53.898 -397.732)" fill="#87AB49"/></g><g transform="translate(11.021 47.162)"><path d="M113.71,397.742h-24.3a1.248,1.248,0,0,0,0,2.5h24.3a1.248,1.248,0,0,0,0-2.5Z" transform="translate(-88.166 -397.742)" fill="#87AB49"/></g><g transform="translate(23.331 41.173)"><path d="M195.256,349.827h-7.361a1.248,1.248,0,0,0,0,2.5h7.361a1.248,1.248,0,1,0,0-2.5Z" transform="translate(-186.647 -349.827)" fill="#87AB49"/></g><g transform="translate(6.737 41.173)"><path d="M66.136,349.827H55.146a1.248,1.248,0,0,0,0,2.5H66.136a1.248,1.248,0,1,0,0-2.5Z" transform="translate(-53.898 -349.827)" fill="#87AB49"/></g></g></g></svg>
