<svg xmlns="http://www.w3.org/2000/svg" width="76.211" height="61.619" viewBox="0 0 76.211 61.619"><path d="M33.845,0A33.845,33.845,0,0,0,0,33.845c-.1.357,67.321.448,67.69,0A33.845,33.845,0,0,0,33.845,0Z" transform="translate(4.569 27.471)" fill="#ffffff"/><g transform="translate(0 0)"><g transform="translate(0 0)"><path d="M74.154,86.168l.868-3.246a48.644,48.644,0,0,1,5.548,1.849l-1.252,3.118A45.4,45.4,0,0,0,74.154,86.168Z" transform="translate(-23.197 -69.289)" fill="#87AB49"/><path d="M33.868,102.992l1.617-2.946a48.987,48.987,0,0,1,4.949,3.118l-1.959,2.73A45.708,45.708,0,0,0,33.868,102.992Z" transform="translate(27.173 -82.063)" fill="#87AB49"/><path d="M6.336,131.059l-2.554,2.183A45.212,45.212,0,0,0,0,129.324l2.272-2.475A48.469,48.469,0,0,1,6.336,131.059Z" transform="translate(69.875 -102.057)" fill="#87AB49"/><path d="M279.418,138.1l2.474,2.273a45.59,45.59,0,0,0-3.437,4.225l-2.73-1.959A48.763,48.763,0,0,1,279.418,138.1Z" transform="translate(-275.725 -110.448)" fill="#87AB49"/><path d="M249.71,111.03a45.2,45.2,0,0,0-4.348,3.279l-2.182-2.555a48.25,48.25,0,0,1,4.674-3.525Z" transform="translate(-235.275 -88.168)" fill="#87AB49"/><path d="M204.91,89.952a48.576,48.576,0,0,1,5.382-2.294l1.128,3.165a45.019,45.019,0,0,0-5.008,2.134Z" transform="translate(-187.264 -72.822)" fill="#87AB49"/><path d="M128.03,48.653h-2.284l-1.9-2.887-3.665.025,2.308,7.956v.188a1.825,1.825,0,0,1-1.822,1.823h-3.311L112.1,46.016l-4.061.134a3.75,3.75,0,0,1-3.812-3.675,3.581,3.581,0,0,1,1.142-2.625,3.89,3.89,0,0,1,2.709-1.05h0l4.052.135,5.218-9.677h3.316a1.826,1.826,0,0,1,1.818,1.823v.187L120.2,39.162l3.681.032,1.87-2.83h2.282a1.7,1.7,0,0,1,1.7,1.7v8.89A1.7,1.7,0,0,1,128.03,48.653Zm-.943-9.518h0l-1.8,2.716-8.606-.074,2.864-9.874h-.618l-5.248,9.731-5.646-.189a1.233,1.233,0,0,0-.852.328.964.964,0,0,0-.315.7,1.1,1.1,0,0,0,1.124,1.033l5.654-.187,5.283,9.8h.618l-2.883-9.943,8.594-.06,1.827,2.768V39.135Z" transform="translate(-79.996 -29.258)" fill="#87AB49"/><path d="M50.421,154.4a30.123,30.123,0,0,1,6.683-.756,29.982,29.982,0,0,1,29.949,29.747h-3.36a26.745,26.745,0,0,0-.345-4.018,15.234,15.234,0,0,0-4.461,1.772c.029.217.063.436.1.657.076.49.157,1.032.191,1.589H75.8c-.035-.381-.1-.782-.14-1.077-.062-.4-.124-.808-.162-1.2-.209-2.11,2.184-3.8,7.1-5.02a26.434,26.434,0,0,0-19.093-18.318,10.38,10.38,0,0,1,1.071,3.676c.082.742.188,1.411.282,2,.376,2.378.765,4.837-2.45,6.268a12.013,12.013,0,0,1-4.078,1.044,9.345,9.345,0,0,0-1.389.216A9.965,9.965,0,0,0,56.9,173.4a4.936,4.936,0,0,1-.122,1.932,17.522,17.522,0,0,1-3.888,8.062H47.831a13.463,13.463,0,0,0,5.667-8.837l.069-.553c-.007-.131-.015-.274-.023-.4-.108-1.749-.31-5.006,2.183-5.767a11.352,11.352,0,0,1,2.255-.409,8.675,8.675,0,0,0,3.061-.771c.862-.384.862-.384.5-2.675-.1-.627-.212-1.338-.3-2.158a8.068,8.068,0,0,0-2.112-4.74c-.669-.05-1.344-.08-2.025-.08a26.775,26.775,0,0,0-5.938.671,26.634,26.634,0,0,0-20.7,25.146c.279.183.627.376,1,.571H27.1A29.965,29.965,0,0,1,50.421,154.4Z" transform="translate(-17.728 -122.046)" fill="#87AB49"/></g></g></svg>
