<svg xmlns="http://www.w3.org/2000/svg" width="83.291" height="78.645" viewBox="0 0 83.291 78.645"><g transform="translate(-697.709 -3468.178)"><path d="M31.287,18.492A15.644,15.644,0,0,1,0,18.492C-.4,18.6,30.948,18.35,31.287,18.492Z" transform="translate(697.713 3495)" fill="#ffffff"/><path d="M31.287,18.492A15.644,15.644,0,0,1,0,18.492C-.4,18.6,30.948,18.35,31.287,18.492Z" transform="translate(749.713 3495)" fill="#ffffff"/><path d="M66.661,17.837H41.755V14.175a7.3,7.3,0,1,0-4.865,0v3.661H11.984L0,44.115v.528a13.548,13.548,0,1,0,27.1,0v-.528L17.33,22.7H36.89V64.051H25.176L20.311,78.645H58.333L53.469,64.051H41.755V22.7h19.56L51.549,44.115v.528a13.548,13.548,0,1,0,27.1,0v-.528ZM39.322,4.865A2.432,2.432,0,1,1,36.89,7.3,2.435,2.435,0,0,1,39.322,4.865ZM13.548,53.326a8.7,8.7,0,0,1-8.334-6.251H21.882A8.7,8.7,0,0,1,13.548,53.326Zm7.333-11.115H6.215l7.333-16.08Zm30.7,31.569H27.061l1.622-4.865h21.28ZM65.1,26.131l7.333,16.08H57.764Zm0,27.2a8.7,8.7,0,0,1-8.334-6.251H73.431A8.7,8.7,0,0,1,65.1,53.326Z" transform="translate(702.178 3468.178)" fill="#87AB49"/></g></svg>
