<svg xmlns="http://www.w3.org/2000/svg" xmlns:xlink="http://www.w3.org/1999/xlink" width="581" height="581" viewBox="0 0 581 581"><defs><linearGradient id="a" x1="-1.372" y1="0.924" x2="0.972" y2="0.219" gradientUnits="objectBoundingBox"><stop offset="0" stop-color="#fff"/><stop offset="1" stop-color="#fff" stop-opacity="0"/></linearGradient></defs><g transform="translate(-683 -147)"><circle cx="210.145" cy="210.145" r="210.145" transform="translate(763.355 227.355)" opacity="0.184" fill="url(#a)"/><circle cx="290.5" cy="290.5" r="290.5" transform="translate(683 147)" opacity="0.184" fill="url(#a)"/><g transform="translate(704.945 186.184)"><g transform="translate(39.054 179.31)"><g transform="translate(114.241)"><path d="M182.133,321.823l-37.474,43.916a14.2,14.2,0,0,0,1.194,19.679h0a14.194,14.194,0,0,0,15.778,2.336c19.087-9.212,62.915-30.566,62.041-32.02-.662-1.1-10.506-18.1-18.441-31.811A14.2,14.2,0,0,0,182.133,321.823Z" transform="translate(-141.259 -148.306)" fill="#ececec"/><path d="M249.275,361.515l-85.332,27.839a14.888,14.888,0,0,1-18.772-9.537h0a14.888,14.888,0,0,1,9.537-18.772l85.332-27.838a14.888,14.888,0,0,1,18.772,9.536h0A14.888,14.888,0,0,1,249.275,361.515Z" transform="translate(-140.885 -146.465)" fill="#fbc39d"/><path d="M321.3,321.823l37.474,43.916a14.2,14.2,0,0,1-1.194,19.679h0a14.193,14.193,0,0,1-15.778,2.336c-19.087-9.212-62.915-30.566-62.041-32.02.662-1.1,10.506-18.1,18.441-31.811A14.2,14.2,0,0,1,321.3,321.823Z" transform="translate(-124.949 -148.306)" fill="#ececec"/><path d="M257.6,361.515l85.332,27.839a14.888,14.888,0,0,0,18.772-9.537h0a14.888,14.888,0,0,0-9.537-18.772l-85.332-27.838a14.888,14.888,0,0,0-18.772,9.536h0A14.889,14.889,0,0,0,257.6,361.515Z" transform="translate(-128.767 -146.465)" fill="#fbc39d"/><path d="M310.128,333.806l-108.6-2.212V317.63c0-22.8,23.187-44.066,45.986-44.066h17.12c20.253,0,45.49,21.415,45.49,41.668Z" transform="translate(-134.16 -153.402)" fill="#ececec"/><g transform="translate(72.076)"><path d="M259.255,250.564H243.3a5.837,5.837,0,0,0-5.837,5.837V281.42a13.815,13.815,0,1,0,27.63,0V256.4A5.837,5.837,0,0,0,259.255,250.564Z" transform="translate(-202.005 -156.111)" fill="#fbc39d"/><path d="M237.461,273.564s1.118,8.136,13.816,8.136,13.816-8.136,13.816-8.136Z" transform="translate(-202.005 -153.402)" fill="#f9ac7f"/><path d="M216.077,215.006a10.753,10.753,0,1,0,10.335,10.745A10.547,10.547,0,0,0,216.077,215.006Z" transform="translate(-205.741 -160.298)" fill="#f9ac7f"/><path d="M285.863,215.006A10.753,10.753,0,1,0,296.2,225.751,10.546,10.546,0,0,0,285.863,215.006Z" transform="translate(-197.522 -160.298)" fill="#f9ac7f"/><path d="M250.747,287.257l-.067.07c1.071.092,2.151.151,3.244.151h0a37.585,37.585,0,0,0,9.529-1.226c.013-.028.025-.057.037-.085,16.878-4.433,29.369-20.321,29.369-39.245V199.493c0-22.356-17.432-18.8-38.935-18.8h0c-21.5,0-38.935-3.561-38.935,18.8v47.429C214.988,268.166,230.731,285.575,250.747,287.257Z" transform="translate(-204.652 -164.363)" fill="#fbc39d"/><path d="M285.005,226.737v12.8H271.2s-3.424-9.238-17.275-9.238-17.276,9.238-17.276,9.238H222.841v-12.8c0-5.046-4.73-6.709-7.853-7.258v22.852c0,21.243,15.743,38.652,35.76,40.335l-.069.07c1.072.092,2.151.151,3.245.151s2.174-.059,3.244-.151l-.067-.07c20.016-1.682,35.759-19.091,35.759-40.335V219.479C289.735,220.028,285.005,221.691,285.005,226.737Z" transform="translate(-204.652 -159.772)" fill="#1d1d1b"/><g transform="translate(59.125 45.668)"><path d="M266.471,215.3a2.733,2.733,0,1,1-2.731-2.837A2.785,2.785,0,0,1,266.471,215.3Z" transform="translate(-258.357 -206.265)"/><rect width="11.592" height="4.552" rx="0.925"/></g><path d="M237.045,243.386H264s-2.379,9.2-13.477,9.2S237.045,243.386,237.045,243.386Z" transform="translate(-202.054 -156.956)" fill="#e6e6e6"/><g transform="translate(10.336 75.118)"><path d="M257.1,273.6l.067.07c-1.07.092-2.151.151-3.244.151s-2.173-.059-3.245-.151l.069-.07c-20.017-1.682-35.76-19.091-35.76-40.335v7.441c0,21.243,15.743,38.652,35.76,40.335l-.069.07c1.072.092,2.151.151,3.245.151s2.174-.059,3.244-.151l-.067-.07c20.016-1.682,35.759-19.091,35.759-40.335v-7.441C292.859,254.509,277.116,271.918,257.1,273.6Z" transform="translate(-214.988 -233.266)" fill="#111110"/></g><g transform="translate(27.103 45.668)"><path d="M237.822,215.3a2.733,2.733,0,1,1-2.731-2.837A2.785,2.785,0,0,1,237.822,215.3Z" transform="translate(-229.709 -206.265)"/><rect width="11.592" height="4.552" rx="0.925"/></g><path d="M282.573,166.816c-10.649-1.5-27.24-1.669-39.35,8.279a9.047,9.047,0,0,0-.773.747H232.87c-9.875,0-17.882,6.991-17.882,15.614v53.651a3.369,3.369,0,0,0,3.3-3.434V207.09s.61-10.981,10.563-10.981h48.7c10.6,0,11.894,9.613,12.016,10.849v34.716a3.37,3.37,0,0,0,3.3,3.434V192.452l.116-13.51A12.128,12.128,0,0,0,282.573,166.816Z" transform="translate(-204.652 -166.063)" fill="#1d1d1b"/><path d="M254.519,223.012h-9.149a3.431,3.431,0,1,0,0,6.862h9.149a3.431,3.431,0,1,0,0-6.862Z" transform="translate(-201.478 -159.356)" fill="#f9ac7f"/></g><g transform="translate(25.482 146.997)"><rect width="189.704" height="12.994" rx="5.813" transform="translate(0 83.999)" fill="#262626"/><rect width="156.859" height="96.993" rx="9.174" transform="translate(17.459)" fill="#323232"/><path d="M250.167,354.118a11.9,11.9,0,1,1,11.905-11.9A11.918,11.918,0,0,1,250.167,354.118Zm0-21.736A9.831,9.831,0,1,0,260,342.213,9.843,9.843,0,0,0,250.167,332.381Z" transform="translate(-155.316 -293.717)" fill="#dbdbdb"/></g></g><path d="M419.529,386.671H120.756a2.1,2.1,0,0,1,0-4.208H419.529a2.1,2.1,0,1,1,0,4.208Z" transform="translate(-29.68 -140.577)" fill="#141414"/><path d="M114.89,386.671H81.418a2.1,2.1,0,1,1,0-4.208H114.89a2.1,2.1,0,1,1,0,4.208Z" transform="translate(-34.313 -140.577)" fill="#141414"/><path d="M431.762,386.671H398.29a2.1,2.1,0,1,1,0-4.208h33.473a2.1,2.1,0,1,1,0,4.208Z" transform="translate(3.005 -140.577)" fill="#40bcdf"/><path d="M445.713,386.671h-7.167a2.1,2.1,0,0,1,0-4.208h7.167a2.1,2.1,0,1,1,0,4.208Z" transform="translate(7.746 -140.577)" fill="#40bcdf"/><path d="M71.815,386.671H60.439a2.1,2.1,0,1,1,0-4.208H71.815a2.1,2.1,0,0,1,0,4.208Z" transform="translate(-36.783 -140.577)" fill="#40bcdf"/><path d="M44.115,386.671H41.159a2.1,2.1,0,1,1,0-4.208h2.956a2.1,2.1,0,1,1,0,4.208Z" transform="translate(-39.054 -140.577)" fill="#40bcdf"/></g><path d="M160.386,162.47H144.334a30.869,30.869,0,0,0-30.869,30.869h0a30.867,30.867,0,0,0,30.773,30.866h0c3.448,3.226,8.121,7.718,8.122,7.719h0l8.027-7.717h0a30.868,30.868,0,0,0,30.868-30.868h0A30.869,30.869,0,0,0,160.386,162.47Z" transform="translate(8.763 12.824)" fill="#ececec"/><circle cx="6.74" cy="6.74" r="6.74" transform="translate(128.509 352.973)" fill="#40bcdf"/><circle cx="6.959" cy="6.959" r="6.959" transform="translate(393.544 99.057)" fill="#40bcdf"/><path d="M362.184,179.566a1.029,1.029,0,0,1-.744-.319l-3.7-3.881h-28.67a23.222,23.222,0,1,1,0-46.444h40.007a23.222,23.222,0,1,1,0,46.444h-3.01l-3.088,3.818a1.029,1.029,0,0,1-.758.381Zm-33.109-48.588a21.167,21.167,0,1,0,0,42.333h29.109a1.032,1.032,0,0,1,.746.319l3.191,3.352,2.663-3.29a1.029,1.029,0,0,1,.8-.381h3.5a21.167,21.167,0,0,0,0-42.333Z" transform="translate(31.421 8.873)" fill="#ebf6fe"/><g transform="translate(84.198 136.583)"><path d="M120.765,127.838H92.15a12.708,12.708,0,0,0,0,25.416h28.615a12.708,12.708,0,1,0,0-25.416Z" transform="translate(-79.442 -127.838)" fill="#40bcdf"/><path d="M98.086,149.908l-3.435,4.658-2.919-4.658Z" transform="translate(-77.995 -125.239)" fill="#40bcdf"/></g><path d="M388.446,190.1H361.575a22.8,22.8,0,0,0,0,45.608h2.8l5.773,8.109,5.29-8.109h13.005a22.8,22.8,0,0,0,0-45.608Z" transform="translate(35.297 16.078)" fill="#ececec"/><g transform="translate(229.795 150.9)"><path d="M219.969,152.5a1.575,1.575,0,0,1-1.117-.463l-8.692-8.692a1.579,1.579,0,1,1,2.233-2.232l8.692,8.692a1.579,1.579,0,0,1-1.117,2.695Z" transform="translate(-209.699 -140.646)" fill="#40bcdf"/><path d="M211.277,152.5a1.579,1.579,0,0,1-1.117-2.695l8.692-8.692a1.579,1.579,0,0,1,2.233,2.232l-8.692,8.692A1.573,1.573,0,0,1,211.277,152.5Z" transform="translate(-209.699 -140.646)" fill="#40bcdf"/></g><path d="M115.824,141.569H100.987a2.137,2.137,0,1,1,0-4.273h14.837a2.137,2.137,0,1,1,0,4.273Z" transform="translate(7.042 9.859)" fill="#fff"/><path d="M370.609,145.2H324.935a2.317,2.317,0,1,1,0-4.633h45.674a2.317,2.317,0,1,1,0,4.633Z" transform="translate(33.395 10.244)" fill="#40bcdf"/><path d="M348.651,152.279H324.935a2.317,2.317,0,1,1,0-4.633h23.716a2.317,2.317,0,1,1,0,4.633Z" transform="translate(33.395 11.078)" fill="#40bcdf"/><path d="M361.8,159.359H324.935a2.317,2.317,0,1,1,0-4.633H361.8a2.317,2.317,0,0,1,0,4.633Z" transform="translate(33.395 11.912)" fill="#40bcdf"/><path d="M95.1,141.569H92.509a2.137,2.137,0,1,1,0-4.273H95.1a2.137,2.137,0,1,1,0,4.273Z" transform="translate(6.044 9.859)" fill="#fff"/><path d="M162.332,189.118a.709.709,0,0,0,0-.085,3.245,3.245,0,0,0-2.876-3.182,6.119,6.119,0,0,0-.771-.021h-.552v-4.122a14.868,14.868,0,0,0-.178-2.808,8.393,8.393,0,0,0-2.941-4.878,9.077,9.077,0,0,0-2.86-1.574,8.357,8.357,0,0,0-2.953-.4,8.5,8.5,0,0,0-4.761,1.682,9.469,9.469,0,0,0-1.985,2.046,8.436,8.436,0,0,0-1.11,2.26,9.981,9.981,0,0,0-.4,3.126v4.663h-.133c-.27,0-.537,0-.807,0a3.261,3.261,0,0,0-2.772,1.512,5.88,5.88,0,0,0-.484,3.261v13.467a3.4,3.4,0,0,0,.867,2.364,3.278,3.278,0,0,0,2.441,1.028H158.8a4.059,4.059,0,0,0,1.3-.161,3.267,3.267,0,0,0,2.234-3.074V189.118Zm-10.192,7.435a2.691,2.691,0,0,1-1.387,2.248v2.179a1.211,1.211,0,1,1-2.421,0v-2.2a2.584,2.584,0,0,1-1.028-.964,2.644,2.644,0,0,1,.274-3.035,2.589,2.589,0,0,1,2.812-.75,2.643,2.643,0,0,1,1.747,2.409v.048A.1.1,0,0,1,152.14,196.553Zm2.768-14.193v3.47H144.176v-4.772a11.483,11.483,0,0,1,.04-1.178,5.355,5.355,0,0,1,1.07-2.534c-.04.048-.077.1-.117.145l.255-.328c-.045.061-.093.122-.137.182a7.074,7.074,0,0,1,.968-.968c-.06.044-.121.088-.181.136l.326-.254c-.048.037-.1.077-.145.117a5.359,5.359,0,0,1,2.566-1.073,7.089,7.089,0,0,1,1.444,0,7.45,7.45,0,0,1,1.379.374,7.172,7.172,0,0,1,1.19.7c-.048-.04-.093-.077-.141-.113l.326.254c-.06-.045-.121-.093-.181-.137a7.471,7.471,0,0,1,.972.972c-.045-.06-.089-.121-.137-.181l.254.326c-.036-.048-.076-.1-.116-.145a7.252,7.252,0,0,1,.7,1.195,7.349,7.349,0,0,1,.368,1.327C154.957,180.695,154.908,181.542,154.908,182.36Z" transform="translate(11.505 13.951)" fill="#1898ce"/><g transform="translate(281.636 86.511)"><path d="M276.492,103.387a8.932,8.932,0,0,0-8.931-8.932h-2.552a8.933,8.933,0,0,0-8.932,8.932v2.552h20.415Z" transform="translate(-256.077 -81.697)" fill="#1898ce"/><path d="M265.747,83.041a5.1,5.1,0,1,1-5.1,5.1A5.1,5.1,0,0,1,265.747,83.041Z" transform="translate(-255.539 -83.041)" fill="#1898ce"/></g><g transform="translate(391.337 219.544)"><path d="M363.37,202.058a9.153,9.153,0,0,1,8.047,4.793h18.533l4.357,3.921-5.664,4.793-2.614-2.614-2.614,2.614-2.614-2.614-2.614,2.614h-6.768a9.15,9.15,0,1,1-8.047-13.507Zm-3.05,6.536a2.614,2.614,0,1,0,2.614,2.614A2.614,2.614,0,0,0,360.32,208.594Z" transform="translate(-354.22 -202.058)" fill="#1898ce"/></g><path d="M364.712,301.067a17.351,17.351,0,0,0-17.351-17.351h-1.336a17.347,17.347,0,0,0-3.227,34.392l3.543,5.653,4.158-5.639A17.346,17.346,0,0,0,364.712,301.067Z" transform="translate(34.108 27.103)" fill="#40bcdf"/><g transform="translate(378.316 318.563)"><path d="M344.214,303.135h1.657a.51.51,0,0,0,.511-.51l1.019-11.471a.51.51,0,0,0-.51-.511h-3.7a.51.51,0,0,0-.51.511l1.019,11.471A.51.51,0,0,0,344.214,303.135Z" transform="translate(-342.558 -290.644)" fill="#ececec"/><path d="M345.056,303.387a2.485,2.485,0,1,0,2.486,2.486A2.485,2.485,0,0,0,345.056,303.387Z" transform="translate(-342.571 -289.143)" fill="#ececec"/></g><g transform="translate(422.697 380.783)"><path d="M392.546,358.159a1.571,1.571,0,0,1-1.116-.463L382.739,349a1.579,1.579,0,0,1,2.232-2.233l8.692,8.692a1.579,1.579,0,0,1-1.117,2.7Z" transform="translate(-382.276 -346.309)" fill="#ececec"/><path d="M383.854,358.159a1.579,1.579,0,0,1-1.116-2.7l8.692-8.692A1.579,1.579,0,0,1,393.663,349l-8.692,8.692A1.571,1.571,0,0,1,383.854,358.159Z" transform="translate(-382.276 -346.309)" fill="#ececec"/></g><g transform="translate(255.772 53.579)"><path d="M270.283,139.856s-37.345-21.4-37.345-72.3l37.345-13.98Z" transform="translate(-232.938 -53.579)" fill="#fff"/><path d="M266.348,139.856s37.344-21.4,37.344-72.3l-37.344-13.98Z" transform="translate(-229.003 -53.579)" fill="#e6e6e6"/><path d="M270.283,139.856s-37.345-21.4-37.345-72.3l37.345-13.98Z" transform="translate(-232.938 -53.579)" fill="#fff"/><path d="M266.348,139.856s37.344-21.4,37.344-72.3l-37.344-13.98Z" transform="translate(-229.003 -53.579)" fill="#e6e6e6"/><g transform="translate(18.471 24.566)"><path d="M273.552,96.789a2.322,2.322,0,0,1-1.719-.76,6.175,6.175,0,0,0-9.157-.008,2.316,2.316,0,0,1-3.428-3.114,10.813,10.813,0,0,1,16.014.008,2.316,2.316,0,0,1-.158,3.272,2.272,2.272,0,0,1-1.553.6Zm0,0" transform="translate(-248.381 -73.931)" fill="#313131"/><path d="M279.226,91.807a2.322,2.322,0,0,1-1.629-.671,13.9,13.9,0,0,0-19.6-.007,2.316,2.316,0,0,1-3.263-3.287,18.539,18.539,0,0,1,26.128.008,2.313,2.313,0,0,1-1.635,3.957Zm0,0" transform="translate(-248.923 -74.744)" fill="#313131"/><path d="M284.9,86.84a2.319,2.319,0,0,1-1.605-.648,21.625,21.625,0,0,0-29.912,0,2.318,2.318,0,0,1-3.21-3.345,26.262,26.262,0,0,1,36.324.008,2.317,2.317,0,0,1-1.6,3.986Zm0,0" transform="translate(-249.463 -75.557)" fill="#313131"/><path d="M269.441,99.328a2.795,2.795,0,1,1-2.794-2.794,2.793,2.793,0,0,1,2.794,2.794Zm0,0" transform="translate(-247.768 -73.087)" fill="#313131"/></g></g><g transform="translate(64.082 339.778)"><path d="M92.591,323.705a66.252,66.252,0,0,0-15.156,13.037l-5.656-4.431a19.55,19.55,0,0,0-3.171,2.728l10.3,10.479a.383.383,0,0,0,.3.124.267.267,0,0,0,.074-.008.407.407,0,0,0,.305-.255c1.66-4.242,7.141-13.126,14.135-19.571a.4.4,0,0,0,.1-.458,10.741,10.741,0,0,0-1.224-1.645Zm0,0" transform="translate(-60.602 -307.966)" fill="#fff"/><path d="M100.191,316.091c-15.6,0-18.24-5.924-18.264-5.976a.776.776,0,0,0-.713-.492H81.2a.807.807,0,0,0-.724.475c-.017.068-2.712,5.992-18.255,5.992a.779.779,0,0,0-.78.772V343.4c0,10.859,18.658,19.161,19.447,19.506a.745.745,0,0,0,.322.065.729.729,0,0,0,.311-.065c.8-.345,19.447-8.647,19.447-19.506v-26.54a.779.779,0,0,0-.78-.772Zm-3.51,25.768c0,8.5-14.606,15-15.231,15.272a.516.516,0,0,1-.246.048.546.546,0,0,1-.248-.048c-.608-.271-15.222-6.773-15.222-15.272v-20.77a.607.607,0,0,1,.608-.608c12.165,0,14.276-4.643,14.3-4.686a.6.6,0,0,1,.56-.377h.009a.6.6,0,0,1,.557.386c.026.041,2.088,4.677,14.3,4.677a.607.607,0,0,1,.608.608Zm0,0" transform="translate(-61.445 -309.624)" fill="#fff"/></g></g></g></svg>