<svg xmlns="http://www.w3.org/2000/svg" width="616.994" height="616.994" viewBox="0 0 616.994 616.994"><g transform="translate(-706.947 -114.058)"><circle cx="214.664" cy="214.664" r="214.664" transform="translate(800.779 207.891)" fill="#d5d7db" opacity="0.049"/><circle cx="308.497" cy="308.497" r="308.497" transform="translate(706.947 114.058)" fill="#d5d7db" opacity="0.049"/><g transform="translate(154.738 23.459)"><g transform="translate(650.615 195.181)" opacity="0.174"><path d="M806.526,570.753c-3.165,0-6.365-.093-9.506-.255l.062-1.175c3.119.158,6.3.246,9.444.251Zm9.5-.222-.055-1.18c3.145-.153,6.315-.387,9.42-.693l.115,1.175C822.38,570.142,819.194,570.378,816.025,570.531Zm-28.48-.757c-3.141-.32-6.313-.726-9.43-1.206l.179-1.166c3.1.48,6.253.881,9.37,1.2Zm47.389-1.115-.174-1.165c3.093-.466,6.222-1.018,9.3-1.641l.232,1.158C841.2,567.636,838.049,568.2,834.934,568.659Zm-66.175-1.772c-3.086-.638-6.2-1.359-9.255-2.154l.294-1.139c3.036.786,6.133,1.507,9.2,2.14Zm84.8-2-.291-1.144c3.038-.779,6.093-1.65,9.088-2.58l.349,1.13C859.7,563.23,856.621,564.1,853.562,564.887Zm-103.2-2.778c-3.01-.951-6.031-1.987-8.993-3.088l.413-1.106c2.938,1.1,5.945,2.126,8.935,3.069Zm121.364-2.885-.408-1.106c2.964-1.094,5.923-2.271,8.794-3.5l.463,1.089C877.692,556.938,874.714,558.123,871.73,559.224Zm-139.154-3.738c-2.885-1.242-5.785-2.58-8.618-3.977l.523-1.056c2.816,1.388,5.7,2.718,8.56,3.951Zm156.659-3.75-.521-1.06c2.825-1.385,5.649-2.857,8.388-4.376l.571,1.029C894.92,548.861,892.078,550.341,889.236,551.736ZM715.557,547.1c-2.744-1.531-5.493-3.155-8.173-4.834l.628-1c2.663,1.667,5.4,3.279,8.118,4.8Zm190.324-4.588-.626-1.005c2.661-1.655,5.322-3.406,7.894-5.2l.676.965C911.233,539.085,908.556,540.845,905.881,542.512Zm-206.415-5.486c-2.6-1.818-5.166-3.712-7.648-5.634l.726-.934c2.46,1.915,5.018,3.8,7.6,5.6Zm222.028-5.372-.719-.934c2.47-1.913,4.935-3.919,7.328-5.966l.769.893C926.464,527.713,923.983,529.732,921.494,531.654Zm-237.032-6.277c-2.391-2.064-4.763-4.208-7.044-6.382l.814-.85c2.267,2.152,4.622,4.29,7,6.339Zm251.468-6.093-.81-.855c2.276-2.157,4.524-4.4,6.688-6.673l.853.817C940.484,514.854,938.22,517.116,935.93,519.284ZM670.7,512.27c-2.171-2.286-4.311-4.66-6.37-7.058l.9-.771c2.044,2.386,4.172,4.746,6.329,7.017Zm278.343-6.743-.893-.769c2.038-2.367,4.051-4.822,5.981-7.3l.929.721C953.122,500.676,951.1,503.146,949.047,505.527Zm-290.723-7.688c-1.939-2.505-3.833-5.087-5.627-7.667l.965-.674c1.786,2.563,3.669,5.128,5.6,7.617Zm302.378-7.3-.965-.676c1.8-2.575,3.554-5.221,5.212-7.865l1,.628C964.283,485.278,962.516,487.941,960.7,490.535Zm-313.243-8.3c-1.672-2.685-3.3-5.446-4.827-8.2l1.029-.569c1.526,2.737,3.138,5.482,4.8,8.145Zm323.327-7.779-1.027-.578c1.519-2.723,2.993-5.532,4.385-8.348l1.06.521C973.8,468.886,972.316,471.709,970.787,474.451Zm-332.561-8.864c-1.388-2.83-2.725-5.744-3.972-8.653l1.087-.468c1.237,2.895,2.563,5.787,3.943,8.6Zm340.961-8.152-1.085-.473c1.235-2.866,2.417-5.8,3.513-8.739l1.108.411C981.619,451.589,980.429,454.55,979.187,457.435Zm-348.458-9.348c-1.094-2.959-2.128-6-3.074-9.019l1.13-.353c.936,3.009,1.963,6.021,3.05,8.966Zm355.089-8.441-1.127-.358c.943-2.983,1.82-6.036,2.611-9.076l1.142.3C987.652,433.565,986.766,436.642,985.817,439.646Zm-360.759-9.723c-.786-3.055-1.5-6.174-2.128-9.267l1.154-.234c.623,3.076,1.337,6.169,2.116,9.205ZM990.6,421.258l-1.158-.239c.635-3.072,1.2-6.2,1.679-9.3l1.165.179C991.81,415.019,991.242,418.165,990.6,421.258ZM621.27,411.3c-.471-3.136-.865-6.306-1.177-9.43l1.175-.119c.306,3.1.7,6.26,1.17,9.375ZM993.5,402.472l-1.17-.122c.32-3.122.564-6.289.726-9.411l1.18.057C994.067,396.141,993.823,399.332,993.5,402.472ZM619.391,392.391c-.148-3.093-.224-6.219-.224-9.3v-.2h1.182v.2c0,3.062.074,6.174.22,9.243Zm375.1-8.9h-1.18v-.411c0-3.124-.077-6.3-.237-9.434l1.18-.057c.158,3.15.236,6.348.236,9.5Zm-373.9-10.05-1.177-.06c.155-3.141.4-6.329.724-9.477l1.168.119C620.988,367.154,620.75,370.319,620.592,373.443Zm371.775-9.215c-.315-3.129-.712-6.279-1.18-9.372l1.165-.174c.473,3.11.874,6.282,1.187,9.427ZM622.5,354.658l-1.166-.179c.475-3.117,1.039-6.267,1.674-9.356l1.151.239C623.537,348.431,622.973,351.56,622.5,354.658Zm367.031-9.1c-.628-3.064-1.342-6.16-2.128-9.207l1.144-.3c.788,3.067,1.51,6.186,2.138,9.267Zm-363.229-9.4-1.146-.294c.8-3.06,1.677-6.131,2.625-9.136l1.122.353C627.963,330.066,627.089,333.124,626.3,336.159Zm358.509-8.885c-.941-3-1.971-6.014-3.06-8.957l1.106-.411c1.1,2.962,2.133,5.993,3.079,9.014Zm-352.846-9.129-1.106-.411c1.1-2.959,2.286-5.921,3.528-8.8l1.084.468C634.235,312.265,633.057,315.206,631.966,318.146Zm346.271-8.622c-1.237-2.883-2.57-5.773-3.955-8.591l1.058-.523c1.395,2.84,2.735,5.749,3.979,8.651ZM639.42,300.839l-1.056-.523c1.388-2.823,2.871-5.651,4.4-8.407l1.032.576C642.277,295.224,640.8,298.033,639.42,300.839Zm330.473-8.29c-1.526-2.74-3.143-5.482-4.808-8.145l1-.621c1.674,2.677,3.3,5.436,4.839,8.2Zm-321.3-8.19-1-.623c1.672-2.675,3.432-5.345,5.233-7.925l.967.678C652.01,279.052,650.259,281.7,648.6,284.359Zm311.278-7.836c-1.794-2.577-3.678-5.14-5.6-7.619l.932-.721c1.935,2.491,3.826,5.071,5.639,7.66ZM659.4,268.886l-.931-.724c1.925-2.484,3.946-4.958,6.009-7.359l.893.769C663.324,263.956,661.313,266.417,659.4,268.886Zm288.893-7.3c-2.035-2.372-4.168-4.729-6.337-7.01l.855-.817c2.181,2.3,4.33,4.669,6.375,7.053ZM671.71,254.57l-.857-.817c2.178-2.29,4.44-4.545,6.723-6.716l.812.853C676.119,250.046,673.873,252.294,671.71,254.57ZM935.275,247.9c-2.267-2.157-4.627-4.285-7.008-6.329l.771-.893c2.393,2.059,4.767,4.2,7.051,6.37ZM685.4,241.555l-.764-.893c2.4-2.066,4.88-4.089,7.366-6.017l.724.936C690.251,237.5,687.789,239.5,685.4,241.555ZM920.952,235.6c-2.484-1.925-5.042-3.8-7.6-5.589l.676-.965c2.58,1.794,5.152,3.685,7.65,5.625Zm-220.614-5.61-.674-.97c2.591-1.8,5.259-3.564,7.942-5.238l.623,1C705.566,226.443,702.91,228.192,700.338,229.986Zm205.134-5.18c-2.654-1.653-5.388-3.267-8.125-4.794l.571-1.025c2.759,1.529,5.508,3.15,8.178,4.82Zm-189.1-4.827-.576-1.034c2.759-1.533,5.6-3.017,8.438-4.414l.521,1.061C721.936,216.978,719.116,218.452,716.376,219.978Zm172.611-4.337c-2.8-1.376-5.68-2.7-8.558-3.943l.463-1.082c2.9,1.249,5.8,2.58,8.618,3.967Zm-155.631-4-.463-1.089c2.907-1.247,5.883-2.431,8.844-3.528l.411,1.106C739.2,209.22,736.246,210.4,733.356,211.642ZM871.678,208.2c-2.935-1.092-5.942-2.121-8.938-3.06l.351-1.125c3.017.946,6.043,1.982,9,3.076Zm-120.571-3.122-.354-1.12c3.009-.946,6.086-1.822,9.141-2.608l.3,1.139C757.154,203.271,754.1,204.14,751.107,205.074Zm102.551-2.537c-3.024-.781-6.119-1.5-9.2-2.128l.236-1.156c3.1.635,6.212,1.357,9.255,2.142ZM769.4,200.369l-.237-1.158c3.1-.628,6.243-1.189,9.358-1.658l.177,1.163C775.6,199.184,772.474,199.743,769.4,200.369Zm65.766-1.624c-3.1-.471-6.253-.872-9.372-1.185l.117-1.17c3.141.318,6.315.719,9.432,1.189Zm-47.1-1.206-.115-1.17c3.129-.313,6.318-.552,9.477-.7l.057,1.175C794.342,197,791.178,197.23,788.065,197.538Zm28.306-.693c-3.122-.153-6.3-.234-9.442-.236v-1.182c3.162,0,6.361.091,9.5.248Z" transform="translate(-597.985 -174.25)" fill="#fff"/><path d="M813.069,587.722c-109.4,0-198.4-89-198.4-198.394s89-198.394,198.4-198.394,198.39,89,198.39,198.394S922.458,587.722,813.069,587.722Zm0-394.427c-108.1,0-196.037,87.94-196.037,196.032s87.941,196.035,196.037,196.035S1009.1,497.424,1009.1,389.328,921.163,193.3,813.069,193.3Z" transform="translate(-604.225 -180.49)" fill="#fff"/><path d="M823.589,604.192l-.024-1.178c3.155-.067,6.332-.2,9.444-.411l.079,1.177C829.955,603.992,826.761,604.128,823.589,604.192Zm-9.5-.01c-3.165-.076-6.358-.227-9.5-.444l.084-1.17c3.124.21,6.3.358,9.439.437Zm28.466-1.24-.127-1.175c3.127-.349,6.279-.772,9.365-1.261l.184,1.165C848.869,602.167,845.7,602.59,842.551,602.943Zm-47.427-.067c-3.148-.358-6.317-.8-9.415-1.295l.184-1.166c3.084.5,6.234.929,9.368,1.29Zm66.2-2.9-.241-1.154c3.079-.628,6.179-1.342,9.217-2.111l.292,1.142C867.537,598.629,864.42,599.346,861.327,599.974Zm-84.967-.119c-3.081-.643-6.2-1.366-9.258-2.15l.294-1.144c3.04.781,6.138,1.5,9.2,2.14Zm103.389-4.545-.341-1.13c3-.91,6.033-1.9,9-2.952l.4,1.115C885.816,593.4,882.77,594.4,879.749,595.31Zm-121.8-.174c-3.01-.924-6.048-1.927-9.024-2.99l.4-1.113c2.959,1.056,5.976,2.054,8.971,2.974Zm139.76-6.179-.439-1.094c2.909-1.182,5.835-2.451,8.689-3.764l.492,1.072C903.581,586.491,900.643,587.767,897.71,588.956Zm-157.662-.213c-2.919-1.194-5.842-2.47-8.689-3.793l.5-1.068c2.828,1.314,5.737,2.582,8.639,3.769ZM915,580.984l-.542-1.046c2.79-1.44,5.582-2.971,8.3-4.543l.592,1.025C920.618,578,917.809,579.531,915,580.984Zm-192.16-.22c-2.8-1.455-5.591-3-8.317-4.576l.59-1.02c2.708,1.574,5.493,3.1,8.269,4.55Zm208.646-9.289-.635-.991c2.635-1.689,5.276-3.461,7.851-5.276l.681.963C936.793,567.993,934.139,569.782,931.49,571.475Zm-225.066-.229c-2.661-1.71-5.31-3.5-7.87-5.314l.681-.962c2.548,1.808,5.183,3.58,7.829,5.281Zm240.61-10.731-.724-.936c2.482-1.92,4.949-3.931,7.337-5.962l.764.9C952.014,556.559,949.53,558.577,947.034,560.514Zm-256.106-.251c-2.477-1.93-4.959-3.951-7.359-6l.767-.9c2.386,2.04,4.851,4.048,7.321,5.969Zm270.585-12.078-.8-.86c2.291-2.138,4.567-4.356,6.764-6.6l.843.829C966.106,543.8,963.818,546.04,961.513,548.185Zm-285.031-.26c-2.3-2.152-4.583-4.392-6.788-6.647l.841-.826c2.2,2.25,4.469,4.474,6.755,6.611Zm298.332-13.308-.879-.791c2.085-2.326,4.154-4.748,6.141-7.177l.913.745C978.987,529.84,976.911,532.273,974.814,534.617Zm-311.607-.291c-2.092-2.345-4.168-4.784-6.167-7.239l.915-.74c1.987,2.439,4.051,4.861,6.131,7.2ZM986.831,519.9l-.951-.707c1.88-2.525,3.721-5.118,5.465-7.7l.979.666C990.568,514.752,988.72,517.358,986.831,519.9Zm-335.623-.327c-1.882-2.539-3.724-5.152-5.486-7.767l.979-.662c1.751,2.606,3.585,5.2,5.455,7.729Zm346.249-15.408-1.006-.614c1.641-2.692,3.236-5.434,4.736-8.164l1.034.566C1000.715,498.7,999.11,501.46,997.457,504.164Zm-356.864-.377c-1.648-2.7-3.246-5.474-4.763-8.245l1.034-.566c1.509,2.754,3.1,5.513,4.736,8.2Zm366.014-16.246-1.056-.521c1.378-2.8,2.713-5.682,3.97-8.553l1.082.468C1009.339,481.827,1007.995,484.719,1006.607,487.54Zm-375.154-.449c-1.392-2.845-2.737-5.754-3.989-8.649l1.085-.468c1.247,2.878,2.579,5.768,3.962,8.6ZM1014.2,470.159l-1.1-.418c1.127-2.945,2.2-5.94,3.179-8.9l1.12.373C1016.412,464.188,1015.335,467.2,1014.2,470.159Zm-390.328-.537c-1.128-2.962-2.2-5.988-3.181-8.988l1.12-.365c.982,2.981,2.047,5.985,3.167,8.933Zm396.316-17.5-1.139-.318c.845-3.009,1.638-6.088,2.35-9.155l1.156.268C1021.833,446,1021.036,449.1,1020.188,452.122Zm-402.256-.58c-.843-3.031-1.631-6.129-2.341-9.215l1.154-.263c.7,3.062,1.486,6.145,2.324,9.164Zm406.56-17.928-1.161-.217c.566-3.062,1.075-6.2,1.51-9.329l1.168.16C1025.569,427.373,1025.065,430.53,1024.492,433.614Zm-410.814-.595c-.561-3.112-1.063-6.265-1.488-9.389l1.17-.158c.418,3.1.917,6.243,1.479,9.336Zm413.413-18.233-1.175-.11c.289-3.115.509-6.286.654-9.425l1.18.052C1027.6,408.461,1027.382,411.652,1027.09,414.786Zm-415.956-.6c-.279-3.124-.492-6.32-.631-9.482l1.18-.05c.138,3.146.349,6.32.626,9.425ZM1027.979,395.8H1026.8v-.4c0-3.138-.074-6.317-.213-9.449l1.177-.057c.141,3.153.213,6.349.213,9.5Zm-416.5-.6-1.178,0c0-3.169.081-6.365.225-9.5l1.173.052C611.557,388.864,611.478,392.043,611.476,395.2Zm414.48-18.68c-.284-3.117-.64-6.279-1.065-9.387l1.17-.165c.428,3.129.788,6.308,1.068,9.444Zm-413.611-.2-1.175-.1c.289-3.15.647-6.329,1.075-9.449l1.17.162C612.99,370.031,612.629,373.191,612.345,376.317Zm411.062-18.52c-.566-3.083-1.209-6.2-1.918-9.258l1.154-.263c.709,3.074,1.354,6.208,1.925,9.308Zm-408.492-.2-1.163-.21c.573-3.112,1.22-6.241,1.93-9.31l1.154.27C616.124,351.4,615.479,354.508,614.915,357.6Zm404.241-18.212c-.846-3.029-1.77-6.069-2.749-9.048l1.12-.368c.984,2.99,1.916,6.048,2.766,9.1Zm-399.982-.2-1.13-.318c.848-3.041,1.782-6.093,2.775-9.093l1.118.368C620.951,333.127,620.024,336.17,619.174,339.189Zm394.059-17.777c-1.118-2.931-2.322-5.88-3.576-8.768l1.082-.471c1.263,2.9,2.472,5.868,3.592,8.818Zm-388.124-.165-1.1-.425c1.12-2.928,2.329-5.883,3.59-8.78l1.082.478C627.428,315.392,626.224,318.328,625.109,321.247Zm380.571-17.2c-1.381-2.814-2.849-5.646-4.364-8.405l1.034-.564c1.522,2.773,3,5.613,4.39,8.45Zm-373.038-.091-1.06-.521c1.39-2.816,2.859-5.649,4.378-8.419l1.036.566C635.484,298.341,634.02,301.157,632.642,303.959Zm363.933-16.507c-1.636-2.682-3.356-5.362-5.109-7.961l.982-.659c1.76,2.613,3.489,5.31,5.135,8.011Zm-354.85-.029-1-.619c1.638-2.692,3.363-5.376,5.121-7.992l.982.659C645.074,282.071,643.359,284.746,641.725,287.424ZM986,271.77c-1.87-2.522-3.824-5.03-5.806-7.466l.915-.745c1.994,2.448,3.955,4.975,5.837,7.5Zm-333.727,0-.948-.707c1.873-2.52,3.834-5.04,5.833-7.5l.917.745C656.089,266.747,654.14,269.26,652.278,271.765Zm11.933-14.648-.881-.781c2.1-2.355,4.287-4.691,6.492-6.943l.843.824C668.476,252.454,666.307,254.776,664.21,257.117Zm309.849-.01c-2.09-2.338-4.263-4.665-6.456-6.9l.843-.829c2.2,2.25,4.385,4.586,6.492,6.946Zm-296.636-13.5-.8-.86c2.31-2.157,4.7-4.285,7.094-6.332l.762.9C682.1,239.347,679.723,241.465,677.423,243.608Zm283.421-.01c-2.286-2.133-4.658-4.247-7.051-6.289l.764-.9c2.408,2.052,4.8,4.18,7.089,6.327ZM691.811,231.343l-.721-.929c2.491-1.937,5.063-3.845,7.638-5.668l.683.963C696.848,227.526,694.291,229.418,691.811,231.343Zm254.657,0c-2.474-1.925-5.028-3.817-7.586-5.625l.681-.963c2.57,1.82,5.14,3.721,7.626,5.658Zm-15.422-10.9c-2.637-1.691-5.35-3.346-8.061-4.911l.59-1.025c2.728,1.579,5.455,3.239,8.109,4.939Zm-223.791-.019-.635-.989c2.663-1.705,5.4-3.372,8.13-4.949l.588,1.015C712.622,217.074,709.9,218.727,707.255,220.423Zm207.458-9.432c-2.792-1.45-5.639-2.847-8.467-4.158l.492-1.072c2.847,1.321,5.713,2.725,8.52,4.185Zm-191.076-.043-.542-1.041c2.814-1.459,5.692-2.868,8.548-4.192l.5,1.07C729.3,208.1,726.437,209.505,723.637,210.948Zm173.958-7.88c-2.9-1.185-5.876-2.317-8.828-3.368l.4-1.111c2.967,1.056,5.954,2.195,8.88,3.389Zm-156.766-.055-.444-1.094c2.919-1.189,5.914-2.331,8.9-3.389l.394,1.115C746.712,200.694,743.734,201.834,740.829,203.013Zm138.965-6.277c-2.99-.912-6.055-1.77-9.1-2.549l.292-1.144c3.064.783,6.148,1.648,9.15,2.565Zm-121.114-.055-.344-1.13c3.021-.92,6.1-1.779,9.157-2.558l.291,1.142C764.75,194.909,761.683,195.764,758.681,196.682Zm102.8-4.622c-3.067-.64-6.2-1.209-9.3-1.708l.186-1.163c3.114.5,6.265,1.077,9.351,1.715ZM777,192.017l-.239-1.151c3.09-.643,6.238-1.213,9.353-1.71l.184,1.166C783.2,190.813,780.067,191.386,777,192.017Zm65.828-2.943c-3.11-.354-6.277-.64-9.413-.853l.081-1.178c3.155.213,6.337.5,9.466.86Zm-47.167-.021-.129-1.173c3.119-.351,6.306-.638,9.466-.85l.076,1.18C801.931,188.42,798.761,188.707,795.656,189.053Zm28.313-1.256c-3.141-.074-6.31-.074-9.456-.007l-.026-1.178c3.165-.069,6.351-.069,9.508,0Z" transform="translate(-610.298 -186.561)" fill="#fff"/></g><g transform="translate(642.741 475.91)"><g transform="translate(38.472)"><path d="M867.62,359.448a15.256,15.256,0,0,1-.06,1.557,19.942,19.942,0,0,1-.726,3.939,21.71,21.71,0,0,1-.762,2.164,31.555,31.555,0,0,1-8.472,11.381c-.349.294-.554.444-.554.444H650.452l-.11-.029-5.6-1.586-15.867-4.478-5.6-13.791-.024-2.233-.146-17.593,7.249-4.02s30.692-4.746,31.158-4.942,29.915-15.671,37.5-19.038c24.515-10.879,55.326-6.064,55.326-6.064,6.4.148,19.834,3.468,25.451,6.556,11.519,6.327,22.932,20.326,28.939,21.092,7.129.91,53.22,8.536,57.991,19.731A18.639,18.639,0,0,1,867.62,359.448Z" transform="translate(-623.109 -304.097)" fill="#62b2f0"/><path d="M755.255,331.473a68.5,68.5,0,0,0-8.033-4.13c-1.763-.838-3.5-1.715-5.307-2.453a55.285,55.285,0,0,0-6.286-2.073c-2.185-.585-4.4-.963-6.609-1.435-2.279-.5-4.533-1.08-6.8-1.619-3.654-.884-7.349-1.409-11.042-2.073-1.808-.325-3.607-.635-5.441-.824a16.393,16.393,0,0,0-5.539.031.25.25,0,0,0,0,.492c1.061.191,2.138.229,3.217.344,1.178.112,2.355.3,3.523.511,2.247.406,4.5.819,6.747,1.2s4.5.724,6.738,1.22c2.266.509,4.524,1.065,6.788,1.579,2.231.5,4.485.884,6.69,1.455a48.048,48.048,0,0,1,6.42,2.238c3.212,1.345,6.291,3.052,9.4,4.624a33.178,33.178,0,0,1,5.524,3.349,11.167,11.167,0,0,1,2.1,2.095,19.93,19.93,0,0,1,1.33,2.281.754.754,0,0,0,1.426-.2C760.521,335.2,757.38,332.856,755.255,331.473Z" transform="translate(-516.366 -286.681)" fill="#83c8fc"/><path d="M772.669,319.9c-8.4,1.677-122.141-.1-125.384-1.865,0,0,20.3-.361,25.065-.7,25.674-1.839,94.867.385,94.867.385Z" transform="translate(-589.542 -286.725)" fill="#83c8fc"/><path d="M689.927,351.245h-5.751c-.4-5.176-2.446-8.551-5.677-12.229-4.268-4.849-10.571-9.246-17.517-9.246-5.2,0-10.182,4-14.068,6.886-5.235,3.908-8.6,7.676-9.143,14.558l-5.606-1.586a29.011,29.011,0,0,1,57.762,1.617Z" transform="translate(-610.537 -276.406)" fill="#2278ba"/><path d="M751.443,351.245h-5.751c-.451-5.861-3.052-9.762-7.055-13.6-4.187-4.027-9.9-7.87-16.137-7.87-8.066,0-15.367,5.618-19.549,11.861-2.161,3.227-3.349,5.527-3.666,9.614h-5.751a29.012,29.012,0,0,1,57.911,0Z" transform="translate(-525.33 -276.406)" fill="#2278ba"/><path d="M627.344,337.362l1.438,3.533,21.577,6.093H856.953a32.388,32.388,0,0,0,7.994-9.625H640.511L623.176,327.1Z" transform="translate(-623.016 -272.152)" fill="#2278ba"/><path d="M730.015,336.366a29.988,29.988,0,0,0,9.958-1.882,1.617,1.617,0,0,0,1.049-1.751c-.237-2.195-7.476-11.381-17.992-12.7l-12.759-.014.537,1.861C710.85,322.025,715.231,336.366,730.015,336.366Z" transform="translate(-502.09 -281.989)" fill="#2278ba"/><path d="M738.371,332.278c.989-.354-5.993-10.321-16.643-11.651h-10.65S716.741,339.931,738.371,332.278Z" transform="translate(-500.968 -281.145)" fill="#e0e0e0"/><g transform="translate(175.609 51.649)"><path d="M735.381,348.913c.048-.545.086-1.087.086-1.641a17.288,17.288,0,1,0-34.575,0,16.283,16.283,0,0,0,.088,1.641H696.7q-.068-.81-.067-1.641a21.546,21.546,0,1,1,43.092,0c0,.554-.019,1.1-.065,1.641Z" transform="translate(-696.633 -325.721)" fill="#26252e"/><g transform="translate(3.313 3.303)"><path d="M723.89,345.352a18.234,18.234,0,0,1-18.233,18.229V327.1A18.243,18.243,0,0,1,723.89,345.352Z" transform="translate(-687.417 -327.104)" fill="#1c1c1f"/><path d="M716.261,327.1h0V363.58h0a18.238,18.238,0,1,1,0-36.476Z" transform="translate(-698.02 -327.104)" fill="#1c1c1f"/></g><path d="M713.577,329.038a13.62,13.62,0,1,1-13.624,13.619A13.622,13.622,0,0,1,713.577,329.038Z" transform="translate(-692.023 -321.116)" fill="#e0e0e0"/><g transform="translate(9.325 11.362)"><g transform="translate(14.608)"><path d="M706.653,338.355a40.513,40.513,0,0,0,4.409-7.877,9.969,9.969,0,0,1,5.422,9.389,40.663,40.663,0,0,0-9.026-.119Z" transform="translate(-706.653 -330.478)" fill="#26252e"/></g><g transform="translate(14.608 10.973)"><path d="M707.458,335.191a40.378,40.378,0,0,0,9.026-.119,9.978,9.978,0,0,1-5.422,9.394,40.4,40.4,0,0,0-4.409-7.882Z" transform="translate(-706.653 -335.072)" fill="#26252e"/></g><g transform="translate(0 10.973)"><path d="M710.387,336.584a40.051,40.051,0,0,0-4.412,7.882,10,10,0,0,1-5.429-9.394,40.46,40.46,0,0,0,9.035.119Z" transform="translate(-700.537 -335.072)" fill="#26252e"/></g><path d="M709.582,339.748a40.609,40.609,0,0,0-9.035.119,9.986,9.986,0,0,1,5.429-9.389,40.4,40.4,0,0,0,4.412,7.877Z" transform="translate(-700.537 -330.478)" fill="#1c1c1f"/></g><g transform="translate(16.129 8.966)"><path d="M711.077,331.078a40.468,40.468,0,0,0-4.617,7.765h-.8v-9.367A10.085,10.085,0,0,1,711.077,331.078Z" transform="translate(-700.233 -329.475)" fill="#26252e"/><path d="M703.386,331.078a10.08,10.08,0,0,1,5.424-1.6v9.367h-.8A40.461,40.461,0,0,0,703.386,331.078Z" transform="translate(-703.386 -329.475)" fill="#1c1c1f"/><path d="M706.459,336.084a40.239,40.239,0,0,0,4.617,7.765,10.084,10.084,0,0,1-5.419,1.6v-9.368Z" transform="translate(-700.233 -320.299)" fill="#26252e"/><path d="M708.81,336.084v9.368a10.1,10.1,0,0,1-5.424-1.6,40.232,40.232,0,0,0,4.619-7.765Z" transform="translate(-703.386 -320.299)" fill="#1c1c1f"/></g></g><g transform="translate(28.888 51.649)"><path d="M673.95,348.913a16.283,16.283,0,0,0,.088-1.641,17.285,17.285,0,1,0-34.57,0,15.012,15.012,0,0,0,.084,1.641h-4.282c-.048-.54-.065-1.087-.065-1.641a21.545,21.545,0,1,1,43.09,0c0,.554-.021,1.1-.064,1.641Z" transform="translate(-635.204 -325.721)" fill="#26252e"/><g transform="translate(3.308 3.303)"><path d="M662.465,345.352a18.237,18.237,0,0,1-18.238,18.229V327.1A18.245,18.245,0,0,1,662.465,345.352Z" transform="translate(-625.984 -327.104)" fill="#1c1c1f"/><path d="M654.827,327.1h0V363.58h0a18.238,18.238,0,1,1,0-36.476Z" transform="translate(-636.589 -327.104)" fill="#1c1c1f"/></g><path d="M652.143,329.038a13.62,13.62,0,1,1-13.617,13.619A13.619,13.619,0,0,1,652.143,329.038Z" transform="translate(-630.591 -321.116)" fill="#e0e0e0"/><g transform="translate(9.327 11.362)"><g transform="translate(14.603)"><path d="M645.223,338.355a41.01,41.01,0,0,0,4.419-7.877,9.984,9.984,0,0,1,5.417,9.389,40.721,40.721,0,0,0-9.033-.119Z" transform="translate(-645.223 -330.478)" fill="#26252e"/></g><g transform="translate(14.603 10.973)"><path d="M646.026,335.191a40.436,40.436,0,0,0,9.033-.119,9.987,9.987,0,0,1-5.424,9.394,40.422,40.422,0,0,0-4.411-7.882Z" transform="translate(-645.223 -335.072)" fill="#26252e"/></g><g transform="translate(0 10.973)"><path d="M648.955,336.584a40.212,40.212,0,0,0-4.416,7.882,9.987,9.987,0,0,1-5.419-9.394,40.448,40.448,0,0,0,9.036.119Z" transform="translate(-639.109 -335.072)" fill="#26252e"/></g><path d="M648.154,339.748a40.6,40.6,0,0,0-9.036.119,9.978,9.978,0,0,1,5.419-9.389,40.326,40.326,0,0,0,4.416,7.877Z" transform="translate(-639.109 -330.478)" fill="#26252e"/></g><g transform="translate(16.129 8.966)"><path d="M649.646,331.078a40.478,40.478,0,0,0-4.617,7.765h-.8v-9.367A10.084,10.084,0,0,1,649.646,331.078Z" transform="translate(-638.805 -329.475)" fill="#26252e"/><path d="M641.957,331.078a10.083,10.083,0,0,1,5.422-1.6v9.367h-.8A40.831,40.831,0,0,0,641.957,331.078Z" transform="translate(-641.957 -329.475)" fill="#26252e"/><path d="M645.03,336.084a40.5,40.5,0,0,0,4.617,7.765,10.083,10.083,0,0,1-5.419,1.6v-9.368Z" transform="translate(-638.805 -320.299)" fill="#26252e"/><path d="M647.379,336.084v9.368a10.1,10.1,0,0,1-5.422-1.6,40.353,40.353,0,0,0,4.619-7.765Z" transform="translate(-641.957 -320.299)" fill="#26252e"/></g></g><path d="M675.888,333.623l-.186-.019c-7.6-.879-21.35-3.363-28.141-10.043l-.482-.485.122-.681c.131-.683.6-.891,1.292-1.2.365-.158.886-.385,1.54-.662,1.3-.552,3.117-1.321,5.221-2.2,5.063-2.126,11.981-5.032,17.013-7.256,3.659-1.619,10.884-4.337,14.684-4.736,6.831-.724,15.305-1.156,22.669-1.156,8.758,0,15.647.576,20.455,1.7,12.821,3.007,18.63,7.946,21.422,10.325.3.258.583.492.826.693.886.716,10.848,10.664,10.848,10.664l4.337,5.135-6.461-.074Z" transform="translate(-589.829 -302.591)" fill="#2278ba"/><path d="M728.974,307.389c-11.1-2.6-31.96-1.658-42.7-.521-3.695.382-10.918,3.136-14.3,4.636-9.2,4.068-24.417,10.285-24.317,10.385,7.583,7.466,24.823,9.387,27.491,9.695H763.8l-2.35-2.866s-9.986-9.957-10.748-10.574C748.155,316.08,742.877,310.647,728.974,307.389Z" transform="translate(-589.02 -301.839)" fill="#1c1c1f"/><path d="M673.954,329.643l-.046,0c-10.4-1.209-18.976-3.8-24.149-7.313l-1.182-.8,1.306-.559,4.268-1.794c5.061-2.121,11.981-5.03,17.051-7.27,3.669-1.627,10.633-4.192,13.925-4.536,6.752-.714,15.131-1.137,22.411-1.137,8.448,0,15.32.566,19.881,1.631,12.231,2.868,17.524,7.366,20.362,9.79.327.27.614.516.879.733.815.669,6.984,6.8,10.1,9.934l1.311,1.318Z" transform="translate(-587.748 -301.126)" fill="#26252e"/><path d="M673.065,328.427c-10.342-1.2-18.766-3.774-23.815-7.182,1.23-.525,2.728-1.151,4.268-1.794,5.066-2.133,12.009-5.042,17.061-7.285,3.628-1.605,10.49-4.137,13.7-4.471,6.723-.709,15.073-1.137,22.325-1.137,8.391,0,15.2.564,19.7,1.617,12.052,2.821,17.25,7.247,20.046,9.623.325.279.621.53.884.743.712.583,6.344,6.169,10.048,9.886Z" transform="translate(-586.814 -300.679)" fill="#26252e"/><rect width="2.799" height="24.608" transform="translate(109.756 4.434)" fill="#1c1c1f"/><path d="M733.626,329.572a21.71,21.71,0,0,1-.762,2.164q-.254.623-.538,1.223a28.628,28.628,0,0,1-3.26,5.24,33.574,33.574,0,0,1-4.674,4.918,6.857,6.857,0,0,1,1.512-13.545Z" transform="translate(-489.901 -268.725)" fill="#2278ba"/><path d="M632.462,326.131v3.7a7.175,7.175,0,0,1-7.177,7.177h-.315a7.115,7.115,0,0,1-1.715-.208l-.146-17.6a6.9,6.9,0,0,1,1.861-.246h.315A7.176,7.176,0,0,1,632.462,326.131Z" transform="translate(-623.109 -283.465)" fill="#2278ba"/><path d="M630.358,325.366v2.869a5.563,5.563,0,0,1-5.56,5.565h-.251a5.384,5.384,0,0,1-1.323-.167l-.115-13.638a5.574,5.574,0,0,1,1.438-.189h.251A5.558,5.558,0,0,1,630.358,325.366Z" transform="translate(-623.109 -282.285)" fill="#e0e0e0"/><path d="M731.867,331.565a28.629,28.629,0,0,1-3.26,5.24l-9.227-1.844,4.383-4.385Z" transform="translate(-489.441 -267.331)" fill="#e0e0e0"/><path d="M719.61,324.127a2.931,2.931,0,1,1-2.931-2.931A2.932,2.932,0,0,1,719.61,324.127Z" transform="translate(-497.26 -280.355)" fill="#fff"/><path d="M712.862,321.489h10.65a20.439,20.439,0,0,1,5.56,1.533,21.186,21.186,0,0,0-7.345-2.4h-10.65s2.561,8.73,10.813,12.121C715.05,328.939,712.862,321.489,712.862,321.489Z" transform="translate(-500.968 -281.145)" fill="#ccc"/><path d="M629.33,323.207a2.931,2.931,0,1,1-2.931-2.926A2.934,2.934,0,0,1,629.33,323.207Z" transform="translate(-622.609 -281.625)" fill="#fff"/><path d="M661.794,321.007a1.723,1.723,0,0,1-1.724,1.722h-6.585a1.721,1.721,0,0,1-1.72-1.722h0a1.721,1.721,0,0,1,1.72-1.717h6.585a1.724,1.724,0,0,1,1.724,1.717Z" transform="translate(-583.322 -283.001)" fill="#2278ba"/><path d="M681.073,321.007a1.719,1.719,0,0,1-1.72,1.722h-6.587a1.72,1.72,0,0,1-1.715-1.722h0a1.72,1.72,0,0,1,1.715-1.717h6.587a1.72,1.72,0,0,1,1.72,1.717Z" transform="translate(-556.544 -283.001)" fill="#2278ba"/><path d="M661.422,320.719a1.718,1.718,0,0,1-1.722,1.72h-6.585a1.716,1.716,0,0,1-1.713-1.72h0A1.717,1.717,0,0,1,653.115,319H659.7a1.719,1.719,0,0,1,1.722,1.717Z" transform="translate(-583.826 -283.401)" fill="#e0e0e0"/><path d="M680.71,320.719a1.72,1.72,0,0,1-1.717,1.72h-6.585a1.718,1.718,0,0,1-1.722-1.72h0A1.719,1.719,0,0,1,672.408,319h6.585a1.721,1.721,0,0,1,1.717,1.717Z" transform="translate(-557.051 -283.401)" fill="#e0e0e0"/><g transform="translate(60.987 26.575)"><path d="M700.236,357.367l-28.59-1.35-.067-.471a28.565,28.565,0,0,0-22.236-23.471l-.7-.148,7.33-16.7,1.065.471-6.757,15.4a29.76,29.76,0,0,1,22.373,23.81l26.392,1.244-.953-36.844,1.158-.026Z" transform="translate(-648.643 -315.223)" fill="#2278ba"/></g><g transform="translate(159.72 30.996)"><path d="M690.818,351.784l-.837-.807,17.762-18.413-.966-15.415,1.159-.075,1,15.931Z" transform="translate(-689.981 -317.074)" fill="#2278ba"/></g><path d="M701.389,323.657a2.5,2.5,0,1,1,0-5.006h5.57a2.5,2.5,0,0,1,0,5.006Z" transform="translate(-517.896 -283.888)" fill="#2278ba"/><path d="M708.31,320.731a1.774,1.774,0,0,1-1.775,1.772h-5.57a1.768,1.768,0,0,1-1.775-1.772h0a1.774,1.774,0,0,1,1.775-1.775h5.57a1.78,1.78,0,0,1,1.775,1.775Z" transform="translate(-517.473 -283.465)" fill="#ffca00"/><path d="M724.763,328.427c-3.7-3.716-9.336-9.3-10.048-9.886-.263-.213-.559-.463-.884-.743-2.8-2.376-7.994-6.8-20.046-9.623-4.5-1.053-11.312-1.617-19.7-1.617q-.7,0-1.409,0l31.58,21.864Z" transform="translate(-554.292 -300.679)" fill="#242130" opacity="0.2"/><path d="M683.072,306.658c-4.287.2-8.541.5-12.291.9-2.711.287-8.035,2.135-11.809,3.671l24.1,16.674Z" transform="translate(-573.315 -300.54)" fill="#242130" opacity="0.2"/><path d="M654.623,321.381a7.2,7.2,0,0,0-4.38.377,26.146,26.146,0,0,0-4.746,2.085,32.2,32.2,0,0,0-7.445,5.728,42.993,42.993,0,0,0-4.954,5.947,18,18,0,0,0-1.832,3.337,4.289,4.289,0,0,0-.361,2.84c.1.3.521.191.573-.074a11.8,11.8,0,0,1,.745-2.735,17.7,17.7,0,0,1,1.892-3.083,39.962,39.962,0,0,1,4.815-5.365,33.43,33.43,0,0,1,6.927-5.116,27.274,27.274,0,0,1,4.3-1.9c1.447-.49,3.143-.683,4.466-1.457A.321.321,0,0,0,654.623,321.381Z" transform="translate(-612.457 -280.397)" fill="#83c8fc"/><path d="M728.969,337.718a15.276,15.276,0,0,0-1.8-3.036,25.884,25.884,0,0,0-5.4-5.2A38.847,38.847,0,0,0,715.1,325.6a20.309,20.309,0,0,0-6.327-2.159.144.144,0,0,0-.074.277c1.851.955,3.826,1.655,5.687,2.594a47.173,47.173,0,0,1,6.3,3.931,26.063,26.063,0,0,1,5.252,4.946,14.581,14.581,0,0,1,1.7,2.73,13.051,13.051,0,0,0,1.232,2.845.352.352,0,0,0,.592-.084A4.079,4.079,0,0,0,728.969,337.718Z" transform="translate(-504.402 -277.244)" fill="#83c8fc"/></g><g transform="translate(0 2.614)"><path d="M610.649,348.572l12.686,24.778,10.909-5.859,9.7-.107,18.1-8.707-19.861-29.669-20.328,11.957-4.644,2.573Z" transform="translate(-601.937 -272.123)" fill="#ffc89f"/><g transform="translate(35.183)"><path d="M732.793,305.191H630.015a8.307,8.307,0,0,0-8.283,8.283v71.541a8.306,8.306,0,0,0,8.283,8.278h99.873a8.307,8.307,0,0,0,8.281-8.278V313.474C738.169,308.922,737.355,305.191,732.793,305.191Z" transform="translate(-621.732 -305.191)" fill="#26252e"/><path d="M.866,0H105.439a.868.868,0,0,1,.868.868V78.635a.867.867,0,0,1-.867.867H.866A.866.866,0,0,1,0,78.636V.866A.866.866,0,0,1,.866,0Z" transform="translate(5.064 4.304)" fill="#e0e0e0"/></g><path d="M622.4,334.4,607,338.863l11.3,34.311,18.814-10.4Z" transform="translate(-607.001 -264.641)" fill="#ff4140"/><path d="M662.722,349.882c-1.779,5.274-10.965,5.36-18.816,8.928H625.923a2.1,2.1,0,0,1-2.071-2.073v-28.6c11.25-.872,38.516-2.795,42.808,1.395C673.241,335.965,664.281,345.27,662.722,349.882Z" transform="translate(-583.605 -275.004)" fill="#62b2f0"/><path d="M685.473,316.229v24.221a30.073,30.073,0,0,1-5.579,1.517s-28.315.836-23.249-16.588c1.5-5.164,7.17-10.18,10.39-10.906C669.083,314.013,678.455,315.916,685.473,316.229Z" transform="translate(-538.918 -292.402)" fill="#699626"/><path d="M705.8,321.8c.366-.375.743-.728,1.125-1.07H730.16v-5.954h-38.7v-7.779h-5.955v3.081h-8.988v2.978h8.988V324.5H658.41v-17.51h-2.978V324.5h-8.023l-16.32-17.51h-4.07l16.32,17.51H623.852v2.978h31.58v16.965h-31.58V350.4h49.933a1.412,1.412,0,0,1,.11.1,11.085,11.085,0,0,1,2.214,3.492,27.125,27.125,0,0,1,2.331,10.127,11.355,11.355,0,0,1,0,1.892,11.561,11.561,0,0,1-.272,1.978,18.653,18.653,0,0,1-3.029,5.978c-2.931,4.072-6.8,7.395-10.328,10.92q-.8.8-1.586,1.617h5.959c.7-.707,1.419-1.4,2.13-2.1,3.7-3.642,7.259-7.526,9.463-12.284a18.546,18.546,0,0,0,1.235-10.559,26.784,26.784,0,0,0-3.614-10.779c-.081-.127-.158-.256-.246-.375h7.356v36.1h5.955v-9.012h38.7v-2.978h-38.7V361.219h38.7v-2.978h-23.5a1.3,1.3,0,0,0,.129-1.273,46.22,46.22,0,0,0-5.4-9.224A16.012,16.012,0,0,1,698.1,338.6c.017-4.2,1.7-8.164,3.824-11.718A26.093,26.093,0,0,1,705.8,321.8Zm-20.292,22.65H658.41V327.48h27.095Zm9.432-6.848a18.4,18.4,0,0,0,3.134,10.968c2.011,3.212,4.555,6.047,6.212,9.475a1.471,1.471,0,0,0,.115.2H691.46V320.726h11.4a29.742,29.742,0,0,0-3.057,3.762A25.913,25.913,0,0,0,694.937,337.6Z" transform="translate(-583.605 -302.69)" fill="#fff"/><rect width="11.97" height="3.858" transform="translate(57.768 26.205)" fill="#ccc"/><rect width="11.977" height="3.858" transform="translate(77.657 26.205)" fill="#ccc"/><rect width="3.86" height="7.175" transform="translate(96.117 33.455)" fill="#ccc"/><rect width="7.17" height="3.865" transform="translate(92.912 36.765)" fill="#ccc"/><rect width="7.692" height="6.263" transform="translate(92.284 26.205)" fill="#ccc"/><rect width="11.975" height="3.863" transform="translate(111.439 6.498)" fill="#ccc"/><rect width="11.97" height="3.863" transform="translate(128.923 6.498)" fill="#ccc"/><rect width="11.973" height="8.707" transform="translate(85.068 11.644)" fill="#ccc"/><rect width="11.975" height="8.707" transform="translate(111.439 60.959)" fill="#ccc"/><rect width="11.977" height="8.712" transform="translate(77.657 31.579)" fill="#ccc"/><rect width="7.674" height="8.707" transform="translate(62.683 6.004)" fill="#ccc"/><rect width="11.968" height="3.863" transform="translate(52.107 36.429)" fill="#ccc"/><rect width="6.591" height="3.858" transform="translate(49.889 26.205)" fill="#ccc"/><rect width="6.587" height="3.863" transform="translate(76.538 16.488)" fill="#ccc"/><rect width="6.582" height="3.863" transform="translate(43.885 16.488)" fill="#ccc"/><rect width="6.587" height="3.863" transform="translate(63.814 16.488)" fill="#ccc"/><rect width="6.58" height="3.858" transform="translate(41.691 26.205)" fill="#ccc"/><rect width="3.86" height="8.189" transform="translate(65.878 31.841)" fill="#ccc"/><rect width="3.86" height="8.192" transform="translate(76.538 6.263)" fill="#ccc"/><g transform="translate(122.147 28.651)"><path d="M672.566,365.7c.6.53,1.12.948,1.12.948l5.649-10.535c-3.31-4.657-11.833-10.039-11.833-10.039l-.289-2.517c6.664-3.654,3.3-9.723,2.689-10.707s-2.923.681-2.923.681l-8.837,7.751,1.681,12.439C661.352,355.827,669.7,363.2,672.566,365.7Z" transform="translate(-658.142 -295.872)" fill="#ffc89f"/><path d="M664.741,349.06l2.2,8.763,23.381-.053-1.619-11.658C686.142,346.536,667.39,348.647,664.741,349.06Z" transform="translate(-648.98 -277.024)" fill="#ffc89f"/><path d="M696.707,383.209s2.63-7.34,2.63-7.428c.1-2.646.638-17.892-1.4-27.362l-.733-5.08a4.152,4.152,0,0,0-8.061-.8l-.069-.783a4.426,4.426,0,0,0-8.625-.738l-.079-.738a4.432,4.432,0,1,0-8.773,1.252l0,0c-.067.01-.129,0-.193,0l-3.58-20.55a4.61,4.61,0,1,0-9.076,1.619s6.341,38.719,6.523,39.092l1.767,9.938-2.9,8.479c.373.384,8.512,7.017,8.512,7.017l2.728,10.851,23.381-.053Z" transform="translate(-657.407 -317.187)" fill="#ffc89f"/><path d="M695.891,346.113l-32.4,5.146,1.108,18.377,37.052-5.614Z" transform="translate(-650.723 -277.024)" fill="#ff4140"/></g><path d="M628.3,324.87a1.558,1.558,0,1,0-1.562,1.555A1.559,1.559,0,0,0,628.3,324.87Z" transform="translate(-581.759 -280.03)" fill="#ff4140"/><g transform="translate(17.683 33.494)"><path d="M621.6,330.812l15.076-10.638s2.123-1.954,3.193-.287c.618.974,2.312,6.372-3.1,10.309-1.6,1.177-6.391,5.443-6.391,5.443s1.323,10.6-.879,16.284l-15.1,3.877,1.937-10.426S620.926,332.589,621.6,330.812Z" transform="translate(-614.405 -319.214)" fill="#ffc89f"/></g><g transform="translate(44.979 14.195)"><rect width="0.693" height="0.513" transform="translate(0 30.388)" fill="#ff4140"/><path d="M681.467,324.371h-1.4v-.514h1.4Zm-2.8,0h-1.4v-.514h1.4Zm-2.8,0h-1.407v-.514h1.407Zm-2.814,0h-1.4v-.514h1.4Zm-2.806,0h-1.4v-.514h1.4Zm-2.809,0h-1.407v-.514h1.407Zm-2.807,0h-1.4v-.514h1.4Zm-2.809,0h-1.4v-.514h1.4Zm-2.811,0h-1.4v-.514H659Zm-2.8,0h-1.407v-.514H656.2Zm-2.811,0h-1.4v-.514h1.4Zm-2.8,0h-1.407v-.514h1.407Zm-2.809,0h-1.4v-.514h1.4Zm-2.809,0h-1.4v-.514h1.4Zm-2.811,0h-1.4v-.514h1.4Zm-2.807,0h-1.407v-.514h1.407Zm-2.811,0h-1.4v-.514h1.4Zm-2.809,0h-1.4v-.514h1.4Zm-2.807,0h-1.4v-.514h1.4Zm-2.807,0h-1.407v-.514h1.407Z" transform="translate(-624.618 -293.469)" fill="#ff4140"/><path d="M651.168,324.618h-.942v-.513h.429v-.427h.513Z" transform="translate(-591.967 -293.717)" fill="#ff4140"/><path d="M650.919,338.357h-.513v-1.38h.513Zm0-2.763h-.513v-1.381h.513Zm0-2.761h-.513v-1.381h.513Zm0-2.763h-.513v-1.381h.513Zm0-2.761h-.513v-1.383h.513Zm0-2.766h-.513v-1.381h.513Zm0-2.763h-.513V320.4h.513Zm0-2.764h-.513v-1.378h.513Zm0-2.763h-.513v-1.383h.513Zm0-2.763h-.513v-1.381h.513Z" transform="translate(-591.717 -309.782)" fill="#ff4140"/><path d="M650.918,312.079H650.4v-.945h.945v.515h-.431Z" transform="translate(-591.717 -311.133)" fill="#ff4140"/><path d="M687.215,311.65h-1.333v-.516h1.333Zm-2.658,0h-1.328v-.516h1.328Zm-2.658,0H680.57v-.516H681.9Zm-2.656,0h-1.323v-.516h1.323Zm-2.653,0h-1.33v-.516h1.33Zm-2.656,0H672.6v-.516h1.33Zm-2.656,0h-1.33v-.516h1.33Zm-2.661,0h-1.323v-.516h1.323Zm-2.656,0h-1.323v-.516h1.323Zm-2.651,0h-1.328v-.516h1.328Zm-2.658,0h-1.328v-.516h1.328Zm-2.654,0h-1.331v-.516H658Zm-2.654,0h-1.333v-.516h1.333Zm-2.661,0h-1.326v-.516h1.326Z" transform="translate(-590.395 -311.134)" fill="#ff4140"/><rect width="0.688" height="0.515" transform="translate(98.141 0.001)" fill="#ff4140"/></g><path d="M653.818,329.129l-8.53-3.263,8.53-3.27Z" transform="translate(-553.842 -281.025)" fill="#ff4140"/></g><g transform="translate(40.247 6.918)"><path d="M665.531,306.993l-41.679,41.672V327.857l20.864-20.864Z" transform="translate(-623.852 -306.993)" fill="#fff" opacity="0.3"/></g><g transform="translate(40.247 6.918)"><path d="M713.407,306.993l-79.5,79.5h-7.982a2.1,2.1,0,0,1-2.071-2.071V358.67l51.679-51.676Z" transform="translate(-623.852 -306.993)" fill="#fff" opacity="0.3"/></g></g><g transform="translate(901.975 320.456)"><g transform="translate(13.717)"><path d="M885.126,332.7a7.39,7.39,0,0,1-7.366,7.368H728.654a7.39,7.39,0,0,1-7.373-7.368V246.365a7.384,7.384,0,0,1,7.373-7.354H877.761a7.384,7.384,0,0,1,7.366,7.354Z" transform="translate(-721.281 -239.011)" fill="#15202e"/><path d="M877.761,239.011H728.654a7.384,7.384,0,0,0-7.373,7.354V332.7a7.39,7.39,0,0,0,7.373,7.368H877.761a7.39,7.39,0,0,0,7.366-7.368V246.365A7.384,7.384,0,0,0,877.761,239.011Z" transform="translate(-721.281 -239.011)" fill="#1c1c1f"/><path d="M871.351,241.766H728.175a4.442,4.442,0,0,0-4.416,4.426v79.051a4.425,4.425,0,0,0,4.416,4.419H871.351a4.438,4.438,0,0,0,4.419-4.419V246.192A4.455,4.455,0,0,0,871.351,241.766Z" transform="translate(-717.841 -235.186)" fill="#83c8fc"/></g><path d="M811.981,281.323H715.538v1.744a13.276,13.276,0,0,0,13.27,13.275H893.547a13.282,13.282,0,0,0,13.277-13.275v-1.744Z" transform="translate(-715.538 -180.263)" fill="#26252e"/><path d="M890.775,281.323a13.276,13.276,0,0,1-12.831,9.864H716.7a13.249,13.249,0,0,0,10.495,5.154H891.934a13.282,13.282,0,0,0,13.277-13.275v-1.744Z" transform="translate(-713.925 -180.263)" fill="#1c1c1f"/></g><rect width="71.549" height="82.094" transform="translate(924.857 329.39)" fill="#fff"/><rect width="70.296" height="82.094" transform="translate(1000.24 329.39)" fill="#fff"/><g transform="translate(1004.999 358.146)"><g transform="translate(2.904 26.488)"><path d="M768.768,269.041v7.841a3.155,3.155,0,0,1-3.11,3.124H763.05a3.161,3.161,0,0,1-3.162-3.16v-7.805a3.161,3.161,0,0,1,3.162-3.16h2.563A3.156,3.156,0,0,1,768.768,269.041Z" transform="translate(-759.887 -265.881)" fill="#1c1c1f"/><g transform="translate(3.513 7.621)"><rect width="0.485" height="6.505" transform="translate(1.379)" fill="#26252e"/><rect width="0.485" height="6.505" fill="#26252e"/></g><g transform="translate(5.169 6.004)"><path d="M765.765,269.292V270l-3.506,3.529-.207.205v-.7l.207-.205Z" transform="translate(-762.052 -267.149)" fill="#26252e"/><path d="M765.765,270.19v.709l-3.112,3.125h-.6v-.1l.207-.2Z" transform="translate(-762.052 -265.903)" fill="#26252e"/><path d="M765.765,268.395v.709l-3.506,3.529-.207.2v-.7l.207-.205Z" transform="translate(-762.052 -268.395)" fill="#26252e"/></g><g transform="translate(0 6.004)"><path d="M759.888,269.292V270l3.513,3.529.205.205v-.7l-.205-.205Z" transform="translate(-759.888 -267.149)" fill="#26252e"/><path d="M759.888,270.19v.709L763,274.024h.6v-.1l-.205-.2Z" transform="translate(-759.888 -265.903)" fill="#26252e"/><path d="M759.888,268.395v.709l3.513,3.529.205.2v-.7l-.205-.205Z" transform="translate(-759.888 -268.395)" fill="#26252e"/></g><g transform="translate(38.135)"><path d="M784.734,269.041v7.841a3.158,3.158,0,0,1-3.115,3.124h-2.6a3.159,3.159,0,0,1-3.162-3.16v-7.805a3.159,3.159,0,0,1,3.162-3.16h2.563A3.156,3.156,0,0,1,784.734,269.041Z" transform="translate(-775.854 -265.881)" fill="#1c1c1f"/><g transform="translate(3.514 7.621)"><rect width="0.49" height="6.505" transform="translate(1.369)" fill="#26252e"/><rect width="0.481" height="6.505" fill="#26252e"/></g><g transform="translate(5.167 6.004)"><path d="M781.731,269.292V270l-3.508,3.529-.205.205v-.7l.205-.205Z" transform="translate(-778.018 -267.149)" fill="#26252e"/><path d="M781.731,270.19v.709l-3.114,3.125h-.6v-.1l.205-.2Z" transform="translate(-778.018 -265.903)" fill="#26252e"/><path d="M781.731,268.395v.709l-3.508,3.529-.205.2v-.7l.205-.205Z" transform="translate(-778.018 -268.395)" fill="#26252e"/></g><g transform="translate(0.001 6.004)"><path d="M775.854,269.292V270l3.513,3.529.2.205v-.7l-.2-.205Z" transform="translate(-775.854 -267.149)" fill="#26252e"/><path d="M775.854,270.19v.709l3.112,3.125h.6v-.1l-.2-.2Z" transform="translate(-775.854 -265.903)" fill="#26252e"/><path d="M775.854,268.395v.709l3.513,3.529.2.2v-.7l-.2-.205Z" transform="translate(-775.854 -268.395)" fill="#26252e"/></g></g></g><path d="M783.964,258.953l-3.277,0a1.778,1.778,0,0,0-1.779,1.779c0,.038,0,.074,0,.11l-2.472,1.87.4.535,2.259-1.705a1.792,1.792,0,0,0,1.584.979h3.272a1.783,1.783,0,0,0,0-3.566Z" transform="translate(-734.002 -249.015)" fill="#26252e"/><path d="M760.849,258.95l3.277,0a1.779,1.779,0,0,1,1.777,1.779c0,.038-.007.074-.007.11l2.467,1.877-.4.533-2.26-1.71a1.768,1.768,0,0,1-1.576.974h-3.279a1.783,1.783,0,1,1,0-3.566Z" transform="translate(-758.13 -249.016)" fill="#26252e"/><g transform="translate(0 14.641)"><path d="M811.445,268.925a4.056,4.056,0,0,0-.836-2.045q-2.164-2.547-4.4-5.032a3,3,0,0,0-1.932-.9q-9.734,0-19.464-.012l-18.907-.014a3.009,3.009,0,0,0-1.937.9q-2.232,2.49-4.4,5.03a4,4,0,0,0-.838,2.04c-.041.678-.05,1.015-.065,1.7v0a80.782,80.782,0,0,0,.547,9.642,3.742,3.742,0,0,0,3.743,2.811q10.927,0,21.854.01,11.189.007,22.373.014a3.733,3.733,0,0,0,3.747-2.8c.06-.42.091-.628.136-1.051h0A58.6,58.6,0,0,0,811.445,268.925Z" transform="translate(-758.672 -260.921)" fill="#fdab13"/></g><g transform="translate(5.587)"><g transform="translate(20.545)"><path d="M785.969,256.936a.482.482,0,0,0,.01-.053c0-1.151-7.263-2.087-16.22-2.092h-.146v15.315l20.961.012Z" transform="translate(-769.613 -254.791)" fill="#ffca00"/></g><path d="M765.48,256.864a.247.247,0,0,0,.009.053L761.011,270.1l20.545.007V254.791C772.664,254.8,765.48,255.72,765.48,256.864Z" transform="translate(-761.011 -254.791)" fill="#ffca00"/></g><path d="M795.729,256.68c-1.244-.621-6.872-1.414-15.155-1.416h-.215c-8.166.007-13.712.786-14.947,1.4l-3.54,10.987,18.487.01,18.9.012Z" transform="translate(-754.227 -254.134)" fill="#26252e"/><path d="M.416,0H18.247a.415.415,0,0,1,.415.415V6.192a.416.416,0,0,1-.416.416H.412A.412.412,0,0,1,0,6.2V.416A.416.416,0,0,1,.416,0Z" transform="translate(17.092 23.993)" fill="#26252e"/><g transform="translate(2.028 18.174)"><path d="M762.278,262.4l-.043,0v5.813h-.5v2.5h6.2v-2.5A5.742,5.742,0,0,0,762.278,262.4Z" transform="translate(-756.453 -262.4)" fill="#ffca00"/><g transform="translate(0 3.982)"><path d="M763.027,271.189a3.512,3.512,0,0,1-3.506-3.506v-.107a3.512,3.512,0,0,1,3.506-3.509h.05l.043.014c2.018.6,8.572,2.7,8.195,4.466-.387,1.8-1.352,2.642-3.026,2.642Z" transform="translate(-759.521 -264.067)" fill="#f5a105"/><path d="M770.8,268.286c-.334,1.543-1.087,2.384-2.7,2.384h-5.262a3.179,3.179,0,0,1-3.179-3.177v-.107a3.183,3.183,0,0,1,3.179-3.181S771.149,266.683,770.8,268.286Z" transform="translate(-759.331 -263.877)" fill="#fff"/></g><g transform="translate(36.984)"><path d="M780.8,262.4l.041,0v5.813h.5v2.5h-6.205v-2.5A5.745,5.745,0,0,1,780.8,262.4Z" transform="translate(-774.817 -262.4)" fill="#ffca00"/><g transform="translate(0 3.982)"><path d="M783.309,271.189a3.506,3.506,0,0,0,3.5-3.506v-.107a3.507,3.507,0,0,0-3.5-3.509h-.05l-.048.014c-2.013.6-8.572,2.7-8.19,4.466.389,1.8,1.347,2.642,3.024,2.642Z" transform="translate(-775.005 -264.067)" fill="#f5a105"/><path d="M775.153,268.286c.33,1.543,1.085,2.384,2.7,2.384h5.264a3.175,3.175,0,0,0,3.174-3.177v-.107a3.179,3.179,0,0,0-3.174-3.181S774.809,266.683,775.153,268.286Z" transform="translate(-774.815 -263.877)" fill="#fff"/></g></g></g><g transform="translate(7.646 1.455)"><path d="M762.855,262.32l-.982,3.037,18.487.012,18.9.012-2.715-8.467Z" transform="translate(-761.873 -253.299)" fill="#26252e"/><path d="M795.159,256.816c-1.244-.623-6.872-1.414-15.155-1.416h-.215c-8.166.007-13.712.783-14.947,1.4l-2.558,7.949,33.689-5.405Z" transform="translate(-761.302 -255.4)" fill="#242130" opacity="0.2"/></g><path d="M802.3,267.874l-.838,1.244H768.417l-.831-1.244h-8.8c.079.9.165,1.8.27,2.706a3.744,3.744,0,0,0,3.743,2.811q10.931,0,21.857.01l22.37.014a3.735,3.735,0,0,0,3.747-2.8c.057-.42.089-.628.139-1.051h0c.072-.559.131-1.123.179-1.686Z" transform="translate(-758.516 -236.626)" fill="#1c1c1f"/><path d="M.352,0H16.3a.35.35,0,0,1,.35.35V2.688a.352.352,0,0,1-.352.352H.352A.352.352,0,0,1,0,2.687V.352A.352.352,0,0,1,.352,0Z" transform="translate(18.105 33.052)" fill="#fff"/></g><g transform="translate(934.675 358.146)"><g transform="translate(2.904 26.488)"><path d="M739.328,269.041v7.841a3.156,3.156,0,0,1-3.112,3.124h-2.608a3.163,3.163,0,0,1-3.162-3.16v-7.805a3.162,3.162,0,0,1,3.162-3.16h2.563A3.158,3.158,0,0,1,739.328,269.041Z" transform="translate(-730.444 -265.881)" fill="#1c1c1f"/><g transform="translate(3.513 7.621)"><rect width="0.485" height="6.505" transform="translate(1.378)" fill="#26252e"/><rect width="0.485" height="6.505" fill="#26252e"/></g><g transform="translate(5.169 6.004)"><path d="M736.322,269.292V270l-3.506,3.529-.208.205v-.7l.208-.205Z" transform="translate(-732.609 -267.149)" fill="#26252e"/><path d="M736.322,270.19v.709l-3.112,3.125h-.6v-.1l.208-.2Z" transform="translate(-732.609 -265.903)" fill="#26252e"/><path d="M736.322,268.395v.709l-3.506,3.529-.208.2v-.7l.208-.205Z" transform="translate(-732.609 -268.395)" fill="#26252e"/></g><g transform="translate(0 6.004)"><path d="M730.445,269.292V270l3.513,3.529.205.205v-.7l-.205-.205Z" transform="translate(-730.445 -267.149)" fill="#26252e"/><path d="M730.445,270.19v.709l3.116,3.125h.6v-.1l-.205-.2Z" transform="translate(-730.445 -265.903)" fill="#26252e"/><path d="M730.445,268.395v.709l3.513,3.529.205.2v-.7l-.205-.205Z" transform="translate(-730.445 -268.395)" fill="#26252e"/></g><g transform="translate(38.136)"><path d="M755.29,269.041v7.841a3.158,3.158,0,0,1-3.112,3.124h-2.606a3.158,3.158,0,0,1-3.16-3.16v-7.805a3.157,3.157,0,0,1,3.16-3.16h2.563A3.155,3.155,0,0,1,755.29,269.041Z" transform="translate(-746.411 -265.881)" fill="#1c1c1f"/><g transform="translate(3.513 7.621)"><rect width="0.49" height="6.505" transform="translate(1.369)" fill="#26252e"/><rect width="0.481" height="6.505" fill="#26252e"/></g><g transform="translate(5.166 6.004)"><path d="M752.288,269.292V270l-3.508,3.529-.205.205v-.7l.205-.205Z" transform="translate(-748.575 -267.149)" fill="#26252e"/><path d="M752.288,270.19v.709l-3.114,3.125h-.6v-.1l.205-.2Z" transform="translate(-748.575 -265.903)" fill="#26252e"/><path d="M752.288,268.395v.709l-3.508,3.529-.205.2v-.7l.205-.205Z" transform="translate(-748.575 -268.395)" fill="#26252e"/></g><g transform="translate(0 6.004)"><path d="M746.412,269.292V270l3.512,3.529.2.205v-.7l-.2-.205Z" transform="translate(-746.412 -267.149)" fill="#26252e"/><path d="M746.412,270.19v.709l3.112,3.125h.6v-.1l-.2-.2Z" transform="translate(-746.412 -265.903)" fill="#26252e"/><path d="M746.412,268.395v.709l3.512,3.529.2.2v-.7l-.2-.205Z" transform="translate(-746.412 -268.395)" fill="#26252e"/></g></g></g><path d="M754.519,258.953l-3.277,0a1.778,1.778,0,0,0-1.779,1.779c0,.038.007.074.007.11L747,262.71l.4.535,2.259-1.705a1.792,1.792,0,0,0,1.584.979h3.272a1.783,1.783,0,0,0,0-3.566Z" transform="translate(-704.558 -249.015)" fill="#26252e"/><path d="M731.407,258.95l3.275,0a1.779,1.779,0,0,1,1.777,1.779c0,.038-.007.074-.007.11l2.467,1.877-.4.533-2.259-1.71a1.768,1.768,0,0,1-1.576.974H731.4a1.783,1.783,0,1,1,0-3.566Z" transform="translate(-728.686 -249.016)" fill="#26252e"/><g transform="translate(0 14.641)"><path d="M782,268.925a4.08,4.08,0,0,0-.838-2.045q-2.161-2.547-4.4-5.032a2.989,2.989,0,0,0-1.93-.9q-9.738,0-19.466-.012l-18.907-.014a3,3,0,0,0-1.935.9q-2.232,2.49-4.4,5.03a4,4,0,0,0-.838,2.04c-.04.678-.05,1.015-.065,1.7v0a80.769,80.769,0,0,0,.547,9.642,3.742,3.742,0,0,0,3.743,2.811q10.931,0,21.854.01,11.189.007,22.373.014a3.734,3.734,0,0,0,3.747-2.8c.06-.42.091-.628.136-1.051h0A58.806,58.806,0,0,0,782,268.925Z" transform="translate(-729.229 -260.921)" fill="#62b2f0"/></g><g transform="translate(5.587)"><path d="M756.526,256.936a.479.479,0,0,0,.009-.053c0-1.151-7.263-2.087-16.22-2.092h-.146v15.315l20.961.012Z" transform="translate(-719.625 -254.791)" fill="#2278ba"/><path d="M736.037,256.864a.247.247,0,0,0,.01.053L731.568,270.1l20.546.007V254.791C743.221,254.8,736.037,255.72,736.037,256.864Z" transform="translate(-731.568 -254.791)" fill="#2278ba"/></g><path d="M766.286,256.68c-1.244-.621-6.871-1.414-15.155-1.416h-.215c-8.166.007-13.712.786-14.945,1.4l-3.542,10.987,18.487.01,18.9.012Z" transform="translate(-724.784 -254.134)" fill="#26252e"/><path d="M.416,0H18.247a.415.415,0,0,1,.415.415V6.192a.416.416,0,0,1-.416.416H.412A.412.412,0,0,1,0,6.2V.416A.416.416,0,0,1,.416,0Z" transform="translate(17.093 23.993)" fill="#26252e"/><g transform="translate(2.03 18.174)"><path d="M732.834,262.4l-.043,0v5.813h-.5v2.5h6.2v-2.5A5.741,5.741,0,0,0,732.834,262.4Z" transform="translate(-727.011 -262.4)" fill="#2278ba"/><g transform="translate(0 3.982)"><path d="M733.583,271.189a3.51,3.51,0,0,1-3.5-3.506v-.107a3.51,3.51,0,0,1,3.5-3.509h.05l.043.014c2.018.6,8.572,2.7,8.195,4.466-.387,1.8-1.35,2.642-3.026,2.642Z" transform="translate(-730.079 -264.067)" fill="#f5a105"/><path d="M741.357,268.286c-.332,1.543-1.087,2.384-2.7,2.384h-5.262a3.179,3.179,0,0,1-3.179-3.177v-.107a3.183,3.183,0,0,1,3.179-3.181S741.706,266.683,741.357,268.286Z" transform="translate(-729.89 -263.877)" fill="#fff"/></g><g transform="translate(36.981)"><path d="M751.357,262.4l.041,0v5.813h.5v2.5h-6.2v-2.5A5.743,5.743,0,0,1,751.357,262.4Z" transform="translate(-745.373 -262.4)" fill="#2278ba"/><g transform="translate(0 3.982)"><path d="M753.869,271.189a3.506,3.506,0,0,0,3.5-3.506v-.107a3.506,3.506,0,0,0-3.5-3.509h-.053l-.048.014c-2.013.6-8.57,2.7-8.19,4.466.389,1.8,1.347,2.642,3.024,2.642Z" transform="translate(-745.563 -264.067)" fill="#f5a105"/><path d="M745.711,268.286c.327,1.543,1.084,2.384,2.7,2.384h5.266a3.176,3.176,0,0,0,3.174-3.177v-.107a3.18,3.18,0,0,0-3.174-3.181S745.365,266.683,745.711,268.286Z" transform="translate(-745.37 -263.877)" fill="#fff"/></g></g></g><g transform="translate(7.646 1.455)"><path d="M733.412,262.32l-.982,3.037,18.487.012,18.9.012-2.715-8.467Z" transform="translate(-732.43 -253.299)" fill="#26252e"/><path d="M765.716,256.816c-1.244-.623-6.871-1.414-15.155-1.416h-.215c-8.166.007-13.712.783-14.945,1.4l-2.56,7.949,33.689-5.405Z" transform="translate(-731.86 -255.4)" fill="#242130" opacity="0.2"/></g><path d="M772.856,267.874l-.838,1.244H738.974l-.831-1.244h-8.8c.079.9.167,1.8.272,2.706a3.739,3.739,0,0,0,3.74,2.811q10.931,0,21.857.01l22.373.014a3.734,3.734,0,0,0,3.745-2.8c.057-.42.088-.628.138-1.051h0c.072-.559.131-1.123.182-1.686Z" transform="translate(-729.073 -236.626)" fill="#1c1c1f"/><path d="M.352,0H16.3a.35.35,0,0,1,.35.35V2.688a.352.352,0,0,1-.352.352H.352A.352.352,0,0,1,0,2.687V.352A.352.352,0,0,1,.352,0Z" transform="translate(18.105 33.052)" fill="#fff"/></g><g transform="translate(928.093 338.214)"><path d="M726.473,248.772a2.111,2.111,0,0,1,2.362-2.3s3.831.107,4.789.239v1.72h-4.3c-.774,0-.774.432-.774.834v1.7l4.392.158v1.71l-4.392.143v4.385h-2.08Z" transform="translate(-726.473 -246.405)" fill="#ff4140"/><path d="M734.268,246.446c2.572,0,4.366.49,4.366,5.589,0,4.8-1.689,5.427-4.366,5.427s-4.378-.475-4.378-5.427C729.89,246.936,731.77,246.446,734.268,246.446Zm0,9.1c1.746,0,2.283-.576,2.283-3.509,0-3.389-.628-3.673-2.283-3.673-1.61,0-2.3.208-2.3,3.673C731.973,255.006,732.407,255.544,734.268,255.544Z" transform="translate(-721.729 -246.446)" fill="#ff4140"/><path d="M734.079,246.476h4.763c1.7,0,2.962.8,2.962,3.4,0,2.694-1.127,3.014-1.731,3.2l2.061,4.287H739.79l-1.8-4.12-1.83-.208v4.328h-2.083Zm4.557,4.923c.726,0,1.07-.213,1.07-1.526,0-1.237-.413-1.545-1.07-1.545h-2.467V251.4Z" transform="translate(-715.912 -246.404)" fill="#ff4140"/><path d="M739.418,246.476h4.763c1.7,0,2.962.8,2.962,3.4,0,2.694-1.127,3.014-1.732,3.2l2.061,4.287h-2.345l-1.8-4.12-1.83-.208v4.328h-2.083Zm4.557,4.923c.726,0,1.07-.213,1.07-1.526,0-1.237-.416-1.545-1.07-1.545h-2.467V251.4Z" transform="translate(-708.5 -246.404)" fill="#ff4140"/><path d="M743.243,248.738a2.081,2.081,0,0,1,2.362-2.262s3.833.107,4.789.239v1.72h-4.3c-.774,0-.774.432-.774.834v1.7l4.395.158v1.71l-4.395.143v1.7c.007.788.492.771.924.771h4.147v1.708c-.841.112-4.638.251-4.638.251-.97.045-2.513-.177-2.513-2.183Z" transform="translate(-703.189 -246.405)" fill="#ff4140"/><path d="M746.792,246.476h2.114l4.316,7.034v-7.034H755.3v10.887h-2.083l-4.333-6.953v6.953h-2.1Z" transform="translate(-698.261 -246.404)" fill="#ff4140"/><path d="M750.832,246.476h8.044v1.92H755.85v8.966h-2.083V248.4h-2.935Z" transform="translate(-692.652 -246.404)" fill="#ff4140"/></g><g transform="translate(1002.751 338.214)"><path d="M757.731,248.772a2.112,2.112,0,0,1,2.365-2.3s3.831.107,4.786.239v1.72h-4.294c-.776,0-.776.432-.776.834v1.7l4.395.158v1.71l-4.395.143v4.385h-2.08Z" transform="translate(-757.731 -246.405)" fill="#ff4140"/><path d="M765.526,246.446c2.572,0,4.366.49,4.366,5.589,0,4.8-1.689,5.427-4.366,5.427s-4.378-.475-4.378-5.427C761.148,246.936,763.028,246.446,765.526,246.446Zm0,9.1c1.748,0,2.283-.576,2.283-3.509,0-3.389-.626-3.673-2.283-3.673-1.608,0-2.3.208-2.3,3.673C763.231,255.006,763.668,255.544,765.526,255.544Z" transform="translate(-752.987 -246.446)" fill="#ff4140"/><path d="M765.338,246.476H770.1c1.7,0,2.962.8,2.962,3.4,0,2.694-1.13,3.014-1.732,3.2l2.061,4.287h-2.345l-1.8-4.12-1.827-.208v4.328h-2.083ZM769.9,251.4c.726,0,1.07-.213,1.07-1.526,0-1.237-.415-1.545-1.07-1.545h-2.467V251.4Z" transform="translate(-747.169 -246.404)" fill="#ff4140"/><path d="M770.677,246.476h4.763c1.7,0,2.962.8,2.962,3.4,0,2.694-1.13,3.014-1.734,3.2l2.064,4.287h-2.345l-1.8-4.12-1.827-.208v4.328h-2.083Zm4.557,4.923c.726,0,1.07-.213,1.07-1.526,0-1.237-.416-1.545-1.07-1.545h-2.467V251.4Z" transform="translate(-739.756 -246.404)" fill="#ff4140"/><path d="M774.5,248.738a2.08,2.08,0,0,1,2.362-2.262s3.833.107,4.789.239v1.72h-4.3c-.774,0-.774.432-.774.834v1.7l4.395.158v1.71l-4.395.143v1.7c.007.788.492.771.922.771h4.149v1.708c-.843.112-4.638.251-4.638.251-.972.045-2.513-.177-2.513-2.183Z" transform="translate(-734.445 -246.405)" fill="#ff4140"/><path d="M778.051,246.476h2.111l4.318,7.034v-7.034h2.083v10.887h-2.083l-4.333-6.953v6.953h-2.1Z" transform="translate(-729.518 -246.404)" fill="#ff4140"/><path d="M782.091,246.476h8.044v1.92h-3.026v8.966h-2.083V248.4h-2.935Z" transform="translate(-723.909 -246.404)" fill="#ff4140"/></g><g transform="translate(921.61 327.036)"><path d="M792.24,241.766l-68.481,68.482V296.376l54.613-54.61Z" transform="translate(-723.759 -241.766)" fill="#fff" opacity="0.3"/><path d="M847.362,241.766l-87.893,87.9H728.175a4.425,4.425,0,0,1-4.416-4.419v-1.068l76.808-76.805,5.6-5.6Z" transform="translate(-723.758 -241.766)" fill="#fff" opacity="0.3"/></g><g transform="translate(635.042 254.063)"><g transform="translate(0 41.322)"><path d="M622.226,241.815h-14.2a2.064,2.064,0,0,1-1.923-1.536l-2.29-10.227a1.208,1.208,0,0,1,1.23-1.538h17.18a1.588,1.588,0,0,1,1.581,1.581v10.149A1.578,1.578,0,0,1,622.226,241.815Z" transform="translate(-603.778 -228.514)" fill="#ff4140"/><path d="M619.478,238.646a1.424,1.424,0,0,1,0,2.018h0a1.426,1.426,0,0,1-2.016,0L611.2,234.4a1.406,1.406,0,0,1,0-2.013h0a1.413,1.413,0,0,1,2.016,0Z" transform="translate(-594.063 -223.728)" fill="#cc2221"/><g transform="translate(176.696)"><path d="M681.763,241.815h14.2a2.07,2.07,0,0,0,1.925-1.536l2.288-10.227a1.208,1.208,0,0,0-1.232-1.538h-17.18a1.583,1.583,0,0,0-1.574,1.581v10.149A1.573,1.573,0,0,0,681.763,241.815Z" transform="translate(-674.381 -228.514)" fill="#ff4140"/><path d="M678.177,238.646a1.424,1.424,0,0,0,0,2.018h0a1.426,1.426,0,0,0,2.016,0l6.27-6.267a1.422,1.422,0,0,0,0-2.013h0a1.418,1.418,0,0,0-2.021,0Z" transform="translate(-677.758 -223.728)" fill="#cc2221"/></g></g><g transform="translate(18.003 87.832)"><path d="M642.772,259.182v27.77a11.2,11.2,0,0,1-11.025,11.085H622.5a11.194,11.194,0,0,1-11.185-11.185v-27.67A11.2,11.2,0,0,1,622.5,247.987h9.081A11.192,11.192,0,0,1,642.772,259.182Z" transform="translate(-611.315 -247.987)" fill="#1c1c1f"/><g transform="translate(12.43 27.007)"><rect width="1.723" height="23.044" transform="translate(4.874)" fill="#26252e"/><rect width="1.723" height="23.044" fill="#26252e"/></g><g transform="translate(18.296 21.28)"><path d="M632.137,260.074v2.5l-12.43,12.505-.73.725v-2.493l.73-.733Z" transform="translate(-618.976 -252.485)" fill="#26252e"/><path d="M632.137,263.252v2.506l-11.026,11.085h-2.135v-.356l.73-.73Z" transform="translate(-618.976 -248.072)" fill="#26252e"/><path d="M632.137,256.9v2.5l-12.43,12.494-.73.73v-2.49l.73-.728Z" transform="translate(-618.976 -256.896)" fill="#26252e"/></g><g transform="translate(0 21.28)"><path d="M611.316,260.074v2.5l12.43,12.505.73.725v-2.493l-.73-.733Z" transform="translate(-611.316 -252.485)" fill="#26252e"/><path d="M611.316,263.252v2.506l11.02,11.085h2.14v-.356l-.73-.73Z" transform="translate(-611.316 -248.072)" fill="#26252e"/><path d="M611.316,256.9v2.5l12.43,12.494.73.73v-2.49l-.73-.728Z" transform="translate(-611.316 -256.896)" fill="#26252e"/></g><g transform="translate(135.096)"><path d="M699.327,259.182v27.77A11.2,11.2,0,0,1,688.3,298.037h-9.241a11.187,11.187,0,0,1-11.183-11.185v-27.67a11.189,11.189,0,0,1,11.183-11.195h9.081A11.19,11.19,0,0,1,699.327,259.182Z" transform="translate(-667.878 -247.987)" fill="#1c1c1f"/><g transform="translate(12.428 27.007)"><rect width="1.725" height="23.044" transform="translate(4.871)" fill="#26252e"/><rect width="1.72" height="23.044" fill="#26252e"/></g><g transform="translate(18.294 21.28)"><path d="M688.692,260.074v2.5l-12.425,12.505-.73.725v-2.493l.73-.733Z" transform="translate(-675.537 -252.485)" fill="#26252e"/><path d="M688.692,263.252v2.506l-11.026,11.085h-2.129v-.356l.73-.73Z" transform="translate(-675.537 -248.072)" fill="#26252e"/><path d="M688.692,256.9v2.5l-12.425,12.494-.73.73v-2.49l.73-.728Z" transform="translate(-675.537 -256.896)" fill="#26252e"/></g><g transform="translate(0 21.28)"><path d="M667.878,260.074v2.5l12.427,12.505.72.725v-2.493l-.72-.733Z" transform="translate(-667.878 -252.485)" fill="#26252e"/><path d="M667.878,263.252v2.506L678.9,276.843h2.124v-.356l-.72-.73Z" transform="translate(-667.878 -248.072)" fill="#26252e"/><path d="M667.878,256.9v2.5l12.427,12.494.72.73v-2.49l-.72-.728Z" transform="translate(-667.878 -256.896)" fill="#26252e"/></g></g></g><g transform="translate(15.037 64.509)"><path d="M782.547,253.162v32.911A12.3,12.3,0,0,1,771.608,298a944.894,944.894,0,0,1-136.629,1.01q-6.972-.441-13.956-1.01a12.142,12.142,0,0,1-8.558-4.949,11.933,11.933,0,0,1-2.391-6.984V253.162a12.171,12.171,0,0,1,3.559-8.364,11.66,11.66,0,0,1,1.259-1.115,12,12,0,0,1,4.318-2.135,10.936,10.936,0,0,1,1.813-.325,946.457,946.457,0,0,1,150.585,0,12.32,12.32,0,0,1,10.939,11.94Z" transform="translate(-610.074 -238.222)" fill="#cc2221"/></g><g transform="translate(12.095 55.374)"><path d="M787.209,249.84v34.043a12.728,12.728,0,0,1-11.323,12.339A977.441,977.441,0,0,1,634.6,297.27q-7.226-.469-14.438-1.048a12.518,12.518,0,0,1-8.852-5.118,12.337,12.337,0,0,1-2.47-7.22V249.84a12.566,12.566,0,0,1,3.671-8.644,13.682,13.682,0,0,1,1.3-1.151,12.259,12.259,0,0,1,4.476-2.209,11.268,11.268,0,0,1,1.87-.334,977.974,977.974,0,0,1,155.722,0,12.416,12.416,0,0,1,7.9,3.962A12.552,12.552,0,0,1,787.209,249.84Z" transform="translate(-608.842 -234.397)" fill="#ff4140"/></g><path d="M773.672,267.807c-4.591-11.818-8.505-23.877-12.255-35.975-2.959-7.567-10.146-15.384-18.406-16.939a340.876,340.876,0,0,0-100.272.055c-8.25,1.555-15.415,9.382-18.346,16.948-3.664,12.071-7.5,24.095-11.966,35.91A333.089,333.089,0,0,0,773.672,267.807Z" transform="translate(-591.77 -211.213)" fill="#ff4140"/><path d="M613.528,264.21s7.889-23.125,10.9-33.032c2.536-6.463,8.878-13.7,16.16-15.1a337.618,337.618,0,0,1,99.352-.05c7.283,1.392,13.66,8.627,16.232,15.1,3.074,9.936,11.147,33.08,11.147,33.08Z" transform="translate(-590.241 -209.592)" fill="#26252e"/><path d="M662.334,218.191a3.35,3.35,0,0,1-3.349,3.349H644.672a3.35,3.35,0,0,1-3.348-3.349h0a3.347,3.347,0,0,1,3.348-3.349h14.314a3.346,3.346,0,0,1,3.349,3.349Z" transform="translate(-551.649 -206.175)" fill="#1c1c1f"/><g transform="translate(43.966 24.588)"><path d="M660.11,251.493V229.882a8.371,8.371,0,0,0-8.372-8.374H630.558a8.371,8.371,0,0,0-8.372,8.374v21.611Z" transform="translate(-622.186 -221.508)" fill="#1c1c1f"/><path d="M691.308,251.493V229.882a8.374,8.374,0,0,0-8.376-8.374H661.753a8.372,8.372,0,0,0-8.374,8.374v21.611Z" transform="translate(-578.876 -221.508)" fill="#1c1c1f"/></g><path d="M783.018,241.75l-5.925-6.843H616.125l-6.173,6.843Z" transform="translate(-595.207 -178.315)" fill="#ff4140"/><path d="M.878,0H46.243a.878.878,0,0,1,.878.878v8.33a.877.877,0,0,1-.877.877H.878A.878.878,0,0,1,0,9.207V.878A.878.878,0,0,1,.878,0Z" transform="translate(77.704 115.029)" fill="#26252e"/><path d="M769.574,238.1l-17.851,14.816a10.5,10.5,0,0,1-6.709,2.914H638.74a10.5,10.5,0,0,1-6.7-2.914L614.132,238.1c-1.5-1.612-.943-2.911,1.259-2.911H768.309C770.516,235.188,771.079,236.487,769.574,238.1Z" transform="translate(-590.575 -177.926)" fill="#fa5555"/><g transform="translate(9.398 74.419)"><path d="M638.09,257.7v3.475a6.668,6.668,0,0,1-6.659,6.669H614.37a6.667,6.667,0,0,1-6.656-6.669v-12.14a6.663,6.663,0,0,1,6.656-6.664h5.763a11.693,11.693,0,0,1,6.413,2.3l8.751,7.242A8.559,8.559,0,0,1,638.09,257.7Z" transform="translate(-607.713 -242.371)" fill="#cc2221"/><path d="M613.214,264.685a4.674,4.674,0,0,1-4.669-4.665V247.88a4.682,4.682,0,0,1,4.669-4.677h5.763a9.67,9.67,0,0,1,5.138,1.858l8.749,7.235a6.6,6.6,0,0,1,2.073,4.249v3.475a4.672,4.672,0,0,1-4.662,4.665Z" transform="translate(-606.558 -241.216)" fill="#e0e0e0"/><path d="M671.933,257.7v3.475a6.667,6.667,0,0,0,6.659,6.669h17.061a6.667,6.667,0,0,0,6.654-6.669v-12.14a6.663,6.663,0,0,0-6.654-6.664H689.88a11.683,11.683,0,0,0-6.406,2.3l-8.751,7.242A8.546,8.546,0,0,0,671.933,257.7Z" transform="translate(-518.547 -242.371)" fill="#cc2221"/><path d="M677.431,264.685a4.666,4.666,0,0,1-4.662-4.665v-3.475a6.622,6.622,0,0,1,2.064-4.249l8.754-7.235a9.676,9.676,0,0,1,5.133-1.858h5.773a4.68,4.68,0,0,1,4.665,4.677V260.02a4.671,4.671,0,0,1-4.665,4.665Z" transform="translate(-517.386 -241.216)" fill="#e0e0e0"/></g><rect width="24.676" height="8.271" transform="translate(27.034 107.004)" fill="#cc2221"/><rect width="24.66" height="8.271" transform="translate(150.852 107.004)" fill="#cc2221"/><g transform="translate(24.374 2.789)" opacity="0.3"><g transform="translate(4.722)"><path d="M688.149,212.381q-3.518,0-7.039.074l-63.432,32.578c-.576,1.739-1.154,3.475-1.717,5.161l73.617-37.807C689.1,212.388,688.622,212.381,688.149,212.381Z" transform="translate(-615.96 -212.381)" fill="#242130"/></g><g transform="translate(0 0.041)"><path d="M696.3,212.4l-78.43,40.291c-2.157,6.418-3.888,11.5-3.888,11.5h6.2l98.65-50.664Q707.547,212.588,696.3,212.4Z" transform="translate(-613.983 -212.398)" fill="#242130"/></g><g transform="translate(105.371 30.687)"><path d="M699.27,225.229,658.1,246.376h10.235l32.452-16.659C700.28,228.229,699.769,226.717,699.27,225.229Z" transform="translate(-658.1 -225.229)" fill="#242130"/></g></g><g transform="translate(55.032 81.856)"><path d="M719.314,264.368a10.134,10.134,0,0,1-8.336,9.575,316.311,316.311,0,0,1-75.826,0,10.125,10.125,0,0,1-8.333-9.575v-7.029a10.116,10.116,0,0,1,8.333-9.573,315.329,315.329,0,0,1,75.826.012,10.1,10.1,0,0,1,8.336,9.561Z" transform="translate(-626.819 -245.485)" fill="#ccc"/><path d="M671.529,271.812a317.66,317.66,0,0,1-37.5-2.248,7.336,7.336,0,0,1-5.952-6.857v-6.948a7.321,7.321,0,0,1,5.952-6.848,312.406,312.406,0,0,1,75.012,0,7.339,7.339,0,0,1,5.954,6.848v6.948a7.353,7.353,0,0,1-5.954,6.857A317.714,317.714,0,0,1,671.529,271.812Z" transform="translate(-625.078 -243.864)" fill="#26252e"/></g><g transform="translate(59.823 89.528)"><path d="M711.733,250.412a1.709,1.709,0,0,1-1.717,1.712H630.54a1.708,1.708,0,0,1-1.715-1.712h0a1.718,1.718,0,0,1,1.715-1.715h79.476a1.718,1.718,0,0,1,1.717,1.715Z" transform="translate(-628.825 -248.697)" fill="#1c1c1f"/><path d="M711.733,252.859a1.713,1.713,0,0,1-1.717,1.712H630.54a1.713,1.713,0,0,1-1.715-1.712h0a1.714,1.714,0,0,1,1.715-1.71h79.476a1.714,1.714,0,0,1,1.717,1.71Z" transform="translate(-628.825 -245.293)" fill="#1c1c1f"/><path d="M711.733,255.422a1.709,1.709,0,0,1-1.717,1.705H630.54a1.708,1.708,0,0,1-1.715-1.705h0a1.71,1.71,0,0,1,1.715-1.715h79.476a1.711,1.711,0,0,1,1.717,1.715Z" transform="translate(-628.825 -241.741)" fill="#1c1c1f"/></g><path d="M618.483,249.067a4.532,4.532,0,1,1-4.533-4.531A4.533,4.533,0,0,1,618.483,249.067Z" transform="translate(-595.946 -164.946)" fill="#fff"/><path d="M686.238,249.067a4.53,4.53,0,1,1-4.526-4.531A4.53,4.53,0,0,1,686.238,249.067Z" transform="translate(-501.866 -164.946)" fill="#fff"/><rect width="3.862" height="9.522" transform="translate(98.253 2.79)" fill="#1c1c1f"/><g transform="translate(29.238 101.494)"><rect width="17.866" height="8.311" fill="#e0e0e0"/><rect width="17.866" height="8.311" transform="translate(126.21)" fill="#e0e0e0"/></g><path d="M620.329,259.516a4.5,4.5,0,1,0-4.5,4.5A4.5,4.5,0,0,0,620.329,259.516Z" transform="translate(-593.294 -150.405)" fill="#e0e0e0"/><path d="M686.195,259.516a4.5,4.5,0,1,0-4.5,4.5A4.509,4.509,0,0,0,686.195,259.516Z" transform="translate(-501.849 -150.405)" fill="#e0e0e0"/><path d="M653.5,244.421c0-1.156-2.2-2.095-4.918-2.095s-4.915.939-4.915,2.095,2.195,2.1,4.915,2.1S653.5,245.589,653.5,244.421Z" transform="translate(-548.399 -168.015)" fill="#fff"/></g><g transform="translate(930.561 487.808)"><g transform="translate(58.931 21.7)"><g transform="translate(22.021 30.008)"><path d="M783.775,369.637a4.628,4.628,0,0,0,1.24-5.842L768.668,333.18a4.634,4.634,0,0,0-4.11-2.453,5,5,0,0,0-1.366.2,6.106,6.106,0,0,0-.74.31l20.705,38.8A3.731,3.731,0,0,0,783.775,369.637Z" transform="translate(-759.938 -330.727)" fill="#e0e0e0"/><path d="M763.912,330.939a.152.152,0,0,1-.069.029c-.2.117-.38.217-.566.346a4.69,4.69,0,0,0-1.33,5.952l16.349,30.6a4.606,4.606,0,0,0,4.087,2.455,4.791,4.791,0,0,0,1.426-.217,7.14,7.14,0,0,0,.762-.325c.019-.012.036-.033.048-.038Z" transform="translate(-761.399 -330.433)" fill="#ccc"/></g><g transform="translate(23.89 29.974)"><path d="M783.908,369.657l-20.445-38.514a.794.794,0,0,0-1.1-.327l-.012.017,20.935,39.221A3.726,3.726,0,0,0,783.908,369.657Z" transform="translate(-761.941 -330.713)" fill="#ccc"/><path d="M762.6,330.763a.774.774,0,0,0-.406.8.545.545,0,0,0,.1.27l20.436,38.519a7.162,7.162,0,0,0,.762-.325c.019-.012.036-.033.048-.038Z" transform="translate(-762.182 -330.644)" fill="#e0e0e0"/></g><path d="M767.169,328.575a49.405,49.405,0,0,0-7.6,5.183,2.777,2.777,0,0,1-3.81-.246,2.712,2.712,0,0,1,.506-3.893,53.5,53.5,0,0,1,8.4-5.728l-2.193-4.115c-1.636.877-3.265,1.744-5.443,2.907-3.79,2.023-5.9,7.06-4.335,11.094a78.862,78.862,0,0,0,10.7,20.032c2.484,3.537,7.844,4.586,11.629,2.56,2.185-1.158,3.8-2.03,5.434-2.9Z" transform="translate(-752.179 -315.924)" fill="#ccc"/><path d="M767.97,322.4a2.715,2.715,0,0,1,3.523,1.739,2.778,2.778,0,0,1-1.908,3.308,50.133,50.133,0,0,0-8.4,3.363l13.292,24.892c1.588-.848,3.184-1.7,5.307-2.833,3.793-2.026,5.892-7.06,4.335-11.094a78.4,78.4,0,0,0-10.7-20.029c-2.482-3.542-7.836-4.588-11.632-2.565-2.111,1.127-3.709,1.98-5.293,2.83l2.193,4.115A54.212,54.212,0,0,1,767.97,322.4Z" transform="translate(-746.193 -318.163)" fill="#e0e0e0"/><path d="M790.1,341.78a78.622,78.622,0,0,0-10.7-20.029c-2.482-3.542-7.837-4.588-11.632-2.565-2.111,1.127-3.709,1.98-5.293,2.83-1.636.877-3.265,1.744-5.443,2.907-3.79,2.023-5.9,7.06-4.335,11.094a78.863,78.863,0,0,0,10.7,20.032c2.484,3.537,7.844,4.586,11.629,2.56,2.185-1.158,3.8-2.03,5.434-2.9,1.588-.848,3.184-1.7,5.307-2.833C789.56,350.849,791.66,345.814,790.1,341.78Zm-5.181,9.5-5.31,2.837-5.434,2.907a7.579,7.579,0,0,1-9.3-2.014,76.467,76.467,0,0,1-10.493-19.647,7.556,7.556,0,0,1,3.5-8.844l5.441-2.914,5.3-2.83a7.589,7.589,0,0,1,9.305,2.016,76.428,76.428,0,0,1,10.495,19.643A7.573,7.573,0,0,1,784.922,351.279Z" transform="translate(-752.179 -318.163)" fill="#26252e"/><path d="M773.657,329.871a8.413,8.413,0,0,0-11.309-3.485c-.024.017-.045.022-.069.036a8.4,8.4,0,1,0,7.92,14.825c.022-.007.036-.029.06-.036A8.409,8.409,0,0,0,773.657,329.871Z" transform="translate(-744.333 -308.074)" fill="#1c1c1f"/></g><path d="M778.065,328.235l-9.585-4.808-9.606-4.808a9.24,9.24,0,0,0-12.394,4.13l-18,35.944a9.238,9.238,0,0,0,4.13,12.389l9.611,4.815,9.592,4.8a9.23,9.23,0,0,0,12.386-4.127l17.99-35.941A9.222,9.222,0,0,0,778.065,328.235Zm-2.9,12.293a4.97,4.97,0,1,1,4.973-4.973A4.965,4.965,0,0,1,775.165,340.528Z" transform="translate(-727.506 -297.185)" fill="#26252e"/><path d="M778.063,328.235l-9.585-4.808-9.606-4.808a9.24,9.24,0,0,0-12.394,4.13l-18,35.944a9.244,9.244,0,0,0,4.13,12.389l9.611,4.815,9.592,4.8a9.23,9.23,0,0,0,12.386-4.127l17.99-35.941A9.222,9.222,0,0,0,778.063,328.235Zm2.515,11.579L762.59,375.758a7.4,7.4,0,0,1-6.656,4.111,7.3,7.3,0,0,1-3.313-.786l-9.592-4.8-9.613-4.808a7.445,7.445,0,0,1-3.32-9.974l17.992-35.944a7.4,7.4,0,0,1,6.659-4.111,7.292,7.292,0,0,1,3.315.791l9.618,4.813,9.575,4.8a7.423,7.423,0,0,1,3.322,9.972Z" transform="translate(-727.504 -297.185)" fill="#1c1c1f"/><g transform="translate(12.251 54.334)"><path d="M746.784,332.874l-.019-.019a9.767,9.767,0,0,0-8.735,17.472h.012a9.76,9.76,0,0,0,8.742-17.452Z" transform="translate(-732.635 -331.827)" fill="#e0e0e0"/><path d="M742.195,334.258l-.012,0a5.308,5.308,0,0,0-4.748,9.494l.014,0a5.307,5.307,0,0,0,4.746-9.494Z" transform="translate(-730.045 -329.234)" fill="#ff4140"/></g><path d="M762.839,309.078a20.389,20.389,0,0,0-20.385,20.383,18.725,18.725,0,0,0,.284,3.372,20.261,20.261,0,0,0,7.211,12.43,20.562,20.562,0,0,0,9,4.206,5.032,5.032,0,0,0,.43-2.023,3.951,3.951,0,0,0-.074-.843,17.48,17.48,0,0,1-13.968-17.142,17.5,17.5,0,1,1,34.75,2.971c.385-.2.776-.413,1.19-.633a8.219,8.219,0,0,1,1.88-.714c.05-.544.064-1.08.064-1.624A20.4,20.4,0,0,0,762.839,309.078Zm5.962,36.84a16.175,16.175,0,0,1-3.041.793,17.407,17.407,0,0,1-2.921.251c-.184,0-.365,0-.547-.012a8.29,8.29,0,0,1,0,2.873,4.627,4.627,0,0,0,.547.022,19,19,0,0,0,3.695-.344,17.4,17.4,0,0,0,3.083-.826,20.381,20.381,0,0,0,12.131-11.608,41.813,41.813,0,0,0-4.366,2.109A17.407,17.407,0,0,1,768.8,345.918Z" transform="translate(-706.753 -309.078)" fill="#ccc"/></g><g transform="translate(581.261 255.951)"><path d="M581.261,237.62a25.49,25.49,0,0,0,25.623,25.365L606.624,212A25.487,25.487,0,0,0,581.261,237.62Z" transform="translate(-581.261 -212.004)" fill="#ffca00"/><path d="M591.88,212l.26,50.982A25.491,25.491,0,0,0,591.88,212Z" transform="translate(-566.517 -212.004)" fill="#ff8d23"/><g transform="translate(4.285 4.292)"><path d="M583.055,235.1a21.2,21.2,0,0,0,21.31,21.1l-.213-42.4A21.2,21.2,0,0,0,583.055,235.1Z" transform="translate(-583.055 -213.801)" fill="#ff8d23"/><path d="M591.888,213.8l.212,42.4a21.2,21.2,0,1,0-.212-42.4Z" transform="translate(-570.791 -213.801)" fill="#e87420"/></g><g transform="translate(17.078 10.003)"><path d="M588.411,225.693c-.012-4.849,2.974-6.432,6.7-6.571l-.017-2.914,3.239-.017.014,2.94a22.925,22.925,0,0,1,5.887.984l.022,4.325c-2.042-.16-5.687-.3-7.366-.294-1.961-.017-2.931.155-2.921,2.028l.007.834c.007,1.467.616,2.047,2.415,2.04l2.725-.017c5.03-.026,6.1,4.084,6.114,6.814l.007,1.414c.031,5.768-3.4,7.094-6.762,7.115l.012,2.768-3.234.019-.019-2.816a17.779,17.779,0,0,1-5.954-1l-.019-4.3c1.357.093,4.691.3,7.839.289,1.44-.007,2.589-.351,2.582-1.815l0-.989c0-1.216-.392-1.942-2.057-1.932l-2.627.012c-6.069.033-6.561-4.944-6.573-6.809Z" transform="translate(-588.411 -216.192)" fill="#ffca00"/></g></g><g transform="translate(752.913 290.16)"><rect width="9.112" height="11.812" transform="matrix(0.738, -0.675, 0.675, 0.738, 57.171, 65.759)" fill="#ccc"/><rect width="9.109" height="11.816" transform="matrix(0.738, -0.675, 0.675, 0.738, 64.357, 73.61)" fill="#ccc"/><rect width="9.109" height="11.818" transform="translate(72.217 82.212) rotate(-42.465)" fill="#ccc"/><rect width="9.692" height="11.189" transform="matrix(0.737, -0.675, 0.675, 0.737, 61.3, 70.71)" fill="#ccc"/><rect width="14.757" height="9.044" transform="matrix(0.738, -0.675, 0.675, 0.738, 60.157, 73.205)" fill="#ff4140"/><path d="M720.05,285.445l-11.976,10.948-25.192-28.627,10.892-9.964Z" transform="translate(-611.816 -182.624)" fill="#ff4140"/><path d="M715.168,285.445,688.892,257.8l-2.493,2.282,24.106,25.361-9.389,8.589,2.076,2.359Z" transform="translate(-606.933 -182.624)" fill="#cc2221"/><path d="M659.628,272.32a28.718,28.718,0,0,1-2.715-18.785c1.416-6.786,3.986-13.127,9.482-17.515a28.643,28.643,0,0,1,8.336-4.631,27.594,27.594,0,0,1,4.481-1.187c1.149-.2,3.377.093,4.354-.4-5.054,2.568-9.855,5.928-13.048,10.6a23.829,23.829,0,0,0-2.668,20.457,22.466,22.466,0,0,0,5.365,8.978c2.744,2.775,6.6,3.712,9.341,6.337a10.851,10.851,0,0,1,3.619,6.306c.939,7.411-8.145,5.931-12.351,3.924A31.221,31.221,0,0,1,659.628,272.32Z" transform="translate(-648.649 -221.499)" fill="#fff" opacity="0.3"/><g transform="translate(3.469 3.469)"><path d="M693.924,295.508a34.068,34.068,0,1,0-38.929-28.389A34.067,34.067,0,0,0,693.924,295.508Zm-.76-4.858a29.152,29.152,0,1,1,24.288-33.314A29.151,29.151,0,0,1,693.164,290.65Z" transform="translate(-654.581 -227.779)" fill="#ccc"/></g><path d="M696.478,300.95a37.535,37.535,0,1,0-42.892-31.272A37.538,37.538,0,0,0,696.478,300.95Zm-.843-5.35A32.119,32.119,0,1,1,722.4,258.9,32.116,32.116,0,0,1,695.635,295.6Z" transform="translate(-653.128 -226.326)" fill="#e0e0e0"/><path d="M708.059,272.286l-11.97,10.954-2.659-2.916,11.976-10.948Z" transform="translate(-597.171 -166.555)" fill="#ccc"/></g><g transform="translate(817.711 180.352)"><path d="M2.841,0H96.72a2.839,2.839,0,0,1,2.839,2.839v57a2.839,2.839,0,0,1-2.839,2.839H2.842A2.842,2.842,0,0,1,0,59.833V2.841A2.841,2.841,0,0,1,2.841,0Z" fill="#ecf0f1"/><g transform="translate(14.015 6.759)"><path d="M689.955,188.389c0-4.053,3-5.176,5.5-5.145a95.546,95.546,0,0,1,9.669.473v4.82H697.23c-1.536,0-1.536.855-1.536,1.653v1.3l7.954.327v4.76l-7.954.267v8.042h-5.739Z" transform="translate(-680.81 -183.096)" fill="#ff4140"/><path d="M705.77,183.182c5.116,0,8.957.974,8.957,11.118,0,9.549-3.635,10.793-8.957,10.793s-8.959-.948-8.959-10.793C696.811,184.157,700.8,183.182,705.77,183.182Zm0,16.762c2.544,0,3.222-1.061,3.222-5.644,0-5.028-.533-5.974-3.222-5.974-2.6,0-3.222.681-3.222,5.974C702.548,198.824,702.873,199.944,705.77,199.944Z" transform="translate(-671.29 -183.182)" fill="#ff4140"/><path d="M705.151,183.244h9.668c3.843,0,6.623,1.567,6.623,6.946,0,5.147-1.686,5.916-3.193,6.509l3.726,8.19h-6.537l-2.775-7.657-1.777-.418v8.075h-5.735Zm8.928,9.255c1.509,0,1.6-.771,1.6-2.31,0-1.3-.294-2.068-1.6-2.068h-3.165V192.5Z" transform="translate(-659.711 -183.096)" fill="#ff4140"/><path d="M686.126,194.777h9.669c3.843,0,6.623,1.567,6.623,6.946,0,5.147-1.686,5.916-3.193,6.509l3.726,8.188h-6.535l-2.778-7.655-1.777-.418v8.073h-5.735Zm8.931,9.255c1.507,0,1.6-.771,1.6-2.31,0-1.3-.3-2.068-1.6-2.068h-3.165v4.378Z" transform="translate(-686.126 -167.083)" fill="#ff4140"/><path d="M693.735,199.8c0-4.457,3.411-5.025,5.5-5.025a95.528,95.528,0,0,1,9.668.473v4.82h-7.891c-1.538,0-1.538.855-1.538,1.653v1.3l7.954.327v4.76l-7.954.267v1.3c0,1.569.975,1.536,1.832,1.536h7.6v4.791c-3.045.413-9.372.5-9.372.5-1.913.062-5.8-.322-5.8-4.846Z" transform="translate(-675.561 -167.083)" fill="#ff4140"/><path d="M700.813,194.777h5.8l6.179,11.056V194.777h5.737v21.642h-5.737l-6.21-10.762v10.762h-5.766Z" transform="translate(-665.734 -167.083)" fill="#ff4140"/><path d="M708.881,194.777h16.8v5.145h-5.62v16.5h-5.735v-16.5h-5.441Z" transform="translate(-654.532 -167.083)" fill="#ff4140"/></g></g></g></g></svg>