<svg xmlns="http://www.w3.org/2000/svg" xmlns:xlink="http://www.w3.org/1999/xlink" width="1293.06" height="636.284" viewBox="0 0 1293.06 636.284"><defs><clipPath id="a"><rect width="1293.059" height="636.284" transform="translate(167 175)" fill="#fff" stroke="#707070" stroke-width="1"/></clipPath><linearGradient id="b" x1="-11.137" y1="0.386" x2="-10.134" y2="0.386" gradientUnits="objectBoundingBox"><stop offset="0" stop-color="#fff"/><stop offset="1" stop-color="#80c1e4"/></linearGradient><linearGradient id="c" x1="-12.564" y1="0.31" x2="-11.567" y2="0.31" gradientUnits="objectBoundingBox"><stop offset="0" stop-color="#fff"/><stop offset="0.006" stop-color="#fefefe"/><stop offset="0.34" stop-color="#c8e4f3"/><stop offset="0.629" stop-color="#a0d1ea"/><stop offset="0.859" stop-color="#88c5e5"/><stop offset="1" stop-color="#80c1e4"/></linearGradient><linearGradient id="d" x1="-10.042" y1="0.301" x2="-9.043" y2="0.301" xlink:href="#b"/><clipPath id="e"><path d="M1558.088,1134.808s-71.373,9.75-135.927,33.837-150.517,66.372-186.515,88.889-24.021,43.039,108.779,18.292C1476.56,1251.2,1595.065,1129.4,1558.088,1134.808Z" transform="translate(-1218.165 -1134.634)" fill="none"/></clipPath></defs><g transform="translate(-167 -175)" clip-path="url(#a)"><g transform="translate(309.355 227.456)"><g transform="translate(0 0)"><g transform="translate(737.853 214.555)"><g transform="translate(9.093 51.925)"><path d="M1417.766,1091.855l4.468,3.47s-.254,87.025-26.494,158.245l-7.35-14.217S1418.78,1165.576,1417.766,1091.855Z" transform="translate(-1388.39 -1091.855)" fill="#ae8450"/><path d="M1421.488,1095.005l-2.155-1.673c-.288,14.992-.643,76.52-27.5,153.5l3.163,6.418C1421.234,1182.03,1421.488,1095.005,1421.488,1095.005Z" transform="translate(-1387.645 -1091.535)" fill="#806043"/></g><g transform="translate(43.51 23.27)"><path d="M1416.678,1096.07s4.424.156,11.383-2.935l-1.4-1.448,2.561.9a16.371,16.371,0,0,0,8.778-7.306l-3.032-1.117,3.56.412s2.2-5.082,3.839-8.076c1.66-3.026,5.366-6.9,8.457-8.2,0,0-8,1.488-9.911,2.562l0,2.952-.506-2.473a57.5,57.5,0,0,0-8.3,4.667l.432,4.749-1.209-4.067a20.175,20.175,0,0,0-6.564,6.19l1.017,1.36-1.328-.578a47.933,47.933,0,0,1-4.336,5.55C1418.564,1090.676,1416.758,1093.931,1416.678,1096.07Z" transform="translate(-1416.678 -1068.303)" fill="#91c51b"/><path d="M1448.793,1069.248a22.93,22.93,0,0,0-6.43,7.052c-1.642,2.994-3.839,8.076-3.839,8.076l-3.56-.412,3.032,1.117a16.372,16.372,0,0,1-8.778,7.306l-2.561-.9,1.4,1.448c-6.959,3.09-11.383,2.935-11.383,2.935,5.61-2.2,12.1-8.3,17.7-15.1C1438.657,1075.582,1445.391,1071.252,1448.793,1069.248Z" transform="translate(-1416.678 -1068.098)" fill="#91c51b"/><path d="M1423.324,1081.388a20.173,20.173,0,0,1,6.564-6.19l.456,1.534a77.047,77.047,0,0,0-6.114,5.869Z" transform="translate(-1415.238 -1066.809)" fill="#91c51b"/><path d="M1437.807,1071.508a53.483,53.483,0,0,0-8.288,5.768l-.161-1.807a57.5,57.5,0,0,1,8.3-4.667Z" transform="translate(-1413.931 -1067.761)" fill="#91c51b"/><path d="M1444.775,1068.3c-.063.01-.131.027-.2.038Z" transform="translate(-1410.633 -1068.303)" fill="#91c51b"/><path d="M1420.118,1086.479a47.933,47.933,0,0,0,4.336-5.55l1.153.5c-.268.287-.5.529-.662.714-2.132,2.287-8.267,11.186-8.267,11.186C1416.758,1091.2,1418.564,1087.941,1420.118,1086.479Z" transform="translate(-1416.678 -1065.568)" fill="#91c51b"/><path d="M1445.08,1068.531a33.124,33.124,0,0,0-8.481,3.273l0-.988C1438,1070.023,1442.666,1069.016,1445.08,1068.531Z" transform="translate(-1412.363 -1068.254)" fill="#91c51b"/><path d="M1416.678,1096.063s9.093-4.357,14.268-11.145c5.385-7.07,15.169-14.9,19.678-16.584,0,0-12.369,5.7-18.3,13.566C1426.638,1089.422,1422.219,1092.187,1416.678,1096.063Z" transform="translate(-1416.678 -1068.296)" fill="#91c51b"/><path d="M1416.678,1096.07s4.424.156,11.383-2.935l-1.4-1.448,2.561.9a16.371,16.371,0,0,0,8.778-7.306l-3.032-1.117,3.56.412s2.2-5.082,3.839-8.076c1.66-3.026,5.366-6.9,8.457-8.2,0,0-8,1.488-9.911,2.562l0,2.952-.506-2.473a57.5,57.5,0,0,0-8.3,4.667l.432,4.749-1.209-4.067a20.175,20.175,0,0,0-6.564,6.19l1.017,1.36-1.328-.578a47.933,47.933,0,0,1-4.336,5.55C1418.564,1090.676,1416.758,1093.931,1416.678,1096.07Z" transform="translate(-1416.678 -1068.303)" fill="#91c51b"/></g><g transform="translate(0 46.262)"><path d="M1424.761,1091.923s-3.568-2.615-11.064-3.971l.349,1.987-1.608-2.188a16.381,16.381,0,0,0-11.367,1.108l1.879,2.628-2.714-2.342s-4.669,2.97-7.714,4.521c-3.071,1.573-8.318,2.695-11.6,2.029,0,0,7.455,3.268,9.637,3.453l1.656-2.443-.972,2.331a57.53,57.53,0,0,0,9.494.805l2.31-4.17-1.287,4.044a20.191,20.191,0,0,0,8.908-1.431l-.077-1.7.774,1.223a47.658,47.658,0,0,1,6.706-2.152C1420.173,1095.322,1423.493,1093.648,1424.761,1091.923Z" transform="translate(-1380.916 -1087.201)" fill="#91c51b"/><path d="M1382.826,1095.883a22.862,22.862,0,0,0,9.281-2.217c3.044-1.551,7.714-4.521,7.714-4.521l2.714,2.342-1.879-2.628a16.381,16.381,0,0,1,11.367-1.108l1.609,2.188-.349-1.987c7.5,1.356,11.064,3.971,11.064,3.971-5.874-1.334-14.677.063-23.124,2.536C1394.771,1096.344,1386.767,1096.14,1382.826,1095.883Z" transform="translate(-1380.502 -1087.201)" fill="#91c51b"/><g transform="translate(0 4.723)"><path d="M1406.951,1096.582a20.192,20.192,0,0,1-8.908,1.431l.487-1.526a77.46,77.46,0,0,0,8.355-1.419Z" transform="translate(-1377.205 -1090.218)" fill="#91c51b"/><path d="M1389.675,1096.4a53.728,53.728,0,0,0,10.1-.113l-.881,1.584a57.515,57.515,0,0,1-9.493-.805Z" transform="translate(-1379.078 -1089.954)" fill="#91c51b"/><path d="M1380.916,1094.183c.059.029.124.052.183.082C1380.993,1094.218,1380.916,1094.183,1380.916,1094.183Z" transform="translate(-1380.916 -1090.41)" fill="#91c51b"/><path d="M1412.764,1094.82a47.674,47.674,0,0,0-6.706,2.152l-.672-1.067c.383-.085.708-.158.95-.218,3.048-.692,13.123-4.6,13.123-4.6C1418.191,1092.807,1414.871,1094.481,1412.764,1094.82Z" transform="translate(-1375.614 -1091.082)" fill="#91c51b"/><path d="M1382.015,1094.654a33.059,33.059,0,0,0,8.855,2.06l-.555.82C1388.707,1097.4,1384.282,1095.609,1382.015,1094.654Z" transform="translate(-1380.678 -1090.308)" fill="#91c51b"/></g><path d="M1424.728,1091.157s-9.968-1.507-18.064,1.2c-8.428,2.82-20.922,3.8-25.6,2.657,0,0,13.434,2.235,22.765-.932C1412.76,1091.05,1417.968,1091.249,1424.728,1091.157Z" transform="translate(-1380.883 -1086.434)" fill="#91c51b"/><path d="M1424.761,1091.923s-3.568-2.615-11.064-3.971l.349,1.987-1.608-2.188a16.381,16.381,0,0,0-11.367,1.108l1.879,2.628-2.714-2.342s-4.669,2.97-7.714,4.521c-3.071,1.573-8.318,2.695-11.6,2.029,0,0,7.455,3.268,9.637,3.453l1.656-2.443-.972,2.331a57.53,57.53,0,0,0,9.494.805l2.31-4.17-1.287,4.044a20.191,20.191,0,0,0,8.908-1.431l-.077-1.7.774,1.223a47.658,47.658,0,0,1,6.706-2.152C1420.173,1095.322,1423.493,1093.648,1424.761,1091.923Z" transform="translate(-1380.916 -1087.201)" fill="#91c51b"/></g><g transform="translate(40.042 49.618)"><path d="M1416.332,1089.959s-1.8,3.06-2.282,9.161l1.558-.441-1.617,1.463a13.152,13.152,0,0,0,1.8,8.993l1.947-1.711-1.651,2.356s2.747,3.494,4.229,5.8c1.5,2.329,2.823,6.432,2.555,9.113,0,0,2.01-6.221,1.983-7.98l-2.085-1.127,1.938.59a46.092,46.092,0,0,0-.114-7.652l-3.52-1.509,3.335.7a16.215,16.215,0,0,0-1.859-7l-1.349.195.917-.714a38.546,38.546,0,0,1-2.261-5.188A9.935,9.935,0,0,0,1416.332,1089.959Z" transform="translate(-1413.828 -1089.959)" fill="#91c51b"/><path d="M1422.834,1122.82a18.421,18.421,0,0,0-2.52-7.24c-1.482-2.306-4.229-5.8-4.229-5.8l1.651-2.356-1.947,1.711a13.152,13.152,0,0,1-1.8-8.993l1.617-1.463-1.558.441c.482-6.1,2.282-9.161,2.282-9.161-.592,4.8,1.23,11.722,3.884,18.275C1422.24,1113.239,1422.719,1119.651,1422.834,1122.82Z" transform="translate(-1413.828 -1089.959)" fill="#91c51b"/><g transform="translate(2.504)"><path d="M1421.208,1098.8a16.213,16.213,0,0,1,1.859,7l-1.257-.266a62.346,62.346,0,0,0-1.806-6.563Z" transform="translate(-1414.994 -1088.044)" fill="#91c51b"/><path d="M1422.477,1112.805a43.36,43.36,0,0,0-.9-8.059l1.339.574a46.111,46.111,0,0,1,.114,7.651Z" transform="translate(-1414.654 -1086.755)" fill="#91c51b"/><path d="M1421.259,1118.534c.017-.05.03-.1.048-.154Z" transform="translate(-1414.722 -1083.802)" fill="#91c51b"/><path d="M1419.408,1095.008a38.518,38.518,0,0,0,2.26,5.188l-.8.619c-.1-.3-.185-.551-.251-.741-.8-2.378-4.734-10.115-4.734-10.115A9.938,9.938,0,0,1,1419.408,1095.008Z" transform="translate(-1415.886 -1089.959)" fill="#91c51b"/><path d="M1421.547,1118.88a26.513,26.513,0,0,0,.932-7.24l.7.375C1423.2,1113.313,1422.126,1116.993,1421.547,1118.88Z" transform="translate(-1414.66 -1085.262)" fill="#91c51b"/></g><path d="M1415.89,1089.959s-.4,8.086,2.408,14.339c2.931,6.508,4.713,16.411,4.178,20.24,0,0,.708-10.912-2.572-18.114C1416.767,1099.531,1416.509,1095.355,1415.89,1089.959Z" transform="translate(-1413.385 -1089.959)" fill="#91c51b"/><path d="M1416.332,1089.959s-1.8,3.06-2.282,9.161l1.558-.441-1.617,1.463a13.152,13.152,0,0,0,1.8,8.993l1.947-1.711-1.651,2.356s2.747,3.494,4.229,5.8c1.5,2.329,2.823,6.432,2.555,9.113,0,0,2.01-6.221,1.983-7.98l-2.085-1.127,1.938.59a46.092,46.092,0,0,0-.114-7.652l-3.52-1.509,3.335.7a16.215,16.215,0,0,0-1.859-7l-1.349.195.917-.714a38.546,38.546,0,0,1-2.261-5.188A9.935,9.935,0,0,0,1416.332,1089.959Z" transform="translate(-1413.828 -1089.959)" fill="#91c51b"/></g><g transform="translate(40.277 39.622)"><path d="M1414.021,1091.8s3.92-4.21,12.929-7.618l.225,2.452,1.246-2.976a19.788,19.788,0,0,1,13.625-1.184l-1.166,3.427,2.206-3.275s6.256,2.355,10.134,3.447,9.753,1.186,12.763-.255c0,0-6.218,5.339-8.446,6.076l-2.767-2.432,1.993,2.467a57.251,57.251,0,0,1-10.177,3.374l-4.26-4.448,3.034,4.563a23.771,23.771,0,0,1-11.136.635l-.517-2.144-.507,1.744a63.256,63.256,0,0,0-9.2-.886C1421.158,1094.918,1416.243,1093.675,1414.021,1091.8Z" transform="translate(-1414.021 -1081.743)" fill="#91c51b"/><path d="M1463.742,1086.517a24.707,24.707,0,0,1-10.521-.449c-3.878-1.091-10.134-3.447-10.134-3.447l-2.206,3.275,1.166-3.427a19.788,19.788,0,0,0-13.625,1.184l-1.246,2.976-.225-2.452c-9.009,3.408-12.929,7.618-12.929,7.618,7.288-3.195,18.673-3.643,29.46-2.727C1451.409,1089.739,1459.832,1087.666,1463.742,1086.517Z" transform="translate(-1414.021 -1081.743)" fill="#91c51b"/><g transform="translate(0 4.069)"><path d="M1430.709,1093.922a23.773,23.773,0,0,0,11.136-.635l-1.15-1.732a90.184,90.184,0,0,1-10.449.451Z" transform="translate(-1410.506 -1083.687)" fill="#91c51b"/><path d="M1450.685,1089.531a55.726,55.726,0,0,1-11.236,2.381l1.628,1.7a57.253,57.253,0,0,0,10.177-3.374Z" transform="translate(-1408.512 -1084.125)" fill="#91c51b"/><path d="M1456.757,1085.088c-.049.044-.1.082-.15.124Z" transform="translate(-1404.794 -1085.088)" fill="#91c51b"/><path d="M1424.005,1092.971a63.261,63.261,0,0,1,9.2.885l.44-1.516c-.5-.007-.926-.011-1.243-.018-4.031-.052-18.376-2.318-18.376-2.318C1416.243,1091.885,1421.158,1093.128,1424.005,1092.971Z" transform="translate(-1414.021 -1084.023)" fill="#91c51b"/><path d="M1457.31,1085.839a28.589,28.589,0,0,1-8.283,4.349l.926.813C1451.6,1090.456,1455.426,1087.4,1457.31,1085.839Z" transform="translate(-1406.437 -1084.925)" fill="#91c51b"/></g><path d="M1414.021,1091.048s12.388-4.408,23.1-3.1,24.476-.477,28.708-2.761c0,0-13.047,5.6-24.769,4.131S1422.9,1089.4,1414.021,1091.048Z" transform="translate(-1414.021 -1080.996)" fill="#91c51b"/><path d="M1414.021,1091.8s3.92-4.21,12.929-7.618l.225,2.452,1.246-2.976a19.788,19.788,0,0,1,13.625-1.184l-1.166,3.427,2.206-3.275s6.256,2.355,10.134,3.447,9.753,1.186,12.763-.255c0,0-6.218,5.339-8.446,6.076l-2.767-2.432,1.993,2.467a57.251,57.251,0,0,1-10.177,3.374l-4.26-4.448,3.034,4.563a23.771,23.771,0,0,1-11.136.635l-.517-2.144-.507,1.744a63.256,63.256,0,0,0-9.2-.886C1421.158,1094.918,1416.243,1093.675,1414.021,1091.8Z" transform="translate(-1414.021 -1081.743)" fill="#91c51b"/></g><g transform="translate(41.831 50.677)"><path d="M1415.3,1090.83s5.733.5,13.956,5.515l-1.8,1.685,3.113-.849a19.809,19.809,0,0,1,9.31,10.024l-3.42,1.187,3.938-.275s1.988,6.382,3.509,10.113,5.056,8.42,8.046,9.908c0,0-8.036-1.623-9.984-2.927l.219-3.677-.722,3.089a57.309,57.309,0,0,1-8.917-5.957l.888-6.091-1.731,5.2a23.763,23.763,0,0,1-7.347-8.395l1.375-1.723-1.689.668a63.094,63.094,0,0,0-4.951-7.8C1417.228,1098.377,1415.185,1093.735,1415.3,1090.83Z" transform="translate(-1415.298 -1090.83)" fill="#91c51b"/><path d="M1450.026,1126.808a24.751,24.751,0,0,1-6.113-8.578c-1.521-3.731-3.509-10.113-3.509-10.113l-3.938.275,3.42-1.187a19.81,19.81,0,0,0-9.31-10.024l-3.113.849,1.8-1.685c-8.223-5.014-13.956-5.515-13.956-5.515,7,3.783,14.35,12.489,20.258,21.559C1439.9,1119.057,1446.716,1124.427,1450.026,1126.808Z" transform="translate(-1415.297 -1090.83)" fill="#91c51b"/><path d="M1422.751,1106.348a23.765,23.765,0,0,0,7.348,8.4l.657-1.97a91.368,91.368,0,0,1-6.776-7.965Z" transform="translate(-1413.683 -1087.802)" fill="#91c51b"/><path d="M1438.605,1119.2a55.822,55.822,0,0,1-8.784-7.4l-.338,2.326a57.3,57.3,0,0,0,8.917,5.957Z" transform="translate(-1412.225 -1086.287)" fill="#91c51b"/><path d="M1445.465,1121.5c-.064-.01-.128-.028-.189-.04Z" transform="translate(-1408.803 -1084.193)" fill="#91c51b"/><path d="M1419.1,1100.527a63.094,63.094,0,0,1,4.951,7.8l1.468-.583c-.3-.4-.561-.736-.752-.99-2.436-3.213-9.466-15.919-9.466-15.919C1415.185,1093.735,1417.228,1098.377,1419.1,1100.527Z" transform="translate(-1415.298 -1090.83)" fill="#91c51b"/><path d="M1445.819,1121.937a28.419,28.419,0,0,1-8.521-3.862l-.073,1.234C1438.666,1120.273,1443.432,1121.409,1445.819,1121.937Z" transform="translate(-1410.547 -1084.927)" fill="#91c51b"/><path d="M1415.3,1090.83s11.092,7.059,16.646,16.32,15.418,19.011,19.822,20.948c0,0-12.436-6.854-18.481-17S1422.058,1096.817,1415.3,1090.83Z" transform="translate(-1415.297 -1090.83)" fill="#91c51b"/><path d="M1415.3,1090.83s5.733.5,13.956,5.515l-1.8,1.685,3.113-.849a19.809,19.809,0,0,1,9.31,10.024l-3.42,1.187,3.938-.275s1.988,6.382,3.509,10.113,5.056,8.42,8.046,9.908c0,0-8.036-1.623-9.984-2.927l.219-3.677-.722,3.089a57.309,57.309,0,0,1-8.917-5.957l.888-6.091-1.731,5.2a23.763,23.763,0,0,1-7.347-8.395l1.375-1.723-1.689.668a63.094,63.094,0,0,0-4.951-7.8C1417.228,1098.377,1415.185,1093.735,1415.3,1090.83Z" transform="translate(-1415.298 -1090.83)" fill="#91c51b"/></g><g transform="translate(7.939 49.579)"><path d="M1422.8,1089.927s-.207,5.754-4.787,14.225l-1.775-1.7,1.007,3.064a19.8,19.8,0,0,1-9.528,9.816l-1.363-3.355.479,3.919s-6.272,2.314-9.92,4.03-8.149,5.487-9.478,8.548c0,0,1.2-8.109,2.4-10.124l3.685.027-3.122-.558a57.308,57.308,0,0,1,5.485-9.213l6.129.576-5.278-1.462a23.735,23.735,0,0,1,8-7.772l1.794,1.28-.756-1.648a63.244,63.244,0,0,0,7.529-5.351C1415.365,1092.242,1419.894,1089.961,1422.8,1089.927Z" transform="translate(-1387.441 -1089.927)" fill="#91c51b"/><path d="M1388.451,1126.467a24.767,24.767,0,0,1,8.249-6.547c3.647-1.716,9.919-4.03,9.919-4.03l-.479-3.919,1.362,3.355a19.8,19.8,0,0,0,9.528-9.816l-1.007-3.064,1.775,1.7c4.58-8.472,4.786-14.225,4.786-14.225-3.417,7.188-11.731,14.981-20.484,21.349C1395.667,1115.959,1390.658,1123.041,1388.451,1126.467Z" transform="translate(-1387.222 -1089.927)" fill="#91c51b"/><path d="M1403.09,1098.158a23.736,23.736,0,0,0-8,7.772l2,.554a91.426,91.426,0,0,1,7.6-7.181Z" transform="translate(-1385.784 -1088.144)" fill="#91c51b"/><path d="M1390.772,1114.647a55.807,55.807,0,0,1,6.935-9.155l-2.342-.217a57.315,57.315,0,0,0-5.484,9.213Z" transform="translate(-1386.913 -1086.602)" fill="#91c51b"/><path d="M1387.441,1121.64c.006-.065.021-.129.029-.193C1387.452,1121.561,1387.441,1121.64,1387.441,1121.64Z" transform="translate(-1387.441 -1083.098)" fill="#91c51b"/><path d="M1410.047,1094.222a63.24,63.24,0,0,1-7.529,5.351l.659,1.436c.383-.324.71-.6.95-.8,3.083-2.6,15.41-10.278,15.41-10.278C1416.628,1089.961,1412.1,1092.242,1410.047,1094.222Z" transform="translate(-1384.174 -1089.927)" fill="#91c51b"/><path d="M1387.625,1122a28.493,28.493,0,0,1,3.415-8.709l-1.235-.01C1388.917,1114.774,1388.029,1119.593,1387.625,1122Z" transform="translate(-1387.401 -1084.867)" fill="#91c51b"/><path d="M1422.8,1089.927s-6.479,11.446-15.437,17.471-18.192,16.379-19.9,20.877c0,0,6.2-12.772,16.021-19.335S1417.165,1096.987,1422.8,1089.927Z" transform="translate(-1387.436 -1089.927)" fill="#91c51b"/><path d="M1422.8,1089.927s-.207,5.754-4.787,14.225l-1.775-1.7,1.007,3.064a19.8,19.8,0,0,1-9.528,9.816l-1.363-3.355.479,3.919s-6.272,2.314-9.92,4.03-8.149,5.487-9.478,8.548c0,0,1.2-8.109,2.4-10.124l3.685.027-3.122-.558a57.308,57.308,0,0,1,5.485-9.213l6.129.576-5.278-1.462a23.735,23.735,0,0,1,8-7.772l1.794,1.28-.756-1.648a63.244,63.244,0,0,0,7.529-5.351C1415.365,1092.242,1419.894,1089.961,1422.8,1089.927Z" transform="translate(-1387.441 -1089.927)" fill="#91c51b"/></g><g transform="translate(0.399 20.895)"><path d="M1424.42,1095.874s-1.506-5.553-7.885-12.769l-1.343,2.063.288-3.213a19.8,19.8,0,0,0-11.5-7.4l-.566,3.577-.423-3.925s-6.632-.836-10.574-1.678-9.177-3.5-11.168-6.177c0,0,3.011,7.622,4.638,9.312l3.581-.859-2.911,1.252a57.29,57.29,0,0,0,7.428,7.729l5.841-1.947-4.81,2.619a23.756,23.756,0,0,0,9.554,5.757l1.458-1.656-.364,1.779a63.126,63.126,0,0,1,8.546,3.5C1416.65,1095.309,1421.579,1096.5,1424.42,1095.874Z" transform="translate(-1381.244 -1066.351)" fill="#91c51b"/><path d="M1382.6,1067.723a24.741,24.741,0,0,0,9.516,4.508c3.942.842,10.574,1.678,10.574,1.678l.423,3.925.566-3.577a19.8,19.8,0,0,1,11.5,7.4l-.288,3.213,1.343-2.063c6.379,7.216,7.885,12.769,7.885,12.769-4.958-6.227-14.82-11.932-24.787-16.151C1392.012,1076.325,1385.527,1070.56,1382.6,1067.723Z" transform="translate(-1380.95 -1066.054)" fill="#91c51b"/><path d="M1402.113,1087.168a23.757,23.757,0,0,1-9.554-5.757l1.824-1a91.216,91.216,0,0,0,9.032,5.272Z" transform="translate(-1378.792 -1063.304)" fill="#91c51b"/><path d="M1386.436,1074.033a55.759,55.759,0,0,0,8.829,7.345l-2.231.743a57.292,57.292,0,0,1-7.428-7.729Z" transform="translate(-1380.299 -1064.687)" fill="#91c51b"/><path d="M1381.244,1066.351c.023.059.05.119.072.18Z" transform="translate(-1381.244 -1066.351)" fill="#91c51b"/><path d="M1409.857,1089.847a63.092,63.092,0,0,0-8.546-3.5l.316-1.549,1.109.567c3.592,1.833,17.335,6.518,17.335,6.518C1417.231,1092.505,1412.3,1091.313,1409.857,1089.847Z" transform="translate(-1376.896 -1062.355)" fill="#91c51b"/><path d="M1381.686,1067.432a28.487,28.487,0,0,0,5.3,7.71l-1.2.287C1384.584,1074.182,1382.625,1069.689,1381.686,1067.432Z" transform="translate(-1381.148 -1066.117)" fill="#91c51b"/><path d="M1424.407,1095.842s-8.9-9.677-19-13.514-21.428-11.833-24.108-15.829c0,0,8.935,11.032,19.987,15.2S1417.322,1090.246,1424.407,1095.842Z" transform="translate(-1381.231 -1066.319)" fill="#91c51b"/><path d="M1424.42,1095.874s-1.506-5.553-7.885-12.769l-1.343,2.063.288-3.213a19.8,19.8,0,0,0-11.5-7.4l-.566,3.577-.423-3.925s-6.632-.836-10.574-1.678-9.177-3.5-11.168-6.177c0,0,3.011,7.622,4.638,9.312l3.581-.859-2.911,1.252a57.29,57.29,0,0,0,7.428,7.729l5.841-1.947-4.81,2.619a23.756,23.756,0,0,0,9.554,5.757l1.458-1.656-.364,1.779a63.126,63.126,0,0,1,8.546,3.5C1416.65,1095.309,1421.579,1096.5,1424.42,1095.874Z" transform="translate(-1381.244 -1066.351)" fill="#91c51b"/></g><g transform="translate(39.084)"><path d="M1416.7,1100.576s-2.657-4.54-3.347-13.569l2.306.653-2.388-2.17s-1.413-7.187,2.693-13.309l2.88,2.544-2.441-3.494s4.081-5.165,6.289-8.574c2.232-3.442,4.2-9.513,3.812-13.479,0,0,2.958,9.218,2.908,11.82l-3.09,1.661,2.875-.869a68.277,68.277,0,0,1-.2,11.328l-5.215,2.225,4.94-1.031a23.975,23.975,0,0,1-2.777,10.364l-2-.3,1.353,1.062a56.634,56.634,0,0,0-3.363,7.672C1421.288,1095.563,1418.9,1099.289,1416.7,1100.576Z" transform="translate(-1413.04 -1049.177)" fill="#91c51b"/><path d="M1426.45,1051.454a27.316,27.316,0,0,1-3.753,10.709c-2.208,3.409-6.289,8.574-6.289,8.574l2.441,3.494-2.88-2.544c-4.106,6.122-2.693,13.309-2.693,13.309l2.388,2.17-2.306-.653c.69,9.029,3.347,13.569,3.347,13.569-.863-7.111,1.864-17.349,5.816-27.042C1425.536,1065.638,1426.271,1056.147,1426.45,1051.454Z" transform="translate(-1413.04 -1048.684)" fill="#91c51b"/><g transform="translate(3.664)"><path d="M1423.967,1080.2a23.977,23.977,0,0,0,2.778-10.364l-1.863.388a91.266,91.266,0,0,1-2.7,9.711Z" transform="translate(-1414.724 -1044.701)" fill="#91c51b"/><path d="M1425.893,1059.79a63.565,63.565,0,0,1-1.365,11.928l1.983-.847a68.258,68.258,0,0,0,.2-11.328Z" transform="translate(-1414.216 -1046.931)" fill="#91c51b"/><path d="M1424.11,1049.177c.026.072.048.153.071.225C1424.141,1049.27,1424.11,1049.177,1424.11,1049.177Z" transform="translate(-1414.306 -1049.177)" fill="#91c51b"/><path d="M1421.288,1086.82a56.665,56.665,0,0,1,3.363-7.672l-1.178-.923c-.151.444-.277.819-.375,1.1-1.191,3.523-7.047,14.961-7.047,14.961C1418.249,1093,1420.635,1089.27,1421.288,1086.82Z" transform="translate(-1416.052 -1042.884)" fill="#91c51b"/><path d="M1424.532,1050.533a39.318,39.318,0,0,1,1.363,10.726l1.032-.556C1426.964,1058.782,1425.385,1053.331,1424.532,1050.533Z" transform="translate(-1414.215 -1048.883)" fill="#91c51b"/></g><path d="M1416.057,1100.536s-.567-11.974,3.619-21.219c4.361-9.626,7.035-24.286,6.255-29.955,0,0,1.01,16.163-3.873,26.813C1417.39,1086.367,1416.992,1092.55,1416.057,1100.536Z" transform="translate(-1412.392 -1049.137)" fill="#91c51b"/><path d="M1416.7,1100.576s-2.657-4.54-3.347-13.569l2.306.653-2.388-2.17s-1.413-7.187,2.693-13.309l2.88,2.544-2.441-3.494s4.081-5.165,6.289-8.574c2.232-3.442,4.2-9.513,3.812-13.479,0,0,2.958,9.218,2.908,11.82l-3.09,1.661,2.875-.869a68.277,68.277,0,0,1-.2,11.328l-5.215,2.225,4.94-1.031a23.975,23.975,0,0,1-2.777,10.364l-2-.3,1.353,1.062a56.634,56.634,0,0,0-3.363,7.672C1421.288,1095.563,1418.9,1099.289,1416.7,1100.576Z" transform="translate(-1413.04 -1049.177)" fill="#91c51b"/></g></g><g transform="translate(418.107 262.205)"><g transform="translate(63.45 54.763)"><path d="M1173.939,1133.353l-3.679,6.131s40.039,102.446,103.49,174.4l2.169-20.113S1206.413,1220.7,1173.939,1133.353Z" transform="translate(-1170.26 -1133.353)" fill="#ae8450"/><path d="M1170.26,1138.918l1.775-2.956c7.184,17.537,35.7,89.888,102.512,168.345l-.8,9.008C1210.3,1241.365,1170.26,1138.918,1170.26,1138.918Z" transform="translate(-1170.26 -1132.788)" fill="#806043"/></g><g transform="translate(7.864 37.325)"><path d="M1177.49,1137.713s-5.14,2.207-14.756,1.743l1-2.347-2.607,2.232s-7.767.539-13.68-4.6l3.063-2.7-4.008,2.107s-4.908-4.983-8.212-7.761c-3.335-2.811-9.478-5.689-13.713-5.8,0,0,10.114-1.9,12.85-1.507l1.343,3.482-.533-3.149a72.718,72.718,0,0,1,11.917,1.711l1.659,5.8-.433-5.352a25.49,25.49,0,0,1,10.562,4.3l-.577,2.068,1.3-1.289a60.57,60.57,0,0,0,7.645,4.563C1172.808,1132.22,1176.421,1135.229,1177.49,1137.713Z" transform="translate(-1124.573 -1119.021)" fill="#9bd417"/><path d="M1126.969,1120.655a29.051,29.051,0,0,1,10.8,5.377c3.3,2.778,8.212,7.761,8.212,7.761l4.008-2.107-3.064,2.7c5.913,5.141,13.68,4.6,13.68,4.6l2.607-2.232-1,2.347c9.615.464,14.755-1.743,14.755-1.743-7.615-.029-18.053-4.256-27.755-9.705C1141.8,1123.495,1131.894,1121.465,1126.969,1120.655Z" transform="translate(-1124.054 -1118.667)" fill="#9bd417"/><path d="M1157.166,1125.413a25.487,25.487,0,0,0-10.562-4.3l.162,2.02a97.2,97.2,0,0,1,9.885,4.123Z" transform="translate(-1119.8 -1118.568)" fill="#9bd417"/><path d="M1135.949,1120.239a67.332,67.332,0,0,1,12.4,3.016l-.631-2.206a72.718,72.718,0,0,0-11.917-1.711Z" transform="translate(-1122.14 -1118.952)" fill="#9bd417"/><path d="M1124.573,1120.312c.082-.017.168-.029.249-.042C1124.678,1120.292,1124.573,1120.312,1124.573,1120.312Z" transform="translate(-1124.573 -1118.75)" fill="#9bd417"/><path d="M1163.726,1129.85a60.574,60.574,0,0,1-7.645-4.562l-1.129,1.122c.445.217.826.4,1.106.537,3.558,1.72,14.851,9.408,14.851,9.408C1169.839,1133.872,1166.225,1130.863,1163.726,1129.85Z" transform="translate(-1117.991 -1117.663)" fill="#9bd417"/><path d="M1126.06,1120.259a41.856,41.856,0,0,1,11.488-.015l-.447-1.169C1135.084,1118.785,1129.124,1119.729,1126.06,1120.259Z" transform="translate(-1124.251 -1119.021)" fill="#9bd417"/><path d="M1177.446,1137.442s-12.7-.979-21.9-6.616c-9.577-5.874-24.684-10.634-30.766-10.557,0,0,17.181,1.068,27.764,7.627C1162.677,1134.167,1169.148,1135.4,1177.446,1137.442Z" transform="translate(-1124.529 -1118.75)" fill="#9bd417"/><path d="M1177.49,1137.713s-5.14,2.207-14.756,1.743l1-2.347-2.607,2.232s-7.767.539-13.68-4.6l3.063-2.7-4.008,2.107s-4.908-4.983-8.212-7.761c-3.335-2.811-9.478-5.689-13.713-5.8,0,0,10.114-1.9,12.85-1.507l1.343,3.482-.533-3.149a72.718,72.718,0,0,1,11.917,1.711l1.659,5.8-.433-5.352a25.49,25.49,0,0,1,10.562,4.3l-.577,2.068,1.3-1.289a60.57,60.57,0,0,0,7.645,4.563C1172.808,1132.22,1176.421,1135.229,1177.49,1137.713Z" transform="translate(-1124.573 -1119.021)" fill="#9bd417"/></g><g transform="translate(60.363 40.535)"><path d="M1167.723,1137.233s3.012-4.712,11.229-9.731l.5,2.5.9-3.313s6.122-4.814,13.9-3.885l-1.015,3.957,2.13-4s6.858,1.366,11.157,1.805c4.336.452,11.033-.625,14.6-2.906,0,0-7.294,7.252-9.781,8.469l-3.07-2.122,2.211,2.3a72.063,72.063,0,0,1-10.821,5.284l-4.625-3.857,3.365,4.175a25.477,25.477,0,0,1-11.154,2.384l-.685-2.034-.351,1.8a60.515,60.515,0,0,0-8.886.522C1174.684,1139.146,1170.007,1138.688,1167.723,1137.233Z" transform="translate(-1167.723 -1121.659)" fill="#91c51b"/><path d="M1218.469,1122.757a28.92,28.92,0,0,1-11.95,1.625c-4.3-.439-11.157-1.806-11.157-1.806l-2.13,4,1.015-3.957c-7.782-.929-13.9,3.885-13.9,3.885l-.9,3.313-.5-2.5c-8.216,5.019-11.229,9.731-11.229,9.731,6.317-4.254,17.326-6.627,28.412-7.571C1204.6,1128.755,1213.942,1124.858,1218.469,1122.757Z" transform="translate(-1167.723 -1121.476)" fill="#91c51b"/><path d="M1183.878,1136.036a25.473,25.473,0,0,0,11.154-2.383l-1.27-1.576a96.9,96.9,0,0,1-10.495,2.144Z" transform="translate(-1164.355 -1119.402)" fill="#91c51b"/><path d="M1204.479,1128.228a67.957,67.957,0,0,1-11.952,4.474l1.758,1.466a72.076,72.076,0,0,0,10.821-5.284Z" transform="translate(-1162.349 -1120.236)" fill="#91c51b"/><path d="M1211.643,1121.659c-.057.057-.12.114-.177.176C1211.57,1121.733,1211.643,1121.659,1211.643,1121.659Z" transform="translate(-1158.246 -1121.659)" fill="#91c51b"/><path d="M1177.324,1135.936a60.545,60.545,0,0,1,8.886-.522l.3-1.563c-.49.071-.909.133-1.22.175-3.908.576-17.57.566-17.57.566C1170.007,1136.046,1174.684,1136.5,1177.324,1135.936Z" transform="translate(-1167.723 -1119.018)" fill="#91c51b"/><path d="M1212.222,1122.712a41.668,41.668,0,0,1-9.495,6.475l1.028.713C1205.589,1129,1209.987,1124.874,1212.222,1122.712Z" transform="translate(-1160.139 -1121.431)" fill="#91c51b"/><path d="M1167.723,1137.2s11.062-6.328,21.839-6.836c11.219-.525,26.391-5.081,31.38-8.562,0,0-14.814,8.771-27.256,9.3C1181.78,1131.613,1175.735,1134.225,1167.723,1137.2Z" transform="translate(-1167.723 -1121.628)" fill="#91c51b"/><path d="M1167.723,1137.233s3.012-4.712,11.229-9.731l.5,2.5.9-3.313s6.122-4.814,13.9-3.885l-1.015,3.957,2.13-4s6.858,1.366,11.157,1.805c4.336.452,11.033-.625,14.6-2.906,0,0-7.294,7.252-9.781,8.469l-3.07-2.122,2.211,2.3a72.063,72.063,0,0,1-10.821,5.284l-4.625-3.857,3.365,4.175a25.477,25.477,0,0,1-11.154,2.384l-.685-2.034-.351,1.8a60.515,60.515,0,0,0-8.886.522C1174.684,1139.146,1170.007,1138.688,1167.723,1137.233Z" transform="translate(-1167.723 -1121.659)" fill="#91c51b"/></g><g transform="translate(58.712 53.904)"><path d="M1168.926,1132.647s3.519,2.79,6.869,9.753l-2.035.2,2.574.984a16.629,16.629,0,0,1,1.989,11.422l-3.077-1.13,3.022,2.022s-1.643,5.373-2.337,8.768c-.708,3.431-.387,8.868,1.15,11.9,0,0-5.209-6.413-5.98-8.5l1.944-2.279-2.016,1.578a58.413,58.413,0,0,1-3.358-9.071l3.457-3.384-3.608,2.353a20.484,20.484,0,0,1-1.01-9.1l1.683-.387-1.409-.423a48.149,48.149,0,0,0,.293-7.146C1166.837,1138.056,1167.58,1134.356,1168.926,1132.647Z" transform="translate(-1166.366 -1132.647)" fill="#91c51b"/><path d="M1175.813,1174.347a23.346,23.346,0,0,1-.337-9.684c.695-3.4,2.337-8.768,2.337-8.768l-3.022-2.022,3.077,1.13a16.629,16.629,0,0,0-1.989-11.422l-2.574-.984,2.035-.2c-3.351-6.963-6.869-9.753-6.869-9.753,2.891,5.392,3.9,14.38,3.771,23.317C1172.138,1162.786,1174.5,1170.562,1175.813,1174.347Z" transform="translate(-1165.91 -1132.647)" fill="#91c51b"/><path d="M1166.511,1145.462a20.484,20.484,0,0,0,1.01,9.1l1.361-.889a77.736,77.736,0,0,1-.871-8.557Z" transform="translate(-1166.366 -1129.944)" fill="#91c51b"/><path d="M1171.37,1162.586a54.737,54.737,0,0,1-2.616-9.911l-1.315,1.285a58.409,58.409,0,0,0,3.358,9.072Z" transform="translate(-1166.133 -1128.308)" fill="#91c51b"/><path d="M1175.2,1168.775c-.039-.047-.083-.109-.124-.159Z" transform="translate(-1164.48 -1124.854)" fill="#91c51b"/><path d="M1167,1140.208a48.12,48.12,0,0,1-.293,7.146l1.224.369c-.018-.4-.034-.736-.041-.99-.146-3.166.959-14.085.959-14.085C1167.506,1134.356,1166.762,1138.056,1167,1140.208Z" transform="translate(-1166.291 -1132.647)" fill="#91c51b"/><path d="M1175.318,1169.241a33.427,33.427,0,0,1-4.4-8.105l-.656.763C1170.827,1163.436,1173.774,1167.281,1175.318,1169.241Z" transform="translate(-1165.522 -1126.475)" fill="#91c51b"/><path d="M1168.47,1132.647s4.165,9.349,3.71,18c-.482,9.007,1.939,21.494,4.322,25.759,0,0-5.821-12.536-5.241-22.521C1171.809,1144.329,1170.2,1139.291,1168.47,1132.647Z" transform="translate(-1165.91 -1132.647)" fill="#91c51b"/><path d="M1168.926,1132.647s3.519,2.79,6.869,9.753l-2.035.2,2.574.984a16.629,16.629,0,0,1,1.989,11.422l-3.077-1.13,3.022,2.022s-1.643,5.373-2.337,8.768c-.708,3.431-.387,8.868,1.15,11.9,0,0-5.209-6.413-5.98-8.5l1.944-2.279-2.016,1.578a58.413,58.413,0,0,1-3.358-9.071l3.457-3.384-3.608,2.353a20.484,20.484,0,0,1-1.01-9.1l1.683-.387-1.409-.423a48.149,48.149,0,0,0,.293-7.146C1166.837,1138.056,1167.58,1134.356,1168.926,1132.647Z" transform="translate(-1166.366 -1132.647)" fill="#91c51b"/></g><g transform="translate(0 49.847)"><path d="M1182.082,1132.4s-6.546-3.173-18.718-3.076l.854,2.994-2.827-2.939a25,25,0,0,0-16.6,4.831l2.937,3.505-4.093-2.854s-6.3,5.634-10.368,8.693-10.95,5.85-15.158,5.523c0,0,9.765,3.456,12.73,3.3l2.148-4.129-1.22,3.82s8.284.361,13.535-.674l2.987-7.186-1.489,6.76a30.05,30.05,0,0,0,13.411-4.334l-.371-2.764,1.4,1.825s7.006-4.129,10.432-5.244S1180.319,1135.632,1182.082,1132.4Z" transform="translate(-1118.109 -1129.313)" fill="#9bd417"/><path d="M1120.545,1148.887a31.258,31.258,0,0,0,12.195-5.329c4.071-3.059,10.368-8.693,10.368-8.693l4.093,2.854-2.937-3.505a25,25,0,0,1,16.6-4.831l2.828,2.939-.854-2.994c12.173-.1,18.718,3.076,18.718,3.076-10.051-.438-23.671,4.234-35.968,10.24C1136.549,1147.056,1125.679,1148.457,1120.545,1148.887Z" transform="translate(-1117.581 -1129.313)" fill="#9bd417"/><g transform="translate(0 3.091)"><path d="M1155.1,1144a30.049,30.049,0,0,1-13.411,4.334l.562-2.563a114.684,114.684,0,0,0,12.521-4.24Z" transform="translate(-1113 -1129.757)" fill="#9bd417"/><path d="M1129.682,1147.538a70.7,70.7,0,0,0,14.33-2.324l-1.142,2.743c-5.251,1.035-13.535.674-13.535.674Z" transform="translate(-1115.677 -1128.958)" fill="#9bd417"/><path d="M1118.109,1145.56c.078.033.157.055.235.08C1118.205,1145.6,1118.109,1145.56,1118.109,1145.56Z" transform="translate(-1118.109 -1128.884)" fill="#9bd417"/><path d="M1164.206,1139.908c-3.426,1.115-10.432,5.244-10.432,5.244l-1.213-1.589c.585-.233,1.081-.433,1.456-.588,4.728-1.9,20.6-11.123,20.6-11.123C1172.855,1135.082,1167.631,1138.794,1164.206,1139.908Z" transform="translate(-1110.645 -1131.853)" fill="#9bd417"/><path d="M1119.507,1146.038a36.116,36.116,0,0,0,11.747,1.343l-.718,1.38C1128.345,1148.873,1122.437,1147.013,1119.507,1146.038Z" transform="translate(-1117.806 -1128.78)" fill="#9bd417"/></g><path d="M1182.04,1131.853s-16.618.462-28.644,6.9-29.065,10.618-35.095,9.86c0,0,17.929.637,31.075-6.445S1170.826,1133.965,1182.04,1131.853Z" transform="translate(-1118.067 -1128.762)" fill="#9bd417"/><path d="M1182.082,1132.4s-6.546-3.173-18.718-3.076l.854,2.994-2.827-2.939a25,25,0,0,0-16.6,4.831l2.937,3.505-4.093-2.854s-6.3,5.634-10.368,8.693-10.95,5.85-15.158,5.523c0,0,9.765,3.456,12.73,3.3l2.148-4.129-1.22,3.82s8.284.361,13.535-.674l2.987-7.186-1.489,6.76a30.05,30.05,0,0,0,13.411-4.334l-.371-2.764,1.4,1.825s7.006-4.129,10.432-5.244S1180.319,1135.632,1182.082,1132.4Z" transform="translate(-1118.109 -1129.313)" fill="#9bd417"/></g><g transform="translate(36.429 54.831)"><path d="M1174.212,1133.409s-6.524,3.213-13.927,12.872l2.886,1.167-4.054.423a25.024,25.024,0,0,0-6.4,16.061l4.574-.162-4.768,1.476s.572,8.431.481,13.521-2.112,12.234-4.957,15.352c0,0,8.728-5.58,10.429-8.008l-1.935-4.233,2.262,3.308s5.378-6.312,7.784-11.087l-3.826-6.775,4.413,5.33a30.018,30.018,0,0,0,4.825-13.248l-2.408-1.4,2.3.019s1.048-8.058,2.27-11.451S1175.68,1136.782,1174.212,1133.409Z" transform="translate(-1148.051 -1133.409)" fill="#9bd417"/><path d="M1149.424,1191.669a31.269,31.269,0,0,0,3.286-12.9c.091-5.089-.481-13.521-.481-13.521l4.768-1.476-4.575.162a25.024,25.024,0,0,1,6.4-16.061l4.054-.423-2.886-1.167c7.4-9.659,13.927-12.872,13.927-12.872-6.521,7.656-11.206,21.273-14.026,34.66C1157.815,1177.907,1152.241,1187.348,1149.424,1191.669Z" transform="translate(-1147.754 -1133.409)" fill="#9bd417"/><path d="M1168.9,1155a30.015,30.015,0,0,1-4.825,13.248l-1.675-2.022a114.976,114.976,0,0,0,4.348-12.478Z" transform="translate(-1144.943 -1129.003)" fill="#9bd417"/><path d="M1156.36,1177.456a70.562,70.562,0,0,0,6.972-12.732l1.459,2.59c-2.406,4.775-7.784,11.087-7.784,11.087Z" transform="translate(-1146.251 -1126.625)" fill="#9bd417"/><path d="M1148.051,1183.332c.074-.041.139-.091.207-.134C1148.14,1183.277,1148.051,1183.332,1148.051,1183.332Z" transform="translate(-1148.051 -1122.622)" fill="#9bd417"/><path d="M1170.274,1146.569c-1.223,3.393-2.27,11.451-2.27,11.451l-2-.017c.175-.608.321-1.124.432-1.514,1.4-4.9,3.884-23.081,3.884-23.081C1171.79,1136.782,1171.5,1143.18,1170.274,1146.569Z" transform="translate(-1144.161 -1133.409)" fill="#9bd417"/><path d="M1149.284,1184a35.992,35.992,0,0,0,8.282-8.442l.647,1.419C1156.956,1178.772,1151.857,1182.289,1149.284,1184Z" transform="translate(-1147.784 -1124.277)" fill="#9bd417"/><path d="M1174.175,1133.409s-9.846,13.385-12.163,26.833-9.485,29.449-13.791,33.743c0,0,11.526-13.753,14.016-28.475S1168.949,1143.549,1174.175,1133.409Z" transform="translate(-1148.014 -1133.409)" fill="#9bd417"/><path d="M1174.212,1133.409s-6.524,3.213-13.927,12.872l2.886,1.167-4.054.423a25.024,25.024,0,0,0-6.4,16.061l4.574-.162-4.768,1.476s.572,8.431.481,13.521-2.112,12.234-4.957,15.352c0,0,8.728-5.58,10.429-8.008l-1.935-4.233,2.262,3.308s5.378-6.312,7.784-11.087l-3.826-6.775,4.413,5.33a30.018,30.018,0,0,0,4.825-13.248l-2.408-1.4,2.3.019s1.048-8.058,2.27-11.451S1175.68,1136.782,1174.212,1133.409Z" transform="translate(-1148.051 -1133.409)" fill="#9bd417"/></g><g transform="translate(60.366 53.502)"><path d="M1167.725,1133.023s2.869,6.686,12.135,14.579l1.317-2.823.21,4.07a25.037,25.037,0,0,0,15.71,7.22l.074-4.58,1.227,4.841s8.447-.14,13.532.215,12.107,2.745,15.072,5.746c0,0-5.121-9-7.457-10.831l-4.33,1.713,3.422-2.087s-6.024-5.7-10.67-8.35l-6.964,3.476,5.555-4.132a30.026,30.026,0,0,0-12.98-5.507l-1.529,2.331.137-2.292s-7.992-1.466-11.317-2.866S1171.167,1131.733,1167.725,1133.023Z" transform="translate(-1167.725 -1132.317)" fill="#91c51b"/><path d="M1224.637,1160.37a31.234,31.234,0,0,0-12.708-3.951c-5.084-.355-13.532-.215-13.532-.215l-1.227-4.841-.074,4.58a25.036,25.036,0,0,1-15.71-7.22l-.21-4.07-1.317,2.823c-9.266-7.894-12.135-14.579-12.135-14.579,7.311,6.908,20.665,12.3,33.889,15.8C1211.336,1151.281,1220.473,1157.34,1224.637,1160.37Z" transform="translate(-1167.725 -1132.191)" fill="#91c51b"/><path d="M1189.216,1135.817a30.029,30.029,0,0,1,12.981,5.507l-2.107,1.566a115.626,115.626,0,0,0-12.239-4.991Z" transform="translate(-1163.365 -1131.558)" fill="#91c51b"/><path d="M1210.969,1149.831a70.809,70.809,0,0,0-12.356-7.625l2.661-1.324c4.646,2.655,10.67,8.35,10.67,8.35Z" transform="translate(-1161.033 -1130.461)" fill="#91c51b"/><path d="M1216.467,1156.991c-.037-.073-.084-.14-.123-.209C1216.417,1156.9,1216.467,1156.991,1216.467,1156.991Z" transform="translate(-1157.191 -1127.016)" fill="#91c51b"/><path d="M1180.867,1133.748c3.325,1.4,11.317,2.866,11.317,2.866l-.119,1.993c-.6-.2-1.108-.38-1.488-.511-4.819-1.654-22.852-5.074-22.852-5.074C1171.167,1131.733,1177.547,1132.351,1180.867,1133.748Z" transform="translate(-1167.725 -1132.317)" fill="#91c51b"/><path d="M1217.126,1157.332a36.062,36.062,0,0,0-8-8.705l1.452-.574C1212.3,1149.4,1215.55,1154.677,1217.126,1157.332Z" transform="translate(-1158.756 -1128.908)" fill="#91c51b"/><path d="M1167.725,1132.9s12.863,10.53,26.17,13.535,28.918,11,32.983,15.525c0,0-13.143-12.224-27.709-15.474S1177.584,1138.641,1167.725,1132.9Z" transform="translate(-1167.725 -1132.191)" fill="#91c51b"/><path d="M1167.725,1133.023s2.869,6.686,12.135,14.579l1.317-2.823.21,4.07a25.037,25.037,0,0,0,15.71,7.22l.074-4.58,1.227,4.841s8.447-.14,13.532.215,12.107,2.745,15.072,5.746c0,0-5.121-9-7.457-10.831l-4.33,1.713,3.422-2.087s-6.024-5.7-10.67-8.35l-6.964,3.476,5.555-4.132a30.026,30.026,0,0,0-12.98-5.507l-1.529,2.331.137-2.292s-7.992-1.466-11.317-2.866S1171.167,1131.733,1167.725,1133.023Z" transform="translate(-1167.725 -1132.317)" fill="#91c51b"/></g><g transform="translate(60.372 0.809)"><path d="M1167.784,1143.517s-.763-7.229,3.46-18.648l2.526,1.819-1.809-3.657a25.015,25.015,0,0,1,10.181-13.974l2.3,3.953-1.3-4.816s7.436-4.014,11.7-6.808,9.216-8.312,10.34-12.378c0,0-.068,10.359-1.213,13.092l-4.613.624,4.005.144s-2.467,7.913-5.223,12.5l-7.775.372,6.865.889a30.019,30.019,0,0,1-8.631,11.149l-2.472-1.286,1.241,1.932s-6.26,5.19-8.472,8.033S1171.417,1142.958,1167.784,1143.517Z" transform="translate(-1167.73 -1089.007)" fill="#91c51b"/><path d="M1204,1091.244a31.215,31.215,0,0,1-9.153,9.657c-4.261,2.795-11.7,6.808-11.7,6.808l1.3,4.815-2.3-3.953a25.015,25.015,0,0,0-10.181,13.975l1.809,3.657-2.526-1.819c-4.223,11.418-3.46,18.648-3.46,18.648,3-9.6,12.017-20.829,21.837-30.353C1196.838,1105.68,1201.847,1095.922,1204,1091.244Z" transform="translate(-1167.73 -1088.522)" fill="#91c51b"/><g transform="translate(0.054)"><path d="M1185.276,1122.921a30.02,30.02,0,0,0,8.631-11.149l-2.6-.337a115.019,115.019,0,0,1-8.238,10.337Z" transform="translate(-1164.461 -1084.148)" fill="#91c51b"/><path d="M1197.333,1100.364a70.574,70.574,0,0,1-7.049,12.69l2.97-.145c2.756-4.589,5.223-12.5,5.223-12.5Z" transform="translate(-1162.897 -1086.546)" fill="#91c51b"/><path d="M1198.515,1089.007c0,.08,0,.161,0,.246C1198.512,1089.1,1198.515,1089.007,1198.515,1089.007Z" transform="translate(-1161.115 -1089.007)" fill="#91c51b"/><path d="M1178.886,1129.739c2.212-2.842,8.471-8.033,8.471-8.033l-1.081-1.682c-.423.473-.782.872-1.049,1.176-3.4,3.8-17.453,15.6-17.453,15.6C1171.407,1136.238,1176.672,1132.584,1178.886,1129.739Z" transform="translate(-1167.774 -1082.287)" fill="#91c51b"/><path d="M1198.975,1090.482a36.008,36.008,0,0,1-2.728,11.505l1.545-.208C1198.639,1099.76,1198.9,1093.57,1198.975,1090.482Z" transform="translate(-1161.605 -1088.688)" fill="#91c51b"/></g><path d="M1167.774,1143.473s6.072-15.47,16.214-24.6,19.847-23.731,21.183-29.662c0,0-5.492,17.081-16.611,27.042S1173.563,1133.643,1167.774,1143.473Z" transform="translate(-1167.72 -1088.963)" fill="#91c51b"/><path d="M1167.784,1143.517s-.763-7.229,3.46-18.648l2.526,1.819-1.809-3.657a25.015,25.015,0,0,1,10.181-13.974l2.3,3.953-1.3-4.816s7.436-4.014,11.7-6.808,9.216-8.312,10.34-12.378c0,0-.068,10.359-1.213,13.092l-4.613.624,4.005.144s-2.467,7.913-5.223,12.5l-7.775.372,6.865.889a30.019,30.019,0,0,1-8.631,11.149l-2.472-1.286,1.241,1.932s-6.26,5.19-8.472,8.033S1171.417,1142.958,1167.784,1143.517Z" transform="translate(-1167.73 -1089.007)" fill="#91c51b"/></g><g transform="translate(26.821)"><path d="M1175.181,1144.44s1.058-6.562-2.253-17.52l-2.417,1.822,1.824-3.648s-1.617-9.115-9.254-14.456l-2.235,4.314,1.281-5.232s-7.166-4.223-11.323-7.232c-4.206-3.038-9.3-9.3-10.648-14.147,0,0,.72,12.213,1.971,15.26l4.4.546-3.781.29s2.691,8.531,5.408,13.26l7.165.24-6.291,1.04a30.271,30.271,0,0,0,8,10.944l2.217-1.261-1.108,1.869s5.552,4.88,7.468,7.507C1167.49,1140.624,1172,1143.929,1175.181,1144.44Z" transform="translate(-1140.154 -1088.342)" fill="#91c51b"/><path d="M1141.249,1091a34.536,34.536,0,0,0,9.316,10.909c4.157,3.009,11.323,7.232,11.323,7.232l-1.281,5.232,2.235-4.314c7.637,5.341,9.254,14.457,9.254,14.457l-1.824,3.647,2.417-1.822c3.312,10.957,2.253,17.52,2.253,17.52-2.233-8.773-10.121-19.594-19.2-29.212C1148.8,1107.3,1143.6,1096.452,1141.249,1091Z" transform="translate(-1139.917 -1087.765)" fill="#91c51b"/><path d="M1155.445,1124.536a30.27,30.27,0,0,1-8-10.944l2.37-.394a114.637,114.637,0,0,0,7.615,10.214Z" transform="translate(-1138.575 -1082.957)" fill="#91c51b"/><path d="M1143.354,1101.5a80.726,80.726,0,0,0,7.058,13.436l-2.725-.09c-2.717-4.729-5.408-13.26-5.408-13.26Z" transform="translate(-1139.694 -1085.491)" fill="#91c51b"/><path d="M1140.154,1088.342c0,.1.012.2.018.3C1140.159,1088.466,1140.154,1088.342,1140.154,1088.342Z" transform="translate(-1140.154 -1088.342)" fill="#91c51b"/><path d="M1162.4,1130.813c-1.916-2.627-7.468-7.507-7.468-7.507l.967-1.625c.381.456.7.838.94,1.124,3.014,3.6,15.14,14.411,15.14,14.411C1168.8,1136.706,1164.288,1133.4,1162.4,1130.813Z" transform="translate(-1136.953 -1081.119)" fill="#91c51b"/><path d="M1140.274,1090.133a49.676,49.676,0,0,0,3.294,13.262l-1.468-.181C1141.176,1100.966,1140.548,1093.822,1140.274,1090.133Z" transform="translate(-1140.128 -1087.954)" fill="#91c51b"/><path d="M1175.177,1144.387s-4.8-14.368-13.956-23.354c-9.535-9.354-19.383-25.406-21.052-32.447,0,0,6.189,19.512,16.811,29.832C1167.134,1128.3,1170.427,1135.4,1175.177,1144.387Z" transform="translate(-1140.151 -1088.289)" fill="#91c51b"/><path d="M1175.181,1144.44s1.058-6.562-2.253-17.52l-2.417,1.822,1.824-3.648s-1.617-9.115-9.254-14.456l-2.235,4.314,1.281-5.232s-7.166-4.223-11.323-7.232c-4.206-3.038-9.3-9.3-10.648-14.147,0,0,.72,12.213,1.971,15.26l4.4.546-3.781.29s2.691,8.531,5.408,13.26l7.165.24-6.291,1.04a30.271,30.271,0,0,0,8,10.944l2.217-1.261-1.108,1.869s5.552,4.88,7.468,7.507C1167.49,1140.624,1172,1143.929,1175.181,1144.44Z" transform="translate(-1140.154 -1088.342)" fill="#91c51b"/></g></g><g transform="translate(0 372.388)"><g transform="translate(0 45.291)"><g transform="translate(0 49.902)"><path d="M774.457,1407.936s94.763-116.792,239.519-102.429c97.064,9.634,110.369,63.249,165.644,18.185,0,0-35.137-25.175-2.564-56.454s125.654,12.9,103.57,94.313c-19.5,71.9-108.89,85.442-172.857,47.523S849.019,1388.037,774.457,1407.936Z" transform="translate(-774.457 -1257.144)" fill="#80cff2"/><path d="M1013.976,1297.113c3.661.365,7.159.809,10.59,1.286-101.532-13.686-172.419,69.172-172.419,69.172,48.085-25.4,123.459-34.522,267.324,4.515,130.535,35.418,142.074-32.03,142.074-32.03,8.115-9.174,15.381-15.583,21.9-19.748a88.382,88.382,0,0,1-2.822,32.849c-19.5,71.9-108.89,85.443-172.857,47.523s-258.75-21.037-333.312-1.138C774.457,1399.542,869.22,1282.75,1013.976,1297.113Z" transform="translate(-774.457 -1248.75)" fill="#80cde4" opacity="0.5"/><path d="M1069.794,1409.074c-25.013-14.829-70.054-21.25-120.06-22.415.013-.016,35.232-20.261,109.623-2.514,74.417,17.754,122,30.107,155.143-13.726s-28.987-110.257-56.606-91c0,0-38.908,32.1,23.143,51.537,0,0-24.389.837-44.823-12.163-8.383-8.787-21.138-28.506,2.865-51.557,32.572-31.277,125.654,12.9,103.57,94.313C1223.146,1433.448,1133.761,1446.994,1069.794,1409.074Z" transform="translate(-736.482 -1257.144)" fill="#a0dbf0"/><path d="M1165.373,1332.084s-22.63,24.544-69.054,18.6c-40.464-5.172-103.31-47.458-156.557-38.287,0,0,26.1-11.533,73.635,3.015C1065.876,1331.475,1104.023,1362.958,1165.373,1332.084Z" transform="translate(-738.642 -1246.113)" fill="#80c1e4" opacity="0.5"/><path d="M878.275,1335.626s22.158-16.986,56.417-16.427c30.888.512,80.294,24.862,126.435,14.6,0,0-22.46,10.124-63.113,2.989C956.206,1329.462,930.535,1312.231,878.275,1335.626Z" transform="translate(-751.964 -1243.703)" fill="#a0dbf0"/></g><g transform="translate(605.597 37.005)"><path d="M1272.211,1397.335s94.763-116.792,239.517-102.429c97.065,9.634,110.37,63.25,165.646,18.186,0,0-35.137-25.174-2.566-56.453s125.655,12.9,103.571,94.312c-19.5,71.9-108.888,85.442-172.856,47.523S1346.773,1377.436,1272.211,1397.335Z" transform="translate(-1272.211 -1246.544)" fill="#80cff2"/><path d="M1511.729,1286.512c3.662.366,7.16.809,10.591,1.287-101.533-13.686-172.419,69.171-172.419,69.171,48.085-25.4,123.459-34.521,267.324,4.515,130.534,35.418,142.074-32.029,142.074-32.029,8.115-9.173,15.38-15.584,21.9-19.749a88.381,88.381,0,0,1-2.823,32.848c-19.5,71.9-108.888,85.442-172.856,47.523s-258.75-21.037-333.312-1.137C1272.211,1388.941,1366.974,1272.149,1511.729,1286.512Z" transform="translate(-1272.211 -1238.15)" fill="#80cde4" opacity="0.5"/><path d="M1567.548,1398.473c-25.013-14.829-70.054-21.25-120.06-22.415.013-.016,35.232-20.26,109.623-2.512,74.417,17.753,122,30.107,155.144-13.728s-28.987-110.257-56.606-91c0,0-38.908,32.1,23.143,51.536,0,0-24.389.836-44.823-12.163-8.383-8.788-21.138-28.508,2.864-51.557,32.574-31.276,125.655,12.9,103.571,94.312C1720.9,1422.846,1631.515,1436.393,1567.548,1398.473Z" transform="translate(-1234.236 -1246.544)" fill="#a0dbf0"/><path d="M1663.126,1321.483s-22.629,24.544-69.053,18.6c-40.465-5.172-103.31-47.458-156.557-38.287,0,0,26.1-11.533,73.635,3.015C1563.63,1320.874,1601.777,1352.357,1663.126,1321.483Z" transform="translate(-1236.396 -1235.513)" fill="#80c1e4" opacity="0.5"/><path d="M1376.029,1325.026s22.156-16.986,56.417-16.427c30.889.512,80.295,24.861,126.435,14.6,0,0-22.461,10.123-63.113,2.99C1453.96,1318.861,1428.289,1301.63,1376.029,1325.026Z" transform="translate(-1249.718 -1233.103)" fill="#a0dbf0"/></g><g transform="translate(305.285 8.885)"><path d="M1582.514,1407.568s-99.9-132.339-259.4-122.767c-106.955,6.418-123.485,64.734-182.58,12.87,0,0,39.489-26.138,4.834-61.888s-138.468,8.774-117.123,99.139c18.847,79.8,116.54,98.508,188.149,59.605S1501.329,1382.519,1582.514,1407.568Z" transform="translate(-1025.378 -1223.432)" fill="#62b6d2"/><path d="M1323.1,1273.961c-4.034.242-7.9.584-11.681.961,112-10.685,186.9,83.365,186.9,83.365-51.9-29.965-134.364-43.213-293.772-6.508-144.625,33.307-154.889-41.268-154.889-41.268-8.586-10.417-16.336-17.773-23.349-22.628a97.179,97.179,0,0,0,1.925,36.2c18.847,79.8,116.54,98.508,188.149,59.605s284.938-12.01,366.123,13.04C1582.506,1396.728,1482.6,1264.389,1323.1,1273.961Z" transform="translate(-1025.369 -1212.592)" fill="#62a3d2" opacity="0.5"/><path d="M1216.391,1394.528c28-15.211,77.7-20.333,132.667-19.469-.014-.019-37.974-23.763-120.31-7.461-82.371,16.306-135.075,27.833-169.9-21.729s35.776-119.856,65.423-97.514c0,0,41.583,36.928-27.263,55.611,0,0,26.755,1.961,49.665-11.438,9.518-9.29,24.235-30.4-1.3-56.745-34.655-35.752-138.468,8.774-117.123,99.139C1047.089,1414.724,1144.782,1433.431,1216.391,1394.528Z" transform="translate(-1025.378 -1223.432)" fill="url(#b)"/><path d="M1099.985,1304.44s23.974,27.925,75.175,23.391c44.628-3.951,115.166-47.7,173.318-35.341,0,0-28.253-13.791-80.981.152C1209.282,1308.031,1166.259,1340.979,1099.985,1304.44Z" transform="translate(-1009.213 -1209.788)" fill="#62a3d2" opacity="0.5"/><path d="M1406.756,1320.837s-23.731-19.61-61.374-20.465c-33.945-.765-89.079,23.864-139.39,10.62,0,0,24.313,12.079,69.212,5.989C1321.381,1310.72,1350.2,1292.9,1406.756,1320.837Z" transform="translate(-986.246 -1206.766)" fill="#a0dbf0"/></g><g transform="translate(278.252)"><path d="M1003.159,1418.3s127.051-156.585,321.127-137.329c130.136,12.915,147.975,84.8,222.083,24.381,0,0-47.109-33.75-3.438-75.687s168.467,17.29,138.859,126.446c-26.15,96.391-145.99,114.553-231.753,63.714S1103.126,1391.617,1003.159,1418.3Z" transform="translate(-1003.159 -1216.129)" fill="#80cff2"/><path d="M1324.286,1269.715c4.909.49,9.6,1.084,14.2,1.724-136.126-18.348-231.164,92.74-231.164,92.74,64.468-34.058,165.525-46.284,358.408,6.053,175.008,47.486,190.479-42.942,190.479-42.942,10.882-12.3,20.622-20.892,29.365-26.476a118.481,118.481,0,0,1-3.782,44.041c-26.15,96.391-145.99,114.553-231.753,63.714s-346.911-28.206-446.877-1.525C1003.159,1407.044,1130.21,1250.459,1324.286,1269.715Z" transform="translate(-1003.159 -1204.875)" fill="#80cde4" opacity="0.5"/><path d="M1399.123,1419.823c-33.536-19.88-93.922-28.49-160.966-30.05.018-.022,47.237-27.164,146.975-3.37,99.772,23.8,163.575,40.366,208-18.4s-38.863-147.825-75.892-122c0,0-52.165,43.039,31.027,69.1,0,0-32.7,1.12-60.093-16.308-11.24-11.781-28.341-38.221,3.841-69.123,43.669-41.935,168.467,17.29,138.859,126.446C1604.726,1452.5,1484.886,1470.663,1399.123,1419.823Z" transform="translate(-952.245 -1216.129)" fill="#a0dbf0"/><path d="M1527.268,1316.6s-30.341,32.906-92.583,24.939c-54.251-6.935-138.51-63.629-209.9-51.332,0,0,34.994-15.464,98.725,4.042C1393.87,1315.784,1445.013,1357.995,1527.268,1316.6Z" transform="translate(-955.142 -1201.339)" fill="#80c1e4" opacity="0.5"/><path d="M1142.349,1321.351s29.708-22.775,75.64-22.025c41.414.686,107.652,33.333,169.513,19.58,0,0-30.113,13.571-84.617,4.008C1246.835,1313.087,1212.416,1289.984,1142.349,1321.351Z" transform="translate(-973.002 -1198.108)" fill="#a0dbf0"/></g></g><g transform="translate(457.948)"><path d="M1150.855,1305.547s50.908-79.365,141.109-81.713c60.487-1.569,72.155,30.468,103.333-1.6,0,0-23.3-12.8-5.225-34.615s78.328-1.774,69.963,50.148c-7.383,45.85-61.636,61.123-103.538,42.688S1195.56,1287.5,1150.855,1305.547Z" transform="translate(-1150.855 -1178.903)" fill="url(#c)"/><path d="M1291.964,1217c2.28-.057,4.471-.055,6.615-.024-63.5-.58-101.872,56.007-101.872,56.007,28.02-19.389,73.914-30.847,165.163-17.907,82.791,11.742,85.556-30.749,85.556-30.749a69.442,69.442,0,0,1,12.23-13.878,54.933,54.933,0,0,1,.38,20.481c-7.383,45.85-61.636,61.123-103.538,42.688s-160.937,7.051-205.642,25.1C1150.855,1298.713,1201.763,1219.348,1291.964,1217Z" transform="translate(-1150.855 -1172.069)" fill="#62b8d2" opacity="0.5"/><path d="M1333.32,1280.451c-16.385-7.212-44.576-7.686-75.492-4.532.007-.011,20.423-15.223,67.447-10.036,47.044,5.187,77.19,9.126,94.8-20.473s-25-65.758-40.787-51.74c0,0-21.922,22.807,17.6,29.993,0,0-14.987,2.4-28.428-4.033-5.738-4.77-14.877-15.946-1.562-32.015,18.067-21.814,78.328-1.774,69.963,50.148C1429.475,1283.613,1375.222,1298.886,1333.32,1280.451Z" transform="translate(-1127.678 -1178.903)" fill="#fff"/><path d="M1388.738,1223.018s-12.372,16.888-41.389,16.819c-25.288-.057-66.78-21.276-99.025-11.5,0,0,15.352-9.134,45.609-3.842C1327.334,1230.345,1352.894,1246.81,1388.738,1223.018Z" transform="translate(-1129.738 -1169.382)" fill="#62bdd2" opacity="0.5"/><path d="M1211.761,1247.842s12.571-12.2,33.736-14.5c19.083-2.072,51.126,9.12,78.919-.775,0,0-13.2,7.98-38.728,6.726C1259.43,1238,1242.482,1229.364,1211.761,1247.842Z" transform="translate(-1137.659 -1167.278)" fill="#a0dbf0"/><g transform="translate(4.486 35.872)"><path d="M1154.542,1312.279s76.579-87.782,188.619-72.181c75.126,10.46,84.084,52.5,128.162,19.2,0,0-26.639-20.626-.546-43.911s97.246,13.874,78.008,76.416c-16.987,55.229-86.744,63-135.445,31.592S1212.951,1299.116,1154.542,1312.279Z" transform="translate(-1154.542 -1208.388)" fill="url(#d)"/><path d="M1343.161,1234.782c2.833.394,5.538.847,8.189,1.325-78.493-13.748-135.661,48.414-135.661,48.414,37.991-18.245,96.755-23.014,207.471,11.719,100.455,31.513,111.143-20.51,111.143-20.51,6.54-6.872,12.345-11.626,17.516-14.661a68.584,68.584,0,0,1-3.034,25.422c-16.987,55.229-86.744,63-135.445,31.592s-200.389-24.283-258.8-11.12C1154.542,1306.963,1231.121,1219.181,1343.161,1234.782Z" transform="translate(-1154.542 -1203.072)" fill="#80cfe4" opacity="0.5"/><path d="M1383.754,1323.4c-19.044-12.278-53.854-18.65-92.656-21.089.011-.012,27.877-14.655,85.189,1.413,57.332,16.071,93.97,27.127,120.825-5.894s-19.683-86.512-41.623-72.4c0,0-31.037,23.733,16.65,40.726,0,0-18.958-.1-34.492-10.82-6.284-7.084-15.687-22.788,3.543-39.946,26.1-23.289,97.246,13.874,78.008,76.416C1502.211,1347.036,1432.454,1354.808,1383.754,1323.4Z" transform="translate(-1124.956 -1208.388)" fill="#fff"/><path d="M1459.376,1267.594s-18.2,18.362-54.1,12.325c-31.288-5.261-79.005-40.029-120.587-34.542,0,0,20.564-8.156,57.1,4.605C1382.133,1264.061,1410.944,1289.681,1459.376,1267.594Z" transform="translate(-1126.345 -1200.93)" fill="#80dce4" opacity="0.5"/><path d="M1236.4,1261.383s17.644-12.513,44.23-11.029c23.974,1.348,61.716,21.772,97.807,15.228,0,0-17.7,7.168-49.087.379C1297.074,1258.984,1277.582,1244.817,1236.4,1261.383Z" transform="translate(-1136.807 -1199.322)" fill="#a0dbf0"/></g><g transform="translate(75.246 155.84)"><path d="M1212.7,1406.919s70.282-82.244,174.368-68.949c69.8,8.913,78.472,47.83,119.074,16.476,0,0-24.9-18.859-.889-40.738s90.344,11.85,73.045,70.078c-15.274,51.422-79.929,59.366-125.388,30.737S1266.783,1394.1,1212.7,1406.919Z" transform="translate(-1212.701 -1306.992)" fill="#62b6d2"/><path d="M1387.069,1332.712c2.629.337,5.146.728,7.611,1.145-72.946-11.929-125.439,46.346-125.439,46.346,35.084-17.334,89.566-22.371,192.59,8.688,93.476,28.183,102.937-20.194,102.937-20.194,6.007-6.441,11.35-10.918,16.121-13.788a63.659,63.659,0,0,1-2.59,23.619c-15.274,51.422-79.929,59.366-125.388,30.737s-186.128-20.424-240.209-7.6C1212.7,1401.661,1282.984,1319.418,1387.069,1332.712Z" transform="translate(-1212.701 -1301.735)" fill="#62dcd2" opacity="0.5"/><path d="M1425.477,1414.521c-17.775-11.2-50.127-16.741-86.152-18.6.011-.011,25.738-13.888,79.054.415,53.332,14.309,87.421,24.182,112.046-6.734s-19.02-80.059-39.253-66.736c0,0-28.586,22.346,15.807,37.615,0,0-17.593.1-32.1-9.677-5.89-6.505-14.75-20.976,2.941-37.1,24.008-21.878,90.344,11.85,73.044,70.078C1535.59,1435.207,1470.936,1443.151,1425.477,1414.521Z" transform="translate(-1185.267 -1306.992)" fill="#88c9e6"/><path d="M1495.289,1361.662s-16.723,17.228-50.086,12.006c-29.073-4.55-73.653-36.308-112.18-30.779,0,0,19.006-7.785,53.016,3.667C1423.591,1359.2,1450.55,1382.672,1495.289,1361.662Z" transform="translate(-1186.632 -1299.775)" fill="#62a3d2" opacity="0.5"/><path d="M1288.348,1358.286s16.26-11.794,40.941-10.7c22.255,1,57.449,19.556,90.878,13.1,0,0-16.362,6.842-45.538.875C1344.62,1355.424,1326.409,1342.486,1288.348,1358.286Z" transform="translate(-1196.311 -1298.212)" fill="#a0dbf0"/></g></g></g><g transform="translate(334.396 0)"><g transform="translate(412.352 65.226)"><path d="M1516.426,949.583c-2.979,2.335-8.923,9.452-8.923,9.452l-2.358-.847-1.619,1.4s-7.655-5.228-11.163-6.662-19.557,4.316-19.557,4.316,8.657-2.162,14.99-1.866,11.454,4.914,14.252,7.4,4.162,1.555,4.162,1.555,1.566.53,3.581-2.63,5.681-9,11.7-11.008,14.931-2.287,14.931-2.287S1519.407,947.25,1516.426,949.583Z" transform="translate(-1369.902 -921.743)" fill="#fff"/><path d="M1463.471,976.183c-3.2.634-10.545,3.8-10.545,3.8l-1.486-1.569-1.787.446s-3.862-7-6-9.47-16.729-4.286-16.729-4.286,7.5,1.7,12.263,4.393,6.9,8.238,8.086,11.243,2.6,2.817,2.6,2.817,1,1.016,3.78-.631,7.873-4.716,13.282-3.92,12.382,4.052,12.382,4.052S1466.674,975.544,1463.471,976.183Z" transform="translate(-1379.843 -918.063)" fill="#fff"/><path d="M1415.214,934.62a60.155,60.155,0,0,0-7.787,2.806l-1.1-1.16-1.32.332a60.89,60.89,0,0,0-4.431-6.993c-1.58-1.823-12.354-3.164-12.354-3.164a40.76,40.76,0,0,1,9.055,3.244c3.516,1.985,5.1,6.082,5.971,8.3s1.918,2.082,1.918,2.082.737.748,2.791-.468,5.815-3.482,9.808-2.894a41.007,41.007,0,0,1,9.143,2.992S1417.579,934.148,1415.214,934.62Z" transform="translate(-1388.227 -926.44)" fill="#fff"/></g><g transform="translate(0 374.705)"><path d="M1061.279,1183.508a58.068,58.068,0,0,1,6.615,4.31l1.271-.837,1.156.6a57.831,57.831,0,0,1,5.644-5.525c1.864-1.346,12.163-.236,12.163-.236a38.926,38.926,0,0,0-9.118,1.032c-3.7,1.074-6.063,4.533-7.363,6.4s-2.235,1.511-2.235,1.511-.849.536-2.489-1.044-4.637-4.505-8.475-4.833a38.968,38.968,0,0,0-9.143.774S1059.188,1182.555,1061.279,1183.508Z" transform="translate(-1049.305 -1180.682)" fill="#fff"/><path d="M1094.711,1192.556a49.529,49.529,0,0,1,6.769.741l.654-1.138,1.118.007a49.86,49.86,0,0,1,2.192-6.445c.911-1.762,9.269-4.914,9.269-4.914a33.638,33.638,0,0,0-6.616,4.341c-2.426,2.264-2.9,5.849-3.172,7.789s-1.133,2.034-1.133,2.034-.444.745-2.321.164-5.32-1.663-8.4-.423a33.671,33.671,0,0,0-6.734,4.156S1092.728,1192.634,1094.711,1192.556Z" transform="translate(-1041.282 -1180.808)" fill="#fff"/></g><g transform="translate(93.675)"><path d="M1105.552,1111.482l-.043.007a4.988,4.988,0,0,0-5.565-3.9,4.936,4.936,0,0,0-1.5.464,8.422,8.422,0,0,0-8.771-5.947,9.878,9.878,0,0,0-18.827,5.339l0,.011a4.979,4.979,0,0,0-3.441,2.433,6.492,6.492,0,1,0-3.926,12.376,6.64,6.64,0,0,0,10.941,2.117,8.759,8.759,0,0,0,14.292-.115,9.957,9.957,0,0,0,7.885,2.064c4.193-.583,7.4-3.323,7.98-6.509a5.143,5.143,0,0,0,2.157.155,4.312,4.312,0,1,0-1.184-8.495Z" transform="translate(-1058.932 -1096.203)" fill="#fff"/><path d="M1475.457,1040.6l.055.01a6.469,6.469,0,0,1,9.18-4.463,10.938,10.938,0,0,1,11.389-7.722,12.826,12.826,0,0,1,24.445,6.932l0,.015a6.46,6.46,0,0,1,4.464,3.16,8.431,8.431,0,1,1,5.1,16.072,8.624,8.624,0,0,1-14.208,2.747,11.374,11.374,0,0,1-18.559-.15,12.919,12.919,0,0,1-10.237,2.682c-5.443-.758-9.61-4.315-10.363-8.452a6.678,6.678,0,0,1-2.8.2c-3.38-.471-5.774-3.322-5.351-6.369S1472.078,1040.127,1475.457,1040.6Z" transform="translate(-1052.153 -840.779)" fill="#fff"/></g></g><path d="M1546.95,1144.985s-68.368,9.584-130.168,33.518-144.074,66.021-178.518,88.452-22.917,42.977,104.274,18.537C1469.1,1261.176,1582.368,1139.66,1546.95,1144.985Z" transform="translate(-677.589 -813.901)" fill="#1b76bc" opacity="0.4"/><g transform="translate(539.842 318.526)"><path d="M1558.088,1134.808s-71.373,9.75-135.927,33.837-150.517,66.372-186.515,88.889-24.021,43.039,108.779,18.292C1476.56,1251.2,1595.065,1129.4,1558.088,1134.808Z" transform="translate(-1218.165 -1134.634)" fill="#cc1e49"/><g clip-path="url(#e)"><g transform="translate(17.103 1.425)"><g transform="translate(0 101.194)"><path d="M1274.179,1242.966l-14.468,32.985,10.015-1.255,22.985-37.448-52.652-12.582-7.836,4.075Z" transform="translate(-1232.223 -1217.746)" fill="#dd883c"/><path d="M1300.126,1235.3l-23.429,39.4,6.924-.575,28.205-42.438-61.132-12.708-5.11,2.97Z" transform="translate(-1229.328 -1218.979)" fill="#dd883c"/></g><g transform="translate(220.168)"><path d="M1471.178,1161.628l-6.383,46.136,11.438-5.256,12.382-50.465-65.247-7.782-10.185,6.637Z" transform="translate(-1413.184 -1133.973)" fill="#dd883c"/><path d="M1493.717,1149.057l-10.673,50.5,7-2.809,12.888-52.754-67.16-8.186-5.743,4.194Z" transform="translate(-1409.535 -1135.805)" fill="#dd883c"/></g><g transform="translate(57.392 10.771)"><path d="M1329.5,1166.862s-21.348,44.473,52.4,39.114c132.91-9.658,45.768,54.773,45.768,54.773l101.842-35.054s-28.713-40.152-82-39.851c-83.738.471-74.04-8.5-68.031-41.186Z" transform="translate(-1269.161 -1144.658)" fill="#920d36"/><path d="M1279.4,1195.73s-1.213,38.182,58.4,42.74c83.969,6.418,34.926,49.958,34.926,49.958l98-38.949s-32.521-33.458-86.079-31.089c-84.169,3.722-67.626-15.874-65.723-48.736Z" transform="translate(-1279.395 -1139.243)" fill="#920d36"/></g></g></g><path d="M1231.1,1286.01c18.089,2.766,52.95.549,110.529-10.185,132.134-24.624,250.639-146.425,213.662-141.017,0,0-21.8,2.981-52.195,9.71h0c68.256-2.593,3.93,45.271-84.39,95.835S1231.1,1286.01,1231.1,1286.01Z" transform="translate(-1215.364 -1134.634)" fill="#b31942" opacity="0.6"/><path d="M1236.275,1266.4s157.378-95.933,283.715-121.244C1519.99,1145.158,1366.068,1170.142,1236.275,1266.4Z" transform="translate(-1214.242 -1132.353)" fill="#fff" opacity="0.3"/></g><path d="M1461,1180.185s22.843-13.59,4.571-11.668-36.626,5.255-46.351,12.224-7.983,11.453-20.994,17.167c-19.635,8.619-11.518,1.185-25.886,12.035s-27.465,11.209-39.124,16.444-1.511,5.375-16.453,12.746c-7.752,3.826-6.165,6.744-3.624,8.367,0,0,2.393,6.4,31.171-13.842,23.96-16.85,54.19-18.133,72.081-36.808C1423.671,1189.253,1452.361,1185.5,1461,1180.185Z" transform="translate(-658.198 -808.807)" fill="#d08d2c" opacity="0.4"/><g transform="translate(605.149 296.371)"><g transform="translate(91.136 3.911)"><path d="M1347.366,1120.557c1.961-2.6,21.67.442,30.646,7.71s29.907,31.441,38.453,38.323,24.31,11.327,32.024,10.494,14.632-1.994,15.831.679a2.094,2.094,0,0,1-1.619,3.149,1.778,1.778,0,0,1-1.158,1.965s.888,2.191-2.377,2.764c0,0,.489,1.235-1.368,1.972s-7.711,5.482-14.4,4.69-15.931,1.718-21.111,3.375-13.805.123-14.713-6.784-3.1-12.378-9.766-16.651-29.411-7.559-48.553-25.906C1349.254,1146.336,1345.254,1123.36,1347.366,1120.557Z" transform="translate(-1346.75 -1119.638)" fill="#f6e2c9"/><path d="M1361.249,1152.129c-12.207-6.678-7.02-32.328-7.015-32.339-3.565-.341-6.211-.1-6.868.765-2.112,2.8,1.888,25.78,1.888,25.78,19.142,18.347,41.886,21.634,48.553,25.906a19.386,19.386,0,0,1,8.534,10.875h0C1405.139,1159.472,1373.459,1158.812,1361.249,1152.129Z" transform="translate(-1346.75 -1119.637)" fill="#efcaa3" opacity="0.5"/><g transform="translate(109.769 61.25)" opacity="0.5"><path d="M1439.586,1170.289s2.262-.39,3.022-.016a1.842,1.842,0,0,0-.022-.269A8.625,8.625,0,0,0,1439.586,1170.289Z" transform="translate(-1436.406 -1169.981)" fill="#efcaa3" opacity="0.5"/><path d="M1438.841,1171.871a9.553,9.553,0,0,1,2.8-.1,1.207,1.207,0,0,0-.047-.147c.035-.018.064-.033.1-.047A8.047,8.047,0,0,0,1438.841,1171.871Z" transform="translate(-1436.567 -1169.638)" fill="#efcaa3" opacity="0.5"/><path d="M1439.617,1173.926c.083-.015.151-.036.226-.052a8.111,8.111,0,0,0-2.871-.05,10.364,10.364,0,0,1,2.673.195C1439.629,1173.961,1439.617,1173.926,1439.617,1173.926Z" transform="translate(-1436.972 -1169.173)" fill="#efcaa3" opacity="0.5"/></g></g><path d="M1273.024,1138.284s-4.79,18.422,4.925,28,29.831,18.883,29.831,18.883l26.34-16.761s-10.734-5.842-11.935-10.985c0,0,21.933,3.393,32.216.989s14.236-2.926,14.236-2.926.088-26.346-2.382-37.849c0,0-35.1-3.281-45.283.953S1277.386,1123.251,1273.024,1138.284Z" transform="translate(-1271.844 -1116.424)" fill="#272525"/><g transform="translate(38.046 8.565)"><path d="M1346.464,1156.568c10.284-2.4,14.236-2.926,14.236-2.926s0-1.036-.01-2.787h0c-3.931,2.051-24.44,6.571-28.322,1.864s-3-9.943,1.774-12.348c3.088-1.559-3.222-2.887-6.919-3.3s-1.269-4.983-5.29-6.582c-5.758-2.286-11.4-4.345-13.45-5.56,19.986,13.459,13.969,14.548,5.51,27.876-.3.472.039,1.526.316,2.78C1315.542,1155.778,1336.488,1158.9,1346.464,1156.568Z" transform="translate(-1301.951 -1123.145)" fill="#363436"/><path d="M1304.585,1124.421c-.477-.319-.964-.639-1.471-.958A15.975,15.975,0,0,0,1304.585,1124.421Z" transform="translate(-1303.114 -1123.463)" fill="#363436"/></g><g transform="translate(2.895 1.882)"><path d="M1358.649,1120.021s-31.629-4.177-49.413-.608a314.327,314.327,0,0,1,49.715,2.714Z" transform="translate(-1266.637 -1117.971)" fill="#9e4093"/><path d="M1275.614,1130.113s11.108,20.107,36.926,27.265l-1.97,3.173s-28.006-9.427-36.346-28.758Z" transform="translate(-1274.223 -1115.34)" fill="#9e4093"/></g><path d="M1273.275,1139.2s-.915,22.411,26.414,29.184l.234,4.274S1271.562,1163.8,1273.275,1139.2Z" transform="translate(-1271.549 -1111.489)" fill="#363436"/><g transform="translate(30.711 16.994)"><path d="M1307.513,1133.665s9.3-9.087,19.362,3.02-1.43,40.925-1.531,54,1.046,26.491,3.26,29.638,5.875,10.294,12.095,12,10.022,4.425,7.8,8.148a5.289,5.289,0,0,1-6.4,2.391s-.91,5.772-5.456,4.794c0,0-1.4,4.8-6.415,2.619,0,0-2.031,4.862-6.413,1.763,0,0-.13,2.9-4.649,2.538-4.731-.382-7.3-14.852-6.916-22.631s-6.48-25.885-11.155-36.657S1293.071,1145.894,1307.513,1133.665Z" transform="translate(-1297.086 -1130.392)" fill="#f6e2c9"/><path d="M1334.918,1231.514v-.012c-5.257-2.37-8.478-8.543-10.5-11.4-2.214-3.146-3.358-16.564-3.26-29.638s11.589-41.886,1.531-54a18.9,18.9,0,0,0-6.082-5.054c.941.59,14.428,9.626,5.15,34.587C1312.152,1191.844,1314.781,1226.164,1334.918,1231.514Z" transform="translate(-1292.904 -1130.171)" fill="#efcaa3" opacity="0.5"/><g transform="translate(26.697 110.352)" opacity="0.5"><path d="M1339.422,1222.227c-4.893,2.27-5.791-1.135-5.791-1.135l.337,2.057s.047.217.112.506c.071-.28.1-.451.1-.451A5.386,5.386,0,0,0,1339.422,1222.227Z" transform="translate(-1315.865 -1221.092)" fill="#efcaa3"/><path d="M1329.249,1224.98l.337,2.061s.02.088.051.22c.022-.063.034-.106.034-.106a4.21,4.21,0,0,0,1.913,0C1329.681,1227.155,1329.249,1224.98,1329.249,1224.98Z" transform="translate(-1316.815 -1220.25)" fill="#efcaa3"/><path d="M1327.381,1229.8c-2.486.19-3.239-2.545-3.239-2.545l.116,2.084.015.123c.06-.113.09-.185.09-.185A5.537,5.537,0,0,0,1327.381,1229.8Z" transform="translate(-1317.921 -1219.756)" fill="#efcaa3"/><g transform="translate(0 9.243)"><path d="M1319.475,1228.689l-.423,2.044a4.732,4.732,0,0,0,2.927,1.027h0C1318.949,1231.688,1319.475,1228.689,1319.475,1228.689Z" transform="translate(-1319.024 -1228.689)" fill="#efcaa3"/><path d="M1319.057,1230.369l-.028.195A1.958,1.958,0,0,0,1319.057,1230.369Z" transform="translate(-1319.029 -1228.325)" fill="#efcaa3"/></g></g></g></g><g transform="translate(553.172 163.789)"><g transform="translate(103.066)"><path d="M1314.55,1026.2s20.443-9.581,40.5-8.16,27.3-.242,29-.9,20.469-10.3,25-9.66,2.054,2.944,2.054,2.944,5.984-.029,4.178,3.738c0,0,3.578.365.813,4.1s-12.9,6.252-12.9,6.252,14.19-1.9,15.8-.165,1.765,4.372-2.6,5.9-18.058,2.959-18.208,7.263,5.2,8.8,3.877,12.343-4.48,4.871-6.038,1.466-7.239-11.983-16.465-15.179-43.2,12.822-57.247,14.517C1322.312,1050.654,1310.914,1034.209,1314.55,1026.2Z" transform="translate(-1313.834 -1007.451)" fill="#f6e2c9"/><path d="M1314.55,1023.158s1.455-.681,3.952-1.647c.022.049,9.794,22.709,17.749,21.3s35.95-16.685,47.413-7.849l-.007.012a24.057,24.057,0,0,0-4.1-1.888c-9.225-3.195-43.2,12.822-57.247,14.517C1322.312,1047.609,1310.914,1031.163,1314.55,1023.158Z" transform="translate(-1313.834 -1004.405)" fill="#efcaa3" opacity="0.5"/><g transform="translate(82.683 1.73)" opacity="0.5"><g transform="translate(0 24.109)"><path d="M1381.917,1031.08c.889-2.112,7.493-2.391,7.493-2.391h0c-3.281,1.028-5.884,2.354-5.949,4.216a10.232,10.232,0,0,0,1.544,4.929C1383.4,1035.331,1381.254,1032.656,1381.917,1031.08Z" transform="translate(-1381.793 -1028.689)" fill="#efcaa3"/></g><g transform="translate(13.675 3.407)"><path d="M1394.6,1013.011c-.847.184-1.565.352-1.565.352A6.5,6.5,0,0,1,1394.6,1013.011Z" transform="translate(-1393.033 -1011.383)" fill="#efcaa3"/><path d="M1394.319,1013.3a19.685,19.685,0,0,1,2.612-.454c.645.022,1.363-.707,1.228-1.174a2.718,2.718,0,0,1-.316,1.576A21.517,21.517,0,0,0,1394.319,1013.3Z" transform="translate(-1392.754 -1011.673)" fill="#efcaa3"/></g><path d="M1395.271,1008.873h0a2.254,2.254,0,0,1-.672,1.245,15.263,15.263,0,0,0-4.594.664,13.1,13.1,0,0,1,3.116-.956C1394.538,1009.647,1395.047,1009.358,1395.271,1008.873Z" transform="translate(-1380.014 -1008.873)" fill="#efcaa3"/></g></g><g transform="translate(0 115.069)"><path d="M1246,1102.821s-9.174,20.631-7.355,40.658.3,27.3-.324,29.011-9.888,20.67-9.161,25.185,2.987,1.991,2.987,1.991.088,5.986,3.818,4.1c0,0,.436,3.572,4.114.735s5.993-13.032,5.993-13.032-1.615,14.227.15,15.809,4.406,1.678,5.842-2.718,2.6-18.112,6.9-18.35,8.9,5.021,12.421,3.63,4.78-4.577,1.344-6.064-12.126-7-15.505-16.162,11.962-43.447,13.377-57.522C1270.6,1110.1,1253.932,1099.026,1246,1102.821Z" transform="translate(-1229.122 -1102.029)" fill="#f6e2c9"/><path d="M1243.275,1102.821s-.652,1.468-1.568,3.984c.047.02,22.9,9.339,21.653,17.32s-15.966,36.277-6.9,47.562l.013-.01a24.089,24.089,0,0,1-1.971-4.059c-3.376-9.16,11.962-43.447,13.377-57.522C1267.875,1110.1,1251.205,1099.026,1243.275,1102.821Z" transform="translate(-1226.395 -1102.029)" fill="#efcaa3" opacity="0.5"/><g transform="translate(1.792 82.542)" opacity="0.5"><g transform="translate(23.954)"><path d="M1252.523,1170.008c-2.092.932-2.24,7.541-2.24,7.541h0c.963-3.3,2.237-5.931,4.1-6.033a10.231,10.231,0,0,1,4.959,1.447C1256.8,1171.406,1254.086,1169.317,1252.523,1170.008Z" transform="translate(-1250.283 -1169.872)" fill="#efcaa3"/></g><g transform="translate(3.483 14.107)"><path d="M1234.733,1183.038c.165-.848.32-1.571.32-1.571A6.411,6.411,0,0,0,1234.733,1183.038Z" transform="translate(-1233.182 -1181.467)" fill="#efcaa3"/><path d="M1235.009,1182.758a19.555,19.555,0,0,0-.4,2.618c.034.646-.679,1.378-1.15,1.251a2.7,2.7,0,0,0,1.569-.348A21.457,21.457,0,0,1,1235.009,1182.758Z" transform="translate(-1233.458 -1181.188)" fill="#efcaa3"/></g><path d="M1230.6,1183.8h0a2.267,2.267,0,0,0,1.235-.7,15.261,15.261,0,0,1,.569-4.6,13.045,13.045,0,0,0-.893,3.134C1231.355,1183.046,1231.076,1183.562,1230.6,1183.8Z" transform="translate(-1230.595 -1168.004)" fill="#efcaa3"/></g></g><g transform="translate(10.742 15.584)"><path d="M1277.692,1158.308c36.232-4.734,37.125-3.525,77.535-26.714,0,0-11.685-29.167-13.112-73.78l13.219-10.337s-15.353-24.786-21.306-27.217c0,0-20.347,8.775-28.58,15.046s-25.74,16.432-34.07,25.71c-2.464,2.745-18.914,24.678-33.427,61.618,0,0,33.653,13.829,31.822,13.926l4.267-9.538S1274.626,1148.176,1277.692,1158.308Z" transform="translate(-1237.951 -1020.26)" fill="#d56537"/><g transform="translate(21.265 85.087)" opacity="0.4"><path d="M1310.764,1131.279c-16.482,6.627-33.821-2.276-36.033-13.6s2.626-27.485,2.626-27.485-8.553,17.956-11.709,24.168c-2.05,4.044-7,3.152-10.219,2.036,5.6,2.41,10.2,4.477,10.6,4.919l4.227-9.447s.586,21.154,3.652,31.286c36.232-4.734,37.125-3.525,77.535-26.714C1344.322,1116.948,1327.25,1124.652,1310.764,1131.279Z" transform="translate(-1255.429 -1090.195)" fill="#d56537"/></g><path d="M1339.623,1043.014s-.5-.814-1.364-2.158c0,0-10.871,13.077-27.791,11.78,0,0,11.973,3.795,12.932,15.5s8.583,32.127,8.583,32.127h0a270.432,270.432,0,0,1-5.579-46.915Z" transform="translate(-1222.24 -1015.798)" fill="#d56537" opacity="0.4"/></g></g></g><g transform="translate(558.641 53.605)"><g transform="translate(3.42 67.595)"><path d="M1285.457,1105.974c21.63,2.893,61.048-39.382,77.268-104.017,0,0-5.537-20.836-59.126-28.006s-67.171,13.61-67.171,13.61S1245.006,1100.563,1285.457,1105.974Z" transform="translate(-1236.428 -972.446)" fill="#ffffdf"/><path d="M1298.629,999.536c-.871.082-.849,5.515.25,5.61s17.82-4.935,36.247,5.055C1336.747,1011.081,1327.539,996.837,1298.629,999.536Z" transform="translate(-1223.085 -966.651)" fill="#303031"/><path d="M1285.123,996.72c.819.307-.63,5.544-1.715,5.347s-15.9-9.446-36.3-4.651C1245.311,997.839,1257.94,986.516,1285.123,996.72Z" transform="translate(-1234.151 -968.113)" fill="#303031"/><path d="M1255.746,998.4c21.687-17.734,51.823-18.077,72.385-1.9,9.217,7.254,14.621,18.451,18.306,31.2,1.179,4.077,2.26,8.192,3.137,12.347a229.926,229.926,0,0,0,13.151-38.089s-5.537-20.836-59.126-28.006-67.171,13.61-67.171,13.61,1.016,13.327,3.981,31.042A58.977,58.977,0,0,1,1255.746,998.4Z" transform="translate(-1236.428 -972.446)" fill="#d8d1bd" opacity="0.36"/><path d="M1298.8,1013.8c-1.753,13.1,18.239,13.723,19.722,2.638C1320.083,1004.744,1300.237,1003.029,1298.8,1013.8Z" transform="translate(-1222.939 -965.043)" fill="#504a45"/><path d="M1278.006,1011.035c-1.752,13.1-21.205,8.446-19.722-2.638C1259.849,996.7,1279.448,1000.262,1278.006,1011.035Z" transform="translate(-1231.71 -966.231)" fill="#504a45"/><path d="M1298.722,1014.535c.863,10.2,16.864,10.521,19.5,1.506C1311.492,1018.443,1304.035,1018.079,1298.722,1014.535Z" transform="translate(-1222.931 -963.327)" fill="#504a45" opacity="0.21"/><path d="M1258.267,1007.274c-1.207,10.893,17.851,15.406,19.714,2.568A20.575,20.575,0,0,1,1258.267,1007.274Z" transform="translate(-1231.708 -964.901)" fill="#504a45" opacity="0.21"/><path d="M1297.746,998.3a252.127,252.127,0,0,1,36.761-4.783c1.413-.079,1.184-2.819-.22-2.741a252.087,252.087,0,0,0-36.762,4.783c-1.409.288-1.194,3.031.221,2.741Z" transform="translate(-1223.398 -968.476)" fill="#d8d1bd" opacity="0.27"/><path d="M1289.435,995.343a252.23,252.23,0,0,0-34.211-14.277c-1.332-.443-2.278,2.139-.935,2.587a252.171,252.171,0,0,1,34.213,14.277c1.286.651,2.219-1.936.933-2.587Z" transform="translate(-1232.699 -970.59)" fill="#d8d1bd" opacity="0.27"/><path d="M1291.7,1032.9c.04,3.357.049,7.231-2.309,9.627-1.136,1.157.134,3.318,1.274,2.16,3.064-3.116,3.281-7.8,3.226-12.241-.022-1.78-2.213-1.321-2.191.454Z" transform="translate(-1225.049 -959.692)" fill="#d8d1bd" opacity="0.27"/><path d="M1275.184,1029.98c-1.219,4.268-2.242,8.848-.1,12.659.794,1.417,2.59-.333,1.8-1.748-1.644-2.932-.618-6.667.3-9.9.487-1.7-1.506-2.729-2-1.015Z" transform="translate(-1228.323 -960.172)" fill="#d8d1bd" opacity="0.27"/><path d="M1290.291,1001.229c-6.787-.909-13.517,42.974-13.119,44.589s12.034,4.578,14.113,1.888S1296.716,1002.088,1290.291,1001.229Z" transform="translate(-1227.604 -966.213)" fill="#e4ddcd" opacity="0.77"/><path d="M1294.216,1031.213c3.539-5.025,9.346-1.025,13.512-.734a18.994,18.994,0,0,0,9.3-1.8c7.764-3.589,13.713-14.841,22.437-13.763,1.4.173,1.77-2.59.369-2.763-9.457-1.169-15.266,10.187-23.583,13.994-5.667,2.6-10.026.768-15.514-.053a7.929,7.929,0,0,0-8.21,3.472c-.973,1.382.72,3.019,1.688,1.645Z" transform="translate(-1224.337 -963.861)" fill="#d8d1bd" opacity="0.27"/><path d="M1284.695,1029.611a7.952,7.952,0,0,0-7.008-5.509c-5.515-.692-10.176-.015-14.983-4.026-7.026-5.862-9.635-18.341-19.075-19.7-1.4-.2-1.767,2.561-.37,2.762,8.7,1.253,11.482,13.673,18.03,19.177a18.979,18.979,0,0,0,8.5,4.179c4.089.812,10.753-1.511,12.844,4.261.572,1.578,2.638.448,2.061-1.144Z" transform="translate(-1235.139 -966.397)" fill="#d8d1bd" opacity="0.27"/><path d="M1326.616,1050.561c-5.207,5.884-13.535,6.224-23.332.14-8.226-5.109-13.6,4.047-15.257,6.816-.87-3.107-3.657-13.354-12.928-10.586-11.051,3.3-19,.777-22.474-6.268-3.458-7.006,6.048,33.369,35.2,18.368C1312.009,1081.167,1331.793,1044.71,1326.616,1050.561Z" transform="translate(-1233.065 -957.845)" fill="#303031"/><path d="M1272.814,1067.714c3.455-6.189,13.287-6.75,14.89,1.1.346,1.7,2.406.545,2.061-1.144-2-9.816-14.243-9.475-18.639-1.6-.837,1.5.848,3.151,1.689,1.645Z" transform="translate(-1228.96 -953.427)" fill="#d8d1bd"/><path d="M1277.509,1068.551a2.442,2.442,0,0,1,3.567.795c.856,1.351,2.656-.393,1.8-1.748a4.31,4.31,0,0,0-6.141-1.578c-1.291.823-.524,3.362.776,2.532Z" transform="translate(-1227.84 -952.326)" fill="#d8d1bd"/></g><path d="M1240.881,1009.662s35.075-1.326,41.736-27.318c0,0,26.6,17.486,37.736,21.591,0,0-3.624-3.032-5.767-13.438,0,0,20.065,13.5,34.756,34.935,0,0-1.2-17.484-4.544-19.965,0,0,18.726,23.216,22.013,41.39,0,0,8.2-25.034,5.519-32.376s5.062,11.355,6.061,16.762c0,0,41.748-82.4-60.756-93.79a30.8,30.8,0,0,1,23.635-18.589s-26.292-9.99-48.782,14.978c0,0-3.522-9-16.157-9.9,0,0,10.853,4.938,10.883,10.494,0,0-37.658-7.711-46.773,27.183s-6.466,46.425-6.466,46.425S1236.176,1005.682,1240.881,1009.662Z" transform="translate(-1233.617 -916.888)" fill="#4e2b07"/><path d="M1345.723,1006.649c2.638,4.636,3.62,18.783,3.62,18.783-14.691-21.438-34.756-34.935-34.756-34.935,2.143,10.406,5.767,13.438,5.767,13.438-11.131-4.1-37.736-21.591-37.736-21.591-6.661,25.992-41.736,27.318-41.736,27.318-4.7-3.98-6.907-1.624-6.907-1.624s-2.645-11.534,6.466-46.425,46.773-27.183,46.773-27.183c-.03-5.555-10.883-10.494-10.883-10.494,12.635.9,16.157,9.9,16.157,9.9,22.49-24.968,48.782-14.978,48.782-14.978-30.457.518-41.371,22.359-41.371,22.359s-34.6,1.226-41.8,12.676-7.136,40.027.959,37.337,19.51-19.341,19.51-19.341c3.537,8.374,31.023,17.374,31.023,17.374l-1.365-8.294c25.62,10.9,33.042,23.681,33.042,23.681l3.171-6.81c24.717,18.446,21.995,47.178,22.376,49.012C1363.958,1031.109,1349.526,1011.59,1345.723,1006.649Z" transform="translate(-1233.617 -916.889)" fill="#4e2b07" opacity="0.3"/><path d="M1302.512,936.966s56.16,9.6,63.8,61.045C1366.313,998.011,1376.867,944.673,1302.512,936.966Z" transform="translate(-1218.69 -912.539)" fill="#783a0d"/></g></g></g></svg>