<svg xmlns="http://www.w3.org/2000/svg" xmlns:xlink="http://www.w3.org/1999/xlink" width="729.637" height="581" viewBox="0 0 729.637 581"><defs><linearGradient id="a" x1="-1.372" y1="0.924" x2="0.972" y2="0.219" gradientUnits="objectBoundingBox"><stop offset="0" stop-color="#fff"/><stop offset="1" stop-color="#fff" stop-opacity="0"/></linearGradient><linearGradient id="c" x1="0.138" y1="0.255" x2="0.906" y2="1.162" xlink:href="#a"/><linearGradient id="e" x1="0.139" y1="0.246" x2="0.968" y2="0.677" xlink:href="#a"/><linearGradient id="g" x1="0.151" y1="0.052" x2="0.89" y2="1.853" xlink:href="#a"/><clipPath id="m"><path d="M-34.747,283.539-78.3,277.058-181.48,327.451l12.226,14.926s12.921,21.188,10.005,27.23S34.285,258.254,34.285,258.254Z" transform="translate(181.48 -258.254)" fill="none"/></clipPath><clipPath id="n"><path d="M-90.434,312l-43.558-6.481L-21.4,233.986l17.714,5.836S-3.9,257.95-6.815,263.995-21.4,286.712-21.4,286.712Z" transform="translate(133.992 -233.986)" fill="none"/></clipPath></defs><g transform="translate(-646.363 -147)"><circle cx="210.145" cy="210.145" r="210.145" transform="translate(763.355 227.355)" opacity="0.184" fill="url(#a)"/><circle cx="290.5" cy="290.5" r="290.5" transform="translate(683 147)" opacity="0.184" fill="url(#a)"/><g transform="translate(988.162 93.542)"><g transform="translate(-184.181 168.514)"><g transform="translate(8.293 16.295)"><path d="M-116.627,160.786A153.449,153.449,0,0,0-176.72,172.9a154.024,154.024,0,0,0-49.091,33.107A154.078,154.078,0,0,0-258.921,255.1a153.386,153.386,0,0,0-12.108,60.087,153.391,153.391,0,0,0,12.108,60.091,154,154,0,0,0,33.109,49.1,153.9,153.9,0,0,0,49.091,33.1A153.371,153.371,0,0,0-116.627,469.6a153.337,153.337,0,0,0,60.085-12.117,153.856,153.856,0,0,0,49.091-33.1,154.073,154.073,0,0,0,33.109-49.1,153.392,153.392,0,0,0,12.108-60.091A153.387,153.387,0,0,0,25.659,255.1,154.151,154.151,0,0,0-7.45,206.01,153.976,153.976,0,0,0-56.542,172.9a153.415,153.415,0,0,0-60.085-12.117Z" transform="translate(271.029 -160.786)" fill="#8dc540"/><path d="M-116.627,160.786A153.449,153.449,0,0,0-176.72,172.9a154.024,154.024,0,0,0-49.091,33.107A154.078,154.078,0,0,0-258.921,255.1a153.386,153.386,0,0,0-12.108,60.087,153.391,153.391,0,0,0,12.108,60.091,154,154,0,0,0,33.109,49.1,153.9,153.9,0,0,0,49.091,33.1A153.371,153.371,0,0,0-116.627,469.6a153.337,153.337,0,0,0,60.085-12.117,153.856,153.856,0,0,0,49.091-33.1,154.073,154.073,0,0,0,33.109-49.1,153.392,153.392,0,0,0,12.108-60.091A153.387,153.387,0,0,0,25.659,255.1,154.151,154.151,0,0,0-7.45,206.01,153.976,153.976,0,0,0-56.542,172.9a153.415,153.415,0,0,0-60.085-12.117Z" transform="translate(271.029 -160.786)" fill="#c9eaf8"/><path d="M-259.255,271.053" transform="translate(284.836 -31.48)" fill="#8dc540"/><path d="M-82.266,311.574l3.778,10.383,7.554,16.686,3.691-1.562a154.677,154.677,0,0,0,4.888-38.773,153.393,153.393,0,0,0-12.115-60.087,154,154,0,0,0-33.1-49.091,155.988,155.988,0,0,0-15.993-13.948l-.256,3.863-.159,3.3-.471,3.3-1.254,3.62-.945,3.309-2.051,3.935-4.723,5.821-1.571,1.89s-5.041,2.994-5.508,2.829c-.471-.15-.941,3.783-.941,3.783l-.484,5.823,1.1,2.985,1.58.637,2.357-.317,1.575-.156,3.62.784a24.628,24.628,0,0,0,2.364-1.888c0-.15,3.778-4.252,3.778-4.252l1.417-1.884.154-3.776.159-3.622.624-4.4,3.155-2.835h1.575v5.193l1.727,3.78v2.99l-1.569,1.734,1.569,4.4,5.829-2.675,2.047-1.729,8.969.941.471,1.734-3,2.2h-8.345l-2.042,3.62-2.2,2.055-3.461,3.611-2.833,4.1-3.624,1.1-5.038-1.26v-2.516l2.992-3.463s-4.721-1.1-5.2-1.26c-.458-.156-4.4-1.412-4.4-1.412l-2.675,3.3-3.3,3.146,3.148,2.679,2.2,2.2-5.825,3s-2.362,2.038-2.833,2.038-2.2,2.207-2.2,2.207l-3.15,3.783-4.567,2.2-6.766,1.106-2.2,3.463,3.62,1.571,3.617,1.734.782,2.516-.624,2.362-1.734,2.52-5.19-.156-4.25-.322-2.525-.152s.319,2.047.478,3.461a8.583,8.583,0,0,1-.159,2.677l-.156,5.193V274.9l2.362,2.518,3.615.782,4.25,1.1,2.833-.626s2.679-2.2,2.52-2.681.949-2.987.786-2.987A28.855,28.855,0,0,1-153.1,269.7l4.4-.943,1.738-3.148,3.465-1.1,2.355-1.1,3.465-3.459.471,1.1-.159,3.461-1.421,1.26,2.049,3.3,1.575,1.734,1.417-.156v-2.679l.467-2.516,1.421-.315,1.886,1.888,2.679,2.833,2.833,1.888.154,2.049-.463,1.729-2.84.315-.471,1.1.317,1.414,1.421-.315,2.036-1.417,1.742-.943-.159-4.717,2.04.313,1.262-1.258-2.683-1.579-2.985-2.675-4.884-5.356v-2.985l3.783,1.1,4.567,4.248,2.987,2.833,1.886,2.36v3.463s2.675,3.311,2.837,3.776a19.961,19.961,0,0,1-.163,3.311l2.829-.161,2.373-2.675-.789-2.675v-2.52l2.2-1.886,2.049.626,2.829-.786,1.734-.315-1.258-3.62,2.833-8.5,2.831-4.25,3.78,4.723,3.3,1.414,2.829-3.776h3.309l1.89,3.307,1.412,8.026h5.666l-5.666,7.557-3.77-5.195h-5.671l-10.39,2.359h-5.19l2.833,7.557,3.3,2.362h12.278v13.218l-8.484,1.421h-8.039l-6.607-3.778-7.087.941v2.837h-3.3l-5.662-2.364-6.616-5.2-3.309-7.079h-13.683l-5.671,3.3h-9.445l-6.616,7.559-.471,9.206-5.666,3.07-8.5,15.584v19.83l11.808,18.418h13.218l13.7-5.2,2.829,6.609h5.666v5.195l-2.833,9.447,5.664,8.5v12.747l-5.664,12.282,2.833,9.914v14.874A154.409,154.409,0,0,0-107.574,407.5a155.232,155.232,0,0,0,19.637-24.017s5.349-8.949,5.984-9.89a2.636,2.636,0,0,1,.213-.291,154.278,154.278,0,0,0,7.272-14.9q2.871-6.766,5.045-13.74l-3.711-.98-1.9-3.783-5.977-11.956s-1.575-5.038-1.884-5.984-3.628-9.757-3.628-9.757l-2.036-5.981,2.036-2.99Z" transform="translate(371.111 -143.906)" fill="#8dc540"/><path d="M-171.359,281.108l-13.223-5.666-4.254-9.918-8.967-2.36-8.026-8.026-17.944-4.721-10.233,7.2-1.175.828-1.341.941v9.449l-5.666,6.607v10.388l10.388,11.808,1.89,8.024,10.388,8.5V332.1l3.646,17.9q2.62,1.238,5.295,2.37c2.987,1.26,6,2.414,9.038,3.483l2.327-5.805,17.473-14.164v-7.557l10.385-2.833,6.131-7.081.947-14.409,8.028-7.311v-5.2l-7.083-7.085Z" transform="translate(304.85 -55.679)" fill="#8dc540"/><path d="M-205.538,357.021l-2.829-.947-4.254-9.445-7.557-3.774,1.7-5.923-8.3,1.2-7.083-.474-2.127-4.723V319.719l7.789-6.375h17l6.607,5.434-.465-8.034,11.806-10.861V292.8l15.111-16.056,10.385-7.081-2.366-7.557h-5.662l3.78-3.778h10.855l9.451-7.081-8.5-8.969-1.884-8.977h-8.977l-3.3-7.552h-6.62l-7.074,14.637-4.723,9.445-5.195-4.252-10.388-3.3-4.489-3.78,10.631-12.749,4.245-4.252h7.557l-1.886-5.664,2.831-3.776,6.138-8.5,2.833-5.666,4.245,4.252.945,8.5-2.362,6.136,7.552,5.666,4.73-5.666L-167.76,213v-5.193l4.726,3.3,2.829,3.776,2.366-3.776,2.824-2.835-5.658-1.888L-165.4,201.2v-5.664l-6.611-3.778-5.193-8.028,5.193-9.445,9.679-10.346a152.4,152.4,0,0,0-14.433,5.271,154.048,154.048,0,0,0-49.091,33.107,153.965,153.965,0,0,0-33.107,49.091,153.12,153.12,0,0,0-12.069,56.524l3.641,2.344,8.964,18.887-2.827-15.817,9.44,15.817v8.5l6.607,3.778,14.635,2.359L-223.48,349h3.3l5.2,7.554,6.611,3.307h7.007l1.175-.828Z" transform="translate(271.029 -157.091)" fill="#8dc540"/><path d="M-148.643,179.868V163.1a155.9,155.9,0,0,0-26.828-2.31,154.55,154.55,0,0,0-35.86,4.18l-6.257,9.236-3.3,7.081H-210.5l8.021,3.78,3.309,5.662v11.337l2.833,8.969-2.833,5.668,2.833,8.5,6.131,4.252,4.25,6.136v-8.024l4.726-10.388,4.96-3.309,4.958-3.3,5.193-7.552,15.109-10.857Z" transform="translate(329.827 -160.786)" fill="#8dc540"/><path d="M-171.445,210.394l-2.2,4.1v2.833h8.178l2.525-4.091v-2.837l-4.4-4.569-2.525-4.243-1.575-5.353-2.516-1.883-2.521,3.46v4.405l2.837,4.091Z" transform="translate(381.9 -121.431)" fill="#8dc540"/><path d="M-177.659,207.665l-.317,3.462,1.579-1.573,3.141-2.206v-5.664l-1.57-2.055-4.408,1.738,1.258,3.227Z" transform="translate(378.674 -115.235)" fill="#8dc540"/><path d="M-82.369,238.221a154,154,0,0,0-33.1-49.091,155.988,155.988,0,0,0-15.993-13.948l-.256,3.863-.159,3.3-.471,3.3-1.254,3.62-.945,3.309-2.051,3.935-4.723,5.821-1.571,1.89s-5.041,2.994-5.508,2.829c-.471-.15-.941,3.783-.941,3.783l-.484,5.823,1.1,2.985,1.58.637,2.357-.317,1.575-.156,3.62.784a24.628,24.628,0,0,0,2.364-1.888c0-.15,3.778-4.252,3.778-4.252l1.417-1.884.154-3.776.159-3.622.624-4.4,3.155-2.835h1.575v5.193l1.727,3.78v2.99l-1.569,1.734,1.569,4.4,5.829-2.675,2.047-1.729,8.969.941.471,1.734-3,2.2h-8.345l-2.042,3.62-2.2,2.055-3.461,3.611-2.833,4.1-3.626,1.1-5.036-1.26v-2.516l2.992-3.463s-4.721-1.1-5.2-1.26c-.458-.156-4.4-1.412-4.4-1.412l-2.675,3.3-3.3,3.146,3.148,2.679,2.2,2.2-5.825,3s-2.362,2.038-2.833,2.038-2.2,2.207-2.2,2.207l-3.15,3.783-4.567,2.2-6.766,1.106-2.2,3.463,3.62,1.571,3.617,1.734.782,2.516-.624,2.362-1.734,2.52-5.19-.156-4.25-.322-2.525-.152s.319,2.047.478,3.461a8.583,8.583,0,0,1-.159,2.677l-.156,5.193V274.9l2.362,2.518,3.615.782,4.25,1.1,2.833-.626s2.679-2.2,2.52-2.681.949-2.987.786-2.987A28.826,28.826,0,0,1-161,269.7l4.4-.945,1.738-3.148,3.465-1.1,2.353-1.1,3.468-3.459.471,1.1-.159,3.461-1.421,1.26,2.049,3.3,1.575,1.734,1.417-.156v-2.679l.467-2.516,1.421-.315,1.886,1.89,2.679,2.831,2.833,1.888.154,2.049-.461,1.729-2.842.315-.471,1.1.317,1.414,1.421-.315,2.036-1.417,1.742-.943-.159-4.717,2.04.313,1.262-1.258L-130,268.443l-2.985-2.675-4.884-5.356v-2.985l3.783,1.1,4.567,4.248,2.987,2.833,1.886,2.36v3.463s2.675,3.311,2.837,3.776a19.961,19.961,0,0,1-.163,3.311l2.829-.161,2.373-2.675-.789-2.675v-2.52l2.2-1.886,2.049.626,2.829-.786,1.734-.315-1.258-3.62,2.833-8.5,2.831-4.25,3.78,4.723,3.3,1.414,2.829-3.776h3.309l1.89,3.307,1.412,8.026h5.666l-5.666,7.557-3.77-5.195h-5.671l-10.39,2.359h-5.19l2.833,7.557,3.3,2.362h12.278l20.873-13.718A152.768,152.768,0,0,0-82.369,238.221Z" transform="translate(379.011 -143.906)" fill="#8dc540"/><path d="M-82.266,311.574l3.778,10.383,7.554,16.686,3.691-1.562a154.677,154.677,0,0,0,4.888-38.773,153.393,153.393,0,0,0-12.115-60.087,154,154,0,0,0-33.1-49.091,155.988,155.988,0,0,0-15.993-13.948l-.256,3.863-.159,3.3-.471,3.3-1.254,3.62-.945,3.309-2.051,3.935-4.723,5.821-1.571,1.89s-5.041,2.994-5.508,2.829c-.471-.15-.941,3.783-.941,3.783l-.484,5.823,1.1,2.985,1.58.637,2.357-.317,1.575-.156,3.62.784a24.628,24.628,0,0,0,2.364-1.888c0-.15,3.778-4.252,3.778-4.252l1.417-1.884.154-3.776.159-3.622.624-4.4,3.155-2.835h1.575v5.193l1.727,3.78v2.99l-1.569,1.734,1.569,4.4,5.829-2.675,2.047-1.729,8.969.941.471,1.734-3,2.2h-8.345l-2.042,3.62-2.2,2.055-3.461,3.611-2.833,4.1-3.624,1.1-5.038-1.26v-2.516l2.992-3.463s-4.721-1.1-5.2-1.26c-.458-.156-4.4-1.412-4.4-1.412l-2.675,3.3-3.3,3.146,3.148,2.679,2.2,2.2-5.825,3s-2.362,2.038-2.833,2.038-2.2,2.207-2.2,2.207l-3.15,3.783-4.567,2.2-6.766,1.106-2.2,3.463,3.62,1.571,3.617,1.734.782,2.516-.624,2.362-1.734,2.52-5.19-.156-4.25-.322-2.525-.152s.319,2.047.478,3.461a8.583,8.583,0,0,1-.159,2.677l-.156,5.193V274.9l2.362,2.518,3.615.782,4.25,1.1,2.833-.626s2.679-2.2,2.52-2.681.949-2.987.786-2.987A28.855,28.855,0,0,1-153.1,269.7l4.4-.943,1.738-3.148,3.465-1.1,2.355-1.1,3.465-3.459.471,1.1-.159,3.461-1.421,1.26,2.049,3.3,1.575,1.734,1.417-.156v-2.679l.467-2.516,1.421-.315,1.886,1.888,2.679,2.833,2.833,1.888.154,2.049-.463,1.729-2.84.315-.471,1.1.317,1.414,1.421-.315,2.036-1.417,1.742-.943-.159-4.717,2.04.313,1.262-1.258-2.683-1.579-2.985-2.675-4.884-5.356v-2.985l3.783,1.1,4.567,4.248,2.987,2.833,1.886,2.36v3.463s2.675,3.311,2.837,3.776a19.961,19.961,0,0,1-.163,3.311l2.829-.161,2.373-2.675-.789-2.675v-2.52l2.2-1.886,2.049.626,2.829-.786,1.734-.315-1.258-3.62,2.833-8.5,2.831-4.25,3.78,4.723,3.3,1.414,2.829-3.776h3.309l1.89,3.307,1.412,8.026h5.666l-5.666,7.557-3.77-5.195h-5.671l-10.39,2.359h-5.19l2.833,7.557,3.3,2.362h12.278v13.218l-8.484,1.421h-8.039l-6.607-3.778-7.087.941v2.837h-3.3l-5.662-2.364-6.616-5.2-3.309-7.079h-13.683l-5.671,3.3h-9.445l-6.616,7.559-.471,9.206-5.666,3.07-8.5,15.584v19.83l11.808,18.418h13.218l13.7-5.2,2.829,6.609h5.666v5.195l-2.833,9.447,5.664,8.5v12.747l-5.664,12.282,2.833,9.914v14.874A154.409,154.409,0,0,0-107.574,407.5a155.232,155.232,0,0,0,19.637-24.017s5.349-8.949,5.984-9.89a2.636,2.636,0,0,1,.213-.291,154.278,154.278,0,0,0,7.272-14.9q2.871-6.766,5.045-13.74l-3.711-.98-1.9-3.783-5.977-11.956s-1.575-5.038-1.884-5.984-3.628-9.757-3.628-9.757l-2.036-5.981,2.036-2.99Z" transform="translate(371.111 -143.906)" fill="#8dc540"/><path d="M-171.359,281.108l-13.223-5.666-4.254-9.918-8.967-2.36-8.026-8.026-17.944-4.721-10.233,7.2-1.175.828-1.341.941v9.449l-5.666,6.607v10.388l10.388,11.808,1.89,8.024,10.388,8.5V332.1l3.646,17.9q2.62,1.238,5.295,2.37c2.987,1.26,6,2.414,9.038,3.483l2.327-5.805,17.473-14.164v-7.557l10.385-2.833,6.131-7.081.947-14.409,8.028-7.311v-5.2l-7.083-7.085Z" transform="translate(304.85 -55.679)" fill="#8dc540"/><path d="M-205.538,357.021l-2.829-.947-4.254-9.445-7.557-3.774,1.7-5.923-8.3,1.2-7.083-.474-2.127-4.723V319.719l7.789-6.375h17l6.607,5.434-.465-8.034,11.806-10.861V292.8l15.111-16.056,10.385-7.081-2.366-7.557h-5.662l3.78-3.778h10.855l9.451-7.081-8.5-8.969-1.884-8.977h-8.977l-3.3-7.552h-6.62l-7.074,14.637-4.723,9.445-5.195-4.252-10.388-3.3-4.489-3.78,10.631-12.749,4.245-4.252h7.557l-1.886-5.664,2.831-3.776,6.138-8.5,2.833-5.666,4.245,4.252.945,8.5-2.362,6.136,7.552,5.666,4.73-5.666L-167.76,213v-5.193l4.726,3.3,2.829,3.776,2.366-3.776,2.824-2.835-5.658-1.888L-165.4,201.2v-5.664l-6.611-3.778-5.193-8.028,5.193-9.445,9.679-10.346a152.4,152.4,0,0,0-14.433,5.271,154.048,154.048,0,0,0-49.091,33.107,153.965,153.965,0,0,0-33.107,49.091,153.12,153.12,0,0,0-12.069,56.524l3.641,2.344,8.964,18.887-2.827-15.817,9.44,15.817v8.5l6.607,3.778,14.635,2.359L-223.48,349h3.3l5.2,7.554,6.611,3.307h7.007l1.175-.828Z" transform="translate(271.029 -157.091)" fill="#8dc540"/><path d="M-148.643,179.868V163.1a155.9,155.9,0,0,0-26.828-2.31,154.55,154.55,0,0,0-35.86,4.18l-6.257,9.236-3.3,7.081H-210.5l8.021,3.78,3.309,5.662v11.337l2.833,8.969-2.833,5.668,2.833,8.5,6.131,4.252,4.25,6.136v-8.024l4.726-10.388,4.96-3.309,4.958-3.3,5.193-7.552,15.109-10.857Z" transform="translate(329.827 -160.786)" fill="#8dc540"/></g><g transform="translate(269.414 53.695)"><path d="M-132.289,178a18.573,18.573,0,0,0-18.555,18.581c0,12.817,18.555,35.453,18.555,35.453s18.607-22.637,18.607-35.453A18.6,18.6,0,0,0-132.289,178Z" transform="translate(150.844 -178)" fill="#df3e32"/><path d="M-136.474,203.227a10.861,10.861,0,0,1-10.8-10.833,10.836,10.836,0,0,1,10.8-10.824,10.853,10.853,0,0,1,10.855,10.824A10.862,10.862,0,0,1-136.474,203.227Z" transform="translate(155.028 -173.814)" fill="#fff"/></g><g transform="translate(0 103.519)"><path d="M-256.291,200.932a18.575,18.575,0,0,0-18.555,18.583c0,12.817,18.555,35.451,18.555,35.451s18.607-22.635,18.607-35.451A18.607,18.607,0,0,0-256.291,200.932Z" transform="translate(274.846 -200.932)" fill="#df3e32"/><path d="M-260.476,226.16a10.861,10.861,0,0,1-10.8-10.833,10.835,10.835,0,0,1,10.8-10.824,10.85,10.85,0,0,1,10.852,10.824A10.86,10.86,0,0,1-260.476,226.16Z" transform="translate(279.03 -196.744)" fill="#fff"/></g><g transform="translate(79.915 92.019)"><path d="M-224.837,195.639a13.24,13.24,0,0,0-13.227,13.245c0,9.138,13.227,25.275,13.227,25.275s13.264-16.136,13.264-25.275A13.262,13.262,0,0,0-224.837,195.639Z" transform="translate(238.064 -195.639)" fill="#df3e32"/><path d="M-227.82,213.623a7.742,7.742,0,0,1-7.7-7.724,7.724,7.724,0,0,1,7.7-7.715,7.734,7.734,0,0,1,7.737,7.715A7.742,7.742,0,0,1-227.82,213.623Z" transform="translate(241.047 -192.655)" fill="#fff"/></g><g transform="translate(149.447)"><path d="M-192.834,153.286a13.241,13.241,0,0,0-13.227,13.247c0,9.136,13.227,25.272,13.227,25.272s13.262-16.136,13.262-25.272A13.262,13.262,0,0,0-192.834,153.286Z" transform="translate(206.061 -153.286)" fill="#df3e32"/><path d="M-195.816,171.269a7.742,7.742,0,0,1-7.7-7.722,7.724,7.724,0,0,1,7.7-7.715,7.736,7.736,0,0,1,7.737,7.715A7.743,7.743,0,0,1-195.816,171.269Z" transform="translate(209.043 -150.3)" fill="#fff"/></g><g transform="translate(256.17 219.061)"><path d="M-143.713,254.112a13.239,13.239,0,0,0-13.227,13.245c0,9.136,13.227,25.272,13.227,25.272s13.262-16.136,13.262-25.272A13.261,13.261,0,0,0-143.713,254.112Z" transform="translate(156.94 -254.112)" fill="#df3e32"/><path d="M-146.695,272.1a7.746,7.746,0,0,1-7.7-7.724,7.724,7.724,0,0,1,7.7-7.715,7.736,7.736,0,0,1,7.737,7.715A7.744,7.744,0,0,1-146.695,272.1Z" transform="translate(159.922 -251.128)" fill="#fff"/></g><g transform="translate(178.043 138.097)"><path d="M-168.476,216.847A24.447,24.447,0,0,0-192.9,241.3c0,16.873,24.423,46.667,24.423,46.667s24.49-29.794,24.49-46.667A24.488,24.488,0,0,0-168.476,216.847Z" transform="translate(192.899 -216.847)" fill="#df3e32"/><path d="M-173.984,250.052A14.3,14.3,0,0,1-188.2,235.791a14.26,14.26,0,0,1,14.218-14.244A14.28,14.28,0,0,1-159.7,235.791,14.3,14.3,0,0,1-173.984,250.052Z" transform="translate(198.407 -211.335)" fill="#fff"/></g><g transform="translate(243.575 161.056)"><g transform="translate(13.629)"><g transform="translate(3.726 25.703)"><path d="M-148.3,243.535l-.916-3.83-.731,3.49-4.8-3.95,4.871,5.719v10.828h1.549V244.964h.029l5.349-5.267Z" transform="translate(154.749 -239.245)" fill="#21a249"/></g><path d="M-147.209,227.415l-9.255,33.939h18.509Z" transform="translate(156.464 -227.415)" fill="#21a249"/></g><g transform="translate(0 14.429)"><g transform="translate(2.927 20.189)"><path d="M-156.325,246.718l-.719-3.008-.574,2.741-3.771-3.1,3.826,4.493v8.506h1.216v-8.506h.023l4.2-4.137Z" transform="translate(161.39 -243.348)" fill="#21a249"/></g><path d="M-155.468,234.056l-7.269,26.659H-148.2Z" transform="translate(162.737 -234.056)" fill="#21a249"/></g><g transform="translate(30.575 23.741)"><g transform="translate(2.275 15.691)"><path d="M-143.681,248.183l-.559-2.338-.447,2.13-2.931-2.411,2.974,3.492v6.611h.946v-6.611h.017l3.266-3.215Z" transform="translate(147.618 -245.564)" fill="#21a249"/></g><path d="M-143.015,238.342l-5.65,20.719h11.3Z" transform="translate(148.665 -238.342)" fill="#21a249"/></g></g><g transform="translate(38.983 115.485)"><g transform="translate(12.442)"><g transform="translate(3.402 23.466)"><path d="M-243.724,221.157l-.836-3.5-.667,3.186-4.383-3.606,4.447,5.222v9.886h1.414v-9.886h.026l4.884-4.808Z" transform="translate(249.611 -217.24)" fill="#21a249"/></g><path d="M-242.728,206.44l-8.449,30.985h16.9Z" transform="translate(251.177 -206.44)" fill="#21a249"/></g><g transform="translate(0 13.173)"><g transform="translate(2.672 18.432)"><path d="M-251.05,224.062l-.657-2.746-.524,2.5-3.443-2.832,3.493,4.1v7.765h1.111v-7.765h.02l3.836-3.777Z" transform="translate(255.674 -220.986)" fill="#21a249"/></g><path d="M-250.267,212.5l-6.636,24.338h13.273Z" transform="translate(256.904 -212.503)" fill="#21a249"/></g><g transform="translate(27.913 21.674)"><g transform="translate(2.077 14.325)"><path d="M-239.506,225.4l-.51-2.134-.408,1.945-2.676-2.2,2.715,3.188v6.035h.863V226.2h.016l2.981-2.935Z" transform="translate(243.1 -223.009)" fill="#21a249"/></g><path d="M-238.9,216.416l-5.158,18.916h10.316Z" transform="translate(244.056 -216.416)" fill="#21a249"/></g></g><g transform="translate(228.588 88.71)"><g transform="translate(9.755)"><g transform="translate(2.667 18.399)"><path d="M-159.3,205.655l-.656-2.741-.523,2.5-3.437-2.827,3.486,4.094v7.751h1.109v-7.751h.021l3.829-3.77Z" transform="translate(163.917 -202.584)" fill="#21a249"/></g><path d="M-158.52,194.116l-6.625,24.294h13.25Z" transform="translate(165.145 -194.116)" fill="#21a249"/></g><g transform="translate(0 10.328)"><g transform="translate(2.095 14.452)"><path d="M-165.045,207.933l-.515-2.153-.411,1.962-2.7-2.221,2.738,3.216v6.088h.871v-6.088h.016l3.008-2.961Z" transform="translate(168.671 -205.521)" fill="#21a249"/></g><path d="M-164.432,198.87l-5.2,19.082h10.407Z" transform="translate(169.635 -198.87)" fill="#21a249"/></g><g transform="translate(21.886 16.994)"><g transform="translate(1.628 11.232)"><path d="M-155.995,208.982l-.4-1.674-.32,1.525-2.1-1.726,2.129,2.5v4.732h.677v-4.732h.012l2.338-2.3Z" transform="translate(158.812 -207.107)" fill="#21a249"/></g><path d="M-155.517,201.938l-4.044,14.831h8.089Z" transform="translate(159.562 -201.938)" fill="#21a249"/></g></g><g transform="translate(140.509 28.183)"><g transform="translate(2.137 18.399)"><path d="M-205.362,177.8l.656-2.741.523,2.5,3.437-2.827-3.486,4.094v7.751h-1.109V178.82h-.021l-3.829-3.77Z" transform="translate(209.191 -174.726)" fill="#21a249"/></g><path d="M-203.55,166.258l6.625,24.294h-13.25Z" transform="translate(210.175 -166.258)" fill="#21a249"/><g transform="translate(12.598 10.328)"><g transform="translate(1.679 14.452)"><path d="M-200.6,180.075l.515-2.153.411,1.962,2.7-2.221-2.738,3.216v6.088h-.871v-6.088h-.016l-3.008-2.961Z" transform="translate(203.604 -177.663)" fill="#21a249"/></g><path d="M-199.173,171.011l5.2,19.082h-10.407Z" transform="translate(204.376 -171.011)" fill="#21a249"/></g><g transform="translate(4.16 33.484)"><g transform="translate(1.628 11.232)"><path d="M-204.693,188.713l-.4-1.673-.32,1.525-2.1-1.726,2.128,2.5v4.732h.677v-4.732h.012l2.338-2.3Z" transform="translate(207.51 -186.839)" fill="#21a249"/></g><path d="M-204.216,181.669-208.26,196.5h8.089Z" transform="translate(208.26 -181.669)" fill="#21a249"/></g></g><path d="M-119.827,282.438c-.033-.059,15.867-6.173,19.537,10.748,9.093-4,21.066-.415,27.549,13.549H-203.774c.161-5.188,4.969-11.9,15.4-9.412,5.286-19.306,22.111-10.894,22.111-10.894,6.483-18.481,35.169-23.721,46.4-4.05Z" transform="translate(358.189 -16.552)" fill="#fff"/></g><path d="M-155.229,185.629c-.033-.061,16.877-6.564,20.779,11.433,9.673-4.254,22.409-.441,29.3,14.411H-244.517c.169-5.519,5.284-12.651,16.384-10.012,5.623-20.536,23.519-11.589,23.519-11.589,6.894-19.654,37.4-25.229,49.352-4.3Z" transform="translate(126.231 37.501)" fill="#fff"/><path d="M-66.465,210.5c.03-.054-14.863-5.781-18.3,10.068-8.517-3.746-19.734-.387-25.807,12.693H12.173c-.15-4.86-4.654-11.141-14.431-8.817C-7.21,206.358-22.97,214.241-22.97,214.241c-6.073-17.312-32.942-22.222-43.464-3.793Z" transform="translate(283.303 68.536)" fill="#fff"/><path d="M-276.829,249.548c.052-.091-25.383-9.875-31.254,17.194-14.548-6.4-33.7-.66-44.079,21.677h209.636c-.254-8.3-7.948-19.028-24.642-15.057-8.458-30.889-35.378-17.431-35.378-17.431-10.37-29.566-56.261-37.95-74.231-6.474Z" transform="translate(10.363 104.565)" fill="#fff"/><path d="M-32.721,305.458c.052-.091-25.385-9.873-31.256,17.2-14.548-6.4-33.7-.663-44.077,21.674H101.582c-.256-8.3-7.95-19.028-24.645-15.057-8.458-30.889-35.375-17.431-35.375-17.431-10.37-29.563-56.263-37.948-74.231-6.474Z" transform="translate(286.256 170.129)" fill="#fff"/><g transform="translate(192.86 140.3)"><circle cx="40.9" cy="40.9" r="40.9" transform="matrix(0.232, -0.973, 0.973, 0.232, 0, 79.575)" fill="#faaf41"/><path d="M-46.279,148.517a34.813,34.813,0,0,1,3.574,15.4A34.981,34.981,0,0,1-77.687,198.9a34.819,34.819,0,0,1-15.4-3.572A34.976,34.976,0,0,0-61.683,214.9a34.979,34.979,0,0,0,34.98-34.98A34.976,34.976,0,0,0-46.279,148.517Z" transform="translate(110.943 -130.665)" fill="#fac93f"/></g><path d="M-85.513,161.544c.028-.048-13.119-5.1-16.152,8.888-7.52-3.309-17.418-.343-22.78,11.2H-16.1c-.133-4.291-4.109-9.836-12.736-7.783-4.371-15.965-18.283-9.008-18.283-9.008-5.36-15.28-29.077-19.613-38.363-3.348Z" transform="translate(267.035 12.744)" fill="#fff"/><g transform="translate(17.568 305.756)"><path d="M-172.122,298.924l124.875,19.5-103.532-31.781Z" transform="translate(193.557 -134.144)" fill="url(#c)"/><path d="M-179.491,284.1l124.875,19.5-103.532-31.781Z" transform="translate(184.916 -151.533)" fill="url(#c)"/><path d="M-91.079,252.676-7.318,288.8-69.736,240.4Z" transform="translate(288.593 -188.377)" fill="url(#e)"/><path d="M-106.246,234.641l83.761,36.128L-84.9,222.362Z" transform="translate(270.809 -209.526)" fill="url(#e)"/><path d="M-122.016,278.669,1.448,281.608l-102.121-15.218Z" transform="translate(252.315 -157.896)" fill="url(#g)"/><path d="M-122.016,278.669,1.448,281.608l-102.121-15.218Z" transform="translate(252.315 -157.896)" fill="url(#g)"/><path d="M-172.122,298.924l124.875,19.5-103.532-31.781Z" transform="translate(193.557 -134.144)" fill="url(#c)"/><path d="M-179.491,284.1l124.875,19.5-103.532-31.781Z" transform="translate(184.916 -151.533)" fill="url(#c)"/><path d="M-91.079,252.676-7.318,288.8-69.736,240.4Z" transform="translate(288.593 -188.377)" fill="url(#e)"/><path d="M-106.246,234.641l83.761,36.128L-84.9,222.362Z" transform="translate(270.809 -209.526)" fill="url(#e)"/><path d="M15.933,218.642h0a13.274,13.274,0,0,1-2.012,20.423L-154.1,351.316a21.151,21.151,0,0,1-26.7-2.631h0a4.065,4.065,0,0,1,.615-6.253L6.5,217.712A7.473,7.473,0,0,1,15.933,218.642Z" transform="translate(181.989 -216.454)" fill="#df3e32"/><path d="M-101.9,269.249s.293-5.236-5.762-9.475-16.084-4.867-21-4.278a17.988,17.988,0,0,0-12.037,7.711Z" transform="translate(230.409 -170.89)" fill="#d1d2d3"/><path d="M-107.662,258.891c-.185-.13-.382-.246-.576-.369-.013.2-.4,2.729-11.667,1.91-11.669-.847-13.494-4.341-13.51-4.369a18.237,18.237,0,0,0-7.283,6.262l38.8,6.042S-101.606,263.13-107.662,258.891Z" transform="translate(230.409 -170.007)" fill="#a7a8ab"/><path d="M-180.182,342.432,6.5,217.712a7.473,7.473,0,0,1,9.434.93h0c.25.252.484.511.71.776a7.472,7.472,0,0,0-8.847-.406L-178.883,343.729a4.063,4.063,0,0,0-.984,5.825c-.317-.28-.628-.567-.93-.869h0A4.064,4.064,0,0,1-180.182,342.432Z" transform="translate(181.988 -216.454)" fill="#f7ab31"/><g transform="translate(20.362 114.684)"><path d="M-149.222,312.218l-23.394-39.959,33.22,25.792-16.584-27.175,2.682-1.637,25.514,41.8-33.886-26.309,15.16,25.9Z" transform="translate(172.616 -269.239)" fill="#df3e32"/></g><g transform="translate(1.104 90.818)"><g clip-path="url(#m)"><g transform="translate(18.409 -45.192)"><path d="M31.488,239.935h0a13.273,13.273,0,0,1-3.109,20.284L-145.447,363.247a21.146,21.146,0,0,1-26.52-4.065h0a4.065,4.065,0,0,1,.952-6.212L22.117,238.5A7.474,7.474,0,0,1,31.488,239.935Z" transform="translate(173.007 -237.454)" fill="#df3e32"/><path d="M-171.015,352.97,22.117,238.5a7.474,7.474,0,0,1,9.371,1.438h0c.237.263.456.534.667.813a7.465,7.465,0,0,0-8.81-.884L-169.787,354.337a4.062,4.062,0,0,0-1.3,5.764c-.3-.3-.6-.6-.882-.919h0A4.065,4.065,0,0,1-171.015,352.97Z" transform="translate(173.007 -237.454)" fill="#f7ec32"/></g></g></g><path d="M-45.826,264.993s10.144,17.227,10.42,21.95-16.5,8.56-48.9,7.954c-32.951-.617-55.155-.728-63.214-8.786a23.691,23.691,0,0,0,8.821-13.72c1.773-8.858-5.419-15.213-7.711-16.152,0,0,53.352,9.481,87.009,16.464Z" transform="translate(222.403 -169.799)" fill="#1b4586"/><path d="M-84.31,284.448c-32.951-.617-55.155-.728-63.214-8.786a24.091,24.091,0,0,0,7.9-10.511h0s19.743,8.148,62.4,11.761,41.452-2.2,41.452-2.2h0a8.152,8.152,0,0,1,.365,1.779C-35.128,281.219-51.907,285.054-84.31,284.448Z" transform="translate(222.403 -159.349)" fill="#24356e"/><path d="M-119.433,285.691l-14.559-16.719s5.106,1.1,8.91,1.617L-118,282.1Z" transform="translate(238.271 -154.868)" fill="#24356e"/><g transform="translate(118.362 118.998)"><path d="M-126.525,284.685c2.138,5.8,7.061,9.334,11,7.885s5.393-7.331,3.255-13.134-7.061-9.336-11-7.887S-128.663,278.88-126.525,284.685Z" transform="translate(127.51 -271.224)" fill="#424143"/><path d="M-125.393,282.919c-1.8-4.9-.574-9.862,2.746-11.085a4.827,4.827,0,0,1,3.159-.017,13.692,13.692,0,0,1,5.705,7.226,15.051,15.051,0,0,1,.932,6.477,5.567,5.567,0,0,1-3.263,4.054C-119.433,290.8-123.589,287.816-125.393,282.919Z" transform="translate(129.02 -270.831)" fill="#221f1f"/><path d="M-124.888,281.547c1.48,4.015,4.884,6.457,7.606,5.456s3.733-5.071,2.253-9.088-4.886-6.457-7.609-5.456S-126.368,277.53-124.888,281.547Z" transform="translate(129.786 -270.04)" fill="#59595c"/><path d="M-123.848,279.345c.969,2.631,3.2,4.23,4.984,3.574s2.444-3.324,1.475-5.953-3.2-4.232-4.984-3.574S-124.817,276.714-123.848,279.345Z" transform="translate(131.281 -268.856)" fill="#24356e"/><path d="M-122.373,273.368a2.212,2.212,0,0,1,.387-.1c-1.134,1.071-1.447,3.261-.647,5.432.9,2.444,2.89,4,4.6,3.678a2.462,2.462,0,0,1-.828.521c-1.784.656-4.015-.943-4.984-3.574S-124.157,274.024-122.373,273.368Z" transform="translate(131.281 -268.832)" fill="#1b4586"/></g><g transform="translate(73.453 118.998)"><path d="M-147.2,294.809c2.138,5.805,7.061,9.336,11,7.887s5.393-7.331,3.255-13.136-7.061-9.334-11-7.885S-149.333,289.006-147.2,294.809Z" transform="translate(148.18 -259.35)" fill="#424143"/><path d="M-146.064,293.045c-1.8-4.9-.574-9.862,2.748-11.085a4.82,4.82,0,0,1,3.157-.017,13.666,13.666,0,0,1,5.705,7.224,15.068,15.068,0,0,1,.934,6.479,5.571,5.571,0,0,1-3.263,4.054C-140.1,300.923-144.258,297.942-146.064,293.045Z" transform="translate(149.688 -258.957)" fill="#221f1f"/><path d="M-145.56,291.673c1.48,4.015,4.886,6.457,7.609,5.456s3.73-5.071,2.251-9.088-4.884-6.457-7.606-5.456S-147.037,287.656-145.56,291.673Z" transform="translate(150.456 -258.165)" fill="#59595c"/><path d="M-144.519,289.471c.969,2.631,3.2,4.23,4.984,3.574s2.444-3.324,1.475-5.953-3.2-4.232-4.984-3.574S-145.488,286.84-144.519,289.471Z" transform="translate(151.95 -256.982)" fill="#24356e"/><path d="M-139.75,303.721l4.213-30.3-8.91-2.2,1.4,29.936Z" transform="translate(152.558 -271.224)" fill="#24356e"/><path d="M-143.044,283.494a2.264,2.264,0,0,1,.387-.1c-1.134,1.071-1.445,3.261-.645,5.432.9,2.444,2.887,4,4.6,3.676a2.425,2.425,0,0,1-.83.524c-1.784.656-4.015-.945-4.984-3.574S-144.828,284.15-143.044,283.494Z" transform="translate(151.95 -256.958)" fill="#1b4586"/></g><path d="M-106.535,273.915l44.212-16.684a2.92,2.92,0,0,1,3.872,2.047h0a2.917,2.917,0,0,1-1.232,3.126L-86.527,280.1A58.382,58.382,0,0,1-106.535,273.915Z" transform="translate(270.469 -168.858)" fill="#df3e32"/><path d="M-61.628,258.2l-43.508,16.419q-.7-.339-1.4-.706l44.212-16.684a2.921,2.921,0,0,1,3.7,1.558A2.92,2.92,0,0,0-61.628,258.2Z" transform="translate(270.469 -168.858)" fill="#f7ab31"/><g transform="translate(154.294 30.187)"><path d="M-87.578,273.328l-23.394-39.959,33.22,25.792-16.585-27.175,2.682-1.637,25.513,41.805-33.885-26.308,15.16,25.895Z" transform="translate(110.972 -230.348)" fill="#df3e32"/></g><g transform="translate(104.279 38.092)"><g clip-path="url(#n)"><g transform="translate(-84.766 7.534)"><path d="M31.488,239.935h0a13.273,13.273,0,0,1-3.109,20.284L-145.447,363.247a21.146,21.146,0,0,1-26.52-4.065h0a4.065,4.065,0,0,1,.952-6.212L22.117,238.5A7.474,7.474,0,0,1,31.488,239.935Z" transform="translate(173.007 -237.454)" fill="#df3e32"/><path d="M-171.015,352.97,22.117,238.5a7.474,7.474,0,0,1,9.371,1.438h0c.237.263.456.534.667.813a7.465,7.465,0,0,0-8.81-.884L-169.787,354.337a4.062,4.062,0,0,0-1.3,5.764c-.3-.3-.6-.6-.882-.919h0A4.065,4.065,0,0,1-171.015,352.97Z" transform="translate(173.007 -237.454)" fill="#f7ab31"/></g></g></g><g transform="translate(51.667 81.098)" fill="#d1d2d3" stroke="#f1f1f1" stroke-miterlimit="10" stroke-width="2"><ellipse cx="16.195" cy="18.614" rx="16.195" ry="18.614" stroke="none"/><ellipse cx="16.195" cy="18.614" rx="15.195" ry="17.614" fill="none"/></g><path d="M-156.925,268.906c0,6.714,4.734,12.154,10.574,12.154s10.574-5.44,10.574-12.154-4.734-12.152-10.574-12.152S-156.925,262.194-156.925,268.906Z" transform="translate(211.379 -169.195)" fill="#bcbdbf"/><path d="M-156.221,267.957c0,5.742,4.05,10.4,9.045,10.4s9.045-4.654,9.045-10.4-4.05-10.394-9.045-10.394S-156.221,262.217-156.221,267.957Z" transform="translate(212.204 -168.247)" fill="#a7a8ab"/></g></g></g></svg>