<svg xmlns="http://www.w3.org/2000/svg" xmlns:xlink="http://www.w3.org/1999/xlink" width="520.586" height="480" viewBox="0 0 520.586 480"><defs><linearGradient id="a" x1="-1.372" y1="0.924" x2="0.972" y2="0.219" gradientUnits="objectBoundingBox"><stop offset="0" stop-color="#fff"/><stop offset="1" stop-color="#fff" stop-opacity="0"/></linearGradient></defs><g transform="translate(-695.452 -176)"><circle cx="157.228" cy="157.228" r="157.228" transform="translate(777.422 236.121)" opacity="0.184" fill="url(#a)"/><circle cx="217.35" cy="217.35" r="217.35" transform="translate(717.301 176)" opacity="0.184" fill="url(#a)"/><g transform="translate(545.832 107.034)"><g transform="translate(149.62 469.419)"><path d="M204.39,955.151q-5.2.114-10.334.264c-15.57.456-30.415,1.36-40.147,2.757-20.33,2.917.837,4.329,14.129,6.181a17.5,17.5,0,0,1,2.686.5c.44.156.52.329.531.5.307,5.016-39.928,3.734-60.217,5.212-11.488.837-19.468,2.394-16.088,3.854,7.419,3.2,47.072,3.294,70.552,3.411,105.7.528,211.675,1.151,316.794-.5,22.67-.356,86.576-.795,109.15-1.215,10.331-.192,23.261-.7,23.307-1.836.032-.793-6.784-1.387-13.5-1.7-11.769-.546-27.134-1.022-24.9-2.8.815-.647,4.649-1.24,9.972-1.542,4.112-.233,8.841-.294,13.3-.433a74.006,74.006,0,0,0,10.9-.859c5.052-1.242-7.652-1.985-16.6-2.1-10.712-.139-19.443-1.015-15.744-2.333,2.577-.918,10.953-1.536,13.5-2.455,1.027-.37,1.026-.768.344-1.148-1.985-1.105-9.583-2.02-18.552-2.585s-60.621-.837-70.807-1.044c-39.876-.807-80.656-.89-121.2-.888q-48.6,0-97.191.162C257.577,954.641,230.474,954.578,204.39,955.151Z" transform="translate(-94.167 -898.845)" fill="#272525" opacity="0.11"/></g><g transform="translate(174.844 90.129)"><g transform="translate(0 123.699)"><g transform="translate(0 21.946)"><g transform="translate(17.66 165.373)"><path d="M356.573,812.921l-38.332-14.1,7.9,67.151-4.578,57.935-.123.386.092.01-.01.126,7.562.721,0-.008.281.031,16.884-51.617,8.937-54.982h0Z" transform="translate(-318.24 -798.824)" fill="#404f5a"/><path d="M329.463,1092.445l-7.842-.2-2,6.617.2.059-.05.005,12.965,7.682,6.165.685.783-7.045-1.665-1.22Z" transform="translate(-319.013 -963.475)" fill="#59595b"/></g><g transform="translate(42.174 168.522)"><path d="M414.029,814.589l-11.5,114.976-7.588.345-7.623-62.083L374.1,806Z" transform="translate(-374.1 -805.999)" fill="#404f5a"/><path d="M429.574,1092.633l10.8,4.108-.211,4.83-18.16.048.008-8.387Z" transform="translate(-400.979 -966.841)" fill="#59595b"/></g><path d="M332.6,545.277l-10.642-7.351-22.792,10.582L278,590.891l3.11,13.131L297,600.049Z" transform="translate(-278 -487.051)" fill="#798287"/><path d="M411.547,538.854l18.315,6.919,23.98,45.639-5.183,13.131-17.624-2.073Z" transform="translate(-352.939 -487.571)" fill="#798287"/><g transform="translate(6.487 50.624)"><path d="M509.818,830.123c.02.043.041.083.061.126Z" transform="translate(-414.57 -701.639)" fill="none"/><path d="M509.814,830.114l0-.007h0Z" transform="translate(-414.565 -701.63)" fill="#798287"/><path d="M388.107,665.957c-.378-.847-.758-1.69-1.066-2.539a55.144,55.144,0,0,1-1.7-5.808,142.4,142.4,0,0,1-2.6-14.683c-1.353-10.188-2.127-20.455-2.668-30.715q-.233-4.409-.394-8.823a22.51,22.51,0,0,0-.1-3.325c-4.256-22.015-8.192-34.212-17.988-54.318l-30.027-8.391s-10.189,7.614-22.476,41.766a137.64,137.64,0,0,0-7.733,39.072c-2.649,16.169-4.7,32.436-7.276,48.618-.5,3.137-2.128,9.966-.761,13.018,1.1,2.455,2.328,2.788,5.266,2.633,3.061-.161,8.16-2.749,10.993-3.77,5.477-1.974,10.753-4.449,16.133-6.66a76.121,76.121,0,0,1,10.861-4.042c3.983-.954,8.162-.292,12.154.25,5.63.765,13.223,4.167,18.761,5.445a58.351,58.351,0,0,0,10.358,1.17c2.661.125,5.331.266,8,.155,1.872-.078,3.781-.7,3.9-2.844A13.467,13.467,0,0,0,388.107,665.957Z" transform="translate(-292.782 -537.354)" fill="#798287"/></g><path d="M385.535,668.625s-4.309-54.885-7.735-67.032c-3.8-13.477-3.456-65.656-20.388-64.274,0,0-9.676-.691-13.477,14.859s-13.792,99.784-13.792,99.784l-3.881,23.585-.964,4.068,30.525-9.768,29.907,3.8Z" transform="translate(-304.541 -486.695)" fill="#fbf3db"/><g transform="translate(27.451)"><path d="M359.294,439.276s-14.754-1.9-2.548-13.431,22.042,6.337,21.282,8.659-7.724,6.008-8.525,6.569S359.294,439.276,359.294,439.276Z" transform="translate(-346.925 -422)" fill="#483d3f"/><g transform="translate(0 12.957)"><g transform="translate(25.514 8.573)"><path d="M431.253,526.327l-.146.356C431.2,526.458,431.253,526.327,431.253,526.327Z" transform="translate(-416.879 -502.072)" fill="none"/><path d="M431.439,526.327Z" transform="translate(-417.065 -502.072)" fill="#483d3f"/><path d="M412.915,495.67l.146-.356a49.368,49.368,0,0,0,2.1-5.893c1.641-6.214,4.07-16.684-5.459-18.362-3.672.344-4.486,2.1-6.84,4.936l-.326-.236c3.361,2.616,6.282,8.183,5.13,12.568-.555,2.112-2.077,3.528-2.581,5.813-.538,2.439-2.717,4.149-4.289,5.938a8.557,8.557,0,0,0-1.9,3.019c-.258.841-.449,3.069.489,3.592a1.229,1.229,0,0,0,.58.124,10.581,10.581,0,0,0,3.786-.983,12.29,12.29,0,0,0,3.6-2.211,20.916,20.916,0,0,0,4.559-5.875A21.164,21.164,0,0,0,412.915,495.67Z" transform="translate(-398.687 -471.059)" fill="#483d3f"/></g><path d="M384.043,511.211c4.1-.826,7.729-4.109,9.827-7.912a28.486,28.486,0,0,0,3.1-12.192c.818-13.73-16.036-13.368-23.37-3.052C367.211,497.045,372.117,513.613,384.043,511.211Z" transform="translate(-357.516 -467.804)" fill="#eacdb0"/><path d="M376.938,460.179l.144-.082c-4.789-10.667-19.2-12.5-32.448.954-5.39,5.476-5.021,13.266-1.357,19.587,1.685,2.907,9.884,12.783,13.191,7.51a6.592,6.592,0,0,0,.661-1.466c.808-2.484,1.564-4.986,2.362-7.473q.852-2.656,1.724-5.305a13.252,13.252,0,0,1,3.984-4.166c2.09-1.277,4.209-1.2,6.518-.814,1.581.266,1.532.874,3.021.274a6.921,6.921,0,0,0,2.818-3.323A6.649,6.649,0,0,0,376.938,460.179Z" transform="translate(-340.55 -451.525)" fill="#483d3f"/></g></g><path d="M396.864,571.177h11.476a.932.932,0,0,1,.879,1.242l-6.709,19.068a.932.932,0,0,1-.879.623h-8.3a.932.932,0,0,1-.917-1.1l3.532-19.068a.932.932,0,0,1,.916-.762Z" transform="translate(-342.195 -505.709)" fill="#59595b"/><g transform="translate(0 74.742)"><path d="M385.308,604.2l1.185-3.892,2.308-2.628.557.954-.016,1.289,4.754-5.017,2.826,1.549-2.648,7.307-3.74,3.464Z" transform="translate(-338.215 -593.77)" fill="#eacdb0"/><path d="M278,627.156l48.228-24.6,3.952,9.4L297.7,636.14l-16.587,4.147Z" transform="translate(-278 -598.058)" fill="#8c9498"/><path d="M421.5,606l.059-8.037-5.322-5.655-2.592,2.967,1.015,7.406,4.421,5.593Z" transform="translate(-354.116 -592.31)" fill="#eacdb0"/><path d="M461.971,632.545l-33.519-20.388-2.419,8.293L439.164,643.6l17.624,2.073Z" transform="translate(-361.067 -603.447)" fill="#8c9498"/></g><g transform="translate(34.972 13.708)"><path d="M436.012,472.528v-.006C436.028,472.521,436.034,472.522,436.012,472.528Z" transform="translate(-401.639 -464.058)" fill="#f1cd41"/><path d="M386.274,456.3a11.6,11.6,0,0,0-.976-.785,11.247,11.247,0,0,0-8.115-2.175c-5.846.83-9.31,4.518-11.437,10.8a27.611,27.611,0,0,1-1.48,4.391c-.674,1.274-2.089,1.581-3.181,2.482a9.325,9.325,0,0,0-.437,14.137c3.56,3.156,8.091-.343,9.659-3.943a12.825,12.825,0,0,0,.98-3.647,8.543,8.543,0,0,0-.468-4.232c-.772-1.868-2.6-2.12-3.255-3.713a5.944,5.944,0,0,1,.286-4.2c1.2-2.955,2.526-6.323,5.346-8.1a11.108,11.108,0,0,1,7.479-1.377,8.368,8.368,0,0,1,5.968,5.2,18.462,18.462,0,0,1,3.8,1.382A17.44,17.44,0,0,0,386.274,456.3Z" transform="translate(-357.689 -453.236)" fill="#f1cd41"/></g></g><g transform="translate(98.921)"><path d="M679.682,1061.8l.873,6.55-12.727,7.9L663,1071.858l8.338-10.533,7.712-4.438Z" transform="translate(-592.96 -756.316)" fill="#2e4661"/><g transform="translate(47.658 153.882)"><path d="M650.935,871.709l-7.086-62.617,8.526-70.1-1.917-14.911-38.081-1.447L612,733.767l5.4,75.422,24.051,65.72Z" transform="translate(-612 -722.635)" fill="#6e6358"/></g><g transform="translate(16.921 142.193)"><path d="M541.979,696l-.017,81.895,12.719,81.344,9.155-.091,5.032-75.224,11.778-75.292Z" transform="translate(-541.962 -696)" fill="#6e6358"/><path d="M569.31,1075.325l-17.993,6.144L550,1075.325l9.611-7.479,8.824-.088Z" transform="translate(-546.472 -904.609)" fill="#2e4661"/></g><path d="M619.064,383.742l0,0C619.049,383.732,619.043,383.732,619.064,383.742Z" transform="translate(-568.298 -378.582)" fill="#f1cd41"/><g transform="translate(0 2.437)"><path d="M679.672,489.65l11.907,7.821L708.7,560.779l-12.844,10.843-9.189-15.4Z" transform="translate(-602.315 -440.453)" fill="#ac7060"/><path d="M551.428,493.1l-18.537,3.493-26.944,54.2,9.855,15.226L531.477,555Z" transform="translate(-504.831 -442.39)" fill="#ac7060"/><path d="M597.316,580.347c0-.008,0-.015,0-.023-.181-7.483-.724-14.952-1.49-22.392-.753-7.314-1.722-14.6-2.768-21.872-.864-6-3.93-21-6.192-26.586-5.627-13.891-3.838-15.148-29.074-19.543-11.06-1.926-13.749,5.8-22.886,14.609-.9.869-.9,6.105-1.12,7.49-.387,2.437-.8,4.87-1.271,7.291-2.276,11.71-6.921,23.747-12.18,34.621-5.52,11.414-15.307,20.965-16.805,34.27-.458,4.065.314,7.454,3.431,8.883,6.144,3.072,7.9-4.828,21.943,0,10.544,3.625,20.026,9.546,30.975,12.183a49.966,49.966,0,0,0,20.035,1c5.162-.876,13.369-2.193,16.712-6.719C600.628,598.139,597.667,586.606,597.316,580.347Z" transform="translate(-503.404 -440.444)" fill="#ac7060"/><g transform="translate(13.171)"><path d="M609.727,446l8.706-1.906a44.463,44.463,0,0,0-1.3-6.98c2.347-1.147,5.023-2.769,5.15-5.378a7.361,7.361,0,0,0-.43-2.418l-2.9-9.783a8.987,8.987,0,0,0-1.426-3.2c-1.3-1.6-3.522-2.109-5.583-2.223a18.362,18.362,0,0,0-14.345,5.329,8.042,8.042,0,0,0-2.109,3.582c-.486,2.106.316,4.272,1.105,6.284l2.184,5.573c.837,2.136,1.967,4.544,4.187,5.122,1.179.306,2.5.022,3.593.552C608.495,441.488,608.566,444.194,609.727,446Z" transform="translate(-568.166 -398.048)" fill="#eacdb0"/><path d="M541.337,395.794A21.8,21.8,0,0,0,539.4,393.6c-1.513-1.474-3.305-2.68-4.581-4.364s-1.937-4.092-.856-5.907a6.544,6.544,0,0,1,3.225-2.4,25.314,25.314,0,0,1,13.194-1.795c4.241.565,8.131,1.869,12.094-.165,3.725-1.911,6.608-1.649,10.849-.674,4.59,1.055,10.547.733,14.8,2.484a11.847,11.847,0,0,1,4.5,3.5,17.847,17.847,0,0,1,2.247,18.739,25.547,25.547,0,0,1-2.351,3.8c-1.814,2.5-3.974,5.573-6.735,6.744-.368-2.55,1.016-10.888-1.194-12.754-3.507-2.961-10.419-.974-14.19.3-4.113,1.388-7.523,4.816-11.63,5.944-2.955.812-6.969-.213-9.71-1.468C545.667,404.038,543.541,398.611,541.337,395.794Z" transform="translate(-533.416 -377.547)" fill="#3a3029"/></g><g transform="translate(27.963 36.565)"><path d="M610.227,460.867l10.167,20.424L568.662,496.2l-1.541-13.64Z" transform="translate(-567.122 -460.867)" fill="#2a4056"/><path d="M583.456,468.83l12,3.944,18.75,14.772,9.472,80.654-34.227-4.9.651-67.77-18.084-10.96-4.888-5.774Z" transform="translate(-567.125 -465.335)" fill="#2e4661"/></g><path d="M505.947,597.3l28.335-21.327,1.4,11.892L515.8,612.526Z" transform="translate(-504.831 -488.892)" fill="#b4786b"/><path d="M573.025,568.373l5.941-5.944,5.951,1.4,2.1,5.6h-2.448l-2.1-2.449-1.051,6.3-8.919,2.8Z" transform="translate(-542.176 -481.292)" fill="#eacdb0"/><g transform="translate(5.602 76.808)"><path d="M533.974,587.208,555.2,585.49a.844.844,0,0,0,.352-1.141l-16.567-31.335a.844.844,0,0,0-1.141-.352l-21.223,1.718a.844.844,0,0,0-.352,1.141l16.567,31.335A.844.844,0,0,0,533.974,587.208Z" transform="translate(-516.168 -552.564)" fill="#334c60"/></g><path d="M667.564,628.453l-14.52-11.545-46.68-6.657,1.4,12.591S654.82,639.3,654.721,639.3Z" transform="translate(-561.179 -508.126)" fill="#b4786b"/><path d="M586.59,605.64l-2.1-5.247-2.448-2.1-.7,1.049.7,3.847-4.2-3.848-5.945-.7-1.4,1.748,3.845,7.7,12.939,5.949Z" transform="translate(-541.057 -501.417)" fill="#eacdb0"/></g><g transform="translate(49.036)"><path d="M639.605,399.261a10.084,10.084,0,0,0-1.816-5.01c-.836-1.163-2.142-1.829-2.472-3.249a27.934,27.934,0,0,1-.316-4.68c-.46-6.7-2.9-11.2-8.407-13.52a11.38,11.38,0,0,0-8.5.036,11.7,11.7,0,0,0-1.157.517,13.3,13.3,0,0,0-1.8,1.119,24.222,24.222,0,0,1,3.774.631,8.378,8.378,0,0,1,3.593-.665,11.241,11.241,0,0,1,6.965,3.277c2.3,2.469,2.726,6.106,3.142,9.309a6.014,6.014,0,0,1-.8,4.187c-1.056,1.389-2.906,1.165-4.143,2.794a8.65,8.65,0,0,0-1.55,4.022,12.972,12.972,0,0,0,.019,3.822c.606,3.927,4.138,8.52,8.436,6.35A10.154,10.154,0,0,0,639.605,399.261Z" transform="translate(-615.139 -371.994)" fill="#a7b0b4"/></g></g><g transform="translate(288.258 34.253)"><g transform="translate(12.799 144.804)"><path d="M999.9,784.3,964,780l11.74,63.762-1.595,63.873-.1.418.092.007,0,.135,7.59.407v-.008l.282.02,17.544-70.246,2.194-47.836Z" transform="translate(-964 -780)" fill="#404f5a"/><path d="M991.641,1078.509l-7.843.165-1.66,7.166.2.053-.05.008,13.345,7.585,6.193.436.42-7.565-1.726-1.223Z" transform="translate(-974.177 -947.505)" fill="#59595b"/></g><g transform="translate(39.186 144.653)"><path d="M1064.449,786.915l-5.58,123.394-7.561.733-10.561-72.867-16.622-58.52Z" transform="translate(-1024.125 -779.655)" fill="#404f5a"/><path d="M1095.319,1082.767l11,3.87.037,5.171-18.137.924-.423-8.961Z" transform="translate(-1059.852 -949.743)" fill="#59595b"/></g><g transform="translate(0 0.631)"><path d="M992.555,528.121s-19.963,2.354-25.37,11.669-24.293,46.038-28.14,63.875,2.023,55.545-3.224,61.491,11.511,9.062,24.482,2.448c17.173-8.756,60.343,9.76,62.376-23.238.987-16.016-12.637-38.952-10.538-64.833S1011.442,530.219,992.555,528.121Z" transform="translate(-934.835 -494.488)" fill="#7da0ac"/><g transform="translate(41.178 33.633)"><path d="M1032.966,545.258c7.694,4.9,19.935,2.448,20.285-2.8a49.867,49.867,0,0,0-.17-9.069l1.806-1.452a18.6,18.6,0,0,0-9.681-3.818,64.155,64.155,0,0,0-15.3,4.022l.333.419S1025.271,540.362,1032.966,545.258Z" transform="translate(-1028.663 -528.121)" fill="#a2b0b2"/></g><path d="M964.22,567.17l-10.228,6.995,10.142,61.9,11.192,6.3h7.694l4.2-13.99Z" transform="translate(-945.584 -516.4)" fill="#86a9af"/><path d="M1098.373,560.591l8.722,9.182-2.1,63.3L1098,636.924l-4.547-32.876Z" transform="translate(-1023.843 -512.708)" fill="#86a9af"/><g transform="translate(12.633)"><path d="M1075.353,477.237c3.98,2.147,8.02,7.459,7.587,12.254-.208,2.309-1.552,4.061-1.677,6.541-.266,4.889-7.865,9.745-3.495,14.625,2.247,2.508,5.877,3.114,9.213,3.57a2.469,2.469,0,0,0,1.211-.037,1.736,1.736,0,0,0,.966-1.634,7.036,7.036,0,0,0-.407-1.967c-1.89-6.772,1.606-14.466,2.23-21.275s-.726-14.205-6.149-18.843c-3.784,1.008-5.035-1.991-7,1.4Z" transform="translate(-1026.318 -461.987)" fill="#a19465"/><path d="M1047.616,508.161c4.637-.416,8.682-3.682,10.98-7.731s3.065-8.793,3.254-13.445c.627-15.48-18.493-17.211-26.591-6.434C1028.2,489.943,1034.133,509.371,1047.616,508.161Z" transform="translate(-1002.14 -463.94)" fill="#eacdb0"/><path d="M1020.42,458.551a11.235,11.235,0,0,0-7.577-6.161c-12.186-3.132-23.077,1.982-29.326,13.143-2.914,5.2-3.26,11.654-6.077,16.712-.086.155-.167.313-.258.466-.224.375-.461.729-.705,1.069h0s-8.132,12.185-7.607,19.2-6.463,8.832-5.061,14.691,7.318,7.056,5.509,9.46,4.475,2.91,7.342.183,4.833-11.424,4.683-19.475c.157-6.293,2.836-10.3,6.124-11.5h0a11.071,11.071,0,0,0,5.067-2.767c3.092-3.141,4.2-9.224,5.746-13.218,1.63-4.212,3.541-8.757,7.5-10.93,2.585-1.419,5.13-1.211,7.885-.615,1.887.409,1.793,1.137,3.618.5,1.4-.489,2.979-2.555,3.575-3.84A8.013,8.013,0,0,0,1020.42,458.551Z" transform="translate(-963.621 -451.483)" fill="#a19465"/></g><path d="M1051.182,591.043H1062.8a.943.943,0,0,1,.89,1.256l-6.79,19.3a.944.944,0,0,1-.89.63h-8.4a.943.943,0,0,1-.927-1.115l3.574-19.3a.943.943,0,0,1,.927-.772Z" transform="translate(-997.587 -529.796)" fill="#59595b"/><path d="M1032.517,616.388l-.426-10.6,9.093-5.946,5.246,3.847-5.946,8.394-1.049,6.3-1.959,1.888Z" transform="translate(-989.409 -534.735)" fill="#eacdb0"/><path d="M1068.1,630.07c.316-.148-2.308-5.421-2.308-5.421l-7.359-5.768-3.035,2.689,1.893,5.789s4.817,6.115,5.308,5.807S1068.1,630.07,1068.1,630.07Z" transform="translate(-1002.489 -545.417)" fill="#eacdb0"/><path d="M1070.556,675.244l-4.2-31.127,7.993-6.511,15.789,24.7-.35,13.99-8.394,5.946Z" transform="translate(-1008.638 -555.924)" fill="#86a9af"/><path d="M983.478,665.762l20.984-38.821,8.044,6.3L999.566,675.9Z" transform="translate(-962.131 -549.939)" fill="#86a9af"/></g><path d="M1103.941,471.666v-.006C1103.959,471.659,1103.965,471.66,1103.941,471.666Z" transform="translate(-1029.726 -462.173)" fill="#f1cd41"/><g transform="translate(35.687)"><path d="M1052.807,460.3a19.4,19.4,0,0,0-4.615-6.823,13.071,13.071,0,0,0-1.094-.88,12.605,12.605,0,0,0-9.1-2.438c-6.553.93-10.435,5.064-12.819,12.106a30.96,30.96,0,0,1-1.659,4.922c-.755,1.428-2.342,1.772-3.565,2.782a10.452,10.452,0,0,0-.489,15.845c3.991,3.537,9.07-.384,10.827-4.419a14.361,14.361,0,0,0,1.1-4.088,9.567,9.567,0,0,0-.525-4.744c-.865-2.093-2.909-2.376-3.648-4.162a6.663,6.663,0,0,1,.32-4.711c1.35-3.312,2.831-7.087,5.993-9.082a12.447,12.447,0,0,1,8.383-1.543,9.382,9.382,0,0,1,6.625,5.668h0C1050.5,459.379,1052.775,460.283,1052.807,460.3Z" transform="translate(-1016.152 -450.044)" fill="#2e4661"/></g><path d="M1111.083,507.583a11.176,11.176,0,0,0-2.2-5.477,6.09,6.09,0,0,0-.4-.468,38.743,38.743,0,0,1-.472,8.38c-.542,2.636-1.19,5.669-1.53,7.254A11.375,11.375,0,0,0,1111.083,507.583Z" transform="translate(-1031.151 -478.995)" fill="#2e4661"/></g><g transform="translate(197.168 25.603)"><g transform="translate(41.723 149.944)"><path d="M860.374,772l2.243,53.5-5.9,79.333-8.824.627L837.175,833.41l-14.831-60.971Z" transform="translate(-822.344 -772)" fill="#59595b"/><path d="M880.513,1075.846l.339,4.771,14.357,5.887,3.95-5.266-9.1-6.07Z" transform="translate(-854.985 -942.12)" fill="#8c9498"/></g><g transform="translate(11.542 136.349)"><path d="M753.572,747.773l1.015,35.306L769.068,887.1l8.841-.3,7.453-69.643,5.341-76.135Z" transform="translate(-753.572 -741.022)" fill="#59595b"/><path d="M784.688,1075.583l-14.227,7.3-4.941-4.619,9.447-7.136,9.561-.322Z" transform="translate(-760.276 -926.075)" fill="#8c9498"/></g><g transform="translate(0 48.676)"><path d="M766.113,546.826l-23.382,9.293-11.942,63.1,19.087,10.994,8.892-62.406Z" transform="translate(-729.246 -544.377)" fill="#f6e299"/><path d="M855.908,544.435l19.585,7.694,9.793,19.586,5.771,43.625-8.777,10.094Z" transform="translate(-799.455 -543.036)" fill="#f6e299"/><path d="M814.524,609.548c-2.822-12.113-.262-.807-3.124-12.912-3.161-13.437-6.356-26.931-11.571-39.746q-2.012-4.947-4.417-9.732l-15.185-5.911-16.088,2.448-12.411,4.9c-1.83,14.144-4,40.9-10.4,52.2a88.493,88.493,0,0,0-9.375,22.165c-.646,2.609-8.073,38.146-2.8,38.586,4.2.35,18.922-7.535,34.992-6.041,18.8,4.135,51.187,11.545,55.72,5.258C821.161,658.969,815.383,613.238,814.524,609.548Z" transform="translate(-727.273 -541.247)" fill="#f7e5ac"/><path d="M817.585,578.844c6.57-9.2,11.879-27.8,13.6-34.958l-6.779-2.639-16.088,2.448-2.317.955S808.142,566.6,817.585,578.844Z" transform="translate(-771.45 -541.247)" fill="#798287"/></g><g transform="translate(0.467)"><path d="M823,542.921q.1,1.108.153,2.22c.028.571.051,1.145.04,1.716-.009.493-.308,1.024-.12,1.509.611,1.568,3.379,1.708,4.736,1.58a9.617,9.617,0,0,0,4.845-1.759c1.755-1.317.439-3.511.439-6.583S823,542.921,823,542.921Z" transform="translate(-781.456 -492.16)" fill="#b99a6f"/><g transform="translate(29.897 18.488)"><path d="M823.711,482.342c-3.24-14.778-21.416-11.634-26.272.568-1.669,4.194-1.041,9.044.694,13.111a20.765,20.765,0,0,0,3.638,5.752A17.058,17.058,0,0,0,804.2,504a11.612,11.612,0,0,0,4.767,2.364,14.062,14.062,0,0,0,2.974.2,32.031,32.031,0,0,0,3.842-.686c4.173-1.567,7.1-5.645,8.231-10.024C825.144,491.455,824.685,486.782,823.711,482.342Z" transform="translate(-796.462 -472.461)" fill="#b99a6f"/></g><path d="M778.06,437.228a14.8,14.8,0,0,0-3.392-4.868c-4.773-4.061-6.27,3.129-10.366,1.416-.988-.413-1.6-1.509-2.425-2.246-1.562-1.392-3.774-1.389-5.7-.9s-3.768,1.4-5.739,1.594c-1.75.175-3.551-.218-5.262.207-2.571.639-2.858,3.185-3.91,5.254-1.164,2.291-2.81,5.351-4.705,6.956-1.366,1.157-3.085,1.648-4.645,2.45a5.824,5.824,0,0,0-3.389,4.019c-.279,1.8.63,3.616.5,5.435-.246,2.7-.933,3.988-.592,6.858a8.515,8.515,0,0,0,1.262,4.2c1.151,1.508,3.1,1.832,4.865,1.846s3.612-.152,5.2.726c3.445,1.905,2.117,5.546,2.551,8.874.66,5.064,5.653,8.843,10.132,7.883,3.8-.813,6.571-4.638,7.12-8.8.275-2.086-.206-4.161.091-6.245.286-2.01,1.869-4.582.358-6.487a14.569,14.569,0,0,1-1.2-1.277,3.027,3.027,0,0,1-.376-1.418,6,6,0,0,1,1.257-4.018,1.729,1.729,0,0,0,.491-.279c2.715-2.2,2.016-2.178,6.559-2.354s-.135-3.495,3.279-5.727,3.549,1.263,6.291-.243,2.078-9.283,2.076-9.3c.418-.161.7-.2.69-.014A7.6,7.6,0,0,0,778.06,437.228Z" transform="translate(-728.337 -430.333)" fill="#483d3f"/><path d="M872.421,451.594c-2.825-1.095-5.893-.183-8.739.732.463-3.028-1.654-5.891-4.031-7.506s-5.129-2.487-7.374-4.324c-2.7-2.208-4.907-5.891-8.227-5.979-4.368-.116-8.23,6.065-11.941,8.145a6.334,6.334,0,0,0,1.085,2.969,3.171,3.171,0,0,0,.52.438c.428,2.26,1.332,6.093,2.57,6.291,1.761.282,6.467,3.2,6.743,6.363s1.1,8.017-.642,11.943v0c-1.092,1.957-2.1,3.614-1.655,6.873a15.522,15.522,0,0,0,6,10.415c5.5,1.775,11.854-.966,14.772-6.377.644-1.194,1.2-2.567,2.3-3.228.886-.532,1.98-.5,2.876-1.008,3.727-2.123.03-9.311,2.5-13.074,1.56-2.379,5.026-2.4,6.518-4.829C877.352,456.722,875.246,452.688,872.421,451.594Z" transform="translate(-786.568 -432.679)" fill="#483d3f"/></g><g transform="translate(8.219 83.614)"><path d="M753.941,663.825l-7.9-39.216a2.05,2.05,0,0,1,1.967-2.455l62.148-1.3a2.05,2.05,0,0,1,2.089,2.183l-3.149,41.8Z" transform="translate(-746 -620.858)" fill="#798287"/><path d="M763.954,718.562v2.094h55.573v-1.128Z" transform="translate(-756.075 -675.684)" fill="#5f696c"/><path d="M889.966,706.283l6.765-13.048h-6.2l-1.048,13.209Z" transform="translate(-826.514 -661.472)" fill="#798287"/></g><path d="M827.031,711.507,825.8,704.89l-6.5-4.244-3.316,1.449,1.673,7.284,5.13,4.03Z" transform="translate(-777.054 -582.016)" fill="#b99a6f"/><path d="M833.977,699.993l-5.493,2.891,44.551-1.135,2.633-9.216L870.841,682l-8.338,4.827-7.022,13.166Z" transform="translate(-784.067 -571.554)" fill="#f6e299"/><path d="M751.445,669.249c-.915-.8-5.425-5.065-5.425-5.065l-.135-4.826,8.175-5.936,3.182,3.862s-6.238,9.357-6.274,9.6A23.461,23.461,0,0,0,751.445,669.249Z" transform="translate(-737.717 -555.517)" fill="#b99a6f"/><path d="M739.7,682.307l-7.082,3.906L731,695.338l9.161,5.1,3.284-12.45-.157-2.746Z" transform="translate(-729.365 -571.726)" fill="#f6e299"/></g><g transform="translate(370.338 29.306)"><g transform="translate(23.741 122.981)"><path d="M1175.979,719l-.017,81.895,12.719,81.344,12.752.017,1.435-75.333,11.778-75.292Z" transform="translate(-1175.962 -719)" fill="#2e4661"/><path d="M1207.3,1098.366l-17.993,6.144-1.317-6.144,9.611-7.479,8.824-.088Z" transform="translate(-1182.713 -927.632)" fill="#39281c"/></g><g transform="translate(44.384 133.075)"><path d="M1223,742l21.943,77.678,8.338,74.606,10.117-1.038,3.488-77.518.226-71.7Z" transform="translate(-1223 -742)" fill="#2e4661"/><path d="M1292.317,1087.878l-1.317,8.338,21.065.878.878-5.705L1300.655,1087Z" transform="translate(-1261.158 -935.593)" fill="#39281c"/></g><path d="M1174.244,545.917l-24.132,6.995-28.247,46.275,9.443,11.192,28.946-42.078Z" transform="translate(-1121.865 -498.895)" fill="#828c87"/><path d="M1267.516,547.511,1290.6,557.3l30.078,39.521-4.547,13.29-34.275-25.531Z" transform="translate(-1203.595 -499.79)" fill="#828c87"/><path d="M1225.995,660.335c-.018-.1-.044-.188-.064-.283-.905-29.4-11.437-75.54-13.128-82.234-1.454-5.753-3.359-29.49-19.173-35.4.037-.078.076-.152.113-.232,1.574-3.451-1.224-4.243-1.224-4.243l-15.039.7s-1.049,1.749-.7,2.8.7,2.448.7,2.448c-5.455,3.634-17.11,12.365-18.536,22.034,2.1,13.29-.971,44.016-13.758,69.639-2.03,4.068-3.8,7.372-5.3,10.072h0a38.664,38.664,0,0,0-3.985,7.174c-1.226,2.329-1.685,3.636-1.264,4.5-.346,2.755.325,5.279,3.144,6.615,8.338,3.95,17.554,15.8,42.569,10.094S1230.383,684.4,1225.995,660.335Z" transform="translate(-1128.947 -494.423)" fill="#828c87"/><g transform="translate(40.227 15.572)"><path d="M1244.882,476.738c-.94-1.262-2.691-1.529-4.256-1.7q-.662-.071-1.328-.14c-6.979-.727-14.138-1.275-20.8.849-1.459.465-3,1.167-3.665,2.547a6,6,0,0,0-.446,1.716c-.993,6.589-2.1,16.313,2.781,21.725a10.6,10.6,0,0,0,3.35,2.394,15.071,15.071,0,0,0,5.261,1.4v.007a16.929,16.929,0,0,0,9.309-2.144,14.19,14.19,0,0,0,1.865-1.308,16.538,16.538,0,0,0,5.363-9.348c.865-3.93,2.278-7.734,3.022-11.724C1245.608,479.565,1245.766,477.923,1244.882,476.738Z" transform="translate(-1213.528 -474.254)" fill="#ebceb1"/></g><path d="M1345.814,655.057l-12.241-3.148-21.26,36.57,5.246,8.744,23.708-28.876Z" transform="translate(-1228.733 -558.372)" fill="#909994"/><path d="M1196.518,461.222a21.359,21.359,0,0,1,11.251-4.182c9.644-.395,15.561,6.37,14.162,15.114,2.255-3.649,8.017-8.569,7.825-12.913-.157-3.556-1.192-8.311-3.514-11.133-2.173-2.64-7.08-3.668-10.08-5l-8.484-3.767a4.049,4.049,0,0,0-4.042-.06c-6.081,2.332-17.759,3.964-23.839,6.3-1.168.448-2.488,1.058-2.8,2.27a3.974,3.974,0,0,0,.3,2.229c1.081,3.172,2.824,6.341,3.537,9.6.6,1.871,8.8,12.951,12.063,11.433a18.8,18.8,0,0,1,.959-6.292A7.841,7.841,0,0,1,1196.518,461.222Z" transform="translate(-1152.765 -438.771)" fill="#514943"/><g transform="translate(37.15 45.204)"><path d="M1230.857,542.73v0Z" transform="translate(-1220.175 -542.31)" fill="#f1cd41"/><path d="M1217.566,544.8l-.368-1.211v-1.4a5.474,5.474,0,0,1-1.108-.422c-1.494.809-2.627,3.431-2.976,4.318a7.259,7.259,0,0,0-3.441,1.424,8.31,8.31,0,0,0-2.691,3.471,7.745,7.745,0,0,0-.239,4.543c.6,2.674,2.182,4.543,5.1,4.54a3.987,3.987,0,0,0,3.532-2.829,31.815,31.815,0,0,0,1.227-4.619c.263-1.094,1.142-3.176.109-4.146h0a3.772,3.772,0,0,0-.739-.841l-.152-.186A7.7,7.7,0,0,1,1217.566,544.8Z" transform="translate(-1206.516 -541.774)" fill="#2e4661"/></g><path d="M1269.7,548a9.5,9.5,0,0,0-2.086-3.308l.5-3.727c.7-5.246-5.5-6.366-5.5-6.366l-1.491,1.469c1.4.35,1.749,2.448,1.749,2.448a1.627,1.627,0,0,1,1.4.7c.721.961.029,3.418-.474,4.863a8.721,8.721,0,0,0-3.743,1.342,8.53,8.53,0,0,0-2.418,3.5,12.818,12.818,0,0,0-.867,3.671c-.328,3.907,2,9.13,6.622,8.043A9.313,9.313,0,0,0,1269.7,548Z" transform="translate(-1197.542 -492.545)" fill="#2e4661"/><g transform="translate(0.059 59.454)"><path d="M1224.267,574.859l-11.6-.614a.944.944,0,0,0-.955,1.208l5.761,19.63a.943.943,0,0,0,.855.676l8.386.444a.944.944,0,0,0,.985-1.065l-2.549-19.46a.943.943,0,0,0-.885-.819Z" transform="translate(-1172.32 -574.244)" fill="#59595b"/><path d="M1219.946,605.53l-1.178-9.1,6.563-5.052,3.594,3.5-3.122,5.837,1.523,4.8-4.493,3.761Z" transform="translate(-1176.3 -583.861)" fill="#eacdb0"/><path d="M1122,640.1l4.828-7.9,37.938-13.137,6.072,5.879-30.405,22.617-9.216,3.95Z" transform="translate(-1122 -599.396)" fill="#909994"/></g></g></g><g transform="translate(151.84 0.51)"><circle cx="13.322" cy="13.322" r="13.322" transform="matrix(0.23, -0.973, 0.973, 0.23, 65.44, 110.617)" fill="#fff"/><path d="M1004.993,214.1A44.488,44.488,0,0,0,966.2,236.709l12.412,11.647c.12-.223.232-.451.333-.688a28.277,28.277,0,0,1,52.088,0c.093.218.2.43.3.636l12.411-11.645A44.488,44.488,0,0,0,1004.993,214.1Z" transform="translate(-923.527 -156.283)" fill="#fff"/><path d="M984.236,156.811a73.637,73.637,0,0,0-60.526,31.517l12.036,11.294c.047-.068.1-.134.142-.2a57.584,57.584,0,0,1,96.09-.918,8.217,8.217,0,0,0,.8.993l11.946-11.209A73.827,73.827,0,0,0,984.236,156.811Z" transform="translate(-902.77 -128.298)" fill="#fff"/><path d="M964.24,101.071a102.862,102.862,0,0,0-81.466,40.382l11.945,11.208c.083-.1.166-.2.245-.311a86.1,86.1,0,0,1,138.552,0c.068.092.145.174.216.262l11.94-11.2A102.864,102.864,0,0,0,964.24,101.071Z" transform="translate(-882.774 -101.071)" fill="#fff"/></g></g></g></g></svg>