<svg xmlns="http://www.w3.org/2000/svg" width="527.225" height="527.225" viewBox="0 0 527.225 527.225">
    <defs>
        <style>
            .cls-1{opacity:.8;fill:url(#linear-gradient)}.cls-2{fill:#ff794d}.cls-3{fill:#fff}.cls-4{fill:#eb2554}.cls-5{fill:#e3f4fc}.cls-6{fill:#2c3e52}.cls-7{fill:#c6c5c4}.cls-8{fill:#d3d3d3}.cls-9{fill:#c9eaf8}.cls-10{fill:#eaeaea}.cls-11{fill:#f7f2f0}.cls-12{fill:#f2f9fc}
        </style>
        <linearGradient id="linear-gradient" x1=".5" x2=".5" y1="-1.677" y2="1.145" gradientUnits="objectBoundingBox">
            <stop offset="0" stop-color="#fff"/>
            <stop offset=".216" stop-color="#fff" stop-opacity=".761"/>
            <stop offset=".604" stop-color="#fff" stop-opacity=".357"/>
            <stop offset=".874" stop-color="#fff" stop-opacity=".098"/>
            <stop offset="1" stop-color="#fff" stop-opacity="0"/>
        </linearGradient>
    </defs>
    <g id="ill" transform="translate(-704 -229.021)">
        <circle id="Ellipse_1763" cx="186.402" cy="186.402" r="186.402" class="cls-1" data-name="Ellipse 1763" transform="rotate(-45 946.66 -603.487)"/>
        <g id="Group_7006" data-name="Group 7006" transform="translate(717.652 231.992)">
            <g id="_ÎÓÈ_2" data-name="—ÎÓÈ_2">
                <g id="Group_6910" data-name="Group 6910">
                    <g id="Group_6909" data-name="Group 6909">
                        <path id="Path_47541" d="M49.354 228.648H26.383a2.035 2.035 0 1 1 0-4.069h22.971a2.035 2.035 0 0 1 0 4.069z" class="cls-2" data-name="Path 47541"/>
                    </g>
                </g>
                <g id="Group_6969" data-name="Group 6969">
                    <g id="Group_6912" data-name="Group 6912">
                        <g id="Group_6911" data-name="Group 6911">
                            <path id="Path_47542" d="M249.22 415.4c-85.889 0-155.765-69.876-155.765-155.765s69.876-155.767 155.765-155.767 155.765 69.876 155.765 155.765S335.109 415.4 249.22 415.4zm0-281.873a126.107 126.107 0 1 0 126.107 126.106A126.251 126.251 0 0 0 249.22 133.525z" class="cls-3" data-name="Path 47542"/>
                        </g>
                    </g>
                    <g id="Group_6914" data-name="Group 6914">
                        <g id="Group_6913" data-name="Group 6913">
                            <path id="Path_47543" d="M249.22 446c-102.764 0-186.369-83.6-186.369-186.367S146.456 73.264 249.22 73.264v3.3c-100.947 0-183.073 82.125-183.073 183.072S148.273 442.7 249.22 442.7a183.26 183.26 0 0 0 88-22.5l1.588 2.891A186.588 186.588 0 0 1 249.22 446z" class="cls-3" data-name="Path 47543"/>
                        </g>
                    </g>
                    <g id="Group_6916" data-name="Group 6916">
                        <g id="Group_6915" data-name="Group 6915">
                            <path id="Path_47544" d="M414.068 346.651l-2.914-1.541A183.209 183.209 0 0 0 307.222 85.939l1.043-3.128a186.505 186.505 0 0 1 105.8 263.84z" class="cls-4" data-name="Path 47544"/>
                        </g>
                    </g>
                    <g id="Group_6918" data-name="Group 6918">
                        <g id="Group_6917" data-name="Group 6917">
                            <path id="Path_47545" d="M98.295 107.089a16.912 16.912 0 1 1 16.912-16.913 16.932 16.932 0 0 1-16.912 16.913zm0-30.528a13.616 13.616 0 1 0 13.615 13.615 13.63 13.63 0 0 0-13.615-13.615z" class="cls-2" data-name="Path 47545"/>
                        </g>
                    </g>
                    <g id="Group_6920" data-name="Group 6920">
                        <g id="Group_6919" data-name="Group 6919">
                            <circle id="Ellipse_2809" cx="9.989" cy="9.989" r="9.989" class="cls-2" data-name="Ellipse 2809" transform="rotate(-22.897 252.12 -167.938)"/>
                        </g>
                    </g>
                    <g id="Group_6922" data-name="Group 6922">
                        <g id="Group_6921" data-name="Group 6921">
                            <path id="Path_47546" d="M433.941 393.674a10.813 10.813 0 1 1 10.812-10.814 10.826 10.826 0 0 1-10.812 10.814zm0-19.978a9.164 9.164 0 1 0 9.164 9.164 9.175 9.175 0 0 0-9.164-9.16z" class="cls-2" data-name="Path 47546"/>
                        </g>
                    </g>
                    <g id="Group_6924" data-name="Group 6924">
                        <g id="Group_6923" data-name="Group 6923">
                            <path id="Path_47547" d="M440.477 382.861a6.536 6.536 0 1 1-6.536-6.537 6.536 6.536 0 0 1 6.536 6.537z" class="cls-2" data-name="Path 47547"/>
                        </g>
                    </g>
                    <g id="Group_6926" data-name="Group 6926">
                        <g id="Group_6925" data-name="Group 6925">
                            <path id="Path_47548" d="M337.459 131.623a4.623 4.623 0 1 1-4.622-4.623 4.623 4.623 0 0 1 4.622 4.623z" class="cls-5" data-name="Path 47548"/>
                        </g>
                    </g>
                    <g id="Group_6928" data-name="Group 6928">
                        <g id="Group_6927" data-name="Group 6927">
                            <path id="Path_47549" d="M148.279 64.952a.825.825 0 0 1-.824-.825v-9.305a.824.824 0 1 1 1.648 0v9.305a.825.825 0 0 1-.824.825z" class="cls-2" data-name="Path 47549"/>
                        </g>
                    </g>
                    <g id="Group_6930" data-name="Group 6930">
                        <g id="Group_6929" data-name="Group 6929">
                            <path id="Path_47550" d="M148.279 81.818a.824.824 0 0 1-.824-.824v-9.306a.824.824 0 1 1 1.648 0v9.306a.824.824 0 0 1-.824.824z" class="cls-2" data-name="Path 47550"/>
                        </g>
                    </g>
                    <g id="Group_6932" data-name="Group 6932">
                        <g id="Group_6931" data-name="Group 6931">
                            <path id="Path_47551" d="M161.655 68.441h-9.3a.824.824 0 1 1 0-1.648h9.3a.824.824 0 1 1 0 1.648z" class="cls-2" data-name="Path 47551"/>
                        </g>
                    </g>
                    <g id="Group_6934" data-name="Group 6934">
                        <g id="Group_6933" data-name="Group 6933">
                            <path id="Path_47552" d="M144.208 68.441H134.9a.824.824 0 0 1 0-1.648h9.306a.824.824 0 1 1 0 1.648z" class="cls-2" data-name="Path 47552"/>
                        </g>
                    </g>
                    <g id="Group_6936" data-name="Group 6936">
                        <g id="Group_6935" data-name="Group 6935">
                            <path id="Path_47553" d="M151.5 65.222a.825.825 0 0 1-.583-1.408l6.58-6.579a.824.824 0 1 1 1.166 1.166l-6.58 6.579a.822.822 0 0 1-.583.242z" class="cls-2" data-name="Path 47553"/>
                        </g>
                    </g>
                    <g id="Group_6938" data-name="Group 6938">
                        <g id="Group_6937" data-name="Group 6937">
                            <path id="Path_47554" d="M138.479 78.241a.825.825 0 0 1-.583-1.408l6.581-6.58a.824.824 0 0 1 1.166 1.166L139.062 78a.822.822 0 0 1-.583.241z" class="cls-2" data-name="Path 47554"/>
                        </g>
                    </g>
                    <g id="Group_6940" data-name="Group 6940">
                        <g id="Group_6939" data-name="Group 6939">
                            <path id="Path_47555" d="M158.078 78.241a.822.822 0 0 1-.583-.242l-6.58-6.58a.824.824 0 0 1 1.166-1.166l6.58 6.58a.825.825 0 0 1-.583 1.408z" class="cls-2" data-name="Path 47555"/>
                        </g>
                    </g>
                    <g id="Group_6942" data-name="Group 6942">
                        <g id="Group_6941" data-name="Group 6941">
                            <path id="Path_47556" d="M145.06 65.222a.822.822 0 0 1-.583-.242L137.9 58.4a.824.824 0 0 1 1.166-1.166l6.581 6.579a.825.825 0 0 1-.583 1.408z" class="cls-2" data-name="Path 47556"/>
                        </g>
                    </g>
                    <g id="Group_6944" data-name="Group 6944">
                        <g id="Group_6943" data-name="Group 6943">
                            <path id="Path_47557" d="M447.149 348.481a.824.824 0 0 1-.583-1.407l6.58-6.58a.824.824 0 0 1 1.166 1.166l-6.58 6.58a.821.821 0 0 1-.583.241z" class="cls-2" data-name="Path 47557"/>
                        </g>
                    </g>
                    <g id="Group_6946" data-name="Group 6946">
                        <g id="Group_6945" data-name="Group 6945">
                            <path id="Path_47558" d="M434.13 361.5a.824.824 0 0 1-.583-1.407l6.58-6.58a.824.824 0 0 1 1.166 1.166l-6.58 6.58a.821.821 0 0 1-.583.241z" class="cls-2" data-name="Path 47558"/>
                        </g>
                    </g>
                    <g id="Group_6948" data-name="Group 6948">
                        <g id="Group_6947" data-name="Group 6947">
                            <path id="Path_47559" d="M453.729 361.5a.821.821 0 0 1-.583-.241l-6.58-6.58a.824.824 0 0 1 1.166-1.166l6.58 6.58a.824.824 0 0 1-.583 1.407z" class="cls-2" data-name="Path 47559"/>
                        </g>
                    </g>
                    <g id="Group_6950" data-name="Group 6950">
                        <g id="Group_6949" data-name="Group 6949">
                            <path id="Path_47560" d="M440.71 348.481a.823.823 0 0 1-.583-.241l-6.58-6.58a.824.824 0 0 1 1.166-1.166l6.58 6.58a.824.824 0 0 1-.583 1.407z" class="cls-2" data-name="Path 47560"/>
                        </g>
                    </g>
                    <g id="Group_6952" data-name="Group 6952">
                        <g id="Group_6951" data-name="Group 6951">
                            <path id="Path_47561" d="M83.031 427.507a1.185 1.185 0 0 1-1.185-1.185V412.95a1.184 1.184 0 1 1 2.369 0v13.372a1.184 1.184 0 0 1-1.184 1.185z" class="cls-2" data-name="Path 47561"/>
                        </g>
                    </g>
                    <g id="Group_6954" data-name="Group 6954">
                        <g id="Group_6953" data-name="Group 6953">
                            <path id="Path_47562" d="M89.717 420.82H76.345a1.185 1.185 0 1 1 0-2.369h13.372a1.185 1.185 0 0 1 0 2.369z" class="cls-2" data-name="Path 47562"/>
                        </g>
                    </g>
                    <g id="Group_6956" data-name="Group 6956">
                        <g id="Group_6955" data-name="Group 6955">
                            <path id="Path_47563" d="M43.593 304.84a1.371 1.371 0 0 1-1.371-1.371v-15.476a1.371 1.371 0 1 1 2.742 0v15.476a1.371 1.371 0 0 1-1.371 1.371z" class="cls-2" data-name="Path 47563"/>
                        </g>
                    </g>
                    <g id="Group_6958" data-name="Group 6958">
                        <g id="Group_6957" data-name="Group 6957">
                            <path id="Path_47564" d="M51.331 297.1H35.855a1.372 1.372 0 0 1 0-2.743h15.476a1.372 1.372 0 0 1 0 2.743z" class="cls-2" data-name="Path 47564"/>
                        </g>
                    </g>
                    <g id="Group_6960" data-name="Group 6960">
                        <g id="Group_6959" data-name="Group 6959">
                            <path id="Path_47565" d="M440.264 199.262a1.191 1.191 0 0 1-1.191-1.191v-13.45a1.191 1.191 0 0 1 2.383 0v13.45a1.192 1.192 0 0 1-1.192 1.191z" class="cls-5" data-name="Path 47565"/>
                        </g>
                    </g>
                    <g id="Group_6962" data-name="Group 6962">
                        <g id="Group_6961" data-name="Group 6961">
                            <path id="Path_47566" d="M446.989 192.538h-13.45a1.191 1.191 0 0 1 0-2.383h13.45a1.191 1.191 0 0 1 0 2.383z" class="cls-5" data-name="Path 47566"/>
                        </g>
                    </g>
                    <g id="Group_6964" data-name="Group 6964">
                        <g id="Group_6963" data-name="Group 6963">
                            <path id="Path_47567" d="M68.2 181.713a2.687 2.687 0 1 1-1.77-3.363 2.687 2.687 0 0 1 1.77 3.363z" class="cls-5" data-name="Path 47567"/>
                        </g>
                    </g>
                    <g id="Group_6966" data-name="Group 6966">
                        <g id="Group_6965" data-name="Group 6965">
                            <path id="Path_47568" d="M377.726 422.445h-21.662a2.288 2.288 0 0 1-2.286-2.286v-14.418a2.289 2.289 0 0 1 2.286-2.287h21.662a2.289 2.289 0 0 1 2.286 2.287v14.418a2.288 2.288 0 0 1-2.286 2.286zM356.064 405.1a.638.638 0 0 0-.638.638v14.418a.646.646 0 0 0 .638.638h21.662a.638.638 0 0 0 .638-.638v-14.415a.638.638 0 0 0-.638-.638z" class="cls-2" data-name="Path 47568"/>
                        </g>
                    </g>
                    <g id="Group_6968" data-name="Group 6968">
                        <g id="Group_6967" data-name="Group 6967">
                            <path id="Path_47569" d="M366.895 414.514a.824.824 0 0 1-.541-.2l-10.831-9.414a.824.824 0 0 1 .541-1.446h21.662a.824.824 0 0 1 .541 1.446l-10.831 9.411a.824.824 0 0 1-.541.203zm-8.626-9.411l8.626 7.495 8.626-7.495z" class="cls-2" data-name="Path 47569"/>
                        </g>
                    </g>
                </g>
            </g>
            <g id="_ÎÓÈ_1" data-name="—ÎÓÈ_1">
                <g id="Group_6991" data-name="Group 6991">
                    <g id="Group_6974" data-name="Group 6974">
                        <g id="Group_6973" data-name="Group 6973">
                            <g id="Group_6972" data-name="Group 6972">
                                <g id="Group_6971" data-name="Group 6971">
                                    <g id="Group_6970" data-name="Group 6970">
                                        <rect id="Rectangle_8237" width="348.067" height="212.747" class="cls-6" data-name="Rectangle 8237" rx="14.732" transform="translate(77.864 140.136)"/>
                                    </g>
                                </g>
                            </g>
                        </g>
                    </g>
                    <g id="Group_6978" data-name="Group 6978">
                        <g id="Group_6977" data-name="Group 6977">
                            <g id="Group_6976" data-name="Group 6976">
                                <g id="Group_6975" data-name="Group 6975">
                                    <path id="Rectangle_8238" d="M0 0h58.592v27.204H0z" class="cls-7" data-name="Rectangle 8238" transform="translate(222.601 347.302)"/>
                                </g>
                            </g>
                        </g>
                    </g>
                    <g id="Group_6983" data-name="Group 6983">
                        <g id="Group_6982" data-name="Group 6982">
                            <g id="Group_6981" data-name="Group 6981">
                                <g id="Group_6980" data-name="Group 6980">
                                    <g id="Group_6979" data-name="Group 6979">
                                        <path id="Rectangle_8239" d="M0 0h270.641v5.58H0z" class="cls-8" data-name="Rectangle 8239" transform="translate(117.943 371.716)"/>
                                    </g>
                                </g>
                            </g>
                        </g>
                    </g>
                    <g id="Group_6987" data-name="Group 6987">
                        <g id="Group_6986" data-name="Group 6986">
                            <g id="Group_6985" data-name="Group 6985">
                                <g id="Group_6984" data-name="Group 6984">
                                    <path id="Path_47570" d="M410.5 320.047H93.294a2.857 2.857 0 0 1-2.978-2.7V150.185a2.857 2.857 0 0 1 2.978-2.7H410.5a2.857 2.857 0 0 1 2.978 2.7v167.164a2.857 2.857 0 0 1-2.978 2.698z" class="cls-9" data-name="Path 47570"/>
                                </g>
                            </g>
                        </g>
                    </g>
                    <g id="Group_6990" data-name="Group 6990">
                        <g id="Group_6989" data-name="Group 6989">
                            <g id="Group_6988" data-name="Group 6988">
                                <path id="Path_47571" d="M77.864 328.065v10.086A14.775 14.775 0 0 0 92.6 352.883h318.6a14.775 14.775 0 0 0 14.732-14.732v-10.086z" class="cls-10" data-name="Path 47571"/>
                            </g>
                        </g>
                    </g>
                </g>
                <g id="Group_6992" data-name="Group 6992">
                    <rect id="Rectangle_8240" width="249" height="50" class="cls-4" data-name="Rectangle 8240" rx="12" transform="translate(128.764 221.509)"/>
                </g>
                <g id="Group_6996" data-name="Group 6996">
                    <g id="Group_6993" data-name="Group 6993">
                        <circle id="Ellipse_2810" cx="33.846" cy="33.846" r="33.846" class="cls-2" data-name="Ellipse 2810" transform="rotate(-27.947 447.554 -453.577)"/>
                    </g>
                    <g id="Group_6994" data-name="Group 6994">
                        <path id="Rectangle_8241" d="M0 0h31.264v21.252H0z" class="cls-11" data-name="Rectangle 8241" transform="rotate(-162.55 175.95 64.378)"/>
                    </g>
                    <g id="Group_6995" data-name="Group 6995">
                        <path id="Path_47572" d="M302.952 194.989l31.24-18.388-46.346-14.565z" class="cls-11" data-name="Path 47572"/>
                    </g>
                </g>
                <g id="Group_7000" data-name="Group 7000">
                    <g id="Group_6997" data-name="Group 6997">
                        <circle id="Ellipse_2811" cx="33.846" cy="33.846" r="33.846" class="cls-2" data-name="Ellipse 2811" transform="rotate(-27.82 304.456 -209.134)"/>
                    </g>
                    <g id="Group_6998" data-name="Group 6998">
                        <path id="Rectangle_8242" d="M0 0h31.264v21.252H0z" class="cls-11" data-name="Rectangle 8242" transform="scale(-1) rotate(-34.28 -300.947 250.522)"/>
                    </g>
                    <g id="Group_6999" data-name="Group 6999">
                        <path id="Path_47573" d="M192.834 153.013l4.914-35.916-40.141 27.363z" class="cls-11" data-name="Path 47573"/>
                    </g>
                </g>
                <g id="Group_7004" data-name="Group 7004">
                    <g id="Group_7001" data-name="Group 7001">
                        <circle id="Ellipse_2812" cx="33.846" cy="33.846" r="33.846" class="cls-2" data-name="Ellipse 2812" transform="rotate(-33.83 197.497 -344.268)"/>
                    </g>
                    <g id="Group_7002" data-name="Group 7002">
                        <path id="Rectangle_8243" d="M0 0h31.264v21.252H0z" class="cls-11" data-name="Rectangle 8243" transform="rotate(-167.16 147.152 17.575)"/>
                    </g>
                    <g id="Group_7003" data-name="Group 7003">
                        <path id="Path_47574" d="M266.53 85.589l29.686-20.8-47.353-10.853z" class="cls-11" data-name="Path 47574"/>
                    </g>
                </g>
                <g id="Group_7005" data-name="Group 7005">
                    <path id="Path_47575" d="M178.749 237.653a35.762 35.762 0 0 1 5.313-.4c3.59 0 6.145.832 7.84 2.412a8.913 8.913 0 0 1 2.728 6.949 10.237 10.237 0 0 1-2.786 7.524c-1.809 1.81-4.795 2.785-8.557 2.785a40.5 40.5 0 0 1-4.538-.229zm2.5 17.115a15.744 15.744 0 0 0 2.527.144c5.341 0 8.242-2.987 8.242-8.213.028-4.567-2.556-7.467-7.84-7.467a14.156 14.156 0 0 0-2.929.259z" class="cls-12" data-name="Path 47575"/>
                    <path id="Path_47576" d="M214.419 246.871c0 6.662-4.049 10.194-8.988 10.194-5.112 0-8.7-3.963-8.7-9.821 0-6.145 3.82-10.166 8.989-10.166 5.28 0 8.699 4.049 8.699 9.793zm-15.019.315c0 4.136 2.24 7.841 6.175 7.841 3.963 0 6.2-3.648 6.2-8.041 0-3.848-2.01-7.869-6.174-7.869-4.133 0-6.201 3.819-6.201 8.069z" class="cls-12" data-name="Path 47576"/>
                    <path id="Path_47577" d="M220.827 256.749l-4.911-19.355h2.643l2.3 9.792a142.495 142.495 0 0 1 1.436 6.691h.057c.316-1.923.919-4.221 1.58-6.719l2.584-9.764h2.613l2.355 9.821c.546 2.3 1.063 4.6 1.35 6.634h.057c.4-2.125.948-4.279 1.551-6.691l2.556-9.764h2.556l-5.485 19.355h-2.613l-2.441-10.079a58.2 58.2 0 0 1-1.264-6.318h-.058a60.335 60.335 0 0 1-1.493 6.318l-2.757 10.079z" class="cls-12" data-name="Path 47577"/>
                    <path id="Path_47578" d="M241.968 256.749v-19.355h2.732l6.2 9.792a54.785 54.785 0 0 1 3.475 6.29l.058-.029c-.23-2.584-.287-4.939-.287-7.954v-8.1h2.354v19.355h-2.527l-6.145-9.821a61.453 61.453 0 0 1-3.619-6.461l-.085.029c.143 2.44.2 4.767.2 7.983v8.27z" class="cls-12" data-name="Path 47578"/>
                    <path id="Path_47579" d="M260.867 237.394h2.5v17.259h8.271v2.1h-10.771z" class="cls-12" data-name="Path 47579"/>
                    <path id="Path_47580" d="M289.845 246.871c0 6.662-4.05 10.194-8.989 10.194-5.111 0-8.7-3.963-8.7-9.821 0-6.145 3.819-10.166 8.989-10.166 5.282 0 8.7 4.049 8.7 9.793zm-15.019.315c0 4.136 2.239 7.841 6.173 7.841 3.964 0 6.2-3.648 6.2-8.041 0-3.848-2.011-7.869-6.175-7.869-4.131 0-6.198 3.819-6.198 8.069z" class="cls-12" data-name="Path 47580"/>
                    <path id="Path_47581" d="M295.822 250.662l-2.011 6.087h-2.584l6.576-19.355h3.016l6.605 19.355h-2.671l-2.068-6.087zm6.346-1.954l-1.895-5.57c-.431-1.264-.718-2.412-1.005-3.533h-.058a55.518 55.518 0 0 1-.976 3.5l-1.9 5.6z" class="cls-12" data-name="Path 47581"/>
                    <path id="Path_47582" d="M310.27 237.653a35.748 35.748 0 0 1 5.312-.4c3.59 0 6.146.832 7.84 2.412a8.913 8.913 0 0 1 2.728 6.949 10.236 10.236 0 0 1-2.785 7.524c-1.809 1.81-4.8 2.785-8.558 2.785a40.489 40.489 0 0 1-4.537-.229zm2.5 17.115a15.759 15.759 0 0 0 2.527.144c5.342 0 8.242-2.987 8.242-8.213.029-4.567-2.556-7.467-7.84-7.467a14.163 14.163 0 0 0-2.929.259z" class="cls-12" data-name="Path 47582"/>
                </g>
            </g>
        </g>
    </g>
</svg>
