<svg width="50" height="51" viewBox="0 0 50 51" fill="none" xmlns="http://www.w3.org/2000/svg">
<g clip-path="url(#clip0_7617_123984)">
<path d="M35.9247 27.5361C35.8595 21.1986 41.0906 18.1657 41.3225 18.0135C38.3845 13.7196 33.8127 13.129 32.1789 13.0637C28.2918 12.6652 24.5858 15.3538 22.6078 15.3538C20.6371 15.3538 17.5868 13.1181 14.359 13.1761C10.1132 13.2413 6.20439 15.6473 4.0163 19.4448C-0.392482 27.0977 2.88603 38.432 7.18251 44.6464C9.28365 47.6829 11.7905 51.0926 15.0763 50.9731C18.2425 50.8462 19.438 48.9221 23.2671 48.9221C27.0963 48.9221 28.1722 50.9731 31.5196 50.9115C34.9285 50.8462 37.084 47.8133 39.167 44.7696C41.5797 41.2439 42.5723 37.8269 42.6339 37.6566C42.5542 37.6131 35.9936 35.102 35.9247 27.5361Z" fill="#1C2129"/>
<path d="M29.6286 8.95109C31.3711 6.83858 32.552 3.89628 32.2296 0.964844C29.7119 1.0663 26.6725 2.63529 24.8648 4.75143C23.2454 6.62479 21.8362 9.6142 22.213 12.4877C25.0169 12.7087 27.8861 11.06 29.6286 8.95109Z" fill="#1C2129"/>
</g>
<defs>
<clipPath id="clip0_7617_123984">
<rect width="50" height="50.0119" fill="white" transform="translate(0 0.964844)"/>
</clipPath>
</defs>
</svg>
