<svg xmlns="http://www.w3.org/2000/svg" width="436.891" height="436.891" viewBox="0 0 436.891 436.891"><g transform="translate(-181.609 -3207)"><g transform="translate(-434.76 3120.945)"><circle cx="152.003" cy="152.003" r="152.003" transform="translate(682.811 152.497)" fill="#d5d7db" opacity="0.204"/><circle cx="218.445" cy="218.445" r="218.445" transform="translate(616.369 86.055)" fill="#d5d7db" opacity="0.152"/></g><g transform="translate(378.51 3146.608)"><g transform="translate(35.077 93.391)"><g transform="translate(48.702 13.317)"><g transform="translate(33.007 29.056)"><path d="M-6.713,141.955a5.368,5.368,0,0,0-1.442-6.771L-39.892,110.5a5.372,5.372,0,0,0-5.5-.649,5.841,5.841,0,0,0-1.354.848,6.821,6.821,0,0,0-.639.681l40.21,31.282A5.01,5.01,0,0,0-6.713,141.955Z" transform="translate(48.568 -109.38)" fill="#e0e0e0"/><path d="M-46.651,110.136c-.016.032-.04.042-.061.061-.156.215-.3.411-.432.633a5.428,5.428,0,0,0,1.4,6.919l31.732,24.665a5.329,5.329,0,0,0,5.48.668,5.438,5.438,0,0,0,1.4-.9,8.264,8.264,0,0,0,.652-.7.265.265,0,0,1,.037-.061Z" transform="translate(47.833 -108.133)" fill="#ccc"/></g><g transform="translate(33.555 30.317)"><path d="M-6.439,141.17l-39.794-31.107a1.064,1.064,0,0,0-.241-.146.942.942,0,0,0-.7.016.954.954,0,0,0-.368.3l-.005.021L-6.9,141.88A5.01,5.01,0,0,0-6.439,141.17Z" transform="translate(47.746 -109.856)" fill="#ccc"/><path d="M-47.433,110.008a.894.894,0,0,0-.053,1.034.645.645,0,0,0,.225.241L-7.472,142.39a8.264,8.264,0,0,0,.652-.7.265.265,0,0,1,.037-.061Z" transform="translate(47.626 -109.605)" fill="#e0e0e0"/></g><path d="M-44.621,109.121a57.125,57.125,0,0,0-5.592,9.066,3.221,3.221,0,0,1-4.147,1.537,3.137,3.137,0,0,1-1.3-4.357,61.628,61.628,0,0,1,6.18-10.023l-4.259-3.321c-1.32,1.7-2.632,3.387-4.389,5.645-3.056,3.93-2.907,10.248.647,13.783A91.182,91.182,0,0,0-36.708,137.6c4.3,2.571,10.457,1.155,13.51-2.777,1.76-2.255,3.066-3.941,4.378-5.631Z" transform="translate(60.288 -92.463)" fill="#ccc"/><path d="M-45.487,102.977a3.152,3.152,0,0,1,4.548.178,3.225,3.225,0,0,1-.461,4.4,58.036,58.036,0,0,0-7.3,7.516l25.8,20.067c1.28-1.646,2.568-3.3,4.28-5.5,3.056-3.933,2.9-10.251-.647-13.786A90.87,90.87,0,0,0-40.038,99.717c-4.293-2.576-10.452-1.158-13.51,2.772-1.707,2.189-2.995,3.845-4.267,5.488l4.259,3.321A62.9,62.9,0,0,1-45.487,102.977Z" transform="translate(64.368 -98.416)" fill="#e0e0e0"/><path d="M-15.186,115.856A91.115,91.115,0,0,0-35.958,99.717c-4.293-2.576-10.452-1.158-13.51,2.772-1.707,2.189-2.995,3.845-4.267,5.488-1.32,1.7-2.632,3.387-4.389,5.645-3.056,3.93-2.907,10.248.647,13.783A91.182,91.182,0,0,0-36.708,143.55c4.3,2.571,10.457,1.155,13.51-2.777,1.76-2.255,3.066-3.941,4.378-5.631,1.28-1.646,2.568-3.3,4.28-5.5C-11.484,125.709-11.635,119.391-15.186,115.856Zm-1,12.5-4.275,5.5-4.381,5.637a8.353,8.353,0,0,1-3.2,2.451,8.352,8.352,0,0,1-7.587-.2A88.448,88.448,0,0,1-56,125.919c-2.716-2.7-2.934-7.839-.466-11.011l4.383-5.645,4.267-5.5a8.409,8.409,0,0,1,3.209-2.457,8.377,8.377,0,0,1,7.587.2A88.528,88.528,0,0,1-16.652,117.34C-13.941,120.035-13.721,125.182-16.188,128.354Z" transform="translate(60.288 -98.416)" fill="#26252e"/><path d="M-37.24,107.072a9.745,9.745,0,0,0-13.606,1.651.79.79,0,0,0-.061.072,9.733,9.733,0,0,0,1.712,13.659,9.734,9.734,0,0,0,13.664-1.709c.016-.021.024-.05.042-.072A9.742,9.742,0,0,0-37.24,107.072Z" transform="translate(72.385 -87.502)" fill="#1c1c1f"/></g><path d="M-40.569,108.243l-12.405-.562-12.432-.554a10.7,10.7,0,0,0-11.168,10.211l-2.08,46.515a10.7,10.7,0,0,0,10.211,11.162l12.437.557,12.408.554a10.7,10.7,0,0,0,11.165-10.208l2.075-46.512A10.689,10.689,0,0,0-40.569,108.243Zm2.732,14.374a5.751,5.751,0,0,1-7.6-2.915,5.754,5.754,0,0,1,2.912-7.6,5.754,5.754,0,0,1,7.606,2.91A5.752,5.752,0,0,1-37.837,122.617Z" transform="translate(78.665 -70.742)" fill="#26252e"/><path d="M-40.57,108.243l-12.405-.562-12.432-.554a10.7,10.7,0,0,0-11.168,10.211l-2.08,46.515a10.7,10.7,0,0,0,10.211,11.162l12.437.557,12.408.554a10.7,10.7,0,0,0,11.165-10.208l2.075-46.512A10.689,10.689,0,0,0-40.57,108.243Zm8.125,11.067-2.075,46.512a8.583,8.583,0,0,1-5.107,7.487,8.532,8.532,0,0,1-3.88.731l-12.405-.559-12.442-.546a8.629,8.629,0,0,1-8.218-8.994l2.083-46.509a8.576,8.576,0,0,1,5.1-7.489,8.446,8.446,0,0,1,3.88-.726l12.445.554,12.395.557a8.507,8.507,0,0,1,5.971,2.785A8.553,8.553,0,0,1-32.445,119.31Z" transform="translate(78.665 -70.742)" fill="#1c1c1f"/><g transform="translate(12.182 74.623)"><path d="M-62.235,121.564a.03.03,0,0,1-.029,0,11.3,11.3,0,0,0-11.793,10.794,11.306,11.306,0,0,0,10.789,11.8l.016,0a11.309,11.309,0,0,0,11.79-10.786A11.321,11.321,0,0,0-62.235,121.564Z" transform="translate(74.068 -121.55)" fill="#e0e0e0"/><path d="M-65.68,123.5H-65.7a6.154,6.154,0,0,0-6.419,5.865,6.148,6.148,0,0,0,5.873,6.416h.016a6.145,6.145,0,0,0,6.395-5.862A6.144,6.144,0,0,0-65.68,123.5Z" transform="translate(77.278 -118.335)" fill="#ff4140"/></g><path d="M-58.892,95.437a23.615,23.615,0,0,0-11.949,31.181,21.474,21.474,0,0,0,1.89,3.432A23.509,23.509,0,0,0-55.463,139.8a23.794,23.794,0,0,0,11.5.2,5.767,5.767,0,0,0-.5-2.343,4.756,4.756,0,0,0-.474-.861,20,20,0,0,1-9.432-.186,20.182,20.182,0,0,1-10.269-6.366,20.278,20.278,0,0,1-3.162-4.99A20.287,20.287,0,0,1-57.535,98.482a20.289,20.289,0,0,1,26.769,10.269,20.343,20.343,0,0,1,1.132,3.262c.315-.39.628-.8.962-1.23a9.3,9.3,0,0,1,1.648-1.643c-.2-.6-.437-1.174-.694-1.749A23.628,23.628,0,0,0-58.892,95.437ZM-35.208,131.6a18.364,18.364,0,0,1-2.846,2.271,19.8,19.8,0,0,1-2.968,1.646c-.193.087-.384.172-.583.244a9.827,9.827,0,0,1,1.357,3.042,4.9,4.9,0,0,0,.586-.233,21.759,21.759,0,0,0,3.747-2.109,20.055,20.055,0,0,0,2.87-2.327,23.608,23.608,0,0,0,7.359-18,48.327,48.327,0,0,0-3.625,4.288A20.131,20.131,0,0,1-35.208,131.6Z" transform="translate(88.19 -93.391)" fill="#ccc"/></g><g transform="translate(-147.595 343.546)"><g transform="translate(9.846)"><g transform="translate(58.011)"><path d="M23.6,196.985c-6.572,3.893-16.852,15.1-16.852,15.1l-18.2,10.82-26.011,4L-56.516,223.7-87.61,262.5c16.661-3.806,81.295-12.32,81.295-12.32l28.886-25S37.3,209.294,38.633,202.059C39.277,198.408,34.255,190.667,23.6,196.985Z" transform="translate(178.721 -176.567)" fill="#d4a47d"/><path d="M74.977,199.042c.652-3.662-4.394-11.385-15.031-5.056-6.567,3.885-16.844,15.1-16.844,15.1L30.323,214.28s12.76-13.775,13.892-20.029c.57-3.154-3.808-9.856-13.025-4.389-5.679,3.384-14.591,13.1-14.591,13.1L.838,212.34l-22.529,3.466L-26.2,215.2c-16.023,3.665-39.37-3.374-51.4-5.973-7.325-1.585-15.511-3.408-23.438-4.015l-18.159,53.6,98.966-.183c15.469-3.676,50.288-11.435,50.288-11.435l28.881-25.038S73.649,206.261,74.977,199.042Z" transform="translate(126.595 -187.785)" fill="#d4a47d"/><path d="M-63.659,209.573c3.832,2.184,7.937,4.026,11.724,6.252l4.521-2.92s12.731-10.407,14.462-15.712c.89-2.669-2.1-9.026-10.757-5.385-5.356,2.242-48.089,19.966-48.089,19.966C-89.371,213.013-65.167,208.728-63.659,209.573Z" transform="translate(171.81 -182.962)" fill="#d4a47d"/><path d="M9.463,204.737C3.341,201.114-2.3,202.7-9.119,203.682c-9.827,1.439-19.34,2.886-29.286,2.292-17.939-1.055-38.551-13.587-56.744-13.929a70.193,70.193,0,0,0-26.84,4.834l.05,19.764c12.747-5.231,27.437-5.048,40.92-3.837,16.749,1.489,32.469,8.136,49.424,8.282,7.561.072,15.206-1.3,22.643-2.475,7.1-1.1,13.611-.829,19.287-5.488C12.985,210.957,12.248,206.417,9.463,204.737Z" transform="translate(121.99 -180.773)" fill="#d4a47d"/></g><path d="M71.407,221.136c2.682,5.756-.223,14.353-10.261,19.274-7.3,3.58-20.032,9.358-20.032,9.358v-.016L5.242,267.03c-6.464-1.065-100.293-11.35-100.293-11.35l-27.58,11.658-21.249-57.025c1.362.2,58.114-21.826,80.955-18.037,24.209,4.018,74.606,36.911,74.606,36.911s20.949-6.97,27.211-9.75C59.956,210.074,68.37,214.63,71.407,221.136Z" transform="translate(143.88 -181.099)" fill="#ffc89f"/><path d="M-51.9,206.675c-2.144-4.6-6.093-7.7-20.106-2.033.678.588,8.957,16.367,9.837,17.639.941-.453,1.831-.88,2.637-1.272C-52.071,217.35-49.917,210.961-51.9,206.675Z" transform="translate(262.476 -165.022)" fill="#f0b990"/></g><rect width="33.802" height="79.301" transform="translate(0 22.085) rotate(-19.48)" fill="#cc2221"/></g><g transform="translate(-133.114 224.04)"><path d="M172.468,213.489a19.22,19.22,0,0,1-.066,2,26.4,26.4,0,0,1-.92,5.067q-.421,1.431-.973,2.793a40.8,40.8,0,0,1-10.865,14.671c-.451.368-.7.562-.7.562l-265.771.647-.146-.04-7.206-2.022-20.424-5.711-7.243-17.721-.034-2.867-.246-22.637,9.32-5.192s39.46-6.2,40.054-6.456,38.445-20.255,48.19-24.609C-13.068,137.914,26.575,144,26.575,144c8.239.17,25.526,4.407,32.763,8.358,14.841,8.1,29.562,26.08,37.3,27.042,9.167,1.155,68.487,10.812,74.656,25.2C172.317,206.994,172.439,210.095,172.468,213.489Z" transform="translate(142.131 -142.69)" fill="#ffca00"/><path d="M18.139,176.061A88.2,88.2,0,0,0,7.787,170.78c-2.268-1.065-4.492-2.194-6.827-3.14A69.7,69.7,0,0,0-7.143,165c-2.8-.753-5.661-1.232-8.5-1.836-2.928-.628-5.843-1.367-8.751-2.062-4.712-1.11-9.461-1.786-14.218-2.626-2.332-.411-4.646-.811-7-1.047a20.952,20.952,0,0,0-7.126.066.314.314,0,0,0,0,.62c1.386.252,2.759.3,4.147.435,1.519.154,3.032.39,4.532.66,2.886.506,5.79,1.039,8.69,1.5,2.912.48,5.788.925,8.666,1.558,2.918.649,5.825,1.359,8.74,2.011,2.862.636,5.767,1.126,8.613,1.844a62.35,62.35,0,0,1,8.26,2.862c4.142,1.717,8.107,3.906,12.111,5.915a42.834,42.834,0,0,1,7.118,4.293,14.305,14.305,0,0,1,2.706,2.693,24.71,24.71,0,0,1,1.715,2.926.977.977,0,0,0,1.844-.268C24.915,180.842,20.871,177.839,18.139,176.061Z" transform="translate(289.202 -118.833)" fill="#f7d754"/><path d="M47.193,161.216c-10.8,2.189-157.122.252-161.3-2,0,0,26.1-.533,32.239-.981,33.023-2.443,122.048.2,122.048.2Z" transform="translate(188.375 -118.754)" fill="#f7d754"/><path d="M-57.273,200.8l-7.4.019c-.527-6.657-3.164-11-7.338-15.7-5.5-6.225-13.627-11.87-22.558-11.849-6.694.016-13.089,5.176-18.074,8.907-6.718,5.041-11.051,9.9-11.727,18.75l-7.219-2.022a37.4,37.4,0,0,1,37-33.01A37.37,37.37,0,0,1-57.273,200.8Z" transform="translate(159.525 -104.415)" fill="#fdab13"/><path d="M14.058,200.623l-7.4.016C6.063,193.1,2.7,188.1-2.452,183.156c-5.4-5.16-12.752-10.089-20.787-10.068-10.373.024-19.741,7.28-25.1,15.32-2.777,4.155-4.3,7.121-4.7,12.376l-7.4.016a37.386,37.386,0,0,1,37.178-35.087A37.37,37.37,0,0,1,14.058,200.623Z" transform="translate(276.936 -104.701)" fill="#fdab13"/><path d="M-136.637,182.682l1.855,4.548,27.776,7.765,265.771-.647a41.663,41.663,0,0,0,10.245-12.41l-288.711.7L-142.025,169.5Z" transform="translate(142.306 -98.452)" fill="#fdab13"/><path d="M-15.613,182.018a38.978,38.978,0,0,0,12.8-2.443,2.083,2.083,0,0,0,1.336-2.263c-.3-2.83-9.646-14.623-23.183-16.277l-16.417.021.7,2.388C-40.309,163.631-34.635,182.06-15.613,182.018Z" transform="translate(308.884 -112.422)" fill="#fdab13"/><path d="M-4.99,176.658c1.277-.456-7.744-13.251-21.442-14.925l-13.7.032S-32.8,186.572-4.99,176.658Z" transform="translate(310.439 -111.268)" fill="#e0e0e0"/><g transform="translate(226.022 66.18)"><path d="M-6.992,197.453c.066-.7.114-1.4.114-2.112a22.269,22.269,0,0,0-22.285-22.192,22.274,22.274,0,0,0-22.195,22.3c0,.708.04,1.407.109,2.107l-5.5.013c-.053-.7-.093-1.4-.093-2.107a27.765,27.765,0,0,1,27.667-27.8A27.755,27.755,0,0,1-1.405,195.33c0,.708-.019,1.407-.072,2.11Z" transform="translate(56.843 -167.663)" fill="#26252e"/><g transform="translate(4.267 4.251)"><path d="M-22.883,192.681A23.463,23.463,0,0,1-46.289,216.19l-.114-46.923A23.479,23.479,0,0,1-22.883,192.681Z" transform="translate(69.804 -169.267)" fill="#1c1c1f"/><path d="M-31.833,169.267h0l.114,46.923h0a23.458,23.458,0,0,1-23.514-23.4A23.474,23.474,0,0,1-31.833,169.267Z" transform="translate(55.233 -169.267)" fill="#1c1c1f"/></g><path d="M-35.522,171.512a17.513,17.513,0,0,1,17.565,17.47,17.525,17.525,0,0,1-17.48,17.568,17.514,17.514,0,0,1-17.552-17.48A17.5,17.5,0,0,1-35.522,171.512Z" transform="translate(63.203 -161.312)" fill="#e0e0e0"/><g transform="translate(11.999 14.605)"><g transform="translate(18.777)"><path d="M-45.23,183.319a52.124,52.124,0,0,0,5.658-10.145,12.819,12.819,0,0,1,7,12.055,52.374,52.374,0,0,0-11.623-.125Z" transform="translate(45.23 -173.174)" fill="#26252e"/></g><g transform="translate(18.793 14.088)"><path d="M-44.2,178.673a51.94,51.94,0,0,0,11.623-.183A12.848,12.848,0,0,1-39.518,190.6a51.821,51.821,0,0,0-5.706-10.131Z" transform="translate(45.224 -178.49)" fill="#26252e"/></g><g transform="translate(0.008 14.165)"><path d="M-39.644,180.432A51.44,51.44,0,0,0-45.3,190.588a12.829,12.829,0,0,1-7-12.069,51.808,51.808,0,0,0,11.615.127Z" transform="translate(52.312 -178.519)" fill="#26252e"/></g><g transform="translate(0 0.04)"><path d="M-40.689,185.1a52.344,52.344,0,0,0-11.613.183,12.807,12.807,0,0,1,6.941-12.092,52.66,52.66,0,0,0,5.706,10.121Z" transform="translate(52.315 -173.189)" fill="#1c1c1f"/></g></g><g transform="translate(20.724 11.541)"><path d="M-39.421,174.053a52.82,52.82,0,0,0-5.912,10.009l-1.036,0-.026-12.047A12.96,12.96,0,0,1-39.421,174.053Z" transform="translate(53.358 -172.018)" fill="#26252e"/><path d="M-49.023,174.088a12.975,12.975,0,0,1,6.962-2.07l.026,12.047H-43.06A52.39,52.39,0,0,0-49.023,174.088Z" transform="translate(49.023 -172.018)" fill="#1c1c1f"/><path d="M-45.344,179.678a52.628,52.628,0,0,0,5.963,9.975,12.917,12.917,0,0,1-6.967,2.072l-.029-12.045Z" transform="translate(53.388 -159.378)" fill="#26252e"/><path d="M-42.058,179.679l.029,12.045A12.868,12.868,0,0,1-49,189.683a51.789,51.789,0,0,0,5.912-10Z" transform="translate(49.068 -159.377)" fill="#1c1c1f"/></g></g><g transform="translate(37.287 66.638)"><path d="M-78.218,197.626a20.7,20.7,0,0,0,.1-2.109,22.259,22.259,0,0,0-22.269-22.195,22.274,22.274,0,0,0-22.2,22.3c0,.708.04,1.407.109,2.109l-5.515.011c-.048-.7-.072-1.4-.072-2.109a27.758,27.758,0,0,1,27.659-27.8A27.757,27.757,0,0,1-72.631,195.5c0,.708-.021,1.407-.072,2.109Z" transform="translate(128.061 -167.836)" fill="#26252e"/><g transform="translate(4.267 4.251)"><path d="M-94.1,192.854a23.463,23.463,0,0,1-23.406,23.509l-.114-46.923A23.48,23.48,0,0,1-94.1,192.854Z" transform="translate(141.017 -169.44)" fill="#1c1c1f"/><path d="M-103.058,169.44h0l.114,46.923h0a23.453,23.453,0,0,1-23.506-23.4A23.469,23.469,0,0,1-103.058,169.44Z" transform="translate(126.451 -169.44)" fill="#1c1c1f"/></g><path d="M-106.735,171.685a17.52,17.52,0,0,1,17.568,17.469,17.529,17.529,0,0,1-17.483,17.568,17.531,17.531,0,0,1-17.565-17.483A17.519,17.519,0,0,1-106.735,171.685Z" transform="translate(134.407 -161.485)" fill="#e0e0e0"/><g transform="translate(11.983 14.605)"><g transform="translate(18.78)"><path d="M-116.453,183.492a51.432,51.432,0,0,0,5.658-10.145,12.8,12.8,0,0,1,7,12.058,52.43,52.43,0,0,0-11.618-.13Z" transform="translate(116.453 -173.347)" fill="#26252e"/></g><g transform="translate(18.796 14.091)"><path d="M-115.411,178.844a51.9,51.9,0,0,0,11.618-.18,12.841,12.841,0,0,1-6.949,12.1,51.137,51.137,0,0,0-5.706-10.131Z" transform="translate(116.447 -178.664)" fill="#26252e"/></g><g transform="translate(0.006 14.165)"><path d="M-110.859,180.6a52.581,52.581,0,0,0-5.658,10.16,12.86,12.86,0,0,1-7.01-12.071,52.054,52.054,0,0,0,11.623.127Z" transform="translate(123.537 -178.692)" fill="#26252e"/></g><g transform="translate(0 0.042)"><path d="M-111.907,185.27a52.24,52.24,0,0,0-11.618.183,12.808,12.808,0,0,1,6.949-12.09,53.018,53.018,0,0,0,5.706,10.118Z" transform="translate(123.539 -173.363)" fill="#26252e"/></g></g><g transform="translate(20.716 11.541)"><path d="M-110.632,174.226a52.6,52.6,0,0,0-5.923,10.009l-1.034,0-.029-12.047A13.014,13.014,0,0,1-110.632,174.226Z" transform="translate(124.577 -172.191)" fill="#26252e"/><path d="M-120.244,174.261a12.973,12.973,0,0,1,6.959-2.07l.029,12.047-1.026,0A52.337,52.337,0,0,0-120.244,174.261Z" transform="translate(120.244 -172.191)" fill="#26252e"/><path d="M-116.565,179.851a52.26,52.26,0,0,0,5.968,9.975,12.952,12.952,0,0,1-6.97,2.072l-.032-12.045Z" transform="translate(124.609 -159.551)" fill="#26252e"/><path d="M-113.277,179.852l.032,12.045a12.935,12.935,0,0,1-6.972-2.038,52.638,52.638,0,0,0,5.915-10Z" transform="translate(120.287 -159.549)" fill="#26252e"/></g></g><path d="M-77.262,180.638l-.231-.037c-9.774-1.108-27.474-4.245-36.238-12.834l-.631-.615.162-.869c.172-.888.766-1.153,1.67-1.556.461-.2,1.137-.5,1.964-.856,1.675-.721,4.015-1.7,6.713-2.844,6.5-2.751,15.4-6.519,21.861-9.395,4.7-2.1,13.993-5.6,18.887-6.146,8.777-.943,19.677-1.518,29.151-1.542,11.271-.026,20.122.676,26.321,2.117,16.5,3.824,23.991,10.163,27.59,13.213.395.334.745.636,1.063.882,1.137.928,13.982,13.7,13.982,13.7l5.61,6.588-8.324-.069Z" transform="translate(187.954 -140.622)" fill="#fdab13"/><path d="M-9.135,146.646c-14.287-3.31-41.111-2.019-54.921-.535-4.749.511-14.035,4.071-18.384,6-11.819,5.268-31.38,13.319-31.239,13.444,9.768,9.585,31.947,12,35.392,12.384l114.023-.281L32.7,173.992S19.833,161.206,18.85,160.424C15.569,157.771,8.758,150.793-9.135,146.646Z" transform="translate(189.078 -139.59)" fill="#1c1c1f"/><path d="M-79.949,175.386-80,175.38c-13.386-1.532-24.426-4.844-31.1-9.328l-1.521-1.028,1.685-.721c1.577-.67,3.5-1.489,5.483-2.316,6.509-2.745,15.4-6.506,21.911-9.416,4.72-2.094,13.669-5.422,17.9-5.873,8.687-.933,19.457-1.511,28.823-1.532,10.868-.026,19.711.676,25.576,2.035,15.752,3.652,22.566,9.421,26.231,12.524.419.352.79.67,1.126.938,1.047.867,9,8.735,13.028,12.755l1.7,1.7Z" transform="translate(190.824 -138.606)" fill="#26252e"/><path d="M-81.184,173.767c-13.309-1.511-24.153-4.778-30.654-9.161,1.577-.678,3.506-1.484,5.478-2.327,6.511-2.751,15.434-6.517,21.922-9.411,4.667-2.075,13.489-5.356,17.618-5.806,8.65-.933,19.378-1.5,28.711-1.521,10.789-.029,19.568.668,25.356,2.011,15.516,3.6,22.205,9.273,25.815,12.32.416.355.8.671,1.132.954.93.742,8.186,7.913,12.954,12.678Z" transform="translate(192.118 -137.989)" fill="#26252e"/><rect width="3.608" height="31.66" transform="matrix(1, -0.002, 0.002, 1, 141.094, 5.72)" fill="#1c1c1f"/><path d="M-12.128,172.074q-.421,1.431-.973,2.793c-.217.533-.44,1.055-.694,1.566a36.424,36.424,0,0,1-4.174,6.758,43.743,43.743,0,0,1-6,6.347,8.835,8.835,0,0,1-6.893-8.594A8.8,8.8,0,0,1-28.3,174.7a8.81,8.81,0,0,1,6.238-2.6Z" transform="translate(325.742 -94.205)" fill="#fdab13"/><path d="M-130.073,169.26l.008,4.762a9.224,9.224,0,0,1-9.2,9.246h-.413a9.04,9.04,0,0,1-2.2-.257l-.252-22.635a8.713,8.713,0,0,1,2.393-.326h.416A9.23,9.23,0,0,1-130.073,169.26Z" transform="translate(142.131 -114.044)" fill="#fdab13"/><path d="M-132.778,168.174l.008,3.686a7.152,7.152,0,0,1-7.139,7.171l-.329,0a6.951,6.951,0,0,1-1.7-.2l-.191-17.538a6.659,6.659,0,0,1,1.847-.254h.331A7.152,7.152,0,0,1-132.778,168.174Z" transform="translate(142.136 -112.417)" fill="#e0e0e0"/><path d="M-14.43,174.5a36.424,36.424,0,0,1-4.174,6.758l-11.87-2.348,5.618-5.658Z" transform="translate(326.377 -92.267)" fill="#e0e0e0"/><path d="M-29.5,166.158a3.764,3.764,0,0,1-3.758,3.776,3.766,3.766,0,0,1-3.776-3.758,3.77,3.77,0,0,1,3.761-3.784A3.763,3.763,0,0,1-29.5,166.158Z" transform="translate(315.556 -110.181)" fill="#fff"/><path d="M-37.835,162.859l13.688-.034a26.515,26.515,0,0,1,7.163,1.958,27.132,27.132,0,0,0-9.448-3.05l-13.7.032s3.315,11.213,13.94,15.553C-35.013,172.439-37.835,162.859-37.835,162.859Z" transform="translate(310.439 -111.268)" fill="#ccc"/><path d="M-134.164,165.349a3.77,3.77,0,0,1-3.763,3.782,3.774,3.774,0,0,1-3.779-3.763,3.771,3.771,0,0,1,3.76-3.784A3.774,3.774,0,0,1-134.164,165.349Z" transform="translate(142.832 -111.516)" fill="#fff"/><path d="M-96.011,162.549a2.212,2.212,0,0,1-2.208,2.226l-8.467.021a2.213,2.213,0,0,1-2.218-2.213h0a2.214,2.214,0,0,1,2.21-2.213l8.467-.021a2.208,2.208,0,0,1,2.215,2.2Z" transform="translate(196.959 -113.552)" fill="#fdab13"/><path d="M-73.649,162.5a2.217,2.217,0,0,1-2.21,2.223l-8.47.019a2.212,2.212,0,0,1-2.213-2.213h0a2.215,2.215,0,0,1,2.2-2.213l8.472-.021a2.22,2.22,0,0,1,2.218,2.2Z" transform="translate(233.859 -113.643)" fill="#fdab13"/><path d="M-96.427,162.229a2.2,2.2,0,0,1-2.2,2.21l-8.475.021a2.209,2.209,0,0,1-2.226-2.2h0a2.221,2.221,0,0,1,2.215-2.221l8.472-.021a2.213,2.213,0,0,1,2.213,2.213Z" transform="translate(196.259 -114.101)" fill="#e0e0e0"/><path d="M-74.073,162.172a2.2,2.2,0,0,1-2.208,2.213l-8.47.021a2.2,2.2,0,0,1-2.215-2.2h0a2.211,2.211,0,0,1,2.2-2.221l8.472-.021a2.212,2.212,0,0,1,2.218,2.21Z" transform="translate(233.159 -114.191)" fill="#e0e0e0"/><g transform="translate(78.48 34.328)"><path d="M-46.063,209.722l-36.786-1.648-.09-.6a36.751,36.751,0,0,0-28.674-30.132l-.9-.183,9.379-21.516,1.373.6-8.647,19.844a38.248,38.248,0,0,1,28.854,30.55l33.948,1.518-1.336-47.389,1.495-.045Z" transform="translate(112.517 -155.644)" fill="#fdab13"/></g><g transform="translate(205.554 39.68)"><path d="M-63.479,202.359l-1.088-1.036,22.8-23.737-1.295-19.833,1.5-.09,1.332,20.485Z" transform="translate(64.567 -157.664)" fill="#fdab13"/></g><path d="M-51.056,165.931a3.217,3.217,0,0,1-3.215-3.209,3.22,3.22,0,0,1,3.2-3.225l7.171-.019a3.227,3.227,0,0,1,3.228,3.212,3.219,3.219,0,0,1-3.212,3.223Z" transform="translate(287.109 -114.989)" fill="#fdab13"/><path d="M-42.191,162.112a2.273,2.273,0,0,1-2.274,2.279l-7.171.019a2.278,2.278,0,0,1-2.284-2.269h0a2.284,2.284,0,0,1,2.271-2.292l7.171-.019a2.288,2.288,0,0,1,2.287,2.282Z" transform="translate(287.689 -114.408)" fill="#ffca00"/><path d="M-17.63,173.5c-4.768-4.765-12.024-11.936-12.954-12.678-.334-.284-.716-.6-1.132-.954-3.609-3.048-10.3-8.724-25.815-12.32-5.788-1.344-14.568-2.041-25.356-2.011-.6,0-1.2,0-1.815.016L-44,173.571Z" transform="translate(236.895 -137.989)" fill="#242130" opacity="0.2"/><path d="M-69.6,145.666c-5.51.27-10.974.676-15.8,1.187-3.49.384-10.327,2.785-15.182,4.773L-69.531,173Z" transform="translate(210.695 -137.781)" fill="#242130" opacity="0.2"/><path d="M-102.589,162.844c-1.784-.628-3.906-.064-5.647.49a34.589,34.589,0,0,0-6.09,2.7,41.689,41.689,0,0,0-9.57,7.391,57.323,57.323,0,0,0-6.35,7.672,22.387,22.387,0,0,0-2.332,4.3,5.455,5.455,0,0,0-.466,3.652c.122.39.673.249.737-.1a14.648,14.648,0,0,1,.959-3.522,23.264,23.264,0,0,1,2.417-3.978,52.165,52.165,0,0,1,6.18-6.911,43.4,43.4,0,0,1,8.9-6.6,35.952,35.952,0,0,1,5.536-2.449c1.847-.636,4.028-.893,5.743-1.887A.415.415,0,0,0-102.589,162.844Z" transform="translate(156.858 -109.891)" fill="#f7d754"/><path d="M-16.753,183.313a19.9,19.9,0,0,0-2.327-3.89,33.417,33.417,0,0,0-6.964-6.689,50.758,50.758,0,0,0-8.6-4.966c-2.552-1.193-5.327-2.48-8.149-2.759a.188.188,0,0,0-.09.36c2.388,1.222,4.932,2.112,7.328,3.321a59.387,59.387,0,0,1,8.117,5.035,33.293,33.293,0,0,1,6.768,6.344,18.9,18.9,0,0,1,2.194,3.5c.57,1.2.753,2.626,1.593,3.657a.449.449,0,0,0,.761-.111C-15.664,185.836-16.241,184.5-16.753,183.313Z" transform="translate(305.721 -105.865)" fill="#f7d754"/></g></g></g></svg>