<svg xmlns="http://www.w3.org/2000/svg" width="52" height="52" viewBox="0 0 52 52">
    <defs>
        <style>
            .cls-1{fill:#fff;stroke:#707070}.cls-2{clip-path:url(#clip-path)}.cls-3{fill:#ffffff}.cls-4{fill:#87AB49}
        </style>
        <clipPath id="clip-path">
            <path id="Rectangle_9785" d="M0 0h52v52H0z" class="cls-1" data-name="Rectangle 9785" transform="translate(241 2281)"/>
        </clipPath>
    </defs>
    <g id="Mask_Group_39" class="cls-2" data-name="Mask Group 39" transform="translate(-241 -2281)">
        <g id="_007-good" data-name="007-good" transform="translate(241.351 2281)">
            <path id="Path_50149" d="M32.059 43.276l-6.237 4.13-9 5.963A25.917 25.917 0 0 1 1.073 33l10.45-6.92 6.361-4.212a1.591 1.591 0 0 1 2.206.45L32.51 41.07a1.593 1.593 0 0 1-.451 2.206zm0 0" class="cls-3" data-name="Path 50149" transform="translate(1 -2)"/>
            <path id="Path_50150" d="M30.777 43.276l-6.237 4.13-14.3-21.326 6.36-4.213a1.591 1.591 0 0 1 2.206.45l12.42 18.752a1.593 1.593 0 0 1-.449 2.207zm0 0" class="cls-3" data-name="Path 50150" transform="translate(2.282 -2)"/>
            <path id="Path_50154" d="M50.622 22.277a3.725 3.725 0 0 0-2.307-1.588 3.746 3.746 0 0 0-2.5-5.4 3.755 3.755 0 0 0-.194-3.816 3.721 3.721 0 0 0-2.307-1.588 3.75 3.75 0 0 0-5.39-4.87l-3.731 2.473a23.329 23.329 0 0 0-6.3-2.133 17.333 17.333 0 0 0-2.405-2.91L23.94.948a3.379 3.379 0 0 0-5.17 4.292q.061.092.119.185A23.522 23.522 0 1 0 45.7 36.469a.808.808 0 1 0-1.521-.549 21.933 21.933 0 0 1-27.524 13.349l6.579-4.356L28.7 41.29a2.205 2.205 0 0 0 .621-3.056l-.072-.109 1.062-.7a3.6 3.6 0 0 1 2.566-.555 5.213 5.213 0 0 0 3.715-.8l8.809-5.833a21.951 21.951 0 0 1-.3 2.271.808.808 0 0 0 .647.943.789.789 0 0 0 .148.014.809.809 0 0 0 .804-.665 23.647 23.647 0 0 0 .386-3.677l2.482-1.644a3.751 3.751 0 0 0 1.056-5.2zm-18-13.749l-2.47 1.636-.486-1.31a17.3 17.3 0 0 0-.694-1.607 21.7 21.7 0 0 1 3.651 1.28zm-25.6 5.605a21.906 21.906 0 0 1 12.641-7.209 9.989 9.989 0 0 1 .5 6.05L18.2 21.49a2.2 2.2 0 0 0-2.822-.329l-5.584 3.7-8.059 5.332a22.21 22.21 0 0 1-.067-1.713 21.9 21.9 0 0 1 5.351-14.347zm21.04 25.435a.586.586 0 0 1-.252.374l-4.8 3.18L14.1 29.83a.808.808 0 0 0-1.343.9l8.903 13.285-6.86 4.539A21.972 21.972 0 0 1 1.946 31.961l8.063-5.322.928 1.385a.809.809 0 1 0 1.343-.9l-.922-1.375 4.908-3.239a.588.588 0 0 1 .815.166l10.896 16.451a.583.583 0 0 1 .085.441zm21.523-14.8a2.119 2.119 0 0 1-.913 1.354l-2.838 1.879L35.7 34.715a3.6 3.6 0 0 1-2.566.555 5.216 5.216 0 0 0-3.715.8l-1.062.7-8.921-13.47 2.307-9.964a11.617 11.617 0 0 0-.851-7.626.792.792 0 0 0-.034-.072 11.437 11.437 0 0 0-.74-1.294 1.762 1.762 0 0 1 2.7-2.238l1.544 1.5a15.8 15.8 0 0 1 3.791 5.81l.841 2.266v.012l.006.016a.722.722 0 0 0 .017.037.8.8 0 0 0 .056.1.808.808 0 0 0 1.12.228l8.624-5.711a2.133 2.133 0 0 1 2.356 3.557l-.749.5-1.67 1.106h-.006l-.026.019a.808.808 0 0 0 .926 1.324l1.671-1.107a2.133 2.133 0 0 1 2.355 3.558l-2.419 1.6a.808.808 0 1 0 .893 1.348l.375-.248 1.3-.858a2.133 2.133 0 0 1 2.356 3.557l-1.208.8-.019.013-1.192.789a.809.809 0 1 0 .893 1.348l.375-.248 1.3-.858a2.133 2.133 0 0 1 3.268 2.2zm0 0" class="cls-4" data-name="Path 50154"/>
        </g>
    </g>
</svg>
