<svg width="50" height="51" viewBox="0 0 50 51" fill="none" xmlns="http://www.w3.org/2000/svg">
<g clip-path="url(#clip0_7617_123974)">
<path d="M45.0261 41.1107C43.5599 40.5102 42.9327 39.7133 42.9933 38.5243C43.0558 37.1364 42.2684 36.1198 41.8944 35.7182C42.1204 34.8552 42.7805 31.87 41.8951 29.277C40.9436 26.5016 38.0387 22.2627 35.0413 18.0959C33.8142 16.3848 33.7562 14.5248 33.6891 12.371C33.6249 10.3167 33.5524 7.98817 32.4068 5.39963C31.1613 2.58108 28.6619 0.964844 25.5493 0.964844C23.6976 0.964844 21.7969 1.54354 20.3343 2.5524C17.3392 4.61946 17.7351 9.12621 17.9971 12.1084C18.033 12.5167 18.0668 12.9025 18.0864 13.2318C18.2609 16.1525 18.1022 17.6918 17.8946 18.1597C17.7604 18.4655 17.0994 19.3356 16.3999 20.2569C15.6764 21.2097 14.8562 22.2897 14.1839 23.2961C13.3818 24.5071 12.7343 26.3581 12.108 28.1481C11.6498 29.458 11.217 30.6952 10.7957 31.4346C9.99719 32.8569 10.1959 34.1831 10.3618 34.7961C10.0595 35.0061 9.62276 35.4195 9.25407 36.1988C8.8085 37.1497 7.90439 37.6607 6.02438 38.0221C5.16044 38.1989 4.5647 38.5621 4.25322 39.1018C3.79994 39.8872 4.04683 40.8741 4.27207 41.5486C4.60486 42.54 4.39748 43.1676 4.02043 44.3069C3.93355 44.5699 3.83502 44.8676 3.73518 45.196C3.57797 45.7142 3.63469 46.1853 3.90338 46.5963C4.61339 47.6817 6.6852 48.0645 8.818 48.3163C10.0915 48.4675 11.4852 48.9768 12.8333 49.4696C14.1541 49.9522 15.5199 50.4514 16.7613 50.6029C16.95 50.6266 17.1369 50.6386 17.3171 50.6386C19.1915 50.6386 20.0384 49.3948 20.3069 48.8838C20.9802 48.7465 23.3024 48.3065 25.6957 48.2475C28.0852 48.1793 30.3972 48.6511 31.0521 48.7978C31.258 49.1919 31.8008 50.0921 32.666 50.5558C33.1416 50.8158 33.8034 50.9648 34.4813 50.9648C34.4815 50.9648 34.4813 50.9648 34.4815 50.9648C35.2054 50.9648 36.5826 50.7937 37.6726 49.647C38.7598 48.4948 41.4763 47.024 43.4599 45.9501C43.9025 45.7104 44.3166 45.4861 44.6797 45.2837C45.794 44.666 46.402 43.7833 46.3478 42.8622C46.3025 42.0971 45.7961 41.4259 45.0261 41.1107ZM20.3587 40.8889C20.22 39.9118 18.9632 38.9428 17.5076 37.8208C16.3174 36.9033 14.9684 35.8634 14.5967 34.9828C13.8287 33.166 14.4341 29.9716 15.4897 28.3267C16.0113 27.5031 16.4374 26.254 16.8495 25.0462C17.2945 23.7419 17.7546 22.3933 18.2692 21.803C19.0841 20.8814 19.8373 19.0881 19.9707 17.6748C20.7338 18.4033 21.9176 19.3278 23.0112 19.3278C23.1796 19.3278 23.343 19.3058 23.4992 19.2617C24.2474 19.0456 25.3479 18.4097 26.4122 17.795C27.3298 17.2648 28.4612 16.611 28.887 16.5515C29.617 17.5997 33.8588 26.9868 34.2923 30.0014C34.6352 32.3867 34.2729 34.3585 34.0908 35.1308C33.9442 35.1108 33.7695 35.0946 33.5859 35.0946C32.4044 35.0946 32.0916 35.7395 32.0101 36.1246C31.8006 37.1251 31.7785 40.3243 31.7762 41.0431C31.349 41.5859 29.1885 44.142 26.0866 44.6015C24.8232 44.7851 23.6433 44.8782 22.5801 44.8782C21.6712 44.8782 21.0912 44.8081 20.8504 44.7715L19.2917 42.9881C19.9063 42.6846 20.5207 42.0443 20.3587 40.8889ZM22.3366 11.4811C22.2879 11.5021 22.2401 11.5246 22.193 11.5485C22.1883 11.4429 22.1773 11.3359 22.1604 11.2285C21.9902 10.249 21.3407 9.53802 20.6163 9.53802C20.5627 9.53802 20.5087 9.54211 20.4496 9.55113C20.0186 9.62293 19.6805 9.94671 19.4953 10.4057C19.6577 9.39851 20.2284 8.65276 20.9055 8.65276C21.7005 8.65276 22.3722 9.72425 22.3722 10.9925C22.3722 11.1523 22.3606 11.3113 22.3366 11.4811ZM28.5147 12.2364C28.5875 12.0046 28.6268 11.7538 28.6268 11.4934C28.6268 10.3436 27.8973 9.44277 26.966 9.44277C26.0558 9.44277 25.3153 10.3626 25.3153 11.4934C25.3153 11.5705 25.3191 11.6477 25.3263 11.7248C25.2781 11.7062 25.2311 11.6882 25.1852 11.6708C25.0804 11.3536 25.0275 11.0226 25.0275 10.6847C25.0275 9.30982 25.9061 8.19112 26.9865 8.19112C28.0667 8.19112 28.9455 9.30982 28.9455 10.6847C28.9455 11.2567 28.7876 11.8026 28.5147 12.2364ZM27.7181 14.9125C27.7026 14.982 27.6694 15.0128 27.3032 15.2033C27.1183 15.2995 26.8881 15.4194 26.6001 15.5948L26.4076 15.7113C25.6342 16.1802 23.8232 17.2784 23.3315 17.3428C22.9976 17.3877 22.791 17.2582 22.3266 16.9427C22.2219 16.8713 22.1104 16.7956 21.9915 16.7194C21.1543 16.17 20.6158 15.5649 20.555 15.3284C20.8279 15.1174 21.5045 14.5894 21.8509 14.2767C22.554 13.623 23.2615 13.1836 23.6117 13.1836C23.6302 13.1836 23.647 13.1849 23.6643 13.1882C24.0758 13.2608 25.0907 13.6659 25.8321 13.9617C26.1747 14.0984 26.4706 14.2164 26.6788 14.2912C27.3347 14.5164 27.6767 14.8046 27.7181 14.9125ZM33.6111 45.4651C33.9811 43.7961 34.4074 41.5256 34.3383 40.1871C34.3224 39.883 34.2955 39.552 34.2695 39.232C34.2208 38.6336 34.1485 37.7443 34.2231 37.4805C34.2378 37.4736 34.2542 37.4677 34.2724 37.4626C34.2755 38.2279 34.4418 39.7543 35.6624 40.2866C36.0262 40.4453 36.442 40.5256 36.898 40.5256C38.1208 40.5256 39.4775 39.9258 40.0333 39.37C40.3605 39.0428 40.6358 38.6425 40.8285 38.3254C40.8707 38.4489 40.8966 38.6102 40.883 38.818C40.8103 39.9467 41.3589 41.4441 42.4028 41.9959L42.5548 42.0758C42.9266 42.2709 43.9141 42.7894 43.93 43.0353C43.9299 43.0354 43.9217 43.0643 43.8666 43.1155C43.6192 43.3415 42.7486 43.7861 41.9066 44.2161C40.413 44.9787 38.72 45.8432 37.9597 46.6429C36.8892 47.7694 35.6783 48.5261 34.9472 48.5261C34.8592 48.5261 34.779 48.515 34.7077 48.4924C33.9136 48.2448 33.26 47.0991 33.6111 45.4651ZM6.54356 41.2072C6.46258 40.8282 6.39864 40.529 6.46733 40.2392C6.51717 40.0244 7.57734 39.7943 8.03013 39.6961C8.66669 39.5579 9.32506 39.4151 9.75555 39.1538C10.3377 38.8012 10.6529 38.1508 10.931 37.5771C11.1323 37.1621 11.3402 36.7331 11.5875 36.5923C11.6015 36.5841 11.6228 36.5746 11.6634 36.5746C12.1269 36.5746 13.0993 37.5489 13.6597 38.4208C13.8018 38.6407 14.0651 39.0812 14.3697 39.5912C15.2807 41.1154 16.5281 43.2032 17.1795 43.9028C17.7666 44.5319 18.7169 45.7412 18.4831 46.7784C18.312 47.5832 17.4008 48.2376 17.1859 48.3824C17.1079 48.4001 17.0113 48.4091 16.8977 48.4091C15.6508 48.4091 13.1826 47.3717 11.8565 46.8143L11.6603 46.7319C10.9198 46.4214 9.71096 46.2258 8.54194 46.0366C7.61177 45.886 6.33799 45.6799 6.12684 45.4937C5.95569 45.3017 6.15422 44.6776 6.3293 44.1269C6.45537 43.7312 6.58553 43.322 6.65684 42.8936C6.75799 42.2104 6.63897 41.6541 6.54356 41.2072Z" fill="#1C2129"/>
</g>
<defs>
<clipPath id="clip0_7617_123974">
<rect width="50" height="50" fill="white" transform="translate(0 0.964844)"/>
</clipPath>
</defs>
</svg>
