<svg xmlns="http://www.w3.org/2000/svg" id="prefix___002-location" width="42.398" height="42.361" data-name="002-location" viewBox="0 0 42.398 42.361">
    <defs>
        <style>
            .prefix__cls-1{fill:#87AB49}
        </style>
    </defs>
    <path id="prefix__Path_48853" d="M42.278 19.809a.681.681 0 0 0 .042-.207.708.708 0 0 0-.035-.22l-.055-.154a21.157 21.157 0 0 0-7.7-14.244c-.311-.254-.637-.483-.962-.717-.016-.013-.025-.032-.042-.045s-.032-.011-.047-.021A21.262 21.262 0 0 0 21.128.22c-.182 0-.366 0-.5.014a20.729 20.729 0 0 0-6.913 1.33A6.359 6.359 0 0 0 3.443 6.587 6.719 6.719 0 0 0 4 8.932a21.266 21.266 0 0 0-1.9 3.13c-.011.017-.017.035-.026.053a21.222 21.222 0 0 0 37.737 19.4 20.892 20.892 0 0 0 2.51-9.033c.022-.341.03-.689.03-1.037-.002-.551-.03-1.094-.073-1.636zm-2.056-3.63c-.09-.08-.173-.172-.267-.246a9.323 9.323 0 0 0-3.089-1.543 6.649 6.649 0 0 0-3.1-.032 6.115 6.115 0 0 1-2.642.013c-1.691-.369-3.027-.66-3.736-1.792a3.854 3.854 0 0 1 .532-4.719 1.614 1.614 0 0 1 1.21-.26 4.522 4.522 0 0 0 2.193-.369 5.684 5.684 0 0 0 1.91-1.455c.134.1.275.2.406.3a19.78 19.78 0 0 1 6.584 10.103zM9.809 1.635a4.96 4.96 0 0 1 4.952 4.952c0 2.116-3.178 6.96-4.952 9.416a44.456 44.456 0 0 1-4.364-7.252 5.9 5.9 0 0 1-.588-2.165 4.957 4.957 0 0 1 4.952-4.951zM1.321 21.442a20.03 20.03 0 0 1 .4-3.925c.076.983.2 1.858.318 2.617.438 2.9.852 5.635 2.99 8.135.894 1.053 2.391 2.815 4.705 3.075s5.213-1.071 6.05-1.486l.316-.158a3.111 3.111 0 0 1 1.478-.473 3.489 3.489 0 0 1 2.322 1.178c1.207 1.336 1.514 3.568.656 4.775a2.172 2.172 0 0 1-1.087.755 3.3 3.3 0 0 0-1.779 1.415 4.368 4.368 0 0 0-.306 3.537A19.838 19.838 0 0 1 1.321 21.442zm19.807 19.807a19.954 19.954 0 0 1-2.047-.105 2.505 2.505 0 0 1-.161-.232 3.01 3.01 0 0 1-.013-2.838 1.952 1.952 0 0 1 1.111-.836A3.525 3.525 0 0 0 21.7 36c1.23-1.73.882-4.728-.757-6.541a4.858 4.858 0 0 0-3.351-1.65h-.031a4.287 4.287 0 0 0-2.107.628l-.3.153a11.118 11.118 0 0 1-5.267 1.344c-1.757-.2-2.977-1.634-3.786-2.586-1.876-2.193-2.243-4.619-2.668-7.428a20.34 20.34 0 0 1-.054-7.276 19.84 19.84 0 0 1 1.282-2.221c.023.047.049.095.071.142.045.09.092.179.141.269l.212.4q.073.136.149.272.112.2.227.4c.051.089.1.179.154.268l.237.4c.052.088.1.175.157.262.084.141.168.274.252.41.048.077.1.156.141.232.1.168.209.331.313.5l.082.129q.194.3.384.588l.142.212.231.345.168.246c.061.09.122.18.182.265l.17.244.155.221.159.225.13.182.141.2.115.16.113.155.092.124.086.117.051.071.125.168a.707.707 0 0 0 1.132 0c.594-.787 5.8-7.77 5.8-11.04 0-.207-.013-.412-.032-.616-.006-.063-.016-.126-.024-.189-.018-.142-.04-.283-.07-.425-.013-.071-.028-.137-.044-.205q-.049-.212-.114-.425c-.018-.057-.032-.114-.051-.17-.064-.19-.135-.377-.216-.56-.016-.035-.034-.071-.05-.1-.071-.147-.141-.293-.223-.435-.035-.064-.074-.125-.112-.188q-.1-.167-.212-.33c-.044-.063-.088-.126-.134-.188-.024-.031-.045-.064-.071-.095a19.318 19.318 0 0 1 4.546-.942 8.158 8.158 0 0 0-1.051 5.73 7.376 7.376 0 0 0 1.7 3.095 3.47 3.47 0 0 1 1.115 2.388c-.061 2.051-2.377 3.759-3.254 4.4a12.181 12.181 0 0 1-3.8 1.835c-1.285.42-2.393.782-2.817 2.047a4.033 4.033 0 0 0 1.713 4.362 3.573 3.573 0 0 0 2.819.249 8.7 8.7 0 0 1 3.122-.149c1.344.19 2.5.354 3.052 1.123a2.542 2.542 0 0 1 .246 1.807 8.57 8.57 0 0 0 .367 3.666c.323.968.81 2.429 1.981 2.6a1.465 1.465 0 0 0 .23.018c.829 0 1.336-.732 1.869-1.5.236-.34.5-.707.807-1.076 1.456 2.352 2.935 4.315 3 4.408a.708.708 0 0 0 1.132 0 58.808 58.808 0 0 0 4.187-6.447 9.3 9.3 0 0 1 2.457 1.12 19.775 19.775 0 0 1-17.113 9.851zM34.331 22a4.939 4.939 0 0 1 1.652 3.688 8.433 8.433 0 0 1-1.183 3.431 52.725 52.725 0 0 1-3.764 5.98c-.666-.927-1.811-2.574-2.836-4.3a26.155 26.155 0 0 1-1.528-2.945 5.9 5.9 0 0 1-.588-2.165 4.957 4.957 0 0 1 4.952-4.952q.23 0 .456.021A4.908 4.908 0 0 1 34.331 22zm6.579.408a19.488 19.488 0 0 1-1.992 7.742 10.759 10.759 0 0 0-2.484-1.157 8.381 8.381 0 0 0 .964-3.3 6.393 6.393 0 0 0-3.563-5.717l-.045-.02c-.158-.076-.319-.148-.483-.212-.113-.044-.229-.078-.345-.115-.071-.021-.134-.048-.2-.071-.182-.052-.368-.094-.554-.129H32.2c-.113-.021-.228-.032-.342-.047a6.322 6.322 0 0 0-7.189 6.311 7.283 7.283 0 0 0 .7 2.719A26.1 26.1 0 0 0 26.7 31.04a13.04 13.04 0 0 0-1.211 1.545 3.682 3.682 0 0 1-.728.891c-.142-.021-.4-.323-.849-1.647a7.257 7.257 0 0 1-.3-3.117 3.784 3.784 0 0 0-.5-2.73c-.9-1.263-2.48-1.486-4.014-1.7a9.967 9.967 0 0 0-3.578.161c-.9.173-1.325.238-1.805-.062a2.681 2.681 0 0 1-1.115-2.715c.189-.566.755-.77 1.91-1.15a13.58 13.58 0 0 0 4.2-2.042c1.031-.756 3.749-2.763 3.831-5.5a4.757 4.757 0 0 0-1.427-3.314 6.118 6.118 0 0 1-1.42-2.529c-.376-1.576.09-3.424 1.353-5.5h.081a19.854 19.854 0 0 1 10.946 3.313 4.25 4.25 0 0 1-1.335 1 3.167 3.167 0 0 1-1.567.245 2.967 2.967 0 0 0-2.1.541 5.24 5.24 0 0 0-.881 6.6c1.026 1.639 2.779 2.021 4.693 2.438a7.406 7.406 0 0 0 3.124-.013 5.336 5.336 0 0 1 2.51.008 7.882 7.882 0 0 1 2.568 1.285 5.792 5.792 0 0 1 1.756 2.508c.058.625.094 1.251.094 1.888 0 .316-.006.637-.028.964zm0 0" class="prefix__cls-1" data-name="Path 48853" transform="translate(.049 -.219)"/>
    <path id="prefix__Path_48854" d="M82.267 37.89a2.83 2.83 0 1 0-2.83-2.83 2.829 2.829 0 0 0 2.83 2.83zm0-4.244a1.415 1.415 0 1 1-1.415 1.415 1.415 1.415 0 0 1 1.415-1.416zm0 0" class="prefix__cls-1" data-name="Path 48854" transform="translate(-72.409 -29.4)"/>
    <path id="prefix__Path_48855" d="M319.438 251.06a2.83 2.83 0 1 0 2.83-2.83 2.829 2.829 0 0 0-2.83 2.83zm4.244 0a1.415 1.415 0 1 1-1.415-1.415 1.415 1.415 0 0 1 1.415 1.415zm0 0" class="prefix__cls-1" data-name="Path 48855" transform="translate(-291.187 -226.3)"/>
</svg>
