<svg xmlns="http://www.w3.org/2000/svg" id="prefix___006-locked" width="51.818" height="47.092" data-name="006-locked" viewBox="0 0 51.818 47.092">
    <defs>
        <style>
            .prefix__cls-1{fill:#87AB49}
        </style>
    </defs>
    <path id="prefix__XMLID_397_" d="M241.443 302.762a.759.759 0 0 0-.759.759v3.555a1.209 1.209 0 0 1-1.208 1.208h-9.955a.759.759 0 0 0 0 1.518h9.955a2.729 2.729 0 0 0 2.726-2.726v-3.555a.759.759 0 0 0-.759-.759z" class="prefix__cls-1" transform="translate(-205.61 -274.483)"/>
    <path id="prefix__XMLID_398_" d="M169.121 86.955v-3.284a7.951 7.951 0 0 0-1.351-4.443.759.759 0 0 0-1.261.845 6.439 6.439 0 0 1 1.094 3.6v3.284h-1.923v-3.286a4.556 4.556 0 0 0-9.112 0v3.284h-1.924v-3.284a6.477 6.477 0 0 1 9.547-5.706.759.759 0 0 0 .721-1.336 8 8 0 0 0-11.787 7.042v3.285a2.728 2.728 0 0 0-2.685 2.725v13.29a2.729 2.729 0 0 0 2.726 2.726h2.466a.759.759 0 1 0 0-1.518h-2.466a1.209 1.209 0 0 1-1.208-1.208v-9.554h18.33v2.5a.759.759 0 1 0 1.518 0V89.68a2.728 2.728 0 0 0-2.685-2.725zm-11.036-3.285a3.038 3.038 0 0 1 6.076 0v3.284h-6.076v-3.283zm-6.127 8.23v-2.22a1.209 1.209 0 0 1 1.208-1.208h15.915a1.209 1.209 0 0 1 1.208 1.208v2.22z" class="prefix__cls-1" transform="translate(-135.214 -70.377)"/>
    <path id="prefix__XMLID_402_" d="M233.663 276.542a.759.759 0 0 0 .759-.759v-1.421a2.515 2.515 0 1 0-1.518 0v1.421a.759.759 0 0 0 .759.759zm0-5.575a1 1 0 1 1-1 1 1 1 0 0 1 1-1z" class="prefix__cls-1" transform="translate(-207.754 -244.542)"/>
    <path id="prefix__XMLID_405_" d="M385.069 176.453a.759.759 0 0 0-.537.222l-3.065 3.065h-2.75a.759.759 0 1 0 0 1.518h3.064a.76.76 0 0 0 .537-.222l3.065-3.065h1.478a2.393 2.393 0 1 0 0-1.518zm4.061-.116a.875.875 0 1 1-.875.875.876.876 0 0 1 .876-.875z" class="prefix__cls-1" transform="translate(-339.706 -159.489)"/>
    <path id="prefix__XMLID_408_" d="M389.131 277.671a2.4 2.4 0 0 0-2.269 1.634h-1.478l-3.065-3.065a.759.759 0 0 0-.537-.222h-3.064a.759.759 0 0 0 0 1.518h2.75l3.065 3.065a.759.759 0 0 0 .537.222h1.792a2.393 2.393 0 1 0 2.269-3.152zm0 3.269a.875.875 0 1 1 .875-.875.876.876 0 0 1-.875.875z" class="prefix__cls-1" transform="translate(-339.707 -250.446)"/>
    <path id="prefix__XMLID_411_" d="M27.322 276.018h-3.065a.759.759 0 0 0-.537.222l-3.065 3.065h-3.747a.759.759 0 0 0 0 1.518h4.061a.759.759 0 0 0 .537-.222l3.065-3.065h2.75a.759.759 0 1 0 0-1.518z" class="prefix__cls-1" transform="translate(-14.515 -250.446)"/>
    <path id="prefix__XMLID_412_" d="M30.891 140.922h5.4l3.065 3.065a.759.759 0 0 0 1.074-1.073l-3.288-3.288a.759.759 0 0 0-.537-.222h-5.71a.759.759 0 1 0 0 1.518z" class="prefix__cls-1" transform="translate(-27.082 -127.658)"/>
    <path id="prefix__XMLID_413_" d="M4.663 210.571h8.144a.759.759 0 0 0 0-1.518H4.663a2.393 2.393 0 1 0 0 1.518zm-3.145-.759a.875.875 0 1 1 .875.875.876.876 0 0 1-.875-.875z" class="prefix__cls-1" transform="translate(0 -188.79)"/>
    <path id="prefix__XMLID_416_" d="M99.719 368.148l-1.932 1.932a.759.759 0 0 0-.222.537v4.865a2.393 2.393 0 1 0 1.518 0v-4.55l1.709-1.709a.759.759 0 1 0-1.074-1.073zm-1.395 10.478a.875.875 0 1 1 .875-.875.876.876 0 0 1-.875.875z" class="prefix__cls-1" transform="translate(-86.222 -333.052)"/>
    <path id="prefix__XMLID_419_" d="M370.8 368.148a.759.759 0 0 0-1.073 1.073l1.709 1.709v6.82a.759.759 0 1 0 1.518 0v-7.134a.76.76 0 0 0-.222-.537z" class="prefix__cls-1" transform="translate(-332.104 -333.052)"/>
    <path id="prefix__XMLID_420_" d="M370.258 34.106a.757.757 0 0 0 .537-.222l1.932-1.932a.759.759 0 0 0 .222-.537v-3.4a2.393 2.393 0 1 0-1.518 0V31.1l-1.709 1.709a.759.759 0 0 0 .537 1.3zm1.932-9.24a.875.875 0 1 1-.875.875.876.876 0 0 1 .875-.875z" class="prefix__cls-1" transform="translate(-332.103 -23.348)"/>
    <path id="prefix__XMLID_423_" d="M113.6 42.919v-5.663a.759.759 0 1 0-1.518 0v5.978a.76.76 0 0 0 .222.537l1.932 1.932a.759.759 0 1 0 1.074-1.073z" class="prefix__cls-1" transform="translate(-100.737 -35.166)"/>
    <path id="prefix__XMLID_424_" d="M370.259 84.372a.759.759 0 1 0 0 1.518h3.4a.76.76 0 0 0 .537-.222l4.861-4.861a.759.759 0 0 0 .222-.537v-3.84a.759.759 0 1 0-1.518 0v3.526l-4.416 4.416h-3.082z" class="prefix__cls-1" transform="translate(-332.104 -70.376)"/>
    <path id="prefix__XMLID_425_" d="M392.477 324.23h-2.794l-4.888-4.888a.759.759 0 1 0-1.073 1.074l5.11 5.11a.759.759 0 0 0 .537.222h3.108a.759.759 0 1 0 0-1.518z" class="prefix__cls-1" transform="translate(-344.687 -289.186)"/>
    <path id="prefix__XMLID_426_" d="M22.9 328.693h2.47a.759.759 0 1 0 0-1.518h-2.78a.76.76 0 0 0-.537.222l-4.638 4.638A2.4 2.4 0 1 0 18.5 333.1zm-6.529 6.374a.875.875 0 1 1 .875-.875.876.876 0 0 1-.87.875z" class="prefix__cls-1" transform="translate(-12.567 -296.426)"/>
    <path id="prefix__XMLID_429_" d="M199.984 400.115h-8.7a2.448 2.448 0 0 0 0 4.9h8.7a2.448 2.448 0 0 0 0-4.9zm0 3.379h-8.7a.93.93 0 1 1 0-1.861h8.7a.93.93 0 0 1 0 1.861z" class="prefix__cls-1" transform="translate(-169.726 -361.984)"/>
</svg>
