<svg width="118" height="54" viewBox="0 0 118 54" fill="none" xmlns="http://www.w3.org/2000/svg">
<ellipse cx="27.6767" cy="26.6129" rx="18.5244" ry="18.063" fill="url(#paint0_linear_1396_62215)"/>
<path fill-rule="evenodd" clip-rule="evenodd" d="M6.7858 33.0156C7.10164 32.6357 7.69486 32.6942 7.94555 33.1199C8.11192 33.4024 8.06791 33.7602 7.8477 34.0031C6.59779 35.3819 6.05944 36.4547 6.41987 37.0667C7.58093 39.0383 17.6287 35.482 28.8622 29.1236C29.2513 28.9034 29.6367 28.6826 30.0182 28.4617C30.1472 28.3869 30.2218 28.246 30.2218 28.0969C30.2218 25.5655 32.3263 23.5134 34.9223 23.5134C36.3166 23.5134 37.8222 23.5536 38.9567 22.743C44.5488 18.7477 47.8687 15.3462 47.1 14.0408C46.7536 13.4527 45.6166 13.3565 43.8932 13.6797C43.5959 13.7355 43.2922 13.6048 43.1387 13.3442C42.8919 12.9251 43.1382 12.3882 43.6196 12.3194C46.9863 11.838 49.3745 12.2383 50.2112 13.6592C51.7777 16.3192 47.4658 21.8075 39.9604 27.3874C39.7392 27.5519 39.6229 27.8212 39.6229 28.0969C39.6229 30.6283 37.5184 32.6804 34.9223 32.6804C34.7893 32.6804 34.6575 32.675 34.5273 32.6644C33.3742 32.5708 32.1497 32.5242 31.1429 33.0941C18.5038 40.2481 6.54884 43.1458 4.44083 39.5663C3.57396 38.0943 4.50729 35.7561 6.7858 33.0156Z" fill="#3B577F"/>
<ellipse cx="34.9225" cy="28.0969" rx="2.35028" ry="2.29175" fill="#70AF09"/>
<g opacity="0.32">
<path d="M18.184 20.4354C17.044 23.1803 17.4036 26.0749 16.0053 25.5227C14.607 24.9705 14.3976 22.2977 15.5377 19.5528C16.6777 16.8078 18.7355 15.0303 20.1338 15.5825C21.5321 16.1347 19.3241 17.6905 18.184 20.4354Z" fill="#E5E5E5"/>
<path d="M17.3062 28.2497C17.4081 29.1536 16.9789 29.9412 16.3476 30.0088C15.7162 30.0765 15.1219 29.3985 15.02 28.4946C14.9182 27.5907 15.3474 26.8031 15.9787 26.7354C16.61 26.6678 17.2044 27.3457 17.3062 28.2497Z" fill="#E5E5E5"/>
</g>
<path d="M22.2081 40.3735C21.5644 40.0108 21.8729 39.403 23.4364 38.8977C26.7333 38.1921 26.177 39.6186 30.9212 39.0698C35.6654 38.5209 38.1665 36.6138 39.4262 35.3593C40.4341 34.3557 41.3656 32.9975 41.3209 33.4767C41.1065 34.496 39.375 37.1828 34.1644 39.7755C27.6512 43.0163 23.1952 40.9296 22.2081 40.3735Z" fill="#080F1B" fill-opacity="0.11"/>
<path d="M43.1274 16.6284C43.7486 16.227 43.921 15.3898 43.4638 14.8084C40.6369 11.2132 36.597 8.68386 32.0358 7.68492C27.0272 6.588 21.7777 7.42131 17.3845 10.0106C12.9914 12.6 9.79468 16.7449 8.46268 21.579C7.24506 25.9979 7.67179 30.68 9.64133 34.8031C9.95084 35.4511 10.7433 35.6787 11.3764 35.3397C12.0288 34.9904 12.2614 34.1748 11.9517 33.5028C10.3285 29.9808 9.99274 26.0062 11.0275 22.2509C12.1817 18.0622 14.9517 14.4706 18.7584 12.2269C22.5651 9.98319 27.1139 9.26112 31.4538 10.2116C35.3667 11.0686 38.8367 13.2252 41.2825 16.2911C41.7289 16.8506 42.5262 17.0169 43.1274 16.6284Z" fill="#3B577F"/>
<path d="M16.338 40.9346C15.8871 41.5042 15.9978 42.3344 16.6163 42.7378C19.4599 44.5924 22.7531 45.7049 26.1796 45.9571C30.0563 46.2423 33.9338 45.4138 37.3329 43.5738C40.732 41.7338 43.5038 38.9631 45.3057 35.6039C46.8983 32.6348 47.6716 29.3211 47.5612 25.9869C47.5372 25.2619 46.8726 24.7312 46.138 24.8032C45.4133 24.8742 44.894 25.506 44.9111 26.2216C44.9788 29.0596 44.3083 31.8758 42.9524 34.4037C41.391 37.3144 38.9893 39.7153 36.0439 41.3097C33.0985 42.904 29.7387 43.622 26.3794 43.3748C23.4626 43.1601 20.6573 42.226 18.2233 40.6696C17.6089 40.2767 16.7834 40.3721 16.338 40.9346Z" fill="#3B577F"/>
<path d="M58.5054 40.253C58.0513 40.253 57.8242 40.1349 57.8242 39.8987V32.9244C57.8242 32.7694 57.8583 32.6587 57.9264 32.5923C58.0021 32.5185 58.1194 32.4816 58.2783 32.4816H62.0135C62.1346 32.4816 62.2216 32.5259 62.2746 32.6145C62.3276 32.703 62.3541 32.8432 62.3541 33.0351V33.3783C62.3541 33.5702 62.3276 33.7104 62.2746 33.799C62.2216 33.8875 62.1346 33.9318 62.0135 33.9318H59.5726V35.8802H61.934C62.0551 35.8802 62.1422 35.9245 62.1951 36.0131C62.2481 36.1016 62.2746 36.2418 62.2746 36.4337V36.7769C62.2746 36.9688 62.2481 37.109 62.1951 37.1976C62.1422 37.2861 62.0551 37.3304 61.934 37.3304H59.5726V39.8987C59.5726 40.1349 59.3455 40.253 58.8914 40.253H58.5054Z" fill="#7FB02E"/>
<path d="M65.6684 40.253C65.2143 40.253 64.9872 40.1349 64.9872 39.8987V32.9244C64.9872 32.7694 65.0213 32.6587 65.0894 32.5923C65.1651 32.5185 65.2824 32.4816 65.4413 32.4816H67.6552C69.5398 32.4816 70.4821 33.1754 70.4821 34.5628C70.4821 34.9761 70.361 35.3378 70.1188 35.6477C69.8842 35.9503 69.5625 36.1754 69.1538 36.323V36.3673C69.2976 36.419 69.4452 36.5444 69.5965 36.7437C69.7479 36.9356 69.8728 37.1496 69.9712 37.3858L70.9703 39.8212C71.0081 39.9172 71.027 39.9873 71.027 40.0316C71.027 40.098 70.9703 40.1534 70.8567 40.1976C70.7432 40.2345 70.5729 40.253 70.3459 40.253H69.8804C69.5095 40.253 69.29 40.1755 69.2219 40.0205L68.325 37.8618C68.1963 37.6182 68.0563 37.4485 67.9049 37.3526C67.7611 37.2492 67.5189 37.1976 67.1783 37.1976H66.7356V39.8987C66.7356 40.1349 66.5085 40.253 66.0544 40.253H65.6684ZM67.8141 35.7252C68.0487 35.7252 68.2531 35.633 68.4272 35.4485C68.6013 35.264 68.6883 35.0389 68.6883 34.7732C68.6883 34.5149 68.6013 34.3119 68.4272 34.1643C68.2607 34.0093 68.0298 33.9318 67.7346 33.9318H66.7356V35.7252H67.8141Z" fill="#7FB02E"/>
<path d="M73.9942 40.2308C73.8352 40.2308 73.7179 40.1976 73.6422 40.1312C73.5741 40.0574 73.5401 39.943 73.5401 39.788V32.9244C73.5401 32.7694 73.5741 32.6587 73.6422 32.5923C73.7179 32.5185 73.8352 32.4816 73.9942 32.4816H77.9791C78.1002 32.4816 78.1872 32.5259 78.2402 32.6145C78.2932 32.703 78.3197 32.8432 78.3197 33.0351V33.3783C78.3197 33.5702 78.2932 33.7104 78.2402 33.799C78.1872 33.8875 78.1002 33.9318 77.9791 33.9318H75.2884V35.537H77.6726C77.7937 35.537 77.8807 35.5813 77.9337 35.6699C77.9867 35.7584 78.0132 35.8987 78.0132 36.0905V36.4337C78.0132 36.6256 77.9867 36.7658 77.9337 36.8544C77.8807 36.943 77.7937 36.9872 77.6726 36.9872H75.2884V38.7806H77.9905C78.1116 38.7806 78.1986 38.8249 78.2516 38.9135C78.3046 39.002 78.331 39.1423 78.331 39.3342V39.6773C78.331 39.8692 78.3046 40.0094 78.2516 40.098C78.1986 40.1866 78.1116 40.2308 77.9905 40.2308H73.9942Z" fill="#7FB02E"/>
<path d="M81.7245 40.2308C81.5655 40.2308 81.4482 40.1976 81.3725 40.1312C81.3044 40.0574 81.2703 39.943 81.2703 39.788V32.9244C81.2703 32.7694 81.3044 32.6587 81.3725 32.5923C81.4482 32.5185 81.5655 32.4816 81.7245 32.4816H85.7094C85.8305 32.4816 85.9175 32.5259 85.9705 32.6145C86.0235 32.703 86.05 32.8432 86.05 33.0351V33.3783C86.05 33.5702 86.0235 33.7104 85.9705 33.799C85.9175 33.8875 85.8305 33.9318 85.7094 33.9318H83.0187V35.537H85.4029C85.524 35.537 85.611 35.5813 85.664 35.6699C85.717 35.7584 85.7434 35.8987 85.7434 36.0905V36.4337C85.7434 36.6256 85.717 36.7658 85.664 36.8544C85.611 36.943 85.524 36.9872 85.4029 36.9872H83.0187V38.7806H85.7207C85.8418 38.7806 85.9289 38.8249 85.9819 38.9135C86.0348 39.002 86.0613 39.1423 86.0613 39.3342V39.6773C86.0613 39.8692 86.0348 40.0094 85.9819 40.098C85.9289 40.1866 85.8418 40.2308 85.7207 40.2308H81.7245Z" fill="#7FB02E"/>
<path d="M95.5994 40.253C95.2285 40.253 95.0166 40.1755 94.9636 40.0205L92.5114 32.9023C92.4811 32.799 92.466 32.7325 92.466 32.703C92.466 32.5407 92.6968 32.4595 93.1585 32.4595H93.5559C93.9343 32.4595 94.1576 32.5665 94.2257 32.7805L95.6335 37.1754C95.7773 37.6256 95.8605 37.9614 95.8832 38.1828H95.9287C95.9514 37.9614 96.0346 37.6256 96.1784 37.1754L97.6316 32.7805C97.7073 32.5665 97.9306 32.4595 98.3014 32.4595H98.6307C99.0848 32.4595 99.3119 32.5407 99.3119 32.703C99.3119 32.7547 99.3005 32.8211 99.2778 32.9023L96.8256 40.0205C96.7726 40.1755 96.5606 40.253 96.1898 40.253H95.5994Z" fill="#7FB02E"/>
<path d="M102.391 40.253C101.937 40.253 101.709 40.1349 101.709 39.8987V32.9244C101.709 32.7694 101.744 32.6587 101.812 32.5923C101.887 32.5185 102.005 32.4816 102.164 32.4816H104.548C105.259 32.4816 105.887 32.6514 106.432 32.9908C106.977 33.323 107.25 33.9613 107.25 34.906C107.25 35.5555 107.091 36.061 106.773 36.4227C106.455 36.7769 106.099 37.0168 105.706 37.1422C105.312 37.2677 104.964 37.3304 104.661 37.3304H103.458V39.8987C103.458 40.1349 103.231 40.253 102.777 40.253H102.391ZM104.468 35.8691C104.741 35.8691 104.972 35.799 105.161 35.6588C105.358 35.5186 105.456 35.2676 105.456 34.906C105.456 34.5444 105.358 34.2935 105.161 34.1532C104.972 34.0056 104.741 33.9318 104.468 33.9318H103.458V35.8691H104.468Z" fill="#7FB02E"/>
<path d="M110.398 40.253C109.944 40.253 109.717 40.1349 109.717 39.8987V32.8137C109.717 32.5776 109.944 32.4595 110.398 32.4595H110.886C111.068 32.4595 111.219 32.4816 111.34 32.5259C111.462 32.5628 111.56 32.6403 111.636 32.7584L114.19 36.5998C114.341 36.8138 114.478 37.0315 114.599 37.2529L114.644 37.2419C114.629 37.0721 114.621 36.8212 114.621 36.4891V32.8137C114.621 32.5776 114.849 32.4595 115.303 32.4595H115.632C116.086 32.4595 116.313 32.5776 116.313 32.8137V39.8987C116.313 40.1349 116.086 40.253 115.632 40.253H115.2C115.019 40.253 114.867 40.2345 114.746 40.1976C114.625 40.1534 114.527 40.0722 114.451 39.9541L111.84 36.0573C111.689 35.8433 111.552 35.6256 111.431 35.4042L111.386 35.4153C111.401 35.585 111.409 35.8359 111.409 36.168V39.8987C111.409 40.1349 111.181 40.253 110.727 40.253H110.398Z" fill="#7FB02E"/>
<path d="M59.1073 28.5789C58.2519 28.5789 57.8242 28.3565 57.8242 27.9116V14.7746C57.8242 14.4826 57.8884 14.2741 58.0167 14.149C58.1593 14.01 58.3802 13.9405 58.6796 13.9405H63.1705C64.5106 13.9405 65.6939 14.2602 66.7204 14.8997C67.7469 15.5253 68.2601 16.7278 68.2601 18.5072C68.2601 19.7305 67.9607 20.6828 67.3619 21.364C66.7632 22.0312 66.0931 22.483 65.3517 22.7194C64.6104 22.9557 63.9546 23.0739 63.3843 23.0739H61.1175V27.9116C61.1175 28.3565 60.6898 28.5789 59.8344 28.5789H59.1073ZM63.0208 20.3213C63.534 20.3213 63.9688 20.1893 64.3253 19.9251C64.6959 19.661 64.8813 19.1884 64.8813 18.5072C64.8813 17.826 64.6959 17.3533 64.3253 17.0892C63.9688 16.8112 63.534 16.6722 63.0208 16.6722H61.1175V20.3213H63.0208Z" fill="#3B577F"/>
<path d="M73.0143 28.704C70.9328 28.704 69.8921 27.578 69.8921 25.3259V13.4817C69.8921 13.0369 70.3198 12.8145 71.1752 12.8145H71.7739C72.6293 12.8145 73.057 13.0369 73.057 13.4817V25.3676C73.057 25.6874 73.1141 25.9167 73.2281 26.0558C73.3564 26.1948 73.556 26.2643 73.8269 26.2643C73.8982 26.2643 73.9908 26.2504 74.1049 26.2226C74.2332 26.1948 74.333 26.1809 74.4043 26.1809C74.5326 26.1809 74.6467 26.2851 74.7465 26.4937C74.8462 26.7022 74.9247 26.9316 74.9817 27.1818C75.0387 27.432 75.0672 27.5988 75.0672 27.6823C75.0672 28.3634 74.3829 28.704 73.0143 28.704Z" fill="#3B577F"/>
<path d="M78.9566 28.704C77.8589 28.704 77.0534 28.426 76.5401 27.8699C76.0411 27.3139 75.7916 26.5771 75.7916 25.6596C75.7916 24.5474 76.2051 23.623 77.032 22.8862C77.8731 22.1494 79.5055 21.781 81.9291 21.781V21.0929C81.9291 20.6897 81.7937 20.3908 81.5228 20.1962C81.2662 20.0016 80.8456 19.9043 80.2611 19.9043C79.7764 19.9043 79.3487 19.9529 78.978 20.0503C78.6216 20.1476 78.3008 20.2588 78.0157 20.3839C77.7306 20.509 77.5666 20.5716 77.5238 20.5716C77.3813 20.5716 77.2244 20.4673 77.0534 20.2588C76.8823 20.0503 76.7326 19.8139 76.6043 19.5498C76.476 19.2718 76.4118 19.0563 76.4118 18.9034C76.4118 18.667 76.59 18.4377 76.9464 18.2152C77.3029 17.9928 77.7947 17.8121 78.422 17.6731C79.0493 17.5341 79.7407 17.4646 80.4963 17.4646C82.1074 17.4646 83.2764 17.7773 84.0035 18.4029C84.7306 19.0146 85.0941 19.8626 85.0941 20.9469V24.8672C85.0941 25.5067 85.1084 25.9932 85.1369 26.3268C85.1797 26.6605 85.2296 27.0289 85.2866 27.432C85.3294 27.6127 85.3507 27.7657 85.3507 27.8908C85.3507 28.1132 85.0585 28.28 84.474 28.3912C83.9037 28.5025 83.3976 28.5581 82.9556 28.5581C82.699 28.5581 82.5208 28.4607 82.421 28.2661C82.3212 28.0576 82.2428 27.8352 82.1858 27.5988C82.143 27.3625 82.1145 27.2027 82.1002 27.1192C82.0147 27.2722 81.8436 27.4737 81.587 27.724C81.3304 27.9603 80.9739 28.1827 80.5177 28.3912C80.0615 28.5998 79.5411 28.704 78.9566 28.704ZM80.0045 26.2643C80.4037 26.2643 80.7815 26.1392 81.1379 25.8889C81.4943 25.6387 81.7581 25.3259 81.9291 24.9506V23.8037C79.9332 23.8037 78.9352 24.3181 78.9352 25.3468C78.9352 25.6248 79.0279 25.8472 79.2132 26.0141C79.3986 26.1809 79.6623 26.2643 80.0045 26.2643Z" fill="#3B577F"/>
<path d="M89.1556 28.5789C88.3002 28.5789 87.8725 28.3565 87.8725 27.9116V21.3014C87.8725 20.6897 87.8511 20.224 87.8083 19.9043C87.7798 19.5706 87.7371 19.2023 87.68 18.7991C87.6373 18.6045 87.6159 18.4585 87.6159 18.3612C87.6159 18.1388 87.901 17.972 88.4713 17.8607C89.0558 17.7495 89.569 17.6939 90.011 17.6939C90.2676 17.6939 90.4458 17.7912 90.5456 17.9859C90.6454 18.1666 90.7167 18.3682 90.7595 18.5906C90.8165 18.813 90.8521 18.9659 90.8664 19.0493C91.2086 18.6045 91.6648 18.2291 92.2351 17.9233C92.8053 17.6175 93.4112 17.4646 94.0528 17.4646C95.122 17.4646 95.9133 17.7426 96.4265 18.2986C96.9398 18.8408 97.1964 19.6888 97.1964 20.8427V27.9116C97.1964 28.3565 96.7687 28.5789 95.9133 28.5789H95.3145C94.4591 28.5789 94.0314 28.3565 94.0314 27.9116V21.3014C94.0314 20.8705 93.9316 20.5507 93.732 20.3422C93.5324 20.1198 93.2045 20.0086 92.7483 20.0086C92.3634 20.0086 92.0212 20.1337 91.7218 20.3839C91.4367 20.6202 91.2086 20.8983 91.0375 21.218V27.9116C91.0375 28.3565 90.6098 28.5789 89.7544 28.5789H89.1556Z" fill="#3B577F"/>
<path d="M104.93 28.704C103.048 28.704 101.644 28.2175 100.717 27.2444C99.8048 26.2573 99.3486 24.895 99.3486 23.1573C99.3486 21.1971 99.8048 19.7583 100.717 18.8408C101.644 17.9233 102.92 17.4646 104.545 17.4646C106.128 17.4646 107.29 17.965 108.031 18.9659C108.786 19.9668 109.164 21.2597 109.164 22.8445C109.164 23.0113 109.015 23.2615 108.715 23.5952C108.43 23.9149 108.216 24.0748 108.074 24.0748H102.62C102.692 24.8672 102.934 25.4302 103.348 25.7638C103.761 26.0975 104.338 26.2643 105.08 26.2643C105.479 26.2643 105.842 26.2226 106.17 26.1392C106.498 26.0419 106.84 25.9237 107.197 25.7847C107.425 25.6735 107.582 25.6179 107.667 25.6179C107.81 25.6179 107.967 25.7221 108.138 25.9307C108.323 26.1253 108.473 26.3547 108.587 26.6188C108.715 26.869 108.779 27.0636 108.779 27.2027C108.779 27.5224 108.558 27.8004 108.116 28.0367C107.674 28.2592 107.147 28.426 106.534 28.5372C105.921 28.6484 105.386 28.704 104.93 28.704ZM106.085 22.0104C106.085 21.3709 105.957 20.8635 105.7 20.4882C105.443 20.0989 105.058 19.9043 104.545 19.9043C103.49 19.9043 102.849 20.6063 102.62 22.0104H106.085Z" fill="#3B577F"/>
<path d="M114.747 28.704C112.666 28.704 111.625 27.578 111.625 25.3259V20.0711H111.283C111.055 20.0711 110.891 19.9877 110.791 19.8209C110.691 19.6541 110.641 19.3899 110.641 19.0285V18.674C110.641 18.3126 110.691 18.0484 110.791 17.8816C110.891 17.7148 111.055 17.6314 111.283 17.6314H111.625L111.903 15.6504C111.974 15.2055 112.359 14.9831 113.058 14.9831H113.721C114.433 14.9831 114.79 15.2055 114.79 15.6504V17.6314H115.838C116.066 17.6314 116.23 17.7148 116.33 17.8816C116.429 18.0484 116.479 18.3126 116.479 18.674V19.0285C116.479 19.3899 116.429 19.6541 116.33 19.8209C116.23 19.9877 116.066 20.0711 115.838 20.0711H114.79V25.3676C114.79 25.6874 114.847 25.9167 114.961 26.0558C115.089 26.1948 115.289 26.2643 115.56 26.2643C115.631 26.2643 115.724 26.2504 115.838 26.2226C115.966 26.1948 116.066 26.1809 116.137 26.1809C116.265 26.1809 116.38 26.2851 116.479 26.4937C116.579 26.7022 116.658 26.9316 116.715 27.1818C116.772 27.432 116.8 27.5988 116.8 27.6823C116.8 28.3634 116.116 28.704 114.747 28.704Z" fill="#3B577F"/>
<defs>
<linearGradient id="paint0_linear_1396_62215" x1="8.03183" y1="-4.27949" x2="35.0169" y2="42.8692" gradientUnits="userSpaceOnUse">
<stop offset="0.394669" stop-color="#E87D1B"/>
<stop offset="0.72037" stop-color="#D64D12"/>
<stop offset="0.749987" stop-color="#70AF09"/>
</linearGradient>
</defs>
</svg>
