<svg xmlns="http://www.w3.org/2000/svg" width="539" height="539"><defs><style>.cls-4{fill:#595959}.cls-5{fill:#e6e6e6}.cls-7{fill:#c9c9c9}.cls-8{fill:#efd4b7}.cls-9{fill:#303030}.cls-12{fill:#fffdfe}.cls-14{fill:#999}.cls-15{fill:#dbb89c}.cls-17{fill:#174652}.cls-18{fill:#547db5}.cls-19{fill:#fff}.cls-23{fill:#eed3b6}.cls-24{fill:#223d44}.cls-25{fill:#34495c}.cls-26{fill:#ab6865}.cls-27{fill:#ddd}.cls-28{fill:#c1c1c1}.cls-29{fill:#3f4d50}.cls-30{fill:#fcfdff}.cls-31{fill:#060606;opacity:.11}.cls-32{fill:#f1715b}.cls-34{fill:#d8d8d8}.cls-35{fill:#354042}.cls-38{fill:#324f61}.cls-39{fill:#ecc19c}.cls-40{fill:#eed3b7}.cls-41{fill:#dcb99d}</style></defs><g id="ILL_Win" transform="translate(-663.726 -864.252)"><circle id="Ellipse_1742" cx="187.529" cy="187.529" r="187.529" data-name="Ellipse 1742" transform="translate(745.698 946.223)" style="opacity:.204;fill:#d5d7db"/><circle id="Ellipse_1743" cx="269.5" cy="269.5" r="269.5" data-name="Ellipse 1743" transform="translate(663.726 864.252)" style="opacity:.152;fill:#d5d7db"/><g id="Layer_2" data-name="Layer 2" transform="translate(751.602 1254.551)"><ellipse id="Ellipse_1738" cx="182.062" cy="21.393" data-name="Ellipse 1738" rx="182.062" ry="21.393" style="opacity:.08"/></g><g id="Layer_3" data-name="Layer 3" transform="translate(765.392 932.251)"><path id="Path_30641" d="M1265.483 3579.677h-303.37c-3.369 0-6.926-1.7-7.287-6.646v-4.546l33.206-61.36a10.569 10.569 0 0 1 9.467-5.869h232.154c4.332 0 13.885 8.532 15.822 12.407l27.4 55.847v2.005c.062 5.817-3.698 8.162-7.392 8.162z" class="cls-4" data-name="Path 30641" transform="translate(-947.185 -3230.351)"/><path id="Path_30642" d="M1265.739 3518.762h-303.37c-3.369 0-8.914-2.954-6.831-6.586l32.751-65.967a10.569 10.569 0 0 1 9.467-5.869h232.154a11.435 11.435 0 0 1 10.229 6.323l32.42 64.874c2.272 4.137-3.125 7.225-6.82 7.225z" class="cls-5" data-name="Path 30642" transform="translate(-947.414 -3175.86)"/><path id="Rectangle_4934" d="M0 0h248.437v156.985H0z" class="cls-4" data-name="Rectangle 4934" transform="translate(41.944 107.814)"/><path id="Path_46582" d="M0 0h238.849v141.712H0z" data-name="Path 46582" transform="translate(46.693 113.536)" style="fill:#102154"/><path id="Path_30643" d="M2107.644 3922.682h-89.39a1.612 1.612 0 0 1-1.591-1.866l3.769-23.546a2.619 2.619 0 0 1 2.585-2.2h80.626a2.3 2.3 0 0 1 2.277 1.969l3.455 23.678a1.745 1.745 0 0 1-1.731 1.965z" class="cls-7" data-name="Path 30643" transform="translate(-1897.031 -3582.633)"/><g id="Group_2778" data-name="Group 2778" transform="translate(39.506 275.366)"><path id="Path_30644" d="M1387.382 3546.785h-9.7c-1.353 0-2.286-.4-2.086-.892l.591-1.452c.2-.485 1.441-.876 2.778-.876h9.587c1.337 0 2.282.392 2.11.876l-.515 1.452c-.174.492-1.412.892-2.765.892z" class="cls-7" data-name="Path 30644" transform="translate(-1363.068 -3543.565)"/><path id="Path_30645" d="M1542.115 3546.785h-9.7c-1.353 0-2.31-.4-2.138-.892l.506-1.452c.169-.485 1.389-.876 2.726-.876h9.587c1.337 0 2.3.392 2.161.876l-.43 1.452c-.145.492-1.36.892-2.712.892z" class="cls-7" data-name="Path 30645" transform="translate(-1501.443 -3543.565)"/><path id="Path_30646" d="M1696.838 3546.785h-9.7c-1.353 0-2.333-.4-2.191-.892l.42-1.452c.141-.485 1.338-.876 2.675-.876h9.587c1.337 0 2.328.392 2.213.876l-.344 1.452c-.116.492-1.307.892-2.66.892z" class="cls-7" data-name="Path 30646" transform="translate(-1639.809 -3543.565)"/><path id="Path_30647" d="M1851.552 3546.785h-9.7c-1.352 0-2.357-.4-2.243-.892l.335-1.452c.112-.485 1.286-.876 2.623-.876h9.587c1.337 0 2.351.392 2.265.876l-.259 1.452c-.088.492-1.26.892-2.608.892z" class="cls-7" data-name="Path 30647" transform="translate(-1778.165 -3543.565)"/><path id="Path_30648" d="M2006.255 3546.785h-9.7c-1.353 0-2.38-.4-2.3-.892l.25-1.452c.083-.485 1.235-.876 2.572-.876h9.587c1.337 0 2.374.392 2.316.876l-.173 1.452c-.055.492-1.199.892-2.552.892z" class="cls-7" data-name="Path 30648" transform="translate(-1916.511 -3543.565)"/><path id="Path_30649" d="M2160.949 3546.785h-9.7c-1.352 0-2.4-.4-2.348-.892l.164-1.452c.055-.485 1.183-.876 2.52-.876h9.586c1.337 0 2.4.392 2.368.876l-.088 1.452c-.028.492-1.151.892-2.502.892z" class="cls-7" data-name="Path 30649" transform="translate(-2054.849 -3543.565)"/><path id="Path_30650" d="M2315.635 3546.785h-9.7c-1.353 0-2.427-.4-2.4-.892l.079-1.452c.026-.485 1.132-.876 2.469-.876h9.587c1.337 0 2.42.392 2.419.876v1.452c-.004.492-1.101.892-2.454.892z" class="cls-7" data-name="Path 30650" transform="translate(-2193.177 -3543.565)"/><path id="Path_30651" d="M2470.253 3546.785h-9.7c-1.353 0-2.451-.4-2.453-.892l-.007-1.452c0-.485 1.079-.876 2.416-.876h9.587c1.337 0 2.443.392 2.471.876l.083 1.452c.03.492-1.044.892-2.397.892z" class="cls-7" data-name="Path 30651" transform="translate(-2331.438 -3543.565)"/><path id="Path_30652" d="M2624.195 3546.785h-9.7c-1.353 0-2.474-.4-2.506-.892l-.092-1.452c-.031-.485 1.028-.876 2.365-.876h9.587c1.337 0 2.466.392 2.522.876l.168 1.452c.061.492-.991.892-2.344.892z" class="cls-7" data-name="Path 30652" transform="translate(-2469.023 -3543.565)"/><path id="Path_30653" d="M2778.126 3546.785h-9.7c-1.352 0-2.5-.4-2.558-.892l-.177-1.452c-.059-.485.977-.876 2.314-.876h9.587c1.336 0 2.489.392 2.574.876l.254 1.452c.085.492-.941.892-2.294.892z" class="cls-7" data-name="Path 30653" transform="translate(-2606.596 -3543.565)"/><path id="Path_30654" d="M2932.048 3546.785h-9.7c-1.353 0-2.522-.4-2.611-.892l-.262-1.452c-.088-.485.925-.876 2.262-.876h9.586c1.337 0 2.513.392 2.626.876l.339 1.452c.112.492-.888.892-2.24.892z" class="cls-7" data-name="Path 30654" transform="translate(-2744.162 -3543.565)"/><path id="Path_30655" d="M3085.96 3546.785h-9.7c-1.353 0-2.545-.4-2.663-.892l-.349-1.452c-.117-.485.874-.876 2.21-.876h9.587c1.337 0 2.535.392 2.676.876l.425 1.452c.146.492-.833.892-2.186.892z" class="cls-7" data-name="Path 30655" transform="translate(-2881.716 -3543.565)"/><path id="Path_30656" d="M3239.864 3546.785h-9.7c-1.353 0-2.569-.4-2.715-.892l-.434-1.452c-.145-.485.822-.876 2.159-.876h9.587c1.337 0 2.559.392 2.729.876l.51 1.452c.173.492-.783.892-2.136.892z" class="cls-7" data-name="Path 30656" transform="translate(-3019.264 -3543.565)"/><path id="Path_30657" d="M3393.759 3546.785h-9.7c-1.353 0-2.592-.4-2.768-.892l-.52-1.452c-.173-.485.771-.876 2.107-.876h9.587c1.337 0 2.582.392 2.78.876l.6 1.452c.198.492-.734.892-2.086.892z" class="cls-7" data-name="Path 30657" transform="translate(-3156.8 -3543.565)"/><path id="Path_30658" d="M1370.045 3583.68h-12.377c-.308 0-.52-.093-.474-.208l1.835-4.528c.045-.111.327-.2.63-.2h12.161c.3 0 .516.09.476.2l-1.62 4.528c-.039.114-.323.208-.631.208z" class="cls-7" data-name="Path 30658" transform="translate(-1346.624 -3575.034)"/><path id="Path_30659" d="M1584.318 3638.249h-12.637c-.314 0-.539-.1-.5-.217l1.5-4.718c.037-.115.317-.209.626-.209h12.412c.309 0 .534.094.5.209l-1.281 4.718c-.023.12-.305.217-.62.217z" class="cls-7" data-name="Path 30659" transform="translate(-1538.048 -3623.663)"/><path id="Path_30660" d="M1601.513 3695.116h-12.907c-.322 0-.551-.1-.513-.226l1.507-4.92c.037-.12.323-.218.638-.218h12.673c.315 0 .546.1.515.218l-1.273 4.92c-.032.125-.319.226-.64.226z" class="cls-7" data-name="Path 30660" transform="translate(-1553.176 -3674.337)"/><path id="Path_30661" d="M1667.889 3754.43H1654.7c-.328 0-.565-.106-.53-.236l1.421-5.135c.035-.126.325-.228.647-.228h12.945c.322 0 .56.1.531.228l-1.176 5.135c-.03.13-.32.236-.649.236z" class="cls-7" data-name="Path 30661" transform="translate(-1612.286 -3727.185)"/><path id="Path_30662" d="M1271 3817.091h-13.442c-.357 0-.6-.117-.541-.263l2.471-6.1c.057-.139.386-.252.736-.252h13.155c.35 0 .593.113.543.252l-2.181 6.1c-.053.145-.385.263-.741.263z" class="cls-7" data-name="Path 30662" transform="translate(-1257.007 -3782.333)"/><path id="Path_30663" d="M1441.118 3817.091h-13.442c-.358 0-.606-.117-.556-.263l2.118-6.1c.048-.139.371-.252.721-.252h13.155c.35 0 .6.113.558.252l-1.827 6.1c-.045.145-.37.263-.727.263z" class="cls-7" data-name="Path 30663" transform="translate(-1409.176 -3782.333)"/><path id="Path_30664" d="M1606.1 3817.091h-13.442c-.357 0-.613-.117-.571-.263l1.775-6.1c.041-.139.357-.252.707-.252h13.155c.35 0 .606.113.572.252l-1.485 6.1c-.035.145-.354.263-.711.263z" class="cls-7" data-name="Path 30664" transform="translate(-1556.749 -3782.333)"/><path id="Path_30665" d="M1776.906 3817.091h-17.737c-.408 0-.708-.134-.668-.3l1.412-6.023c.037-.159.391-.288.791-.288h17.358c.4 0 .7.128.674.288l-1.038 6.023c-.03.165-.384.3-.792.3z" class="cls-7" data-name="Path 30665" transform="translate(-1705.614 -3782.333)"/><path id="Path_30666" d="M2804.728 3817.091h-17.737c-.408 0-.755-.134-.775-.3l-.711-6.023c-.019-.159.29-.288.689-.288h17.358c.4 0 .747.128.775.288l1.085 6.023c.03.165-.276.3-.684.3z" class="cls-7" data-name="Path 30666" transform="translate(-2624.323 -3782.333)"/><path id="Path_30667" d="M3009.9 3817.091h-13.252c-.355 0-.665-.117-.692-.261l-1.165-6.1c-.026-.138.234-.25.582-.25h12.969c.347 0 .656.112.688.25l1.451 6.1c.034.144-.227.261-.581.261z" class="cls-7" data-name="Path 30667" transform="translate(-2811.538 -3782.333)"/><path id="Path_30668" d="M2051.034 3817.091h-81.843c-.858 0-1.508-.282-1.451-.63l.877-5.375c.054-.335.78-.606 1.62-.606h80.095c.84 0 1.551.271 1.588.606l.6 5.375c.037.347-.627.63-1.486.63z" class="cls-7" data-name="Path 30668" transform="translate(-1892.79 -3782.333)"/><path id="Path_30669" d="M1830.207 3754.43h-13.189c-.328 0-.571-.106-.543-.236l1.13-5.135c.028-.126.311-.228.634-.228h12.945c.322 0 .566.1.545.228l-.885 5.135c-.024.13-.308.236-.637.236z" class="cls-7" data-name="Path 30669" transform="translate(-1757.476 -3727.185)"/><path id="Path_30670" d="M1992.524 3754.43h-13.189c-.328 0-.578-.106-.556-.236l.838-5.135c.021-.126.3-.228.621-.228h12.944c.323 0 .572.1.558.228l-.594 5.135c-.015.13-.294.236-.622.236z" class="cls-7" data-name="Path 30670" transform="translate(-1902.666 -3727.185)"/><path id="Path_30671" d="M2154.838 3754.43h-13.189c-.328 0-.583-.106-.569-.236l.547-5.135c.013-.126.286-.228.608-.228h12.945c.323 0 .578.1.571.228l-.3 5.135c-.012.13-.284.236-.613.236z" class="cls-7" data-name="Path 30671" transform="translate(-2047.853 -3727.185)"/><path id="Path_30672" d="M2317.148 3754.43h-13.189c-.328 0-.59-.106-.583-.236l.256-5.135c.006-.126.273-.228.6-.228h12.945c.323 0 .583.1.583.228l-.011 5.135c-.006.13-.272.236-.601.236z" class="cls-7" data-name="Path 30672" transform="translate(-2193.035 -3727.185)"/><path id="Path_30673" d="M2479.158 3754.43h-13.189c-.328 0-.6-.106-.6-.236l-.035-5.135c0-.126.26-.228.582-.228h12.945c.323 0 .589.1.6.228l.28 5.135c.006.13-.255.236-.583.236z" class="cls-7" data-name="Path 30673" transform="translate(-2337.918 -3727.185)"/><path id="Path_30674" d="M2638.993 3754.43H2625.8c-.328 0-.6-.106-.61-.236l-.326-5.135c-.008-.126.246-.228.569-.228h12.945c.323 0 .6.1.609.228l.571 5.135c.018.13-.237.236-.565.236z" class="cls-7" data-name="Path 30674" transform="translate(-2480.626 -3727.185)"/><path id="Path_30675" d="M2798.826 3754.43h-13.189c-.329 0-.607-.106-.623-.236l-.618-5.135c-.015-.126.234-.228.557-.228h12.947c.322 0 .6.1.622.228l.862 5.135c.016.13-.23.236-.558.236z" class="cls-7" data-name="Path 30675" transform="translate(-2623.33 -3727.185)"/><path id="Path_30676" d="M2958.656 3754.43h-13.189c-.329 0-.614-.106-.637-.236l-.909-5.135c-.022-.126.221-.228.543-.228h12.945c.323 0 .607.1.635.228l1.154 5.135c.03.13-.213.236-.542.236z" class="cls-7" data-name="Path 30676" transform="translate(-2766.034 -3727.185)"/><path id="Path_30677" d="M3176.066 3844.935h-10.279c-1.307 0-2.473-.431-2.6-.959l-.379-1.541c-.128-.522.815-.945 2.108-.945h10.165c1.292 0 2.464.422 2.618.945l.454 1.541c.153.524-.779.959-2.087.959z" class="cls-7" data-name="Path 30677" transform="translate(-2961.827 -3810.074)"/><path id="Path_30678" d="M3341.839 3844.935h-10.279c-1.307 0-2.5-.431-2.657-.959l-.467-1.541c-.158-.522.762-.945 2.054-.945h10.165c1.292 0 2.489.422 2.672.945l.542 1.541c.185.524-.723.959-2.03.959z" class="cls-7" data-name="Path 30678" transform="translate(-3109.986 -3810.074)"/><path id="Path_30679" d="M3330.767 3809.091h-10.151c-1.291 0-2.464-.42-2.62-.936l-.456-1.5c-.154-.509.756-.921 2.033-.921h10.039c1.277 0 2.456.412 2.635.921l.528 1.5c.181.516-.718.936-2.008.936z" class="cls-7" data-name="Path 30679" transform="translate(-3100.239 -3778.086)"/><path id="Path_30680" d="M3507.6 3844.935h-10.279c-1.307 0-2.521-.431-2.711-.959l-.555-1.541c-.187-.522.708-.945 2-.945h10.165c1.292 0 2.513.422 2.726.945l.629 1.541c.218.524-.665.959-1.975.959z" class="cls-7" data-name="Path 30680" transform="translate(-3258.136 -3810.074)"/><path id="Path_30681" d="M1761.832 3695.116h-12.907c-.322 0-.557-.1-.526-.226l1.225-4.92c.03-.12.31-.218.626-.218h12.672c.316 0 .552.1.528.218l-.991 4.92c-.025.125-.306.226-.627.226z" class="cls-7" data-name="Path 30681" transform="translate(-1696.579 -3674.337)"/><path id="Path_30682" d="M1922.148 3695.116h-12.907c-.322 0-.562-.1-.539-.226l.944-4.92c.023-.12.3-.218.613-.218h12.673c.315 0 .557.1.54.218l-.71 4.92c-.017.125-.293.226-.614.226z" class="cls-7" data-name="Path 30682" transform="translate(-1839.979 -3674.337)"/><path id="Path_30683" d="M2082.461 3695.116h-12.907c-.321 0-.568-.1-.552-.226l.662-4.92c.017-.12.286-.218.6-.218h12.673c.316 0 .563.1.553.218l-.428 4.92c-.01.125-.279.226-.601.226z" class="cls-7" data-name="Path 30683" transform="translate(-1983.376 -3674.337)"/><path id="Path_30684" d="M2241.792 3695.116h-12.907c-.321 0-.574-.1-.564-.226l.382-4.92c.01-.12.273-.218.589-.218h12.673c.316 0 .569.1.565.218l-.148 4.92c-.005.125-.268.226-.59.226z" class="cls-7" data-name="Path 30684" transform="translate(-2125.895 -3674.337)"/><path id="Path_30685" d="M2402.1 3695.116h-12.907c-.321 0-.58-.1-.577-.226l.1-4.92c0-.12.26-.218.576-.218h12.672c.316 0 .574.1.577.218l.134 4.92c.004.125-.253.226-.575.226z" class="cls-7" data-name="Path 30685" transform="translate(-2269.287 -3674.337)"/><path id="Path_30686" d="M2554.112 3695.116h-12.907c-.321 0-.585-.1-.59-.226l-.169-4.92c0-.12.248-.218.564-.218h12.673c.315 0 .579.1.589.218l.4 4.92c.014.125-.238.226-.56.226z" class="cls-7" data-name="Path 30686" transform="translate(-2405.107 -3674.337)"/><path id="Path_30687" d="M2710.579 3695.116h-12.907c-.321 0-.591-.1-.6-.226l-.448-4.92c-.011-.12.236-.218.551-.218h12.673c.315 0 .585.1.6.218l.682 4.92c.017.125-.23.226-.551.226z" class="cls-7" data-name="Path 30687" transform="translate(-2544.812 -3674.337)"/><path id="Path_30688" d="M2867.042 3695.116h-12.907c-.321 0-.6-.1-.615-.226l-.727-4.92c-.018-.12.224-.218.54-.218h12.673c.315 0 .59.1.614.218l.961 4.92c.019.125-.217.226-.539.226z" class="cls-7" data-name="Path 30688" transform="translate(-2684.515 -3674.337)"/><path id="Path_30689" d="M3022.539 3695.116h-12.907c-.322 0-.6-.1-.628-.226l-1-4.92c-.025-.12.211-.218.526-.218h12.67c.315 0 .6.1.626.218l1.238 4.92c.036.125-.203.226-.525.226z" class="cls-7" data-name="Path 30689" transform="translate(-2823.354 -3674.337)"/><path id="Path_30690" d="M3178.033 3695.116h-12.907c-.321 0-.608-.1-.641-.226l-1.281-4.92c-.031-.12.2-.218.515-.218h12.673c.316 0 .6.1.639.218l1.515 4.92c.038.125-.191.226-.513.226z" class="cls-7" data-name="Path 30690" transform="translate(-2962.191 -3674.337)"/><path id="Path_30691" d="M3116.922 3754.43h-13.189c-.328 0-.619-.106-.65-.236l-1.2-5.135c-.029-.126.208-.228.531-.228h12.945c.322 0 .612.1.647.228l1.442 5.135c.039.13-.198.236-.526.236z" class="cls-7" data-name="Path 30691" transform="translate(-2907.339 -3727.185)"/><path id="Path_30692" d="M3351.759 3695.116h-24.923c-.441 0-.843-.139-.9-.31l-1.516-4.755c-.053-.165.255-.3.689-.3h24.47c.433 0 .839.134.906.3l1.943 4.755c.072.171-.228.31-.669.31z" class="cls-7" data-name="Path 30692" transform="translate(-3106.406 -3674.337)"/><path id="Path_30693" d="M3296.8 3754.43h-34.152c-.52 0-.99-.167-1.049-.374l-1.408-4.865c-.058-.2.309-.361.82-.361h33.519c.51 0 .99.161 1.071.361l1.988 4.865c.087.206-.267.374-.789.374z" class="cls-7" data-name="Path 30693" transform="translate(-3048.95 -3727.185)"/><path id="Path_30694" d="M1336.791 3695.116H1311.6c-.444 0-.747-.139-.677-.311l1.926-4.752c.067-.166.475-.3.911-.3h24.733c.435 0 .746.135.694.3l-1.5 4.752c-.049.172-.453.311-.896.311z" class="cls-7" data-name="Path 30694" transform="translate(-1305.229 -3674.337)"/><path id="Path_30695" d="M1319.075 3754.43h-34.649c-.524 0-.88-.168-.8-.376l1.975-4.86c.081-.2.564-.363 1.078-.363h34.007c.514 0 .884.163.827.363l-1.387 4.86c-.055.207-.526.376-1.051.376z" class="cls-7" data-name="Path 30695" transform="translate(-1280.812 -3727.185)"/><path id="Path_30696" d="M1740.479 3638.249h-12.636c-.315 0-.544-.1-.513-.217l1.236-4.718c.031-.115.306-.209.615-.209h12.412c.309 0 .539.094.515.209l-1.012 4.718c-.027.12-.303.217-.617.217z" class="cls-7" data-name="Path 30696" transform="translate(-1677.73 -3623.663)"/><path id="Path_30697" d="M1895.677 3638.249h-12.636c-.315 0-.55-.1-.525-.217l.969-4.718c.024-.115.294-.209.6-.209h12.415c.309 0 .545.094.526.209l-.745 4.718c-.019.12-.289.217-.604.217z" class="cls-7" data-name="Path 30697" transform="translate(-1816.553 -3623.663)"/><path id="Path_30698" d="M2051.834 3638.249H2039.2c-.314 0-.555-.1-.537-.217l.7-4.718c.017-.115.282-.209.59-.209h12.412c.309 0 .55.094.538.209l-.476 4.718c-.013.12-.278.217-.593.217z" class="cls-7" data-name="Path 30698" transform="translate(-1956.233 -3623.663)"/><path id="Path_30699" d="M2207.99 3638.249h-12.636c-.315 0-.561-.1-.55-.217l.432-4.718c.01-.115.27-.209.579-.209h12.412c.309 0 .555.094.55.209l-.207 4.718c-.006.12-.27.217-.58.217z" class="cls-7" data-name="Path 30699" transform="translate(-2095.911 -3623.663)"/><path id="Path_30700" d="M2363.181 3638.249h-12.636c-.315 0-.567-.1-.562-.217l.165-4.718c0-.115.258-.209.567-.209h12.411c.31 0 .561.094.563.209l.06 4.718c.001.12-.249.217-.568.217z" class="cls-7" data-name="Path 30700" transform="translate(-2234.728 -3623.663)"/><path id="Path_30701" d="M2514.039 3638.249H2501.4c-.315 0-.572-.1-.574-.217l-.1-4.718c0-.115.246-.209.555-.209h12.419c.309 0 .566.094.574.209l.321 4.718c.005.12-.242.217-.556.217z" class="cls-7" data-name="Path 30701" transform="translate(-2369.58 -3623.663)"/><path id="Path_30702" d="M2669.17 3638.249h-12.637c-.314 0-.577-.1-.586-.217l-.366-4.718c-.009-.115.234-.209.543-.209h12.412c.309 0 .571.094.586.209l.591 4.718c.014.12-.229.217-.543.217z" class="cls-7" data-name="Path 30702" transform="translate(-2508.1 -3623.663)"/><path id="Path_30703" d="M2822.405 3638.249h-12.636c-.315 0-.583-.1-.6-.217l-.634-4.718c-.016-.115.223-.209.531-.209h12.412c.31 0 .577.094.6.209l.859 4.718c.021.12-.217.217-.532.217z" class="cls-7" data-name="Path 30703" transform="translate(-2644.926 -3623.663)"/><path id="Path_30704" d="M2973.117 3638.249h-12.637c-.315 0-.588-.1-.611-.217l-.9-4.718c-.022-.115.211-.209.52-.209h12.411c.309 0 .582.094.609.209l1.122 4.718c.032.12-.2.217-.514.217z" class="cls-7" data-name="Path 30704" transform="translate(-2779.497 -3623.663)"/><path id="Path_30705" d="M3130.133 3638.249H3117.5c-.314 0-.594-.1-.624-.217l-1.171-4.718c-.028-.115.2-.209.508-.209h12.411c.309 0 .588.094.622.209l1.4 4.718c.028.12-.199.217-.513.217z" class="cls-7" data-name="Path 30705" transform="translate(-2919.698 -3623.663)"/><path id="Path_30706" d="M3280.208 3638.249h-12.636c-.315 0-.6-.1-.635-.217l-1.434-4.718c-.035-.115.187-.209.5-.209h12.412c.309 0 .593.094.633.209l1.658 4.718c.038.12-.183.217-.498.217z" class="cls-7" data-name="Path 30706" transform="translate(-3053.701 -3623.663)"/><path id="Path_30707" d="M3434.7 3638.249h-12.636c-.315 0-.6-.1-.648-.217l-1.7-4.718c-.042-.115.175-.209.484-.209h12.412c.309 0 .6.094.645.209l1.928 4.718c.042.12-.173.217-.485.217z" class="cls-7" data-name="Path 30707" transform="translate(-3191.646 -3623.663)"/><path id="Path_30708" d="M1525.2 3583.68h-12.377c-.308 0-.526-.093-.486-.208l1.574-4.528c.038-.111.315-.2.618-.2h12.162c.3 0 .521.09.488.2l-1.358 4.528c-.035.114-.313.208-.621.208z" class="cls-7" data-name="Path 30708" transform="translate(-1485.408 -3575.034)"/><path id="Path_30709" d="M1675.652 3583.68h-12.377c-.308 0-.531-.093-.5-.208l1.32-4.528c.032-.111.3-.2.607-.2h12.161c.3 0 .527.09.5.2l-1.1 4.528c-.03.114-.303.208-.611.208z" class="cls-7" data-name="Path 30709" transform="translate(-1619.985 -3575.034)"/><path id="Path_30710" d="M1829.862 3583.68h-12.377c-.308 0-.536-.093-.51-.208l1.061-4.528c.026-.111.292-.2.6-.2h12.161c.3 0 .532.09.511.2l-.845 4.528c-.026.114-.293.208-.601.208z" class="cls-7" data-name="Path 30710" transform="translate(-1757.924 -3575.034)"/><path id="Path_30711" d="M1980.229 3583.68h-12.377c-.308 0-.541-.093-.521-.208l.806-4.528c.02-.111.281-.2.584-.2h12.161c.3 0 .537.09.522.2l-.591 4.528c-.013.114-.275.208-.584.208z" class="cls-7" data-name="Path 30711" transform="translate(-1892.426 -3575.034)"/><path id="Path_30712" d="M2135.3 3583.68h-12.38c-.308 0-.547-.093-.533-.208l.545-4.528c.014-.111.27-.2.573-.2h12.162c.3 0 .542.09.533.2l-.33 4.528c-.007.114-.264.208-.57.208z" class="cls-7" data-name="Path 30712" transform="translate(-2031.132 -3575.034)"/><path id="Path_30713" d="M2284.33 3583.68h-12.377c-.308 0-.552-.093-.545-.208l.294-4.528c.007-.111.258-.2.561-.2h12.162c.3 0 .547.09.545.2l-.078 4.528c-.002.114-.254.208-.562.208z" class="cls-7" data-name="Path 30713" transform="translate(-2164.438 -3575.034)"/><path id="Path_30714" d="M2439.159 3583.68h-12.377c-.308 0-.557-.093-.557-.208l.034-4.528c0-.111.247-.2.55-.2h12.162c.3 0 .552.09.556.2l.183 4.528c.004.114-.243.208-.551.208z" class="cls-7" data-name="Path 30714" transform="translate(-2302.93 -3575.034)"/><path id="Path_30715" d="M2587.729 3583.68h-12.377c-.308 0-.562-.093-.568-.208l-.22-4.528c0-.111.236-.2.539-.2h12.162c.3 0 .557.09.567.2l.436 4.528c.01.114-.231.208-.539.208z" class="cls-7" data-name="Path 30715" transform="translate(-2435.625 -3575.034)"/><path id="Path_30716" d="M2740.031 3583.68h-12.377c-.308 0-.568-.093-.58-.208l-.481-4.528c-.012-.111.225-.2.527-.2h12.161c.3 0 .563.09.579.2l.7 4.528c.014.114-.222.208-.529.208z" class="cls-7" data-name="Path 30716" transform="translate(-2571.623 -3575.034)"/><path id="Path_30717" d="M2892.021 3583.68h-12.377c-.308 0-.573-.093-.592-.208l-.741-4.528c-.018-.111.213-.2.516-.2h12.161c.3 0 .567.09.591.2l.956 4.528c.024.114-.206.208-.514.208z" class="cls-7" data-name="Path 30717" transform="translate(-2707.342 -3575.034)"/><path id="Path_30718" d="M3042.465 3583.68h-12.377c-.308 0-.579-.093-.6-.208l-1-4.528c-.025-.111.2-.2.5-.2h12.162c.3 0 .573.09.6.2l1.213 4.528c.037.114-.19.208-.498.208z" class="cls-7" data-name="Path 30718" transform="translate(-2841.68 -3575.034)"/><path id="Path_30719" d="M3187.038 3583.68h-12.377c-.308 0-.584-.093-.615-.208l-1.245-4.528c-.031-.111.19-.2.493-.2h12.162c.3 0 .577.09.613.2l1.461 4.528c.036.114-.184.208-.492.208z" class="cls-7" data-name="Path 30719" transform="translate(-2970.776 -3575.034)"/><path id="Path_30720" d="M3345.24 3583.68h-18.512c-.856 0-1.635-.258-1.741-.576l-1.261-3.8c-.1-.308.5-.558 1.338-.558h18.19c.841 0 1.625.25 1.751.558l1.551 3.8c.129.317-.456.576-1.316.576z" class="cls-7" data-name="Path 30720" transform="translate(-3105.778 -3575.034)"/><path id="Path_30721" d="M1356.006 3638.249h-18.9c-.874 0-1.474-.269-1.339-.6l1.606-3.961c.13-.322.932-.582 1.79-.582h18.564c.859 0 1.469.26 1.363.582l-1.3 3.961c-.112.331-.909.6-1.784.6z" class="cls-7" data-name="Path 30721" transform="translate(-1327.445 -3623.663)"/></g><path id="Path_30722" d="M1353.509 966.024a19.2 19.2 0 0 0 .907-1.925 6.155 6.155 0 0 0 .247-4.015 32.055 32.055 0 0 0-1.826-5.151 18.258 18.258 0 0 1 .662-8.189s9-11.208 19.712-2.5c0 0 10.414 8.183 2.337 20.963l-.9.907 5.184-.465 1.634 3.74-11.256 10.855-3.062-7.01s-6.025 3.071-7.229 1.355a1.715 1.715 0 0 1-.134-1.888s-.015-.2-.05-.515a6.705 6.705 0 0 1-.69-.849 29.071 29.071 0 0 0-2.257-3.041 5.987 5.987 0 0 0-1.853-.76c-.735-.217-1.802-.836-1.426-1.512z" class="cls-8" data-name="Path 30722" transform="translate(-1303.051 -940.017)"/><path id="Path_30723" d="M1339.924 946.734a.808.808 0 0 1-1.388.109c-.589-.843-1.92-3.316-.42-9.16a7.428 7.428 0 0 1 4.124-4.173 14.747 14.747 0 0 1 7.427-1.144 7.315 7.315 0 0 1 1.565.432 8.8 8.8 0 0 0 3.819.443 11.8 11.8 0 0 1 5.554.9 12.286 12.286 0 0 1 6.424 6.967s2.037 6.408 1.124 8.713a.6.6 0 0 0-.043.182c-.056.933-3.1 5.964-.279 11.322.092.176-.073.389-.236.5a4.24 4.24 0 0 1-4.945.042 6.987 6.987 0 0 1-2.353-3.228 9.375 9.375 0 0 1-.721-4.361 5.458 5.458 0 0 0-1.144-3.876.497.497 0 0 0-.038-.042c-.254-.258-2.765-2.726-3.877-.539a.559.559 0 0 1-.043.071 6.537 6.537 0 0 1-2.2 1.912 1.908 1.908 0 0 1-2.394-.66 26.818 26.818 0 0 1-2.651-4.08 8.205 8.205 0 0 1-.062-1.154 3.178 3.178 0 0 0-5.692-1.739 15.647 15.647 0 0 0-1.551 2.563z" class="cls-9" data-name="Path 30723" transform="translate(-1289.441 -932.252)"/><path id="Path_30724" d="M1044.349 2241.14s-.444 6.149-2.26 9.173l11.323.3s-1.335-3.545 1.048-8.19z" data-name="Path 30724" transform="translate(-1025.246 -2103.116)" style="fill:#cca992"/><path id="Path_30725" d="M901.321 2284.989a4.441 4.441 0 0 1-1.869-.811c-.372.271-.826.588-1.341.933a.509.509 0 0 1-.069.047 46.14 46.14 0 0 1-1.135.731c-.014.01-.027.014-.041.025-.153.1-.311.193-.476.294a.983.983 0 0 0-.1.061c-.351.212-.721.427-1.1.635l-.245.134c-.143.08-.293.158-.442.237-.109.06-.218.119-.333.177-.311.162-.631.329-.959.475-.156.084-.324.16-.485.236a26.471 26.471 0 0 1-4 1.506c-.242.071-.484.143-.737.2-4.851 1.187-5.589 3.715-5.614 5.052a3.137 3.137 0 0 0 .1.892 10.972 10.972 0 0 0 4.187 1.562c8.93 1.331 23.513-1.714 23.513-1.714s1.153-1.068 1.164-3.862v-.4c0-.189-.624-5.559-.934-7.1a47.917 47.917 0 0 1-6.514.841c-.3.024-.582.034-.833.035-.169 0-.332 0-.481-.008a4.989 4.989 0 0 1-.791-.089h-.024l-.092-.013a.053.053 0 0 0-.03-.011z" data-name="Path 30725" transform="translate(-882.367 -2141.616)" style="fill:#af6861"/><path id="Path_30726" d="M886.71 2379.189a12.131 12.131 0 0 1-4.249-1.522 4.1 4.1 0 0 0-.093.783 3.124 3.124 0 0 0 .1.892 11.07 11.07 0 0 0 4.2 1.565c8.927 1.327 23.513-1.718 23.513-1.718a3.842 3.842 0 0 0 .858-1.637c-3.792.717-16.216 2.848-24.329 1.637z" class="cls-12" data-name="Path 30726" transform="translate(-882.367 -2225.144)"/><path id="Path_30727" d="M1022.948 2295.542a.7.7 0 0 1-.943.188l-3.859-1.79c.407-.254.787-.5 1.135-.731l3.2 1.487c.388.182.603.558.467.846z" class="cls-12" data-name="Path 30727" transform="translate(-1003.828 -2149.695)"/><path id="Path_30728" d="M1006.32 2305.329a.692.692 0 0 1-.943.195l-3.559-1.659c.381-.208.752-.424 1.1-.635a.971.971 0 0 1 .1-.061l2.83 1.322c.399.181.608.557.472.838z" class="cls-12" data-name="Path 30728" transform="translate(-989.222 -2158.603)"/><path id="Path_30729" d="M987.421 2315.347a.691.691 0 0 1-.944.2l-3.435-1.6c.329-.146.648-.313.959-.475.116-.058.224-.117.333-.177l2.632 1.223c.388.173.596.548.455.829z" class="cls-12" data-name="Path 30729" transform="translate(-972.426 -2167.655)"/><path id="Path_30730" d="m1056.417 1849.767-5.058-.455s2.274-50.985 13.414-50.019c7.5.65.568 23.767.568 23.767z" data-name="Path 30730" transform="translate(-1033.539 -1707.851)" style="fill:#12373f"/><rect id="Rectangle_4936" width="40.256" height="4.75" class="cls-14" data-name="Rectangle 4936" rx="2.375" transform="rotate(180 33.214 44.628)"/><path id="Path_30731" d="m944.633 1438.152 20.878 32.741a.712.712 0 0 1-.218.983l-.612.39a.712.712 0 0 1-.983-.218l-20.878-32.741a.712.712 0 0 1 .218-.984l.612-.39a.712.712 0 0 1 .983.219z" class="cls-14" data-name="Path 30731" transform="translate(-936.345 -1384.51)"/><path id="Path_30732" d="M1102.563 2257.311s-.444 6.149-2.26 9.173l11.323.3s-1.335-3.546 1.048-8.19z" class="cls-15" data-name="Path 30732" transform="translate(-1077.322 -2117.582)"/><path id="Path_30733" d="M959.535 2301.16a4.442 4.442 0 0 1-1.87-.81c-.372.271-.826.588-1.34.933a.544.544 0 0 1-.069.047 46.14 46.14 0 0 1-1.135.731c-.014.01-.027.015-.041.025-.153.1-.311.193-.476.294a.951.951 0 0 0-.1.061c-.351.212-.721.428-1.1.636l-.245.134c-.143.08-.293.158-.442.237-.109.06-.218.119-.333.177-.312.162-.631.329-.96.475-.156.084-.324.16-.485.237a26.486 26.486 0 0 1-4 1.506c-.242.072-.484.142-.737.2-4.851 1.187-5.589 3.715-5.614 5.052a3.13 3.13 0 0 0 .1.892 10.971 10.971 0 0 0 4.187 1.563c8.93 1.331 23.513-1.714 23.513-1.714s1.153-1.068 1.164-3.862v-.4c0-.188-.624-5.559-.933-7.1a47.978 47.978 0 0 1-6.514.84c-.3.024-.582.034-.833.035-.169 0-.332 0-.482-.008a5.1 5.1 0 0 1-.79-.089h-.024l-.092-.014a.051.051 0 0 0-.03-.011z" data-name="Path 30733" transform="translate(-934.443 -2156.083)" style="fill:#9d574c"/><path id="Path_30734" d="M944.924 2395.36a12.127 12.127 0 0 1-4.249-1.521 4.1 4.1 0 0 0-.093.782 3.13 3.13 0 0 0 .1.892 11.073 11.073 0 0 0 4.2 1.565c8.927 1.327 23.513-1.718 23.513-1.718a3.843 3.843 0 0 0 .858-1.637c-3.792.716-16.216 2.844-24.329 1.637z" class="cls-12" data-name="Path 30734" transform="translate(-934.442 -2239.609)"/><path id="Path_30735" d="M1081.162 2311.712a.7.7 0 0 1-.943.188l-3.859-1.79c.407-.255.787-.5 1.134-.731l3.2 1.487c.389.182.606.558.468.846z" class="cls-12" data-name="Path 30735" transform="translate(-1055.903 -2164.16)"/><path id="Path_30736" d="M1064.533 2321.5a.693.693 0 0 1-.944.2l-3.559-1.659c.382-.208.752-.423 1.1-.635a1.029 1.029 0 0 1 .1-.061l2.83 1.322c.4.175.609.551.473.833z" class="cls-12" data-name="Path 30736" transform="translate(-1041.296 -2173.068)"/><path id="Path_30737" d="M1045.635 2331.517a.69.69 0 0 1-.944.2l-3.435-1.6c.329-.146.648-.313.959-.475.116-.058.224-.117.333-.177l2.632 1.223c.388.173.596.548.455.829z" class="cls-12" data-name="Path 30737" transform="translate(-1024.501 -2182.119)"/><path id="Path_30738" d="M1094.623 1786.911c.951-6.309 2.291-11.752 8.084-12.021 8.26-.383 13.294-.326 22.508-.17.911.015 7.4.512 9.839-.528 13.455 6.461 21.31 8.537 25.428 9.165a38.72 38.72 0 0 1-.481 2.531c-.784 3.446-6.119 7.343-9.726 7.556-6.143.363-13.936 0-20.032 0-7.154.032-16.061 0-20.327-.17v3.472c.015 9.619-3.241 31.01-3.415 32.007-7.8.426-9.762-.575-16.214-.746-1.038-.027.91-15.257 1.023-16.029 1.252-8.526 1.649-16.256 3.313-25.067z" class="cls-17" data-name="Path 30738" transform="translate(-1068.091 -1685.409)"/><path id="Path_30739" d="M1433.209 1208.04c.624-.757.624-.757 4.779-4.795 3.134-2.725 5.081-4.5 7.43-6.468 2.188 3.95 1.581 3.059 3.55 6.993 3.714 8.259 4.4 9.464 6.309 16.029 3.234 11.153 5.819 22.18 5.6 33.791-.048 2.494-.108 5.2-.3 7.9a61.706 61.706 0 0 1-.587 5.342c-4.118-.629-11.974-2.7-25.428-9.165a2.3 2.3 0 0 0 .563-.325l-2.813-28.221c-.842 1.062-1.944 2.326-3.107 3.643l-4.406-6.19c4.044-5.363 3.587-12.679 8.41-18.534z" class="cls-18" data-name="Path 30739" transform="translate(-1367.601 -1168.882)"/><g id="Group_2779" data-name="Group 2779" transform="translate(25.713 70.964)"><path id="Path_30740" d="m1217.187 1609.592-3.033 3.105-4.3-4.124 3.195-3.369z" class="cls-8" data-name="Path 30740" transform="translate(-1201.036 -1605.205)"/><path id="Path_30741" d="m1135.684 1630.885 3.665 4.664s-.662 4.37-1.632 5.393c0 0-1.595 3.234-4.329 3.519 0 0-2.507.487-2.2-.85 0 0-3.242-.238-2.115-2.408 0 0-3.494-.278-1.705-3.073 0 0-2.455-.738-.237-2.659a6.274 6.274 0 0 0 1.293-2.106 3.381 3.381 0 0 1 3.359-1.652 4.725 4.725 0 0 0 3.901-.828z" class="cls-8" data-name="Path 30741" transform="translate(-1126.202 -1628.177)"/></g><path id="Path_30742" d="m1211.629 1417.662 19.547-14.363s4.633-3.9 5.938-6.113c2.453-4.166 1.9-2.833 1.946-3.933l6.437 3.5c-.351 2.881-.759 5.976-.866 8.229-.2 4.194-4.268 6.727-4.268 6.727l-22.518 15.088z" class="cls-18" data-name="Path 30742" transform="translate(-1176.908 -1344.64)"/><path id="Path_30743" d="m1200.516 1602.215 6.064 8.451a1.309 1.309 0 0 1-.3 1.821l-1.91 1.37a1.308 1.308 0 0 1-1.821-.3l-6.064-8.451a1.309 1.309 0 0 1 .3-1.821l1.91-1.371a1.309 1.309 0 0 1 1.821.301z" class="cls-19" data-name="Path 30743" transform="translate(-1163.144 -1531.081)"/><path id="Path_30744" d="M3106.184 1829.391a4.13 4.13 0 0 0-.681-1.889l.041-.085-.186-.142a16.234 16.234 0 0 0-4.758-4.275 64.651 64.651 0 0 0-5.567-3.556c-3.746-2.668-12.362-7.6-12.362-7.6h-31.429s-7.436 4.929-11.181 7.6a64.632 64.632 0 0 0-5.561 3.556 16.233 16.233 0 0 0-4.754 4.277l-.185.142.041.085a4.122 4.122 0 0 0-.681 1.889c-1.177 3.115 3.946 12.808 3.946 12.808l13.518 30.913c8.2 1.246 8.791-1.854 8.791-1.854-.208-1.766-2.168-12.97-2.168-12.97a55.547 55.547 0 0 0-9.593-20.9 1.376 1.376 0 0 1 .64-2.082c1.6-.6 3.282-1.252 4.926-1.917a95.927 95.927 0 0 0 13.313-6.42l10.572.033c0 .044.043.07.134.08a96.844 96.844 0 0 0 13.126 6.308c1.723.7 3.486 1.377 5.155 2a1.206 1.206 0 0 1 .58 1.8c-2.031 3.06-6.226 9.089-9.074 20.9 0 0-2.277 11.253-2.484 13.018 0 0 .215 3.249 8.42 2l13.518-30.913s5.12-9.691 3.943-12.806z" data-name="Path 30744" transform="translate(-2802.406 -1719.092)" style="fill:#c59a85"/><path id="Path_30745" d="m3277.508 1339.291-6.341-2.341c-4.748-1.563-3.726-4.295-3.726-4.295h-9.84s1.022 2.732-3.726 4.295l-6.341 2.343 14.988 1.8z" data-name="Path 30745" transform="translate(-2998.123 -1290.432)" style="fill:#ddb99d"/><path id="Path_30746" d="M3307.606 1362.694h.032l2.774 14.319.02.1 2.243 11.582.788 18.734h4.87l1.121-18.038 2.37-12.234 2.774-14.337a7.081 7.081 0 0 0-2.135-.757s.536 3.869-5.545 4.024c-6.833.175-6.921-4.024-6.921-4.024a13.965 13.965 0 0 0-2.423.633h.032z" class="cls-12" data-name="Path 30746" transform="translate(-3051.833 -1316.737)"/><path id="Path_30747" d="m3168.006 1395.239-3.973-15.074c-2.549-10.177-16.533-12.947-16.533-12.947l-8.42 43.26-8.147-43.375s-14.257 2.885-16.806 13.062l-3.973 15.074a19.441 19.441 0 0 0-.163 7.305 10.957 10.957 0 0 0 2.07 4.9l3.232 4.3 6.839-1.495-4.146-7.074a17.635 17.635 0 0 1 .608-4.545l3.535-8.54 1.378 13.651.6 10.312h29.936l.605-10.312 1.378-13.651 3.535 8.54a17.631 17.631 0 0 1 .608 4.545l-4.146 7.074 6.839 1.495 3.232-4.3a10.957 10.957 0 0 0 2.07-4.9 19.45 19.45 0 0 0-.158-7.305z" data-name="Path 30747" transform="translate(-2874.857 -1321.247)" style="fill:#e06b26"/><ellipse id="Ellipse_1739" cx="12.403" cy="17.703" class="cls-8" data-name="Ellipse 1739" rx="12.403" ry="17.703" transform="translate(252.329 9.233)"/><path id="Path_30748" d="M3262.362 1002.369a24.222 24.222 0 0 1 .917-10.142c.848-2.419 1.994-5.333 4.359-6.323 2.932-1.227.894.77 7.009-.437 2.614-.516 5.045-1.827 9.276-.624 0 0 4.158 1.27 5.39 10.714 0 .014 0 .027.006.041a29.944 29.944 0 0 1 .353 6.562c-.034.61-.627 3.552-1.119 3.914-.76.559-.77-.109-.84-.141-.253-.114.331-3.579.293-3.855-.219-1.582-1.339-6.583-3.921-7.832-.015-.007-1.62-.545-4.279.748-5.132 2.495-7.538.3-8.2.114-.045-.013-.823-.47-.865-.49-.5-.243-3.448-1.458-4.915 1.256a.82.82 0 0 1-.052.085c-.195.275-1.5 2.153-1.98 6.432-.028.255.567 3.337.5 3.646 0 0-.755.375-.873-.109a16.519 16.519 0 0 1-1.059-3.559z" class="cls-9" data-name="Path 30748" transform="translate(-3011.249 -978.856)"/><path id="Path_30749" d="M3297.683 1187.781a16.534 16.534 0 0 1-1.165 4.457c-.157.351-.3.676-.438.977-.864 1.9-3.165 3.084-5 2.081a7.906 7.906 0 0 0-3.875-1.38l-1.223.015-1.223-.015a7.9 7.9 0 0 0-3.875 1.38c-1.831 1-4.132-.18-5-2.081-.136-.3-.281-.626-.438-.977a16.516 16.516 0 0 1-1.165-4.457h-.9a30.848 30.848 0 0 0 .663 4.829s1.746 12.211 11.427 12.867c0 0 .171.02.472.022h.063c.3 0 .472-.022.472-.022 9.68-.657 11.427-12.867 11.427-12.867a30.79 30.79 0 0 0 .663-4.829z" class="cls-9" data-name="Path 30749" transform="translate(-3021.257 -1160.835)"/><path id="Path_30750" d="M3532.577 2378.41s-.288 5.313.938 8.1l-9.727-.973a9.279 9.279 0 0 0-.007-7.126z" class="cls-23" data-name="Path 30750" transform="translate(-3245.241 -2225.911)"/><path id="Path_30751" d="M3180.593 2370.239s.288 5.313-.938 8.1l9.727-.974a9.278 9.278 0 0 1 .007-7.125z" class="cls-23" data-name="Path 30751" transform="translate(-2937.404 -2218.602)"/><path id="Path_30752" d="M3067.578 2428.118a3.829 3.829 0 0 1-1.689-.491c-.289.273-.643.594-1.046.945a.5.5 0 0 1-.054.048c-.272.235-.571.487-.892.75-.011.01-.022.015-.032.026-.12.1-.245.2-.375.3a.8.8 0 0 0-.081.064c-.278.219-.571.445-.875.664l-.2.141a14.57 14.57 0 0 1-.353.251c-.087.063-.173.125-.266.188-.25.172-.5.35-.77.511-.125.09-.26.172-.39.256a22.833 22.833 0 0 1-3.262 1.724c-.2.088-.4.175-.609.251-4.024 1.544-4.381 3.788-4.257 4.936a2.7 2.7 0 0 0 .179.753 9.474 9.474 0 0 0 3.754.882c7.791.169 19.945-4.023 19.945-4.023a4.637 4.637 0 0 0 .577-3.433 9.437 9.437 0 0 0-.048-.344c-.023-.161-1.138-4.691-1.571-5.98a41.262 41.262 0 0 1-5.485 1.427 9.885 9.885 0 0 1-.709.121c-.145.019-.285.032-.413.045a4.29 4.29 0 0 1-.687.01h-.1a.049.049 0 0 0-.027-.006z" class="cls-24" data-name="Path 30752" transform="translate(-2823.578 -2268.964)"/><path id="Path_30753" d="M3056.234 2508.91a10.462 10.462 0 0 1-3.8-.841 3.572 3.572 0 0 0 .005.68 2.709 2.709 0 0 0 .179.753 9.551 9.551 0 0 0 3.766.883c7.787.167 19.944-4.026 19.944-4.026a3.327 3.327 0 0 0 .557-1.5c-3.168 1.031-13.573 4.203-20.651 4.051z" class="cls-25" data-name="Path 30753" transform="translate(-2823.583 -2339.031)"/><path id="Path_30754" d="M3520.444 2436.288a3.832 3.832 0 0 0 1.689-.491c.289.273.643.593 1.046.945a.425.425 0 0 0 .055.048c.271.235.571.488.891.75.011.01.022.015.032.026.12.1.245.2.375.3a.817.817 0 0 1 .081.063c.277.219.571.445.875.664l.2.141c.114.084.233.168.353.251.087.063.173.125.266.188.249.172.5.35.77.511.125.089.26.172.39.255a22.884 22.884 0 0 0 3.262 1.724c.2.088.4.175.609.251 4.024 1.543 4.381 3.788 4.258 4.936a2.718 2.718 0 0 1-.179.753 9.472 9.472 0 0 1-3.755.882c-7.79.169-19.945-4.023-19.945-4.023a4.636 4.636 0 0 1-.577-3.433c.014-.113.028-.226.047-.344.024-.161 1.138-4.692 1.571-5.98a41.347 41.347 0 0 0 5.485 1.427c.259.054.495.092.71.121.144.019.284.032.413.046a4.322 4.322 0 0 0 .687.01h.1a.045.045 0 0 1 .026-.006z" class="cls-24" data-name="Path 30754" transform="translate(-3233.875 -2276.272)"/><path id="Path_30755" d="M3532.381 2517.08a10.461 10.461 0 0 0 3.8-.841 3.578 3.578 0 0 1-.005.681 2.711 2.711 0 0 1-.179.753 9.56 9.56 0 0 1-3.766.883c-7.788.166-19.945-4.026-19.945-4.026a3.316 3.316 0 0 1-.557-1.5c3.171 1.03 13.571 4.201 20.652 4.05z" class="cls-25" data-name="Path 30755" transform="translate(-3234.464 -2346.339)"/><rect id="Rectangle_4938" width="13.077" height="4.907" class="cls-26" data-name="Rectangle 4938" rx="2.454" transform="translate(240.701 149.103)"/><rect id="Rectangle_4939" width="13.077" height="4.907" class="cls-26" data-name="Rectangle 4939" rx="2.454" transform="rotate(180 144.888 77.077)"/><rect id="Rectangle_4940" width="53.992" height="33.975" class="cls-5" data-name="Rectangle 4940" rx="16.987" transform="translate(237.847 60.812)"/><g id="Group_2781" data-name="Group 2781" transform="translate(238.282 61.704)"><g id="Group_2780" data-name="Group 2780"><path id="Path_30756" d="M3142.01 1549.41a2.437 2.437 0 0 0 2.031 1.106h49.132a2.427 2.427 0 0 0 2.405-2.45v-29.114a2.4 2.4 0 0 0-.557-1.558z" class="cls-27" data-name="Path 30756" transform="translate(-3142.01 -1517.394)"/></g></g><rect id="Rectangle_4941" width="54.565" height="3.067" class="cls-28" data-name="Rectangle 4941" rx="1.533" transform="translate(237.588 94.684)"/><g id="_001-apple-logo" data-name="001-apple-logo" transform="translate(119.336 128.288)"><g id="Group_2551" data-name="Group 2551"><path id="Path_19453" d="M31.044 0h.721A21.693 21.693 0 0 1 26.3 16.348c-3.252 3.839-7.7 7.563-14.907 7-.479-7.048 2.253-11.986 5.562-15.848A24.018 24.018 0 0 1 31.044 0z" class="cls-19" data-name="Path 19453" transform="translate(29.746)"/><path id="Path_19454" d="M84.7 55.424v.2a58.942 58.942 0 0 1-8.434 16.26c-3.216 4.426-7.158 10.383-14.2 10.383-6.081 0-10.12-3.91-16.353-4.017-6.593-.107-10.218 3.27-16.246 4.119h-2.055c-4.426-.641-8-4.146-10.6-7.3A64 64 0 0 1 2.1 38.249v-4.534C2.571 22.674 7.936 13.7 15.067 9.346a21.892 21.892 0 0 1 14.7-3.4 36.975 36.975 0 0 1 7.2 2.064c2.1.805 4.715 2.233 7.2 2.158 1.682-.049 3.354-.925 5.049-1.544 4.965-1.793 9.831-3.848 16.246-2.883 7.708 1.159 13.18 4.588 16.561 9.873C75.5 19.765 70.345 26.019 71.226 36.7c.783 9.7 6.424 15.379 13.474 18.724z" class="cls-19" data-name="Path 19454" transform="translate(-2.104 18.938)"/></g></g></g><g id="Layer_5" data-name="Layer 5" transform="translate(807.729 1099.59)"><g id="Group_2798" data-name="Group 2798" transform="translate(170.694 69.077)"><path id="Path_30793" d="M3091.04 4131.883s-4.237-2.664-5.861-2.664h-32.809c-1.624 0-5.861 2.664-5.861 2.664 0 1.624-.557 3.241 1.067 3.241h42.4c1.624 0 1.064-1.618 1.064-3.241z" class="cls-29" data-name="Path 30793" transform="translate(-3031.247 -4028.51)"/><path id="Path_30794" d="m3160.5 3571.816-5.036-4.312c-4.2-1.949-4.113-4.982-4.113-4.982h-8.712s.124 3.006-4.081 4.956l-3.524 4.324 12.2-.182z" class="cls-15" data-name="Path 30794" transform="translate(-3110.522 -3521.573)"/><path id="Path_30795" d="M3373.875 4543.735s-.313 5.784 1.021 8.818l-10.589-1.061a10.1 10.1 0 0 0-.008-7.757z" class="cls-23" data-name="Path 30795" transform="translate(-3315.609 -4399.315)"/><path id="Path_30796" d="M3042.109 4536.323s.313 5.784-1.021 8.818l10.589-1.061a10.1 10.1 0 0 1 .008-7.757z" class="cls-23" data-name="Path 30796" transform="translate(-3026.48 -4392.686)"/><path id="Path_30797" d="M2919.075 4599.333a4.17 4.17 0 0 1-1.839-.535c-.315.3-.7.646-1.139 1.029a.551.551 0 0 1-.059.052c-.3.257-.622.531-.971.816-.012.012-.024.017-.036.029-.131.109-.267.216-.408.33a1.057 1.057 0 0 0-.089.069c-.3.239-.621.484-.952.723l-.213.153a14.49 14.49 0 0 1-.384.273 7.736 7.736 0 0 1-.29.205c-.271.188-.549.381-.838.556-.136.1-.283.187-.425.278a24.891 24.891 0 0 1-3.551 1.877c-.217.095-.435.189-.663.273-4.381 1.68-4.77 4.124-4.635 5.373a2.933 2.933 0 0 0 .2.82 10.313 10.313 0 0 0 4.087.96c8.481.184 21.713-4.38 21.713-4.38s.948-1.131.628-3.737c-.016-.123-.031-.246-.051-.375-.027-.175-1.24-5.106-1.711-6.51a44.973 44.973 0 0 1-5.972 1.555c-.281.058-.538.1-.772.131-.157.021-.31.036-.45.05a4.81 4.81 0 0 1-.747.011h-.111a.048.048 0 0 0-.029-.007z" class="cls-17" data-name="Path 30797" transform="translate(-2902.564 -4447.511)"/><path id="Path_30798" d="M2906.726 4687.287a11.4 11.4 0 0 1-4.14-.916 3.859 3.859 0 0 0 .006.741 2.932 2.932 0 0 0 .2.82 10.41 10.41 0 0 0 4.1.962c8.478.181 21.712-4.383 21.712-4.383a3.615 3.615 0 0 0 .606-1.628c-3.45 1.117-14.779 4.568-22.484 4.404z" class="cls-19" data-name="Path 30798" transform="translate(-2902.57 -4523.79)"/><path id="Path_30799" d="M3023.812 4620.838a.655.655 0 0 1-.857.287l-3.809-1.211a42.3 42.3 0 0 0 .971-.816l3.16 1.008c.383.123.623.448.535.732z" class="cls-19" data-name="Path 30799" transform="translate(-3006.852 -4466.731)"/><path id="Path_30800" d="M3009.437 4631.856a.649.649 0 0 1-.856.293l-3.513-1.125c.331-.239.65-.483.952-.723a.93.93 0 0 1 .088-.069l2.794.9c.388.122.627.447.535.724z" class="cls-19" data-name="Path 30800" transform="translate(-2994.258 -4476.692)"/><path id="Path_30801" d="M2992.963 4643.343a.65.65 0 0 1-.857.294l-3.391-1.088c.289-.176.567-.37.838-.557.1-.068.2-.136.29-.205l2.6.83c.379.123.619.448.52.726z" class="cls-19" data-name="Path 30801" transform="translate(-2979.63 -4487.028)"/><path id="Path_30802" d="M3360.666 4606.742a4.159 4.159 0 0 0 1.838-.534c.315.3.7.645 1.139 1.028a.442.442 0 0 0 .059.052c.3.256.622.531.971.816.012.011.024.017.035.028.131.108.267.217.409.331a.767.767 0 0 1 .088.069c.3.239.621.484.953.722l.212.154c.125.09.254.182.385.272a5.5 5.5 0 0 0 .29.2c.271.188.549.381.838.556.135.1.283.188.424.278a24.923 24.923 0 0 0 3.551 1.877c.217.1.435.189.663.274 4.381 1.68 4.77 4.123 4.635 5.373a2.965 2.965 0 0 1-.2.821 10.321 10.321 0 0 1-4.087.96c-8.481.184-21.713-4.38-21.713-4.38s-.948-1.131-.628-3.737c.015-.124.031-.246.052-.375.026-.175 1.24-5.107 1.711-6.509a45.142 45.142 0 0 0 5.971 1.554c.281.058.538.1.772.131.157.021.31.035.45.05a4.863 4.863 0 0 0 .747.011h.11a.052.052 0 0 1 .029-.006z" class="cls-17" data-name="Path 30802" transform="translate(-3303.234 -4454.141)"/><path id="Path_30803" d="M3373.662 4694.7a11.384 11.384 0 0 0 4.14-.915 3.922 3.922 0 0 1-.006.741 2.936 2.936 0 0 1-.2.82 10.4 10.4 0 0 1-4.1.961c-8.478.181-21.712-4.383-21.712-4.383a3.615 3.615 0 0 1-.606-1.627c3.451 1.112 14.779 4.565 22.484 4.403z" class="cls-19" data-name="Path 30803" transform="translate(-3303.876 -4530.419)"/><path id="Path_30804" d="M3442.77 4628.249a.655.655 0 0 0 .856.288l3.809-1.212c-.349-.286-.675-.56-.971-.816l-3.159 1.007c-.383.124-.628.449-.535.733z" class="cls-19" data-name="Path 30804" transform="translate(-3385.787 -4473.36)"/><path id="Path_30805" d="M3459.652 4639.269a.651.651 0 0 0 .856.293l3.513-1.126c-.331-.238-.65-.483-.952-.722a.932.932 0 0 0-.089-.069l-2.794.9c-.386.12-.627.446-.534.724z" class="cls-19" data-name="Path 30805" transform="translate(-3400.888 -4483.323)"/><path id="Path_30806" d="M3477.136 4650.754a.649.649 0 0 0 .857.293l3.392-1.088c-.289-.175-.567-.369-.838-.557-.1-.068-.2-.135-.289-.2l-2.6.829c-.382.12-.62.445-.522.723z" class="cls-19" data-name="Path 30806" transform="translate(-3416.527 -4493.658)"/><path id="Path_30807" d="m3155.886 3640.147-11.782 33.209-11.771-33.176 11.787-.427z" class="cls-30" data-name="Path 30807" transform="translate(-3108.103 -3590.66)"/><path id="Path_30808" d="m3260.615 3607.26 7.148 7.3 2.578-10.351-3.632-.859z" class="cls-31" data-name="Path 30808" transform="translate(-3222.858 -3558.099)"/><g id="Group_2795" data-name="Group 2795" transform="translate(32.291 48.829)"><g id="Group_2794" data-name="Group 2794"><g id="Group_2792" data-name="Group 2792" transform="translate(2.065)"><path id="Path_30809" d="M3232.357 3639.93a.727.727 0 0 1-.584.207h-1.752a.726.726 0 0 1-.584-.207l-1-1.949c-.2-.379.072-.734.625-.734h3.676c.554 0 .82.355.625.734z" class="cls-32" data-name="Path 30809" transform="translate(-3228.37 -3637.247)"/></g><g id="Group_2793" data-name="Group 2793" transform="translate(0 2.643)"><path id="Path_30810" d="M3217.958 3705.356h-9.174l2.119-29.223 1-13.825h2.93l1.037 14.3z" class="cls-32" data-name="Path 30810" transform="translate(-3208.784 -3662.308)"/></g></g></g><path id="Path_30811" d="m2991.127 3639.041-2.668-9.083c-3.048-12.167-18.429-15.341-18.429-15.341l-3.375 6.21-9.119 29.148-9.119-29.148-3.375-6.21s-15.381 3.174-18.429 15.341l-2.668 9.083a27.093 27.093 0 0 0-.631 12.6l.025.134a10.394 10.394 0 0 0 2.2 4.726l5.544 6.732 5.711-4.764-4.8-6.714a21.094 21.094 0 0 1 .727-5.433l6.83-8.9-.685 20.788-1.924 8.681s-.268 2.281 1.43 2.823l19.134.23h.07l19.134-.23c1.7-.542 1.43-2.823 1.43-2.823l-1.924-8.681-.686-20.788 6.831 8.9a21.106 21.106 0 0 1 .727 5.433l-4.8 6.714 5.711 4.764 5.544-6.732a10.394 10.394 0 0 0 2.2-4.726l.025-.134a27.086 27.086 0 0 0-.641-12.6z" data-name="Path 30811" transform="translate(-2920.714 -3568.174)" style="fill:#5b73a2"/><path id="Path_30812" d="m3260.615 3602.773 7.148 7.3 2.662-9.98-4.394-1.23z" class="cls-30" data-name="Path 30812" transform="translate(-3222.858 -3554.084)"/><path id="Path_30813" d="M3272.285 3620.1h-4.091l1.387 2.166-9.119 20.285 7.4-32.553.854-3.645s3.406.812 4.57 1.287z" class="cls-34" data-name="Path 30813" transform="translate(-3222.721 -3560.786)"/><path id="Path_30814" d="m3154.988 3607.26-7.147 7.3-2.578-10.351 3.633-.859z" class="cls-31" data-name="Path 30814" transform="translate(-3119.67 -3558.099)"/><path id="Path_30815" d="m3154.272 3602.773-7.148 7.3-2.662-9.98 4.394-1.23z" class="cls-30" data-name="Path 30815" transform="translate(-3118.953 -3554.084)"/><path id="Path_30816" d="M3117.039 3620.1h4.091l-1.387 2.166 9.119 20.285-7.4-32.553-.854-3.645s-3.406.812-4.57 1.287z" class="cls-34" data-name="Path 30816" transform="translate(-3093.527 -3560.786)"/><path id="Path_30817" d="m3041.26 4141.235-11.7-1.287s-.944-15.181-.711-16.736c.87-5.838.643-15.472 1.975-19.511s6.291-5.538 6.291-5.538 6.208-4.212 9.786-1.754c.993.683 4.724 2.447-1.912 30.97a221.933 221.933 0 0 1-3.729 13.856z" class="cls-29" data-name="Path 30817" transform="translate(-3015.496 -3998.473)"/><path id="Path_30818" d="m3305.765 4139.25 11.757-.858s1.711-15.131 1.558-16.694c-.574-5.864.141-15.48-.985-19.565s-6.005-5.764-6.005-5.764-5.989-4.435-9.688-2.11c-1.027.645-4.843 2.271.343 31.011a214.495 214.495 0 0 0 3.02 13.98z" class="cls-29" data-name="Path 30818" transform="translate(-3258.166 -3996.634)"/><rect id="Rectangle_4945" width="14.237" height="5.342" class="cls-35" data-name="Rectangle 4945" rx="2.671" transform="translate(12.919 140.878)"/><path id="Rectangle_4946" d="M2.671 0h8.895a2.671 2.671 0 0 1 2.671 2.671 2.671 2.671 0 0 1-2.671 2.671H2.671A2.671 2.671 0 0 1 0 2.671 2.671 2.671 0 0 1 2.671 0z" class="cls-35" data-name="Rectangle 4946" transform="rotate(180 30.462 73.11)"/><path id="Path_30819" d="M3096.879 3360.7c.066 1.912-.325 3.577-1.312 3.612s-1.7-1.492-1.769-3.4.692-3.489 1.68-3.523 1.336 1.401 1.401 3.311z" class="cls-15" data-name="Path 30819" transform="translate(-3073.629 -3338.068)"/><path id="Path_30820" d="M3366.842 3357.059c-.066 1.911.324 3.577 1.312 3.612s1.7-1.492 1.769-3.4-.692-3.489-1.68-3.523-1.335 1.399-1.401 3.311z" data-name="Path 30820" transform="translate(-3317.877 -3334.809)" style="fill:#edd2b6"/><ellipse id="Ellipse_1740" cx="13.422" cy="19.064" class="cls-23" data-name="Ellipse 1740" rx="13.422" ry="19.064" transform="translate(22.902 3.984)"/><path id="Path_30821" d="M3099.641 3203.343s-3.07-11.435 3.506-17.163c0 0 4.9 3.948 10.865 2.561a15.018 15.018 0 0 0 4.346-1.912s4.657-1.975 6.187 2.588c1.63 4.86.8 9.8.9 12.758 0 0 2.642-7.883 2.74-9.457 0 0 .82-5.717-.665-9.082a9.647 9.647 0 0 0-5.246-5.456s-1.422-4.682-11.237-3.894c0 0-7.247-1.018-8.96 4.125 0 0-6.125 1.343-5.554 12 .002-.004-.544 8.034 3.118 12.932z" class="cls-9" data-name="Path 30821" transform="translate(-3076.038 -3174.196)"/><g id="Group_2797" data-name="Group 2797" transform="translate(8.752 66.443)"><g id="Group_2796" data-name="Group 2796"><path id="Path_30822" d="M2985.562 3837.453a2.524 2.524 0 0 0 2.1 1.146h50.905a2.515 2.515 0 0 0 2.492-2.539v-30.16a2.48 2.48 0 0 0-.577-1.614z" class="cls-27" data-name="Path 30822" transform="translate(-2985.562 -3804.282)"/></g></g><g id="Group_2803" data-name="Group 2803" transform="rotate(180 31.908 49.972)"><g id="Group_2796-2" data-name="Group 2796"><path id="Path_30822-2" d="M2985.563 3837.575a2.517 2.517 0 0 0 2.1 1.151h50.822a2.517 2.517 0 0 0 2.488-2.549V3805.9a2.5 2.5 0 0 0-.576-1.62z" data-name="Path 30822" transform="translate(-2985.563 -3804.281)" style="fill:#d3d3d3"/></g></g><rect id="Rectangle_4948" width="56.535" height="3.178" class="cls-28" data-name="Rectangle 4948" rx="1.589" transform="translate(8.033 100.614)"/></g><g id="Group_2801" data-name="Group 2801"><path id="Path_30823" d="m1296.543 3461.178 5.729-.231 5.6-.249-2.332.487s-3.17.512-6.177.746l-5.714.381s-3.215.266-3.762 2.038a4.555 4.555 0 0 0-.208 2.349 3.769 3.769 0 0 0 .848 1.69c1 1.473 4.318.623 4.318.623l5.493-1.619c2.9-.821 6.054-1.437 6.054-1.437l2.357-.35-5.336 1.7-5.456 1.765a45.067 45.067 0 0 1-7.623 1.734c-4.493.689-5.6-1.381-5.6-1.381a4.987 4.987 0 0 1-.65-1.743c-.258-1.438-.3-1.794-.095-2.369 0 0 .754-2.288 4.8-3.127a45.1 45.1 0 0 1 7.754-1.007z" class="cls-38" data-name="Path 30823" transform="translate(-1283.857 -3361.411)"/><path id="Path_30824" d="m1342.352 3460.44 5.714-.382c3.007-.234 6.184-.747 6.184-.747l3.386-.707.957 4.959-3.492.519s-3.155.616-6.057 1.437l-5.495 1.619s-3.317.85-4.319-.623a3.771 3.771 0 0 1-.848-1.69 4.553 4.553 0 0 1 .207-2.348c.548-1.771 3.763-2.037 3.763-2.037z" class="cls-39" data-name="Path 30824" transform="translate(-1332.565 -3359.537)"/><path id="Path_30825" d="m1862.114 3460.03-5.729-.231-5.6-.248 2.332.487s3.17.512 6.177.746l5.714.381s3.215.266 3.762 2.038a4.552 4.552 0 0 1 .208 2.348 3.771 3.771 0 0 1-.848 1.691c-1 1.473-4.318.623-4.318.623l-5.493-1.619c-2.9-.821-6.054-1.437-6.054-1.437l-2.357-.35 5.336 1.7 5.455 1.766a45.183 45.183 0 0 0 7.623 1.734c4.493.689 5.6-1.382 5.6-1.382a4.981 4.981 0 0 0 .65-1.743c.258-1.437.3-1.794.095-2.37 0 0-.754-2.288-4.8-3.127a45.149 45.149 0 0 0-7.753-1.007z" class="cls-38" data-name="Path 30825" transform="translate(-1790.221 -3360.383)"/><path id="Path_30826" d="m1855.327 3459.291-5.714-.381c-3.007-.234-6.184-.748-6.184-.748l-3.386-.706-.958 4.959 3.492.519s3.155.617 6.057 1.437l5.495 1.62s3.317.85 4.319-.623a3.766 3.766 0 0 0 .848-1.69 4.558 4.558 0 0 0-.207-2.349c-.547-1.771-3.762-2.038-3.762-2.038z" class="cls-39" data-name="Path 30826" transform="translate(-1780.536 -3358.51)"/><path id="Rectangle_4949" d="M0 0h26.719v35.59H0z" class="cls-9" data-name="Rectangle 4949" transform="translate(27.817 16.326)"/><ellipse id="Ellipse_1741" cx="11.731" cy="15.212" class="cls-40" data-name="Ellipse 1741" rx="11.731" ry="15.212" transform="translate(30.106 9.327)"/><path id="Path_30827" d="M1517.245 2572.425s-2.938-8.048-3.2-13.232c0 0 .421-17.392.49-21.67 0 0-.043-6.5-3.485-11.193 0 0-2.065-3.29-5.206-3.139 0 0-2.022-3.554-5.765-3.97a20.01 20.01 0 0 0-3.668 0 14.039 14.039 0 0 0-6.23 2.242 19.2 19.2 0 0 0-4.955 4.691c-3.442 4.688-3.271 11.368-3.271 11.368.07 4.278.491 21.67.491 21.67-.263 5.183-3.2 13.232-3.2 13.232l-2.409 16.373c3.313 3.214 12.09.264 12.09.264 3.431-1.057 4.319-2.172 4.319-2.172-1.807-6.39-3.974-23.106-3.974-23.106-.581-7.273.047-9.865.047-9.865-2.314-2.537-2.787-7-2.787-7-.6-8.259 1.886-11.454 1.886-11.454a26.383 26.383 0 0 0 9.83 1.363 27 27 0 0 0 9.935-1.4s2.382 3.23 1.78 11.49c0 0-.474 4.467-2.787 7 0 0 .628 2.592.047 9.865 0 0-2.166 16.716-3.974 23.106 0 0 .954 1.048 4.319 2.172 0 0 8.777 2.95 12.09-.264z" class="cls-9" data-name="Path 30827" transform="translate(-1456.484 -2519.137)"/><path id="Path_30828" d="m1582.879 2971.372-6.887.3-1.2 4.308 10.029 7.137 9.39-3.634 2.567-7.811z" class="cls-41" data-name="Path 30828" transform="translate(-1544.108 -2923.683)"/><path id="Path_30829" d="M1468.712 3039.748c.172-.961 1.969-1.291 4.013-.738s3.561 1.78 3.389 2.741a.793.793 0 0 1-.067.2s-5.236 5.183-.326 16.82c4.805 11.387 7.51 8.681 7.51 8.681l-7.287 1.212s-6.126-6.457-7.3-10.014c-2.211-6.7.068-18.614.068-18.614a.907.907 0 0 1 0-.288z" class="cls-40" data-name="Path 30829" transform="translate(-1448.295 -2983.949)"/><path id="Path_30830" d="M1767.687 3039.748c-.172-.961-1.969-1.291-4.013-.738s-3.561 1.78-3.389 2.741a.793.793 0 0 0 .067.2s5.236 5.183.326 16.82c-4.8 11.387-7.51 8.681-7.51 8.681l7.287 1.212s6.126-6.457 7.3-10.014c2.211-6.7-.068-18.614-.068-18.614a.914.914 0 0 0 0-.288z" class="cls-40" data-name="Path 30830" transform="translate(-1703.678 -2983.949)"/><path id="Path_30831" d="M1504.926 3009.832a45.344 45.344 0 0 1 .86-8.3 8.283 8.283 0 0 0 3.015-6.641 8.976 8.976 0 0 0-1.429-4.942c.01-1.341.023-2.178.03-3.031l5.754-1.359-.813-3.965c-.352-1.67-2.366-3.416-4.34-4.152l-1.932-.9-.084-.044a16.022 16.022 0 0 0-1.161-.54c-1.02-.44-2.453-1.017-4.047-1.724-1.515 1.048-4.711 8.01-10.4 8.8-5.684-.785-8.871-7.748-10.386-8.8-1.594.707-3.017 1.284-4.037 1.724-.49.21-.886.392-1.161.54l-.084.044-2.177 1.017a4.4 4.4 0 0 0-1.146.781 6.3 6.3 0 0 0-3.1 3.562l-.813 3.965 5.91 1.4c.007.743.018 1.527.026 2.689a8.978 8.978 0 0 0-1.43 4.942 8.231 8.231 0 0 0 3.146 6.738 45.262 45.262 0 0 1 .843 8.207c0 8.164.152 6.929-.027 7.341-.874 1.786 2.533.6 1.572 4.886l24.793.532c-.962-4.289 4.285-2.968 3.411-4.755-.176-.415-.793.153-.793-8.015z" data-name="Path 30831" transform="translate(-1448.114 -2926.245)" style="fill:#965b7b"/><path id="Path_30832" d="M1566.409 2561.709c-.226 0-.448-.006-.685-.011h-.034c-.2.005-.447.015-.673.011-1.854-.029-10.707.676-12.934 12.968h.8s1.594-8.073 9.347-10.157a24.141 24.141 0 0 1 3.464-.292 10.771 10.771 0 0 1 3.508.416 14.228 14.228 0 0 1 8.926 10.033h.855c-3.275-12.495-10.72-12.997-12.574-12.968z" data-name="Path 30832" transform="translate(-1523.799 -2557.209)" style="fill:#e8e5d1"/><path id="Path_30833" d="M1600.405 2886.389a10.849 10.849 0 0 1-4.269 1.022 10.208 10.208 0 0 1-3.87-.827s3.045 6.922-6.056 9.068l10.414 4.409 10.367-4.409c-8.156-.652-6.586-9.263-6.586-9.263z" class="cls-41" data-name="Path 30833" transform="translate(-1554.327 -2847.662)"/><path id="Path_30834" d="m1644.048 2887.975 9.6 5.7s-2.545-2.183-1.848-7.285a9.642 9.642 0 0 1-8.137.2 6.45 6.45 0 0 1 .385 1.385z" data-name="Path 30834" transform="translate(-1605.722 -2847.662)" style="fill:#d1ad93"/><path id="Path_30835" d="m1386.4 3335.879 7.677 1.659a144.649 144.649 0 0 1 14.653 2.793 122.369 122.369 0 0 0 28.644 4.745l1.348-4.887s-16.563-5.741-23.489-7.413c-6.129-1.479-17.91-7.549-28.156-7.835-4.769-.133-8.427 7.043-.677 10.938z" data-name="Path 30835" transform="translate(-1371.57 -3239.966)" style="fill:#d1864d"/><path id="Path_30836" d="m1508.265 3336.334-7.68 1.643a144.754 144.754 0 0 0-14.659 2.762 122.392 122.392 0 0 1-28.654 4.686l-1.337-4.89s16.575-5.708 23.5-7.364c6.131-1.466 17.926-7.512 28.172-7.776 4.775-.123 8.418 7.061.658 10.939z" data-name="Path 30836" transform="translate(-1437.788 -3240.373)" style="fill:#c47b49"/><rect id="Rectangle_4950" width="36.538" height="22.992" data-name="Rectangle 4950" rx="11.496" transform="translate(23.987 69.001)" style="fill:#ccc"/><g id="Group_2800" data-name="Group 2800" transform="translate(24.281 69.605)"><g id="Group_2799" data-name="Group 2799"><path id="Path_30837" d="M1514.113 3200.874a1.649 1.649 0 0 0 1.375.749h33.25a1.642 1.642 0 0 0 1.627-1.659v-19.7a1.624 1.624 0 0 0-.377-1.055z" class="cls-27" data-name="Path 30837" transform="translate(-1514.113 -3179.207)"/></g></g><g id="Group_2804" data-name="Group 2804" transform="rotate(180 30.103 45.663)"><g id="Group_2799-2" data-name="Group 2799"><path id="Path_30837-2" d="M1514.113 3200.877a1.651 1.651 0 0 0 1.376.749h33.288a1.643 1.643 0 0 0 1.629-1.659v-19.7a1.623 1.623 0 0 0-.377-1.055z" data-name="Path 30837" transform="translate(-1514.113 -3179.207)" style="fill:#b9b5b5"/></g></g><rect id="Rectangle_4951" width="36.926" height="2.076" class="cls-28" data-name="Rectangle 4951" rx="1.038" transform="translate(23.811 91.924)"/></g></g></g></svg>