<svg width="35" height="35" viewBox="0 0 35 35" fill="none" xmlns="http://www.w3.org/2000/svg">
<path d="M29.8743 5.12565C26.569 1.82034 22.1743 0 17.5 0C12.8255 0 8.4309 1.82034 5.12552 5.12565C1.82027 8.43097 0 12.8256 0 17.5C0 22.1744 1.82027 26.569 5.12552 29.8744C8.4309 33.1797 12.8255 35 17.5 35C18.0662 35 18.5254 34.5409 18.5254 33.9746C18.5254 33.4083 18.0662 32.9492 17.5 32.9492C8.98126 32.9492 2.05078 26.0187 2.05078 17.5C2.05078 8.98126 8.98126 2.05078 17.5 2.05078C26.0187 2.05078 32.9492 8.98126 32.9492 17.5V21.6187C32.9492 23.3243 31.5616 24.7119 29.856 24.7119C28.1503 24.7119 26.7627 23.3243 26.7627 21.6187V17.5C26.7627 12.3925 22.6075 8.2373 17.5 8.2373C12.3925 8.2373 8.2373 12.3925 8.2373 17.5C8.2373 22.6075 12.3925 26.7627 17.5 26.7627C20.5294 26.7627 23.2237 25.3008 24.9148 23.0455C25.535 25.1897 27.5146 26.7627 29.856 26.7627C32.6924 26.7627 35 24.4551 35 21.6187V17.5C35 12.8256 33.1797 8.43097 29.8743 5.12565ZM17.5 24.7119C13.5233 24.7119 10.2881 21.4767 10.2881 17.5C10.2881 13.5233 13.5233 10.2881 17.5 10.2881C21.4767 10.2881 24.7119 13.5233 24.7119 17.5C24.7119 21.4767 21.4767 24.7119 17.5 24.7119Z" fill="white"/>
</svg>
