<svg width="818" height="710" viewBox="0 0 818 710" fill="none" xmlns="http://www.w3.org/2000/svg">
<circle opacity="0.3" cx="504" cy="313.5" r="313.5" fill="url(#paint0_radial_38_2195)"/>
<circle opacity="0.3" cx="504" cy="313.5" r="231.5" fill="url(#paint1_radial_38_2195)"/>
<path d="M512.624 445.698C588.444 445.698 649.908 383.488 649.908 306.749C649.908 230.01 588.444 167.8 512.624 167.8C436.804 167.8 375.34 230.01 375.34 306.749C375.34 383.488 436.804 445.698 512.624 445.698Z" fill="url(#paint2_linear_38_2195)"/>
<path fill-rule="evenodd" clip-rule="evenodd" d="M357.646 356.197C360.016 353.226 364.611 353.671 366.49 356.977C367.06 358.002 367.296 359.178 367.168 360.343C367.04 361.508 366.552 362.604 365.773 363.48C356.432 374.146 352.403 382.441 355.085 387.169C363.692 402.338 438.152 374.978 521.405 326.068C524.272 324.38 527.116 322.692 529.931 320.999C530.412 320.7 530.807 320.282 531.078 319.786C531.35 319.29 531.488 318.732 531.481 318.166C531.481 298.697 547.077 282.91 566.32 282.91C576.621 282.91 587.801 283.222 596.085 277.083C637.607 246.307 662.273 220.092 656.567 210.04C654.012 205.542 645.671 204.785 633.023 207.219C631.889 207.447 630.712 207.315 629.658 206.84C628.603 206.365 627.724 205.572 627.144 204.571C625.329 201.369 627.202 197.328 630.844 196.791C655.758 193.102 673.429 196.189 679.626 207.103C691.228 227.561 659.302 269.753 603.721 312.663C602.901 313.325 602.244 314.165 601.799 315.12C601.354 316.075 601.134 317.119 601.154 318.172C601.154 337.641 585.558 353.428 566.32 353.428C565.371 353.428 564.422 353.389 563.476 353.312C554.892 352.613 545.736 352.249 538.307 356.607C444.638 411.639 356.045 433.935 340.42 406.396C334.015 395.106 340.87 377.198 357.646 356.197Z" fill="white"/>
<path d="M566.32 335.803C575.94 335.803 583.737 327.909 583.737 318.172C583.737 308.435 575.94 300.541 566.32 300.541C556.701 300.541 548.903 308.435 548.903 318.172C548.903 327.909 556.701 335.803 566.32 335.803Z" fill="#70AF09"/>
<path opacity="0.32" d="M442.268 259.233C433.823 280.344 436.488 302.611 426.123 298.368C415.758 294.119 414.209 273.557 422.655 252.441C431.106 231.324 446.355 217.653 456.72 221.896C467.084 226.145 450.719 238.116 442.268 259.233ZM435.765 319.34C436.517 326.294 433.337 332.352 428.655 332.872C423.984 333.392 419.579 328.178 418.822 321.224C418.071 314.27 421.25 308.218 425.926 307.698C430.609 307.177 435.008 312.391 435.765 319.34Z" fill="#E5E5E5"/>
<path d="M472.091 412.61C467.322 409.818 469.605 405.141 481.195 401.257C505.624 395.823 501.502 406.806 536.66 402.58C571.824 398.361 590.362 383.684 599.692 374.036C607.161 366.313 614.068 355.867 613.739 359.555C612.149 367.394 599.316 388.065 560.696 408.008C512.428 432.94 479.403 416.887 472.091 412.61Z" fill="#080F1B" fill-opacity="0.11"/>
<path d="M627.416 229.757C631.907 226.746 633.167 220.647 629.913 216.323C609.003 188.459 578.893 168.909 544.932 161.147C507.79 152.712 468.822 159.133 436.349 179.038C403.792 198.958 380.104 230.844 370.23 268.031C361.244 301.889 364.318 337.82 378.924 369.66C381.213 374.648 387.295 376.4 392.093 373.735C396.827 371.105 398.521 365.174 396.301 360.237C384.042 332.891 381.548 302.164 389.237 273.199C397.792 240.977 418.319 213.346 446.534 196.085C474.672 178.84 508.437 173.278 540.62 180.587C569.534 187.195 595.244 203.67 613.328 227.179C616.687 231.538 622.849 232.821 627.416 229.757ZM428.51 417.026C425.198 421.367 425.961 427.605 430.441 430.651C451.556 445.016 476.063 453.604 501.525 455.56C530.255 457.756 558.996 451.38 584.188 437.224C609.445 422.997 629.983 401.686 643.266 375.92C655.095 353.01 660.849 327.449 659.978 301.68C659.793 296.223 654.966 292.269 649.573 292.818C644.151 293.367 640.22 298.269 640.347 303.767C640.851 325.623 635.86 347.256 625.832 366.683C614.321 389.011 596.522 407.48 574.633 419.807C552.853 432.062 527.931 437.592 503.011 435.698C481.415 434.04 460.603 426.875 442.563 414.887C438.025 411.876 431.84 412.662 428.516 417.026H428.51Z" fill="white"/>
<path d="M244.741 314.106C240.032 309.885 236.202 304.778 233.467 299.076C230.733 293.374 229.148 287.19 228.804 280.876C228.46 274.562 229.362 268.241 231.46 262.276C233.559 256.311 236.811 250.817 241.033 246.109C245.254 241.401 250.361 237.57 256.063 234.836C261.765 232.101 267.949 230.516 274.263 230.172C280.577 229.828 286.898 230.731 292.863 232.829C298.828 234.927 304.322 238.18 309.03 242.401L307.884 243.68C303.343 239.609 298.046 236.472 292.293 234.449C286.541 232.426 280.446 231.555 274.357 231.887C268.268 232.219 262.304 233.747 256.806 236.384C251.307 239.021 246.382 242.715 242.311 247.255C238.241 251.796 235.104 257.093 233.081 262.846C231.057 268.598 230.187 274.693 230.519 280.782C230.851 286.871 232.379 292.835 235.016 298.333C237.653 303.832 241.347 308.757 245.887 312.827L244.741 314.106Z" fill="#708AB3"/>
<path d="M731.17 384.978C736.197 388.813 740.421 393.601 743.598 399.068C746.776 404.535 748.846 410.575 749.689 416.842C750.533 423.109 750.133 429.48 748.514 435.593C746.895 441.706 744.088 447.44 740.253 452.468C736.418 457.496 731.63 461.719 726.163 464.897C720.696 468.074 714.657 470.144 708.39 470.987C702.123 471.831 695.751 471.432 689.638 469.813C683.525 468.194 677.791 465.387 672.763 461.552L673.805 460.186C678.653 463.884 684.183 466.591 690.078 468.152C695.972 469.714 702.117 470.099 708.16 469.285C714.204 468.472 720.028 466.476 725.3 463.412C730.572 460.348 735.189 456.275 738.887 451.426C742.586 446.578 745.293 441.048 746.854 435.154C748.415 429.259 748.8 423.114 747.987 417.071C747.173 411.027 745.178 405.203 742.113 399.931C739.049 394.659 734.977 390.042 730.128 386.344L731.17 384.978Z" fill="#708AB2"/>
<path d="M158.861 637.685L113.109 595.683C113.109 595.683 161.913 607.631 158.861 637.685Z" fill="#2B4062"/>
<path d="M339.418 413.232C339.69 413.512 339.941 413.814 340.166 414.134L375.237 413.276L379.328 405.8L391.418 410.5L385.462 424.439C384.98 425.565 384.147 426.504 383.086 427.116C382.025 427.729 380.795 427.98 379.579 427.833L339.956 423.047C339.021 424.23 337.748 425.1 336.307 425.543C334.865 425.985 333.323 425.978 331.886 425.522C330.448 425.067 329.184 424.185 328.26 422.993C327.336 421.801 326.797 420.356 326.715 418.85C326.632 417.345 327.01 415.85 327.798 414.564C328.586 413.278 329.746 412.263 331.125 411.653C332.504 411.043 334.036 410.867 335.517 411.149C336.999 411.431 338.359 412.158 339.418 413.232Z" fill="#FFB7B7"/>
<path d="M453.743 626.219H442.212L436.725 581.74L453.745 581.741L453.743 626.219Z" fill="#FFB7B7"/>
<path d="M456.683 637.398L419.501 637.396V636.926C419.501 633.088 421.026 629.407 423.74 626.693C426.454 623.979 430.135 622.454 433.974 622.454H433.975L456.684 622.455L456.683 637.398Z" fill="#3D557E"/>
<path d="M349.033 625.963L338.429 621.433L350.856 578.375L366.507 585.061L349.033 625.963Z" fill="#FFB7B7"/>
<path d="M347.346 637.398L313.153 622.79L313.338 622.358C314.846 618.828 317.694 616.042 321.256 614.612C324.818 613.183 328.802 613.226 332.332 614.734L332.333 614.734L353.217 623.656L347.346 637.398Z" fill="#3D557E"/>
<path d="M398.464 350.111V332.937C398.464 326.833 400.889 320.98 405.205 316.664C409.52 312.348 415.374 309.924 421.477 309.924C427.581 309.924 433.434 312.348 437.75 316.664C442.066 320.98 444.49 326.833 444.49 332.937V350.111C444.489 350.93 444.163 351.716 443.584 352.295C443.004 352.875 442.219 353.201 441.399 353.202H401.556C400.736 353.201 399.95 352.875 399.371 352.295C398.791 351.716 398.465 350.93 398.464 350.111Z" fill="#2F2E41"/>
<path d="M409.926 386.469C410.212 386.203 410.52 385.959 410.844 385.741L410.754 350.66L403.369 346.406L408.333 334.421L422.138 340.682C423.253 341.188 424.175 342.041 424.763 343.115C425.352 344.189 422.222 359.288 422.049 360.5L419.75 386.146C420.913 387.107 421.755 388.398 422.166 389.849C422.576 391.3 422.536 392.841 422.049 394.269C421.562 395.696 420.652 396.941 419.44 397.838C418.229 398.736 416.772 399.243 415.265 399.292C413.758 399.342 412.272 398.932 411.004 398.116C409.735 397.3 408.746 396.117 408.166 394.725C407.586 393.333 407.444 391.798 407.759 390.323C408.073 388.848 408.829 387.504 409.926 386.469Z" fill="#FFB7B7"/>
<path d="M401.5 431.5L386.621 370.541L403.034 365.162L407.854 358.552H424.5L429.5 365.162L447.265 373.565L439 394.5L432 435L401.5 431.5Z" fill="#FFB825"/>
<path d="M390.131 418.864L373.436 412.184L373.507 411.887C373.579 411.588 380.684 381.896 381.628 377.124C382.611 372.153 386.201 370.779 386.354 370.723L386.465 370.682L393.072 372.693L395.973 395.491L390.131 418.864Z" fill="#FFB825"/>
<path opacity="0.2" d="M389.322 393.004C388.837 389.726 393.442 380.066 393.442 380.066C393.442 380.066 391.358 390.452 391.455 392.921C391.552 395.39 394.299 401.876 394.299 401.876C394.299 401.876 389.807 396.283 389.322 393.004Z" fill="black"/>
<path d="M357.622 618.146L335.399 613.587L370.917 515.58L383.073 482.151C383.073 482.151 390.783 455.348 394.266 444.976L401.5 431.5L432 434.5C432 434.5 449.5 451.5 449.5 486L457.718 615.297L435.496 616.436L416.882 490.319L384.213 559.455C384.213 559.455 373.916 588.959 366.549 595.353L357.622 618.146Z" fill="#0F2344"/>
<path d="M426.176 441.208C426.567 441.199 426.958 441.22 427.346 441.273L450.562 414.972L447.861 406.889L459.528 401.218L465.699 415.064C466.198 416.182 466.32 417.432 466.048 418.626C465.775 419.82 465.123 420.894 464.189 421.685L433.739 447.487C433.971 448.976 433.744 450.502 433.088 451.86C432.432 453.217 431.379 454.343 430.067 455.088C428.756 455.832 427.249 456.16 425.747 456.027C424.245 455.894 422.819 455.306 421.659 454.343C420.499 453.38 419.659 452.087 419.252 450.635C418.845 449.183 418.89 447.641 419.38 446.215C419.87 444.79 420.783 443.547 421.997 442.652C423.211 441.758 424.668 441.254 426.176 441.208Z" fill="#FFB7B7"/>
<path d="M447.184 416.978L437.5 394.198L441.277 378.33L445.347 373.189C445.645 373.061 445.966 372.997 446.29 373C446.615 373.003 446.935 373.073 447.23 373.206C448.731 373.811 450.009 375.662 451.029 378.709L460.105 404.561L447.184 416.978Z" fill="#FFB825"/>
<path d="M416.748 352.802C426.067 352.802 433.621 345.248 433.621 335.93C433.621 326.611 426.067 319.057 416.748 319.057C407.43 319.057 399.876 326.611 399.876 335.93C399.876 345.248 407.43 352.802 416.748 352.802Z" fill="#FFB7B7"/>
<path d="M393.02 334.311C393.025 329.484 394.945 324.857 398.358 321.444C401.771 318.031 406.398 316.112 411.224 316.106H414.659C419.486 316.112 424.113 318.031 427.526 321.444C430.938 324.857 432.858 329.484 432.863 334.311V334.654H425.605L423.129 327.721L422.634 334.654H418.882L417.633 331.156L417.383 334.654H393.02L393.02 334.311Z" fill="#2F2E41"/>
<path d="M415.088 355.133C414.747 354.672 414.544 354.123 414.501 353.551C414.458 352.979 414.578 352.407 414.846 351.9C418.486 344.976 423.582 332.184 416.818 324.295L416.331 323.728H435.97V353.212L418.13 356.359C417.949 356.391 417.766 356.407 417.583 356.408C417.096 356.408 416.616 356.292 416.182 356.071C415.748 355.849 415.373 355.528 415.088 355.133Z" fill="#2F2E41"/>
<path d="M186.003 616.504L196.425 620.228L215.75 581.804L200.369 576.307L186.003 616.504Z" fill="#F3C5A3"/>
<path d="M228.093 368.756C227.692 367.584 227.553 366.337 227.685 365.105C227.818 363.873 228.219 362.685 228.86 361.624C229.502 360.564 230.368 359.657 231.397 358.968C232.427 358.278 233.596 357.823 234.82 357.634L240.237 328L251.543 338.828L244.666 365.308C244.847 367.387 244.26 369.46 243.015 371.134C241.77 372.809 239.954 373.968 237.911 374.393C235.868 374.818 233.741 374.479 231.931 373.44C230.122 372.401 228.756 370.735 228.093 368.756Z" fill="#F3C5A3"/>
<path d="M179.735 625.656L184.561 612.151L205.085 619.486C208.551 620.729 211.383 623.297 212.958 626.625C214.534 629.954 214.725 633.771 213.49 637.24L213.338 637.665L179.735 625.656Z" fill="#3D557E"/>
<path d="M253.771 626.812L264.838 626.811L270.103 584.124L253.769 584.125L253.771 626.812Z" fill="#F3C5A3"/>
<path d="M250.948 623.198L272.743 623.198H272.743C274.567 623.197 276.374 623.557 278.059 624.255C279.744 624.953 281.275 625.976 282.565 627.265C283.855 628.555 284.878 630.086 285.576 631.771C286.274 633.457 286.633 635.263 286.633 637.087V637.538L250.949 637.539L250.948 623.198Z" fill="#3D557E"/>
<path d="M228.549 354.095L233.362 344.585C233.362 344.585 251.292 349.077 252.922 359.469L228.549 354.095Z" fill="#F1F1F1"/>
<path d="M208.69 462.84L221.779 535.88L187.024 597.343L207.787 605.467L242.993 545.888L247.506 529.639L250.214 614.494L268.939 613.926L277.524 534.692L263.754 461.034L208.69 462.84Z" fill="#D2E1F8"/>
<path d="M233.536 480.106C214.307 480.106 202.099 476.429 201.825 476.37L201.383 476.276L211.398 429.84L211.849 387.008C211.849 368.857 223.795 355.475 225.453 354.24C225.732 353.138 226.248 352.11 226.966 351.229C227.683 350.347 228.584 349.633 229.606 349.136C233.591 347.327 238.461 349.497 238.665 349.59L253.281 355.07L253.35 355.273C253.526 355.792 272.776 418.989 272.776 418.989C272.776 418.989 271.611 474.207 271.205 476.016C271.205 476.016 244.22 480.106 233.536 480.106Z" fill="#85C523"/>
<path d="M248.311 341.59C259.221 341.59 268.065 332.746 268.065 321.837C268.065 310.927 259.221 302.083 248.311 302.083C237.401 302.083 228.557 310.927 228.557 321.837C228.557 332.746 237.401 341.59 248.311 341.59Z" fill="#F3C5A3"/>
<path opacity="0.2" d="M226.286 390.511L260.845 438.729L265.949 416.212L226.286 390.511Z" fill="black"/>
<path d="M334.636 423.319C333.664 424.088 332.535 424.634 331.329 424.92C330.123 425.205 328.87 425.223 327.656 424.971C326.443 424.72 325.299 424.205 324.306 423.464C323.313 422.722 322.494 421.772 321.908 420.68L292.162 425.442L298.606 411.175L325.866 408.841C327.765 407.978 329.916 407.841 331.909 408.458C333.902 409.074 335.601 410.4 336.682 412.184C337.763 413.969 338.151 416.088 337.774 418.14C337.397 420.193 336.281 422.035 334.636 423.319Z" fill="#F3C5A3"/>
<path d="M300.138 410.363L310.826 409.315L313.788 424.224L300.339 424.462L300.138 410.363Z" fill="#F1F1F1"/>
<path d="M308.9 429.42L256.554 424.759L230.122 382.723L230.041 382.352C229.291 378.918 229.816 375.328 231.519 372.254C233.221 369.179 235.985 366.828 239.293 365.642C242.602 364.455 246.229 364.513 249.498 365.805C252.766 367.097 255.453 369.534 257.057 372.662L272.573 402.927L303.886 407.66L308.9 429.42Z" fill="#85C523"/>
<path d="M231.485 338.988L247.881 339.576C248.88 339.612 251.593 328.826 251.948 326.589C252.229 325.132 253.03 323.827 254.202 322.918C255.374 322.009 256.837 321.558 258.318 321.648C259.545 321.764 262.64 319.471 265.834 316.756C271.897 311.602 276.66 298.856 270 294.5C266.5 298.5 264.561 297.337 264.385 297.239C260.184 294.887 255.268 294.097 250.454 294.037C246.089 293.982 241.601 294.532 237.756 296.598C230.862 300.301 227.193 308.395 226.871 316.214C226.549 324.033 229.055 331.678 231.9 338.968" fill="#BDA064"/>
<path d="M686.282 638.314H47.8586C47.6309 638.314 47.4125 638.223 47.2515 638.062C47.0905 637.901 47 637.683 47 637.455C47 637.228 47.0905 637.009 47.2515 636.848C47.4125 636.687 47.6309 636.597 47.8586 636.597H686.623C686.851 636.597 687.069 636.687 687.23 636.848C687.391 637.009 687.482 637.228 687.482 637.455C687.482 637.929 686.756 638.314 686.282 638.314Z" fill="#2D4163"/>
<path d="M646.781 594.997L551.284 549.217C550.951 549.057 550.694 548.771 550.571 548.421C550.448 548.072 550.469 547.688 550.629 547.354L600.998 442.282C601.159 441.948 601.445 441.692 601.795 441.569C602.144 441.446 602.528 441.466 602.862 441.626L698.359 487.406C698.693 487.566 698.949 487.853 699.072 488.202C699.195 488.551 699.175 488.935 699.015 489.269L648.645 594.341C648.485 594.675 648.198 594.932 647.849 595.055C647.499 595.178 647.116 595.157 646.781 594.997Z" fill="white"/>
<path d="M646.781 594.997L551.284 549.217C550.951 549.057 550.694 548.771 550.571 548.421C550.448 548.072 550.469 547.688 550.629 547.354L600.998 442.282C601.159 441.948 601.445 441.692 601.795 441.569C602.144 441.446 602.528 441.466 602.862 441.626L698.359 487.406C698.693 487.566 698.949 487.853 699.072 488.202C699.195 488.551 699.175 488.935 699.015 489.269L648.645 594.341C648.485 594.675 648.198 594.932 647.849 595.055C647.499 595.178 647.116 595.157 646.781 594.997Z" fill="white"/>
<path d="M627.259 496.421L603.573 485.067C603.24 484.906 602.983 484.62 602.86 484.271C602.737 483.921 602.758 483.537 602.918 483.203L614.272 459.518C614.432 459.184 614.719 458.927 615.068 458.804C615.418 458.681 615.802 458.702 616.136 458.862L639.821 470.216C640.155 470.377 640.411 470.663 640.534 471.012C640.657 471.362 640.637 471.746 640.477 472.08L629.123 495.765C628.962 496.099 628.676 496.356 628.326 496.479C627.977 496.602 627.593 496.581 627.259 496.421ZM615.894 459.366C615.694 459.27 615.463 459.258 615.254 459.331C615.044 459.405 614.872 459.559 614.776 459.759L603.422 483.445C603.326 483.645 603.313 483.875 603.387 484.085C603.461 484.295 603.615 484.467 603.815 484.563L627.5 495.917C627.701 496.013 627.931 496.025 628.141 495.952C628.35 495.878 628.522 495.724 628.619 495.524L639.973 471.838C640.069 471.638 640.081 471.408 640.007 471.198C639.934 470.988 639.78 470.816 639.579 470.72L615.894 459.366Z" fill="#6F819F"/>
<path d="M619.066 496.057L595.381 484.703C595.081 484.559 594.85 484.301 594.739 483.986C594.629 483.672 594.647 483.326 594.791 483.026L606.145 459.34C606.29 459.04 606.547 458.809 606.862 458.698C607.176 458.588 607.522 458.606 607.823 458.75L631.508 470.104C631.808 470.249 632.039 470.507 632.15 470.821C632.261 471.136 632.242 471.481 632.098 471.782L620.744 495.467C620.599 495.768 620.342 495.998 620.027 496.109C619.713 496.22 619.367 496.201 619.066 496.057Z" fill="#3D557E"/>
<path d="M663.904 531.806L589.825 496.294C589.524 496.15 589.293 495.892 589.182 495.577C589.072 495.263 589.09 494.917 589.234 494.616C589.379 494.316 589.636 494.084 589.951 493.974C590.266 493.863 590.611 493.882 590.912 494.026L664.991 529.539C665.14 529.61 665.274 529.71 665.384 529.833C665.494 529.956 665.579 530.099 665.634 530.255C665.689 530.411 665.712 530.576 665.703 530.741C665.694 530.906 665.653 531.067 665.582 531.216C665.51 531.365 665.41 531.498 665.287 531.608C665.164 531.719 665.021 531.804 664.865 531.859C664.709 531.913 664.544 531.937 664.379 531.928C664.215 531.919 664.053 531.878 663.904 531.806Z" fill="#2D4163" fill-opacity="0.6"/>
<path d="M642.27 531.041L586.08 504.105C585.931 504.033 585.798 503.933 585.688 503.811C585.577 503.688 585.492 503.544 585.438 503.388C585.327 503.074 585.346 502.728 585.49 502.427C585.634 502.127 585.892 501.896 586.206 501.785C586.521 501.674 586.867 501.693 587.167 501.837L643.357 528.773C643.506 528.845 643.639 528.945 643.749 529.068C643.86 529.191 643.945 529.334 643.999 529.49C644.054 529.646 644.078 529.811 644.069 529.976C644.06 530.14 644.019 530.302 643.947 530.451C643.876 530.6 643.776 530.733 643.653 530.843C643.53 530.954 643.386 531.039 643.231 531.093C643.075 531.148 642.91 531.172 642.745 531.163C642.58 531.154 642.419 531.113 642.27 531.041Z" fill="#2D4163" fill-opacity="0.6"/>
<path d="M677.422 502.961L644.666 487.258C644.365 487.114 644.134 486.856 644.024 486.542C643.913 486.227 643.932 485.881 644.076 485.581C644.22 485.28 644.478 485.049 644.792 484.938C645.107 484.827 645.453 484.846 645.753 484.99L678.509 500.693C678.81 500.837 679.041 501.095 679.152 501.41C679.207 501.565 679.23 501.73 679.221 501.895C679.213 502.06 679.171 502.222 679.1 502.371C679.028 502.519 678.928 502.653 678.805 502.763C678.683 502.873 678.539 502.958 678.383 503.013C678.228 503.068 678.063 503.091 677.898 503.083C677.733 503.074 677.571 503.032 677.422 502.961Z" fill="#2D4163" fill-opacity="0.6"/>
<path d="M665.503 506.853L640.922 495.069C640.773 494.998 640.639 494.898 640.529 494.775C640.419 494.652 640.334 494.508 640.279 494.353C640.224 494.197 640.201 494.032 640.21 493.867C640.219 493.702 640.26 493.541 640.331 493.392C640.403 493.243 640.503 493.109 640.626 492.999C640.749 492.889 640.892 492.804 641.048 492.749C641.204 492.694 641.369 492.671 641.534 492.68C641.698 492.689 641.86 492.73 642.009 492.801L666.59 504.585C666.891 504.729 667.122 504.987 667.233 505.302C667.343 505.616 667.325 505.962 667.18 506.263C667.036 506.563 666.779 506.795 666.464 506.905C666.149 507.016 665.804 506.997 665.503 506.853Z" fill="#2D4163" fill-opacity="0.6"/>
<path d="M656.415 547.428L582.336 511.916C582.035 511.772 581.804 511.514 581.693 511.2C581.583 510.885 581.601 510.539 581.745 510.239C581.89 509.938 582.147 509.707 582.462 509.596C582.777 509.485 583.122 509.504 583.423 509.648L657.502 545.161C657.803 545.305 658.034 545.563 658.145 545.877C658.256 546.192 658.237 546.537 658.093 546.838C657.948 547.139 657.691 547.37 657.376 547.481C657.062 547.591 656.716 547.573 656.415 547.428Z" fill="#2D4163" fill-opacity="0.6"/>
<path d="M634.781 546.663L578.591 519.727C578.442 519.656 578.309 519.556 578.199 519.433C578.089 519.31 578.004 519.166 577.949 519.011C577.894 518.855 577.87 518.69 577.879 518.525C577.888 518.36 577.93 518.199 578.001 518.05C578.072 517.901 578.172 517.767 578.295 517.657C578.418 517.547 578.562 517.462 578.717 517.407C578.873 517.352 579.038 517.329 579.203 517.338C579.368 517.347 579.53 517.388 579.678 517.459L635.868 544.396C636.017 544.467 636.15 544.567 636.26 544.69C636.371 544.813 636.456 544.956 636.51 545.112C636.565 545.268 636.589 545.433 636.58 545.598C636.571 545.763 636.53 545.924 636.458 546.073C636.387 546.222 636.287 546.355 636.164 546.466C636.041 546.576 635.898 546.661 635.742 546.716C635.586 546.77 635.421 546.794 635.256 546.785C635.091 546.776 634.93 546.735 634.781 546.663Z" fill="#2D4163" fill-opacity="0.6"/>
<path d="M648.926 563.051L574.847 527.538C574.698 527.467 574.564 527.367 574.454 527.244C574.344 527.121 574.259 526.977 574.204 526.822C574.149 526.666 574.126 526.501 574.135 526.336C574.144 526.171 574.185 526.01 574.256 525.861C574.328 525.712 574.428 525.578 574.551 525.468C574.674 525.358 574.817 525.273 574.973 525.218C575.129 525.163 575.294 525.14 575.459 525.149C575.623 525.158 575.785 525.199 575.934 525.27L650.013 560.783C650.162 560.854 650.296 560.954 650.406 561.077C650.516 561.2 650.601 561.344 650.656 561.499C650.711 561.655 650.734 561.82 650.725 561.985C650.716 562.15 650.675 562.311 650.604 562.46C650.532 562.609 650.432 562.743 650.309 562.853C650.186 562.963 650.043 563.048 649.887 563.103C649.731 563.158 649.566 563.181 649.401 563.172C649.237 563.163 649.075 563.122 648.926 563.051Z" fill="#2D4163" fill-opacity="0.6"/>
<path d="M645.182 570.862L571.102 535.349C570.953 535.278 570.82 535.178 570.71 535.055C570.599 534.932 570.515 534.789 570.46 534.633C570.405 534.477 570.381 534.312 570.39 534.147C570.399 533.982 570.441 533.821 570.512 533.672C570.583 533.523 570.683 533.39 570.806 533.279C570.929 533.169 571.073 533.084 571.228 533.029C571.384 532.974 571.549 532.951 571.714 532.96C571.879 532.969 572.04 533.01 572.189 533.082L646.269 568.594C646.418 568.665 646.551 568.765 646.661 568.888C646.772 569.011 646.857 569.155 646.911 569.31C646.966 569.466 646.99 569.631 646.981 569.796C646.972 569.961 646.93 570.123 646.859 570.271C646.788 570.42 646.688 570.554 646.565 570.664C646.442 570.774 646.298 570.859 646.143 570.914C645.987 570.969 645.822 570.992 645.657 570.983C645.492 570.974 645.331 570.933 645.182 570.862Z" fill="#2D4163" fill-opacity="0.6"/>
<path d="M608.216 568.18C609.729 568.346 611.254 568.386 612.774 568.298C614.143 568.216 615.571 568.077 616.804 567.429C617.336 567.164 617.798 566.778 618.152 566.3C618.507 565.823 618.744 565.269 618.844 564.683C618.928 564.125 618.833 563.555 618.571 563.055C618.31 562.555 617.896 562.151 617.39 561.901C616.876 561.65 616.304 561.542 615.734 561.59C615.164 561.637 614.617 561.838 614.152 562.17C613.653 562.556 613.248 563.05 612.967 563.615C612.685 564.179 612.535 564.8 612.527 565.431C612.444 568.018 614.344 570.685 616.554 571.888C619.042 573.243 622.592 572.411 623.415 569.467C623.586 568.855 622.754 568.592 622.378 568.97C621.866 569.474 621.566 570.155 621.539 570.873C621.512 571.591 621.76 572.293 622.233 572.834C622.706 573.375 623.367 573.716 624.082 573.785C624.798 573.855 625.512 573.65 626.081 573.21L625.153 572.765C625.364 573.938 625.88 575.035 626.649 575.945C627.418 576.856 628.414 577.547 629.536 577.951C630.089 578.151 630.668 578.273 631.255 578.313C631.969 578.355 632.682 578.755 633.352 579.016L638.183 580.897C638.893 581.173 639.415 580.1 638.698 579.821L634.323 578.118C633.594 577.834 632.868 577.544 632.136 577.266C631.613 577.068 631.025 577.126 630.475 576.996C629.447 576.74 628.512 576.198 627.78 575.432C627.048 574.665 626.549 573.707 626.341 572.668C626.331 572.565 626.294 572.466 626.235 572.382C626.175 572.297 626.095 572.229 626.002 572.185C625.909 572.14 625.806 572.12 625.702 572.127C625.599 572.133 625.5 572.166 625.413 572.223C625.085 572.501 624.66 572.639 624.231 572.606C623.801 572.573 623.403 572.372 623.121 572.046C622.839 571.721 622.698 571.297 622.727 570.867C622.757 570.438 622.955 570.037 623.278 569.753L622.241 569.256C621.711 571.155 619.324 571.745 617.664 571.093C615.809 570.365 614.286 568.463 613.829 566.536C613.703 566.072 613.675 565.587 613.746 565.112C613.817 564.636 613.984 564.181 614.239 563.773C614.467 563.401 614.805 563.11 615.207 562.941C615.609 562.771 616.053 562.732 616.478 562.829C616.859 562.904 617.195 563.125 617.415 563.444C617.636 563.763 617.724 564.155 617.661 564.537C617.574 564.967 617.382 565.368 617.103 565.706C616.824 566.044 616.466 566.308 616.061 566.476C614.964 566.987 613.682 567.057 612.493 567.12C611.137 567.191 609.777 567.153 608.427 567.007C607.67 566.925 607.45 568.098 608.216 568.18Z" fill="#3D557E"/>
<path d="M296.474 260.948C311.647 260.948 323.948 248.647 323.948 233.474C323.948 218.3 311.647 206 296.474 206C281.3 206 269 218.3 269 233.474C269 248.647 281.3 260.948 296.474 260.948Z" fill="#95DB24"/>
<path d="M305.925 228.759H301.189V224.022C301.189 222.886 300.737 221.796 299.933 220.992C299.13 220.188 298.04 219.737 296.903 219.737C295.766 219.737 294.676 220.188 293.873 220.992C293.069 221.796 292.618 222.886 292.618 224.022V228.759H287.881C286.744 228.759 285.654 229.21 284.851 230.014C284.047 230.818 283.595 231.908 283.595 233.044C283.595 234.181 284.047 235.271 284.851 236.075C285.654 236.878 286.744 237.33 287.881 237.33H292.618V242.067C292.618 243.203 293.069 244.293 293.873 245.097C294.676 245.901 295.766 246.352 296.903 246.352C298.04 246.352 299.13 245.901 299.933 245.097C300.737 244.293 301.189 243.203 301.189 242.067V237.33H305.925C307.062 237.33 308.152 236.878 308.955 236.075C309.759 235.271 310.211 234.181 310.211 233.044C310.211 231.908 309.759 230.818 308.955 230.014C308.152 229.21 307.062 228.759 305.925 228.759Z" fill="white"/>
<path d="M674.813 489.119C689.986 489.119 702.286 476.818 702.286 461.645C702.286 446.472 689.986 434.171 674.813 434.171C659.639 434.171 647.339 446.472 647.339 461.645C647.339 476.818 659.639 489.119 674.813 489.119Z" fill="#FFB725"/>
<path d="M669.969 472.806C669.911 472.806 669.854 472.804 669.797 472.801C669.289 472.777 668.792 472.642 668.341 472.406C667.89 472.17 667.495 471.839 667.183 471.435L662.678 465.605C662.394 465.238 662.184 464.817 662.061 464.367C661.938 463.918 661.904 463.448 661.962 462.986C662.019 462.523 662.166 462.076 662.395 461.671C662.624 461.266 662.93 460.91 663.296 460.624L663.458 460.497C663.824 460.21 664.242 459.999 664.689 459.875C665.136 459.751 665.602 459.717 666.062 459.775C666.522 459.833 666.966 459.981 667.369 460.212C667.771 460.443 668.125 460.751 668.409 461.119C668.637 461.413 668.925 461.654 669.253 461.826C669.582 461.998 669.944 462.096 670.314 462.114C670.684 462.132 671.053 462.07 671.397 461.931C671.74 461.792 672.05 461.581 672.305 461.31L681.453 451.591C682.096 450.908 682.983 450.51 683.918 450.485C684.853 450.459 685.76 450.808 686.44 451.454L686.59 451.598C686.926 451.919 687.196 452.303 687.385 452.729C687.574 453.154 687.677 453.613 687.69 454.08C687.702 454.546 687.624 455.01 687.458 455.445C687.292 455.88 687.043 456.278 686.724 456.617L672.529 471.697C672.199 472.047 671.802 472.326 671.362 472.517C670.922 472.708 670.448 472.806 669.969 472.806Z" fill="white"/>
<g opacity="0.7">
<path d="M143.227 321.74C141.445 317.789 143.137 313.113 147.007 311.294C150.878 309.475 155.46 311.202 157.242 315.152C159.024 319.102 157.332 323.779 153.462 325.598C149.591 327.417 145.009 325.69 143.227 321.74Z" fill="#33486C"/>
<path d="M143.227 321.74C141.445 317.789 143.137 313.113 147.007 311.294C150.878 309.475 155.46 311.202 157.242 315.152C159.024 319.102 157.332 323.779 153.462 325.598C149.591 327.417 145.009 325.69 143.227 321.74Z" fill="url(#paint3_radial_38_2195)"/>
</g>
<path d="M135.41 693.576C131.318 684.506 135.204 673.767 144.091 669.59C152.977 665.413 163.499 669.38 167.592 678.45C171.684 687.52 167.798 698.259 158.911 702.436C150.024 706.613 139.503 702.646 135.41 693.576Z" fill="#2B4062"/>
<path d="M135.41 693.576C131.318 684.506 135.204 673.767 144.091 669.59C152.977 665.413 163.499 669.38 167.592 678.45C171.684 687.52 167.798 698.259 158.911 702.436C150.024 706.613 139.503 702.646 135.41 693.576Z" fill="url(#paint4_radial_38_2195)"/>
<g opacity="0.2">
<path d="M23.5068 607.537C17.4768 611.085 9.77041 608.971 6.29421 602.817C2.81801 596.662 4.88833 588.797 10.9184 585.249C16.9485 581.701 24.6549 583.814 28.1311 589.969C31.6073 596.123 29.5369 603.989 23.5068 607.537Z" fill="#2D4163"/>
<path d="M23.5068 607.537C17.4768 611.085 9.77041 608.971 6.29421 602.817C2.81801 596.662 4.88833 588.797 10.9184 585.249C16.9485 581.701 24.6549 583.814 28.1311 589.969C31.6073 596.123 29.5369 603.989 23.5068 607.537Z" fill="url(#paint5_radial_38_2195)"/>
</g>
<defs>
<radialGradient id="paint0_radial_38_2195" cx="0" cy="0" r="1" gradientUnits="userSpaceOnUse" gradientTransform="translate(689.5 103.5) rotate(134.58) scale(579.136)">
<stop stop-color="#273B5B" stop-opacity="0"/>
<stop offset="1" stop-color="#8E9FBA"/>
</radialGradient>
<radialGradient id="paint1_radial_38_2195" cx="0" cy="0" r="1" gradientUnits="userSpaceOnUse" gradientTransform="translate(544 201.5) rotate(127.977) scale(320.96)">
<stop offset="0.171875" stop-color="#2D4163" stop-opacity="0"/>
<stop offset="1" stop-color="#A9BBDA"/>
</radialGradient>
<linearGradient id="paint2_linear_38_2195" x1="367.033" y1="69.108" x2="578.465" y2="425.009" gradientUnits="userSpaceOnUse">
<stop offset="0.395" stop-color="#E35959"/>
<stop offset="0.72" stop-color="#E26630"/>
<stop offset="0.75" stop-color="#95DB24"/>
</linearGradient>
<radialGradient id="paint3_radial_38_2195" cx="0" cy="0" r="1" gradientUnits="userSpaceOnUse" gradientTransform="translate(157.202 324.113) rotate(-139.667) scale(30.2788 29.7836)">
<stop stop-color="#485C7D" stop-opacity="0.220648"/>
<stop offset="0.171875" stop-color="#2D4163" stop-opacity="0"/>
<stop offset="1" stop-color="#A9BBDA"/>
</radialGradient>
<radialGradient id="paint4_radial_38_2195" cx="0" cy="0" r="1" gradientUnits="userSpaceOnUse" gradientTransform="translate(167.5 699.027) rotate(-139.667) scale(69.527 68.3899)">
<stop stop-color="#485C7D" stop-opacity="0.220648"/>
<stop offset="0.171875" stop-color="#2D4163" stop-opacity="0"/>
<stop offset="1" stop-color="#A9BBDA"/>
</radialGradient>
<radialGradient id="paint5_radial_38_2195" cx="0" cy="0" r="1" gradientUnits="userSpaceOnUse" gradientTransform="translate(25.2073 583.979) rotate(123.976) scale(49.7356 48.3867)">
<stop stop-color="#485C7D" stop-opacity="0.220648"/>
<stop offset="0.171875" stop-color="#2D4163" stop-opacity="0"/>
<stop offset="1" stop-color="#A9BBDA"/>
</radialGradient>
</defs>
</svg>
