<svg viewBox="0 0 1000 776" fill="none" xmlns="http://www.w3.org/2000/svg">
<g>
<path d="M181.101 774.3V722.8C181.101 703.1 169.101 690.2 148.501 690.2C138.201 690.2 127.001 693.6 119.301 704.8C113.301 695.4 104.701 690.2 91.8008 690.2C83.2008 690.2 74.6008 692.8 67.8008 702.2V691.9H49.8008V774.3H67.8008V728.8C67.8008 714.2 75.5008 707.3 87.5008 707.3C99.5008 707.3 105.501 715 105.501 728.8V774.3H123.501V728.8C123.501 714.2 132.101 707.3 143.201 707.3C155.201 707.3 161.201 715 161.201 728.8V774.3H181.101ZM448.101 691.9H418.901V667H400.901V691.9H384.601V708.2H400.901V746C400.901 764.9 408.601 776 429.201 776C436.901 776 445.501 773.4 451.501 770L446.301 754.5C441.101 757.9 435.101 758.8 430.801 758.8C422.201 758.8 418.801 753.6 418.801 745.1V708.2H448.001V691.9H448.101ZM600.901 690.1C590.601 690.1 583.701 695.3 579.401 702.1V691.8H561.401V774.2H579.401V727.8C579.401 714.1 585.401 706.3 596.601 706.3C600.001 706.3 604.301 707.2 607.801 708L613.001 690.8C609.401 690.1 604.301 690.1 600.901 690.1ZM370.001 698.7C361.401 692.7 349.401 690.1 336.501 690.1C315.901 690.1 302.201 700.4 302.201 716.7C302.201 730.4 312.501 738.2 330.501 740.7L339.101 741.6C348.501 743.3 353.701 745.9 353.701 750.2C353.701 756.2 346.801 760.5 334.801 760.5C322.801 760.5 313.301 756.2 307.301 751.9L298.701 765.6C308.101 772.5 321.001 775.9 333.901 775.9C357.901 775.9 371.701 764.7 371.701 749.3C371.701 734.7 360.501 727 343.401 724.4L334.801 723.5C327.101 722.6 321.101 720.9 321.101 715.8C321.101 709.8 327.101 706.4 336.601 706.4C346.901 706.4 357.201 710.7 362.401 713.3L370.001 698.7ZM848.901 690.1C838.601 690.1 831.701 695.3 827.401 702.1V691.8H809.401V774.2H827.401V727.8C827.401 714.1 833.401 706.3 844.601 706.3C848.001 706.3 852.301 707.2 855.801 708L861.001 691C857.501 690.1 852.401 690.1 848.901 690.1ZM618.901 733.1C618.901 758 636.101 776 662.701 776C674.701 776 683.301 773.4 691.901 766.6L683.301 752C676.401 757.2 669.601 759.7 661.801 759.7C647.201 759.7 636.901 749.4 636.901 733.1C636.901 717.6 647.201 707.3 661.801 706.5C669.501 706.5 676.401 709.1 683.301 714.2L691.901 699.6C683.301 692.7 674.701 690.2 662.701 690.2C636.101 690.1 618.901 708.2 618.901 733.1ZM785.401 733.1V691.9H767.401V702.2C761.401 694.5 752.801 690.2 741.601 690.2C718.401 690.2 700.401 708.2 700.401 733.1C700.401 758 718.401 776 741.601 776C753.601 776 762.201 771.7 767.401 764V774.3H785.401V733.1ZM719.301 733.1C719.301 718.5 728.701 706.5 744.201 706.5C758.801 706.5 769.101 717.7 769.101 733.1C769.101 747.7 758.801 759.7 744.201 759.7C728.801 758.8 719.301 747.6 719.301 733.1ZM503.901 690.1C479.901 690.1 462.701 707.3 462.701 733C462.701 758.8 479.901 775.9 504.801 775.9C516.801 775.9 528.801 772.5 538.301 764.7L529.701 751.8C522.801 757 514.201 760.4 505.701 760.4C494.501 760.4 483.401 755.2 480.801 740.7H541.701C541.701 738.1 541.701 736.4 541.701 733.8C542.501 707.3 527.001 690.1 503.901 690.1ZM503.901 705.6C515.101 705.6 522.801 712.5 524.501 725.3H481.601C483.301 714.2 491.001 705.6 503.901 705.6ZM951.101 733.1V659.3H933.101V702.2C927.101 694.5 918.501 690.2 907.301 690.2C884.101 690.2 866.101 708.2 866.101 733.1C866.101 758 884.101 776 907.301 776C919.301 776 927.901 771.7 933.101 764V774.3H951.101V733.1ZM885.001 733.1C885.001 718.5 894.401 706.5 909.901 706.5C924.501 706.5 934.801 717.7 934.801 733.1C934.801 747.7 924.501 759.7 909.901 759.7C894.401 758.8 885.001 747.6 885.001 733.1ZM282.401 733.1V691.9H264.401V702.2C258.401 694.5 249.801 690.2 238.601 690.2C215.401 690.2 197.401 708.2 197.401 733.1C197.401 758 215.401 776 238.601 776C250.601 776 259.201 771.7 264.401 764V774.3H282.401V733.1ZM215.501 733.1C215.501 718.5 224.901 706.5 240.401 706.5C255.001 706.5 265.301 717.7 265.301 733.1C265.301 747.7 255.001 759.7 240.401 759.7C224.901 758.8 215.501 747.6 215.501 733.1Z" fill="black"/>
<path d="M634.4 66.0996H364V551.9H634.4V66.0996Z" fill="#FF5A00"/>
<path d="M382 309C382 210.3 428.4 122.7 499.6 66.1C447.2 24.9 381.1 0 309 0C138.2 0 0 138.2 0 309C0 479.8 138.2 618 309 618C381.1 618 447.2 593.1 499.6 551.9C428.3 496.1 382 407.7 382 309Z" fill="#EB001B"/>
<path d="M999.2 309C999.2 479.8 861 618 690.2 618C618.1 618 552 593.1 499.6 551.9C571.7 495.2 617.2 407.7 617.2 309C617.2 210.3 570.8 122.7 499.6 66.1C551.9 24.9 618 0 690.1 0C861 0 999.2 139.1 999.2 309Z" fill="#F79E1B"/>
</g>
</svg>
