<svg width="30" height="30" viewBox="0 0 30 30" fill="none" xmlns="http://www.w3.org/2000/svg">
<g clip-path="url(#clip0_1229_3368)">
<path d="M29.9995 14.9709C29.9995 23.2388 23.2845 29.9417 14.9999 29.9417C6.71524 29.9417 0.000244141 23.2388 0.000244141 14.9709C0.000244141 6.70298 6.71542 0 14.9999 0C23.2843 0 29.9995 6.70234 29.9995 14.9709Z" fill="white"/>
<path d="M15 0C6.71835 0 -0.00857738 6.71246 0.0019655 14.9704C0.00404213 16.6226 0.268013 18.2118 0.763451 19.6984H5.2512V7.10456L15 16.8343L24.7484 7.10456V19.6987H29.237C29.7332 18.2122 29.9958 16.6229 29.9988 14.9706C30.0129 6.70409 23.2826 0.00199287 15 0.00199287V0Z" fill="#F26822"/>
<path d="M12.7579 19.0711L8.50343 14.8247V22.7494H5.25073L2.1814 22.75C4.81416 27.061 9.57218 29.9447 14.9998 29.9447C20.4275 29.9447 25.1858 27.0603 27.819 22.7494H21.4953V14.8247L17.2406 19.0711L14.9994 21.308L12.758 19.0711H12.7579Z" fill="#4D4D4D"/>
</g>
<defs>
<clipPath id="clip0_1229_3368">
<rect width="30" height="30" fill="white"/>
</clipPath>
</defs>
</svg>
