<svg width="20" height="20" viewBox="0 0 20 20" fill="none" xmlns="http://www.w3.org/2000/svg">
<path fill-rule="evenodd" clip-rule="evenodd" d="M5 2C3.34315 2 2 3.34315 2 5V15C2 16.6569 3.34315 18 5 18H15C16.6569 18 18 16.6569 18 15V5C18 3.34315 16.6569 2 15 2H5ZM8.04951 8.28754C8.54541 8.28754 8.94741 7.88553 8.94741 7.38964C8.94741 6.89375 8.54541 6.49174 8.04951 6.49174C7.55362 6.49174 7.15162 6.89375 7.15162 7.38964C7.15162 7.88553 7.55362 8.28754 8.04951 8.28754ZM6.83829 10.7193C7.06687 10.4883 7.06488 10.1157 6.83385 9.88712C6.60281 9.65854 6.23022 9.66052 6.00164 9.89156L5.30376 10.5969L4.61863 11.2971C4.39133 11.5295 4.3954 11.902 4.6277 12.1293C4.86 12.3566 5.23258 12.3525 5.45987 12.1202L5.76533 11.8081C6.59056 12.4927 7.88836 13.4988 9.99938 13.4604C12.1104 13.4988 13.4082 12.4927 14.2334 11.8081L14.5388 12.1202C14.7661 12.3525 15.1387 12.3566 15.371 12.1293C15.6033 11.902 15.6074 11.5295 15.3801 11.2971L14.6972 10.5992L13.9971 9.89156C13.7685 9.66052 13.3959 9.65854 13.1649 9.88712C12.9338 10.1157 12.9318 10.4883 13.1604 10.7193L13.4026 10.9641C12.6141 11.6077 11.6421 12.3161 10.0111 12.2834C10.0033 12.2833 9.99546 12.2833 9.98761 12.2834C8.35664 12.3161 7.38463 11.6077 6.59615 10.9641L6.83829 10.7193ZM12.8982 7.38964C12.8982 7.88553 12.4962 8.28754 12.0003 8.28754C11.5044 8.28754 11.1024 7.88553 11.1024 7.38964C11.1024 6.89375 11.5044 6.49174 12.0003 6.49174C12.4962 6.49174 12.8982 6.89375 12.8982 7.38964Z" fill="#5A78A6"/>
</svg>
