<svg xmlns="http://www.w3.org/2000/svg" width="48.532" height="48.493" viewBox="0 0 48.532 48.493">
    <defs>
        <style>
            .cls-1{fill:#87AB49;stroke:#87AB49;stroke-width:.5px}
        </style>
    </defs>
    <g id="_005-worldwide" data-name="005-worldwide" transform="translate(-22.734 -21.53)">
        <g id="Group_2777" data-name="Group 2777" transform="translate(23 21.78)">
            <path id="Path_30623" d="M42.46 9.753a.883.883 0 0 0 .255-.628l-.059-4.836a.893.893 0 0 0-1.785.02L40.9 7l-.128-.128A24 24 0 0 0 1.409 32.157a.884.884 0 0 0 .834.589 1.094 1.094 0 0 0 .3-.049.892.892 0 0 0 .539-1.138A22.223 22.223 0 0 1 39.527 8.144l.137.137-2.688.029a.893.893 0 0 0 .01 1.785H37l4.836-.059a.957.957 0 0 0 .624-.283z" class="cls-1" data-name="Path 30623" transform="translate(0 -.045)"/>
            <path id="Path_30624" d="M95.172 156.27a.89.89 0 1 0-1.677.6 22.227 22.227 0 0 1-36.441 23.424l-.137-.137 2.688-.029a.9.9 0 0 0 .883-.9.89.89 0 0 0-.9-.883l-4.836.059a.9.9 0 0 0-.883.9l.059 4.836a.894.894 0 0 0 .893.883h.01a.9.9 0 0 0 .883-.9l-.029-2.688.137.137a23.839 23.839 0 0 0 16.76 6.828h.284a23.991 23.991 0 0 0 23.218-19.079 24.234 24.234 0 0 0-.912-13.051z" class="cls-1" data-name="Path 30624" transform="translate(-48.582 -140.412)"/>
            <path id="Path_30625" d="M111.422 96.912a14.488 14.488 0 1 0 5.552 27.867 14.486 14.486 0 0 0-5.552-27.867zm11.163 8.4h-2.933a14.673 14.673 0 0 0-2.541-5.287 12.7 12.7 0 0 1 5.473 5.284zM99.484 115.7a12.614 12.614 0 0 1 0-8.612h4.041a24.105 24.105 0 0 0-.373 4.306 23.419 23.419 0 0 0 .4 4.306zm5.444-4.306a23.017 23.017 0 0 1 .4-4.306h5.562v8.612h-5.513a21 21 0 0 1-.449-4.31zm7.749-12.35c2.236.5 4.1 2.884 5.12 6.278h-5.12zm-1.775 0v6.268h-5.12c1.018-3.388 2.883-5.771 5.118-6.271zm0 18.441v6.258c-2.1-.549-3.963-2.972-5.032-6.258zm1.775 6.258v-6.258h5.032c-1.069 3.283-2.933 5.705-5.032 6.255zm0-8.043v-8.612h5.562a22.223 22.223 0 0 1 .4 4.306 20.331 20.331 0 0 1-.461 4.306zm7.376-8.612h3.335a12.611 12.611 0 0 1-.01 8.612h-3.365a22.6 22.6 0 0 0 .4-4.306 25.159 25.159 0 0 0-.359-4.31zm-13.478-7.425c.1-.039.206-.078.3-.118a14.09 14.09 0 0 0-2.953 5.778h-3.649a12.578 12.578 0 0 1 6.303-5.664zm-6.3 17.823h3.7a14.4 14.4 0 0 0 3.119 5.866 12.69 12.69 0 0 1-6.815-5.87zm16.617 5.385a15.085 15.085 0 0 0 2.7-5.385h2.982a12.7 12.7 0 0 1-5.674 5.381z" class="cls-1" data-name="Path 30625" transform="translate(-87.432 -87.41)"/>
        </g>
    </g>
</svg>
