<svg width="20" height="20" viewBox="0 0 20 20" fill="none" xmlns="http://www.w3.org/2000/svg">
<path fill-rule="evenodd" clip-rule="evenodd" d="M18 10C18 14.4183 14.4183 18 10 18C5.58172 18 2 14.4183 2 10C2 5.58172 5.58172 2 10 2C14.4183 2 18 5.58172 18 10ZM10.0001 5.78947C9.57994 5.78947 9.16925 5.91406 8.81992 6.14747C8.4706 6.38088 8.19833 6.71264 8.03756 7.10078C7.87678 7.48893 7.83471 7.91604 7.91668 8.3281C7.99864 8.74015 8.20095 9.11865 8.49803 9.41573C8.7951 9.7128 9.1736 9.91512 9.58566 9.99708C9.99771 10.079 10.4248 10.037 10.813 9.8762C11.2011 9.71542 11.5329 9.44316 11.7663 9.09383C11.9997 8.74451 12.1243 8.33381 12.1243 7.91368C12.1244 7.63469 12.0696 7.3584 11.9629 7.10062C11.8562 6.84284 11.6997 6.60861 11.5024 6.41133C11.3051 6.21405 11.0709 6.05759 10.8131 5.95089C10.5554 5.84419 10.2791 5.78934 10.0001 5.78947ZM10.0001 8.97263C9.79063 8.97263 9.58589 8.91053 9.41175 8.79417C9.23761 8.67781 9.10188 8.51242 9.02173 8.31893C8.94158 8.12543 8.92061 7.91251 8.96147 7.70709C9.00233 7.50168 9.10318 7.31299 9.25128 7.1649C9.39938 7.0168 9.58806 6.91594 9.79348 6.87508C9.9989 6.83422 10.2118 6.8552 10.4053 6.93534C10.5988 7.01549 10.7642 7.15122 10.8806 7.32536C10.9969 7.49951 11.059 7.70424 11.059 7.91368C11.0592 8.05279 11.0319 8.19055 10.9787 8.31909C10.9255 8.44763 10.8475 8.56442 10.7492 8.66278C10.6508 8.76114 10.534 8.83914 10.4055 8.89231C10.2769 8.94547 10.1392 8.97277 10.0001 8.97263ZM13.1305 10.3632C13.0843 10.2806 13.0222 10.208 12.9478 10.1494C12.8735 10.0909 12.7883 10.0475 12.6972 10.0219C12.6061 9.99629 12.5108 9.98889 12.4168 10.0001C12.3228 10.0114 12.232 10.041 12.1495 10.0874C10.7032 10.898 9.29684 10.898 7.85053 10.0874C7.76759 10.0411 7.67634 10.0116 7.58199 10.0006C7.48764 9.98952 7.39204 9.99717 7.30065 10.0231C7.20926 10.049 7.12386 10.0926 7.04934 10.1515C6.97481 10.2104 6.91262 10.2834 6.86632 10.3664C6.82001 10.4493 6.79049 10.5406 6.77945 10.6349C6.7684 10.7293 6.77605 10.8249 6.80195 10.9163C6.85427 11.1008 6.97776 11.2571 7.14526 11.3506C7.61974 11.6199 8.12664 11.8275 8.65368 11.9685L7.63053 12.9916C7.49612 13.1261 7.42061 13.3084 7.42061 13.4985C7.42061 13.6886 7.49612 13.8709 7.63053 14.0053C7.76496 14.1397 7.94727 14.2152 8.13737 14.2152C8.32747 14.2152 8.50978 14.1397 8.64421 14.0053L10 12.6443L11.3558 14.0001C11.4902 14.1345 11.6725 14.21 11.8626 14.21C12.0527 14.21 12.235 14.1345 12.3695 14.0001C12.5039 13.8656 12.5794 13.6833 12.5794 13.4932C12.5794 13.3031 12.5039 13.1208 12.3695 12.9864L11.3463 11.9632C11.8734 11.8223 12.3803 11.6146 12.8547 11.3453C12.9375 11.2991 13.0102 11.237 13.0689 11.1625C13.1276 11.0881 13.1709 11.0028 13.1966 10.9115C13.2222 10.8203 13.2295 10.7249 13.2182 10.6308C13.2069 10.5367 13.1771 10.4458 13.1305 10.3632Z" fill="#5A78A6"/>
</svg>
