<svg xmlns="http://www.w3.org/2000/svg" width="311.63" height="502.299" viewBox="0 0 311.63 502.299"><g transform="translate(868.567 -74.701)"><g transform="translate(-737.471 545.521)"><path d="M-641.1,658a70.641,70.641,0,0,1,13.777,1.157c1.729.351,3.423,1.124,5.156,1.435,3.462.622,6.863,1.784,10.338,2.319,2.8.431,5.608.686,8.4,1.233a16.426,16.426,0,0,0,8.107-.453,33.327,33.327,0,0,0,5.741-1.989,14.1,14.1,0,0,1,6.612-1.9c3.14.041,6.2.046,9.2,2.036a9.868,9.868,0,0,1,3.148,3.314c1.833,3.357,2.082,11.733.251,15.214-3.084,5.86-9.665,8.16-13.988,8.268-4.737.119-9.338-.523-14.082-.9-4.408-.35-8.805-.849-13.22-.832a215.19,215.19,0,0,1-27.038-1.1c-8.457-1.033-16.935-.679-25.411-.679-8.691,0-17.324.125-25.952,2.233-3.76.919-7.59,1.241-11.368,1.885-3.384.576-6.636-.011-10.006-.544a16.433,16.433,0,0,1-8.213-4.018c-2.035-1.776-5.663-7.292-6.288-11.531-1.75-11.882,24.66-11.6,28.714-11.57,4.536.03,9.108.3,13.641-.014a19.058,19.058,0,0,0,5.646-1.559c1.854-.743,3.721-.554,5.6-.865,7.838-1.3,15.694-1.111,23.557-1.111C-646.217,658.03-643.657,657.989-641.1,658Z" transform="translate(726.017 -658)" fill="rgba(16,33,84,0.26)" opacity="0.5"/></g><g transform="translate(-785.416 74.701)"><g transform="translate(81.721 100.145)"><g transform="translate(0)"><g transform="translate(74.457 370.304)"><path d="M-686.9,657.54l11.116,7.127,3.857,5.664a41.865,41.865,0,0,1-6.175,2.533c-2.222.552-19.837-1.329-19.837-1.329l-.478-10.315Z" transform="translate(698.416 -657.54)" fill="#273140"/></g><g transform="translate(14.403 375.601)"><path d="M-605.371,666.586l5.494,6.16s4.469,8.35,2.229,8.222-14.421.525-15.24-.871-7.287-6.263-8.132-7.21S-621,664.1-621,664.1Z" transform="translate(621.391 -664.103)" fill="#273140"/></g><g transform="translate(6.412 192.339)"><path d="M-594.538,458.94l-13.8,83.926-17.61,79.938-15.688-.9,3.024-84.37S-649.925,460-649.963,437.059Z" transform="translate(649.963 -437.059)" fill="#bdbfc1"/></g><g transform="translate(52.921 182.873)"><path d="M-649.321,460.816l-6.315,154.9-16.145.747-8.586-78.7-12.5-69.454,33.367-42.973Z" transform="translate(692.869 -425.332)" fill="#bdbfc1"/></g><g transform="translate(0 61.824)"><g transform="translate(14.566 23.086)"><path d="M-591.4,303.966h0Z" transform="translate(591.399 -303.966)" fill="none"/></g><path d="M-633.367,350.341c-8.466-41.195,2.283-61.057-16.245-72.505,0,0-30.184-8.294-49.411,5.508q-.4.287-.794.583l-6.988,14.524-5.3,65.163s-14.833,85.548-6.96,86.239c8.921.782,49.872-18.3,57.648-17.852s31.563,4.711,54.018-2.932C-588.151,422.516-624.9,391.537-633.367,350.341Z" transform="translate(721.372 -275.365)" fill="#8cabef"/></g><g transform="translate(43.999 63.026)"><path d="M-654.106,276.854l-5.871.22-.6,5.909L-639,343.307l4.833-26.141L-639.45,279.2Z" transform="translate(660.576 -276.854)" fill="#fff"/></g><g transform="translate(59.885 152.661)"><path d="M-675.964,387.9l-8.313,65.68,17.529,2.474,12.12-.942-15.331-56.983Z" transform="translate(684.277 -387.903)" fill="#fff"/></g><g transform="translate(19.008)"><g transform="translate(17.415 23.27)"><path d="M-638.31,269.97l-12.072.5a60.364,60.364,0,0,1-.695-9.6c-3.472-.7-7.539-1.9-8.6-5.28a9.987,9.987,0,0,1-.269-3.318c.144-4.608-1.15-9.28.431-13.825.524-1.506.11-3.236.768-4.688,1.155-2.549,3.893-3.979,6.556-4.837,6.8-2.191,14.6-1.751,20.645,2.051a10.906,10.906,0,0,1,4,3.971c1.362,2.594,1.055,5.711.714,8.621q-.472,4.029-.945,8.059c-.363,3.09-1.015,6.636-3.728,8.157-1.441.808-3.264.888-4.521,1.96C-638.247,263.629-637.409,267.2-638.31,269.97Z" transform="translate(660.311 -227.599)" fill="#e7caad"/></g><path d="M-620.4,204.533a11.818,11.818,0,0,1-2.781-.517c-3.012-1.018-5.261-3.38-8.446-4.305a28.341,28.341,0,0,0-20.145,2.237c-5.655,2.963-13.578,4.59-18.545,8.349a16.054,16.054,0,0,0-4.69,6.139,24.2,24.2,0,0,0,3.5,25.345,34.638,34.638,0,0,0,4.39,4.175c3.238,2.651,7.129,5.94,11.152,6.524-.395-3.47-5.079-13.927-2.823-17.135,2.991-4.253,9.531-4.7,14.249-4.663,5.621.05,10.06-2.13,15.646-2.323,2.845-.1,6.1.2,8.114-1.808,2.332-2.321,7.073-9.47,8.084-12.516a7.453,7.453,0,0,0-2.208-7.653C-616.7,204.762-618.507,204.708-620.4,204.533Z" transform="translate(677.114 -198.771)" fill="#292949"/></g></g><g transform="translate(68.211 63.365)"><path d="M-672.806,310.4l-36.565-33.129-8.792,7.413,30.266,50.549,13.661,1.311s3.937-14.071,4.748-15.564Z" transform="translate(718.164 -277.273)" fill="#8cabef"/></g></g><g transform="translate(51.694 166.282)"><path d="M-556.744,280.708l-17.328,5.341-41.456,70.664,2.826,13.662,53.7,26.852,7.537-14.6-33.919-25.91,20.728-28.266,8.009-45.225Z" transform="translate(615.528 -280.708)" fill="#8cabef"/></g><g transform="translate(138.376 154.663)"><path d="M-648.233,275.763l-8.8-9.45-8.48,2.355-2.355,8.48,7.537,1.413,7.08,1.429Z" transform="translate(667.865 -266.314)" fill="#eac1a4"/></g><g transform="translate(109.564 269.639)"><path d="M-627.031,408.756l8.462,1.742-1.359,4.983,7.329,8.577-10.047,3.655-9.841-8.386Z" transform="translate(632.487 -408.756)" fill="#e7caad"/></g><g transform="translate(-83.151 204.191)"><g transform="translate(47.128 120.309)"><path d="M-366.61,337.919a13.281,13.281,0,0,0-8.134,6.644,13.278,13.278,0,0,0-.982,10.458,13.268,13.268,0,0,0,6.645,8.134,13.28,13.28,0,0,0,10.457.982,14.14,14.14,0,0,0,3.9-1.848,13.312,13.312,0,0,0,4.236-4.8,13.282,13.282,0,0,0,.982-10.458,13.294,13.294,0,0,0-6.646-8.135A13.291,13.291,0,0,0-366.61,337.919Z" transform="translate(376.368 -337.279)" fill="#97f2ff"/></g><g transform="translate(53.65 120.309)"><path d="M-351.1,338.9a13.291,13.291,0,0,0-10.457-.982,14.437,14.437,0,0,0-3.236,1.424,13.183,13.183,0,0,1,7.53,1.561,13.294,13.294,0,0,1,6.647,8.135A13.282,13.282,0,0,1-351.6,359.5a13.312,13.312,0,0,1-4.237,4.8c-.216.148-.438.287-.664.423a14.644,14.644,0,0,0,2.928-.58,14.14,14.14,0,0,0,3.9-1.848,13.312,13.312,0,0,0,4.236-4.8,13.281,13.281,0,0,0,.982-10.458A13.294,13.294,0,0,0-351.1,338.9Z" transform="translate(364.79 -337.279)" fill="#97f2ff"/></g><path d="M-390.749,127.808c-10.256-4.957-22.121-5.442-35.265-1.439s-22.783,11.033-28.662,20.9c-5.111,8.576-6.576,18.19-4.356,28.576a6.426,6.426,0,0,0,3.016,4.184,6.421,6.421,0,0,0,5.12.609l7.826-2.383a6.409,6.409,0,0,0,4.43-7.312c-1.061-5.7-.349-10.556,2.178-14.832,3.06-5.175,8.433-8.963,15.971-11.259,7.515-2.289,14.068-2.039,19.478.742,5.389,2.775,9.26,7.918,11.5,15.286,3.093,10.155,2.268,17.883-2.453,22.968-4.971,5.354-13.947,9.963-26.7,13.707l-3.387,1.031a6.416,6.416,0,0,0-4.263,8l8.983,29.494a6.365,6.365,0,0,0,3.116,3.788,6.363,6.363,0,0,0,4.881.475l7.938-2.418a6.38,6.38,0,0,0,1.751-.84,6.422,6.422,0,0,0,2.513-7.157l-5.817-19.1a.462.462,0,0,1,.291-.57c14.672-4.9,25.035-11.646,30.8-20.05,6.133-8.937,7.118-20.449,2.925-34.216C-373.1,142.276-380.444,132.795-390.749,127.808Z" transform="translate(460.036 -123.69)" fill="#97f2ff"/><g transform="translate(13.702)"><path d="M-380.126,127.808c-10.256-4.957-22.121-5.442-35.265-1.439a54.135,54.135,0,0,0-20.321,10.873,62.023,62.023,0,0,1,10.967-4.467c13.144-4,25.009-3.519,35.265,1.439,10.305,4.987,17.647,14.468,21.823,28.181,4.193,13.767,3.209,25.279-2.924,34.216a37.991,37.991,0,0,1-6.608,7.268c7.041-3.891,12.386-8.464,15.961-13.674,6.133-8.937,7.118-20.449,2.925-34.216C-362.478,142.276-369.82,132.795-380.126,127.808Z" transform="translate(435.711 -123.69)" fill="#97f2ff"/></g></g><g transform="translate(24.055 125.291)"><path d="M-741.833,229.934a13.844,13.844,0,0,0-9.976,4.51,13.838,13.838,0,0,0-3.8,10.27,13.83,13.83,0,0,0,4.51,9.977,13.845,13.845,0,0,0,10.269,3.795,14.762,14.762,0,0,0,4.422-.814,13.883,13.883,0,0,0,5.554-3.7,13.841,13.841,0,0,0,3.794-10.269,13.857,13.857,0,0,0-4.511-9.977A13.851,13.851,0,0,0-741.833,229.934Z" transform="translate(755.615 -229.924)" fill="#97f2ff"/></g><g transform="translate(34.194 125.291)"><path d="M-729.143,233.728a13.851,13.851,0,0,0-10.268-3.794,15.03,15.03,0,0,0-3.642.567,13.742,13.742,0,0,1,7.165,3.593,13.861,13.861,0,0,1,4.512,9.977,13.845,13.845,0,0,1-3.8,10.269,13.883,13.883,0,0,1-5.554,3.7c-.258.09-.519.172-.783.248a15.262,15.262,0,0,0,3.105.2,14.762,14.762,0,0,0,4.422-.814,13.883,13.883,0,0,0,5.554-3.7,13.841,13.841,0,0,0,3.794-10.269A13.857,13.857,0,0,0-729.143,233.728Z" transform="translate(743.053 -229.924)" fill="#97f2ff"/></g><path d="M-703.745,85.658c-9-7.745-20.821-11.416-35.134-10.91s-25.908,5-34.476,13.359c-7.448,7.267-11.5,16.557-12.054,27.614a6.7,6.7,0,0,0,1.915,5.023,6.694,6.694,0,0,0,4.994,1.987l8.521-.3a6.679,6.679,0,0,0,6.423-6.176c.462-6.03,2.481-10.726,6.173-14.355,4.47-4.391,10.9-6.765,19.107-7.055,8.182-.289,14.716,1.721,19.419,5.973,4.684,4.241,7.2,10.459,7.486,18.483.391,11.058-2.514,18.621-8.633,22.476-6.443,4.058-16.72,6.293-30.566,6.644l-3.687.13a6.687,6.687,0,0,0-6.44,6.912l1.135,32.116a6.635,6.635,0,0,0,2.122,4.651,6.636,6.636,0,0,0,4.79,1.789l8.644-.305a6.639,6.639,0,0,0,1.989-.377,6.692,6.692,0,0,0,4.451-6.534L-738.3,166a.482.482,0,0,1,.446-.5c16.092-1,28.34-5.013,36.4-11.93,8.574-7.357,12.655-18.687,12.125-33.678C-689.852,104.964-694.7,93.445-703.745,85.658Z" transform="translate(785.416 -74.701)" fill="#97f2ff"/><g transform="translate(23.154)"><path d="M-698.213,85.658c-9-7.745-20.821-11.416-35.134-10.91a56.445,56.445,0,0,0-23.384,5.5,64.723,64.723,0,0,1,12.246-1.556c14.312-.505,26.133,3.166,35.133,10.91,9.041,7.788,13.893,19.307,14.42,34.238.529,14.991-3.55,26.322-12.125,33.678a39.616,39.616,0,0,1-8.606,5.547c8.136-2.03,14.746-5.2,19.746-9.49,8.575-7.357,12.655-18.687,12.125-33.678C-684.321,104.964-689.172,93.445-698.213,85.658Z" transform="translate(756.731 -74.701)" fill="#97f2ff"/></g><g transform="translate(164.956 80.397)"><g transform="translate(0 57.155)"><path d="M-569.764,246.118a7.317,7.317,0,0,0-5.743-.714,7.314,7.314,0,0,0-4.54,3.588,7.312,7.312,0,0,0-.714,5.743,7.319,7.319,0,0,0,3.588,4.54,7.809,7.809,0,0,0,2.219.851,7.351,7.351,0,0,0,3.524-.137,7.317,7.317,0,0,0,4.54-3.588,7.323,7.323,0,0,0,.713-5.744A7.321,7.321,0,0,0-569.764,246.118Z" transform="translate(581.052 -245.114)" fill="#97f2ff"/></g><g transform="translate(2.533 57.412)"><path d="M-565.571,250.719a7.321,7.321,0,0,0-3.587-4.539,7.944,7.944,0,0,0-1.8-.747,7.264,7.264,0,0,1,2.243,3.594,7.327,7.327,0,0,1-.713,5.744,7.317,7.317,0,0,1-4.541,3.587,7.326,7.326,0,0,1-3.523.137c-.141-.03-.282-.065-.421-.1a8.047,8.047,0,0,0,1.346.946,7.809,7.809,0,0,0,2.219.851,7.351,7.351,0,0,0,3.524-.137,7.317,7.317,0,0,0,4.54-3.588A7.324,7.324,0,0,0-565.571,250.719Z" transform="translate(577.913 -245.432)" fill="#97f2ff"/></g><g transform="translate(8.85)"><path d="M-516.379,192.953c-1.927-5.973-6.248-10.885-12.844-14.6s-13.065-4.88-19.232-3.469a21.172,21.172,0,0,0-13.044,9.137,3.538,3.538,0,0,0-.52,2.794,3.538,3.538,0,0,0,1.706,2.272l3.928,2.211a3.53,3.53,0,0,0,4.6-1.016,11.352,11.352,0,0,1,6.739-4.776c3.226-.75,6.78-.05,10.563,2.08s6.166,4.83,7.116,8.043.368,6.7-1.714,10.4c-2.87,5.1-6.264,7.708-10.086,7.763-4.025.056-9.277-1.767-15.619-5.423l-1.7-.956a3.535,3.535,0,0,0-4.809,1.344l-8.334,14.8a3.506,3.506,0,0,0-.325,2.682,3.508,3.508,0,0,0,1.668,2.126l3.983,2.243a3.529,3.529,0,0,0,1,.379,3.538,3.538,0,0,0,3.807-1.722l5.4-9.585a.254.254,0,0,1,.338-.1c7.535,3.981,14.166,5.544,19.709,4.644,5.895-.956,10.856-4.945,14.746-11.853C-515.429,205.489-514.445,198.957-516.379,192.953Z" transform="translate(570.087 -174.305)" fill="#97f2ff"/></g><g transform="translate(33.366 0.089)"><path d="M-510.522,192.974c-1.927-5.973-6.248-10.885-12.844-14.6a29.825,29.825,0,0,0-12.064-3.96,34.117,34.117,0,0,1,5.953,2.671c6.6,3.714,10.918,8.625,12.844,14.6,1.934,6,.95,12.536-2.925,19.418-3.891,6.909-8.851,10.9-14.746,11.853a20.935,20.935,0,0,1-5.41.132,25.147,25.147,0,0,0,11.522,1.157c5.895-.956,10.856-4.945,14.746-11.853C-509.572,205.51-508.588,198.978-510.522,192.974Z" transform="translate(539.715 -174.415)" fill="#97f2ff"/></g></g></g></g></svg>