<svg xmlns="http://www.w3.org/2000/svg" width="59.866" height="75.3" viewBox="0 0 59.866 75.3">
    <path id="prefix___006-onion" d="M33.259 8.2V1.331a1.332 1.332 0 0 0-1.927-1.19L26.011 2.8a1.331 1.331 0 0 0-.734 1.191v4.37A30.1 30.1 0 0 0 .017 38.94 30.186 30.186 0 0 0 21.68 66.657l-.615.1a1.33 1.33 0 0 0 .217 2.642 1.244 1.244 0 0 0 .219-.018l5.219-.87-2.652 2.653a1.33 1.33 0 1 0 1.881 1.881l3.317-3.317v4.24a1.33 1.33 0 1 0 2.66 0v-4.237l3.317 3.317a1.331 1.331 0 1 0 1.882-1.881l-2.481-2.481 5 1a1.374 1.374 0 0 0 .262.026 1.331 1.331 0 0 0 .259-2.635l-1.931-.386a29.736 29.736 0 0 0 12.185-6.955A29.91 29.91 0 0 0 33.259 8.2zM48.6 57.8a27.181 27.181 0 0 1-9.167 5.693 34.718 34.718 0 0 0 10.792-14.117 28.964 28.964 0 0 0-1.069-24.713 1.331 1.331 0 0 0-2.36 1.231 26.076 26.076 0 0 1 .965 22.478 31.73 31.73 0 0 1-12.407 14.723c6.031-9.064 9.515-26.99 5.407-40.854a1.331 1.331 0 0 0-2.552.759c4.408 14.876-.381 33.173-6.282 40.273V17.3a1.331 1.331 0 0 0-2.661 0v45.968c-5.9-7.1-10.689-25.4-6.282-40.273a1.33 1.33 0 0 0-2.551-.755c-4.108 13.864-.624 31.792 5.407 40.854A31.744 31.744 0 0 1 13.432 48.37a26.068 26.068 0 0 1 .968-22.477 1.331 1.331 0 0 0-2.36-1.231 28.968 28.968 0 0 0-1.069 24.713A34.7 34.7 0 0 0 22.7 64.191a27.25 27.25 0 0 1 4.06-53.346 1.33 1.33 0 0 0 1.177-1.321v-4.71l2.663-1.33v5.931a1.331 1.331 0 0 0 1.239 1.328 27.329 27.329 0 0 1 25.367 27.174A27.02 27.02 0 0 1 48.6 57.8zm0 0" data-name="006-onion" style="fill:#87AB49"/>
</svg>
