<svg width="213" height="213" viewBox="0 0 213 213" fill="none" xmlns="http://www.w3.org/2000/svg">
<rect width="213" height="213" rx="106.5" fill="white"/>
<g clip-path="url(#clip0_4_109464)">
<path d="M80.154 150.914C71.4985 140.696 65.8911 125.589 65.5104 108.637C65.5091 108.593 65.5091 104.992 65.5104 104.948C65.8911 87.9965 71.4981 72.8899 80.1534 62.6722C91.3858 48.0867 108.241 42.3534 126.886 42.3534C138.356 42.3534 158.105 48.4298 158.105 48.4298C144.323 36.0992 126.151 28.5774 106.22 28.5037C106.121 28.5034 106.023 28.5 105.924 28.5C62.6848 28.5 27.6324 63.5524 27.6324 106.792C27.6324 148.781 60.6878 183.046 102.196 184.993C103.432 185.051 104.674 185.084 105.924 185.084C125.969 185.084 144.25 177.548 158.1 165.159C158.1 165.159 139.103 169.484 127.635 169.484C108.99 169.483 91.3858 165.499 80.154 150.914Z" fill="url(#paint0_linear_4_109464)"/>
<path d="M80.1531 62.6724C87.3367 54.1922 96.6176 49.0775 106.755 49.0775C129.546 49.0775 148.022 74.9178 148.022 106.793C148.022 138.668 129.546 164.508 106.755 164.508C96.6179 164.508 87.337 159.394 80.1537 150.914C91.3855 165.499 108.082 174.747 126.726 174.747C138.194 174.747 148.923 171.246 158.099 165.159C174.126 150.823 184.216 129.987 184.216 106.792C184.216 83.5993 174.128 62.7657 158.105 48.4297C148.928 42.3407 138.196 38.8384 126.726 38.8384C108.082 38.8387 91.3852 48.0872 80.1531 62.6724Z" fill="url(#paint1_linear_4_109464)"/>
</g>
<defs>
<linearGradient id="paint0_linear_4_109464" x1="92.8686" y1="31.053" x2="92.8686" y2="182.805" gradientUnits="userSpaceOnUse">
<stop offset="0.3" stop-color="#FF1B2D"/>
<stop offset="0.4381" stop-color="#FA1A2C"/>
<stop offset="0.5939" stop-color="#ED1528"/>
<stop offset="0.7581" stop-color="#D60E21"/>
<stop offset="0.9272" stop-color="#B70519"/>
<stop offset="1" stop-color="#A70014"/>
</linearGradient>
<linearGradient id="paint1_linear_4_109464" x1="132.184" y1="39.9975" x2="132.184" y2="174.215" gradientUnits="userSpaceOnUse">
<stop stop-color="#9C0000"/>
<stop offset="0.7" stop-color="#FF4B4B"/>
</linearGradient>
<clipPath id="clip0_4_109464">
<rect width="156.584" height="156.584" fill="white" transform="translate(27.6324 28.5)"/>
</clipPath>
</defs>
</svg>
