<svg width="24" height="25" viewBox="0 0 24 25" fill="none" xmlns="http://www.w3.org/2000/svg">
<g clip-path="url(#clip0_10104_65373)">
<path d="M5.532 15.3368V15.2858C5.3505 14.5418 5.25 13.7543 5.25 12.9383C5.25 12.1223 5.3505 11.3348 5.532 10.5908V10.5398C6.639 5.78329 10.9605 2.14279 16.2495 1.73029C14.925 1.22629 13.497 0.938293 12 0.938293C5.3835 0.938293 0 6.32179 0 12.9383C0 19.5548 5.3835 24.9383 12 24.9383C13.497 24.9383 14.925 24.6503 16.248 24.1463C10.9605 23.7353 6.639 20.0933 5.532 15.3368Z" fill="#87AB49"/>
<path d="M19.2051 3.36379C18.5706 3.25279 17.9181 3.18829 17.2506 3.18829C15.1866 3.18829 13.2666 3.75229 11.6406 4.71079C11.7606 4.70329 11.8791 4.68829 12.0006 4.68829C15.7281 4.68829 18.7506 8.38129 18.7506 12.9383C18.7506 17.4953 15.7281 21.1883 12.0006 21.1883C11.8791 21.1883 11.7606 21.1733 11.6406 21.1658C13.2651 22.1243 15.1866 22.6883 17.2506 22.6883C17.9181 22.6883 18.5706 22.6238 19.2051 22.5128C22.1106 20.3198 24.0006 16.8503 24.0006 12.9383C24.0006 9.02629 22.1106 5.55679 19.2051 3.36379Z" fill="#87AB49"/>
</g>
<defs>
<clipPath id="clip0_10104_65373">
<rect width="24" height="24" fill="white" transform="translate(0 0.938293)"/>
</clipPath>
</defs>
</svg>
