<svg width="341" height="22" viewBox="0 0 341 22" fill="none" xmlns="http://www.w3.org/2000/svg">
<path fill-rule="evenodd" clip-rule="evenodd" d="M168.553 21.4858C171.53 21.4858 174.214 20.2282 176.101 18.2152C178.384 15.781 181.1 13.1796 184.437 13.1796L314.404 13.1796C317.741 13.1796 320.457 15.7811 322.739 18.2152C324.627 20.2282 327.31 21.4858 330.288 21.4858C336.002 21.4858 340.634 16.8537 340.634 11.1396C340.634 5.4256 336.002 0.793457 330.288 0.793457C327.478 0.793457 324.93 1.91331 323.066 3.731C320.864 5.87751 318.296 8.09985 315.221 8.09985L183.619 8.09985C180.544 8.09985 177.976 5.87751 175.775 3.731C173.91 1.91331 171.362 0.793457 168.553 0.793457C162.839 0.793457 158.207 5.4256 158.207 11.1396C158.207 16.8537 162.839 21.4858 168.553 21.4858Z" fill="#D7DEED"/>
<path d="M331.375 10.2446L333.429 7.90465V6.53965H327.059V8.22965H330.933L329.061 10.3486V11.7396H330.023C331.219 11.7396 331.726 12.1686 331.726 12.8576C331.726 13.5986 331.076 14.0276 330.023 14.0276C329.074 14.0276 328.112 13.7286 327.423 13.2086L326.604 14.8206C327.488 15.4446 328.801 15.7956 330.075 15.7956C332.662 15.7956 333.845 14.3916 333.845 12.8576C333.845 11.5186 333.013 10.5046 331.375 10.2446Z" fill="white"/>
<path d="M166.457 6.19346V7.88346H168.277V15.2935H170.383V6.19346H166.457Z" fill="white"/>
<path fill-rule="evenodd" clip-rule="evenodd" d="M168.288 21.4858C174.002 21.4858 178.634 16.8537 178.634 11.1396C178.634 5.4256 174.002 0.793457 168.288 0.793457C165.478 0.793457 162.93 1.91331 161.066 3.731C158.864 5.87751 156.296 8.09985 153.222 8.09985L14.8725 8.09985C7.66477 8.09985 1.82178 9.237 1.82178 10.6397C1.82178 12.0425 7.66477 13.1796 14.8725 13.1796L152.404 13.1796C155.741 13.1796 158.457 15.7811 160.739 18.2152C162.627 20.2282 165.31 21.4858 168.288 21.4858Z" fill="#D7DEED"/>
<path d="M168.01 13.5775L170.103 11.6015C171.377 10.4185 171.624 9.61246 171.624 8.72846C171.624 7.07746 170.272 6.03746 168.244 6.03746C166.606 6.03746 165.332 6.70046 164.63 7.72746L166.164 8.71546C166.606 8.10446 167.269 7.80546 168.049 7.80546C169.011 7.80546 169.505 8.22146 169.505 8.93646C169.505 9.37846 169.362 9.84646 168.556 10.6135L165.046 13.9285V15.2935H171.923V13.5775H168.01Z" fill="white"/>
<circle cx="10.5527" cy="11.1396" r="10.3462" fill="#87AB49"/>
<path d="M12.1435 6.53965V15.6396H10.0375V8.22965H8.21746V6.53965H12.1435Z" fill="white"/>
</svg>
