<svg width="406" height="443" viewBox="0 0 406 443" fill="none" xmlns="http://www.w3.org/2000/svg">
<g clip-path="url(#clip0_5098_29442)">
<path d="M336.724 422.861C336.724 433.827 265.916 442.719 178.567 442.719C91.2182 442.719 20.4082 433.826 20.4082 422.861C20.4082 411.896 91.2182 403.001 178.567 403.001C265.916 403.001 336.724 411.892 336.724 422.861Z" fill="#2B6BC3"/>
<path d="M0.046875 400.878V408.727H29.7359V400.878H28.1279C29.4489 398.469 30.8669 395.573 32.3729 392.263C49.2669 366.845 70.8199 368.552 70.8199 368.552C70.8199 368.552 92.3869 366.845 109.282 392.263C110.788 395.573 112.209 398.47 113.529 400.878H111.929V408.727H141.607V400.878H136.679C132.664 391.553 123.36 369.949 114.219 348.328H121.282V334.537H108.421C100.64 315.975 93.9089 299.477 91.9209 293.407L96.2359 291.465V284.521H89.0519C81.6049 268.952 76.7199 121.299 75.5919 83.793L80.7109 78.961H76.8209C76.8981 78.4879 76.9366 78.0093 76.9359 77.53C76.9359 73.711 74.7269 70.544 71.8449 69.941C71.8059 68.972 71.7769 67.873 71.7269 66.678C71.9933 66.5237 72.2155 66.3033 72.3719 66.0381C72.5283 65.7729 72.6137 65.4718 72.6199 65.164C72.6167 64.8344 72.5223 64.5122 72.3472 64.2329C72.1721 63.9537 71.9232 63.7284 71.6279 63.582C71.6069 63.055 71.5859 62.525 71.5619 61.974C71.9231 61.831 72.2331 61.5831 72.4522 61.2623C72.6712 60.9415 72.7892 60.5625 72.7909 60.174C72.788 59.7626 72.6546 59.3627 72.4098 59.032C72.165 58.7013 71.8215 58.4569 71.4289 58.334C71.4289 57.909 71.4079 57.485 71.3839 57.065C71.6432 56.9567 71.8646 56.774 72.0202 56.5399C72.1757 56.3059 72.2584 56.031 72.2579 55.75C72.2555 55.4545 72.1609 55.1672 71.9874 54.928C71.8139 54.6889 71.57 54.5099 71.2899 54.416C71.1459 50.816 70.9899 47.128 70.8249 43.758C70.6859 47.128 70.5249 50.812 70.3859 54.416C70.1024 54.5069 69.8548 54.6847 69.6778 54.924C69.5009 55.1634 69.4037 55.4524 69.3999 55.75C69.4006 56.0315 69.4845 56.3065 69.6411 56.5405C69.7977 56.7745 70.0199 56.957 70.2799 57.065C70.2619 57.485 70.2559 57.91 70.2309 58.334C69.8406 58.4584 69.5 58.7037 69.2584 59.0345C69.0167 59.3653 68.8866 59.7644 68.8869 60.174C68.8872 60.5608 69.0029 60.9386 69.2192 61.2593C69.4354 61.5799 69.7424 61.8288 70.1009 61.974C70.0799 62.525 70.0589 63.055 70.0489 63.582C69.7514 63.7264 69.5001 63.951 69.3234 64.2305C69.1467 64.51 69.0517 64.8333 69.0489 65.164C69.0544 65.4718 69.1395 65.773 69.2958 66.0383C69.4521 66.3036 69.6743 66.5239 69.9409 66.678C69.9049 67.873 69.8729 68.972 69.8339 69.941C66.9339 70.541 64.7339 73.711 64.7339 77.53C64.7352 78.009 64.7717 78.4873 64.8429 78.961H60.9619L66.0809 83.793C64.9589 121.299 60.0689 268.952 52.6219 284.521H45.4349V291.465L49.7419 293.407C47.7559 299.477 41.0249 315.976 33.2539 334.537H20.3739V348.325H27.4409C18.2999 369.945 9.00087 391.549 4.97888 400.875L0.046875 400.878ZM47.4209 289.927H46.5679V286.064H47.4209V289.927ZM49.6059 289.927H48.5639V286.064H49.6059V289.927ZM94.4189 286.064H95.0899V289.927H94.4189V286.064ZM92.2399 286.064H93.2809V289.927H92.2399V286.064ZM117.689 337.599H119.017V345.258H117.689V337.599ZM113.369 337.599H115.423V345.258H113.369V337.599ZM109.017 337.599H111.087V345.258H109.017V337.599ZM41.6939 345.258H39.6109V337.599H41.6939V345.258ZM46.0239 345.258H43.9429V337.599H46.0239V345.258ZM50.3619 345.258H48.2939V337.599H50.3619V345.258ZM51.7979 289.927H50.7539V286.064H51.7979V289.927ZM53.9729 289.927H52.9309V286.064H53.9729V289.927ZM54.6979 337.599V345.258H52.6209V337.599H54.6979ZM56.1619 289.927H55.1209V286.064H56.1619V289.927ZM58.3499 289.927H57.3079V286.064H58.3499V289.927ZM60.5209 289.927H59.4839V286.064H60.5209V289.927ZM62.7119 289.927H61.6679V286.064H62.7119V289.927ZM64.8969 289.927H63.8449V286.064H64.8969V289.927ZM67.0739 286.064V289.927H66.0349V286.064H67.0739ZM69.0739 281.404C69.0739 281.404 70.5489 265.566 70.8199 253.455C71.1049 265.565 72.5879 281.404 72.5879 281.404H69.0739ZM71.4419 286.064V289.927H70.4059V286.064H71.4419ZM69.2669 289.927H68.2209V286.064H69.2679L69.2669 289.927ZM73.6289 286.064V289.927H72.5879V286.064H73.6289ZM75.8089 289.927H74.7599V286.064H75.8089V289.927ZM77.9959 289.927H76.9489V286.064H77.9959V289.927ZM80.1809 289.927H79.1449V286.064H80.1809V289.927ZM82.3609 289.927H81.3209V286.064H82.3659L82.3609 289.927ZM84.5489 289.927H83.5049V286.064H84.5489V289.927ZM86.7289 289.927H85.6869V286.064H86.7289V289.927ZM87.3869 334.537H54.2709C61.5619 313.264 67.3859 294.837 68.4409 291.465H73.2199C74.2749 294.834 80.1029 313.264 87.3889 334.537H87.3869ZM59.0379 337.599V345.258H56.9579V337.599H59.0379ZM63.3719 337.599V345.258H61.3019V337.599H63.3719ZM67.7059 337.599V345.258H65.6379V337.599H67.7059ZM72.0479 337.599V345.258H69.9749V337.599H72.0479ZM76.3859 337.599V345.258H74.3209V337.599H76.3859ZM80.7249 337.599V345.258H78.6499V337.599H80.7249ZM85.0689 337.599V345.258H82.9939V337.599H85.0689ZM88.9109 289.927H87.8699V286.064H88.9109V289.927ZM89.3919 345.258H87.3249V337.599H89.3919V345.258ZM91.0989 289.927H90.0619V286.064H91.0989V289.927ZM93.7439 345.258H91.6769V337.599H93.7439V345.258ZM98.0749 345.258H95.9969V337.599H98.0749V345.258ZM102.413 345.258H100.345V337.599H102.413V345.258ZM106.746 345.258H104.681V337.599H106.746V345.258ZM83.5029 365.888H99.2119L104.681 379.203C94.0269 368.602 83.5069 365.888 83.5069 365.888H83.5029ZM45.4249 361.701V360.178H96.2249V361.697L45.4249 361.701ZM36.9679 379.201L42.4449 365.886H58.1539C58.1539 365.886 47.6419 368.602 36.9719 379.203L36.9679 379.201ZM35.2789 337.601H37.3459V345.26H35.2789V337.601ZM24.3289 345.26H22.6289V337.601H24.3289V345.26ZM30.9289 337.601H32.9989V345.26H30.9289V337.601ZM26.5859 345.26V337.601H28.6579V345.26H26.5859Z" fill="#2B6BC3"/>
<path d="M284.438 262.147C286.372 277.682 287.549 309.104 285.479 320.334C283.409 331.564 284.97 335.508 287.413 342.856C289.856 350.204 289.091 363.076 286.137 377.874C283.183 392.672 281.279 399.233 288.568 406.168C288.568 406.168 287.268 426.068 283.318 422.334C279.343 418.59 276.076 415.673 272.963 414.78C269.85 413.887 267.35 409.442 269.611 404.018C271.951 398.667 272.606 392.731 271.49 386.998C270.338 380.676 261.664 365.421 261.795 355.814C261.926 346.207 264.833 348.277 261.795 337.494C254.802 314.032 250.332 289.891 248.459 265.48L284.438 262.147ZM207.339 262.147C205.4 277.682 204.219 309.104 206.29 320.334C208.361 331.564 206.802 335.508 204.355 342.856C201.908 350.204 202.679 363.076 205.631 377.874C208.583 392.672 206.263 397.087 204.265 406.964C202.534 415.589 204.511 426.064 208.465 422.334C212.419 418.604 215.696 415.673 218.813 414.78C221.93 413.887 224.431 409.442 222.168 404.018C219.822 398.669 219.162 392.732 220.276 386.998C221.433 380.676 230.101 365.421 229.987 355.814C229.839 346.214 226.941 348.277 229.987 337.494C236.979 314.032 241.445 289.891 243.308 265.48L207.339 262.147Z" fill="#FDB171"/>
<path d="M271.115 399.201C271.115 399.201 268.722 398.352 268.962 404.553C269.202 410.754 267.555 416.848 270.204 420.237C272.836 423.651 281.204 436.784 291.411 433.872C301.63 430.94 297.825 423.106 295.778 419.724C292.855 414.902 288.834 412.785 289.093 407.924C289.318 403.05 290.787 399.101 285.193 399.164C279.599 399.227 271.115 399.201 271.115 399.201V399.201ZM220.648 399.201C220.648 399.201 223.057 398.352 222.804 404.553C222.551 410.754 224.222 416.848 221.577 420.237C218.927 423.651 210.587 436.784 200.359 433.872C190.147 430.94 193.951 423.106 195.987 419.724C198.918 414.902 202.936 412.785 202.687 407.924C202.447 403.05 200.987 399.101 206.595 399.164C212.182 399.221 220.648 399.201 220.648 399.201V399.201Z" fill="#1C1C35"/>
<path d="M283.298 206.618L293.143 315.361L251.794 319.13L243.972 251.93V212.884L283.298 206.618ZM203.594 211.872L201.182 319.132H242.525L243.966 251.932V212.885L203.594 211.872Z" fill="#00265F"/>
<path d="M298.741 87.298C298.741 87.298 324.209 94.586 342.405 100.014C342.405 100.014 364.542 76.154 370.029 69.692C375.516 63.23 379.283 49.213 379.283 49.213L381.855 77.32C381.855 77.32 353.365 126.732 346.875 128.84C340.385 130.948 291.592 114.261 291.592 114.261L298.741 87.298ZM219.471 63.788L232.02 60.088L245.32 59.897C245.32 59.897 246.147 70.143 248.954 74.497C248.954 74.497 244.38 86.967 237.954 87.536C231.712 89.068 220.738 78.786 220.738 78.786C221.972 73.763 219.471 63.788 219.471 63.788V63.788Z" fill="#FDB171"/>
<path d="M205.208 42.023L205.649 41.942C205.2 40.412 204.732 38.859 204.31 37.434C202.054 29.963 196.102 8.01799 222.753 3.60599C249.367 -0.811011 250.853 21.868 251.113 29.674C251.181 31.154 251.236 32.768 251.304 34.374L251.769 34.291C255.322 30.634 256.963 38.4 255.721 41.363C254.933 43.0285 254.435 44.8161 254.248 46.649C253.921 48.52 252.924 48.957 252.021 48.9C252.076 49.98 252.156 50.921 252.221 51.669C252.513 55.853 244.003 65.758 242.182 68.696C240.475 71.469 236.82 71.106 235.672 71.247C234.547 71.359 233.993 71.419 233.993 71.419C233.993 71.419 233.468 71.542 232.323 71.803C231.214 72.038 227.877 73.562 225.38 71.49C222.71 69.282 211.428 62.656 210.394 58.608C210.194 57.883 209.95 56.966 209.66 55.922C208.827 56.269 207.746 56.175 206.838 54.502C206.061 52.8401 205.019 51.3158 203.752 49.989C201.613 47.586 200.665 39.702 205.208 42.023V42.023Z" fill="#FDB171"/>
<path d="M202.801 1.034C202.801 1.034 202.239 4.20299 224.959 0.438995H224.972C225.444 0.363995 225.956 0.291995 226.518 0.238995C248.407 -2.426 250.652 18.467 250.652 18.467L250.623 18.456C251.657 23.635 251.438 29.025 251.304 34.382L250.419 31.926C249.899 30.0714 249.187 28.2762 248.294 26.57C248.203 26.413 248.125 26.236 248.027 26.095C247.578 25.327 247.084 24.489 246.516 23.695C238.643 12.888 225.307 19.048 225.307 19.048C225.307 19.048 210.678 17.521 206.7 30.302C206.458 31.1973 206.256 32.1028 206.094 33.016C206.07 33.196 206.026 33.395 206.002 33.616C205.701 35.5129 205.596 37.4356 205.688 39.354L205.649 41.954C204.484 38.819 203.286 35.663 202.384 32.454C202.384 32.431 202.366 32.423 202.366 32.418C199.2 22.1722 199.352 11.1881 202.801 1.034V1.034Z" fill="#582D11"/>
<path d="M148.129 167.031C146.129 194.513 125.507 194.231 111.416 193.2C97.3251 192.169 86.0061 190.136 88.0051 162.656C90.0041 135.176 103.505 108.147 117.638 107.717C136.045 107.167 150.138 139.546 148.129 167.031Z" fill="#F7911E"/>
<path d="M138.994 166.366C137.01 193.844 125.508 194.23 111.417 193.199C97.3261 192.168 86.0071 190.135 88.0061 162.655C90.0051 135.175 103.04 113.72 117.131 114.744C128.334 115.558 140.996 138.883 138.994 166.366V166.366Z" fill="#F7911E"/>
<path d="M110.342 182.51C114.841 182.835 119.284 181.362 122.697 178.413C126.11 175.463 128.212 171.28 128.542 166.782L94.614 164.317C94.2876 168.815 95.7612 173.259 98.7106 176.67C101.66 180.082 105.844 182.183 110.342 182.51V182.51Z" fill="#F7911E"/>
<path d="M235.681 81.795C235.681 81.795 245.07 82.336 248.95 74.495C248.95 74.495 274.525 72.535 287.584 78.47C295.714 82.1356 304.095 85.2184 312.663 87.695L302.738 127.511L286.008 123.191L283.927 218.338C283.927 218.338 249.571 229.114 203.956 217.618L198.215 127.511L188.335 140.159L166.844 115.636C166.844 115.636 179.011 95.891 183.922 90.673C188.856 85.447 211.768 76.302 220.729 78.782C220.729 78.787 225.184 82.46 235.681 81.795V81.795Z" fill="#CAE6F6"/>
<path d="M179.196 49.323C179.196 49.323 183.166 42.335 182.067 36.047C181.173 31.2829 178.834 26.9094 175.368 23.5206C171.902 20.1318 167.477 17.8919 162.694 17.105C149.903 14.961 179.196 49.323 179.196 49.323V49.323ZM171.078 53.995C171.078 53.995 177.301 59.232 179.134 74.156C180.105 83.9397 179.824 93.8073 178.298 103.52C176.898 112.163 172.461 121.391 173.886 128.557C174.794 133.034 174.591 137.665 173.295 142.046C171.998 146.426 169.648 150.422 166.449 153.683C166.449 153.683 170.795 147.872 168.249 138.096C167.364 134.733 163.981 129.124 165.715 119.817C167.435 110.475 172.437 100.664 170.682 94.827C168.927 88.99 167.401 83.869 168.771 78.488C170.141 73.107 168.659 59.262 167.252 57.954C165.845 56.646 168.644 56.497 168.644 56.497L171.078 53.995Z" fill="black"/>
<path d="M175.071 53.913C175.277 54.2887 175.406 54.7015 175.451 55.1275C175.496 55.5535 175.456 55.9842 175.333 56.3946C175.211 56.805 175.008 57.187 174.736 57.5184C174.465 57.8497 174.13 58.1239 173.752 58.325L170.5 60.079C170.125 60.2821 169.713 60.4092 169.289 60.4529C168.865 60.4967 168.436 60.4563 168.027 60.334C167.618 60.2118 167.238 60.0101 166.907 59.7405C166.576 59.4709 166.302 59.1387 166.1 58.763C165.893 58.388 165.762 57.9757 165.716 57.5499C165.669 57.1241 165.707 56.6932 165.828 56.2822C165.949 55.8713 166.15 55.4884 166.42 55.1557C166.69 54.823 167.023 54.5471 167.4 54.344L170.656 52.576C171.419 52.1694 172.311 52.0818 173.138 52.3324C173.966 52.583 174.659 53.1515 175.068 53.913H175.071Z" fill="#C90E00"/>
<path d="M176.619 37.609C174.919 27.042 169.683 16.12 154.953 16.12C139.427 16.12 131.031 29.08 130.653 37.627C130.275 46.174 131.753 51.621 132.308 53.344C132.882 55.077 140.024 59.706 141.424 65.044C142.824 70.382 176.619 37.609 176.619 37.609V37.609Z" fill="black"/>
<path d="M179.6 193.482C179.6 193.482 165.422 188.739 159.615 186.382C153.808 184.025 140.6 179.961 140.6 179.961C136.731 185.644 136.494 188.187 132.119 200.55C127.767 212.897 133.789 226.336 137.851 231.061C141.913 235.786 138.969 243.406 138.225 251.761C137.51 259.861 144.525 278.315 145.412 288.31C145.827 295.27 142.256 307.817 141.249 314.294C140.158 321.358 138.521 321.865 141.017 335.851C143.531 349.851 150.44 381.194 147.786 393.34C145.132 405.486 146.131 402.797 146.131 402.797C146.131 402.797 155.618 408.83 159.976 407.944C164.33 407.044 163.686 403.396 163.686 403.396C163.686 403.396 158.572 363.43 164.897 327.445C171.222 291.46 176.427 263.86 176.691 249.226C177.049 228.52 176.236 224.289 177.947 217.253C179.848 209.546 179.133 204.965 179.6 193.482V193.482Z" fill="#F5B076"/>
<path d="M176.69 249.23C177.048 228.524 176.235 224.293 177.946 217.257C179.846 209.551 179.131 204.97 179.598 193.487C179.598 193.487 165.42 188.744 159.613 186.387C155.552 184.629 151.673 182.478 148.031 179.966C144.154 185.649 136.491 188.192 132.116 200.555C127.764 212.902 133.786 226.341 137.848 231.066C141.91 235.791 138.966 243.411 138.222 251.766C137.507 259.866 144.522 278.32 145.409 288.315C145.824 295.275 142.253 307.822 141.246 314.299C140.21 320.958 138.706 320.89 140.611 333.443C142.793 334.273 153.877 338.076 163.977 333.286C164.253 331.33 164.544 329.375 164.894 327.449C171.213 291.449 176.429 263.859 176.69 249.23V249.23Z" fill="#90B8EB"/>
<path d="M176.69 249.23C177.048 228.524 176.235 224.293 177.946 217.257C179.846 209.551 179.131 204.97 179.598 193.487C179.598 193.487 165.42 188.744 159.613 186.387C155.552 184.629 151.673 182.478 148.031 179.966C144.154 185.649 136.491 188.192 132.116 200.555C127.764 212.902 133.786 226.341 137.848 231.066C141.91 235.791 138.966 243.411 138.222 251.766C137.507 259.866 144.522 278.32 145.409 288.315C145.824 295.275 142.253 307.822 141.246 314.299C140.21 320.958 138.706 320.89 140.611 333.443C142.793 334.273 153.877 338.076 163.977 333.286C164.253 331.33 164.544 329.375 164.894 327.449C171.213 291.449 176.429 263.859 176.69 249.23V249.23Z" fill="#00265F"/>
<path d="M161.891 399.8C159.323 402.15 157.091 405.4 153.259 404.293C149.38 403.204 146.887 398.616 145.683 401.443C144.479 404.27 139.596 412.073 140.874 416.388C140.874 416.388 139.804 417.348 140.389 419.58C140.974 421.812 146.289 422.585 153.122 422.78C155.137 422.842 160.306 422.529 162.947 422.811C169.176 423.511 176.571 425.455 180.975 425.337C186.812 425.173 191.459 423.797 192.33 421.119C193.201 418.441 193.75 417.584 188.43 416.383C183.402 415.219 175.973 409.901 173.397 408.283C170.682 406.409 168.193 404.228 165.979 401.783C163.779 399.498 162.932 398.85 161.891 399.8V399.8Z" fill="#B6CDE9"/>
<path d="M161.891 399.801C159.323 402.151 157.091 405.401 153.259 404.294C149.38 403.205 146.887 398.617 145.683 401.444C144.479 404.271 139.596 412.074 140.874 416.389C140.874 416.389 139.804 417.349 140.389 419.581C140.974 421.813 146.289 422.586 153.122 422.781C155.137 422.843 160.306 422.53 162.947 422.812C169.176 423.512 176.571 425.456 180.975 425.338C186.812 425.174 191.459 423.798 192.33 421.12C193.201 418.442 193.75 417.585 188.43 416.384C183.402 415.22 175.973 409.902 173.397 408.284C170.682 406.41 168.193 404.229 165.979 401.784C163.779 399.499 162.932 398.851 161.891 399.801V399.801Z" fill="#1C1C35"/>
<path d="M185.109 193.393C185.109 193.393 171.668 186.144 166.238 182.748C160.79 179.342 156.65 209.354 156.65 209.354C151.739 214.418 161.65 195.479 155.099 207.154C148.548 218.829 128.744 217.706 131.999 223.174C135.254 228.642 140.99 239.696 138.788 247.988C136.648 255.997 137.088 272.816 136.204 283.03C135.428 290.122 129.62 302.13 127.482 308.479C125.143 315.422 123.382 315.804 123.454 330.338C123.526 344.872 122.854 377.671 118.042 389.419C113.247 401.187 114.732 398.681 114.732 398.681C114.732 398.681 123.219 406.402 127.777 406.264C132.335 406.126 132.304 402.346 132.304 402.346C132.304 402.346 136.288 361.182 148.971 326.035C161.637 290.883 161.987 306.987 164.036 287.573C164.053 287.346 164.058 287.118 164.051 286.891C167 277.716 169.629 263.754 172.435 249.056C176.413 228.256 176.351 223.856 179.301 217.066C182.549 209.615 182.643 204.884 185.109 193.393V193.393Z" fill="#FDC595"/>
<path d="M172.438 249.046C176.416 228.246 176.354 223.846 179.304 217.056C182.549 209.614 182.643 204.883 185.104 193.387C185.104 193.387 171.663 186.138 166.233 182.742C160.785 179.336 145.363 178.631 145.363 178.631C140.455 183.693 135.24 184.324 130.606 196.881C129.098 201.138 128.445 205.651 128.684 210.162C128.922 214.672 130.049 219.091 131.998 223.165C134.959 228.798 133.739 240.159 133.163 248.714C132.293 261.901 137.086 272.806 136.202 283.02C135.426 290.112 129.618 302.12 127.48 308.469C125.271 315.006 123.739 314.852 123.463 327.828C125.501 329.028 136.001 334.796 147.011 331.756V331.746C147.638 329.83 148.291 327.923 148.969 326.024C153.253 314.133 159.4 306.709 162.596 296.824C168.848 277.496 170.569 258.769 172.438 249.046V249.046Z" fill="#223F89"/>
<path d="M139.426 148.674C139.426 148.674 152.788 144.719 164.919 144.719C177.068 144.719 186.471 142.104 188.462 140.819L188.824 130.599L133.232 132.946L139.426 148.674Z" fill="#CAE6F6"/>
<path d="M139.427 148.674C139.427 148.674 146.613 160.796 146.859 165.274C147.096 169.719 145.368 178.634 145.368 178.634L185.32 193.313C185.32 193.313 185.667 171.331 186.163 162.17C186.659 153.009 188.263 146.093 188.463 140.825C188.646 135.534 139.181 141.992 139.427 148.674V148.674Z" fill="#91C51B"/>
<path d="M140.301 56.68C141.406 62.624 142.901 74.504 137.327 80.835C131.753 87.145 123.583 83.79 115.395 99.393C107.242 115.001 104.264 122.793 98.3231 132.469C92.3741 142.104 87.1811 154.369 89.7691 158.469C92.3691 162.547 131.382 188.169 135.837 191.143C140.292 194.117 149.205 199.677 153.303 197.836C157.376 195.972 161.095 194.304 163.137 194.68C165.179 195.056 176.327 196.468 176.445 194.724C176.57 193.004 173.227 192.761 171.859 192.254C170.499 191.771 166.802 190.037 167.526 189.542C168.268 189.042 173.569 188.548 174.566 188.548C175.563 188.548 180.523 191.274 181.65 190.274C182.757 189.288 183.128 188.548 180.65 186.935C179.533 186.174 178.376 185.473 177.184 184.835C177.184 184.835 183.35 186.879 184.01 185.325C184.772 183.437 183.965 182.462 181.235 181.396C179.107 180.569 176.7 178.645 173.848 179.146C172.048 179.456 170.267 179.868 168.513 180.378C168.513 180.378 171.855 178.331 172.593 177.703C173.365 177.095 175.58 177.337 177.428 177.591C179.295 177.841 181.262 178.024 181.646 177.163C182.03 176.302 182.353 174.808 179.007 173.971C176.898 173.28 174.655 173.098 172.462 173.438C170 173.806 166.798 175.677 164.929 176.171C163.06 176.665 155.884 178.403 155.516 178.513C155.148 178.623 155.279 177.895 156.255 174.929C157.249 171.959 157.743 169.487 156.524 168.484C155.279 167.508 154.53 169.105 153.034 172.327C151.538 175.549 148.588 182.358 146.986 181.735C145.363 181.114 135.091 173.805 131.499 170.226C127.899 166.626 118.62 151.266 113.917 149.919C121.416 143.958 127.328 136.238 131.127 127.444L133.227 132.952L188.819 130.605C188.819 130.605 195.019 123.305 193.526 114.877C192.059 106.459 187.835 102.864 182.27 98.162C176.705 93.46 170.494 90.862 169.27 88.25C168.02 85.65 165.918 83.927 162.332 83.186C162.332 83.186 160.789 77.595 161.032 73.765L140.301 56.68Z" fill="#FDC595"/>
<path d="M139.426 148.674C139.426 148.674 152.788 144.719 164.919 144.719C177.068 144.719 186.471 142.104 188.462 140.819L188.824 130.599L133.232 132.946L139.426 148.674Z" fill="#9BD417"/>
<path d="M193.532 114.875C192.065 106.457 187.841 102.862 182.276 98.16C182.276 98.16 189.206 106.343 184.503 107.317C179.783 108.317 169.642 101.631 161.967 95.187C154.945 89.301 143.636 84.673 136.732 81.43C134.432 83.73 131.717 84.612 128.757 85.954C133.232 86.293 140.739 88.321 145.369 97.427C152.111 110.627 142.134 125.239 132.169 130.178L134.549 136.278C134.549 136.278 159.528 134.14 167.732 133.796C173.426 133.541 188.832 130.604 188.832 130.604C188.832 130.604 195.023 123.303 193.532 114.875V114.875Z" fill="#91C51B"/>
<path d="M131.571 397.377C128.28 398.457 124.925 400.462 121.905 397.884C118.861 395.31 118.49 390.131 116.25 392.196C113.984 394.24 106.359 399.302 105.733 403.729C105.733 403.729 104.378 404.149 103.984 406.404C103.584 408.685 108.051 411.57 114.184 414.567C115.961 415.437 120.773 417.282 123.055 418.64C128.401 421.832 134.291 426.64 138.313 428.332C143.667 430.601 148.454 431.264 150.337 429.215C152.217 427.135 153.08 426.615 148.76 423.308C144.674 420.186 140.16 412.318 138.485 409.784C136.806 406.972 135.454 403.978 134.455 400.859C133.418 397.879 132.914 396.944 131.571 397.377V397.377Z" fill="#1C1C35"/>
<path d="M140.334 56.911C141.092 60.8227 141.419 64.806 141.307 68.789C142.407 69.505 142.865 70.865 144.265 71.678C149.617 74.8862 155.596 76.9062 161.797 77.601C161.797 77.601 160.805 76.053 159.252 73.79L140.46 56.835C140.424 56.8697 140.381 56.8957 140.334 56.911Z" fill="#F5B076"/>
<path d="M139.804 57.31C140.874 60.349 141.404 64.483 146.366 68.435C151.321 72.405 159.253 77.602 161.798 77.602C164.32 77.602 166.291 78.343 170.133 71.917C173.975 65.491 176.818 62.507 177.076 55.938C177.334 49.369 179.919 35.999 171.761 31.038C165.726 27.349 155.89 29.075 150.698 34.395C145.479 39.725 145.37 41.702 143.524 50.13C143.524 50.13 139.183 44.299 137.447 44.055C135.711 43.811 134.234 44.925 135.22 48.511C136.206 52.097 137.081 51.519 137.199 53.354C137.317 55.189 137.513 57.017 138.439 57.679C139.596 58.477 139.804 57.31 139.804 57.31V57.31Z" fill="#FDC595"/>
<path d="M142.285 171.657C142.59 169.543 142.723 167.408 142.685 165.272C142.56 163.024 140.691 158.861 138.858 155.261C147.734 124.513 144.473 107.3 139.698 98.03C134.448 87.83 126.698 85.565 126.367 85.472L126.458 85.128C128.922 84.06 131.194 83.037 133.148 80.834C133.407 80.497 133.644 80.1439 133.858 79.777C139.446 83.1546 143.979 88.026 146.946 93.842C156.161 111.324 154.6 137.504 142.315 171.659L142.285 171.657Z" fill="#F7AD3E"/>
<path d="M168.894 29.646C168.894 29.646 158.325 48.54 143.612 51.616L137.884 34.375L151.484 24.238L168.894 29.646ZM134.637 53.995C134.637 53.995 128.409 59.232 126.579 74.156C125.612 83.9397 125.891 93.8066 127.409 103.52C128.809 112.163 133.259 121.391 131.82 128.557C130.919 133.036 131.128 137.668 132.428 142.047C133.729 146.427 136.081 150.422 139.281 153.683C139.281 153.683 134.919 147.872 137.454 138.096C138.354 134.733 141.745 129.124 140.005 119.817C138.272 110.475 133.276 100.664 135.035 94.827C136.794 88.99 138.314 83.869 136.944 78.488C135.574 73.107 136.493 60.466 137.883 59.16C139.273 57.854 137.068 56.497 137.068 56.497L134.637 53.995Z" fill="black"/>
<path d="M165.997 30.314C165.997 30.314 173.081 41.343 179.252 44.525C179.252 44.525 179.709 29.314 171.252 22.425L165.997 30.314Z" fill="black"/>
<path d="M131.538 54.915C130.744 55.789 131.094 57.367 132.271 58.421L134.741 60.611C135.926 61.681 137.535 61.825 138.315 60.955C139.095 60.081 138.758 58.498 137.568 57.439L135.112 55.239C133.917 54.184 132.312 54.039 131.538 54.913V54.915Z" fill="#F7AD3E"/>
<path d="M377.984 74.014C378.183 74.8167 378.552 75.5673 379.066 76.2154C379.58 76.8636 380.227 77.3942 380.963 77.7715C381.698 78.1489 382.507 78.3643 383.333 78.4031C384.159 78.442 384.984 78.3035 385.752 77.997L401.007 72.375C402.647 71.7375 403.997 70.5239 404.806 68.9616C405.615 67.3994 405.826 65.5958 405.4 63.889L395.016 25.362C394.818 24.5591 394.45 23.8079 393.937 23.1591C393.424 22.5103 392.778 21.9789 392.042 21.6007C391.307 21.2225 390.499 21.0062 389.673 20.9664C388.847 20.9266 388.022 21.0642 387.253 21.37L372.013 26.99C370.371 27.6244 369.017 28.8374 368.206 30.4005C367.396 31.9636 367.185 33.7691 367.613 35.477L377.984 74.014Z" fill="#00265F"/>
<path d="M380.56 73.277C380.723 74.0348 381.045 74.7494 381.505 75.3729C381.965 75.9965 382.553 76.5148 383.229 76.8933C383.906 77.2718 384.655 77.5018 385.427 77.568C386.199 77.6342 386.977 77.535 387.707 77.277L401.56 72.161C403.08 71.5218 404.314 70.3506 405.032 68.8667C405.75 67.3828 405.902 65.6881 405.46 64.1L395.407 26.819C395.248 26.0605 394.928 25.345 394.469 24.7206C394.01 24.0962 393.422 23.5774 392.746 23.1991C392.07 22.8208 391.32 22.5919 390.548 22.5277C389.775 22.4635 388.998 22.5656 388.268 22.827L374.42 27.935C372.901 28.5773 371.668 29.7506 370.95 31.2358C370.232 32.721 370.08 34.4165 370.52 36.006L380.56 73.277Z" fill="#2B4A78"/>
<path d="M381.118 32.402C381.181 32.6582 381.298 32.8979 381.462 33.1048C381.626 33.3118 381.832 33.4812 382.067 33.6016C382.302 33.7221 382.559 33.7908 382.823 33.8031C383.087 33.8154 383.35 33.7711 383.595 33.673C384.124 33.4753 384.561 33.089 384.823 32.5884C385.084 32.0878 385.152 31.5082 385.012 30.961C384.947 30.7045 384.828 30.4648 384.664 30.2578C384.499 30.0508 384.292 29.8813 384.057 29.7605C383.822 29.6398 383.563 29.5706 383.299 29.5576C383.035 29.5445 382.771 29.588 382.525 29.685C381.999 29.8879 381.566 30.2763 381.306 30.7768C381.047 31.2774 380.98 31.8554 381.118 32.402V32.402Z" fill="#00265F"/>
<path d="M271.639 127.319L279.839 125.772L285.32 154.826L284.438 195.252L271.639 127.319Z" fill="#F7911E"/>
<path d="M405.143 58.894C403.937 60.374 401.314 55.304 398.095 54.247C394.876 53.19 389.177 42.568 390.342 38.219C391.49 33.864 395.484 35.236 399.259 38.577C404.2 42.942 405.143 58.894 405.143 58.894Z" fill="#FDB171"/>
<path d="M265.213 124.081C266.422 130.57 271.901 134.998 277.433 133.949C282.978 132.921 286.497 126.82 285.277 120.333L276.684 74.27C275.47 67.776 271.131 69.49 265.593 70.527C260.062 71.555 255.399 71.527 256.613 78.016L265.213 124.081Z" fill="#F7AD3E"/>
<path d="M267.255 115.256C268.03 119.456 271.57 122.315 275.143 121.638C278.716 120.982 280.994 117.038 280.212 112.848L274.66 83.092C273.874 78.892 270.9 79.07 267.321 79.738C263.742 80.409 260.905 81.309 261.699 85.499L267.255 115.256ZM200.229 159.125L203.17 130.472L211.494 131.322L204.263 201.614L202.925 201.472L200.229 159.125Z" fill="#F7911E"/>
<path d="M217.498 127.183C217.062 133.771 212.16 138.823 206.55 138.452C200.909 138.087 196.691 132.452 197.123 125.872L200.13 79.106C200.574 72.518 205.082 73.692 210.702 74.062C216.323 74.424 220.943 73.835 220.515 80.416L217.498 127.183Z" fill="#F7AD3E"/>
<path d="M214.422 118.67C214.143 122.928 210.982 126.198 207.351 125.955C203.71 125.723 200.989 122.086 201.259 117.819L203.217 87.619C203.493 83.354 206.452 83.181 210.098 83.419C213.719 83.661 216.635 84.21 216.371 88.46L214.422 118.67Z" fill="#F7911E"/>
<ellipse cx="242.97" cy="138.878" rx="16.0182" ry="17.0406" fill="url(#paint0_linear_5098_29442)"/>
<path fill-rule="evenodd" clip-rule="evenodd" d="M224.865 144.972C225.146 144.6 225.713 144.655 225.935 145.065C226.065 145.307 226.029 145.604 225.853 145.815C224.752 147.133 224.275 148.158 224.589 148.74C225.593 150.6 234.282 147.245 243.995 141.247C244.328 141.041 244.657 140.836 244.983 140.63C245.103 140.554 245.171 140.42 245.171 140.278V140.278C245.171 137.89 246.991 135.954 249.236 135.954V135.954C250.434 135.954 251.742 135.992 252.687 135.256C257.545 131.475 260.432 128.252 259.766 127.018C259.471 126.471 258.511 126.375 257.056 126.664C256.764 126.722 256.465 126.59 256.323 126.329C256.113 125.94 256.34 125.458 256.777 125.391C259.677 124.941 261.734 125.32 262.456 126.658C263.809 129.165 260.089 134.336 253.609 139.595C253.406 139.76 253.3 140.016 253.3 140.278V140.278C253.3 142.666 251.48 144.602 249.236 144.602C249.129 144.602 249.024 144.598 248.919 144.589C247.91 144.507 246.829 144.461 245.968 144.992V144.992C235.038 151.742 224.701 154.475 222.878 151.098C222.134 149.719 222.924 147.534 224.865 144.972Z" fill="#2E3C6D"/>
<ellipse cx="249.235" cy="140.278" rx="2.0323" ry="2.16203" fill="#70AF09"/>
<g opacity="0.32">
<path d="M234.762 133.05C233.776 135.64 234.087 138.37 232.878 137.849C231.669 137.328 231.488 134.807 232.473 132.217C233.459 129.628 235.239 127.951 236.448 128.472C237.657 128.993 235.748 130.46 234.762 133.05Z" fill="#E5E5E5"/>
<path d="M234.003 140.422C234.091 141.275 233.72 142.018 233.174 142.082C232.628 142.145 232.114 141.506 232.026 140.653C231.938 139.8 232.309 139.057 232.855 138.993C233.401 138.93 233.915 139.569 234.003 140.422Z" fill="#E5E5E5"/>
</g>
<path d="M238.242 151.86C237.685 151.518 237.952 150.944 239.304 150.468C242.155 149.802 241.674 151.148 245.776 150.63C249.878 150.112 252.041 148.313 253.13 147.13C254.002 146.183 254.807 144.901 254.769 145.353C254.583 146.315 253.086 148.85 248.58 151.296C242.948 154.353 239.095 152.384 238.242 151.86Z" fill="#080F1B" fill-opacity="0.11"/>
<path d="M256.408 129.405C256.915 129.048 257.058 128.354 256.699 127.849C254.251 124.4 250.726 121.974 246.741 121.022C242.41 119.987 237.87 120.773 234.072 123.216C230.273 125.658 227.509 129.569 226.357 134.129C225.306 138.289 225.671 142.696 227.365 146.579C227.631 147.19 228.375 147.404 228.95 147.068V147.068C229.485 146.755 229.677 146.081 229.431 145.512C227.978 142.157 227.668 138.354 228.575 134.763C229.573 130.811 231.968 127.423 235.26 125.306C238.551 123.19 242.485 122.509 246.237 123.405C249.603 124.209 252.589 126.226 254.702 129.094C255.101 129.635 255.859 129.792 256.408 129.405V129.405Z" fill="#2E3C6D"/>
<path d="M233.145 152.419C232.763 152.945 232.843 153.686 233.35 154.05C235.821 155.824 238.69 156.888 241.676 157.127C245.028 157.397 248.381 156.615 251.32 154.879C254.26 153.143 256.656 150.529 258.215 147.36C259.602 144.538 260.271 141.385 260.163 138.215C260.14 137.564 259.592 137.101 258.972 137.167V137.167C258.33 137.235 257.859 137.842 257.874 138.515C257.931 141.19 257.351 143.845 256.18 146.228C254.83 148.974 252.753 151.239 250.206 152.743C247.659 154.247 244.754 154.924 241.849 154.691C239.327 154.489 236.901 153.608 234.797 152.14C234.269 151.772 233.538 151.877 233.145 152.419V152.419Z" fill="#2E3C6D"/>
</g>
<defs>
<linearGradient id="paint0_linear_5098_29442" x1="225.983" y1="109.734" x2="252.512" y2="152.219" gradientUnits="userSpaceOnUse">
<stop offset="0.394669" stop-color="#E87D1B"/>
<stop offset="0.72037" stop-color="#D64D12"/>
<stop offset="0.749987" stop-color="#70AF09"/>
</linearGradient>
<clipPath id="clip0_5098_29442">
<rect width="405.644" height="442.719" fill="white" transform="translate(0.046875)"/>
</clipPath>
</defs>
</svg>
