<svg width="500" height="461" fill="none" xmlns="http://www.w3.org/2000/svg"><g clip-path="url(#a)"><rect width="500" height="461" rx="13.257" fill="#F1F4FC"/><circle cx="24" cy="75" r="250" fill="#D0D9EF" fill-opacity=".32"/><g clip-path="url(#b)"><mask id="h" maskUnits="userSpaceOnUse" x="124" y="64" width="253" height="413" fill="#000"><path fill="#fff" d="M124 64h253v413H124z"/><path d="M131 105.273C131 86.345 146.345 71 165.273 71h170.454C354.655 71 370 86.345 370 105.273V477H131V105.273z"/></mask><path d="M131 105.273C131 86.345 146.345 71 165.273 71h170.454C354.655 71 370 86.345 370 105.273V477H131V105.273z" fill="#fff"/><path fill="#fff" d="M132 71h237v59.408H132z"/><path d="M208.768 119.029v-8.848h3.83c.792 0 1.475.13 2.048.392.573.252 1.015.619 1.327 1.099.312.481.468 1.054.468 1.719 0 .658-.156 1.226-.468 1.707-.312.48-.754.851-1.327 1.112-.573.253-1.256.379-2.048.379h-2.692l.91-.922v3.362h-2.048zm2.048-3.135-.91-.973h2.578c.632 0 1.104-.135 1.416-.405.312-.269.468-.644.468-1.125 0-.488-.156-.868-.468-1.137-.312-.27-.784-.405-1.416-.405h-2.578l.91-.973v5.018zm7.087 3.135v-8.848h2.047v7.179h4.437v1.669h-6.484zm6.515 0 3.943-8.848h2.023l3.956 8.848h-2.149l-3.236-7.812h.809l-3.248 7.812h-2.098zm1.971-1.896.544-1.555h4.55l.556 1.555h-5.65zm8.869 1.896v-8.848h1.694l5.22 6.37h-.822v-6.37h2.023v8.848h-1.681l-5.233-6.371h.821v6.371h-2.022zm12.092-5.284h4.259v1.593h-4.259v-1.593zm.151 3.641h4.816v1.643h-6.851v-8.848h6.687v1.643h-4.652v5.562zm8.278 1.643v-7.18h-2.831v-1.668h7.71v1.668h-2.831v7.18h-2.048z" fill="#5A78A6"/><path d="m267.994 119.029-3.817-8.848h2.212l3.337 7.837h-1.302l3.387-7.837h2.035l-3.83 8.848h-2.022zm6.591 0v-8.848h3.83c.792 0 1.475.13 2.048.392.573.252 1.015.619 1.327 1.099.312.481.468 1.054.468 1.719 0 .658-.156 1.226-.468 1.707-.312.48-.754.851-1.327 1.112-.573.253-1.256.379-2.048.379h-2.692l.91-.922v3.362h-2.048zm2.048-3.135-.91-.973h2.578c.632 0 1.104-.135 1.416-.405.312-.269.468-.644.468-1.125 0-.488-.156-.868-.468-1.137-.312-.27-.784-.405-1.416-.405h-2.578l.91-.973v5.018zm7.086 3.135v-8.848h1.694l5.221 6.37h-.822v-6.37h2.022v8.848h-1.681l-5.233-6.371h.822v6.371h-2.023z" fill="#87AB49"/><path fill-rule="evenodd" clip-rule="evenodd" d="m355.201 111.852-2.217 2.229a.616.616 0 0 0 0 .869l2.217 2.23c.239.24.626.24.864 0a.617.617 0 0 0 0-.87l-1.173-1.179h4.408a.615.615 0 0 0 0-1.23h-4.408l1.173-1.18a.616.616 0 0 0 0-.869.608.608 0 0 0-.864 0z" fill="#87AB49"/><path fill-rule="evenodd" clip-rule="evenodd" d="M359.836 110.724a2.528 2.528 0 0 0-2.528-2.528h-7.584a2.528 2.528 0 0 0-2.528 2.528v7.584a2.528 2.528 0 0 0 2.528 2.528h7.584a2.528 2.528 0 0 0 2.528-2.528v-.948a.632.632 0 0 0-1.264 0v.948c0 .698-.566 1.264-1.264 1.264h-7.584a1.264 1.264 0 0 1-1.264-1.264v-7.584c0-.698.566-1.264 1.264-1.264h7.584c.698 0 1.264.566 1.264 1.264v.948a.632.632 0 0 0 1.264 0v-.948z" fill="#87AB49"/><path d="M142.064 109.917h11.472c.323 0 .584-.202.584-.453v-1.131c0-.25-.261-.453-.584-.453h-11.472c-.323 0-.584.203-.584.453v1.131c0 .251.261.453.584.453zm0 5.302h11.472c.323 0 .584-.203.584-.453v-1.132c0-.25-.261-.453-.584-.453h-11.472c-.323 0-.584.203-.584.453v1.132c0 .25.261.453.584.453zm11.472 5.301h-11.472c-.323 0-.584-.203-.584-.453v-1.132c0-.25.261-.452.584-.452h11.472c.323 0 .584.202.584.452v1.132c0 .25-.261.453-.584.453z" fill="#879EC1"/><circle cx="250.5" cy="324.116" r="60.526" fill="url(#c)"/><path fill-rule="evenodd" clip-rule="evenodd" d="M182.197 345.627c1.042-1.288 3.038-1.093 3.863.343.529.922.388 2.078-.317 2.874-4.106 4.637-5.878 8.245-4.697 10.301 3.794 6.606 36.623-5.31 73.327-26.616a416.567 416.567 0 0 0 3.764-2.21c.43-.256.678-.729.678-1.23 0-8.482 6.876-15.358 15.359-15.358 1.35 0 2.66.174 3.907.501 2.051.538 4.308.485 6.035-.744 20.213-14.386 32.503-26.871 29.846-31.498-1.127-1.963-4.818-2.291-10.412-1.222-1.008.192-2.038-.255-2.549-1.145-.803-1.398.016-3.171 1.611-3.404 10.989-1.608 18.783-.265 21.516 4.492 5.116 8.911-8.964 27.294-33.474 45.987-.736.561-1.122 1.465-1.122 2.391 0 8.482-6.876 15.358-15.358 15.358-1.427 0-2.807-.194-4.118-.558-1.919-.532-4.016-.54-5.729.476-.828.492-1.663.981-2.502 1.469-41.297 23.972-80.358 33.681-87.245 21.687-2.827-4.923.205-12.736 7.617-21.894z" fill="#D7DEED"/><circle cx="274.174" cy="329.089" r="7.679" fill="#70AF09"/><g opacity=".32" fill="#E5E5E5"><path d="M219.484 303.416c-3.725 9.198-2.55 18.897-7.119 17.047-4.568-1.85-5.253-10.806-1.528-20.004 3.725-9.198 10.449-15.154 15.017-13.304 4.569 1.851-2.645 7.064-6.37 16.261zM216.616 329.6c.333 3.029-1.07 5.668-3.132 5.895-2.063.227-4.005-2.045-4.338-5.074-.333-3.029 1.07-5.668 3.132-5.895 2.063-.226 4.005 2.045 4.338 5.074z"/></g><path d="M232.63 370.226c-2.103-1.216-1.095-3.252 4.014-4.945 10.772-2.365 8.954 2.415 24.455.576 15.501-1.839 23.673-8.229 27.789-12.433 3.293-3.363 6.337-7.914 6.191-6.308-.701 3.415-6.358 12.418-23.383 21.106-21.281 10.859-35.841 3.867-39.066 2.004z" fill="#080F1B" fill-opacity=".11"/><path d="M301.069 290.605c1.997-1.324 2.555-4.026 1.101-5.931a65.004 65.004 0 0 0-110.609 66.858c1.011 2.173 3.663 2.935 5.763 1.782 2.101-1.153 2.852-3.785 1.864-5.968a56.324 56.324 0 0 1 22.175-71.434 56.327 56.327 0 0 1 73.556 13.569c1.473 1.889 4.153 2.448 6.15 1.124zM213.429 372.136c-1.464 1.897-1.121 4.635.869 5.97a65.004 65.004 0 0 0 101.169-56.163c-.08-2.395-2.222-4.134-4.607-3.894-2.384.239-4.105 2.368-4.049 4.763a56.331 56.331 0 0 1-28.972 50.551 56.326 56.326 0 0 1-58.225-2.144c-2.004-1.314-4.721-.979-6.185.917z" fill="#D7DEED"/><path d="M234.005 422.433a.684.684 0 0 0-.495-.198h-.233v-1.359c0-.868-.32-1.614-.96-2.237a3.18 3.18 0 0 0-2.299-.934c-.893 0-1.659.311-2.299.934-.641.623-.961 1.369-.961 2.237v1.359h-.232a.684.684 0 0 0-.495.198.647.647 0 0 0-.204.482v4.077c0 .189.068.349.204.482a.684.684 0 0 0 .495.198h6.984a.684.684 0 0 0 .495-.198.648.648 0 0 0 .204-.482v-4.077a.648.648 0 0 0-.204-.482zm-2.125-.198h-3.725v-1.359c0-.5.182-.927.546-1.281a1.82 1.82 0 0 1 1.317-.531c.514 0 .953.177 1.317.531.363.354.545.781.545 1.281v1.359z" fill="#87AB49"/><path d="M242.001 424.756c-.45 0-.852-.06-1.206-.182a2.405 2.405 0 0 1-.857-.508l.22-.493c.243.212.508.372.796.478.294.101.63.152 1.009.152.49 0 .849-.084 1.077-.251.232-.172.349-.424.349-.758 0-.637-.405-.956-1.214-.956h-1.304v-.515h1.183c.804 0 1.206-.309 1.206-.926 0-.303-.109-.541-.326-.712-.213-.172-.534-.258-.963-.258-.319 0-.622.05-.911.151a2.23 2.23 0 0 0-.773.455l-.228-.493c.233-.217.521-.381.865-.493a3.44 3.44 0 0 1 1.092-.174c.622 0 1.09.134 1.403.402.314.268.47.622.47 1.062 0 .293-.078.543-.235.751a1.305 1.305 0 0 1-.622.455c.309.08.549.23.721.447.177.217.265.493.265.827 0 .475-.167.852-.5 1.13-.329.273-.835.409-1.517.409zm4.259 0c-.252 0-.48-.048-.682-.144a1.232 1.232 0 0 1-.47-.409 1.002 1.002 0 0 1-.175-.577c0-.268.068-.48.205-.637.142-.157.372-.268.69-.334.324-.07.764-.106 1.32-.106h.242v-.235c0-.313-.065-.538-.197-.675-.126-.141-.331-.212-.614-.212-.223 0-.437.033-.645.098a2.436 2.436 0 0 0-.637.304l-.212-.448c.192-.136.425-.245.698-.326.278-.081.543-.121.796-.121.475 0 .827.116 1.054.349.233.232.349.594.349 1.084v2.321h-.576v-.637a1.146 1.146 0 0 1-.448.516c-.197.126-.43.189-.698.189zm.099-.462a.968.968 0 0 0 .743-.311c.192-.213.288-.481.288-.804v-.228h-.235c-.409 0-.733.02-.97.061-.233.035-.397.101-.493.197a.514.514 0 0 0-.137.379c0 .208.071.377.212.508.147.132.344.198.592.198zm7.721 1.38v-.986h-4.899v-3.686h.591v3.193h1.54v-3.193h.584v3.193h1.539v-3.193h.592v3.193h.584v1.479h-.531zm1.352-.986v-3.686h.561v2.852l2.131-2.852h.523v3.686h-.561v-2.852l-2.131 2.852h-.523zm9.328.986v-.986h-4.899v-3.686h.591v3.193h1.54v-3.193h.584v3.193h1.539v-3.193h.592v3.193h.584v1.479h-.531zm3.02-.918c-.582 0-1.042-.169-1.38-.508-.339-.344-.509-.809-.509-1.395 0-.38.076-.713.228-1.001.152-.294.359-.519.622-.675.268-.162.576-.243.925-.243.501 0 .893.162 1.176.485.283.319.424.759.424 1.32v.235h-2.775c.02.42.141.741.364.963.222.218.531.326.925.326.222 0 .435-.033.637-.098.202-.071.394-.185.576-.342l.213.433a1.8 1.8 0 0 1-.637.371 2.48 2.48 0 0 1-.789.129zm-.099-3.367c-.349 0-.624.109-.826.326-.203.217-.321.503-.357.857h2.237c-.015-.374-.113-.665-.295-.872-.177-.207-.43-.311-.759-.311zm2.541 3.299v-3.686h.614v1.532h2.01v-1.532h.614v3.686h-.614v-1.653h-2.01v1.653h-.614zm5.991.068c-.359 0-.67-.078-.933-.235a1.62 1.62 0 0 1-.615-.66 2.287 2.287 0 0 1-.212-1.016c0-.389.071-.725.212-1.009.147-.288.352-.51.615-.667.263-.157.574-.235.933-.235.353 0 .662.078.925.235.268.157.473.379.614.667.147.284.22.62.22 1.009 0 .389-.073.728-.22 1.016a1.548 1.548 0 0 1-.614.66 1.772 1.772 0 0 1-.925.235zm0-.493c.343 0 .619-.121.826-.364.208-.247.311-.599.311-1.054 0-.46-.103-.811-.311-1.054-.207-.243-.483-.364-.826-.364-.349 0-.627.121-.835.364-.202.243-.303.594-.303 1.054 0 .455.101.807.303 1.054.208.243.486.364.835.364z" fill="#102154" fill-opacity=".6"/><path d="M153.138 451.128c0-6.981 5.659-12.64 12.64-12.64H337.05c6.981 0 12.64 5.659 12.64 12.64v12.64c0 6.981-5.659 12.64-12.64 12.64H165.778c-6.981 0-12.64-5.659-12.64-12.64v-12.64z" fill="#FB1B43"/><path d="M212.844 461.569a4.35 4.35 0 0 1-1.558-.273 3.735 3.735 0 0 1-1.233-.768 3.605 3.605 0 0 1-.809-1.163 3.688 3.688 0 0 1-.283-1.456c0-.526.094-1.012.283-1.457.195-.445.468-.832.819-1.162a3.73 3.73 0 0 1 1.233-.769 4.239 4.239 0 0 1 1.537-.273c.56 0 1.072.091 1.538.273.471.182.879.438 1.223.769a3.513 3.513 0 0 1 1.112 2.619c0 .525-.097 1.014-.293 1.466a3.527 3.527 0 0 1-.819 1.163 3.73 3.73 0 0 1-1.223.758 4.162 4.162 0 0 1-1.527.273zm-.011-1.395c.317 0 .607-.054.87-.162a2.079 2.079 0 0 0 1.173-1.183c.115-.277.172-.583.172-.92 0-.338-.057-.644-.172-.921a2.079 2.079 0 0 0-.465-.718 1.988 1.988 0 0 0-.698-.465 2.343 2.343 0 0 0-.88-.162c-.316 0-.61.054-.879.162a2.114 2.114 0 0 0-.698.465 2.194 2.194 0 0 0-.475.718 2.512 2.512 0 0 0-.162.921c0 .33.054.637.162.92.114.276.269.515.465.718.202.202.438.357.708.465.269.108.563.162.879.162zm6.563 1.274v-6.118l.375.374h-2.629v-1.335h6.137v1.335h-2.629l.364-.374v6.118h-1.618zm9.493 0-2.205-3.408 1.325-.799 2.74 4.207h-1.86zm-4.601 0v-7.079h1.628v7.079h-1.628zm1.153-2.852v-1.365h2.467v1.365h-2.467zm2.72-.505-1.507-.182 2.295-3.54h1.73l-2.518 3.722zm3.604 3.468c-.121 0-.249-.01-.384-.03a9.245 9.245 0 0 1-.425-.081l.102-1.386c.094.027.192.041.293.041a.744.744 0 0 0 .647-.334c.155-.229.266-.556.334-.981.067-.424.111-.94.131-1.547l.101-2.872h5.44v7.079h-1.617v-6.118l.374.374h-3.125l.334-.394-.061 1.87c-.02.695-.067 1.312-.141 1.851-.075.539-.189.998-.344 1.375-.155.378-.368.664-.637.86-.27.195-.61.293-1.022.293zm8.007-.111v-7.079h1.628v2.781h1.831v1.416H241.4v2.882h-1.628zm6.25.121c-.54 0-1.039-.091-1.497-.273a3.674 3.674 0 0 1-1.183-.758 3.565 3.565 0 0 1-.789-1.163 3.89 3.89 0 0 1-.273-1.466c0-.533.091-1.022.273-1.467.189-.445.452-.829.789-1.152a3.572 3.572 0 0 1 1.183-.769 4.018 4.018 0 0 1 1.497-.273 3.99 3.99 0 0 1 1.486.273c.458.182.853.438 1.183.769.337.323.6.711.789 1.162.189.445.283.931.283 1.457 0 .525-.094 1.014-.283 1.466a3.565 3.565 0 0 1-.789 1.163c-.33.323-.725.576-1.183.758a3.99 3.99 0 0 1-1.486.273zm0-1.395c.296 0 .569-.054.819-.162.249-.108.468-.26.657-.455.189-.202.337-.442.445-.718.108-.277.162-.587.162-.93 0-.344-.054-.654-.162-.931a2.117 2.117 0 0 0-.445-.708 1.96 1.96 0 0 0-1.476-.627c-.29 0-.563.054-.82.162a1.96 1.96 0 0 0-.657.465 2.117 2.117 0 0 0-.445.708 2.544 2.544 0 0 0-.162.931c0 .343.054.653.162.93.108.276.256.516.445.718.189.195.408.347.657.455.257.108.53.162.82.162zm9.299-1.365a6.766 6.766 0 0 1-1.012.323 4.51 4.51 0 0 1-.93.101c-.95 0-1.678-.226-2.184-.677-.506-.459-.758-1.116-.758-1.972v-2.215h1.617v2.033c0 .485.132.853.395 1.102.263.243.637.364 1.122.364.31 0 .61-.034.9-.101.29-.074.56-.179.809-.313l.041 1.355zm-.233 2.639v-7.079h1.618v7.079h-1.618zm3.378 0v-7.079h1.628v4.611l3.377-4.611h1.537v7.079h-1.618v-4.601l-3.377 4.601h-1.547zm9.831 0v-6.118l.375.374h-2.629v-1.335h6.137v1.335h-2.629l.364-.374v6.118h-1.618zm8.34-4.753c.856 0 1.517.192 1.982.576.465.378.698.948.698 1.709 0 .809-.26 1.423-.779 1.841-.512.418-1.223.627-2.134.627h-3.195v-7.079h1.628v2.326h1.8zm-.324 3.539c.418 0 .749-.104.991-.313.243-.209.364-.512.364-.91 0-.391-.121-.671-.364-.84-.236-.175-.566-.262-.991-.262h-1.476v2.325h1.476zm7.531 1.335a4.358 4.358 0 0 1-1.527-.263 3.605 3.605 0 0 1-2.022-1.931 3.713 3.713 0 0 1-.284-1.466c0-.533.095-1.022.284-1.467.195-.445.465-.832.809-1.163.35-.33.758-.583 1.223-.758a4.154 4.154 0 0 1 1.527-.273c.613 0 1.166.108 1.658.324.499.209.917.519 1.254.93l-1.051.971a2.404 2.404 0 0 0-.809-.617 2.223 2.223 0 0 0-.971-.213c-.33 0-.634.054-.91.162a2.06 2.06 0 0 0-.718.465 2.194 2.194 0 0 0-.475.718 2.512 2.512 0 0 0-.162.921c0 .337.054.643.162.92.114.276.273.515.475.718.202.202.441.357.718.465.276.108.58.162.91.162.35 0 .674-.068.971-.203.296-.141.566-.354.809-.637l1.051.971a3.283 3.283 0 0 1-1.254.941c-.492.215-1.048.323-1.668.323zm7.896-.121v-2.235l.405.354h-1.942c-.613 0-1.142-.101-1.587-.303a2.267 2.267 0 0 1-1.022-.88c-.236-.384-.354-.843-.354-1.375 0-.553.125-1.025.375-1.416a2.447 2.447 0 0 1 1.071-.91c.459-.209.998-.314 1.618-.314h3.054v7.079h-1.618zm-4.479 0 1.759-2.538h1.658l-1.688 2.538h-1.729zm4.479-2.761v-3.408l.405.425h-1.8c-.465 0-.823.108-1.072.324-.243.215-.364.536-.364.96 0 .412.118.728.354.951.236.222.583.334 1.041.334h1.841l-.405.414z" fill="#fff"/><rect x="153.454" y="148.316" width="195.92" height="27.176" rx="12.324" fill="#fff"/><rect x="153.454" y="148.316" width="195.92" height="27.176" rx="12.324" stroke="#D7DEED" stroke-width=".632"/><g clip-path="url(#d)"><g clip-path="url(#e)"><path d="M167.043 168.224a6.32 6.32 0 1 0-.001-12.64 6.32 6.32 0 0 0 .001 12.64z" fill="#fff"/><path d="M173.001 159.797h-3.894c.169 1.35.17 2.837.003 4.189h3.899a6.309 6.309 0 0 0-.008-4.189z" fill="#3757A6"/><path d="M169.107 159.797h3.894l-.002-.006a6.326 6.326 0 0 0-5.389-4.181c.967.53 1.25 2.21 1.497 4.187z" fill="#EFEFEF"/><path d="M167.61 168.197a6.322 6.322 0 0 0 5.393-4.193l.006-.018h-3.899c-.245 1.987-.529 3.679-1.5 4.211z" fill="#E73B36"/><path d="M160.722 161.904c0 .729.126 1.43.353 2.082h8.361a17.48 17.48 0 0 0-.004-4.19h-8.349a6.315 6.315 0 0 0-.361 2.108z" fill="#3757A6"/><path d="m161.085 159.791-.002.006h8.35c-.248-1.977-.856-3.657-1.823-4.187a6.323 6.323 0 0 0-6.525 4.181z" fill="#EFEFEF"/><path d="M169.436 163.986h-8.361l.006.018a6.321 6.321 0 0 0 6.529 4.193c.971-.532 1.58-2.224 1.826-4.211z" fill="#E73B36"/></g></g><path d="M179.499 164.904v-6.636h2.484c.562 0 1.046.091 1.45.275.405.177.714.436.929.777.221.335.332.743.332 1.223 0 .468-.111.872-.332 1.213a2.095 2.095 0 0 1-.929.778c-.404.177-.888.265-1.45.265h-2.095l.312-.322v2.427h-.701zm4.531 0-1.706-2.408h.758l1.716 2.408h-.768zm-3.83-2.37-.312-.332h2.076c.663 0 1.166-.145 1.507-.436.348-.291.521-.698.521-1.223 0-.531-.173-.942-.521-1.232-.341-.291-.844-.436-1.507-.436h-2.076l.312-.332v3.991zm8.065 2.417c-.424 0-.793-.079-1.109-.237a1.71 1.71 0 0 1-.74-.711c-.171-.316-.256-.711-.256-1.185v-2.891h.673v2.815c0 .531.13.933.389 1.204.265.266.635.398 1.109.398.348 0 .648-.069.901-.208.259-.145.455-.354.587-.626.139-.272.209-.597.209-.976v-2.607h.673v4.977h-.645v-1.365l.105.246a1.86 1.86 0 0 1-.74.863c-.328.202-.714.303-1.156.303zm5.649 0c-.411 0-.8-.057-1.166-.17-.367-.121-.655-.269-.863-.446l.303-.531a3.052 3.052 0 0 0 1.773.559c.474 0 .815-.072 1.024-.218a.705.705 0 0 0 .313-.597.526.526 0 0 0-.18-.426 1.03 1.03 0 0 0-.456-.237 4.964 4.964 0 0 0-.635-.143 14.385 14.385 0 0 1-.701-.132 2.766 2.766 0 0 1-.626-.218 1.325 1.325 0 0 1-.464-.408c-.114-.171-.171-.398-.171-.683 0-.271.076-.515.227-.73a1.48 1.48 0 0 1 .664-.502c.297-.126.657-.19 1.081-.19.322 0 .644.045.967.133.322.082.588.193.796.332l-.294.54a2.192 2.192 0 0 0-.711-.322 2.826 2.826 0 0 0-.758-.104c-.449 0-.781.079-.996.237a.695.695 0 0 0-.312.587c0 .19.056.339.17.446.12.107.275.193.465.256.196.057.407.104.635.142.234.038.464.085.692.142.234.051.445.124.635.218.196.089.351.218.465.389.12.164.18.382.18.654 0 .291-.082.544-.247.759-.158.208-.392.372-.701.493-.304.113-.673.17-1.109.17zm4.628 0c-.41 0-.799-.057-1.166-.17-.366-.121-.654-.269-.862-.446l.303-.531c.202.152.461.285.777.398.316.108.648.161.996.161.474 0 .815-.072 1.024-.218a.705.705 0 0 0 .313-.597.524.524 0 0 0-.181-.426 1.021 1.021 0 0 0-.455-.237 4.964 4.964 0 0 0-.635-.143 14.385 14.385 0 0 1-.701-.132 2.766 2.766 0 0 1-.626-.218 1.316 1.316 0 0 1-.464-.408c-.114-.171-.171-.398-.171-.683 0-.271.076-.515.227-.73a1.48 1.48 0 0 1 .664-.502c.297-.126.657-.19 1.081-.19.322 0 .644.045.967.133.322.082.587.193.796.332l-.294.54a2.192 2.192 0 0 0-.711-.322 2.826 2.826 0 0 0-.758-.104c-.449 0-.781.079-.996.237a.696.696 0 0 0-.313.587c0 .19.057.339.171.446.12.107.275.193.465.256.196.057.407.104.635.142.234.038.464.085.692.142.234.051.445.124.635.218.196.089.351.218.465.389.12.164.18.382.18.654 0 .291-.083.544-.247.759-.158.208-.392.372-.701.493-.304.113-.673.17-1.11.17zm3.293-.047v-4.977h.673v4.977h-.673zm.341-6.077a.477.477 0 0 1-.351-.142.465.465 0 0 1-.142-.341c0-.133.047-.244.142-.332a.477.477 0 0 1 .351-.142c.139 0 .256.044.351.132a.435.435 0 0 1 .142.332.477.477 0 0 1-.142.351.458.458 0 0 1-.351.142zm5.324 6.077v-1.1l-.029-.18v-1.839c0-.424-.12-.749-.36-.977-.234-.227-.585-.341-1.052-.341-.323 0-.629.054-.92.161-.291.108-.537.25-.739.427l-.304-.503a2.63 2.63 0 0 1 .91-.492 3.435 3.435 0 0 1 1.119-.181c.645 0 1.141.162 1.488.484.354.316.531.799.531 1.45v3.091h-.644zm-1.716.047c-.373 0-.699-.06-.977-.18a1.483 1.483 0 0 1-.625-.512 1.345 1.345 0 0 1-.219-.758c0-.259.061-.493.181-.702.126-.215.328-.385.606-.512.285-.132.664-.199 1.138-.199h1.716v.503h-1.697c-.48 0-.815.085-1.005.256a.832.832 0 0 0-.275.635c0 .284.111.512.332.682.221.171.531.256.929.256.379 0 .705-.085.976-.256a1.51 1.51 0 0 0 .607-.758l.152.464a1.578 1.578 0 0 1-.664.787c-.31.196-.701.294-1.175.294z" fill="#5A78A6"/><rect x="315.177" y="162.196" width="1.847" height="3.5" rx=".923" fill="#6AAE0D"/><rect x="318.87" y="159.862" width="1.847" height="5.834" rx=".923" fill="#6AAE0D"/><rect x="322.563" y="158.112" width="1.847" height="7.584" rx=".923" fill="#6AAE0D"/><path fill-rule="evenodd" clip-rule="evenodd" d="m337.429 159.755-2.907 2.908-2.907-2.908-.885.885 3.792 3.792 3.792-3.792-.885-.885z" fill="#87AB49"/><path d="M198.291 193.476v-5.309h2.283c.576 0 1.029.117 1.358.349.328.233.493.571.493 1.016 0 .435-.157.769-.471 1.001-.313.228-.725.342-1.236.342l.137-.228c.591 0 1.044.119 1.357.357.319.232.478.574.478 1.024 0 .455-.167.811-.501 1.069-.328.253-.819.379-1.471.379h-2.427zm.751-.599h1.661c.404 0 .708-.073.91-.22.207-.152.311-.382.311-.69 0-.309-.104-.534-.311-.675-.202-.142-.506-.212-.91-.212h-1.661v1.797zm0-2.374h1.479c.369 0 .65-.073.842-.22.197-.146.296-.361.296-.644 0-.289-.099-.506-.296-.653-.192-.146-.473-.22-.842-.22h-1.479v1.737zm7.259 2.973v-.849l-.038-.16v-1.448c0-.309-.091-.546-.273-.713-.177-.172-.445-.258-.804-.258-.238 0-.471.041-.698.121-.228.076-.42.18-.576.311l-.304-.546c.208-.167.455-.293.743-.379.294-.091.6-.136.918-.136.551 0 .976.134 1.274.402.299.268.448.677.448 1.228v2.427h-.69zm-1.32.046c-.298 0-.561-.051-.789-.152a1.224 1.224 0 0 1-.516-.417 1.086 1.086 0 0 1-.182-.615c0-.217.051-.414.152-.591.106-.177.276-.319.508-.425.238-.106.556-.159.956-.159h1.274v.523h-1.244c-.364 0-.609.061-.735.182a.587.587 0 0 0-.19.44c0 .197.078.357.235.478.157.116.374.174.652.174.273 0 .511-.06.713-.182a1.03 1.03 0 0 0 .448-.531l.144.501a1.154 1.154 0 0 1-.508.569c-.243.136-.549.205-.918.205zm5.99-.683-.167.19v-3.572h.728v3.572l-.182-.19h2.124l-.174.19v-3.572h.728v4.019h-5.726v-4.019h.728v3.572l-.175-.19h2.116zm6.935.637v-.849l-.038-.16v-1.448c0-.309-.091-.546-.273-.713-.177-.172-.445-.258-.804-.258-.237 0-.47.041-.697.121-.228.076-.42.18-.577.311l-.303-.546c.207-.167.455-.293.743-.379.293-.091.599-.136.918-.136.551 0 .976.134 1.274.402.298.268.447.677.447 1.228v2.427h-.69zm-1.319.046c-.299 0-.562-.051-.789-.152a1.212 1.212 0 0 1-.516-.417 1.086 1.086 0 0 1-.182-.615c0-.217.051-.414.152-.591.106-.177.275-.319.508-.425.237-.106.556-.159.955-.159h1.275v.523h-1.244c-.364 0-.609.061-.736.182a.59.59 0 0 0-.189.44c0 .197.078.357.235.478.156.116.374.174.652.174.273 0 .511-.06.713-.182.207-.121.356-.298.447-.531l.144.501a1.15 1.15 0 0 1-.508.569c-.243.136-.548.205-.917.205zm4.69-.054.045-.614.099.015c.03.005.058.008.083.008a.463.463 0 0 0 .379-.167c.096-.111.167-.258.213-.44.045-.187.078-.397.098-.629.021-.233.036-.465.046-.698l.068-1.486h3.087v4.019h-.728v-3.595l.174.213h-2.063l.167-.22-.053 1.115c-.015.353-.043.685-.083.993a3.806 3.806 0 0 1-.19.812 1.294 1.294 0 0 1-.341.546.784.784 0 0 1-.554.197c-.066 0-.136-.008-.212-.023a2.41 2.41 0 0 1-.235-.046zm7.247.054c-.404 0-.763-.089-1.077-.266a1.982 1.982 0 0 1-.743-.728 2.074 2.074 0 0 1-.273-1.062c0-.399.091-.753.273-1.061a1.92 1.92 0 0 1 .743-.721 2.155 2.155 0 0 1 1.077-.265c.4 0 .756.088 1.069.265.319.172.567.412.744.721.182.303.273.657.273 1.061 0 .4-.091.754-.273 1.062a1.908 1.908 0 0 1-.744.728 2.133 2.133 0 0 1-1.069.266zm0-.637c.258 0 .488-.059.69-.175.208-.116.369-.281.486-.493a1.57 1.57 0 0 0 .174-.751c0-.288-.058-.536-.174-.743a1.233 1.233 0 0 0-.486-.493 1.36 1.36 0 0 0-.69-.174 1.36 1.36 0 0 0-.69.174 1.298 1.298 0 0 0-.485.493 1.438 1.438 0 0 0-.182.743c0 .283.06.534.182.751a1.298 1.298 0 0 0 1.175.668zm6.049.591-1.554-1.957.599-.364 1.812 2.321h-.857zm-2.912 0v-4.019h.728v4.019h-.728zm.508-1.699v-.622h1.327v.622h-1.327zm1.509-.227-.675-.091 1.54-2.002h.781l-1.646 2.093zm4.906 1.926v-.849l-.038-.16v-1.448c0-.309-.091-.546-.273-.713-.177-.172-.444-.258-.803-.258-.238 0-.471.041-.698.121-.228.076-.42.18-.577.311l-.303-.546c.207-.167.455-.293.743-.379.294-.091.599-.136.918-.136.551 0 .976.134 1.274.402.298.268.448.677.448 1.228v2.427h-.691zm-1.319.046c-.299 0-.561-.051-.789-.152a1.224 1.224 0 0 1-.516-.417 1.086 1.086 0 0 1-.182-.615c0-.217.051-.414.152-.591.106-.177.276-.319.508-.425.238-.106.556-.159.956-.159h1.274v.523h-1.244c-.364 0-.609.061-.736.182a.59.59 0 0 0-.189.44c0 .197.078.357.235.478.157.116.374.174.652.174.273 0 .511-.06.713-.182.207-.121.356-.298.447-.531l.145.501a1.156 1.156 0 0 1-.509.569c-.242.136-.548.205-.917.205zm3.321-.046v-4.019h.728v3.382h2.199v-3.382h.728v4.019h-3.655zm3.602.933v-.971l.182.038h-.857v-.637h1.365v1.57h-.69zm1.634-.933v-4.019h.728v2.927l2.465-2.927h.659v4.019h-.728v-2.927l-2.457 2.927h-.667zm7.837 0v-1.411l.113.137h-1.281c-.536 0-.956-.114-1.259-.341-.299-.228-.448-.559-.448-.994 0-.465.16-.816.478-1.054.324-.238.753-.356 1.289-.356h1.76v4.019h-.652zm-2.913 0 1.092-1.539h.751l-1.062 1.539h-.781zm2.913-1.638v-1.949l.113.205h-1.198c-.334 0-.591.063-.773.189-.183.122-.274.324-.274.607 0 .526.339.789 1.017.789h1.228l-.113.159zm2.232-1.38a.509.509 0 0 1-.364-.144.514.514 0 0 1-.152-.38.509.509 0 0 1 .516-.515c.136 0 .252.048.348.144.102.096.152.22.152.371 0 .152-.05.278-.152.38a.474.474 0 0 1-.348.144zm0 3.064a.506.506 0 0 1-.516-.524.509.509 0 0 1 .516-.515c.136 0 .252.048.348.144.102.096.152.22.152.371a.51.51 0 0 1-.5.524zm3.717-.046v-5.309h.622l2.381 4.012h-.334l2.351-4.012h.622l.008 5.309h-.728l-.008-4.164h.175l-2.094 3.519h-.349l-2.108-3.519h.19v4.164h-.728zm8.902.046c-.404 0-.763-.089-1.076-.266a1.977 1.977 0 0 1-.744-.728 2.074 2.074 0 0 1-.273-1.062c0-.399.091-.753.273-1.061.182-.309.43-.549.744-.721a2.148 2.148 0 0 1 1.076-.265c.4 0 .756.088 1.07.265.318.172.566.412.743.721.182.303.273.657.273 1.061 0 .4-.091.754-.273 1.062a1.912 1.912 0 0 1-.743.728 2.14 2.14 0 0 1-1.07.266zm0-.637c.258 0 .488-.059.691-.175a1.23 1.23 0 0 0 .485-.493 1.57 1.57 0 0 0 .174-.751c0-.288-.058-.536-.174-.743a1.23 1.23 0 0 0-.485-.493 1.367 1.367 0 0 0-.691-.174c-.257 0-.487.058-.69.174a1.298 1.298 0 0 0-.485.493 1.448 1.448 0 0 0-.182.743c0 .283.061.534.182.751a1.298 1.298 0 0 0 1.175.668zm4.889.637c-.409 0-.776-.089-1.099-.266a1.96 1.96 0 0 1-.751-.728 2.048 2.048 0 0 1-.273-1.062c0-.399.091-.753.273-1.061.182-.309.432-.549.751-.721a2.25 2.25 0 0 1 1.099-.265c.364 0 .688.073.971.22.288.141.511.353.667.637l-.553.356a1.198 1.198 0 0 0-.486-.432 1.308 1.308 0 0 0-.606-.144c-.263 0-.498.058-.706.174a1.29 1.29 0 0 0-.493.493 1.448 1.448 0 0 0-.182.743c0 .289.061.539.182.751.122.212.286.377.493.493.208.116.443.175.706.175.217 0 .419-.046.606-.137.193-.096.354-.243.486-.44l.553.349a1.608 1.608 0 0 1-.667.645c-.283.146-.607.22-.971.22zm5.493-.046-1.554-1.957.599-.364 1.812 2.321h-.857zm-2.912 0v-4.019h.728v4.019h-.728zm.508-1.699v-.622h1.327v.622h-1.327zm1.509-.227-.675-.091 1.54-2.002h.781l-1.646 2.093zm2.516 1.926v-4.019h1.865c.471 0 .84.091 1.108.273a.85.85 0 0 1 .409.758.883.883 0 0 1-.387.766c-.252.177-.589.265-1.008.265l.113-.197c.481 0 .837.089 1.07.266.232.177.349.437.349.781 0 .349-.132.622-.395.819-.258.192-.655.288-1.19.288h-1.934zm.713-.561h1.167c.304 0 .531-.046.683-.137.152-.096.228-.247.228-.455 0-.212-.071-.366-.213-.462-.136-.101-.354-.152-.652-.152h-1.213v1.206zm0-1.729h1.092c.278 0 .488-.051.629-.152a.512.512 0 0 0 .22-.44.481.481 0 0 0-.22-.432c-.141-.096-.351-.144-.629-.144h-1.092v1.168zm6.41 2.29v-.849l-.038-.16v-1.448c0-.309-.091-.546-.273-.713-.177-.172-.445-.258-.804-.258-.238 0-.47.041-.698.121-.227.076-.419.18-.576.311l-.303-.546c.207-.167.455-.293.743-.379.293-.091.599-.136.918-.136.551 0 .975.134 1.274.402.298.268.447.677.447 1.228v2.427h-.69zm-1.32.046c-.298 0-.561-.051-.788-.152a1.212 1.212 0 0 1-.516-.417 1.086 1.086 0 0 1-.182-.615c0-.217.05-.414.152-.591.106-.177.275-.319.508-.425.237-.106.556-.159.955-.159h1.274v.523h-1.243c-.364 0-.61.061-.736.182a.59.59 0 0 0-.19.44c0 .197.079.357.235.478.157.116.375.174.653.174.273 0 .51-.06.713-.182.207-.121.356-.298.447-.531l.144.501a1.15 1.15 0 0 1-.508.569c-.243.136-.549.205-.918.205z" fill="#3B577F"/><g clip-path="url(#f)"><g clip-path="url(#g)"><path d="M299.943 196.664a5.687 5.687 0 0 0 0-11.375 5.687 5.687 0 1 0 0 11.375z" fill="#fff"/><path d="M305.305 189.08h-3.504c.152 1.215.153 2.553.002 3.77h3.51a5.697 5.697 0 0 0-.008-3.77z" fill="#3757A6"/><path d="M301.801 189.08h3.504l-.002-.005a5.69 5.69 0 0 0-4.85-3.763c.871.477 1.125 1.989 1.348 3.768z" fill="#EFEFEF"/><path d="M300.453 196.64a5.691 5.691 0 0 0 4.86-3.79h-3.509c-.221 1.788-.477 3.311-1.351 3.79z" fill="#E73B36"/><path d="M294.254 190.976c0 .657.113 1.287.318 1.874h7.524a15.692 15.692 0 0 0-.003-3.77h-7.514a5.669 5.669 0 0 0-.325 1.896z" fill="#3757A6"/><path d="m294.581 189.075-.002.005h7.515c-.223-1.779-.77-3.291-1.641-3.769a5.69 5.69 0 0 0-5.872 3.764z" fill="#EFEFEF"/><path d="M302.096 192.85h-7.524l.005.016a5.69 5.69 0 0 0 5.876 3.774c.874-.479 1.423-2.002 1.643-3.79z" fill="#E73B36"/></g></g><path fill="#fff" fill-opacity=".76" d="M131 71h239v392H131z"/></g><path d="M124.907 105.273c0-22.293 18.073-40.366 40.366-40.366h170.454c22.293 0 40.366 18.073 40.366 40.366h-12.186c0-15.563-12.617-28.18-28.18-28.18H165.273c-15.563 0-28.18 12.617-28.18 28.18h-12.186zM370 477H131h239zm-245.093 0V105.273c0-22.293 18.073-40.366 40.366-40.366v12.186c-15.563 0-28.18 12.617-28.18 28.18V477h-12.186zm210.82-412.093c22.293 0 40.366 18.073 40.366 40.366V477h-12.186V105.273c0-15.563-12.617-28.18-28.18-28.18V64.907z" fill="#D0D9EF" mask="url(#h)"/><g filter="url(#i)"><rect x="76" y="287" width="104" height="104" rx="20" fill="#fff"/><rect x="76.5" y="287.5" width="103" height="103" rx="19.5" stroke="#D7DEED"/><g clip-path="url(#j)" fill="#9BC256"><path d="M158.323 360.55c-1.684 0-3.063-1.385-3.063-3.078v-21.854c0-15.113-12.221-27.394-27.26-27.394-15.039 0-27.261 12.281-27.261 27.394v19.822c0 1.693-1.378 3.078-3.063 3.078-1.684 0-3.063-1.385-3.063-3.078v-19.822c0-18.498 14.978-33.55 33.387-33.55 18.408 0 33.386 15.052 33.386 33.55v21.854c0 1.693-1.378 3.078-3.063 3.078z"/><path d="M138.567 375.816c-13.109 0-23.738-10.711-23.738-23.854v-16.313c0-7.295 5.912-13.235 13.171-13.235 7.259 0 13.171 5.94 13.171 13.235v15.698c0 1.692-1.379 3.077-3.063 3.077-1.685 0-3.063-1.385-3.063-3.077v-15.698c0-3.909-3.155-7.079-7.045-7.079s-7.045 3.17-7.045 7.079v16.313c0 9.757 7.903 17.698 17.612 17.698 1.685 0 3.063 1.386 3.063 3.078a3.06 3.06 0 0 1-3.063 3.078z"/><path d="M112.379 374.985a27.626 27.626 0 0 1-7.658-19.145v-20.222c0-12.897 10.476-23.392 23.371-23.392 12.803 0 23.187 10.434 23.187 23.3v15.482c0 7.48-6.034 13.543-13.477 13.543-7.107 0-12.865-5.817-12.865-12.927v-15.082c0-1.693 1.378-3.078 3.063-3.078 1.685 0 3.063 1.385 3.063 3.078v15.082c0 3.724 3.032 6.771 6.739 6.771 4.073 0 7.351-3.293 7.351-7.387v-15.482c0-9.48-7.627-17.144-17.061-17.144-9.526 0-17.245 7.725-17.245 17.236v20.253c0 5.571 2.114 10.865 5.943 14.867 1.163 1.231 1.133 3.17-.092 4.34-1.226 1.169-3.155 1.139-4.319-.093z"/></g></g><circle cx="496" cy="-74" r="161" fill="#D0D9EF" fill-opacity=".32"/></g><defs><clipPath id="a"><rect width="500" height="461" rx="13.257" fill="#fff"/></clipPath><clipPath id="b"><path d="M131 105.273C131 86.345 146.345 71 165.273 71h170.454C354.655 71 370 86.345 370 105.273V477H131V105.273z" fill="#fff"/></clipPath><clipPath id="d"><rect x="160.722" y="155.584" width="12.64" height="12.64" rx="6.32" fill="#fff"/></clipPath><clipPath id="e"><path fill="#fff" transform="translate(160.722 155.584)" d="M0 0h12.64v12.64H0z"/></clipPath><clipPath id="f"><rect x="294.254" y="185.288" width="11.376" height="11.376" rx="5.688" fill="#fff"/></clipPath><clipPath id="g"><path fill="#fff" transform="translate(294.254 185.288)" d="M0 0h11.376v11.376H0z"/></clipPath><clipPath id="j"><path fill="#fff" transform="translate(94.614 302.068)" d="M0 0h66.773v73.864H0z"/></clipPath><linearGradient id="c" x1="186.314" y1="220.603" x2="277.875" y2="376.597" gradientUnits="userSpaceOnUse"><stop offset=".395" stop-color="#FF3A3A"/><stop offset=".72" stop-color="#D64D12"/><stop offset=".75" stop-color="#87AB49"/></linearGradient><filter id="i" x="54.109" y="282.763" width="147.781" height="183.795" filterUnits="userSpaceOnUse" color-interpolation-filters="sRGB"><feFlood flood-opacity="0" result="BackgroundImageFix"/><feColorMatrix in="SourceAlpha" values="0 0 0 0 0 0 0 0 0 0 0 0 0 0 0 0 0 0 127 0" result="hardAlpha"/><feOffset dy="3.531"/><feGaussianBlur stdDeviation="3.884"/><feColorMatrix values="0 0 0 0 0 0 0 0 0 0 0 0 0 0 0 0 0 0 0.1 0"/><feBlend in2="BackgroundImageFix" result="effect1_dropShadow_204_3393"/><feColorMatrix in="SourceAlpha" values="0 0 0 0 0 0 0 0 0 0 0 0 0 0 0 0 0 0 127 0" result="hardAlpha"/><feOffset dy="13.417"/><feGaussianBlur stdDeviation="6.708"/><feColorMatrix values="0 0 0 0 0 0 0 0 0 0 0 0 0 0 0 0 0 0 0.09 0"/><feBlend in2="effect1_dropShadow_204_3393" result="effect2_dropShadow_204_3393"/><feColorMatrix in="SourceAlpha" values="0 0 0 0 0 0 0 0 0 0 0 0 0 0 0 0 0 0 127 0" result="hardAlpha"/><feOffset dy="30.364"/><feGaussianBlur stdDeviation="9.18"/><feColorMatrix values="0 0 0 0 0 0 0 0 0 0 0 0 0 0 0 0 0 0 0.05 0"/><feBlend in2="effect2_dropShadow_204_3393" result="effect3_dropShadow_204_3393"/><feColorMatrix in="SourceAlpha" values="0 0 0 0 0 0 0 0 0 0 0 0 0 0 0 0 0 0 127 0" result="hardAlpha"/><feOffset dy="53.667"/><feGaussianBlur stdDeviation="10.945"/><feColorMatrix values="0 0 0 0 0 0 0 0 0 0 0 0 0 0 0 0 0 0 0.01 0"/><feBlend in2="effect3_dropShadow_204_3393" result="effect4_dropShadow_204_3393"/><feBlend in="SourceGraphic" in2="effect4_dropShadow_204_3393" result="shape"/></filter></defs></svg>