<svg width="20" height="20" viewBox="0 0 20 20" fill="none" xmlns="http://www.w3.org/2000/svg">
<path d="M20.0001 10C20.0001 4.47852 15.5216 0 10.0001 0C6.528 0 3.47219 1.77038 1.67896 4.45565L10.0001 10H20.0001Z" fill="#0038A8"/>
<path d="M20.0001 10H10.0001L1.67896 15.5489C3.47219 18.2342 6.528 20 10.0001 20C15.5216 20 20.0001 15.5215 20.0001 10Z" fill="#CE1126"/>
<path d="M1.67886 4.45557C0.617559 6.04294 0 7.95053 0 9.99993C0 12.0539 0.617559 13.9569 1.67886 15.5489L10 9.99993L1.67886 4.45557Z" fill="#F1F4FB"/>
<path d="M2.29187 14.3826L1.90762 14.2179L1.63313 14.5336L1.67432 14.1173L1.29004 13.9526L1.69718 13.8611L1.73379 13.4448L1.94878 13.8062L2.35592 13.7102L2.07688 14.0258L2.29187 14.3826Z" fill="#FCD116"/>
<path d="M5.45758 10.2429C5.51704 10.1788 5.57649 10.1194 5.63596 10.0553C5.58107 10.0096 5.46672 9.86317 5.39352 9.86774C5.21512 9.89062 5.03672 9.90892 4.85831 9.93179C4.6799 9.95467 4.68905 9.8769 4.85831 9.84945C5.01384 9.82201 5.16936 9.79456 5.3249 9.76712C5.21511 9.6802 5.20597 9.65276 5.07788 9.68936C4.92692 9.73053 4.72563 9.8586 4.67074 9.69849C4.63414 9.59327 4.55181 9.54752 4.65245 9.49263C4.73479 9.44688 4.81254 9.40572 4.89488 9.35997C5.04585 9.27763 5.04585 9.27306 5.06872 9.1038C4.94978 9.18157 4.83086 9.25934 4.71192 9.34169C4.65702 9.37828 4.60669 9.41487 4.55179 9.44689C4.46488 9.50636 4.54723 9.3554 4.56553 9.33711C4.71649 9.22274 4.86287 9.10838 5.01383 8.99401C5.11904 8.91167 5.07788 8.81103 5.07788 8.68295C5.00469 8.68752 4.82171 8.66008 4.77597 8.71497C4.66161 8.85678 4.55179 8.99401 4.43743 9.13125C4.32306 9.27306 4.28189 9.20444 4.37796 9.07177C4.47402 8.94369 4.56553 8.81561 4.65703 8.68753C4.51979 8.70125 4.49234 8.68753 4.42372 8.80189C4.37797 8.87966 4.32765 8.96198 4.28191 9.03975C4.21786 9.14496 4.25445 9.14498 4.13094 9.08551C4.0303 9.03519 3.91595 9.06721 3.94797 8.9437C3.97085 8.85221 3.99828 8.76528 4.02115 8.67379C4.0669 8.5091 4.06232 8.50912 3.9571 8.37188C3.92966 8.51369 3.90679 8.6555 3.87934 8.79731C3.86562 8.86136 3.85647 8.92539 3.84732 8.98943C3.82902 9.09008 3.77869 8.92539 3.77869 8.90252C3.79699 8.71496 3.81986 8.52741 3.83816 8.33985C3.85188 8.21177 3.75126 8.16602 3.65977 8.0791C3.60945 8.134 3.46763 8.24835 3.47678 8.32154C3.49965 8.49995 3.52253 8.67837 3.54083 8.85678C3.55913 9.03519 3.48594 9.02147 3.45849 8.85678C3.43104 8.70125 3.4036 8.5457 3.37615 8.39017C3.28924 8.49996 3.26177 8.5091 3.29836 8.63718C3.32124 8.72868 3.3487 8.8156 3.37157 8.9071C3.4036 9.02603 3.43103 9.00316 3.30294 9.04891C3.19773 9.0855 3.14284 9.18157 3.08337 9.07635C3.03763 8.99859 2.99189 8.91623 2.94614 8.83847C2.85923 8.68751 2.85922 8.68751 2.68539 8.66921C2.76773 8.78815 2.85006 8.90252 2.9324 9.02146C2.969 9.07178 3.00559 9.12666 3.04219 9.17698C3.10166 9.25932 2.94613 9.18157 2.9324 9.16327C2.81347 9.01688 2.69454 8.87049 2.5756 8.72868C2.49326 8.62804 2.3926 8.66921 2.26451 8.67379C2.26908 8.74698 2.24622 8.92998 2.30569 8.97573C2.4475 9.08552 2.58931 9.19529 2.73112 9.3005C2.87751 9.41029 2.81346 9.45604 2.67165 9.35997C2.54356 9.26848 2.41091 9.18156 2.28282 9.09464C2.30112 9.23188 2.28738 9.25475 2.40632 9.32337C2.54356 9.40114 2.77229 9.4469 2.6991 9.60244C2.65335 9.70308 2.68538 9.80372 2.56644 9.77627C2.47953 9.7534 2.38802 9.72594 2.29653 9.70764C2.12727 9.6619 2.12729 9.66648 1.99462 9.7717C2.13644 9.79457 2.27824 9.822 2.42006 9.84488C2.4841 9.85402 2.54813 9.86775 2.6076 9.8769C2.70824 9.8952 2.54356 9.94553 2.52068 9.94553C2.33313 9.92723 2.14558 9.90894 1.95802 9.89064C1.82536 9.87691 1.78418 9.97754 1.69727 10.0736C1.75216 10.1193 1.86654 10.2657 1.93973 10.2566C2.11814 10.2337 2.29654 10.2108 2.47495 10.188C2.65336 10.1651 2.63963 10.2383 2.47495 10.2703C2.31941 10.2978 2.16387 10.3298 2.00833 10.3572C2.11812 10.4441 2.12729 10.4716 2.25538 10.435C2.41091 10.3938 2.60302 10.2612 2.66249 10.4259C2.69909 10.5311 2.7906 10.5768 2.68539 10.6363C2.60762 10.682 2.52526 10.7278 2.44292 10.7735C2.29196 10.8604 2.29654 10.8604 2.27367 11.0343C2.3926 10.9519 2.51156 10.8696 2.6305 10.7872C2.68082 10.7506 2.73569 10.714 2.78602 10.6774C2.87293 10.618 2.7906 10.7689 2.77231 10.7872C2.62592 10.9062 2.47952 11.0251 2.33314 11.1441C2.2325 11.2264 2.26909 11.327 2.27367 11.4551C2.34686 11.4506 2.52986 11.4734 2.5756 11.4139C2.68539 11.2721 2.79517 11.1349 2.90954 10.9931C3.01933 10.8513 3.06508 10.9153 2.96901 11.0526C2.87752 11.1807 2.78601 11.3087 2.6991 11.4414C2.83633 11.4231 2.86379 11.4368 2.9324 11.3225C2.97815 11.2401 3.02389 11.1624 3.06964 11.0846C3.12911 10.9794 3.09709 10.9748 3.2206 11.0343C3.32125 11.0846 3.43104 11.0526 3.39902 11.1761C3.37615 11.263 3.35326 11.3545 3.32581 11.4414C3.28007 11.6107 3.28465 11.6107 3.39444 11.7433C3.41731 11.6015 3.44475 11.4597 3.46762 11.3179C3.47677 11.2539 3.4905 11.1898 3.49965 11.1303C3.51795 11.0297 3.56828 11.1944 3.56828 11.2172C3.54998 11.4048 3.5271 11.5923 3.5088 11.7799C3.49508 11.9126 3.59573 11.9537 3.68722 12.0407C3.73297 11.9858 3.87933 11.8714 3.87019 11.7982C3.84731 11.6198 3.82446 11.4414 3.80158 11.263C3.77871 11.0846 3.8519 11.0983 3.88392 11.263C3.91137 11.4185 3.94339 11.5741 3.97084 11.7296C4.05776 11.6198 4.0852 11.6107 4.0486 11.478C4.02115 11.3911 3.99829 11.2996 3.97084 11.2081C3.93882 11.0937 3.91135 11.112 4.03944 11.0663C4.14466 11.0251 4.195 10.929 4.25904 11.0388C4.30479 11.1212 4.35511 11.1989 4.40085 11.2767C4.48777 11.4277 4.49235 11.4231 4.66161 11.4414C4.57926 11.327 4.4969 11.2081 4.41456 11.0937C4.37796 11.0388 4.34137 10.9885 4.30478 10.9336C4.24531 10.8513 4.40084 10.9291 4.41456 10.9474C4.5335 11.0937 4.65246 11.2401 4.77597 11.3819C4.85831 11.4826 4.95895 11.4414 5.08704 11.4368C5.08246 11.3636 5.10075 11.1807 5.04585 11.1349C4.90404 11.0251 4.75766 10.9153 4.62042 10.8056C4.47404 10.6958 4.53808 10.6546 4.67531 10.7461C4.80798 10.833 4.94063 10.9245 5.06872 11.0114C5.05042 10.8741 5.06416 10.8467 4.94523 10.7827C4.80799 10.7095 4.57467 10.6592 4.64787 10.5082C4.69361 10.4076 4.66616 10.3115 4.78052 10.3435C4.87201 10.3664 4.95894 10.3938 5.04585 10.4167C5.21054 10.4624 5.21055 10.4624 5.34779 10.3526C5.22428 10.3298 5.10532 10.3069 4.9818 10.284C4.91776 10.2703 4.85372 10.2612 4.7851 10.2474C4.75765 10.2429 4.65245 10.1514 4.74394 10.1605C4.97725 10.1925 5.21512 10.2154 5.45758 10.2429Z" fill="#FCD116"/>
<path d="M7.23697 10.3386L7.48402 10.0001L7.23242 9.66616L7.63041 9.79426L7.87284 9.45117V9.87202L8.27541 9.99555L7.87742 10.1236L7.882 10.5445L7.63499 10.206L7.23697 10.3386Z" fill="#FCD116"/>
<path d="M2.29187 5.61319L1.90762 5.78244L1.63313 5.4668L1.67432 5.8831L1.29004 6.04778L1.70176 6.13469L1.73837 6.55097L1.94878 6.18959L2.35592 6.28108L2.07688 5.97002L2.29187 5.61319Z" fill="#FCD116"/>
</svg>
