<svg xmlns="http://www.w3.org/2000/svg" width="248" height="248" viewBox="0 0 248 248">
    <defs>
        <style>
            .cls-1{fill:#dee0e3;opacity:.398}.cls-2{fill:#0a4e7c}.cls-3{fill:#e2e2e0}.cls-4{fill:#ff651f}.cls-5{fill:#ffa931}.cls-6{opacity:.1}.cls-7{fill:#0b2e44}.cls-11,.cls-12,.cls-14,.cls-8{fill:#fff}.cls-9{fill:#ed1c24}.cls-10{fill:#f9b946}.cls-11{opacity:.4}.cls-12,.cls-21{opacity:.5}.cls-13{fill:#e5e5e5}.cls-14{stroke:#707070}.cls-15{fill:#34495e}.cls-16{fill:#ff614f}.cls-17{fill:#84e570}.cls-18{fill:#7d57ff}.cls-19{fill:#e2e1e0}.cls-20{fill:#f95a78}.cls-22{fill:#0061fa;opacity:.06}
        </style>
    </defs>
    <g id="Group_7147" data-name="Group 7147" transform="translate(-8877.661 -1480.278)">
        <circle id="Background_2" cx="87.681" cy="87.681" r="87.681" class="cls-1" data-name="Background 2" transform="rotate(-45 6375.365 -9914.146)"/>
        <g id="Speed" transform="translate(8910.391 1551.759)">
            <path id="Path_48202" d="M9084.645 1873.641a55.635 55.635 0 1 1 94.467 0z" class="cls-2" data-name="Path 48202" transform="translate(-9076.242 -1788.602)"/>
            <path id="Path_48203" d="M9110.451 1888.429a52.144 52.144 0 1 1 88.539 0z" class="cls-3" data-name="Path 48203" transform="translate(-9099.086 -1806.059)"/>
            <path id="Path_48204" d="M9307.122 2154.516a25.533 25.533 0 1 1 43.354 0z" class="cls-2" data-name="Path 48204" transform="translate(-9273.164 -2072.146)"/>
            <path id="Path_48205" d="M9436.464 2220.476a7.872 7.872 0 1 0 7.871-7.871 7.872 7.872 0 0 0-7.871 7.871z" class="cls-4" data-name="Path 48205" transform="translate(-9388.7 -2156.384)"/>
            <path id="Path_48206" d="M9282 2070.3l-32.02-29.752-.667.667 31.516 30.38z" class="cls-5" data-name="Path 48206" transform="translate(-9226.36 -2007.143)"/>
            <path id="Rectangle_8279" d="M0 0h1v5.403H0z" class="cls-4" data-name="Rectangle 8279" transform="translate(55.135 5.89)"/>
            <path id="Rectangle_8280" d="M0 0h5.403v1.001H0z" class="cls-4" data-name="Rectangle 8280" transform="translate(8.099 44.758)"/>
            <path id="Rectangle_8281" d="M0 0h5.403v1.001H0z" class="cls-4" data-name="Rectangle 8281" transform="rotate(-.775 3437.127 -7184.191)"/>
            <path id="Path_48207" d="M9131.877 1788.6c.167 0 .334.005.5.006v85.033h-47.732a55.639 55.639 0 0 1 47.232-85.039z" class="cls-6" data-name="Path 48207" transform="translate(-9076.242 -1788.602)"/>
        </g>
        <g id="Button" transform="translate(9005.66 1605.755)">
            <path id="Path_48208" d="M9685.278 2304.677a35.53 35.53 0 1 1-35.531-35.531 35.53 35.53 0 0 1 35.531 35.531z" class="cls-7" data-name="Path 48208" transform="translate(-9612.431 -2267.36)"/>
            <circle id="Ellipse_2828" cx="30.387" cy="30.387" r="30.387" class="cls-8" data-name="Ellipse 2828" transform="rotate(-45 42.217 25.487)"/>
            <path id="Path_48209" d="M9765.481 2399.087a21.317 21.317 0 1 1-21.317-21.319 21.318 21.318 0 0 1 21.317 21.319z" class="cls-9" data-name="Path 48209" transform="translate(-9706.846 -2361.77)"/>
        </g>
        <g id="Push" transform="translate(9029.561 1650.534)">
            <path id="Path_48210" d="M9748.387 2562.025l.127 18.935s8.2 8.3 10.675 12.686a14.269 14.269 0 0 0 7.244 6.1h27.067s6.672-1.907 6.862-11.057v-31.069s-4.067-7.794-8.006 0h-2.478v-4.766s-4.767-7.434-8.959 0v4.384h-2.479v-7.687s-4.766-8.261-8.769 0v7.687H9767v-23.255s-4.194-8.959-8.387 0v45.769a9.048 9.048 0 0 1-1.939-3.812l-.729-8.98s-2.221-9.176-7.558-4.935z" class="cls-10" data-name="Path 48210" transform="translate(-9748.387 -2530.001)"/>
            <path id="Path_48211" d="M9813.316 2531.921c-.919.487-1.889 1.592-2.859 3.666v46.319l2.859-.105z" class="cls-6" data-name="Path 48211" transform="translate(-9800.227 -2531.604)"/>
            <path id="Path_48212" d="M9861.854 2562.7a11.781 11.781 0 0 0-.9 1.57v7.688h-2.67V2548.7a10.913 10.913 0 0 0-.6-1.076v25.5h4.177z" class="cls-6" data-name="Path 48212" transform="translate(-9839.664 -2544.723)"/>
            <path id="Path_48213" d="M9929.229 2644.506c-.2.283-.393.587-.587.931v4.385h-2.478v-7.687a11.159 11.159 0 0 0-.9-1.28v9.512h3.967z" class="cls-6" data-name="Path 48213" transform="translate(-9896.111 -2622.585)"/>
            <path id="Path_48214" d="M9998.7 2668.359h-2.479v-4.765a9.9 9.9 0 0 0-.771-1v6.549h4.074v-2.19a11.912 11.912 0 0 0-.824 1.406z" class="cls-6" data-name="Path 48214" transform="translate(-9954.731 -2640.741)"/>
            <path id="Path_48215" d="M9750.12 2730.444c-.19-2.382-1.71-2.668-1.712-2.668l.031 4.671h1.681z" class="cls-11" data-name="Path 48215" transform="translate(-9748.404 -2695.18)"/>
            <path id="Path_48216" d="M9822.787 2540.284a2.812 2.812 0 0 0-2.538 3.024h5.074a2.812 2.812 0 0 0-2.536-3.024z" class="cls-12" data-name="Path 48216" transform="translate(-9808.405 -2538.589)"/>
        </g>
        <g id="Line" transform="translate(8982.756 1528.723)">
            <g id="Group_7145" data-name="Group 7145" transform="translate(33.254)">
                <path id="Path_48217" d="M9908.119 1849.959l1.018-.97a54.555 54.555 0 0 0 2.319 2.587c.248.299.415.509.415.509l-1.107.866-.387-.474a39.843 39.843 0 0 0-.9-1.042 50.852 50.852 0 0 0-1.358-1.476z" class="cls-13" data-name="Path 48217" transform="translate(-9876.634 -1836.664)"/>
                <path id="Path_48218" d="M9881.791 1824.526l.909-1.071.489.417c.286.259.679.592 1.054.943a53.508 53.508 0 0 1 1.492 1.414l-.984 1s-.714-.706-1.456-1.381c-.367-.342-.749-.667-1.028-.919z" class="cls-13" data-name="Path 48218" transform="translate(-9854.646 -1815.339)"/>
                <path id="Path_48219" d="M9852.858 1802.346l.76-1.183s.22.135.543.352.751.5 1.167.809.836.6 1.139.844l.51.394-.867 1.105-.5-.381c-.295-.234-.7-.524-1.105-.819s-.821-.568-1.128-.782-.519-.339-.519-.339z" class="cls-13" data-name="Path 48219" transform="translate(-9830.48 -1796.721)"/>
                <path id="Path_48220" d="M9821.412 1784.982l.433-1.344s.062.021.167.069l.438.188.618.267c.226.1.461.221.7.335s.476.225.693.342l.6.322.415.224c.1.052.154.087.154.087l-.7 1.222s-.054-.034-.149-.085l-.395-.214-.549-.3c-.2-.107-.423-.209-.643-.319s-.437-.217-.646-.31l-.574-.249-.405-.176c-.099-.041-.157-.059-.157-.059z" class="cls-13" data-name="Path 48220" transform="translate(-9804.217 -1782.084)"/>
                <path id="Path_48221" d="M9787.253 1775.983l-.007-1.435.654.071c.395.028.908.144 1.427.231s1.023.243 1.408.332c.192.044.346.1.457.134l.172.054-.289 1.388-.161-.051c-.1-.029-.245-.085-.424-.126-.356-.083-.827-.222-1.307-.311s-.959-.192-1.324-.219z" class="cls-13" data-name="Path 48221" transform="translate(-9775.683 -1774.493)"/>
                <path id="Path_48222" d="M9750.138 1776.275l-.442-1.377.627-.194c.385-.083.9-.2 1.414-.3l.765-.1a6.625 6.625 0 0 1 .67-.068l.657-.03.151 1.431-.61.026a5.471 5.471 0 0 0-.622.062l-.712.089c-.481.086-.956.2-1.314.275z" class="cls-13" data-name="Path 48222" transform="translate(-9744.321 -1774.21)"/>
                <path id="Path_48223" d="M9717.914 1786.479l-.831-1.169.5-.429c.075-.063.154-.135.243-.206l.284-.211.62-.46.654-.41.3-.189c.1-.057.194-.1.28-.149l.584-.3.578 1.324-.542.281c-.081.044-.172.086-.262.14l-.278.176-.605.383c-.2.147-.393.293-.574.43l-.265.2c-.081.067-.155.134-.224.193z" class="cls-13" data-name="Path 48223" transform="translate(-9717.083 -1781.513)"/>
            </g>
            <g id="Group_7146" data-name="Group 7146" transform="translate(0 5.259)">
                <path id="Path_48224" d="M9693.944 1810.3l-1.133-.838s.143-.222.37-.544.525-.757.848-1.175.652-.824.9-1.132c.122-.155.235-.274.313-.359l.121-.134.939 1.071-.112.125c-.072.08-.176.191-.289.336-.228.287-.548.657-.832 1.054s-.576.79-.783 1.092-.342.504-.342.504z" class="cls-13" data-name="Path 48224" transform="translate(-9663.558 -1806.118)"/>
                <path id="Path_48225" d="M9674.564 1841.1l-1.187-.754.323-.529c.193-.318.459-.76.72-1.194l1.058-1.745 1.2.737z" class="cls-13" data-name="Path 48225" transform="translate(-9647.328 -1831.804)"/>
                <path id="Path_48226" d="M9653.543 1871.915l-.907-1.105s.174-.173.408-.455l.409-.476.441-.567c.3-.386.576-.792.791-1.09l.34-.509 1.1.88s-.146.219-.368.547-.528.755-.855 1.169l-.478.609-.443.51c-.251.302-.438.487-.438.487z" class="cls-13" data-name="Path 48226" transform="translate(-9630.004 -1857.561)"/>
                <path id="Path_48227" d="M9623.779 1897.563l-.531-1.335a3.679 3.679 0 0 0 .581-.191c.171-.064.373-.139.587-.221l.643-.321a5.577 5.577 0 0 0 .62-.362 5.983 5.983 0 0 0 .522-.346c.294-.221.488-.369.488-.369l.793 1.2-.524.4c-.153.127-.359.234-.564.369a6.177 6.177 0 0 1-.668.389l-.691.345-.631.24a4.029 4.029 0 0 1-.625.202z" class="cls-13" data-name="Path 48227" transform="translate(-9605.46 -1879.866)"/>
                <path id="Path_48228" d="M9588.2 1909.089l-.085-1.4c.287-.015.57-.042.859-.045 1.018-.022 2.036-.028 3.051-.091l.392 1.376c-1.091.081-2.188.087-3.283.117-.307-.001-.617.029-.934.043z" class="cls-13" data-name="Path 48228" transform="translate(-9576.12 -1890.833)"/>
                <path id="Path_48229" d="M9551.391 1911.237l-.283-1.377.636-.125c.382-.085.894-.151 1.405-.229l.751-.111.659-.068.641-.066.134 1.4-.621.064-.637.066-.725.106c-.492.075-.987.139-1.351.22z" class="cls-13" data-name="Path 48229" transform="translate(-9545.209 -1892.263)"/>
                <path id="Path_48230" d="M9516 1918.534l-.677-1.231.16-.091.433-.214c.179-.09.389-.192.618-.284s.47-.207.717-.3c.493-.178.987-.364 1.363-.467l.627-.189.38 1.353-.589.178c-.357.1-.814.27-1.275.436-.23.084-.449.188-.66.273s-.4.178-.562.26l-.392.193z" class="cls-13" data-name="Path 48230" transform="translate(-9515.319 -1897.689)"/>
            </g>
        </g>
        <g id="Web" transform="translate(9021.661 1539.046)">
            <path id="Path_48231" d="M9937.791 1817.4a2.592 2.592 0 0 1-2.473 2.694h-59.541a2.593 2.593 0 0 1-2.475-2.694v-47.843a2.592 2.592 0 0 1 2.475-2.695h59.541a2.591 2.591 0 0 1 2.473 2.695z" class="cls-14" data-name="Path 48231" transform="translate(-9873.303 -1766.859)"/>
            <path id="Path_48232" d="M9935.318 1766.859h-59.541a2.592 2.592 0 0 0-2.475 2.695V1780h64.488v-10.445a2.591 2.591 0 0 0-2.472-2.696z" class="cls-15" data-name="Path 48232" transform="translate(-9873.303 -1766.859)"/>
            <path id="Path_48233" d="M10131.023 1773.371a1.241 1.241 0 1 1-1.234-1.349 1.295 1.295 0 0 1 1.234 1.349z" class="cls-16" data-name="Path 48233" transform="translate(-10076.77 -1770.974)"/>
            <path id="Path_48234" d="M10151.16 1773.371a1.241 1.241 0 1 1-1.234-1.349 1.295 1.295 0 0 1 1.234 1.349z" class="cls-17" data-name="Path 48234" transform="translate(-10092.82 -1770.974)"/>
            <path id="Path_48235" d="M10172.149 1773.371a1.241 1.241 0 1 1-1.237-1.349 1.3 1.3 0 0 1 1.237 1.349z" class="cls-18" data-name="Path 48235" transform="translate(-10109.552 -1770.974)"/>
            <path id="Path_48236" d="M9948.84 1780.756a2.006 2.006 0 0 1-1.914 2.087h-37.687a2.007 2.007 0 0 1-1.912-2.087 2.006 2.006 0 0 1 1.912-2.087h37.687a2 2 0 0 1 1.914 2.087z" class="cls-19" data-name="Path 48236" transform="translate(-9900.424 -1776.273)"/>
            <path id="Rectangle_8282" d="M0 0h38.458v21.263H0z" class="cls-20" data-name="Rectangle 8282" transform="translate(3.194 15.61)"/>
            <path id="Rectangle_8283" d="M0 0h58.168v3.892H0z" class="cls-21" data-name="Rectangle 8283" transform="translate(3.194 40.767)"/>
            <path id="Rectangle_8284" d="M0 0h58.168v3.894H0z" class="cls-21" data-name="Rectangle 8284" transform="translate(3.16 46.457)"/>
            <path id="Path_48237" d="M10062.147 1766.859h-29.735v53.232h29.735a2.591 2.591 0 0 0 2.472-2.694v-47.843a2.59 2.59 0 0 0-2.472-2.695z" class="cls-22" data-name="Path 48237" transform="translate(-10000.134 -1766.859)"/>
        </g>
    </g>
</svg>
