<svg xmlns="http://www.w3.org/2000/svg" width="209.281" height="209.281" viewBox="0 0 209.281 209.281">
    <defs>
        <style>
            .cls-1{fill:#a8a8a8;opacity:.111}.cls-2{fill:#7fb5fa}.cls-3{fill:#e2e2e2}.cls-4{fill:#231f20;opacity:.1}.cls-5{fill:#ecf0f1}.cls-6{fill:#34495e}.cls-7{fill:#ff614f}.cls-8{fill:#f7d546}.cls-9{fill:#11c1a7}.cls-10{fill:#e2e1e0}.cls-11{fill:#f95a78}.cls-12{opacity:.5}.cls-13{fill:#0061fa;opacity:.06}.cls-14{fill:#8dc63f}.cls-15{fill:#efefef}
        </style>
    </defs>
    <g id="Group_7119" data-name="Group 7119" transform="translate(-7192.848 1711.319)">
        <circle id="Background_2" cx="73.992" cy="73.992" r="73.992" class="cls-1" data-name="Background 2" transform="rotate(-45 1656.992 -9485.875)"/>
        <g id="Web_Security" data-name="Web Security" transform="translate(7214.85 -1670.656)">
            <g id="Globe">
                <path id="Path_48011" d="M7439.053-1374.952a44.007 44.007 0 0 1-44.006 44.006 44.006 44.006 0 0 1-44.006-44.006 44.006 44.006 0 0 1 44.006-44.007 44.007 44.007 0 0 1 44.006 44.007z" class="cls-2" data-name="Path 48011" transform="translate(-7351.041 1418.959)"/>
                <path id="Path_48012" d="M7473.3-1319.59c-.277 0-.612-.528-.974-.862s-2.3.092-2.764.092a2 2 0 0 1-1.13-.462c-.428-.261-.891.055-1.225.129s-.482-.223-.278-.594-.687-.278-1.354-.147-.408.462-.945.278.63-.8 1.02-1.261-.074-1.242-.3-1.316-.649-.742-1.317-1.26-1.168-.13-1.965-.13a1.777 1.777 0 0 1-1.354-.63c-.371-.279-.259-.835-1.743-1.614s-.853-.352-.76-.5.241-.129-.278-.371-.945.279-1.465.483a2.612 2.612 0 0 1-1.372.092c-.223-.056-.482-.593-.742-.7a1.583 1.583 0 0 1-.649-.612.4.4 0 0 0-.686.334c.019.482-.26.76-.779.964s-.3-.575-.3-.817.464-.482.5-.853-.464.352-.945.872-.816.037-1.743.129-.482 1.058-.482 1.6-.778.723-.908.593-.13-.427-.408-.427-.353-.446-.427-.612a.993.993 0 0 0-1.372.334c-.353.667-.724.13-1.15 0s-1.261-1.8-1.075-2.1.186-.426-.019-.631-.111-.352.056-.667.612-.612-.277-1.187-2.281-.074-3.023-.149-.148-.612 0-.76a3.752 3.752 0 0 0 .594-1.113c.148-.446-.131-.482.13-1.076s.185-1-.408-1.039a1.166 1.166 0 0 0-1.187 1.261c-.038.853-.891.816-2.856.667s-1.78-1.706-2-2.967.408-2.336.444-2.967.817-1.336 1.559-1.892a2.743 2.743 0 0 1 1.8-.414 11.7 11.7 0 0 0 1.875.265c.444-.037.074-.371.111-.816s2.188-.148 2.56-.148.3.3.7.7.334-.4.741-.329.074.334.668 1.3a4.786 4.786 0 0 1 .668 2.115c.186.816.593.407.853-.26s-.3-2.819-.444-3.932.853-.7 1.816-1.743 1.966-1.113 2.411-1.854-.037-1.966.223-1.3.3-.259.333-.963.409-1 .595-.594.407.111.556-.593a4.68 4.68 0 0 1 1.076-1.78c.3-.352.89-.019 1.706 0s.037-.148-.2-.964a.838.838 0 0 1 .834-1.095 8.906 8.906 0 0 0 1.967-.908c.3-.186.686-.167 1.205.223s-.482.092-.816.667.482.649.834.13 1.132-.278 1.8-.945-.76-.427-1.075-.52-.511-.871-.482-1.122a1.76 1.76 0 0 0-.529-1.168c-.333-.278-1.2.028-1.946.334s-.973.584-.918.222 1.308-1.2 1.642-1.251a3.826 3.826 0 0 0 1.724-.946c.446-.5 1.726.084 2.31.139s1.419.39 1.725-.028.556-.417 1.168-.5.724-.973.307-1.363-1.03-1.808-1.892-2.253-.529-.724-.25-1.085-.872-1.252-1.242-2.179.036-1.149-.409-1.186-.148.667-.37 1.3-1.15.3-1.3.26a1.6 1.6 0 0 1-.632-1.26c.038-.594.187-1.113 0-1.3s-.593-.037-.815-.26-.52-.89-.854-1.187-1.074-.111-1.595-.223-1 .075-.89.408a5.026 5.026 0 0 1-.148 1.966c-.186 1.187-.556.556-.853.853s.186.371.445 1.224a1.747 1.747 0 0 1-.595 1.743 6.011 6.011 0 0 1-1.668.63c-.557.186.037.89.111 1.484a1.933 1.933 0 0 1-.778 1.557c-.3.111-1.262-1.113-1.336-1.817s.593-1.484.3-1.706a8.007 8.007 0 0 1-2.523-1.113c-1.074-.89-2.372-1.373-2.818-2.448s.446-2.039.816-2.818 1.112-.668 2.3-1.113.445-.853.741-.853 1.262-.148 1.484-.446a4.137 4.137 0 0 1 1.223-.853c.483-.26.595-.779.779-1.076s.706.408 1.3.334.557.111 1.372-.26.11-.593.037-1 .52-.3.335-.742a1.741 1.741 0 0 0-1.541-.816c-.537.074.168.593-.39 1.113s-.444.853-.63.927-1-.186-1-.445.371-.482.519-.593-.11-.667-.185-.853-.408.223-.483.593-.481.408-.37.074-.3-.742-.593-1.15.3-.37.63-.89.222-.742-.223-1-.964.148-1.483.705-.334.519-.148 1.223 0 0 .112.668-.854.593-.854.593a3.415 3.415 0 0 1-.668-.111c-.185-.074 0-.334-.407-.482s-.595.519-.595.519-1.111-.037-1.558-.037a1.86 1.86 0 0 1-1.187-.408 1.684 1.684 0 0 0-1.149-.556c-.482 0-.668.408-.668.89s-.816.519-.778.3a5.373 5.373 0 0 0-.111-1l-.445.26s-1.224-.074-1.633-.112-.259-.557-.259-.557l.816-.074.111-.185a1.413 1.413 0 0 0-.446-.3c-.223-.074-1.187-.26-1.187-.26l-.3-.408h-.631c-.186 0-.482.371-.631.371s-.148-.407-.148-.407l.074-.334-.37.186c-.371.186-.52.037-.52.037l.148-.371.037-.407s-.224-.26-.224-.074a.769.769 0 0 1-.7.556c-.334-.037-.557.3-1.038.186a2.784 2.784 0 0 0-1.929.667c-.52.446-.854.594-.742.074s-1.446-.445-1.706-.556a8.243 8.243 0 0 0-1.558-.26.9.9 0 0 1-.779-.593l-.257-.916a44.126 44.126 0 0 0-8.918 6.424 8.34 8.34 0 0 0 .83 1.353.461.461 0 0 0 .52 0 30.377 30.377 0 0 0-2.708 2.178c-1.668 1.473-1.112 1.643-1.112 2.2s.334.333.334.333-1.3 1.336-1.67 1.706-1.038.89-1.038.89l-.667.817.3.111 4.033-3.385s.251-.056.277-.195a1.729 1.729 0 0 1 .335-.64 3.765 3.765 0 0 0 .444-.612 2.341 2.341 0 0 0 .557-.389c.307-.278.611-.7.862-.723s0 .361-.444.723a6.653 6.653 0 0 0-.975 1.141s1.475-.779 1.976-1.113.333-.835.527-.862.641.389.779.807.306-.084 1.058 0 .25.667.527 1.057.279.5 1 .334-.278 1.557-.278 1.557l-.055.556a3.085 3.085 0 0 1 .277.446c0 .055-.334 1.057-.334 1.057h.558a2.227 2.227 0 0 1-.5.445c-.278.167.055.611.333.834s0 0-.39.89 0 .612.446 1.224a16.01 16.01 0 0 0 1.057 1.28c.333.389 0 1.28-.334 1.336s-1.058-.5-1.058-.5c.057 8.345-.5 2.782-.778 3.5s-.667 1.113-.667 1.558a2.748 2.748 0 0 1-.446 1.724c-.444.612-.055 2 0 2.17s.409.889.409.889v2.282c0 .741 1.335 1.112 1.78 1.743a4.406 4.406 0 0 1 .37 2.058 2.407 2.407 0 0 0 .575.945c.259.241.278.649.481 1.021s-.314.241-.371.723.464.5.743.612a.572.572 0 0 1 .407.8c-.148.519-.074.334.2.63s.148.111.3.668.52.315.52.315v.333c0 .093.333.186.333.186l.223-.334s-.166-.073-.166-.129-.037-.333-.037-.333l-.5-.2a2.41 2.41 0 0 1-.074-.389v-.501c0-.074-.186-.13-.186-.13s-.02-.5-.02-.8-.481-.575-.5-.705a2.076 2.076 0 0 0-.241-.834 2.749 2.749 0 0 1-.611-1.5c.019-.63-.148-1.039.092-1.039s.65.612.761.724a4.853 4.853 0 0 0 .482 1.539 16.589 16.589 0 0 1 1.553 2.207c-.111.112-.417.07-.25.486a1.121 1.121 0 0 0 .876.6c.306.083.807 1.78 1.141 2.336s-.083.557-.168.918.028.557.585.807.445.862 1.086 1.057 1.891 1.011 2.224 1.086.3.37.743.411a1.18 1.18 0 0 1 .741.33c.223.148 1-.148 1.15-.26s.3-.074.7 0 1.595 1.336 1.966 1.706.668-.149.964 0 .854.482 1.075.446.223-.223.371-.223.038.3.594 1 .445.853.445.964.26.667.63.593.742.313.742.313v.614s1.261.074 1.519.149.3.63.41.7.557-.445.482-.741.481-.445.7-.667.52.259.706.482a2.383 2.383 0 0 1 .593 1.224c0 .445-.037 1.113-.037 1.817s-.556 1.039-.964 1.52-.779.7-.965.927a2.169 2.169 0 0 0-.26 1.336c.074.408.593.037.593.519s-.481.223-1.037.668.073.482.259.853-.259.074-.259.519.667.371 1.3.556 1.3 1.818 1.67 2.67.741 1.6 1.112 1.744.408.482 1.187.667 1.391.8 1.828.8.425.75.286 1.057-.027.389.084 1.5a16.2 16.2 0 0 1-.37 3.895c-.118.278-.085.223.119.427s-.333 1.094-.353 1.372-.538.446-.645.706.255.259.329.5-.148.834.075 1.057.426.149.483.5a.586.586 0 0 1-.576.686c-.371 0-.371.389-.205.261a.378.378 0 0 1 .39 0l.3.523a45.051 45.051 0 0 0 2.7-.363c.191-.221.356-.4.49-.42.444-.074.223-.52-.037-1.446s.63-.149 1.186-.371.371-.965 1.15-1.076a3.312 3.312 0 0 0 1.966-1.334c.334-.52-.148-.78 1.076-.631s2.336-1.41 3.3-2.559.111-1.521 1.818-2.6 4.469-4 4.635-4.915-.306-.945.668-1.586a7.8 7.8 0 0 0 2.309-2.92c.111-.49-.167-1.242-.45-1.242z" class="cls-3" data-name="Path 48012" transform="translate(-7403.958 1385.901)"/>
                <path id="Path_48013" d="M7774.41-1392.363c-1.41 0-1.707 1.409-.445 1.632s3.857.223 4.3 2.077-1.335 2.373 0 3.264-.3 1.854-.3 3.116a3.652 3.652 0 0 0 1.483 2.967c.89.667 1.78 1.558 1.854 2.076s.964.371.964.371a1.992 1.992 0 0 1 0-.742c.074-.445.816-.964.816-2.226s.662-1.187 1.184-1.113 1.562-.074 1.857 0 2.077.074 2.226-.816-1.187-2.225-1.187-2.225a5.541 5.541 0 0 0 .742-1.808 3.249 3.249 0 0 0-.208-.743 44.029 44.029 0 0 0-12.154-7.681c.004.699-.15 1.851-1.132 1.851z" class="cls-3" data-name="Path 48013" transform="translate(-7714.456 1397.655)"/>
                <path id="Path_48014" d="M7921.493-1131.962c-2.559-2.114-4.228-2.114-4.45-1.558s1.78 2.56 0 5.007-3.116 3.449-2.447 5.452-2.8 3.783-.175 5.563 2.066 1.78 3.957 1.669c1.859-.11 1.616 2.831 1.479 3.235a43.857 43.857 0 0 0 3.361-16.889c0-.184-.006-.366-.007-.548a7.4 7.4 0 0 0-1.718-1.931z" class="cls-3" data-name="Path 48014" transform="translate(-7835.207 1173.49)"/>
                <path id="Path_48015" d="M7696.718-1327.032a44.008 44.008 0 0 0 39.934-43.817 44.017 44.017 0 0 0-36.368-43.344c25.516 10.266 38.203 72.576-3.566 87.161z" class="cls-4" data-name="Path 48015" transform="translate(-7648.64 1414.856)"/>
            </g>
            <g id="Web" transform="translate(41.779 21.669)">
                <path id="Path_48016" d="M7756.62-1180.721a4.226 4.226 0 0 1-4.032 4.4h-97.123a4.226 4.226 0 0 1-4.032-4.4v-78.04a4.226 4.226 0 0 1 4.032-4.4h97.123a4.226 4.226 0 0 1 4.032 4.4z" class="cls-5" data-name="Path 48016" transform="translate(-7651.433 1263.158)"/>
                <path id="Path_48017" d="M7752.588-1263.158h-97.123a4.226 4.226 0 0 0-4.032 4.4v17.037h105.187v-17.037a4.226 4.226 0 0 0-4.032-4.4z" class="cls-6" data-name="Path 48017" transform="translate(-7651.433 1263.158)"/>
                <path id="Path_48018" d="M8262.756-1248.662a2.113 2.113 0 0 1-2.016 2.2 2.114 2.114 0 0 1-2.018-2.2 2.114 2.114 0 0 1 2.018-2.2 2.113 2.113 0 0 1 2.016 2.2z" class="cls-7" data-name="Path 48018" transform="translate(-8174.259 1252.571)"/>
                <path id="Path_48019" d="M8310.684-1248.662a2.113 2.113 0 0 1-2.017 2.2 2.113 2.113 0 0 1-2.015-2.2 2.113 2.113 0 0 1 2.015-2.2 2.113 2.113 0 0 1 2.017 2.2z" class="cls-8" data-name="Path 48019" transform="translate(-8215.522 1252.571)"/>
                <path id="Path_48020" d="M8360.621-1248.662a2.113 2.113 0 0 1-2.017 2.2 2.113 2.113 0 0 1-2.017-2.2 2.113 2.113 0 0 1 2.017-2.2 2.113 2.113 0 0 1 2.017 2.2z" class="cls-9" data-name="Path 48020" transform="translate(-8258.513 1252.571)"/>
                <path id="Path_48021" d="M7800.092-1231.649a3.272 3.272 0 0 1-3.122 3.4h-61.47a3.272 3.272 0 0 1-3.122-3.4 3.272 3.272 0 0 1 3.122-3.4h61.473a3.272 3.272 0 0 1 3.122 3.4z" class="cls-10" data-name="Path 48021" transform="translate(-7721.118 1238.962)"/>
                <path id="Rectangle_8269" d="M0 0h62.733v34.684H0z" class="cls-11" data-name="Rectangle 8269" transform="translate(5.208 25.464)"/>
                <path id="Rectangle_8270" d="M0 0h94.884v6.35H0z" class="cls-12" data-name="Rectangle 8270" transform="translate(5.208 66.499)"/>
                <path id="Rectangle_8271" d="M0 0h94.882v6.351H0z" class="cls-12" data-name="Rectangle 8271" transform="translate(5.153 75.781)"/>
                <path id="Path_48022" d="M8078.491-1263.158h-48.5v86.834h48.5a4.226 4.226 0 0 0 4.032-4.4v-78.04a4.226 4.226 0 0 0-4.032-4.394z" class="cls-13" data-name="Path 48022" transform="translate(-7977.335 1263.158)"/>
            </g>
            <g id="Security" transform="translate(100.343 51.63)">
                <path id="Path_48023" d="M8105.066-1047.742l-32.567 14.065v34.882s1.922 24.29 32.567 37.776c30.645-13.486 32.566-37.776 32.566-37.776v-34.882z" class="cls-8" data-name="Path 48023" transform="translate(-8072.499 1047.742)"/>
                <path id="Path_48024" d="M8146.256-984.031l-25.912 11.191v27.753s1.529 19.327 25.912 30.057c24.383-10.73 25.912-30.057 25.912-30.057v-27.753z" class="cls-6" data-name="Path 48024" transform="translate(-8113.69 992.892)"/>
                <path id="Path_48025" d="M8339.219-998.795v-34.882l-32.566-14.065v86.723c30.647-13.486 32.566-37.776 32.566-37.776z" class="cls-4" data-name="Path 48025" transform="translate(-8274.086 1047.742)"/>
                <path id="Path_48026" d="M8204.38-815l24.432-20.9-3.671-4.291-20.246 17.317-8.41-9.464-4.221 3.751 12.061 13.57.029.035z" class="cls-14" data-name="Path 48026" transform="translate(-8175.606 869.054)"/>
            </g>
            <g id="Line" transform="translate(25.877 1.885)">
                <g id="Group_7111" data-name="Group 7111" transform="translate(32.507)">
                    <g id="Group_7109" data-name="Group 7109">
                        <path id="Path_48027" d="M7774.376-1359.833l-.571-1.04s-.759.415-1.5.859c-.373.222-.742.45-1.019.626l-.333.216-.131.088.672.978.431-.282c.265-.169.624-.39.986-.607.722-.433 1.465-.838 1.465-.838z" class="cls-15" data-name="Path 48027" transform="translate(-7770.818 1367.067)"/>
                        <path id="Path_48028" d="M7806.657-1376.087l-.473-1.088s-.8.342-1.577.713-1.554.761-1.554.761l.539 1.057s.755-.384 1.521-.745 1.544-.698 1.544-.698z" class="cls-15" data-name="Path 48028" transform="translate(-7798.57 1381.102)"/>
                        <path id="Path_48029" d="M7840.419-1389.171l-.364-1.129-.516.168c-.309.1-.716.248-1.125.391-.813.3-1.618.616-1.618.616l.439 1.1s.787-.313 1.582-.6c.4-.14.8-.283 1.1-.382z" class="cls-15" data-name="Path 48029" transform="translate(-7827.62 1392.401)"/>
                        <path id="Path_48030" d="M7875.493-1398.616l-.237-1.163-.53.109c-.318.069-.739.17-1.163.268s-.84.213-1.153.3l-.521.147.326 1.14.508-.143c.3-.084.716-.186 1.124-.292l1.131-.26z" class="cls-15" data-name="Path 48030" transform="translate(-7857.831 1400.562)"/>
                        <path id="Path_48031" d="M7911.658-1403.648l-.08-1.184s-.218.009-.542.042-.759.06-1.19.118-.863.1-1.185.156l-.537.082.188 1.171.521-.079c.312-.052.729-.1 1.148-.15s.838-.083 1.151-.114.526-.042.526-.042z" class="cls-15" data-name="Path 48031" transform="translate(-7889.027 1404.912)"/>
                        <path id="Path_48032" d="M7948.583-1404.093l.108-1.181s-.869-.084-1.741-.112c-.436-.021-.872-.014-1.2-.021h-.55l.022 1.186h.144c.092 0 .224-.007.381 0 .314.007.735 0 1.154.02.847.028 1.682.108 1.682.108z" class="cls-15" data-name="Path 48032" transform="translate(-7920.953 1405.408)"/>
                        <path id="Path_48033" d="M7984.456-1401.116l.321-1.142-.529-.138-.542-.141c-.2-.05-.414-.089-.627-.136l-.628-.133-.552-.093-.539-.09-.176 1.173.516.087.528.089.6.128c.205.045.41.083.6.131l.519.134z" class="cls-15" data-name="Path 48033" transform="translate(-7951.926 1403.325)"/>
                    </g>
                    <g id="Group_7110" data-name="Group 7110" transform="translate(34.09 1.59)">
                        <path id="Path_48034" d="M8019-1391.551l.537-1.058s-.047-.027-.135-.069l-.358-.17c-.3-.135-.686-.339-1.095-.5s-.8-.345-1.116-.448l-.514-.185-.395 1.119.492.177c.3.1.679.274 1.067.428s.76.349 1.046.476l.342.162c.083.041.129.068.129.068z" class="cls-15" data-name="Path 48034" transform="translate(-8015.924 1393.979)"/>
                        <path id="Path_48035" d="M8051.111-1375.281l.725-.939-.438-.325c-.264-.195-.609-.461-.979-.7s-.721-.495-1.009-.655l-.469-.281-.6 1.021.448.269c.273.153.614.4.965.626s.685.482.938.668z" class="cls-15" data-name="Path 48035" transform="translate(-8043.831 1380.376)"/>
                        <path id="Path_48036" d="M8079.783-1353.064l.872-.8s-.146-.161-.368-.4-.539-.54-.847-.847-.635-.6-.876-.82l-.405-.365-.777.895.388.353c.232.213.552.484.843.787s.6.59.816.818z" class="cls-15" data-name="Path 48036" transform="translate(-8068.834 1361.543)"/>
                        <path id="Path_48037" d="M8104.515-1326.163l.974-.677s-.125-.177-.311-.445-.446-.615-.711-.96-.52-.7-.735-.942l-.349-.417-.909.762.337.4c.209.237.454.58.713.913s.514.667.689.931z" class="cls-15" data-name="Path 48037" transform="translate(-8090.436 1338.557)"/>
                        <path id="Path_48038" d="M8125.432-1296.011l1.044-.563-.254-.477c-.15-.288-.38-.657-.595-1.033s-.431-.752-.612-1.022l-.292-.457-1 .638.285.444c.176.264.38.634.6 1s.433.725.579 1.007.245.463.245.463z" class="cls-15" data-name="Path 48038" transform="translate(-8108.73 1312.695)"/>
                        <path id="Path_48039" d="M8142.935-1263.649l1.091-.466-.7-1.579c-.174-.4-.375-.78-.514-1.072s-.237-.486-.237-.486l-1.062.53.231.475c.137.287.334.662.5 1.05l.691 1.548z" class="cls-15" data-name="Path 48039" transform="translate(-8124.043 1284.879)"/>
                        <path id="Path_48040" d="M8157.445-1229.822l1.121-.386-.171-.511c-.105-.305-.261-.709-.408-1.114l-.413-1.113-.2-.5-1.1.437.2.492c.11.3.258.7.406 1.095s.3.8.4 1.1z" class="cls-15" data-name="Path 48040" transform="translate(-8136.75 1255.772)"/>
                    </g>
                </g>
                <g id="Group_7114" data-name="Group 7114" transform="translate(101.267 29.929)">
                    <g id="Group_7112" data-name="Group 7112">
                        <path id="Path_48041" d="M8268.512-1188.456l.252-1.16s-.846-.184-1.7-.337a40.167 40.167 0 0 0-1.18-.195l-.395-.055-.156-.019-.133 1.178.51.07c.311.045.729.114 1.145.189a52.12 52.12 0 0 1 1.657.329z" class="cls-15" data-name="Path 48041" transform="translate(-8265.201 1190.222)"/>
                        <path id="Path_48042" d="M8303.878-1181.043l.355-1.132s-.823-.263-1.658-.494-1.672-.444-1.672-.444l-.286 1.151s.822.2 1.637.435 1.624.484 1.624.484z" class="cls-15" data-name="Path 48042" transform="translate(-8295.691 1184.102)"/>
                        <path id="Path_48043" d="M8338.521-1170.2l.464-1.092-.5-.209c-.3-.126-.7-.283-1.105-.443-.809-.31-1.626-.6-1.626-.6l-.391 1.12s.8.28 1.591.582c.393.158.786.31 1.078.433z" class="cls-15" data-name="Path 48043" transform="translate(-8325.604 1174.999)"/>
                        <path id="Path_48044" d="M8371.935-1155.977l.585-1.033-.475-.266c-.284-.156-.67-.356-1.053-.559s-.773-.389-1.067-.53l-.491-.23-.5 1.075.479.225c.285.136.661.329 1.04.516l1.024.544z" class="cls-15" data-name="Path 48044" transform="translate(-8354.505 1162.994)"/>
                        <path id="Path_48045" d="M8403.519-1138.078l.716-.946s-.17-.137-.437-.325-.612-.452-.977-.69-.718-.489-1-.659l-.459-.292-.625 1.009.444.282c.27.165.619.4.966.638s.688.486.945.668.427.315.427.315z" class="cls-15" data-name="Path 48045" transform="translate(-8381.89 1147.837)"/>
                        <path id="Path_48046" d="M8432.434-1116.021l.856-.82s-.6-.634-1.241-1.226c-.315-.3-.649-.582-.892-.8-.121-.11-.227-.2-.3-.256l-.115-.1-.761.909.111.092c.07.058.174.141.29.247.233.211.555.482.858.771a33.172 33.172 0 0 1 1.194 1.183z" class="cls-15" data-name="Path 48046" transform="translate(-8407.063 1129.095)"/>
                        <path id="Path_48047" d="M8457.558-1089.584l.992-.652-.311-.45c-.092-.135-.2-.293-.317-.461s-.254-.34-.384-.515l-.387-.512-.355-.433-.348-.421-.9.771.333.4.341.414.371.491c.124.168.255.332.367.493s.214.313.3.441z" class="cls-15" data-name="Path 48047" transform="translate(-8429.072 1106.546)"/>
                    </g>
                    <g id="Group_7113" data-name="Group 7113" transform="translate(28.69 17.774)">
                        <path id="Path_48048" d="M8477.6-1058.838l1.1-.446s-.019-.053-.057-.141l-.16-.363c-.138-.3-.295-.706-.5-1.094s-.38-.789-.55-1.07l-.267-.477-1.03.587.255.456c.162.269.333.651.524 1.023s.347.76.479 1.045l.152.347c.036.084.054.133.054.133z" class="cls-15" data-name="Path 48048" transform="translate(-8475.485 1062.429)"/>
                        <path id="Path_48049" d="M8491.578-1024.659l1.164-.234-.119-.533c-.072-.32-.156-.748-.282-1.168s-.22-.846-.331-1.156-.17-.52-.17-.52l-1.125.377.163.5c.107.3.2.7.316 1.106s.2.813.271 1.119.113.509.113.509z" class="cls-15" data-name="Path 48049" transform="translate(-8488.04 1033.02)"/>
                        <path id="Path_48050" d="M8499.185-988.371l1.186-.038-.015-.544c-.015-.326-.054-.761-.084-1.2s-.089-.868-.125-1.193-.066-.541-.066-.541l-1.175.166.064.521c.039.313.1.728.12 1.147s.066.838.08 1.152.015.53.015.53z" class="cls-15" data-name="Path 48050" transform="translate(-8495.091 1001.694)"/>
                        <path id="Path_48051" d="M8499.439-951.438l1.181.127s.021-.216.056-.54.066-.757.093-1.191.063-.867.063-1.194.01-.543.01-.543l-1.186-.021s0 .21-.011.526-.037.735-.061 1.156-.048.841-.089 1.155-.056.525-.056.525z" class="cls-15" data-name="Path 48051" transform="translate(-8495.551 969.768)"/>
                        <path id="Path_48052" d="M8493.469-915.539l1.157.259.12-.528c.076-.315.145-.744.229-1.169s.169-.85.209-1.174.079-.537.079-.537l-1.174-.174-.077.522c-.046.313-.128.728-.2 1.144s-.147.832-.223 1.141z" class="cls-15" data-name="Path 48052" transform="translate(-8490.411 938.829)"/>
                        <path id="Path_48053" d="M8483.944-880.13l1.128.362s.253-.827.5-1.653c.129-.413.227-.835.314-1.147s.14-.523.14-.523l-1.149-.3-.137.512c-.083.312-.182.718-.308 1.123a331.32 331.32 0 0 1-.488 1.626z" class="cls-15" data-name="Path 48053" transform="translate(-8482.212 908.288)"/>
                        <path id="Path_48054" d="M8471.483-845.5l1.1.445.205-.5c.12-.3.27-.705.422-1.109l.419-1.11c.1-.307.173-.511.173-.511l-1.118-.392-.171.5c-.102.3-.263.7-.411 1.093s-.3.795-.415 1.09z" class="cls-15" data-name="Path 48054" transform="translate(-8471.483 878.408)"/>
                    </g>
                </g>
                <g id="Group_7118" data-name="Group 7118" transform="translate(0 51.309)">
                    <g id="Group_7115" data-name="Group 7115" transform="translate(51.985 43.496)">
                        <path id="Path_48055" d="M8147.213-722.62l.454 1.515s.9-.269 1.806-.561c.45-.145.9-.3 1.237-.413l.568-.2-.554-1.481-.534.19c-.326.113-.765.261-1.206.4-.884.284-1.771.55-1.771.55z" class="cls-15" data-name="Path 48055" transform="translate(-8114.341 723.764)"/>
                        <path id="Path_48056" d="M8108.77-710.989l.369 1.538.574-.138 1.258-.318c.913-.236 1.822-.49 1.822-.49l-.424-1.524s-.9.249-1.795.483l-1.24.313z" class="cls-15" data-name="Path 48056" transform="translate(-8081.244 713.568)"/>
                        <path id="Path_48057" d="M8069.823-701.523l.291 1.555.579-.109 1.272-.253c.463-.091.923-.2 1.27-.268l.576-.126-.344-1.544-.567.124c-.341.071-.795.175-1.251.264l-1.255.25z" class="cls-15" data-name="Path 48057" transform="translate(-8047.715 705.257)"/>
                        <path id="Path_48058" d="M8030.507-694.059l.209 1.567 1.868-.266 1.281-.2.581-.1-.264-1.559-.573.1-1.263.2z" class="cls-15" data-name="Path 48058" transform="translate(-8013.867 698.671)"/>
                        <path id="Path_48059" d="M7990.924-688.661l.119 1.578.589-.045 1.294-.116c.47-.039.938-.1 1.291-.133l.587-.062-.181-1.572-.577.062c-.346.034-.808.092-1.271.13l-1.271.114z" class="cls-15" data-name="Path 48059" transform="translate(-7979.789 693.845)"/>
                        <path id="Path_48060" d="M7951.2-685.5l.021 1.581.591-.005 1.3-.04c.472-.01.944-.037 1.3-.055l.589-.03-.087-1.579-.58.03c-.348.017-.812.043-1.275.054l-1.275.038z" class="cls-15" data-name="Path 48060" transform="translate(-7945.593 690.936)"/>
                        <path id="Path_48061" d="M7910.954-685.528l-.089 1.579s.236.018.59.033l1.3.049c.474.023.946.025 1.3.03l.592.008.014-1.581-.58-.008c-.348-.005-.811-.007-1.274-.03l-1.274-.047a23.344 23.344 0 0 1-.579-.033z" class="cls-15" data-name="Path 48061" transform="translate(-7910.865 690.846)"/>
                    </g>
                    <g id="Group_7116" data-name="Group 7116" transform="translate(16.194 34.518)">
                        <path id="Path_48062" d="M7870.7-689.246l-.211 1.567s.235.037.588.075l1.293.151c.471.059.943.089 1.3.124l.589.053.127-1.576-.575-.052c-.347-.034-.809-.063-1.269-.12l-1.265-.149c-.351-.037-.577-.073-.577-.073z" class="cls-15" data-name="Path 48062" transform="translate(-7840.311 703.025)"/>
                        <path id="Path_48063" d="M7830.867-696.205l-.347 1.543 1.856.39 1.867.331.254-1.561-1.821-.323z" class="cls-15" data-name="Path 48063" transform="translate(-7805.903 709.016)"/>
                        <path id="Path_48064" d="M7791.844-706.778l-.5 1.5.565.182c.34.107.789.263 1.248.386l1.257.355c.171.05.313.09.414.112l.16.039.394-1.531-.153-.038c-.1-.022-.237-.062-.4-.109l-1.223-.346c-.446-.119-.882-.271-1.213-.375z" class="cls-15" data-name="Path 48064" transform="translate(-7772.179 718.118)"/>
                        <path id="Path_48065" d="M7754.106-721.192l-.657 1.439.54.248c.321.157.766.326 1.2.509s.877.369 1.213.489l.559.2.549-1.483-.542-.2c-.326-.117-.748-.3-1.175-.474s-.857-.342-1.167-.494z" class="cls-15" data-name="Path 48065" transform="translate(-7739.552 730.528)"/>
                        <path id="Path_48066" d="M7718.228-739.584l-.82 1.352.139.087c.087.058.217.13.372.218l1.138.647c.411.244.838.453 1.155.617l.529.271.711-1.412-.513-.263c-.307-.158-.721-.361-1.116-.6l-1.1-.626a7.134 7.134 0 0 1-.36-.211z" class="cls-15" data-name="Path 48066" transform="translate(-7708.523 746.362)"/>
                        <path id="Path_48067" d="M7684.891-762.058l-.979 1.241.472.363c.286.214.655.517 1.046.789l1.563 1.088.873-1.318-1.51-1.051c-.377-.263-.732-.557-1.009-.762s-.456-.35-.456-.35z" class="cls-15" data-name="Path 48067" transform="translate(-7679.686 765.71)"/>
                        <path id="Path_48068" d="M7654.651-788.314l-1.124 1.113.414.427c.256.249.607.57.954.9l.511.478.235.219.22.187.453.385 1.03-1.2-.439-.371c-.064-.056-.137-.116-.212-.18l-.228-.213-.493-.462c-.335-.315-.674-.626-.922-.866z" class="cls-15" data-name="Path 48068" transform="translate(-7653.527 788.314)"/>
                    </g>
                    <g id="Group_7117" data-name="Group 7117">
                        <path id="Path_48069" d="M7627.881-817.937l-1.248.972.37.465c.227.277.511.659.823 1.018l1.257 1.432 1.167-1.068-1.215-1.384c-.3-.348-.578-.717-.8-.985s-.354-.45-.354-.45z" class="cls-15" data-name="Path 48069" transform="translate(-7614.18 848.335)"/>
                        <path id="Path_48070" d="M7604.718-850.326l-1.347.829s.519.8 1.035 1.6c.131.2.255.4.384.583l.355.494.348.484 1.282-.925-.336-.468-.345-.479c-.125-.176-.245-.374-.373-.566-.5-.779-1.003-1.552-1.003-1.552z" class="cls-15" data-name="Path 48070" transform="translate(-7594.153 876.219)"/>
                        <path id="Path_48071" d="M7585.3-885.021l-1.422.692.068.148c.043.095.105.23.189.386l.605 1.157c.219.42.435.844.61 1.154s.3.513.3.513l1.373-.784-.29-.5c-.175-.3-.378-.714-.594-1.122l-.589-1.125c-.083-.152-.142-.284-.185-.376z" class="cls-15" data-name="Path 48071" transform="translate(-7577.372 906.089)"/>
                        <path id="Path_48072" d="M7569.263-921.381l-1.478.564.057.153c.037.097.081.238.15.4.138.329.318.767.5 1.2s.363.876.5 1.2c.066.166.136.3.177.392l.07.148 1.442-.648-.068-.144c-.044-.092-.108-.221-.173-.382l-.486-1.174-.487-1.175c-.069-.159-.112-.3-.148-.392z" class="cls-15" data-name="Path 48072" transform="translate(-7563.517 937.392)"/>
                        <path id="Path_48073" d="M7556.308-958.959l-1.517.449s.017.056.043.157.077.239.13.408c.109.338.253.789.4 1.24s.288.9.4 1.24.2.556.2.556l1.491-.525-.2-.543c-.12-.326-.248-.772-.389-1.213l-.388-1.213c-.053-.166-.1-.3-.129-.4s-.041-.156-.041-.156z" class="cls-15" data-name="Path 48073" transform="translate(-7552.331 969.743)"/>
                        <path id="Path_48074" d="M7546.236-997.436l-1.543.345.435 1.84.16.676c.052.216.112.414.158.585.095.341.157.57.157.57l1.526-.414-.154-.559c-.046-.168-.1-.362-.156-.573s-.1-.437-.156-.664l-.427-1.806z" class="cls-15" data-name="Path 48074" transform="translate(-7543.637 1002.869)"/>
                        <path id="Path_48075" d="M7538.657-1036.5l-1.561.254.094.582c.057.349.124.817.216 1.28l.366 1.853 1.551-.315-.361-1.822c-.09-.456-.153-.916-.212-1.26z" class="cls-15" data-name="Path 48075" transform="translate(-7537.096 1036.498)"/>
                    </g>
                </g>
            </g>
        </g>
    </g>
</svg>
