<svg width="575" height="574" fill="none" xmlns="http://www.w3.org/2000/svg"><circle opacity=".34" cx="287.686" cy="287" r="286.851" fill="#E3E9F5"/><circle cx="287.686" cy="287" r="234.501" fill="#E3E9F5"/><ellipse cx="285.686" cy="289.389" rx="210.5" ry="211" fill="#B5C2DF"/><mask id="b" style="mask-type:alpha" maskUnits="userSpaceOnUse" x="76" y="77" width="423" height="424"><ellipse cx="287.63" cy="289.193" rx="210.677" ry="211.237" fill="url(#a)"/></mask><g mask="url(#b)"><path d="M314.2 216.158c-.705 120.852-98.24 218.646-218.772 219.353 37.205 47.17 98.119 68.724 156.61 55.422 58.493-13.304 104.168-59.101 117.437-117.749 13.267-58.646-8.231-119.722-55.275-157.026z" fill="#CAD4EB"/><path d="M314.2 216.157c-61.976-49.236-150.919-44.087-206.831 11.974-55.912 56.06-61.047 145.239-11.942 207.38 120.533-.708 218.067-98.501 218.773-219.354z" fill="#CAD4EB"/><path d="M292.75 247.04c-11.871 5.386-18.423-.968-26.858 5.386-10.421 7.863-14.609 28.224-5.372 43.088 6.539 10.472 18.264 13.099 31.501 15.997a220.34 220.34 0 0 0 22.025-88.255 44.322 44.322 0 0 1-21.296 23.784z" fill="#92A9CB"/><path d="M315.897 217.493a41.864 41.864 0 0 1-1.875 5.763A220.353 220.353 0 0 1 292 311.511l.75.16c18.426 4.04 25.571-4.523 42.974 0a65.5 65.5 0 0 1 21.486 10.772 50.1 50.1 0 0 1 15.874 23.64c.118-2.483.241-4.965.241-7.482.042-46.985-21.059-91.48-57.428-121.108zM212.175 403.232c10.636 11.795 13.429 31.724 5.372 43.088-6.552 9.265-15.523 6.085-21.487 16.158a28.484 28.484 0 0 0 0 26.929 24.11 24.11 0 0 0 2.951 4.25c6.15.744 12.34 1.123 18.536 1.136 56.806.016 109.112-30.985 136.49-80.891-9.771-6.554-25.033-15.225-39.8-16.056a65.832 65.832 0 0 0-42.974 10.772c-15.844 11.635-18.96 28.116-26.858 26.93-5.587-.807-8.648-9.857-10.743-16.158-4.798-14.348-2.196-24.058-2.24-32.105a219.514 219.514 0 0 1-20.53 14.616c.554.545 1.01 1.026 1.283 1.331z" fill="#879EC1"/><path d="M228.29 376.303c-5.531-7.756-15.844-9.21-26.858-10.772-23.097-3.232-32.175 6.732-42.973 0-8.8-5.875-13.075-16.587-10.744-26.93 4.514-13.517 24.228-8.939 48.345-26.93 7.79-5.762 26.321-19.603 26.859-37.701.537-17.72-16.705-22.783-21.487-43.088-2.077-8.747 1.799-28.863 11.625-48.311-57.827 1.639-109.981 35.283-135.441 87.364v.05a159.108 159.108 0 0 0 .267 57.844c3.28 21.707 6.285 41.418 21.487 59.246 6.662 7.863 16.921 19.821 32.23 21.543 16.976 1.886 39.375-8.994 42.974-10.772a33.075 33.075 0 0 1 16.115-5.386 30.586 30.586 0 0 1 20.204 9.442 219.695 219.695 0 0 0 20.529-14.617 17.916 17.916 0 0 0-3.132-10.982z" fill="#92A9CB"/></g><path fill-rule="evenodd" clip-rule="evenodd" d="M413.341 408.909c-.459.127-.915.276-1.368.45-.474 3.61-2.757 6.879-6.296 8.409a10.38 10.38 0 0 1-2.552.735 15.93 15.93 0 0 0-.199 10.186 15.025 15.025 0 0 0 2.137-.739c7.313-3.162 10.875-11.531 8.278-19.041z" fill="#C8CCDC"/><path d="M419.186 379.389c-2.788 0-5-2.04-5-4.5 0-2.874 2.947-4.96 5.98-4.412 2.409.448 4.02 2.316 4.02 4.412 0 2.487-2.239 4.5-5 4.5zM460.686 365.389c-2.509 0-4.5-2.04-4.5-4.5 0-2.874 2.653-4.96 5.382-4.412a4.5 4.5 0 0 1-.882 8.912z" fill="#E3E9F5"/><path d="M366.686 105.389c-5.825 0-10.5-4.74-10.5-10.5 0-6.505 5.974-11.617 12.558-10.288 4.724.898 8.442 5.164 8.442 10.288 0 5.799-4.701 10.5-10.5 10.5z" fill="#fff"/><path d="M298.159 116.975c-4.461 0-8-3.621-8-7.996 0-5.146 4.772-8.837 9.558-7.841 3.72.698 6.442 4.081 6.442 7.841-.003 4.391-3.575 7.996-8 7.996z" fill="#ECF0F8"/><path d="M321.86 158.111c-8.353-3.283-13.377-11.99-12.048-20.879a1.683 1.683 0 0 0-1.219-1.884 1.678 1.678 0 0 0-1.993 1.019c-3.269 8.37-11.951 13.394-20.823 12.055a1.671 1.671 0 0 0-1.875 1.219l-.001.002a1.68 1.68 0 0 0 1.02 1.997c8.353 3.283 13.379 11.992 12.05 20.881a1.676 1.676 0 0 0 1.217 1.882 1.675 1.675 0 0 0 1.993-1.019c3.269-8.37 11.951-13.398 20.824-12.055a1.675 1.675 0 0 0 1.876-1.221 1.682 1.682 0 0 0-1.021-1.997zM317.496 60.273c-3.714-1.46-5.948-5.331-5.357-9.283a.748.748 0 0 0-.542-.838.745.745 0 0 0-.886.453 8.587 8.587 0 0 1-9.258 5.36.742.742 0 0 0-.833.542h-.001a.746.746 0 0 0 .453.889c3.714 1.46 5.949 5.332 5.358 9.284a.745.745 0 0 0 .541.836.744.744 0 0 0 .886-.453c1.453-3.721 5.313-5.957 9.258-5.36a.744.744 0 0 0 .381-1.43zM479.966 321.521c-3.714-1.46-5.948-5.331-5.357-9.283a.748.748 0 0 0-.542-.838.745.745 0 0 0-.886.453 8.59 8.59 0 0 1-9.259 5.36.743.743 0 0 0-.833.542l-.001.001a.748.748 0 0 0 .454.888c3.714 1.459 5.949 5.332 5.358 9.284a.745.745 0 0 0 .541.836.744.744 0 0 0 .886-.453c1.453-3.721 5.313-5.957 9.258-5.359a.745.745 0 0 0 .381-1.431z" fill="#FFE15A"/><path d="M142.962 276.932a38.938 38.938 0 0 1-5.149 15.275 230.459 230.459 0 0 1-17.865 27.875s-7.537-9.981-14.01-20.913a110.168 110.168 0 0 1-6.385-12.312 27.54 27.54 0 0 1-2.618-9.925c0-12.71 10.304-23.014 23.013-23.014 12.711 0 23.014 10.304 23.014 23.014z" fill="#FB1B43"/><path d="M128.578 274.055a8.63 8.63 0 1 1-17.26 0 8.63 8.63 0 0 1 17.26 0z" fill="#F1F2F2"/><path d="M336.414 221.38a38.938 38.938 0 0 1-5.149 15.275 230.585 230.585 0 0 1-17.864 27.876s-7.538-9.982-14.01-20.914a109.887 109.887 0 0 1-6.386-12.312 27.52 27.52 0 0 1-2.618-9.925c0-12.71 10.304-23.014 23.014-23.014 12.71 0 23.013 10.304 23.013 23.014z" fill="#FB1B43"/><path d="M322.031 218.503a8.631 8.631 0 1 1-17.262-.002 8.631 8.631 0 0 1 17.262.002z" fill="#F1F2F2"/><path d="M298.159 432.049a38.964 38.964 0 0 1-5.149 15.276 230.537 230.537 0 0 1-17.865 27.875s-7.537-9.981-14.01-20.914a109.793 109.793 0 0 1-6.385-12.312 27.52 27.52 0 0 1-2.619-9.925c0-12.709 10.305-23.014 23.014-23.014 12.711 0 23.014 10.305 23.014 23.014z" fill="#FB1B43"/><path d="M283.775 429.172a8.631 8.631 0 1 1-17.262 0 8.631 8.631 0 0 1 17.262 0z" fill="#F1F2F2"/><path d="M472.575 81.049c-6.103 1.495-12.488-1.453-15.31-7.069a1.177 1.177 0 0 0-1.457-.584 1.174 1.174 0 0 0-.73 1.386c1.504 6.103-1.439 12.478-7.056 15.294a1.17 1.17 0 0 0-.58 1.453l-.001.002c.207.562.806.873 1.389.73 6.103-1.496 12.49 1.452 15.313 7.068.268.538.892.792 1.454.584.565-.207.873-.804.73-1.386-1.503-6.103 1.437-12.48 7.056-15.294.536-.27.789-.89.581-1.455a1.175 1.175 0 0 0-1.389-.73zM283.098 534.241c-5.849-2.296-9.367-8.385-8.436-14.601a1.177 1.177 0 0 0-.854-1.317 1.173 1.173 0 0 0-1.395.712c-2.289 5.853-8.369 9.367-14.582 8.43a1.17 1.17 0 0 0-1.312.853l-.001.001a1.174 1.174 0 0 0 .714 1.396c5.849 2.296 9.369 8.387 8.438 14.603a1.171 1.171 0 0 0 .852 1.316 1.173 1.173 0 0 0 1.396-.712c2.289-5.853 8.368-9.37 14.581-8.43a1.174 1.174 0 0 0 1.314-.854 1.178 1.178 0 0 0-.715-1.397z" fill="#879EC1"/><path d="M506.381 167.79c-11.469-19.92-42.237-26.698-85.179-21.945-11.168 3.953-52.302 20.457-13.541 37.026 8.033 2.204 13.868 6.039 17.083 11.623 19.488 33.855-64.154 118.881-186.823 189.909-35.593 20.613-70.552 37.769-102.735 50.929a207.786 207.786 0 0 0 48.281 38.057c26.49-12.404 53.747-26.607 81.208-42.511 162.851-94.299 271.064-212.087 241.706-263.088z" fill="#fff"/><path d="M183.578 473.389c20.495-9.56 41.451-20.201 62.608-31.855a7.614 7.614 0 0 0-4.527-1.975c-34.318-2.835-33.751-25.193-31.711-35.227a6.818 6.818 0 0 0-.381-3.943c-25.721 13.659-50.796 25.406-74.381 35.009a208.052 208.052 0 0 0 48.392 37.991zM292.072 201.049c51.824-18.662 94.376-25.839 117.36-18.914l.013-.013c-45.477-18.306 14.57-36.684 14.741-36.733-42.377 4.18-97.084 19.686-156.993 44.956a161.625 161.625 0 0 1 24.879 10.704z" fill="#fff"/><path d="M65.41 301.019c-5.85-2.295-9.367-8.385-8.437-14.601a1.176 1.176 0 0 0-.853-1.317 1.175 1.175 0 0 0-1.396.712c-2.289 5.853-8.368 9.367-14.581 8.43a1.17 1.17 0 0 0-1.312.853l-.002.001a1.176 1.176 0 0 0 .715 1.397c5.849 2.295 9.368 8.386 8.437 14.603-.09.593.273 1.161.852 1.315a1.172 1.172 0 0 0 1.396-.712c2.29-5.853 8.368-9.37 14.582-8.43a1.172 1.172 0 0 0 1.313-.854 1.176 1.176 0 0 0-.714-1.397z" fill="#879EC1"/><defs><linearGradient id="a" x1="287.63" y1="77.956" x2="287.63" y2="500.429" gradientUnits="userSpaceOnUse"><stop offset=".028" stop-color="#7599ED"/><stop offset="1" stop-color="#C0D3FF"/></linearGradient></defs></svg>