<?xml version="1.0"?>
<svg xmlns="http://www.w3.org/2000/svg" width="280.347" height="553.609" viewBox="0 0 280.347 553.609">
    <defs>
        <style>
            .cls-1{fill:none;stroke:#fff;stroke-linecap:round;stroke-miterlimit:10;stroke-width:3px;stroke-dasharray:.3 5}.cls-2{fill:#10adcc}.cls-3{fill:#fff7e9}.cls-10,.cls-12,.cls-13,.cls-14,.cls-16,.cls-17,.cls-19,.cls-22,.cls-4,.cls-7{fill:#453246}.cls-4{opacity:.199}.cls-5{fill:#e32b45}.cls-6{fill:#415065}.cls-7{opacity:.2}.cls-8{fill:#1bcfb6}.cls-9{fill:#d72024}.cls-10{opacity:.204}.cls-11{fill:#fa4a18}.cls-13{opacity:.199}.cls-14{opacity:.201}.cls-15{fill:#3c7ba7}.cls-16{opacity:.201}.cls-17{opacity:.202}.cls-18{fill:#556272}.cls-19{opacity:.195}.cls-20{fill:#2a1d2b}.cls-21{fill:#ffb200}.cls-22{opacity:.205}
        </style>
    </defs>
    <g id="Pict" transform="translate(-929.413 -29.803)">
        <g id="Group_3538" transform="translate(946.576 31.303)">
            <path id="Path_34809" d="M992.346 31.968v10.2h-24.739v30.3" class="cls-1" transform="translate(-942.251 -31.227)"/>
            <path id="Path_34810" d="M1013.164 31.3v156.281h12.368v60.609" class="cls-1" transform="translate(-937.093 -31.303)"/>
            <path id="Path_34811" d="M1065.941 32.191v39.638h56.9v180.609" class="cls-1" transform="translate(-931.118 -31.202)"/>
            <path id="Path_34812" d="M1056.036 155.576v30.3h-17.317v38.963" class="cls-1" transform="translate(-934.2 -17.232)"/>
            <path id="Path_34813" d="M1157.148 216.131v58.753h-50.095" class="cls-1" transform="translate(-926.463 -10.376)"/>
            <path id="Path_34814" d="M1154.8 325.953v-36.489h-48.858" class="cls-1" transform="translate(-926.589 -2.073)"/>
            <path id="Path_34815" d="M1081.5 353.353h29.688v86.583h22.264v25.357" class="cls-1" transform="translate(-929.357 5.16)"/>
            <path id="Path_34816" d="M1059.233 359.464v143.483h12.267v41.066" class="cls-1" transform="translate(-931.877 5.852)"/>
            <path id="Line_235" d="M0 200.135V0" class="cls-1" transform="translate(106.993 350.473)"/>
            <path id="Path_34817" d="M985.941 423.281v-13.606h35.251v-78.544" class="cls-1" transform="translate(-940.175 2.644)"/>
            <path id="Path_34818" d="M959.274 338.521v-23.5h62.464" class="cls-1" transform="translate(-943.195 .82)"/>
            <path id="Line_236" d="M0 0h43.911" class="cls-1" transform="translate(29.685 286.154)"/>
            <path id="Path_34819" d="M944.83 200.02v50.095h71.122" class="cls-1" transform="translate(-944.83 -12.2)"/>
        </g>
        <g id="Group_3540" transform="translate(1134.618 353.267)">
            <circle id="Ellipse_2260" cx="37.571" cy="37.571" r="37.571" class="cls-2" transform="translate(0 .001)"/>
            <g id="Group_3539" transform="translate(11.636 13.724)">
                <path id="Path_34820" d="M1174.783 341.21a40.337 40.337 0 0 0-49.306.1 3.3 3.3 0 0 0 4.043 5.213 33.733 33.733 0 0 1 41.24-.081 3.3 3.3 0 0 0 4.022-5.23z" class="cls-3" transform="translate(-1124.199 -332.849)"/>
                <path id="Path_34821" d="M1149.614 342.477a29.692 29.692 0 0 0-19.14 7.01 3.3 3.3 0 0 0 4.259 5.038 23.037 23.037 0 0 1 29.556-.173 3.3 3.3 0 0 0 4.2-5.087 29.723 29.723 0 0 0-18.875-6.788z" class="cls-3" transform="translate(-1123.621 -331.759)"/>
                <path id="Path_34822" d="M1149.036 352.106a18.8 18.8 0 0 0-13.7 5.852 3.3 3.3 0 1 0 4.765 4.562 12.367 12.367 0 0 1 17.817-.056 3.3 3.3 0 1 0 4.738-4.591 18.812 18.812 0 0 0-13.62-5.767z" class="cls-3" transform="translate(-1123.042 -330.669)"/>
                <path id="Path_34823" d="M1148.291 362.591a7.293 7.293 0 1 0 7.294 7.294 7.293 7.293 0 0 0-7.294-7.294z" class="cls-3" transform="translate(-1122.297 -329.482)"/>
            </g>
            <path id="Path_34824" d="M1147.511 320.521h-.136v75.137h.136a37.571 37.571 0 1 0 0-75.142z" class="cls-4" transform="translate(-1109.94 -320.521)"/>
        </g>
        <g id="Group_3542" transform="translate(1104.877 43.049)">
            <circle id="Ellipse_2261" cx="37.571" cy="37.571" r="37.571" class="cls-5" transform="translate(0 .001)"/>
            <g id="Group_3541" transform="translate(13.835 9.291)">
                <path id="Path_34825" d="M1136.844 64.787a14.586 14.586 0 1 0-14.585 14.587 14.586 14.586 0 0 0 14.585-14.587z" class="cls-6" transform="translate(-1098.529 -50.2)"/>
                <path id="Path_34826" d="M1123.2 106.158a30.838 30.838 0 0 0 23.727-11.134 25.355 25.355 0 0 0-47.463-.011 30.838 30.838 0 0 0 23.736 11.145z" class="cls-6" transform="translate(-1099.459 -46.986)"/>
            </g>
            <path id="Path_34827" d="M1120.782 41.854v75.142h.007a37.571 37.571 0 0 0 0-75.142z" class="cls-7" transform="translate(-1083.211 -41.854)"/>
        </g>
        <g id="Group_3545" transform="translate(929.413 158.206)">
            <circle id="Ellipse_2262" cx="37.571" cy="37.571" r="37.571" class="cls-8"/>
            <g id="Group_3543" transform="translate(8.713 32.352)">
                <path id="Path_34828" d="M995.111 181.606a9.4 9.4 0 0 0-.118-1.826H995l-.024-.12-1.085-5.294-18.4 3.765 1.084 5.294v.01l.023.114h.008a9.375 9.375 0 0 0 2.641 4.546c-2.1 2.615-6.066 4.541-13.073 4.541s-10.97-1.926-13.073-4.541a9.355 9.355 0 0 0 2.639-4.546h.009l.023-.111v-.011l1.084-5.294-18.4-3.767-1.085 5.3v.008l-.023.115h.009a9.569 9.569 0 0 0-.118 1.833c0 .052-.009.1-.009.156 0 10.925 12.713 19.484 28.94 19.484s28.939-8.558 28.939-19.485c.011-.063.003-.117.002-.171z" class="cls-9" transform="translate(-937.24 -174.361)"/>
                <path id="Rectangle_5486" d="M0 0h18.781v1.149H0z" class="cls-3" transform="rotate(-11.567 55.536 -188.766)"/>
                <path id="Rectangle_5487" d="M0 0h1.148v18.781H0z" class="cls-3" transform="rotate(-78.433 2.993 2.164)"/>
            </g>
            <g id="Group_3544" transform="translate(18.242 11.273)">
                <path id="Path_34829" d="M946.429 163.125a2.15 2.15 0 0 0 3.04 3.04 22.055 22.055 0 0 1 31.157 0 2.15 2.15 0 0 0 3.04-3.04 26.361 26.361 0 0 0-37.237 0z" class="cls-3" transform="translate(-945.799 -155.426)"/>
                <path id="Path_34830" d="M950.867 167.355a2.149 2.149 0 0 0 3.039 3.039 15.063 15.063 0 0 1 21.278 0 2.149 2.149 0 1 0 3.039-3.039 19.364 19.364 0 0 0-27.356 0z" class="cls-3" transform="translate(-945.297 -154.715)"/>
                <path id="Path_34831" d="M955.3 171.584a2.15 2.15 0 0 0 3.041 3.04 8.069 8.069 0 0 1 11.4 0 2.149 2.149 0 0 0 3.04-3.039 12.374 12.374 0 0 0-17.481-.001z" class="cls-3" transform="translate(-944.795 -154.005)"/>
            </g>
            <path id="Path_34832" d="M963.18 145.3h-.165v75.134h.165a37.571 37.571 0 0 0 0-75.142z" class="cls-10" transform="translate(-925.609 -145.299)"/>
        </g>
        <g id="Group_3547" transform="translate(1125.062 488.894)">
            <circle id="Ellipse_2263" cx="26.439" cy="26.439" r="26.439" class="cls-11" transform="translate(0 .001)"/>
            <g id="Group_3546" transform="translate(14.193 8.071)">
                <path id="Path_34833" d="M1130.158 449.6a12.246 12.246 0 0 0-12.245 12.245c0 6.764 12.245 24.491 12.245 24.491s12.245-17.727 12.245-24.491a12.246 12.246 0 0 0-12.245-12.245zm0 18.6a6.35 6.35 0 1 1 6.35-6.351 6.35 6.35 0 0 1-6.35 6.351z" class="cls-12" transform="translate(-1117.913 -449.604)"/>
                <path id="Path_34834" d="M1129.236 476.121a3.175 3.175 0 1 1 3.175-3.175 3.175 3.175 0 0 1-3.175 3.175z" class="cls-3" transform="translate(-1116.99 -447.321)"/>
            </g>
            <path id="Path_34835" d="M1155.352 468.793a26.439 26.439 0 0 0-26.439-26.439v52.878a26.438 26.438 0 0 0 26.439-26.439z" class="cls-13" transform="translate(-1102.474 -442.354)"/>
        </g>
        <g id="Group_3549" transform="translate(1039.344 424.883)">
            <circle id="Ellipse_2264" cx="40.354" cy="40.354" r="40.354" class="cls-9" transform="translate(0 .001)"/>
            <g id="Group_3548" transform="translate(14.359 22.75)">
                <path id="Path_34836" d="M1089.848 406.926a7.5 7.5 0 0 0-4.67-1.636h-36.834a7.5 7.5 0 0 0-4.67 1.636l23.087 17.913z" class="cls-3" transform="translate(-1040.766 -405.29)"/>
                <path id="Path_34837" d="M1092.456 409.456l-25.4 19.706-25.4-19.706a7.515 7.515 0 0 0-.6 2.94v27.632h51.991V412.4a7.535 7.535 0 0 0-.591-2.944zm-44 26.784h-3.607v-2l11.286-8.758 3.09 2.4zm40.806 0h-3.607l-10.769-8.358 3.09-2.4 11.286 8.76z" class="cls-3" transform="translate(-1041.062 -404.818)"/>
                <path id="Path_34838" d="M1041.6 409.457l.007-.013z" class="cls-3" transform="translate(-1041.001 -404.82)"/>
                <path id="Path_34839" d="M1087.23 409.457l-.007-.013.007.013z" class="cls-3" transform="translate(-1035.836 -404.82)"/>
            </g>
            <path id="Path_34840" d="M1104.767 425.208a40.354 40.354 0 0 0-40.354-40.354v80.709a40.353 40.353 0 0 0 40.354-40.355z" class="cls-14" transform="translate(-1024.059 -384.854)"/>
        </g>
        <g id="Group_3552" transform="translate(940.267 292.967)">
            <circle id="Ellipse_2265" cx="22.264" cy="22.264" r="22.264" class="cls-12" transform="translate(0 .001)"/>
            <g id="Group_3551" transform="translate(7.713 5.979)">
                <path id="Path_34841" d="M956.2 286.88a5.052 5.052 0 1 0-5.053 5.054 5.052 5.052 0 0 0 5.053-5.054z" class="cls-11" transform="translate(-946.092 -270.581)"/>
                <path id="Path_34842" d="M968.3 276.777a5.053 5.053 0 1 0-5.054 5.054 5.053 5.053 0 0 0 5.054-5.054z" class="cls-11" transform="translate(-944.722 -271.725)"/>
                <path id="Path_34843" d="M968.3 296.959a5.053 5.053 0 1 1-5.054-5.053 5.054 5.054 0 0 1 5.054 5.053z" class="cls-11" transform="translate(-944.722 -269.44)"/>
                <g id="Group_3550" transform="translate(8.31 7.689)">
                    <path id="Path_34844" d="M955.979 284.966l4.376-3.815a6.2 6.2 0 0 1-2.192-2.519l-4.223 3.68a6.177 6.177 0 0 1 2.039 2.654z" class="cls-11" transform="translate(-953.514 -278.632)"/>
                    <path id="Path_34845" d="M960.173 292.308l-4.364-3.472a6.2 6.2 0 0 1-2.252 2.477l4.531 3.6a6.209 6.209 0 0 1 2.085-2.605z" class="cls-11" transform="translate(-953.557 -277.477)"/>
                </g>
            </g>
            <path id="Path_34846" d="M959.166 266.354h-.028v44.526h.028a22.264 22.264 0 0 0 0-44.529z" class="cls-12" transform="translate(-936.902 -266.354)"/>
        </g>
        <g id="Group_3553" transform="translate(1163.342 257.944)">
            <path id="Path_34847" d="M1152.627 243.353a4.865 4.865 0 1 0 4.864 4.865 4.87 4.87 0 0 0-4.864-4.865zm0 8.616a3.752 3.752 0 1 1 3.75-3.752 3.755 3.755 0 0 1-3.75 3.752z" class="cls-12" transform="translate(-1138.62 -233.935)"/>
            <path id="Path_34848" d="M1167.593 249.267a4.567 4.567 0 0 0 .226-2.5 5.062 5.062 0 0 0-1.065-2.268l-2.249.4a11.8 11.8 0 0 0-1.59-2.823l1.467-1.747a4.577 4.577 0 0 0-1.434-2.058 5.069 5.069 0 0 0-2.273-1.053l-1.408 1.681a11.666 11.666 0 0 0-3.092-1.183v-2.169a4.536 4.536 0 0 0-2.418-.653 5.078 5.078 0 0 0-2.419.653v2.082a11.616 11.616 0 0 0-3.194 1.113l-1.328-1.583a4.533 4.533 0 0 0-2.274 1.053 5.094 5.094 0 0 0-1.433 2.056l1.29 1.537a11.8 11.8 0 0 0-1.739 2.952l-1.978-.348a4.537 4.537 0 0 0-1.065 2.269 5.089 5.089 0 0 0 .225 2.5l1.967.347a11.734 11.734 0 0 0 .594 3.371l-1.759 1.014a4.529 4.529 0 0 0 .643 2.422 5.08 5.08 0 0 0 1.775 1.768l1.791-1.032a11.816 11.816 0 0 0 2.593 2.146l-.727 1.995a4.542 4.542 0 0 0 2.051 1.443 5.077 5.077 0 0 0 2.5.214l.74-2.034a11.878 11.878 0 0 0 1.552.114 11.716 11.716 0 0 0 1.746-.145l.763 2.1a4.545 4.545 0 0 0 2.5-.213 5.083 5.083 0 0 0 2.049-1.44l-.776-2.132a11.85 11.85 0 0 0 2.465-2.088l2.007 1.159a4.569 4.569 0 0 0 1.779-1.768 5.077 5.077 0 0 0 .641-2.422l-2-1.152a11.725 11.725 0 0 0 .565-3.165zm-14.037 6.108a6.2 6.2 0 1 1 6.2-6.2 6.206 6.206 0 0 1-6.199 6.2z" class="cls-12" transform="translate(-1139.55 -234.893)"/>
        </g>
        <g id="Group_3555" transform="translate(946.946 357.534)">
            <circle id="Ellipse_2266" cx="37.571" cy="37.571" r="37.571" class="cls-15" transform="translate(0 .001)"/>
            <g id="Group_3554" transform="translate(14.562 15.713)">
                <path id="Path_34849" d="M992.184 369.645a8.7 8.7 0 0 1-5.063-1.379 12.758 12.758 0 0 1-5.637 1.379c-6.04 0-10.586-3.621-10.586-9.318s4.545-9.32 10.586-9.32a35.992 35.992 0 0 1 10.238 1.668v9.377c0 .863.865 1.324 2.3 1.324 2.013 0 3.336-1.438 3.336-6.5 0-7.191-5.7-12.254-16.106-12.254-10.24 0-16.108 5.638-16.108 15.705s5.868 15.7 16.108 15.7a28.748 28.748 0 0 0 9.2-1.5v6.1a31.892 31.892 0 0 1-9.2 1.552c-13.4 0-23.01-8.684-23.01-21.859s9.606-21.858 23.01-21.858c13.459 0 23.008 8.167 23.008 18.407.002 7.656-3.736 12.776-12.076 12.776zm-10.471-12.769a3.456 3.456 0 1 0 0 6.9 8.313 8.313 0 0 0 3.107-.521v-5.866a8.8 8.8 0 0 0-3.107-.513z" class="cls-3" transform="translate(-958.244 -338.469)"/>
            </g>
            <path id="Path_34850" d="M978.914 324.354h-.007V399.5h.007a37.571 37.571 0 0 0 0-75.142z" class="cls-16" transform="translate(-941.343 -324.354)"/>
        </g>
        <g id="Group_3556" transform="translate(1150.944 193.185)">
            <circle id="Ellipse_2267" cx="26.439" cy="26.439" r="26.439" class="cls-11"/>
            <path id="Path_34851" d="M1164.6 207.431c0-5.483-3.455-8.292-11.289-8.292-3.179 0-4.561-.922-4.561-2.627 0-1.243 1.614-3.041 5.621-3.041a32.145 32.145 0 0 1 9.495 1.475v-5.529a33.5 33.5 0 0 0-7.916-1.432v-4.234h-5.277v4.564c-5.794 1.2-8.65 5.2-8.65 8.98 0 5.483 3.454 8.294 11.288 8.294 3.179 0 4.564.922 4.564 2.626 0 1.245-1.613 3.04-5.622 3.04a32.07 32.07 0 0 1-9.492-1.474v5.53a33.441 33.441 0 0 0 7.912 1.43v4.235h5.277v-4.563c5.795-1.202 8.65-5.199 8.65-8.982z" class="cls-12" transform="translate(-1126.872 -175.925)"/>
            <path id="Path_34852" d="M1152.171 176.721h-.081V229.6h.081a26.439 26.439 0 0 0 0-52.878z" class="cls-17" transform="translate(-1125.732 -176.721)"/>
        </g>
        <g id="Group_3557" transform="translate(931.052 253.068)">
            <path id="Path_34853" d="M958.372 246.267l4.268-.754-.676-3.818-4.24.747a11.758 11.758 0 0 0-2.054-3.674l2.754-3.286-2.972-2.49-2.722 3.243a11.688 11.688 0 0 0-3.983-1.533v-4.189h-3.88v4.128a11.67 11.67 0 0 0-4.1 1.42l-2.634-3.139-2.971 2.494 2.6 3.1a11.769 11.769 0 0 0-2.224 3.77l-3.988-.7-.673 3.822 3.965.7c0 .052-.008.1-.008.157a11.661 11.661 0 0 0 .774 4.156l-3.527 2.035 1.939 3.359 3.533-2.038a11.826 11.826 0 0 0 3.337 2.767l-1.419 3.9 3.646 1.325 1.428-3.925a11.32 11.32 0 0 0 4.268-.026l1.453 3.991 3.644-1.328-1.461-4.019a11.839 11.839 0 0 0 3.219-2.708l3.745 2.161 1.937-3.359-3.746-2.165a11.681 11.681 0 0 0 .768-4.124zm-11.765 8.255a8.26 8.26 0 1 1 8.26-8.259 8.268 8.268 0 0 1-8.26 8.259z" class="cls-18" transform="translate(-930.885 -230.513)"/>
            <path id="Path_34854" d="M945.723 238.342a7.034 7.034 0 1 0 7.033 7.034 7.042 7.042 0 0 0-7.033-7.034zm0 12.955a5.921 5.921 0 1 1 5.92-5.92 5.927 5.927 0 0 1-5.92 5.923z" class="cls-18" transform="translate(-930.001 -229.627)"/>
        </g>
        <g id="Group_3558" transform="translate(1008.844 152.409)">
            <path id="Path_34855" d="M1028.809 154.466a4.565 4.565 0 0 0 .226-2.5 5.076 5.076 0 0 0-1.065-2.268l-2.249.4a11.787 11.787 0 0 0-1.59-2.824l1.466-1.746a4.567 4.567 0 0 0-1.433-2.059 5.06 5.06 0 0 0-2.273-1.052l-1.408 1.68a11.666 11.666 0 0 0-3.093-1.183v-2.167a4.532 4.532 0 0 0-2.419-.655 5.071 5.071 0 0 0-2.418.655v2.081a11.637 11.637 0 0 0-3.195 1.113l-1.327-1.583a4.545 4.545 0 0 0-2.274 1.053 5.1 5.1 0 0 0-1.433 2.056l1.29 1.538a11.76 11.76 0 0 0-1.739 2.952l-1.978-.35a4.538 4.538 0 0 0-1.065 2.269 5.082 5.082 0 0 0 .224 2.5l1.968.347a11.723 11.723 0 0 0 .593 3.371l-1.759 1.014a4.534 4.534 0 0 0 .643 2.423 5.092 5.092 0 0 0 1.774 1.768l1.79-1.033a11.867 11.867 0 0 0 2.593 2.146l-.726 1.995a4.542 4.542 0 0 0 2.051 1.443 5.078 5.078 0 0 0 2.5.214l.74-2.034a11.882 11.882 0 0 0 1.552.114 11.733 11.733 0 0 0 1.746-.145l.762 2.1a4.551 4.551 0 0 0 2.5-.212 5.08 5.08 0 0 0 2.049-1.442l-.777-2.131a11.832 11.832 0 0 0 2.466-2.09l2.007 1.159a4.571 4.571 0 0 0 1.779-1.768 5.079 5.079 0 0 0 .641-2.422l-2-1.152a11.707 11.707 0 0 0 .566-3.164zm-14.037 10.07a10.161 10.161 0 1 1 10.16-10.161 10.172 10.172 0 0 1-10.159 10.161z" class="cls-12" transform="translate(-1000.765 -140.092)"/>
            <path id="Path_34856" d="M1014.156 145.788a7.943 7.943 0 1 0 7.942 7.942 7.951 7.951 0 0 0-7.942-7.942z" class="cls-12" transform="translate(-1000.149 -139.447)"/>
        </g>
        <g id="Group_3559" transform="translate(1038.59 538.584)">
            <path id="Path_34857" d="M1054.927 503.536a3.47 3.47 0 1 0-1.207-6.835 3.426 3.426 0 0 0-.75.229 11.784 11.784 0 0 0-.626-1.079 3.573 3.573 0 0 0 .493-.479 3.47 3.47 0 1 0-5.318-4.461 3.581 3.581 0 0 0-.39.569 11.965 11.965 0 0 0-1.2-.435 3.471 3.471 0 1 0-6.823 0 11.769 11.769 0 0 0-1.248.458 3.743 3.743 0 0 0-.272-.4 3.471 3.471 0 0 0-5.319 4.461 3.4 3.4 0 0 0 .374.365 11.625 11.625 0 0 0-.666 1.183 3.672 3.672 0 0 0-.414-.118 3.472 3.472 0 1 0-.692 6.874 11.233 11.233 0 0 0 .26 1.335 3.312 3.312 0 0 0-.4.178 3.471 3.471 0 1 0 3.946 5.669 11.9 11.9 0 0 0 1.031.83 3.427 3.427 0 0 0-.222.458 3.471 3.471 0 0 0 6.522 2.376 3.518 3.518 0 0 0 .169-.664c.113 0 .224.018.338.018.317 0 .628-.023.938-.049a3.309 3.309 0 0 0 .149.591 3.47 3.47 0 1 0 6.522-2.373 3.41 3.41 0 0 0-.352-.694 12.154 12.154 0 0 0 .94-.818 3.522 3.522 0 0 0 .567.41 3.471 3.471 0 1 0 2.725-6.324 11.379 11.379 0 0 0 .2-1.226 3.434 3.434 0 0 0 .725-.049zm-12.411 7.5a8.735 8.735 0 1 1 8.734-8.734 8.744 8.744 0 0 1-8.734 8.735z" class="cls-18" transform="translate(-1027.486 -486.991)"/>
            <path id="Path_34858" d="M1041.537 495.888a5.407 5.407 0 1 0 5.407 5.407 5.413 5.413 0 0 0-5.407-5.407z" class="cls-18" transform="translate(-1026.508 -485.984)"/>
        </g>
        <g id="Group_3560" transform="translate(1046.102 116.712)">
            <path id="Path_34859" d="M1142.035 162.066a18.759 18.759 0 0 0-16.575-27.557 19.213 19.213 0 0 0-2.052.117v-.082a11.468 11.468 0 0 0-20.943-6.46 25.262 25.262 0 1 0-48.985 12.223c-.42-.029-.838-.063-1.267-.063a17.985 17.985 0 0 0 0 35.969h87.315a7.294 7.294 0 0 0 2.5-14.147z" class="cls-2" transform="translate(-1034.234 -108.025)"/>
            <path id="Path_34860" d="M1136.325 161.722a18.759 18.759 0 0 0-16.575-27.557 19.213 19.213 0 0 0-2.052.117v-.082a11.468 11.468 0 0 0-20.943-6.46 25.3 25.3 0 0 0-12.1-16.676v64.805h49.161a7.294 7.294 0 0 0 2.5-14.147z" class="cls-19" transform="translate(-1028.524 -107.681)"/>
        </g>
        <g id="Group_3566" transform="translate(935.37 61.513)">
            <g id="Group_3561">
                <path id="Rectangle_5488" d="M0 0h121.515v4.912H0z" class="cls-12" transform="translate(0 75.178)"/>
                <path id="Path_34861" d="M1056.279 127.894H934.764l11.136-15.688h99.251z" class="cls-6" transform="translate(-934.764 -52.353)"/>
                <path id="Path_34862" d="M944.441 118.657l3.233-4.556h93.5l3.233 4.556z" class="cls-20" transform="translate(-933.668 -52.138)"/>
                <path id="Path_34863" d="M974.441 124.376l3.233-4.556h26.709l3.233 4.556z" class="cls-20" transform="translate(-930.271 -51.491)"/>
                <path id="Path_34864" d="M1044.014 64.006a5.582 5.582 0 0 0-5.566-5.566H950.33a5.582 5.582 0 0 0-5.566 5.566v54.287h99.25z" class="cls-12" transform="translate(-933.632 -58.44)"/>
                <path id="Rectangle_5489" d="M0 0h94.048v51.663H0z" class="cls-18" transform="translate(13.734 5.208)"/>
            </g>
            <g id="Group_3565" transform="translate(42.907 8.678)">
                <g id="Group_3562" transform="translate(6.142)">
                    <path id="Path_34865" d="M991.363 100.273H989.7a10.89 10.89 0 0 1-10.878-10.878V77.112A10.889 10.889 0 0 1 989.7 66.235h1.661a10.889 10.889 0 0 1 10.877 10.877v12.282a10.89 10.89 0 0 1-10.875 10.879zM989.7 70.14a6.98 6.98 0 0 0-6.973 6.972v12.282a6.981 6.981 0 0 0 6.973 6.973h1.661a6.981 6.981 0 0 0 6.973-6.973V77.112a6.98 6.98 0 0 0-6.973-6.972z" class="cls-20" transform="translate(-978.824 -66.235)"/>
                </g>
                <path id="Rectangle_5490" d="M6.014 0h23.674A6.014 6.014 0 0 1 35.7 6.014v15.028a6.013 6.013 0 0 1-6.013 6.013H6.014A6.014 6.014 0 0 1 0 21.041V6.014A6.014 6.014 0 0 1 6.014 0z" class="cls-15" transform="translate(0 17.669)"/>
                <g id="Group_3563" transform="translate(.837 18.506)">
                    <path id="Path_34866" d="M1002.228 108.24h-22.312a5.863 5.863 0 0 1-5.857-5.858V88.717a5.864 5.864 0 0 1 5.857-5.858h22.312a5.864 5.864 0 0 1 5.858 5.858v13.666a5.864 5.864 0 0 1-5.858 5.857zm-22.312-24.823a5.305 5.305 0 0 0-5.3 5.3v13.666a5.305 5.305 0 0 0 5.3 5.3h22.312a5.306 5.306 0 0 0 5.3-5.3V88.717a5.306 5.306 0 0 0-5.3-5.3z" class="cls-3" transform="translate(-974.059 -82.859)"/>
                </g>
                <path id="Path_34867" d="M993.4 105.331l-2.075-6.837a3.23 3.23 0 1 0-3.215 0l-2.076 6.837z" class="cls-3" transform="translate(-971.866 -63.265)"/>
                <path id="Path_34868" d="M986.709 104.716l1.985-6.542-.382-.22a2.671 2.671 0 1 1 2.657 0l-.384.22 1.986 6.542z" class="cls-20" transform="translate(-971.789 -63.208)"/>
                <path id="Path_34869" d="M1002.313 82.107H980a6.7 6.7 0 0 0-6.694 6.695v3.765h35.7V88.8a6.7 6.7 0 0 0-6.693-6.693z" class="cls-11" transform="translate(-973.307 -64.438)"/>
                <g id="Group_3564" transform="translate(0 18.731)">
                    <path id="Rectangle_5491" d="M0 0h35.701v.365H0z" class="cls-21" transform="translate(0 8.386)"/>
                    <path id="Rectangle_5492" d="M0 0h35.701v.365H0z" class="cls-21" transform="translate(0 7.187)"/>
                    <path id="Rectangle_5493" d="M0 0h35.701v.365H0z" class="cls-21" transform="translate(0 5.99)"/>
                    <path id="Path_34870" d="M973.363 87.365a8.836 8.836 0 0 0-.035.365h35.654a6.349 6.349 0 0 0-.036-.365z" class="cls-21" transform="translate(-973.304 -82.574)"/>
                    <path id="Path_34871" d="M973.6 86.29c-.038.118-.068.242-.1.364h35.262c-.032-.122-.061-.246-.1-.364z" class="cls-21" transform="translate(-973.284 -82.695)"/>
                    <path id="Path_34872" d="M974.075 85.213c-.066.118-.122.243-.18.365h34.392c-.059-.122-.115-.247-.18-.365z" class="cls-21" transform="translate(-973.24 -82.817)"/>
                    <path id="Path_34873" d="M974.855 84.137c-.1.118-.2.239-.3.365h32.925q-.145-.189-.3-.365z" class="cls-21" transform="translate(-973.165 -82.939)"/>
                    <path id="Path_34874" d="M976.13 83.061q-.264.17-.513.365h30.557q-.247-.2-.513-.365z" class="cls-21" transform="translate(-973.045 -83.061)"/>
                </g>
            </g>
        </g>
        <g id="Group_3574" transform="translate(963.411 452.895)">
            <g id="Group_3569">
                <g id="Group_3567">
                    <rect id="Rectangle_5494" width="59.727" height="109.547" class="cls-12" rx="5"/>
                </g>
                <path id="Rectangle_5495" d="M0 0h53.787v77.045H0z" class="cls-6" transform="translate(2.97 16.498)"/>
                <path id="Path_34875" d="M1000.32 419.326a1.567 1.567 0 0 1-1.567 1.567h-21.447a1.568 1.568 0 0 1-1.568-1.567 1.568 1.568 0 0 1 1.568-1.567h21.446a1.567 1.567 0 0 1 1.567 1.567z" class="cls-20" transform="translate(-958.166 -409.14)"/>
                <path id="Path_34876" d="M970.122 419.326a1.568 1.568 0 0 1-1.569 1.567h-.3a1.568 1.568 0 0 1-1.568-1.567 1.568 1.568 0 0 1 1.568-1.567h.3a1.568 1.568 0 0 1 1.569 1.567z" class="cls-20" transform="translate(-959.19 -409.14)"/>
                <circle id="Ellipse_2268" cx="4.95" cy="4.95" r="4.95" class="cls-20" transform="translate(24.914 96.887)"/>
                <g id="Group_3568" transform="translate(11.715 98.877)">
                    <path id="Path_34877" d="M998.266 498.837v5.426l5.362-2.713z" class="cls-20" transform="translate(-967.33 -498.837)"/>
                    <path id="Path_34878" d="M975.838 498.837v5.426l-5.362-2.713z" class="cls-20" transform="translate(-970.477 -498.837)"/>
                </g>
            </g>
            <g id="Group_3573" transform="translate(12.013 32.658)">
                <g id="Group_3570" transform="translate(6.143)">
                    <path id="Path_34879" d="M988.8 473.392h-1.661a10.891 10.891 0 0 1-10.877-10.878v-12.283a10.889 10.889 0 0 1 10.877-10.878h1.661a10.89 10.89 0 0 1 10.878 10.878v12.282a10.891 10.891 0 0 1-10.878 10.879zm-1.661-30.134a6.98 6.98 0 0 0-6.972 6.973v12.282a6.981 6.981 0 0 0 6.972 6.973h1.661a6.981 6.981 0 0 0 6.973-6.973v-12.282a6.98 6.98 0 0 0-6.973-6.973z" class="cls-20" transform="translate(-976.262 -439.353)"/>
                </g>
                <path id="Rectangle_5496" d="M6.014 0h23.674A6.014 6.014 0 0 1 35.7 6.014v15.028a6.013 6.013 0 0 1-6.013 6.013H6.014A6.014 6.014 0 0 1 0 21.041V6.014A6.014 6.014 0 0 1 6.014 0z" class="cls-5" transform="translate(0 17.671)"/>
                <g id="Group_3571" transform="translate(.837 18.507)">
                    <path id="Path_34880" d="M999.666 481.358h-22.312a5.863 5.863 0 0 1-5.854-5.858v-13.665a5.864 5.864 0 0 1 5.858-5.857h22.312a5.864 5.864 0 0 1 5.858 5.857V475.5a5.863 5.863 0 0 1-5.862 5.858zm-22.312-24.824a5.306 5.306 0 0 0-5.3 5.3V475.5a5.306 5.306 0 0 0 5.3 5.3h22.312a5.306 5.306 0 0 0 5.3-5.3v-13.665a5.306 5.306 0 0 0-5.3-5.3z" class="cls-3" transform="translate(-971.496 -455.978)"/>
                </g>
                <path id="Path_34881" d="M990.837 478.449l-2.075-6.839a3.229 3.229 0 1 0-3.216 0l-2.075 6.839z" class="cls-3" transform="translate(-969.303 -436.383)"/>
                <path id="Path_34882" d="M984.147 477.836l1.985-6.542-.383-.223a2.672 2.672 0 1 1 2.658 0l-.384.223 1.985 6.542z" class="cls-20" transform="translate(-969.227 -436.326)"/>
                <path id="Path_34883" d="M999.751 455.227h-22.312a6.694 6.694 0 0 0-6.695 6.693v3.765h35.7v-3.765a6.694 6.694 0 0 0-6.693-6.693z" class="cls-11" transform="translate(-970.744 -437.556)"/>
                <g id="Group_3572" transform="translate(0 18.732)">
                    <path id="Rectangle_5497" d="M0 0h35.701v.364H0z" class="cls-21" transform="translate(0 8.386)"/>
                    <path id="Rectangle_5498" d="M0 0h35.701v.365H0z" class="cls-21" transform="translate(0 7.187)"/>
                    <path id="Rectangle_5499" d="M0 0h35.701v.364H0z" class="cls-21" transform="translate(0 5.99)"/>
                    <path id="Path_34884" d="M970.8 460.484c-.016.12-.026.242-.035.364h35.653a7.233 7.233 0 0 0-.035-.364z" class="cls-21" transform="translate(-970.742 -455.693)"/>
                    <path id="Path_34885" d="M971.04 459.408c-.038.12-.067.242-.1.364h35.26c-.031-.122-.06-.244-.1-.364z" class="cls-21" transform="translate(-970.722 -455.815)"/>
                    <path id="Path_34886" d="M971.512 458.332c-.065.118-.121.242-.18.365h34.393c-.059-.124-.116-.247-.18-.365z" class="cls-21" transform="translate(-970.678 -455.936)"/>
                    <path id="Path_34887" d="M972.293 457.256c-.1.117-.206.239-.3.365h32.925c-.1-.126-.2-.248-.3-.365z" class="cls-21" transform="translate(-970.603 -456.058)"/>
                    <path id="Path_34888" d="M973.568 456.18a6.113 6.113 0 0 0-.513.365h30.557a6.131 6.131 0 0 0-.514-.365z" class="cls-21" transform="translate(-970.483 -456.18)"/>
                </g>
            </g>
        </g>
        <path id="Path_34889" d="M1109.818 156.825l-10.889-18.671-10.889 18.671h6.584v65.944h8.61v-65.944z" class="cls-11" transform="translate(17.96 12.098)"/>
        <g id="Group_3581" transform="translate(975.893 211.467)">
            <g id="Group_3579" transform="translate(26.002)">
                <path id="Path_34890" d="M1135.244 221.4s-17.944 2.65-36.084-3.4-29.231-19.208-32.79-23.993l-.631-.867-.628.867c-3.56 4.786-14.642 17.943-32.792 23.993s-36.082 3.392-36.082 3.392-18.908 132.669 68.874 176.821l.628.326.631-.326c87.779-44.148 68.874-176.813 68.874-176.813z" class="cls-12" transform="translate(-994.523 -193.143)"/>
                <path id="Path_34891" d="M1064.5 382.776c-60.1-34.57-60.381-119.893-58.405-150.44a96.339 96.339 0 0 0 28.852-4.6 79.927 79.927 0 0 0 29.548-18.006 79.946 79.946 0 0 0 29.548 18.006 96.346 96.346 0 0 0 28.857 4.6 261.173 261.173 0 0 1-2.6 57.673c-7.325 44.536-26.085 75.711-55.8 92.767z" class="cls-6" transform="translate(-993.275 -191.264)"/>
                <g id="Group_3578" transform="translate(35.593 54.31)">
                    <g id="Group_3575" transform="translate(12.259)">
                        <path id="Path_34892" d="M1062.531 309.854h-3.315a21.732 21.732 0 0 1-21.708-21.708v-24.51a21.731 21.731 0 0 1 21.708-21.708h3.315a21.732 21.732 0 0 1 21.708 21.708v24.51a21.733 21.733 0 0 1-21.708 21.708zm-3.315-60.133a13.93 13.93 0 0 0-13.915 13.915v24.51a13.93 13.93 0 0 0 13.915 13.915h3.315a13.93 13.93 0 0 0 13.915-13.915v-24.51a13.93 13.93 0 0 0-13.915-13.915z" class="cls-20" transform="translate(-1037.508 -241.929)"/>
                    </g>
                    <rect id="Rectangle_5500" width="71.246" height="53.991" class="cls-8" rx="12" transform="translate(0 35.262)"/>
                    <g id="Group_3576" transform="translate(1.67 36.931)">
                        <path id="Path_34893" d="M1084.214 325.756h-44.529A11.7 11.7 0 0 1 1028 314.067v-27.274a11.7 11.7 0 0 1 11.689-11.689h44.529a11.7 11.7 0 0 1 11.689 11.689v27.274a11.7 11.7 0 0 1-11.693 11.689zm-44.529-49.538a10.588 10.588 0 0 0-10.576 10.576v27.274a10.587 10.587 0 0 0 10.576 10.576h44.529a10.587 10.587 0 0 0 10.576-10.576v-27.275a10.588 10.588 0 0 0-10.576-10.576z" class="cls-3" transform="translate(-1027.996 -275.104)"/>
                    </g>
                    <path id="Path_34894" d="M1066.6 319.95l-4.142-13.647a6.444 6.444 0 1 0-6.419 0l-4.139 13.647z" class="cls-3" transform="translate(-1023.62 -236.002)"/>
                    <path id="Path_34895" d="M1053.242 318.724l3.962-13.057-.766-.441a5.33 5.33 0 1 1 5.308 0l-.768.441 3.962 13.057z" class="cls-20" transform="translate(-1023.468 -235.889)"/>
                    <path id="Path_34896" d="M1084.383 273.6h-44.529a13.359 13.359 0 0 0-13.359 13.359v7.514h71.246v-7.514a13.359 13.359 0 0 0-13.358-13.359z" class="cls-11" transform="translate(-1026.496 -238.343)"/>
                    <g id="Group_3577" transform="translate(0 37.38)">
                        <path id="Rectangle_5501" d="M0 0h71.246v.727H0z" class="cls-21" transform="translate(0 16.735)"/>
                        <path id="Rectangle_5502" d="M0 0h71.246v.728H0z" class="cls-21" transform="translate(0 14.343)"/>
                        <path id="Rectangle_5503" d="M0 0h71.246v.727H0z" class="cls-21" transform="translate(0 11.954)"/>
                        <path id="Path_34897" d="M1026.609 284.1c-.031.242-.052.483-.07.728h71.151a15.868 15.868 0 0 0-.067-.728z" class="cls-21" transform="translate(-1026.491 -274.534)"/>
                        <path id="Path_34898" d="M1027.088 281.95c-.076.238-.135.483-.2.727h70.37c-.063-.244-.122-.489-.2-.727z" class="cls-21" transform="translate(-1026.451 -274.777)"/>
                        <path id="Path_34899" d="M1028.031 279.8c-.13.237-.245.483-.361.728h68.63c-.117-.245-.233-.491-.363-.728z" class="cls-21" transform="translate(-1026.363 -275.021)"/>
                        <path id="Path_34900" d="M1029.585 277.655q-.314.352-.6.728h65.707q-.287-.376-.6-.728z" class="cls-21" transform="translate(-1026.214 -275.264)"/>
                        <path id="Path_34901" d="M1032.131 275.507c-.352.227-.693.47-1.022.728h60.978q-.5-.387-1.024-.728z" class="cls-21" transform="translate(-1025.974 -275.507)"/>
                    </g>
                </g>
                <path id="Path_34902" d="M1091.913 218c-18.149-6.05-29.231-19.208-32.79-23.993l-.594-.816v205.327l.594-.307C1146.9 354.059 1128 221.39 1128 221.39s-17.943 2.655-36.087-3.39z" class="cls-22" transform="translate(-987.276 -193.138)"/>
            </g>
            <g id="Group_3580" transform="translate(0 3.225)">
                <path id="Path_34903" d="M1012.142 231.161l24.137-2.565-24.286-2.58 9.846-5.9-10.927 3.723 10.218-12.648-12.73 10.282 3.806-11.171-5.918 9.873-2.566-24.135-2.59 24.385-6.07-10.125 3.739 10.975-12.487-10.089 10.286 12.732-11.17-3.805 9.872 5.919-24.136 2.568 23.987 2.548-9.9 5.935 11.414-3.888-10.352 12.813 12.73-10.286-3.806 11.171 5.919-9.873 2.564 24.135 2.539-23.886 5.768 9.623-3.872-11.367 12.974 10.482-10.285-12.731 11.17 3.806z" class="cls-11" transform="translate(-971.166 -196.04)"/>
                <path id="Path_34904" d="M1000.774 231.565L999.313 234l1.215-3.566-6.481 5.237 5.3-6.564-3.807 1.3 2.465-1.477-15.363-1.63 15.512-1.648-2.437-1.462 3.566 1.215-5.238-6.483 6.24 5.042-1.147-3.369 1.61 2.686 1.674-15.764 1.649 15.514 1.46-2.436-1.214 3.564 6.485-5.238-5.173 6.4 3.322-1.132-2.409 1.445 15.663 1.665-15.516 1.649 2.437 1.461-3.565-1.214 5.237 6.482-6.725-5.432 1.281 3.759-1.31-2.186-1.623 15.266z" class="cls-21" transform="translate(-969.867 -194.741)"/>
                <path id="Path_34905" d="M1008.686 226.016l9.846-5.9-10.927 3.723 10.218-12.648-12.731 10.286 3.808-11.177-5.918 9.873-2.566-24.135-.041.388v64.337l.041.388 2.539-23.886 5.768 9.623-3.872-11.367 12.974 10.482-10.285-12.731 11.17 3.806-9.873-5.919 24.137-2.565z" class="cls-12" transform="translate(-967.859 -196.04)"/>
            </g>
        </g>
        <path id="Path_34906" d="M1080.774 191.182v-53.028h-8.61v53.028h-6.584l10.889 18.671 10.889-18.671z" class="cls-3" transform="translate(15.417 12.098)"/>
    </g>
</svg>
