<svg width="23" height="23" viewBox="0 0 23 23" fill="none" xmlns="http://www.w3.org/2000/svg">
<path d="M0.989195 10.8477L0.332031 11.1263C0.331988 11.2928 0.396055 11.4581 0.521051 11.5826L10.8785 21.9039C10.9994 22.0244 11.207 22.0904 11.3289 22.091C11.4528 22.0915 11.6646 22.0264 11.7875 21.9038L22.1433 11.576C22.2679 11.4517 22.3319 11.2868 22.3321 11.1206L21.7607 10.8477C21.4421 10.8477 18.4828 10.8477 14.8873 10.8477L11.0317 12.0923L7.77082 10.8477C4.38854 10.8477 1.57142 10.8477 0.989195 10.8477Z" fill="#FFB739"/>
<path d="M22.3319 11.1206C22.3319 11.2867 22.2679 11.4515 22.143 11.5759L11.7874 21.9037C11.6655 22.0255 11.4556 22.0908 11.332 22.0908V11.9952L14.8872 10.8477H21.7607L22.3319 11.1206Z" fill="#FF9441"/>
<path d="M7.77148 10.8477L11.3328 22.0908L14.8879 10.8477H7.77148Z" fill="#FF9441"/>
<path d="M14.8872 10.8477L11.332 22.0908V10.8477H14.8872Z" fill="#FF7149"/>
<path d="M22.2241 10.7619L18.7768 5.59693C18.7291 5.52552 18.6677 5.46485 18.5969 5.41801L18.2844 5.56806L11.9284 5.60768L11.332 5.31055L10.8501 5.61438L4.50838 5.65391L4.06584 5.41866C3.99559 5.46536 3.93436 5.52582 3.88675 5.59728L0.439754 10.7687C0.36718 10.8776 0.332031 11.0018 0.332031 11.1254C1.58075 11.125 20.7192 11.12 22.332 11.1196C22.3321 10.9957 22.2969 10.871 22.2241 10.7619Z" fill="#FFD17E"/>
<path d="M22.3319 11.1197C21.5328 11.1197 16.4292 11.1214 11.332 11.1227V5.31055L11.9286 5.6075L18.2845 5.56802L18.5969 5.4178C18.6677 5.46502 18.7291 5.52552 18.7767 5.59676L22.2242 10.7617C22.2971 10.8712 22.3323 10.9957 22.3319 11.1197Z" fill="#FFB739"/>
<path d="M4.42279 5.31055C4.29405 5.31055 4.17056 5.34926 4.06641 5.41857L7.88444 11.1234H7.88487L11.3322 5.31055H4.42279Z" fill="#FFB739"/>
<path d="M14.7811 11.1216L18.597 5.41788C18.493 5.349 18.3699 5.31055 18.2416 5.31055H11.332L14.7783 11.1216H14.7811V11.1216Z" fill="#FF9441"/>
<path d="M7.48227 15.6161C6.40483 15.6161 5.52822 14.7396 5.52822 13.6621C5.52822 13.3062 5.23964 13.0176 4.88369 13.0176C4.52774 13.0176 4.23916 13.3062 4.23916 13.6621C4.23916 14.7341 3.36788 15.6161 2.28516 15.6161C1.9292 15.6161 1.64062 15.9047 1.64062 16.2606C1.64062 16.6166 1.9292 16.9052 2.28516 16.9052C3.3626 16.9052 4.23916 17.7817 4.23916 18.8592C4.23916 19.2151 4.52774 19.5037 4.88369 19.5037C5.23964 19.5037 5.52822 19.2151 5.52822 18.8592C5.52822 17.7872 6.39941 16.9052 7.48227 16.9052C7.83822 16.9052 8.1268 16.6166 8.1268 16.2606C8.1268 15.9047 7.83822 15.6161 7.48227 15.6161Z" fill="#FFD17E"/>
<path d="M17.3611 2.68838C16.2837 2.68838 15.4071 1.81182 15.4071 0.734375C15.4071 0.378422 15.1186 0.0898438 14.7626 0.0898438C14.4066 0.0898438 14.1181 0.378422 14.1181 0.734375C14.1181 1.81182 13.2415 2.68838 12.1641 2.68838C11.8081 2.68838 11.5195 2.97696 11.5195 3.33291C11.5195 3.68886 11.8081 3.97744 12.1641 3.97744C13.2415 3.97744 14.1181 4.854 14.1181 5.93145C14.1181 6.2874 14.4066 6.57598 14.7626 6.57598C15.1186 6.57598 15.4071 6.2874 15.4071 5.93145C15.4071 4.854 16.2836 3.97744 17.3611 3.97744C17.7171 3.97744 18.0057 3.68886 18.0057 3.33291C18.0057 2.97696 17.7171 2.68838 17.3611 2.68838Z" fill="#FFB739"/>
</svg>
