<svg xmlns="http://www.w3.org/2000/svg" xmlns:xlink="http://www.w3.org/1999/xlink" width="491" height="436.891" viewBox="0 0 491 436.891"><defs><radialGradient id="a" cx="26.468" cy="56.894" r="40.914" gradientUnits="userSpaceOnUse"><stop offset="0" stop-color="#fff35e"/><stop offset="1" stop-color="#ffb32c"/></radialGradient></defs><g transform="translate(-158.999 -3072)"><g transform="translate(-627 47)"><g transform="translate(196.631 2938.945)"><circle cx="152.003" cy="152.003" r="152.003" transform="translate(682.811 152.497)" fill="#d5d7db" opacity="0.204"/><circle cx="218.445" cy="218.445" r="218.445" transform="translate(616.369 86.055)" fill="#d5d7db" opacity="0.152"/></g></g><g transform="translate(-150.334 3136.619)"><g transform="translate(309.333 239.943)"><ellipse cx="245.5" cy="8.8" rx="245.5" ry="8.8" transform="translate(0 0)" opacity="0.08"/></g><g transform="translate(317.077 31.381)"><g transform="translate(361.075 51.136)"><path d="M615,162.681a47.772,47.772,0,1,1,47.772-47.771A47.825,47.825,0,0,1,615,162.681Zm0-94.355a46.583,46.583,0,1,0,46.583,46.584A46.637,46.637,0,0,0,615,68.326Z" transform="translate(-567.231 -67.138)" fill="#009995"/><g transform="translate(47.177 0.594)"><rect width="1.189" height="94.355" fill="#009995"/></g><g transform="translate(0.594 47.178)"><rect width="94.355" height="1.189" fill="#009995"/></g><path d="M609.181,162.681c-15.668,0-28.413-21.43-28.413-47.771s12.745-47.772,28.413-47.772,28.412,21.43,28.412,47.772S624.848,162.681,609.181,162.681Zm0-94.355c-15.012,0-27.225,20.9-27.225,46.584s12.213,46.583,27.225,46.583,27.223-20.9,27.223-46.583S624.192,68.326,609.181,68.326Z" transform="translate(-561.409 -67.138)" fill="#009995"/><g transform="translate(9.456)"><path d="M612.16,91.085c-14.76,0-28.427-1.622-37.5-4.45l-.817-.255.523-.676a47.748,47.748,0,0,1,75.585,0l.523.676-.817.255C640.586,89.463,626.918,91.085,612.16,91.085Zm-36.316-5.334C584.8,88.389,597.96,89.9,612.16,89.9s27.359-1.506,36.314-4.144a46.556,46.556,0,0,0-72.63,0Z" transform="translate(-573.843 -67.138)" fill="#009995"/></g><g transform="translate(9.456 71.596)"><path d="M612.16,141.149a47.482,47.482,0,0,1-37.793-18.566l-.523-.676.817-.255c9.072-2.829,22.74-4.45,37.5-4.45s28.426,1.622,37.5,4.45l.817.255-.523.676A47.481,47.481,0,0,1,612.16,141.149Zm-36.316-18.613a46.556,46.556,0,0,0,72.63,0c-8.955-2.639-22.116-4.144-36.314-4.144S584.8,119.9,575.844,122.536Z" transform="translate(-573.843 -117.202)" fill="#009995"/></g><g transform="translate(2.734 3.302)"><path d="M602.379,136.72c7.173-.335,13.493-6.616,17.341-16.074a140.951,140.951,0,0,0-17.341-1.077Z" transform="translate(-554.848 -47.89)" fill="#01b5b6"/><path d="M602.379,121.9a149.488,149.488,0,0,1,18.826,1.2,61.248,61.248,0,0,0,3.671-20.8h-22.5Z" transform="translate(-554.848 -55.318)" fill="#01b5b6"/><path d="M621.124,84.924a58.22,58.22,0,0,0,8.944-1.893c-6.228-5.988-13.39-11.219-20.1-12.807A37.792,37.792,0,0,1,621.124,84.924Z" transform="translate(-551.586 -69.113)" fill="#01b5b6"/><path d="M602.379,86.816a142.711,142.711,0,0,0,17.562-1.09c-3.9-9.579-10.3-15.94-17.562-16.279Z" transform="translate(-554.848 -69.447)" fill="#01b5b6"/><path d="M629.741,82.173a78.085,78.085,0,0,1-11.178,2.357,63.751,63.751,0,0,1,3.764,21.46h15.622A40.383,40.383,0,0,0,629.741,82.173Z" transform="translate(-547.888 -63.974)" fill="#01b5b6"/><path d="M602.379,105.289h22.909a62.377,62.377,0,0,0-3.74-21.18,152.538,152.538,0,0,1-19.169,1.216Z" transform="translate(-554.848 -63.141)" fill="#01b5b6"/><path d="M637.888,102.3H622.341a63.421,63.421,0,0,1-3.745,21.357A77.737,77.737,0,0,1,629.719,126,40.186,40.186,0,0,0,637.888,102.3Z" transform="translate(-547.873 -55.318)" fill="#01b5b6"/><path d="M621.124,120.68a58.225,58.225,0,0,1,8.944,1.893c-6.228,5.989-13.39,11.221-20.1,12.807A37.792,37.792,0,0,0,621.124,120.68Z" transform="translate(-551.586 -47.412)" fill="#01b5b6"/><path d="M604.1,136.72c-7.173-.335-13.493-6.616-17.341-16.074a140.988,140.988,0,0,1,17.341-1.077Z" transform="translate(-561.568 -47.89)" fill="#01b5b6"/><path d="M605.648,121.9a149.447,149.447,0,0,0-18.824,1.2,61.21,61.21,0,0,1-3.672-20.8h22.5Z" transform="translate(-563.118 -55.318)" fill="#01b5b6"/><path d="M586.183,84.924a58.258,58.258,0,0,1-8.944-1.893c6.228-5.988,13.39-11.219,20.1-12.807A37.8,37.8,0,0,0,586.183,84.924Z" transform="translate(-565.661 -69.113)" fill="#01b5b6"/><path d="M604.164,86.816a142.712,142.712,0,0,1-17.562-1.09c3.9-9.579,10.3-15.94,17.562-16.279Z" transform="translate(-561.634 -69.447)" fill="#01b5b6"/><path d="M577.35,82.173a78.169,78.169,0,0,0,11.178,2.357,63.712,63.712,0,0,0-3.763,21.46H569.143A40.382,40.382,0,0,1,577.35,82.173Z" transform="translate(-569.143 -63.974)" fill="#01b5b6"/><path d="M605.771,105.289H582.864a62.343,62.343,0,0,1,3.738-21.18,152.555,152.555,0,0,0,19.169,1.216Z" transform="translate(-563.242 -63.141)" fill="#01b5b6"/><path d="M569.175,102.3h15.548a63.379,63.379,0,0,0,3.745,21.357A77.728,77.728,0,0,0,577.345,126,40.186,40.186,0,0,1,569.175,102.3Z" transform="translate(-569.129 -55.318)" fill="#01b5b6"/><path d="M586.183,120.68a58.262,58.262,0,0,0-8.944,1.893c6.228,5.989,13.39,11.221,20.1,12.807A37.8,37.8,0,0,1,586.183,120.68Z" transform="translate(-565.661 -47.412)" fill="#01b5b6"/></g><g transform="translate(2.734 42.394)" opacity="0.5"><path d="M602.379,119.569V136.72c7.173-.335,13.493-6.616,17.341-16.074A140.951,140.951,0,0,0,602.379,119.569Z" transform="translate(-554.848 -86.981)" fill="#01b5b6"/><path d="M621.2,119.652a55.779,55.779,0,0,0,2.566-9.337,52.421,52.421,0,0,1-21.391,5.636v2.506A149.486,149.486,0,0,1,621.2,119.652Z" transform="translate(-554.848 -90.961)" fill="#01b5b6"/><path d="M632.59,96.8q-.918,1.484-1.929,2.9h2.085C632.73,98.723,632.675,97.757,632.59,96.8Z" transform="translate(-542.684 -96.776)" fill="#01b5b6"/><path d="M629.719,126a40.19,40.19,0,0,0,8.169-23.7h-6.064a52.93,52.93,0,0,1-10.1,8.586,59.68,59.68,0,0,1-3.133,12.771A77.737,77.737,0,0,1,629.719,126Z" transform="translate(-547.873 -94.41)" fill="#01b5b6"/><path d="M609.965,135.38c6.713-1.586,13.875-6.817,20.1-12.807a58.225,58.225,0,0,0-8.944-1.893A37.792,37.792,0,0,1,609.965,135.38Z" transform="translate(-551.586 -86.504)" fill="#01b5b6"/><path d="M604.1,136.72V119.569a140.988,140.988,0,0,0-17.341,1.077C590.6,130.1,596.924,136.386,604.1,136.72Z" transform="translate(-561.568 -86.981)" fill="#01b5b6"/><path d="M605.316,118.459v-2.507a52.41,52.41,0,0,1-21.393-5.642,55.832,55.832,0,0,0,2.569,9.344A149.447,149.447,0,0,1,605.316,118.459Z" transform="translate(-562.786 -90.964)" fill="#01b5b6"/><path d="M571.241,99.707q-1.019-1.429-1.942-2.925c-.084.967-.14,1.941-.156,2.925Z" transform="translate(-569.143 -96.782)" fill="#01b5b6"/><path d="M577.345,126a77.728,77.728,0,0,1,11.123-2.345,59.6,59.6,0,0,1-3.136-12.781,52.927,52.927,0,0,1-10.079-8.576h-6.078A40.189,40.189,0,0,0,577.345,126Z" transform="translate(-569.129 -94.41)" fill="#01b5b6"/><path d="M586.183,120.68a58.262,58.262,0,0,0-8.944,1.893c6.228,5.989,13.39,11.221,20.1,12.807A37.781,37.781,0,0,1,586.183,120.68Z" transform="translate(-565.661 -86.504)" fill="#01b5b6"/></g><g transform="translate(64.211 79.935)"><g transform="translate(0.413 0.595)"><path d="M614.986,136.889c-.007-.263-.1-6.486,3.715-10.387a11.264,11.264,0,0,1,15.421,0c3.818,3.9,3.731,10.124,3.727,10.385l-5.04-.106c.019-1.21-.362-4.8-2.3-6.769a6.262,6.262,0,0,0-8.19,0c-1.936,1.965-2.314,5.557-2.3,6.774Z" transform="translate(-611.317 -123.449)" fill="#ffcb78"/><path d="M637.933,132.234h-21.2a4.315,4.315,0,0,0-4.315,4.315v21.2a4.315,4.315,0,0,0,4.315,4.315h21.2a4.315,4.315,0,0,0,4.316-4.315v-21.2A4.315,4.315,0,0,0,637.933,132.234ZM630.175,154.7h-5.728l1.247-7.968a2.885,2.885,0,1,1,3.238.03Z" transform="translate(-612.42 -119.671)" fill="#ffcb78"/><g transform="translate(0.529 12.679)"><path d="M638.773,132.315a4.29,4.29,0,0,1,.348,1.695v21.2a4.315,4.315,0,0,1-4.315,4.315h-21.2a4.277,4.277,0,0,1-.818-.083,4.313,4.313,0,0,0,3.967,2.621h21.2a4.315,4.315,0,0,0,4.316-4.315v-21.2A4.313,4.313,0,0,0,638.773,132.315Z" transform="translate(-612.79 -132.315)" fill="#ffcb78" opacity="0.4"/></g></g><path d="M638.239,166.648h-21.2a4.915,4.915,0,0,1-4.91-4.91v-21.2a4.911,4.911,0,0,1,3.532-4.708c.157-2.139.852-6.511,3.841-9.567a11.858,11.858,0,0,1,16.272,0c2.989,3.053,3.691,7.429,3.85,9.57a4.913,4.913,0,0,1,3.522,4.706v21.2A4.915,4.915,0,0,1,638.239,166.648Zm-10.6-42.425a9.785,9.785,0,0,0-7.286,2.874c-2.929,2.995-3.445,7.458-3.531,9.238l-.021.468-.46.087a3.718,3.718,0,0,0-3.02,3.65v21.2a3.726,3.726,0,0,0,3.72,3.721h21.2a3.727,3.727,0,0,0,3.721-3.721v-21.2a3.72,3.72,0,0,0-3.013-3.648l-.458-.089-.023-.466c-.089-1.782-.611-6.25-3.541-9.241A9.783,9.783,0,0,0,627.64,124.223Zm3.535,35.062h-7.118l1.3-8.309a3.48,3.48,0,1,1,4.523.037Zm-5.728-1.19h4.338l-1.194-7.625.316-.212a2.293,2.293,0,1,0-2.568-.024l.306.213Zm9.2-21.276h-14l.046-.636c.07-1,.456-4.4,2.433-6.41a6.853,6.853,0,0,1,9.038,0c1.981,2.009,2.37,5.414,2.441,6.41Zm-12.711-1.19h11.414a9.088,9.088,0,0,0-2.038-5.021,5.68,5.68,0,0,0-7.344,0A9.1,9.1,0,0,0,621.937,135.629Z" transform="translate(-612.131 -123.033)" fill="#fc9e38"/><path d="M613.965,141.76s-.339-6.237.569-7.286,7.6-.506,7.6-.506C618.422,135.261,615.972,136.792,613.965,141.76Z" transform="translate(-611.369 -118.391)" fill="#fff" opacity="0.2"/><path d="M615.738,136.166h1.685s.626-10.118,8.839-11.66C626.262,124.506,617.145,123.235,615.738,136.166Z" transform="translate(-610.58 -122.414)" fill="#fff" opacity="0.4"/></g></g><g transform="translate(255.776 112.384)"><rect width="143.782" height="90.596" rx="5.701" transform="translate(0)" fill="#2d2d39"/><path d="M586.926,149.586a1.125,1.125,0,0,0,1.125,1.125h3.641a1.125,1.125,0,0,0,1.124-1.125V138.271a1.125,1.125,0,0,0-1.124-1.126h-3.641a1.125,1.125,0,0,0-1.125,1.126Zm4.1-11.569a1.124,1.124,0,0,1,1.124,1.124v9.576a1.124,1.124,0,0,1-1.124,1.124h-2.3a1.125,1.125,0,0,1-1.126-1.124v-9.576a1.125,1.125,0,0,1,1.126-1.124Z" transform="translate(-453.461 -98.275)" fill="#fff"/><g transform="translate(10.875 6.531)"><rect width="115.394" height="77.535" fill="#fff"/></g><g transform="translate(0 0.001)" opacity="0.1"><path d="M511.778,109.966,493.6,130.037v62.371a8.146,8.146,0,0,0,4.087,7.06c12.452-19.941,42.006-66.763,56.369-89.5Z" transform="translate(-493.6 -109.966)" fill="#fff"/><path d="M583.157,200.561c11.345-20.589,31.1-55.029,45.231-79.526v-2.916a8.152,8.152,0,0,0-8.153-8.153h-52l-53.72,90.6Z" transform="translate(-484.606 -109.966)" fill="#fff"/><path d="M595.906,190.916a8.152,8.152,0,0,0,8.153-8.153V132.392l-32.982,58.524Z" transform="translate(-460.277 -100.321)" fill="#fff"/></g><g transform="translate(10.875 6.53)"><rect width="115.394" height="8.563" fill="#a6b5d6"/><g transform="translate(6.156 13.892)"><rect width="23.454" height="25.083" fill="#a6b5d6"/><rect width="21.891" height="23.411" transform="translate(0.781 0.836)" fill="#c9dff0"/><path d="M523.8,141.89c0-3.83-1.585-6.935-5.105-6.935h-5.31c-3.521,0-5.105,3.1-5.105,6.935v2H523.8Z" transform="translate(-504.316 -119.64)" fill="#8faac1"/><ellipse cx="4.454" cy="5.272" rx="4.454" ry="5.272" transform="translate(7.273 4.025)" fill="#8faac1"/></g><rect width="17.667" height="3.921" transform="translate(9.05 41.236)" fill="#a6b5d6"/><rect width="17.667" height="3.921" transform="translate(9.05 68.737)" fill="#a6b5d6"/><rect width="18.96" height="4.292" transform="translate(36.938 14.728)" fill="#a6b5d6"/><rect width="7.898" height="7.709" transform="translate(36.938 57.689)" fill="#a6b5d6"/><rect width="99.339" height="0.81" transform="translate(6.938 50.609)" fill="#a6b5d6"/><rect width="69.339" height="4.338" transform="translate(36.938 24.138)" fill="#c9dff0"/><rect width="55.069" height="2.169" transform="translate(51.208 57.689)" fill="#c9dff0"/><rect width="55.069" height="2.169" transform="translate(51.208 63.229)" fill="#c9dff0"/><rect width="7.898" height="6.838" transform="translate(36.938 70.697)" fill="#a6b5d6"/><rect width="55.069" height="2.169" transform="translate(51.208 70.697)" fill="#c9dff0"/><rect width="55.069" height="1.298" transform="translate(51.208 76.238)" fill="#c9dff0"/><rect width="69.339" height="4.338" transform="translate(36.938 32.478)" fill="#c9dff0"/><rect width="69.339" height="4.338" transform="translate(36.938 40.819)" fill="#c9dff0"/><rect width="7.709" height="7.709" transform="translate(9.122 57.689)" fill="#c9dff0"/><rect width="7.709" height="7.709" transform="translate(18.936 57.689)" fill="#c9dff0"/></g><g transform="translate(10.238 5.894)"><path d="M617.426,192.9H500.759V114.087H617.426Zm-115.395-1.273h114.12V115.361H502.032Z" transform="translate(-500.759 -114.087)" fill="#6c6c7f"/></g><g transform="translate(92.271 47.33)"><circle cx="29.607" cy="29.607" r="29.607" transform="translate(0 56.739) rotate(-73.375)" fill="#2d2d39"/><circle cx="28.546" cy="28.546" r="28.546" transform="translate(8.294 8.295)" fill="#fff"/><circle cx="26.468" cy="26.468" r="26.468" transform="translate(10.373 10.373)" fill="url(#a)"/><path d="M609.415,169.989s-4.852-14.337-19.631-14.337-19.629,14.337-19.629,14.337h18.121v18a2.318,2.318,0,0,1-2.315,2.315,2.419,2.419,0,0,1-2.417-2.417,1.509,1.509,0,0,0-3.019,0,5.443,5.443,0,0,0,5.436,5.437,5.341,5.341,0,0,0,5.334-5.336v-18Z" transform="translate(-552.945 -137.646)" fill="#2d2d39"/><path d="M591.036,166.1c-9.617,0-18.334,2.355-24.716,6.172a25.482,25.482,0,0,1,50.312.546C610.184,168.683,601.1,166.1,591.036,166.1Z" transform="translate(-554.594 -139.597)" fill="#fff" opacity="0.2"/><path d="M591.036,178.206c-9.617,0-18.334-2.355-24.716-6.174a25.482,25.482,0,0,0,50.312-.546C610.184,175.623,601.1,178.206,591.036,178.206Z" transform="translate(-554.594 -130.836)" fill="#ffb32c" opacity="0.2"/></g></g><g transform="translate(77.626 26.916)"><rect width="220.314" height="147.925" rx="10.585" transform="translate(0.9 0.899)" fill="#01b5b6"/><path d="M575.1,199.925H385.065a16.055,16.055,0,0,1-16.037-16.036V66.239A16.055,16.055,0,0,1,385.065,50.2H575.1a16.054,16.054,0,0,1,16.036,16.037v117.65A16.054,16.054,0,0,1,575.1,199.925ZM385.065,52a14.256,14.256,0,0,0-14.238,14.239v117.65a14.255,14.255,0,0,0,14.238,14.238H575.1a14.254,14.254,0,0,0,14.238-14.238V66.239A14.255,14.255,0,0,0,575.1,52Z" transform="translate(-369.028 -50.202)" fill="#2d2d39"/><path d="M589.972,146.883a15.137,15.137,0,0,1-15.138,15.138H384.795a15.137,15.137,0,0,1-15.138-15.138V136.242H589.972Z" transform="translate(-368.758 -13.196)" fill="#2d2d39"/><path d="M470.956,186.333H433.638l5.4-38.667h26.528Z" transform="translate(-341.24 -8.283)" fill="#2d2d39"/><path d="M503.121,185.208a8.709,8.709,0,0,0-7.578-8.636l-17.15-2.245h-37.32l-17.15,2.245a8.709,8.709,0,0,0-7.578,8.636Z" transform="translate(-348.677 3.183)" fill="#2d2d39"/><path d="M448.939,140.036a7.494,7.494,0,1,0,7.494,7.494A7.494,7.494,0,0,0,448.939,140.036Zm0,13.339a5.845,5.845,0,1,1,5.845-5.845A5.845,5.845,0,0,1,448.939,153.375Z" transform="translate(-337.882 -11.565)" fill="#fff"/><circle cx="2.435" cy="2.435" r="2.435" transform="translate(129.716 133.687)" fill="#fff"/><circle cx="2.435" cy="2.435" r="2.435" transform="translate(142.193 133.687)" fill="#fff"/><path d="M494.578,181.8l-17.15-2.245-2.488-17.379L459,163.6l-2.627,16.2L419,183.4c-.134.1-.279.184-.408.29h80.357A8.67,8.67,0,0,0,494.578,181.8Z" transform="translate(-347.712 -2.043)" fill="#fff" opacity="0.1"/><g transform="translate(20.758 20.832)"><rect width="9.592" height="9.592" fill="#c0f3ff"/><rect width="9.592" height="2.248" transform="translate(0 11.54)" fill="#c0f3ff"/><g transform="translate(16.186)"><rect width="9.592" height="9.592" fill="#c0f3ff"/><rect width="9.592" height="2.248" transform="translate(0 11.54)" fill="#c0f3ff"/></g><g transform="translate(0 21.282)"><rect width="9.592" height="9.592" fill="#c0f3ff"/><rect width="9.592" height="2.248" transform="translate(0 11.54)" fill="#c0f3ff"/></g><g transform="translate(16.186 21.282)"><rect width="9.592" height="9.592" fill="#c0f3ff"/><rect width="9.592" height="2.248" transform="translate(0 11.54)" fill="#c0f3ff"/></g><g transform="translate(0 43.16)"><rect width="9.592" height="9.592" fill="#c0f3ff"/><rect width="9.592" height="2.248" transform="translate(0 11.54)" fill="#c0f3ff"/></g><g transform="translate(16.186 43.16)"><rect width="9.592" height="9.592" fill="#c0f3ff"/><rect width="9.592" height="2.248" transform="translate(0 11.54)" fill="#c0f3ff"/></g><g transform="translate(172.714 77.393)"><rect width="9.592" height="9.592" fill="#c0f3ff"/><rect width="9.592" height="2.248" transform="translate(0 11.54)" fill="#c0f3ff"/></g><g transform="translate(156.903 77.393)"><rect width="9.592" height="9.592" fill="#c0f3ff"/><rect width="9.592" height="2.248" transform="translate(0 11.54)" fill="#c0f3ff"/></g></g><g transform="translate(13.904 14.388)" opacity="0.3"><rect width="196.069" height="103.862" fill="#00a3a3"/></g><g transform="translate(86.522 32.026)"><g transform="translate(3.485 3.019)"><path d="M474.155,78.45a1.463,1.463,0,0,0-1.084-1.432,85.482,85.482,0,0,0-20.1-2.311,83.273,83.273,0,0,0-19.924,2.307,1.462,1.462,0,0,0-1.078,1.43v41.644a1.5,1.5,0,0,0,.539,1.157l19.765,15.1a1.379,1.379,0,0,0,1.762,0l19.588-15.1a1.5,1.5,0,0,0,.535-1.153V78.45Z" transform="translate(-431.966 -74.707)" fill="#ffcb78"/><path d="M433.028,77.4a1.448,1.448,0,0,0-1.058,1.426v.2l.127,20.455.056,20.593a1.482,1.482,0,0,0,.536,1.144l19.574,14.959a1.368,1.368,0,0,0,1.743,0c.007,0,4.907-3.765,4.914-3.771l14.5-11.179a1.483,1.483,0,0,0,.532-1.141l.066-20.6.127-20.456v-.194a1.452,1.452,0,0,0-1.064-1.427,86.866,86.866,0,0,0-20.116-2.281A84.741,84.741,0,0,0,433.028,77.4Z" transform="translate(-431.964 -74.53)" fill="#ffca77"/><path d="M433.012,77.779a1.434,1.434,0,0,0-1.038,1.42l0,.2.256,20.284.11,20.365a1.472,1.472,0,0,0,.532,1.131l19.384,14.814a1.354,1.354,0,0,0,1.725,0c.013.01,4.859-3.711,4.872-3.723l14.368-11.076a1.479,1.479,0,0,0,.529-1.128l.13-20.382.255-20.286,0-.193a1.438,1.438,0,0,0-1.044-1.423,88.259,88.259,0,0,0-20.13-2.251A86.034,86.034,0,0,0,433.012,77.779Z" transform="translate(-431.963 -74.353)" fill="#ffca76"/><path d="M433,78.161a1.423,1.423,0,0,0-1.021,1.416l0,.194.386,20.114.164,20.137a1.46,1.46,0,0,0,.528,1.118l19.193,14.667a1.341,1.341,0,0,0,1.706.007c.02.016,4.811-3.655,4.831-3.672l14.237-10.975a1.468,1.468,0,0,0,.525-1.117l.2-20.161.382-20.116,0-.192a1.426,1.426,0,0,0-1.024-1.417,89.566,89.566,0,0,0-20.143-2.222A87.419,87.419,0,0,0,433,78.161Z" transform="translate(-431.961 -74.175)" fill="#ffc975"/><path d="M432.982,78.543a1.41,1.41,0,0,0-1,1.41l.006.194.513,19.944L432.72,120a1.446,1.446,0,0,0,.523,1.105l19,14.523a1.33,1.33,0,0,0,1.688.01c.027.021,4.762-3.6,4.789-3.622l14.105-10.874a1.453,1.453,0,0,0,.522-1.1l.262-19.941.508-19.947.006-.189a1.412,1.412,0,0,0-1.005-1.413,90.989,90.989,0,0,0-20.154-2.191A88.966,88.966,0,0,0,432.982,78.543Z" transform="translate(-431.96 -73.998)" fill="#ffc974"/><path d="M432.966,78.925a1.4,1.4,0,0,0-.981,1.406l.007.192.642,19.775.275,19.68a1.437,1.437,0,0,0,.519,1.094l18.813,14.377a1.321,1.321,0,0,0,1.669.013c.033.027,4.715-3.545,4.748-3.572l13.972-10.773a1.447,1.447,0,0,0,.521-1.093l.326-19.721.636-19.777.006-.189a1.4,1.4,0,0,0-.985-1.407,92.445,92.445,0,0,0-20.167-2.161A90.433,90.433,0,0,0,432.966,78.925Z" transform="translate(-431.958 -73.821)" fill="#ffc873"/><path d="M432.95,79.307a1.385,1.385,0,0,0-.961,1.4l.009.19.771,19.605.329,19.452a1.421,1.421,0,0,0,.516,1.08l18.62,14.231a1.309,1.309,0,0,0,1.652.017c.04.033,4.666-3.491,4.706-3.524l13.841-10.67a1.435,1.435,0,0,0,.516-1.08l.392-19.5L474.1,80.9l.007-.187a1.387,1.387,0,0,0-.965-1.4,93.907,93.907,0,0,0-20.18-2.131A91.9,91.9,0,0,0,432.95,79.307Z" transform="translate(-431.956 -73.643)" fill="#ffc872"/><path d="M432.936,79.689a1.374,1.374,0,0,0-.942,1.4l.01.189.9,19.436.385,19.222A1.412,1.412,0,0,0,433.8,121l18.43,14.085a1.3,1.3,0,0,0,1.633.02c.047.039,4.618-3.435,4.665-3.474l13.709-10.568a1.428,1.428,0,0,0,.513-1.068l.456-19.282.891-19.436.009-.186a1.376,1.376,0,0,0-.945-1.4,95.4,95.4,0,0,0-20.193-2.1A93.465,93.465,0,0,0,432.936,79.689Z" transform="translate(-431.955 -73.466)" fill="#ffc771"/><path d="M432.92,80.072a1.359,1.359,0,0,0-.922,1.39l.011.189,1.027,19.266.439,18.993a1.4,1.4,0,0,0,.508,1.055l18.239,13.941a1.285,1.285,0,0,0,1.615.023c.053.044,4.571-3.379,4.624-3.424l13.576-10.467a1.418,1.418,0,0,0,.511-1.057l.522-19.06,1.018-19.268.01-.184a1.363,1.363,0,0,0-.925-1.394A97,97,0,0,0,452.964,78,94.857,94.857,0,0,0,432.92,80.072Z" transform="translate(-431.953 -73.289)" fill="#ffc670"/><path d="M432.9,80.454a1.346,1.346,0,0,0-.9,1.386l.013.187,1.155,19.1.493,18.766a1.393,1.393,0,0,0,.5,1.043l18.049,13.793a1.272,1.272,0,0,0,1.6.027c.06.049,4.522-3.325,4.582-3.375l13.444-10.364a1.411,1.411,0,0,0,.508-1.045l.588-18.84,1.144-19.1.01-.183a1.347,1.347,0,0,0-.9-1.389c-2.36-.692-11.5-2.042-20.22-2.042C444.258,78.416,435.232,79.763,432.9,80.454Z" transform="translate(-431.952 -73.112)" fill="#ffc66f"/><path d="M432.888,80.836a1.337,1.337,0,0,0-.882,1.381l.014.186,1.283,18.926.549,18.537a1.377,1.377,0,0,0,.5,1.03l17.859,13.649a1.261,1.261,0,0,0,1.577.03c.067.054,4.473-3.269,4.541-3.325l13.313-10.264a1.394,1.394,0,0,0,.5-1.031l.654-18.621,1.271-18.927.011-.182a1.337,1.337,0,0,0-.885-1.384c-2.321-.692-11.637-2.012-20.232-2.012C444.386,78.828,435.179,80.145,432.888,80.836Z" transform="translate(-431.95 -72.935)" fill="#ffc56e"/><path d="M432.873,81.217a1.328,1.328,0,0,0-.864,1.377c.006,0,.011.179.017.184l1.411,18.756.6,18.31a1.366,1.366,0,0,0,.5,1.017l17.667,13.5a1.25,1.25,0,0,0,1.559.033c.074.06,4.426-3.215,4.5-3.275l13.181-10.162a1.39,1.39,0,0,0,.5-1.02l.718-18.4,1.4-18.759.013-.179a1.324,1.324,0,0,0-.865-1.38c-2.282-.694-11.777-1.981-20.244-1.981C444.514,79.241,435.126,80.525,432.873,81.217Z" transform="translate(-431.949 -72.757)" fill="#ffc56d"/><path d="M432.858,81.6a1.316,1.316,0,0,0-.845,1.371c.006.006.011.179.019.184l1.54,18.587.656,18.079a1.352,1.352,0,0,0,.493,1L452.2,134.183a1.239,1.239,0,0,0,1.54.037c.08.066,4.378-3.159,4.458-3.226l13.048-10.059a1.378,1.378,0,0,0,.5-1.008l.784-18.181,1.527-18.588.013-.177a1.315,1.315,0,0,0-.845-1.376c-2.245-.694-11.918-1.951-20.257-1.951C444.641,79.653,435.073,80.907,432.858,81.6Z" transform="translate(-431.947 -72.58)" fill="#ffc46c"/><path d="M432.842,81.981a1.3,1.3,0,0,0-.825,1.367c.006.006.013.177.02.182l1.667,18.418.712,17.85a1.346,1.346,0,0,0,.489.992L452.193,134a1.228,1.228,0,0,0,1.522.04c.087.072,4.329-3.1,4.416-3.176l12.917-9.958a1.371,1.371,0,0,0,.495-1l.848-17.961,1.655-18.418.014-.176a1.3,1.3,0,0,0-.825-1.371c-2.207-.7-12.06-1.921-20.27-1.921C444.769,80.065,435.02,81.289,432.842,81.981Z" transform="translate(-431.946 -72.403)" fill="#ffc46b"/><path d="M432.827,82.365a1.293,1.293,0,0,0-.805,1.361c.007.006.013.174.02.18l1.8,18.248.767,17.623a1.331,1.331,0,0,0,.485.978l17.1,13.067a1.215,1.215,0,0,0,1.5.043c.094.077,4.282-3.049,4.375-3.126l12.785-9.856a1.365,1.365,0,0,0,.491-.985l.915-17.74,1.78-18.248c.006,0,.012-.17.016-.174a1.294,1.294,0,0,0-.805-1.367c-2.17-.7-12.2-1.891-20.283-1.891S434.967,81.671,432.827,82.365Z" transform="translate(-431.944 -72.225)" fill="#ffc36a"/><path d="M432.811,82.747a1.282,1.282,0,0,0-.785,1.357c.007.006.014.173.021.179l1.925,18.078.822,17.394a1.323,1.323,0,0,0,.481.967l16.907,12.921a1.2,1.2,0,0,0,1.484.046c.1.083,4.233-2.995,4.333-3.078l12.653-9.755a1.352,1.352,0,0,0,.488-.971l.98-17.522,1.908-18.078c.006-.006.011-.169.017-.173a1.28,1.28,0,0,0-.785-1.361c-2.131-.7-12.343-1.862-20.3-1.862C445.024,80.889,434.915,82.053,432.811,82.747Z" transform="translate(-431.943 -72.048)" fill="#ffc269"/><path d="M432.8,83.129a1.268,1.268,0,0,0-.765,1.351c.007.009.016.172.023.179l2.054,17.908.877,17.167a1.314,1.314,0,0,0,.476.952l16.716,12.775a1.191,1.191,0,0,0,1.466.05c.107.089,4.184-2.939,4.292-3.027l12.52-9.653a1.338,1.338,0,0,0,.485-.96l1.045-17.3,2.035-17.908c.007-.006.013-.166.019-.173a1.27,1.27,0,0,0-.766-1.356c-2.092-.7-12.483-1.832-20.309-1.832C445.153,81.3,434.862,82.435,432.8,83.129Z" transform="translate(-431.941 -71.871)" fill="#ffc268"/><path d="M432.781,83.511a1.259,1.259,0,0,0-.746,1.347c.007.009.016.17.024.177l2.182,17.737.931,16.938a1.3,1.3,0,0,0,.473.941l16.525,12.629a1.181,1.181,0,0,0,1.447.053c.114.094,4.136-2.883,4.25-2.977l12.389-9.552a1.334,1.334,0,0,0,.482-.948l1.11-17.08,2.162-17.739c.007-.006.014-.164.02-.172a1.257,1.257,0,0,0-.747-1.351c-2.054-.7-12.625-1.8-20.322-1.8S434.809,82.817,432.781,83.511Z" transform="translate(-431.94 -71.694)" fill="#ffc167"/><path d="M432.765,83.892a1.248,1.248,0,0,0-.727,1.343c.007.009.017.169.026.176l2.31,17.569.987,16.708a1.285,1.285,0,0,0,.469.928L452.164,133.1a1.172,1.172,0,0,0,1.429.056c.12.1,4.089-2.829,4.209-2.927l12.257-9.45a1.328,1.328,0,0,0,.479-.937l1.174-16.859L474,85.412c.007-.006.014-.162.021-.169A1.249,1.249,0,0,0,473.3,83.9c-2.015-.7-12.766-1.77-20.335-1.77S434.754,83.2,432.765,83.892Z" transform="translate(-431.939 -71.516)" fill="#ffc166"/><path d="M432.749,84.276a1.237,1.237,0,0,0-.706,1.337c.009.009.017.166.027.174l2.438,17.4,1.041,16.48a1.277,1.277,0,0,0,.465.915l16.144,12.337a1.159,1.159,0,0,0,1.41.06,49.459,49.459,0,0,0,4.167-2.879l12.124-9.347a1.313,1.313,0,0,0,.476-.924l1.241-16.641,2.417-17.4c.007-.006.014-.16.022-.167a1.24,1.24,0,0,0-.706-1.343c-1.978-.7-12.907-1.74-20.347-1.74S434.7,83.582,432.749,84.276Z" transform="translate(-431.937 -71.339)" fill="#ffc065"/><path d="M432.734,84.658a1.227,1.227,0,0,0-.688,1.331c.01.01.02.166.03.174l2.567,17.228,1.1,16.252a1.266,1.266,0,0,0,.461.9l15.954,12.193a1.147,1.147,0,0,0,1.391.063,45.93,45.93,0,0,0,4.126-2.829l11.993-9.246a1.313,1.313,0,0,0,.473-.912l1.306-16.42,2.544-17.23c.007-.007.016-.159.023-.166a1.231,1.231,0,0,0-.686-1.339c-1.939-.7-13.048-1.71-20.36-1.71S434.649,83.964,432.734,84.658Z" transform="translate(-431.936 -71.162)" fill="#ffc064"/><path d="M432.719,85.04a1.218,1.218,0,0,0-.668,1.327c.01.01.02.163.031.173l2.694,17.058,1.151,16.023a1.258,1.258,0,0,0,.456.891l15.764,12.047a1.136,1.136,0,0,0,1.373.066,42.489,42.489,0,0,0,4.084-2.779l11.861-9.145a1.3,1.3,0,0,0,.469-.9l1.371-16.2,2.671-17.06c.009-.007.016-.157.024-.164a1.219,1.219,0,0,0-.666-1.333c-1.9-.7-13.19-1.682-20.375-1.682C445.793,83.362,434.6,84.347,432.719,85.04Z" transform="translate(-431.935 -70.985)" fill="#ffbf63"/><path d="M432.7,85.421a1.209,1.209,0,0,0-.649,1.323c.01.01.021.162.033.17l2.823,16.889,1.206,15.8a1.238,1.238,0,0,0,.453.877l15.572,11.9a1.124,1.124,0,0,0,1.354.07,39.4,39.4,0,0,0,4.043-2.73l11.73-9.042a1.288,1.288,0,0,0,.466-.888l1.436-15.98,2.8-16.889c.009-.007.017-.156.026-.163a1.211,1.211,0,0,0-.646-1.329c-1.863-.7-13.331-1.652-20.387-1.652S434.542,84.731,432.7,85.421Z" transform="translate(-431.934 -70.807)" fill="#ffbe62"/><path d="M432.689,85.8a1.2,1.2,0,0,0-.629,1.319c.01.01.022.16.034.169l2.952,16.719,1.26,15.567a1.235,1.235,0,0,0,.449.865L452.137,132.2a1.113,1.113,0,0,0,1.336.073,36.581,36.581,0,0,0,4-2.68l11.6-8.941a1.282,1.282,0,0,0,.463-.875l1.5-15.761,2.926-16.719c.01-.009.019-.153.027-.162a1.2,1.2,0,0,0-.628-1.324c-1.823-.7-13.471-1.622-20.4-1.622S434.489,85.114,432.689,85.8Z" transform="translate(-431.932 -70.63)" fill="#ffbe61"/><path d="M432.673,86.185a1.191,1.191,0,0,0-.609,1.313c.011.011.023.159.036.169l3.079,16.551,1.316,15.338a1.218,1.218,0,0,0,.445.851l15.192,11.611a1.1,1.1,0,0,0,1.317.076,34.084,34.084,0,0,0,3.96-2.63l11.465-8.839a1.276,1.276,0,0,0,.46-.864l1.567-15.541,3.052-16.549c.01-.009.02-.152.029-.16a1.19,1.19,0,0,0-.608-1.32c-1.785-.7-13.613-1.592-20.412-1.592S434.437,85.5,432.673,86.185Z" transform="translate(-431.931 -70.453)" fill="#ffbd60"/><path d="M432.658,86.568a1.177,1.177,0,0,0-.589,1.307c.011.011.023.157.036.167l3.209,16.38,1.37,15.109a1.211,1.211,0,0,0,.44.839l15,11.464a1.093,1.093,0,0,0,1.3.08,31.7,31.7,0,0,0,3.918-2.581l11.334-8.736a1.266,1.266,0,0,0,.456-.852l1.633-15.319,3.179-16.382c.01-.007.02-.149.03-.157a1.182,1.182,0,0,0-.588-1.316c-1.748-.694-13.755-1.56-20.425-1.56S434.384,85.881,432.658,86.568Z" transform="translate(-431.93 -70.275)" fill="#ffbd5f"/><path d="M432.642,86.95a1.17,1.17,0,0,0-.569,1.3c.011.011.024.154.037.166l3.338,16.21,1.424,14.88a1.2,1.2,0,0,0,.436.827l14.811,11.319a1.08,1.08,0,0,0,1.28.083c.174.143,3.7-2.387,3.877-2.531l11.2-8.635a1.267,1.267,0,0,0,.453-.841l1.7-15.1,3.306-16.212c.011-.009.021-.147.031-.157a1.172,1.172,0,0,0-.568-1.31c-1.709-.692-13.895-1.53-20.438-1.53S434.33,86.264,432.642,86.95Z" transform="translate(-431.929 -70.098)" fill="#ffbc5e"/><path d="M432.629,87.332a1.16,1.16,0,0,0-.551,1.3c.011.011.026.153.039.164l3.465,16.04,1.48,14.653a1.182,1.182,0,0,0,.433.812l14.62,11.175a1.073,1.073,0,0,0,1.261.087c.182.147,3.655-2.334,3.836-2.483l11.069-8.535a1.246,1.246,0,0,0,.451-.827l1.763-14.88L473.93,88.8c.01-.009.022-.146.031-.156a1.161,1.161,0,0,0-.548-1.3c-1.67-.691-14.036-1.5-20.452-1.5S434.278,86.647,432.629,87.332Z" transform="translate(-431.928 -69.921)" fill="#ffbc5d"/><path d="M432.614,87.714a1.153,1.153,0,0,0-.532,1.293c.014.014.027.153.041.164l3.594,15.87,1.535,14.424a1.175,1.175,0,0,0,.429.8l14.43,11.027a1.061,1.061,0,0,0,1.243.092c.187.153,3.607-2.278,3.794-2.434l10.937-8.432a1.238,1.238,0,0,0,.448-.815l1.828-14.66,3.562-15.871c.011-.01.021-.144.033-.154a1.154,1.154,0,0,0-.528-1.3c-1.633-.689-14.178-1.472-20.465-1.472S434.225,87.032,432.614,87.714Z" transform="translate(-431.927 -69.744)" fill="#ffbb5c"/><path d="M432.6,88.1a1.146,1.146,0,0,0-.512,1.289c.014.014.029.15.043.163l3.723,15.7,1.589,14.194a1.162,1.162,0,0,0,.425.788L452.1,131.114a1.051,1.051,0,0,0,1.224.094c.194.159,3.558-2.224,3.753-2.384l10.806-8.33a1.238,1.238,0,0,0,.443-.8l1.895-14.44,3.688-15.7c.011-.01.023-.142.034-.153a1.147,1.147,0,0,0-.509-1.3c-1.593-.686-14.318-1.442-20.476-1.442S434.173,87.417,432.6,88.1Z" transform="translate(-431.926 -69.566)" fill="#ffba5b"/><path d="M432.583,88.478a1.138,1.138,0,0,0-.492,1.284c.014.014.029.149.044.16l3.85,15.532,1.645,13.966a1.16,1.16,0,0,0,.421.775L452.1,130.934a1.044,1.044,0,0,0,1.206.1c.2.164,3.511-2.168,3.711-2.334l10.674-8.229a1.231,1.231,0,0,0,.44-.792l1.959-14.219,3.816-15.531c.013-.01.024-.14.034-.152a1.135,1.135,0,0,0-.488-1.291c-1.555-.685-14.46-1.412-20.489-1.412S434.119,87.8,432.583,88.478Z" transform="translate(-431.925 -69.389)" fill="#ffba5a"/><path d="M432.568,88.862a1.129,1.129,0,0,0-.472,1.279c.014.014.03.146.046.159l3.979,15.362,1.7,13.738a1.144,1.144,0,0,0,.416.762l13.859,10.591a1.032,1.032,0,0,0,1.187.1c.207.17,3.462-2.114,3.67-2.284l10.541-8.127a1.222,1.222,0,0,0,.439-.779l2.023-14L473.9,90.3c.013-.011.024-.139.036-.15a1.233,1.233,0,0,0-.468-1.287,198.62,198.62,0,0,0-20.5-1.381C447.073,87.483,434.066,88.187,432.568,88.862Z" transform="translate(-431.924 -69.212)" fill="#ffb959"/><path d="M432.553,89.243a1.225,1.225,0,0,0-.453,1.273c.014.016.03.146.047.159l4.106,15.192,1.755,13.51a1.133,1.133,0,0,0,.413.749l13.667,10.445a1.02,1.02,0,0,0,1.168.1c.215.176,3.414-2.058,3.628-2.235l10.41-8.024a1.223,1.223,0,0,0,.435-.768l2.089-13.78,4.07-15.192c.013-.01.026-.136.037-.147a1.226,1.226,0,0,0-.448-1.281c-1.577-.4-14.743-1.351-20.515-1.351S434.11,88.846,432.553,89.243Z" transform="translate(-431.922 -69.034)" fill="#ffb958"/><path d="M432.538,89.625a1.221,1.221,0,0,0-.433,1.268c.016.016.031.143.049.157l4.235,15.022,1.809,13.281a1.12,1.12,0,0,0,.409.736l13.477,10.3a1.011,1.011,0,0,0,1.15.107c.222.182,3.366-2,3.587-2.185l10.278-7.924a1.209,1.209,0,0,0,.432-.755l2.154-13.559,4.2-15.023c.014-.01.027-.134.039-.146a1.226,1.226,0,0,0-.428-1.277c-1.543-.388-14.884-1.321-20.529-1.321S434.061,89.236,432.538,89.625Z" transform="translate(-431.921 -68.857)" fill="#ffb857"/><path d="M432.523,90.007a1.222,1.222,0,0,0-.413,1.264c.016.016.031.142.05.156l4.363,14.852,1.863,13.052a1.12,1.12,0,0,0,.4.725l13.287,10.155a1,1,0,0,0,1.131.11c.227.186,3.318-1.948,3.545-2.135l10.145-7.823a1.2,1.2,0,0,0,.429-.744l2.221-13.339,4.325-14.853c.013-.011.026-.133.039-.144a1.224,1.224,0,0,0-.408-1.273C472,89.632,458.48,88.72,452.963,88.72S434.011,89.627,432.523,90.007Z" transform="translate(-431.92 -68.68)" fill="#ffb856"/><path d="M432.507,90.389a1.219,1.219,0,0,0-.393,1.26c.016.016.033.14.05.154l4.492,14.683,1.919,12.824a1.1,1.1,0,0,0,.4.711l13.1,10.009a.99.99,0,0,0,1.113.114c.234.192,3.269-1.892,3.5-2.087l10.013-7.72a1.2,1.2,0,0,0,.426-.732l2.285-13.118L473.866,91.8c.014-.011.027-.13.04-.143a1.221,1.221,0,0,0-.389-1.269c-1.472-.37-15.165-1.261-20.553-1.261S433.962,90.019,432.507,90.389Z" transform="translate(-431.92 -68.503)" fill="#ffb755"/><path d="M432.492,90.771a1.219,1.219,0,0,0-.373,1.254c.016.017.033.139.052.154l4.621,14.513,1.974,12.595a1.1,1.1,0,0,0,.4.7l12.907,9.863a.982.982,0,0,0,1.094.117c.242.2,3.222-1.838,3.462-2.036l9.882-7.618a1.191,1.191,0,0,0,.422-.719l2.351-12.9,4.579-14.513c.014-.013.029-.129.042-.142a1.22,1.22,0,0,0-.369-1.264c-1.437-.36-15.306-1.231-20.566-1.231S433.912,90.409,432.492,90.771Z" transform="translate(-431.919 -68.326)" fill="#ffb654"/><path d="M432.479,91.154a1.215,1.215,0,0,0-.356,1.248c.017.017.036.137.054.153l4.749,14.342,2.028,12.366a1.092,1.092,0,0,0,.392.686l12.716,9.719a.976.976,0,0,0,1.075.12c.249.2,3.173-1.782,3.421-1.986l9.75-7.517a1.189,1.189,0,0,0,.419-.708l2.415-12.679,4.706-14.342c.014-.013.03-.127.043-.142a1.22,1.22,0,0,0-.349-1.258c-1.4-.352-15.448-1.2-20.579-1.2S433.863,90.8,432.479,91.154Z" transform="translate(-431.918 -68.148)" fill="#ffb653"/><path d="M432.464,91.536a1.215,1.215,0,0,0-.336,1.244c.019.017.037.134.056.152L437.06,107.1l2.084,12.139a1.079,1.079,0,0,0,.389.674l12.525,9.572a.962.962,0,0,0,1.057.124c.255.209,3.125-1.728,3.379-1.938l9.617-7.415a1.175,1.175,0,0,0,.416-.7l2.481-12.459,4.834-14.172c.016-.013.03-.126.044-.14a1.216,1.216,0,0,0-.329-1.253c-1.367-.345-15.59-1.173-20.592-1.173S433.814,91.192,432.464,91.536Z" transform="translate(-431.918 -67.971)" fill="#ffb552"/><path d="M432.449,91.918a1.216,1.216,0,0,0-.316,1.24c.019.017.037.133.057.149l5.005,14,2.138,11.91a1.066,1.066,0,0,0,.385.661l12.335,9.427a.954.954,0,0,0,1.038.127c.262.215,3.076-1.672,3.338-1.888l9.486-7.314a1.173,1.173,0,0,0,.413-.684l2.547-12.239,4.96-14c.016-.013.031-.123.046-.137a1.218,1.218,0,0,0-.309-1.248c-1.333-.335-15.731-1.141-20.606-1.141S433.765,91.582,432.449,91.918Z" transform="translate(-431.917 -67.794)" fill="#ffb552"/><path d="M432.434,92.3a1.213,1.213,0,0,0-.3,1.234c.019.019.039.133.059.149l5.134,13.835,2.192,11.681a1.062,1.062,0,0,0,.38.648l12.143,9.281a.949.949,0,0,0,1.021.13c.269.22,3.029-1.617,3.3-1.838l9.354-7.212a1.171,1.171,0,0,0,.409-.671l2.613-12.02,5.087-13.833c.017-.013.033-.122.047-.136a1.218,1.218,0,0,0-.289-1.244c-1.3-.326-15.873-1.111-20.619-1.111S433.715,91.972,432.434,92.3Z" transform="translate(-431.916 -67.616)" fill="#ffb451"/><path d="M432.419,92.682a1.218,1.218,0,0,0-.276,1.23c.019.02.039.13.06.147l5.261,13.665,2.248,11.452a1.057,1.057,0,0,0,.376.635l11.953,9.135a.938.938,0,0,0,1,.134c.275.226,2.98-1.562,3.255-1.788l9.223-7.11a1.168,1.168,0,0,0,.406-.659l2.677-11.8L473.82,94.06c.016-.013.031-.119.047-.134a1.222,1.222,0,0,0-.269-1.24c-1.263-.317-16.013-1.081-20.632-1.081S433.666,92.364,432.419,92.682Z" transform="translate(-431.916 -67.439)" fill="#ffb450"/><path d="M432.406,93.064a1.215,1.215,0,0,0-.257,1.226c.019.02.04.129.062.146l5.39,13.494,2.3,11.223a1.048,1.048,0,0,0,.372.624l11.763,8.99c.236.193.749.33.984.137.282.23,2.932-1.506,3.213-1.739l9.09-7.007a1.161,1.161,0,0,0,.4-.648l2.743-11.578,5.343-13.494c.017-.014.033-.117.049-.133a1.216,1.216,0,0,0-.25-1.236c-1.227-.307-16.153-1.051-20.643-1.051S433.617,92.755,432.406,93.064Z" transform="translate(-431.915 -67.262)" fill="#ffb34f"/><path d="M432.391,93.447a1.216,1.216,0,0,0-.237,1.22c.02.02.04.126.063.144l5.519,13.324,2.357,11a1.033,1.033,0,0,0,.369.609l11.571,8.845c.229.186.738.327.965.14.289.236,2.885-1.452,3.172-1.689l8.958-6.906a1.161,1.161,0,0,0,.4-.636l2.807-11.358,5.47-13.324c.017-.014.034-.116.05-.132a1.221,1.221,0,0,0-.23-1.231c-1.191-.3-16.295-1.021-20.656-1.021S433.568,93.147,432.391,93.447Z" transform="translate(-431.915 -67.085)" fill="#ffb24e"/><path d="M432.376,93.829a1.216,1.216,0,0,0-.217,1.214c.02.021.041.126.064.144l5.646,13.154,2.413,10.767a1.036,1.036,0,0,0,.365.6l11.381,8.7c.222.182.725.327.947.144.295.242,2.836-1.4,3.13-1.639l8.827-6.806a1.159,1.159,0,0,0,.4-.622l2.873-11.139,5.6-13.154c.017-.016.034-.114.051-.13a1.219,1.219,0,0,0-.21-1.226c-1.157-.292-16.436-.992-20.669-.992S433.519,93.537,432.376,93.829Z" transform="translate(-431.915 -66.908)" fill="#ffb24d"/><path d="M432.362,94.211a1.22,1.22,0,0,0-.2,1.21c.021.021.043.124.067.143l5.775,12.984,2.467,10.54a1.021,1.021,0,0,0,.36.583l11.19,8.553c.216.176.714.325.928.147.3.247,2.787-1.341,3.089-1.59l8.695-6.7a1.158,1.158,0,0,0,.393-.611l2.939-10.919,5.723-12.984c.019-.016.036-.113.053-.129a1.225,1.225,0,0,0-.19-1.221c-1.123-.282-16.578-.962-20.684-.962S433.47,93.928,432.362,94.211Z" transform="translate(-431.914 -66.73)" fill="#ffb14c"/><path d="M432.348,94.593a1.227,1.227,0,0,0-.179,1.206c.021.021.044.122.067.142l5.9,12.815,2.521,10.31a1.018,1.018,0,0,0,.356.572l11,8.408c.209.17.7.322.91.15.309.253,2.74-1.286,3.048-1.54l8.562-6.6a1.163,1.163,0,0,0,.392-.6l3-10.7,5.85-12.815c.019-.014.037-.11.054-.126a1.227,1.227,0,0,0-.17-1.217c-1.087-.273-16.719-.932-20.7-.932S433.421,94.32,432.348,94.593Z" transform="translate(-431.914 -66.553)" fill="#ffb14b"/><path d="M432.335,94.975a1.226,1.226,0,0,0-.16,1.2c.021.021.044.12.069.14l6.032,12.645,2.577,10.081a1.008,1.008,0,0,0,.352.559l10.81,8.262c.2.166.689.32.891.154.315.259,2.691-1.231,3.006-1.49l8.43-6.5a1.152,1.152,0,0,0,.388-.588l3.069-10.478,5.978-12.645c.02-.016.037-.109.056-.126a1.228,1.228,0,0,0-.15-1.211c-1.053-.265-16.861-.9-20.709-.9S433.373,94.71,432.335,94.975Z" transform="translate(-431.914 -66.376)" fill="#ffb04a"/><path d="M432.32,95.357a1.231,1.231,0,0,0-.14,1.2c.023.023.046.119.07.139l6.161,12.476,2.631,9.853a1.011,1.011,0,0,0,.349.546l10.619,8.116c.194.16.678.317.872.157.322.265,2.643-1.176,2.965-1.442l8.3-6.4c.127-.106.385-.406.385-.575l3.133-10.26,6.107-12.475c.019-.016.037-.106.056-.124a1.232,1.232,0,0,0-.132-1.207c-1.017-.255-17-.871-20.721-.871S433.324,95.1,432.32,95.357Z" transform="translate(-431.914 -66.198)" fill="#ffb049"/><path d="M432.306,95.74a1.232,1.232,0,0,0-.12,1.19c.023.023.047.117.071.137l6.288,12.306L441.233,119a1,1,0,0,0,.345.533l10.428,7.971c.189.153.666.316.854.16.329.27,2.6-1.121,2.923-1.391l8.166-6.3c.123-.1.382-.4.382-.563l3.2-10.039,6.232-12.3c.02-.016.039-.1.057-.123a1.236,1.236,0,0,0-.112-1.2c-.981-.246-17.141-.841-20.734-.841S433.275,95.493,432.306,95.74Z" transform="translate(-431.914 -66.021)" fill="#ffaf48"/><path d="M432.292,96.122a1.236,1.236,0,0,0-.1,1.186c.023.023.047.116.073.136l6.417,12.136,2.74,9.4a1,1,0,0,0,.342.522L452,127.322c.182.147.654.313.835.163.336.276,2.547-1.065,2.882-1.341l8.034-6.2c.119-.1.379-.393.379-.551l3.265-9.818,6.36-12.136c.02-.017.04-.1.059-.122a1.241,1.241,0,0,0-.092-1.2c-.947-.239-17.283-.812-20.746-.812S433.227,95.883,432.292,96.122Z" transform="translate(-431.914 -65.844)" fill="#ffae47"/><path d="M432.278,96.5a1.245,1.245,0,0,0-.08,1.181c.023.023.049.113.074.134l6.546,11.967,2.794,9.167a1,1,0,0,0,.337.508L452,127.141c.174.143.642.312.817.167.342.28,2.5-1.01,2.84-1.293l7.9-6.092c.114-.094.375-.388.375-.539l3.331-9.6,6.487-11.966c.02-.017.04-.1.06-.12a1.245,1.245,0,0,0-.071-1.193c-.911-.229-17.424-.782-20.759-.782S433.179,96.274,432.278,96.5Z" transform="translate(-431.914 -65.667)" fill="#ffae46"/><path d="M432.265,96.886a1.244,1.244,0,0,0-.062,1.176c.023.024.049.113.076.134l6.673,11.8,2.85,8.938c0,.147.223.406.333.5l9.858,7.534c.169.137.631.309.8.17.349.286,2.451-.955,2.8-1.243l7.771-5.991c.109-.09.372-.382.372-.526l3.4-9.379,6.614-11.8c.021-.019.041-.1.06-.119a1.251,1.251,0,0,0-.05-1.188c-.877-.22-17.566-.752-20.774-.752S433.13,96.666,432.265,96.886Z" transform="translate(-431.915 -65.49)" fill="#ffad45"/><path d="M432.259,97.268a1.1,1.1,0,0,0-.041,1.171.765.765,0,0,0,.077.133l6.8,11.627,2.9,8.711c0,.14.223.4.329.482L452,126.781c.162.132.618.306.779.173.356.292,2.4-.9,2.757-1.193l7.638-5.889c.106-.087.369-.375.369-.515L467,110.2l6.742-11.627c.021-.017.046-.093.061-.116a1.1,1.1,0,0,0-.03-1.184c-.842-.212-17.707-.722-20.786-.722S433.09,97.056,432.259,97.268Z" transform="translate(-431.923 -65.312)" fill="#ffad44"/><path d="M432.245,97.651a1.107,1.107,0,0,0-.023,1.166.879.879,0,0,0,.08.132l6.93,11.457,2.959,8.482c0,.134.223.388.326.47l9.476,7.242c.154.127.606.3.761.177.362.3,2.354-.845,2.716-1.143l7.507-5.788c.1-.084.366-.369.366-.5l3.527-8.938,6.867-11.457c.023-.017.047-.092.063-.114a1.111,1.111,0,0,0-.011-1.18c-.805-.2-17.848-.691-20.8-.691S433.042,97.446,432.245,97.651Z" transform="translate(-431.923 -65.135)" fill="#ffac43"/><path d="M432.231,98.033a1.115,1.115,0,0,0,0,1.161.948.948,0,0,0,.082.13l7.058,11.286,3.015,8.253c0,.129.225.379.322.458l9.286,7.1c.147.122.595.3.742.18.369.3,2.307-.789,2.674-1.094l7.375-5.685c.1-.08.362-.363.362-.492l3.592-8.718,7-11.286a.963.963,0,0,0,.063-.113,1.119,1.119,0,0,0,.009-1.176c-.771-.193-17.989-.661-20.811-.661S432.993,97.838,432.231,98.033Z" transform="translate(-431.923 -64.958)" fill="#ffac42"/><path d="M432.217,98.415a1.125,1.125,0,0,0,.017,1.156.789.789,0,0,0,.082.129l7.188,11.118,3.069,8.026c0,.123.225.369.317.445l9.1,6.952c.142.114.582.3.724.184.376.307,2.258-.737,2.633-1.045l7.243-5.585c.092-.076.359-.356.359-.479l3.657-8.5L473.724,99.7a.946.946,0,0,0,.064-.112,1.129,1.129,0,0,0,.029-1.17c-.737-.186-18.129-.632-20.824-.632S432.944,98.229,432.217,98.415Z" transform="translate(-431.923 -64.78)" fill="#ffab41"/><path d="M432.2,98.8a1.131,1.131,0,0,0,.036,1.151.885.885,0,0,0,.083.127l7.316,10.949,3.123,7.8c0,.117.225.36.313.432l8.905,6.806c.134.11.571.3.705.189.382.313,2.209-.681,2.591-1l7.11-5.483c.089-.073.356-.35.356-.466l3.723-8.279,7.251-10.946a.775.775,0,0,0,.066-.11,1.139,1.139,0,0,0,.049-1.166c-.7-.176-18.271-.6-20.836-.6S432.9,98.619,432.2,98.8Z" transform="translate(-431.924 -64.603)" fill="#ffaa40"/><path d="M432.19,99.179a1.146,1.146,0,0,0,.056,1.147.844.844,0,0,0,.084.126l7.444,10.779,3.179,7.567c0,.112.226.352.309.42l8.715,6.66c.127.1.559.3.686.192.389.319,2.161-.625,2.55-.947l6.979-5.38c.083-.069.353-.345.353-.455l3.787-8.057,7.378-10.777a.945.945,0,0,0,.067-.11,1.147,1.147,0,0,0,.069-1.16c-.666-.167-18.413-.572-20.851-.572S432.848,99.011,432.19,99.179Z" transform="translate(-431.924 -64.426)" fill="#ffaa3f"/><path d="M432.176,99.561a1.157,1.157,0,0,0,.076,1.143.836.836,0,0,0,.086.124l7.572,10.608,3.233,7.339c0,.106.226.342.306.406l8.523,6.516c.12.1.546.293.668.194.4.323,2.114-.571,2.508-.9L462,119.717c.079-.066.35-.338.35-.443l3.853-7.837,7.5-10.607a.779.779,0,0,0,.069-.109,1.161,1.161,0,0,0,.089-1.156c-.632-.159-18.554-.542-20.864-.542S432.8,99.4,432.176,99.561Z" transform="translate(-431.925 -64.249)" fill="#ffa93e"/><path d="M432.163,99.944a1.168,1.168,0,0,0,.1,1.135.84.84,0,0,0,.087.124l7.7,10.438,3.288,7.11c0,.1.226.333.3.395l8.333,6.368c.114.094.535.292.649.2.4.329,2.065-.515,2.467-.847l6.716-5.177c.074-.061.346-.332.346-.432l3.918-7.617L473.7,101.2a.752.752,0,0,0,.07-.106,1.177,1.177,0,0,0,.109-1.151c-.6-.149-18.7-.512-20.877-.512S432.752,99.793,432.163,99.944Z" transform="translate(-431.925 -64.072)" fill="#ffa93d"/><path d="M432.151,100.326a1.177,1.177,0,0,0,.114,1.131.842.842,0,0,0,.089.123l7.828,10.268,3.344,6.883c0,.093.226.323.3.38l8.143,6.224c.107.089.523.29.631.2.409.335,2.016-.46,2.425-.8l6.583-5.075c.07-.057.345-.325.345-.418l3.983-7.4,7.758-10.268a.756.756,0,0,0,.071-.1,1.186,1.186,0,0,0,.127-1.147c-.561-.14-18.836-.481-20.888-.481S432.7,100.184,432.151,100.326Z" transform="translate(-431.926 -63.894)" fill="#ffa83c"/><path d="M432.137,100.708a1.2,1.2,0,0,0,.133,1.127.963.963,0,0,0,.092.122l7.957,10.1,3.4,6.654c0,.087.227.315.293.369l7.953,6.078c.1.082.512.287.612.2.416.34,1.969-.4,2.384-.748l6.451-4.974c.066-.054.34-.319.34-.406l4.049-7.178,7.886-10.1a.663.663,0,0,0,.073-.1,1.2,1.2,0,0,0,.147-1.141c-.526-.133-18.977-.452-20.9-.452S432.656,100.575,432.137,100.708Z" transform="translate(-431.927 -63.717)" fill="#ffa83b"/><path d="M432.124,101.09a1.214,1.214,0,0,0,.153,1.123.933.933,0,0,0,.093.12l8.086,9.929,3.452,6.424c0,.083.227.306.289.356l7.763,5.932c.094.077.5.286.594.209.423.346,1.921-.35,2.342-.7l6.32-4.872c.062-.05.337-.313.337-.395l4.113-6.957,8.014-9.928a1.1,1.1,0,0,0,.073-.1,1.216,1.216,0,0,0,.167-1.137c-.491-.123-19.119-.422-20.914-.422S432.609,100.967,432.124,101.09Z" transform="translate(-431.928 -63.54)" fill="#ffa73a"/><path d="M432.111,101.472a1.226,1.226,0,0,0,.173,1.117.97.97,0,0,0,.094.12l8.213,9.759,3.508,6.2c0,.076.227.3.286.343l7.571,5.786c.087.071.488.283.575.212.429.352,1.872-.295,2.3-.648l6.187-4.771c.057-.047.335-.307.335-.383l4.18-6.737,8.14-9.758a.864.864,0,0,0,.074-.1,1.236,1.236,0,0,0,.187-1.133c-.456-.114-19.259-.392-20.928-.392S432.562,101.357,432.111,101.472Z" transform="translate(-431.93 -63.362)" fill="#ffa639"/><path d="M432.1,101.854a1.248,1.248,0,0,0,.193,1.113.838.838,0,0,0,.1.117l8.342,9.59,3.562,5.968c0,.07.229.287.282.33l7.381,5.642c.08.066.476.28.556.215.436.358,1.825-.24,2.26-.6l6.055-4.668c.053-.044.332-.3.332-.37l4.245-6.518,8.267-9.587a.86.86,0,0,0,.076-.1,1.252,1.252,0,0,0,.207-1.128c-.42-.106-19.4-.362-20.941-.362S432.515,101.748,432.1,101.854Z" transform="translate(-431.931 -63.185)" fill="#ffa638"/><path d="M432.087,102.237a1.258,1.258,0,0,0,.212,1.107.835.835,0,0,0,.1.116l8.469,9.42,3.618,5.739c0,.066.229.279.277.319l7.191,5.494c.073.061.463.279.538.219.443.363,1.776-.184,2.218-.549l5.923-4.566c.049-.04.328-.295.328-.359l4.31-6.3,8.395-9.417a1,1,0,0,0,.077-.1,1.27,1.27,0,0,0,.227-1.124c-.386-.1-19.542-.332-20.954-.332S432.468,102.14,432.087,102.237Z" transform="translate(-431.933 -63.008)" fill="#ffa537"/><path d="M432.075,102.619a1.277,1.277,0,0,0,.232,1.1.932.932,0,0,0,.1.114l8.6,9.25,3.672,5.512c0,.059.229.269.273.3l7,5.35c.067.056.452.277.519.222.449.368,1.728-.129,2.177-.5l5.792-4.466c.043-.036.325-.287.325-.346l4.375-6.076,8.522-9.25a.832.832,0,0,0,.079-.094,1.287,1.287,0,0,0,.246-1.12c-.35-.087-19.682-.3-20.965-.3S432.421,102.53,432.075,102.619Z" transform="translate(-431.935 -62.831)" fill="#ffa536"/><path d="M432.063,103a1.3,1.3,0,0,0,.252,1.1.937.937,0,0,0,.1.114l8.728,9.081,3.727,5.281c0,.053.229.26.269.293l6.81,5.2c.06.049.44.275.5.225.456.373,1.68-.074,2.135-.45l5.659-4.363c.04-.033.322-.282.322-.335l4.44-5.856,8.649-9.08a.84.84,0,0,0,.08-.094A1.3,1.3,0,0,0,474,103c-.315-.08-19.824-.272-20.978-.272S432.374,102.92,432.063,103Z" transform="translate(-431.937 -62.653)" fill="#ffa435"/><path d="M432.051,103.382a1.317,1.317,0,0,0,.272,1.093.944.944,0,0,0,.1.113l8.855,8.911,3.783,5.054c0,.046.23.25.265.279l6.62,5.06c.053.043.428.272.482.227.463.379,1.632-.019,2.094-.4l5.527-4.262c.036-.029.319-.276.319-.322l4.506-5.637,8.775-8.91a.839.839,0,0,0,.081-.093,1.32,1.32,0,0,0,.286-1.108c-.28-.07-19.966-.242-20.991-.242S432.328,103.312,432.051,103.382Z" transform="translate(-431.939 -62.476)" fill="#ffa434"/><path d="M432.039,103.764a1.34,1.34,0,0,0,.292,1.088,1.064,1.064,0,0,0,.1.112l8.984,8.741,3.837,4.825c0,.041.23.242.262.267l6.428,4.912c.046.039.416.27.463.232.469.385,1.583.036,2.052-.35l5.4-4.16a2.087,2.087,0,0,0,.315-.31l4.572-5.417,8.9-8.739c.027-.023.056-.064.082-.092a1.346,1.346,0,0,0,.306-1.1c-.246-.061-20.107-.212-21.005-.212S432.282,103.7,432.039,103.764Z" transform="translate(-431.942 -62.299)" fill="#ffa333"/><path d="M432.029,104.146a1.36,1.36,0,0,0,.309,1.084,1.262,1.262,0,0,0,.1.11l9.113,8.571,3.891,4.6c0,.036.23.233.257.255l6.238,4.768c.04.033.4.267.445.235.476.39,1.536.092,2.011-.3l5.264-4.057a2.3,2.3,0,0,0,.312-.3l4.636-5.2,9.031-8.569c.029-.024.057-.063.083-.09a1.367,1.367,0,0,0,.326-1.1c-.21-.053-20.247-.182-21.018-.182S432.236,104.093,432.029,104.146Z" transform="translate(-431.945 -62.122)" fill="#ffa232"/><path d="M432.018,104.53a1.376,1.376,0,0,0,.329,1.077,1.1,1.1,0,0,0,.106.11l9.24,8.4,3.947,4.369a1.853,1.853,0,0,0,.253.242l6.048,4.622c.033.027.392.265.426.237a1.814,1.814,0,0,0,1.969-.252l5.131-3.956a2.5,2.5,0,0,0,.31-.287l4.7-4.977,9.158-8.4c.029-.024.059-.062.084-.089a1.384,1.384,0,0,0,.346-1.1c-.176-.043-20.389-.152-21.031-.152S432.191,104.485,432.018,104.53Z" transform="translate(-431.948 -61.944)" fill="#ffa231"/><path d="M432.007,104.912a1.406,1.406,0,0,0,.349,1.073,1.28,1.28,0,0,0,.107.109l9.369,8.23,4,4.14a2.01,2.01,0,0,0,.249.229l5.858,4.476a1.873,1.873,0,0,0,.408.242,1.713,1.713,0,0,0,1.928-.2l5-3.856a3.149,3.149,0,0,0,.306-.273l4.766-4.758,9.286-8.229c.03-.024.059-.06.086-.087a1.408,1.408,0,0,0,.366-1.091c-.142-.034-20.53-.122-21.044-.122S432.145,104.876,432.007,104.912Z" transform="translate(-431.951 -61.767)" fill="#ffa130"/><path d="M432,105.294a1.432,1.432,0,0,0,.369,1.068.948.948,0,0,0,.109.106l9.5,8.063,4.056,3.911a2.773,2.773,0,0,0,.244.216l5.666,4.33a2.614,2.614,0,0,0,.39.245,1.618,1.618,0,0,0,1.886-.153l4.868-3.753a3.862,3.862,0,0,0,.3-.262l4.832-4.538,9.411-8.06a.954.954,0,0,0,.086-.084,1.425,1.425,0,0,0,.386-1.085c-.1-.027-20.671-.093-21.055-.093S432.1,105.267,432,105.294Z" transform="translate(-431.954 -61.59)" fill="#ffa12f"/><path d="M431.985,105.675a1.457,1.457,0,0,0,.389,1.064,1.265,1.265,0,0,0,.11.1l9.625,7.893,4.112,3.682c0,.011.232.2.242.2l5.474,4.186a3.728,3.728,0,0,0,.372.247,1.531,1.531,0,0,0,1.845-.1l4.737-3.651c.009-.007.3-.239.3-.25l4.9-4.316,9.539-7.891c.03-.024.06-.056.087-.083a1.45,1.45,0,0,0,.406-1.081c-.07-.017-20.812-.062-21.068-.062S432.055,105.658,431.985,105.675Z" transform="translate(-431.958 -61.412)" fill="#ffa02e"/><path d="M431.976,106.057a1.472,1.472,0,0,0,.408,1.058.965.965,0,0,0,.112.1l9.753,7.723,4.166,3.454c0,.006.233.187.237.192l5.284,4.039c.007.006.346.257.353.252a1.452,1.452,0,0,0,1.8-.053l4.6-3.549s.3-.233.3-.239l4.962-4.1,9.666-7.721c.031-.026.062-.054.089-.082a1.475,1.475,0,0,0,.426-1.077c-.034-.009-20.954-.031-21.082-.031S432.01,106.049,431.976,106.057Z" transform="translate(-431.962 -61.235)" fill="#ffa02d"/><path d="M431.966,106.44a1.5,1.5,0,0,0,.539,1.157l9.883,7.552,9.882,7.552a1.379,1.379,0,0,0,1.762,0l9.793-7.551,9.795-7.551a1.5,1.5,0,0,0,.535-1.153h-21.1Z" transform="translate(-431.966 -61.059)" fill="#ff9f2c"/></g><g transform="translate(24.579 3.02)" opacity="0.7"><path d="M447.688,136.345l19.588-15.1a1.5,1.5,0,0,0,.535-1.153V78.449a1.463,1.463,0,0,0-1.084-1.432,85.433,85.433,0,0,0-20.011-2.31v61.943A1.372,1.372,0,0,0,447.688,136.345Z" transform="translate(-446.716 -74.708)" fill="#ffcb78" opacity="0.5"/></g><circle cx="11.299" cy="11.299" r="11.299" transform="matrix(0.231, -0.973, 0.973, 0.231, 10.98, 39.83)" fill="#fff"/><path d="M449.922,104.655s-2.817-4.044-9.883-8.984l1.456-2.024c6.182,3.261,8.034,5.564,8.034,5.564,6.578-8.375,13.56-10.7,13.56-10.7C454.06,97.952,452.89,100.438,449.922,104.655Z" transform="translate(-425.009 -65.749)" fill="#6bc16b"/><path d="M454.108,141.961a.9.9,0,0,1-.555-.192l-23.68-18.558a.9.9,0,0,1-.345-.708V76.732a.9.9,0,0,1,.581-.841c.355-.134,8.872-3.295,24-3.295s23.561,3.162,23.913,3.3a.9.9,0,0,1,.578.839V122.5a.9.9,0,0,1-.345.706l-23.589,18.56A.9.9,0,0,1,454.108,141.961Zm-22.78-19.9,22.78,17.853L476.8,122.067V77.374c-2.137-.7-10.112-2.98-22.691-2.98s-20.629,2.288-22.78,2.982Z" transform="translate(-429.529 -72.596)" fill="#fff"/><g transform="translate(24.579 6.221)" opacity="0.9"><path d="M466.27,118.077V77.828c0-.629-1.543-.882-1.543-.882v40.247a1.381,1.381,0,0,1-.5,1.068l-17.514,13.287V133.6l19.057-14.455A1.386,1.386,0,0,0,466.27,118.077Z" transform="translate(-446.716 -76.946)" fill="#fff" opacity="0.5"/></g><path d="M452.616,75.644A75.632,75.632,0,0,0,434,77.832a1.361,1.361,0,0,0-1,1.33V119.45c0,.42,2.361,1.8,2.361,1.8V80.645a1.358,1.358,0,0,1,1-1.33,76.309,76.309,0,0,1,16.254-2.274Z" transform="translate(-428.037 -71.287)" fill="#fff" opacity="0.7"/><path d="M449.922,103.531a53.5,53.5,0,0,0-9.565-8.3l-.319.443c7.066,4.94,9.883,8.984,9.883,8.984,2.967-4.217,4.137-6.7,13.167-16.14C463.089,88.515,454.366,95.334,449.922,103.531Z" transform="translate(-425.009 -65.749)" fill="#6bc16b" opacity="0.5"/></g><g transform="translate(0.9 0.9)" opacity="0.1"><path d="M369.657,150.951c22.81-21.709,80.766-77.507,104.243-100.12H412.413c-12.561,9.1-31.069,22.527-42.756,31.052Z" transform="translate(-369.657 -50.831)" fill="#fff"/><path d="M383.929,198.756h97.717L589.107,85.923V65.967a15.137,15.137,0,0,0-15.138-15.136H527.748L371.669,192.472A15.1,15.1,0,0,0,383.929,198.756Z" transform="translate(-368.792 -50.831)" fill="#fff"/><path d="M528,177.707a15.137,15.137,0,0,0,15.138-15.138V99.77c-18.1,21.855-48.011,57.966-64.593,77.937Z" transform="translate(-322.824 -29.782)" fill="#fff"/></g></g><g transform="translate(246.121)"><rect width="132.93" height="29.332" rx="4.763" transform="translate(0.482 18.855)" fill="#fff7e9"/><g transform="translate(0.482 33.521)"><path d="M487.186,62.675A6.812,6.812,0,0,0,494,69.487H613.3a6.811,6.811,0,0,0,6.812-6.812V54.821H487.186Z" transform="translate(-487.186 -54.821)" fill="#f4e8d4"/></g><path d="M507.4,57.717l3.561-2.458a2.15,2.15,0,1,0-2.445-3.537L505.8,53.594V50.3a2.151,2.151,0,1,0-4.3,0v3.225l-2.626-1.868a2.151,2.151,0,1,0-2.5,3.5l3.525,2.507-3.561,2.458a2.15,2.15,0,0,0,1.224,3.92,2.114,2.114,0,0,0,1.22-.383l2.713-1.872v3.3a2.151,2.151,0,1,0,4.3,0V61.86l2.626,1.868a2.151,2.151,0,0,0,2.5-3.5Z" transform="translate(-483.165 -24.17)" fill="#af9782"/><path d="M525.425,57.717l3.561-2.458a2.15,2.15,0,1,0-2.445-3.537l-2.711,1.872V50.3a2.152,2.152,0,0,0-4.3,0v3.225L516.9,51.655a2.151,2.151,0,0,0-2.5,3.5l3.527,2.507-3.562,2.458a2.15,2.15,0,0,0,1.226,3.92,2.114,2.114,0,0,0,1.22-.383l2.711-1.872v3.3a2.152,2.152,0,0,0,4.3,0V61.86l2.626,1.868a2.151,2.151,0,0,0,2.5-3.5Z" transform="translate(-475.412 -24.17)" fill="#af9782"/><path d="M570.114,57.717l3.562-2.458a2.15,2.15,0,1,0-2.445-3.537l-2.711,1.872V50.3a2.152,2.152,0,0,0-4.3,0v3.225l-2.626-1.868a2.151,2.151,0,0,0-2.5,3.5l3.525,2.507-3.561,2.458a2.15,2.15,0,0,0,1.226,3.92,2.114,2.114,0,0,0,1.22-.383l2.711-1.872v3.3a2.152,2.152,0,0,0,4.3,0V61.86l2.626,1.868a2.151,2.151,0,0,0,2.5-3.5Z" transform="translate(-456.191 -24.17)" fill="#af9782"/><path d="M613.3,44.566H494a6.812,6.812,0,0,0-6.812,6.812v2.207A6.812,6.812,0,0,1,494,46.773H613.3a6.811,6.811,0,0,1,6.812,6.812V51.378A6.811,6.811,0,0,0,613.3,44.566Z" transform="translate(-486.704 -25.71)" fill="#c1a795" opacity="0.2"/><path d="M613.3,67.788H494a6.812,6.812,0,0,1-6.812-6.812V58.77A6.812,6.812,0,0,0,494,65.582H613.3a6.811,6.811,0,0,0,6.812-6.812v2.207A6.811,6.811,0,0,1,613.3,67.788Z" transform="translate(-486.704 -19.601)" fill="#c1a795" opacity="0.2"/><path d="M613.45,74.524H494.143a7.3,7.3,0,0,1-7.294-7.292V51.522a7.3,7.3,0,0,1,7.294-7.293H613.45a7.3,7.3,0,0,1,7.293,7.293v15.71A7.3,7.3,0,0,1,613.45,74.524ZM494.143,45.191a6.337,6.337,0,0,0-6.33,6.331v15.71a6.337,6.337,0,0,0,6.33,6.33H613.45a6.337,6.337,0,0,0,6.33-6.33V51.522a6.337,6.337,0,0,0-6.33-6.331Z" transform="translate(-486.849 -25.855)" fill="#c1a795"/><path d="M495.715,46.864s-3.027,1.339-4.132,3.654c-1.723,3.617-2.305,11.694-2.305,11.694s-1.278-8.625.453-12.521C491.213,46.362,495.715,46.864,495.715,46.864Z" transform="translate(-486 -24.733)" fill="#fff"/><path d="M573.67,67.206s3.029-1.339,4.133-3.654c1.723-3.617,2.305-11.694,2.305-11.694s1.279,8.625-.453,12.52C578.173,67.708,573.67,67.206,573.67,67.206Z" transform="translate(-449.508 -22.574)" fill="#fff"/><path d="M549.287,67.167c.463-.066.921-.15,1.37-.25l.054-.013c.442-.1.875-.216,1.3-.35l.062-.02q.641-.2,1.254-.452l.027-.011a14.839,14.839,0,0,0,5.267-3.635c.074-.08.153-.156.226-.237.2-.225.382-.462.566-.7.113-.144.229-.287.336-.438.157-.217.3-.446.449-.675.119-.186.236-.373.348-.566q.187-.328.357-.669t.323-.676c.1-.22.192-.443.28-.671.1-.255.19-.516.277-.781.073-.22.146-.44.209-.668.083-.293.151-.595.22-.9.047-.215.1-.426.14-.646.063-.35.107-.712.152-1.075.023-.187.054-.369.07-.561.05-.561.079-1.134.079-1.723a19.39,19.39,0,0,0-2.731-10.022,15.607,15.607,0,0,0-13.27-7.9A15.369,15.369,0,0,0,534.3,40.048a19.2,19.2,0,0,0-3.654,11.4c0,.589.03,1.163.079,1.723.017.192.049.373.071.561.043.363.089.725.152,1.075.04.22.093.432.14.646.069.3.137.6.219.9.064.227.137.448.21.668.087.265.177.526.277.781.089.227.183.45.28.671s.21.455.322.676.234.45.359.669c.112.193.229.38.348.566.146.229.292.458.449.675.107.15.223.293.336.438.184.237.369.475.566.7.073.082.151.157.224.237a14.858,14.858,0,0,0,5.268,3.635l.026.011c.409.167.828.316,1.254.452l.063.02c.425.134.858.25,1.3.35l.054.013c.449.1.905.184,1.37.25V110.9h5.673v-1.58h9.48v-2.809h-2.809v-6.32h1.579V97.385h-1.4V92.293h2.634V89.835h-9.886ZM542.542,47.5a4.666,4.666,0,0,1-.606-2.271,4.717,4.717,0,1,1,2.882,4.346,4.619,4.619,0,0,1-.8-.435A4.735,4.735,0,0,1,542.542,47.5Z" transform="translate(-468.01 -30.459)" fill="#c1a795" opacity="0.5"/><g transform="translate(62.161)"><path d="M546.652,31.717c-8.837,0-16,8.026-16,17.926s7.165,15.917,16,15.917,16-6.018,16-15.917S555.49,31.717,546.652,31.717Zm0,16.423a4.716,4.716,0,1,1,4.718-4.716A4.717,4.717,0,0,1,546.652,48.14Z" transform="translate(-530.17 -31.236)" fill="#ffcb78"/><path d="M540,52.557v47.574h5.266v-1.58h9.48V95.742h-2.809v-6.32h1.58V86.614h-1.4V81.523h2.633V79.065h-9.48V52.557Z" transform="translate(-526.15 -22.273)" fill="#ffcb78"/><path d="M562.557,45.4c-3.456,5.008-9.3,7.825-15.927,7.825S534.161,50.408,530.7,45.4c.749,8.917,7.59,14.275,15.926,14.275.137,0,.269-.013.4-.016v43.549h1.75V59.538C556.115,58.693,561.873,53.533,562.557,45.4Z" transform="translate(-530.148 -25.351)" fill="#ffcb78" opacity="0.4"/><path d="M543.346,73.152V86.3h5.3V81.184h-2.709V77.145h2.709V73.152Z" transform="translate(-524.71 -13.416)" fill="#ffcb78" opacity="0.4"/><path d="M549.912,109.72h-6.229v-43.8c-8.136-1.34-13.367-7.628-13.367-16.13,0-10.149,7.394-18.407,16.482-18.407s16.483,8.257,16.483,18.407c0,8.5-5.231,14.79-13.369,16.13V87.691h9.48v3.421h-2.633v4.129h1.4v3.771h-1.58v5.357h2.809v3.771h-9.48Zm-5.267-.962h4.3v-1.58h9.48v-1.846h-2.809V98.049h1.58V96.2h-1.4V90.149h2.633V88.655h-9.48V65.087l.415-.059c7.868-1.121,12.954-7.1,12.954-15.241,0-9.619-6.963-17.444-15.521-17.444s-15.519,7.825-15.519,17.444c0,8.137,5.085,14.119,12.954,15.241l.413.059ZM546.8,48.767a5.2,5.2,0,1,1,5.2-5.2A5.2,5.2,0,0,1,546.8,48.767Zm0-9.434a4.236,4.236,0,1,0,4.236,4.236A4.239,4.239,0,0,0,546.8,39.332Z" transform="translate(-530.315 -31.381)" fill="#fc9e38"/></g></g><g transform="translate(0 108.596)"><g transform="translate(97.284)"><path d="M406.544,107.773l-19.065,29.175-2.9,32.22,30.678-2.65s32.979-37.524,30.3-34.846C413.487,120.941,406.544,107.773,406.544,107.773Z" transform="translate(-381.999 -107.121)" fill="#75d1cb"/><path d="M394.674,122.5l-5.4,7.811s4.183,4.156,7.4,5.387l5.15-6.9S396.738,125.328,394.674,122.5Z" transform="translate(-379.977 -100.787)" fill="#4ea4a4"/><path d="M395.992,119.232l-2.147,2.9s10.985,12.5,32.32,18.433l2.335-2.777S409.437,134.7,395.992,119.232Z" transform="translate(-378.012 -102.192)" fill="#4ea4a4"/><path d="M400.134,127.961l-1.646,2.221s7.09,6.207,22.254,10.846l1.659-2.2S408.766,134.731,400.134,127.961Z" transform="translate(-376.015 -98.438)" fill="#4ea4a4"/><path d="M397.971,131.183l-1.646,2.222s7.09,6.205,22.254,10.844l1.659-2.2S406.6,137.953,397.971,131.183Z" transform="translate(-376.946 -97.052)" fill="#4ea4a4"/><path d="M401.608,112.435l-5.556,8.017s12.941,15.09,32.636,18.433l6.122-7.228S413.728,126.323,401.608,112.435Z" transform="translate(-377.063 -105.115)" fill="#4ea4a4"/><path d="M388.329,128.811l-5.555,8.017s12.941,15.09,32.636,18.433l6.122-7.228S400.449,142.7,388.329,128.811Z" transform="translate(-382.774 -98.072)" fill="#4ea4a4"/><path d="M435.476,128.174s-23.692-.508-37.782,21.411l8.636,4.925,22.747-18.985Z" transform="translate(-376.357 -98.346)" fill="#75d1cb" opacity="0.5"/><path d="M384.773,170.018a.652.652,0,0,1-.651-.712l2.9-32.22a.663.663,0,0,1,.1-.3l19.063-29.174a.653.653,0,0,1,1.124.05c.069.13,7.276,13.09,38.641,23.587a.653.653,0,0,1,.286,1.048l-30.3,34.844a.659.659,0,0,1-.438.223l-30.678,2.65A.366.366,0,0,1,384.773,170.018Zm3.539-32.653-2.819,31.283,29.637-2.563,29.487-33.909c-26.791-9.14-35.728-19.83-37.89-22.993Z" transform="translate(-382.195 -107.317)" fill="#4ea4a4"/></g><g transform="translate(119.974 35.641)"><path d="M434.984,156.991l2.9,2.059,1.578-2.841-1.578-.474Z" transform="translate(-383.009 -122.133)" fill="#8c9ba5"/><path d="M401.6,149.171S417.512,132.7,436.07,132.7c0,0,8.021,24.013,17.233,32.951a290.654,290.654,0,0,0-36.738,9.47H399.142Z" transform="translate(-398.424 -132.043)" fill="#c9dff0"/><path d="M416.889,175.964H398.64l2.551-26.886.159-.164c.162-.167,16.316-16.675,34.936-16.675h.472l.147.446c.08.239,8.079,23.964,17.07,32.688l.912.887-1.253.226a292.6,292.6,0,0,0-36.643,9.444Zm-16.814-1.306h16.6a292.746,292.746,0,0,1,35.528-9.231c-8.259-8.879-15.239-28.552-16.38-31.878-16.908.257-31.688,14.441-33.371,16.113Z" transform="translate(-398.64 -132.239)" fill="#98a6b2"/><path d="M406.925,142.67s4.493-3.57,8.754-4.612c0,0,4.451,14.677,12.972,26.607a60.116,60.116,0,0,0-10.248,3.554C410.376,158.511,406.925,142.67,406.925,142.67Z" transform="translate(-395.077 -129.736)" fill="#98a6b2"/><path d="M425.436,134.991a77.182,77.182,0,0,0,3.535,8.332,65.479,65.479,0,0,0-10.731,2.526,46.784,46.784,0,0,1-3.03-7.8S418.194,136.431,425.436,134.991Z" transform="translate(-391.514 -131.055)" fill="#98a6b2"/><path d="M434.021,155.964s-1.349.159-2.7.442a43.354,43.354,0,0,1-3.092-4.924,21.356,21.356,0,0,1,2.507-.533C431.968,153.033,434.021,155.964,434.021,155.964Z" transform="translate(-385.913 -124.192)" fill="#98a6b2"/><path d="M429.4,160.327c.829-.162,1.627-.3,2.387-.425a56.055,56.055,0,0,1-7.3-15.805c-.971.18-1.888.373-2.736.569A56.53,56.53,0,0,0,429.4,160.327Z" transform="translate(-388.698 -127.139)" fill="#98a6b2"/><path d="M420.6,144.951c-.938.256-1.682.482-2.185.641,4.285,10.89,7.88,15.4,7.88,15.4.824-.217,1.63-.41,2.423-.589C425,156.1,421.475,147.249,420.6,144.951Z" transform="translate(-390.136 -126.772)" fill="#98a6b2"/></g><path d="M457.26,171.74c0,16.229-14.513,29.384-32.415,29.384H347.567c-17.9,0-32.416-13.155-32.416-29.384v-1.326c0-16.229,14.513-29.384,32.416-29.384h77.278c17.9,0,32.415,13.155,32.415,29.384Z" transform="translate(-314.575 -92.817)" fill="#fff7e9"/><circle cx="14.67" cy="14.67" r="14.67" transform="translate(25.677 57.107) rotate(-76.658)" fill="#fff7e9"/><circle cx="31.614" cy="31.614" r="31.614" transform="translate(38.679 45.119) rotate(-45)" fill="#fff7e9"/><path d="M425.019,212.314H347.74c-18.192,0-32.992-13.441-32.992-29.962v-1.326c0-14.863,12.083-27.509,28.2-29.639a14.348,14.348,0,0,1-.113-1.74,15.228,15.228,0,0,1,24.921-11.763,32.192,32.192,0,0,1,62.567,10.663c0,.948-.043,1.919-.13,2.892,15.9,2.277,27.814,14.906,27.814,29.587v1.326C458.009,198.872,443.209,212.314,425.019,212.314Zm-66.934-76.759A14,14,0,0,0,344.172,151.8l.092.591-.595.069c-15.83,1.831-27.767,14.111-27.767,28.566v1.326c0,15.886,14.282,28.808,31.838,28.808h77.278c17.556,0,31.838-12.922,31.838-28.808v-1.326c0-14.272-11.764-26.533-27.363-28.519l-.561-.071.06-.562a31.025,31.025,0,0,0-30.857-34.364,30.936,30.936,0,0,0-29.556,21.553l-.276.862-.665-.615A14.043,14.043,0,0,0,358.084,135.555Z" transform="translate(-314.748 -103.429)" fill="#c1a795"/><path d="M360.111,145.571a26.7,26.7,0,0,1,42.964-13.217,26.7,26.7,0,0,0-49.084,9.539Z" transform="translate(-297.869 -102.027)" fill="#fff"/><path d="M360.309,135.482a11.011,11.011,0,0,1,5.612,1.537,11.063,11.063,0,0,0-19.67,9.889c-15.672,1.1-28.017,12.981-28.017,27.478v1.243c0,10.347,6.292,19.356,15.6,24.07a26.543,26.543,0,0,1-10.8-21.061v-1.244c0-12.312,8.957-24.655,26.786-27.361C347.4,144.5,351.748,135.482,360.309,135.482Z" transform="translate(-313.249 -96.748)" fill="#fff"/><rect width="65.776" height="10.984" rx="3.768" transform="translate(34.106 70.548)" fill="#af9782"/><rect width="61.883" height="8.332" rx="2.859" transform="translate(36.081 71.873)" fill="#c9dff0"/><path d="M398.629,162.2a5.709,5.709,0,1,1-5.709-5.709A5.709,5.709,0,0,1,398.629,162.2Z" transform="translate(-283.582 -86.165)" fill="#00a4a8"/><g transform="translate(39.674 72.611)"><path d="M346.71,161.459l1.254-.865a.757.757,0,1,0-.861-1.246l-.955.659v-1.161a.757.757,0,0,0-1.514,0v1.135l-.925-.656a.757.757,0,1,0-.878,1.233l1.241.884-1.254.865a.757.757,0,1,0,.861,1.246l.955-.659v1.161a.757.757,0,1,0,1.514,0v-1.136l.925.658a.757.757,0,0,0,.878-1.234Z" transform="translate(-342.49 -158.09)" fill="#af9782"/><path d="M352.551,161.459l1.254-.865a.757.757,0,1,0-.861-1.246l-.955.659v-1.161a.757.757,0,0,0-1.514,0v1.135l-.925-.656a.757.757,0,0,0-.878,1.233l1.241.884-1.254.865a.757.757,0,0,0,.432,1.38.749.749,0,0,0,.429-.134l.955-.659v1.161a.757.757,0,1,0,1.514,0v-1.136l.925.658a.757.757,0,0,0,.878-1.234Z" transform="translate(-339.978 -158.09)" fill="#af9782"/><path d="M358.392,161.459l1.254-.865a.757.757,0,1,0-.861-1.246l-.955.659v-1.161a.757.757,0,0,0-1.515,0v1.135l-.924-.656a.757.757,0,1,0-.88,1.233l1.241.884-1.254.865a.757.757,0,0,0,.432,1.38.749.749,0,0,0,.429-.134l.955-.659v1.161a.757.757,0,1,0,1.515,0v-1.136l.925.658a.758.758,0,1,0,.879-1.234Z" transform="translate(-337.466 -158.09)" fill="#af9782"/><path d="M364.234,161.459l1.254-.865a.757.757,0,1,0-.861-1.246l-.955.659v-1.161a.758.758,0,0,0-1.516,0v1.135l-.924-.656a.757.757,0,1,0-.879,1.233l1.241.884-1.254.865a.757.757,0,0,0,.862,1.246l.954-.659v1.161a.758.758,0,1,0,1.516,0v-1.136l.924.658a.758.758,0,0,0,.88-1.234Z" transform="translate(-334.953 -158.09)" fill="#af9782"/></g><g transform="translate(74.336 77.828)"><path d="M378.365,163.044H367.382a.653.653,0,1,1,0-1.306h10.983a.653.653,0,1,1,0,1.306Z" transform="translate(-366.728 -161.738)" fill="#af9782"/></g><g transform="translate(104.962 75.587)"><path d="M395.223,161.076H388.6a.453.453,0,1,1,0-.905h6.627a.453.453,0,0,1,0,.905Z" transform="translate(-388.143 -160.171)" fill="#fff"/></g><g transform="translate(109.293 73.258)"><path d="M394.161,161.776a.455.455,0,0,1-.306-.119l-2.537-2.33a.452.452,0,0,1,.612-.666l2.537,2.328a.453.453,0,0,1-.306.787Z" transform="translate(-391.172 -158.543)" fill="#fff"/></g><g transform="translate(109.293 75.588)"><path d="M391.624,163.405a.453.453,0,0,1-.306-.787l2.537-2.33a.453.453,0,0,1,.612.668l-2.537,2.33A.458.458,0,0,1,391.624,163.405Z" transform="translate(-391.172 -160.172)" fill="#fff"/></g></g></g></g></g></svg>