<svg width="154" height="152" fill="none" xmlns="http://www.w3.org/2000/svg"><g xmlns="http://www.w3.org/2000/svg"><g clip-path="url(#a)"><path d="M153.271.178h-153v151h153v-151z" fill="#fff"/><path d="M10.213 8.61h3.594v3.6h-3.594v-3.6Zm3.594 0h3.599v3.6h-3.599v-3.6Zm3.599 0h3.6v3.6h-3.6v-3.6Zm3.6 0h3.597v3.6h-3.597v-3.6Zm3.597 0h3.594v3.6h-3.594v-3.6Zm3.594 0h3.6v3.6h-3.6v-3.6Zm3.6 0h3.597v3.6h-3.597v-3.6Zm10.791 0h3.6v3.6h-3.6v-3.6Zm7.194 0h3.601v3.6h-3.601v-3.6Zm7.197 0h3.6v3.6h-3.6v-3.6Zm10.794 0h3.597v3.6h-3.597v-3.6Zm3.597 0h3.6v3.6h-3.6v-3.6Zm10.794 0h3.597v3.6h-3.597v-3.6Zm3.597 0h3.596v3.6h-3.596v-3.6Zm3.596 0h3.598v3.6h-3.598v-3.6Zm3.598 0h3.598v3.6h-3.598v-3.6Zm3.598 0h3.596v3.6h-3.596v-3.6Zm21.583 0h3.6v3.6h-3.6v-3.6Zm3.6 0h3.6v3.6h-3.6v-3.6Zm3.6 0h3.595v3.6h-3.595v-3.6Zm3.595 0h3.596v3.6h-3.596v-3.6Zm3.596 0h3.6v3.6h-3.6v-3.6Zm3.6 0h3.597v3.6h-3.597v-3.6Zm3.597 0h3.597v3.6h-3.597v-3.6Zm-129.511 3.6h3.594v3.593h-3.594V12.21Zm21.584 0h3.597v3.593h-3.597V12.21Zm7.195 0h3.596v3.593h-3.596V12.21Zm7.196 0h3.594v3.593h-3.594V12.21Zm10.791 0h3.6v3.593h-3.6V12.21Zm7.194 0h3.6v3.593h-3.6V12.21Zm14.392 0h3.599v3.593h-3.599V12.21Zm7.196 0h3.596v3.593h-3.596V12.21Zm7.194 0h3.598v3.593h-3.598V12.21Zm10.79 0h3.601v3.593h-3.601V12.21Zm7.2 0h3.595v3.593h-3.595V12.21Zm7.191 0h3.6v3.593h-3.6V12.21Zm21.588 0h3.597v3.593h-3.597V12.21ZM10.213 15.803h3.594V19.4h-3.594v-3.597Zm7.193 0h3.6V19.4h-3.6v-3.597Zm3.6 0h3.597V19.4h-3.597v-3.597Zm3.597 0h3.594V19.4h-3.594v-3.597Zm7.194 0h3.597V19.4h-3.597v-3.597Zm7.195 0h3.596V19.4h-3.596v-3.597Zm7.196 0h3.594V19.4h-3.594v-3.597Zm7.195 0h3.596V19.4h-3.596v-3.597Zm10.79 0h3.6V19.4h-3.6v-3.597Zm3.6 0h3.597V19.4h-3.597v-3.597Zm10.792 0h3.599V19.4h-3.599v-3.597Zm3.599 0h3.597V19.4h-3.597v-3.597Zm10.791 0h3.598V19.4h-3.598v-3.597Zm7.194 0h3.596V19.4h-3.596v-3.597Zm17.987 0h3.6V19.4h-3.6v-3.597Zm7.2 0h3.595V19.4h-3.595v-3.597Zm3.595 0h3.596V19.4h-3.596v-3.597Zm3.596 0h3.6V19.4h-3.6v-3.597Zm7.197 0h3.597V19.4h-3.597v-3.597ZM10.213 19.4h3.594V23h-3.594v-3.6Zm7.193 0h3.6V23h-3.6v-3.6Zm3.6 0h3.597V23h-3.597v-3.6Zm3.597 0h3.594V23h-3.594v-3.6Zm7.194 0h3.597V23h-3.597v-3.6Zm17.985 0h3.601V23h-3.601v-3.6Zm14.391 0h3.6V23h-3.6v-3.6Zm3.6 0h3.597V23h-3.597v-3.6Zm7.197 0h3.595V23H74.97v-3.6Zm21.583 0h3.596V23h-3.596v-3.6Zm3.596 0h3.596V23h-3.596v-3.6Zm3.596 0h3.601V23h-3.601v-3.6Zm14.391 0h3.6V23h-3.6v-3.6Zm7.2 0h3.595V23h-3.595v-3.6Zm3.595 0h3.596V23h-3.596v-3.6Zm3.596 0h3.6V23h-3.6v-3.6Zm7.197 0h3.597V23h-3.597v-3.6ZM10.213 23h3.594v3.594h-3.594V23Zm7.193 0h3.6v3.594h-3.6V23Zm3.6 0h3.597v3.594h-3.597V23Zm3.597 0h3.594v3.594h-3.594V23Zm7.194 0h3.597v3.594h-3.597V23Zm17.985 0h3.601v3.594h-3.601V23Zm3.601 0h3.596v3.594h-3.596V23Zm3.596 0h3.6v3.594h-3.6V23Zm3.6 0h3.594v3.594h-3.594V23Zm3.594 0h3.6v3.594h-3.6V23Zm10.797 0h3.595v3.594H74.97V23Zm3.595 0h3.599v3.594h-3.599V23Zm17.988 0h3.596v3.594h-3.596V23Zm7.192 0h3.601v3.594h-3.601V23Zm3.601 0h3.599v3.594h-3.599V23Zm10.79 0h3.6v3.594h-3.6V23Zm7.2 0h3.595v3.594h-3.595V23Zm3.595 0h3.596v3.594h-3.596V23Zm3.596 0h3.6v3.594h-3.6V23Zm7.197 0h3.597v3.594h-3.597V23ZM10.213 26.594h3.594v3.6h-3.594v-3.6Zm21.584 0h3.597v3.6h-3.597v-3.6Zm10.791 0h3.6v3.6h-3.6v-3.6Zm7.194 0h3.601v3.6h-3.601v-3.6Zm10.797 0h3.594v3.6h-3.594v-3.6Zm17.986 0h3.599v3.6h-3.599v-3.6Zm10.792 0h3.598v3.6h-3.598v-3.6Zm28.779 0h3.6v3.6h-3.6v-3.6Zm21.588 0h3.597v3.6h-3.597v-3.6Zm-129.511 3.6h3.594v3.597h-3.594v-3.597Zm3.594 0h3.599v3.597h-3.599v-3.597Zm3.599 0h3.6v3.597h-3.6v-3.597Zm3.6 0h3.597v3.597h-3.597v-3.597Zm3.597 0h3.594v3.597h-3.594v-3.597Zm3.594 0h3.6v3.597h-3.6v-3.597Zm3.6 0h3.597v3.597h-3.597v-3.597Zm7.195 0h3.596v3.597h-3.596v-3.597Zm7.196 0h3.594v3.597h-3.594v-3.597Zm7.195 0h3.596v3.597h-3.596v-3.597Zm7.196 0h3.594v3.597h-3.594v-3.597Zm7.194 0h3.597v3.597h-3.597v-3.597Zm7.197 0h3.595v3.597H74.97v-3.597Zm7.194 0h3.597v3.597h-3.597v-3.597Zm7.193 0h3.598v3.597h-3.598v-3.597Zm7.196 0h3.596v3.597h-3.596v-3.597Zm7.192 0h3.601v3.597h-3.601v-3.597Zm7.2 0h3.595v3.597h-3.595v-3.597Zm7.191 0h3.6v3.597h-3.6v-3.597Zm3.6 0h3.6v3.597h-3.6v-3.597Zm3.6 0h3.595v3.597h-3.595v-3.597Zm3.595 0h3.596v3.597h-3.596v-3.597Zm3.596 0h3.6v3.597h-3.6v-3.597Zm3.6 0h3.597v3.597h-3.597v-3.597Zm3.597 0h3.597v3.597h-3.597v-3.597Zm-89.942 3.597h3.601v3.6h-3.601v-3.6Zm7.197 0h3.6v3.6h-3.6v-3.6Zm3.6 0h3.594v3.6h-3.594v-3.6Zm3.594 0h3.6v3.6h-3.6v-3.6Zm3.6 0h3.597v3.6h-3.597v-3.6Zm10.792 0h3.599v3.6h-3.599v-3.6Zm10.792 0h3.598v3.6h-3.598v-3.6Zm3.598 0h3.598v3.6h-3.598v-3.6Zm3.598 0h3.596v3.6h-3.596v-3.6Zm7.192 0h3.601v3.6h-3.601v-3.6Zm3.601 0h3.599v3.6h-3.599v-3.6Zm3.599 0h3.595v3.6h-3.595v-3.6Zm-97.138 3.6h3.599v3.594h-3.599v-3.594Zm3.599 0h3.6v3.594h-3.6v-3.594Zm3.6 0h3.597v3.594h-3.597v-3.594Zm7.191 0h3.6v3.594h-3.6v-3.594Zm3.6 0h3.597v3.594h-3.597v-3.594Zm10.791 0h3.6v3.594h-3.6v-3.594Zm3.6 0h3.594v3.594h-3.594v-3.594Zm21.585 0h3.597v3.594h-3.597v-3.594Zm7.197 0h3.595v3.594H74.97v-3.594Zm10.791 0h3.596v3.594h-3.596v-3.594Zm7.194 0h3.598v3.594h-3.598v-3.594Zm14.391 0h3.599v3.594h-3.599v-3.594Zm25.181 0h3.6v3.594h-3.6v-3.594Zm3.6 0h3.597v3.594h-3.597v-3.594ZM10.213 40.985h3.594v3.6h-3.594v-3.6Zm3.594 0h3.599v3.6h-3.599v-3.6Zm21.587 0h3.598v3.6h-3.598v-3.6Zm3.598 0h3.596v3.6h-3.596v-3.6Zm3.596 0h3.6v3.6h-3.6v-3.6Zm14.391 0h3.6v3.6h-3.6v-3.6Zm14.391 0h3.6v3.6h-3.6v-3.6Zm3.6 0h3.595v3.6H74.97v-3.6Zm10.791 0h3.596v3.6h-3.596v-3.6Zm3.596 0h3.598v3.6h-3.598v-3.6Zm3.598 0h3.598v3.6h-3.598v-3.6Zm7.194 0h3.596v3.6h-3.596v-3.6Zm3.596 0h3.601v3.6h-3.601v-3.6Zm10.795 0h3.596v3.6h-3.596v-3.6Zm17.987 0h3.6v3.6h-3.6v-3.6Zm-115.121 3.6h3.6v3.597h-3.6v-3.597Zm3.6 0h3.597v3.597h-3.597v-3.597Zm10.791 0h3.597v3.597h-3.597v-3.597Zm3.597 0h3.598v3.597h-3.598v-3.597Zm3.598 0h3.596v3.597h-3.596v-3.597Zm3.596 0h3.6v3.597h-3.6v-3.597Zm3.6 0h3.594v3.597h-3.594v-3.597Zm10.791 0h3.6v3.597h-3.6v-3.597Zm3.6 0h3.594v3.597h-3.594v-3.597Zm7.194 0h3.597v3.597h-3.597v-3.597Zm3.597 0h3.6v3.597h-3.6v-3.597Zm3.6 0h3.595v3.597H74.97v-3.597Zm3.595 0h3.599v3.597h-3.599v-3.597Zm14.39 0h3.598v3.597h-3.598v-3.597Zm3.598 0h3.596v3.597h-3.596v-3.597Zm3.596 0h3.596v3.597h-3.596v-3.597Zm14.391 0h3.596v3.597h-3.596v-3.597Zm7.196 0h3.6v3.597h-3.6v-3.597Zm3.6 0h3.595v3.597h-3.595v-3.597Zm3.595 0h3.596v3.597h-3.596v-3.597Zm3.596 0h3.6v3.597h-3.6v-3.597ZM10.213 48.182h3.594v3.6h-3.594v-3.6Zm3.594 0h3.599v3.6h-3.599v-3.6Zm3.599 0h3.6v3.6h-3.6v-3.6Zm3.6 0h3.597v3.6h-3.597v-3.6Zm14.388 0h3.598v3.6h-3.598v-3.6Zm10.794 0h3.594v3.6h-3.594v-3.6Zm3.594 0h3.601v3.6h-3.601v-3.6Zm7.197 0h3.6v3.6h-3.6v-3.6Zm3.6 0h3.594v3.6h-3.594v-3.6Zm3.594 0h3.6v3.6h-3.6v-3.6Zm3.6 0h3.597v3.6h-3.597v-3.6Zm3.597 0h3.6v3.6h-3.6v-3.6Zm3.6 0h3.595v3.6H74.97v-3.6Zm3.595 0h3.599v3.6h-3.599v-3.6Zm3.599 0h3.597v3.6h-3.597v-3.6Zm10.791 0h3.598v3.6h-3.598v-3.6Zm3.598 0h3.596v3.6h-3.596v-3.6Zm3.596 0h3.596v3.6h-3.596v-3.6Zm3.596 0h3.601v3.6h-3.601v-3.6Zm7.2 0h3.595v3.6h-3.595v-3.6Zm10.791 0h3.6v3.6h-3.6v-3.6Zm7.195 0h3.596v3.6h-3.596v-3.6Zm3.596 0h3.6v3.6h-3.6v-3.6Zm3.6 0h3.597v3.6h-3.597v-3.6Zm3.597 0h3.597v3.6h-3.597v-3.6Zm-122.318 3.6h3.6v3.594h-3.6v-3.594Zm3.6 0h3.597v3.594h-3.597v-3.594Zm7.191 0h3.6v3.594h-3.6v-3.594Zm3.6 0h3.597v3.594h-3.597v-3.594Zm10.791 0h3.6v3.594h-3.6v-3.594Zm3.6 0h3.594v3.594h-3.594v-3.594Zm3.594 0h3.601v3.594h-3.601v-3.594Zm14.391 0h3.6v3.594h-3.6v-3.594Zm10.797 0h3.595v3.594H74.97v-3.594Zm14.387 0h3.598v3.594h-3.598v-3.594Zm3.598 0h3.598v3.594h-3.598v-3.594Zm7.194 0h3.596v3.594h-3.596v-3.594Zm3.596 0h3.601v3.594h-3.601v-3.594Zm3.601 0h3.599v3.594h-3.599v-3.594Zm3.599 0h3.595v3.594h-3.595v-3.594Zm3.595 0h3.596v3.594h-3.596v-3.594Zm3.596 0h3.6v3.594h-3.6v-3.594Zm7.2 0h3.595v3.594h-3.595v-3.594Zm3.595 0h3.596v3.594h-3.596v-3.594Zm3.596 0h3.6v3.594h-3.6v-3.594Zm3.6 0h3.597v3.594h-3.597v-3.594ZM10.213 55.376h3.594v3.6h-3.594v-3.6Zm3.594 0h3.599v3.6h-3.599v-3.6Zm3.599 0h3.6v3.6h-3.6v-3.6Zm3.6 0h3.597v3.6h-3.597v-3.6Zm3.597 0h3.594v3.6h-3.594v-3.6Zm3.594 0h3.6v3.6h-3.6v-3.6Zm7.197 0h3.598v3.6h-3.598v-3.6Zm10.794 0h3.594v3.6h-3.594v-3.6Zm3.594 0h3.601v3.6h-3.601v-3.6Zm7.197 0h3.6v3.6h-3.6v-3.6Zm3.6 0h3.594v3.6h-3.594v-3.6Zm7.194 0h3.597v3.6h-3.597v-3.6Zm7.197 0h3.595v3.6H74.97v-3.6Zm21.583 0h3.596v3.6h-3.596v-3.6Zm3.596 0h3.596v3.6h-3.596v-3.6Zm3.596 0h3.601v3.6h-3.601v-3.6Zm3.601 0h3.599v3.6h-3.599v-3.6Zm3.599 0h3.595v3.6h-3.595v-3.6Zm7.191 0h3.6v3.6h-3.6v-3.6Zm3.6 0h3.6v3.6h-3.6v-3.6Zm3.6 0h3.595v3.6h-3.595v-3.6Zm7.191 0h3.6v3.6h-3.6v-3.6Zm7.197 0h3.597v3.6h-3.597v-3.6Zm-115.121 3.6h3.594v3.597h-3.594v-3.597Zm7.194 0h3.597v3.597h-3.597v-3.597Zm3.597 0h3.598v3.597h-3.598v-3.597Zm3.598 0h3.596v3.597h-3.596v-3.597Zm3.596 0h3.6v3.597h-3.6v-3.597Zm14.391 0h3.6v3.597h-3.6v-3.597Zm3.6 0h3.594v3.597h-3.594v-3.597Zm7.194 0h3.597v3.597h-3.597v-3.597Zm3.597 0h3.6v3.597h-3.6v-3.597Zm17.987 0h3.598v3.597h-3.598v-3.597Zm14.388 0h3.601v3.597h-3.601v-3.597Zm7.2 0h3.595v3.597h-3.595v-3.597Zm3.595 0h3.596v3.597h-3.596v-3.597Zm3.596 0h3.6v3.597h-3.6v-3.597Zm14.391 0h3.6v3.597h-3.6v-3.597Zm3.6 0h3.597v3.597h-3.597v-3.597ZM17.406 62.573h3.6v3.597h-3.6v-3.597Zm7.197 0h3.594v3.597h-3.594v-3.597Zm3.594 0h3.6v3.597h-3.6v-3.597Zm7.197 0h3.598v3.597h-3.598v-3.597Zm3.598 0h3.596v3.597h-3.596v-3.597Zm3.596 0h3.6v3.597h-3.6v-3.597Zm14.391 0h3.6v3.597h-3.6v-3.597Zm3.6 0h3.594v3.597h-3.594v-3.597Zm3.594 0h3.6v3.597h-3.6v-3.597Zm3.6 0h3.597v3.597h-3.597v-3.597Zm3.597 0h3.6v3.597h-3.6v-3.597Zm3.6 0h3.595v3.597H74.97v-3.597Zm3.595 0h3.599v3.597h-3.599v-3.597Zm7.196 0h3.596v3.597h-3.596v-3.597Zm3.596 0h3.598v3.597h-3.598v-3.597Zm7.196 0h3.596v3.597h-3.596v-3.597Zm7.192 0h3.601v3.597h-3.601v-3.597Zm7.2 0h3.595v3.597h-3.595v-3.597Zm10.791 0h3.6v3.597h-3.6v-3.597Zm17.988 0h3.597v3.597h-3.597v-3.597ZM10.213 66.17h3.594v3.597h-3.594V66.17Zm3.594 0h3.599v3.597h-3.599V66.17Zm3.599 0h3.6v3.597h-3.6V66.17Zm3.6 0h3.597v3.597h-3.597V66.17Zm3.597 0h3.594v3.597h-3.594V66.17Zm3.594 0h3.6v3.597h-3.6V66.17Zm3.6 0h3.597v3.597h-3.597V66.17Zm3.597 0h3.598v3.597h-3.598V66.17Zm3.598 0h3.596v3.597h-3.596V66.17Zm10.79 0h3.601v3.597h-3.601V66.17Zm7.197 0h3.6v3.597h-3.6V66.17Zm3.6 0h3.594v3.597h-3.594V66.17Zm7.194 0h3.597v3.597h-3.597V66.17Zm3.597 0h3.6v3.597h-3.6V66.17Zm3.6 0h3.595v3.597H74.97V66.17Zm3.595 0h3.599v3.597h-3.599V66.17Zm3.599 0h3.597v3.597h-3.597V66.17Zm10.791 0h3.598v3.597h-3.598V66.17Zm3.598 0h3.596v3.597h-3.596V66.17Zm3.596 0h3.596v3.597h-3.596V66.17Zm28.782 0h3.596v3.597h-3.596V66.17Zm3.596 0h3.6v3.597h-3.6V66.17Zm3.6 0h3.597v3.597h-3.597V66.17ZM10.213 69.767h3.594v3.6h-3.594v-3.6Zm7.193 0h3.6v3.6h-3.6v-3.6Zm7.197 0h3.594v3.6h-3.594v-3.6Zm17.985 0h3.6v3.6h-3.6v-3.6Zm3.6 0h3.594v3.6h-3.594v-3.6Zm3.594 0h3.601v3.6h-3.601v-3.6Zm3.601 0h3.596v3.6h-3.596v-3.6Zm3.596 0h3.6v3.6h-3.6v-3.6Zm3.6 0h3.594v3.6h-3.594v-3.6Zm3.594 0h3.6v3.6h-3.6v-3.6Zm21.588 0h3.596v3.6h-3.596v-3.6Zm3.596 0h3.598v3.6h-3.598v-3.6Zm3.598 0h3.598v3.6h-3.598v-3.6Zm10.79 0h3.601v3.6h-3.601v-3.6Zm3.601 0h3.599v3.6h-3.599v-3.6Zm10.79 0h3.6v3.6h-3.6v-3.6Zm3.6 0h3.6v3.6h-3.6v-3.6Zm10.791 0h3.6v3.6h-3.6v-3.6Zm7.197 0h3.597v3.6h-3.597v-3.6Zm-122.318 3.6h3.6v3.595h-3.6v-3.595Zm3.6 0h3.597v3.595h-3.597v-3.595Zm3.597 0h3.594v3.595h-3.594v-3.595Zm3.594 0h3.6v3.595h-3.6v-3.595Zm3.6 0h3.597v3.595h-3.597v-3.595Zm7.195 0h3.596v3.595h-3.596v-3.595Zm3.596 0h3.6v3.595h-3.6v-3.595Zm3.6 0h3.594v3.595h-3.594v-3.595Zm7.195 0h3.596v3.595h-3.596v-3.595Zm10.79 0h3.6v3.595h-3.6v-3.595Zm3.6 0h3.597v3.595h-3.597v-3.595Zm3.597 0h3.6v3.595h-3.6v-3.595Zm3.6 0h3.595v3.595H74.97v-3.595Zm3.595 0h3.599v3.595h-3.599v-3.595Zm10.792 0h3.598v3.595h-3.598v-3.595Zm10.792 0h3.596v3.595h-3.596v-3.595Zm3.596 0h3.601v3.595h-3.601v-3.595Zm3.601 0h3.599v3.595h-3.599v-3.595Zm3.599 0h3.595v3.595h-3.595v-3.595Zm3.595 0h3.596v3.595h-3.596v-3.595Zm3.596 0h3.6v3.595h-3.6v-3.595Zm3.6 0h3.6v3.595h-3.6v-3.595Zm7.195 0h3.596v3.595h-3.596v-3.595Zm7.196 0h3.597v3.595h-3.597v-3.595Zm3.597 0h3.597v3.595h-3.597v-3.595ZM13.807 76.962h3.599v3.599h-3.599v-3.599Zm14.39 0h3.6v3.599h-3.6v-3.599Zm25.186 0h3.596v3.599h-3.596v-3.599Zm7.196 0h3.594v3.599h-3.594v-3.599Zm7.194 0h3.597v3.599h-3.597v-3.599Zm3.597 0h3.6v3.599h-3.6v-3.599Zm3.6 0h3.595v3.599H74.97v-3.599Zm3.595 0h3.599v3.599h-3.599v-3.599Zm14.39 0h3.598v3.599h-3.598v-3.599Zm10.79 0h3.601v3.599h-3.601v-3.599Zm3.601 0h3.599v3.599h-3.599v-3.599Zm3.599 0h3.595v3.599h-3.595v-3.599Zm10.791 0h3.6v3.599h-3.6v-3.599Zm3.6 0h3.595v3.599h-3.595v-3.599Zm3.595 0h3.596v3.599h-3.596v-3.599Zm7.196 0h3.597v3.599h-3.597v-3.599Zm3.597 0h3.597v3.599h-3.597v-3.599ZM13.807 80.561h3.599v3.597h-3.599v-3.597Zm10.796 0h3.594v3.597h-3.594v-3.597Zm7.194 0h3.597v3.597h-3.597v-3.597Zm10.791 0h3.6v3.597h-3.6v-3.597Zm3.6 0h3.594v3.597h-3.594v-3.597Zm7.195 0h3.596v3.597h-3.596v-3.597Zm3.596 0h3.6v3.597h-3.6v-3.597Zm3.6 0h3.594v3.597h-3.594v-3.597Zm3.594 0h3.6v3.597h-3.6v-3.597Zm14.392 0h3.599v3.597h-3.599v-3.597Zm7.196 0h3.596v3.597h-3.596v-3.597Zm7.194 0h3.598v3.597h-3.598v-3.597Zm14.391 0h3.599v3.597h-3.599v-3.597Zm3.599 0h3.595v3.597h-3.595v-3.597Zm14.391 0h3.595v3.597h-3.595v-3.597Zm14.388 0h3.597v3.597h-3.597v-3.597ZM13.807 84.158h3.599v3.6h-3.599v-3.6Zm14.39 0h3.6v3.6h-3.6v-3.6Zm10.795 0h3.596v3.6h-3.596v-3.6Zm3.596 0h3.6v3.6h-3.6v-3.6Zm3.6 0h3.594v3.6h-3.594v-3.6Zm7.195 0h3.596v3.6h-3.596v-3.6Zm17.987 0h3.6v3.6h-3.6v-3.6Zm3.6 0h3.595v3.6H74.97v-3.6Zm3.595 0h3.599v3.6h-3.599v-3.6Zm7.196 0h3.596v3.6h-3.596v-3.6Zm7.194 0h3.598v3.6h-3.598v-3.6Zm28.781 0h3.6v3.6h-3.6v-3.6Zm-107.929 3.6h3.599v3.594h-3.599v-3.594Zm3.599 0h3.6v3.594h-3.6v-3.594Zm3.6 0h3.597v3.594h-3.597v-3.594Zm3.597 0h3.594v3.594h-3.594v-3.594Zm3.594 0h3.6v3.594h-3.6v-3.594Zm3.6 0h3.597v3.594h-3.597v-3.594Zm3.597 0h3.598v3.594h-3.598v-3.594Zm7.194 0h3.6v3.594h-3.6v-3.594Zm3.6 0h3.594v3.594h-3.594v-3.594Zm7.195 0h3.596v3.594h-3.596v-3.594Zm3.596 0h3.6v3.594h-3.6v-3.594Zm7.194 0h3.6v3.594h-3.6v-3.594Zm17.991 0h3.597v3.594h-3.597v-3.594Zm10.791 0h3.598v3.594h-3.598v-3.594Zm7.194 0h3.596v3.594h-3.596v-3.594Zm3.596 0h3.601v3.594h-3.601v-3.594Zm21.591 0h3.595v3.594h-3.595v-3.594Zm7.191 0h3.6v3.594h-3.6v-3.594Zm3.6 0h3.597v3.594h-3.597v-3.594ZM10.213 91.352h3.594v3.596h-3.594v-3.596Zm3.594 0h3.599v3.596h-3.599v-3.596Zm3.599 0h3.6v3.596h-3.6v-3.596Zm3.6 0h3.597v3.596h-3.597v-3.596Zm21.582 0h3.6v3.596h-3.6v-3.596Zm3.6 0h3.594v3.596h-3.594v-3.596Zm14.391 0h3.594v3.596h-3.594v-3.596Zm3.594 0h3.6v3.596h-3.6v-3.596Zm3.6 0h3.597v3.596h-3.597v-3.596Zm7.197 0h3.595v3.596H74.97v-3.596Zm3.595 0h3.599v3.596h-3.599v-3.596Zm10.792 0h3.598v3.596h-3.598v-3.596Zm10.792 0h3.596v3.596h-3.596v-3.596Zm3.596 0h3.601v3.596h-3.601v-3.596Zm3.601 0h3.599v3.596h-3.599v-3.596Zm3.599 0h3.595v3.596h-3.595v-3.596Zm17.986 0h3.596v3.596h-3.596v-3.596Zm3.596 0h3.6v3.596h-3.6v-3.596ZM10.213 94.948h3.594v3.601h-3.594v-3.601Zm3.594 0h3.599v3.601h-3.599v-3.601Zm7.199 0h3.597v3.601h-3.597v-3.601Zm10.791 0h3.597v3.601h-3.597v-3.601Zm3.597 0h3.598v3.601h-3.598v-3.601Zm10.794 0h3.594v3.601h-3.594v-3.601Zm3.594 0h3.601v3.601h-3.601v-3.601Zm3.601 0h3.596v3.601h-3.596v-3.601Zm3.596 0h3.6v3.601h-3.6v-3.601Zm7.194 0h3.6v3.601h-3.6v-3.601Zm7.197 0h3.6v3.601h-3.6v-3.601Zm3.6 0h3.595v3.601H74.97v-3.601Zm7.194 0h3.597v3.601h-3.597v-3.601Zm7.193 0h3.598v3.601h-3.598v-3.601Zm7.196 0h3.596v3.601h-3.596v-3.601Zm3.596 0h3.596v3.601h-3.596v-3.601Zm10.796 0h3.595v3.601h-3.595v-3.601Zm7.191 0h3.6v3.601h-3.6v-3.601Zm3.6 0h3.6v3.601h-3.6v-3.601Zm3.6 0h3.595v3.601h-3.595v-3.601Zm7.191 0h3.6v3.601h-3.6v-3.601Zm3.6 0h3.597v3.601h-3.597v-3.601Zm3.597 0h3.597v3.601h-3.597v-3.601ZM17.406 98.549h3.6v3.599h-3.6v-3.599Zm7.197 0h3.594v3.599h-3.594v-3.599Zm17.985 0h3.6v3.599h-3.6v-3.599Zm7.194 0h3.601v3.599h-3.601v-3.599Zm3.601 0h3.596v3.599h-3.596v-3.599Zm3.596 0h3.6v3.599h-3.6v-3.599Zm7.194 0h3.6v3.599h-3.6v-3.599Zm3.6 0h3.597v3.599h-3.597v-3.599Zm3.597 0h3.6v3.599h-3.6v-3.599Zm7.195 0h3.599v3.599h-3.599v-3.599Zm7.196 0h3.596v3.599h-3.596v-3.599Zm3.596 0h3.598v3.599h-3.598v-3.599Zm17.989 0h3.599v3.599h-3.599v-3.599Zm10.79 0h3.6v3.599h-3.6v-3.599Zm7.2 0h3.595v3.599h-3.595v-3.599Zm7.191 0h3.6v3.599h-3.6v-3.599Zm3.6 0h3.597v3.599h-3.597v-3.599Zm3.597 0h3.597v3.599h-3.597v-3.599Zm-125.917 3.599h3.599v3.595h-3.599v-3.595Zm3.599 0h3.6v3.595h-3.6v-3.595Zm14.391 0h3.597v3.595h-3.597v-3.595Zm14.391 0h3.594v3.595h-3.594v-3.595Zm3.594 0h3.601v3.595h-3.601v-3.595Zm3.601 0h3.596v3.595h-3.596v-3.595Zm3.596 0h3.6v3.595h-3.6v-3.595Zm7.194 0h3.6v3.595h-3.6v-3.595Zm21.588 0h3.596v3.595h-3.596v-3.595Zm10.792 0h3.596v3.595h-3.596v-3.595Zm3.596 0h3.596v3.595h-3.596v-3.595Zm21.587 0h3.6v3.595h-3.6v-3.595Zm7.195 0h3.596v3.595h-3.596v-3.595Zm3.596 0h3.6v3.595h-3.6v-3.595Zm-122.314 3.595h3.594v3.596h-3.594v-3.596Zm10.793 0h3.597v3.596h-3.597v-3.596Zm3.597 0h3.594v3.596h-3.594v-3.596Zm3.594 0h3.6v3.596h-3.6v-3.596Zm10.795 0h3.596v3.596h-3.596v-3.596Zm3.596 0h3.6v3.596h-3.6v-3.596Zm7.194 0h3.601v3.596h-3.601v-3.596Zm10.797 0h3.594v3.596h-3.594v-3.596Zm10.791 0h3.6v3.596h-3.6v-3.596Zm14.391 0h3.596v3.596h-3.596v-3.596Zm17.984 0h3.601v3.596h-3.601v-3.596Zm3.601 0h3.599v3.596h-3.599v-3.596Zm7.194 0h3.596v3.596h-3.596v-3.596Zm7.196 0h3.6v3.596h-3.6v-3.596Zm17.988 0h3.597v3.596h-3.597v-3.596Zm-111.527 3.596h3.6v3.601h-3.6v-3.601Zm3.6 0h3.597v3.601h-3.597v-3.601Zm3.597 0h3.598v3.601h-3.598v-3.601Zm7.194 0h3.6v3.601h-3.6v-3.601Zm14.391 0h3.6v3.601h-3.6v-3.601Zm3.6 0h3.594v3.601h-3.594v-3.601Zm10.791 0h3.6v3.601h-3.6v-3.601Zm10.794 0h3.597v3.601h-3.597v-3.601Zm3.597 0h3.596v3.601h-3.596v-3.601Zm3.596 0h3.598v3.601h-3.598v-3.601Zm3.598 0h3.598v3.601h-3.598v-3.601Zm3.598 0h3.596v3.601h-3.596v-3.601Zm3.596 0h3.596v3.601h-3.596v-3.601Zm10.796 0h3.595v3.601h-3.595v-3.601Zm3.595 0h3.596v3.601h-3.596v-3.601Zm3.596 0h3.6v3.601h-3.6v-3.601Zm3.6 0h3.6v3.601h-3.6v-3.601Zm3.6 0h3.595v3.601h-3.595v-3.601Zm7.191 0h3.6v3.601h-3.6v-3.601Zm3.6 0h3.597v3.601h-3.597v-3.601Zm-97.135 3.601h3.596v3.595h-3.596v-3.595Zm3.596 0h3.6v3.595h-3.6v-3.595Zm3.6 0h3.594v3.595h-3.594v-3.595Zm3.594 0h3.601v3.595h-3.601v-3.595Zm7.197 0h3.6v3.595h-3.6v-3.595Zm3.6 0h3.594v3.595h-3.594v-3.595Zm7.194 0h3.597v3.595h-3.597v-3.595Zm3.597 0h3.6v3.595h-3.6v-3.595Zm7.195 0h3.599v3.595h-3.599v-3.595Zm7.196 0h3.596v3.595h-3.596v-3.595Zm3.596 0h3.598v3.595h-3.598v-3.595Zm3.598 0h3.598v3.595h-3.598v-3.595Zm3.598 0h3.596v3.595h-3.596v-3.595Zm3.596 0h3.596v3.595h-3.596v-3.595Zm3.596 0h3.601v3.595h-3.601v-3.595Zm3.601 0h3.599v3.595h-3.599v-3.595Zm3.599 0h3.595v3.595h-3.595v-3.595Zm14.391 0h3.595v3.595h-3.595v-3.595Zm3.595 0h3.596v3.595h-3.596v-3.595Zm3.596 0h3.6v3.595h-3.6v-3.595Zm3.6 0h3.597v3.595h-3.597v-3.595Zm3.597 0h3.597v3.595h-3.597v-3.595Zm-129.511 3.595h3.594v3.598h-3.594v-3.598Zm3.594 0h3.599v3.598h-3.599v-3.598Zm3.599 0h3.6v3.598h-3.6v-3.598Zm3.6 0h3.597v3.598h-3.597v-3.598Zm3.597 0h3.594v3.598h-3.594v-3.598Zm3.594 0h3.6v3.598h-3.6v-3.598Zm3.6 0h3.597v3.598h-3.597v-3.598Zm25.182 0h3.6v3.598h-3.6v-3.598Zm3.6 0h3.594v3.598h-3.594v-3.598Zm3.594 0h3.6v3.598h-3.6v-3.598Zm14.392 0h3.599v3.598h-3.599v-3.598Zm10.792 0h3.598v3.598h-3.598v-3.598Zm7.196 0h3.596v3.598h-3.596v-3.598Zm3.596 0h3.596v3.598h-3.596v-3.598Zm10.796 0h3.595v3.598h-3.595v-3.598Zm7.191 0h3.6v3.598h-3.6v-3.598Zm7.2 0h3.595v3.598h-3.595v-3.598Zm3.595 0h3.596v3.598h-3.596v-3.598Zm7.196 0h3.597v3.598h-3.597v-3.598Zm3.597 0h3.597v3.598h-3.597v-3.598Zm-129.511 3.598h3.594v3.595h-3.594v-3.595Zm21.584 0h3.597v3.595h-3.597v-3.595Zm7.195 0h3.596v3.595h-3.596v-3.595Zm3.596 0h3.6v3.595h-3.6v-3.595Zm7.194 0h3.601v3.595h-3.601v-3.595Zm3.601 0h3.596v3.595h-3.596v-3.595Zm7.196 0h3.594v3.595h-3.594v-3.595Zm7.194 0h3.597v3.595h-3.597v-3.595Zm14.391 0h3.597v3.595h-3.597v-3.595Zm3.597 0h3.596v3.595h-3.596v-3.595Zm7.194 0h3.598v3.595h-3.598v-3.595Zm10.79 0h3.601v3.595h-3.601v-3.595Zm3.601 0h3.599v3.595h-3.599v-3.595Zm3.599 0h3.595v3.595h-3.595v-3.595Zm14.391 0h3.595v3.595h-3.595v-3.595Zm3.595 0h3.596v3.595h-3.596v-3.595Zm-118.718 3.595h3.594v3.6h-3.594v-3.6Zm7.193 0h3.6v3.6h-3.6v-3.6Zm3.6 0h3.597v3.6h-3.597v-3.6Zm3.597 0h3.594v3.6h-3.594v-3.6Zm7.194 0h3.597v3.6h-3.597v-3.6Zm10.791 0h3.6v3.6h-3.6v-3.6Zm3.6 0h3.594v3.6h-3.594v-3.6Zm7.195 0h3.596v3.6h-3.596v-3.6Zm3.596 0h3.6v3.6h-3.6v-3.6Zm10.794 0h3.597v3.6h-3.597v-3.6Zm7.197 0h3.595v3.6H74.97v-3.6Zm3.595 0h3.599v3.6h-3.599v-3.6Zm3.599 0h3.597v3.6h-3.597v-3.6Zm14.389 0h3.596v3.6h-3.596v-3.6Zm7.192 0h3.601v3.6h-3.601v-3.6Zm7.2 0h3.595v3.6h-3.595v-3.6Zm3.595 0h3.596v3.6h-3.596v-3.6Zm3.596 0h3.6v3.6h-3.6v-3.6Zm3.6 0h3.6v3.6h-3.6v-3.6Zm3.6 0h3.595v3.6h-3.595v-3.6Zm3.595 0h3.596v3.6h-3.596v-3.6Zm-118.718 3.6h3.594v3.596h-3.594v-3.596Zm7.193 0h3.6v3.596h-3.6v-3.596Zm3.6 0h3.597v3.596h-3.597v-3.596Zm3.597 0h3.594v3.596h-3.594v-3.596Zm7.194 0h3.597v3.596h-3.597v-3.596Zm7.195 0h3.596v3.596h-3.596v-3.596Zm3.596 0h3.6v3.596h-3.6v-3.596Zm7.194 0h3.601v3.596h-3.601v-3.596Zm35.979 0h3.596v3.596h-3.596v-3.596Zm7.194 0h3.598v3.596h-3.598v-3.596Zm3.598 0h3.596v3.596h-3.596v-3.596Zm3.596 0h3.596v3.596h-3.596v-3.596Zm3.596 0h3.601v3.596h-3.601v-3.596Zm14.391 0h3.6v3.596h-3.6v-3.596Zm7.2 0h3.595v3.596h-3.595v-3.596Zm7.191 0h3.6v3.596h-3.6v-3.596Zm3.6 0h3.597v3.596h-3.597v-3.596Zm-125.914 3.596h3.594v3.6h-3.594v-3.6Zm7.193 0h3.6v3.6h-3.6v-3.6Zm3.6 0h3.597v3.6h-3.597v-3.6Zm3.597 0h3.594v3.6h-3.594v-3.6Zm7.194 0h3.597v3.6h-3.597v-3.6Zm7.195 0h3.596v3.6h-3.596v-3.6Zm17.987 0h3.6v3.6h-3.6v-3.6Zm7.194 0h3.6v3.6h-3.6v-3.6Zm7.197 0h3.6v3.6h-3.6v-3.6Zm17.987 0h3.598v3.6h-3.598v-3.6Zm3.598 0h3.598v3.6h-3.598v-3.6Zm3.598 0h3.596v3.6h-3.596v-3.6Zm10.793 0h3.599v3.6h-3.599v-3.6Zm3.599 0h3.595v3.6h-3.595v-3.6Zm7.191 0h3.6v3.6h-3.6v-3.6Zm3.6 0h3.6v3.6h-3.6v-3.6Zm3.6 0h3.595v3.6h-3.595v-3.6Zm10.791 0h3.597v3.6h-3.597v-3.6Zm-125.914 3.6h3.594v3.594h-3.594v-3.594Zm21.584 0h3.597v3.594h-3.597v-3.594Zm7.195 0h3.596v3.594h-3.596v-3.594Zm3.596 0h3.6v3.594h-3.6v-3.594Zm3.6 0h3.594v3.594h-3.594v-3.594Zm3.594 0h3.601v3.594h-3.601v-3.594Zm3.601 0h3.596v3.594h-3.596v-3.594Zm3.596 0h3.6v3.594h-3.6v-3.594Zm3.6 0h3.594v3.594h-3.594v-3.594Zm3.594 0h3.6v3.594h-3.6v-3.594Zm7.197 0h3.6v3.594h-3.6v-3.594Zm7.195 0h3.599v3.594h-3.599v-3.594Zm17.988 0h3.596v3.594h-3.596v-3.594Zm3.596 0h3.596v3.594h-3.596v-3.594Zm3.596 0h3.601v3.594h-3.601v-3.594Zm17.991 0h3.6v3.594h-3.6v-3.594Zm3.6 0h3.595v3.594h-3.595v-3.594Zm3.595 0h3.596v3.594h-3.596v-3.594Zm3.596 0h3.6v3.594h-3.6v-3.594Zm-122.314 3.594h3.594v3.6h-3.594v-3.6Zm3.594 0h3.599v3.6h-3.599v-3.6Zm3.599 0h3.6v3.6h-3.6v-3.6Zm3.6 0h3.597v3.6h-3.597v-3.6Zm3.597 0h3.594v3.6h-3.594v-3.6Zm3.594 0h3.6v3.6h-3.6v-3.6Zm3.6 0h3.597v3.6h-3.597v-3.6Zm10.791 0h3.6v3.6h-3.6v-3.6Zm10.795 0h3.596v3.6h-3.596v-3.6Zm3.596 0h3.6v3.6h-3.6v-3.6Zm3.6 0h3.594v3.6h-3.594v-3.6Zm3.594 0h3.6v3.6h-3.6v-3.6Zm7.197 0h3.6v3.6h-3.6v-3.6Zm10.794 0h3.597v3.6h-3.597v-3.6Zm7.193 0h3.598v3.6h-3.598v-3.6Zm10.792 0h3.596v3.6h-3.596v-3.6Zm3.596 0h3.601v3.6h-3.601v-3.6Zm10.795 0h3.596v3.6h-3.596v-3.6Zm14.391 0h3.596v3.6h-3.596v-3.6Zm3.596 0h3.6v3.6h-3.6v-3.6Zm3.6 0h3.597v3.6h-3.597v-3.6Zm3.597 0h3.597v3.6h-3.597v-3.6Z" stroke="transparent" fill="#000"/></g><defs><clipPath id="a"><rect x=".271" y=".178" width="153" height="151" rx="12" fill="#fff"/></clipPath></defs></g></svg>