<svg xmlns="http://www.w3.org/2000/svg" xmlns:xlink="http://www.w3.org/1999/xlink" width="1366" height="684.542" viewBox="0 0 1366 684.542"><defs><clipPath id="a"><rect width="1366" height="684.542" fill="none"/></clipPath></defs><g transform="translate(-235.899 -1459.802)" opacity="0.031"><g transform="translate(235.899 1459.802)" clip-path="url(#a)"><g transform="translate(-313.15 -161.472)" opacity="0.7"><path d="M1787.182,1780.461l-993.872-16.6L1784.5,1719.5Z" transform="translate(200.799 -1202.865)" fill="#fff"/><path d="M1773.309,1698.577l-980,94.827,955.958-154.279Z" transform="translate(200.799 -1232.411)" fill="#fff"/><path d="M1720.583,1618.806l-927.272,202.5,882.834-258.083Z" transform="translate(200.799 -1260.313)" fill="#fff"/><path d="M1631.094,1544.317l-837.783,302.14L1568.016,1494.8Z" transform="translate(200.799 -1285.465)" fill="#fff"/><path d="M1508.384,1478.058l-715.073,389.8,635.857-431.286Z" transform="translate(200.799 -1306.869)" fill="#fff"/><path d="M1357.323,1422.656,793.311,1884.668l471.805-493.815Z" transform="translate(200.799 -1323.676)" fill="#fff"/><path d="M1183.907,1380.312l-390.6,515.9,289.039-536.765Z" transform="translate(200.799 -1335.221)" fill="#fff"/><path d="M995,1352.7,793.311,1902.038,888.129,1343.6Z" transform="translate(200.799 -1341.046)" fill="#fff"/><path d="M816.814,1341.733l-4.786,560.992L708.868,1344.76Z" transform="translate(182.083 -1341.733)" fill="#fff"/><path d="M654.9,1349.473,847.2,1899.88,550.159,1364.508Z" transform="translate(146.905 -1338.888)" fill="#fff"/><path d="M498.469,1373.17l381.778,518L401.083,1399.617Z" transform="translate(113.863 -1330.176)" fill="#fff"/><path d="M353.733,1411.886l556.108,465.051L267.563,1448.693Z" transform="translate(84.269 -1315.945)" fill="#fff"/><path d="M226.42,1464.083l708.4,393.667L154.888,1509.792Z" transform="translate(59.295 -1296.757)" fill="#fff"/><path d="M121.587,1527.692l832.591,306.674L67.527,1580.492Z" transform="translate(39.932 -1273.374)" fill="#fff"/><path d="M43.387,1600.193l923.777,207.521L8.939,1657.99Z" transform="translate(26.946 -1246.722)" fill="#fff"/><path d="M-5.081,1678.711l978.339,100.14-991.81-39.639Z" transform="translate(20.852 -1217.859)" fill="#fff"/><g transform="translate(0 560.992)"><path d="M722.538,2310.812,809,1751.934l21.554,560.872Z" transform="translate(185.112 -1751.934)" fill="#fff"/><path d="M937.052,2307.044l-143.741-555.11,249.674,543.029Z" transform="translate(200.799 -1751.934)" fill="#fff"/><path d="M1129.13,2279.973,793.311,1751.934l435.411,504.354Z" transform="translate(200.799 -1751.934)" fill="#fff"/><path d="M1307.9,2231.967,793.311,1751.934l603.884,445.685Z" transform="translate(200.799 -1751.934)" fill="#fff"/><path d="M1466.263,2164.929,793.311,1751.934l748.417,369.343Z" transform="translate(200.799 -1751.934)" fill="#fff"/><path d="M1597.947,2081.512,793.311,1751.934l863.278,278.358Z" transform="translate(200.799 -1751.934)" fill="#fff"/><path d="M1697.729,1985.032l-904.418-233.1,943.911,176.337Z" transform="translate(200.799 -1751.934)" fill="#fff"/><path d="M1761.655,1879.311,793.311,1751.934l987.118,67.324Z" transform="translate(200.799 -1751.934)" fill="#fff"/><path d="M-20.435,1763.144l994.11-11.209-986.067,72.017Z" transform="translate(20.435 -1751.934)" fill="#fff"/><path d="M-1.084,1874.052l970.47-122.117L28.153,1932.753Z" transform="translate(24.724 -1751.934)" fill="#fff"/><path d="M49.765,1980.117l908.351-228.183L99.037,2034.385Z" transform="translate(35.995 -1751.934)" fill="#fff"/><path d="M130.1,2077.134l810.214-325.2L197.446,2124.821Z" transform="translate(53.8 -1751.934)" fill="#fff"/><path d="M236.719,2161.259l679.959-409.324-597.2,448.536Z" transform="translate(77.432 -1751.934)" fill="#fff"/><path d="M365.411,2229.156l522.742-477.222L460.3,2258.34Z" transform="translate(105.957 -1751.934)" fill="#fff"/><path d="M552.982,2287.927l293.6-535.993-188.764,550.8Z" transform="translate(147.531 -1751.934)" fill="#fff"/></g></g></g></g></svg>