<?xml version="1.0"?>
<svg xmlns="http://www.w3.org/2000/svg" width="196.028" height="249.422" viewBox="0 0 196.028 249.422">
    <defs>
        <style>
            .cls-1{fill:#66bc24}.cls-2{fill:#a0d85d}.cls-3{fill:#45bdf0}
        </style>
    </defs>
    <g id="refund" transform="rotate(-17 174.568 145.557)">
        <path id="Path_49024" d="M172.469 230.18H22.208a4.742 4.742 0 0 1-4.742-4.741v17.768a4.741 4.741 0 0 0 4.742 4.741h150.261a4.742 4.742 0 0 0 4.742-4.741v-17.768a4.742 4.742 0 0 1-4.742 4.741z" class="cls-1" transform="translate(-.495 -44.582)"/>
        <path id="Path_49025" d="M172.469 208.032H22.208a4.742 4.742 0 0 1-4.742-4.741v17.768a4.741 4.741 0 0 0 4.742 4.741h150.261a4.742 4.742 0 0 0 4.742-4.741V203.29a4.743 4.743 0 0 1-4.742 4.742z" class="cls-1" transform="translate(-.495 -40.202)"/>
        <path id="Path_49026" d="M177.211 95.142a4.741 4.741 0 0 0-4.741-4.741h-39.793a9.751 9.751 0 0 1-2.363 5.188 10.18 10.18 0 0 1-14.828.458l-5.647-5.647H22.207a4.741 4.741 0 0 0-4.741 4.741v85.824a4.741 4.741 0 0 0 4.741 4.741h150.262a4.741 4.741 0 0 0 4.741-4.741V95.142z" class="cls-1" transform="translate(-.495 -17.877)"/>
        <g id="Group_7539" transform="translate(16.971 72.523)">
            <path id="Path_49027" d="M204.619 90.4h-24.584a29.326 29.326 0 0 0 29.326 29.326V95.141a4.742 4.742 0 0 0-4.742-4.741z" class="cls-2" transform="translate(-49.615 -90.4)"/>
            <path id="Path_49028" d="M22.207 90.4h24.584a29.326 29.326 0 0 1-29.326 29.326V95.141a4.742 4.742 0 0 1 4.742-4.741z" class="cls-2" transform="translate(-17.465 -90.4)"/>
            <path id="Path_49029" d="M22.207 201.972h24.584a29.326 29.326 0 0 0-29.326-29.326v24.584a4.743 4.743 0 0 0 4.742 4.742z" class="cls-2" transform="translate(-17.465 -106.665)"/>
            <path id="Path_49030" d="M180.035 201.972h24.584a4.741 4.741 0 0 0 4.741-4.741v-24.584a29.324 29.324 0 0 0-29.325 29.325z" class="cls-2" transform="translate(-49.615 -106.665)"/>
            <circle id="Ellipse_3226" cx="32.259" cy="32.259" r="32.259" class="cls-2" transform="translate(47.615 15.394)"/>
            <path id="Path_49031" d="M204.619 230.18h-18.583a29.189 29.189 0 0 0-6 17.768h24.584a4.742 4.742 0 0 0 4.742-4.741v-17.768a4.742 4.742 0 0 1-4.743 4.741z" class="cls-2" transform="translate(-49.615 -117.105)"/>
            <path id="Path_49032" d="M22.208 230.18a4.742 4.742 0 0 1-4.742-4.741v17.768a4.741 4.741 0 0 0 4.741 4.741h24.584a29.187 29.187 0 0 0-6-17.768z" class="cls-2" transform="translate(-17.465 -117.105)"/>
            <path id="Path_49033" d="M204.619 208.032h-18.583a29.189 29.189 0 0 0-6 17.768h24.584a4.742 4.742 0 0 0 4.742-4.741V203.29a4.743 4.743 0 0 1-4.742 4.742z" class="cls-2" transform="translate(-49.615 -112.725)"/>
            <path id="Path_49034" d="M22.208 208.032a4.742 4.742 0 0 1-4.742-4.741v17.768a4.741 4.741 0 0 0 4.741 4.741h24.584a29.187 29.187 0 0 0-6-17.768z" class="cls-2" transform="translate(-17.465 -112.725)"/>
        </g>
        <path id="Path_49035" d="M200.779 44.361c-8.985-8.986-20.4-12.468-36.334-12.468h-30.4l11.735-11.732a10.445 10.445 0 0 0 .713-14.22 10.179 10.179 0 0 0-14.827-.458l-29.392 29.392a10.18 10.18 0 0 0 0 14.4l29.393 29.392a10.18 10.18 0 0 0 14.828-.458 10.446 10.446 0 0 0-.713-14.22l-11.734-11.736h29.978a53.719 53.719 0 0 1 15.174 2.183c16.02 4.714 15.962 20.251 15.987 21.537a32.617 32.617 0 0 1-1.8 10.52v10.638c8.4-4.9 16.527-12.93 17.5-25.813 1.348-17.921-10.108-26.957-10.108-26.957z" class="cls-3" transform="translate(-16.677 -.494)"/>
        <path id="Path_49038" d="M182.671 151.311h-7.3a2.006 2.006 0 1 1 0-4.011h7.3a2.006 2.006 0 0 1 0 4.011z" transform="translate(-31.325 -29.13)"/>
        <path id="Path_49039" d="M55.9 151.311h-7.3a2.006 2.006 0 0 1 0-4.011h7.3a2.006 2.006 0 1 1 0 4.011z" transform="translate(-6.254 -29.13)"/>
        <path id="Path_49040" d="M171.975 249.46H21.713a6.755 6.755 0 0 1-6.748-6.748v-17.767a2.006 2.006 0 0 1 4.011 0 2.739 2.739 0 0 0 2.736 2.736h150.262a2.739 2.739 0 0 0 2.736-2.736 2.006 2.006 0 0 1 4.011 0v17.768a6.754 6.754 0 0 1-6.746 6.748zm-153-18.349v11.6a2.739 2.739 0 0 0 2.736 2.736h150.264a2.739 2.739 0 0 0 2.736-2.736v-11.6a6.714 6.714 0 0 1-2.736.58H21.713a6.7 6.7 0 0 1-2.736-.58z" transform="translate(0 -44.088)"/>
        <path id="Path_49041" d="M171.975 227.311H21.713a6.755 6.755 0 0 1-6.748-6.748V202.8a2.006 2.006 0 0 1 4.011 0 2.739 2.739 0 0 0 2.736 2.736h150.262a2.739 2.739 0 0 0 2.736-2.736 2.006 2.006 0 0 1 4.011 0v17.768a6.754 6.754 0 0 1-6.746 6.748zm-153-18.348v11.6a2.739 2.739 0 0 0 2.736 2.736h150.264a2.739 2.739 0 0 0 2.736-2.736v-11.6a6.715 6.715 0 0 1-2.736.58H21.713a6.715 6.715 0 0 1-2.736-.58z" transform="translate(0 -39.708)"/>
        <path id="Path_49042" d="M192.9 98.641a2.007 2.007 0 0 1-2.006-2.006V86a2.015 2.015 0 0 1 .108-.65 30.425 30.425 0 0 0 1.688-9.869v-.053c-.055-3.6-1.267-15.652-14.548-19.559a51.731 51.731 0 0 0-14.608-2.1H138.4l8.309 8.31a12.411 12.411 0 0 1 .8 16.968 12.184 12.184 0 0 1-17.746.546l-29.399-29.398a12.2 12.2 0 0 1 0-17.231l29.392-29.395A12.285 12.285 0 0 1 138.74.006a12.088 12.088 0 0 1 8.763 4.11 12.409 12.409 0 0 1-.8 16.968l-8.31 8.31h25.555c17.034 0 28.66 4 37.677 12.98 1.256 1.032 12.123 10.526 10.766 28.6-.854 11.358-7.245 20.831-18.484 27.394a2.006 2.006 0 0 1-1.007.273zm2.006-12.315v6.658c8.273-5.742 12.807-13.234 13.489-22.312 1.253-16.663-9.244-25.148-9.35-25.231a2.179 2.179 0 0 1-.176-.156c-8.216-8.216-18.984-11.88-34.916-11.88h-30.4a2.005 2.005 0 0 1-1.418-3.423l11.733-11.733a8.4 8.4 0 0 0 .632-11.472 8.174 8.174 0 0 0-11.908-.371L103.2 35.8a8.175 8.175 0 0 0 0 11.56l29.393 29.392a8.175 8.175 0 0 0 11.908-.37 8.4 8.4 0 0 0-.63-11.471l-11.735-11.733a2.005 2.005 0 0 1 1.418-3.423h29.978a55.747 55.747 0 0 1 15.741 2.265c15.909 4.681 17.36 19.053 17.425 23.346v.115a34.357 34.357 0 0 1-1.8 10.845z" transform="translate(-16.184)"/>
        <path id="Path_49043" d="M171.975 187.218H21.713a6.755 6.755 0 0 1-6.748-6.747V94.648a6.755 6.755 0 0 1 6.748-6.748h87.631a2.006 2.006 0 0 1 1.418.587l5.646 5.646a8.175 8.175 0 0 0 11.908-.37 7.767 7.767 0 0 0 1.877-4.128 2.007 2.007 0 0 1 1.988-1.735h39.794a6.754 6.754 0 0 1 6.747 6.747v85.824a6.756 6.756 0 0 1-6.748 6.747zM21.713 91.911a2.739 2.739 0 0 0-2.736 2.736v85.824a2.739 2.739 0 0 0 2.736 2.736h150.261a2.739 2.739 0 0 0 2.736-2.736V94.648a2.739 2.739 0 0 0-2.736-2.736H133.8a11.69 11.69 0 0 1-2.483 4.513 12.186 12.186 0 0 1-17.746.546l-5.059-5.058h-86.8z" transform="translate(0 -17.383)"/>
        <path id="Path_49044" d="M208.866 121.237a31.367 31.367 0 0 1-31.332-31.332 2.005 2.005 0 0 1 2.006-2.005h24.585a6.754 6.754 0 0 1 6.747 6.747v24.585a2.005 2.005 0 0 1-2.006 2.005zm-27.248-29.326a27.367 27.367 0 0 0 25.242 25.242V94.648a2.739 2.739 0 0 0-2.736-2.736h-22.506z" transform="translate(-32.15 -17.383)"/>
        <path id="Path_49045" d="M16.972 121.237a2.005 2.005 0 0 1-2.006-2.006V94.648a6.755 6.755 0 0 1 6.748-6.748H46.3a2.005 2.005 0 0 1 2 2.007 31.367 31.367 0 0 1-31.332 31.331zm4.741-29.326a2.739 2.739 0 0 0-2.736 2.736v22.506a27.367 27.367 0 0 0 25.242-25.242z" transform="translate(0 -17.383)"/>
        <path id="Path_49046" d="M46.3 203.483H21.713a6.755 6.755 0 0 1-6.748-6.747v-24.584a2.005 2.005 0 0 1 2.006-2.006A31.367 31.367 0 0 1 48.3 201.478a2 2 0 0 1-2 2.005zM18.977 174.23v22.506a2.739 2.739 0 0 0 2.736 2.736h22.506a27.367 27.367 0 0 0-25.242-25.242z" transform="translate(0 -33.648)"/>
        <path id="Path_49047" d="M204.124 203.483H179.54a2.005 2.005 0 0 1-2.006-2.006 31.367 31.367 0 0 1 31.332-31.332 2.005 2.005 0 0 1 2.006 2.006v24.585a6.755 6.755 0 0 1-6.748 6.747zm-22.506-4.011h22.506a2.739 2.739 0 0 0 2.736-2.736V174.23a27.367 27.367 0 0 0-25.242 25.242z" transform="translate(-32.15 -33.648)"/>
        <path id="Path_49048" d="M108.581 175.619a34.264 34.264 0 1 1 34.265-34.264 34.3 34.3 0 0 1-34.265 34.264zm0-64.519a30.253 30.253 0 1 0 30.254 30.253 30.287 30.287 0 0 0-30.254-30.253z" transform="translate(-11.737 -21.178)"/>
        <path id="Path_49049" d="M204.124 249.46H179.54a2.005 2.005 0 0 1-2.006-2.006 31.047 31.047 0 0 1 6.412-18.985 2 2 0 0 1 1.594-.789h18.583a2.739 2.739 0 0 0 2.736-2.736 2.006 2.006 0 0 1 4.011 0v17.768a6.754 6.754 0 0 1-6.746 6.748zm-22.507-4.011h22.507a2.739 2.739 0 0 0 2.736-2.736v-11.6a6.715 6.715 0 0 1-2.736.58h-17.569a26.988 26.988 0 0 0-4.938 13.756z" transform="translate(-32.15 -44.088)"/>
        <path id="Path_49050" d="M46.3 249.46H21.713a6.755 6.755 0 0 1-6.748-6.748v-17.767a2.006 2.006 0 0 1 4.011 0 2.739 2.739 0 0 0 2.736 2.736H40.3a2 2 0 0 1 1.594.789 31.043 31.043 0 0 1 6.406 18.985 2.005 2.005 0 0 1-2 2.006zm-27.32-18.349v11.6a2.739 2.739 0 0 0 2.736 2.736H44.22a26.991 26.991 0 0 0-4.937-13.757H21.714a6.7 6.7 0 0 1-2.737-.579z" transform="translate(0 -44.088)"/>
        <path id="Path_49051" d="M204.124 227.311H179.54a2.005 2.005 0 0 1-2.006-2.006 31.047 31.047 0 0 1 6.412-18.985 2 2 0 0 1 1.594-.789h18.583a2.739 2.739 0 0 0 2.736-2.736 2.006 2.006 0 1 1 4.011 0v17.768a6.754 6.754 0 0 1-6.746 6.747zm-22.507-4.011h22.507a2.739 2.739 0 0 0 2.736-2.736v-11.6a6.715 6.715 0 0 1-2.736.58h-17.569a26.99 26.99 0 0 0-4.938 13.756z" transform="translate(-32.15 -39.708)"/>
        <path id="Path_49052" d="M46.3 227.311H21.713a6.755 6.755 0 0 1-6.748-6.748V202.8a2.006 2.006 0 0 1 4.011 0 2.739 2.739 0 0 0 2.736 2.736H40.3a2 2 0 0 1 1.594.789A31.043 31.043 0 0 1 48.3 225.3a2 2 0 0 1-2 2.006zm-27.32-18.348v11.6a2.739 2.739 0 0 0 2.736 2.736H44.22a26.991 26.991 0 0 0-4.937-13.757H21.714a6.717 6.717 0 0 1-2.737-.579z" transform="translate(0 -39.708)"/>
    </g>
</svg>
