<svg xmlns="http://www.w3.org/2000/svg" width="1472" height="184" viewBox="0 0 1472 184">
    <defs>
        <style>
            .cls-1{fill:none}.cls-2{opacity:.165;clip-path:url(#clip-path)}.cls-3{fill:#eb2554}
        </style>
        <clipPath id="clip-path">
            <path d="M0 0h1472v184H0z" class="cls-1"/>
        </clipPath>
    </defs>
    <g id="Repeat_Grid_14" class="cls-2" data-name="Repeat Grid 14">
        <g transform="translate(-216 -128)">
            <path id="Path_34589" d="M38.857 0h77.714L77.714 136H0z" class="cls-3" data-name="Path 34589" transform="translate(216 128)"/>
        </g>
        <g transform="translate(-85 -128)">
            <path id="Path_34589-2" d="M38.857 0h77.714L77.714 136H0z" class="cls-3" data-name="Path 34589" transform="translate(216 128)"/>
        </g>
        <g transform="translate(46 -128)">
            <path id="Path_34589-3" d="M38.857 0h77.714L77.714 136H0z" class="cls-3" data-name="Path 34589" transform="translate(216 128)"/>
        </g>
        <g transform="translate(177 -128)">
            <path id="Path_34589-4" d="M38.857 0h77.714L77.714 136H0z" class="cls-3" data-name="Path 34589" transform="translate(216 128)"/>
        </g>
        <g transform="translate(308 -128)">
            <path id="Path_34589-5" d="M38.857 0h77.714L77.714 136H0z" class="cls-3" data-name="Path 34589" transform="translate(216 128)"/>
        </g>
        <g transform="translate(439 -128)">
            <path id="Path_34589-6" d="M38.857 0h77.714L77.714 136H0z" class="cls-3" data-name="Path 34589" transform="translate(216 128)"/>
        </g>
        <g transform="translate(570 -128)">
            <path id="Path_34589-7" d="M38.857 0h77.714L77.714 136H0z" class="cls-3" data-name="Path 34589" transform="translate(216 128)"/>
        </g>
        <g transform="translate(701 -128)">
            <path id="Path_34589-8" d="M38.857 0h77.714L77.714 136H0z" class="cls-3" data-name="Path 34589" transform="translate(216 128)"/>
        </g>
        <g transform="translate(832 -128)">
            <path id="Path_34589-9" d="M38.857 0h77.714L77.714 136H0z" class="cls-3" data-name="Path 34589" transform="translate(216 128)"/>
        </g>
        <g transform="translate(963 -128)">
            <path id="Path_34589-10" d="M38.857 0h77.714L77.714 136H0z" class="cls-3" data-name="Path 34589" transform="translate(216 128)"/>
        </g>
        <g transform="translate(1094 -128)">
            <path id="Path_34589-11" d="M38.857 0h77.714L77.714 136H0z" class="cls-3" data-name="Path 34589" transform="translate(216 128)"/>
        </g>
        <g transform="translate(1225 -128)">
            <path id="Path_34589-12" d="M38.857 0h77.714L77.714 136H0z" class="cls-3" data-name="Path 34589" transform="translate(216 128)"/>
        </g>
    </g>
</svg>
