<svg id="startup" xmlns="http://www.w3.org/2000/svg" width="22.75" height="22.75" viewBox="0 0 22.75 22.75">
  <g id="Group_1807" data-name="Group 1807" transform="translate(0.682)">
    <g id="Group_1806" data-name="Group 1806">
      <path id="Path_11606" data-name="Path 11606" d="M0,10.351A7.034,7.034,0,0,1,8.19,6.029,20.067,20.067,0,0,1,21.5,0a.537.537,0,0,1,.569.569,20.48,20.48,0,0,1-5.915,13.309c.569,3.526-1.024,6.939-4.323,8.19a7.923,7.923,0,0,0,.227-4.891,12.433,12.433,0,0,1-1.706.91.536.536,0,0,1-.682-.114L3.981,12.285a.508.508,0,0,1,0-.569,7.252,7.252,0,0,1,.91-1.592A7.923,7.923,0,0,0,0,10.351Zm12.513-.8A2.252,2.252,0,0,0,15.7,6.37a2.252,2.252,0,1,0-3.185,3.185Z" fill="#fff"/>
    </g>
  </g>
  <g id="Group_1809" data-name="Group 1809" transform="translate(0 13.65)">
    <g id="Group_1808" data-name="Group 1808">
      <path id="Path_11607" data-name="Path 11607" d="M407.381,309.93l2.389-2.389a1.126,1.126,0,0,1,1.593,1.592l-2.389,2.389a1.126,1.126,0,0,1-1.593-1.593Z" transform="translate(-407.04 -307.2)" fill="#fff"/>
    </g>
  </g>
  <g id="Group_1811" data-name="Group 1811" transform="translate(4.436 18.086)">
    <g id="Group_1810" data-name="Group 1810">
      <path id="Path_11608" data-name="Path 11608" d="M307.541,409.77l2.389-2.389a1.126,1.126,0,1,1,1.592,1.592l-2.389,2.389a1.126,1.126,0,1,1-1.592-1.592Z" transform="translate(-307.2 -407.04)" fill="#fff"/>
    </g>
  </g>
  <g id="Group_1813" data-name="Group 1813" transform="translate(1.365 15.925)">
    <g id="Group_1812" data-name="Group 1812">
      <path id="Path_11609" data-name="Path 11609" d="M356.181,362.04l3.3-3.3a1.126,1.126,0,0,1,1.592,1.592l-3.3,3.3a1.126,1.126,0,0,1-1.592-1.592Z" transform="translate(-355.84 -358.4)" fill="#fff"/>
    </g>
  </g>
</svg>
