<svg width="554" height="532" fill="none" xmlns="http://www.w3.org/2000/svg"><path opacity=".204" d="M287.5 450.245c102.032 0 184.745-82.713 184.745-184.745 0-102.032-82.713-184.745-184.745-184.745-102.032 0-184.745 82.713-184.745 184.745 0 102.032 82.713 184.745 184.745 184.745z" fill="#D5D7DB"/><path opacity=".152" d="M287.5 531C434.132 531 553 412.132 553 265.5S434.132 0 287.5 0 22 118.868 22 265.5 140.868 531 287.5 531z" fill="#D5D7DB"/><path d="M496.391 296.272c3.366 1.944 3.366 5.1 0 7.038a13.464 13.464 0 0 1-12.191 0c-3.367-1.943-3.367-5.094 0-7.038a13.465 13.465 0 0 1 12.191 0zM427.471 177.229c3.367 1.944 3.367 5.1 0 7.039a13.476 13.476 0 0 1-12.191 0c-3.367-1.944-3.367-5.1 0-7.039a13.477 13.477 0 0 1 12.191 0zM427.727 416.083c3.366 1.944 3.366 5.1 0 7.04a13.477 13.477 0 0 1-12.191 0c-3.367-1.945-3.367-5.1 0-7.04a13.475 13.475 0 0 1 12.191 0zM159.367 393.536c3.367 1.944 3.367 5.1 0 7.039a13.476 13.476 0 0 1-12.191 0c-3.366-1.944-3.366-5.1 0-7.039a13.477 13.477 0 0 1 12.191 0z" fill="#ECF0F1"/><path d="M490.294 301.01c-.213 0-.422-.055-.606-.161l-2.643-1.514a1.221 1.221 0 0 1-.453-1.665 1.218 1.218 0 0 1 1.665-.452l2.644 1.515a1.221 1.221 0 0 1 .452 1.663 1.226 1.226 0 0 1-1.059.614zM482.755 296.696a1.216 1.216 0 0 1-.6-.162l-4.9-2.8a1.22 1.22 0 0 1 .286-2.234c.154-.042.315-.053.474-.032.159.02.312.071.451.151l4.9 2.8a1.206 1.206 0 0 1 .571.737c.042.155.053.316.032.474a1.212 1.212 0 0 1-1.214 1.066zm-9.791-5.6a1.216 1.216 0 0 1-.6-.162l-4.9-2.8a1.217 1.217 0 1 1 1.211-2.114l4.9 2.8a1.221 1.221 0 0 1 .452 1.662 1.221 1.221 0 0 1-1.063.61v.004zm-9.791-5.6a1.215 1.215 0 0 1-.6-.161l-4.9-2.8a1.206 1.206 0 0 1-.571-.737 1.205 1.205 0 0 1-.032-.474 1.204 1.204 0 0 1 .463-.81 1.217 1.217 0 0 1 1.351-.093l4.9 2.8a1.221 1.221 0 0 1 .452 1.662 1.216 1.216 0 0 1-1.062.605l-.001.008zm-9.791-5.6c-.213 0-.421-.055-.606-.161l-4.894-2.8a1.206 1.206 0 0 1-.571-.737 1.205 1.205 0 0 1-.032-.474 1.204 1.204 0 0 1 .463-.81 1.217 1.217 0 0 1 1.351-.093l4.9 2.8a1.221 1.221 0 0 1 .452 1.662 1.22 1.22 0 0 1-1.066.602l.003.011zm-9.792-5.6a1.215 1.215 0 0 1-.6-.161l-4.894-2.8a1.206 1.206 0 0 1-.571-.737 1.205 1.205 0 0 1-.032-.474 1.204 1.204 0 0 1 .463-.81 1.217 1.217 0 0 1 1.351-.093l4.894 2.8a1.221 1.221 0 0 1 .452 1.663 1.223 1.223 0 0 1-1.062.597l-.001.015zm-9.79-5.6a1.215 1.215 0 0 1-.6-.161l-4.9-2.8a1.221 1.221 0 0 1-.452-1.662 1.22 1.22 0 0 1 1.665-.453l4.894 2.8a1.206 1.206 0 0 1 .571.737 1.224 1.224 0 0 1-.119.925 1.23 1.23 0 0 1-.449.44 1.225 1.225 0 0 1-.609.156l-.001.018zM418.726 263.078a1.22 1.22 0 0 1-1.178-1.537 1.226 1.226 0 0 1 .57-.738l3.248-1.866 3.251 1.861a1.206 1.206 0 0 1 .571.737c.042.155.053.316.032.474a1.217 1.217 0 0 1-1.814.904l-2.038-1.166-2.036 1.169a1.194 1.194 0 0 1-.606.162zM409.75 268.234a1.22 1.22 0 0 1-1.178-1.537 1.226 1.226 0 0 1 .57-.738l4.487-2.579a1.222 1.222 0 0 1 1.665.45 1.218 1.218 0 0 1-.451 1.665l-4.487 2.577a1.214 1.214 0 0 1-.606.162zM402.621 272.329a1.224 1.224 0 0 1-1.058-.612 1.218 1.218 0 0 1 .45-1.665l2.642-1.517a1.225 1.225 0 0 1 .925-.12 1.226 1.226 0 0 1 .89 1.021 1.209 1.209 0 0 1-.243.901c-.098.127-.22.233-.359.313l-2.642 1.517a1.213 1.213 0 0 1-.605.162zM421.632 420.821a1.218 1.218 0 0 1-.606-2.276l2.646-1.511a1.224 1.224 0 0 1 .925-.119 1.203 1.203 0 0 1 .737.572 1.22 1.22 0 0 1-.453 1.662l-2.646 1.511a1.202 1.202 0 0 1-.603.161zM429.2 416.496a1.208 1.208 0 0 1-.612-.164 1.206 1.206 0 0 1-.447-.45 1.204 1.204 0 0 1-.118-.925 1.213 1.213 0 0 1 .571-.737l4.923-2.814c.139-.08.292-.131.451-.151a1.204 1.204 0 0 1 .9.245 1.217 1.217 0 0 1 .428 1.284 1.22 1.22 0 0 1-.57.737l-4.923 2.814a1.202 1.202 0 0 1-.603.161zm9.847-5.629a1.218 1.218 0 0 1-.606-2.276l4.922-2.816a1.222 1.222 0 0 1 1.351.095 1.234 1.234 0 0 1 .462.811 1.223 1.223 0 0 1-.245.899c-.098.127-.22.233-.359.312l-4.922 2.815a1.191 1.191 0 0 1-.603.16zm9.845-5.63a1.218 1.218 0 0 1-.606-2.276l4.923-2.815a1.222 1.222 0 0 1 1.35.094 1.206 1.206 0 0 1 .463.81 1.209 1.209 0 0 1-.604 1.212l-4.923 2.814a1.191 1.191 0 0 1-.603.16v.001zm9.847-5.629a1.218 1.218 0 0 1-.606-2.276l4.923-2.815a1.204 1.204 0 0 1 .925-.118 1.213 1.213 0 0 1 .737.571c.08.139.131.292.151.451a1.204 1.204 0 0 1-.245.9c-.098.126-.22.232-.359.311l-4.923 2.815a1.2 1.2 0 0 1-.603.159v.002zm9.845-5.629a1.221 1.221 0 0 1-.965-1.964c.098-.127.22-.233.359-.312l4.923-2.816a1.204 1.204 0 0 1 .925-.118 1.213 1.213 0 0 1 .737.571c.08.139.131.292.151.451a1.204 1.204 0 0 1-.245.9c-.098.126-.22.232-.359.311l-4.923 2.816a1.202 1.202 0 0 1-.603.161zm9.847-5.63a1.219 1.219 0 0 1-.606-2.277l4.923-2.814c.139-.08.292-.131.451-.151a1.204 1.204 0 0 1 .899.245 1.206 1.206 0 0 1 .463.81 1.223 1.223 0 0 1-.245.899c-.098.127-.22.233-.359.312l-4.923 2.815a1.202 1.202 0 0 1-.603.161zM488.278 382.72a1.219 1.219 0 0 1-.606-2.277l.8-.456-.8-.455a1.221 1.221 0 0 1-.14-2.022 1.217 1.217 0 0 1 1.351-.093l4.492 2.573-4.5 2.57c-.182.105-.387.16-.597.16zM483.315 376.849a1.215 1.215 0 0 1-.6-.161l-4.962-2.843a1.206 1.206 0 0 1-.571-.738 1.202 1.202 0 0 1-.032-.474 1.221 1.221 0 0 1 1.814-.903l4.962 2.843a1.22 1.22 0 0 1 .603 1.212 1.22 1.22 0 0 1-1.214 1.064zm-9.926-5.686a1.216 1.216 0 0 1-.6-.162l-4.961-2.843a1.221 1.221 0 0 1-.603-1.212 1.225 1.225 0 0 1 .889-1.02 1.225 1.225 0 0 1 .925.119l4.962 2.843a1.204 1.204 0 0 1 .57.738c.042.154.053.315.032.474a1.22 1.22 0 0 1-1.214 1.063zm-9.923-5.686a1.215 1.215 0 0 1-.6-.161l-4.962-2.843a1.217 1.217 0 0 1 .286-2.233c.312-.085.645-.043.926.118l4.962 2.843a1.221 1.221 0 0 1 .452 1.663 1.22 1.22 0 0 1-1.064.613zm-9.926-5.686a1.225 1.225 0 0 1-.6-.161l-4.962-2.843a1.221 1.221 0 0 1-.452-1.663 1.221 1.221 0 0 1 1.663-.452l4.962 2.843a1.22 1.22 0 0 1 .453 1.663 1.22 1.22 0 0 1-1.064.612v.001zm-9.923-5.686c-.211 0-.417-.056-.6-.161l-4.964-2.842a1.221 1.221 0 0 1 .287-2.235 1.207 1.207 0 0 1 .926.12l4.962 2.842a1.221 1.221 0 0 1 .452 1.663 1.216 1.216 0 0 1-1.063.612v.001zm-9.926-5.685a1.215 1.215 0 0 1-.6-.161l-4.962-2.843a1.206 1.206 0 0 1-.571-.738 1.202 1.202 0 0 1-.032-.474 1.216 1.216 0 0 1 .889-1.02 1.22 1.22 0 0 1 .925.117l4.962 2.843a1.22 1.22 0 0 1 .603 1.212 1.204 1.204 0 0 1-.6.9 1.216 1.216 0 0 1-.614.163v.001zM423.766 342.733a1.213 1.213 0 0 1-.6-.162l-2.643-1.515a1.206 1.206 0 0 1-.571-.737 1.209 1.209 0 0 1 .12-.925 1.206 1.206 0 0 1 .737-.57 1.225 1.225 0 0 1 .925.119l2.643 1.515a1.204 1.204 0 0 1 .57.738 1.222 1.222 0 0 1-.119.924 1.224 1.224 0 0 1-1.062.613zM164.356 330.273a1.217 1.217 0 0 1-1.178-1.536c.084-.312.289-.577.568-.739l2.641-1.518a1.225 1.225 0 0 1 .925-.119 1.206 1.206 0 0 1 .738.569 1.207 1.207 0 0 1 .121.924 1.224 1.224 0 0 1-.569.739l-2.641 1.52c-.184.105-.393.16-.605.16zM153.65 336.43c-.214 0-.425-.056-.611-.163a1.228 1.228 0 0 1-.599-.899c-.021-.158-.01-.32.032-.474a1.203 1.203 0 0 1 .569-.74l5.352-3.08c.28-.16.613-.203.924-.118a1.217 1.217 0 0 1 .649 1.92 1.208 1.208 0 0 1-.358.313l-5.352 3.078a1.215 1.215 0 0 1-.606.163zM148.291 342.555a1.218 1.218 0 0 1-.609-.165l-4.465-2.585 4.472-2.573a1.22 1.22 0 0 1 1.215 2.115l-.81.466.809.468a1.207 1.207 0 0 1 .567.741 1.221 1.221 0 0 1-.569 1.37 1.222 1.222 0 0 1-.61.163zM189.559 366.448c-.214 0-.424-.057-.609-.165l-5.159-2.987a1.207 1.207 0 0 1-.567-.74 1.227 1.227 0 0 1 .123-.925 1.224 1.224 0 0 1 .74-.569 1.208 1.208 0 0 1 .925.125l5.159 2.987a1.207 1.207 0 0 1 .567.74 1.208 1.208 0 0 1-.123.925 1.223 1.223 0 0 1-1.056.609zm-10.318-5.973c-.214 0-.424-.057-.609-.165l-5.159-2.987a1.207 1.207 0 0 1-.567-.741 1.227 1.227 0 0 1 .123-.925 1.207 1.207 0 0 1 .74-.567 1.208 1.208 0 0 1 .925.123l5.159 2.987a1.216 1.216 0 0 1 .445 1.665 1.22 1.22 0 0 1-1.053.61h-.004zm-10.317-5.975c-.214 0-.424-.057-.609-.165l-5.16-2.987a1.207 1.207 0 0 1-.567-.74 1.208 1.208 0 0 1 .123-.925 1.207 1.207 0 0 1 .74-.567 1.208 1.208 0 0 1 .925.123l5.16 2.987a1.207 1.207 0 0 1 .567.74 1.214 1.214 0 0 1-.567 1.371 1.225 1.225 0 0 1-.608.163h-.004zm-10.314-5.97c-.214 0-.424-.056-.609-.164l-5.16-2.987a1.207 1.207 0 0 1-.567-.74 1.227 1.227 0 0 1 .123-.925 1.208 1.208 0 0 1 .74-.569 1.208 1.208 0 0 1 .925.124l5.16 2.988a1.207 1.207 0 0 1 .567.74 1.208 1.208 0 0 1-.123.925 1.218 1.218 0 0 1-1.056.608zM197.364 370.96c-.214 0-.424-.057-.609-.165l-2.636-1.526a1.22 1.22 0 0 1-.599-1.215 1.222 1.222 0 0 1 1.82-.894l2.636 1.526a1.223 1.223 0 0 1 .568.74 1.227 1.227 0 0 1-.123.925 1.218 1.218 0 0 1-1.057.609zM153.833 397.505a1.22 1.22 0 0 1-.614-2.272l2.635-1.531a1.218 1.218 0 1 1 1.225 2.106l-2.635 1.531a1.203 1.203 0 0 1-.611.166zM161.917 392.807a1.213 1.213 0 0 1-1.055-.607 1.218 1.218 0 0 1 .441-1.665l5.45-3.166a1.218 1.218 0 1 1 1.225 2.106l-5.45 3.167a1.212 1.212 0 0 1-.611.165zm10.9-6.334a1.22 1.22 0 0 1-.613-2.272l5.45-3.167a1.216 1.216 0 0 1 1.666.442 1.218 1.218 0 0 1-.441 1.665l-5.451 3.166a1.207 1.207 0 0 1-.612.163l.001.003zm10.9-6.333a1.224 1.224 0 0 1-1.054-.606 1.218 1.218 0 0 1 .441-1.666l5.45-3.167a1.218 1.218 0 1 1 1.225 2.107l-5.45 3.166a1.213 1.213 0 0 1-.613.166h.001z" fill="#ECF0F1"/><path d="M194.616 373.805a1.22 1.22 0 0 1-.613-2.273l2.633-1.529a1.208 1.208 0 0 1 1.353.083 1.224 1.224 0 0 1 .229 1.709 1.22 1.22 0 0 1-.357.314l-2.633 1.531a1.219 1.219 0 0 1-.612.165zM200.099 227.175c.217 0 .431-.058.618-.169l2.624-1.549a1.222 1.222 0 0 0 .561-.745 1.216 1.216 0 0 0-1.799-1.353l-2.624 1.548a1.222 1.222 0 0 0-.431 1.67 1.224 1.224 0 0 0 1.051.598zM206.515 222.164a1.22 1.22 0 0 1 .43-1.67l4.845-2.859a1.217 1.217 0 0 1 1.668.43 1.218 1.218 0 0 1-.43 1.67l-4.844 2.859a1.22 1.22 0 0 1-1.669-.43zm9.688-5.717a1.225 1.225 0 0 1-.131-.924c.081-.313.283-.581.561-.746l4.844-2.858a1.218 1.218 0 1 1 1.24 2.098l-4.844 2.859a1.212 1.212 0 0 1-.619.169 1.215 1.215 0 0 1-1.051-.593v-.005zM226.941 211.334a1.2 1.2 0 0 0 .618-.169l4.426-2.61-4.453-2.563a1.225 1.225 0 0 0-.926-.121 1.224 1.224 0 0 0-.65 1.92c.098.127.219.233.358.313l.829.476-.823.486a1.222 1.222 0 0 0-.561.745 1.216 1.216 0 0 0 1.182 1.523zM221.404 205.276l-4.914-2.827a1.208 1.208 0 0 1-.569-.74 1.204 1.204 0 0 1 .121-.925 1.217 1.217 0 0 1 1.663-.448l4.914 2.828a1.22 1.22 0 0 1 .448 1.663 1.22 1.22 0 0 1-1.057.611c-.213 0-.422-.056-.606-.162zm-9.827-5.654-4.914-2.828a1.22 1.22 0 0 1-.448-1.663 1.22 1.22 0 0 1 1.663-.448l4.914 2.827a1.208 1.208 0 0 1 .569.74 1.204 1.204 0 0 1-.121.925 1.218 1.218 0 0 1-1.663.447zm-9.828-5.656-4.912-2.827a1.208 1.208 0 0 1-.569-.74 1.204 1.204 0 0 1 .121-.925 1.222 1.222 0 0 1 1.665-.449l4.912 2.828a1.217 1.217 0 0 1 .001 2.111 1.21 1.21 0 0 1-.611.163 1.213 1.213 0 0 1-.608-.161h.001zm-9.827-5.654-4.912-2.827a1.222 1.222 0 0 1 .292-2.234 1.22 1.22 0 0 1 .925.121l4.912 2.828a1.217 1.217 0 0 1 .001 2.111 1.222 1.222 0 0 1-1.219.003l.001-.002zm-9.826-5.656-4.914-2.827a1.206 1.206 0 0 1-.569-.738 1.225 1.225 0 0 1 .432-1.283 1.22 1.22 0 0 1 1.352-.09l4.914 2.827a1.217 1.217 0 0 1 .001 2.111 1.211 1.211 0 0 1-1.217 0h.001zm-9.827-5.655-4.914-2.827a1.22 1.22 0 0 1-.448-1.663 1.22 1.22 0 0 1 1.663-.448l4.914 2.827a1.22 1.22 0 0 1 .448 1.663 1.216 1.216 0 0 1-1.664.448h.001zM163.047 171.509a1.214 1.214 0 0 0 1.058-.611 1.22 1.22 0 0 0-.448-1.665l-2.641-1.52a1.218 1.218 0 0 0-1.784 1.373 1.217 1.217 0 0 0 .568.74l2.641 1.52c.184.106.393.162.606.163zM311.829 165.728a1.22 1.22 0 0 1-.613-2.272l2.635-1.529c.138-.081.291-.133.45-.154a1.215 1.215 0 0 1 1.34 1.521 1.207 1.207 0 0 1-.567.741l-2.635 1.528a1.211 1.211 0 0 1-.61.165zM319.514 161.271a1.22 1.22 0 0 1-.613-2.273l5.049-2.928a1.216 1.216 0 0 1 1.352.084 1.22 1.22 0 0 1-.13 2.023l-5.048 2.928a1.212 1.212 0 0 1-.61.166zm10.1-5.857a1.22 1.22 0 0 1-.613-2.273l5.049-2.928a1.218 1.218 0 1 1 1.224 2.107l-5.049 2.928a1.211 1.211 0 0 1-.613.167l.002-.001zm10.1-5.858a1.22 1.22 0 0 1-.613-2.273l5.049-2.928a1.223 1.223 0 0 1 1.666.442 1.223 1.223 0 0 1-.442 1.666l-5.049 2.928c-.187.109-.4.166-.616.166l.005-.001zM349.806 143.7a1.216 1.216 0 0 1-1.055-.608 1.218 1.218 0 0 1 .442-1.665l3.246-1.883 3.25 1.875a1.222 1.222 0 0 1 .446 1.665 1.224 1.224 0 0 1-1.665.447l-2.029-1.171-2.025 1.175a1.221 1.221 0 0 1-.61.165zM413.839 177.617c-.213 0-.423-.056-.608-.163l-4.9-2.827a1.22 1.22 0 0 1-.447-1.665 1.224 1.224 0 0 1 1.215-.599c.159.021.312.073.451.153l4.9 2.827a1.22 1.22 0 0 1 .6 1.215 1.247 1.247 0 0 1-.154.45 1.22 1.22 0 0 1-1.057.609zm-9.793-5.653c-.213 0-.423-.056-.608-.163l-4.9-2.827a1.22 1.22 0 0 1-.447-1.665 1.224 1.224 0 0 1 1.215-.599c.159.021.312.073.451.153l4.9 2.826a1.211 1.211 0 0 1 .569.74 1.229 1.229 0 0 1-.123.926 1.218 1.218 0 0 1-1.057.609zm-9.794-5.654c-.213 0-.423-.056-.608-.163l-4.9-2.827a1.222 1.222 0 0 1-.446-1.665 1.22 1.22 0 0 1 1.665-.446l4.9 2.827a1.22 1.22 0 0 1 .6 1.215 1.213 1.213 0 0 1-1.212 1.059h.001zm-9.793-5.653c-.213 0-.423-.056-.608-.163l-4.9-2.827a1.222 1.222 0 0 1-.133-2.023 1.217 1.217 0 0 1 1.352-.088l4.9 2.827a1.222 1.222 0 0 1 .446 1.665 1.21 1.21 0 0 1-1.058.608l.001.001zm-9.794-5.655c-.213 0-.423-.056-.608-.163l-4.9-2.826a1.22 1.22 0 0 1 .769-2.265c.158.021.312.073.45.153l4.9 2.827a1.222 1.222 0 0 1 .446 1.665 1.213 1.213 0 0 1-1.058.609h.001zm-9.793-5.653c-.213 0-.423-.056-.608-.163l-4.9-2.827a1.222 1.222 0 0 1-.133-2.023 1.22 1.22 0 0 1 1.352-.088l4.9 2.827a1.222 1.222 0 0 1 .446 1.665 1.218 1.218 0 0 1-1.058.609h.001zM421.375 181.968c-.213 0-.423-.056-.608-.163l-2.638-1.523a1.22 1.22 0 0 1-.599-1.215 1.222 1.222 0 0 1 1.818-.896l2.638 1.523a1.222 1.222 0 0 1 .446 1.665 1.213 1.213 0 0 1-1.057.609z" fill="#ECF0F1"/><path d="m451.966 293.603-.018 5.961-167.9 97.57.017-5.96 167.901-97.571z" fill="#239D57"/><path d="m284.07 391.173-.017 5.96-168.995-97.569.017-5.96 168.995 97.569z" fill="#196D3D"/><path d="m451.966 293.603-167.9 97.57-168.991-97.569 167.9-97.57 168.991 97.569z" fill="#28B061"/><path d="M296.945 323.201v-63.54L190.457 198.18v63.541l106.488 61.48z" fill="#BA7A3F"/><path d="m296.945 259.66 79.866-46.111V290.4l-79.866 46.111V259.66z" fill="#F3C172"/><path d="M217.079 290.174v-13.311l-26.621-15.387-2.282 1.283 28.903 27.415z" fill="#BDC3C7"/><path d="M217.079 292.961v-13.31l-28.9-16.891v13.327l28.9 16.874z" fill="#7F8C8D"/><path d="M234.827 337.198v-4.438l4.437-2.561v-4.438l4.437-2.561v-4.437l4.437-2.562 22.185-12.809v17.749l-35.5 20.493-4.437 2.562v-4.438l4.441-2.56z" fill="#BDC3C7"/><path d="m230.39 339.76-53.244-30.745v4.437l53.244 30.741v-4.433z" fill="#7F8C8D"/><path d="m234.828 337.198-53.245-30.743-4.437 2.562 53.244 30.74 4.438-2.559z" fill="#ECF0F1"/><path d="m234.824 332.759-53.244-30.74v4.437l53.244 30.742v-4.439z" fill="#7F8C8D"/><path d="m239.264 330.2-53.24-30.741-4.437 2.562 53.244 30.74 4.433-2.561z" fill="#ECF0F1"/><path d="m239.264 325.762-53.244-30.739v4.437l53.244 30.744v-4.442z" fill="#7F8C8D"/><path d="m243.701 323.201-53.244-30.74-4.437 2.561 53.244 30.74 4.437-2.561z" fill="#ECF0F1"/><path d="m243.701 318.764-53.244-30.741v4.437l53.244 30.74v-4.436z" fill="#472F1F"/><path d="m243.701 318.764 26.622-15.371v4.438l-26.622 15.374v-4.441z" fill="#754D34"/><path d="m270.323 303.39-53.244-30.74-26.621 15.371 53.244 30.741 26.621-15.372z" fill="#9C6745"/><path d="M256.375 295.597v-44.108l-27.946-16.212 26.183 61.4 1.763-1.08z" fill="#BDC3C7"/><path d="M254.613 296.678v-44.11l-27.947-16.213v44.108l27.947 16.215z" fill="#7F8C8D"/><path d="m230.298 242.66 20.684 12v.464l-19.4-11.252v39.484l-1.286-.746.002-39.95z" fill="#BDC3C7"/><path d="M250.981 255.126v39.484l-19.4-11.253v-39.484l19.4 11.253z" fill="#472F1F"/><path d="m249.998 292.7-18.4-10.626-9.2 5.313 18.4 10.625 9.2-5.312z" fill="#9C6745"/><path d="m283.634 267.35 53.244-76.851 53.244 15.371-106.488 61.48z" fill="#F3C172"/><path d="M332.958 225.777a5.117 5.117 0 0 1-2.593-.679c-3.322-1.918-3.717-7.024-.915-11.877 2.042-3.539 5.243-5.825 8.153-5.825a5.117 5.117 0 0 1 2.593.679c3.322 1.919 3.716 7.025.915 11.878-2.044 3.538-5.244 5.824-8.153 5.824z" fill="#C9A05F"/><path d="M333.853 224.736a5.127 5.127 0 0 1-2.593-.679c-3.323-1.919-3.717-7.024-.915-11.878 2.041-3.538 5.241-5.825 8.152-5.825a5.127 5.127 0 0 1 2.593.679c3.323 1.919 3.717 7.025.915 11.878-2.044 3.539-5.244 5.825-8.152 5.825z" fill="#BDC3C7"/><path d="M335.092 225.205a5.117 5.117 0 0 1-2.593-.679c-3.322-1.918-3.717-7.025-.915-11.878 2.044-3.538 5.244-5.824 8.153-5.824a5.126 5.126 0 0 1 2.593.678c3.322 1.919 3.716 7.026.915 11.878-2.043 3.539-5.243 5.825-8.153 5.825z" fill="#ECF0F1"/><path d="M341.118 209.599a2.731 2.731 0 0 0-1.342-.35c1.336 1.589 1.116 4.9-.665 7.982-1.644 2.847-4.117 4.633-6.094 4.609.195.236.43.435.695.589 2.062 1.191 5.391-.717 7.437-4.259 2.046-3.542 2.032-7.381-.031-8.571z" fill="#95A5A6"/><path d="M339.111 217.231c1.782-3.086 2-6.393.665-7.982-1.978-.026-4.451 1.762-6.094 4.61-1.782 3.084-2 6.392-.665 7.981 1.977.024 4.45-1.762 6.094-4.609z" fill="#34495E"/><path opacity=".5" d="m283.634 267.35 53.244-76.851 53.244 15.371-13.31 7.68-34.478-8.508-45.918 61.387-12.782.921z" fill="#D9AC66"/><path d="m396.67 209.629-53.244-15.37-119.691-69.094 53.244 15.37 119.691 69.094z" fill="#E74C3C"/><path d="m290.182 271.109-59.848-34.546-59.846-34.546 26.622-38.425 26.624-38.427 59.846 34.546 59.846 34.546-26.622 38.427-26.622 38.425z" fill="#9E2F24"/><path d="m344.425 197.066-49.251 71.159-4.992 2.882 53.244-76.851 53.244 15.37-2.825 1.631-49.42-14.191z" fill="#C0392B"/><path d="M248.796 309.809c0 .388.539.7 1.2.7.661 0 1.2-.313 1.2-.7 0-.387-.539-.7-1.2-.7-.661 0-1.2.315-1.2.7z" fill="#ECF0F1"/><path d="M251.198 309.811h-2.403v-20.073h2.403v20.073z" fill="#ECF0F1"/><path d="M251.199 289.738v2.01a.95.95 0 0 0-1.544-.084.957.957 0 0 0-.208.554v18.21c-.385-.116-.651-.347-.651-.618v-20.072h2.403z" fill="#95A5A6"/><path d="M252.899 307.446c0 .386.537.7 1.2.7.663 0 1.2-.313 1.2-.7 0-.387-.539-.7-1.2-.7-.661 0-1.2.314-1.2.7z" fill="#ECF0F1"/><path d="M252.899 287.373h2.403v20.073h-2.403v-20.073z" fill="#ECF0F1"/><path d="M255.302 287.373v2.011a.95.95 0 0 0-1.544-.084.957.957 0 0 0-.208.554v18.21c-.385-.117-.651-.347-.651-.618v-20.073h2.403z" fill="#95A5A6"/><path d="M257.002 305.083c0 .388.537.7 1.2.7.663 0 1.2-.313 1.2-.7 0-.387-.537-.7-1.2-.7-.663 0-1.2.314-1.2.7z" fill="#ECF0F1"/><path d="M257.002 285.01h2.402v20.073h-2.402V285.01z" fill="#ECF0F1"/><path d="M259.404 285.007v2.01a.95.95 0 0 0-1.544-.084.957.957 0 0 0-.208.554v18.21c-.384-.116-.65-.347-.65-.618v-20.072h2.402z" fill="#95A5A6"/><path d="M261.105 302.719c0 .386.537.7 1.2.7.663 0 1.2-.313 1.2-.7 0-.387-.537-.7-1.2-.7-.663 0-1.2.315-1.2.7z" fill="#ECF0F1"/><path d="M263.507 302.72h-2.402v-20.074h2.402v20.074z" fill="#ECF0F1"/><path d="M263.507 282.646v2.01a.955.955 0 0 0-1.049-.405.95.95 0 0 0-.703.877v18.21c-.385-.117-.65-.347-.65-.618v-20.073l2.402-.001z" fill="#95A5A6"/><path d="m244.571 293.982 22.026-12.714v-1.486l-23.765 13.111 1.739 1.089z" fill="#BDC3C7"/><path d="m244.571 292.497 22.026-12.717-1.74-1.092-22.025 12.717 1.739 1.092zM240.485 313.457c0 1.032 1.44 1.871 3.216 1.871 1.776 0 3.216-.838 3.216-1.871s-1.439-1.873-3.216-1.873c-1.777 0-3.216.838-3.216 1.873z" fill="#ECF0F1"/><path d="M246.917 313.457h-6.431v-58.789h6.431v58.789z" fill="#ECF0F1"/><path d="M242.557 311.713v3.487c-1.209-.268-2.072-.944-2.072-1.743 0-.799.863-1.475 2.072-1.744z" fill="#95A5A6"/><path d="M240.485 254.667h2.071v58.789h-2.071v-58.789z" fill="#95A5A6"/><path d="M203.898 283.799c0 .386.539.7 1.2.7.661 0 1.2-.312 1.2-.7 0-.388-.537-.7-1.2-.7-.663 0-1.2.314-1.2.7z" fill="#ECF0F1"/><path d="M206.3 283.799h-2.403v-20.074h2.403v20.074z" fill="#ECF0F1"/><path d="M206.301 263.725v2.011a.947.947 0 0 0-1.049-.407.955.955 0 0 0-.703.879v18.209c-.384-.116-.651-.347-.651-.617v-20.075h2.403z" fill="#95A5A6"/><path d="M208.001 281.44c0 .386.537.7 1.2.7.663 0 1.2-.313 1.2-.7 0-.387-.539-.7-1.2-.7-.661 0-1.2.309-1.2.7z" fill="#ECF0F1"/><path d="M208.001 261.362h2.403v20.074h-2.403v-20.074z" fill="#ECF0F1"/><path d="M210.404 261.364v2.01a.947.947 0 0 0-1.049-.407.955.955 0 0 0-.703.879v18.21c-.385-.117-.651-.347-.651-.618v-20.074h2.403z" fill="#95A5A6"/><path d="M212.1 279.073c0 .386.537.7 1.2.7.663 0 1.2-.312 1.2-.7 0-.388-.537-.7-1.2-.7-.663 0-1.2.314-1.2.7z" fill="#ECF0F1"/><path d="M212.104 258.999h2.402v20.074h-2.402v-20.074z" fill="#ECF0F1"/><path d="M214.506 259v2.009a.949.949 0 0 0-1.751.472v18.21c-.385-.117-.651-.349-.651-.618V259h2.402z" fill="#95A5A6"/><path d="M216.207 276.708c0 .386.537.7 1.2.7.663 0 1.2-.313 1.2-.7 0-.387-.537-.7-1.2-.7-.663 0-1.2.314-1.2.7z" fill="#ECF0F1"/><path d="M218.609 276.709h-2.402v-20.074h2.402v20.074z" fill="#ECF0F1"/><path d="M218.609 256.635v2.011a.952.952 0 0 0-1.048-.408.946.946 0 0 0-.703.878v18.21c-.385-.117-.651-.349-.651-.618v-20.073h2.402z" fill="#95A5A6"/><path d="m199.673 267.972 22.026-12.717v-1.486l-23.765 13.111 1.739 1.092z" fill="#BDC3C7"/><path d="m199.673 266.486 22.026-12.717-1.74-1.092-22.025 12.717 1.739 1.092zM195.588 287.445c0 1.033 1.439 1.872 3.215 1.872 1.776 0 3.216-.838 3.216-1.872 0-1.034-1.439-1.871-3.216-1.871-1.777 0-3.215.834-3.215 1.871z" fill="#ECF0F1"/><path d="M202.017 287.446h-6.431v-58.789h6.431v58.789z" fill="#ECF0F1"/><path d="M197.658 285.702v3.487c-1.209-.269-2.07-.946-2.07-1.744s.862-1.475 2.07-1.743z" fill="#95A5A6"/><path d="M195.587 228.656h2.071v58.789h-2.071v-58.789z" fill="#95A5A6"/><path d="m210.577 217.472 33.124 49.874-66.555-38.426 33.431-11.448z" fill="#F3C172"/><path d="M211.858 247.596a5.11 5.11 0 0 0 2.592-.679c3.323-1.918 3.717-7.024.916-11.877-2.044-3.539-5.244-5.825-8.153-5.825a5.12 5.12 0 0 0-2.592.679c-3.323 1.918-3.718 7.025-.916 11.878 2.04 3.538 5.24 5.824 8.153 5.824z" fill="#C9A05F"/><path d="M213.066 246.385a5.127 5.127 0 0 0 2.593-.679c3.322-1.918 3.717-7.024.915-11.877-2.044-3.539-5.244-5.825-8.153-5.825a5.11 5.11 0 0 0-2.592.679c-3.323 1.918-3.717 7.024-.916 11.878 2.044 3.538 5.244 5.824 8.153 5.824z" fill="#C9CFD4"/><path d="M207.04 230.779c.41-.231.873-.351 1.343-.35-1.334 1.589-1.116 4.9.665 7.982 1.644 2.847 4.117 4.635 6.094 4.609a2.59 2.59 0 0 1-.695.59c-2.062 1.191-5.391-.718-7.437-4.26-2.046-3.542-2.031-7.381.03-8.571z" fill="#7F8C8D"/><path d="M209.048 238.414c-1.782-3.086-2-6.393-.665-7.982 1.979-.024 4.45 1.762 6.094 4.609 1.782 3.087 2 6.393.665 7.982-1.978.023-4.451-1.765-6.094-4.609z" fill="#34495E"/><path d="m265.727 185.393-2.246 70.3-26.574 15.415-33.123-49.874 61.943-35.841z" fill="#E74C3C"/><path d="m170.353 232.683 33.431-11.449 61.943-35.842-68.614 32-26.76 15.291z" fill="#C0392B"/><path d="m202.801 224.131-30.082 9.918-2.366-1.366 33.431-11.449 33.125 49.875-5.009-2.892-29.099-44.086z" fill="#9E2F24"/><path d="M296.945 336.512v-13.313l-26.622-15.387-2.281 1.283 28.903 27.417z" fill="#BDC3C7"/><path d="M296.945 339.299v-13.311l-28.9-16.891v13.332l28.9 16.87z" fill="#7F8C8D"/><path d="M296.945 336.512v-10.524l-4.77-2.787h4.77l79.866-46.481 2.281 1.283-82.147 58.509z" fill="#ECF0F1"/><path d="M296.944 339.299v-13.311l82.148-47.983v13.327l-82.148 47.967z" fill="#BDC3C7"/><path opacity=".5" d="m301.571 266.353 1.181-3.047 27.023 23.507-1.654 2.018-26.55 15.329v-37.807z" fill="#D9AC66"/><path d="m302.756 263.307 26.551-15.329-25.343 53.744-1.211-.606.003-37.809z" fill="#95A5A6"/><path d="m303.968 263.912 26.55-15.329v37.811l-26.55 15.329v-37.811z" fill="#ECF0F1"/><path d="m326.416 253.833 1.21-.7v32.047l-20.766 11.989v-1.381l19.555-11.291.001-30.664z" fill="#BDC3C7"/><path d="M326.416 253.833V284.5l-19.555 11.291v-30.668l19.555-11.29z" fill="#3498DB"/><path d="m306.86 275.077 8.7-5.023v-9.953l1.684-.972v9.953l10.382-5.995v1.678l-10.382 5.999v20.416l-1.684.972v-20.416l-8.7 5.023v-1.682z" fill="#BDC3C7"/><path d="M318.084 290.69v-32.047l-1.684.972v32.047l1.684-.972z" fill="#ECF0F1"/><path d="m329.772 262.938-25.057 14.469v1.678l25.059-14.468-.002-1.679z" fill="#ECF0F1"/><path d="m303.964 263.912-1.211-.605 26.551-15.329 1.21.606-26.55 15.328z" fill="#BDC3C7"/><path d="m316.4 259.615-.841.486v9.953l.841.605v-11.044zM326.415 253.833l1.21-.7v11.044l-1.21-.392v-9.952zM327.625 265.856l-1.21.7v17.945l1.21.681v-19.326zM316.4 272.333l-.841.486v17.945l.841.894v-19.325z" fill="#95A5A6"/><path opacity=".5" d="m341.804 243.111 1.186-3.047 27.017 23.511-1.653 2.018-26.551 15.329.001-37.811z" fill="#D9AC66"/><path d="m342.991 240.065 26.551-15.329-25.34 53.745-1.21-.605-.001-37.811z" fill="#95A5A6"/><path d="m344.2 240.67 26.551-15.329v37.811L344.2 278.481V240.67z" fill="#ECF0F1"/><path d="m366.648 230.592 1.211-.7v32.046l-20.767 11.99v-1.38l19.555-11.291.001-30.665z" fill="#BDC3C7"/><path d="M366.648 230.592v30.667l-19.555 11.291v-30.666l19.555-11.292z" fill="#3498DB"/><path d="m347.093 251.835 8.7-5.023v-9.953l1.684-.972v9.953l10.383-6v1.678l-10.383 6v20.416l-1.684.972v-20.412l-8.7 5.023v-1.682z" fill="#BDC3C7"/><path d="M358.318 267.448v-32.046l-1.684.972v32.047l1.684-.973z" fill="#ECF0F1"/><path d="m370.007 239.697-25.061 14.469v1.677l25.061-14.466v-1.68z" fill="#ECF0F1"/><path d="m344.201 240.67-1.21-.605 26.551-15.329 1.21.605-26.551 15.329z" fill="#BDC3C7"/><path d="m356.634 236.374-.841.486v9.953l.841.606v-11.045zM366.648 230.591l1.211-.7v11.044l-1.211-.392v-9.952zM367.859 242.615l-1.211.7v17.945l1.211.681v-19.326zM356.634 249.096l-.841.486v17.945l.841.894v-19.325z" fill="#95A5A6"/><path d="m450.441 441.872-72.971-46.1a5.105 5.105 0 0 1-2.554-4.424l-3.032-51.89c0-2.144 4.3-4.186 6-4.976a5.053 5.053 0 0 1 4.7.216l75.6 43.649a5.109 5.109 0 0 1 2.554 4.424v52.228a5.052 5.052 0 0 1-2.088 4.12c-1.54 1.127-6.321 3.842-8.209 2.753z" fill="#6289B0"/><path d="M460.141 380.401c.388.731.592 1.546.595 2.374v52.226a5.052 5.052 0 0 1-2.088 4.12c-1.539 1.125-6.32 3.84-8.208 2.75l-46.21-29.191 55.911-32.279z" fill="#3B536B"/><path d="m449.536 441.466-75.6-43.649a5.118 5.118 0 0 1-2.554-4.424v-52.227a5.109 5.109 0 0 1 7.662-4.425l75.6 43.649a5.115 5.115 0 0 1 2.554 4.425v52.226a5.109 5.109 0 0 1-7.662 4.425z" fill="#2C3E50"/><path d="M376.485 394.186v-53.808l75.6 43.649v53.808l-75.6-43.649zM415.543 360.542c0 .693-.562.932-1.256.531a2.612 2.612 0 0 1-1.255-1.983c0-.693.562-.931 1.255-.531a2.608 2.608 0 0 1 1.256 1.983z" fill="#151E26"/><path d="M417.619 361.738c0 .367-.3.492-.664.28a1.37 1.37 0 0 1-.663-1.044c0-.366.3-.491.663-.28a1.38 1.38 0 0 1 .664 1.044z" fill="#35ED83"/><path d="M414.646 359.87c0 .32-.257.431-.579.246a1.203 1.203 0 0 1-.58-.915c0-.32.261-.43.58-.245a1.19 1.19 0 0 1 .579.914z" fill="#3498DB"/><path d="M433.828 398.602c-.523-6.215-5.483-13.717-11.532-17.21a14.216 14.216 0 0 0-3.51-1.482 28.242 28.242 0 0 0-9.919-10.334c-7.181-4.146-13-1.685-13 5.495 0 .08.011.163.011.244-4.436-1.587-7.757.442-7.757 5.171 0 5.458 4.426 12.439 9.884 15.591l32.5 18.765c.216.139.431.282.65.408 5.132 2.963 9.292 1.205 9.292-3.926.005-4.205-2.79-9.364-6.619-12.722z" fill="#ECF0F1"/><path d="m319.351 430.49 75.6 43.649c2.824 1.629 7.089 1.8 9.533.395l46.6-26.9c2.443-1.411 2.138-3.875-.686-5.5l-75.6-43.649c-2.821-1.629-7.089-1.806-9.533-.4l-46.6 26.9c-2.442 1.413-2.134 3.876.686 5.505z" fill="#BDC3C7"/><path d="m319.351 436.624 75.6 43.649c2.824 1.628 7.089 1.806 9.533.4l46.6-26.905a2.885 2.885 0 0 0 1.645-2.259c.067-1.12.622-7.426-.982-8.353l-76.95-38.541c-2.821-1.628-7.089-1.806-9.533-.394l-47.846 21.889c-.963.557-.251 6.291-.374 7.06-.188 1.171.599 2.464 2.307 3.454z" fill="#95A5A6"/><path d="M403.437 418.952v62.173a8.956 8.956 0 0 1-2.178.448v-63.712l2.178 1.091z" fill="#BDC3C7"/><path d="m317.418 426.103 47.846-21.889c2.445-1.412 6.712-1.234 9.533.394l23.13 11.586v65.157a10.127 10.127 0 0 1-2.975-1.081l-75.6-43.649c-1.707-.986-2.495-2.279-2.307-3.457.122-.77-.59-6.504.373-7.061z" fill="#7F8C8D"/><path d="m319.351 430.49 75.6 43.649c2.824 1.629 7.089 1.8 9.533.395l46.6-26.9c2.443-1.411 2.138-3.875-.686-5.5l-75.6-43.649c-2.821-1.629-7.089-1.806-9.533-.4l-46.6 26.9c-2.442 1.413-2.134 3.876.686 5.505z" fill="#ECF0F1"/><path d="M445.744 443.441c-.611.352-.536.968.169 1.376a2.644 2.644 0 0 0 2.384.1c.611-.352.534-.969-.172-1.375a2.65 2.65 0 0 0-1.178-.335 2.649 2.649 0 0 0-1.203.234zM441.997 441.278c-.611.352-.536.968.172 1.376a2.65 2.65 0 0 0 2.381.1c.611-.352.534-.968-.172-1.375a2.65 2.65 0 0 0-2.381-.101zM438.251 439.114c-.611.352-.536.969.169 1.376.362.202.766.316 1.181.333.414.018.826-.062 1.204-.233.609-.353.533-.969-.173-1.376a2.646 2.646 0 0 0-2.381-.1zM434.505 436.952c-.611.353-.536.969.169 1.377a2.668 2.668 0 0 0 2.385.1c.609-.352.533-.969-.172-1.375a2.637 2.637 0 0 0-1.179-.334 2.634 2.634 0 0 0-1.203.232zM372.522 401.167a2.647 2.647 0 0 1-2.381-.1c-.706-.406-.782-1.022-.172-1.375a2.644 2.644 0 0 1 2.384.1c.705.406.782 1.023.169 1.375zM376.268 403.329a2.647 2.647 0 0 1-2.381-.1c-.706-.406-.782-1.022-.172-1.375a2.644 2.644 0 0 1 2.384.1c.705.407.782 1.023.169 1.375zM380.015 405.492a2.647 2.647 0 0 1-2.381-.1c-.706-.407-.782-1.022-.172-1.375a2.644 2.644 0 0 1 2.384.1c.705.408.782 1.023.169 1.375zM383.761 407.655a2.646 2.646 0 0 1-2.381-.1c-.706-.407-.782-1.022-.172-1.376a2.644 2.644 0 0 1 2.384.1c.705.407.782 1.026.169 1.376z" fill="#151E26"/><path d="m331.347 417.665 85.82 49.547 32.148-18.559-85.821-49.549-32.147 18.561zM342.508 443.858l29.288 16.911 14.3-8.258c.979-.564.855-1.55-.273-2.2l-25.197-14.553a4.242 4.242 0 0 0-3.814-.157l-14.304 8.257z" fill="#BDC3C7"/><path d="m430.511 447.415 5.447 3.148a2.128 2.128 0 0 0 1.906.078l3.1-1.788c.489-.282.428-.775-.137-1.1l-5.45-3.145a2.126 2.126 0 0 0-1.906-.078l-3.1 1.787c-.485.276-.423.776.14 1.098zM420.463 441.616l5.45 3.147a2.126 2.126 0 0 0 1.906.079l3.1-1.789c.487-.281.428-.774-.137-1.1l-5.45-3.145a2.114 2.114 0 0 0-1.906-.079l-3.1 1.788c-.487.281-.428.774.137 1.099zM410.417 435.812l5.45 3.145a2.113 2.113 0 0 0 1.906.079l3.1-1.788c.487-.281.428-.775-.138-1.1l-5.447-3.147a2.126 2.126 0 0 0-1.906-.079l-3.1 1.789c-.486.287-.43.779.135 1.101zM400.371 430.015l5.449 3.145a2.11 2.11 0 0 0 1.906.079l3.1-1.788c.489-.283.428-.775-.137-1.1l-5.447-3.147a2.13 2.13 0 0 0-1.908-.079l-3.1 1.789c-.49.283-.427.775.137 1.101zM390.325 424.216l5.45 3.145a2.11 2.11 0 0 0 1.906.079l3.1-1.788c.49-.283.428-.776-.137-1.1l-5.45-3.145a2.126 2.126 0 0 0-1.906-.079l-3.1 1.789c-.488.281-.428.773.137 1.099zM380.279 418.415l5.45 3.147c.289.161.613.252.944.265.331.014.66-.05.962-.187l3.1-1.788c.489-.283.427-.775-.136-1.1l-5.45-3.147a2.125 2.125 0 0 0-1.906-.078l-3.1 1.787c-.489.283-.428.776.136 1.101zM370.233 412.614l5.449 3.147a2.13 2.13 0 0 0 1.907.079l3.097-1.791c.489-.282.428-.774-.136-1.1l-5.45-3.145a2.114 2.114 0 0 0-1.906-.079l-3.1 1.788c-.488.284-.425.776.139 1.101zM360.184 406.814l5.447 3.147a2.13 2.13 0 0 0 1.908.079l3.1-1.788c.489-.282.427-.775-.138-1.1l-5.448-3.143a2.126 2.126 0 0 0-1.906-.078l-3.1 1.787c-.485.279-.425.772.137 1.096zM423.727 451.334l5.45 3.145a2.126 2.126 0 0 0 1.906.079l3.1-1.788c.49-.283.428-.775-.136-1.1l-5.447-3.145a2.117 2.117 0 0 0-1.908-.079l-3.1 1.788c-.492.281-.429.773.135 1.1zM413.682 445.533l5.45 3.147c.289.161.613.252.944.265.331.014.66-.05.962-.187l3.1-1.788c.489-.281.427-.775-.136-1.1l-5.45-3.145a2.114 2.114 0 0 0-1.906-.079l-3.1 1.787c-.49.281-.43.775.136 1.1zM403.636 439.732l5.449 3.145a2.11 2.11 0 0 0 1.906.079l3.1-1.788c.489-.281.428-.774-.136-1.1l-5.45-3.145a2.11 2.11 0 0 0-1.906-.079l-3.1 1.788c-.49.283-.427.775.137 1.1zM393.589 433.932l5.45 3.145a2.11 2.11 0 0 0 1.906.079l3.1-1.788c.49-.282.428-.775-.137-1.1l-5.45-3.145a2.114 2.114 0 0 0-1.906-.079l-3.1 1.788c-.49.282-.427.774.137 1.1zM383.543 428.134l5.45 3.145a2.11 2.11 0 0 0 1.906.079l3.1-1.788c.489-.283.426-.775-.136-1.1l-5.45-3.147a2.123 2.123 0 0 0-1.906-.079l-3.1 1.789c-.489.28-.432.774.136 1.101zM373.497 422.332l5.447 3.145a2.117 2.117 0 0 0 1.908.079l3.1-1.788c.489-.283.428-.775-.137-1.1l-5.45-3.145a2.13 2.13 0 0 0-1.906-.079l-3.1 1.788c-.487.282-.426.774.138 1.1zM363.451 416.531l5.447 3.147a2.128 2.128 0 0 0 1.906.078l3.1-1.788c.49-.282.428-.775-.136-1.1l-5.449-3.147a2.126 2.126 0 0 0-1.906-.078l-3.1 1.787c-.487.283-.429.776.138 1.101zM353.403 410.731l5.449 3.147a2.126 2.126 0 0 0 1.906.079l3.1-1.789c.486-.282.428-.774-.139-1.1l-5.452-3.146a2.114 2.114 0 0 0-1.906-.079l-3.1 1.788c-.482.281-.423.775.142 1.1zM416.944 455.249l5.45 3.145a2.126 2.126 0 0 0 1.906.079l3.1-1.788c.489-.283.427-.776-.136-1.1l-5.45-3.147a2.128 2.128 0 0 0-1.906-.078l-3.1 1.788c-.489.283-.429.775.136 1.101zM406.899 449.449l5.449 3.145a2.126 2.126 0 0 0 1.906.079l3.1-1.789c.489-.282.428-.774-.136-1.1l-5.45-3.145a2.113 2.113 0 0 0-1.906-.079l-3.1 1.788c-.49.282-.427.774.137 1.101zM396.853 443.648l5.447 3.145a2.13 2.13 0 0 0 1.908.08l3.1-1.789c.49-.281.428-.775-.136-1.1l-5.45-3.145a2.114 2.114 0 0 0-1.906-.079l-3.1 1.788c-.49.283-.427.775.137 1.1zM386.806 437.847l5.447 3.147a2.126 2.126 0 0 0 1.906.079l3.1-1.789c.489-.281.427-.775-.136-1.1l-5.45-3.147a2.113 2.113 0 0 0-1.906-.079l-3.1 1.788c-.486.282-.427.776.139 1.101zM376.758 432.048l5.45 3.145a2.11 2.11 0 0 0 1.906.079l3.1-1.788c.487-.282.428-.775-.136-1.1l-5.45-3.145a2.127 2.127 0 0 0-1.906-.08l-3.1 1.789c-.487.282-.428.774.136 1.1zM366.712 426.247l5.45 3.147a2.126 2.126 0 0 0 1.906.078l3.1-1.786c.489-.283.427-.776-.138-1.1l-5.446-3.148a2.128 2.128 0 0 0-1.906-.078l-3.1 1.788c-.491.28-.431.774.134 1.099zM356.667 420.447l5.449 3.145a2.109 2.109 0 0 0 1.906.079l3.1-1.788c.489-.283.428-.775-.136-1.1l-5.447-3.145a2.13 2.13 0 0 0-1.908-.079l-3.1 1.789c-.491.281-.428.773.136 1.099zM346.62 414.647l5.45 3.147a2.126 2.126 0 0 0 1.906.078l3.1-1.788c.49-.282.428-.774-.137-1.1l-5.45-3.145a2.114 2.114 0 0 0-1.906-.079l-3.1 1.786c-.49.284-.427.776.137 1.101zM410.162 459.165l5.446 3.145a2.114 2.114 0 0 0 1.907.079l3.1-1.788c.489-.283.428-.775-.137-1.1l-5.45-3.147a2.13 2.13 0 0 0-1.906-.079l-3.1 1.789c-.486.283-.427.775.14 1.101zM400.114 453.366l5.45 3.145a2.126 2.126 0 0 0 1.906.079l3.1-1.788c.487-.283.428-.775-.137-1.1l-5.45-3.145a2.13 2.13 0 0 0-1.906-.079l-3.1 1.788c-.487.282-.429.774.137 1.1zM359.93 430.164l35.587 20.546a2.126 2.126 0 0 0 1.906.079l3.1-1.788c.486-.283.425-.775-.139-1.1l-35.588-20.545a2.127 2.127 0 0 0-1.906-.08l-3.1 1.789c-.487.281-.424.773.14 1.099z" fill="#2C3E50"/><path d="m380.533 442.06 5.45 3.147a1.025 1.025 0 0 0 1.02 0l2.824-1.631a1.024 1.024 0 0 0 .374-1.395 1.024 1.024 0 0 0-.374-.374l-5.447-3.147a1.02 1.02 0 0 0-1.022 0l-2.824 1.631c-.155.09-.284.219-.374.374a1.02 1.02 0 0 0 .373 1.395zM370.487 436.261l5.449 3.145a1.015 1.015 0 0 0 1.021 0l2.822-1.629a1.02 1.02 0 0 0 0-1.77l-5.447-3.147a1.02 1.02 0 0 0-1.022 0l-2.822 1.629a1.027 1.027 0 0 0-.512.886 1.02 1.02 0 0 0 .511.886zM360.441 430.459l5.45 3.145a1.016 1.016 0 0 0 1.02 0l2.822-1.629c.155-.09.284-.219.374-.374a1.032 1.032 0 0 0 0-1.023 1.032 1.032 0 0 0-.374-.374l-5.447-3.145a1.031 1.031 0 0 0-1.022 0l-2.822 1.631a1.027 1.027 0 0 0-.512.884 1.016 1.016 0 0 0 .511.885zM350.394 424.658l5.447 3.147a1.02 1.02 0 0 0 1.022 0l2.824-1.631a1.021 1.021 0 0 0 0-1.769l-5.45-3.145a1.015 1.015 0 0 0-1.02 0l-2.824 1.629a1.021 1.021 0 0 0 .001 1.769zM340.349 418.859l5.447 3.145a1.02 1.02 0 0 0 1.022 0l2.822-1.629a1.021 1.021 0 0 0 0-1.769l-5.45-3.147a1.025 1.025 0 0 0-1.02 0l-2.821 1.629a1.014 1.014 0 0 0-.514.886 1.02 1.02 0 0 0 .514.885z" fill="#2C3E50"/><path d="m329.228 436.192 2.554 1.475.813-.469a1.278 1.278 0 0 0-1.278-2.212l-2.089 1.206z" fill="#35ED83"/><path d="m325.482 434.03 2.553 1.473.814-.469a1.276 1.276 0 1 0-1.278-2.211l-2.089 1.207zM321.736 431.867l2.554 1.473.813-.469a1.276 1.276 0 1 0-1.278-2.211l-2.089 1.207z" fill="#27AE60"/><path d="m298.258 86.962 3.9 2.265c-1.538-.893-3.667-.768-6.014.589l-3.9-2.267c2.347-1.353 4.476-1.481 6.014-.587zM290.184 109.829l-3.9-2.265c-1.518-.882-2.459-2.759-2.467-5.422-.015-5.369 3.751-11.893 8.424-14.592l3.9 2.267c-4.673 2.7-8.439 9.221-8.424 14.591.008 2.662.95 4.539 2.467 5.421z" fill="#239D57"/><path d="M296.142 89.816c4.661-2.692 8.465-.539 8.479 4.832.014 5.371-3.763 11.9-8.424 14.592s-8.465.523-8.479-4.833c-.014-5.356 3.749-11.893 8.424-14.591z" fill="#83BF41"/><path d="m296.093 76.021-3.9-2.267c5.352-3.091 10.714-3.94 14.636-1.712l3.9 2.265c-3.92-2.227-9.281-1.376-14.636 1.714zM281.513 91.177l-3.9-2.267a41.678 41.678 0 0 1 14.581-15.155l3.9 2.267a41.673 41.673 0 0 0-14.581 15.155z" fill="#239D57"/><path d="M296.094 76.021c5.355-3.09 10.716-3.941 14.637-1.713l-5.667 9.8c-2.392-1.362-5.665-.845-8.935 1.043a25.474 25.474 0 0 0-8.911 9.26l-5.7-3.237a41.673 41.673 0 0 1 14.576-15.153z" fill="#83BF41"/><path d="m296.055 59.437-3.9-2.267c9.323-5.383 18.092-6.272 24.7-2.5l3.9 2.267c-6.607-3.773-15.376-2.883-24.7 2.5zM271.404 85.43l-3.9-2.265c6.582-11.387 15.328-20.61 24.652-25.992l3.9 2.267c-9.324 5.378-18.07 14.601-24.652 25.99z" fill="#239D57"/><path d="M296.056 59.437c9.324-5.383 18.093-6.274 24.706-2.5l-5.667 9.8c-5.094-2.9-12.061-1.8-19.016 2.215-6.955 4.015-13.911 10.953-18.971 19.716l-5.7-3.238c6.579-11.389 15.325-20.612 24.648-25.993z" fill="#83BF41"/><path d="m295.998 42.132-3.9-2.265c12.795-7.389 25.61-9.181 35.393-3.612l3.9 2.266c-9.782-5.569-22.597-3.777-35.393 3.611zM260.716 79.326l-3.9-2.265c9.7-16.815 22.484-29.8 35.282-37.192l3.9 2.265c-12.797 7.392-25.575 20.375-35.282 37.192z" fill="#239D57"/><path d="M295.998 42.132c12.8-7.387 25.611-9.18 35.394-3.612l-5.668 9.8c-8.2-4.674-18.958-3.167-29.7 3.034s-21.471 17.1-29.614 31.212l-5.692-3.244c9.704-16.813 22.483-29.801 35.28-37.19z" fill="#83BF41"/><path d="m444.885 208.585 27.694 23.5c2.3 1.328 9.471-3.7 11.481-4.861a6.828 6.828 0 0 0 3.45-5.973v-83.3a6.904 6.904 0 0 0-3.45-5.973l-32.282-18.638a6.826 6.826 0 0 0-6.9 0c-2.012 1.161-9.916 4.742-9.916 7.4l6.466 81.877c.001 1.211.322 2.4.929 3.447a6.884 6.884 0 0 0 2.528 2.521z" fill="#6289B0"/><path d="m438.446 164.77 48.9-28.233c.102.463.156.935.161 1.409v83.3a6.836 6.836 0 0 1-3.45 5.973c-2.01 1.161-9.184 6.19-11.481 4.861l-27.694-23.5a6.894 6.894 0 0 1-3.45-5.973l-2.986-37.837z" fill="#3B536B"/><path d="m437.913 212.609 32.282 18.636a6.91 6.91 0 0 0 3.448.922 6.907 6.907 0 0 0 5.971-3.448 6.897 6.897 0 0 0 .926-3.447v-83.3a6.903 6.903 0 0 0-3.448-5.974l-32.284-18.636a6.898 6.898 0 0 0-6.894.005 6.901 6.901 0 0 0-3.449 5.969v83.3a6.896 6.896 0 0 0 3.448 5.973z" fill="#2C3E50"/><path d="m436.615 197.627 41.774 24.118v-70.764l-41.774-24.119v70.765z" fill="#151E26"/><path d="M454.078 214.827a8.194 8.194 0 0 0 3.422 6.539c1.89 1.092 3.422-.067 3.422-2.587a8.19 8.19 0 0 0-3.422-6.538c-1.886-1.091-3.422.065-3.422 2.586z" fill="#ECF0F1"/><path d="M455.377 215.578a5.08 5.08 0 0 0 2.123 4.058c1.174.676 2.127-.043 2.127-1.606a5.083 5.083 0 0 0-2.127-4.058c-1.172-.678-2.123.045-2.123 1.606z" fill="#2C3E50"/><path d="m466.805 223.312 6.426 3.709v-2.273l-6.426-3.709v2.273z" fill="#E74C3C"/><path d="m448.198 212.567-6.426-3.709v-2.273l6.426 3.709v2.273z" fill="#2ECC71"/><path d="m448.859 128.895 15.964 9.218a1.322 1.322 0 0 0 1.322-2.29l-15.965-9.218a1.321 1.321 0 0 0-1.321 2.29zM444.081 124.61a3.986 3.986 0 0 0 1.667 3.181c.918.53 1.663-.033 1.663-1.259a3.994 3.994 0 0 0-1.663-3.182c-.921-.53-1.667.033-1.667 1.26zM467.31 138.019a2.093 2.093 0 0 0 .875 1.671c.481.278.873-.018.873-.66a2.092 2.092 0 0 0-.873-1.671c-.481-.279-.875.016-.875.66z" fill="#151E26"/><path d="M448.515 127.166a2.105 2.105 0 0 0 .873 1.671c.485.278.876-.018.876-.661a2.08 2.08 0 0 0-.876-1.671c-.484-.278-.873.017-.873.661z" fill="#39FF8D"/><path d="M469.648 139.368a2.08 2.08 0 0 0 .876 1.671c.481.279.873-.016.873-.66a2.105 2.105 0 0 0-.873-1.671c-.485-.278-.876.018-.876.66z" fill="#151E26"/><path d="M445.104 124.944a2.385 2.385 0 0 0 1 1.906c.548.319.994-.019.994-.754a2.402 2.402 0 0 0-.994-1.906c-.553-.319-1 .019-1 .754z" fill="#3498DB"/><path d="M453.877 184.081c0 2.67 1.622 5.774 3.625 6.93 2.003 1.156 3.628-.071 3.628-2.743 0-2.672-1.624-5.771-3.628-6.929-2.004-1.158-3.625.072-3.625 2.742zM453.668 178.854c2.047-1.545 5.616.514 7.66 4.424l2.44-1.841c-3.348-6.394-9.184-9.77-12.537-7.238l2.437 4.655z" fill="#ECF0F1"/><path d="m465.651 180.016 2.437-1.843c-2.831-5.406-6.592-9.653-10.589-11.961-3.997-2.308-7.758-2.4-10.588-.264l2.438 4.656c4.361-3.295 11.95 1.091 16.302 9.412z" fill="#ECF0F1"/><path d="M444.776 161.859c7.018-5.306 18.439 1.293 25.451 14.693l2.436-1.841c-8.359-15.968-21.961-23.829-30.323-17.508l2.436 4.656z" fill="#ECF0F1"/><path d="M453.645 118.32a5.01 5.01 0 0 1-4.5-.186c-1.332-.77-1.477-1.933-.323-2.6a5.007 5.007 0 0 1 4.5.188c1.331.764 1.477 1.929.323 2.598z" fill="#F39C12"/><path d="M452.861 117.864a3.394 3.394 0 0 1-3.041-.126c-.9-.52-1-1.305-.217-1.757a3.384 3.384 0 0 1 3.041.127c.898.519.996 1.305.217 1.756z" fill="#151E26"/><path d="M486.191 153.411a5.661 5.661 0 0 1-2.368 4.52c-.268.156.572.245.329.275-.077.007-1.254.011-1.331.007-.8-.037-1.364-.806-1.364-2.07a5.678 5.678 0 0 1 2.369-4.518c.291-.181.626-.279.969-.284.061 0 1.219.009 1.28.017.721.117.116.867.116 2.053z" fill="#7F8C8D"/><path d="M487.339 153.411a5.67 5.67 0 0 1-2.364 4.52c-1.306.756-2.365-.046-2.365-1.788a5.66 5.66 0 0 1 2.365-4.522c1.305-.754 2.364.047 2.364 1.79z" fill="#BDC3C7"/><path d="M486.191 163.702a5.657 5.657 0 0 1-2.368 4.521c-.268.156.572.245.329.273-.077.01-1.254.013-1.331.01-.8-.037-1.364-.806-1.364-2.07a5.66 5.66 0 0 1 2.365-4.522c.291-.181.626-.279.969-.284.061 0 1.219.009 1.28.018.725.123.12.868.12 2.054z" fill="#7F8C8D"/><path d="M487.339 163.703a5.656 5.656 0 0 1-.645 2.541 5.652 5.652 0 0 1-1.719 1.98c-1.306.754-2.365-.046-2.365-1.788a5.66 5.66 0 0 1 2.365-4.522c1.305-.754 2.364.047 2.364 1.789zM159.077 157.47l-16.143 27.6c-.417.241-31.4-18.163-31.725-18.266-.536-.174-.888-.788-.888-1.716v-52a4.84 4.84 0 0 1 2.018-3.853l27.248-15.73a1.243 1.243 0 0 1 1.425-.037c.367.275 31.814 17.728 31.814 18.471l-11.733 41.682a4.827 4.827 0 0 1-2.016 3.849z" fill="#BDC3C7"/><path d="m164.598 141.173 8.229-29.236c0-.743-31.447-18.2-31.814-18.471a1.243 1.243 0 0 0-1.425.037l-27.252 15.732a3.598 3.598 0 0 0-1.13 1.114l53.392 30.824z" fill="#ECF0F1"/><path d="m143.939 184.809 27.251-15.734a4.82 4.82 0 0 0 2.017-3.852v-52c0-1.484-.9-2.167-2.017-1.523l-27.251 15.733a4.827 4.827 0 0 0-2.016 3.852v52c0 1.485.903 2.168 2.016 1.524z" fill="#7F8C8D"/><path d="M144.873 163.368c0 9.346 5.681 13.64 12.691 9.593 7.01-4.047 12.692-14.9 12.692-24.248s-5.683-13.64-12.692-9.594c-7.009 4.046-12.691 14.903-12.691 24.249z" fill="#F1C40F"/><path d="M145.761 162.855c0 8.691 5.284 12.686 11.8 8.923 6.516-3.763 11.8-13.861 11.8-22.552 0-8.691-5.284-12.686-11.8-8.923-6.516 3.763-11.8 13.861-11.8 22.552z" fill="#233140"/><path d="M152.981 158.688c0 3.374 2.052 4.926 4.583 3.463s4.583-5.382 4.583-8.757-2.051-4.926-4.583-3.463-4.583 5.381-4.583 8.757z" fill="#34495E"/><path d="M154.432 156.461c0 1.732 1.053 2.527 2.352 1.778a5.632 5.632 0 0 0 2.352-4.494c0-1.732-1.053-2.527-2.352-1.777a5.636 5.636 0 0 0-2.352 4.493z" fill="#45617D"/><path d="M156.626 129.849c0 4.45 2.705 6.5 6.042 4.569 3.337-1.931 6.043-7.1 6.043-11.545s-2.705-6.5-6.043-4.569-6.042 7.095-6.042 11.545z" fill="#F1C40F"/><path d="M157.395 129.405c0 3.884 2.361 5.668 5.273 3.987 2.912-1.681 5.274-6.193 5.274-10.077 0-3.884-2.361-5.669-5.274-3.987-2.913 1.682-5.273 6.194-5.273 10.077z" fill="#233140"/><path d="M159.08 128.434c0 2.642 1.606 3.856 3.588 2.711s3.589-4.213 3.589-6.856-1.606-3.857-3.589-2.713c-1.983 1.144-3.588 4.214-3.588 6.858z" fill="#34495E"/><path d="M159.853 126.9c0 1.355.824 1.979 1.841 1.392a4.415 4.415 0 0 0 1.841-3.519c0-1.355-.825-1.979-1.841-1.392a4.406 4.406 0 0 0-1.841 3.519z" fill="#45617D"/><path d="m79.956 158.739 27.252-15.733a1.25 1.25 0 0 1 1.412-.046c.373.273 31.785 17.678 31.785 18.428l-12.344 22.489a4.821 4.821 0 0 1-2.016 3.851l-15.41 16.021c-.374.216-31.406-18.186-31.705-18.25-.593-.126-.991-.757-.991-1.741v-21.167a4.833 4.833 0 0 1 2.017-3.852z" fill="#586061"/><path d="m111.539 176.974 27.251-15.734c1.113-.642 2.016.04 2.016 1.525v21.165a4.838 4.838 0 0 1-2.016 3.852l-27.251 15.733c-1.115.643-2.017-.038-2.017-1.523v-21.165a4.82 4.82 0 0 1 2.017-3.853z" fill="#7F8C8D"/><path d="m133.443 159.62-23.047 16.308c-.479.277-31.5-18.135-31.826-18.337a1.675 1.675 0 0 1-.63-1.5v-4.126a4.497 4.497 0 0 1 1.875-3.584l27.533-15.9c.176-.126.384-.202.6-.219.216-.018.433.023.627.119.4.228 31.976 17.888 31.976 18.645l-5.233 5.01a4.48 4.48 0 0 1-1.875 3.584z" fill="#BDC3C7"/><path d="M140.551 151.026c0-.757-31.58-18.417-31.976-18.645a1.193 1.193 0 0 0-.627-.119 1.193 1.193 0 0 0-.6.219l-27.532 15.894a3.081 3.081 0 0 0-.836.757l38.154 22.028 16.31-11.54a4.486 4.486 0 0 0 1.874-3.584l5.233-5.01z" fill="#ECF0F1"/><path d="m138.93 159.84-27.534 15.896c-1.036.6-1.877-.037-1.877-1.417v-4.125a4.49 4.49 0 0 1 1.877-3.584l27.532-15.9c1.036-.6 1.875.037 1.875 1.418v4.125a4.493 4.493 0 0 1-1.873 3.587z" fill="#7F8C8D"/><path d="M116.212 168.394a5.856 5.856 0 0 1-2.446 4.672c-1.35.78-2.446-.048-2.446-1.849a5.852 5.852 0 0 1 2.446-4.672c1.353-.78 2.446.047 2.446 1.849zM122.429 164.804a5.852 5.852 0 0 1-2.446 4.672c-1.35.78-2.445-.047-2.445-1.849a5.855 5.855 0 0 1 2.445-4.672c1.352-.78 2.446.047 2.446 1.849z" fill="#39FF8D"/><path d="M125.791 160.807a2.164 2.164 0 0 1-.9 1.722c-.5.288-.9-.017-.9-.681a2.164 2.164 0 0 1 .9-1.722c.493-.288.9.017.9.681zM128.594 159.191a2.164 2.164 0 0 1-.9 1.722c-.5.288-.9-.017-.9-.681a2.158 2.158 0 0 1 .9-1.722c.494-.292.9.013.9.681zM125.791 164.92a2.164 2.164 0 0 1-.9 1.722c-.5.288-.9-.017-.9-.681a2.164 2.164 0 0 1 .9-1.722c.493-.284.9.021.9.681zM128.594 163.305a2.164 2.164 0 0 1-.9 1.722c-.5.288-.9-.017-.9-.68a2.16 2.16 0 0 1 .9-1.723c.494-.288.9.016.9.681zM131.286 157.632a2.168 2.168 0 0 1-.9 1.723c-.5.288-.9-.018-.9-.682a2.158 2.158 0 0 1 .9-1.722c.492-.288.9.018.9.681zM131.286 161.751a2.168 2.168 0 0 1-.9 1.723c-.5.286-.9-.02-.9-.683a2.158 2.158 0 0 1 .9-1.722c.492-.288.9.018.9.682z" fill="#F1C40F"/><path d="M133.8 160.706c-.331.191-.6-.012-.6-.455v-3.338a1.442 1.442 0 0 1 .6-1.149c.333-.193.6.011.6.455v3.339a1.434 1.434 0 0 1-.6 1.148zM136.103 159.379c-.331.193-.6-.011-.6-.453v-3.339a1.445 1.445 0 0 1 .6-1.149c.333-.191.6.012.6.456v3.338a1.433 1.433 0 0 1-.6 1.147zM138.408 158.049c-.333.191-.6-.012-.6-.455v-3.338a1.442 1.442 0 0 1 .6-1.149c.331-.191.6.012.6.455v3.339a1.422 1.422 0 0 1-.164.645c-.104.2-.253.372-.436.503z" fill="#1C2833"/><path d="m137.665 174.403-25 14.435c-.742.428-1.344-.027-1.344-1.016v-5.5a3.214 3.214 0 0 1 1.344-2.566l25-14.435c.742-.429 1.344.026 1.344 1.016v5.5a3.227 3.227 0 0 1-1.344 2.566z" fill="#95A5A6"/><path d="m137.665 185.652-25 14.434c-.742.429-1.344-.026-1.344-1.015v-5.5a3.218 3.218 0 0 1 1.344-2.568l25-14.434c.742-.429 1.344.026 1.344 1.015v5.5a3.218 3.218 0 0 1-1.344 2.568z" fill="#2C3E50"/><path d="m138.179 167.233-26.028 15.028c-.459.264-.831-.016-.831-.628a1.987 1.987 0 0 1 .831-1.587l26.028-15.027c.458-.266.83.016.83.628a1.984 1.984 0 0 1-.83 1.586z" fill="#1C2833"/><path d="M123.14 179.387c0 1.286.78 1.875 1.743 1.319a4.18 4.18 0 0 0 1.745-3.332c0-1.284-.781-1.873-1.745-1.317a4.17 4.17 0 0 0-1.743 3.33z" fill="#39FF8D"/><path d="M120.419 180.959c0 .625.381.913.849.641a2.034 2.034 0 0 0 .848-1.62c0-.625-.38-.913-.848-.642a2.028 2.028 0 0 0-.849 1.621zM117.778 182.484c0 .624.379.912.848.641a2.04 2.04 0 0 0 .852-1.621c0-.624-.381-.912-.849-.642a2.034 2.034 0 0 0-.851 1.622zM115.141 184.007c0 .625.379.912.849.642a2.034 2.034 0 0 0 .847-1.622c0-.624-.379-.912-.847-.641-.259.185-.47.428-.618.709a2.041 2.041 0 0 0-.231.912zM129.349 175.803a2.034 2.034 0 0 1-.848 1.621c-.469.271-.848-.017-.848-.642a2.034 2.034 0 0 1 .848-1.62c.471-.271.848.019.848.641zM131.991 174.278a2.041 2.041 0 0 1-.848 1.622c-.469.269-.848-.018-.848-.642a2.034 2.034 0 0 1 .848-1.621c.468-.27.848.017.848.641zM134.629 172.755a2.034 2.034 0 0 1-.847 1.621c-.469.271-.849-.017-.849-.641a2.03 2.03 0 0 1 .849-1.622c.468-.269.847.021.847.642z" fill="#F1C40F"/><path d="m114.654 191.473-2.02 1.166v6.263l2.02-1.166v-6.263zM117.535 192.258l-2.021 1.166v3.816l2.021-1.166v-3.816zM120.415 192.915l-2.02 1.167v1.495l2.02-1.166v-1.496zM123.294 187.288l-2.02 1.166v5.46l2.02-1.167v-5.459zM126.174 190.181l-2.02 1.166v.9l2.02-1.166v-.9zM129.054 186.999l-2.02 1.166v2.424l2.02-1.166v-2.424zM131.933 183.311l-2.02 1.167v4.449l2.02-1.167v-4.449zM134.813 179.837l-2.02 1.167v6.263l2.02-1.166v-6.264zM137.693 180.619l-2.02 1.166v3.816l2.02-1.167v-3.815z" fill="#39FF8D"/><path d="m93.74 195.168-16.144 27.6c-.417.241-31.4-18.163-31.725-18.267-.536-.173-.888-.788-.888-1.716v-52a4.826 4.826 0 0 1 2.016-3.852l27.252-15.734a1.243 1.243 0 0 1 1.425-.037c.366.277 31.813 17.728 31.813 18.471l-11.734 41.683a4.826 4.826 0 0 1-2.015 3.852z" fill="#BDC3C7"/><path d="m99.259 178.868 8.229-29.236c0-.743-31.447-18.194-31.813-18.471a1.238 1.238 0 0 0-1.425.037l-27.252 15.735c-.454.283-.84.663-1.128 1.114l53.389 30.821z" fill="#ECF0F1"/><path d="m105.833 206.809-27.25 15.731c-1.113.642-2.016-.04-2.016-1.525v-52a4.834 4.834 0 0 1 2.016-3.852l27.25-15.729c1.114-.642 2.016.039 2.016 1.523v52a4.824 4.824 0 0 1-2.016 3.852z" fill="#7F8C8D"/><path d="M104.899 186.446c0 9.346-5.683 20.2-12.691 24.25-7.008 4.05-12.695-.249-12.695-9.595s5.681-20.2 12.691-24.25c7.01-4.05 12.695.249 12.695 9.595z" fill="#F1C40F"/><path d="M104.01 186.96c0 8.691-5.285 18.789-11.8 22.552-6.515 3.763-11.8-.232-11.8-8.923s5.284-18.788 11.8-22.551c6.516-3.763 11.8.23 11.8 8.922z" fill="#233140"/><path d="M96.792 191.128c0 3.374-2.052 7.3-4.583 8.757-2.531 1.457-4.583-.09-4.583-3.465s2.052-7.3 4.583-8.757c2.531-1.457 4.583.09 4.583 3.465z" fill="#34495E"/><path d="M93.668 191.543a5.634 5.634 0 0 1-2.353 4.494c-1.3.751-2.352-.046-2.352-1.778a5.637 5.637 0 0 1 2.352-4.494c1.299-.75 2.353.046 2.353 1.778z" fill="#45617D"/><path d="M93.146 166.495c0 4.451-2.705 9.619-6.043 11.547-3.338 1.928-6.042-.119-6.042-4.569s2.705-9.619 6.042-11.547c3.337-1.928 6.043.124 6.043 4.569z" fill="#F1C40F"/><path d="M92.378 166.943c0 3.884-2.362 8.4-5.274 10.077-2.912 1.677-5.274-.1-5.274-3.986s2.362-8.4 5.274-10.078c2.912-1.678 5.274.103 5.274 3.987z" fill="#233140"/><path d="M90.692 167.917c0 2.642-1.607 5.712-3.589 6.856-1.982 1.144-3.588-.071-3.588-2.713s1.606-5.713 3.588-6.856c1.982-1.143 3.589.071 3.589 2.713z" fill="#34495E"/><path d="M88.246 168.241a4.404 4.404 0 0 1-1.841 3.518c-1.018.589-1.841-.035-1.841-1.392a4.406 4.406 0 0 1 1.841-3.518c1.013-.581 1.841.036 1.841 1.392z" fill="#45617D"/><path d="m85.714 425.431 20.908 11.916-45.277 26.14-20.908-11.916 45.277-26.14z" fill="#4F6F8F"/><path d="m61.345 465.798-20.908-11.914v-2.313l20.908 11.92v2.307zM67.905 447.951l-3.161-1.826 1.211-23.53 11.2-6.467-9.25 31.823z" fill="#18222B"/><path d="m81.529 440.085-13.623 7.866 1.211-23.53 11.2-6.468 1.212 22.132z" fill="#222F3D"/><path d="m106.622 439.658-45.277 26.14v-2.311l45.277-26.14v2.311z" fill="#2C3E50"/><path d="m20.953 467.633 101.124-63.879a7.09 7.09 0 0 0 3.54-6.131l4.2-71.91c0-2.97-5.955-5.8-8.316-6.9a7 7 0 0 0-6.505.3L10.227 379.605a7.077 7.077 0 0 0-3.539 6.13v72.378a7.003 7.003 0 0 0 2.893 5.709c2.135 1.558 8.757 5.321 11.372 3.811z" fill="#6289B0"/><path d="M7.513 382.446a7.067 7.067 0 0 0-.825 3.289v72.378a6.996 6.996 0 0 0 2.893 5.709c2.135 1.559 8.757 5.322 11.372 3.812l64.04-40.454-77.48-44.734z" fill="#3B536B"/><path d="m22.211 467.074 104.77-60.49a7.079 7.079 0 0 0 3.54-6.131v-72.376a7.076 7.076 0 0 0-3.54-6.131 7.081 7.081 0 0 0-7.079.001l-104.77 60.489a7.07 7.07 0 0 0-3.539 6.132v72.375a7.081 7.081 0 0 0 10.618 6.131z" fill="#2C3E50"/><path d="M123.442 401.55v-74.567l-104.77 60.488v74.567l104.77-60.488z" fill="#3498DB"/><path d="M58.386 431.505a.945.945 0 0 1-.938-.831.95.95 0 0 1 .472-.941.949.949 0 0 1 .351-.116 29.622 29.622 0 0 0 7.13-1.884.953.953 0 0 1 1.228.537.944.944 0 0 1-.537 1.226 31.517 31.517 0 0 1-7.587 2c-.04.005-.08.008-.119.009zm-7.567-.439a.926.926 0 0 1-.251-.034 14.979 14.979 0 0 1-6.929-4.067.947.947 0 1 1 1.363-1.315 13.138 13.138 0 0 0 6.065 3.556.957.957 0 0 1 .574.444.942.942 0 0 1 .09.72.949.949 0 0 1-.911.697l-.001-.001zm21.743-4.916a.95.95 0 0 1-.812-.457.949.949 0 0 1 .318-1.3 56.242 56.242 0 0 0 6.132-4.323.947.947 0 0 1 1.189 1.476 58.385 58.385 0 0 1-6.338 4.468.954.954 0 0 1-.488.137l-.001-.001zm-31.982-5.458a.944.944 0 0 1-.905-.67 26.566 26.566 0 0 1-1.082-7.807.995.995 0 0 1 .948-1 .906.906 0 0 1 .665.244.892.892 0 0 1 .282.649v.107a24.703 24.703 0 0 0 1 7.25.949.949 0 0 1-.907 1.227h-.001zm43.864-4.068a.946.946 0 0 1-.677-1.611 72.174 72.174 0 0 0 5-5.634.95.95 0 0 1 1.333-.15.95.95 0 0 1 .149 1.332 75.195 75.195 0 0 1-5.129 5.782.947.947 0 0 1-.676.281zm-44.088-11.143a.954.954 0 0 1-.931-1.137 53.293 53.293 0 0 1 2.123-7.469.951.951 0 0 1 1.215-.568.949.949 0 0 1 .568 1.214 51.054 51.054 0 0 0-2.047 7.2.946.946 0 0 1-.928.76zm53.608-.756a.947.947 0 0 1-.795-1.461 70.704 70.704 0 0 0 3.742-6.533.95.95 0 0 1 1.747.13.95.95 0 0 1-.053.723 73.107 73.107 0 0 1-3.845 6.706.95.95 0 0 1-.796.434v.001zm-48.488-13.58a.93.93 0 0 1-.718-.327.937.937 0 0 1-.227-.688.946.946 0 0 1 .099-.356 73.517 73.517 0 0 1 3.85-6.7.944.944 0 0 1 1.31-.282.946.946 0 0 1 .283 1.31 70.884 70.884 0 0 0-3.751 6.529.952.952 0 0 1-.846.514zm55.315-.041a.957.957 0 0 1-.639-.247.953.953 0 0 1-.308-.656.944.944 0 0 1 .056-.365 51.39 51.39 0 0 0 2.04-7.2.944.944 0 0 1 1.456-.6.944.944 0 0 1 .4.974 52.353 52.353 0 0 1-2.116 7.473.946.946 0 0 1-.889.621zm-47.053-12.768a.95.95 0 0 1-.909-1.213.942.942 0 0 1 .171-.328 74.355 74.355 0 0 1 5.133-5.778.946.946 0 1 1 1.348 1.329 72.695 72.695 0 0 0-5 5.633.959.959 0 0 1-.743.357zm49.932-2.174a.924.924 0 0 1-.946-.92h.946l-.947-.015a24.898 24.898 0 0 0-.983-7.24.947.947 0 0 1 1.811-.553 26.59 26.59 0 0 1 1.065 7.754.97.97 0 0 1-.946.974zm-39.213-8.652a.947.947 0 0 1-.939-1.051.95.95 0 0 1 .352-.635 58.847 58.847 0 0 1 6.341-4.461.95.95 0 0 1 1.3.32.947.947 0 0 1-.319 1.3 56.461 56.461 0 0 0-6.135 4.318.949.949 0 0 1-.598.209h-.002zm34.47-5.429a.95.95 0 0 1-.685-.292 13.097 13.097 0 0 0-6.052-3.576.946.946 0 0 1 .506-1.826 14.975 14.975 0 0 1 6.915 4.093.948.948 0 0 1-.682 1.601h-.002zm-21.414-2.365a.947.947 0 0 1-.344-1.828 31.444 31.444 0 0 1 7.592-1.984.925.925 0 0 1 .702.19.926.926 0 0 1 .353.635.946.946 0 0 1-.826 1.055c-2.445.324-4.84.951-7.131 1.868a.92.92 0 0 1-.344.063l-.002.001z" fill="#ECF0F1"/><path d="M68.957 405.946v-11.375l19.061-11.006v11.374l-19.061 11.007z" fill="#BA7A3F"/><path d="m68.953 394.57-14.3-8.254v13.757l14.3 8.256V394.57z" fill="#F3C172"/><path d="M83.254 400.033v-2.381l4.766-2.755.408.229-5.174 4.907z" fill="#BDC3C7"/><path d="M83.254 400.532v-2.383l5.174-3.023v2.385l-5.174 3.021z" fill="#7F8C8D"/><path d="M80.073 408.451v-.794l-.795-.459v-.794l-.794-.459v-.794l-.795-.459-3.966-2.293v3.179l6.355 3.667.795.459v-.794l-.8-.459z" fill="#BDC3C7"/><path d="m80.873 408.91 9.532-5.5v.794l-9.532 5.5v-.794z" fill="#7F8C8D"/><path d="m80.077 408.451 9.532-5.5.795.459-9.532 5.5-.795-.459z" fill="#ECF0F1"/><path d="m80.077 407.657 9.532-5.5v.794l-9.532 5.5v-.794z" fill="#7F8C8D"/><path d="m79.282 407.199 9.532-5.5.795.459-9.532 5.5-.795-.459z" fill="#ECF0F1"/><path d="m79.282 406.4 9.532-5.5v.8l-9.532 5.5v-.8z" fill="#7F8C8D"/><path d="m78.489 405.946 9.532-5.5.794.457-9.532 5.5-.794-.457z" fill="#ECF0F1"/><path d="m78.489 405.152 9.532-5.5v.8l-9.532 5.5v-.8z" fill="#472F1F"/><path d="m78.489 405.152-4.766-2.753v.8l4.766 2.751v-.798z" fill="#754D34"/><path d="m73.723 402.399 9.532-5.5 4.766 2.751-9.532 5.5-4.766-2.751z" fill="#9C6745"/><path d="M76.221 401.004v-7.9l5-2.9-4.688 10.991-.312-.191z" fill="#BDC3C7"/><path d="M76.535 401.197v-7.9l5-2.9v7.9l-5 2.9z" fill="#7F8C8D"/><path d="m80.889 391.527-3.7 2.148v.083l3.473-2.015v7.07l.229-.135-.002-7.151z" fill="#BDC3C7"/><path d="M77.186 393.757v7.068l3.473-2.013v-7.07l-3.473 2.015z" fill="#472F1F"/><path d="m77.362 400.485 3.294-1.9 1.647.951-3.294 1.9-1.647-.951z" fill="#9C6745"/><path d="m71.34 395.943-9.532-13.759-9.531 2.759 19.063 11z" fill="#F3C172"/><path d="M62.51 388.505a.9.9 0 0 0 .464-.122c.595-.342.665-1.256.163-2.125a1.876 1.876 0 0 0-.596-.709 1.876 1.876 0 0 0-.863-.335.942.942 0 0 0-.464.122c-.595.345-.665 1.259-.163 2.127a1.865 1.865 0 0 0 1.459 1.042z" fill="#C9A05F"/><path d="M62.351 388.318a.9.9 0 0 0 .464-.122c.595-.342.664-1.256.163-2.127a1.868 1.868 0 0 0-1.459-1.042.931.931 0 0 0-.464.121c-.595.344-.665 1.259-.165 2.128a1.871 1.871 0 0 0 1.461 1.042z" fill="#BDC3C7"/><path d="M62.128 388.401a.91.91 0 0 0 .464-.121c.6-.344.665-1.258.165-2.125a1.865 1.865 0 0 0-1.459-1.043.9.9 0 0 0-.464.122c-.6.342-.665 1.258-.165 2.125a1.868 1.868 0 0 0 1.459 1.042z" fill="#ECF0F1"/><path d="M61.049 385.609a.473.473 0 0 1 .241-.062 1.355 1.355 0 0 0 .118 1.428 1.466 1.466 0 0 0 1.092.825.47.47 0 0 1-.124.1c-.369.213-.966-.127-1.332-.762-.366-.635-.364-1.316.005-1.529z" fill="#95A5A6"/><path d="M61.409 386.975a1.355 1.355 0 0 1-.118-1.428 1.447 1.447 0 0 1 1.091.825 1.359 1.359 0 0 1 .119 1.428 1.46 1.46 0 0 1-1.092-.825z" fill="#34495E"/><path opacity=".5" d="m71.34 395.943-9.532-13.759-9.531 2.759 2.382 1.377 6.172-1.523 8.221 10.989 2.288.157z" fill="#D9AC66"/><path d="m51.105 385.614 9.532-2.751 21.426-12.369-9.531 2.751-21.427 12.369z" fill="#E74C3C"/><path d="m70.167 396.621 10.714-6.186 10.714-6.183-4.77-6.879-4.766-6.879-10.713 6.186-10.713 6.184 4.765 6.879 4.769 6.878z" fill="#9E2F24"/><path d="m60.457 383.364 8.817 12.739.893.516-9.53-13.755-9.532 2.75.505.292 8.847-2.542z" fill="#C0392B"/><path d="M77.576 403.553c0 .071-.1.126-.214.126-.114 0-.216-.055-.216-.126 0-.071.1-.124.216-.124.116 0 .214.051.214.124z" fill="#ECF0F1"/><path d="M77.146 399.956h.43v3.593h-.43v-3.593z" fill="#ECF0F1"/><path d="M77.146 399.955v.362a.168.168 0 0 1 .188-.074.169.169 0 0 1 .126.157v3.26c.069-.021.116-.063.116-.111v-3.594h-.43z" fill="#95A5A6"/><path d="M76.842 403.128c0 .068-.1.124-.216.124-.116 0-.214-.056-.214-.124s.1-.126.214-.126c.114 0 .216.055.216.126z" fill="#ECF0F1"/><path d="M76.412 399.532h.43v3.595h-.43v-3.595z" fill="#ECF0F1"/><path d="M76.412 399.532v.361a.173.173 0 0 1 .082-.067.166.166 0 0 1 .106-.005.168.168 0 0 1 .125.157v3.257c.069-.019.117-.061.117-.108v-3.595h-.43z" fill="#95A5A6"/><path d="M76.108 402.701c0 .068-.1.126-.214.126-.114 0-.216-.057-.216-.126s.1-.126.216-.126c.116 0 .214.059.214.126z" fill="#ECF0F1"/><path d="M75.678 399.11h.43v3.593h-.43v-3.593z" fill="#ECF0F1"/><path d="M75.678 399.11v.358a.173.173 0 0 1 .082-.067.166.166 0 0 1 .106-.005.168.168 0 0 1 .125.157v3.26c.069-.022.117-.062.117-.111v-3.593l-.43.001z" fill="#95A5A6"/><path d="M75.373 402.279c0 .071-.1.127-.214.127-.114 0-.216-.056-.216-.127 0-.071.1-.123.216-.123.116 0 .214.055.214.123z" fill="#ECF0F1"/><path d="M74.943 398.686h.43v3.593h-.43v-3.593z" fill="#ECF0F1"/><path d="M74.943 398.686v.361a.172.172 0 0 1 .081-.069.17.17 0 0 1 .232.152v3.261c.069-.021.117-.063.117-.112v-3.593h-.43z" fill="#95A5A6"/><path d="m78.334 400.711-3.941-2.271v-.266l4.255 2.346-.314.191z" fill="#BDC3C7"/><path d="m78.334 400.449-3.941-2.273.312-.2 3.943 2.276-.314.197zM79.063 404.201c0 .185-.257.335-.575.335-.318 0-.575-.15-.575-.335 0-.185.257-.335.575-.335.318 0 .575.15.575.335z" fill="#ECF0F1"/><path d="M77.913 393.677h1.151v10.524h-1.151v-10.524z" fill="#ECF0F1"/><path d="M78.693 403.888v.626c.216-.049.37-.171.37-.313s-.154-.265-.37-.313z" fill="#95A5A6"/><path d="M78.693 393.677h.371v10.524h-.371v-10.524z" fill="#95A5A6"/><path d="M85.614 398.893c0 .068-.1.124-.214.124-.114 0-.216-.056-.216-.124s.1-.126.216-.126c.116 0 .214.05.214.126z" fill="#ECF0F1"/><path d="M85.184 395.3h.43v3.593h-.43V395.3z" fill="#ECF0F1"/><path d="M85.184 395.295v.361a.173.173 0 0 1 .082-.067.166.166 0 0 1 .106-.005.168.168 0 0 1 .125.157v3.26c.069-.022.117-.063.117-.111v-3.6l-.43.005z" fill="#95A5A6"/><path d="M84.879 398.469c0 .068-.1.127-.214.127-.114 0-.216-.059-.216-.127s.1-.126.216-.126c.116 0 .214.057.214.126z" fill="#ECF0F1"/><path d="M84.449 394.876h.43v3.593h-.43v-3.593z" fill="#ECF0F1"/><path d="M84.449 394.876v.358a.173.173 0 0 1 .188-.072.171.171 0 0 1 .126.157v3.26c.068-.022.116-.062.116-.111v-3.593l-.43.001z" fill="#95A5A6"/><path d="M84.144 398.045c0 .069-.1.126-.214.126-.114 0-.216-.056-.216-.126s.1-.124.216-.124c.116 0 .214.055.214.124z" fill="#ECF0F1"/><path d="M83.714 394.452h.43v3.593h-.43v-3.593z" fill="#ECF0F1"/><path d="M83.714 394.452v.361a.168.168 0 0 1 .188-.074.169.169 0 0 1 .126.157v3.261c.069-.021.116-.063.116-.111v-3.594h-.43z" fill="#95A5A6"/><path d="M83.411 397.622c0 .069-.1.124-.216.124-.116 0-.214-.055-.214-.124s.1-.126.214-.126c.114 0 .216.057.216.126z" fill="#ECF0F1"/><path d="M82.98 394.03h.43v3.593h-.43v-3.593z" fill="#ECF0F1"/><path d="M82.981 394.03v.358a.173.173 0 0 1 .082-.067.166.166 0 0 1 .106-.005.168.168 0 0 1 .125.157v3.259c.069-.021.117-.061.117-.11v-3.593l-.43.001z" fill="#95A5A6"/><path d="m86.37 396.058-3.944-2.276v-.266l4.255 2.348-.311.194z" fill="#BDC3C7"/><path d="m86.37 395.794-3.944-2.278.312-.2 3.943 2.278-.311.2zM87.103 399.544c0 .185-.257.338-.576.338-.319 0-.575-.152-.575-.338 0-.186.257-.334.575-.334.318 0 .576.15.576.334z" fill="#ECF0F1"/><path d="M85.951 389.02h1.151v10.524h-1.151V389.02z" fill="#ECF0F1"/><path d="M86.732 399.233v.624c.216-.048.37-.168.37-.313s-.154-.262-.37-.311z" fill="#95A5A6"/><path d="M86.732 389.02h.37v10.524h-.37V389.02z" fill="#95A5A6"/><path d="m84.419 387.017-5.93 8.929 11.915-6.879-5.985-2.05z" fill="#F3C172"/><path d="M84.19 392.411a.9.9 0 0 1-.464-.122c-.595-.342-.665-1.256-.165-2.125a1.871 1.871 0 0 1 1.46-1.044.92.92 0 0 1 .464.123c.6.344.665 1.258.165 2.125a1.87 1.87 0 0 1-1.46 1.043z" fill="#C9A05F"/><path d="M83.973 392.195a.921.921 0 0 1-.464-.122c-.595-.345-.665-1.259-.163-2.127a1.871 1.871 0 0 1 1.46-1.043.928.928 0 0 1 .463.122c.595.344.667 1.258.163 2.125a1.868 1.868 0 0 1-1.459 1.045z" fill="#C9CFD4"/><path d="M85.051 389.4a.492.492 0 0 0-.24-.063 1.352 1.352 0 0 1-.119 1.429 1.447 1.447 0 0 1-1.091.825.47.47 0 0 0 .124.1c.369.213.965-.127 1.332-.762.367-.635.363-1.315-.006-1.529z" fill="#7F8C8D"/><path d="M84.691 390.766a1.352 1.352 0 0 0 .119-1.429 1.448 1.448 0 0 0-1.091.826 1.351 1.351 0 0 0-.119 1.428 1.448 1.448 0 0 0 1.091-.825z" fill="#34495E"/><path d="m74.546 381.279.4 12.586 4.757 2.759 5.93-8.929-11.087-6.416z" fill="#E74C3C"/><path d="m91.621 389.741-5.985-2.05-11.09-6.412 12.283 5.729 4.792 2.733z" fill="#C0392B"/><path d="m85.81 388.211 5.385 1.774.424-.244-5.985-2.05-5.93 8.929.9-.518 5.206-7.891z" fill="#9E2F24"/><path d="M68.957 408.329v-2.383l4.761-2.755.409.229-5.17 4.909z" fill="#BDC3C7"/><path d="M68.957 408.827v-2.381l5.174-3.025v2.387l-5.174 3.019z" fill="#7F8C8D"/><path d="M68.957 408.329v-1.884l.854-.5h-.854l-14.3-8.321-.408.229 14.708 10.476z" fill="#ECF0F1"/><path d="M68.957 408.826v-2.381l-14.706-8.592v2.385l14.706 8.588z" fill="#BDC3C7"/><path opacity=".5" d="m68.13 395.77-.213-.546-4.837 4.209.3.361 4.753 2.744-.003-6.768z" fill="#D9AC66"/><path d="m67.917 395.225-4.752-2.744 4.536 9.622.217-.109-.001-6.769z" fill="#95A5A6"/><path d="m67.7 395.333-4.753-2.746v6.77l4.753 2.744v-6.768z" fill="#ECF0F1"/><path d="m63.682 393.527-.216-.124v5.736l3.718 2.146v-.246l-3.5-2.022-.002-5.49z" fill="#BDC3C7"/><path d="M63.681 393.527v5.49l3.5 2.022v-5.49l-3.5-2.022z" fill="#3498DB"/><path d="m67.183 397.332-1.558-.9v-1.784l-.3-.174v1.782l-1.858-1.073v.3l1.858 1.073v3.654l.3.174v-3.654l1.558.9v-.298z" fill="#BDC3C7"/><path d="M65.173 400.125v-5.736l.3.174v5.736l-.3-.174z" fill="#ECF0F1"/><path d="m63.081 395.157 4.486 2.59v.3l-4.486-2.59v-.3z" fill="#ECF0F1"/><path d="m67.7 395.334.217-.109-4.752-2.744-.218.107 4.753 2.746z" fill="#BDC3C7"/><path d="m65.474 394.563.151.087v1.782l-.151.107v-1.976zM63.682 393.527l-.216-.124v1.976l.216-.07v-1.782zM63.465 395.681l.216.124v3.212l-.216.122v-3.458zM65.474 396.841l.151.087v3.212l-.151.159v-3.458z" fill="#95A5A6"/><path opacity=".5" d="m60.927 391.608-.213-.546-4.837 4.209.3.361 4.753 2.744-.003-6.768z" fill="#D9AC66"/><path d="m60.714 391.062-4.753-2.744 4.537 9.622.217-.107-.001-6.771z" fill="#95A5A6"/><path d="m60.497 391.171-4.75-2.744v6.768l4.753 2.744-.003-6.768z" fill="#ECF0F1"/><path d="m56.479 389.366-.216-.126v5.738l3.717 2.146v-.248l-3.5-2.02-.001-5.49z" fill="#BDC3C7"/><path d="M56.478 389.367v5.49l3.5 2.02v-5.49l-3.5-2.02z" fill="#3498DB"/><path d="m59.979 393.169-1.557-.9v-1.782l-.3-.174v1.782l-1.858-1.073v.3l1.858 1.073v3.656l.3.174v-3.656l1.557.9v-.3z" fill="#BDC3C7"/><path d="M57.97 395.965v-5.738l.3.174v5.738l-.3-.174z" fill="#ECF0F1"/><path d="m55.878 390.997 4.487 2.589v.3l-4.487-2.59v-.299z" fill="#ECF0F1"/><path d="m60.497 391.171.217-.109-4.753-2.744-.217.109 4.753 2.744z" fill="#BDC3C7"/><path d="m58.271 390.402.151.087v1.782l-.151.109v-1.978zM56.479 389.367l-.216-.126v1.978l.216-.07v-1.782zM56.262 391.517l.216.124v3.214l-.216.122v-3.46zM58.271 392.679l.151.087v3.212l-.151.161v-3.46z" fill="#95A5A6"/><path d="M76.256 432.324c0 1.644 1 2.4 2.233 1.687a5.352 5.352 0 0 0 2.233-4.264c0-1.644-1-2.4-2.233-1.688a5.346 5.346 0 0 0-2.233 4.265z" fill="#39FF8D"/><path d="M72.772 434.333c0 .8.486 1.165 1.086.819a2.604 2.604 0 0 0 1.086-2.074c0-.8-.486-1.167-1.086-.821a2.598 2.598 0 0 0-1.086 2.076zM69.396 436.283c0 .8.486 1.165 1.086.819a2.605 2.605 0 0 0 1.086-2.074c0-.8-.486-1.167-1.086-.821a2.6 2.6 0 0 0-1.086 2.076zM66.015 438.233c0 .8.487 1.167 1.087.821a2.604 2.604 0 0 0 1.086-2.075c0-.8-.486-1.167-1.086-.82a2.606 2.606 0 0 0-1.087 2.074zM84.206 427.731a2.596 2.596 0 0 1-1.087 2.074c-.6.349-1.086-.02-1.086-.819a2.608 2.608 0 0 1 1.086-2.077c.599-.346 1.087.022 1.087.822zM87.584 425.781a2.597 2.597 0 0 1-1.086 2.074c-.6.346-1.086-.021-1.086-.82a2.603 2.603 0 0 1 1.086-2.075c.599-.347 1.086.021 1.086.821zM90.962 423.831a2.597 2.597 0 0 1-1.086 2.074c-.6.346-1.086-.021-1.086-.823a2.598 2.598 0 0 1 1.086-2.074c.6-.345 1.086.023 1.086.823z" fill="#F1C40F"/><path d="M97.773 462.538a4.024 4.024 0 0 1-2.307-3.22c-.065-1.553-.617-5.258 1.607-6.543l21.652-9.49a2.21 2.21 0 0 1 2-.084l10.779 2.492c.114 1.33.148 2.666.1 4 .055.255-.11.536-.48.751l-19.997 11.541c-3.952 2.281-9.931 2.528-13.354.553z" fill="#2C3E50"/><path d="m103.396 450.005-6.322 2.771c-2.224 1.284-1.672 4.99-1.607 6.543a4.027 4.027 0 0 0 2.307 3.22 11.74 11.74 0 0 0 5.623 1.308l-.001-13.842z" fill="#3B536B"/><path d="M97.774 458.806c-3.422-1.975-2.992-5.427.96-7.708l19.992-11.544a2.221 2.221 0 0 1 2-.082l10.539 6.085c.512.3.447.812-.145 1.154l-19.993 11.541c-3.953 2.282-9.93 2.532-13.353.554z" fill="#6289B0"/><path d="m129.09 446.017-9.163-5.29c-.513-.3-.447-.814.144-1.155l.414-.24 11.016 6.363-.413.239a2.217 2.217 0 0 1-.989.278 2.217 2.217 0 0 1-1.009-.195z" fill="#2C3E50"/><path d="M126.829 448.393a2.672 2.672 0 0 1-2.409.1c-.618-.355-.54-.979.173-1.389a2.672 2.672 0 0 1 2.409-.1c.618.354.54.978-.173 1.389z" fill="#3AFF8D"/><path d="M123.902 446.703a2.675 2.675 0 0 1-2.41.1c-.617-.357-.54-.979.173-1.392a2.675 2.675 0 0 1 2.41-.1c.617.357.54.979-.173 1.392zM120.973 445.012a2.668 2.668 0 0 1-2.408.1c-.619-.355-.541-.979.173-1.389a2.668 2.668 0 0 1 2.408-.1c.618.354.541.978-.173 1.389zM118.046 443.318a2.67 2.67 0 0 1-2.409.1c-.618-.357-.541-.979.173-1.392a2.67 2.67 0 0 1 2.409-.1c.618.362.54.984-.173 1.392zM123.328 450.415a2.682 2.682 0 0 1-2.408.1c-.619-.357-.541-.981.173-1.392a2.668 2.668 0 0 1 2.408-.1c.618.357.541.979-.173 1.392zM120.401 448.724a2.672 2.672 0 0 1-2.409.1c-.617-.356-.54-.979.173-1.392a2.683 2.683 0 0 1 2.409-.1c.618.355.54.981-.173 1.392zM117.473 447.035a2.683 2.683 0 0 1-2.409.1c-.618-.357-.54-.981.173-1.392a2.672 2.672 0 0 1 2.409-.1c.618.357.54.979-.173 1.392zM114.546 445.344a2.672 2.672 0 0 1-2.41.1c-.617-.357-.54-.979.173-1.392a2.686 2.686 0 0 1 2.41-.1c.617.357.539.981-.173 1.392zM119.828 452.436a2.685 2.685 0 0 1-2.409.1c-.617-.358-.54-.98.173-1.392a2.697 2.697 0 0 1 1.193-.336c.418-.017.834.064 1.216.236.618.357.537.981-.173 1.392zM116.901 450.75a2.67 2.67 0 0 1-2.409.1c-.618-.356-.54-.979.173-1.389a2.672 2.672 0 0 1 2.409-.1c.617.349.539.973-.173 1.389zM113.972 449.055a2.685 2.685 0 0 1-2.409.1c-.617-.357-.54-.98.173-1.392a2.67 2.67 0 0 1 2.409-.1c.618.357.542.983-.173 1.392zM111.045 447.365a2.685 2.685 0 0 1-2.409.1c-.618-.356-.54-.979.173-1.389a2.672 2.672 0 0 1 2.409-.1c.617.353.544.977-.173 1.389zM116.328 454.457a2.684 2.684 0 0 1-2.41.1c-.617-.356-.54-.98.173-1.39a2.685 2.685 0 0 1 2.409-.1c.618.355.54.979-.172 1.39zM113.4 452.766a2.67 2.67 0 0 1-2.409.1c-.618-.357-.54-.98.173-1.39a2.685 2.685 0 0 1 2.409-.1c.618.356.541.978-.173 1.39zM110.471 451.076a2.68 2.68 0 0 1-2.408.1c-.618-.356-.541-.98.173-1.392a2.67 2.67 0 0 1 2.408-.1c.615.357.541.981-.173 1.392zM107.545 449.386a2.67 2.67 0 0 1-2.409.1c-.618-.357-.541-.98.173-1.39a2.672 2.672 0 0 1 2.409-.1c.616.356.54.978-.173 1.39z" fill="#ECF0F1"/><path d="M112.827 456.478a2.697 2.697 0 0 1-1.193.336 2.694 2.694 0 0 1-1.216-.236c-.618-.357-.54-.981.173-1.392a2.685 2.685 0 0 1 2.409-.1c.618.357.54.98-.173 1.392z" fill="#3498DB"/><path d="M109.9 454.787a2.672 2.672 0 0 1-2.409.1c-.618-.357-.541-.979.173-1.39a2.67 2.67 0 0 1 2.409-.1c.618.356.54.978-.173 1.39z" fill="#27AE60"/><path d="M106.971 453.098a2.697 2.697 0 0 1-1.193.336 2.694 2.694 0 0 1-1.216-.236c-.617-.357-.54-.981.173-1.392a2.685 2.685 0 0 1 2.409-.1c.618.356.54.98-.173 1.392z" fill="#E74C3C"/><path d="M104.044 451.406a2.672 2.672 0 0 1-2.409.1c-.618-.357-.54-.979.173-1.39a2.692 2.692 0 0 1 2.409-.1c.618.352.54.979-.173 1.39z" fill="#F1C40F"/><path d="M26.443 497.887c14.604 0 26.443-11.839 26.443-26.443 0-14.604-11.839-26.443-26.443-26.443C11.839 445.001 0 456.84 0 471.444c0 14.604 11.839 26.443 26.443 26.443z" fill="#fff"/><path d="M26.443 496.387c13.776 0 24.943-11.167 24.943-24.943 0-13.776-11.167-24.943-24.943-24.943-13.776 0-24.943 11.167-24.943 24.943 0 13.776 11.167 24.943 24.943 24.943z" stroke="#DFE0E2" stroke-width="3"/><path d="M407.443 504.887c14.604 0 26.443-11.839 26.443-26.443 0-14.604-11.839-26.443-26.443-26.443-14.604 0-26.443 11.839-26.443 26.443 0 14.604 11.839 26.443 26.443 26.443z" fill="#fff"/><path d="M407.443 503.387c13.776 0 24.943-11.167 24.943-24.943 0-13.776-11.167-24.943-24.943-24.943-13.776 0-24.943 11.167-24.943 24.943 0 13.776 11.167 24.943 24.943 24.943z" stroke="#DFE0E2" stroke-width="3"/><path d="M52.443 238.887c14.604 0 26.443-11.839 26.443-26.443 0-14.604-11.839-26.443-26.443-26.443C37.839 186.001 26 197.84 26 212.444c0 14.604 11.839 26.443 26.443 26.443z" fill="#fff"/><path d="M52.443 237.387c13.776 0 24.943-11.167 24.943-24.943 0-13.776-11.167-24.943-24.943-24.943-13.776 0-24.943 11.167-24.943 24.943 0 13.776 11.167 24.943 24.943 24.943z" stroke="#DFE0E2" stroke-width="3"/><path d="M493.443 251.887c14.604 0 26.443-11.839 26.443-26.443 0-14.604-11.839-26.443-26.443-26.443-14.604 0-26.443 11.839-26.443 26.443 0 14.604 11.839 26.443 26.443 26.443z" fill="#fff"/><path d="M493.443 250.387c13.776 0 24.943-11.167 24.943-24.943 0-13.776-11.167-24.943-24.943-24.943-13.776 0-24.943 11.167-24.943 24.943 0 13.776 11.167 24.943 24.943 24.943z" stroke="#DFE0E2" stroke-width="3"/><path d="M30 212.628c0-12.426 10.074-22.5 22.5-22.5h1c12.426 0 22.5 10.074 22.5 22.5 0 12.427-10.074 22.5-22.5 22.5h-1c-12.426 0-22.5-10.073-22.5-22.5z" fill="#fff"/><ellipse cx="53" cy="212.628" rx="15.677" ry="15.336" fill="url(#a)"/><path fill-rule="evenodd" clip-rule="evenodd" d="M35.318 218.066a.602.602 0 0 1 .984.089.636.636 0 0 1-.083.747c-1.058 1.171-1.514 2.082-1.209 2.602.983 1.674 9.486-1.345 18.993-6.744.33-.187.655-.374.978-.562a.355.355 0 0 0 .173-.31c0-2.149 1.78-3.891 3.978-3.891 1.18 0 2.454.034 3.413-.653 4.733-3.393 7.544-6.282 6.893-7.39-.293-.499-1.255-.581-2.712-.307a.61.61 0 0 1-.641-.286.577.577 0 0 1 .408-.869c2.85-.408 4.87-.068 5.578 1.138 1.326 2.258-2.323 6.918-8.675 11.656a.745.745 0 0 0-.286.602c0 2.15-1.781 3.892-3.978 3.892-.112 0-.224-.005-.334-.013-.976-.08-2.013-.119-2.865.364-10.696 6.074-20.814 8.535-22.598 5.496-.733-1.25.056-3.234 1.983-5.561z" fill="#3B577F"/><ellipse cx="59.132" cy="213.888" rx="1.989" ry="1.946" fill="#70AF09"/><g opacity=".32" fill="#E5E5E5"><path d="M44.966 207.383c-.965 2.331-.66 4.788-1.844 4.32-1.183-.469-1.36-2.739-.395-5.069.964-2.331 2.706-3.84 3.89-3.371 1.183.469-.686 1.79-1.65 4.12zM44.223 214.018c.087.767-.277 1.436-.811 1.494-.534.057-1.037-.519-1.124-1.286-.086-.768.278-1.436.812-1.494.534-.057 1.037.518 1.123 1.286z"/></g><path d="M48.371 224.312c-.544-.308-.283-.824 1.04-1.253 2.79-.599 2.32.612 6.334.146 4.015-.466 6.132-2.085 7.198-3.15.853-.853 1.642-2.006 1.604-1.599-.182.866-1.647 3.147-6.057 5.348-5.512 2.752-9.283.98-10.119.508z" fill="#080F1B" fill-opacity=".11"/><path d="M66.08 204.149c.524-.34.67-1.047.284-1.54-2.392-3.054-5.813-5.203-9.674-6.052a17.162 17.162 0 0 0-12.4 1.975c-3.718 2.199-6.423 5.718-7.55 9.822a16.142 16.142 0 0 0 .997 11.227c.261.551.934.744 1.471.456.551-.296.748-.986.486-1.554a13.986 13.986 0 0 1-.784-9.558c.977-3.557 3.321-6.606 6.543-8.511a14.867 14.867 0 0 1 10.744-1.711 14.63 14.63 0 0 1 8.317 5.16c.378.475 1.056.617 1.565.286zM43.403 224.789a1.043 1.043 0 0 0 .234 1.529 17.15 17.15 0 0 0 17.535.711 16.646 16.646 0 0 0 6.748-6.767 16.177 16.177 0 0 0 1.908-8.168c-.02-.614-.582-1.063-1.203-1.002-.614.06-1.054.597-1.04 1.204.058 2.41-.51 4.801-1.657 6.947a14.423 14.423 0 0 1-5.847 5.864 14.862 14.862 0 0 1-8.179 1.753A14.798 14.798 0 0 1 45 224.563c-.52-.333-1.219-.252-1.596.226z" fill="#3B577F"/><path d="M471.018 225.677c0-12.426 10.074-22.5 22.5-22.5h1c12.426 0 22.5 10.074 22.5 22.5 0 12.427-10.074 22.5-22.5 22.5h-1c-12.426 0-22.5-10.073-22.5-22.5z" fill="#fff"/><ellipse cx="494.018" cy="225.677" rx="15.677" ry="15.336" fill="url(#b)"/><path fill-rule="evenodd" clip-rule="evenodd" d="M476.336 231.116a.602.602 0 0 1 .984.088.636.636 0 0 1-.083.747c-1.058 1.171-1.514 2.082-1.209 2.602.982 1.674 9.486-1.345 18.993-6.744.329-.187.655-.374.978-.562a.356.356 0 0 0 .173-.31c0-2.149 1.781-3.891 3.978-3.891 1.18 0 2.454.034 3.413-.653 4.733-3.393 7.544-6.281 6.893-7.39-.293-.499-1.255-.581-2.712-.307a.61.61 0 0 1-.641-.286.577.577 0 0 1 .408-.869c2.849-.408 4.87-.068 5.578 1.138 1.326 2.258-2.323 6.918-8.675 11.656a.747.747 0 0 0-.286.602c0 2.15-1.781 3.892-3.978 3.892a4.09 4.09 0 0 1-.334-.013c-.976-.08-2.013-.119-2.865.364-10.696 6.075-20.814 8.535-22.598 5.496-.733-1.25.056-3.234 1.983-5.56z" fill="#3B577F"/><ellipse cx="500.15" cy="226.937" rx="1.989" ry="1.946" fill="#70AF09"/><g opacity=".32" fill="#E5E5E5"><path d="M485.984 220.432c-.965 2.331-.66 4.788-1.844 4.32-1.183-.469-1.36-2.739-.396-5.069.965-2.331 2.707-3.84 3.89-3.371 1.184.469-.685 1.79-1.65 4.12zM485.241 227.067c.086.767-.277 1.436-.811 1.494-.534.057-1.037-.519-1.124-1.286-.086-.768.277-1.436.812-1.494.534-.057 1.037.518 1.123 1.286z"/></g><path d="M489.389 237.361c-.544-.308-.283-.824 1.04-1.253 2.79-.599 2.319.612 6.334.146 4.015-.466 6.132-2.085 7.198-3.15.853-.852 1.641-2.006 1.604-1.599-.182.866-1.647 3.147-6.057 5.348-5.512 2.752-9.283.98-10.119.508z" fill="#080F1B" fill-opacity=".11"/><path d="M507.097 217.198c.525-.34.671-1.047.285-1.54-2.392-3.054-5.813-5.203-9.674-6.051a17.157 17.157 0 0 0-12.4 1.974c-3.718 2.199-6.423 5.718-7.551 9.822a16.145 16.145 0 0 0 .998 11.228c.261.55.934.743 1.471.455.551-.296.748-.986.486-1.554a13.99 13.99 0 0 1-.784-9.558c.977-3.557 3.321-6.606 6.543-8.511a14.866 14.866 0 0 1 10.744-1.711 14.629 14.629 0 0 1 8.317 5.16c.378.476 1.055.617 1.565.286zM484.421 237.838a1.044 1.044 0 0 0 .234 1.529 17.077 17.077 0 0 0 8.096 2.735 17.142 17.142 0 0 0 9.439-2.024 16.645 16.645 0 0 0 6.748-6.767 16.177 16.177 0 0 0 1.908-8.168c-.02-.614-.582-1.063-1.203-1.002-.614.06-1.054.597-1.039 1.204a14.028 14.028 0 0 1-1.658 6.947 14.425 14.425 0 0 1-5.847 5.864 14.854 14.854 0 0 1-8.179 1.753 14.801 14.801 0 0 1-6.903-2.297c-.519-.333-1.219-.252-1.596.226z" fill="#3B577F"/><path d="M385.044 478.625c0-12.426 10.074-22.5 22.5-22.5h1c12.427 0 22.5 10.074 22.5 22.5 0 12.427-10.073 22.5-22.5 22.5h-1c-12.426 0-22.5-10.073-22.5-22.5z" fill="#fff"/><ellipse cx="408.044" cy="478.625" rx="15.677" ry="15.336" fill="url(#c)"/><path fill-rule="evenodd" clip-rule="evenodd" d="M390.362 484.064a.602.602 0 0 1 .984.088.634.634 0 0 1-.082.747c-1.059 1.171-1.515 2.083-1.21 2.602.983 1.674 9.486-1.345 18.993-6.744.33-.187.656-.374.978-.561a.356.356 0 0 0 .173-.31c0-2.15 1.781-3.892 3.978-3.892 1.18 0 2.454.034 3.413-.653 4.734-3.393 7.544-6.281 6.893-7.39-.293-.499-1.254-.581-2.712-.307a.61.61 0 0 1-.641-.285.578.578 0 0 1 .409-.87c2.848-.408 4.869-.068 5.577 1.138 1.326 2.259-2.323 6.918-8.674 11.656a.745.745 0 0 0-.287.603c0 2.149-1.781 3.891-3.978 3.891-.112 0-.223-.004-.333-.013-.977-.08-2.014-.119-2.865.364-10.697 6.075-20.815 8.535-22.599 5.496-.733-1.25.056-3.234 1.983-5.56z" fill="#3B577F"/><ellipse cx="414.176" cy="479.886" rx="1.989" ry="1.946" fill="#70AF09"/><g opacity=".32" fill="#E5E5E5"><path d="M400.01 473.38c-.964 2.331-.66 4.789-1.843 4.32-1.184-.469-1.361-2.738-.396-5.069s2.706-3.84 3.89-3.371c1.183.469-.686 1.79-1.651 4.12zM399.268 480.015c.086.768-.277 1.436-.812 1.494-.534.057-1.037-.518-1.123-1.286-.087-.767.277-1.436.811-1.494.534-.057 1.037.519 1.124 1.286z"/></g><path d="M403.416 490.309c-.545-.308-.284-.824 1.039-1.253 2.79-.599 2.32.612 6.335.146 4.015-.466 6.131-2.085 7.198-3.15.852-.852 1.641-2.005 1.603-1.599-.181.866-1.647 3.147-6.057 5.348-5.512 2.752-9.283.98-10.118.508z" fill="#080F1B" fill-opacity=".11"/><path d="M421.124 470.146c.524-.34.67-1.047.285-1.539-2.393-3.055-5.813-5.204-9.675-6.052a17.154 17.154 0 0 0-12.399 1.974c-3.718 2.199-6.424 5.718-7.551 9.823a16.137 16.137 0 0 0 .997 11.227c.262.55.935.743 1.471.455.552-.296.748-.985.487-1.554a13.985 13.985 0 0 1-.785-9.558c.977-3.556 3.322-6.606 6.543-8.511a14.87 14.87 0 0 1 10.745-1.711 14.63 14.63 0 0 1 8.316 5.16c.379.476 1.056.617 1.566.286zM398.447 490.787a1.042 1.042 0 0 0 .235 1.528 17.077 17.077 0 0 0 8.095 2.735 17.14 17.14 0 0 0 9.439-2.024 16.639 16.639 0 0 0 6.748-6.767 16.177 16.177 0 0 0 1.909-8.167c-.021-.615-.582-1.064-1.203-1.003-.614.06-1.055.597-1.04 1.205.057 2.409-.51 4.8-1.658 6.946a14.423 14.423 0 0 1-5.846 5.864 14.857 14.857 0 0 1-8.18 1.753 14.808 14.808 0 0 1-6.902-2.296c-.52-.334-1.219-.252-1.597.226z" fill="#3B577F"/><path d="M4.081 472.621c0-12.427 10.074-22.5 22.5-22.5h1c12.426 0 22.5 10.073 22.5 22.5 0 12.426-10.074 22.5-22.5 22.5h-1c-12.426 0-22.5-10.074-22.5-22.5z" fill="#fff"/><ellipse cx="27.081" cy="472.621" rx="15.677" ry="15.336" fill="url(#d)"/><path fill-rule="evenodd" clip-rule="evenodd" d="M9.4 478.059a.602.602 0 0 1 .983.088.636.636 0 0 1-.083.747c-1.058 1.171-1.514 2.083-1.209 2.603.983 1.673 9.486-1.346 18.993-6.745.33-.187.655-.374.978-.561a.357.357 0 0 0 .173-.31c0-2.15 1.78-3.892 3.978-3.892 1.18 0 2.454.034 3.413-.653 4.733-3.393 7.544-6.281 6.893-7.39-.293-.499-1.255-.581-2.712-.307a.61.61 0 0 1-.641-.285.577.577 0 0 1 .408-.869c2.85-.409 4.87-.069 5.578 1.137 1.326 2.259-2.323 6.918-8.675 11.656a.746.746 0 0 0-.286.603c0 2.149-1.781 3.891-3.978 3.891-.112 0-.224-.004-.334-.013-.976-.079-2.013-.119-2.865.365-10.696 6.074-20.814 8.534-22.598 5.495-.733-1.25.056-3.234 1.983-5.56z" fill="#3B577F"/><ellipse cx="33.213" cy="473.881" rx="1.989" ry="1.946" fill="#70AF09"/><g opacity=".32" fill="#E5E5E5"><path d="M19.047 467.375c-.965 2.331-.66 4.789-1.844 4.32-1.183-.469-1.36-2.738-.395-5.069.964-2.331 2.706-3.84 3.89-3.371 1.183.469-.686 1.79-1.65 4.12zM18.304 474.01c.087.768-.277 1.436-.811 1.494-.534.057-1.037-.518-1.124-1.286-.086-.767.277-1.436.812-1.494.534-.057 1.037.519 1.123 1.286z"/></g><path d="M22.452 484.304c-.544-.308-.283-.824 1.04-1.253 2.79-.599 2.32.612 6.334.146 4.015-.466 6.132-2.085 7.198-3.15.853-.852 1.642-2.005 1.604-1.599-.182.866-1.647 3.147-6.057 5.348-5.512 2.752-9.283.98-10.119.508z" fill="#080F1B" fill-opacity=".11"/><path d="M40.16 464.141c.525-.34.67-1.047.285-1.539-2.392-3.055-5.813-5.204-9.674-6.052a17.156 17.156 0 0 0-12.4 1.974c-3.718 2.199-6.423 5.718-7.55 9.823a16.143 16.143 0 0 0 .997 11.227c.261.55.934.743 1.471.455.551-.296.748-.985.486-1.554a13.986 13.986 0 0 1-.784-9.558c.977-3.556 3.321-6.606 6.543-8.511a14.867 14.867 0 0 1 10.744-1.711 14.63 14.63 0 0 1 8.317 5.16c.378.476 1.056.617 1.565.286zM17.484 484.782a1.042 1.042 0 0 0 .234 1.528 17.077 17.077 0 0 0 8.096 2.735c3.28.242 6.562-.461 9.44-2.024A16.643 16.643 0 0 0 42 480.255a16.181 16.181 0 0 0 1.908-8.168c-.02-.615-.581-1.064-1.203-1.003-.614.06-1.054.597-1.04 1.205.058 2.409-.51 4.8-1.657 6.946a14.423 14.423 0 0 1-5.847 5.864 14.854 14.854 0 0 1-8.179 1.753 14.808 14.808 0 0 1-6.902-2.296c-.52-.334-1.22-.252-1.597.226z" fill="#3B577F"/><defs><linearGradient id="a" x1="36.374" y1="186.399" x2="59.324" y2="226.367" gradientUnits="userSpaceOnUse"><stop offset=".395" stop-color="#E87D1B"/><stop offset=".72" stop-color="#D64D12"/><stop offset=".75" stop-color="#70AF09"/></linearGradient><linearGradient id="b" x1="477.392" y1="199.448" x2="500.342" y2="239.416" gradientUnits="userSpaceOnUse"><stop offset=".395" stop-color="#E87D1B"/><stop offset=".72" stop-color="#D64D12"/><stop offset=".75" stop-color="#70AF09"/></linearGradient><linearGradient id="c" x1="391.419" y1="452.396" x2="414.368" y2="492.364" gradientUnits="userSpaceOnUse"><stop offset=".395" stop-color="#E87D1B"/><stop offset=".72" stop-color="#D64D12"/><stop offset=".75" stop-color="#70AF09"/></linearGradient><linearGradient id="d" x1="10.455" y1="446.391" x2="33.405" y2="486.359" gradientUnits="userSpaceOnUse"><stop offset=".395" stop-color="#E87D1B"/><stop offset=".72" stop-color="#D64D12"/><stop offset=".75" stop-color="#70AF09"/></linearGradient></defs></svg>