<svg width="50" height="51" viewBox="0 0 50 51" fill="none" xmlns="http://www.w3.org/2000/svg">
<g clip-path="url(#clip0_7617_123995)">
<path d="M45.6055 30.4571H4.39453C1.97144 30.4571 0 32.4285 0 34.8516V43.6407C0 46.0637 1.97144 48.0352 4.39453 48.0352H8.78906V49.5C8.78906 50.3099 9.44443 50.9649 10.2539 50.9649C11.0638 50.9649 11.7187 50.3099 11.7187 49.5V48.0352H38.2812V49.5C38.2812 50.3099 38.9366 50.9649 39.7461 50.9649C40.556 50.9649 41.2109 50.3099 41.2109 49.5V48.0352H45.6055C48.0286 48.0352 50 46.0637 50 43.6407V34.8516C50 32.4285 48.0286 30.4571 45.6055 30.4571ZM25.0977 42.1758H7.32422C6.51474 42.1758 5.85937 41.5208 5.85937 40.711C5.85937 39.9015 6.51474 39.2461 7.32422 39.2461H25.0977C25.9075 39.2461 26.5625 39.9015 26.5625 40.711C26.5625 41.5208 25.9075 42.1758 25.0977 42.1758ZM30.9544 42.1758C30.1453 42.1758 29.4895 41.5201 29.4895 40.711C29.4895 39.9019 30.1453 39.2461 30.9544 39.2461C31.7635 39.2461 32.4192 39.9019 32.4192 40.711C32.4192 41.5201 31.7635 42.1758 30.9544 42.1758ZM36.8137 42.1758C36.0046 42.1758 35.3489 41.5201 35.3489 40.711C35.3489 39.9019 36.0046 39.2461 36.8137 39.2461C37.6228 39.2461 38.2786 39.9019 38.2786 40.711C38.2786 41.5201 37.6228 42.1758 36.8137 42.1758ZM42.6731 42.1758C41.864 42.1758 41.2083 41.5201 41.2083 40.711C41.2083 39.9019 41.864 39.2461 42.6731 39.2461C43.4822 39.2461 44.138 39.9019 44.138 40.711C44.138 41.5201 43.4822 42.1758 42.6731 42.1758Z" fill="#1C2129"/>
<path d="M9.14574 1.08122C8.40607 0.766508 7.54356 1.1125 7.2258 1.85942C6.38313 3.84611 5.95703 5.95488 5.95703 8.12621C5.95703 10.2979 6.38313 12.4063 7.2258 14.3934C7.54395 15.1426 8.4053 15.4848 9.14574 15.1716C9.89075 14.8557 10.2386 13.9959 9.92393 13.252C9.23576 11.627 8.88672 9.90309 8.88672 8.12621C8.88672 6.3497 9.23576 4.62584 9.92393 3.00078C10.2386 2.25691 9.89075 1.39708 9.14574 1.08122Z" fill="#1C2129"/>
<path d="M40.8543 15.1716C41.5951 15.4851 42.4565 15.1422 42.7743 14.3934C43.6169 12.4063 44.043 10.2979 44.043 8.1262C44.043 5.95487 43.6169 3.84611 42.7743 1.85941C42.458 1.1125 41.5913 0.766503 40.8543 1.08083C40.1093 1.39707 39.7614 2.25691 40.0761 3.00077C40.7643 4.62583 41.1133 6.34969 41.1133 8.1262C41.1133 9.90309 40.7643 11.6269 40.0761 13.2516C39.7614 13.9959 40.1093 14.8557 40.8543 15.1716Z" fill="#1C2129"/>
<path d="M14.5458 3.35975C13.8077 3.04962 12.9421 3.39142 12.6247 4.13681C12.088 5.40138 11.8164 6.74301 11.8164 8.12622C11.8164 9.50981 12.088 10.8514 12.6247 12.116C12.9436 12.866 13.8073 13.2055 14.5458 12.8927C15.2912 12.5768 15.6387 11.7155 15.3225 10.9716C14.9391 10.0717 14.7461 9.11346 14.7461 8.12622C14.7461 7.13936 14.9391 6.18072 15.3225 5.28122C15.6387 4.53735 15.2912 3.67599 14.5458 3.35975Z" fill="#1C2129"/>
<path d="M35.4541 12.8927C36.1926 13.2051 37.0562 12.866 37.3751 12.116C37.9119 10.8514 38.1835 9.50981 38.1835 8.12622C38.1835 6.74301 37.9119 5.40138 37.3751 4.13681C37.0578 3.39142 36.1953 3.04962 35.4541 3.35975C34.7087 3.67599 34.3612 4.53735 34.6774 5.28122C35.0608 6.18072 35.2538 7.13936 35.2538 8.12622C35.2538 9.11346 35.0608 10.0717 34.6774 10.9716C34.3612 11.7155 34.7087 12.5768 35.4541 12.8927Z" fill="#1C2129"/>
<path d="M19.9432 5.63711C19.202 5.32698 18.3395 5.66878 18.0222 6.41417C17.7933 6.95624 17.6758 7.53264 17.6758 8.1262C17.6758 8.72015 17.7933 9.29655 18.0222 9.83862C18.3411 10.5886 19.2043 10.9281 19.9432 10.6153C20.6886 10.2994 21.0361 9.43808 20.7199 8.69421C20.644 8.5153 20.6055 8.32533 20.6055 8.1262C20.6055 7.92746 20.644 7.7371 20.7199 7.55858C21.0361 6.81471 20.6886 5.95335 19.9432 5.63711Z" fill="#1C2129"/>
<path d="M30.0567 10.6157C30.7956 10.9277 31.6589 10.5886 31.9782 9.83862C32.2071 9.29655 32.3242 8.72015 32.3242 8.1262C32.3242 7.53264 32.2071 6.95624 31.9782 6.41417C31.6619 5.66878 30.7937 5.32698 30.0567 5.63711C29.3113 5.95335 28.9638 6.81471 29.28 7.55858C29.356 7.73711 29.3945 7.92746 29.3945 8.1262C29.3945 8.32533 29.356 8.5153 29.28 8.69421C28.9638 9.43808 29.3113 10.2994 30.0567 10.6157Z" fill="#1C2129"/>
<path d="M29.3945 23.0352C29.3945 22.2257 28.7395 21.5704 27.9297 21.5704H26.4648V8.12623C26.4648 7.31675 25.8099 6.66138 25 6.66138C24.1905 6.66138 23.5352 7.31675 23.5352 8.12623V21.5704H22.0703C21.2608 21.5704 20.6055 22.2257 20.6055 23.0352V27.5274H29.3945V23.0352Z" fill="#1C2129"/>
</g>
<defs>
<clipPath id="clip0_7617_123995">
<rect width="50" height="50" fill="white" transform="translate(0 0.964844)"/>
</clipPath>
</defs>
</svg>
