<svg xmlns="http://www.w3.org/2000/svg" width="304.924" height="200.578"><defs><clipPath id="clip-path-7"><path id="Path_30859" d="M737.475 408.948q.029 9.189.056 18.379c.005 1.825 1.307 3.649 3.907 5.042l-.056-18.38c-2.6-1.389-3.902-3.216-3.907-5.041z" class="cls-2" data-name="Path 30859" transform="translate(-737.475 -408.948)"/></clipPath><clipPath id="clip-path-13"><path id="Path_30920" d="M669.28 241.594 666 243.5c2.5-1.454 4.13-5.321 4.147-10.666.038-13.482-8.142-25.621-18.4-31.545l3.28-1.9c10.258 5.921 18.438 18.06 18.4 31.545-.014 5.339-1.645 9.208-4.147 10.66z" class="cls-5" data-name="Path 30920"/></clipPath><clipPath id="clip-path-2"><path id="Path_30842" d="m630.586 287.363-1.341-.719c-7.216 3.842-14.244 10.409-19.783 18.5l1.341.718c5.541-8.091 12.567-14.662 19.783-18.499z" class="cls-1" data-name="Path 30842" transform="translate(-609.463 -286.644)"/></clipPath><clipPath id="clip-path-3"><path id="Path_30845" d="m611.8 298.388-1.341-.718c-3.684-1.5-8.369-.911-13.2 1.658l1.34.718c4.836-2.568 9.52-3.157 13.201-1.658z" class="cls-1" data-name="Path 30845" transform="translate(-597.267 -296.858)"/></clipPath><clipPath id="clip-path-4"><path id="Path_30848" d="m623.807 300.046-1.34-.718a38.4 38.4 0 0 0-13.036 12.181l1.34.718a38.381 38.381 0 0 1 13.036-12.181z" class="cls-1" data-name="Path 30848" transform="translate(-609.432 -299.328)"/></clipPath><clipPath id="clip-path-5"><path id="Path_30851" d="m611.289 311.708-1.34-.718c-1.966-.8-4.457-.48-7.033.89l1.34.718c2.575-1.371 5.068-1.685 7.033-.89z" class="cls-1" data-name="Path 30851" transform="translate(-602.917 -310.56)"/></clipPath><clipPath id="clip-path-6"><path id="Path_30854" d="m617.682 312.6-1.34-.718a20.47 20.47 0 0 0-6.942 6.484l1.341.717a20.5 20.5 0 0 1 6.941-6.483z" class="cls-1" data-name="Path 30854" transform="translate(-609.4 -311.88)"/></clipPath><clipPath id="clip-path"><path id="Path_30839" d="m612.369 284.844-1.34-.717c-5.6-2.27-12.711-1.376-20.028 2.517l1.341.719c7.315-3.894 14.426-4.786 20.027-2.519z" class="cls-1" data-name="Path 30839" transform="translate(-591.001 -282.898)"/></clipPath><clipPath id="clip-path-8"><path id="Path_30862" d="m584.586 446.531-.057-18.379c.006 1.849-1.319 3.7-3.969 5.113l.056 18.379c2.651-1.411 3.975-3.263 3.97-5.113z" class="cls-3" data-name="Path 30862" transform="translate(-580.559 -428.152)"/></clipPath><clipPath id="clip-path-9"><path id="Path_30869" d="m635.666 462.97.057 18.379c5.231 2.8 13.74 2.8 19.009 0l-.056-18.378c-5.269 2.801-13.776 2.801-19.01-.001z" class="cls-3" data-name="Path 30869" transform="translate(-635.666 -462.968)"/></clipPath><clipPath id="clip-path-10"><path id="Path_30875" d="m612.536 326.208 3.174 101.674c0 1.108-.793 2.214-2.371 3.059a13.663 13.663 0 0 1-11.527 0c-1.605-.854-2.408-1.977-2.4-3.1l3.348-101.658a2.263 2.263 0 0 0 1.443 1.859 8.2 8.2 0 0 0 6.917 0 2.25 2.25 0 0 0 1.416-1.834z" class="cls-2" data-name="Path 30875" transform="translate(-599.407 -326.184)"/></clipPath><clipPath id="clip-path-11"><path id="Path_30910" d="m665.443 235.139-3.28 1.9a1.442 1.442 0 0 1-1.533-.039c-1.431-.826-2.144-3.051-2.133-7.217l3.281-1.907c-.012 4.166.7 6.391 2.132 7.217a1.446 1.446 0 0 0 1.533.046z" class="cls-4" data-name="Path 30910"/></clipPath><clipPath id="clip-path-12"><path id="Path_30915" d="m634.642 198.911 3.28-1.9c4.251-2.472 10.375-1.507 17.1 2.379l-3.28 1.9c-6.725-3.89-12.842-4.849-17.1-2.379z" class="cls-5" data-name="Path 30915"/></clipPath><style>.cls-1{fill:none}.cls-2{fill:#bababa}.cls-3{fill:#e6e6e6}.cls-4{fill:#ab3529}.cls-5{fill:#c74536}.cls-7{fill:#acacac}.cls-8{fill:#737373}.cls-10{fill:#fff}.cls-19{fill:#dbdbdb}.cls-20{fill:#fdfdfd}.cls-22{fill:#e4e5e8}.cls-25{fill:#d7e7f7}.cls-27{fill:#024462}.cls-29{fill:#f0a72e}.cls-31{fill:#d43e3e}</style></defs><g id="Group_6515" data-name="Group 6515" transform="translate(-859 -1864)"><g id="Router" transform="translate(278.441 1581.103)"><g id="Group_2847" data-name="Group 2847" transform="translate(702.261 282.898)"><g id="Group_2818" data-name="Group 2818"><g id="Group_2817" data-name="Group 2817"><g id="Group_2808" data-name="Group 2808" transform="translate(19.783)"><g id="Group_2807" data-name="Group 2807" style="clip-path:url(#clip-path)"><g id="Group_2806" data-name="Group 2806"><g id="Group_2805" data-name="Group 2805"><path id="Path_30838" d="m612.369 284.844-1.34-.717c-5.6-2.27-12.711-1.376-20.028 2.517l1.341.719c7.316-3.894 14.426-4.786 20.027-2.519z" class="cls-7" data-name="Path 30838" transform="translate(-591.001 -282.898)"/></g></g></g></g><g id="Group_2810" data-name="Group 2810" transform="translate(0 22.244)"><g id="Group_2809" data-name="Group 2809"><path id="Path_30840" d="m626.58 305.859-1.34-.718 2.669 1.819 1.34.718z" class="cls-8" data-name="Path 30840" transform="translate(-625.241 -305.141)"/></g></g><g id="Group_2814" data-name="Group 2814" transform="translate(0 3.746)"><g id="Group_2813" data-name="Group 2813" style="clip-path:url(#clip-path-2)"><g id="Group_2812" data-name="Group 2812"><g id="Group_2811" data-name="Group 2811"><path id="Path_30841" d="m630.586 287.363-1.341-.719c-7.216 3.842-14.244 10.409-19.783 18.5l1.34.718c5.541-8.088 12.567-14.655 19.784-18.5z" class="cls-7" data-name="Path 30841" transform="translate(-609.463 -286.644)"/></g></g></g></g><g id="Group_2816" data-name="Group 2816" transform="translate(1.34 .719)"><g id="Group_2815" data-name="Group 2815"><path id="Path_30843" d="M610.785 287.363c-7.217 3.841-14.243 10.408-19.784 18.5l2.668 1.82c4.808-7.016 10.889-12.713 17.128-16.034 6.325-3.366 12.483-4.132 17.341-2.164l2.673-4.637c-5.6-2.271-12.711-1.379-20.026 2.515z" class="cls-10" data-name="Path 30843" transform="translate(-591.001 -283.616)"/></g></g></g></g><g id="Group_2832" data-name="Group 2832" transform="translate(6.782 13.96)"><g id="Group_2831" data-name="Group 2831"><g id="Group_2822" data-name="Group 2822" transform="translate(13.036)"><g id="Group_2821" data-name="Group 2821" style="clip-path:url(#clip-path-3)"><g id="Group_2820" data-name="Group 2820"><g id="Group_2819" data-name="Group 2819"><path id="Path_30844" d="m611.8 298.388-1.341-.718c-3.684-1.5-8.369-.911-13.2 1.658l1.34.718c4.828-2.568 9.512-3.157 13.2-1.658z" class="cls-7" data-name="Path 30844" transform="translate(-597.267 -296.858)"/></g></g></g></g><g id="Group_2824" data-name="Group 2824" transform="translate(0 14.651)"><g id="Group_2823" data-name="Group 2823"><path id="Path_30846" d="m620.328 312.227-1.339-.718 2.669 1.819 1.339.718z" class="cls-8" data-name="Path 30846" transform="translate(-618.989 -311.509)"/></g></g><g id="Group_2828" data-name="Group 2828" transform="translate(0 2.47)"><g id="Group_2827" data-name="Group 2827" style="clip-path:url(#clip-path-4)"><g id="Group_2826" data-name="Group 2826"><g id="Group_2825" data-name="Group 2825"><path id="Path_30847" d="m623.807 300.046-1.34-.718a38.4 38.4 0 0 0-13.036 12.181l1.34.718a38.381 38.381 0 0 1 13.036-12.181z" class="cls-7" data-name="Path 30847" transform="translate(-609.432 -299.328)"/></g></g></g></g><g id="Group_2830" data-name="Group 2830" transform="translate(1.34 .718)"><g id="Group_2829" data-name="Group 2829"><path id="Path_30849" d="M610.3 300.046a38.381 38.381 0 0 0-13.036 12.181l2.668 1.818a30.593 30.593 0 0 1 10.38-9.717c3.777-2.011 7.605-2.482 10.509-1.309l2.674-4.631c-3.68-1.499-8.364-.91-13.195 1.658z" class="cls-10" data-name="Path 30849" transform="translate(-597.267 -297.576)"/></g></g></g></g><g id="Group_2846" data-name="Group 2846" transform="translate(12.91 27.662)"><g id="Group_2845" data-name="Group 2845"><g id="Group_2836" data-name="Group 2836" transform="translate(6.942)"><g id="Group_2835" data-name="Group 2835" style="clip-path:url(#clip-path-5)"><g id="Group_2834" data-name="Group 2834"><g id="Group_2833" data-name="Group 2833"><path id="Path_30850" d="m611.289 311.708-1.34-.718c-1.966-.8-4.457-.48-7.033.89l1.34.718c2.574-1.371 5.067-1.685 7.033-.89z" class="cls-7" data-name="Path 30850" transform="translate(-602.917 -310.56)"/></g></g></g></g><g id="Group_2838" data-name="Group 2838" transform="translate(0 7.804)"><g id="Group_2837" data-name="Group 2837"><path id="Path_30852" d="m614.679 319.081-1.34-.717 2.669 1.819 1.34.718z" class="cls-8" data-name="Path 30852" transform="translate(-613.339 -318.364)"/></g></g><g id="Group_2842" data-name="Group 2842" transform="translate(0 1.32)"><g id="Group_2841" data-name="Group 2841" style="clip-path:url(#clip-path-6)"><g id="Group_2840" data-name="Group 2840"><g id="Group_2839" data-name="Group 2839"><path id="Path_30853" d="m617.682 312.6-1.34-.718a20.47 20.47 0 0 0-6.942 6.484l1.341.717a20.5 20.5 0 0 1 6.941-6.483z" class="cls-7" data-name="Path 30853" transform="translate(-609.4 -311.88)"/></g></g></g></g><g id="Group_2844" data-name="Group 2844" transform="translate(1.341 .718)"><g id="Group_2843" data-name="Group 2843"><path id="Path_30855" d="M609.858 312.6a20.5 20.5 0 0 0-6.941 6.483l2.669 1.819a12.671 12.671 0 0 1 4.286-4.02 5.244 5.244 0 0 1 4.341-.531l2.678-4.641c-1.966-.797-4.458-.483-7.033.89z" class="cls-10" data-name="Path 30855" transform="translate(-602.917 -311.278)"/></g></g></g></g></g><g id="Group_2862" data-name="Group 2862" transform="translate(580.559 372.031)"><g id="Group_2861" data-name="Group 2861"><g id="Group_2850" data-name="Group 2850" transform="translate(0 36.917)"><path id="Path_30856" d="M737.475 408.948q.029 9.189.056 18.379c.005 1.825 1.307 3.649 3.907 5.042l-.056-18.38c-2.6-1.389-3.902-3.216-3.907-5.041z" class="cls-2" data-name="Path 30856" transform="translate(-737.475 -408.948)"/><g id="Group_2849" data-name="Group 2849" style="clip-path:url(#clip-path-7)"><g id="Group_2848" data-name="Group 2848"><path id="Path_30857" d="m740.6 408.948.056 18.379a4.166 4.166 0 0 0 .516 1.961l-.057-18.379a4.166 4.166 0 0 1-.515-1.961z" class="cls-2" data-name="Path 30857" transform="translate(-740.601 -408.948)"/><path id="Path_30858" d="m737.475 410.909.057 18.379a7.973 7.973 0 0 0 3.391 3.081l-.056-18.38a7.969 7.969 0 0 1-3.392-3.08z" class="cls-2" data-name="Path 30858" transform="translate(-736.96 -408.948)"/></g></g></g><g id="Group_2853" data-name="Group 2853" transform="translate(170.154 56.121)"><path id="Path_30860" d="m584.586 446.531-.057-18.379c.006 1.849-1.319 3.7-3.969 5.113l.056 18.379c2.651-1.411 3.975-3.263 3.97-5.113z" class="cls-3" data-name="Path 30860" transform="translate(-580.559 -428.152)"/><g id="Group_2852" data-name="Group 2852" style="clip-path:url(#clip-path-8)"><g id="Group_2851" data-name="Group 2851"><path id="Path_30861" d="m580.559 433.265.056 18.379c2.651-1.411 3.976-3.263 3.97-5.113l-.057-18.379c.006 1.849-1.319 3.7-3.969 5.113z" class="cls-3" data-name="Path 30861" transform="translate(-580.559 -428.152)"/></g></g></g><g id="Group_2854" data-name="Group 2854" transform="translate(3.907 41.958)"><path id="Path_30863" d="m653.19 413.989.057 18.379 91.428 48.981-.057-18.379z" class="cls-2" data-name="Path 30863" transform="translate(-653.19 -413.989)"/></g><g id="Group_2855" data-name="Group 2855" transform="translate(21.258 54.733)"><path id="Path_30864" d="m669.186 426.765.035 11.408 56.748 30.4-.036-11.408z" data-name="Path 30864" transform="translate(-669.186 -426.765)" style="fill:#00447d"/></g><g id="Group_2856" data-name="Group 2856" transform="translate(114.345 61.234)"><path id="Path_30865" d="m584.219 462.968.057 18.379 55.808-29.7-.056-18.379z" class="cls-3" data-name="Path 30865" transform="translate(-584.219 -433.265)"/></g><g id="Group_2859" data-name="Group 2859" transform="translate(95.336 90.936)"><path id="Path_30866" d="m635.666 462.97.057 18.379c5.231 2.8 13.74 2.8 19.009 0l-.056-18.378c-5.269 2.801-13.776 2.801-19.01-.001z" class="cls-3" data-name="Path 30866" transform="translate(-635.666 -462.968)"/><g id="Group_2858" data-name="Group 2858" style="clip-path:url(#clip-path-9)"><g id="Group_2857" data-name="Group 2857"><path id="Path_30867" d="m643.016 462.97.057 18.379a21.423 21.423 0 0 0 11.037 2.051l-.057-18.379a21.425 21.425 0 0 1-11.036-2.054z" class="cls-19" data-name="Path 30867" transform="translate(-643.016 -462.968)"/><path id="Path_30868" d="m635.666 465.024.057 18.379a19.859 19.859 0 0 0 7.973-2.057l-.056-18.378a19.9 19.9 0 0 1-7.974 2.056z" class="cls-19" data-name="Path 30868" transform="translate(-624.63 -462.968)"/></g></g></g><g id="Group_2860" data-name="Group 2860"><path id="Path_30870" d="M584.581 403.836c-5.27 2.8-5.295 7.35-.062 10.153l91.428 48.981c5.232 2.8 13.741 2.8 19.01 0l55.808-29.7c5.265-2.8 5.3-7.349.065-10.152l-91.43-48.985c-5.232-2.8-13.748-2.8-19.015 0z" class="cls-20" data-name="Path 30870" transform="translate(-580.612 -372.031)"/></g></g></g><g id="Group_2868" data-name="Group 2868" transform="translate(717.991 323.585)"><g id="Group_2867" data-name="Group 2867"><g id="Group_2865" data-name="Group 2865" transform="translate(0 2.599)"><path id="Path_30871" d="m612.536 326.208 3.174 101.674c0 1.108-.793 2.214-2.371 3.059a13.663 13.663 0 0 1-11.527 0c-1.605-.854-2.408-1.977-2.4-3.1l3.348-101.658a2.263 2.263 0 0 0 1.443 1.859 8.2 8.2 0 0 0 6.917 0 2.25 2.25 0 0 0 1.416-1.834z" class="cls-2" data-name="Path 30871" transform="translate(-599.407 -326.184)"/><g id="Group_2864" data-name="Group 2864" style="clip-path:url(#clip-path-10)"><g id="Group_2863" data-name="Group 2863"><path id="Path_30872" d="m600.038 326.208 3.174 101.674a2.964 2.964 0 0 1-1.053 2.135l-2.752-102.528a1.786 1.786 0 0 0 .631-1.281z" class="cls-2" data-name="Path 30872" transform="translate(-586.91 -326.184)"/><path id="Path_30873" d="m607.7 327.489 2.752 102.528a6.135 6.135 0 0 1-1.318.924 13.721 13.721 0 0 1-8.759.97l1.278-103.286a8.236 8.236 0 0 0 5.257-.582 3.729 3.729 0 0 0 .791-.554z" class="cls-22" data-name="Path 30873" transform="translate(-595.206 -326.184)"/><path id="Path_30874" d="m614.94 328.625-1.278 103.286a10.592 10.592 0 0 1-2.767-.97c-1.605-.854-2.408-1.977-2.4-3.1l3.348-101.658a2.263 2.263 0 0 0 1.443 1.859 6.31 6.31 0 0 0 1.66.582z" class="cls-2" data-name="Path 30874" transform="translate(-608.49 -326.184)"/></g></g></g><g id="Group_2866" data-name="Group 2866" transform="translate(3.347)"><path id="Path_30876" d="M610.671 324.35c1.916 1.019 1.925 2.673.021 3.693a8.2 8.2 0 0 1-6.917 0c-1.915-1.019-1.925-2.673-.023-3.693a8.2 8.2 0 0 1 6.919 0z" class="cls-20" data-name="Path 30876" transform="translate(-602.333 -323.585)"/></g></g></g><path id="Path_30877" d="m614.4 388.3 68.253 36.482 21.766-11.582-68.253-36.481z" class="cls-22" data-name="Path 30877" transform="translate(13.613)"/><path id="Path_30878" d="M652.218 447.957a12.6 12.6 0 0 0-10.589 0c-2.924 1.557-2.924 4.08 0 5.637a12.587 12.587 0 0 0 10.589 0c2.924-1.557 2.924-4.08 0-5.637z" data-name="Path 30878" transform="translate(36.462)" style="fill:#fe534f"/><path id="Path_30879" d="M668.5 441.068a12.59 12.59 0 0 0-10.591 0c-2.924 1.557-2.924 4.08 0 5.636a12.59 12.59 0 0 0 10.591 0c2.926-1.556 2.926-4.079 0-5.636z" data-name="Path 30879" transform="translate(2.514)" style="fill:#4baa47"/></g><g id="A_element" transform="translate(374.264 1669.135)"><g id="Group_2873" data-name="Group 2873"><g id="Group_2872" data-name="Group 2872"><g id="Group_2870" data-name="Group 2870"><path id="Path_30880" d="M775.026 222.561a11.121 11.121 0 0 0-8.033-1.024 20.675 20.675 0 0 0-6 2.4 32.25 32.25 0 0 0-5.745 4.3l8.878 5.159a32.32 32.32 0 0 1 5.745-4.3 20.661 20.661 0 0 1 6-2.395 11.131 11.131 0 0 1 8.033 1.021z" class="cls-25" data-name="Path 30880"/><path id="Path_30881" d="M748.859 217.4a12.877 12.877 0 0 0-9.283-1.182 23.847 23.847 0 0 0-6.941 2.774 41.549 41.549 0 0 0-11.067 9.683c-6.033 7.357-10.369 16.8-11.421 25.594a20.829 20.829 0 0 0-5.751 2.338 35.946 35.946 0 0 0-9.552 8.354c-6.05 7.365-10.132 17.164-10.108 25.7.018 6.211 2.213 10.582 5.752 12.636l8.875 5.161c-3.536-2.056-5.732-6.426-5.749-12.639-.024-8.535 4.058-18.333 10.108-25.7a35.935 35.935 0 0 1 9.552-8.355 20.909 20.909 0 0 1 5.752-2.338c1.051-8.79 5.387-18.236 11.421-25.593a41.557 41.557 0 0 1 11.063-9.684 23.8 23.8 0 0 1 6.944-2.771 12.862 12.862 0 0 1 9.283 1.181z" class="cls-25" data-name="Path 30881"/></g><g id="Group_2871" data-name="Group 2871"><path id="Path_30882" d="M741.51 224.153c11.431-6.6 20.917-2.4 22.614 9.241a32.32 32.32 0 0 1 5.745-4.3c10.888-6.286 19.753-1.243 19.791 11.277s-8.776 27.754-19.66 34.04l-56.6 32.676c-10.888 6.286-19.752 1.246-19.787-11.264s8.772-27.766 19.66-34.053a20.909 20.909 0 0 1 5.752-2.338c1.623-13.561 11.057-28.68 22.485-35.279z" data-name="Path 30882" style="fill:#f8f9fc"/></g></g></g><g id="Group_2881" data-name="Group 2881"><g id="Group_2876" data-name="Group 2876"><g id="Group_2874" data-name="Group 2874"><path id="Path_30883" d="m733.659 274.8-1.241-.558-.13-.063 3.329 1.935.13.063 1.241.557a.147.147 0 0 1 .076.021l-3.329-1.935a.162.162 0 0 0-.076-.02z" class="cls-27" data-name="Path 30883"/><path id="Path_30884" d="M729.962 284.162a.244.244 0 0 0-.106-.158l-3.33-1.935a.25.25 0 0 1 .107.158l.687 1.349a.192.192 0 0 0 .089.139l3.329 1.934a.192.192 0 0 1-.089-.137z" class="cls-27" data-name="Path 30884"/><path id="Path_30885" d="M734.095 268.187a.2.2 0 0 0-.141-.018.365.365 0 0 0-.106.042.607.607 0 0 0-.086.063l-1.265.818.688-1.3a.939.939 0 0 1 .124-.206.768.768 0 0 1 .174-.155.406.406 0 0 1 .11-.042.2.2 0 0 1 .077 0l1.439.162a.189.189 0 0 1 .062.021l-3.33-1.934a.144.144 0 0 0-.061-.023l-1.44-.161a.2.2 0 0 0-.076 0 .473.473 0 0 0-.11.043.8.8 0 0 0-.175.155.878.878 0 0 0-.123.207l-1.09 2.065-.117.2-2.2-1.275a.189.189 0 0 0-.141-.018.35.35 0 0 0-.1.04.4.4 0 0 0-.089.064l-1.629 1.39a1.182 1.182 0 0 0-.083.088.676.676 0 0 0-.165.555l.106 1.836v.2a9.104 9.104 0 0 0-.2.234 12.812 12.812 0 0 0-.8 1.1.641.641 0 0 1-.168.136.447.447 0 0 1-.124.051.327.327 0 0 1-.082.005l-1.549.2a.27.27 0 0 0-.063.007.347.347 0 0 0-.117.047.624.624 0 0 0-.175.154.8.8 0 0 0-.127.209l-.859 2.151c-.086.208-.062.4.049.459l1.405.815a10.014 10.014 0 0 0-.21 1.3.92.92 0 0 1-.178.331 1.08 1.08 0 0 1-.11.113l-1.516 1.664a.74.74 0 0 0-.089.088.665.665 0 0 0-.162.542l.4 1.644a.211.211 0 0 0 .094.127l2.394 1.392-.193.7c-.085.208-.054.4.059.463l3.329 1.935c-.113-.065-.144-.256-.061-.464l.591-2.121a.609.609 0 0 0 .027-.456 2.911 2.911 0 0 1-.656-.767L723 281.75l1.371-1.5a1.019 1.019 0 0 0 .11-.116.933.933 0 0 0 .178-.331 10.694 10.694 0 0 1 .238-1.49l-1.519-.883a.561.561 0 0 1 .038-.2l.858-2.152a.828.828 0 0 1 .125-.21.683.683 0 0 1 .178-.154.4.4 0 0 1 .117-.046.184.184 0 0 1 .061-.006l1.55-.2a.331.331 0 0 0 .083-.006.456.456 0 0 0 .123-.05.718.718 0 0 0 .169-.137 12.944 12.944 0 0 1 .8-1.1c.065-.079.13-.156.2-.233v-.2l-.107-1.836a.681.681 0 0 1 .165-.555 2.37 2.37 0 0 1 .083-.088l1.03-.879 1.815 1.053a.245.245 0 0 0 .137.028 5.188 5.188 0 0 1 1.148-.392.046.046 0 0 1 .02-.005l.12-.208.124-.24 3.041 1.767.172-.1 1.66-1.071a.431.431 0 0 1 .085-.064.348.348 0 0 1 .107-.043.192.192 0 0 1 .141.019z" class="cls-27" data-name="Path 30885"/><path id="Path_30886" d="m731.965 274.287-3.329-1.934a1.4 1.4 0 0 1 .629.926 5.162 5.162 0 0 1-1.749 4.352 3.884 3.884 0 0 1-.585.42 2.5 2.5 0 0 1-.725.288 1.355 1.355 0 0 1-.982-.125l3.33 1.935a1.361 1.361 0 0 0 .981.125 2.438 2.438 0 0 0 .726-.289 3.9 3.9 0 0 0 .584-.417 4.941 4.941 0 0 0 .6-.614 4.728 4.728 0 0 0 1.154-3.741 1.411 1.411 0 0 0-.634-.926z" class="cls-27" data-name="Path 30886"/></g><g id="Group_2875" data-name="Group 2875"><path id="Path_30887" d="M737.919 271.894a.733.733 0 0 1-.257.638l-1.519 1.648a1.024 1.024 0 0 0-.279.452 9.239 9.239 0 0 1-.247 1.485l.13.063 1.241.557c.172.005.223.23.12.474l-.859 2.151a.76.76 0 0 1-.3.359.3.3 0 0 1-.182.046l-1.551.214a.347.347 0 0 0-.209.054.935.935 0 0 0-.175.141 14.712 14.712 0 0 1-.993 1.326v.186l.1 1.846a.735.735 0 0 1-.258.639l-1.618 1.394a.441.441 0 0 1-.08.055c-.161.094-.309.058-.343-.11l-.687-1.35a.218.218 0 0 0-.244-.186 5.45 5.45 0 0 1-1.179.4l-.11.2-1.1 2.06a.741.741 0 0 1-.3.369.317.317 0 0 1-.186.048l-1.429-.168c-.161-.024-.222-.245-.123-.487l.591-2.121a.609.609 0 0 0 .027-.456 2.934 2.934 0 0 1-.656-.765l-.172.1-1.656 1.074a1.12 1.12 0 0 1-.086.062.212.212 0 0 1-.34-.106l-.395-1.646a.711.711 0 0 1 .247-.631l1.519-1.661a.963.963 0 0 0 .288-.447 10.694 10.694 0 0 1 .238-1.49l-.121-.058-1.25-.549c-.162-.025-.21-.237-.11-.48l.858-2.152a.752.752 0 0 1 .3-.364.328.328 0 0 1 .178-.052l1.55-.2a.374.374 0 0 0 .206-.056.718.718 0 0 0 .169-.137 12.718 12.718 0 0 1 1-1.331v-.2l-.107-1.836a.722.722 0 0 1 .248-.643l1.629-1.389a.45.45 0 0 1 .089-.064c.154-.091.292-.043.332.109l.681 1.355a.228.228 0 0 0 .251.191 5.292 5.292 0 0 1 1.168-.4l.12-.208 1.09-2.065a.772.772 0 0 1 .3-.361.292.292 0 0 1 .187-.044l1.439.162c.161.023.213.236.113.49l-.59 2.122a.66.66 0 0 0-.028.457 2.758 2.758 0 0 1 .656.766l.172-.1 1.66-1.071a.431.431 0 0 1 .085-.064c.158-.093.3-.048.337.108zm-7.074 7.674a4.962 4.962 0 0 0 1.749-4.355c-.272-1.108-1.261-1.386-2.347-.759a3.644 3.644 0 0 0-.563.4 5.016 5.016 0 0 0-1.763 4.371c.278 1.1 1.258 1.383 2.34.757a3.9 3.9 0 0 0 .584-.417z" data-name="Path 30887" style="fill:#025a82"/></g></g><g id="Group_2879" data-name="Group 2879"><g id="Group_2877" data-name="Group 2877"><path id="Path_30888" d="m742.554 248.871-1.755-.782-.183-.091 3.329 1.934.183.093 1.755.779a.3.3 0 0 1 .1.033l-3.33-1.933a.236.236 0 0 0-.099-.033z" class="cls-29" data-name="Path 30888"/><path id="Path_30889" d="M735.944 261.322a.353.353 0 0 0-.151-.222l-3.33-1.934a.353.353 0 0 1 .152.222l.961 1.908a.3.3 0 0 0 .135.194l3.328 1.934a.3.3 0 0 1-.134-.194z" class="cls-29" data-name="Path 30889"/><path id="Path_30890" d="M743.173 239.518a.286.286 0 0 0-.206-.026.582.582 0 0 0-.155.062.708.708 0 0 0-.114.081l-2.343 1.513-.24.152 3.329 1.934.24-.151 2.344-1.514a.784.784 0 0 1 .113-.08.522.522 0 0 1 .155-.062.285.285 0 0 1 .206.025z" class="cls-29" data-name="Path 30890"/><path id="Path_30891" d="m738.782 247.343-3.329-1.936a2.009 2.009 0 0 1 .893 1.309 6.734 6.734 0 0 1-1.639 5.295 6.923 6.923 0 0 1-.853.875 5.133 5.133 0 0 1-.814.585 3.481 3.481 0 0 1-1.02.407 1.936 1.936 0 0 1-1.4-.177l3.326 1.936a1.954 1.954 0 0 0 1.4.176 3.525 3.525 0 0 0 1.021-.407 5.172 5.172 0 0 0 .814-.586 6.9 6.9 0 0 0 .852-.873 6.739 6.739 0 0 0 1.639-5.3 2.012 2.012 0 0 0-.89-1.304z" class="cls-29" data-name="Path 30891"/><path id="Path_30892" d="M729.285 259.752 726.1 257.9l1.937-2.112a1.561 1.561 0 0 0 .148-.156 1.383 1.383 0 0 0 .262-.487 13.988 13.988 0 0 1 .336-2.1l-2.154-1.252a.837.837 0 0 1 .047-.3l1.231-3.036a1.1 1.1 0 0 1 .181-.307.864.864 0 0 1 .234-.207.465.465 0 0 1 .141-.054.26.26 0 0 1 .114-.005l2.206-.311a.369.369 0 0 0 .127-.008.6.6 0 0 0 .175-.07 1 1 0 0 0 .23-.186 19.022 19.022 0 0 1 1.2-1.626c.068-.084.137-.167.2-.248v-.278l-.151-2.609a.971.971 0 0 1 .241-.777 1.294 1.294 0 0 1 .12-.125l1.453-1.248 2.556 1.486a.319.319 0 0 0 .2.038 7.941 7.941 0 0 1 1.656-.551h.007l.158-.29 1.553-2.92a1.237 1.237 0 0 1 .182-.315.907.907 0 0 1 .241-.208.514.514 0 0 1 .154-.062.384.384 0 0 1 .107-.007l2.023.244a.223.223 0 0 1 .093.031l-3.329-1.936a.262.262 0 0 0-.093-.031l-2.024-.242a.379.379 0 0 0-.106.006.57.57 0 0 0-.155.062.849.849 0 0 0-.237.208 1.177 1.177 0 0 0-.185.315l-1.553 2.92-.155.284-3.11-1.806a.278.278 0 0 0-.2-.025.5.5 0 0 0-.151.06.524.524 0 0 0-.11.079l-2.3 1.975a1.2 1.2 0 0 0-.121.125.955.955 0 0 0-.236.778l.147 2.609v.278c-.068.081-.138.163-.206.246a19.216 19.216 0 0 0-1.2 1.628 1 1 0 0 1-.231.186.588.588 0 0 1-.175.07.385.385 0 0 1-.126 0l-2.206.313a.332.332 0 0 0-.113 0 .5.5 0 0 0-.141.057.893.893 0 0 0-.235.206 1.132 1.132 0 0 0-.181.308l-1.231 3.036c-.12.3-.078.565.076.655l1.979 1.152a12.977 12.977 0 0 0-.282 1.844 1.423 1.423 0 0 1-.264.487 1.37 1.37 0 0 1-.148.155l-2.137 2.334a1.006 1.006 0 0 0-.12.124.962.962 0 0 0-.241.778l.571 2.309a.285.285 0 0 0 .127.2l3.329 1.935a.288.288 0 0 1-.127-.2l-.57-2.309a.958.958 0 0 1 .24-.778.936.936 0 0 1 .121-.123l.154-.17a4.376 4.376 0 0 0 .832.96.838.838 0 0 1-.039.635l-.828 3c-.119.3-.082.569.08.663l3.329 1.934c-.161-.092-.2-.362-.079-.662l.828-3a.835.835 0 0 0 .038-.636 4.347 4.347 0 0 1-.929-1.088z" class="cls-29" data-name="Path 30892"/></g><g id="Group_2878" data-name="Group 2878"><path id="Path_30893" d="M747.2 243.957a1.052 1.052 0 0 1-.361.9L744.7 247.2a1.384 1.384 0 0 0-.4.635 12.933 12.933 0 0 1-.348 2.1l.183.093 1.755.779c.241.023.313.329.172.676l-1.219 3.043a1.053 1.053 0 0 1-.423.511.418.418 0 0 1-.261.067l-2.192.306a.534.534 0 0 0-.31.079 1.069 1.069 0 0 0-.223.182 19.161 19.161 0 0 1-1.415 1.883l.01.271.148 2.61a1.033 1.033 0 0 1-.361.892l-2.3 1.975a.817.817 0 0 1-.127.093c-.223.127-.419.067-.478-.162l-.961-1.908a.312.312 0 0 0-.354-.259 7.951 7.951 0 0 1-1.65.547l-.168.3-1.553 2.921a1.092 1.092 0 0 1-.426.522.406.406 0 0 1-.247.063l-2.034-.236c-.234-.04-.306-.348-.165-.694l.828-3a.835.835 0 0 0 .038-.636 4.347 4.347 0 0 1-.928-1.094l-.234.134-2.35 1.52a.66.66 0 0 1-.124.09c-.219.127-.419.068-.47-.164l-.57-2.309a1.022 1.022 0 0 1 .361-.9l2.136-2.333a1.433 1.433 0 0 0 .41-.643 13.956 13.956 0 0 1 .336-2.1l-.172-.087-1.763-.775c-.23-.027-.312-.328-.172-.687l1.231-3.036a1.076 1.076 0 0 1 .415-.514.392.392 0 0 1 .255-.059l2.206-.311a.5.5 0 0 0 .3-.078 1 1 0 0 0 .23-.186 20.112 20.112 0 0 1 1.4-1.874v-.278l-.151-2.609a1.023 1.023 0 0 1 .361-.9l2.3-1.976a.588.588 0 0 1 .11-.079c.224-.129.43-.076.484.163l.963 1.909a.308.308 0 0 0 .35.259 7.949 7.949 0 0 1 1.663-.553l.158-.29 1.553-2.92a1.052 1.052 0 0 1 .423-.523.441.441 0 0 1 .261-.069l2.023.244c.234.028.313.339.175.686l-.838 3.006a.834.834 0 0 0-.037.636 4.285 4.285 0 0 1 .927 1.094l.24-.151 2.344-1.514a.784.784 0 0 1 .113-.08c.227-.131.429-.076.491.147zm-10.016 10.863c1.828-1.563 2.938-4.323 2.491-6.169-.392-1.565-1.78-1.959-3.309-1.074a5.231 5.231 0 0 0-.821.589c-1.818 1.558-2.938 4.323-2.481 6.164.382 1.561 1.78 1.956 3.306 1.076a5.313 5.313 0 0 0 .814-.586z" data-name="Path 30893" style="fill:#ffca00"/></g></g><g id="Group_2880" data-name="Group 2880"><path id="Path_30894" d="m765.575 263.363 3.325 1.937a.425.425 0 0 1 .065.028l-3.33-1.934a.284.284 0 0 0-.06-.031z" class="cls-31" data-name="Path 30894"/><path id="Path_30895" d="M767.5 250.185a.4.4 0 0 0-.286-.032.979.979 0 0 0-.295.124L763.643 252a1.019 1.019 0 0 1-.244.1l3.329 1.935a1.056 1.056 0 0 0 .245-.1l3.274-1.721a.934.934 0 0 1 .3-.124.378.378 0 0 1 .282.033z" class="cls-31" data-name="Path 30895"/><path id="Path_30896" d="M754.875 278.187a.509.509 0 0 0-.23-.387l-3.33-1.934a.507.507 0 0 1 .231.387l.992 2.92a.431.431 0 0 0 .183.324l3.329 1.935a.421.421 0 0 1-.182-.325z" class="cls-31" data-name="Path 30896"/><path id="Path_30897" d="m759.922 258.672-3.329-1.935a2.92 2.92 0 0 1 1.306 2.286 9.582 9.582 0 0 1-2.327 6.693 8.986 8.986 0 0 1-1.625 1.56 6.72 6.72 0 0 1-.625.408 4.753 4.753 0 0 1-1.4.556 2.626 2.626 0 0 1-1.889-.239l3.329 1.935a2.628 2.628 0 0 0 1.89.241 4.761 4.761 0 0 0 1.395-.558 6.98 6.98 0 0 0 .625-.408 9.085 9.085 0 0 0 1.625-1.56 9.576 9.576 0 0 0 2.326-6.693 2.916 2.916 0 0 0-1.301-2.286z" class="cls-31" data-name="Path 30897"/><path id="Path_30898" d="m746.567 274.572-3.329-1.934a6.541 6.541 0 0 0 1.041 1.747 1.323 1.323 0 0 1-.117.89l-1.45 4.111c-.2.422-.175.842.062.979l3.33 1.935c-.238-.138-.262-.557-.063-.98l1.451-4.111a1.319 1.319 0 0 0 .116-.889 6.545 6.545 0 0 1-1.041-1.748z" class="cls-31" data-name="Path 30898"/><path id="Path_30899" d="M755.5 248.926a.393.393 0 0 1-.182-.053l3.329 1.933a.418.418 0 0 0 .182.057 9.223 9.223 0 0 1 1.038-.283 7.844 7.844 0 0 1 1.147-.157l.251-.386 2.354-3.838a1.716 1.716 0 0 1 .206-.323 1.284 1.284 0 0 1 .33-.289.715.715 0 0 1 .2-.082.38.38 0 0 1 .2.006l2.559.777a.36.36 0 0 1 .082.033l-3.329-1.936a.3.3 0 0 0-.079-.03l-2.559-.779a.386.386 0 0 0-.2-.005.66.66 0 0 0-.2.083 1.249 1.249 0 0 0-.329.286 1.582 1.582 0 0 0-.2.325l-2.36 3.835-.251.388a7.977 7.977 0 0 0-1.148.157 9.685 9.685 0 0 0-1.041.281z" class="cls-31" data-name="Path 30899"/><path id="Path_30900" d="M750.478 257.486a1.419 1.419 0 0 0 .23-.172q.3-.4.625-.8c.453-.553.931-1.086 1.422-1.587a1.019 1.019 0 0 0 .017-.382l.141-3.748a1.474 1.474 0 0 1 .571-1.2l3.184-2.324c.035-.022.066-.043.1-.061a.579.579 0 0 1 .2-.081.369.369 0 0 1 .268.032l-3.326-1.934a.392.392 0 0 0-.272-.035.737.737 0 0 0-.2.083 1.021 1.021 0 0 0-.1.062l-3.185 2.324a1.5 1.5 0 0 0-.23.222 1.414 1.414 0 0 0-.34.975l-.141 3.751a1.01 1.01 0 0 1-.018.38c-.49.5-.968 1.035-1.422 1.588q-.32.393-.625.8a1.366 1.366 0 0 1-.23.171.915.915 0 0 1-.241.1.5.5 0 0 1-.244-.008l-2.841-.025a.409.409 0 0 0-.206-.005.679.679 0 0 0-.206.081 1.228 1.228 0 0 0-.327.285 1.469 1.469 0 0 0-.2.323l-1.945 4.059c-.21.44-.175.852.055.986l.175.1 2.055 1.4.209.157a21.034 21.034 0 0 0-.7 2.917 1.78 1.78 0 0 1-.591.828l-3.034 2.874a1.235 1.235 0 0 0-.23.222 1.392 1.392 0 0 0-.34.975l.432 3.419a.415.415 0 0 0 .179.32l3.33 1.934a.406.406 0 0 1-.179-.32l-.433-3.418a1.389 1.389 0 0 1 .341-.976 1.2 1.2 0 0 1 .23-.222l3.033-2.874a1.764 1.764 0 0 0 .275-.266 1.909 1.909 0 0 0 .316-.56 21.193 21.193 0 0 1 .705-2.92l-.21-.153-2.162-1.474-.089-.053c-.205-.15-.237-.542-.034-.963l1.945-4.061a1.434 1.434 0 0 1 .2-.321 1.205 1.205 0 0 1 .326-.285.611.611 0 0 1 .206-.082.4.4 0 0 1 .207 0l2.84.025a.479.479 0 0 0 .241.007.919.919 0 0 0 .243-.09z" class="cls-31" data-name="Path 30900"/><path id="Path_30901" d="M771.436 255.852a1.459 1.459 0 0 1-.571 1.2l-3.033 2.885a1.727 1.727 0 0 0-.592.816 20.926 20.926 0 0 1-.707 2.92l.213.165 2.154 1.462c.292.1.354.535.123 1.015l-1.941 4.061a1.391 1.391 0 0 1-.529.608.54.54 0 0 1-.415.076l-2.839-.026a.614.614 0 0 0-.484.091 1.142 1.142 0 0 0-.231.17 22.524 22.524 0 0 1-2.047 2.386.978.978 0 0 0-.021.381l-.141 3.749a1.434 1.434 0 0 1-.57 1.2l-3.185 2.337c-.423.252-.708.13-.756-.236l-.993-2.92a.462.462 0 0 0-.416-.444 8.833 8.833 0 0 1-2.181.452l-.251.377-2.357 3.836a1.384 1.384 0 0 1-.529.613.53.53 0 0 1-.406.076l-2.56-.767c-.3-.091-.353-.548-.134-1.01l1.451-4.111a1.319 1.319 0 0 0 .116-.889 6.545 6.545 0 0 1-1.041-1.748.931.931 0 0 0-.244.1l-3.264 1.727c-.429.252-.721.136-.766-.229l-.433-3.418a1.464 1.464 0 0 1 .571-1.2l3.033-2.874a1.811 1.811 0 0 0 .591-.826 21.193 21.193 0 0 1 .705-2.92l-.21-.153-2.162-1.474c-.291-.087-.352-.537-.123-1.016l1.945-4.061a1.385 1.385 0 0 1 .529-.606.517.517 0 0 1 .413-.077l2.84.025a.622.622 0 0 0 .486-.089 1.419 1.419 0 0 0 .23-.172 24.522 24.522 0 0 1 2.047-2.384 1.019 1.019 0 0 0 .017-.382l.141-3.748a1.467 1.467 0 0 1 .571-1.2l3.184-2.324c.035-.022.066-.043.1-.061.33-.192.615-.08.659.285l1 2.918a.461.461 0 0 0 .413.445 8.584 8.584 0 0 1 2.185-.44l.251-.386 2.354-3.838a1.429 1.429 0 0 1 .536-.612.51.51 0 0 1 .4-.076l2.559.777c.3.079.354.536.134 1L765.8 251.4a1.326 1.326 0 0 0-.119.89 6.412 6.412 0 0 1 1.043 1.747 1.056 1.056 0 0 0 .245-.1l3.274-1.721c.419-.249.708-.141.756.223zm-14.159 13.359c2.532-1.854 4.291-5.544 3.951-8.253-.32-2.49-2.306-3.287-4.587-1.971a7.1 7.1 0 0 0-.621.409c-2.533 1.856-4.3 5.545-3.955 8.264.323 2.48 2.3 3.277 4.587 1.959a6.98 6.98 0 0 0 .625-.408z" data-name="Path 30901" style="fill:#fa7564"/></g></g></g><g id="cloud" transform="translate(430.367 1815.353)"><g id="Group_2899" data-name="Group 2899"><path id="Path_30902" d="M650.33 237.688a26.262 26.262 0 0 1-1.6-1.005l-.175-.115a27.669 27.669 0 0 1-1.614-1.196q-.648-.519-1.247-1.064l-.205-.19a23.775 23.775 0 0 1-1.136-1.131c-.053-.054-.1-.111-.152-.167-.252-.273-.487-.555-.723-.835-.2-.243-.4-.487-.6-.734a23.766 23.766 0 0 1-.69-.931c-.049-.07-.1-.137-.147-.207a22.916 22.916 0 0 1-.984-1.576c-.22-.385-.43-.771-.626-1.162-.032-.064-.067-.127-.1-.19a24.58 24.58 0 0 1-.608-1.338c-.045-.107-.089-.218-.134-.327q-.247-.612-.462-1.232c-.019-.054-.042-.109-.059-.163a26.13 26.13 0 0 1-.423-1.381l-.09-.339c-.115-.429-.22-.861-.312-1.294-.008-.041-.019-.081-.029-.122-.1-.468-.178-.935-.253-1.4l-.051-.346q-.1-.672-.168-1.345c0-.023-.005-.047-.007-.071a27.933 27.933 0 0 1-.1-1.4c-.005-.114-.011-.227-.015-.342a30.997 30.997 0 0 1-.03-1.394c.017-6.037 1.7-9.656 4.433-11.246l-3.282 1.908c-2.733 1.589-4.414 5.206-4.431 11.245 0 .461.011.928.03 1.392q.006.173.015.345a31.247 31.247 0 0 0 .107 1.471c.045.448.1.9.168 1.345l.05.344c.075.468.156.937.254 1.4l.029.124c.092.433.2.864.312 1.294.03.113.058.226.09.339.128.461.267.922.421 1.381.019.054.042.109.06.163.143.414.3.824.463 1.234l.134.324c.188.449.389.9.607 1.337.03.064.064.126.1.19q.3.587.628 1.162c.059.1.117.205.177.307.254.429.521.854.807 1.271.047.07.1.136.145.205.15.213.3.429.455.64.075.1.162.194.237.291.192.249.391.493.6.736.109.13.205.265.318.393.132.149.269.295.4.442.051.055.1.111.151.165.361.386.741.762 1.136 1.131l.207.192q.6.545 1.247 1.064c.072.059.145.115.22.173.446.35.908.693 1.394 1.022.056.039.116.077.175.116.515.345 1.045.681 1.6 1.005a30.869 30.869 0 0 0 7.983 3.032 13.4 13.4 0 0 0 1.326.253l3.28-1.9a30.313 30.313 0 0 1-9.306-3.293z" class="cls-5" data-name="Path 30902"/><path id="Path_30903" d="M651.363 228.127a2.691 2.691 0 0 1-.376-.267c-.04-.032-.074-.07-.111-.1-.075-.071-.151-.142-.22-.221a2.395 2.395 0 0 1-.158-.2 3.926 3.926 0 0 1-.356-.57 2.653 2.653 0 0 1-.05-.107 5.762 5.762 0 0 1-.273-.666c-.006-.019-.014-.034-.019-.053a8.623 8.623 0 0 1-.246-.948 12.71 12.71 0 0 1-.147-.85c-.008-.054-.013-.109-.021-.162-.038-.3-.069-.6-.1-.921a.283.283 0 0 0 0-.04 29.048 29.048 0 0 1-.056-1.013c0-.064-.006-.128-.007-.192a47.613 47.613 0 0 1-.027-1.02V219.52c.005-2.368.312-4.181 1.079-5a1.593 1.593 0 0 1 .36-.288l-3.283 1.907c-1.03.6-1.429 2.579-1.437 5.285v1.279c.006.345.013.685.024 1.02 0 .064.006.126.01.19q.02.519.056 1.014a.256.256 0 0 1 0 .039q.039.474.1.922l.021.164c.041.293.09.575.146.848.01.054.023.107.034.16.062.274.132.541.213.79.005.016.013.033.018.05a5.584 5.584 0 0 0 .273.666c.017.036.032.074.051.109a4.062 4.062 0 0 0 .356.57.5.5 0 0 1 .033.055l.089.107c.009.011.024.023.035.036a2.416 2.416 0 0 0 .221.22c.035.034.071.073.111.1a2.678 2.678 0 0 0 .376.265 1.328 1.328 0 0 0 1.4.044l3.282-1.908a1.325 1.325 0 0 1-1.401-.037z" class="cls-5" data-name="Path 30903"/><g id="Group_2883" data-name="Group 2883"><path id="Path_30904" d="m656.357 242.88 3.28-1.905 1.753 6.34-3.28 1.907z" class="cls-4" data-name="Path 30904"/></g><g id="Group_2885" data-name="Group 2885"><g id="Group_2884" data-name="Group 2884"><path id="Path_30905" d="m653.281 233.472 3.283-1.9a4.8 4.8 0 0 1-1.861 2.539l-3.28 1.907a4.78 4.78 0 0 0 1.858-2.541z" class="cls-5" data-name="Path 30905"/></g></g><g id="Group_2888" data-name="Group 2888"><path id="Path_30906" d="m665.443 235.139-3.28 1.9a1.442 1.442 0 0 1-1.533-.039c-1.431-.826-2.144-3.051-2.133-7.217l3.281-1.907c-.012 4.166.7 6.391 2.132 7.217a1.446 1.446 0 0 0 1.533.046z" class="cls-4" data-name="Path 30906"/><g id="Group_2887" data-name="Group 2887" style="clip-path:url(#clip-path-11)"><g id="Group_2886" data-name="Group 2886"><path id="Path_30907" d="m658.5 229.786 3.281-1.907c-.01 3.265.426 5.338 1.3 6.479l-3.28 1.906c-.877-1.142-1.313-3.213-1.3-6.478z" class="cls-4" data-name="Path 30907"/><path id="Path_30908" d="m659.8 236.264 3.28-1.906c.037.047.073.093.111.136l-3.281 1.9a4 4 0 0 1-.11-.135z" class="cls-4" data-name="Path 30908"/><path id="Path_30909" d="m659.911 236.4 3.281-1.9a2.784 2.784 0 0 0 .718.6 1.446 1.446 0 0 0 1.533.043l-3.28 1.9a1.442 1.442 0 0 1-1.533-.043 2.722 2.722 0 0 1-.719-.6z" class="cls-4" data-name="Path 30909"/></g></g></g><g id="Group_2890" data-name="Group 2890"><g id="Group_2889" data-name="Group 2889"><path id="Path_30911" d="m641.707 209.529 3.28-1.906c1.961-1.139 4.689-.9 7.911.963a86.733 86.733 0 0 1 8.915 6.58l-3.28 1.9a86.874 86.874 0 0 0-8.915-6.577c-3.223-1.86-5.95-2.1-7.911-.965z" class="cls-5" data-name="Path 30911"/></g></g><g id="Group_2891" data-name="Group 2891"><path id="Path_30912" d="m658.533 217.071 3.28-1.905-.036 12.713-3.28 1.907z" class="cls-4" data-name="Path 30912"/></g><g id="Group_2894" data-name="Group 2894"><path id="Path_30913" d="m634.642 198.911 3.28-1.9c4.251-2.472 10.375-1.507 17.1 2.379l-3.28 1.9c-6.725-3.89-12.842-4.849-17.1-2.379z" class="cls-5" data-name="Path 30913"/><g id="Group_2893" data-name="Group 2893" style="clip-path:url(#clip-path-12)"><g id="Group_2892" data-name="Group 2892"><path id="Path_30914" d="m634.642 198.911 3.28-1.9c4.251-2.472 10.375-1.507 17.1 2.379l-3.28 1.9c-6.73-3.885-12.852-4.849-17.1-2.379z" class="cls-5" data-name="Path 30914"/></g></g></g><g id="Group_2897" data-name="Group 2897"><path id="Path_30916" d="M669.28 241.594 666 243.5c2.5-1.454 4.13-5.321 4.147-10.666.038-13.482-8.142-25.621-18.4-31.545l3.28-1.9c10.258 5.921 18.438 18.06 18.4 31.545-.014 5.339-1.645 9.208-4.147 10.66z" class="cls-5" data-name="Path 30916"/><g id="Group_2896" data-name="Group 2896" style="clip-path:url(#clip-path-13)"><g id="Group_2895" data-name="Group 2895"><path id="Path_30917" d="m651.747 201.29 3.28-1.9a36.311 36.311 0 0 1 9 7.426l-3.28 1.9a36.437 36.437 0 0 0-9-7.426z" class="cls-5" data-name="Path 30917"/><path id="Path_30918" d="m660.747 208.716 3.28-1.9q1.078 1.218 2.06 2.541l-3.281 1.9a40.609 40.609 0 0 0-2.059-2.541z" class="cls-5" data-name="Path 30918"/><path id="Path_30919" d="m662.806 211.257 3.281-1.9a36.23 36.23 0 0 1 7.341 21.578c-.015 5.343-1.646 9.212-4.148 10.664L666 243.5c2.5-1.454 4.13-5.321 4.147-10.666a36.224 36.224 0 0 0-7.341-21.578z" class="cls-5" data-name="Path 30919"/></g></g></g><g id="Group_2898" data-name="Group 2898"><path id="Path_30921" d="M651.747 201.29c10.258 5.924 18.438 18.063 18.4 31.545-.024 8.661-4.29 13.444-9.634 10.36a15.29 15.29 0 0 1-7.232-9.723c-1.2 3.1-3.163 3.721-6.365 1.874-5.862-3.386-8.567-10-8.546-17.671.022-7.951 4.57-11.037 11.248-7.181a86.874 86.874 0 0 1 8.915 6.577l-.036 12.715c-.011 4.166.7 6.391 2.133 7.217 2.287 1.32 3.828-3.006 3.839-7.115a25.947 25.947 0 0 0-13.264-22.7c-9.252-5.342-16.858-3.474-16.894 9.406-.025 8.333 3.149 17.466 12.737 23a30.277 30.277 0 0 0 9.309 3.285l1.753 6.343a27.516 27.516 0 0 1-11.41-3.622c-8.876-5.125-18.113-15.457-18.066-32.063.047-16.557 10.518-19.518 23.113-12.247zm-.352 22.582.017-5.919a14.053 14.053 0 0 0-1.9-1.538c-2.67-1.541-3.585.9-3.6 5.008-.011 3.894.168 7.453 2.173 8.609 1.858 1.072 3.3-1.828 3.312-6.16z" data-name="Path 30921" style="fill:#ed604f"/></g></g></g></g></svg>