<svg width="24" height="25" viewBox="0 0 24 25" fill="none" xmlns="http://www.w3.org/2000/svg">
<g clip-path="url(#clip0_10104_65404)">
<path d="M10.5107 10.721C10.236 10.9957 10.236 11.4406 10.5107 11.7153C10.7853 11.9899 11.2303 11.9899 11.5049 11.7153C11.5825 11.6384 11.7494 11.5086 11.9993 11.5086C12.2493 11.5086 12.4161 11.6384 12.4937 11.7153C12.7684 11.9899 13.2133 11.99 13.488 11.7153C13.7626 11.4406 13.7626 10.9957 13.488 10.721C13.2573 10.4896 12.7567 10.1024 11.9993 10.1024C11.242 10.1024 10.7414 10.4896 10.5107 10.721Z" fill="#87AB49"/>
<path d="M12.0002 1.66486C9.18362 1.66486 6.53453 2.76351 4.54192 4.75753C4.26728 5.03217 4.26728 5.47781 4.54192 5.75179C4.81656 6.02643 5.26154 6.02643 5.53618 5.75179C7.26376 4.02281 9.55923 3.07111 12.0002 3.07111C14.4413 3.07111 16.7367 4.02281 18.4643 5.75179C18.7389 6.02643 19.1839 6.02648 19.4586 5.75179C19.7332 5.47781 19.7332 5.03217 19.4586 4.75753C17.466 2.76351 14.8169 1.66486 12.0002 1.66486Z" fill="#87AB49"/>
<path d="M17.469 7.73961C17.7437 7.46563 17.7437 7.01999 17.469 6.74535C16.0078 5.28281 14.066 4.47736 12.0006 4.47736C9.93513 4.47736 7.99334 5.28281 6.53215 6.74535C6.25751 7.01999 6.25751 7.46563 6.53215 7.73961C6.80679 8.01426 7.25178 8.01426 7.52642 7.73961C8.72252 6.5428 10.3107 5.8836 12.0006 5.8836C13.6904 5.8836 15.2786 6.5428 16.4748 7.73961C16.7494 8.01426 17.1944 8.01426 17.469 7.73961Z" fill="#87AB49"/>
<path d="M15.4795 9.72746C15.7541 9.45347 15.7541 9.00783 15.4795 8.73319C13.62 6.87238 10.3818 6.87238 8.52239 8.73319C8.24775 9.00783 8.24775 9.45347 8.52239 9.72746C8.79703 10.0021 9.24201 10.0021 9.51665 9.72746C10.846 8.39672 13.1559 8.39672 14.4852 9.72746C14.7598 10.0021 15.2048 10.0021 15.4795 9.72746Z" fill="#87AB49"/>
<path d="M21.8906 14.3211H2.10938C0.946219 14.3211 0 15.2673 0 16.4305V20.6492C0 21.8124 0.946219 22.7586 2.10938 22.7586H2.8125V23.5086C2.8125 23.8972 3.12698 24.2117 3.51562 24.2117C3.90427 24.2117 4.21875 23.8972 4.21875 23.5086V22.7586H19.7812V23.5086C19.7812 23.8972 20.0957 24.2117 20.4844 24.2117C20.873 24.2117 21.1875 23.8972 21.1875 23.5086V22.7586H21.8906C23.0538 22.7586 24 21.8124 24 20.6492V16.4305C24 15.2673 23.0538 14.3211 21.8906 14.3211ZM15.5625 19.243C15.5625 19.6316 15.248 19.9461 14.8594 19.9461C14.4707 19.9461 14.1562 19.6316 14.1562 19.243V17.8367C14.1562 17.4481 14.4707 17.1336 14.8594 17.1336C15.248 17.1336 15.5625 17.4481 15.5625 17.8367V19.243ZM18.375 19.243C18.375 19.6316 18.0605 19.9461 17.6719 19.9461C17.2832 19.9461 16.9688 19.6316 16.9688 19.243V17.8367C16.9688 17.4481 17.2832 17.1336 17.6719 17.1336C18.0605 17.1336 18.375 17.4481 18.375 17.8367V19.243ZM21.1875 19.243C21.1875 19.6316 20.873 19.9461 20.4844 19.9461C20.0957 19.9461 19.7812 19.6316 19.7812 19.243V17.8367C19.7812 17.4481 20.0957 17.1336 20.4844 17.1336C20.873 17.1336 21.1875 17.4481 21.1875 17.8367V19.243Z" fill="#87AB49"/>
<path d="M0.473406 4.53436C0.116312 4.68745 -0.0491571 5.10084 0.103984 5.45719L3.30016 12.9149H4.8296L1.39623 4.90378C1.24314 4.54533 0.825625 4.37916 0.473406 4.53436Z" fill="#87AB49"/>
<path d="M20.6993 12.9149L23.8955 5.45719C24.0486 5.1008 23.8831 4.68745 23.5261 4.53431C23.1711 4.38051 22.7563 4.54598 22.6032 4.90373L19.1699 12.9149H20.6993Z" fill="#87AB49"/>
</g>
<defs>
<clipPath id="clip0_10104_65404">
<rect width="24" height="24" fill="white" transform="translate(0 0.938293)"/>
</clipPath>
</defs>
</svg>
