<svg width="446" height="355" viewBox="0 0 446 355" fill="none" xmlns="http://www.w3.org/2000/svg">
<path d="M413.36 251.784V245.669C413.36 244.786 412.781 244.007 411.935 243.753L181.046 174.433C180.619 174.304 180.16 174.323 179.744 174.485L114.433 199.968C113.666 200.267 113.16 201.007 113.16 201.831V208.056C113.16 208.769 113.54 209.428 114.157 209.786L298.541 316.733C300.732 318.004 303.439 317.992 305.619 316.701L412.379 253.505C412.987 253.145 413.36 252.491 413.36 251.784Z" fill="#182841"/>
<g filter="url(#filter0_f_7849_178855)">
<path d="M305.643 333.861L417.449 265.769C418.777 264.96 418.714 263.011 417.337 262.29L220.613 159.232C220.017 158.92 219.304 158.929 218.716 159.254L114.191 217.128C113.555 217.48 113.16 218.15 113.16 218.878V225.29C113.16 226.003 113.54 226.662 114.157 227.02L298.49 333.937C300.708 335.224 303.452 335.195 305.643 333.861Z" fill="#C7D2EC"/>
</g>
<path d="M413.36 251.784V245.669C413.36 244.786 412.781 244.007 411.935 243.753L181.046 174.433C180.619 174.304 180.16 174.323 179.744 174.485L114.433 199.968C113.666 200.267 113.16 201.007 113.16 201.831V208.056C113.16 208.769 113.54 209.428 114.157 209.786L298.541 316.733C300.732 318.004 303.439 317.992 305.619 316.701L412.379 253.505C412.987 253.145 413.36 252.491 413.36 251.784Z" fill="#182841"/>
<path d="M445.461 111.178L414.748 242.024C414.441 243.334 412.954 243.972 411.793 243.294L227.815 135.826C227.069 135.39 226.687 134.524 226.868 133.68L254.832 3.3845C254.897 3.08157 255.031 2.7979 255.225 2.55583L256.173 1.36904C256.79 0.596451 257.879 0.390911 258.736 0.885427L444.04 107.895C445.186 108.556 445.763 109.89 445.461 111.178Z" fill="#97ADCE"/>
<path d="M443.42 111.373L413.692 242.003C413.392 243.32 411.9 243.967 410.733 243.286L226.351 135.649C225.596 135.208 225.215 134.328 225.409 133.476L255.136 3.41543C255.436 2.10129 256.924 1.45459 258.09 2.13152L442.474 109.2C443.231 109.639 443.614 110.52 443.42 111.373Z" fill="#293A56"/>
<path d="M435.267 112.483L408.314 230.167C408.014 231.476 406.535 232.123 405.37 231.455L230.078 130.921C229.314 130.483 228.926 129.596 229.124 128.737L256.645 9.3481C256.948 8.03331 258.439 7.38971 259.604 8.07114L434.328 110.31C435.082 110.751 435.463 111.631 435.267 112.483Z" fill="url(#paint0_linear_7849_178855)"/>
<path d="M413.031 245.075L305.632 306.767C303.16 308.187 300.12 308.184 297.651 306.76L114.418 201.081C113.75 200.695 113.751 199.731 114.42 199.347L226.457 135.075C226.768 134.897 227.15 134.898 227.459 135.079L413.036 243.344C413.7 243.731 413.697 244.692 413.031 245.075Z" fill="#293B56"/>
<path d="M403.183 243.34L338.608 280.404C338.3 280.582 337.92 280.581 337.612 280.404L162.465 179.655C161.797 179.271 161.796 178.307 162.463 177.922L227.614 140.288C227.924 140.109 228.306 140.109 228.616 140.289L403.187 241.608C403.853 241.994 403.851 242.957 403.183 243.34Z" fill="#495D7D"/>
<mask id="mask0_7849_178855" style="mask-type:alpha" maskUnits="userSpaceOnUse" x="161" y="139" width="243" height="141">
<path d="M402.603 242.761L338.028 279.825C337.72 280.002 337.34 280.002 337.032 279.825L161.885 179.076C161.217 178.692 161.216 177.728 161.883 177.343L227.034 139.709C227.344 139.529 227.726 139.53 228.036 139.71L402.607 241.029C403.273 241.415 403.271 242.378 402.603 242.761Z" fill="#30486D"/>
</mask>
<g mask="url(#mask0_7849_178855)">
<path fill-rule="evenodd" clip-rule="evenodd" d="M239.238 181.285L247.519 174.52L198.009 145.473L199.181 143.476L219.275 155.264L227.398 149.763L215.963 143.161L217.121 141.156L237.547 152.949L243.673 148.731L244.986 150.639L239.768 154.231L250.026 160.154L255.78 155.716L257.194 157.55L252.195 161.406L262.741 167.495L267.911 163.264L269.378 165.056L264.885 168.732L275.477 174.848C275.543 174.79 275.613 174.727 275.689 174.66C276.199 174.205 276.9 173.565 277.679 172.847C279.237 171.413 281.092 169.682 282.325 168.526L283.909 170.215C282.673 171.375 280.812 173.111 279.248 174.551C278.632 175.118 278.06 175.641 277.589 176.067L287.59 181.841L293.338 176.619L294.895 178.333L289.695 183.057L299.453 188.69L305.014 184.646L306.376 186.518L301.648 189.957L311.851 195.848L317.129 191.626L318.576 193.434L314.004 197.091L323.957 202.837L329.286 198.573L330.733 200.382L326.11 204.081L336.78 210.241L342.028 206.096L343.464 207.913L338.938 211.487L348.821 217.193L353.583 213.509C354.324 212.936 355.336 212.866 356.149 213.33L368.794 221.055L363.289 225.546L373.927 231.688C373.951 231.672 373.975 231.655 373.999 231.637C374.415 231.345 374.99 230.939 375.628 230.488C376.905 229.586 378.195 228.724 379.214 228.002L380.951 229.16C379.932 229.883 378.242 231.477 376.965 232.38C376.673 232.586 376.394 232.783 376.137 232.964L386.098 238.715L391.281 235.011L393.36 236.439L388.301 239.987L400.638 247.109L399.48 249.115L379.272 237.448L370.114 243.76L389.645 255.219L388.474 257.216L373.468 248.413L365.202 253.924L377.48 261.004L376.324 263.011L365.371 256.694L356.159 262.884L369.955 270.847L368.797 272.853L334.146 252.852L325.404 259.418L352.012 274.902L350.847 276.904L337.023 268.859L324.318 278.001L322.965 276.121L334.831 267.584L325.227 261.995L312.115 270.506L310.854 268.563L322.985 260.69L312.676 254.691C310.783 255.926 308.225 257.618 306.06 259.101C304.858 259.925 303.788 260.678 303.023 261.248C302.637 261.536 302.348 261.764 302.161 261.926C302.069 262.006 302.025 262.05 302.012 262.063C302.019 262.055 302.04 262.029 302.066 261.989C302.075 261.974 302.222 261.758 302.222 261.429H299.906C299.906 261.07 300.068 260.816 300.107 260.754C300.171 260.652 300.242 260.568 300.292 260.512C300.397 260.397 300.523 260.281 300.645 260.175C300.896 259.958 301.239 259.69 301.638 259.392C302.441 258.793 303.542 258.02 304.751 257.191C306.581 255.937 308.684 254.538 310.437 253.388L300.621 247.676L288.97 255.444L287.685 253.517L298.392 246.378L284.892 238.522L274.542 246.149L273.168 244.285L282.71 237.253L152.857 161.687L154.022 159.685L224.516 200.708L232.257 194.041L166.176 155.899L167.334 153.893L231.507 190.934L240.004 184.495L238.746 183.674L168.492 143.162L169.649 141.155L239.238 181.285ZM242.112 185.803L233.683 192.191L242.497 197.278L250.944 190.708L250.83 190.643L242.112 185.803ZM253.11 191.958L244.662 198.528L254.701 204.322L263.817 198.132L253.11 191.958ZM266.047 199.418L256.929 205.608L267.424 211.666L276.36 205.365L266.047 199.418ZM278.571 206.64L269.634 212.942L279.045 218.374L288.387 212.301L278.571 206.64ZM290.639 213.599L281.296 219.673L291.894 225.79L300.876 219.502L290.639 213.599ZM303.09 220.779L294.107 227.068L303.977 232.764L312.712 226.328L303.09 220.779ZM314.902 227.591L306.166 234.028L316.108 239.766L325.212 233.536L314.902 227.591ZM327.438 234.82L318.332 241.05L328.576 246.963L337.964 240.89L327.438 234.82ZM340.218 242.19L330.829 248.264L341.554 254.454L350.947 248.377L340.218 242.19ZM353.201 249.677L343.807 255.754L353.925 261.595L363.136 255.406L353.201 249.677ZM327.781 232.344L337.512 237.956L346.299 232.473L335.87 226.355C334.26 227.582 332.103 229.207 330.217 230.591C329.319 231.25 328.476 231.858 327.781 232.344ZM333.711 225.088L324.133 219.468L315.59 225.314L325.553 231.06C325.707 230.959 325.885 230.839 326.085 230.702C326.813 230.202 327.782 229.505 328.847 228.723C330.438 227.556 332.225 226.214 333.711 225.088ZM313.364 224.031L321.925 218.173L311.353 211.971L302.709 217.886L313.364 224.031ZM300.483 216.603L309.146 210.676L299.041 204.747L290.554 210.877L300.483 216.603ZM288.355 209.609L296.859 203.467L286.611 197.455L278.381 203.857L288.355 209.609ZM276.215 202.608L284.461 196.193L273.974 190.041L266.023 196.731L276.215 202.608ZM263.889 195.5L271.855 188.798L262.347 183.219C260.731 184.403 258.545 185.997 256.596 187.403C255.492 188.2 254.461 188.937 253.654 189.506C253.63 189.523 253.606 189.54 253.582 189.557L263.889 195.5ZM260.17 181.942L249.649 175.769L241.31 182.582L242.612 183.432L251.354 188.285C251.6 188.117 251.925 187.891 252.321 187.612C253.118 187.051 254.14 186.319 255.241 185.525C256.875 184.346 258.679 183.033 260.17 181.942ZM348.554 233.796L339.786 239.267L350.222 245.285L358.526 239.646L348.554 233.796ZM360.738 240.944L352.451 246.571L362.964 252.633L371.247 247.11L360.738 240.944ZM234.382 195.268L226.634 201.94L236.918 207.925L245.159 201.488L234.382 195.268ZM247.322 202.737L239.074 209.18L248.909 214.903L257.794 208.781L247.322 202.737ZM260.015 210.063L251.122 216.191L261.604 222.291C263.169 221.085 267.173 218.028 270.033 215.846L260.015 210.063ZM272.207 217.1C269.676 219.031 265.805 221.985 263.767 223.549L273.791 229.383L282.803 223.216L272.207 217.1ZM285.027 224.5L276.007 230.672L285.848 236.399L294.905 230.202L285.027 224.5ZM297.129 231.486L288.064 237.689L298.675 243.864L307.78 237.634L297.129 231.486ZM310.005 238.918L300.892 245.153L310.293 250.624L319.691 244.509L310.005 238.918ZM321.941 245.807L312.534 251.929L323.231 258.154L331.965 251.593L321.941 245.807ZM302.011 262.065L302.012 262.063C302.009 262.067 302.009 262.067 302.011 262.065ZM367.909 242.467L377.052 236.166L366.547 230.101L357.635 236.439L367.909 242.467ZM355.446 235.154L364.341 228.827L354.644 223.229L345.506 229.323L355.446 235.154ZM343.286 228.02L352.407 221.937L341.781 215.802L332.862 221.905L343.286 228.02ZM330.655 220.61L339.557 214.518L329.221 208.551L320.395 214.59L330.655 220.61ZM318.187 213.295L326.997 207.267L316.816 201.389C315.202 202.53 313.011 204.085 311.103 205.455C310.036 206.222 309.06 206.928 308.323 207.47C308.313 207.477 308.304 207.484 308.294 207.491L318.187 213.295ZM306.126 206.219C306.351 206.048 306.631 205.84 306.95 205.605C307.698 205.054 308.683 204.342 309.753 203.574C311.341 202.434 313.124 201.166 314.608 200.114L304.72 194.405L296.325 200.469L306.126 206.219ZM294.143 199.188L302.522 193.136L291.902 187.005L284.007 193.242L294.143 199.188ZM281.863 191.984L289.744 185.759L279.73 179.977L271.729 186.038L281.863 191.984ZM269.567 184.77L277.554 178.721L267.542 172.941L259.218 178.698L269.567 184.77ZM257.015 177.406L265.323 171.66L254.84 165.607L247.05 171.56L257.015 177.406ZM244.893 170.294L235.273 164.65L242.705 158.601L252.667 164.353L244.893 170.294ZM240.559 157.362L233.141 163.4L221.488 156.563L229.627 151.05L240.559 157.362ZM361.151 224.312L365.899 219.897L356.058 214.686L350.988 218.444L361.151 224.312Z" fill="#92BD4B"/>
<path fill-rule="evenodd" clip-rule="evenodd" d="M239.238 182.442L247.519 175.677L198.009 146.63L199.181 144.633L219.275 156.422L227.398 150.921L215.963 144.319L217.121 142.313L237.547 154.106L243.673 149.889L244.986 151.796L239.768 155.388L250.026 161.311L255.78 156.873L257.194 158.707L252.195 162.563L262.741 168.652L267.911 164.421L269.378 166.213L264.885 169.89L275.477 176.005C275.543 175.947 275.613 175.885 275.689 175.818C276.199 175.362 276.9 174.722 277.679 174.005C279.237 172.571 281.092 170.84 282.325 169.683L283.909 171.372C282.673 172.532 280.812 174.268 279.248 175.709C278.632 176.275 278.06 176.799 277.589 177.224L287.59 182.998L293.338 177.776L294.895 179.491L289.695 184.214L299.453 189.847L305.014 185.803L306.376 187.676L301.648 191.115L311.851 197.006L317.129 192.783L318.576 194.591L314.005 198.249L323.957 203.995L329.286 199.731L330.733 201.539L326.11 205.238L336.78 211.398L342.028 207.253L343.464 209.07L338.938 212.644L348.821 218.35L353.583 214.666C354.324 214.094 355.336 214.023 356.149 214.488L369.084 221.88L363.289 226.703L373.927 232.845C373.951 232.829 373.975 232.812 373.999 232.795C374.415 232.502 374.99 232.096 375.628 231.645C376.905 230.743 379.353 229.303 380.372 228.581L382.109 229.739C381.09 230.461 378.242 232.634 376.965 233.537C376.673 233.743 376.394 233.94 376.137 234.121L386.098 239.872L392.53 235.528L394.266 236.686L388.301 241.144L400.638 248.266L399.48 250.272L379.272 238.605L370.114 244.917L389.645 256.376L388.474 258.374L373.468 249.57L365.202 255.081L377.48 262.162L376.324 264.168L365.371 257.852L356.159 264.041L369.955 272.005L368.797 274.01L334.146 254.009L325.404 260.575L352.012 276.059L350.847 278.061L337.023 270.016L324.318 279.158L322.966 277.278L334.831 268.741L325.227 263.152L312.115 271.663L310.854 269.72L322.985 261.847L312.676 255.848C310.783 257.083 308.225 258.775 306.06 260.258C304.858 261.083 303.788 261.835 303.023 262.406C302.637 262.693 302.348 262.921 302.161 263.083C302.069 263.163 302.025 263.207 302.012 263.221C302.019 263.212 302.04 263.187 302.066 263.146C302.075 263.131 302.222 262.915 302.222 262.586H299.906C299.906 262.228 300.068 261.973 300.107 261.911C300.171 261.809 300.242 261.726 300.292 261.67C300.397 261.554 300.523 261.438 300.645 261.333C300.896 261.115 301.239 260.847 301.638 260.55C302.441 259.95 303.542 259.177 304.751 258.348C306.581 257.094 308.684 255.696 310.437 254.545L300.621 248.833L288.97 256.601L287.685 254.674L298.392 247.536L284.892 239.679L274.542 247.307L273.168 245.442L282.711 238.41L152.857 162.844L154.022 160.842L224.516 201.865L232.257 195.198L166.176 157.056L167.334 155.05L231.507 192.091L240.004 185.652L238.746 184.832L168.492 144.319L169.649 142.312L239.238 182.442ZM242.112 186.96L233.683 193.348L242.497 198.435L250.944 191.866L250.83 191.8L242.112 186.96ZM253.11 193.115L244.662 199.685L254.701 205.479L263.817 199.289L253.11 193.115ZM266.047 200.575L256.929 206.765L267.424 212.823L276.36 206.522L266.047 200.575ZM278.571 207.797L269.634 214.099L279.045 219.531L288.387 213.458L278.571 207.797ZM290.639 214.756L281.296 220.83L291.894 226.947L300.876 220.66L290.639 214.756ZM303.09 221.936L294.107 228.225L303.977 233.922L312.712 227.485L303.09 221.936ZM314.902 228.748L306.166 235.185L316.108 240.924L325.212 234.694L314.902 228.748ZM327.438 235.977L318.332 242.208L328.576 248.12L337.964 242.047L327.438 235.977ZM340.218 243.347L330.829 249.421L341.554 255.611L350.947 249.534L340.218 243.347ZM353.201 250.834L343.807 256.912L353.925 262.752L363.136 256.563L353.201 250.834ZM327.781 233.501L337.512 239.113L346.299 233.63L335.87 227.512C334.26 228.739 332.103 230.364 330.217 231.748C329.319 232.407 328.476 233.016 327.781 233.501ZM333.711 226.245L324.133 220.625L315.59 226.471L325.553 232.217C325.707 232.116 325.885 231.996 326.085 231.859C326.813 231.36 327.782 230.662 328.847 229.881C330.438 228.714 332.225 227.371 333.711 226.245ZM313.364 225.188L321.925 219.33L311.353 213.128L302.709 219.043L313.364 225.188ZM300.483 217.76L309.146 211.833L299.041 205.905L290.554 212.034L300.483 217.76ZM288.355 210.766L296.859 204.624L286.611 198.612L278.381 205.014L288.355 210.766ZM276.215 203.765L284.461 197.351L273.974 191.198L266.023 197.888L276.215 203.765ZM263.889 196.657L271.855 189.955L262.347 184.377C260.732 185.56 258.545 187.154 256.596 188.56C255.492 189.357 254.461 190.095 253.654 190.663C253.63 190.68 253.606 190.697 253.582 190.714L263.889 196.657ZM260.17 183.1L249.649 176.927L241.31 183.739L242.612 184.589L251.354 189.442C251.6 189.274 251.925 189.048 252.321 188.77C253.118 188.209 254.14 187.477 255.241 186.682C256.875 185.503 258.679 184.19 260.17 183.1ZM348.554 234.953L339.786 240.424L350.222 246.442L358.526 240.804L348.554 234.953ZM360.738 242.101L352.451 247.728L362.964 253.79L371.247 248.267L360.738 242.101ZM234.382 196.425L226.634 203.098L236.918 209.082L245.159 202.645L234.382 196.425ZM247.322 203.894L239.074 210.337L248.909 216.06L257.794 209.939L247.322 203.894ZM260.015 211.221L251.122 217.348L261.604 223.448C263.169 222.243 267.173 219.185 270.033 217.003L260.015 211.221ZM272.207 218.258C269.676 220.188 265.805 223.143 263.767 224.706L273.791 230.54L282.803 224.374L272.207 218.258ZM285.027 225.658L276.007 231.83L285.848 237.556L294.905 231.359L285.027 225.658ZM297.129 232.643L288.064 238.846L298.675 245.021L307.78 238.791L297.129 232.643ZM310.005 240.075L300.892 246.311L310.293 251.781L319.691 245.666L310.005 240.075ZM321.941 246.965L312.534 253.086L323.231 259.311L331.965 252.751L321.941 246.965ZM302.011 263.222L302.012 263.221C302.009 263.224 302.009 263.224 302.011 263.222ZM367.91 243.624L377.052 237.323L366.547 231.258L357.635 237.596L367.91 243.624ZM355.446 236.312L364.341 229.985L354.644 224.386L345.506 230.48L355.446 236.312ZM343.286 229.177L352.407 223.094L341.781 216.959L332.862 223.062L343.286 229.177ZM330.655 221.767L339.557 215.675L329.221 209.708L320.395 215.748L330.655 221.767ZM318.187 214.452L326.997 208.424L316.816 202.546C315.202 203.687 313.011 205.243 311.103 206.613C310.036 207.379 309.06 208.085 308.323 208.627C308.313 208.634 308.304 208.641 308.294 208.648L318.187 214.452ZM306.126 207.376C306.351 207.205 306.631 206.997 306.95 206.762C307.698 206.212 308.683 205.499 309.753 204.731C311.341 203.591 313.124 202.323 314.608 201.271L304.72 195.562L296.325 201.626L306.126 207.376ZM294.143 200.346L302.522 194.293L291.902 188.162L284.007 194.399L294.143 200.346ZM281.863 193.141L289.744 186.916L279.73 181.135L271.729 187.196L281.863 193.141ZM269.567 185.928L277.554 179.878L267.542 174.098L259.218 179.856L269.567 185.928ZM257.015 178.563L265.323 172.817L254.84 166.764L247.05 172.717L257.015 178.563ZM244.893 171.451L235.273 165.808L242.705 159.758L252.667 165.51L244.893 171.451ZM240.559 158.519L233.141 164.557L221.488 157.72L229.627 152.208L240.559 158.519ZM361.151 225.469L366.889 220.625L357.216 214.666L350.988 219.601L361.151 225.469Z" fill="#293A56"/>
</g>
<g filter="url(#filter1_f_7849_178855)">
<ellipse rx="9.66507" ry="6.3078" transform="matrix(0.497011 0.867744 -0.864289 0.502995 150.551 193.465)" fill="#30ACA4" fill-opacity="0.51"/>
</g>
<g filter="url(#filter2_f_7849_178855)">
<ellipse rx="7.40699" ry="4.26415" transform="matrix(0.497011 0.867744 -0.864289 0.502995 150.123 193.748)" fill="#1F9189" fill-opacity="0.35"/>
</g>
<g filter="url(#filter3_f_7849_178855)">
<path d="M149.746 193.985L84.3066 231.929" stroke="url(#paint1_linear_7849_178855)" stroke-width="3"/>
</g>
<g opacity="0.5" filter="url(#filter4_f_7849_178855)">
<ellipse rx="13.1424" ry="8.64104" transform="matrix(0.502566 0.864539 -0.867499 0.497439 290.306 126.351)" fill="#92BD4B"/>
</g>
<g opacity="0.5" filter="url(#filter5_f_7849_178855)">
<ellipse rx="7.32512" ry="4.24837" transform="matrix(0.502566 0.864539 -0.867499 0.497438 289.879 126.629)" fill="#92BD4B"/>
</g>
<g filter="url(#filter6_f_7849_178855)">
<path d="M289.502 126.863L224.062 164.249" stroke="url(#paint2_linear_7849_178855)" stroke-width="3"/>
</g>
<g opacity="0.5" filter="url(#filter7_f_7849_178855)">
<ellipse rx="13.1106" ry="8.57858" transform="matrix(0.49894 0.866636 -0.865412 0.50106 292.612 72.6478)" fill="#92BD4B"/>
</g>
<g opacity="0.5" filter="url(#filter8_f_7849_178855)">
<ellipse rx="7.30739" ry="4.21767" transform="matrix(0.498941 0.866636 -0.865413 0.50106 292.187 72.9256)" fill="#92BD4B"/>
</g>
<g filter="url(#filter9_f_7849_178855)">
<path d="M291.814 73.1602L227.004 110.546" stroke="url(#paint3_linear_7849_178855)" stroke-width="3"/>
</g>
<g opacity="0.5" filter="url(#filter10_f_7849_178855)">
<ellipse rx="13.321" ry="8.7355" transform="matrix(0.500596 0.865681 -0.866369 0.499404 369.655 112.544)" fill="#92BD4B"/>
</g>
<g opacity="0.5" filter="url(#filter11_f_7849_178855)">
<ellipse rx="7.42464" ry="4.29482" transform="matrix(0.500597 0.86568 -0.86637 0.499403 369.222 112.827)" fill="#92BD4B"/>
</g>
<g filter="url(#filter12_f_7849_178855)">
<path d="M368.842 113.064L302.773 151.008" stroke="url(#paint4_linear_7849_178855)" stroke-width="3"/>
</g>
<g opacity="0.5" filter="url(#filter13_f_7849_178855)">
<ellipse rx="13.1106" ry="8.57859" transform="matrix(0.498941 0.866636 -0.865413 0.50106 363.963 180.79)" fill="#92BD4B"/>
</g>
<g opacity="0.5" filter="url(#filter14_f_7849_178855)">
<ellipse rx="7.30739" ry="4.21767" transform="matrix(0.498941 0.866636 -0.865413 0.50106 363.539 181.068)" fill="#92BD4B"/>
</g>
<g filter="url(#filter15_f_7849_178855)">
<path d="M363.166 181.303L298.355 218.689" stroke="url(#paint5_linear_7849_178855)" stroke-width="3"/>
</g>
<path d="M165.074 103.657L120.316 92.6885C120.316 103.048 120.93 146.314 122.769 167.034C125.387 196.525 128.772 208.599 136.871 227.972C144.829 247.01 158.33 266.973 167.527 279.16C174.884 288.911 187.76 302.723 193.278 308.411C206.766 308.411 224.547 308.411 240.488 299.27C253.241 291.958 265.013 267.379 269.304 256.004V174.346L212.897 114.626L193.278 101.22L165.074 103.657Z" fill="#C4D6EE"/>
<path d="M227.091 290.561C213.9 297.815 197.575 296.001 191.061 294.188C186.176 290.964 173.474 279.438 161.749 259.127C147.093 233.739 137.323 215 133.048 190.216C129.718 170.912 128.473 114.6 128.473 114.6C128.473 114.6 129.628 114.023 130.605 113.446C164.314 129.888 185.362 125.536 191.672 121.305C206.328 147.418 237.676 173.693 251.518 183.567V236.761C251.518 263.359 243.579 281.493 227.091 290.561Z" fill="#293A56"/>
<path d="M224.818 291.281C211.6 298.564 195.241 296.743 188.714 294.922C183.818 291.685 171.09 280.113 159.341 259.72C144.655 234.228 134.864 215.413 130.581 190.528C127.154 170.62 127.521 130.845 128.133 113.446C161.911 129.955 183.002 125.585 189.326 121.337C204.012 147.557 235.424 173.938 249.295 183.852V237.263C249.295 263.968 241.34 282.177 224.818 291.281Z" fill="url(#paint6_linear_7849_178855)"/>
<path d="M192.957 102.54C189.905 105.649 179.65 111.12 163.046 108.135C146.443 105.151 127.642 97.3594 120.316 93.8365L131.304 88.2412C140.461 93.8365 152.841 99.623 170.371 101.297C187.385 102.921 197.152 99.6541 201.353 97.5104L203.335 96.3232C202.931 96.622 202.277 97.0391 201.353 97.5104L192.957 102.54Z" fill="url(#paint7_linear_7849_178855)"/>
<path d="M192.959 101.795C203.106 127.341 244.699 163.202 264.227 177.94L274.495 171.185C270.267 168.32 257.463 158.781 240.069 143.552C222.674 128.323 208.26 105.275 203.226 95.6543L192.959 101.795Z" fill="url(#paint8_linear_7849_178855)"/>
<path d="M274.495 171.268L263.913 177.317C263.913 177.317 263.796 232.125 263.326 252.935C262.855 273.744 247.453 293.062 240.398 299.515C266.265 289.836 273.123 257.572 273.319 242.651L274.495 171.268Z" fill="url(#paint9_linear_7849_178855)"/>
<ellipse rx="35.7865" ry="36.2471" transform="matrix(0.710096 0.704092 -0.25457 0.96706 184.77 210.344)" fill="#92BD4B"/>
<path fill-rule="evenodd" clip-rule="evenodd" d="M152.8 194.374C153.437 194.06 154.258 195.016 154.385 196.195C154.466 196.938 154.234 197.537 153.822 197.703C151.384 198.679 150.087 200.033 150.27 201.717C150.855 207.122 166.455 213.888 185.114 216.829C185.757 216.93 186.395 217.026 187.028 217.115C187.25 217.147 187.427 216.976 187.503 216.686C188.797 211.773 192.732 210.654 196.293 214.185C198.201 216.076 200.249 218.206 202.189 218.178C211.919 218.035 218.226 215.949 217.837 212.367C217.664 210.764 216.17 209.041 213.668 207.334C213.207 207.02 212.835 206.321 212.755 205.586C212.631 204.445 213.247 203.77 213.957 204.303C218.813 207.945 221.879 211.966 222.3 215.858C223.09 223.148 214.378 227.932 201.241 228.555C200.842 228.574 200.541 228.937 200.4 229.473C199.107 234.386 195.171 235.505 191.61 231.974C191.433 231.799 191.261 231.615 191.093 231.424C189.549 229.671 187.879 227.899 186.214 227.636C165.221 224.328 147.341 213.69 146.278 203.876C145.842 199.852 148.3 196.592 152.8 194.374Z" fill="#15243B"/>
<ellipse rx="4.54041" ry="4.59884" transform="matrix(0.710096 0.704092 -0.25457 0.96706 193.952 223.08)" fill="#92BD4B"/>
<g opacity="0.32">
<path d="M174.905 185.443C171.939 189.219 170.953 195.326 169.317 192.352C167.681 189.379 168.759 183.907 171.726 180.131C174.692 176.355 178.423 175.704 180.059 178.678C181.695 181.652 177.871 181.667 174.905 185.443Z" fill="#E5E5E5"/>
<path d="M169.709 199.414C169.387 201.306 168.396 202.251 167.495 201.524C166.594 200.796 166.125 198.672 166.447 196.779C166.77 194.887 167.761 193.942 168.661 194.67C169.562 195.397 170.031 197.521 169.709 199.414Z" fill="#E5E5E5"/>
</g>
<path d="M170.24 229.609C169.542 228.03 170.276 227.27 172.679 228.416C177.562 231.531 176.07 233.543 182.858 238.931C189.647 244.319 194.052 244.02 196.421 243.299C198.316 242.722 200.288 241.354 199.982 242.223C199.167 243.909 195.419 246.768 186.947 244.712C176.357 242.142 171.31 232.031 170.24 229.609Z" fill="#080F1B" fill-opacity="0.11"/>
<path d="M211.133 211.99C212.165 212.054 212.802 210.749 212.487 209.062C210.456 198.186 206.194 187.724 200.42 179.543C194.11 170.602 186.483 165.078 179.134 164.128C171.784 163.177 165.282 166.872 160.985 174.441C157.061 181.354 155.254 191.007 155.844 201.675C155.937 203.354 156.948 204.913 158.014 205.121C159.063 205.326 159.77 204.141 159.688 202.49C159.233 193.383 160.802 185.15 164.16 179.234C167.883 172.675 173.518 169.473 179.886 170.297C186.254 171.121 192.863 175.907 198.331 183.655C203.249 190.623 206.902 199.502 208.696 208.754C209.028 210.469 210.084 211.924 211.133 211.99Z" fill="#15243B"/>
<path d="M161.879 222.726C160.978 223.213 160.704 224.925 161.331 226.515C164.288 234.013 168.249 240.68 172.836 245.847C178.008 251.674 183.751 255.34 189.354 256.393C194.957 257.446 200.174 255.839 204.362 251.772C208.076 248.164 210.836 242.76 212.385 236.109C212.713 234.698 212.082 232.817 211.048 231.966C210.007 231.109 208.954 231.623 208.612 233.033C207.255 238.63 204.897 243.181 201.747 246.241C198.118 249.766 193.597 251.158 188.742 250.246C183.887 249.334 178.911 246.157 174.429 241.108C170.538 236.724 167.167 231.096 164.623 224.765C163.983 223.172 162.786 222.236 161.879 222.726Z" fill="#15243B"/>
<g opacity="0.5" filter="url(#filter16_f_7849_178855)">
<ellipse rx="11.9745" ry="7.86138" transform="matrix(0.501447 0.865189 -0.866858 0.498555 217.864 183.68)" fill="#92BD4B"/>
</g>
<g opacity="0.5" filter="url(#filter17_f_7849_178855)">
<ellipse rx="9.17684" ry="5.31439" transform="matrix(0.501447 0.865189 -0.866858 0.498555 217.329 184.03)" fill="#92BD4B"/>
</g>
<g filter="url(#filter18_f_7849_178855)">
<path d="M216.858 184.323L135.059 231.195" stroke="url(#paint10_linear_7849_178855)" stroke-width="3"/>
</g>
<g filter="url(#filter19_f_7849_178855)">
<ellipse rx="13.0423" ry="8.54547" transform="matrix(0.49996 0.866049 -0.866002 0.50004 156.077 152.737)" fill="url(#paint11_linear_7849_178855)"/>
</g>
<g filter="url(#filter20_f_7849_178855)">
<ellipse rx="9.60486" ry="6.29322" transform="matrix(0.499959 0.866049 -0.866002 0.500041 156.075 152.738)" fill="url(#paint12_linear_7849_178855)"/>
</g>
<g filter="url(#filter21_f_7849_178855)">
<ellipse rx="7.36085" ry="4.25429" transform="matrix(0.499959 0.866049 -0.866002 0.500041 155.648 153.018)" fill="url(#paint13_linear_7849_178855)"/>
</g>
<g filter="url(#filter22_f_7849_178855)">
<path d="M155.271 153.254L89.8535 190.888" stroke="url(#paint14_linear_7849_178855)" stroke-width="3"/>
</g>
<g filter="url(#filter23_f_7849_178855)">
<ellipse rx="8.46107" ry="13.2102" transform="matrix(0.504439 0.863447 -0.868566 0.495574 77.5422 257.112)" fill="url(#paint15_linear_7849_178855)"/>
</g>
<g filter="url(#filter24_f_7849_178855)">
<ellipse rx="6.89484" ry="6.93571" transform="matrix(0.504439 0.863448 -0.868566 0.495574 83.7391 254.365)" fill="url(#paint16_linear_7849_178855)"/>
</g>
<g filter="url(#filter25_f_7849_178855)">
<path d="M81.3641 256.206L15.8984 293.724" stroke="url(#paint17_linear_7849_178855)" stroke-width="3"/>
</g>
<g filter="url(#filter26_f_7849_178855)">
<ellipse rx="8.5051" ry="13.3094" transform="matrix(0.506164 0.862437 -0.869541 0.493861 127.552 288.495)" fill="url(#paint18_linear_7849_178855)"/>
</g>
<g filter="url(#filter27_f_7849_178855)">
<ellipse rx="6.93072" ry="6.9878" transform="matrix(0.506165 0.862437 -0.869541 0.493861 130.121 286.603)" fill="url(#paint19_linear_7849_178855)" fill-opacity="0.35"/>
</g>
<g filter="url(#filter28_f_7849_178855)">
<ellipse rx="4.2147" ry="4.24941" transform="matrix(0.506164 0.862437 -0.869541 0.493861 129.501 287.042)" fill="url(#paint20_linear_7849_178855)"/>
</g>
<g filter="url(#filter29_f_7849_178855)">
<path d="M132.67 285.789L65.1836 324.622" stroke="url(#paint21_linear_7849_178855)" stroke-width="3"/>
</g>
<g filter="url(#filter30_f_7849_178855)">
<ellipse rx="9.55824" ry="6.28445" transform="matrix(0.502565 0.864539 -0.867499 0.497439 214.545 265.389)" fill="url(#paint22_linear_7849_178855)"/>
</g>
<g filter="url(#filter31_f_7849_178855)">
<ellipse rx="13.2146" ry="8.68848" transform="matrix(0.502565 0.864539 -0.867499 0.497439 214.545 265.388)" fill="url(#paint23_linear_7849_178855)"/>
</g>
<g filter="url(#filter32_f_7849_178855)">
<ellipse rx="7.32512" ry="4.24837" transform="matrix(0.502565 0.864539 -0.867499 0.497439 214.117 265.667)" fill="url(#paint24_linear_7849_178855)"/>
</g>
<g filter="url(#filter33_f_7849_178855)">
<path d="M213.74 265.901L148.301 303.287" stroke="url(#paint25_linear_7849_178855)" stroke-width="3"/>
</g>
<defs>
<filter id="filter0_f_7849_178855" x="93.1602" y="139.004" width="345.248" height="215.878" filterUnits="userSpaceOnUse" color-interpolation-filters="sRGB">
<feFlood flood-opacity="0" result="BackgroundImageFix"/>
<feBlend mode="normal" in="SourceGraphic" in2="BackgroundImageFix" result="shape"/>
<feGaussianBlur stdDeviation="10" result="effect1_foregroundBlur_7849_178855"/>
</filter>
<filter id="filter1_f_7849_178855" x="139.285" y="180.495" width="22.5312" height="25.9395" filterUnits="userSpaceOnUse" color-interpolation-filters="sRGB">
<feFlood flood-opacity="0" result="BackgroundImageFix"/>
<feBlend mode="normal" in="SourceGraphic" in2="BackgroundImageFix" result="shape"/>
<feGaussianBlur stdDeviation="2" result="effect1_foregroundBlur_7849_178855"/>
</filter>
<filter id="filter2_f_7849_178855" x="143.914" y="185.971" width="12.418" height="15.5547" filterUnits="userSpaceOnUse" color-interpolation-filters="sRGB">
<feFlood flood-opacity="0" result="BackgroundImageFix"/>
<feBlend mode="normal" in="SourceGraphic" in2="BackgroundImageFix" result="shape"/>
<feGaussianBlur stdDeviation="0.5" result="effect1_foregroundBlur_7849_178855"/>
</filter>
<filter id="filter3_f_7849_178855" x="81.5547" y="190.688" width="70.9434" height="44.5391" filterUnits="userSpaceOnUse" color-interpolation-filters="sRGB">
<feFlood flood-opacity="0" result="BackgroundImageFix"/>
<feBlend mode="normal" in="SourceGraphic" in2="BackgroundImageFix" result="shape"/>
<feGaussianBlur stdDeviation="1" result="effect1_foregroundBlur_7849_178855"/>
</filter>
<filter id="filter4_f_7849_178855" x="276.314" y="110.199" width="27.9824" height="32.3027" filterUnits="userSpaceOnUse" color-interpolation-filters="sRGB">
<feFlood flood-opacity="0" result="BackgroundImageFix"/>
<feBlend mode="normal" in="SourceGraphic" in2="BackgroundImageFix" result="shape"/>
<feGaussianBlur stdDeviation="2" result="effect1_foregroundBlur_7849_178855"/>
</filter>
<filter id="filter5_f_7849_178855" x="283.67" y="118.951" width="12.418" height="15.3555" filterUnits="userSpaceOnUse" color-interpolation-filters="sRGB">
<feFlood flood-opacity="0" result="BackgroundImageFix"/>
<feBlend mode="normal" in="SourceGraphic" in2="BackgroundImageFix" result="shape"/>
<feGaussianBlur stdDeviation="0.5" result="effect1_foregroundBlur_7849_178855"/>
</filter>
<filter id="filter6_f_7849_178855" x="221.318" y="123.561" width="70.9277" height="43.9912" filterUnits="userSpaceOnUse" color-interpolation-filters="sRGB">
<feFlood flood-opacity="0" result="BackgroundImageFix"/>
<feBlend mode="normal" in="SourceGraphic" in2="BackgroundImageFix" result="shape"/>
<feGaussianBlur stdDeviation="1" result="effect1_foregroundBlur_7849_178855"/>
</filter>
<filter id="filter7_f_7849_178855" x="278.717" y="56.4961" width="27.7891" height="32.3027" filterUnits="userSpaceOnUse" color-interpolation-filters="sRGB">
<feFlood flood-opacity="0" result="BackgroundImageFix"/>
<feBlend mode="normal" in="SourceGraphic" in2="BackgroundImageFix" result="shape"/>
<feGaussianBlur stdDeviation="2" result="effect1_foregroundBlur_7849_178855"/>
</filter>
<filter id="filter8_f_7849_178855" x="286.027" y="65.248" width="12.3184" height="15.3555" filterUnits="userSpaceOnUse" color-interpolation-filters="sRGB">
<feFlood flood-opacity="0" result="BackgroundImageFix"/>
<feBlend mode="normal" in="SourceGraphic" in2="BackgroundImageFix" result="shape"/>
<feGaussianBlur stdDeviation="0.5" result="effect1_foregroundBlur_7849_178855"/>
</filter>
<filter id="filter9_f_7849_178855" x="224.254" y="69.8604" width="70.3105" height="43.9854" filterUnits="userSpaceOnUse" color-interpolation-filters="sRGB">
<feFlood flood-opacity="0" result="BackgroundImageFix"/>
<feBlend mode="normal" in="SourceGraphic" in2="BackgroundImageFix" result="shape"/>
<feGaussianBlur stdDeviation="1" result="effect1_foregroundBlur_7849_178855"/>
</filter>
<filter id="filter10_f_7849_178855" x="355.568" y="96.2109" width="28.1738" height="32.665" filterUnits="userSpaceOnUse" color-interpolation-filters="sRGB">
<feFlood flood-opacity="0" result="BackgroundImageFix"/>
<feBlend mode="normal" in="SourceGraphic" in2="BackgroundImageFix" result="shape"/>
<feGaussianBlur stdDeviation="2" result="effect1_foregroundBlur_7849_178855"/>
</filter>
<filter id="filter11_f_7849_178855" x="362.963" y="105.05" width="12.5195" height="15.5547" filterUnits="userSpaceOnUse" color-interpolation-filters="sRGB">
<feFlood flood-opacity="0" result="BackgroundImageFix"/>
<feBlend mode="normal" in="SourceGraphic" in2="BackgroundImageFix" result="shape"/>
<feGaussianBlur stdDeviation="0.5" result="effect1_foregroundBlur_7849_178855"/>
</filter>
<filter id="filter12_f_7849_178855" x="300.027" y="109.764" width="71.5625" height="44.5449" filterUnits="userSpaceOnUse" color-interpolation-filters="sRGB">
<feFlood flood-opacity="0" result="BackgroundImageFix"/>
<feBlend mode="normal" in="SourceGraphic" in2="BackgroundImageFix" result="shape"/>
<feGaussianBlur stdDeviation="1" result="effect1_foregroundBlur_7849_178855"/>
</filter>
<filter id="filter13_f_7849_178855" x="350.068" y="164.639" width="27.7891" height="32.3027" filterUnits="userSpaceOnUse" color-interpolation-filters="sRGB">
<feFlood flood-opacity="0" result="BackgroundImageFix"/>
<feBlend mode="normal" in="SourceGraphic" in2="BackgroundImageFix" result="shape"/>
<feGaussianBlur stdDeviation="2" result="effect1_foregroundBlur_7849_178855"/>
</filter>
<filter id="filter14_f_7849_178855" x="357.379" y="173.391" width="12.3184" height="15.3555" filterUnits="userSpaceOnUse" color-interpolation-filters="sRGB">
<feFlood flood-opacity="0" result="BackgroundImageFix"/>
<feBlend mode="normal" in="SourceGraphic" in2="BackgroundImageFix" result="shape"/>
<feGaussianBlur stdDeviation="0.5" result="effect1_foregroundBlur_7849_178855"/>
</filter>
<filter id="filter15_f_7849_178855" x="295.605" y="178.003" width="70.3105" height="43.9854" filterUnits="userSpaceOnUse" color-interpolation-filters="sRGB">
<feFlood flood-opacity="0" result="BackgroundImageFix"/>
<feBlend mode="normal" in="SourceGraphic" in2="BackgroundImageFix" result="shape"/>
<feGaussianBlur stdDeviation="1" result="effect1_foregroundBlur_7849_178855"/>
</filter>
<filter id="filter16_f_7849_178855" x="204.781" y="168.601" width="26.166" height="30.1592" filterUnits="userSpaceOnUse" color-interpolation-filters="sRGB">
<feFlood flood-opacity="0" result="BackgroundImageFix"/>
<feBlend mode="normal" in="SourceGraphic" in2="BackgroundImageFix" result="shape"/>
<feGaussianBlur stdDeviation="2" result="effect1_foregroundBlur_7849_178855"/>
</filter>
<filter id="filter17_f_7849_178855" x="209.818" y="174.657" width="15.0215" height="18.7451" filterUnits="userSpaceOnUse" color-interpolation-filters="sRGB">
<feFlood flood-opacity="0" result="BackgroundImageFix"/>
<feBlend mode="normal" in="SourceGraphic" in2="BackgroundImageFix" result="shape"/>
<feGaussianBlur stdDeviation="0.5" result="effect1_foregroundBlur_7849_178855"/>
</filter>
<filter id="filter18_f_7849_178855" x="132.312" y="181.021" width="87.291" height="53.4746" filterUnits="userSpaceOnUse" color-interpolation-filters="sRGB">
<feFlood flood-opacity="0" result="BackgroundImageFix"/>
<feBlend mode="normal" in="SourceGraphic" in2="BackgroundImageFix" result="shape"/>
<feGaussianBlur stdDeviation="1" result="effect1_foregroundBlur_7849_178855"/>
</filter>
<filter id="filter19_f_7849_178855" x="142.213" y="136.657" width="27.7285" height="32.1602" filterUnits="userSpaceOnUse" color-interpolation-filters="sRGB">
<feFlood flood-opacity="0" result="BackgroundImageFix"/>
<feBlend mode="normal" in="SourceGraphic" in2="BackgroundImageFix" result="shape"/>
<feGaussianBlur stdDeviation="2" result="effect1_foregroundBlur_7849_178855"/>
</filter>
<filter id="filter20_f_7849_178855" x="144.811" y="139.842" width="22.5273" height="25.792" filterUnits="userSpaceOnUse" color-interpolation-filters="sRGB">
<feFlood flood-opacity="0" result="BackgroundImageFix"/>
<feBlend mode="normal" in="SourceGraphic" in2="BackgroundImageFix" result="shape"/>
<feGaussianBlur stdDeviation="2" result="effect1_foregroundBlur_7849_178855"/>
</filter>
<filter id="filter21_f_7849_178855" x="149.441" y="145.296" width="12.4141" height="15.4443" filterUnits="userSpaceOnUse" color-interpolation-filters="sRGB">
<feFlood flood-opacity="0" result="BackgroundImageFix"/>
<feBlend mode="normal" in="SourceGraphic" in2="BackgroundImageFix" result="shape"/>
<feGaussianBlur stdDeviation="0.5" result="effect1_foregroundBlur_7849_178855"/>
</filter>
<filter id="filter22_f_7849_178855" x="87.1055" y="149.954" width="70.9141" height="44.2334" filterUnits="userSpaceOnUse" color-interpolation-filters="sRGB">
<feFlood flood-opacity="0" result="BackgroundImageFix"/>
<feBlend mode="normal" in="SourceGraphic" in2="BackgroundImageFix" result="shape"/>
<feGaussianBlur stdDeviation="1" result="effect1_foregroundBlur_7849_178855"/>
</filter>
<filter id="filter23_f_7849_178855" x="61.2969" y="243.302" width="32.4902" height="27.6201" filterUnits="userSpaceOnUse" color-interpolation-filters="sRGB">
<feFlood flood-opacity="0" result="BackgroundImageFix"/>
<feBlend mode="normal" in="SourceGraphic" in2="BackgroundImageFix" result="shape"/>
<feGaussianBlur stdDeviation="2" result="effect1_foregroundBlur_7849_178855"/>
</filter>
<filter id="filter24_f_7849_178855" x="74.7812" y="245.489" width="17.9141" height="17.751" filterUnits="userSpaceOnUse" color-interpolation-filters="sRGB">
<feFlood flood-opacity="0" result="BackgroundImageFix"/>
<feBlend mode="normal" in="SourceGraphic" in2="BackgroundImageFix" result="shape"/>
<feGaussianBlur stdDeviation="1" result="effect1_foregroundBlur_7849_178855"/>
</filter>
<filter id="filter25_f_7849_178855" x="13.1523" y="252.904" width="70.957" height="44.1211" filterUnits="userSpaceOnUse" color-interpolation-filters="sRGB">
<feFlood flood-opacity="0" result="BackgroundImageFix"/>
<feBlend mode="normal" in="SourceGraphic" in2="BackgroundImageFix" result="shape"/>
<feGaussianBlur stdDeviation="1" result="effect1_foregroundBlur_7849_178855"/>
</filter>
<filter id="filter26_f_7849_178855" x="111.201" y="274.646" width="32.7031" height="27.6992" filterUnits="userSpaceOnUse" color-interpolation-filters="sRGB">
<feFlood flood-opacity="0" result="BackgroundImageFix"/>
<feBlend mode="normal" in="SourceGraphic" in2="BackgroundImageFix" result="shape"/>
<feGaussianBlur stdDeviation="2" result="effect1_foregroundBlur_7849_178855"/>
</filter>
<filter id="filter27_f_7849_178855" x="122.104" y="278.7" width="16.0352" height="15.8057" filterUnits="userSpaceOnUse" color-interpolation-filters="sRGB">
<feFlood flood-opacity="0" result="BackgroundImageFix"/>
<feBlend mode="normal" in="SourceGraphic" in2="BackgroundImageFix" result="shape"/>
<feGaussianBlur stdDeviation="0.5" result="effect1_foregroundBlur_7849_178855"/>
</filter>
<filter id="filter28_f_7849_178855" x="124.234" y="281.844" width="10.5332" height="10.3965" filterUnits="userSpaceOnUse" color-interpolation-filters="sRGB">
<feFlood flood-opacity="0" result="BackgroundImageFix"/>
<feBlend mode="normal" in="SourceGraphic" in2="BackgroundImageFix" result="shape"/>
<feGaussianBlur stdDeviation="0.5" result="effect1_foregroundBlur_7849_178855"/>
</filter>
<filter id="filter29_f_7849_178855" x="62.4355" y="282.489" width="72.9824" height="45.4336" filterUnits="userSpaceOnUse" color-interpolation-filters="sRGB">
<feFlood flood-opacity="0" result="BackgroundImageFix"/>
<feBlend mode="normal" in="SourceGraphic" in2="BackgroundImageFix" result="shape"/>
<feGaussianBlur stdDeviation="1" result="effect1_foregroundBlur_7849_178855"/>
</filter>
<filter id="filter30_f_7849_178855" x="203.279" y="252.551" width="22.5312" height="25.6748" filterUnits="userSpaceOnUse" color-interpolation-filters="sRGB">
<feFlood flood-opacity="0" result="BackgroundImageFix"/>
<feBlend mode="normal" in="SourceGraphic" in2="BackgroundImageFix" result="shape"/>
<feGaussianBlur stdDeviation="2" result="effect1_foregroundBlur_7849_178855"/>
</filter>
<filter id="filter31_f_7849_178855" x="200.5" y="249.17" width="28.0918" height="32.4365" filterUnits="userSpaceOnUse" color-interpolation-filters="sRGB">
<feFlood flood-opacity="0" result="BackgroundImageFix"/>
<feBlend mode="normal" in="SourceGraphic" in2="BackgroundImageFix" result="shape"/>
<feGaussianBlur stdDeviation="2" result="effect1_foregroundBlur_7849_178855"/>
</filter>
<filter id="filter32_f_7849_178855" x="207.908" y="257.989" width="12.418" height="15.3555" filterUnits="userSpaceOnUse" color-interpolation-filters="sRGB">
<feFlood flood-opacity="0" result="BackgroundImageFix"/>
<feBlend mode="normal" in="SourceGraphic" in2="BackgroundImageFix" result="shape"/>
<feGaussianBlur stdDeviation="0.5" result="effect1_foregroundBlur_7849_178855"/>
</filter>
<filter id="filter33_f_7849_178855" x="145.557" y="262.599" width="70.9277" height="43.9912" filterUnits="userSpaceOnUse" color-interpolation-filters="sRGB">
<feFlood flood-opacity="0" result="BackgroundImageFix"/>
<feBlend mode="normal" in="SourceGraphic" in2="BackgroundImageFix" result="shape"/>
<feGaussianBlur stdDeviation="1" result="effect1_foregroundBlur_7849_178855"/>
</filter>
<linearGradient id="paint0_linear_7849_178855" x1="206.559" y1="-247.156" x2="332.219" y2="232.791" gradientUnits="userSpaceOnUse">
<stop stop-color="#C5D4E9"/>
<stop offset="1" stop-color="#C5D4E9" stop-opacity="0"/>
</linearGradient>
<linearGradient id="paint1_linear_7849_178855" x1="145.209" y1="197.443" x2="88.1201" y2="230.936" gradientUnits="userSpaceOnUse">
<stop stop-color="#80AD20"/>
<stop offset="1" stop-color="#D0FF15" stop-opacity="0"/>
</linearGradient>
<linearGradient id="paint2_linear_7849_178855" x1="284.965" y1="130.27" x2="228.312" y2="164.003" gradientUnits="userSpaceOnUse">
<stop stop-color="#80AD20"/>
<stop offset="1" stop-color="#D0FF15" stop-opacity="0"/>
</linearGradient>
<linearGradient id="paint3_linear_7849_178855" x1="287.321" y1="76.5668" x2="230.93" y2="109.821" gradientUnits="userSpaceOnUse">
<stop stop-color="#80AD20"/>
<stop offset="1" stop-color="#D0FF15" stop-opacity="0"/>
</linearGradient>
<linearGradient id="paint4_linear_7849_178855" x1="364.261" y1="116.522" x2="306.907" y2="150.494" gradientUnits="userSpaceOnUse">
<stop stop-color="#80AD20"/>
<stop offset="1" stop-color="#D0FF15" stop-opacity="0"/>
</linearGradient>
<linearGradient id="paint5_linear_7849_178855" x1="358.672" y1="184.709" x2="302.282" y2="217.963" gradientUnits="userSpaceOnUse">
<stop stop-color="#80AD20"/>
<stop offset="1" stop-color="#D0FF15" stop-opacity="0"/>
</linearGradient>
<linearGradient id="paint6_linear_7849_178855" x1="188.514" y1="113.446" x2="188.514" y2="296.551" gradientUnits="userSpaceOnUse">
<stop offset="0.293963" stop-color="#DAE5F3"/>
<stop offset="1" stop-color="#DAE5F3" stop-opacity="0"/>
</linearGradient>
<linearGradient id="paint7_linear_7849_178855" x1="161.826" y1="88.2412" x2="164.458" y2="122.266" gradientUnits="userSpaceOnUse">
<stop offset="0.140723" stop-color="#15243B"/>
<stop offset="1" stop-color="#EEF4FC"/>
</linearGradient>
<linearGradient id="paint8_linear_7849_178855" x1="233.727" y1="95.6543" x2="272.336" y2="219.287" gradientUnits="userSpaceOnUse">
<stop offset="0.140723" stop-color="#15243B"/>
<stop offset="1" stop-color="#EEF4FC"/>
</linearGradient>
<linearGradient id="paint9_linear_7849_178855" x1="257.447" y1="171.268" x2="345.584" y2="271.821" gradientUnits="userSpaceOnUse">
<stop offset="0.422786" stop-color="#15243B"/>
<stop offset="0.819643" stop-color="#EEF4FC"/>
</linearGradient>
<linearGradient id="paint10_linear_7849_178855" x1="211.186" y1="188.594" x2="140.26" y2="230.701" gradientUnits="userSpaceOnUse">
<stop stop-color="#80AD20"/>
<stop offset="1" stop-color="#D0FF15" stop-opacity="0"/>
</linearGradient>
<linearGradient id="paint11_linear_7849_178855" x1="13.0423" y1="0" x2="13.0423" y2="17.0909" gradientUnits="userSpaceOnUse">
<stop stop-color="#FF1367" stop-opacity="0.44"/>
<stop offset="0.996693" stop-color="#C83469" stop-opacity="0"/>
</linearGradient>
<linearGradient id="paint12_linear_7849_178855" x1="9.60486" y1="0" x2="9.60486" y2="12.5864" gradientUnits="userSpaceOnUse">
<stop stop-color="#FF1367" stop-opacity="0.44"/>
<stop offset="0.996693" stop-color="#C83469" stop-opacity="0"/>
</linearGradient>
<linearGradient id="paint13_linear_7849_178855" x1="7.36085" y1="0" x2="7.36085" y2="8.50859" gradientUnits="userSpaceOnUse">
<stop stop-color="#FF1367" stop-opacity="0.44"/>
<stop offset="0.996693" stop-color="#C83469" stop-opacity="0"/>
</linearGradient>
<linearGradient id="paint14_linear_7849_178855" x1="122.562" y1="153.254" x2="122.562" y2="190.888" gradientUnits="userSpaceOnUse">
<stop stop-color="#FF1367" stop-opacity="0.44"/>
<stop offset="0.996693" stop-color="#C83469" stop-opacity="0"/>
</linearGradient>
<linearGradient id="paint15_linear_7849_178855" x1="8.46107" y1="0" x2="8.46107" y2="26.4203" gradientUnits="userSpaceOnUse">
<stop stop-color="#FF1367" stop-opacity="0.44"/>
<stop offset="0.996693" stop-color="#C83469" stop-opacity="0"/>
</linearGradient>
<linearGradient id="paint16_linear_7849_178855" x1="6.89484" y1="0" x2="6.89484" y2="13.8714" gradientUnits="userSpaceOnUse">
<stop stop-color="#FF1367" stop-opacity="0.44"/>
<stop offset="0.996693" stop-color="#C83469" stop-opacity="0"/>
</linearGradient>
<linearGradient id="paint17_linear_7849_178855" x1="48.6313" y1="256.206" x2="48.6313" y2="293.724" gradientUnits="userSpaceOnUse">
<stop stop-color="#FF1367" stop-opacity="0.44"/>
<stop offset="0.996693" stop-color="#C83469" stop-opacity="0"/>
</linearGradient>
<linearGradient id="paint18_linear_7849_178855" x1="8.5051" y1="0" x2="8.5051" y2="26.6188" gradientUnits="userSpaceOnUse">
<stop stop-color="#92BD4B"/>
<stop offset="1" stop-color="#92BD4B" stop-opacity="0"/>
</linearGradient>
<linearGradient id="paint19_linear_7849_178855" x1="6.93072" y1="0" x2="6.93072" y2="13.9756" gradientUnits="userSpaceOnUse">
<stop stop-color="#92BD4B"/>
<stop offset="0.996693" stop-color="#92BD4B" stop-opacity="0"/>
</linearGradient>
<linearGradient id="paint20_linear_7849_178855" x1="4.2147" y1="0" x2="4.2147" y2="8.49883" gradientUnits="userSpaceOnUse">
<stop stop-color="#92BD4B"/>
<stop offset="0.996693" stop-color="#92BD4B" stop-opacity="0"/>
</linearGradient>
<linearGradient id="paint21_linear_7849_178855" x1="127.991" y1="289.328" x2="69.3472" y2="323.996" gradientUnits="userSpaceOnUse">
<stop stop-color="#80AD20"/>
<stop offset="1" stop-color="#D0FF15" stop-opacity="0"/>
</linearGradient>
<linearGradient id="paint22_linear_7849_178855" x1="9.55824" y1="0" x2="9.55824" y2="12.5689" gradientUnits="userSpaceOnUse">
<stop stop-color="#FF1367" stop-opacity="0.44"/>
<stop offset="0.996693" stop-color="#C83469" stop-opacity="0"/>
</linearGradient>
<linearGradient id="paint23_linear_7849_178855" x1="13.2146" y1="0" x2="13.2146" y2="17.377" gradientUnits="userSpaceOnUse">
<stop stop-color="#FF1367" stop-opacity="0.44"/>
<stop offset="0.996693" stop-color="#C83469" stop-opacity="0"/>
</linearGradient>
<linearGradient id="paint24_linear_7849_178855" x1="7.32512" y1="0" x2="7.32512" y2="8.49674" gradientUnits="userSpaceOnUse">
<stop stop-color="#FF1367" stop-opacity="0.44"/>
<stop offset="0.996693" stop-color="#C83469" stop-opacity="0"/>
</linearGradient>
<linearGradient id="paint25_linear_7849_178855" x1="181.021" y1="265.901" x2="181.021" y2="303.287" gradientUnits="userSpaceOnUse">
<stop stop-color="#FF1367" stop-opacity="0.44"/>
<stop offset="0.996693" stop-color="#C83469" stop-opacity="0"/>
</linearGradient>
</defs>
</svg>
