<svg xmlns="http://www.w3.org/2000/svg" width="436.926" height="449.057"><defs><style>.cls-4{fill:#efbfa5}.cls-5{fill:#00a99d}.cls-6{fill:#1a3151}.cls-7{fill:#145566}.cls-10{fill:#3ababa}.cls-11{fill:#caccce}.cls-15{fill:#5a5a5c}.cls-16{fill:#162a42}.cls-18{fill:#fff;opacity:.66}.cls-20{fill:#a06652}.cls-21{fill:#aaa}</style></defs><g id="Group_4103" data-name="Group 4103" transform="translate(-1272.255 -68.982)"><g id="Zoom" transform="translate(459.256 -2943.852)"><g id="Symbol_20_69" data-name="Symbol 20 – 69" transform="translate(196.631 2938.945)"><circle id="Ellipse_1742" cx="152.003" cy="152.003" r="152.003" data-name="Ellipse 1742" transform="translate(682.811 152.497)" style="opacity:.204;fill:#d5d7db"/><circle id="Ellipse_1743" cx="218.445" cy="218.445" r="218.445" data-name="Ellipse 1743" transform="translate(616.369 86.055)" style="opacity:.152;fill:#d5d7db"/></g></g><ellipse id="Ellipse_2503" cx="204.531" cy="8.075" data-name="Ellipse 2503" rx="204.531" ry="8.075" transform="translate(1300.119 473.59)" style="opacity:.1"/><g id="Group_4072" data-name="Group 4072" transform="translate(1582.858 144.279)"><g id="Group_4054" data-name="Group 4054"><g id="Group_4052" data-name="Group 4052" transform="translate(2.182)"><path id="Path_39677" d="M1771.565 190.543c.028.039.055.08.082.121 1.175 1.867-.438 3.294-.4 5.058.036 1.651 2.554 2.854 1.552 4.374-.423.64-1.555 1.675-2.345 2.9a13.638 13.638 0 0 0-1.652 7.026 249.032 249.032 0 0 1-1.052 28.9 3.1 3.1 0 0 0 .088 1.609c.4.929 1.3 1.232 2.173 1.631a68.964 68.964 0 0 1 11.555 6.39c3.23 2.311 6.23 4.87 8.113 8.4s2.309 7.766.351 11.209c-1.466 2.579-3.878 4.468-6.882 4.435-7.449-.081-11.414-7.777-15.6-12.769-3.957-4.724-7.308-8.757-10.833-13.573a5.041 5.041 0 0 1-1-1.9 5.257 5.257 0 0 1 .148-2.255c2.114-9.416 4.417-18.541 4.448-28.189.009-2.651 1.034-4.857.726-7.42-.2-1.635-1.541-2.751-1.97-4.307a12.852 12.852 0 0 1-.59-4.963c.612-4.334 6.717-9.029 11.076-7.891a3.532 3.532 0 0 1 2.012 1.214z" class="cls-4" data-name="Path 39677" transform="translate(-1755.643 -189.166)"/></g><g id="Group_4053" data-name="Group 4053" transform="translate(0 27.461)"><path id="Path_39678" d="M1766.858 278.468c-4.426-4.917-8.717-9.951-12.786-15.17a6.282 6.282 0 0 1-1.8-5.879 165.2 165.2 0 0 1 3.958-21.791.972.972 0 0 1 1.025-.945c2.268-.288 11.419-2.729 12.858-1.168 1.606 1.742-.8 6.576-1.118 8.514q-.842 5.137-1.291 10.329a5.741 5.741 0 0 0 .482 3.584 6.116 6.116 0 0 0 2.8 1.979c6.2 2.873 11.887 6.895 17.844 10.262 4.119 2.327 8.568 4.407 12.452 7.121 7.638 5.34 11.108 6.793 14.5 12.65 3.252 5.612 3.921 13.216-1.395 17.83-5.5 4.779-13.726 3.594-19.687.5a26.234 26.234 0 0 1-6.38-5.268c-7.255-7.416-14.52-14.838-21.462-22.548z" class="cls-5" data-name="Path 39678" transform="translate(-1752.161 -232.998)"/></g></g><g id="Group_4065" data-name="Group 4065" transform="translate(6.825 151.117)"><g id="Group_4059" data-name="Group 4059"><g id="Group_4058" data-name="Group 4058" transform="translate(0 120.731)"><g id="Group_4057" data-name="Group 4057"><g id="Group_4055" data-name="Group 4055" transform="translate(14.323)"><path id="Path_39679" d="M1791.794 680.133a44.238 44.238 0 0 1-5.6-.534c-.964-18.515.786-37.92 1.544-56.523l14.269.761a166.322 166.322 0 0 0-7.059 30.587c-.215 1.646-2.882 25.7-3.154 25.709z" class="cls-4" data-name="Path 39679" transform="translate(-1785.916 -623.076)"/></g><g id="Group_4056" data-name="Group 4056" transform="translate(0 52.885)"><path id="Path_39680" d="M1777.084 707.534a2.87 2.87 0 0 0-2.649 1.029c-.455.415-.764 1-1.312 1.3a4.313 4.313 0 0 1-1.738.421c-3.431.345-11.336.2-7.125 5.941 3.824 5.211 13.981 3.137 19.848 1.721a2.015 2.015 0 0 0 1.076-.45 2.763 2.763 0 0 0 .594-1.165c.67-2.452 1.585-5.514-1.43-6.541-1.286-.439-2.471.413-3.832-.059-1.116-.387-2.258-1.987-3.432-2.197z" class="cls-6" data-name="Path 39680" transform="translate(-1763.055 -707.488)"/></g></g></g><path id="Path_39681" d="m1771.666 562.269 29.1-.565q11.77-56.029 20.721-112.6c.462-2.923.913-5.963.071-8.8-1.593-5.365-7.339-8.427-12.841-9.455-8.55-1.6-24.259.627-28.643 9.516-4.634 9.4-3.856 26.174-4.979 36.555a631.011 631.011 0 0 0-3.429 85.349z" class="cls-7" data-name="Path 39681" transform="translate(-1766.181 -430.372)"/></g><g id="Group_4064" data-name="Group 4064" transform="translate(40.025)"><g id="Group_4063" data-name="Group 4063" transform="translate(25.43 120.731)"><g id="Group_4062" data-name="Group 4062"><g id="Group_4060" data-name="Group 4060"><path id="Path_39682" d="M1877.747 680.133a44.258 44.258 0 0 0 5.6-.534c.964-18.515-.786-37.92-1.545-56.523l-14.269.761a166.3 166.3 0 0 1 7.059 30.587c.216 1.646 2.884 25.7 3.155 25.709z" class="cls-4" data-name="Path 39682" transform="translate(-1867.53 -623.076)"/></g><g id="Group_4061" data-name="Group 4061" transform="translate(7.021 52.885)"><path id="Path_39683" d="M1888.1 707.534a2.869 2.869 0 0 1 2.649 1.029c.455.415.764 1 1.312 1.3a4.313 4.313 0 0 0 1.738.421c3.431.345 11.336.2 7.125 5.941-3.824 5.211-13.981 3.137-19.848 1.721a2.014 2.014 0 0 1-1.076-.45 2.761 2.761 0 0 1-.594-1.165c-.669-2.452-1.585-5.514 1.43-6.541 1.286-.439 2.471.413 3.832-.059 1.119-.387 2.263-1.987 3.432-2.197z" class="cls-6" data-name="Path 39683" transform="translate(-1878.736 -707.488)"/></g></g></g><path id="Path_39684" d="m1877.3 562.269-29.1-.565q-11.769-56.029-20.721-112.6c-.462-2.923-.913-5.963-.07-8.8 1.593-5.365 7.339-8.427 12.841-9.455 8.55-1.6 24.259.627 28.643 9.516 4.634 9.4 3.856 26.174 4.98 36.555a631.111 631.111 0 0 1 3.427 85.349z" class="cls-7" data-name="Path 39684" transform="translate(-1826.941 -430.372)"/></g></g><g id="Group_4066" data-name="Group 4066" transform="translate(14.12 67.248)"><path id="Path_39685" d="M1832.92 307.447a69.344 69.344 0 0 1 17.11 26.757c6.213 17.44 6.333 36.06 6.39 54.306l.057 18.218c.019 5.975-.509 7.261-7 6.474-12.033-1.46-24.542-3.941-35.445-9.288-5.188-2.544-10.037-5.758-15.477-7.762-7.912-2.914-16.025-1.594-23.853-3.491a185.644 185.644 0 0 0 7.575-29.608c1.8-10.9 3.428-22.787 6.061-33.539 1.579-6.452 4.516-12.48 7.5-18.412 2.008-3.988 4.134-8.069 7.544-10.952 10.273-8.682 21.791-.075 29.538 7.297z" data-name="Path 39685" transform="translate(-1774.699 -296.504)" style="fill:#22b573"/></g><g id="Group_4071" data-name="Group 4071" transform="translate(42.948 11.954)"><g id="Group_4068" data-name="Group 4068" transform="translate(0 7.442)"><g id="Group_4067" data-name="Group 4067"><path id="Path_39686" d="M1822.183 251.057c1.618 3.538 4.263 6.486 6.423 9.723a21.824 21.824 0 0 1 3.414 9.648c.4 2.636 1.345 4.7 4.521 5.149 5.99.851 4.277-4.1 5.638-7.7 1.555-4.116 4.872-7.367 7.189-11.04 6.7-10.614 4.786-31.594-9.135-36.071-15.22-4.895-22.962 19.555-18.05 30.291z" class="cls-4" data-name="Path 39686" transform="translate(-1820.713 -220.126)"/></g></g><g id="Group_4069" data-name="Group 4069" transform="translate(16.009 11.675)"><path id="Path_39687" d="M1855.989 243.308c1.728.07 3.628.207 4.91 1.367s1.142 3.692-.55 3.965c-1.534.248-3.519-1.352-4.456-.184-.547.683-.067 1.682.348 2.48a14.566 14.566 0 0 1 1.328 9.88c.631.585 1.615-.022 2.17-.632a31.8 31.8 0 0 0 6.31-10.362 6.355 6.355 0 0 0 2.319 2.245 7.344 7.344 0 0 1 .143-4.461c1.3-5.369 2.186-11.659-1.564-16.047a13.955 13.955 0 0 0-8.125-4.266 40.793 40.793 0 0 0-9.287-.289c-1.323.06-2.953.345-3.27 1.569a14.739 14.739 0 0 1 7.355 6.177c.447.845 2.193 8.55 2.369 8.558z" class="cls-6" data-name="Path 39687" transform="translate(-1846.266 -226.882)"/></g><g id="Group_4070" data-name="Group 4070" transform="translate(2.415)"><path id="Path_39688" d="M1841.753 223.447q.159.116.312.232c1.314 1 2.548 2.219 4.139 2.663 2.294.64 4.759-.465 7.017.316 2.525.873 4.185 3.892 6.027 5.679a27.049 27.049 0 0 0 17.117 7.439 11.2 11.2 0 0 0 3.22-.016c1.272-.343 1.228-.921-.127-1.355-4.25-1.361-5.581-7.33-5.26-11.287.253-3.123 1.331-6.387.14-9.285-.91-2.214-2.864-3.357-4.753-4.623-2.083-1.4-4.341-1.021-6.706-1.692-2.468-.7-4.478-2.644-6.994-3.139-2.658-.524-5.315.655-7.974 1.172a16.508 16.508 0 0 1-6.668-.082c-1.959-.431-3.871-1.224-5.876-1.205a9.619 9.619 0 0 0-7.4 4.275 19.661 19.661 0 0 0-3.16 13.685c-.133-.694 2.2-3.21 2.683-3.75a6.323 6.323 0 0 1 3.788-2.4c3.502-.417 7.657 1.326 10.475 3.373z" class="cls-6" data-name="Path 39688" transform="translate(-1824.567 -208.247)"/></g></g></g><g id="Group_4083" data-name="Group 4083" transform="translate(1331.27 136.747)"><g id="Group_4082" data-name="Group 4082" transform="translate(0 10.928)"><g id="Group_4075" data-name="Group 4075" transform="translate(0 152.179)"><g id="Group_4074" data-name="Group 4074" transform="translate(0 88.382)"><g id="Group_4073" data-name="Group 4073" transform="translate(3.349)"><path id="Path_39689" d="M1401.942 587.921 1387.2 614.1c-6.071 11.892-14.319 22.674-20.39 34.566-1.4 2.734-2.263 5.951-4.392 8.252-2.082 2.252-4.42 1.571-5.835-.924-1.9-3.342.831-7.222 2.007-10.5 7.834-21.833 13.5-44.059 20.6-66.184.093-.29.219-.616.5-.722a1 1 0 0 1 .718.1c2.092.877 21.216 9.799 21.534 9.233z" class="cls-4" data-name="Path 39689" transform="translate(-1355.933 -578.558)"/></g><path id="Path_39690" d="m1354.877 693.1-4.289 3.233 3.645 12.126 7.2 4.907 4.819-2.411-4.557-14.833z" class="cls-6" data-name="Path 39690" transform="translate(-1350.588 -621.34)"/></g><path id="Path_39691" d="M1409.892 527.245c6.026-12.219 11.79-24.463 15.95-37.469a188.9 188.9 0 0 0 5.279-20.682c1.283-6.444-.53-12.523-1.708-19.015a5.463 5.463 0 0 0-1.014-2.7 5.354 5.354 0 0 0-2.282-1.308 150.1 150.1 0 0 0-37.878-8.52 4.778 4.778 0 0 0-2.889.348c-1.073.636-1.477 1.962-1.794 3.168-2.642 10.071-7.262 21.479-7.566 31.829-.16 5.473.313 11.171.337 16.687l.133 29.393-19.633 71.124 12.563 10.267 27.383-48.953c4.55-8.135 8.987-16.123 13.119-24.169z" class="cls-6" data-name="Path 39691" transform="translate(-1352.918 -437.488)"/></g><g id="Group_4078" data-name="Group 4078" transform="translate(51.387 158.978)"><g id="Group_4077" data-name="Group 4077" transform="translate(23.568 83.407)"><g id="Group_4076" data-name="Group 4076"><path id="Path_39692" d="m1494.559 582.231-4.2 29.752c-1.327 13.286-5.085 26.33-6.412 39.617-.3 3.055.058 6.367-1.086 9.285-1.12 2.856-3.545 3.071-5.772 1.263-2.982-2.422-1.854-7.029-1.952-10.51-.65-23.186-3.46-45.951-4.9-69.142a1.035 1.035 0 0 1 .206-.856 1 1 0 0 1 .705-.168c2.26.052 23.32 1.401 23.411.759z" class="cls-4" data-name="Path 39692" transform="translate(-1470.229 -581.47)"/></g><path id="Path_39693" d="m1476.631 701.636-2.818 4.572 7.809 9.967 8.493 1.95 3.611-4-9.644-12.157z" class="cls-6" data-name="Path 39693" transform="translate(-1471.567 -626.351)"/></g><path id="Path_39694" d="M1484.694 522.3c2.01-19.664 2.564-39.052-.966-59.426a21.606 21.606 0 0 0-2.473-7.831c-3.968-6.395-12.889-7.247-20.373-6.45a89.54 89.54 0 0 0-20.1 4.53c-11.37 3.984-7.52 19.814-7.615 29.745l17.382 43.9 8.041 77.642 15 .741 7.687-55.562c1.273-9.239 2.498-18.295 3.417-27.289z" class="cls-6" data-name="Path 39694" transform="translate(-1432.61 -448.34)"/></g><path id="Path_39695" d="M1469.352 331.388a6.713 6.713 0 0 0-.065-.566c-1.856-10.842.049-21.89-1.717-32.711-1.566-9.592-5.486-14.675-13.74-19.09a46.391 46.391 0 0 0-25.506-5.384c-8.759.746-17.987 2.269-25 8a25.95 25.95 0 0 0-6.64 8.68c-7.516 14.441-6.061 31.513-5.5 47.4.573 16.175-4.707 33.848-9.042 49.311a127.532 127.532 0 0 0 79.569 9.972c1.5-.3 3.146-.734 4-2.092a6.8 6.8 0 0 0 .749-3.191c.584-8.548 1.314-17.1 1.751-25.652.58-11.343 2.055-23.325 1.141-34.677z" data-name="Path 39695" transform="translate(-1362.375 -224.055)" style="fill:#bcbec0"/><g id="Group_4081" data-name="Group 4081" transform="translate(47.259)"><g id="Group_4080" data-name="Group 4080"><path id="Path_39696" d="M1473.682 215.195a21.877 21.877 0 0 1 2.682 9.881 3.135 3.135 0 0 0 .843 2.512c.792.579.1 1.848.7 1.074s2.649-3.461 2.741-4.438a36.2 36.2 0 0 0-.01-6.883 9.873 9.873 0 0 0-1.9-5.583 11.2 11.2 0 0 0-2.816-2.144 14.38 14.38 0 0 0-4.675-2.1c-2.912-.543-4.7.5-2.128 2.532a17.756 17.756 0 0 1 4.563 5.149z" class="cls-6" data-name="Path 39696" transform="translate(-1441.654 -199.363)"/><g id="Group_4079" data-name="Group 4079" transform="translate(3.376 8.646)"><path id="Path_39697" d="M1441.871 254.617c.019 1.408-.269 2.87.974 3.963a4.263 4.263 0 0 0 2.19.86 13.6 13.6 0 0 0 6.1-.433 5.475 5.475 0 0 0 2.224-1.173 2.783 2.783 0 0 0 .792-2.255c.041-1.062.255-2.141.394-3.218.3-2.355.441-4.73.509-7.1 3.488-.6 7.591-1.727 8.784-5.38a12.017 12.017 0 0 0 .4-3.628l.111-15.188a14.66 14.66 0 0 0-.583-5.181c-1.052-2.851-3.726-4.55-6.347-5.62-6.691-2.729-14.489-2.62-20.663 1.262a11.276 11.276 0 0 0-4.141 4.165c-1.459 2.781-1.276 6.215-1.049 9.424l.628 8.886c.241 3.406.752 7.328 3.4 9.128 1.4.955 3.22 1.13 4.431 2.367 2.113 2.158 1.106 5.382 1.73 8a5.157 5.157 0 0 1 .116 1.121z" class="cls-4" data-name="Path 39697" transform="translate(-1431.41 -208.388)"/></g><path id="Path_39698" d="M1465.462 248.138c-.057-.939-.467-3.689-1.878-1.96a2.826 2.826 0 0 0-.483 1.693 6.4 6.4 0 0 1-.185 1.789 3.154 3.154 0 0 1-3.158 1.87 3.086 3.086 0 0 1-1.48-.35 4.618 4.618 0 0 1-1.125-1.035l-2.47-2.834c-1.415-1.623-4.221-.921-6.128-.672a12.214 12.214 0 0 0-6.191 2.4c-.181.146-.358.3-.536.452a6.578 6.578 0 0 1-1.371.988c-1.7.826-3.8-.036-4.988-1.581-.545-.709-1.054-1.62-1.9-1.739a1.74 1.74 0 0 0-1.647 1 4.976 4.976 0 0 0-.477 2.077 15.269 15.269 0 0 0 1.327 7.631c2.458 5.03 7.21 5.647 11.986 5.534l5.664-.133c3.451-.081 7.1-.225 10.007-2.231a12.4 12.4 0 0 0 4.714-7.93 19.547 19.547 0 0 0 .319-4.969zm-12.627 7.13a6.611 6.611 0 0 1-5.847.678c-.861-.259-.5-1.7.367-1.445a5.314 5.314 0 0 0 4.776-.526c.762-.511 1.461.784.704 1.293z" class="cls-6" data-name="Path 39698" transform="translate(-1428.032 -213.648)"/><path id="Path_39699" d="M1464.171 201.646a27.041 27.041 0 0 0 .737-3.739 7.405 7.405 0 0 1-3.661.313q0-1.092-.008-2.184c-.006-.605-8.2-1.029-8.862-1.084-6.231-.511-11.929-1-17.563 2.347a16.965 16.965 0 0 0-8.636 12.674 25.95 25.95 0 0 0 4.1 16.634c-.018-1.413-.83-4.743-.5-6.085a11.988 11.988 0 0 1 1.31-3.839 15.822 15.822 0 0 1 5.553-5.838 30.774 30.774 0 0 1 12.138-4.09c3.886-.541 8.62-1.041 12.459-.011 1.845.495 2.151.958 3.269-.9a31.6 31.6 0 0 0 1.606-4.165z" class="cls-6" data-name="Path 39699" transform="translate(-1426.02 -194.588)"/></g></g></g><path id="Path_39700" d="M1474.2 293.831c.28-6.035.969-12.065.729-18.1a67.618 67.618 0 0 0-6.491-25.679c-1.749-3.762-2.946-5.692-6.836-7.264-3.821-1.544-8.118-1.517-11.825-3.406a28.351 28.351 0 0 0 6.648-7.441c2.772-4.936 1.249-10.149.9-15.471-.385-5.858-.785-11.832-2.949-17.354-3.193-8.146-10.36-15.634-17.38-20.71-3.337-2.413-9.19-.789-12.947.193a63.882 63.882 0 0 0-13.492 5.459c-4.509 2.373-6.747 4.8-8.057 9.742a70.175 70.175 0 0 0-1.75 14.2c-.615 11.308.375 21.874 7.007 31.443a13.048 13.048 0 0 1 2.3 4.179 29.052 29.052 0 0 0-7.565 1.355c-5.624 2.081-5.287 6.292-6.722 11.3a82.153 82.153 0 0 0-3.281 18.443c-.269 5.36.143 10.741-.237 16.094-.714 10.05-4.193 19.712-5.432 29.712-1.186 9.577-.294 19.313 1.536 28.788.655 3.391 1.579 7.013 4.233 9.222a14.774 14.774 0 0 0 5.1 2.437 96.809 96.809 0 0 0 15.3 3.521c1.735.254 6.485 1.624 8.045.835 1.346-.68 2.036-4.1 2.57-5.68 3.369-9.936 3.635-20.575 4.142-30.953a325.155 325.155 0 0 1 3.546-36.668c1.436-8.776 3.414-17.564 3.051-26.449a17.658 17.658 0 0 0-1.172-6.3c-.77-1.788-2.15-2.475-3.24-3.892-.868-1.126-1.057-2.448-1.689-3.753-1.613-3.335-4.525-5.857-6.832-8.688a32.176 32.176 0 0 1-6.6-23.557 31.6 31.6 0 0 1 3.667-12.128c2.119-3.746 9.2-6.5 13.266-6.363 5.23.17 11.413 1.428 14.687 5.9 3.17 4.334 2.638 10.25 1.965 15.577l-1.755 13.891a12.88 12.88 0 0 1-.855 3.73c-1.581 3.494-5.813 4.864-8.382 7.712-2.324 2.577-3.109 6.152-3.76 9.561q-2.512 13.162-4.057 26.484c-3.073 26.511-3.238 53.285-2.265 79.956a218.849 218.849 0 0 0 40.1 1.824c1.574-.073 3.3-.227 4.415-1.338a6.328 6.328 0 0 0 1.424-3.336c4.461-21.935-.101-44.659.94-67.028z" class="cls-10" data-name="Path 39700" transform="translate(-1363.918 -177.145)"/></g><g id="Group_4089" data-name="Group 4089" transform="translate(1298.865 205.629)"><g id="Group_4086" data-name="Group 4086" transform="translate(10.319)"><g id="Group_4085" data-name="Group 4085"><g id="Group_4084" data-name="Group 4084"><path id="Rectangle_5751" d="M5.452 0h158.1A5.452 5.452 0 0 1 169 5.452v107.377H0V5.452A5.452 5.452 0 0 1 5.452 0z" class="cls-6" data-name="Rectangle 5751"/></g><path id="Rectangle_5752" d="M0 0h155.575v98.785H0z" class="cls-11" data-name="Rectangle 5752" transform="translate(6.738 7.816)"/></g></g><g id="Group_4088" data-name="Group 4088" transform="translate(0 112.552)"><g id="Group_4087" data-name="Group 4087"><path id="Path_39701" d="m1478.32 486.764-169.007-.507a11.8 11.8 0 0 1-10.055-5.683l189.15.564a11.8 11.8 0 0 1-10.088 5.626z" class="cls-11" data-name="Path 39701" transform="translate(-1299.012 -471.907)"/><rect id="Rectangle_5753" width="189.642" height="10.174" data-name="Rectangle 5753" rx="1.98" style="fill:#ddd"/></g><rect id="Rectangle_5754" width="31.284" height="3.599" data-name="Rectangle 5754" rx="1.8" transform="translate(79.179 2.99)" style="fill:#000100;opacity:.14"/></g></g><g id="Group_4095" data-name="Group 4095" transform="translate(1315.921 247.046)"><path id="Rectangle_5755" d="M0 0h248.712v45.534H0z" data-name="Rectangle 5755" style="fill:#f7f7f7"/><g id="Group_4090" data-name="Group 4090" transform="translate(15.507 11.991)"><path id="Path_39702" d="M1369.977 377.887a2.261 2.261 0 0 1-1.182 3.227l-5.375 2 5.369 1.959a2.261 2.261 0 0 1 1.2 3.22l-.059.105a2.26 2.26 0 0 1-3.387.67l-4.444-3.547.87 5.772a2.26 2.26 0 0 1-2.235 2.6h-.113a2.26 2.26 0 0 1-2.24-2.567l.795-5.8-4.516 3.652a2.261 2.261 0 0 1-3.389-.646l-.139-.247a2.26 2.26 0 0 1 1.175-3.228l5.322-2-5.268-1.951a2.26 2.26 0 0 1-1.191-3.217l.026-.047a2.26 2.26 0 0 1 3.354-.694l4.627 3.559-.833-5.786a2.26 2.26 0 0 1 2.237-2.582h.153a2.261 2.261 0 0 1 2.235 2.6l-.87 5.771 4.521-3.5a2.261 2.261 0 0 1 3.357.677z" class="cls-7" data-name="Path 39702" transform="translate(-1350.841 -372.338)"/></g><g id="Group_4091" data-name="Group 4091" transform="translate(46.701 11.991)"><path id="Path_39703" d="M1419.766 377.887a2.26 2.26 0 0 1-1.182 3.227l-5.375 2 5.369 1.959a2.261 2.261 0 0 1 1.2 3.22l-.058.105a2.261 2.261 0 0 1-3.387.67l-4.444-3.547.87 5.772a2.26 2.26 0 0 1-2.235 2.6h-.113a2.26 2.26 0 0 1-2.239-2.567l.794-5.8-4.515 3.652a2.26 2.26 0 0 1-3.389-.646l-.14-.247a2.26 2.26 0 0 1 1.175-3.228l5.322-2-5.268-1.951a2.261 2.261 0 0 1-1.191-3.217l.026-.047a2.26 2.26 0 0 1 3.354-.694l4.627 3.559-.832-5.786a2.26 2.26 0 0 1 2.237-2.582h.153a2.261 2.261 0 0 1 2.235 2.6l-.87 5.771 4.521-3.5a2.26 2.26 0 0 1 3.355.677z" class="cls-7" data-name="Path 39703" transform="translate(-1400.63 -372.338)"/></g><g id="Group_4092" data-name="Group 4092" transform="translate(78.042 11.991)"><path id="Path_39704" d="M1469.792 377.887a2.26 2.26 0 0 1-1.182 3.227l-5.375 2 5.369 1.959a2.26 2.26 0 0 1 1.2 3.22l-.058.105a2.26 2.26 0 0 1-3.387.67l-4.444-3.547.87 5.772a2.261 2.261 0 0 1-2.235 2.6h-.113a2.26 2.26 0 0 1-2.239-2.567l.795-5.8-4.515 3.652a2.261 2.261 0 0 1-3.389-.646l-.139-.247a2.26 2.26 0 0 1 1.174-3.228l5.322-2-5.268-1.951a2.26 2.26 0 0 1-1.19-3.217l.026-.047a2.26 2.26 0 0 1 3.354-.694l4.626 3.559-.832-5.786a2.26 2.26 0 0 1 2.237-2.582h.153a2.261 2.261 0 0 1 2.235 2.6l-.87 5.771 4.522-3.5a2.26 2.26 0 0 1 3.353.677z" class="cls-7" data-name="Path 39704" transform="translate(-1450.656 -372.338)"/></g><g id="Group_4093" data-name="Group 4093" transform="translate(109.383 11.991)"><path id="Path_39705" d="M1519.817 377.887a2.26 2.26 0 0 1-1.182 3.227l-5.375 2 5.369 1.959a2.261 2.261 0 0 1 1.2 3.22l-.059.105a2.26 2.26 0 0 1-3.387.67l-4.444-3.547.87 5.772a2.26 2.26 0 0 1-2.235 2.6h-.113a2.26 2.26 0 0 1-2.24-2.567l.8-5.8-4.515 3.652a2.261 2.261 0 0 1-3.39-.646l-.139-.247a2.26 2.26 0 0 1 1.175-3.228l5.322-2-5.268-1.951a2.26 2.26 0 0 1-1.191-3.217l.026-.047a2.26 2.26 0 0 1 3.354-.694l4.627 3.559-.833-5.786a2.26 2.26 0 0 1 2.237-2.582h.153a2.261 2.261 0 0 1 2.235 2.6l-.87 5.771 4.521-3.5a2.26 2.26 0 0 1 3.352.677z" class="cls-7" data-name="Path 39705" transform="translate(-1500.682 -372.338)"/></g><g id="Group_4094" data-name="Group 4094" transform="translate(140.724 11.991)"><path id="Path_39706" d="M1569.842 377.887a2.26 2.26 0 0 1-1.182 3.227l-5.375 2 5.369 1.959a2.261 2.261 0 0 1 1.2 3.22l-.058.105a2.261 2.261 0 0 1-3.387.67l-4.444-3.547.87 5.772a2.26 2.26 0 0 1-2.235 2.6h-.113a2.26 2.26 0 0 1-2.239-2.567l.794-5.8-4.515 3.652a2.261 2.261 0 0 1-3.39-.646l-.14-.247a2.26 2.26 0 0 1 1.175-3.228l5.322-2-5.268-1.951a2.261 2.261 0 0 1-1.191-3.217l.026-.047a2.26 2.26 0 0 1 3.354-.694l4.627 3.559-.832-5.786a2.26 2.26 0 0 1 2.237-2.582h.153a2.261 2.261 0 0 1 2.235 2.6l-.87 5.771 4.521-3.5a2.26 2.26 0 0 1 3.356.677z" class="cls-7" data-name="Path 39706" transform="translate(-1550.706 -372.338)"/></g></g><g id="Group_4096" data-name="Group 4096" transform="translate(1432.661 226.797)"><path id="Path_39707" d="M1760.369 459.967a80.83 80.83 0 0 1-6.877 25.566l37.375 10.8 8.133-25.2zM1781.127 493l-.008.016z" class="cls-11" data-name="Path 39707" transform="translate(-1602.461 -372.827)"/><path id="Path_39708" d="m1895.872 495.8-68.167-20.268-.075.24a2 2 0 0 1-.05.959l-.415 1.33-7.887 25.274-.6 1.91a2.034 2.034 0 0 1-.13.313l68.851 19.587c5.972 1.726 12.69-3.378 15.005-11.4l.085-.294c2.319-8.02-.645-15.922-6.617-17.651z" class="cls-6" data-name="Path 39708" transform="translate(-1626.76 -378.642)"/><path id="Path_39709" d="M1542.086 398.153c.079-.156.157-.314.237-.469a51.02 51.02 0 0 1-.237.469z" class="cls-15" data-name="Path 39709" transform="translate(-1523.502 -349.565)"/><path id="Path_39710" d="M1638.618 452.57a71.8 71.8 0 0 1-44.159 18.274A70.58 70.58 0 0 1 1549.5 457.4a71.512 71.512 0 0 1 57.474-127.635 70.705 70.705 0 0 1 40.477 25.828 71.9 71.9 0 0 1 14.813 45.236c-.029 1.6-.12 3.2-.259 4.783l8.331 2.408c3.685-37.438-19.487-73.286-56.667-84.032-41.964-12.129-85.873 12.313-98.074 54.591s11.925 86.383 53.888 98.511c38.143 11.024 77.891-8.168 93.976-43.5l-8.656-2.5a72.845 72.845 0 0 1-16.185 21.48z" class="cls-16" data-name="Path 39710" transform="translate(-1512.423 -320.879)"/><path id="Path_39711" d="M1622.069 341.13a67.716 67.716 0 0 1 15.128 6.444 68.385 68.385 0 0 0-18-7.455 67.412 67.412 0 0 0-46.514 5.263 68.181 68.181 0 0 0-29.495 29.2 68.146 68.146 0 0 1 78.881-33.452z" class="cls-15" data-name="Path 39711" transform="translate(-1523.915 -327.325)"/><path id="Path_39712" d="m1755.209 458.532-8.331-2.408a71.491 71.491 0 0 1-7.2 25.473l8.656 2.5a80.822 80.822 0 0 0 6.877-25.567z" class="cls-16" data-name="Path 39712" transform="translate(-1597.3 -371.392)"/><path id="Path_39713" d="M1653.978 367.931a66.133 66.133 0 0 0-21.4-20.167 67.922 67.922 0 0 0-94.005 27.011c-.151.287-.309.57-.455.86-.08.155-.158.313-.237.469q-1.339 2.7-2.442 5.506a67.789 67.789 0 0 0 30.288 84.078 67.127 67.127 0 0 0 77.349-9.189 68.892 68.892 0 0 0 21.981-42.559c.109-.905.192-1.812.264-2.718a68.688 68.688 0 0 0-11.343-43.291zm-47.346 97.617a57.824 57.824 0 0 1-61.99-27.938c-12.243-21.475-8.66-48.724 7.454-67.2a53.121 53.121 0 0 1 5.053-4.99c4.615-4.043 11.193 2.849 6.544 6.922-16.4 14.371-21.636 38.149-12.167 57.864a48.083 48.083 0 0 0 52.789 26.067c6.003-1.245 8.328 8.027 2.316 9.274zm21.853-9.237a6.26 6.26 0 1 1-4.266-7.8 6.28 6.28 0 0 1 4.265 7.8z" data-name="Path 39713" transform="translate(-1519.291 -327.515)" style="opacity:.2;fill:#3ababa"/><path id="Path_39714" d="M1548.529 452.837a57.823 57.823 0 0 0 61.99 27.938c6.012-1.245 3.687-10.519-2.317-9.275a48.083 48.083 0 0 1-52.789-26.067c-9.47-19.715-4.234-43.492 12.167-57.864 4.649-4.073-1.93-10.966-6.544-6.922a53.137 53.137 0 0 0-5.053 4.99c-16.113 18.476-19.697 45.725-7.454 67.2z" class="cls-18" data-name="Path 39714" transform="translate(-1523.18 -342.743)"/><path id="Path_39715" d="M1671.628 525.982a6.306 6.306 0 1 0-4.265-7.8 6.28 6.28 0 0 0 4.265 7.8z" data-name="Path 39715" transform="translate(-1570.198 -392.865)" style="fill:#ccdfe1"/><path id="Path_39716" d="M1671.628 525.982a6.306 6.306 0 1 0-4.265-7.8 6.28 6.28 0 0 0 4.265 7.8z" class="cls-18" data-name="Path 39716" transform="translate(-1570.198 -392.865)"/><path id="Path_39717" d="M1830.46 474.938a1.977 1.977 0 0 0-1.293-1.523l-.038-.013a1.99 1.99 0 0 0-2.539 1.279l-.461 1.429 3.638 1.051z" class="cls-20" data-name="Path 39717" transform="translate(-1629.59 -377.804)"/><path id="Path_39718" d="m1816.621 519.139-3.883-1.123-.59 1.828a1.992 1.992 0 0 0 1.487 2.569l.324.066a1.988 1.988 0 0 0 2.165-1.053l-.2-.057z" class="cls-21" data-name="Path 39718" transform="translate(-1624.332 -394.508)"/><path id="Path_39719" d="m1824.918 478.84-3.638-1.051-8.132 25.2 3.883 1.122z" class="cls-21" data-name="Path 39719" transform="translate(-1624.742 -379.483)"/><path id="Path_39720" d="m1832.164 478.207.415-1.33a2 2 0 0 0 .05-.959l-.694 2.223z" class="cls-20" data-name="Path 39720" transform="translate(-1631.759 -378.785)"/><path id="Path_39721" d="m1819.16 519.874-.229-.066-.7 2.231.2.057a2.034 2.034 0 0 0 .13-.313z" class="cls-21" data-name="Path 39721" transform="translate(-1626.642 -395.177)"/><path id="Path_39722" d="m1819.346 504.741.229.066 7.887-25.274-.229-.066z" class="cls-21" data-name="Path 39722" transform="translate(-1627.057 -380.11)"/><path id="Path_39723" d="M1713.806 515.255a1.739 1.739 0 0 1 .026 2.651 72.845 72.845 0 0 0 16.181-21.486l-2.1-.607a68.378 68.378 0 0 1-14.107 19.442z" class="cls-10" data-name="Path 39723" transform="translate(-1587.638 -386.215)"/><path id="Path_39724" d="M1712.27 526.845q-1.259 1.213-2.577 2.357a1.71 1.71 0 0 0 2.6.294 1.739 1.739 0 0 0-.023-2.651z" class="cls-10" data-name="Path 39724" transform="translate(-1586.102 -397.806)"/><path id="Path_39725" d="M1652.149 359.9a70.588 70.588 0 0 0-86.987-20.351A71.688 71.688 0 0 0 1554.2 461.7a70.579 70.579 0 0 0 44.963 13.445 71.8 71.8 0 0 0 44.159-18.274 1.71 1.71 0 0 1-2.6-.294 67.828 67.828 0 0 1-63.448 14.116c-36.1-10.433-56.855-48.375-46.358-84.745a69.359 69.359 0 0 1 4.8-12.179c.078-.157.158-.313.237-.469.149-.288.3-.574.455-.86a68.182 68.182 0 0 1 29.495-29.2 67.411 67.411 0 0 1 46.514-5.263 69.108 69.108 0 0 1 51.79 71.215l2.5.724c.139-1.588.23-3.183.259-4.783a71.9 71.9 0 0 0-14.817-45.233z" class="cls-10" data-name="Path 39725" transform="translate(-1517.126 -325.184)"/><path id="Path_39726" d="M1740.561 469.511a69.42 69.42 0 0 1-4.235 11.047l2.1.607a71.491 71.491 0 0 0 7.2-25.473l-2.5-.724a69.252 69.252 0 0 1-2.565 14.543z" class="cls-10" data-name="Path 39726" transform="translate(-1596.049 -370.96)"/><path id="Path_39727" d="M1709.994 514.951a1.687 1.687 0 0 1 2.388.056 68.378 68.378 0 0 0 14.109-19.442l-1.437-.415a68.893 68.893 0 0 1-15.06 19.801z" class="cls-10" data-name="Path 39727" transform="translate(-1586.214 -385.968)"/><path id="Path_39728" d="M1542.465 397.172c.146-.289.3-.573.455-.86-.152.288-.306.571-.455.86z" data-name="Path 39728" transform="translate(-1523.644 -349.052)" style="fill:#67859a"/><path id="Path_39729" d="M1709.639 526.475a1.717 1.717 0 0 0-.188 2.413q1.315-1.145 2.577-2.357a1.687 1.687 0 0 0-2.389-.056z" class="cls-10" data-name="Path 39729" transform="translate(-1585.859 -397.492)"/><path id="Path_39730" d="M1714.643 373.366a68.687 68.687 0 0 1 11.338 43.29l1.051.3a68.438 68.438 0 0 0-33.793-63.76 66.128 66.128 0 0 1 21.404 20.17z" class="cls-10" data-name="Path 39730" transform="translate(-1579.956 -332.95)"/><path id="Path_39731" d="M1642.8 478.828a67.076 67.076 0 0 1-108.586-27.928 68.749 68.749 0 0 1 .945-46.966q1.1-2.81 2.442-5.506a69.36 69.36 0 0 0-4.8 12.179c-10.5 36.37 10.259 74.312 46.358 84.745a67.828 67.828 0 0 0 63.448-14.116 1.717 1.717 0 0 1 .193-2.408z" class="cls-10" data-name="Path 39731" transform="translate(-1519.017 -349.845)"/><path id="Path_39732" d="M1740.953 457.2a68.4 68.4 0 0 1-6.92 22.758l1.437.415a69.509 69.509 0 0 0 6.8-25.589l-1.051-.3a66.024 66.024 0 0 1-.266 2.716z" class="cls-10" data-name="Path 39732" transform="translate(-1595.193 -370.78)"/></g><g id="Group_4098" data-name="Group 4098" transform="translate(1540.149 68.982)"><path id="Path_39733" d="m1731.542 70.86-47.042 81.48a3.756 3.756 0 0 0 3.252 5.634h94.085a3.756 3.756 0 0 0 3.253-5.634l-47.043-81.48a3.756 3.756 0 0 0-6.505 0z" class="cls-6" data-name="Path 39733" transform="translate(-1683.99 -68.982)"/><g id="Group_4097" data-name="Group 4097" transform="translate(44.188 28.827)"><path id="Path_39734" d="m1757.917 149.241-3.4-34.247 13.232.07-3.326 34.177zm-2.547 4.812h11.53v11.392h-11.53z" data-name="Path 39734" transform="translate(-1754.521 -114.994)" style="fill:#fff"/></g></g><g id="Group_4101" data-name="Group 4101" transform="translate(1611.21 242.326)"><g id="Group_4099" data-name="Group 4099" transform="translate(0 30.77)"><path id="Path_39735" d="M1797.426 461.886c0-.046.011-.091.018-.137.352-2.065 2.4-2.052 3.488-3.324 1.021-1.19 0-3.636 1.675-4.076.7-.185 2.161-.2 3.5-.566a12.948 12.948 0 0 0 5.619-3.922 236.564 236.564 0 0 1 19.058-19.771 2.941 2.941 0 0 0 .957-1.194 3.437 3.437 0 0 0-.5-2.53 65.422 65.422 0 0 1-4.122-11.84c-.82-3.68-1.319-7.391-.412-11.084s3.288-6.954 6.855-8.149a7.543 7.543 0 0 1 7.677 1.225c5.216 4.778 3.144 12.731 2.938 18.912-.2 5.848-.381 10.822-.939 16.462a4.8 4.8 0 0 1-.493 1.979 5 5 0 0 1-1.534 1.5c-7.462 5.319-14.871 10.313-21.007 17.116-1.686 1.869-3.809 2.779-5.214 4.786-.9 1.281-.653 2.922-1.336 4.294a12.206 12.206 0 0 1-2.727 3.883c-3.179 2.677-10.471 2.129-12.833-1.438a3.35 3.35 0 0 1-.668-2.126z" class="cls-4" data-name="Path 39735" transform="translate(-1797.414 -394.778)"/></g><g id="Group_4100" data-name="Group 4100" transform="translate(16.972)"><path id="Path_39736" d="M1855.291 395.1c.014 6.282-.14 12.56-.57 18.83a5.963 5.963 0 0 1-2.453 5.3 156.954 156.954 0 0 1-16.606 12.9.924.924 0 0 1-1.324.019c-1.786-1.234-9.8-5.306-9.833-7.322-.031-2.25 4.733-4.143 6.185-5.312q3.85-3.1 7.458-6.486a5.444 5.444 0 0 0 1.93-2.841 5.808 5.808 0 0 0-.724-3.172c-2.566-5.961-4.037-12.408-6.117-18.562-1.437-4.257-3.267-8.546-4.293-12.927-2.018-8.616-3.551-11.842-2.239-18.134 1.256-6.029 5.6-11.83 12.284-11.726 6.92.108 11.983 6.157 14.24 12.119a24.916 24.916 0 0 1 1.173 7.768c.433 9.846.867 19.699.889 29.546z" class="cls-5" data-name="Path 39736" transform="translate(-1824.504 -345.665)"/></g></g><g id="Group_4102" data-name="Group 4102" transform="translate(1300.119 256.102)"><path id="Path_39737" d="M1314.333 370.521a1.658 1.658 0 0 1 1.008-.3c.531.078.846.635.994 1.15a5.075 5.075 0 0 1-1.89 5.392c2.222 1.382 5.916-1.24 7.445.883a3.772 3.772 0 0 1 .5 2.137q.125 4.487.057 8.978a2.725 2.725 0 0 1-3.153 3.3l-3.869.263c-2.143.146-4.56.2-6.117-1.28-1.333-1.266-1.6-3.262-1.744-5.095q-.341-4.311-.364-8.64c-.027-4.433 3.839-4.948 7.133-6.788z" class="cls-4" data-name="Path 39737" transform="translate(-1303.231 -368.608)"/><path id="Path_39738" d="m1302.662 373.89-1.491 11.275a15.054 15.054 0 0 0 .042 6.181 7.653 7.653 0 0 0 5.607 5.224c1.625.352 3.84-.338 3.856-2a3.746 3.746 0 0 0-.64-1.773c-4.424-8.019-2.269-16.546-2.532-25.137-3.551-.184-4.468 3.401-4.842 6.23z" class="cls-10" data-name="Path 39738" transform="translate(-1300.866 -367.653)"/></g></g></svg>