<svg xmlns="http://www.w3.org/2000/svg" id="prefix___003-servers-1" width="75.3" height="66.515" data-name="003-servers-1" viewBox="0 0 75.3 66.515">
    <defs>
        <style>
            .prefix__cls-1{fill:#87AB49}
        </style>
    </defs>
    <g id="prefix__Group_7545" data-name="Group 7545">
        <g id="prefix__Group_7544" data-name="Group 7544">
            <path id="prefix__Path_49074" d="M385.255 83.577h2.51a1.255 1.255 0 1 0 0-2.51h-2.51a1.255 1.255 0 0 0 0 2.51z" class="prefix__cls-1" data-name="Path 49074" transform="translate(-327.525 -73.537)"/>
            <path id="prefix__Path_49075" d="M334.055 83.577h2.51a1.255 1.255 0 0 0 0-2.51h-2.51a1.255 1.255 0 1 0 0 2.51z" class="prefix__cls-1" data-name="Path 49075" transform="translate(-283.855 -73.537)"/>
            <path id="prefix__Path_49076" d="M334.055 185.977h2.51a1.255 1.255 0 0 0 0-2.51h-2.51a1.255 1.255 0 1 0 0 2.51z" class="prefix__cls-1" data-name="Path 49076" transform="translate(-283.855 -160.877)"/>
            <path id="prefix__Path_49077" d="M106.165 71.53a3.765 3.765 0 1 0-3.765-3.765 3.765 3.765 0 0 0 3.765 3.765zm0-5.02a1.255 1.255 0 1 1-1.255 1.255 1.255 1.255 0 0 1 1.255-1.255z" class="prefix__cls-1" data-name="Path 49077" transform="translate(-87.34 -58.98)"/>
            <path id="prefix__Path_49078" d="M106.165 173.93a3.765 3.765 0 1 0-3.765-3.765 3.765 3.765 0 0 0 3.765 3.765zm0-5.02a1.255 1.255 0 1 1-1.255 1.255 1.255 1.255 0 0 1 1.255-1.255z" class="prefix__cls-1" data-name="Path 49078" transform="translate(-87.34 -146.32)"/>
            <path id="prefix__Path_49079" d="M106.165 268.8a3.765 3.765 0 1 0 3.765 3.765 3.765 3.765 0 0 0-3.765-3.765zm0 5.02a1.255 1.255 0 1 1 1.255-1.255 1.255 1.255 0 0 1-1.255 1.255z" class="prefix__cls-1" data-name="Path 49079" transform="translate(-87.34 -233.66)"/>
            <path id="prefix__Path_49080" d="M65.26 382.5H48.945a2.51 2.51 0 0 0-2.51-2.51h-5.02v-7.53a1.255 1.255 0 0 0-1.255-1.26h-5.02a1.255 1.255 0 0 0-1.255 1.255v7.53h-5.02a2.51 2.51 0 0 0-2.51 2.51h-25.1a1.255 1.255 0 0 0 0 2.51h25.1a2.51 2.51 0 0 0 2.51 2.51h17.57a2.51 2.51 0 0 0 2.51-2.51H65.26a1.255 1.255 0 1 0 0-2.51zm-28.86-8.79h2.51v6.275H36.4zm10.04 11.295H28.865V382.5h17.57v2.51z" class="prefix__cls-1" data-name="Path 49080" transform="translate(0 -321)"/>
            <path id="prefix__Path_49081" d="M474.354 448h-3.765a1.255 1.255 0 1 0 0 2.51h3.765a1.255 1.255 0 0 0 0-2.51z" class="prefix__cls-1" data-name="Path 49081" transform="translate(-400.309 -386.505)"/>
            <path id="prefix__Path_49082" d="M117.715 59.986a14.228 14.228 0 0 1-6.549-1.992 6.139 6.139 0 0 0 .274-1.773V51.2a6.253 6.253 0 0 0-2.549-5.02 6.252 6.252 0 0 0 2.549-5.02v-5.02a6.283 6.283 0 0 0-6.275-6.275h-47.69a6.283 6.283 0 0 0-6.275 6.276v5.02a6.253 6.253 0 0 0 2.549 5.02A6.252 6.252 0 0 0 51.2 51.2v5.02a6.253 6.253 0 0 0 2.549 5.02 6.252 6.252 0 0 0-2.549 5.02v5.02a6.283 6.283 0 0 0 6.275 6.275H96.6a28.659 28.659 0 0 0 9.214 8.627 1.39 1.39 0 0 0 .191.077c.034.011.065.03.1.039a1.208 1.208 0 0 0 .636 0 .993.993 0 0 0 .109-.043 1.244 1.244 0 0 0 .182-.073l.016-.009c.607-.335 11.925-6.806 11.925-17.4v-7.53a1.255 1.255 0 0 0-1.258-1.257zM53.71 41.161v-5.02a3.765 3.765 0 0 1 3.765-3.765h47.69a3.765 3.765 0 0 1 3.765 3.765v5.02a3.765 3.765 0 0 1-3.765 3.765h-47.69a3.765 3.765 0 0 1-3.765-3.765zm0 15.06V51.2a3.765 3.765 0 0 1 3.765-3.765h47.69a3.765 3.765 0 0 1 3.765 3.765v5a10.618 10.618 0 0 1-1.435-1.882c-.009-.016-.026-.024-.036-.04a1.308 1.308 0 0 0-.169-.186 1.279 1.279 0 0 0-.183-.167c-.015-.01-.024-.026-.04-.036a1.122 1.122 0 0 0-.166-.059 1.286 1.286 0 0 0-.241-.087 1.085 1.085 0 0 0-.73.09 1.01 1.01 0 0 0-.156.055c-.015.009-.024.025-.039.035a2.718 2.718 0 0 0-.354.354c-.01.016-.028.024-.036.04-3.341 5.571-10.154 5.67-10.219 5.67H57.475a3.765 3.765 0 0 1-3.765-3.766zm3.765 18.825a3.765 3.765 0 0 1-3.765-3.765v-5.02a3.765 3.765 0 0 1 3.765-3.761h36.4v6.275a15.327 15.327 0 0 0 1.391 6.275zm58.985-6.275c0 7.893-7.8 13.418-10.04 14.845-2.245-1.417-10.04-6.931-10.04-14.845v-6.363a15.234 15.234 0 0 0 10.04-5.271 15.234 15.234 0 0 0 10.04 5.271z" class="prefix__cls-1" data-name="Path 49082" transform="translate(-43.67 -29.866)"/>
            <path id="prefix__Path_49083" d="M401.436 287.1a1.255 1.255 0 0 0 1.775 0l7.53-7.53a1.255 1.255 0 0 0-1.775-1.775l-7.53 7.53a1.255 1.255 0 0 0 0 1.775z" class="prefix__cls-1" data-name="Path 49083" transform="translate(-342.083 -241.028)"/>
            <path id="prefix__Path_49084" d="M392.812 257.211a1.255 1.255 0 1 0 1.775 1.775l5.02-5.02a1.255 1.255 0 0 0-1.775-1.775z" class="prefix__cls-1" data-name="Path 49084" transform="translate(-334.714 -219.193)"/>
        </g>
    </g>
</svg>
