<svg xmlns="http://www.w3.org/2000/svg" id="prefix___002-servers" width="81.053" height="81.482" data-name="002-servers" viewBox="0 0 81.053 81.482">
    <defs>
        <style>
            .prefix__cls-1{fill:#87AB49}
        </style>
    </defs>
    <g id="prefix__Group_7543" data-name="Group 7543">
        <g id="prefix__Group_7542" data-name="Group 7542">
            <path id="prefix__Path_49063" d="M48.879 187.733H8.138a6.8 6.8 0 0 0-6.79 6.79v5.432a6.766 6.766 0 0 0 2.758 5.432 6.766 6.766 0 0 0-2.758 5.432v5.432a6.766 6.766 0 0 0 2.758 5.432 6.767 6.767 0 0 0-2.758 5.432v5.432a6.8 6.8 0 0 0 6.79 6.79h40.741a6.8 6.8 0 0 0 6.79-6.79v-5.432a6.766 6.766 0 0 0-2.758-5.432 6.765 6.765 0 0 0 2.758-5.432v-5.432a6.766 6.766 0 0 0-2.758-5.432 6.766 6.766 0 0 0 2.758-5.432v-5.432a6.8 6.8 0 0 0-6.79-6.79zm4.074 39.383v5.432a4.074 4.074 0 0 1-4.074 4.074H8.138a4.074 4.074 0 0 1-4.074-4.074v-5.432a4.074 4.074 0 0 1 4.074-4.074h40.741a4.074 4.074 0 0 1 4.074 4.074zm0-16.3v5.432a4.074 4.074 0 0 1-4.074 4.074H8.138a4.074 4.074 0 0 1-4.074-4.074v-5.432a4.074 4.074 0 0 1 4.074-4.074h40.741a4.074 4.074 0 0 1 4.074 4.077zm0-10.864a4.074 4.074 0 0 1-4.074 4.074H8.138a4.074 4.074 0 0 1-4.074-4.074v-5.432a4.074 4.074 0 0 1 4.074-4.074h40.741a4.074 4.074 0 0 1 4.074 4.074z" class="prefix__cls-1" data-name="Path 49063" transform="translate(-1.348 -157.856)"/>
            <path id="prefix__Path_49064" d="M252.889 238.933h-2.716a1.358 1.358 0 1 0 0 2.716h2.716a1.358 1.358 0 1 0 0-2.716z" class="prefix__cls-1" data-name="Path 49064" transform="translate(-209.432 -200.908)"/>
            <path id="prefix__Path_49065" d="M201.689 238.933h-2.716a1.358 1.358 0 1 0 0 2.716h2.716a1.358 1.358 0 0 0 0-2.716z" class="prefix__cls-1" data-name="Path 49065" transform="translate(-166.38 -200.908)"/>
            <path id="prefix__Path_49066" d="M56.622 221.867a4.074 4.074 0 1 0 4.074 4.074 4.074 4.074 0 0 0-4.074-4.074zm0 5.432a1.358 1.358 0 1 1 1.358-1.358 1.358 1.358 0 0 1-1.358 1.359z" class="prefix__cls-1" data-name="Path 49066" transform="translate(-44.4 -186.558)"/>
            <path id="prefix__Path_49067" d="M252.889 341.333h-2.716a1.358 1.358 0 1 0 0 2.716h2.716a1.358 1.358 0 1 0 0-2.716z" class="prefix__cls-1" data-name="Path 49067" transform="translate(-209.432 -287.012)"/>
            <path id="prefix__Path_49068" d="M201.689 341.333h-2.716a1.358 1.358 0 1 0 0 2.716h2.716a1.358 1.358 0 0 0 0-2.716z" class="prefix__cls-1" data-name="Path 49068" transform="translate(-166.38 -287.012)"/>
            <path id="prefix__Path_49069" d="M56.622 324.267a4.074 4.074 0 1 0 4.074 4.074 4.074 4.074 0 0 0-4.074-4.074zm0 5.432a1.358 1.358 0 1 1 1.358-1.358 1.358 1.358 0 0 1-1.358 1.359z" class="prefix__cls-1" data-name="Path 49069" transform="translate(-44.4 -272.662)"/>
            <path id="prefix__Path_49070" d="M252.889 443.733h-2.716a1.358 1.358 0 1 0 0 2.716h2.716a1.358 1.358 0 1 0 0-2.716z" class="prefix__cls-1" data-name="Path 49070" transform="translate(-209.432 -373.116)"/>
            <path id="prefix__Path_49071" d="M201.689 443.733h-2.716a1.358 1.358 0 1 0 0 2.716h2.716a1.358 1.358 0 1 0 0-2.716z" class="prefix__cls-1" data-name="Path 49071" transform="translate(-166.38 -373.116)"/>
            <path id="prefix__Path_49072" d="M56.622 426.667a4.074 4.074 0 1 0 4.074 4.074 4.074 4.074 0 0 0-4.074-4.074zm0 5.432a1.358 1.358 0 1 1 1.358-1.358 1.358 1.358 0 0 1-1.358 1.359z" class="prefix__cls-1" data-name="Path 49072" transform="translate(-44.4 -358.766)"/>
            <path id="prefix__Path_49073" d="M285.523 18.2C283.381 7.655 274.448 0 264.281 0s-19.1 7.655-21.242 18.2a2.725 2.725 0 0 0 3.914 2.975 8.51 8.51 0 0 1 3.748-.8 7.175 7.175 0 0 1 4.85 1.566 2.749 2.749 0 0 0 1.836.8c.027 0 .05.015.076.015h.1c.016 0 .03-.011.048-.014a2.743 2.743 0 0 0 1.825-.794 6.31 6.31 0 0 1 3.491-1.472V42.1a4.074 4.074 0 0 0 8.148 0v-5.433a1.358 1.358 0 1 0-2.716 0V42.1a1.358 1.358 0 0 1-2.716 0V20.467a6.3 6.3 0 0 1 3.491 1.469 2.752 2.752 0 0 0 1.822.794c.018 0 .033.012.05.014h.1c.028 0 .053-.014.083-.016a2.742 2.742 0 0 0 1.828-.793 7.172 7.172 0 0 1 4.851-1.564 8.5 8.5 0 0 1 3.75.807 2.725 2.725 0 0 0 3.912-2.979zm-29.473.762a10.946 10.946 0 0 0-5.349-1.305 11.438 11.438 0 0 0-5 1.086 19.789 19.789 0 0 1 15.075-15.664c-3.964 5.205-4.676 12.048-4.726 15.88zm8.231-1.305a10.833 10.833 0 0 0-5.505 1.395c.058-3.764.827-11.173 5.505-15.827 4.678 4.657 5.447 12.062 5.505 15.827a10.835 10.835 0 0 0-5.505-1.398zm13.58 0a11.128 11.128 0 0 0-5.349 1.291c-.053-3.835-.762-10.662-4.73-15.867a19.725 19.725 0 0 1 15.05 15.673 11.079 11.079 0 0 0-4.971-1.1z" class="prefix__cls-1" data-name="Path 49073" transform="translate(-204.528)"/>
        </g>
    </g>
</svg>
