<svg xmlns="http://www.w3.org/2000/svg" id="prefix___005-server" width="72.947" height="70.516" data-name="005-server" viewBox="0 0 72.947 70.516">
    <defs>
        <style>
            .prefix__cls-1{fill:#87AB49}
        </style>
    </defs>
    <g id="prefix__Group_7547" data-name="Group 7547">
        <g id="prefix__Group_7546" data-name="Group 7546">
            <path id="prefix__Path_49085" d="M107.262 60.736h-2.432a2.434 2.434 0 0 0-2.432 2.432V65.6a2.434 2.434 0 0 0 2.432 2.432h2.432a2.434 2.434 0 0 0 2.432-2.432v-2.433a2.434 2.434 0 0 0-2.432-2.431zm-2.431 4.864v-2.433h2.432V65.6z" class="prefix__cls-1" data-name="Path 49085" transform="translate(-87.81 -53.44)"/>
            <path id="prefix__Path_49086" d="M39 60.736h-2.435a2.434 2.434 0 0 0-2.432 2.432V65.6a2.434 2.434 0 0 0 2.432 2.432H39a2.434 2.434 0 0 0 2.428-2.432v-2.433A2.434 2.434 0 0 0 39 60.736zM36.565 65.6v-2.433H39V65.6z" class="prefix__cls-1" data-name="Path 49086" transform="translate(-29.27 -53.44)"/>
            <path id="prefix__Path_49087" d="M188.9 61.952a1.215 1.215 0 0 0-1.216-1.216h-15.801a1.216 1.216 0 1 0 0 2.431h15.805a1.215 1.215 0 0 0 1.212-1.215z" class="prefix__cls-1" data-name="Path 49087" transform="translate(-146.351 -53.44)"/>
            <path id="prefix__Path_49088" d="M107.262 180.2h-2.432a2.434 2.434 0 0 0-2.432 2.432v2.432a2.434 2.434 0 0 0 2.432 2.432h2.432a2.434 2.434 0 0 0 2.432-2.432v-2.432a2.434 2.434 0 0 0-2.432-2.432zm-2.431 4.863v-2.432h2.432v2.432z" class="prefix__cls-1" data-name="Path 49088" transform="translate(-87.81 -155.885)"/>
            <path id="prefix__Path_49089" d="M39 180.2h-2.435a2.434 2.434 0 0 0-2.432 2.432v2.432a2.434 2.434 0 0 0 2.432 2.432H39a2.434 2.434 0 0 0 2.432-2.432v-2.432A2.434 2.434 0 0 0 39 180.2zm-2.432 4.863v-2.432H39v2.432z" class="prefix__cls-1" data-name="Path 49089" transform="translate(-29.27 -155.885)"/>
            <path id="prefix__Path_49090" d="M107.262 299.669h-2.432a2.434 2.434 0 0 0-2.43 2.431v2.432a2.434 2.434 0 0 0 2.432 2.432h2.432a2.434 2.434 0 0 0 2.432-2.432V302.1a2.434 2.434 0 0 0-2.434-2.431zm-2.431 4.863V302.1h2.432v2.432z" class="prefix__cls-1" data-name="Path 49090" transform="translate(-87.81 -258.331)"/>
            <path id="prefix__Path_49091" d="M39 299.669h-2.435a2.434 2.434 0 0 0-2.432 2.432v2.432a2.434 2.434 0 0 0 2.432 2.432H39a2.434 2.434 0 0 0 2.432-2.432V302.1A2.434 2.434 0 0 0 39 299.669zm-2.432 4.863V302.1H39v2.432z" class="prefix__cls-1" data-name="Path 49091" transform="translate(-29.27 -258.331)"/>
            <path id="prefix__Path_49092" d="M72.947 41.146V31.42a4.868 4.868 0 0 0-4.863-4.863H47.977a4.833 4.833 0 0 0 .654-2.432V14.4a4.868 4.868 0 0 0-4.863-4.863H4.863A4.868 4.868 0 0 0 0 14.4v9.726a4.851 4.851 0 0 0 1.651 3.647A4.851 4.851 0 0 0 0 31.42v9.726a4.851 4.851 0 0 0 1.651 3.647A4.851 4.851 0 0 0 0 48.441v9.726a4.868 4.868 0 0 0 4.863 4.863H24.97a4.833 4.833 0 0 0-.654 2.432v9.726a4.868 4.868 0 0 0 4.863 4.863h38.9a4.868 4.868 0 0 0 4.863-4.863v-9.726a4.851 4.851 0 0 0-1.642-3.648 4.852 4.852 0 0 0 1.651-3.647v-9.726a4.851 4.851 0 0 0-1.651-3.648 4.851 4.851 0 0 0 1.647-3.647zM2.432 24.125V14.4a2.434 2.434 0 0 1 2.432-2.432h38.9A2.434 2.434 0 0 1 46.2 14.4v9.726a2.434 2.434 0 0 1-2.432 2.432H4.863a2.434 2.434 0 0 1-2.431-2.433zm0 17.021V31.42a2.434 2.434 0 0 1 2.432-2.432H24.97a4.833 4.833 0 0 0-.654 2.432v9.726a4.832 4.832 0 0 0 .654 2.432H4.863a2.434 2.434 0 0 1-2.431-2.432zm0 17.021v-9.726a2.434 2.434 0 0 1 2.432-2.432H24.97a4.833 4.833 0 0 0-.654 2.432v9.726a4.832 4.832 0 0 0 .654 2.433H4.863a2.434 2.434 0 0 1-2.431-2.433zm68.083 7.295v9.726a2.434 2.434 0 0 1-2.432 2.432h-38.9a2.434 2.434 0 0 1-2.432-2.432v-9.726a2.434 2.434 0 0 1 2.432-2.432h38.9a2.434 2.434 0 0 1 2.432 2.432zm0-17.021v9.726a2.434 2.434 0 0 1-2.432 2.433h-38.9a2.434 2.434 0 0 1-2.432-2.432v-9.727a2.434 2.434 0 0 1 2.432-2.432h38.9a2.434 2.434 0 0 1 2.432 2.432zm-41.336-4.863a2.434 2.434 0 0 1-2.432-2.432V31.42a2.434 2.434 0 0 1 2.432-2.432h38.9a2.434 2.434 0 0 1 2.432 2.432v9.726a2.434 2.434 0 0 1-2.432 2.432z" class="prefix__cls-1" data-name="Path 49092" transform="translate(0 -9.535)"/>
            <path id="prefix__Path_49093" d="M277.929 180.2H275.5a2.434 2.434 0 0 0-2.432 2.432v2.432a2.434 2.434 0 0 0 2.432 2.436h2.432a2.434 2.434 0 0 0 2.432-2.432v-2.432a2.434 2.434 0 0 0-2.435-2.436zm-2.432 4.863v-2.432h2.432v2.432z" class="prefix__cls-1" data-name="Path 49093" transform="translate(-234.161 -155.885)"/>
            <path id="prefix__Path_49094" d="M209.662 180.2h-2.432a2.434 2.434 0 0 0-2.432 2.432v2.432a2.434 2.434 0 0 0 2.432 2.432h2.432a2.434 2.434 0 0 0 2.432-2.432v-2.432a2.434 2.434 0 0 0-2.432-2.432zm-2.431 4.863v-2.432h2.432v2.432z" class="prefix__cls-1" data-name="Path 49094" transform="translate(-175.62 -155.885)"/>
            <path id="prefix__Path_49095" d="M358.355 180.2H342.55a1.216 1.216 0 0 0 0 2.431h15.805a1.216 1.216 0 1 0 0-2.431z" class="prefix__cls-1" data-name="Path 49095" transform="translate(-292.703 -155.885)"/>
            <path id="prefix__Path_49096" d="M275.5 306.963h2.432a2.434 2.434 0 0 0 2.432-2.432V302.1a2.434 2.434 0 0 0-2.432-2.432H275.5a2.434 2.434 0 0 0-2.432 2.432v2.432a2.434 2.434 0 0 0 2.432 2.431zm0-4.863h2.432v2.432H275.5V302.1z" class="prefix__cls-1" data-name="Path 49096" transform="translate(-234.161 -258.331)"/>
            <path id="prefix__Path_49097" d="M204.8 304.531a2.434 2.434 0 0 0 2.432 2.432h2.432a2.434 2.434 0 0 0 2.432-2.432V302.1a2.434 2.434 0 0 0-2.432-2.432h-2.432a2.434 2.434 0 0 0-2.432 2.432zm2.432-2.431h2.432v2.432h-2.433V302.1z" class="prefix__cls-1" data-name="Path 49097" transform="translate(-175.621 -258.331)"/>
            <path id="prefix__Path_49098" d="M342.55 302.1h15.805a1.216 1.216 0 1 0 0-2.431H342.55a1.216 1.216 0 0 0 0 2.431z" class="prefix__cls-1" data-name="Path 49098" transform="translate(-292.703 -258.332)"/>
            <path id="prefix__Path_49099" d="M275.5 426.43h2.432a2.434 2.434 0 0 0 2.429-2.43v-2.432a2.434 2.434 0 0 0-2.432-2.432H275.5a2.434 2.434 0 0 0-2.432 2.432V424a2.434 2.434 0 0 0 2.432 2.43zm0-4.863h2.432V424H275.5v-2.432z" class="prefix__cls-1" data-name="Path 49099" transform="translate(-234.161 -360.777)"/>
            <path id="prefix__Path_49100" d="M204.8 424a2.434 2.434 0 0 0 2.432 2.432h2.432a2.434 2.434 0 0 0 2.431-2.432v-2.432a2.434 2.434 0 0 0-2.432-2.432h-2.432a2.434 2.434 0 0 0-2.432 2.432zm2.432-2.432h2.432V424h-2.433v-2.432z" class="prefix__cls-1" data-name="Path 49100" transform="translate(-175.621 -360.777)"/>
            <path id="prefix__Path_49101" d="M342.55 421.567h15.805a1.216 1.216 0 1 0 0-2.431H342.55a1.216 1.216 0 1 0 0 2.431z" class="prefix__cls-1" data-name="Path 49101" transform="translate(-292.703 -360.778)"/>
            <path id="prefix__Path_49102" d="M375.733 12.418l-.04.054-.025.036-.034.055-.023.039c-.016.029-.03.059-.043.089s-.014.036-.021.054l-.017.047-.016.055-.014.053-.011.051-.011.072c-.003.024 0 .024 0 .036 0 .038-.006.076-.006.114V13.32c0 .012.007.051.012.076l.008.041.018.068.012.042v.011l1.216 3.647a1.216 1.216 0 0 0 2.308-.768l-.622-1.866a8.537 8.537 0 0 1 6.582 6.582l-1.866-.622a1.215 1.215 0 1 0-.768 2.305l3.638 1.213c.029.01.059.019.089.026l.026.007.067.014.053.008.049.006c.037 0 .073.006.109.006a1.205 1.205 0 0 0 .139-.009l.037-.006c.034 0 .068-.011.1-.019l.04-.01.094-.029.038-.014c.034-.013.066-.028.1-.045l.026-.013a1.22 1.22 0 0 0 .112-.069l.037-.028c.023-.018.047-.035.069-.055l.041-.037c.021-.02.042-.041.062-.063l.032-.035a1.224 1.224 0 0 0 .083-.11l2.432-3.647a1.216 1.216 0 0 0-2.023-1.35l-.7 1.055a10.991 10.991 0 0 0-7.176-7.176l1.055-.7a1.216 1.216 0 0 0-1.35-2.023l-3.647 2.432-.024.017c-.022.016-.045.032-.066.049l-.027.023c-.019.016-.038.033-.056.051l-.027.027c-.017.017-.033.035-.048.053z" class="prefix__cls-1" data-name="Path 49102" transform="translate(-321.973 -9.528)"/>
        </g>
    </g>
</svg>
