<svg width="512" height="518" viewBox="0 0 512 518" fill="none" xmlns="http://www.w3.org/2000/svg">
<g clip-path="url(#clip0_1177_57795)">
<path d="M374.886 45.5566C361.561 58.8812 349.354 73.3229 338.502 88.722L335.072 87.6049C315.284 81.1421 294.779 77.1527 274.113 75.7963C267.89 75.3176 244.672 75.3176 237.092 75.7963C214.193 77.3123 196.639 80.7432 176.692 87.6847C175.894 88.0039 175.176 88.2432 174.458 88.4826C163.208 73.1633 150.681 58.8015 136.878 45.6364C203.102 11.7265 280.576 7.6573 349.912 34.3863C357.332 37.1789 364.593 40.4502 371.694 43.9609L374.886 45.5566Z" fill="#F00500"/>
<path d="M498.397 348.193C488.344 376.836 473.264 403.406 453.716 426.544C443.104 438.991 431.375 450.401 418.769 460.774C389.247 484.55 354.779 501.545 317.996 510.481C277.305 520.295 234.857 520.295 194.165 510.481C157.303 501.545 122.915 484.55 93.3931 460.774C80.7865 450.401 69.0577 438.991 58.4458 426.544C2.19527 360.081 -14.8794 268.803 13.7645 186.542C19.1901 171.302 25.9721 156.621 34.1105 142.658C37.8605 136.275 42.4883 129.095 44.7223 126.142C52.382 159.095 61.7969 188.058 65.3076 198.51C65.0682 199.069 64.7491 199.707 64.43 200.265C45.8393 237.925 35.7861 274.229 33.3924 312.846C33.3924 313.325 33.3126 313.884 33.3126 314.362C32.6743 325.932 32.9935 331.437 34.9084 338.698C40.8925 361.437 59.3236 386.491 88.2068 411.066C135.521 451.279 199.671 480.322 248.262 483.673C298.927 487.104 373.688 457.502 423.476 414.257C431.295 407.316 438.636 399.975 445.498 392.156C450.445 386.411 457.785 376.517 457.227 376.517C457.067 376.517 457.227 376.358 457.546 376.198C457.785 376.039 458.024 375.799 457.865 375.64C457.785 375.56 457.945 375.32 458.184 375.241C458.423 375.161 458.583 375.001 458.503 374.842C458.423 374.682 458.503 374.523 458.822 374.443C459.062 374.363 459.141 374.124 459.062 373.964C458.982 373.805 459.062 373.645 459.221 373.645C459.381 373.645 459.54 373.406 459.54 373.246C459.54 373.086 459.7 372.847 459.86 372.847C460.019 372.847 460.179 372.688 460.179 372.528C460.418 371.89 460.817 371.251 461.216 370.693C462.413 368.858 467.2 360.32 467.838 358.884C472.386 348.591 475.259 339.416 476.615 330.24C477.253 325.852 477.652 317.793 477.333 315.878C477.253 315.559 477.253 315.001 477.174 314.123C477.014 312.527 476.934 310.134 476.775 307.74C476.615 304.15 476.296 299.123 476.057 296.649C472.626 260.426 463.37 230.824 445.817 199.468C445.099 198.271 444.461 197.074 444.062 196.116C443.902 195.877 443.822 195.638 443.742 195.478C446.216 188.058 456.349 157.02 464.408 121.515L464.567 121.674L465.764 123.27C467.838 126.063 473.344 134.361 475.817 138.35C487.067 156.701 495.844 176.409 502.067 196.994C516.509 246.543 515.312 299.362 498.397 348.193Z" fill="#F00500"/>
<path d="M394.832 252.846C394.593 254.122 390.843 257.952 387.093 260.745C376.082 268.803 356.374 276.303 336.348 279.894C324.938 281.968 313.528 282.288 310.097 280.612C307.863 279.495 307.544 278.617 308.342 275.745C310.018 269.761 315.443 263.218 323.901 257.075C328.209 253.963 345.683 243.351 353.821 238.883C367.226 231.542 378.077 227.154 385.417 226.117C387.731 225.798 390.524 225.718 391.401 226.117C392.838 226.675 394.433 230.904 395.072 236.01C395.391 238.723 395.231 250.692 394.832 252.846Z" fill="black"/>
<path d="M206.852 279.256C206.373 280.214 203.979 281.251 201.267 281.65C198.554 282.049 190.256 281.809 185.548 281.251C168.633 279.017 150.681 273.831 137.596 267.448C130.255 263.857 124.989 260.267 121.08 256.357L118.846 254.043L118.606 251.011C118.207 245.745 118.287 237.447 118.925 234.495C119.324 232.022 120.202 229.628 121.399 227.474C122.037 226.676 122.037 226.676 124.909 226.676C128.42 226.676 131.372 227.234 136.16 228.75C145.973 231.782 160.575 239.123 178.367 249.814C193.048 258.591 198.554 262.9 202.783 268.804C205.655 272.474 207.57 277.66 206.852 279.256Z" fill="black"/>
<path d="M319.831 390.32C319.831 390.56 318.874 394.39 317.677 398.938C316.48 403.485 315.523 407.156 315.523 407.315C314.645 407.395 313.847 407.475 312.97 407.395H310.416L306.906 415.693C304.991 420.241 303.235 424.47 302.996 425.108L302.517 426.225L300.842 423.512L299.166 420.799V398.698L298.528 398.858C297.172 399.177 287.517 400.454 283.289 400.852C265.815 402.608 248.261 402.209 230.868 399.735C228.075 399.336 225.681 399.017 225.602 399.097C225.522 399.177 225.602 404.283 225.761 410.587L226.001 421.916L224.644 423.991C223.926 425.108 223.208 426.065 223.208 426.145C222.969 426.385 222.171 425.108 220.336 421.438C218.341 417.608 216.905 413.539 215.868 409.31L215.309 406.996L212.836 407.156L210.362 407.395L209.724 404.443C209.405 402.847 209.006 400.374 208.846 399.017L208.607 396.464L206.532 394.629C205.336 393.592 204.139 392.554 203.899 392.395C203.5 392.076 203.341 391.517 203.341 391.038V390.081L213.314 390.161L223.288 390.241L223.607 391.278L223.926 392.315L227.357 392.475C229.272 392.555 235.336 392.714 240.761 392.874L250.735 393.113L253.288 389.124L255.921 385.134H259.272L259.192 376.836L259.113 368.538L254.724 366.623C240.602 360.4 232.304 353.299 229.192 344.682C228.554 342.926 228.554 342.288 228.394 334.309C228.315 326.41 228.314 325.692 228.873 323.937C229.99 319.947 233.102 316.836 237.091 315.798C238.448 315.399 242.038 315.399 260.868 315.399L283.049 315.479L285.523 316.676C288.475 318.112 289.831 319.149 291.507 321.384C293.422 323.937 293.98 325.931 293.98 330.799C293.98 337.74 293.501 343.724 292.783 346.118C291.746 349.389 290.15 352.501 288.156 355.293C284.166 360.4 276.905 365.506 270.283 367.82L268.368 368.538L268.448 376.916L268.528 385.294L270.283 385.453L272.038 385.613L274.432 389.203L276.746 392.794H287.437C293.342 392.794 298.528 392.874 299.007 392.953C299.805 393.113 299.964 393.033 300.762 391.677L301.72 390.241H310.895C317.757 389.921 319.831 390.081 319.831 390.32Z" fill="black"/>
<path d="M277.703 413.22C276.187 414.098 275.15 414.497 274.911 414.337C274.671 414.258 273.554 413.3 272.357 412.423L270.203 410.667L267.969 413.061C263.102 418.327 262.942 418.566 261.506 418.646C259.272 418.885 258.794 418.486 256.081 414.417C254.645 412.343 253.527 410.587 253.527 410.587C253.527 410.587 252.49 410.428 251.293 410.348L249.059 410.109L248.022 412.263L246.985 414.417L245.15 413.859C243.714 413.38 242.277 412.821 240.921 412.183L238.527 410.986V406.438L259.751 406.518L280.975 406.598L281.054 408.752C281.134 411.306 281.214 411.226 277.703 413.22Z" fill="black"/>
<path d="M477.173 315.879C477.094 315.56 477.094 315.001 477.014 314.123C457.865 312.049 403.21 310.772 352.465 352.661C352.465 352.661 336.108 277.66 259.512 277.66C182.915 277.66 154.511 352.661 154.511 352.661C111.585 306.464 54.1371 309.815 33.3922 312.847C33.3922 313.325 33.3124 313.884 33.3124 314.363C32.6741 325.932 32.9933 331.437 34.9082 338.698C40.8923 361.438 59.3234 386.491 88.2067 411.066C135.521 451.279 199.671 480.322 248.261 483.673C298.927 487.104 373.688 457.502 423.476 414.257C431.295 407.316 438.636 399.975 445.498 392.156C450.444 386.411 457.785 376.518 457.226 376.518C457.067 376.518 457.226 376.358 457.546 376.198C457.785 376.039 458.024 375.799 457.865 375.64C457.785 375.56 457.944 375.321 458.184 375.241C458.423 375.161 458.583 375.002 458.503 374.842C458.423 374.682 458.503 374.523 458.822 374.443C459.062 374.363 459.141 374.124 459.062 373.964C458.982 373.805 459.062 373.645 459.221 373.645C459.381 373.645 459.54 373.406 459.54 373.246C459.54 373.087 459.7 372.847 459.859 372.847C460.019 372.847 460.179 372.688 460.179 372.528C460.418 371.89 460.817 371.252 461.216 370.693C462.413 368.858 467.2 360.321 467.838 358.884C472.386 348.592 475.258 339.416 476.615 330.241C477.094 325.852 477.493 317.794 477.173 315.879ZM277.703 413.22C276.187 414.098 275.15 414.497 274.911 414.337C274.671 414.257 273.554 413.3 272.357 412.422L270.203 410.667L267.969 413.061C263.102 418.327 262.942 418.566 261.506 418.646C259.272 418.885 258.794 418.486 256.081 414.417C254.645 412.342 253.527 410.587 253.527 410.587C253.527 410.587 252.49 410.427 251.293 410.348L249.059 410.108L248.022 412.263L246.985 414.417L245.15 413.858C243.714 413.38 242.277 412.821 240.921 412.183L238.527 410.986V406.438L259.751 406.518L280.975 406.598L281.054 408.752C281.134 411.305 281.214 411.225 277.703 413.22ZM317.597 398.858C316.4 403.406 315.443 407.076 315.443 407.236C314.565 407.316 313.767 407.396 312.89 407.316H310.337L306.906 415.694C304.991 420.241 303.235 424.47 302.996 425.108L302.517 426.226L300.842 423.513L299.166 420.8V398.699L298.528 398.858C297.172 399.177 287.517 400.454 283.288 400.853C265.815 402.608 248.261 402.209 230.868 399.736C228.075 399.337 225.681 399.018 225.602 399.098C225.522 399.177 225.602 404.284 225.761 410.587L226.001 421.917L224.644 423.991C223.926 425.109 223.208 426.066 223.208 426.146C222.969 426.385 222.171 425.109 220.336 421.438C218.341 417.608 216.905 413.539 215.868 409.31L215.309 406.997L212.836 407.156L210.362 407.396L209.724 404.443C209.405 402.848 209.006 400.374 208.846 399.018L208.607 396.465L206.532 394.629C205.335 393.592 204.139 392.555 203.899 392.395C203.5 392.076 203.341 391.518 203.341 391.039V390.082L213.314 390.161L223.288 390.241L223.607 391.278L223.926 392.316L227.357 392.475C229.272 392.555 235.336 392.715 240.761 392.874L250.735 393.113L253.288 389.124L255.921 385.135H259.272L259.192 376.837L259.113 368.539L254.724 366.624C240.602 360.4 232.304 353.299 229.192 344.682C228.554 342.927 228.554 342.288 228.394 334.31C228.314 326.411 228.314 325.693 228.873 323.937C229.99 319.948 233.102 316.836 237.091 315.799C238.448 315.4 242.038 315.4 260.868 315.4L283.049 315.48L285.522 316.677C288.475 318.113 289.831 319.15 291.507 321.384C293.421 323.937 293.98 325.932 293.98 330.799C293.98 337.741 293.501 343.725 292.783 346.118C291.746 349.39 290.15 352.501 288.155 355.294C284.166 360.4 276.905 365.507 270.283 367.821L268.368 368.539L268.448 376.917L268.528 385.294L270.283 385.454L272.038 385.613L274.432 389.204L276.746 392.794H287.437C293.342 392.794 298.528 392.874 299.007 392.954C299.805 393.113 299.964 393.034 300.762 391.677L301.719 390.241H310.895C317.996 390.241 320.071 390.321 320.071 390.56C319.831 390.48 318.794 394.39 317.597 398.858Z" fill="white"/>
<path d="M476.535 307.74C476.375 304.15 476.056 299.123 475.817 296.65C472.386 260.426 463.131 230.824 445.577 199.468C444.859 198.271 444.221 197.074 443.822 196.117C443.662 195.877 443.582 195.638 443.503 195.478C445.976 188.058 456.109 157.021 464.168 121.515C475.099 73.3228 482.04 16.9925 460.817 0.0774216C460.817 0.0774216 424.114 -2.63537 374.965 45.5566C361.64 58.8812 349.432 73.3229 338.581 88.722L335.15 87.6049C315.363 81.1421 294.857 77.1527 274.192 75.7963C267.969 75.3176 244.751 75.3176 237.171 75.7963C214.272 77.3123 196.718 80.7431 176.771 87.6847C175.973 88.0038 175.255 88.2432 174.537 88.4826C163.287 73.1633 150.76 58.8014 136.957 45.6364C85.8128 -2.79494 47.7539 -0.00237131 47.7539 -0.00237131C25.2536 17.4712 32.9133 76.3548 44.5623 126.143C52.222 159.095 61.637 188.058 65.1476 198.51C64.9083 199.069 64.5891 199.707 64.27 200.266C45.6794 237.926 35.6261 274.229 33.2324 312.847C54.0571 309.815 111.425 306.384 154.431 352.661C154.431 352.661 182.835 277.66 259.432 277.66C336.028 277.66 352.385 352.661 352.385 352.661C403.13 310.772 457.785 312.129 476.934 314.123C476.854 312.527 476.694 310.134 476.535 307.74ZM80.2276 168.43C80.2276 168.43 50.3868 93.8284 58.0465 51.2216C59.3231 44.0406 61.7168 37.7374 65.4668 32.9501C65.4668 32.9501 99.2969 36.3012 153.872 96.9401C153.872 96.9401 143.5 101.967 129.616 112.658C129.616 112.658 129.537 112.738 129.457 112.738C114.377 124.307 95.0682 142.659 80.2276 168.43ZM206.851 279.256C206.372 280.213 203.979 281.251 201.266 281.649C198.553 282.048 190.255 281.809 185.548 281.251C168.633 279.016 150.68 273.83 137.595 267.447C130.255 263.857 124.989 260.266 121.079 256.357L118.845 254.043L118.606 251.011C118.207 245.745 118.287 237.447 118.925 234.495C119.324 232.021 120.201 229.628 121.398 227.473C122.037 226.675 122.037 226.675 124.909 226.675C128.42 226.675 131.372 227.234 136.159 228.75C145.973 231.782 160.574 239.122 178.367 249.814C193.048 258.591 198.553 262.899 202.782 268.804C205.654 272.474 207.569 277.66 206.851 279.256ZM394.832 252.846C394.593 254.123 390.843 257.952 387.092 260.745C376.082 268.804 356.374 276.304 336.347 279.894C324.938 281.969 313.528 282.288 310.097 280.612C307.863 279.495 307.544 278.618 308.342 275.745C310.017 269.761 315.443 263.218 323.9 257.075C328.209 253.963 345.683 243.351 353.821 238.883C367.225 231.543 378.076 227.154 385.417 226.117C387.731 225.798 390.523 225.718 391.401 226.117C392.837 226.676 394.433 230.904 395.071 236.011C395.39 238.723 395.231 250.692 394.832 252.846ZM381.587 112.658L381.428 112.579C368.023 101.887 357.97 96.8603 357.97 96.8603C410.71 36.2214 443.343 32.8703 443.343 32.8703C446.934 37.7374 449.247 43.9609 450.524 51.1418C457.944 93.7486 429.141 168.43 429.141 168.43C417.093 146.967 400.896 127.978 381.587 112.658Z" fill="#FFA409"/>
<path d="M450.605 51.1416C444.381 50.3437 414.939 50.1841 381.588 112.658L381.428 112.578C368.024 101.887 357.971 96.8601 357.971 96.8601C410.711 36.2212 443.344 32.8701 443.344 32.8701C447.014 37.7372 449.328 43.9607 450.605 51.1416Z" fill="#FF9300"/>
<path d="M429.221 168.43C417.094 146.888 400.976 127.978 381.588 112.658C414.939 50.1844 444.301 50.344 450.605 51.1419C458.025 93.8285 429.221 168.43 429.221 168.43Z" fill="#FF8300"/>
<path d="M451.801 51.381C451.402 51.3012 451.003 51.2214 450.604 51.1416L451.801 51.381Z" fill="#FF8300"/>
<path d="M153.873 96.8601C153.873 96.8601 143.501 101.887 129.617 112.578C129.617 112.578 129.538 112.658 129.458 112.658C94.9096 50.1043 64.5104 50.3437 57.9678 51.1416C59.2444 43.9607 61.6381 37.6574 65.3881 32.8701C65.4679 32.8701 99.298 36.2212 153.873 96.8601Z" fill="#FF9300"/>
<path d="M129.537 112.658C114.378 124.308 95.069 142.579 80.2285 168.43C80.2285 168.43 50.3877 93.8285 58.0473 51.1419C64.5102 50.344 94.9892 50.1844 129.537 112.658Z" fill="#FF8300"/>
<path d="M58.0471 51.1416C57.6482 51.2214 57.1694 51.3012 56.7705 51.381L58.0471 51.1416Z" fill="#FF8300"/>
<path d="M348.475 209.841C348.475 209.841 322.943 211.436 326.134 191.489C329.326 171.542 349.273 169.149 354.858 169.947C360.443 170.745 382.784 178.723 378.795 195.479C374.805 212.234 369.22 209.043 366.029 209.841C362.837 210.639 348.475 209.841 348.475 209.841Z" fill="white"/>
<path d="M160.175 209.841C160.175 209.841 134.643 211.436 137.835 191.489C141.026 171.542 160.973 169.149 166.558 169.947C172.144 170.745 194.484 178.723 190.495 195.479C186.505 212.234 180.92 209.043 177.729 209.841C174.537 210.639 160.175 209.841 160.175 209.841Z" fill="white"/>
<g clip-path="url(#clip1_1177_57795)">
<path d="M509.5 393C509.5 460.655 454.655 515.5 387 515.5C319.345 515.5 264.5 460.655 264.5 393C264.5 325.345 319.345 270.5 387 270.5C454.655 270.5 509.5 325.345 509.5 393Z" fill="#627EEA" stroke="white" stroke-width="5"/>
<path d="M390.891 299.25V368.547L449.461 394.719L390.891 299.25Z" fill="white" fill-opacity="0.602"/>
<path d="M390.891 299.25L332.312 394.719L390.891 368.547V299.25Z" fill="white"/>
<path d="M390.891 439.625V486.711L449.5 405.625L390.891 439.625Z" fill="white" fill-opacity="0.602"/>
<path d="M390.891 486.711V439.617L332.312 405.625L390.891 486.711Z" fill="white"/>
<path d="M390.891 428.727L449.461 394.719L390.891 368.562V428.727Z" fill="white" fill-opacity="0.2"/>
<path d="M332.312 394.719L390.891 428.727V368.562L332.312 394.719Z" fill="white" fill-opacity="0.602"/>
</g>
</g>
<defs>
<clipPath id="clip0_1177_57795">
<rect width="512" height="517.825" fill="white"/>
</clipPath>
<clipPath id="clip1_1177_57795">
<rect width="250" height="250" fill="white" transform="translate(262 268)"/>
</clipPath>
</defs>
</svg>
