<svg width="101" height="101" viewBox="0 0 101 101" fill="none" xmlns="http://www.w3.org/2000/svg">
<g clip-path="url(#clip0_9221_8551)">
<path d="M72.5512 30.4487C72.5273 30.0508 72.3522 29.6771 72.0617 29.404C71.7713 29.131 71.3874 28.9793 70.9887 28.98C70.9028 28.98 62.395 28.9253 57.895 27.2691C55.5972 26.2959 53.5839 24.7556 52.0434 22.7925C51.8982 22.5954 51.7087 22.4353 51.4903 22.3249C51.2718 22.2145 51.0304 22.157 50.7856 22.157C50.5408 22.157 50.2995 22.2145 50.081 22.3249C49.8625 22.4353 49.673 22.5954 49.5278 22.7925C47.9935 24.7618 45.9784 26.3034 43.6763 27.2691C39.1919 28.9253 30.6685 28.98 30.5825 28.98C30.1839 28.9793 29.8 29.131 29.5095 29.404C29.2191 29.6771 29.0439 30.0508 29.02 30.4487C28.8481 33.1206 27.4575 56.7378 32.02 62.8706C34.8716 66.7066 39.4731 69.5503 43.1684 71.8316C45.8794 73.4956 49.2309 75.5659 49.2309 76.6987C49.2309 77.1131 49.3956 77.5106 49.6886 77.8036C49.9816 78.0966 50.379 78.2612 50.7934 78.2612C51.2078 78.2612 51.6053 78.0966 51.8983 77.8036C52.1913 77.5106 52.3559 77.1131 52.3559 76.6987C52.3559 75.5659 55.7075 73.4956 58.4028 71.8316C62.0981 69.5503 66.6997 66.7066 69.5434 62.8706C74.1137 56.7378 72.7231 33.1206 72.5512 30.4487ZM67.0825 61.0034C64.5825 64.3628 60.4497 66.9175 56.8013 69.1753C54.3481 70.6831 52.1997 72.0112 50.8325 73.4253C49.4653 72.0112 47.3169 70.6831 44.8638 69.1753C41.2153 66.9175 37.0513 64.3628 34.5825 61.0034C31.5044 56.8628 31.6997 39.9097 32.1138 32.0972C34.895 32.0034 40.9653 31.6441 44.8091 30.2222C47.0825 29.3031 49.1256 27.8948 50.7934 26.0972C52.4749 27.891 54.5317 29.2915 56.8169 30.1987C60.6606 31.6206 66.7309 31.98 69.5122 32.0737C69.9262 39.9019 70.1216 56.8628 67.0434 61.0034H67.0825Z" fill="#879EC1"/>
<path d="M59.6294 13.2457C59.9397 13.2475 60.2436 13.1568 60.5022 12.9853C60.7608 12.8137 60.9625 12.569 61.0815 12.2824C61.2005 11.9957 61.2315 11.6802 61.1705 11.3759C61.1094 11.0716 60.9591 10.7924 60.7388 10.5738C59.4329 9.2675 57.8824 8.23125 56.176 7.52425C54.4696 6.81726 52.6406 6.45337 50.7935 6.45337C48.9464 6.45337 47.1173 6.81726 45.4109 7.52425C43.7045 8.23125 42.154 9.2675 40.8481 10.5738C40.703 10.719 40.5878 10.8913 40.5092 11.081C40.4307 11.2707 40.3902 11.474 40.3902 11.6793C40.3902 11.8846 40.4307 12.0879 40.5092 12.2776C40.5878 12.4672 40.703 12.6396 40.8481 12.7847C41.1413 13.0779 41.539 13.2426 41.9536 13.2426C42.1589 13.2426 42.3622 13.2022 42.5519 13.1236C42.7416 13.0451 42.9139 12.9299 43.0591 12.7847C44.0747 11.769 45.2805 10.9632 46.6076 10.4135C47.9347 9.86377 49.357 9.58083 50.7935 9.58083C52.2299 9.58083 53.6522 9.86377 54.9793 10.4135C56.3064 10.9632 57.5122 11.769 58.5278 12.7847C58.8195 13.0782 59.2157 13.2439 59.6294 13.2457Z" fill="#879EC1"/>
<path d="M45.27 14.9956C44.9768 15.2888 44.8121 15.6865 44.8121 16.1011C44.8121 16.5157 44.9768 16.9134 45.27 17.2066C45.5632 17.4998 45.9609 17.6645 46.3755 17.6645C46.7901 17.6645 47.1878 17.4998 47.481 17.2066C48.3599 16.3288 49.5513 15.8357 50.7935 15.8357C52.0356 15.8357 53.227 16.3288 54.106 17.2066C54.252 17.3514 54.4251 17.466 54.6155 17.5437C54.8059 17.6215 55.0097 17.6609 55.2153 17.6597C55.6279 17.66 56.0239 17.4971 56.3169 17.2066C56.4622 17.0615 56.5774 16.8891 56.6561 16.6995C56.7347 16.5098 56.7752 16.3065 56.7752 16.1011C56.7752 15.8958 56.7347 15.6925 56.6561 15.5028C56.5774 15.3131 56.4622 15.1408 56.3169 14.9956C54.8518 13.531 52.8651 12.7083 50.7935 12.7083C48.7219 12.7083 46.7351 13.531 45.27 14.9956Z" fill="#879EC1"/>
<path d="M38.6372 8.3629C40.2333 6.76604 42.1284 5.4993 44.2142 4.63504C46.3 3.77078 48.5357 3.32594 50.7934 3.32594C53.0512 3.32594 55.2869 3.77078 57.3727 4.63504C59.4585 5.4993 61.3536 6.76604 62.9497 8.3629C63.2486 8.61888 63.6331 8.75264 64.0263 8.73745C64.4196 8.72226 64.7926 8.55924 65.0709 8.28097C65.3492 8.0027 65.5122 7.62967 65.5274 7.23642C65.5426 6.84318 65.4088 6.45868 65.1528 6.15978C61.3438 2.35272 56.1788 0.214111 50.7934 0.214111C45.4081 0.214111 40.2431 2.35272 36.4341 6.15978C36.1781 6.45868 36.0443 6.84318 36.0595 7.23642C36.0747 7.62967 36.2377 8.0027 36.516 8.28097C36.7943 8.55924 37.1673 8.72226 37.5606 8.73745C37.9538 8.75264 38.3383 8.61888 38.6372 8.3629Z" fill="#879EC1"/>
<path d="M59.5981 42.9566L48.4028 54.1128L41.9888 47.7066C41.8464 47.55 41.6736 47.4239 41.481 47.3361C41.2885 47.2483 41.08 47.2005 40.8684 47.1957C40.6568 47.1909 40.4465 47.2291 40.2501 47.308C40.0537 47.3869 39.8754 47.505 39.726 47.6549C39.5766 47.8048 39.4592 47.9835 39.3809 48.1802C39.3027 48.3769 39.2652 48.5874 39.2708 48.799C39.2764 49.0106 39.3249 49.2188 39.4134 49.4111C39.5019 49.6034 39.6285 49.7757 39.7856 49.9175L47.3013 57.4253C47.594 57.7163 47.99 57.8797 48.4028 57.8797C48.8156 57.8797 49.2116 57.7163 49.5044 57.4253L61.8013 45.1597C61.9648 45.0196 62.0977 44.8472 62.1915 44.6534C62.2852 44.4595 62.3379 44.2484 62.3463 44.0332C62.3546 43.818 62.3183 43.6034 62.2398 43.4029C62.1612 43.2024 62.042 43.0203 61.8898 42.868C61.7375 42.7158 61.5554 42.5966 61.3549 42.5181C61.1544 42.4395 60.9398 42.4033 60.7246 42.4116C60.5094 42.4199 60.2983 42.4726 60.1044 42.5664C59.9106 42.6602 59.7382 42.793 59.5981 42.9566Z" fill="#87AB49"/>
<path d="M52.356 87.9097V83.019C52.356 82.6046 52.1913 82.2072 51.8983 81.9142C51.6053 81.6212 51.2079 81.4565 50.7935 81.4565C50.3791 81.4565 49.9816 81.6212 49.6886 81.9142C49.3956 82.2072 49.231 82.6046 49.231 83.019V87.9097C47.7581 88.29 46.4744 89.1944 45.6206 90.4534C44.7669 91.7125 44.4016 93.2396 44.5933 94.7487C44.785 96.2578 45.5204 97.6452 46.6618 98.6508C47.8033 99.6564 49.2722 100.211 50.7935 100.211C52.3147 100.211 53.7837 99.6564 54.9251 98.6508C56.0665 97.6452 56.802 96.2578 56.9936 94.7487C57.1853 93.2396 56.82 91.7125 55.9663 90.4534C55.1125 89.1944 53.8289 88.29 52.356 87.9097ZM50.7935 97.0815C50.1754 97.0815 49.5712 96.8983 49.0573 96.5549C48.5434 96.2115 48.1429 95.7234 47.9063 95.1524C47.6698 94.5814 47.6079 93.9531 47.7285 93.3469C47.8491 92.7407 48.1467 92.1839 48.5837 91.7468C49.0208 91.3098 49.5776 91.0122 50.1838 90.8916C50.79 90.771 51.4183 90.8329 51.9893 91.0694C52.5604 91.3059 53.0484 91.7065 53.3918 92.2204C53.7352 92.7343 53.9185 93.3385 53.9185 93.9565C53.9185 94.7853 53.5892 95.5802 53.0032 96.1663C52.4171 96.7523 51.6223 97.0815 50.7935 97.0815Z" fill="#879EC1"/>
<path d="M24.231 51.7691C24.6454 51.7691 25.0428 51.6044 25.3358 51.3114C25.6288 51.0184 25.7935 50.621 25.7935 50.2066C25.7935 49.7922 25.6288 49.3947 25.3358 49.1017C25.0428 48.8087 24.6454 48.6441 24.231 48.6441H13.0903C12.71 47.1712 11.8056 45.8875 10.5466 45.0337C9.28754 44.18 7.76035 43.8147 6.25127 44.0064C4.74218 44.1981 3.35481 44.9335 2.3492 46.0749C1.3436 47.2164 0.788795 48.6853 0.788795 50.2066C0.788795 51.7278 1.3436 53.1968 2.3492 54.3382C3.35481 55.4796 4.74218 56.2151 6.25127 56.4067C7.76035 56.5984 9.28754 56.2331 10.5466 55.3794C11.8056 54.5256 12.71 53.242 13.0903 51.7691H24.231ZM7.04346 53.3316C6.42539 53.3316 5.8212 53.1483 5.3073 52.8049C4.7934 52.4615 4.39286 51.9735 4.15633 51.4024C3.91981 50.8314 3.85792 50.2031 3.9785 49.5969C4.09908 48.9907 4.39671 48.4339 4.83375 47.9969C5.27079 47.5598 5.82761 47.2622 6.4338 47.1416C7.03999 47.021 7.66832 47.0829 8.23934 47.3194C8.81036 47.556 9.29842 47.9565 9.6418 48.4704C9.98518 48.9843 10.1685 49.5885 10.1685 50.2066C10.1685 51.0354 9.83922 51.8302 9.25317 52.4163C8.66711 53.0023 7.87226 53.3316 7.04346 53.3316Z" fill="#879EC1"/>
<path d="M94.5434 43.9565C93.1586 43.9576 91.8134 44.4185 90.7189 45.2669C89.6245 46.1153 88.8428 47.3032 88.4966 48.644H77.356C76.9416 48.644 76.5441 48.8087 76.2511 49.1017C75.9581 49.3947 75.7935 49.7921 75.7935 50.2065C75.7935 50.6209 75.9581 51.0184 76.2511 51.3114C76.5441 51.6044 76.9416 51.769 77.356 51.769H88.4966C88.7889 52.9011 89.3928 53.9284 90.2398 54.7344C91.0868 55.5403 92.1429 56.0925 93.288 56.3282C94.4332 56.5639 95.6215 56.4737 96.7179 56.0678C97.8144 55.6619 98.775 54.9566 99.4906 54.032C100.206 53.1075 100.648 52.0007 100.766 50.8375C100.884 49.6743 100.674 48.5014 100.158 47.4519C99.643 46.4024 98.8437 45.5185 97.8511 44.9006C96.8586 44.2828 95.7126 43.9557 94.5434 43.9565ZM94.5434 53.3315C93.9254 53.3315 93.3212 53.1483 92.8073 52.8049C92.2934 52.4615 91.8928 51.9735 91.6563 51.4024C91.4198 50.8314 91.3579 50.2031 91.4785 49.5969C91.5991 48.9907 91.8967 48.4339 92.3337 47.9968C92.7708 47.5598 93.3276 47.2622 93.9338 47.1416C94.54 47.021 95.1683 47.0829 95.7393 47.3194C96.3103 47.5559 96.7984 47.9565 97.1418 48.4704C97.4852 48.9843 97.6684 49.5885 97.6684 50.2065C97.6684 51.0353 97.3392 51.8302 96.7531 52.4163C96.1671 53.0023 95.3722 53.3315 94.5434 53.3315Z" fill="#879EC1"/>
<path d="M15.4419 23.6909C16.4216 24.6683 17.6979 25.2929 19.0708 25.4668C20.4436 25.6407 21.8354 25.3541 23.0278 24.6518L25.0903 26.7143C25.3833 27.0049 25.7793 27.1678 26.1919 27.1675C26.5006 27.1677 26.8025 27.0765 27.0595 26.9053C27.3164 26.7341 27.5169 26.4906 27.6356 26.2056C27.7543 25.9206 27.7858 25.6068 27.7263 25.3039C27.6668 25.0009 27.5189 24.7224 27.3013 24.5034L25.2388 22.4409C25.8329 21.4337 26.1325 20.28 26.1035 19.111C26.0746 17.942 25.7183 16.8046 25.0751 15.828C24.4319 14.8514 23.5277 14.0748 22.4651 13.5865C21.4026 13.0983 20.2244 12.9179 19.0644 13.0659C17.9045 13.2139 16.8093 13.6843 15.9034 14.4238C14.9975 15.1632 14.3172 16.1419 13.9398 17.2487C13.5625 18.3555 13.5032 19.546 13.7687 20.6848C14.0342 21.8236 14.6139 22.8651 15.4419 23.6909ZM17.645 17.0581C17.9352 16.7675 18.2799 16.537 18.6593 16.3798C19.0386 16.2225 19.4453 16.1416 19.856 16.1416C20.2666 16.1416 20.6733 16.2225 21.0526 16.3798C21.432 16.537 21.7767 16.7675 22.0669 17.0581C22.6533 17.6445 22.9827 18.4398 22.9827 19.269C22.9827 20.0983 22.6533 20.8936 22.0669 21.48C21.4805 22.0663 20.6852 22.3958 19.856 22.3958C19.0267 22.3958 18.2314 22.0663 17.645 21.48C17.3545 21.1897 17.124 20.8451 16.9667 20.4657C16.8094 20.0863 16.7285 19.6797 16.7285 19.269C16.7285 18.8584 16.8094 18.4517 16.9667 18.0723C17.124 17.693 17.3545 17.3483 17.645 17.0581Z" fill="#879EC1"/>
<path d="M86.145 76.7221C85.1654 75.7447 83.889 75.12 82.5162 74.9461C81.1433 74.7722 79.7515 75.0589 78.5591 75.7611L71.0356 68.2377C70.7425 67.9445 70.3448 67.7798 69.9302 67.7798C69.5155 67.7798 69.1179 67.9445 68.8247 68.2377C68.5315 68.5309 68.3668 68.9285 68.3668 69.3432C68.3668 69.7578 68.5315 70.1554 68.8247 70.4486L76.3481 77.9721C75.7541 78.9793 75.4544 80.1329 75.4834 81.3019C75.5123 82.471 75.8686 83.6084 76.5118 84.585C77.155 85.5616 78.0592 86.3381 79.1218 86.8264C80.1843 87.3147 81.3625 87.4951 82.5225 87.3471C83.6825 87.1991 84.7776 86.7286 85.6835 85.9892C86.5895 85.2498 87.2697 84.271 87.6471 83.1642C88.0245 82.0574 88.0837 80.8669 87.8182 79.7281C87.5527 78.5893 86.973 77.5478 86.145 76.7221ZM83.9419 83.3549C83.6517 83.6454 83.307 83.8759 82.9276 84.0332C82.5483 84.1904 82.1416 84.2714 81.731 84.2714C81.3203 84.2714 80.9136 84.1904 80.5343 84.0332C80.1549 83.8759 79.8102 83.6454 79.52 83.3549C78.9336 82.7685 78.6042 81.9732 78.6042 81.1439C78.6042 80.3147 78.9336 79.5194 79.52 78.933C80.1064 78.3466 80.9017 78.0172 81.731 78.0172C82.5602 78.0172 83.3555 78.3466 83.9419 78.933C84.2324 79.2232 84.4629 79.5679 84.6202 79.9472C84.7775 80.3266 84.8584 80.7333 84.8584 81.1439C84.8584 81.5546 84.7775 81.9612 84.6202 82.3406C84.4629 82.72 84.2324 83.0646 83.9419 83.3549Z" fill="#879EC1"/>
<path d="M30.3169 68.48L23.0278 75.7612C21.7174 74.9889 20.1702 74.721 18.6764 75.0077C17.1825 75.2944 15.8445 76.116 14.913 77.3187C13.9816 78.5213 13.5208 80.0223 13.6169 81.5404C13.7129 83.0585 14.3594 84.4894 15.435 85.565C16.5106 86.6406 17.9415 87.2871 19.4596 87.3831C20.9777 87.4792 22.4787 87.0184 23.6814 86.087C24.884 85.1555 25.7056 83.8175 25.9924 82.3237C26.2791 80.8298 26.0111 79.2826 25.2388 77.9722L32.52 70.6831C32.6836 70.543 32.8164 70.3707 32.9102 70.1768C33.004 69.983 33.0567 69.7718 33.065 69.5566C33.0733 69.3415 33.0371 69.1269 32.9585 68.9264C32.88 68.7259 32.7608 68.5438 32.6085 68.3915C32.4563 68.2392 32.2742 68.1201 32.0737 68.0415C31.8731 67.9629 31.6586 67.9267 31.4434 67.935C31.2282 67.9433 31.017 67.996 30.8232 68.0898C30.6293 68.1836 30.457 68.3164 30.3169 68.48ZM22.0669 83.3237C21.4805 83.9101 20.6852 84.2395 19.856 84.2395C19.0267 84.2395 18.2314 83.9101 17.645 83.3237C17.0586 82.7374 16.7292 81.9421 16.7292 81.1128C16.7292 80.2835 17.0586 79.4882 17.645 78.9019C17.9354 78.6115 18.2801 78.3812 18.6594 78.2241C19.0388 78.0669 19.4453 77.9861 19.856 77.9861C20.2666 77.9861 20.6732 78.0669 21.0525 78.2241C21.4319 78.3812 21.7766 78.6115 22.0669 78.9019C22.3572 79.1922 22.5876 79.5369 22.7447 79.9162C22.9018 80.2956 22.9827 80.7022 22.9827 81.1128C22.9827 81.5234 22.9018 81.93 22.7447 82.3093C22.5876 82.6887 22.3572 83.0334 22.0669 83.3237Z" fill="#879EC1"/>
<path d="M75.3013 27.2613C75.7139 27.2617 76.1099 27.0988 76.4028 26.8082L78.5591 24.652C79.8695 25.4243 81.4167 25.6923 82.9106 25.4056C84.4044 25.1188 85.7424 24.2972 86.6739 23.0946C87.6053 21.8919 88.0661 20.3909 87.97 18.8728C87.874 17.3547 87.2275 15.9238 86.1519 14.8482C85.0763 13.7726 83.6454 13.1261 82.1273 13.0301C80.6092 12.934 79.1082 13.3948 77.9056 14.3263C76.7029 15.2577 75.8813 16.5957 75.5946 18.0896C75.3078 19.5834 75.5758 21.1306 76.3481 22.441L74.231 24.5973C74.0133 24.8162 73.8654 25.0948 73.8059 25.3977C73.7464 25.7007 73.778 26.0145 73.8967 26.2995C74.0153 26.5845 74.2158 26.828 74.4728 26.9992C74.7297 27.1704 75.0316 27.2616 75.3403 27.2613H75.3013ZM79.52 17.0582C80.1064 16.4718 80.9017 16.1424 81.7309 16.1424C82.5602 16.1424 83.3555 16.4718 83.9419 17.0582C84.5283 17.6446 84.8577 18.4399 84.8577 19.2692C84.8577 20.0984 84.5283 20.8937 83.9419 21.4801C83.3461 22.0484 82.5543 22.3655 81.7309 22.3655C80.9076 22.3655 80.1158 22.0484 79.52 21.4801C79.2295 21.1899 78.999 20.8452 78.8417 20.4658C78.6844 20.0865 78.6035 19.6798 78.6035 19.2692C78.6035 18.8585 78.6844 18.4518 78.8417 18.0725C78.999 17.6931 79.2295 17.3485 79.52 17.0582Z" fill="#879EC1"/>
</g>
<defs>
<clipPath id="clip0_9221_8551">
<rect width="100" height="100" fill="white" transform="translate(0.793457 0.206543)"/>
</clipPath>
</defs>
</svg>
