<svg width="92" height="92" viewBox="0 0 92 92" fill="none" xmlns="http://www.w3.org/2000/svg">
<path opacity="0.096" d="M46 92C71.4051 92 92 71.4051 92 46C92 20.5949 71.4051 0 46 0C20.5949 0 0 20.5949 0 46C0 71.4051 20.5949 92 46 92Z" fill="white"/>
<path opacity="0.096" d="M46 80C64.7777 80 80 64.7777 80 46C80 27.2223 64.7777 12 46 12C27.2223 12 12 27.2223 12 46C12 64.7777 27.2223 80 46 80Z" fill="white"/>
<circle cx="45.5" cy="45.5001" r="26.9242" fill="url(#paint0_linear_2_2228)"/>
<path fill-rule="evenodd" clip-rule="evenodd" d="M15.1158 55.0687C15.5793 54.4958 16.4674 54.5827 16.8344 55.2217C17.0697 55.6316 17.0068 56.1459 16.6935 56.4998C14.8667 58.5626 14.0788 60.1676 14.604 61.0823C16.2916 64.021 30.8955 58.7202 47.2227 49.2425C47.7863 48.9154 48.3445 48.5876 48.8971 48.2594C49.0886 48.1456 49.1988 47.9349 49.1988 47.7121V47.7121C49.1988 43.9389 52.2576 40.8801 56.0308 40.8801V40.8801C58.0538 40.8801 60.2448 40.9402 61.8769 39.7448C70.0153 33.784 74.8485 28.7079 73.7303 26.7607C73.2289 25.8875 71.5872 25.7417 69.0988 26.2168C68.6504 26.3024 68.1918 26.1036 67.9645 25.7077C67.6074 25.0859 67.9721 24.2971 68.6816 24.1933C73.5697 23.4781 77.037 24.0753 78.2524 26.1918C80.5286 30.1557 74.2652 38.3332 63.3618 46.6483C63.0344 46.898 62.8628 47.3004 62.8628 47.7121V47.7121C62.8628 51.4854 59.804 54.5442 56.0308 54.5442C55.8414 54.5442 55.6537 54.5364 55.4681 54.5213C53.7867 54.3842 51.9966 54.3139 50.5376 55.1608V55.1608C32.1673 65.8244 14.7915 70.1436 11.7276 64.8081C10.4702 62.6184 11.8187 59.1429 15.1158 55.0687Z" fill="#D2E1F8"/>
<circle cx="56.0309" cy="47.7121" r="3.416" fill="#70AF09"/>
<g opacity="0.32">
<path d="M31.7027 36.2919C30.0457 40.3834 30.5685 44.698 28.5361 43.8749C26.5037 43.0518 26.1994 39.0678 27.8564 34.9763C29.5134 30.8848 32.5043 28.2352 34.5366 29.0583C36.569 29.8814 33.3597 32.2004 31.7027 36.2919Z" fill="#E5E5E5"/>
<path d="M30.4269 47.9396C30.575 49.287 29.9511 50.4609 29.0335 50.5618C28.1159 50.6626 27.2521 49.6521 27.104 48.3047C26.956 46.9573 27.5798 45.7833 28.4974 45.6825C29.415 45.5817 30.2789 46.5922 30.4269 47.9396Z" fill="#E5E5E5"/>
</g>
<path d="M37.5508 66.0113C36.6152 65.4708 37.0636 64.5648 39.3361 63.8116C44.1279 62.7598 43.3193 64.8862 50.2148 64.0681C57.1102 63.25 60.7454 60.4073 62.5764 58.5373C64.0412 57.0414 65.3952 55.017 65.3302 55.7312C65.0186 57.2505 62.502 61.2554 54.9286 65.1199C45.462 69.9506 38.9854 66.8402 37.5508 66.0113Z" fill="#080F1B" fill-opacity="0.11"/>
<path d="M67.995 30.593C68.8835 30.0042 69.1315 28.8019 68.4847 27.9546C64.3742 22.5693 58.4867 18.7804 51.8367 17.2868C44.557 15.6518 36.9271 16.8939 30.5418 20.7535C24.1566 24.6131 19.5104 30.7914 17.5744 37.9969C15.8059 44.5791 16.424 51.553 19.2816 57.6957C19.7312 58.6622 20.911 59.0014 21.8453 58.4884V58.4884C22.7796 57.9754 23.1137 56.8046 22.6741 55.8335C20.2902 50.5682 19.7922 44.6185 21.3022 38.9985C22.9798 32.7548 27.0058 27.4013 32.5386 24.0569C38.0715 20.7126 44.6829 19.6363 50.9908 21.0531C56.6688 22.3283 61.7052 25.5347 65.2591 30.0928C65.9145 30.9334 67.1065 31.1818 67.995 30.593V30.593Z" fill="#D2E1F8"/>
<path d="M29.0094 66.8612C28.358 67.705 28.5107 68.9229 29.396 69.5166C33.5355 72.2923 38.3324 73.9573 43.324 74.334C48.9586 74.7592 54.5943 73.5242 59.5348 70.7816C64.4752 68.039 68.5038 63.909 71.1227 58.9019C73.4428 54.4663 74.5665 49.5145 74.3999 44.5333C74.3642 43.468 73.4112 42.6943 72.3507 42.8009V42.8009C71.2901 42.9075 70.5246 43.8542 70.5493 44.9199C70.6472 49.1491 69.6727 53.3458 67.7023 57.1129C65.433 61.4516 61.9422 65.0303 57.6612 67.4068C53.3803 69.7832 48.4969 70.8534 43.6145 70.4849C39.3752 70.165 35.2981 68.7727 31.7604 66.453C30.8691 65.8685 29.6607 66.0175 29.0094 66.8612V66.8612Z" fill="#D2E1F8"/>
<defs>
<linearGradient id="paint0_linear_2_2228" x1="16.9472" y1="-0.546973" x2="57.6776" y2="68.8455" gradientUnits="userSpaceOnUse">
<stop offset="0.394669" stop-color="#FF3A3A"/>
<stop offset="0.72037" stop-color="#D64D12"/>
<stop offset="0.749987" stop-color="#70AF09"/>
</linearGradient>
</defs>
</svg>
