<svg width="200" height="200" viewBox="0 0 200 200" fill="none" xmlns="http://www.w3.org/2000/svg">
<g clip-path="url(#clip0_1971_50493)">
<g clip-path="url(#clip1_1971_50493)">
<path d="M99.9859 0.490174C58.0149 0.496016 22.1151 26.4862 7.49665 63.2499C7.45147 63.3636 7.40629 63.4774 7.36151 63.5915C-0.106598 82.5786 6.74108 104.21 23.6644 115.607L80.7 160.538C105.309 179.924 139.054 183.484 166.87 169.073C172.672 166.067 177.47 162.653 180.374 158.683C192.467 142.148 199.581 121.741 199.509 99.6705C199.332 45.0219 154.634 0.482385 99.9859 0.490174Z" fill="#87AB49"/>
<path d="M129.834 162.288C130.662 160.29 129.714 158 127.717 157.172C125.719 156.344 123.429 157.292 122.601 159.29C121.773 161.287 122.721 163.577 124.718 164.405C126.716 165.233 129.006 164.285 129.834 162.288Z" fill="white"/>
<path d="M127.119 120.638C127.816 121.337 143.45 137.015 144.159 137.555C150.312 142.39 159.694 139.478 161.791 131.632L171.54 95.1518C179.704 86.3475 187.267 76.0226 193.38 65.5435C185.628 44.5405 170.991 26.8753 152.209 15.2764C144.308 19.4504 136.396 24.5158 129.083 30.0561C122.198 35.2703 117.939 39.3052 117.495 39.6881L79.8955 49.7368C71.5647 51.963 68.8372 62.3557 74.8865 68.4057L83.1429 76.6621L91.2688 84.788C91.2555 87.3422 91.5258 89.7359 92.0762 92.1292L80.0372 104.168C72.0986 103.7 64.0035 106.492 57.9379 112.558C55.1021 115.393 50.349 114.433 48.7374 110.761C48.6342 110.526 48.5275 110.293 48.4165 110.062C48.3822 109.991 48.3452 109.925 48.3074 109.86C46.7488 106.69 44.4964 103.922 41.7363 101.769C39.033 99.6611 37.9245 96.0367 39.0898 92.8131C40.0023 90.2889 40.4206 87.5283 40.2263 84.647C38.9796 66.1709 14.4636 58.8384 3.68068 74.9188C-12.7305 141.292 84.5204 213.849 137.457 192.275C152.774 186.032 166.945 175.705 177.951 161.798C185.337 152.466 172.407 140.718 163.816 148.953C159.545 153.047 154.907 156.763 149.956 160.05C147.943 161.386 145.406 161.391 143.249 160.305C141.469 159.41 139.386 160.628 139.199 162.528C138.962 164.946 137.551 167.098 135.331 168.084C131.325 169.863 127.178 171.382 122.909 172.625C120.55 173.312 118.026 172.518 116.464 170.622C116.456 170.611 116.447 170.6 116.438 170.59C112.711 166.086 107.371 162.886 101.431 161.806C97.4302 161.079 95.8435 156.214 98.7186 153.338C104.784 147.273 107.577 139.178 107.108 131.239L118.766 119.581C121.429 120.287 124.214 120.654 127.119 120.638Z" fill="#75963D"/>
<path d="M55.7413 98.4507C58.5315 98.4507 60.7935 96.189 60.7935 93.3988C60.7935 90.6087 58.5315 88.3466 55.7413 88.3466C52.9511 88.3466 50.6891 90.6087 50.6891 93.3988C50.6891 96.189 52.9511 98.4507 55.7413 98.4507Z" fill="white"/>
<path d="M53.2152 77.0909C54.6103 77.0909 55.7413 75.9599 55.7413 74.5648C55.7413 73.1697 54.6103 72.0387 53.2152 72.0387C51.8201 72.0387 50.6891 73.1697 50.6891 74.5648C50.6891 75.9599 51.8201 77.0909 53.2152 77.0909Z" fill="white"/>
<path d="M115.289 172.988C111.695 173.661 108.059 172.11 105.87 169.181C102.017 164.024 96.3424 160.552 90.0894 159.415C86.0888 158.688 84.5021 153.823 87.3771 150.947C98.6383 139.686 98.6383 121.428 87.3771 110.167C76.116 98.906 57.858 98.906 46.5968 110.167C43.7611 113.003 39.008 112.042 37.3963 108.371C35.8217 104.783 33.3653 101.67 30.301 99.3056C27.5899 97.2137 26.5905 93.6322 27.7527 90.4112C28.6625 87.8902 29.0792 85.1335 28.8848 82.2565C28.2208 72.4142 20.3021 64.437 10.464 63.7107C9.39534 63.6316 8.34338 63.639 7.31284 63.7224C2.90987 74.9629 0.490479 87.1989 0.490479 100C0.490479 154.958 45.0424 199.51 100 199.51C113.243 199.51 125.878 196.917 137.434 192.221C137.478 191.293 137.458 190.351 137.359 189.4C136.205 178.266 125.604 171.055 115.289 172.988Z" fill="#E6E6E6"/>
<path d="M37.0759 107.672C35.8443 105.105 31.9146 106.857 33.0004 109.489C33.314 110.249 33.7256 110.887 34.2627 111.302C37.3271 113.666 39.7835 116.779 41.3581 120.367C42.9697 124.039 47.7228 124.999 50.5586 122.163C61.8197 110.902 80.0777 110.902 91.3389 122.163C93.0475 123.872 94.4928 125.744 95.683 127.726C95.0544 121.316 92.2869 115.077 87.3772 110.167C76.116 98.906 57.858 98.906 46.5969 110.167C43.7611 113.003 39.008 112.042 37.3964 108.37C37.2932 108.135 37.1865 107.902 37.0759 107.672Z" fill="#F5F0F0"/>
<path d="M91.3389 162.944C88.4634 165.819 90.0501 170.683 94.0512 171.411C100.353 172.556 106.068 176.075 109.923 181.299C112.066 184.203 115.704 185.649 119.252 184.984C123.725 184.146 128.249 185.029 132.035 187.206C134.318 188.518 136.935 186.176 135.86 183.772C132.424 176.087 123.929 171.405 115.364 172.974C111.779 173.631 108.125 172.235 105.961 169.302C103.678 166.208 100.742 163.713 97.417 161.955C95.4213 160.9 92.9622 161.318 91.3669 162.916L91.3389 162.944Z" fill="#F5F0F0"/>
<path d="M9.1695 63.66C8.95802 63.6577 8.74731 63.6592 8.53739 63.6635C8.41276 63.6663 8.28735 63.6674 8.16311 63.6725C7.87802 63.6834 7.59448 63.6997 7.31289 63.7223C5.46602 68.4373 3.97318 73.3298 2.85657 78.3633C6.21303 76.4058 10.1903 75.394 14.4258 75.7067C16.1508 75.8341 17.8165 76.1846 19.3943 76.7287C23.3112 78.0802 26.4558 73.2398 23.6948 70.1747C23.5756 70.0442 23.4518 69.9177 23.3291 69.7903C23.2473 69.7054 23.1675 69.6189 23.0845 69.5356C22.9646 69.4152 22.8407 69.2992 22.718 69.1819C22.6222 69.0904 22.5276 68.9981 22.4298 68.9085C22.3122 68.8006 22.1915 68.6967 22.0711 68.5915C21.9632 68.4972 21.8557 68.4018 21.7455 68.3099C21.6302 68.2133 21.5122 68.1199 21.395 68.026C21.2746 67.9298 21.1547 67.8336 21.0324 67.7405C20.9198 67.6544 20.8049 67.5711 20.6904 67.4873C20.5584 67.3911 20.4264 67.2953 20.292 67.2023C20.1818 67.1259 20.07 67.0511 19.9578 66.9768C19.8149 66.8817 19.6712 66.7883 19.5259 66.6971C19.418 66.6293 19.309 66.5627 19.1995 66.4969C19.0457 66.4046 18.8911 66.3139 18.7349 66.2255C18.6294 66.1655 18.523 66.1067 18.4163 66.049C18.2527 65.9606 18.088 65.8746 17.9221 65.7904C17.8181 65.7378 17.7133 65.6853 17.6082 65.6342C17.436 65.5509 17.2623 65.4707 17.0874 65.3924C16.9846 65.346 16.8818 65.2997 16.7778 65.2553C16.5975 65.1782 16.4156 65.1046 16.2329 65.0325C16.1309 64.9924 16.0293 64.9515 15.9264 64.9129C15.7395 64.8428 15.5506 64.7774 15.3613 64.7128C15.2593 64.6781 15.1576 64.6419 15.0544 64.6088C14.8624 64.5468 14.668 64.49 14.4737 64.4339C14.3705 64.4043 14.2681 64.3728 14.1645 64.3443C13.9674 64.291 13.7688 64.2435 13.5694 64.1959C13.4658 64.1714 13.3629 64.1441 13.2586 64.1212C13.0553 64.0764 12.8496 64.0378 12.6444 63.9993C12.5423 63.9802 12.4411 63.958 12.3382 63.9404C12.1197 63.9031 11.8993 63.8727 11.6785 63.8427C11.5873 63.8302 11.4974 63.8146 11.4058 63.8033C11.0935 63.7652 10.7796 63.7336 10.4637 63.7107C10.1405 63.6869 9.81914 63.6737 9.4986 63.6651C9.38916 63.662 9.27933 63.6612 9.1695 63.66Z" fill="#F5F0F0"/>
<path d="M55.1947 161.432L45.4708 162.68C43.5948 162.921 41.9971 161.324 42.2378 159.447L43.4865 149.723C44.7336 140.009 49.1673 130.982 56.0929 124.057C62.9324 117.217 74.0218 117.217 80.8613 124.057C87.7008 130.896 87.7008 141.986 80.8613 148.825C73.9357 155.751 64.9093 160.185 55.1947 161.432Z" fill="#F5F0F0"/>
<path d="M114.817 162.276C116.979 162.276 118.731 160.523 118.731 158.362C118.731 156.2 116.979 154.448 114.817 154.448C112.655 154.448 110.903 156.2 110.903 158.362C110.903 160.523 112.655 162.276 114.817 162.276Z" fill="white"/>
<path d="M130.173 162.276C131.46 162.276 132.503 161.233 132.503 159.946C132.503 158.659 131.46 157.616 130.173 157.616C128.887 157.616 127.844 158.659 127.844 159.946C127.844 161.233 128.887 162.276 130.173 162.276Z" fill="white"/>
<path d="M44.3998 96.0597C47.19 96.0597 49.452 93.7977 49.452 91.0075C49.452 88.2172 47.19 85.9553 44.3998 85.9553C41.6095 85.9553 39.3475 88.2172 39.3475 91.0075C39.3475 93.7977 41.6095 96.0597 44.3998 96.0597Z" fill="white"/>
<path d="M41.8736 74.6999C43.2688 74.6999 44.3998 73.5689 44.3998 72.1738C44.3998 70.7787 43.2688 69.6477 41.8736 69.6477C40.4785 69.6477 39.3475 70.7787 39.3475 72.1738C39.3475 73.5689 40.4785 74.6999 41.8736 74.6999Z" fill="white"/>
<path fill-rule="evenodd" clip-rule="evenodd" d="M0.960938 162.276C0.960938 145.67 14.5473 132.084 31.1529 132.084H80.0952H80.8804H168.847C185.453 132.084 199.039 145.67 199.039 162.276C199.039 178.881 185.453 192.468 168.847 192.468H83.6654H82.8801H31.1529C14.5473 192.468 0.960938 178.881 0.960938 162.276Z" fill="#E80054"/>
<path d="M162.624 154.764V170.168C162.624 172.063 164.708 173.217 166.314 172.214L178.638 164.512C180.149 163.567 180.149 161.366 178.638 160.421L166.314 152.719C164.708 151.714 162.624 152.869 162.624 154.764Z" fill="#F9A0B1"/>
<path d="M28.9475 170.318C27.3195 170.318 25.8528 169.981 24.5475 169.306C23.2422 168.617 22.2155 167.663 21.4675 166.446C20.7342 165.214 20.3675 163.821 20.3675 162.266C20.3675 160.711 20.7342 159.325 21.4675 158.108C22.2155 156.876 23.2422 155.923 24.5475 155.248C25.8528 154.559 27.3195 154.214 28.9475 154.214C30.4435 154.214 31.7782 154.478 32.9515 155.006C34.1248 155.534 35.0928 156.297 35.8555 157.294L32.5775 160.22C31.6242 159.017 30.5022 158.416 29.2115 158.416C28.1262 158.416 27.2535 158.768 26.5935 159.472C25.9335 160.161 25.6035 161.093 25.6035 162.266C25.6035 163.439 25.9335 164.378 26.5935 165.082C27.2535 165.771 28.1262 166.116 29.2115 166.116C30.5022 166.116 31.6242 165.515 32.5775 164.312L35.8555 167.238C35.0928 168.235 34.1248 168.998 32.9515 169.526C31.7782 170.054 30.4435 170.318 28.9475 170.318ZM47.7463 170.318C46.089 170.318 44.6003 169.973 43.2803 169.284C41.9603 168.595 40.9263 167.641 40.1783 166.424C39.4303 165.192 39.0563 163.806 39.0563 162.266C39.0563 160.726 39.4303 159.347 40.1783 158.13C40.9263 156.898 41.9603 155.937 43.2803 155.248C44.6003 154.559 46.089 154.214 47.7463 154.214C49.4037 154.214 50.8923 154.559 52.2123 155.248C53.5323 155.937 54.5663 156.898 55.3143 158.13C56.0623 159.347 56.4363 160.726 56.4363 162.266C56.4363 163.806 56.0623 165.192 55.3143 166.424C54.5663 167.641 53.5323 168.595 52.2123 169.284C50.8923 169.973 49.4037 170.318 47.7463 170.318ZM47.7463 166.116C48.3917 166.116 48.971 165.962 49.4843 165.654C50.0123 165.331 50.4303 164.884 50.7383 164.312C51.0463 163.725 51.2003 163.043 51.2003 162.266C51.2003 161.489 51.0463 160.814 50.7383 160.242C50.4303 159.655 50.0123 159.208 49.4843 158.9C48.971 158.577 48.3917 158.416 47.7463 158.416C47.101 158.416 46.5143 158.577 45.9863 158.9C45.473 159.208 45.0623 159.655 44.7543 160.242C44.4463 160.814 44.2923 161.489 44.2923 162.266C44.2923 163.043 44.4463 163.725 44.7543 164.312C45.0623 164.884 45.473 165.331 45.9863 165.654C46.5143 165.962 47.101 166.116 47.7463 166.116ZM76.1408 154.566V169.966H71.8728L66.0208 162.97V169.966H60.9608V154.566H65.2288L71.0808 161.562V154.566H76.1408ZM96.4624 154.566V169.966H92.1944L86.3424 162.97V169.966H81.2824V154.566H85.5504L91.4024 161.562V154.566H96.4624ZM114.408 166.05V169.966H101.604V154.566H114.122V158.482H106.708V160.286H113.22V164.026H106.708V166.05H114.408ZM127.011 170.318C125.383 170.318 123.916 169.981 122.611 169.306C121.305 168.617 120.279 167.663 119.531 166.446C118.797 165.214 118.431 163.821 118.431 162.266C118.431 160.711 118.797 159.325 119.531 158.108C120.279 156.876 121.305 155.923 122.611 155.248C123.916 154.559 125.383 154.214 127.011 154.214C128.507 154.214 129.841 154.478 131.015 155.006C132.188 155.534 133.156 156.297 133.919 157.294L130.641 160.22C129.687 159.017 128.565 158.416 127.275 158.416C126.189 158.416 125.317 158.768 124.657 159.472C123.997 160.161 123.667 161.093 123.667 162.266C123.667 163.439 123.997 164.378 124.657 165.082C125.317 165.771 126.189 166.116 127.275 166.116C128.565 166.116 129.687 165.515 130.641 164.312L133.919 167.238C133.156 168.235 132.188 168.998 131.015 169.526C129.841 170.054 128.507 170.318 127.011 170.318ZM141.294 158.592H136.784V154.566H150.996V158.592H146.486V169.966H141.294V158.592Z" fill="white"/>
<path d="M155.132 84.8111L141.309 70.9879L121.873 104.969L129.858 125.083C134.946 130.171 143.633 127.84 145.491 120.889L155.132 84.8111Z" fill="#FB1B43"/>
<path d="M130.645 125.79C133.81 128.332 137.623 123.69 134.624 120.954C134.514 120.854 134.405 120.75 134.298 120.643C132.041 118.385 132.576 114.614 135.352 113.039C135.421 113 135.489 112.962 135.558 112.922C144.728 107.675 151.363 98.9143 154.091 88.7072L155.133 84.811L141.309 70.9877L112.977 99.3204L108.536 103.761L122.944 118.169L129.858 125.082C130.112 125.337 130.375 125.573 130.645 125.79Z" fill="#FF6480"/>
<path d="M112.992 42.6714L126.815 56.4947L90.4623 70.9881L72.7203 67.946C67.6327 62.8584 69.9635 54.171 76.9146 52.3131L112.992 42.6714Z" fill="#FB1B43"/>
<path d="M72.0137 67.1583C69.4719 63.9935 74.114 60.1811 76.8499 63.1795C76.9503 63.2898 77.054 63.3984 77.1613 63.5053C79.4184 65.7625 83.1895 65.2279 84.7646 62.4513C84.8035 62.3828 84.8423 62.3146 84.8817 62.2462C90.1288 53.0761 98.8895 46.4404 109.097 43.7123L112.993 42.671L126.816 56.4942L98.4835 84.8269L94.043 89.2674L79.635 74.8594L72.7214 67.9459C72.4664 67.6918 72.2309 67.429 72.0137 67.1583Z" fill="#FF6480"/>
<path d="M150.568 93.5511C127.204 116.914 108.329 115.196 95.6272 102.495C82.9255 89.7931 85.1722 77.9873 108.536 54.6239C131.9 31.2604 167.532 5.18626 180.234 17.8883C192.936 30.5903 173.931 70.1873 150.568 93.5511Z" fill="#F1F4FB"/>
<path d="M151.852 53.3901C150.824 51.6871 149.616 50.2068 148.276 48.9486C144.726 45.6152 148.052 39.7 152.695 41.1701C155.577 42.0826 158.252 43.6807 160.463 45.8912L160.823 46.2515C168.006 53.4342 180.32 50.1112 182.835 40.2697C184.761 32.7322 185.169 25.2228 181.916 20.0117C174.246 7.75156 151.45 16.2455 138.608 22.8581C138.35 22.9912 138.092 23.1249 137.834 23.2602C137.834 23.2605 137.833 23.2605 137.833 23.2609C125.99 29.468 113.968 38.1574 104.571 47.5541C81.2074 70.9175 82.9254 89.7931 95.6271 102.495C97.7189 104.587 99.9793 106.378 102.399 107.811C97.8546 100.14 96.9391 90.8612 101.66 80.2144C104.932 72.8351 114.755 71.0825 120.285 76.9626C120.426 77.1123 120.569 77.2603 120.715 77.4065C129.459 86.1503 144.343 85.0117 151.488 73.9916C155.518 67.7759 155.683 59.731 151.852 53.3901Z" fill="#D7DEED"/>
<path d="M177.646 54.6237C184.762 39.0899 187.009 24.6627 180.234 17.8877C173.459 11.1128 163.564 17.8913 148.03 25.0071L177.646 54.6237Z" fill="#FB1B43"/>
<path d="M172.409 43.2835L167.934 38.8083C164.068 34.9428 165.69 28.3468 170.911 26.7237C173.367 25.9599 175.748 25.3615 178.023 24.9479C181.298 24.3524 182.624 20.3071 180.285 17.9388C180.268 17.9219 180.251 17.9049 180.234 17.8879C173.459 11.113 159.032 13.36 143.498 20.4758L172.409 49.3866C174.094 47.7012 174.094 44.9689 172.409 43.2835Z" fill="#FF6480"/>
<path d="M137.931 80.0017C148.872 80.0017 157.741 71.1322 157.741 60.1912C157.741 49.2501 148.872 40.3806 137.931 40.3806C126.99 40.3806 118.12 49.2501 118.12 60.1912C118.12 71.1322 126.99 80.0017 137.931 80.0017Z" fill="white"/>
<path d="M66.8466 140.552L55.5981 141.996C55.5981 141.996 64.1792 118.051 69.9784 112.252C69.9784 112.252 79.035 103.758 84.5269 106.504C85.9022 107.191 87.1917 108.109 88.3384 109.255C94.0655 114.982 94.0655 124.268 88.3384 129.995C82.5395 135.795 74.9809 139.507 66.8466 140.552Z" fill="#FEC502"/>
<path d="M147.836 70.0967C142.365 75.5672 133.496 75.5672 128.025 70.0967C122.555 64.6263 124.993 58.9086 130.463 53.4382C135.25 48.6513 140.201 44.9011 145.638 48.4911C146.415 49.0041 147.152 49.6023 147.836 50.2861C153.306 55.7566 153.306 64.626 147.836 70.0967Z" fill="#87AB49"/>
<path d="M87.1169 87.7964L101.71 102.39L91.6016 112.499L77.0082 97.9052L87.1169 87.7964Z" fill="#FF6480"/>
<path d="M99.6727 120.589L88.5834 109.5C85.7914 106.708 85.7914 102.182 88.5834 99.3898C91.3753 96.5978 95.9017 96.5978 98.6936 99.3898L109.783 110.479L99.6727 120.589Z" fill="#FB1B43"/>
<path d="M138.275 67.9547C139.44 66.7901 139.44 64.9021 138.275 63.7375L134.03 59.4917C133.096 58.558 133.045 57.0415 133.947 56.0771C133.973 56.0497 133.999 56.0227 134.024 55.9956C134.968 55.0035 136.559 55.0224 137.527 55.9904L138.812 57.275C139.935 58.3982 141.763 58.5312 142.956 57.4831C144.264 56.3344 144.312 54.3412 143.101 53.1302C142.564 52.5931 142.933 51.6809 143.692 51.6552C143.719 51.6542 143.746 51.6535 143.774 51.6526C145.801 51.5955 146.475 48.9007 144.695 47.9275C139.594 45.1375 133.002 45.7066 128.478 49.8527C122.559 55.2775 122.408 64.4791 128.025 70.0967C128.41 70.4815 128.812 70.839 129.228 71.169C130.043 71.8154 131.193 71.0193 130.868 70.0311C130.859 70.0018 130.849 69.9724 130.839 69.9431C130.213 67.9912 132.609 66.505 134.058 67.9547C135.223 69.119 137.111 69.119 138.275 67.9547Z" fill="#75963D"/>
<path d="M67.5983 109.256C61.7991 115.055 58.0868 122.613 57.0422 130.748L55.5981 141.996C57.8608 141.705 59.6434 139.932 59.9503 137.672C60.144 136.244 60.3987 134.756 60.8935 132.904C61.535 130.503 64.5291 129.688 66.2866 131.445L68.0321 133.191C69.4148 134.573 71.657 134.573 73.0398 133.191C74.4225 131.808 74.4225 129.566 73.0398 128.183L68.2675 123.411C67.0569 122.2 66.9611 120.269 68.0454 118.945L68.0696 118.915C69.3075 117.403 71.5803 117.29 72.9621 118.672L74.6003 120.31C75.983 121.693 78.2252 121.693 79.608 120.31C80.9907 118.927 80.9907 116.685 79.608 115.302C78.3654 114.06 79.2453 111.917 81.0025 111.932C81.0602 111.933 81.1182 111.934 81.176 111.935C84.9222 112.011 85.8546 106.754 82.2753 105.644C77.4095 104.135 71.7757 105.078 67.5983 109.256Z" fill="#FFA50A"/>
</g>
</g>
<defs>
<clipPath id="clip0_1971_50493">
<rect width="200" height="200" fill="white"/>
</clipPath>
<clipPath id="clip1_1971_50493">
<rect width="199.02" height="199.02" fill="white" transform="translate(0.490234 0.490173)"/>
</clipPath>
</defs>
</svg>
