<svg width="30" height="30" viewBox="0 0 30 30" fill="none" xmlns="http://www.w3.org/2000/svg">
<rect width="30" height="30" rx="15" fill="#EEF3F5"/>
<g clip-path="url(#clip0_1229_3397)">
<path d="M8.90793 18.7133C9.01683 18.6043 9.16658 18.5408 9.32541 18.5408H23.7284C23.9916 18.5408 24.1232 18.8586 23.9372 19.0448L21.092 21.892C20.983 22.001 20.8333 22.0646 20.6745 22.0646H6.27146C6.00827 22.0646 5.87667 21.7467 6.06272 21.5606L8.90793 18.7133Z" fill="url(#paint0_linear_1229_3397)"/>
<path d="M8.90793 8.08272C9.02137 7.97373 9.17112 7.91016 9.32541 7.91016H23.7284C23.9916 7.91016 24.1232 8.22803 23.9372 8.41421L21.092 11.2614C20.983 11.3704 20.8333 11.434 20.6745 11.434H6.27146C6.00827 11.434 5.87667 11.1161 6.06272 10.9299L8.90793 8.08272Z" fill="url(#paint1_linear_1229_3397)"/>
<path d="M21.092 13.364C20.983 13.255 20.8333 13.1914 20.6745 13.1914H6.27146C6.00827 13.1914 5.87667 13.5092 6.06272 13.6955L8.90793 16.5427C9.01683 16.6517 9.16658 16.7152 9.32541 16.7152H23.7284C23.9916 16.7152 24.1232 16.3974 23.9372 16.2112L21.092 13.364Z" fill="url(#paint2_linear_1229_3397)"/>
</g>
<defs>
<linearGradient id="paint0_linear_1229_3397" x1="22.3525" y1="6.20934" x2="12.3734" y2="25.3099" gradientUnits="userSpaceOnUse">
<stop stop-color="#00FFA3"/>
<stop offset="1" stop-color="#DC1FFF"/>
</linearGradient>
<linearGradient id="paint1_linear_1229_3397" x1="17.994" y1="3.93215" x2="8.01478" y2="23.0327" gradientUnits="userSpaceOnUse">
<stop stop-color="#00FFA3"/>
<stop offset="1" stop-color="#DC1FFF"/>
</linearGradient>
<linearGradient id="paint2_linear_1229_3397" x1="20.1594" y1="5.06348" x2="10.1802" y2="24.164" gradientUnits="userSpaceOnUse">
<stop stop-color="#00FFA3"/>
<stop offset="1" stop-color="#DC1FFF"/>
</linearGradient>
<clipPath id="clip0_1229_3397">
<rect width="18.0469" height="14.1797" fill="white" transform="translate(5.97656 7.91016)"/>
</clipPath>
</defs>
</svg>
