<svg xmlns="http://www.w3.org/2000/svg" width="483.001" height="493.349" viewBox="0 0 483.001 493.349"><g transform="translate(-2078.175 -73.932)"><ellipse cx="241.501" cy="9.534" rx="241.501" ry="9.534" transform="translate(2078.175 548.212)" opacity="0.1"/><g transform="translate(2149.871 174.396)"><g transform="translate(8.181 186.245)"><g transform="translate(69.705 185.51)"><path d="M2281.791,718.5l1.409,6.221,13.246,3.8,4.509-7.431-7.328-5.011-13.246-3.8Z" transform="translate(-2280.381 -712.279)" fill="#1a3151"/></g><g transform="translate(15.672 185.117)"><path d="M2226.015,712.449l-.354,6.511-12.569,5.81-5.753-6.861,6.462-6.16Z" transform="translate(-2207.339 -711.748)" fill="#1a3151"/></g><path d="M2270.455,461.506l6.177,20.011-2.6,9.311.273-.04-1.813,53.307-4,107.331-12.3-.067-25.919-124.507-1.428,5.843-8.358,116.066-11.3-.648-22.1-150.454-.942-30.619Z" transform="translate(-2186.153 -461.506)" fill="#8c4fdb"/></g><g transform="translate(0 65.098)"><path d="M2213.62,299.6l14.356-1.643c32.079-3.671,35.748,41.1,40.607,63.28,7.037,32.125,10.715,65.148,8.635,98.038-10.286-5.213-24.269-3.632-35.781-3.676-21.2-.081-43.139.014-63.459,3.9-3.794.725-2.971-26.8-2.356-31.927q1.88-15.669,3.761-31.338,3.4-28.319,6.8-56.636.1-.831.2-1.662a16.628,16.628,0,0,1,1.82-5.81l12.612-23.789A16.635,16.635,0,0,1,2213.62,299.6Z" transform="translate(-2175.094 -297.739)" fill="#b5d6ca"/></g><g transform="translate(33.625)"><path d="M2222.452,229.337a35.256,35.256,0,0,1,3.6-9.1c3.155-5.406,8.547-9.837,14.781-10.4,11.468-1.034,24.365,6.115,25.461,18.364.69,7.722,1.775,16.009-.419,23.585a21.046,21.046,0,0,1-6.526,10.378c-2.3,1.881-7.175,2.354-8.877,4.461-5.574,6.9,2.477,10.166-7.672,14.873a3.039,3.039,0,0,1-3.784-.394l-3.867-2.532a1.193,1.193,0,0,1-.4-.361,1.18,1.18,0,0,1-.028-.854c2.417-10.689-9.855-13.857-12.6-23.552a39.062,39.062,0,0,1-1.273-15.658A74.234,74.234,0,0,1,2222.452,229.337Z" transform="translate(-2220.548 -209.739)" fill="#f7cebc"/></g></g><path d="M2267.608,242.334a1.435,1.435,0,0,0-.891-2.435c-5-.24-10.766-.519-15.652.789-2.622.7-2.462,2.656-2.446,5.182,0,.434.009.852.027,1.255-.556-.036-1.138.021-1.685.026a45.587,45.587,0,0,0-4.663.163c-.01,0-.017.007-.027.009a15.531,15.531,0,0,0-.954-4.522.629.629,0,0,0-.219-.271,1.19,1.19,0,0,0-.794-.659,52.55,52.55,0,0,0-10.96-1.747c-1.9-.092-5.7-.8-7.354.537a4.45,4.45,0,0,0-1.153,2.694c-.232-.219-.465-.433-.688-.641l-.193-.18c-.069.544-.129,1.089-.15,1.639a2.594,2.594,0,0,1-.121.7c.324.294.648.587.984.865.01,2.31.464,4.691,1.178,5.618,1.261,1.636,3.436,1.4,5.223,1.435,3.856.067,7.735.181,11.589.083,1.736-.044,2.875.124,3.357-1.8a10.23,10.23,0,0,0,.259-1.759,1.065,1.065,0,0,0,.193.043,45.829,45.829,0,0,0,4.659-.206,16.272,16.272,0,0,0,1.772-.138,3.1,3.1,0,0,0,2.813,2.381c4.919.817,10.023.652,14.986,1.467a1.211,1.211,0,0,0,1.39-1.306C2268.122,248.707,2268.839,244.976,2267.608,242.334Zm-27.468,4.692c-.36,3.468-1.689,3.651-4.565,3.579-2.56-.064-9.915.985-11.539-.957-1.02-1.219-.785-2.906-.752-4.485q-.846-2.807,1.784-2.656,1.388-.046,2.775-.01a52.749,52.749,0,0,1,12.024,1.829,1.177,1.177,0,0,0,.229.036A17.625,17.625,0,0,1,2240.14,247.026Zm25.574,3.2c-2.614-.411-5.234-.75-7.868-.969-1.44-.12-2.881-.2-4.323-.273-1.87-.093-2.148-.215-2.46-2.213-.688-4.4,3.788-4.055,6.714-4.24,1.673-.107,6.251-.979,7.49.277C2266.606,244.166,2265.654,248.5,2265.714,250.224Z" transform="translate(-36.828 -43.14)" fill="#1a3151"/><g transform="translate(2214.274 159.143)"><g transform="translate(61.837)"><path d="M2349.983,207.213l8.317,1.27,3.7-13.5-6.537-5.865-7.251,2.138,2.214,6.287-1.56-.238-1.312-1.823-1.806,1.347Z" transform="translate(-2345.745 -189.121)" fill="#f7cebc"/></g><g transform="translate(0 15.447)"><path d="M2268.552,301.618c-3.868-12.007-6.581-23.321-6.388-23.321,8.664.02,17.332.049,25.993-.209,5.485-.163,13.339,2.185,16.688-2.076,4.264-5.426,5.615-17.724,7.716-24.376l7.024-22.247c1.384-4.384,3.583-18.04,7.531-19.357.837-.279,11.217,1.451,11.229,1.261l-2.068,33.861q-.772,12.655-1.545,25.311c-.906,14.827-4.946,20.5-15.784,30.535-10.74,9.944-22.263,18.995-33.761,28.034C2280.144,333,2273.429,316.758,2268.552,301.618Z" transform="translate(-2262.154 -210.002)" fill="#b5d6ca"/></g></g><g transform="translate(2177.157 256.875)"><g transform="translate(0 0)"><g transform="translate(9.781)"><path d="M2306.032,356.6l2.077,5.033,12.366-5.17-2.077-5.033a48.458,48.458,0,0,0-63.373-26.47c-24.667,10.313-36.374,38.967-26.1,63.876l17.037,41.292,12.366-5.17L2241.3,383.66a35.462,35.462,0,0,1,18.883-46.219A35.063,35.063,0,0,1,2306.032,356.6Z" transform="translate(-2225.201 -321.235)" fill="#898989"/></g><g transform="translate(0 67.299)"><path d="M2359.213,499.791a5.218,5.218,0,0,1-4.507,5.843l-126.557,15.75a5.217,5.217,0,0,1-5.8-4.56l-10.328-82.981a5.218,5.218,0,0,1,4.507-5.843l126.557-15.751a5.219,5.219,0,0,1,5.8,4.56Z" transform="translate(-2211.979 -412.21)" fill="#145566"/></g><path d="M2363.34,512.715l-6.328-50.844c-37.263,40.788-95.717,61.645-129.172,70.793a5.16,5.16,0,0,0,4.437,1.644l126.557-15.75A5.218,5.218,0,0,0,2363.34,512.715Z" transform="translate(-2216.107 -357.836)" fill="#1e1e1e" opacity="0.15"/><path d="M2316.457,461.564a11.4,11.4,0,1,0-16.9,11.405l-.388,26.258,20.651-2.571-6.812-25.361A11.508,11.508,0,0,0,2316.457,461.564Z" transform="translate(-2233.259 -355.129)" fill="#1a3151"/><path d="M2219.553,443.523l2.224,17.869c-.476-7.646,1.088-24.609,23.721-27.425l-20.546,2.557A6.269,6.269,0,0,0,2219.553,443.523Z" transform="translate(-2213.938 -350.574)" fill="#1e1e1e" opacity="0.15"/><path d="M2301.082,506.2s14.782-6.28,13.839-27.932l6.812,25.361Z" transform="translate(-2235.168 -362.103)" fill="#1e1e1e" opacity="0.2"/></g></g><path d="M2440.287,122.844,2412.2,104.521a4.192,4.192,0,0,0-4.153-.245l-24.9,12.347a39.93,39.93,0,0,0-6.953-16.654l18.883-17.131,29.74,9.249a4.192,4.192,0,1,0,2.489-8.006l-32.026-9.96a4.192,4.192,0,0,0-4.062.9l-20.543,18.637a47.965,47.965,0,0,0-64.722,0L2285.4,75.019a4.191,4.191,0,0,0-4.061-.9l-32.027,9.96a4.192,4.192,0,0,0,2.49,8.006l29.739-9.249,18.883,17.131a39.936,39.936,0,0,0-6.953,16.654l-24.9-12.347a4.193,4.193,0,0,0-4.152.245l-28.091,18.324a4.192,4.192,0,1,0,4.581,7.022l26.084-17.015,26.044,12.913a39.029,39.029,0,0,0,2.284,10.733l-17.9-2.311a4.188,4.188,0,0,0-3.846,1.585l-20.587,26.477a4.192,4.192,0,1,0,6.618,5.146l19.118-24.586,21.287,2.749a43.12,43.12,0,0,0,6.87,7.765l6.449,18.295h13.085v-7.645h3.186v7.645h17.411v-7.645h3.186v7.645h13.085l6.449-18.295a43.113,43.113,0,0,0,6.871-7.765l21.287-2.749,19.117,24.586a4.192,4.192,0,1,0,6.619-5.146l-20.588-26.477a4.189,4.189,0,0,0-3.846-1.585l-17.9,2.312a39,39,0,0,0,2.284-10.734l26.044-12.913,26.085,17.015a4.192,4.192,0,0,0,4.581-7.022Zm-122.617,16.2a13.1,13.1,0,0,1-12.729-13.8c.158-4.2,2.128-6.3,6.651-6.721,2.242-.209,12.133-.2,14.723.284,3.85.716,5.684,3.294,5.59,7.165A13.489,13.489,0,0,1,2317.67,139.041Zm25.3,12.542h-8.269a2.791,2.791,0,0,1-2.263-4.424l4.134-5.729a2.792,2.792,0,0,1,4.527,0l4.134,5.729A2.791,2.791,0,0,1,2342.974,151.583Zm1.736-25.61c-.094-3.871,1.741-6.449,5.59-7.165,2.591-.482,12.481-.493,14.724-.284,4.523.422,6.492,2.524,6.651,6.721a13.1,13.1,0,0,1-12.729,13.8A13.49,13.49,0,0,1,2344.71,125.973Z" transform="translate(-40.664 0)" fill="#eb2554"/><g transform="translate(2386.448 241.191)"><g transform="translate(2.19 31.285)"><path d="M2534.771,439.265c.018-.054.035-.109.049-.165.664-2.519-1.658-3.555-2.24-5.556-.543-1.873,1.867-4.118.2-5.477-.7-.571-2.344-1.337-3.668-2.439a16.1,16.1,0,0,1-4.346-7.33,293.859,293.859,0,0,0-11.41-32.187,3.663,3.663,0,0,1-.47-1.844c.121-1.188,1.035-1.849,1.871-2.605a81.353,81.353,0,0,0,10.757-11.286c2.821-3.745,5.3-7.69,6.167-12.338s-.146-9.565-3.571-12.752c-2.564-2.387-5.949-3.662-9.322-2.562-8.363,2.727-10.107,12.8-13.052,19.9-2.786,6.722-5.134,12.45-7.4,19.123a5.946,5.946,0,0,0-.459,2.493,6.224,6.224,0,0,0,.965,2.488c5.713,9.859,11.535,19.324,14.983,30.182.948,2.983,2.884,5.106,3.443,8.1.357,1.912-.763,3.645-.7,5.549a15.178,15.178,0,0,0,1.091,5.8c2.223,4.666,10.761,7.795,15.269,4.971A4.169,4.169,0,0,0,2534.771,439.265Z" transform="translate(-2497.861 -342.324)" fill="#f7931e"/></g><path d="M2504.85,348.857c-3.246,7.105-6.3,14.293-9.038,21.613a9.832,9.832,0,0,0-.889,4.274,9.723,9.723,0,0,0,.944,2.984,195.174,195.174,0,0,0,12.167,23.148,1.148,1.148,0,0,0,1.489.7c2.657-.478,13.83-.966,14.9-3.233,1.192-2.531-3.229-7.125-4.271-9.2q-2.766-5.489-5.109-11.178a6.772,6.772,0,0,1-.724-4.209,7.218,7.218,0,0,1,2.451-3.219c5.97-5.431,10.953-11.973,16.471-17.872,3.816-4.08,8.093-8,11.508-12.428,6.716-8.719,10.109-11.583,11.861-19.382,1.677-7.472-.258-16.275-7.879-19.593-7.891-3.436-16.734.808-22.355,6.4-2.319,2.307-3.84,5.277-5.323,8.193C2515.5,326.779,2509.939,337.717,2504.85,348.857Z" transform="translate(-2494.901 -300.033)" fill="#f7931e"/></g><g transform="translate(2392.083 337.609)"><g transform="translate(0)"><g transform="translate(0 142.553)"><g transform="translate(16.912)"><path d="M2532.32,690.447a52.224,52.224,0,0,1-6.607-.631c-1.139-21.862.927-44.774,1.823-66.74l16.848.9a196.344,196.344,0,0,0-8.335,36.116C2535.79,662.034,2532.64,690.435,2532.32,690.447Z" transform="translate(-2525.379 -623.076)" fill="#efbfa5"/></g><g transform="translate(0 62.444)"><path d="M2519.082,707.543a3.389,3.389,0,0,0-3.128,1.215c-.537.49-.9,1.184-1.549,1.535a5.092,5.092,0,0,1-2.052.5c-4.052.408-13.385.238-8.412,7.014,4.515,6.153,16.508,3.7,23.436,2.032a2.379,2.379,0,0,0,1.271-.531,3.261,3.261,0,0,0,.7-1.375c.791-2.9,1.872-6.511-1.689-7.724-1.519-.518-2.918.487-4.525-.07C2521.819,709.68,2520.469,707.79,2519.082,707.543Z" transform="translate(-2502.518 -707.488)" fill="#1a3151"/></g></g><path d="M2511.173,586.11l34.358-.667q13.9-66.156,24.467-132.954c.546-3.452,1.078-7.041.084-10.391-1.881-6.335-8.666-9.95-15.163-11.164-10.1-1.886-28.644.74-33.821,11.236-5.471,11.093-4.553,30.9-5.88,43.162A745.07,745.07,0,0,0,2511.173,586.11Z" transform="translate(-2504.696 -430.372)" fill="#145566"/></g><g transform="translate(47.26)"><g transform="translate(30.026 142.553)"><path d="M2619.057,690.447a52.249,52.249,0,0,0,6.608-.631c1.138-21.862-.928-44.774-1.824-66.74l-16.848.9a196.324,196.324,0,0,1,8.335,36.116C2615.587,662.034,2618.736,690.435,2619.057,690.447Z" transform="translate(-2606.993 -623.076)" fill="#efbfa5"/><g transform="translate(8.29 62.444)"><path d="M2629.261,707.543a3.388,3.388,0,0,1,3.128,1.215c.537.49.9,1.184,1.549,1.535a5.093,5.093,0,0,0,2.052.5c4.052.408,13.385.238,8.413,7.014-4.516,6.153-16.509,3.7-23.436,2.032a2.379,2.379,0,0,1-1.271-.531,3.259,3.259,0,0,1-.7-1.375c-.79-2.9-1.872-6.511,1.689-7.724,1.519-.518,2.917.487,4.525-.07C2626.525,709.68,2627.875,707.79,2629.261,707.543Z" transform="translate(-2618.199 -707.488)" fill="#1a3151"/></g></g><path d="M2625.87,586.11l-34.358-.667q-13.9-66.156-24.467-132.954c-.546-3.452-1.078-7.041-.083-10.391,1.88-6.335,8.666-9.95,15.162-11.164,10.1-1.886,28.644.74,33.821,11.236,5.471,11.093,4.553,30.9,5.88,43.162A745.268,745.268,0,0,1,2625.87,586.11Z" transform="translate(-2566.404 -430.372)" fill="#145566"/></g></g><g transform="translate(2400.697 238.58)"><path d="M2582.906,309.425a81.878,81.878,0,0,1,20.2,31.593c7.336,20.592,7.478,42.578,7.545,64.122q.034,10.756.067,21.511c.023,7.055-.6,8.574-8.268,7.644-14.208-1.724-28.978-4.653-41.852-10.967-6.126-3-11.851-6.8-18.274-9.165-9.342-3.441-18.921-1.883-28.165-4.122a219.223,219.223,0,0,0,8.944-34.96c2.121-12.869,4.048-26.906,7.156-39.6,1.865-7.619,5.332-14.736,8.86-21.741,2.371-4.708,4.882-9.528,8.908-12.932C2560.16,290.558,2573.76,300.72,2582.906,309.425Z" transform="translate(-2514.162 -296.504)" fill="#f15a24"/></g><g transform="translate(2434.736 173.291)"><g transform="translate(0 8.788)"><path d="M2561.912,256.647c1.911,4.177,5.034,7.659,7.584,11.48,2.48,3.717,3.373,7.081,4.031,11.391.475,3.113,1.588,5.547,5.338,6.079,7.073,1.005,5.05-4.839,6.657-9.09,1.836-4.859,5.752-8.7,8.489-13.036,7.908-12.533,5.651-37.3-10.786-42.591C2565.254,215.1,2556.112,243.971,2561.912,256.647Z" transform="translate(-2560.176 -220.126)" fill="#efbfa5"/></g><g transform="translate(18.903 13.785)"><path d="M2597.21,246.277c2.04.082,4.284.244,5.8,1.614s1.349,4.359-.649,4.682c-1.811.293-4.155-1.6-5.261-.217-.646.806-.079,1.986.411,2.929a17.2,17.2,0,0,1,1.567,11.666c.745.69,1.907-.026,2.562-.746a37.54,37.54,0,0,0,7.45-12.235,7.507,7.507,0,0,0,2.739,2.651c-.677-1.691-.249-3.541.169-5.267,1.536-6.34,2.581-13.767-1.846-18.948a16.478,16.478,0,0,0-9.594-5.037,48.166,48.166,0,0,0-10.965-.342c-1.562.071-3.486.407-3.861,1.852,3.426,1.374,6.97,4.049,8.685,7.293C2594.94,237.17,2597,246.269,2597.21,246.277Z" transform="translate(-2585.729 -226.882)" fill="#1a3151"/></g><g transform="translate(2.851)"><path d="M2584.323,226.195q.188.136.368.274c1.552,1.182,3.009,2.62,4.887,3.144,2.709.755,5.619-.55,8.285.373,2.981,1.031,4.941,4.6,7.116,6.705a31.939,31.939,0,0,0,20.211,8.783,13.227,13.227,0,0,0,3.8-.018c1.5-.4,1.45-1.087-.15-1.6-5.018-1.607-6.59-8.655-6.211-13.327.3-3.687,1.571-7.542.165-10.963-1.075-2.614-3.381-3.964-5.612-5.459-2.46-1.65-5.126-1.205-7.918-2-2.914-.828-5.287-3.122-8.259-3.707-3.139-.618-6.275.773-9.416,1.383a19.493,19.493,0,0,1-7.873-.1c-2.313-.509-4.57-1.445-6.938-1.423-3.492.033-6.7,2.212-8.743,5.048-2.882,4.012-4.745,10.877-3.73,16.159-.157-.82,2.6-3.79,3.168-4.428a7.466,7.466,0,0,1,4.472-2.83C2576.089,221.72,2581,223.779,2584.323,226.195Z" transform="translate(-2564.03 -208.246)" fill="#1a3151"/></g></g><g transform="translate(2454.666 255.864)"><g transform="translate(29.307 25.369)"><path d="M2639.439,447.11c-.027-.047-.052-.1-.075-.145-1.067-2.231.913-3.612,1.1-5.581.173-1.844-2.476-3.508-1.164-5.072.553-.658,1.948-1.665,2.986-2.929a15.291,15.291,0,0,0,2.745-7.611,279.267,279.267,0,0,1,4.9-32.053,3.466,3.466,0,0,0,.109-1.8c-.325-1.087-1.294-1.541-2.21-2.1a77.342,77.342,0,0,1-12.044-8.608c-3.3-2.99-6.309-6.227-7.951-10.407s-1.569-8.946,1.056-12.529c1.965-2.683,4.9-4.476,8.236-4.051,8.286,1.052,11.708,10.134,15.722,16.234,3.8,5.772,7.008,10.695,10.314,16.513a5.671,5.671,0,0,1,.872,2.244,5.9,5.9,0,0,1-.456,2.493c-3.569,10.214-7.311,20.078-8.59,30.82-.352,2.952-1.779,5.276-1.767,8.17.008,1.846,1.362,3.262,1.638,5.05a14.421,14.421,0,0,1,.017,5.6c-1.241,4.747-8.646,9.188-13.353,7.359A3.957,3.957,0,0,1,2639.439,447.11Z" transform="translate(-2626.736 -354.163)" fill="#f7931e"/></g><g transform="translate(0)"><path d="M2642.155,358.937c4.294,6.047,8.424,12.207,12.283,18.545a7.042,7.042,0,0,1,1.243,6.778,185.3,185.3,0,0,1-7.22,23.758,1.09,1.09,0,0,1-1.263.92c-2.563.028-13.069,1.565-14.471-.359-1.563-2.147,1.74-7.221,2.344-9.337q1.6-5.612,2.771-11.336a6.435,6.435,0,0,0-.075-4.055,6.857,6.857,0,0,0-2.86-2.565c-6.536-4-12.35-9.213-18.548-13.731-4.286-3.124-8.973-6.013-12.948-9.538-7.818-6.934-11.494-9-14.518-15.96-2.9-6.67-2.662-15.225,3.853-19.678,6.747-4.612,15.75-2.231,21.989,1.981a29.423,29.423,0,0,1,6.426,6.69C2628.286,340.246,2635.422,349.455,2642.155,358.937Z" transform="translate(-2587.118 -319.869)" fill="#f7931e"/></g></g><g transform="translate(2131.293 246.58)"><g transform="translate(31.96 122.549)"><path d="M2200.795,472.982l-7.611,3.586,4.46,13.264,8.7,1.221,4.826-5.819-5.345-3.983,1.427-.672,2.106.781.748-2.125Z" transform="translate(-2193.184 -472.982)" fill="#f7cebc"/></g><path d="M2184.588,315.631q1.807-1.235,3.617-2.454c3.621-2.445,7.357-4.942,11.628-5.858,2.835,6.2,5.6,12.512,6.8,19.22s.716,13.931-2.647,19.857a44.813,44.813,0,0,1-6.9,8.527l-18.37,19.253a8.646,8.646,0,0,0-2.628,4.1,7.949,7.949,0,0,0,.477,3.766c1.553,5.025,4.518,9.152,6.475,13.913,1.942,4.724,2.9,10.27,4.348,15.2,1.3,4.41,7.09,16.971,4.548,20.266-.539.7-10.118,5.053-10.024,5.217l-17.173-29.256c-7-11.924-14.287-22.189-14.731-36.444a54.711,54.711,0,0,1,10.305-33.865C2166.738,328.324,2175.592,321.78,2184.588,315.631Z" transform="translate(-2149.98 -307.319)" fill="#b5d6ca"/></g><g transform="translate(2344.869 256.459)"><g transform="translate(0 0)"><g transform="translate(12.442)"><path d="M5.452,0H169.713a5.452,5.452,0,0,1,5.452,5.452V116.64a0,0,0,0,1,0,0H0a0,0,0,0,1,0,0V5.452A5.452,5.452,0,0,1,5.452,0Z" transform="translate(21.253 0) rotate(10.499)" fill="#1a3151"/><rect width="161.246" height="102.121" transform="translate(26.647 9.217) rotate(10.499)" fill="#caccce"/></g><g transform="translate(0 112.445)"><path d="M2620.722,524.756l-172.139-32.433a12.218,12.218,0,0,1-9.171-7.675h0l192.656,36.3h0A12.25,12.25,0,0,1,2620.722,524.756Z" transform="translate(-2438.88 -475.792)" fill="#caccce"/><rect width="196.555" height="10.518" rx="1.98" transform="translate(1.916) rotate(10.499)" fill="#ddd"/><rect width="32.424" height="3.721" rx="1.86" transform="translate(82.045 17.993) rotate(10.499)" fill="#000100" opacity="0.14"/></g></g><rect width="161.246" height="47.072" transform="translate(34.769 32.546) rotate(10.499)" fill="#f7f7f7"/><g transform="translate(35.132 47.549)"><path d="M2507.484,392.4h0a2.336,2.336,0,0,1-1.815,3.056l-5.856,1.018,5.1,3.006a2.333,2.333,0,0,1,.615,3.5l-.08.1a2.347,2.347,0,0,1-3.579.042l-3.857-4.444-.206,6.03a2.342,2.342,0,0,1-2.77,2.218l-.115-.021a2.336,2.336,0,0,1-1.8-3.032l1.909-5.746-5.293,2.858a2.346,2.346,0,0,1-3.332-1.3l-.1-.277a2.336,2.336,0,0,1,1.809-3.058l5.8-1.023-5-2.978a2.333,2.333,0,0,1-.6-3.495l.035-.042a2.347,2.347,0,0,1,3.549-.072l4.041,4.49.248-6.038a2.341,2.341,0,0,1,2.769-2.2l.156.029a2.336,2.336,0,0,1,1.786,3.062l-1.979,5.7,5.271-2.7A2.345,2.345,0,0,1,2507.484,392.4Z" transform="translate(-2486.185 -384.95)" fill="#145566"/></g><g transform="translate(66.921 53.439)"><path d="M2550.457,400.366h0a2.336,2.336,0,0,1-1.815,3.056l-5.856,1.019,5.1,3.006a2.333,2.333,0,0,1,.615,3.5l-.08.1a2.347,2.347,0,0,1-3.579.042l-3.857-4.444-.206,6.03a2.341,2.341,0,0,1-2.77,2.217l-.115-.021a2.336,2.336,0,0,1-1.8-3.031l1.908-5.746-5.293,2.858a2.345,2.345,0,0,1-3.332-1.3l-.1-.277a2.337,2.337,0,0,1,1.809-3.059l5.8-1.023-5-2.978a2.333,2.333,0,0,1-.6-3.495l.036-.043a2.347,2.347,0,0,1,3.549-.072l4.042,4.491.248-6.038a2.341,2.341,0,0,1,2.769-2.2l.156.029a2.337,2.337,0,0,1,1.786,3.062l-1.98,5.7,5.271-2.7A2.346,2.346,0,0,1,2550.457,400.366Z" transform="translate(-2529.158 -392.913)" fill="#145566"/></g><g transform="translate(98.861 59.359)"><path d="M2593.634,408.368h0a2.336,2.336,0,0,1-1.815,3.056l-5.857,1.018,5.1,3.006a2.332,2.332,0,0,1,.615,3.5l-.079.1a2.347,2.347,0,0,1-3.579.042l-3.857-4.444-.206,6.03a2.342,2.342,0,0,1-2.77,2.218l-.115-.021a2.336,2.336,0,0,1-1.8-3.032l1.908-5.746-5.293,2.858a2.346,2.346,0,0,1-3.332-1.3l-.094-.277a2.335,2.335,0,0,1,1.808-3.058l5.8-1.023-5-2.978a2.333,2.333,0,0,1-.6-3.495l.036-.042a2.347,2.347,0,0,1,3.549-.072l4.041,4.49.247-6.038a2.341,2.341,0,0,1,2.769-2.2l.156.029a2.336,2.336,0,0,1,1.786,3.061l-1.979,5.7,5.271-2.7A2.345,2.345,0,0,1,2593.634,408.368Z" transform="translate(-2572.335 -400.915)" fill="#145566"/></g><g transform="translate(130.801 65.278)"><path d="M2636.81,416.369h0a2.336,2.336,0,0,1-1.814,3.056l-5.857,1.019,5.1,3a2.333,2.333,0,0,1,.615,3.5l-.079.1a2.347,2.347,0,0,1-3.579.042l-3.857-4.444-.207,6.03a2.341,2.341,0,0,1-2.77,2.218l-.115-.021a2.337,2.337,0,0,1-1.8-3.032l1.909-5.746-5.294,2.858a2.345,2.345,0,0,1-3.332-1.3l-.1-.277a2.336,2.336,0,0,1,1.809-3.058l5.8-1.023-5-2.978a2.333,2.333,0,0,1-.6-3.495l.036-.042a2.347,2.347,0,0,1,3.549-.072l4.041,4.49.248-6.038a2.342,2.342,0,0,1,2.769-2.2l.156.029a2.336,2.336,0,0,1,1.786,3.062l-1.979,5.7,5.271-2.7A2.345,2.345,0,0,1,2636.81,416.369Z" transform="translate(-2615.512 -408.916)" fill="#145566"/></g><g transform="translate(162.741 71.196)"><path d="M2679.987,424.37h0a2.335,2.335,0,0,1-1.815,3.056l-5.856,1.019,5.1,3.006a2.333,2.333,0,0,1,.615,3.5l-.08.1a2.347,2.347,0,0,1-3.579.042l-3.857-4.444-.206,6.03a2.341,2.341,0,0,1-2.77,2.217l-.115-.021a2.336,2.336,0,0,1-1.8-3.031l1.908-5.746-5.293,2.858a2.345,2.345,0,0,1-3.332-1.3l-.1-.277a2.336,2.336,0,0,1,1.808-3.059l5.8-1.023-5-2.978a2.333,2.333,0,0,1-.6-3.495l.036-.043a2.347,2.347,0,0,1,3.549-.072l4.041,4.491.248-6.038a2.341,2.341,0,0,1,2.769-2.2l.156.029a2.337,2.337,0,0,1,1.786,3.062l-1.979,5.7,5.271-2.7A2.345,2.345,0,0,1,2679.987,424.37Z" transform="translate(-2658.688 -416.917)" fill="#145566"/></g></g><g transform="translate(2528.3 323.428)"><path d="M2696.262,414.127a1.95,1.95,0,0,0-1.191-.357c-.627.092-1,.749-1.173,1.357a5.992,5.992,0,0,0,2.23,6.367c-2.623,1.633-6.984-1.463-8.79,1.043a4.45,4.45,0,0,0-.586,2.523q-.148,5.3-.067,10.6a3.218,3.218,0,0,0,3.722,3.894l4.569.311c2.53.172,5.384.235,7.222-1.512,1.573-1.5,1.887-3.852,2.059-6.016q.4-5.09.431-10.2C2704.716,416.907,2700.151,416.3,2696.262,414.127Z" transform="translate(-2686.657 -411.868)" fill="#efbfa5"/><path d="M2711.167,418.567q.881,6.657,1.761,13.313c.321,2.43.637,4.944-.05,7.3a9.038,9.038,0,0,1-6.622,6.169c-1.917.416-4.534-.4-4.552-2.361a4.423,4.423,0,0,1,.755-2.094c5.224-9.469,2.679-19.537,2.99-29.681C2709.643,410.993,2710.725,415.227,2711.167,418.567Z" transform="translate(-2690.573 -411.202)" fill="#f7931e"/></g><g transform="translate(2354.412 300.511)"><path d="M2466.35,383.147a1.961,1.961,0,0,1,1.191-.357c.626.092,1,.749,1.172,1.358a5.992,5.992,0,0,1-2.231,6.367c2.624,1.632,6.985-1.464,8.791,1.043a4.452,4.452,0,0,1,.585,2.523q.149,5.3.067,10.6a3.217,3.217,0,0,1-3.722,3.894l-4.569.311c-2.53.172-5.384.235-7.222-1.511-1.573-1.5-1.888-3.853-2.059-6.016q-.4-5.09-.43-10.2C2457.9,385.926,2462.462,385.319,2466.35,383.147Z" transform="translate(-2453.241 -380.887)" fill="#efbfa5"/><path d="M2453.715,387.586q-.881,6.657-1.761,13.313c-.321,2.43-.637,4.944.049,7.3a9.038,9.038,0,0,0,6.622,6.169c1.917.416,4.533-.4,4.552-2.361a4.423,4.423,0,0,0-.755-2.094c-5.225-9.469-2.679-19.537-2.989-29.681C2455.238,380.013,2454.157,384.246,2453.715,387.586Z" transform="translate(-2451.594 -380.222)" fill="#f7931e"/></g></g></svg>