<svg width="207" height="68" viewBox="0 0 207 68" fill="none" xmlns="http://www.w3.org/2000/svg">
<rect x="0.5" y="0.5" width="205.818" height="67" rx="11.5" fill="white"/>
<path d="M34.0372 32C33.6307 31.9984 33.2352 31.8681 32.9081 31.628L30.1869 29.6611C29.9611 29.4971 29.6888 29.4087 29.4092 29.4087C29.1297 29.4087 28.8573 29.4971 28.6316 29.6611L25.9104 31.628C25.5822 31.8652 25.187 31.993 24.7813 31.993C24.3757 31.9931 23.9804 31.8653 23.6522 31.6281C23.324 31.3909 23.0797 31.0564 22.9543 30.6726C22.829 30.2888 22.8289 29.8754 22.9542 29.4915L23.9936 26.309C24.0806 26.0446 24.0809 25.7596 23.9944 25.4951C23.908 25.2306 23.7394 25.0002 23.5129 24.8372L20.7917 22.87C20.4636 22.6328 20.2193 22.2983 20.094 21.9145C19.9686 21.5306 19.9687 21.1172 20.094 20.7333C20.2194 20.3495 20.4637 20.015 20.7918 19.7778C21.12 19.5406 21.5153 19.4128 21.9209 19.4128H25.2844C25.5639 19.4133 25.8364 19.3255 26.0626 19.1621C26.2888 18.9986 26.4569 18.7679 26.5429 18.5033L27.5822 15.3207C27.7075 14.9369 27.9517 14.6023 28.2799 14.365C28.6081 14.1278 29.0034 14 29.4091 14C29.8148 14 30.2101 14.1278 30.5383 14.365C30.8665 14.6023 31.1107 14.9369 31.236 15.3207L32.2755 18.5033C32.3614 18.7679 32.5295 18.9986 32.7557 19.1621C32.9818 19.3255 33.2543 19.4133 33.5338 19.4128H36.8973C37.3029 19.4128 37.6982 19.5406 38.0264 19.7778C38.3545 20.015 38.5988 20.3495 38.7242 20.7333C38.8495 21.1172 38.8495 21.5306 38.7242 21.9145C38.5989 22.2983 38.3546 22.6328 38.0264 22.87L35.3053 24.8369C35.0788 25.0001 34.9103 25.2305 34.8239 25.4951C34.7375 25.7596 34.7378 26.0446 34.8247 26.309L35.8641 29.4915C35.9941 29.875 35.9963 30.2899 35.8706 30.6747C35.7449 31.0595 35.498 31.3938 35.1663 31.628C34.8392 31.8681 34.4437 31.9984 34.0372 32Z" fill="#FFB725"/>
<path d="M56.7046 15.4192C58.8678 15.4192 60.5249 15.8075 61.6758 16.584C62.8268 17.3467 63.4022 18.5392 63.4022 20.1616C63.4022 21.1739 63.1665 21.9989 62.695 22.6368C62.2374 23.2608 61.5718 23.7531 60.6982 24.1136C60.9894 24.4741 61.2945 24.8901 61.6134 25.3616C61.9324 25.8192 62.2444 26.3045 62.5494 26.8176C62.8684 27.3168 63.1734 27.8437 63.4646 28.3984C63.7558 28.9392 64.0262 29.4731 64.2758 30H60.6358C60.3724 29.5285 60.102 29.0501 59.8246 28.5648C59.5612 28.0795 59.2838 27.608 58.9926 27.1504C58.7153 26.6928 58.438 26.2629 58.1606 25.8608C57.8833 25.4448 57.606 25.0704 57.3286 24.7376H55.727V30H52.4822V15.7936C53.1894 15.6549 53.9174 15.5579 54.6662 15.5024C55.4289 15.4469 56.1084 15.4192 56.7046 15.4192ZM56.8918 18.1856C56.6561 18.1856 56.4412 18.1925 56.247 18.2064C56.0668 18.2203 55.8934 18.2341 55.727 18.248V22.1584H56.6422C57.8625 22.1584 58.7361 22.0059 59.263 21.7008C59.79 21.3957 60.0534 20.8757 60.0534 20.1408C60.0534 19.4336 59.783 18.9344 59.2422 18.6432C58.7153 18.3381 57.9318 18.1856 56.8918 18.1856ZM66.3557 30V15.5856H76.0901V18.3104H69.6005V21.1392H75.3621V23.8016H69.6005V27.2752H76.5685V30H66.3557ZM88.6001 27.2128V30H78.9697V15.5856H82.2145V27.2128H88.6001ZM90.6901 15.5856H93.9349V30H90.6901V15.5856ZM106.923 30C106.77 29.5008 106.597 28.9877 106.403 28.4608C106.222 27.9339 106.042 27.4069 105.862 26.88H100.246C100.065 27.4069 99.8782 27.9339 99.6841 28.4608C99.5038 28.9877 99.3374 29.5008 99.1849 30H95.8153C96.3561 28.4469 96.8692 27.0117 97.3545 25.6944C97.8398 24.3771 98.3113 23.136 98.7689 21.9712C99.2404 20.8064 99.698 19.704 100.142 18.664C100.599 17.6101 101.071 16.584 101.556 15.5856H104.655C105.127 16.584 105.591 17.6101 106.049 18.664C106.507 19.704 106.964 20.8064 107.422 21.9712C107.893 23.136 108.372 24.3771 108.857 25.6944C109.342 27.0117 109.855 28.4469 110.396 30H106.923ZM103.033 18.8512C102.964 19.0592 102.86 19.3435 102.721 19.704C102.582 20.0645 102.423 20.4805 102.243 20.952C102.062 21.4235 101.861 21.9435 101.639 22.512C101.431 23.0805 101.216 23.6768 100.995 24.3008H105.092C104.87 23.6768 104.655 23.0805 104.447 22.512C104.239 21.9435 104.038 21.4235 103.844 20.952C103.664 20.4805 103.504 20.0645 103.366 19.704C103.227 19.3435 103.116 19.0592 103.033 18.8512ZM117.067 30.1872C116.276 30.1872 115.486 30.1595 114.696 30.104C113.919 30.0624 113.108 29.9515 112.262 29.7712V15.7936C112.928 15.6688 113.656 15.5787 114.446 15.5232C115.236 15.4539 115.971 15.4192 116.651 15.4192C117.566 15.4192 118.405 15.4885 119.168 15.6272C119.944 15.752 120.61 15.9739 121.164 16.2928C121.719 16.6117 122.149 17.0347 122.454 17.5616C122.773 18.0747 122.932 18.7125 122.932 19.4752C122.932 20.6261 122.378 21.5344 121.268 22.2C122.184 22.5467 122.808 23.0181 123.14 23.6144C123.473 24.2107 123.64 24.8832 123.64 25.632C123.64 27.1435 123.085 28.2805 121.976 29.0432C120.88 29.8059 119.244 30.1872 117.067 30.1872ZM115.424 23.7184V27.4416C115.659 27.4693 115.916 27.4901 116.193 27.504C116.47 27.5179 116.776 27.5248 117.108 27.5248C118.079 27.5248 118.862 27.3861 119.459 27.1088C120.055 26.8315 120.353 26.3184 120.353 25.5696C120.353 24.904 120.104 24.4325 119.604 24.1552C119.105 23.864 118.391 23.7184 117.462 23.7184H115.424ZM115.424 21.2432H117.004C118.003 21.2432 118.717 21.1184 119.147 20.8688C119.577 20.6053 119.792 20.1893 119.792 19.6208C119.792 19.0384 119.57 18.6293 119.126 18.3936C118.682 18.1579 118.03 18.04 117.171 18.04C116.893 18.04 116.595 18.0469 116.276 18.0608C115.957 18.0608 115.673 18.0747 115.424 18.1024V21.2432ZM135.867 27.2128V30H126.237V15.5856H129.482V27.2128H135.867ZM137.957 30V15.5856H147.692V18.3104H141.202V21.1392H146.964V23.8016H141.202V27.2752H148.17V30H137.957ZM56.767 54C56.1985 52.7936 55.6369 51.5387 55.0822 50.2352C54.5276 48.9317 54.0006 47.6421 53.5014 46.3664C53.0022 45.0907 52.5377 43.8704 52.1078 42.7056C51.6918 41.5408 51.3313 40.5008 51.0262 39.5856H54.6038C54.8812 40.4176 55.1793 41.3189 55.4982 42.2896C55.831 43.2464 56.1638 44.2032 56.4966 45.16C56.8433 46.1168 57.1761 47.032 57.495 47.9056C57.814 48.7792 58.1121 49.5349 58.3894 50.1728C58.6529 49.5349 58.9441 48.7792 59.263 47.9056C59.5958 47.032 59.9286 46.1168 60.2614 45.16C60.6081 44.2032 60.9409 43.2464 61.2598 42.2896C61.5926 41.3189 61.8977 40.4176 62.175 39.5856H65.6278C65.3089 40.5008 64.9414 41.5408 64.5254 42.7056C64.1094 43.8704 63.6518 45.0907 63.1526 46.3664C62.6534 47.6421 62.1265 48.9317 61.5718 50.2352C61.0172 51.5387 60.4556 52.7936 59.887 54H56.767ZM71.8196 39.4192C73.9689 39.4192 75.619 39.8005 76.77 40.5632C77.9209 41.312 78.4964 42.5461 78.4964 44.2656C78.4964 45.9989 77.914 47.2539 76.7492 48.0304C75.5844 48.7931 73.9204 49.1744 71.7572 49.1744H70.738V54H67.4932V39.7936C68.2004 39.6549 68.9492 39.5579 69.7396 39.5024C70.53 39.4469 71.2233 39.4192 71.8196 39.4192ZM72.0276 42.1856C71.7918 42.1856 71.5561 42.1925 71.3204 42.2064C71.0985 42.2203 70.9044 42.2341 70.738 42.248V46.408H71.7572C72.8804 46.408 73.7262 46.2555 74.2948 45.9504C74.8633 45.6453 75.1476 45.0768 75.1476 44.2448C75.1476 43.8427 75.0713 43.5099 74.9188 43.2464C74.7801 42.9829 74.5721 42.7749 74.2948 42.6224C74.0313 42.456 73.7054 42.3451 73.3172 42.2896C72.9289 42.2203 72.499 42.1856 72.0276 42.1856ZM90.5511 54C89.622 52.3499 88.6167 50.7205 87.5351 49.112C86.4535 47.5035 85.3026 45.9851 84.0823 44.5568V54H80.8791V39.5856H83.5207C83.9783 40.0432 84.4844 40.6048 85.0391 41.2704C85.5938 41.936 86.1554 42.6501 86.7239 43.4128C87.3063 44.1616 87.8818 44.9451 88.4503 45.7632C89.0188 46.5675 89.5527 47.344 90.0519 48.0928V39.5856H93.2759V54H90.5511ZM105.529 51.5248C105.987 51.5248 106.361 51.4901 106.652 51.4208C106.957 51.3376 107.2 51.2336 107.38 51.1088C107.561 50.9701 107.685 50.8107 107.755 50.6304C107.824 50.4501 107.859 50.2491 107.859 50.0272C107.859 49.5557 107.637 49.1675 107.193 48.8624C106.749 48.5435 105.987 48.2037 104.905 47.8432C104.434 47.6768 103.962 47.4896 103.491 47.2816C103.019 47.0597 102.596 46.7893 102.222 46.4704C101.847 46.1376 101.542 45.7424 101.307 45.2848C101.071 44.8133 100.953 44.2448 100.953 43.5792C100.953 42.9136 101.078 42.3173 101.327 41.7904C101.577 41.2496 101.931 40.792 102.388 40.4176C102.846 40.0432 103.401 39.7589 104.052 39.5648C104.704 39.3568 105.439 39.2528 106.257 39.2528C107.228 39.2528 108.067 39.3568 108.774 39.5648C109.481 39.7728 110.063 40.0016 110.521 40.2512L109.585 42.8096C109.183 42.6016 108.732 42.4213 108.233 42.2688C107.748 42.1024 107.158 42.0192 106.465 42.0192C105.689 42.0192 105.127 42.1301 104.78 42.352C104.447 42.56 104.281 42.8859 104.281 43.3296C104.281 43.5931 104.343 43.8149 104.468 43.9952C104.593 44.1755 104.766 44.3419 104.988 44.4944C105.224 44.6331 105.487 44.7648 105.779 44.8896C106.084 45.0005 106.417 45.1184 106.777 45.2432C107.526 45.5205 108.178 45.7979 108.732 46.0752C109.287 46.3387 109.745 46.6507 110.105 47.0112C110.479 47.3717 110.757 47.7947 110.937 48.28C111.117 48.7653 111.207 49.3547 111.207 50.048C111.207 51.3931 110.736 52.44 109.793 53.1888C108.85 53.9237 107.429 54.2912 105.529 54.2912C104.891 54.2912 104.316 54.2496 103.803 54.1664C103.29 54.0971 102.832 54.0069 102.43 53.896C102.042 53.7851 101.702 53.6672 101.411 53.5424C101.133 53.4176 100.898 53.2997 100.703 53.1888L101.619 50.6096C102.049 50.8453 102.575 51.0603 103.199 51.2544C103.837 51.4347 104.614 51.5248 105.529 51.5248ZM113.704 54V39.5856H123.439V42.3104H116.949V45.1392H122.711V47.8016H116.949V51.2752H123.917V54H113.704ZM130.541 39.4192C132.704 39.4192 134.361 39.8075 135.512 40.584C136.663 41.3467 137.238 42.5392 137.238 44.1616C137.238 45.1739 137.002 45.9989 136.531 46.6368C136.073 47.2608 135.408 47.7531 134.534 48.1136C134.825 48.4741 135.13 48.8901 135.449 49.3616C135.768 49.8192 136.08 50.3045 136.385 50.8176C136.704 51.3168 137.009 51.8437 137.301 52.3984C137.592 52.9392 137.862 53.4731 138.112 54H134.472C134.208 53.5285 133.938 53.0501 133.661 52.5648C133.397 52.0795 133.12 51.608 132.829 51.1504C132.551 50.6928 132.274 50.2629 131.997 49.8608C131.719 49.4448 131.442 49.0704 131.165 48.7376H129.563V54H126.318V39.7936C127.025 39.6549 127.753 39.5579 128.502 39.5024C129.265 39.4469 129.944 39.4192 130.541 39.4192ZM130.728 42.1856C130.492 42.1856 130.277 42.1925 130.083 42.2064C129.903 42.2203 129.729 42.2341 129.563 42.248V46.1584H130.478C131.698 46.1584 132.572 46.0059 133.099 45.7008C133.626 45.3957 133.889 44.8757 133.889 44.1408C133.889 43.4336 133.619 42.9344 133.078 42.6432C132.551 42.3381 131.768 42.1856 130.728 42.1856ZM144.172 54C143.603 52.7936 143.042 51.5387 142.487 50.2352C141.932 48.9317 141.405 47.6421 140.906 46.3664C140.407 45.0907 139.942 43.8704 139.513 42.7056C139.097 41.5408 138.736 40.5008 138.431 39.5856H142.009C142.286 40.4176 142.584 41.3189 142.903 42.2896C143.236 43.2464 143.569 44.2032 143.901 45.16C144.248 46.1168 144.581 47.032 144.9 47.9056C145.219 48.7792 145.517 49.5349 145.794 50.1728C146.058 49.5349 146.349 48.7792 146.668 47.9056C147.001 47.032 147.333 46.1168 147.666 45.16C148.013 44.2032 148.346 43.2464 148.665 42.2896C148.997 41.3189 149.302 40.4176 149.58 39.5856H153.033C152.714 40.5008 152.346 41.5408 151.93 42.7056C151.514 43.8704 151.057 45.0907 150.557 46.3664C150.058 47.6421 149.531 48.9317 148.977 50.2352C148.422 51.5387 147.86 52.7936 147.292 54H144.172ZM154.898 39.5856H158.143V54H154.898V39.5856ZM168.052 54.2912C165.708 54.2912 163.92 53.6395 162.686 52.336C161.465 51.0325 160.855 49.1813 160.855 46.7824C160.855 45.5899 161.042 44.5291 161.417 43.6C161.791 42.6571 162.304 41.8667 162.956 41.2288C163.608 40.5771 164.384 40.0848 165.286 39.752C166.187 39.4192 167.164 39.2528 168.218 39.2528C168.828 39.2528 169.383 39.3013 169.882 39.3984C170.382 39.4816 170.818 39.5856 171.193 39.7104C171.567 39.8213 171.879 39.9392 172.129 40.064C172.378 40.1888 172.559 40.2859 172.67 40.3552L171.734 42.976C171.29 42.7403 170.77 42.5392 170.174 42.3728C169.591 42.2064 168.926 42.1232 168.177 42.1232C167.678 42.1232 167.185 42.2064 166.7 42.3728C166.228 42.5392 165.806 42.8096 165.431 43.184C165.071 43.5445 164.779 44.016 164.558 44.5984C164.336 45.1808 164.225 45.888 164.225 46.72C164.225 47.3856 164.294 48.0096 164.433 48.592C164.585 49.1605 164.821 49.6528 165.14 50.0688C165.473 50.4848 165.903 50.8176 166.43 51.0672C166.956 51.3029 167.594 51.4208 168.343 51.4208C168.815 51.4208 169.238 51.3931 169.612 51.3376C169.986 51.2821 170.319 51.2197 170.61 51.1504C170.902 51.0672 171.158 50.9771 171.38 50.88C171.602 50.7829 171.803 50.6928 171.983 50.6096L172.878 53.2096C172.42 53.4869 171.775 53.7365 170.943 53.9584C170.111 54.1803 169.147 54.2912 168.052 54.2912ZM174.967 54V39.5856H184.701V42.3104H178.211V45.1392H183.973V47.8016H178.211V51.2752H185.179V54H174.967Z" fill="#233654"/>
<rect x="0.5" y="0.5" width="205.818" height="67" rx="11.5" stroke="#D2E1F8"/>
</svg>
