<svg width="200" height="200" fill="none" xmlns="http://www.w3.org/2000/svg"><g clip-path="url(#a)"><path d="M99.986.49c-41.97.006-77.87 25.996-92.49 62.76l-.134.342c-7.468 18.987-.62 40.618 16.303 52.015L80.7 160.538c24.609 19.386 58.354 22.946 86.171 8.535 5.801-3.006 10.599-6.42 13.503-10.39 12.093-16.535 19.207-36.942 19.136-59.012C199.332 45.02 154.634.482 99.986.49z" fill="#87AB49"/><path d="M129.834 162.288a3.916 3.916 0 1 0-7.234-2.998 3.916 3.916 0 0 0 7.234 2.998z" fill="#fff"/><path d="M127.119 120.639c.696.698 16.33 16.376 17.04 16.917 6.153 4.834 15.535 1.922 17.631-5.924l9.75-36.48c8.163-8.804 15.727-19.13 21.84-29.608-7.752-21.003-22.389-38.669-41.171-50.267-7.901 4.174-15.814 9.239-23.127 14.78-6.884 5.213-11.143 9.248-11.587 9.631l-37.6 10.049c-8.33 2.226-11.058 12.619-5.009 18.669l8.257 8.256 8.126 8.126a31.576 31.576 0 0 0 .807 7.341l-12.039 12.039c-7.939-.468-16.034 2.324-22.1 8.39-2.835 2.836-7.588 1.875-9.2-1.797-.103-.235-.21-.468-.32-.698a2.73 2.73 0 0 0-.11-.203 23.306 23.306 0 0 0-6.571-8.091c-2.703-2.108-3.812-5.732-2.646-8.956a19.987 19.987 0 0 0 1.136-8.166C38.979 66.171 14.463 58.838 3.68 74.92c-16.41 66.373 80.84 138.931 133.776 117.356 15.318-6.243 29.489-16.57 40.495-30.476 7.385-9.332-5.544-21.081-14.136-12.845a99.803 99.803 0 0 1-13.859 11.096c-2.013 1.336-4.55 1.341-6.708.255-1.779-.895-3.862.323-4.049 2.224-.237 2.417-1.648 4.569-3.868 5.555a98.377 98.377 0 0 1-12.422 4.541 6.122 6.122 0 0 1-6.471-2.035 25.512 25.512 0 0 0-15.007-8.784c-4.001-.727-5.588-5.592-2.713-8.467 6.066-6.066 8.858-14.161 8.39-22.1l11.658-11.658a31.818 31.818 0 0 0 8.353 1.058z" fill="#75963D"/><path d="M55.741 98.45a5.052 5.052 0 1 0 0-10.103 5.052 5.052 0 0 0 0 10.104zM53.215 77.091a2.526 2.526 0 1 0 0-5.052 2.526 2.526 0 0 0 0 5.052z" fill="#fff"/><path d="M115.289 172.988c-3.594.673-7.23-.878-9.419-3.807a25.401 25.401 0 0 0-15.78-9.766c-4.002-.727-5.588-5.592-2.713-8.467 11.261-11.262 11.261-29.52 0-40.781-11.261-11.26-29.52-11.26-40.78 0-2.836 2.836-7.59 1.876-9.2-1.796a23.28 23.28 0 0 0-7.096-9.065c-2.711-2.092-3.71-5.674-2.549-8.895a19.981 19.981 0 0 0 1.133-8.154c-.664-9.843-8.583-17.82-18.421-18.546a20.38 20.38 0 0 0-3.151.011C2.91 74.963.49 87.2.49 100c0 54.958 44.552 99.51 99.51 99.51 13.242 0 25.878-2.593 37.434-7.289.044-.928.023-1.87-.075-2.821-1.154-11.133-11.756-18.345-22.07-16.412z" fill="#E6E6E6"/><path d="M37.076 107.672c-1.232-2.567-5.161-.815-4.075 1.817.313.76.725 1.398 1.262 1.813a23.277 23.277 0 0 1 7.095 9.065c1.612 3.672 6.365 4.632 9.2 1.796 11.262-11.261 29.52-11.261 40.781 0a28.909 28.909 0 0 1 4.344 5.563 28.715 28.715 0 0 0-8.306-17.559c-11.26-11.261-29.519-11.261-40.78 0-2.836 2.836-7.589 1.875-9.2-1.797-.104-.235-.21-.468-.321-.698zM91.339 162.944c-2.876 2.875-1.289 7.74 2.712 8.467a25.405 25.405 0 0 1 15.872 9.888c2.143 2.904 5.781 4.35 9.329 3.685 4.472-.838 8.997.045 12.783 2.222 2.283 1.312 4.9-1.03 3.825-3.434-3.436-7.685-11.931-12.367-20.496-10.798-3.585.657-7.239-.739-9.403-3.672a25.336 25.336 0 0 0-8.544-7.347c-1.996-1.055-4.455-.637-6.05.961l-.028.028zM9.17 63.66c-.212-.002-.423 0-.633.004-.124.002-.25.003-.374.008-.285.011-.569.028-.85.05a98.803 98.803 0 0 0-4.457 14.641 19.937 19.937 0 0 1 11.57-2.656c1.725.127 3.39.478 4.968 1.022 3.917 1.351 7.062-3.49 4.3-6.554-.118-.13-.242-.257-.365-.385-.082-.085-.162-.171-.245-.254-.12-.12-.243-.237-.366-.354-.096-.092-.19-.184-.288-.273-.118-.108-.239-.212-.359-.318-.108-.094-.215-.19-.326-.281-.115-.097-.233-.19-.35-.284-.12-.096-.24-.192-.363-.285-.112-.087-.227-.17-.342-.254a20.001 20.001 0 0 0-.732-.51 19.279 19.279 0 0 0-2.036-1.187 19.228 19.228 0 0 0-1.144-.535c-.18-.077-.363-.15-.545-.222-.102-.04-.204-.082-.307-.12-.187-.07-.376-.136-.565-.2-.102-.035-.204-.071-.307-.104a19.423 19.423 0 0 0-.58-.175c-.104-.03-.206-.061-.31-.09-.197-.053-.395-.1-.595-.148-.103-.025-.206-.052-.31-.075a19.898 19.898 0 0 0-.615-.122c-.102-.019-.203-.041-.306-.059a19.584 19.584 0 0 0-.66-.097c-.09-.013-.18-.028-.272-.04a19.3 19.3 0 0 0-1.908-.138c-.109-.003-.219-.004-.329-.005z" fill="#F5F0F0"/><path d="m55.195 161.432-9.724 1.248a2.888 2.888 0 0 1-3.233-3.233l1.249-9.724a44.268 44.268 0 0 1 12.606-25.666c6.84-6.84 17.929-6.84 24.768 0 6.84 6.839 6.84 17.929 0 24.768a44.268 44.268 0 0 1-25.666 12.607z" fill="#F5F0F0"/><path d="M114.817 162.276a3.914 3.914 0 1 0 0-7.828 3.914 3.914 0 0 0 0 7.828zM130.174 162.276a2.33 2.33 0 1 0-.001-4.66 2.33 2.33 0 0 0 .001 4.66zM44.4 96.06a5.052 5.052 0 1 0 0-10.105 5.052 5.052 0 0 0 0 10.105zM41.874 74.7a2.526 2.526 0 1 0 0-5.052 2.526 2.526 0 0 0 0 5.052z" fill="#fff"/><path fill-rule="evenodd" clip-rule="evenodd" d="M.96 162.276c0-16.606 13.587-30.192 30.193-30.192h137.694c16.606 0 30.192 13.586 30.192 30.192s-13.586 30.192-30.192 30.192H31.153C14.547 192.468.96 178.882.96 162.276z" fill="#E80054"/><path d="M162.624 154.764v15.405c0 1.894 2.084 3.049 3.69 2.045l12.324-7.702c1.511-.945 1.511-3.146 0-4.091l-12.324-7.702c-1.606-1.004-3.69.151-3.69 2.045z" fill="#F9A0B1"/><path d="M28.948 170.318c-1.628 0-3.095-.337-4.4-1.012-1.306-.689-2.332-1.642-3.08-2.86-.734-1.232-1.1-2.625-1.1-4.18 0-1.554.366-2.94 1.1-4.158a7.626 7.626 0 0 1 3.08-2.86c1.305-.689 2.772-1.034 4.4-1.034 1.495 0 2.83.264 4.004.792a7.435 7.435 0 0 1 2.904 2.288l-3.279 2.926c-.953-1.202-2.075-1.804-3.365-1.804-1.086 0-1.959.352-2.619 1.056-.66.69-.99 1.621-.99 2.794 0 1.174.33 2.112.99 2.816.66.69 1.533 1.034 2.619 1.034 1.29 0 2.412-.601 3.366-1.804l3.277 2.926a7.426 7.426 0 0 1-2.903 2.288c-1.174.528-2.508.792-4.004.792zm18.798 0c-1.657 0-3.146-.344-4.466-1.034-1.32-.689-2.354-1.642-3.102-2.86-.748-1.232-1.122-2.618-1.122-4.158 0-1.54.374-2.918 1.122-4.136.748-1.232 1.782-2.192 3.102-2.882 1.32-.689 2.809-1.034 4.466-1.034 1.658 0 3.146.345 4.466 1.034 1.32.69 2.354 1.65 3.102 2.882.748 1.218 1.122 2.596 1.122 4.136s-.374 2.926-1.122 4.158c-.748 1.218-1.782 2.171-3.102 2.86-1.32.69-2.808 1.034-4.466 1.034zm0-4.202c.646 0 1.225-.154 1.738-.462.528-.322.946-.77 1.254-1.342.308-.586.462-1.268.462-2.046 0-.777-.154-1.452-.462-2.024-.308-.586-.726-1.034-1.254-1.342a3.203 3.203 0 0 0-1.738-.484c-.645 0-1.232.162-1.76.484-.513.308-.924.756-1.232 1.342-.308.572-.462 1.247-.462 2.024 0 .778.154 1.46.462 2.046.308.572.719 1.02 1.232 1.342a3.429 3.429 0 0 0 1.76.462zm28.395-11.55v15.4h-4.268l-5.852-6.996v6.996h-5.06v-15.4h4.268l5.852 6.996v-6.996h5.06zm20.321 0v15.4h-4.268l-5.852-6.996v6.996h-5.06v-15.4h4.268l5.852 6.996v-6.996h5.06zm17.946 11.484v3.916h-12.804v-15.4h12.518v3.916h-7.414v1.804h6.512v3.74h-6.512v2.024h7.7zm12.603 4.268c-1.628 0-3.095-.337-4.4-1.012-1.306-.689-2.332-1.642-3.08-2.86-.734-1.232-1.1-2.625-1.1-4.18 0-1.554.366-2.94 1.1-4.158a7.622 7.622 0 0 1 3.08-2.86c1.305-.689 2.772-1.034 4.4-1.034 1.496 0 2.83.264 4.004.792a7.44 7.44 0 0 1 2.904 2.288l-3.278 2.926c-.954-1.202-2.076-1.804-3.366-1.804-1.086 0-1.958.352-2.618 1.056-.66.69-.99 1.621-.99 2.794 0 1.174.33 2.112.99 2.816.66.69 1.532 1.034 2.618 1.034 1.29 0 2.412-.601 3.366-1.804l3.278 2.926a7.43 7.43 0 0 1-2.904 2.288c-1.174.528-2.508.792-4.004.792zm14.283-11.726h-4.51v-4.026h14.212v4.026h-4.51v11.374h-5.192v-11.374z" fill="#fff"/><path d="m155.132 84.811-13.823-13.823-19.436 33.981 7.985 20.114c5.088 5.088 13.775 2.757 15.633-4.194l9.641-36.078z" fill="#FB1B43"/><path d="M130.645 125.79c3.165 2.542 6.977-2.1 3.979-4.836-.11-.1-.219-.204-.326-.311-2.257-2.258-1.722-6.029 1.054-7.604.069-.039.137-.077.205-.117 9.17-5.247 15.806-14.008 18.534-24.215l1.042-3.896-13.824-13.823-28.332 28.332-4.441 4.441 14.408 14.408 6.914 6.914a9.6 9.6 0 0 0 .787.707z" fill="#FF6480"/><path d="m112.992 42.671 13.823 13.824-36.353 14.493-17.742-3.042c-5.087-5.088-2.757-13.775 4.195-15.633l36.077-9.642z" fill="#FB1B43"/><path d="M72.014 67.158c-2.542-3.165 2.1-6.977 4.836-3.979.1.11.204.22.311.326 2.257 2.257 6.028 1.723 7.604-1.054l.117-.205c5.247-9.17 14.007-15.806 24.215-18.534l3.896-1.041 13.823 13.823-28.332 28.333-4.441 4.44L79.635 74.86l-6.914-6.913a9.554 9.554 0 0 1-.707-.788z" fill="#FF6480"/><path d="M150.568 93.551c-23.364 23.364-42.239 21.646-54.94 8.944-12.703-12.702-10.456-24.508 12.908-47.871C131.9 31.26 167.532 5.186 180.234 17.888c12.702 12.702-6.303 52.3-29.666 75.663z" fill="#F1F4FB"/><path d="M151.852 53.39a20.852 20.852 0 0 0-3.576-4.441c-3.55-3.334-.224-9.25 4.419-7.779a19.167 19.167 0 0 1 7.768 4.721l.36.36c7.183 7.183 19.497 3.86 22.012-5.981 1.926-7.538 2.334-15.047-.919-20.258-7.67-12.26-30.466-3.767-43.308 2.846l-.774.402h-.001c-11.843 6.208-23.865 14.897-33.262 24.294-23.364 23.363-21.646 42.239-8.944 54.941 2.092 2.091 4.352 3.883 6.772 5.316-4.544-7.671-5.46-16.95-.739-27.597 3.272-7.379 13.095-9.132 18.625-3.251.141.15.284.297.43.443 8.744 8.744 23.628 7.606 30.773-3.415 4.03-6.215 4.195-14.26.364-20.6z" fill="#D7DEED"/><path d="M177.646 54.624c7.116-15.534 9.363-29.961 2.588-36.736-6.775-6.775-16.671.003-32.205 7.119l29.617 29.617z" fill="#FB1B43"/><path d="m172.409 43.283-4.475-4.475c-3.866-3.865-2.244-10.461 2.977-12.084 2.456-.764 4.837-1.363 7.112-1.776 3.275-.596 4.601-4.64 2.262-7.01l-.051-.05c-6.775-6.775-21.202-4.528-36.736 2.588l28.911 28.91a4.316 4.316 0 0 0 0-6.103z" fill="#FF6480"/><path d="M137.931 80.002c10.941 0 19.81-8.87 19.81-19.81 0-10.942-8.869-19.811-19.81-19.811-10.941 0-19.811 8.87-19.811 19.81 0 10.941 8.87 19.81 19.811 19.81z" fill="#fff"/><path d="m66.847 140.552-11.249 1.444s8.581-23.945 14.38-29.744c0 0 9.057-8.494 14.549-5.748a14.626 14.626 0 0 1 3.811 2.751c5.728 5.727 5.728 15.013 0 20.74a37.07 37.07 0 0 1-21.491 10.557z" fill="#FEC502"/><path d="M147.836 70.097c-5.47 5.47-14.34 5.47-19.81 0-5.471-5.47-3.033-11.188 2.438-16.659 4.787-4.787 9.737-8.537 15.175-4.947a14.073 14.073 0 0 1 2.197 1.795c5.471 5.47 5.471 14.34 0 19.81z" fill="#87AB49"/><path d="m87.117 87.796 14.594 14.594-10.11 10.108-14.593-14.593 10.11-10.109z" fill="#FF6480"/><path d="M99.672 120.589 88.584 109.5a7.149 7.149 0 1 1 10.11-10.11l11.09 11.089-10.11 10.11z" fill="#FB1B43"/><path d="M138.275 67.955a2.981 2.981 0 0 0 0-4.218l-4.245-4.245c-.934-.934-.985-2.45-.083-3.415l.077-.081c.944-.992 2.535-.974 3.503-.006l1.285 1.285c1.123 1.123 2.951 1.256 4.144.208a2.982 2.982 0 0 0 .145-4.353c-.537-.537-.168-1.45.591-1.475l.082-.002c2.027-.057 2.701-2.752.921-3.725-5.101-2.79-11.693-2.221-16.217 1.925-5.919 5.425-6.07 14.626-.453 20.244.385.385.787.742 1.203 1.072.815.646 1.965-.15 1.64-1.138a3.013 3.013 0 0 0-.029-.088c-.626-1.952 1.77-3.438 3.219-1.988a2.982 2.982 0 0 0 4.217 0z" fill="#75963D"/><path d="M67.598 109.255a37.075 37.075 0 0 0-10.556 21.493l-1.444 11.248a5.041 5.041 0 0 0 4.352-4.324c.194-1.428.449-2.916.944-4.768.641-2.401 3.635-3.216 5.393-1.459l1.745 1.746a3.542 3.542 0 0 0 5.008-5.008l-4.773-4.772a3.331 3.331 0 0 1-.222-4.466l.025-.03a3.304 3.304 0 0 1 4.892-.243l1.638 1.638a3.54 3.54 0 1 0 5.008-5.008c-1.243-1.242-.363-3.385 1.394-3.37l.174.003c3.746.076 4.679-5.181 1.1-6.291-4.867-1.509-10.5-.566-14.678 3.611z" fill="#FFA50A"/></g><defs><clipPath id="a"><path fill="#fff" transform="translate(.49 .49)" d="M0 0h199.02v199.02H0z"/></clipPath></defs></svg>