<svg width="225" height="201" fill="none" xmlns="http://www.w3.org/2000/svg"><path d="M176.043 21.613c-.453 77.37-63.061 139.977-140.43 140.43 23.882 30.197 62.983 43.996 100.528 35.481 37.546-8.518 66.865-37.837 75.383-75.383 8.515-37.545-5.284-76.646-35.481-100.528z" fill="#CAD4EB"/><path d="M176.042 21.613C136.26-9.909 79.168-6.613 43.278 29.277 7.388 65.168 4.09 122.26 35.612 162.043c77.37-.453 139.977-63.06 140.43-140.43z" fill="#CAD4EB"/><path d="M162.274 41.384c-7.62 3.448-11.826-.62-17.24 3.448-6.689 5.034-9.378 18.069-3.448 27.584 4.197 6.705 11.723 8.387 20.22 10.242a140.778 140.778 0 0 0 14.138-56.501 28.403 28.403 0 0 1-13.67 15.227z" fill="#92A9CB"/><path d="M177.132 22.468a26.67 26.67 0 0 1-1.204 3.689 140.742 140.742 0 0 1-14.136 56.5l.482.103c11.828 2.587 16.414-2.895 27.585 0a42.08 42.08 0 0 1 13.792 6.897 32.057 32.057 0 0 1 10.189 15.134c.076-1.59.155-3.179.155-4.79a99.784 99.784 0 0 0-36.863-77.533zM110.553 141.378c6.827 7.551 8.62 20.309 3.448 27.584-4.206 5.932-9.964 3.896-13.792 10.345a18.19 18.19 0 0 0 0 17.24 15.402 15.402 0 0 0 1.894 2.721c3.948.476 7.921.719 11.898.727 36.464.01 70.039-19.836 87.613-51.787-6.272-4.195-16.069-9.746-25.548-10.278a42.336 42.336 0 0 0-27.584 6.896c-10.171 7.448-12.171 18-17.241 17.24-3.586-.517-5.551-6.31-6.896-10.344-3.079-9.186-1.409-15.402-1.438-20.554a140.917 140.917 0 0 1-13.178 9.358c.356.348.649.656.824.852z" fill="#879EC1"/><path d="M120.897 124.137c-3.551-4.965-10.171-5.896-17.24-6.896-14.826-2.069-20.653 4.31-27.585 0a16.374 16.374 0 0 1-6.896-17.24c2.897-8.654 15.552-5.723 31.033-17.24 5-3.69 16.895-12.55 17.24-24.137.345-11.344-10.723-14.585-13.792-27.585-1.334-5.6 1.155-18.477 7.462-30.928-37.12 1.049-70.597 22.588-86.94 55.93v.032a101.595 101.595 0 0 0 .172 37.032c2.105 13.896 4.034 26.515 13.792 37.929 4.277 5.034 10.861 12.689 20.689 13.792 10.896 1.207 25.274-5.758 27.584-6.896a21.255 21.255 0 0 1 10.345-3.448c4.929.315 9.559 2.471 12.969 6.044a140.902 140.902 0 0 0 13.177-9.358c.117-2.5-.589-4.97-2.01-7.031z" fill="#92A9CB"/><path d="M86.416 27.591c0 15.24-27.584 51.722-27.584 51.722S41.627 56.555 34.385 39.488a33.002 33.002 0 0 1-3.138-11.897C31.247 12.358 43.598.007 58.832.007c15.235 0 27.584 12.351 27.584 27.584z" fill="#87AB49"/><path d="M69.176 24.143c0 5.713-4.632 10.344-10.345 10.344-5.712 0-10.344-4.631-10.344-10.344 0-5.712 4.632-10.344 10.344-10.344 5.713 0 10.345 4.632 10.345 10.344z" fill="#F1F2F2"/><path fill-rule="evenodd" clip-rule="evenodd" d="M22.64 125.077c-17.405 17.675-25.732 32.8-20.787 41.061 9.723 16.245 67.077-.197 128.104-36.724 61.027-36.527 102.617-79.307 92.893-95.552-4.349-7.267-18.229-7.993-37.704-3.307l4.96 5.766c12.249-3.496 20.409-3.795 22.58-.168 5.94 9.924-35.205 45.477-91.898 79.41C64.094 149.497 13.32 168.961 7.381 159.037c-2.263-3.779 2.305-11.276 11.959-20.985l3.3-12.975z" fill="#87AB49"/><g clip-path="url(#a)"><path d="M103.877 106.2a8.645 8.645 0 0 0-4.525-4.044c-13.008-5-25.799-9.77-38.269-13.842a6.219 6.219 0 0 0-3.902 0c-12.468 4.06-25.257 8.823-38.263 13.816a8.659 8.659 0 0 0-4.145 3.425c.072.011-2.675 8.508-3.141 27.285-.288 18.754 2.07 24.381 1.992 24.387 1.275 4.123 3.664 8.321 7.09 12.588 3.826 4.765 8.997 9.687 15.24 14.527 10.341 8.042 20.017 12.848 20.423 13.018a6.28 6.28 0 0 0 5.532 0c.408-.17 10.094-4.991 20.429-13.03 6.246-4.843 11.419-9.765 15.247-14.528 3.669-4.57 6.149-9.054 7.348-13.458-.048 0 1.686-6.899 1.446-22.694-.306-15.787-2.526-27.442-2.502-27.45z" fill="#87AB49"/><path d="M59.143 88c-.663 0-1.322.105-1.951.311-12.468 4.061-25.257 8.824-38.263 13.817a8.652 8.652 0 0 0-4.156 3.427c.072.011-2.675 8.508-3.141 27.285-.288 18.754 2.07 24.381 1.992 24.387 1.275 4.123 3.664 8.321 7.09 12.588a67.914 67.914 0 0 0 3.251 3.749 63.65 63.65 0 0 0 5.57.251c33.363 0 60.41-26.804 60.41-59.866a59.442 59.442 0 0 0-2.243-16.22c-9.006-3.374-17.89-6.567-26.617-9.415A6.263 6.263 0 0 0 59.143 88z" fill="#9DC656"/><path d="M86.316 132.324c-9.177 9.366-18.61 19.171-27.854 28.85a8.032 8.032 0 0 1-2.66 1.848 8.087 8.087 0 0 1-3.183.65h-.037a8.255 8.255 0 0 1-5.853-2.513 1938.86 1938.86 0 0 0-14.885-15.112c-3.168-3.172-3.07-8.165.203-11.265 3.274-3.1 8.434-3.117 11.564.067 2.943 2.986 5.897 5.994 8.86 9.023 7.346-7.635 14.72-15.331 21.897-22.807 3.05-3.182 8.15-3.144 11.469 0 3.319 3.143 3.553 8.121.479 11.259z" fill="#fff"/></g><path d="M189.859 120.689a46.687 46.687 0 0 1-6.173 18.31 276.241 276.241 0 0 1-21.412 33.411s-9.034-11.963-16.792-25.067a131.738 131.738 0 0 1-7.654-14.757 33.017 33.017 0 0 1-3.139-11.897c0-15.233 12.352-27.584 27.585-27.584 15.235 0 27.585 12.351 27.585 27.584z" fill="#FB1B43"/><path d="M172.618 117.241c0 5.713-4.632 10.344-10.344 10.344-5.713 0-10.344-4.631-10.344-10.344 0-5.712 4.631-10.344 10.344-10.344 5.712 0 10.344 4.632 10.344 10.344z" fill="#F1F2F2"/><defs><clipPath id="a"><path fill="#fff" transform="translate(3.5 88)" d="M0 0h111v110H0z"/></clipPath></defs></svg>