<svg width="192" height="190" fill="none" xmlns="http://www.w3.org/2000/svg"><g clip-path="url(#a)"><path d="M191.5 95c0 20.287-6.393 39.089-17.283 54.521-.902 1.279-2.218-.876-3.181.355-17.474 22.342-44.759 36.714-75.42 36.714a96.453 96.453 0 0 1-17.782-1.644c-1.196-.224-2 2.94-3.18 2.672C32.186 177.972.5 140.167.5 95 .5 42.533 43.257 0 96 0s95.5 42.533 95.5 95z" fill="#D7DEED"/><path d="M184.465 94.355c0 44.816-36.521 81.146-81.573 81.146-45.052 0-81.573-36.33-81.573-81.146 0-44.815 36.522-81.145 81.573-81.145 45.051 0 81.573 36.33 81.573 81.145z" fill="#B6C2E0"/><path d="m112.12 84.599-49.06 66.057a1.871 1.871 0 0 1-3 0L11 84.599c-.909-1.225-.03-2.958 1.5-2.958h13.498a1.86 1.86 0 0 0 1.865-1.856V1.855A1.86 1.86 0 0 1 29.73 0h63.664c1.03 0 1.865.83 1.865 1.855v77.93a1.86 1.86 0 0 0 1.865 1.856h13.497c1.531 0 2.41 1.733 1.5 2.958z" fill="#87AB49"/><path d="m68.776 142.96-5.715 7.696a1.871 1.871 0 0 1-3 0L11 84.599c-.91-1.225-.031-2.958 1.5-2.958h13.497a1.86 1.86 0 0 0 1.865-1.856V1.855A1.86 1.86 0 0 1 29.73 0h9.778v89.118a1.86 1.86 0 0 1-1.865 1.856h-3.778c-1.531 0-2.41 1.733-1.5 2.958l36.412 49.028z" fill="#7A9B41"/><path d="M171.419 61.23v87.883c0 2.773-.978 5.466-2.79 7.575a95.809 95.809 0 0 1-26.176 21.336c-.391.217-1.809-.516-2.203-.305a94.938 94.938 0 0 1-3.724 1.894c-.629.303-.236 1.547-.873 1.837C123.575 186.94 110.147 190 96 190c-.62 0-1.237-.006-1.853-.017-9.288-.176-16.696-7.781-16.696-17.021V61.231c0-3.075 2.505-5.567 5.595-5.567h82.777c3.091 0 5.596 2.492 5.596 5.566z" fill="#DEECF1"/><path d="M100.326 55.664c-3.09 0-5.596 2.492-5.596 5.566v128.762a96.546 96.546 0 0 1-14.67-1.309 3.13 3.13 0 0 1-2.609-3.087V61.231c0-3.075 2.506-5.567 5.596-5.567h17.279z" fill="#A8D3D8"/><path d="M155.84 69.394h-6.028a2.79 2.79 0 0 1-2.798-2.783 2.79 2.79 0 0 1 2.798-2.783h6.028a2.79 2.79 0 0 1 2.798 2.783 2.79 2.79 0 0 1-2.798 2.783zm-59.324-2.783a2.79 2.79 0 0 0-2.798-2.783h-.689a2.79 2.79 0 0 0-2.798 2.783 2.79 2.79 0 0 0 2.798 2.783h.689a2.79 2.79 0 0 0 2.798-2.783zm9.905 0a2.79 2.79 0 0 0-2.798-2.783h-.688a2.79 2.79 0 0 0-2.798 2.783 2.79 2.79 0 0 0 2.798 2.783h.688a2.79 2.79 0 0 0 2.798-2.783zm33.309 109.272h-30.59a2.79 2.79 0 0 0-2.798 2.783 2.79 2.79 0 0 0 2.798 2.783h26.513a95.377 95.377 0 0 0 6.799-3.425 2.794 2.794 0 0 0-2.722-2.141zm12.998-5.567a2.79 2.79 0 0 0 2.797-2.783 2.79 2.79 0 0 0-2.797-2.783H96.142a2.79 2.79 0 0 0-2.798 2.783 2.79 2.79 0 0 0 2.798 2.783h56.586z" fill="#8EBAC5"/><path d="M132.828 66.611a2.79 2.79 0 0 1-2.797 2.783h-11.192a2.79 2.79 0 0 1-2.798-2.783 2.79 2.79 0 0 1 2.798-2.783h11.192a2.79 2.79 0 0 1 2.797 2.783zm42.155 13.916a2.79 2.79 0 0 0 2.798-2.783V66.611a2.79 2.79 0 0 0-2.798-2.783 2.8 2.8 0 0 0-.766.106V61.23c0-4.604-3.766-8.35-8.394-8.35H83.046c-4.628 0-8.393 3.746-8.393 8.35v2.703a2.819 2.819 0 0 0-.766-.106 2.79 2.79 0 0 0-2.798 2.783v11.133a2.79 2.79 0 0 0 2.798 2.783c.265 0 .522-.036.766-.105v107.196a95.279 95.279 0 0 0 5.595 1.096V61.231a2.793 2.793 0 0 1 2.798-2.784h82.777a2.794 2.794 0 0 1 2.798 2.783v95.468a95.73 95.73 0 0 0 5.596-7.177v-46.463c.243.069.5.106.766.106a2.79 2.79 0 0 0 2.798-2.783V89.248a2.79 2.79 0 0 0-2.798-2.783 2.8 2.8 0 0 0-.766.106v-6.149c.243.069.5.105.766.105z" fill="#384949"/><path d="M134.119 41.4a2.772 2.772 0 0 1 0 3.936 2.796 2.796 0 0 1-1.978.815 2.795 2.795 0 0 1-1.978-.815c-3.158-3.142-8.297-3.142-11.456 0a2.807 2.807 0 0 1-3.956 0 2.772 2.772 0 0 1 0-3.936c5.34-5.312 14.028-5.312 19.368 0zm9.416-8.928c-10.532-10.477-27.668-10.477-38.199 0a2.772 2.772 0 0 0 0 3.935 2.794 2.794 0 0 0 1.978.816c.716 0 1.432-.272 1.978-.816 8.35-8.305 21.936-8.305 30.286 0a2.808 2.808 0 0 0 3.957 0 2.772 2.772 0 0 0 0-3.935z" fill="#fff"/><ellipse cx="128" cy="120.797" rx="21.812" ry="22.153" fill="url(#b)"/><path fill-rule="evenodd" clip-rule="evenodd" d="M103.375 128.683c.378-.475 1.11-.404 1.409.124a.9.9 0 0 1-.114 1.033c-1.485 1.701-2.126 3.024-1.7 3.778 1.368 2.418 13.199-1.943 26.426-9.741.455-.269.907-.538 1.353-.808a.524.524 0 0 0 .248-.452c0-3.104 2.478-5.621 5.534-5.621 1.637 0 3.414.05 4.727-.927 6.599-4.908 10.518-9.087 9.612-10.69-.405-.717-1.729-.838-3.737-.45a.882.882 0 0 1-.938-.424c-.288-.51.01-1.153.59-1.239 3.957-.588 6.764-.096 7.749 1.645 1.843 3.261-3.229 9.987-12.059 16.828a1.101 1.101 0 0 0-.409.878c0 3.105-2.478 5.622-5.535 5.622-.151 0-.301-.006-.45-.019-1.364-.111-2.82-.169-4 .526-14.882 8.774-28.959 12.328-31.441 7.938-1.017-1.8.071-4.654 2.735-8.001z" fill="#fff"/><ellipse cx="136.532" cy="122.618" rx="2.767" ry="2.811" fill="#70AF09"/><g opacity=".32" fill="#E5E5E5"><path d="M116.822 113.221c-1.342 3.366-.919 6.916-2.565 6.239-1.647-.677-1.893-3.955-.551-7.321 1.343-3.367 3.766-5.547 5.412-4.87 1.646.678-.953 2.586-2.296 5.952zM115.789 122.805c.12 1.108-.386 2.074-1.129 2.157-.744.083-1.443-.748-1.563-1.857-.12-1.109.385-2.075 1.128-2.158.744-.083 1.444.749 1.564 1.858z"/></g><path d="M121.56 137.674c-.758-.445-.395-1.19 1.446-1.81 3.882-.865 3.227.884 8.813.211 5.587-.673 8.532-3.012 10.015-4.551 1.187-1.231 2.283-2.896 2.231-2.309-.253 1.251-2.291 4.546-8.427 7.725-7.669 3.975-12.916 1.416-14.078.734z" fill="#080F1B" fill-opacity=".11"/><path d="M146.242 108.519c.713-.479.912-1.446.397-2.133-3.331-4.444-8.108-7.57-13.506-8.802a23.118 23.118 0 0 0-17.251 2.852c-5.173 3.176-8.937 8.259-10.505 14.188a24.127 24.127 0 0 0 1.38 16.202c.364.795 1.334 1.074 2.097.648.75-.418 1.019-1.359.668-2.143a20.91 20.91 0 0 1-1.125-13.883c1.359-5.137 4.62-9.542 9.102-12.294a20.035 20.035 0 0 1 14.949-2.471 20.265 20.265 0 0 1 11.551 7.427c.534.694 1.516.899 2.243.409zM114.635 138.38c-.525.691-.406 1.684.305 2.168a23.18 23.18 0 0 0 11.297 3.973c4.565.35 9.131-.666 13.133-2.922a23.633 23.633 0 0 0 9.388-9.775 24.098 24.098 0 0 0 2.654-11.839c-.029-.869-.795-1.497-1.651-1.409-.862.088-1.488.869-1.468 1.745a20.88 20.88 0 0 1-2.306 10.031 20.48 20.48 0 0 1-8.135 8.47 20.037 20.037 0 0 1-20.983-.785c-.721-.48-1.704-.354-2.234.343z" fill="#fff"/></g><defs><linearGradient id="b" x1="104.869" y1="82.91" x2="138.632" y2="139.549" gradientUnits="userSpaceOnUse"><stop offset=".395" stop-color="#FF3A3A"/><stop offset=".72" stop-color="#D64D12"/><stop offset=".75" stop-color="#70AF09"/></linearGradient><clipPath id="a"><path fill="#fff" transform="translate(.5)" d="M0 0h191v190H0z"/></clipPath></defs></svg>