<svg xmlns="http://www.w3.org/2000/svg" width="436.891" height="447.89" viewBox="0 0 436.891 447.89"><g transform="translate(-748 -3674)"><g transform="translate(131.631 3598.945)"><circle cx="152.003" cy="152.003" r="152.003" transform="translate(682.811 152.497)" fill="#d5d7db" opacity="0.204"/><circle cx="218.445" cy="218.445" r="218.445" transform="translate(616.369 86.055)" fill="#d5d7db" opacity="0.152"/></g><g transform="translate(797.008 3631.138)"><path d="M106.59,80.169A7.827,7.827,0,0,1,111.9,78.25a39.777,39.777,0,0,0,5.765-.269A5.69,5.69,0,0,0,122.1,74.7a11.37,11.37,0,0,1-9.531,13.772,8.038,8.038,0,0,1-4.855-.7,5.08,5.08,0,0,1-2.754-3.909" transform="translate(63.131 27.199)" fill="#0f356d"/><path d="M106.345,83.117a7.824,7.824,0,0,1,3.049-4.747,40.085,40.085,0,0,0,4.415-3.718,5.684,5.684,0,0,0,1.528-5.3,11.368,11.368,0,0,1,.8,16.73,8.037,8.037,0,0,1-4.285,2.39,5.078,5.078,0,0,1-4.562-1.43" transform="translate(64.313 22.628)" fill="#0f356d"/><g transform="translate(192.217 271.926)"><path d="M180.148,262.3c-2.958-.195-5.7,2.2-6.435,5.073a7.695,7.695,0,0,0,14.67,4.58,7.287,7.287,0,0,0-12.891-6.644" transform="translate(-70.53 -84.585)" fill="#00143a"/><path d="M189.236,261.654l9.03,9.741,4.6-2.809-6.813-17.263Z" transform="translate(-57.087 -93.832)" fill="#00143a"/><path d="M122.433,179.025l30.307,54.94h4.831l-32.063-58.712Z" transform="translate(-114.159 -158.821)" fill="#00143a"/><path d="M132.368,175.135l30.306,54.94h4.831l-32.063-58.712Z" transform="translate(-105.671 -162.144)" fill="#00143a"/><path d="M123.151,191.428l32.082-15.817-1.9-9.219-35.365,16.433Z" transform="translate(-117.971 -166.392)" fill="#00143a"/><path d="M137.043,214.753C137.11,216.214,193.4,327.6,193.4,327.6l31.19-13.85a30.728,30.728,0,0,0,14.72-42.4L209.2,214.16a30.726,30.726,0,0,0-39.61-13.789Z" transform="translate(-101.678 -139.608)" fill="#a0d2db"/><path d="M212.215,312.068c.033.095-.4.315-1.285.656a12.515,12.515,0,0,1-4.065.788,15.186,15.186,0,0,1-3.015-.152,18.693,18.693,0,0,1-3.512-.784,24.206,24.206,0,0,1-7.651-4.246c-5.1-4.117-9.185-10.9-12.66-18.4-3.653-7.517-7.021-16.038-10.583-24.9q-1.36-3.31-2.687-6.536l-2.728-6.279c-1.878-4.061-3.673-7.922-5.732-11.558l-1.461-2.7q-.762-1.282-1.5-2.526-1.5-2.551-2.906-4.951c-.957-1.572-1.723-3.317-2.533-4.871-.773-1.584-1.211-3.141-1.791-4.61a24.7,24.7,0,0,1-1.215-8.691,19.478,19.478,0,0,1,.521-3.562,14.5,14.5,0,0,1,.942-2.869,11.85,11.85,0,0,1,1.17-2.136,6.21,6.21,0,0,1,1.074-1.356c.642-.671,1.016-.994,1.1-.933s-.141.5-.634,1.291a16.3,16.3,0,0,0-2.294,6.271,19.537,19.537,0,0,0-.254,3.329,24.357,24.357,0,0,0,1.506,7.92c.632,1.422,1.157,3.03,1.945,4.491.834,1.45,1.537,2.963,2.542,4.517q1.458,2.342,3.006,4.838.8,1.271,1.61,2.581.745,1.318,1.509,2.674c2.1,3.547,4.039,7.56,5.982,11.677l2.8,6.333,2.718,6.574c3.573,8.9,6.841,17.377,10.312,24.846,3.336,7.549,7,13.961,11.577,17.991a23.606,23.606,0,0,0,6.863,4.272,18.535,18.535,0,0,0,3.2.949,16.033,16.033,0,0,0,2.785.386,16.726,16.726,0,0,0,3.913-.226C211.679,312.011,212.18,311.974,212.215,312.068Z" transform="translate(-93.275 -136.45)" fill="#00143a" opacity="0.31"/><path d="M201.844,227.242c.358.716-6.516,4.391-15.358,8.2-9,3.112-16.505,5.022-16.769,4.265s6.822-3.89,15.823-7C194.183,228.967,201.486,226.527,201.844,227.242Z" transform="translate(-73.769 -114.511)" fill="#00143a" opacity="0.31"/><path d="M193.8,212.953c.323.673-5.967,4.332-14.378,7.351-8.511,2.937-15.6,4-15.812,3.284-.247-.816,6.62-3.169,14.849-6.017C186.713,214.609,193.437,212.181,193.8,212.953Z" transform="translate(-78.986 -126.737)" fill="#00143a" opacity="0.31"/></g><g transform="translate(31.066 49.007)"><g transform="translate(0 91.096)"><path d="M42.127,173.659,83.1,142.35,103.351,95.3l24.337,6.961L103.657,151.35,53.07,189.756l-10.943-16.1" transform="translate(-21.617 -95.302)" fill="#f6ba99"/><g transform="translate(0 75.327)"><path d="M61.024,137.5l-4.717.426a40.308,40.308,0,0,1-7.914.879,11.644,11.644,0,0,1-3.907-.56,17.828,17.828,0,0,1-4.508-1.967,1.527,1.527,0,0,0-2.513,1.422c.389,1.32,3.647,3.935,8.409,5s-2.11,4.493-4.593,5.786-9.973,5.658-10.178,6.735c-.3,1.58,1.333,2.2,3.783.847,2.477-1.367,10.076-4.879,10.7-3.536.612,1.324-12.114,7.736-12.114,7.736s-2.941.931-2.277,2.507c1.2,2.845,14.225-4.968,15.445-5.743.849-.538,1.576.9.632,1.428-.97.545-12.841,6.1-11.647,9.007.914,2.231,10.774-6.327,13.876-6.11s-8.135,5.728-7.174,7.823c.358.781.732,1.313,6.731-2.785,6.142-4.2,20.932-18.276,20.932-18.276l-9.236-10.683" transform="translate(-31.066 -135.925)" fill="#f6ba99"/></g></g><path d="M78.594,231.255c12.22,56.149,92.7,108.384,92.7,108.384l14.8-15.8s-65.782-58.682-68.54-84.335,18.7-65.862,18.7-65.862l-22.239-9.466Z" transform="translate(9.538 54.631)" fill="#f3a28d"/><path d="M168.545,131.8c.688.037-1.461,34.131-8.738,49.023-.731,1.5-1.3,4.041-3.38,9.466-3.416,8.912-42.062,66.079-42.062,81.045,0,9.735-29.8,115.46-29.8,115.46l-24.5-4.71,16.895-115.1,25.165-109.17Z" transform="translate(-6.294 26.976)" fill="#f6ba99"/><path d="M98.437,107.969c.395-2.309-.543-12-.543-12s-8.849-.936-9.387-9.713,0-29.017,0-29.017l16.12-7.883L122.36,62.789l-2.685,43.885Z" transform="translate(17.803 -43.461)" fill="#f6ba99"/><path d="M121.612,72.274s-14.475-1.365-17.036-14.5l-15.708,14.5S84.1,62.548,92.8,53.5s14.675-7.167,18.087-7.167c3.182,0,19.27,3.412,24.058,21.716.349,1.326.636,4.614.855,6.1Z" transform="translate(17.202 -46.176)" fill="#f17f60"/><g transform="translate(106.964 25.943)"><path d="M89.347,62.079a1.124,1.124,0,1,0,1.124-1.124A1.123,1.123,0,0,0,89.347,62.079Z" transform="translate(-88.24 -59.492)" fill="#00143a"/><path d="M88.769,61.527c.145.146.975-.56,2.184-.623,1.209-.083,2.118.516,2.244.354.063-.072-.087-.339-.486-.612a2.978,2.978,0,0,0-3.534.215C88.815,61.18,88.7,61.464,88.769,61.527Z" transform="translate(-88.75 -60.166)" fill="#00143a"/></g><g transform="translate(120.371 25.943)"><path d="M96.367,62.079a1.124,1.124,0,1,0,1.124-1.124A1.123,1.123,0,0,0,96.367,62.079Z" transform="translate(-95.649 -59.492)" fill="#00143a"/><path d="M96,61.527c.145.146.975-.56,2.184-.623,1.209-.083,2.118.516,2.244.354.063-.072-.087-.339-.486-.612a2.975,2.975,0,0,0-3.533.215C96.047,61.18,95.93,61.464,96,61.527Z" transform="translate(-95.98 -60.166)" fill="#00143a"/></g><g transform="translate(112.934 26.969)"><path d="M95.064,71.271a8.45,8.45,0,0,1-1.992.091,2.007,2.007,0,0,1-.523-.048.738.738,0,0,1-.512-.432,1.944,1.944,0,0,1,.121-1.259q.378-1.2.794-2.518c.575-1.784,1.122-3.39,1.539-4.545a8.27,8.27,0,0,1,.77-1.839,8.479,8.479,0,0,1-.451,1.943c-.337,1.181-.833,2.8-1.407,4.586-.289.877-.566,1.715-.829,2.507a1.719,1.719,0,0,0-.171.981c.067.232.375.274.681.289A8.308,8.308,0,0,1,95.064,71.271Z" transform="translate(-91.969 -60.72)" fill="#00143a"/></g><g transform="translate(121.834 36.26)" opacity="0.33"><path d="M96.769,67.586c.032,1,1.571,1.719,3.438,1.763s3.419-.612,3.475-1.611-1.482-1.966-3.434-2.006S96.738,66.594,96.769,67.586Z" transform="translate(-96.769 -65.73)" fill="#f2957e"/></g><path d="M98.486,67.093c1.224-.81-3.38,2.014-5.847,2.014a3.346,3.346,0,0,0,4.009,1.139C99.229,69.155,98.486,67.093,98.486,67.093Z" transform="translate(21.537 -28.43)" fill="#f3f0eb"/><path d="M93.459,76.3a21.911,21.911,0,0,0,11.63-3.926s-2.635,6.444-11.438,6.08Z" transform="translate(22.237 -23.794)" fill="#f2957e"/><g transform="translate(159.228 215.978)"><g transform="translate(0)"><path d="M129.79,164.929l-2.042,4.274a40.493,40.493,0,0,1-3.286,7.252,11.661,11.661,0,0,1-2.477,3.073,17.816,17.816,0,0,1-3.994,2.872,1.526,1.526,0,0,0-.057,2.885c1.333.341,5.246-1.126,8.595-4.677s2.785,4.109,2.629,6.9-.23,11.463.592,12.192c1.205,1.068,2.572-.026,2.661-2.82.091-2.828.951-11.156,2.424-11,1.448.15.464,14.366.464,14.366s-.7,3,.994,3.238c3.058.423,2.989-14.766,2.948-16.212-.03-1.005,1.576-.894,1.55.185-.028,1.113-1.313,14.158,1.8,14.616,2.385.352.061-12.494,1.83-15.053s.771,9.923,3.065,10.165c.853.089,1.5.039,1.04-7.21-.471-7.425-5.025-27.329-5.025-27.329l-13.9,2.487" transform="translate(-116.935 -162.648)" fill="#f6ba99"/></g></g><path d="M88.032,183.137a117.752,117.752,0,0,0,1.741,25.972l66.168-2.509s7.868-18.957-6.917-43.825c-4.543-7.645-4.046-17.314-3.037-37.053l7.326-29.543-8.626-16.65-39.228,2.663s-22.068,0-32.341,30.5l16.264,19.174.18,8.248Z" transform="translate(4.859 -17.682)" fill="#a0d2db"/><path d="M104.4,52.049s-3.215,6.216-1.841,10.9L88.485,66.576S85.276,48.739,104.4,52.049Z" transform="translate(17.815 -41.509)" fill="#f17f60"/><path d="M111.517,57.716a8.388,8.388,0,0,1,3.568-4.419,6.152,6.152,0,0,1,5.565-.352,4.879,4.879,0,0,1,2.82,4.654A5.317,5.317,0,0,1,119.3,62a8.864,8.864,0,0,1-6.225-1.152" transform="translate(37.665 -40.827)" fill="#f17f60"/><g transform="translate(145.527 7.302)"><path d="M109.57,64.1c-.293-.3,2.151-2.852,3.961-6.7,1.858-3.824,2.311-7.325,2.73-7.289.184.015.315.925.161,2.392a17.785,17.785,0,0,1-4.89,10.221C110.486,63.766,109.694,64.235,109.57,64.1Z" transform="translate(-109.546 -50.114)" fill="#f17f60"/></g><g transform="translate(149.819 18.701)"><path d="M111.872,56.333c.083-.167.734-.054,1.665.419a11.174,11.174,0,0,1,5.207,6.04c.332.99.349,1.648.171,1.708-.391.128-1.378-2.092-3.293-4.28C113.738,58,111.687,56.7,111.872,56.333Z" transform="translate(-111.861 -56.261)" fill="#f17f60"/></g><path d="M120.349,60.372s2.4,20.045-14.694,23.7l.5-24.234Z" transform="translate(32.657 -34.506)" fill="#f17f60"/><path d="M112.765,79.528s12.548.514,17.08,15.165l-9.754,21.047-8.643-36.211" transform="translate(37.606 -17.682)" fill="#f6ba99"/><path d="M114.481,124.546l22.536-9.991S134.228,75.89,110.35,79.746Z" transform="translate(36.668 -17.727)" fill="#a0d2db"/><path d="M132.336,99.056s19.116,88.036,14.74,133.274l-17.293-2.654s-2.774-81.31-17.2-121.859Z" transform="translate(38.571 -0.999)" fill="#f6ba99"/><path d="M84.837,122.96c-.4-4.387-5.366-7.653-4.894-12.033.211-1.956,1.5-3.6,2.735-5.135l7.475-9.251" transform="translate(10.664 -3.148)" fill="#a0d2db"/><g transform="translate(120.629 102.515)"><path d="M116.227,110.561c.087.137-1.076,1.09-3.379,1.719a13.637,13.637,0,0,1-15.732-7.145c-1.042-2.147-1.088-3.647-.929-3.673.221-.057.617,1.313,1.8,3.184a14.321,14.321,0,0,0,14.651,6.651C114.833,110.96,116.127,110.357,116.227,110.561Z" transform="translate(-96.119 -101.46)" fill="#6cbcc4"/></g><g transform="translate(138.5 137.441)"><path d="M118.68,120.436c.1.373-2.689,1.45-6.286,2.151s-6.588.762-6.637.376,2.819-1.074,6.364-1.771S118.578,120.052,118.68,120.436Z" transform="translate(-105.757 -120.295)" fill="#6cbcc4"/></g><g transform="translate(134.724 134.956)"><path d="M119.777,119.365c.02.391-3.558.892-7.992,1.118s-8.044.093-8.064-.3,3.558-.894,7.992-1.12S119.756,118.972,119.777,119.365Z" transform="translate(-103.72 -118.955)" fill="#6cbcc4"/></g><g transform="translate(144.873 83.164)"><path d="M115.26,115.015c-.373.108-2.208-5.138-3.861-11.777s-2.5-12.135-2.116-12.213,1.843,5.255,3.5,11.87S115.642,114.905,115.26,115.015Z" transform="translate(-109.193 -91.024)" fill="#6cbcc4"/></g><g transform="translate(34.645 401.257)"><path d="M65.575,269.9s-19.684,4.869-15.146,6.244,40.877-.734,40.877-.734l.866-7.694Z" transform="translate(-49.75 -258.165)" fill="#0f356d"/><path d="M58.284,274.3,60.5,262.565l28.376.578-4.621,17.033Z" transform="translate(-42.459 -262.565)" fill="#0f356d"/></g><g transform="translate(174.101 370.637)"><path d="M131.713,272.475s-8.278,18.508-4.4,15.78,24.581-32.671,24.581-32.671l-5.531-5.416Z" transform="translate(-123.825 -242.537)" fill="#0f356d"/><path d="M132.842,275.99l-7.887-8.967,16.376-20.97,12.125,13.087Z" transform="translate(-124.955 -246.052)" fill="#0f356d"/></g><path d="M90.426,126.752l58.582-4.265s20.26,20.55,7.054,56.2-31,81.973-31,81.973l-53.929-7.1S89.886,141.887,90.426,126.752Z" transform="translate(3.167 19.019)" fill="#0f356d"/><path d="M149.008,122.487l-74.2,131.553-3.674-.484L90.425,126.751Z" transform="translate(3.167 19.019)" fill="#154593"/><g transform="translate(90.516 93.527)"><path d="M89.315,96.657c.083.211-1.224.758-2.917,2.157a13.726,13.726,0,0,0-4.434,15.237c.681,2.088,1.489,3.251,1.305,3.384-.119.109-1.254-.864-2.242-3.023A13.168,13.168,0,0,1,85.8,98.005C87.793,96.715,89.273,96.5,89.315,96.657Z" transform="translate(-79.88 -96.613)" fill="#6cbcc4"/></g><path d="M89.326,82.823S81.3,109.874,96.358,108.79s39.221-29.18,39.221-29.18C135.423,78.994,93.775,80.611,89.326,82.823Z" transform="translate(16.881 -17.725)" fill="#f6ba99"/><path d="M81.238,132.221l60.851-4.34-2.461-7.511-57.692,4.258Z" transform="translate(11.797 17.211)" fill="#0f356d"/></g><path d="M114.744,79.528" transform="translate(71.488 31.324)" fill="#77483c"/><path d="M60.063,125.022l1.992,68.519h7.529s-.393-65.152-4.76-71.054Z" transform="translate(24.773 68.025)" fill="#00143a"/><path d="M42.591,157.924H97.833s-.295,64.475-19.294,64.032C63.031,221.592,38.441,231.2,42.591,157.924Z" transform="translate(9.449 98.3)" fill="#00143a"/><path d="M56.3,171.9l-2.155-30.25-4.532,6.291V171.9Z" transform="translate(15.842 84.394)" fill="#00143a"/><path d="M88.75,60.618s4.009-17.217,5.969-17.7S121.1,45.383,124.6,49.007c2.459,2.54,5.124,12.341,5.124,12.341S126.473,54.764,88.75,60.618Z" transform="translate(49.281 0)" fill="#0f356d"/><path d="M93.459,78.784,94,85.5l22.074-1.9,1.851-7.934Z" transform="translate(53.304 28.02)" fill="#0f356d"/></g></g></svg>