<svg width="91" height="91" viewBox="0 0 91 91" fill="none" xmlns="http://www.w3.org/2000/svg">
<g clip-path="url(#clip0_9221_8576)">
<path d="M16.6227 69.807C15.3627 69.807 14.1515 70.1215 13.0769 70.712C7.41615 63.4555 4.30908 54.4412 4.30908 45.2065C4.30908 22.3316 22.9185 3.72217 45.7935 3.72217C48.5744 3.72217 51.3539 3.99889 54.0552 4.54477C55.0055 4.73703 55.9338 4.1218 56.1261 3.1701C56.3184 2.21841 55.7031 1.29144 54.7514 1.0985C51.8215 0.506607 48.8078 0.206543 45.7935 0.206543C33.7737 0.206543 22.4729 4.88741 13.9736 13.3867C5.47432 21.886 0.793457 33.1868 0.793457 45.2065C0.793457 55.3174 4.22668 65.1845 10.4772 73.0947C9.67247 74.297 9.23988 75.7101 9.23988 77.1898C9.23988 79.1618 10.0082 81.0158 11.4028 82.4097C12.7967 83.8043 14.6507 84.5726 16.6227 84.5726C18.5947 84.5726 20.4487 83.8043 21.8433 82.4097C23.2378 81.0158 24.0055 79.1612 24.0055 77.1891C24.0055 75.2178 23.2378 73.3631 21.8433 71.9692C20.4487 70.5747 18.5947 69.807 16.6227 69.807ZM19.3569 79.924C18.627 80.6546 17.6554 81.057 16.6227 81.057C15.59 81.057 14.6191 80.6546 13.8885 79.924C13.1579 79.1934 12.7555 78.2225 12.7555 77.1898C12.7555 76.1564 13.1579 75.1855 13.8885 74.4549C14.6184 73.7243 15.59 73.3226 16.6227 73.3226C17.6554 73.3226 18.6263 73.725 19.3569 74.4549C20.0875 75.1855 20.4899 76.1564 20.4899 77.1898C20.4899 78.2225 20.0875 79.1934 19.3569 79.924Z" fill="#879EC1"/>
<path d="M81.1084 17.3165C83.0193 14.4497 82.7124 10.5304 80.1848 8.00282C78.7902 6.60893 76.9363 5.84058 74.9642 5.84058C72.9922 5.84058 71.1383 6.60893 69.7437 8.00282C68.3491 9.3974 67.5814 11.2513 67.5814 13.2234C67.5814 15.1954 68.3491 17.0494 69.7437 18.444C71.1383 19.8385 72.9922 20.6062 74.9642 20.6062C76.2242 20.6062 77.4355 20.2917 78.5101 19.7012C84.1708 26.9584 87.2779 35.972 87.2779 45.2066C87.2779 68.0816 68.6684 86.691 45.7935 86.691C43.04 86.691 40.2866 86.4198 37.6107 85.8842C36.659 85.694 35.7328 86.3113 35.5419 87.263C35.3517 88.2154 35.969 89.141 36.9206 89.3319C39.8231 89.9121 42.8086 90.2066 45.7935 90.2066C57.8132 90.2066 69.114 85.5258 77.6133 77.0265C86.1126 68.5272 90.7935 57.2264 90.7935 45.2066C90.7935 35.0951 87.3596 25.2273 81.1084 17.3165ZM72.23 15.9583C71.4994 15.2277 71.0971 14.2568 71.0971 13.2234C71.0971 12.1907 71.4994 11.2198 72.23 10.4892C72.9599 9.75858 73.9315 9.3562 74.9642 9.3562C75.997 9.3562 76.9686 9.75858 77.6992 10.4892C79.2063 11.997 79.2063 14.4504 77.6992 15.9583C76.9686 16.6882 75.997 17.0906 74.9642 17.0906C73.9308 17.0906 72.9599 16.6882 72.23 15.9583Z" fill="#879EC1"/>
<path d="M38.5397 75.4409C38.5397 76.4118 39.3273 77.1987 40.2975 77.1987H51.2887C52.2596 77.1987 53.0465 76.4118 53.0465 75.4409V72.0331C55.3577 71.411 57.5674 70.495 59.6438 69.2989L62.0498 71.7049C62.3794 72.0345 62.8264 72.2199 63.2933 72.2199C63.7589 72.2199 64.2065 72.0345 64.5361 71.7042L72.3048 63.93C72.9908 63.2433 72.9908 62.1303 72.3048 61.4443L69.9016 59.0411C71.0977 56.9647 72.0137 54.755 72.6358 52.4438H76.0306C77.0015 52.4438 77.7884 51.6569 77.7884 50.686V39.6948C77.7884 38.7239 77.0015 37.937 76.0306 37.937H72.6351C72.013 35.6265 71.0977 33.4168 69.9016 31.3404L72.2918 28.9502C72.6214 28.6206 72.8068 28.1729 72.8068 27.7067C72.8061 27.2405 72.6207 26.7928 72.2911 26.4632L64.5162 18.6945C63.8303 18.0085 62.7172 18.0085 62.0306 18.6952L59.6438 21.0826C57.5674 19.8865 55.3577 18.9705 53.0465 18.3484V14.9722C53.0465 14.0013 52.2596 13.2144 51.2887 13.2144H40.2975C39.3273 13.2144 38.5397 14.0013 38.5397 14.9722V18.3491C36.2292 18.9705 34.0195 19.8865 31.9431 21.0826L29.5557 18.6952C28.8697 18.0092 27.7567 18.0085 27.07 18.6945L19.2958 26.4639C18.9655 26.7935 18.7801 27.2405 18.7801 27.7067C18.7801 28.1729 18.9655 28.6206 19.2951 28.9502L21.6853 31.3404C20.4892 33.4168 19.5732 35.6258 18.9511 37.937H15.5625C14.5916 37.937 13.8047 38.7239 13.8047 39.6942L13.7985 50.6853C13.7978 51.1515 13.9832 51.5992 14.3128 51.9288C14.6424 52.2584 15.0894 52.4438 15.5563 52.4438H18.9511C19.5732 54.755 20.4892 56.9647 21.6853 59.0411L19.2821 61.4443C18.5961 62.1303 18.5954 63.2433 19.2821 63.93L27.0508 71.7042C27.3804 72.0338 27.8274 72.2199 28.2936 72.2199H28.2943C28.7605 72.2199 29.2075 72.0345 29.5371 71.7049L31.9424 69.2989C34.0195 70.495 36.2292 71.411 38.5397 72.0331V75.4409ZM32.6318 65.602C31.9363 65.1522 31.021 65.2497 30.4346 65.8354L28.2943 67.9757L23.0106 62.6879L25.1488 60.549C25.7345 59.9632 25.832 59.0479 25.3822 58.3524C23.7885 55.8859 22.6679 53.1826 22.0527 50.3166C21.8783 49.507 21.1628 48.9282 20.334 48.9282H17.3148L17.319 41.4527H20.334C21.1628 41.4527 21.8783 40.8745 22.0527 40.0643C22.6679 37.1989 23.7885 34.4956 25.3822 32.0291C25.832 31.3336 25.7345 30.4183 25.1488 29.8326L23.0243 27.7074L28.3122 22.4236L30.4346 24.5468C31.021 25.1325 31.9356 25.2293 32.6318 24.7802C35.0976 23.1865 37.8009 22.0659 40.667 21.4507C41.4765 21.2763 42.0554 20.5601 42.0554 19.732V16.73H49.5309V19.7313C49.5309 20.5601 50.109 21.2763 50.9193 21.45C53.7846 22.0659 56.4886 23.1858 58.9544 24.7795C59.65 25.2293 60.5653 25.1325 61.151 24.5461L63.2741 22.4236L68.5619 27.7074L66.4375 29.8319C65.8511 30.4183 65.7542 31.3336 66.204 32.0291C67.7977 34.4956 68.9176 37.1989 69.5335 40.0643C69.7073 40.8745 70.4234 41.4527 71.2522 41.4527H74.2728V48.9282H71.2522C70.4234 48.9282 69.7079 49.507 69.5335 50.3166C68.9183 53.1819 67.7977 55.8859 66.204 58.3517C65.7542 59.0479 65.8517 59.9632 66.4375 60.549L68.5757 62.6872L63.2919 67.975L61.1517 65.8354C60.5653 65.249 59.65 65.1522 58.9544 65.602C56.488 67.1957 53.7846 68.3156 50.9193 68.9315C50.109 69.1059 49.5309 69.8214 49.5309 70.6502V73.6831H42.0554V70.6502C42.0554 69.8221 41.4765 69.1059 40.667 68.9315C37.8016 68.3163 35.0983 67.1957 32.6318 65.602Z" fill="#87AB49"/>
<path d="M60.3181 45.2065C60.3181 37.1975 53.8025 30.6819 45.7935 30.6819C37.7844 30.6819 31.2689 37.1975 31.2689 45.2065C31.2689 53.2155 37.7844 59.7311 45.7935 59.7311C53.8025 59.7311 60.3181 53.2155 60.3181 45.2065ZM34.7845 45.2065C34.7845 39.1359 39.7228 34.1975 45.7935 34.1975C51.8641 34.1975 56.8025 39.1366 56.8025 45.2065C56.8025 51.2764 51.8641 56.2155 45.7935 56.2155C39.7228 56.2155 34.7845 51.2771 34.7845 45.2065Z" fill="#87AB49"/>
<path d="M61.9791 6.8546C62.4419 6.8546 62.895 6.66646 63.2219 6.33961C63.5487 6.01071 63.7369 5.55753 63.7369 5.09473C63.7369 4.63467 63.5494 4.1808 63.2219 3.8519C62.895 3.52505 62.4419 3.33691 61.9791 3.33691C61.5149 3.33691 61.0638 3.52505 60.7369 3.8519C60.4094 4.1808 60.2213 4.63261 60.2213 5.09473C60.2213 5.5589 60.4094 6.01071 60.7369 6.33961C61.0638 6.66646 61.5149 6.8546 61.9791 6.8546Z" fill="#879EC1"/>
<path d="M29.6848 83.5901C29.2226 83.5901 28.7688 83.7782 28.4419 84.1051C28.1151 84.4319 27.9269 84.8858 27.9269 85.3479C27.9269 85.8121 28.1151 86.2639 28.4419 86.5907C28.7688 86.9176 29.2226 87.1057 29.6848 87.1057C30.1469 87.1057 30.6007 86.9176 30.9276 86.5907C31.2544 86.2639 31.4426 85.81 31.4426 85.3479C31.4426 84.8858 31.2544 84.4319 30.9276 84.1051C30.6007 83.7782 30.1469 83.5901 29.6848 83.5901Z" fill="#879EC1"/>
</g>
<defs>
<clipPath id="clip0_9221_8576">
<rect width="90" height="90" fill="white" transform="translate(0.793457 0.206543)"/>
</clipPath>
</defs>
</svg>
