<svg width="35" height="35" viewBox="0 0 35 35" fill="none" xmlns="http://www.w3.org/2000/svg">
<path d="M35 23.6865C35 18.5849 31.5625 14.1277 26.7152 12.7845C26.4105 5.68344 20.5391 0 13.3643 0C5.99506 0 0 5.99506 0 13.3643C0 15.7659 0.639267 18.1043 1.85318 20.1572L0.0491333 26.6791L6.57131 24.8753C8.4584 25.9912 10.5872 26.6198 12.7843 26.7146C14.1272 31.5623 18.5847 35 23.6865 35C25.7229 35 27.7032 34.4577 29.4431 33.4272L34.9506 34.9506L33.4272 29.4431C34.4577 27.7032 35 25.7229 35 23.6865ZM6.89495 22.6579L2.99046 23.7381L4.07059 19.8336L3.82439 19.4485C2.66415 17.6332 2.05078 15.5293 2.05078 13.3643C2.05078 7.12593 7.12593 2.05078 13.3643 2.05078C19.6026 2.05078 24.6777 7.12593 24.6777 13.3643C24.6777 19.6026 19.6026 24.6777 13.3643 24.6777C11.1992 24.6777 9.09554 24.0644 7.28001 22.9041L6.89495 22.6579ZM32.0095 32.0095L29.1123 31.2079L28.7254 31.4597C27.2255 32.4341 25.4828 32.9492 23.6865 32.9492C19.6768 32.9492 16.1534 30.3566 14.905 26.6391C21.0451 25.9312 25.9312 21.0451 26.6393 14.9047C30.3566 16.1534 32.9492 19.6768 32.9492 23.6865C32.9492 25.4828 32.4341 27.2255 31.4597 28.7254L31.2079 29.1123L32.0095 32.0095Z" fill="white"/>
<path d="M12.3398 18.5254H14.3906V20.5762H12.3398V18.5254Z" fill="white"/>
<path d="M15.4141 10.2539C15.4141 10.8363 15.1769 11.3738 14.7465 11.7677L12.3379 13.9723V16.4746H14.3887V14.8754L16.131 13.2807C16.9786 12.505 17.4648 11.4019 17.4648 10.2539C17.4648 7.99217 15.625 6.15234 13.3633 6.15234C11.1015 6.15234 9.26172 7.99217 9.26172 10.2539H11.3125C11.3125 9.12304 12.2324 8.20312 13.3633 8.20312C14.4941 8.20312 15.4141 9.12304 15.4141 10.2539Z" fill="white"/>
</svg>
