<svg width="512" height="512" viewBox="0 0 512 512" fill="none" xmlns="http://www.w3.org/2000/svg">
<path d="M512 255.999C512 397.389 397.387 511.996 255.999 511.996C114.616 511.996 0 397.389 0 255.999C0 114.613 114.616 0 255.999 0C397.387 0 512 114.613 512 255.999Z" fill="#1BA27A"/>
<path d="M376.146 129.09H133.741V187.611H225.683V273.627H284.204V187.611H376.146V129.09Z" fill="white"/>
<path d="M255.5 282.79C179.443 282.79 117.78 270.753 117.78 255.902C117.78 241.054 179.44 229.015 255.5 229.015C331.557 229.015 393.217 241.054 393.217 255.902C393.217 270.753 331.557 282.79 255.5 282.79ZM410.136 260.385C410.136 241.236 340.904 225.715 255.5 225.715C170.099 225.715 100.861 241.236 100.861 260.385C100.861 277.248 154.547 291.296 225.686 294.41V417.886H284.203V294.458C355.89 291.443 410.136 277.335 410.136 260.385Z" fill="white"/>
<g clip-path="url(#clip0_1177_57897)">
<path d="M509.5 387C509.5 454.655 454.655 509.5 387 509.5C319.345 509.5 264.5 454.655 264.5 387C264.5 319.345 319.345 264.5 387 264.5C454.655 264.5 509.5 319.345 509.5 387Z" fill="#627EEA" stroke="white" stroke-width="5"/>
<path d="M390.891 293.25V362.547L449.461 388.719L390.891 293.25Z" fill="white" fill-opacity="0.602"/>
<path d="M390.891 293.25L332.312 388.719L390.891 362.547V293.25Z" fill="white"/>
<path d="M390.891 433.625V480.711L449.5 399.625L390.891 433.625Z" fill="white" fill-opacity="0.602"/>
<path d="M390.891 480.711V433.617L332.312 399.625L390.891 480.711Z" fill="white"/>
<path d="M390.891 422.727L449.461 388.719L390.891 362.562V422.727Z" fill="white" fill-opacity="0.2"/>
<path d="M332.312 388.719L390.891 422.727V362.562L332.312 388.719Z" fill="white" fill-opacity="0.602"/>
</g>
<defs>
<clipPath id="clip0_1177_57897">
<rect width="250" height="250" fill="white" transform="translate(262 262)"/>
</clipPath>
</defs>
</svg>
