<svg width="512" height="513" viewBox="0 0 512 513" fill="none" xmlns="http://www.w3.org/2000/svg">
<path d="M512 255.999C512 397.389 397.387 511.996 255.999 511.996C114.616 511.996 0 397.389 0 255.999C0 114.613 114.616 0 255.999 0C397.387 0 512 114.613 512 255.999Z" fill="#1BA27A"/>
<path d="M376.146 129.09H133.741V187.611H225.683V273.627H284.204V187.611H376.146V129.09Z" fill="white"/>
<path d="M255.5 282.79C179.443 282.79 117.78 270.753 117.78 255.902C117.78 241.054 179.44 229.015 255.5 229.015C331.557 229.015 393.217 241.054 393.217 255.902C393.217 270.753 331.557 282.79 255.5 282.79ZM410.136 260.385C410.136 241.236 340.904 225.715 255.5 225.715C170.099 225.715 100.861 241.236 100.861 260.385C100.861 277.248 154.547 291.296 225.686 294.41V417.886H284.203V294.458C355.89 291.443 410.136 277.335 410.136 260.385Z" fill="white"/>
<path d="M509.5 386.584C509.5 454.573 454.644 509.668 387 509.668C319.356 509.668 264.5 454.573 264.5 386.584C264.5 318.596 319.356 263.5 387 263.5C454.644 263.5 509.5 318.596 509.5 386.584Z" fill="#FF060A" stroke="white" stroke-width="5"/>
<path d="M470.332 363.771C462.52 356.524 451.713 345.457 442.91 337.608L442.389 337.242C441.524 336.543 440.545 335.994 439.5 335.619C418.274 331.643 319.5 313.093 317.573 313.328C317.033 313.404 316.517 313.601 316.063 313.904L315.567 314.296C314.958 314.918 314.496 315.669 314.213 316.494L314.083 316.834V318.692V318.98C325.203 350.088 369.109 451.994 377.755 475.907C378.276 477.53 379.265 480.618 381.115 480.774H381.531C382.521 480.774 386.74 475.175 386.74 475.175C386.74 475.175 462.156 383.289 469.787 373.504C470.774 372.299 471.647 371.002 472.389 369.632C472.582 368.56 472.492 367.457 472.131 366.429C471.77 365.402 471.151 364.487 470.332 363.771ZM406.09 374.472L438.274 347.655L457.156 365.132L406.09 374.472ZM393.59 372.719L338.172 327.09L427.832 343.704L393.59 372.719ZM398.59 384.676L455.307 375.493L390.463 453.984L398.59 384.676ZM330.646 331.643L388.955 381.353L380.515 454.033L330.646 331.643Z" fill="white"/>
</svg>
