<svg xmlns="http://www.w3.org/2000/svg" width="447.891" height="518.891" viewBox="0 0 447.891 518.891"><g transform="translate(-184 -833.109)"><g transform="translate(-421.369 829.055)"><circle cx="152.003" cy="152.003" r="152.003" transform="translate(682.811 152.497)" fill="#d5d7db" opacity="0.204"/><circle cx="218.445" cy="218.445" r="218.445" transform="translate(616.369 86.055)" fill="#d5d7db" opacity="0.152"/></g><g transform="translate(-683.838 854.455)"><path d="M1270.965,277.916a192.672,192.672,0,0,0-10.355-30.634,262.946,262.946,0,0,0-12.8-25.636c-4.092-7.206-8.181-13.767-12.14-19.739-.057-.169-.114-.339-.17-.5-.949-2.786-1.848-5.568-2.734-8.361-4.232-13.358-22.728-60.952-74.968-75.984q-2.225-1.3-4.6-2.563a108.388,108.388,0,0,0-23.365-9.148c-1.087-.321-2.2-.562-3.328-.808s-2.259-.517-3.408-.741c-2.316-.363-4.656-.864-7.073-1.085a108.463,108.463,0,0,0-15-.779,120.784,120.784,0,0,0-32.17,5.355,138.5,138.5,0,0,0-16.429,6.3c-2.712,1.281-5.487,2.524-8.142,4.044l-4.057,2.2c-1.355.746-2.65,1.6-3.988,2.4a214.2,214.2,0,0,0-30.966,23.252,286.922,286.922,0,0,0-22.246,22.243c-31.057,21.883-53.286,43.952-56.979,52.924-1.916,4.653.059,11.769,5.051,20.593-1.5,2.749-2.981,5.522-4.422,8.342a221.65,221.65,0,0,0-9.9,21.969l-1.083,2.914-.994,3.017-.489,1.523-.433,1.6c-.282,1.075-.6,2.095-.8,3.3a26.329,26.329,0,0,0-.57,3.723c-.051.711-.122,1.34-.132,2.123.015.442.037.886.07,1.328s.113.844.178,1.266a21.459,21.459,0,0,0,3.391,8.054,49.763,49.763,0,0,0,9.6,10.243,112.5,112.5,0,0,0,10.474,7.673,233.039,233.039,0,0,0,22.092,12.593,499.534,499.534,0,0,0,46.845,20.432c21,7.988,41.977,14.891,62.774,20.86,47.9,34.665,94.392,59.607,114.927,53.539,25.247-7.461,42.327-21.393,53.526-38.849.366-.249.734-.5,1.092-.785l.663-.515.519-.449a102.681,102.681,0,0,0,26.634-33.083,95,95,0,0,0,9.678-38.357A130.046,130.046,0,0,0,1270.965,277.916Zm-260.934,60.075c-15.719-6.025-31.065-12.465-45.589-19.7a225.79,225.79,0,0,1-20.854-11.66A99.994,99.994,0,0,1,934.33,300a37.267,37.267,0,0,1-7.031-7.182,8.424,8.424,0,0,1-1.383-2.87c-.007-.072-.033-.149-.043-.214a.563.563,0,0,0-.012-.166l.07-.858a14.032,14.032,0,0,1,.314-2.175,25.106,25.106,0,0,1,.573-2.489l.324-1.278.4-1.31.822-2.626.94-2.643a214.43,214.43,0,0,1,8.989-20.811c.295-.6.6-1.2.9-1.8,19.122,26.105,55.748,61.395,95.384,93.3Q1022.309,342.65,1010.031,337.991Zm117.452-225.474c-34.348-.918-71.819,12.683-105.06,30.706a194.307,194.307,0,0,1,18.354-13.818,139.693,139.693,0,0,1,30.312-15.322,115.882,115.882,0,0,1,30.183-6.337,104.638,104.638,0,0,1,14.237.106c2.308.1,4.551.481,6.777.722,1.106.163,2.2.374,3.283.555s2.164.363,3.215.621a106.9,106.9,0,0,1,14.3,4.124A128.71,128.71,0,0,0,1127.482,112.518Zm138.788,200.67a86.743,86.743,0,0,1-9.9,34.4,84.363,84.363,0,0,1-7.935,12.152c14.818-49.054,1.242-110.63-7.9-142.277,1.1,2.057,2.2,4.154,3.292,6.315a266.587,266.587,0,0,1,11.394,25.681,190.585,190.585,0,0,1,8.763,29.987A124.086,124.086,0,0,1,1266.27,313.188Z" transform="translate(2.055 1.624)" fill="#fff" opacity="0.04"/><g transform="translate(857.522 58.654)"><g transform="translate(70.143 -80)"><g transform="translate(114.27 79.216)"><path d="M979.527,128.845c-1.821,1.257-3.686,1.716-4.164,1.023s.612-2.272,2.433-3.529,3.686-1.716,4.163-1.024S981.349,127.586,979.527,128.845Z" transform="translate(-968.846 -102.5)" fill="#404851"/><path d="M975.349,114.175c-1.821,1.257-3.686,1.716-4.163,1.023s.61-2.272,2.432-3.529,3.686-1.716,4.163-1.024S977.17,112.916,975.349,114.175Z" transform="translate(-971.073 -110.322)" fill="#404851"/></g><g transform="translate(55.674 7.56)"><path d="M935.4,64.931c-1.821,1.257-2.911,2.838-2.432,3.529s2.341.235,4.163-1.023,2.91-2.838,2.433-3.531S937.221,63.674,935.4,64.931Z" transform="translate(-932.855 -63.585)" fill="#404851"/><path d="M947.587,73.965c-1.82,1.259-2.909,2.838-2.432,3.531s2.343.233,4.162-1.024,2.911-2.838,2.433-3.531S949.41,72.708,947.587,73.965Z" transform="translate(-926.357 -58.768)" fill="#404851"/></g><g transform="translate(0 2.207)"><path d="M1019.756,186.983l-8.377,5.785L991.59,161.433l-.814-1.294-11.2-17.731-3.666-5.806c-16.92,10.217-33.71,19.51-45.226,24.678l1.133,20.592-9.218,6.364-6.6-23.3-19.461-14.42,9.222-6.369,18.849,8.351c8.911-8.942,23.552-21.346,39.1-33.563L938.859,85.947l-1.527-2.03-2.767-3.67L933.254,78.5l-9.509-12.62,8.376-5.791,11.073,7.9,3.183,2.275,5.176-3.574a3.372,3.372,0,1,1,3.833,5.55l-3.161,2.191,4.126,2.941,9.139,6.524,4.813-3.322a3.376,3.376,0,1,1,3.836,5.556l-2.806,1.938,17.092,12.2c3.7-2.68,7.306-5.231,10.735-7.6,34.777-24.025,42.81-14.735,42.81-14.735s5.84,10.8-28.941,34.825c-3.431,2.367-7.093,4.826-10.907,7.336l1.828,6.925.156.6,3.376,12.787,2.8-1.943a3.376,3.376,0,1,1,3.836,5.556l-4.813,3.322,1.162,4.4,2.994,11.358,3.166-2.186a3.373,3.373,0,0,1,3.833,5.552l-5.168,3.575Z" transform="translate(-896.543 -60.094)" fill="#787e8c"/></g><path d="M982.549,74.794a4.923,4.923,0,0,0-3.974,1.369,10.452,10.452,0,0,1,4.264,1.9,6.639,6.639,0,0,1,2.517,3.647,10.448,10.448,0,0,1,.262,4.658,4.922,4.922,0,0,0,2.689-3.229A6.6,6.6,0,0,0,982.549,74.794Z" transform="translate(-852.804 -50.06)" fill="#282f39"/><path d="M920.779,126.705c-5.173,3.572-9.714,5.961-10.147,5.335s3.413-4.026,8.584-7.6,9.718-5.959,10.148-5.335S925.954,123.135,920.779,126.705Z" transform="translate(-889.048 -26.474)" fill="#c5ced7"/><g transform="translate(111.644 71.705)"><rect width="22.523" height="1.042" transform="matrix(0.568, 0.823, -0.823, 0.568, 0.857, 0)" fill="#c5ced7"/><rect width="22.522" height="1.042" transform="translate(7.25 22.663) rotate(55.376)" fill="#c5ced7"/></g><g transform="translate(52.885 0)"><rect width="22.523" height="1.042" transform="translate(31.722 33.137) rotate(-124.62)" fill="#c5ced7"/><rect width="22.522" height="1.042" transform="matrix(-0.568, -0.823, 0.823, -0.568, 12.796, 19.126)" fill="#c5ced7"/></g><path d="M976.347,106.155l-24.372,15.385-3.666-5.806c5.026-3,26.21-16.5,26.21-16.5Z" transform="translate(-868.941 -37.02)" fill="#c5ced7"/><path d="M942.165,72.39l-17.491,8.569-1.527-2.031,14.892-9.478Z" transform="translate(-882.358 -52.898)" fill="#c5ced7"/><path d="M977.7,121.405,958.82,131.09l-.814-1.293L976.537,117Z" transform="translate(-863.772 -27.544)" fill="#c5ced7"/><g transform="translate(53.343 32.911)"><path d="M931.505,122.916a.96.96,0,0,1,.166-1.274c.993-.856,2.16-1.834,3.462-2.905a.962.962,0,1,1,1.223,1.486c-1.292,1.062-2.447,2.031-3.433,2.879a.963.963,0,0,1-1.355-.1A.661.661,0,0,1,931.505,122.916Zm6.938-5.729a.963.963,0,0,1,.19-1.3c1.121-.9,2.3-1.84,3.523-2.809a.962.962,0,1,1,1.193,1.509c-1.219.964-2.392,1.9-3.511,2.8a.96.96,0,0,1-1.352-.146C938.47,117.225,938.457,117.206,938.443,117.186ZM945.5,111.6a.963.963,0,0,1,.2-1.3q1.741-1.364,3.551-2.769a.962.962,0,0,1,1.349.17.95.95,0,0,1-.17,1.349q-1.8,1.4-3.543,2.764a.962.962,0,0,1-1.351-.164A.347.347,0,0,1,945.5,111.6Zm7.1-5.519a.965.965,0,0,1,.205-1.308q1.778-1.371,3.569-2.747a.962.962,0,1,1,1.171,1.527q-1.785,1.371-3.565,2.744a.963.963,0,0,1-1.349-.175Zm7.137-5.477a.961.961,0,0,1,.207-1.311q1.808-1.38,3.578-2.728a.962.962,0,1,1,1.165,1.53c-1.177.9-2.373,1.808-3.575,2.726a.965.965,0,0,1-1.349-.179Zm7.16-5.447a.962.962,0,0,1,.21-1.312l3.589-2.715a.963.963,0,0,1,1.161,1.536c-1.158.874-2.357,1.782-3.588,2.712a.961.961,0,0,1-1.348-.186Zm7.178-5.423a.963.963,0,0,1,.215-1.315l3.6-2.7a.962.962,0,0,1,1.153,1.539l-3.6,2.7a.961.961,0,0,1-1.346-.19Zm7.2-5.4a.962.962,0,0,1,.216-1.317c2.28-1.7,3.625-2.7,3.625-2.7a.962.962,0,1,1,1.147,1.544s-1.343,1-3.62,2.7a.96.96,0,0,1-1.346-.195Z" transform="translate(-931.335 -80.12)" fill="#c5ced7"/><g transform="translate(7.407 16.729)"><path d="M936.282,127.743a.964.964,0,0,1,.386-1.3c1.142-.622,2.456-1.357,3.908-2.189a.962.962,0,1,1,.955,1.67c-1.463.839-2.79,1.582-3.943,2.209a.959.959,0,0,1-1.25-.3C936.319,127.8,936.3,127.773,936.282,127.743Zm7.835-4.429a.962.962,0,0,1,.34-1.317c1.237-.727,2.531-1.493,3.864-2.291a.962.962,0,1,1,.989,1.65q-2.01,1.2-3.877,2.3a.962.962,0,0,1-1.277-.282C944.142,123.353,944.129,123.333,944.117,123.313Zm7.73-4.6a.961.961,0,0,1,.325-1.32q1.888-1.143,3.841-2.335a.951.951,0,0,1,1.322.32.963.963,0,0,1-.319,1.323c-1.3.793-2.588,1.575-3.848,2.337a.962.962,0,0,1-1.289-.276Zm7.683-4.679a.96.96,0,0,1,.316-1.323c1.272-.783,2.553-1.573,3.83-2.363a.961.961,0,1,1,1.01,1.636c-1.277.791-2.559,1.581-3.833,2.364a.963.963,0,0,1-1.3-.271Zm7.652-4.728a.959.959,0,0,1,.31-1.323c1.285-.8,2.56-1.595,3.815-2.378a.962.962,0,0,1,1.019,1.631c-1.256.785-2.533,1.579-3.819,2.379a.963.963,0,0,1-1.3-.27Zm7.632-4.762a.962.962,0,0,1,.305-1.326c1.306-.819,2.579-1.619,3.807-2.392a.962.962,0,0,1,1.024,1.63c-1.228.773-2.5,1.573-3.81,2.392a.964.964,0,0,1-1.3-.267Zm7.618-4.788a.959.959,0,0,1,.3-1.326l3.8-2.406a.954.954,0,0,1,1.328.3.964.964,0,0,1-.3,1.328l-3.8,2.406a.961.961,0,0,1-1.3-.265Zm7.6-4.816a.961.961,0,0,1,.294-1.328c2.4-1.526,3.81-2.427,3.812-2.427a.962.962,0,0,1,1.036,1.621s-1.412.9-3.815,2.43a.959.959,0,0,1-1.306-.265Z" transform="translate(-936.166 -91.031)" fill="#c5ced7"/></g></g></g><g transform="translate(10.316 32.809)"><path d="M1059.07,387.424c-.055,0-.112,0-.17-.008q-5.115-.506-10.234-1.1a1.71,1.71,0,1,1,.4-3.4q5.087.593,10.174,1.1a1.71,1.71,0,0,1-.165,3.411Zm-20.385-2.395a1.517,1.517,0,0,1-.235-.017c-3.419-.468-6.847-.98-10.19-1.519a1.711,1.711,0,1,1,.544-3.378c3.318.534,6.717,1.043,10.11,1.51a1.71,1.71,0,0,1-.23,3.4Zm-20.26-3.276a1.867,1.867,0,0,1-.317-.029c-3.413-.641-6.811-1.328-10.105-2.042a1.711,1.711,0,0,1,.727-3.344c3.261.708,6.63,1.389,10.009,2.024a1.71,1.71,0,0,1-.313,3.391Zm-20.05-4.365a1.64,1.64,0,0,1-.419-.054c-3.349-.837-6.7-1.734-9.966-2.672a1.709,1.709,0,1,1,.944-3.286c3.226.924,6.541,1.812,9.852,2.642a1.71,1.71,0,0,1-.412,3.37Zm-19.72-5.668a1.692,1.692,0,0,1-.532-.084c-3.3-1.082-6.585-2.231-9.75-3.411a1.709,1.709,0,1,1,1.194-3.2c3.122,1.162,6.358,2.294,9.619,3.362a1.711,1.711,0,0,1-.532,3.336Zm-19.22-7.177a1.723,1.723,0,0,1-.664-.135c-3.191-1.348-6.363-2.777-9.429-4.244a1.712,1.712,0,0,1,1.478-3.088c3.019,1.447,6.14,2.853,9.282,4.181a1.71,1.71,0,0,1-.667,3.286Zm-18.5-8.863a1.73,1.73,0,0,1-.814-.205q-2.813-1.525-5.589-3.137-1.7-.989-3.387-2.022a1.71,1.71,0,0,1,1.786-2.916q1.651,1.012,3.319,1.982,2.73,1.587,5.5,3.083a1.712,1.712,0,0,1-.816,3.215Zm-17.491-10.728a1.687,1.687,0,0,1-.974-.307c-2.833-1.969-5.634-4.043-8.331-6.163a1.71,1.71,0,0,1,2.114-2.689c2.645,2.081,5.392,4.114,8.169,6.044a1.711,1.711,0,0,1-.978,3.115Zm-16.121-12.686a1.7,1.7,0,0,1-1.135-.429c-2.59-2.3-5.125-4.691-7.54-7.114a1.711,1.711,0,0,1,2.424-2.415c2.366,2.375,4.851,4.719,7.385,6.97a1.708,1.708,0,0,1-1.135,2.988ZM892.85,317.731a1.71,1.71,0,0,1-1.286-.581c-2.292-2.611-4.508-5.306-6.583-8.009a1.711,1.711,0,0,1,2.712-2.085c2.031,2.645,4.2,5.282,6.442,7.838a1.709,1.709,0,0,1-1.285,2.838Zm-12.479-16.267a1.71,1.71,0,0,1-1.426-.764c-1.92-2.889-3.746-5.864-5.427-8.85a1.711,1.711,0,1,1,2.98-1.68c1.641,2.913,3.424,5.817,5.3,8.636a1.71,1.71,0,0,1-1.423,2.657ZM870.313,283.6a1.711,1.711,0,0,1-1.55-.987c-1.472-3.151-2.823-6.375-4.017-9.585a1.71,1.71,0,0,1,3.206-1.193c1.162,3.125,2.478,6.263,3.911,9.332a1.711,1.711,0,0,1-1.55,2.433Zm-7.132-19.212a1.714,1.714,0,0,1-1.648-1.253c-.931-3.345-1.722-6.758-2.349-10.14a1.71,1.71,0,1,1,3.364-.622c.609,3.284,1.375,6.6,2.281,9.845a1.717,1.717,0,0,1-1.648,2.171Zm-3.713-20.155a1.711,1.711,0,0,1-1.7-1.572c-.161-1.981-.242-3.994-.242-5.987,0-1.495.046-3.011.137-4.5a1.686,1.686,0,0,1,1.809-1.605,1.71,1.71,0,0,1,1.6,1.809c-.086,1.426-.129,2.875-.129,4.3,0,1.9.078,3.822.231,5.711a1.711,1.711,0,0,1-1.567,1.843C859.56,244.234,859.514,244.235,859.468,244.235Zm1.191-20.413a1.708,1.708,0,0,1-1.682-2.035,88.665,88.665,0,0,1,2.608-10.127,1.71,1.71,0,0,1,3.256,1.044,84.8,84.8,0,0,0-2.505,9.734A1.711,1.711,0,0,1,860.659,223.822Zm6.2-19.517a1.714,1.714,0,0,1-1.564-2.4c1.36-3.089,2.919-6.228,4.633-9.325a1.71,1.71,0,1,1,2.993,1.656c-1.665,3.007-3.177,6.051-4.5,9.047A1.708,1.708,0,0,1,866.864,204.305Zm9.888-17.958a1.711,1.711,0,0,1-1.426-2.654c1.861-2.816,3.888-5.662,6.026-8.46a1.71,1.71,0,0,1,2.718,2.076c-2.09,2.737-4.071,5.518-5.889,8.27A1.713,1.713,0,0,1,876.751,186.347Zm12.439-16.328a1.711,1.711,0,0,1-1.292-2.829c2.214-2.56,4.564-5.133,6.984-7.648a1.71,1.71,0,1,1,2.464,2.372c-2.378,2.47-4.685,5-6.859,7.513A1.709,1.709,0,0,1,889.19,170.018Zm14.222-14.8a1.709,1.709,0,0,1-1.173-2.954c2.474-2.332,5.061-4.658,7.681-6.913a1.711,1.711,0,0,1,2.232,2.594c-2.585,2.222-5.132,4.512-7.568,6.809A1.7,1.7,0,0,1,903.412,155.223Zm15.55-13.385a1.71,1.71,0,0,1-1.059-3.053c2.685-2.117,5.46-4.213,8.25-6.229a1.711,1.711,0,0,1,2.006,2.772c-2.752,1.99-5.492,4.057-8.138,6.142A1.7,1.7,0,0,1,918.962,141.839Z" transform="translate(-857.522 -132.233)" fill="#d5d7db"/></g><g transform="translate(26.378 27.15)"><path d="M1275.822,421.243s-81.589,18.836-182.232,18.836-182.232-18.836-182.232-18.836,81.587-18.835,182.232-18.835S1275.822,421.243,1275.822,421.243Z" transform="translate(-881.88 -72.902)" fill="#231f20" opacity="0.16"/><g transform="translate(213.083 38.356)"><g transform="translate(0 94.714)"><rect width="157.796" height="212.064" rx="14.743" transform="translate(5.445 0)" fill="#d8761d"/><path d="M1125.421,288.1c35.915-27.852,81.813-41,125.943-36.318V228.374a15.3,15.3,0,0,0-15.3-15.3h-127.2a15.3,15.3,0,0,0-15.3,15.3V330.031C1099.752,313.144,1111.124,299.016,1125.421,288.1Z" transform="translate(-1088.124 -213.078)" fill="#e88636"/><g transform="translate(22.101 212.064)"><rect width="23.572" height="5.197" fill="#282f39"/><rect width="23.572" height="5.197" transform="translate(100.912)" fill="#282f39"/></g><g transform="translate(22.101 81.523)"><path d="M12.85,0h98.785a12.85,12.85,0,0,1,12.85,12.85V130.541a0,0,0,0,1,0,0H0a0,0,0,0,1,0,0V12.85A12.85,12.85,0,0,1,12.85,0Z" fill="#8e3d00"/><path d="M11.876,0H107.7a11.876,11.876,0,0,1,11.876,11.876v116.19a0,0,0,0,1,0,0H0a0,0,0,0,1,0,0V11.876A11.876,11.876,0,0,1,11.876,0Z" transform="translate(2.455 2.474)" fill="#af550b"/><g transform="translate(14.128 20.875)"><path d="M1218.509,313.691H1124.2a.959.959,0,0,1-.959-.96h0a.959.959,0,0,1,.959-.96h94.312a.96.96,0,0,1,.96.96h0A.96.96,0,0,1,1218.509,313.691Z" transform="translate(-1123.239 -311.772)" fill="#d3d3d3"/><g transform="translate(1.988 0.409)"><path d="M1127.687,312.7h-2.18l-.347,3.954a1.442,1.442,0,1,0,2.874,0Zm-.323,1.982h-1.534v-1.413h1.534Z" transform="translate(-1125.155 -312.146)" fill="#e5e5e5"/><path d="M1126.557,314.133h0a.332.332,0,0,1-.333-.333v-1.3a.332.332,0,0,1,.333-.333h0a.332.332,0,0,1,.332.333v1.3A.332.332,0,0,1,1126.557,314.133Z" transform="translate(-1125.115 -312.166)" fill="#bcb7b3"/></g></g></g><g transform="translate(22.101 21.396)"><path d="M5.769,0H118.716a5.769,5.769,0,0,1,5.769,5.769V25.861a5.768,5.768,0,0,1-5.768,5.768H5.769A5.769,5.769,0,0,1,0,25.86V5.769A5.769,5.769,0,0,1,5.769,0Z" fill="#8e3d00"/><path d="M3.6,0H115.974a3.6,3.6,0,0,1,3.6,3.6V23.3a3.6,3.6,0,0,1-3.6,3.6H3.6A3.6,3.6,0,0,1,0,23.3V3.6A3.6,3.6,0,0,1,3.6,0Z" transform="translate(2.455 2.366)" fill="#af550b"/><g transform="translate(14.128 12.574)"><path d="M1218.509,247.738H1124.2a.959.959,0,0,1-.959-.96h0a.96.96,0,0,1,.959-.96h94.312a.961.961,0,0,1,.96.96h0A.96.96,0,0,1,1218.509,247.738Z" transform="translate(-1123.239 -245.819)" fill="#d3d3d3"/><g transform="translate(1.988 0.409)"><path d="M1127.687,246.744h-2.18l-.347,3.954a1.443,1.443,0,1,0,2.874,0Zm-.323,1.982h-1.534v-1.413h1.534Z" transform="translate(-1125.155 -246.193)" fill="#e5e5e5"/><path d="M1126.557,248.18h0a.332.332,0,0,1-.333-.333v-1.3a.332.332,0,0,1,.333-.332h0a.332.332,0,0,1,.332.332v1.3A.332.332,0,0,1,1126.557,248.18Z" transform="translate(-1125.115 -246.213)" fill="#bcb7b3"/></g></g></g><g transform="translate(0 29.613)"><rect width="5.445" height="11.136" transform="translate(0 141.701)" fill="#282f39"/><rect width="5.445" height="11.136" fill="#282f39"/><g transform="translate(163.241 58.038)"><path d="M1245.656,297.558v6.584h0c1.436,0,2.6,2.45,2.6,5.47v12.654c0,3.021-1.163,5.47-2.6,5.47h0v6.584h0c3.162,0,5.727-5.4,5.727-12.054V309.612c0-6.657-2.565-12.054-5.727-12.054Z" transform="translate(-1245.656 -297.558)" fill="#282f39"/></g></g></g><g transform="translate(41.164)"><path d="M1214.749,141.69a19.9,19.9,0,0,0-19.9-19.9H1147.9a19.9,19.9,0,0,0-19.9,19.9v9.854h11.61v-6.5a11.424,11.424,0,0,1,11.423-11.424h40.688a11.424,11.424,0,0,1,11.423,11.424v6.5h11.61Z" transform="translate(-1127.995 -121.79)" fill="#282f39"/><g transform="translate(2.358 29.754)"><g transform="translate(74.917)"><rect width="7.121" height="64.96" fill="#d3d3d3"/></g><rect width="7.121" height="64.96" fill="#d3d3d3"/></g><g transform="translate(2.358 29.754)"><rect width="7.121" height="8.396" transform="translate(74.917)" fill="#bcb7b3"/><rect width="7.121" height="8.396" fill="#bcb7b3"/></g></g></g><g transform="translate(50.671 120.503)"><path d="M1007.084,200.966l-22.717,20.057L954.5,218.71l-22.718,20.057,27.1,84.725,23.841-16.544,28.741-1.2L1035.31,289.2l28.748-1.2-27.1-84.724Z" transform="translate(-931.784 -200.966)" fill="#d82c28"/><g transform="translate(3.558 3.069)"><path d="M954,222.013l25.794,80.632-19.717,13.68L935.213,238.6Z" transform="translate(-935.213 -203.245)" fill="#fff"/><path d="M984.911,224.459l24.6,76.917-30.4,1.269-25.794-80.632Z" transform="translate(-934.534 -203.245)" fill="#c0c9c8"/><path d="M1007.8,203.924l25.793,80.632-25.218,17.5-24.6-76.917Z" transform="translate(-933.391 -203.924)" fill="#fff"/><path d="M1031.63,205.831l24.864,77.729-23.774.995-25.793-80.632Z" transform="translate(-932.522 -203.924)" fill="#c0c9c8"/></g><g transform="translate(11.848 9.994)"><path d="M943.2,252.92l5.449-9.674,8.716.977,4.807-2.928-.914-2.854-3.679-2.745,1.9-5.452,17.134-2.482,4.109,4.524-1.594,2.463-5.615-2.23-5.558,4.076-2.194,3.214,1.1,1.691,5.64,3.183.847-5.234,5.414-.59,1.268,1.772-.7,3.948,4.127,1.082,2.979,4.494-2.991,3.346-4.244.745-3.434,9.408-6.224,2.65-.058,4.419,3.647,2.207,2.027-3.3,15.034.15,4.419,5.932-5.152,7.1,2.494,8.231,3.759,2.994L994,296.127l-12.257-3.287-3.58-10.752-5.9-.484-1.548-4.839-5.2-4.432-1.861-8.444-7.37-2.462-1.318-10.69-3.521-2.249-5.289,5.359Z" transform="translate(-943.203 -209.955)" fill="#59a6ec"/><path d="M991.56,257.313l-3.065,4.866,4.194,9.171L998.6,273.2l8.538-4.393,6.591,10.973,5.817,5.048,3.16-1.066-1.273-17.992-6.73-7.9,2.033-3.71-4.419-2.87,4.8-9.08,7.756,1.919,3.372,1.787,1.5,4.681,4.792,1.407.131-2.656-3.748-1.21.176-9.957-7.186-5.823,4.813-6.848-4.719-5.556,1.305-5.114-3.737-4.238-15.292,2.549-6.738,9.147-11.287,5.871-2.87,10.729,5.675,5.921,5.1,3.23,4.126-3.73,1.309,4.095-.679,5.746-5.13-1.587Z" transform="translate(-941.62 -210.599)" fill="#59a6ec"/><path d="M1030.47,262.635l-4.959,3.322-1.188,5.488,3.641,2.621,3.743-3.187,3.59.714,2.091-2.219,3.34,3,1.665-1.8-4.78-4.435s3-3.761,2.753-4.091-4.249-3.652-4.249-3.652l-3.54,1.2.353,3.729Z" transform="translate(-940.159 -208.805)" fill="#59a6ec"/><g transform="translate(14.667 0.028)" opacity="0.5"><path d="M969.012,266.3l-.058,4.416,3.648,2.209,2.02-3.3,15.041.154,4.419,5.932-5.157,7.1,2.5,8.229,3.755,2.99-1.708,2.093-12.262-3.286-3.575-10.753-5.324-.439-12.544-39.21,1.879-1.145-.915-2.859-2.944-2.19-.445-1.392,1.609-4.61,17.13-2.481,4.11,4.519-1.6,2.469-5.612-2.23-5.564,4.072-2.191,3.213,1.1,1.69,5.642,3.186.846-5.234,5.409-.588,1.274,1.773-.7,3.949,4.127,1.082,2.982,4.488-3,3.353-4.242.739-3.436,9.408Z" transform="translate(-957.34 -209.982)" fill="#59a6ec"/><g transform="translate(54.259)"><path d="M1027.824,225.535l-4.809,6.852,7.183,5.824-.176,9.957,3.749,1.21-.136,2.652-4.784-1.4-1.5-4.683-3.379-1.788-4.563-1.132-9.774-30.552,11.04-1.845,3.736,4.241-1.305,5.117Z" transform="translate(-1009.636 -210.626)" fill="#59a6ec"/><path d="M1037.545,266.164l4.779,4.434-1.667,1.8-3.338-3-2.095,2.224-3.591-.718-2.641,2.253-2.518-7.869,3.924-2.628,2.464.687-.354-3.733,3.535-1.192s4,3.325,4.252,3.653S1037.545,266.164,1037.545,266.164Z" transform="translate(-1009.004 -208.832)" fill="#59a6ec"/></g></g></g><g transform="translate(19.855 39.906)"><path d="M952.87,239.779a3.389,3.389,0,0,0-1.634,4.472c.784,1.65,5.994,4.695,5.994,4.695s.9-6.019.115-7.667A3.317,3.317,0,0,0,952.87,239.779Zm2.5,5.251a2.452,2.452,0,0,1-3.31-1.109,2.508,2.508,0,0,1,1.209-3.309,2.454,2.454,0,0,1,3.311,1.109A2.508,2.508,0,0,1,955.367,245.03Z" transform="translate(-950.921 -239.428)" fill="#d82c28"/></g><g transform="translate(73.248 33.882)"><path d="M1004.332,233.973a3.389,3.389,0,0,0-1.634,4.472c.784,1.649,5.994,4.695,5.994,4.695s.9-6.02.114-7.668A3.315,3.315,0,0,0,1004.332,233.973Zm2.5,5.251a2.452,2.452,0,0,1-3.31-1.109,2.507,2.507,0,0,1,1.21-3.309,2.452,2.452,0,0,1,3.31,1.109A2.508,2.508,0,0,1,1006.829,239.224Z" transform="translate(-1002.383 -233.622)" fill="#d82c28"/></g><g transform="translate(46.677 72.305)"><path d="M978.722,271.007a3.39,3.39,0,0,0-1.635,4.471c.784,1.65,5.994,4.7,5.994,4.7s.9-6.02.115-7.668A3.314,3.314,0,0,0,978.722,271.007Zm2.5,5.25a2.453,2.453,0,0,1-3.311-1.108,2.508,2.508,0,0,1,1.209-3.309,2.453,2.453,0,0,1,3.311,1.108A2.507,2.507,0,0,1,981.219,276.257Z" transform="translate(-976.772 -270.656)" fill="#d82c28"/></g></g><g transform="translate(156.794 182.242)"><rect width="27.154" height="62.059" transform="translate(0 25.559) rotate(-70.262)" fill="#fff8e1"/><g transform="translate(19.575 21.677)"><rect width="38.452" height="1.265" transform="translate(0.427 5.604) rotate(19.737)" fill="#c5ced7"/><rect width="38.452" height="1.265" transform="translate(1.432 2.802) rotate(19.738)" fill="#c5ced7"/><rect width="38.453" height="1.265" transform="translate(2.438) rotate(19.738)" fill="#c5ced7"/></g><rect width="27.154" height="17.011" transform="matrix(0.338, -0.941, 0.941, 0.338, 0, 25.558)" fill="#689f38"/><text transform="translate(3.748 23.923) rotate(19.738)" fill="#fff8e1" font-size="2" font-family="Montserrat-Bold, Montserrat" font-weight="700" letter-spacing="0.05em"><tspan x="0" y="0">TICKETS</tspan></text><text transform="translate(4.885 20.75) rotate(19.738)" fill="#fff8e1" font-size="1" font-family="Montserrat-Bold, Montserrat" font-weight="700" letter-spacing="0.05em"><tspan x="0" y="0">AIRPLANE</tspan></text><g transform="translate(8.499 8.001)"><path d="M1050.929,277.111l.7-.723-.564-1.151.321-.33a.247.247,0,1,0-.355-.343l-.2.2-.525-1.072.3-.308a.247.247,0,1,0-.355-.343l-.174.179-.676-1.381c.238-.234.465-.465.678-.684,2.151-2.223,1.577-2.914,1.577-2.914s-.71-.552-2.861,1.671c-.212.22-.434.455-.661.7l-1.4-.63.173-.18a.248.248,0,0,0-.006-.35.245.245,0,0,0-.349.006l-.3.307-1.089-.489.2-.2a.247.247,0,0,0-.355-.343l-.32.33-1.17-.525-.7.721,3.812,3.049a34.39,34.39,0,0,0-2.324,2.97l-1.473-.329-.571.589,1.6.756.807,1.577.571-.589-.377-1.461a35.2,35.2,0,0,0,2.892-2.422Z" transform="translate(-1042.259 -268.182)" fill="#f5c242"/></g><rect width="10.928" height="10.928" transform="matrix(0.941, 0.338, -0.338, 0.941, 26.318, 9.677)" fill="#c5ced7"/><g transform="translate(49.667 18.778)"><rect width="0.658" height="11.521" transform="matrix(0.337, -0.942, 0.942, 0.337, 1.776, 0.62)" fill="#404851"/><rect width="0.658" height="11.521" transform="translate(1.334 1.854) rotate(-70.279)" fill="#404851"/><rect width="0.658" height="11.521" transform="translate(0.889 3.092) rotate(-70.279)" fill="#404851"/><rect width="0.658" height="11.521" transform="translate(0.447 4.323) rotate(-70.199)" fill="#404851"/><rect width="0.658" height="11.521" transform="matrix(0.337, -0.941, 0.941, 0.337, 0, 5.57)" fill="#404851"/></g></g><g transform="translate(195.056 163.659)"><path d="M0,0H30.866a2.8,2.8,0,0,1,2.8,2.8V45.25a2.8,2.8,0,0,1-2.8,2.8H0a0,0,0,0,1,0,0V0A0,0,0,0,1,0,0Z" transform="translate(0.912 3.501) rotate(-5.969)" fill="#083060"/><path d="M1106.534,290.738l-30.593,3.2-5-47.793,30.593-3.2a2.908,2.908,0,0,1,3.193,2.59l4.392,42.009A2.909,2.909,0,0,1,1106.534,290.738Z" transform="translate(-1070.946 -242.547)" fill="#003c94"/><g transform="translate(3.253 2.494)"><path d="M1074.081,247.8l27-2.823a1.78,1.78,0,0,1,1.953,1.585l4.206,40.239Z" transform="translate(-1074.081 -244.965)" fill="#054da3"/><g transform="translate(4.303 7.929)"><path d="M1095.949,255.02c-.217-.18-.437-.35-.664-.512a10.178,10.178,0,0,0-6.834-1.861c-.055,0-.113.007-.168.013s-.112.011-.166.021a10.19,10.19,0,0,0-6.306,3.237q-.283.307-.538.636a10.228,10.228,0,0,0,1.475,14.119c.213.18.432.351.659.512a10.188,10.188,0,0,0,6.84,1.861c.055,0,.112-.007.166-.012s.113-.012.166-.022a10.175,10.175,0,0,0,6.3-3.236c.189-.2.368-.416.543-.636a10.229,10.229,0,0,0-1.475-14.12Zm2.7,6.434h0l-4.145.434h0a17.869,17.869,0,0,0-1.226-4.773,10.442,10.442,0,0,0,2.079-1.5A9.356,9.356,0,0,1,1098.648,261.454Zm-13.507-3.186a11.561,11.561,0,0,0,3.332.241l.415,3.967-3.956.414v0A17.38,17.38,0,0,1,1085.141,258.268Zm3.649-4.773h0c1.227.128,2.445,1.361,3.374,3.245a10.808,10.808,0,0,1-2.946.85h0Zm-.832.087.429,4.1a10.868,10.868,0,0,1-3.066-.226C1085.849,255.421,1086.784,253.962,1087.958,253.582Zm1.017,9.726.415,3.965a11.455,11.455,0,0,0-3.21.928,17.408,17.408,0,0,1-1.161-4.48Zm.5,4.8.427,4.1c-1.229-.129-2.449-1.363-3.38-3.24A10.814,10.814,0,0,1,1089.477,268.1Zm1.261,4.008h0l-.429-4.1h0a10.7,10.7,0,0,1,3.059.223C1092.848,270.27,1091.912,271.734,1090.738,272.113Zm-.515-4.926h0l-.415-3.965,3.956-.414a17.455,17.455,0,0,1-.211,4.619A11.53,11.53,0,0,0,1090.223,267.186Zm-.5-4.8-.414-3.968h0a11.533,11.533,0,0,0,3.2-.923,17.43,17.43,0,0,1,1.165,4.476h0Zm4.961-7.279a9.763,9.763,0,0,1-1.753,1.242,8.363,8.363,0,0,0-2.082-2.791A9.311,9.311,0,0,1,1094.68,255.111Zm-8.725-1.034a8.448,8.448,0,0,0-1.457,3.154,9.552,9.552,0,0,1-1.968-.85A9.291,9.291,0,0,1,1085.956,254.076Zm-3.98,2.942a10.62,10.62,0,0,0,2.341,1.033,18.013,18.013,0,0,0-.213,4.923h0l-4.141.433h0A9.34,9.34,0,0,1,1081.976,257.019Zm-1.926,7.222,4.141-.433a17.993,17.993,0,0,0,1.226,4.772,10.553,10.553,0,0,0-2.076,1.494A9.332,9.332,0,0,1,1080.05,264.241Zm3.967,6.347a9.364,9.364,0,0,1,1.749-1.242,8.41,8.41,0,0,0,2.081,2.787A9.309,9.309,0,0,1,1084.017,270.587Zm8.716,1.034a8.382,8.382,0,0,0,1.461-3.162,9.74,9.74,0,0,1,1.972.858A9.3,9.3,0,0,1,1092.733,271.622Zm3.987-2.947a10.456,10.456,0,0,0-2.344-1.033,17.833,17.833,0,0,0,.214-4.921l4.145-.434A9.351,9.351,0,0,1,1096.72,268.675Z" transform="translate(-1078.195 -252.607)" fill="#f5c242"/><text transform="translate(0.416 30.167) rotate(-5.968)" fill="#f5c242" font-size="4" font-family="Montserrat-Bold, Montserrat" font-weight="700" letter-spacing="0.05em"><tspan x="0" y="0">PASSPORT</tspan></text></g></g></g><g transform="translate(51.541 196.201)"><path d="M1045.58,288.074l.1,1.848h-49.6l-.107-3.874Z" transform="translate(-930.244 -273.47)" fill="#12171e"/><g transform="translate(0 16.452)"><path d="M5.71,0H175a5.711,5.711,0,0,1,5.711,5.711V128.238A5.711,5.711,0,0,1,175,133.949H5.71A5.71,5.71,0,0,1,0,128.239V5.71A5.71,5.71,0,0,1,5.71,0Z" transform="translate(0)" fill="#f5c242"/><path d="M1100.228,340.081c-16.469,17.437-35.359,31.968-59.094,37.782a48.734,48.734,0,0,1-12.11,1.937c-22.766,0-46.5.485-67.328-7.75-10.541-4.08-21.792-11.745-29.075-22.149v66.574a5.925,5.925,0,0,0,5.925,5.924H1107.4a5.924,5.924,0,0,0,5.925-5.924v-91.2C1109.285,330.539,1104.452,335.413,1100.228,340.081Z" transform="translate(-932.622 -288.45)" fill="#f5c242" opacity="0.5"/><g transform="translate(0 0)"><path d="M1087.665,289.782a19.84,19.84,0,0,0,19.844,19.844v-13.92a5.925,5.925,0,0,0-5.925-5.924Z" transform="translate(-926.803 -289.782)" fill="#915620"/><path d="M932.622,295.706v13.92a19.849,19.849,0,0,0,19.844-19.844H938.547A5.925,5.925,0,0,0,932.622,295.706Z" transform="translate(-932.622 -289.782)" fill="#915620"/><g transform="translate(0 114.105)"><path d="M1087.665,419.6h13.918a5.924,5.924,0,0,0,5.925-5.924v-13.92A19.85,19.85,0,0,0,1087.665,419.6Z" transform="translate(-926.803 -399.759)" fill="#915620"/><path d="M932.622,399.759v13.92a5.925,5.925,0,0,0,5.925,5.924h13.918A19.859,19.859,0,0,0,932.622,399.759Z" transform="translate(-932.622 -399.759)" fill="#915620"/></g></g><g transform="translate(4.748 5.054)"><circle cx="2.434" cy="2.434" r="2.434" fill="#683a15" opacity="0.5"/><circle cx="2.434" cy="2.434" r="2.434" transform="translate(0 118.973)" fill="#683a15" opacity="0.5"/><g transform="translate(166.343)" opacity="0.5"><circle cx="2.434" cy="2.434" r="2.434" fill="#683a15"/><circle cx="2.434" cy="2.434" r="2.434" transform="translate(0 118.973)" fill="#683a15"/></g></g></g><g transform="translate(65.268)"><path d="M995.529,290.377h8.986a7.464,7.464,0,0,1,7.465-7.465h17.269a7.465,7.465,0,0,1,7.465,7.465h8.986a16.452,16.452,0,0,0-16.451-16.452H1011.98a16.451,16.451,0,0,0-16.451,16.452Z" transform="translate(-995.529 -273.925)" fill="#683a15"/></g><g transform="translate(19.844 150.401)"><rect width="17.081" height="3.729" fill="#282f39"/><rect width="17.08" height="3.729" transform="translate(123.939)" fill="#282f39"/></g><g transform="translate(13.164 16.452)"><g transform="translate(46.675 97.863)"><path d="M1.234,0h12a1.234,1.234,0,0,1,1.234,1.234v12a1.234,1.234,0,0,1-1.234,1.234h-12A1.233,1.233,0,0,1,0,13.235v-12A1.234,1.234,0,0,1,1.234,0Z" transform="matrix(-0.978, -0.21, 0.21, -0.978, 14.145, 17.185)" fill="#d82c28"/><path d="M994.562,390.168l3.071.66.661-3.071,2.851.612-.66,3.072,3.071.66-.613,2.852-3.071-.661-.661,3.072-2.851-.613.66-3.071-3.071-.661Z" transform="translate(-990.16 -383.967)" fill="#fff8e1"/></g><g transform="translate(88.264 84.48)"><path d="M1030.938,382.825a15.755,15.755,0,1,0,19.341-11.062A15.756,15.756,0,0,0,1030.938,382.825Z" transform="translate(-1030.381 -371.206)" fill="#fff8e1"/><path d="M1034.6,383.407l1.581-.149.194-4.565,3.064,1.8,1.346-1.808,2.359,4.365.867-7.407,1.833,1.831,3.722-3.651,1.332,5.04,2.512-.637-3.041,6.811,4.259-2.546.233,2.24,3.551.021-2.167,4.024,1.282.936-7.115,3.461.013,2.286-5.228-2.1-.756-.207-1.331,6.96-1.431-.393,2.278-6.7-.62-.171-5.568-.865,1.18-1.958Z" transform="translate(-1030.222 -371.108)" fill="#d82c28"/></g><g transform="translate(128.684 69.304)"><path d="M1080.555,369.89c5.04-4.061,5.1-8.511,5.1-8.511l.771-.121.772,7.395c.56,8.394-3.322,11.759-4.837,12.745Z" transform="translate(-1068.918 -356.403)" fill="#282f39"/><path d="M1091.1,388.938l-7.277,1.145-1.33-8.452c1.622-1.054,5.5-4.489,4.932-13l-.76-7.287,1.827-.063.125-.005.725-.026h.02l4.62-.163s1-.941,1.747-.849c0,0,.421.025.468.331l1.224-.192s.46-.072.061.383-1.322,1.069-3.57,1.46a7.749,7.749,0,0,1-1.033,1.647l-.005.006c-.062.079-.131.162-.2.241a.357.357,0,0,1-.036.045,7.838,7.838,0,0,1-5.011,2.7Z" transform="translate(-1068.846 -356.442)" fill="#282f39"/><path d="M1069.586,365.359c.514.308,1.563.607,3.779.3a.625.625,0,0,0,.071-.009,8.216,8.216,0,0,0,7.4,2.483l.222,1.407a16.344,16.344,0,0,0,1.422-1.356,11.266,11.266,0,0,0,3.271-6.656l-.28.009-.472-3-.061-.344a1.919,1.919,0,0,0-1.4-1.548,1.907,1.907,0,0,0-2.378,2.143l.047.347.473,3-8.664,2.46s-1.242-.588-1.923-.271c0,0-.4.154-.349.46l-1.222.193S1069.067,365.047,1069.586,365.359Z" transform="translate(-1069.339 -356.579)" fill="#282f39"/></g><g transform="translate(33.365 19.457)"><path d="M977.806,315.587a9.561,9.561,0,1,0,11.738-6.714A9.561,9.561,0,0,0,977.806,315.587Z" transform="translate(-977.468 -308.535)" fill="#fff8e1"/><path d="M982.337,316.692a4.682,4.682,0,1,0,5.748-3.288A4.683,4.683,0,0,0,982.337,316.692Z" transform="translate(-977.291 -308.359)" fill="#d82c28"/></g><g transform="translate(127.548 17.41)"><rect width="17.391" height="17.391" transform="translate(7.559) rotate(25.762)" fill="#fff8e1"/><rect width="5.907" height="17.391" transform="translate(7.558 0) rotate(25.761)" fill="#d82c28"/><rect width="5.845" height="17.391" transform="translate(17.946 5.038) rotate(25.756)" fill="#689f38"/></g><g transform="translate(5.706 81.383)"><path d="M962.409,376.145c1.384,1.02,2.573,1.958,3.452,2.721l2.035-1,2.7,1.7-2.97,2.4-.887,3.714-2.7-1.7.029-2.269c-1.068-.464-2.426-1.132-3.943-1.943l-3.507,6.927-2.814-1.775.434-1.974-.039-.025a1.388,1.388,0,0,1-.3-.259,1.358,1.358,0,0,1,.728-2.213,1.146,1.146,0,0,1,.167-.028l.027-.121a1.359,1.359,0,0,1,.428-2.471c.039-.008.079-.016.118-.021l.148-.672c-.246-.15-.486-.3-.715-.443a13.906,13.906,0,0,1-3.042-2.442c-1.261-1.456-.944-2.42-.817-2.68l.047-.1.064-.082c.427-.537,1.9-1.491,6.284,1.277.23.144.467.3.709.453l.542-.421a1.36,1.36,0,0,1,2.015-1.569l.1-.075a1.359,1.359,0,0,1,2-1.613l.039.025,1.595-1.243L967.15,370Z" transform="translate(-950.81 -368.221)" fill="#fff8e1"/><path d="M965.7,370.206l-1.339-.845-1.6,1.242-.613-.388a.39.39,0,0,0-.416.66l.377.238-1.486,1.155-.571-.361a.39.39,0,1,0-.415.66l.332.21-1.913,1.49c-.439-.292-.866-.569-1.273-.825-4.127-2.6-5.008-1.494-5.008-1.494s-.623,1.273,3.5,3.877c.407.256.841.522,1.293.794l-.52,2.368-.334-.211a.39.39,0,0,0-.415.66l.572.36-.4,1.837-.376-.237a.389.389,0,1,0-.416.658l.613.387-.434,1.975,1.339.845,3.476-6.865a54.721,54.721,0,0,0,5.335,2.628l-.032,2.381,1.094.69.648-2.719,2.176-1.757-1.095-.69-2.134,1.053A55.139,55.139,0,0,0,961,376.3Z" transform="translate(-950.775 -368.178)" fill="#054da1"/></g><g transform="translate(21.163)"><g transform="translate(2.598)"><rect width="14.341" height="133.949" fill="#683a15"/></g><g transform="translate(0 0)"><path d="M985.244,289.782H965.707v7.326a9.767,9.767,0,0,0,9.768,9.768h0a9.767,9.767,0,0,0,9.768-9.768Z" transform="translate(-965.707 -289.782)" fill="#915620"/><circle cx="2.434" cy="2.434" r="2.434" transform="translate(7.335 6.114)" fill="#d3d3d3"/></g><g transform="translate(0 36.297)"><path d="M965.707,419.5h19.537v-7.327a9.769,9.769,0,0,0-9.768-9.768h0a9.769,9.769,0,0,0-9.768,9.768Z" transform="translate(-965.707 -321.852)" fill="#915620"/><path d="M977.644,410.734a2.434,2.434,0,1,0-2.434,2.434A2.434,2.434,0,0,0,977.644,410.734Z" transform="translate(-965.442 -321.631)" fill="#d3d3d3"/><g transform="translate(6.979)"><circle cx="2.434" cy="2.434" r="2.434" transform="translate(0.356 56.486)" fill="#d3d3d3"/><circle cx="2.434" cy="2.434" r="2.434" transform="matrix(0.987, -0.159, 0.159, 0.987, 0, 28.661)" fill="#d3d3d3"/><circle cx="2.434" cy="2.434" r="2.434" transform="translate(0.356)" fill="#d3d3d3"/></g></g><g transform="translate(92.517)"><g transform="translate(2.597)"><rect width="14.342" height="133.949" fill="#683a15"/></g><g transform="translate(0 0)"><path d="M1074.413,289.782h-19.536v7.326a9.767,9.767,0,0,0,9.767,9.768h0a9.767,9.767,0,0,0,9.768-9.768Z" transform="translate(-1054.877 -289.782)" fill="#915620"/><circle cx="2.434" cy="2.434" r="2.434" transform="translate(7.334 6.114)" fill="#d3d3d3"/></g><g transform="translate(0 36.297)"><path d="M1054.877,419.5h19.536v-7.327a9.769,9.769,0,0,0-9.768-9.768h0a9.769,9.769,0,0,0-9.767,9.768Z" transform="translate(-1054.877 -321.852)" fill="#915620"/><path d="M1066.813,410.734a2.434,2.434,0,1,0-2.434,2.434A2.433,2.433,0,0,0,1066.813,410.734Z" transform="translate(-1054.612 -321.631)" fill="#d3d3d3"/><g transform="translate(7.119)"><circle cx="2.434" cy="2.434" r="2.434" transform="translate(0.214 56.486)" fill="#d3d3d3"/><circle cx="2.434" cy="2.434" r="2.434" transform="translate(0 28.479) rotate(-5.302)" fill="#d3d3d3"/><circle cx="2.434" cy="2.434" r="2.434" transform="translate(0.214)" fill="#d3d3d3"/></g></g></g></g><path d="M950.748,323.508l3.135,3.654,4.788-.511-2.507,4.111,1.965,4.4-4.684-1.115-3.573,3.228-.389-4.8-4.173-2.4,4.445-1.853Z" transform="translate(-945.31 -288.516)" fill="#282f39"/></g><g transform="translate(61.963 12.579)"><g transform="translate(18.463 42.745)"><g transform="translate(26.655)"><path d="M1043.9,341.035l-3.925.426-1.215-5.155,5.224-.565Z" transform="translate(-1035.719 -326.928)" fill="#283039"/><rect width="9.51" height="9.511" rx="1.062" transform="translate(0 1.023) rotate(-6.177)" fill="#d5dce0"/><rect width="7.021" height="7.021" transform="translate(1.372 2.127) rotate(-6.173)" fill="#c3ccd5"/><rect width="6.123" height="6.123" transform="translate(1.866 2.525) rotate(-6.175)" fill="#283039"/><rect width="4.249" height="4.249" transform="translate(2.899 3.356) rotate(-6.174)" fill="#12171e"/><path d="M1041.9,330.14l-3.275.354.458,4.224.624-.066A11.337,11.337,0,0,1,1041.9,330.14Z" transform="translate(-1035.724 -327.138)" fill="#2d3842" opacity="0.2"/></g><g transform="translate(0 12.865)"><path d="M1011.77,343.692a1.908,1.908,0,0,0-1.628,1.732.724.724,0,0,0,.011.2l2.124,19.642a1.879,1.879,0,0,0,2.07,1.664l37.173-4.022a1.876,1.876,0,0,0,1.664-2.069l-2.107-19.482a1.9,1.9,0,0,0-2.1-1.686Z" transform="translate(-1010.139 -339.646)" fill="#054da3"/><path d="M1011.255,355.946l.98,9.072a1.879,1.879,0,0,0,2.07,1.664l37.173-4.022a1.876,1.876,0,0,0,1.664-2.069l-1.569-14.5a22.067,22.067,0,0,1-3.857,2.742C1037.162,354.688,1023.189,360.644,1011.255,355.946Z" transform="translate(-1010.097 -339.405)" fill="#003c94"/><g transform="translate(2.368 0.884)"><rect width="5.715" height="1.836" transform="translate(0 1.234) rotate(-6.178)" fill="#12171e"/><rect width="4.613" height="1.836" transform="matrix(0.994, -0.108, 0.108, 0.994, 6.818, 0.497)" fill="#12171e"/></g><g transform="translate(0.013)"><path d="M1010.161,345.7l.175,1.621,40.907-4.427-.175-1.621a1.827,1.827,0,0,0-2.013-1.619l-37.274,4.034A1.826,1.826,0,0,0,1010.161,345.7Z" transform="translate(-1010.151 -339.647)" fill="#c3ccd5"/><path d="M1049.054,339.657l-37.274,4.034a1.826,1.826,0,0,0-1.581,1.4l40.7-4.4A1.826,1.826,0,0,0,1049.054,339.657Z" transform="translate(-1010.149 -339.647)" fill="#d5dce0"/><path d="M1012.046,363.06l.16,1.488a1.879,1.879,0,0,0,2.07,1.664l37.173-4.022a1.876,1.876,0,0,0,1.664-2.069l-.161-1.488Z" transform="translate(-1010.08 -338.934)" fill="#c3ccd5"/></g><path d="M1012.765,365.617a1.875,1.875,0,0,0,1.484.5l37.173-4.022a1.875,1.875,0,0,0,1.344-.8Z" transform="translate(-1010.04 -338.834)" fill="#d5dce0"/></g><g transform="translate(11.402 12.153)"><path d="M1046.228,350.193a12.586,12.586,0,1,1-13.868-11.159A12.586,12.586,0,0,1,1046.228,350.193Z" transform="translate(-1021.128 -338.961)" fill="#d5dce0"/><path d="M1045.041,350.275a11.434,11.434,0,1,1-12.6-10.139A11.436,11.436,0,0,1,1045.041,350.275Z" transform="translate(-1021.086 -338.919)" fill="#404751"/><path d="M1043.419,350.387a9.86,9.86,0,1,1-10.864-8.743A9.862,9.862,0,0,1,1043.419,350.387Z" transform="translate(-1021.029 -338.862)" fill="#283039"/><path d="M1042.624,350.442a9.088,9.088,0,1,1-10.013-8.057A9.087,9.087,0,0,1,1042.624,350.442Z" transform="translate(-1021.001 -338.834)" fill="#12171e"/><path d="M1037.667,350.786a4.277,4.277,0,1,1-4.712-3.791A4.276,4.276,0,0,1,1037.667,350.786Z" transform="translate(-1020.827 -338.66)" fill="#31476c"/><path d="M1041.439,346.842a9.088,9.088,0,0,0-15.917,8.765A22.562,22.562,0,0,0,1041.439,346.842Z" transform="translate(-1021.001 -338.834)" fill="#2d3842" opacity="0.2"/><g transform="translate(12.308 6.673)"><path d="M1035.265,348.685a1.852,1.852,0,1,1,2.6-.281A1.853,1.853,0,0,1,1035.265,348.685Z" transform="translate(-1032.931 -345.392)" fill="#d5dce0"/><path d="M1034.483,351.835a1.3,1.3,0,1,1,1.1-1.477A1.3,1.3,0,0,1,1034.483,351.835Z" transform="translate(-1032.991 -345.247)" fill="#d5dce0"/></g></g></g><path d="M1010.869,347.1l-18.526-57.183,3.767-3.874.107,3.874,14.862,56.661Z" transform="translate(-992.343 -286.049)" fill="#12171e"/><path d="M1048.65,341.709l-4.761-51.86-.1-1.848,2.774,1.848,2.569,52.176Z" transform="translate(-990.412 -285.975)" fill="#12171e"/></g></g><g transform="translate(271.918 5.785)"><path d="M1146.082,93.193c-2.291,3.2-.764,8.8,3.735,15.772,7.7,11.921,24.091,27.883,44.986,42.836,33.114,23.7,64.986,35.88,71.191,27.208,3.018-4.217-.585-12.58-8.879-22.781-8.78-10.791-22.813-23.646-39.839-35.83C1184.163,96.7,1152.289,84.521,1146.082,93.193Z" transform="translate(-1145.027 -90.398)" fill="#b21b1b"/><path d="M1146.082,93.193c-2.291,3.2-.764,8.8,3.735,15.772,8.78,10.791,22.812,23.646,39.837,35.83,33.115,23.7,64.99,35.875,71.2,27.2,2.288-3.2.765-8.8-3.734-15.772-8.78-10.791-22.813-23.646-39.839-35.83C1184.163,96.7,1152.289,84.521,1146.082,93.193Z" transform="translate(-1145.027 -90.398)" fill="#d82c28"/><g transform="translate(35.506 0.872)"><path d="M1179.249,111.585a68.878,68.878,0,0,0,56.915,40.725,54.784,54.784,0,0,0,4.72-8.162,52.038,52.038,0,0,0,2.653-6.883,44.77,44.77,0,0,0,1.682-19.554,33.015,33.015,0,0,0-5.777-14.653c-.147-.2-.294-.4-.451-.608h0c-.212-.278-.424-.547-.646-.817-.417-.513-.858-1-1.312-1.486-.057-.055-.114-.115-.166-.17-.177-.187-.361-.369-.546-.547-.056-.06-.117-.12-.178-.182-.22-.211-.447-.423-.683-.631-.215-.2-.442-.393-.664-.58-.123-.112-.247-.214-.377-.317s-.228-.183-.349-.275c-.138-.113-.276-.222-.419-.331-.22-.163-.44-.33-.66-.488-11.507-8.232-27.562-6.725-40.9,2.435a52.078,52.078,0,0,0-6.632,5.422A54.738,54.738,0,0,0,1179.249,111.585Z" transform="translate(-1179.249 -91.238)" fill="#d82c28"/></g><path d="M1179.249,111.3a68.878,68.878,0,0,0,56.915,40.725,54.784,54.784,0,0,0,4.72-8.162,52.038,52.038,0,0,0,2.653-6.883,44.77,44.77,0,0,0,1.682-19.554,24.779,24.779,0,0,1-16.519,9.6c-10.872,1.274-21.79-4.5-28.616-13.056a48.589,48.589,0,0,1-8-15.189,52.078,52.078,0,0,0-6.632,5.422A54.738,54.738,0,0,0,1179.249,111.3Z" transform="translate(-1143.743 -90.083)" fill="#b21b1b"/><path d="M1179.249,111.106a68.878,68.878,0,0,0,56.915,40.725,54.784,54.784,0,0,0,4.72-8.162,52.038,52.038,0,0,0,2.653-6.883c-13.323,3.45-26.183,1.161-35.629-5.6a68.991,68.991,0,0,1-19.371-21.352q-1.659-2.814-3.083-5.828A54.738,54.738,0,0,0,1179.249,111.106Z" transform="translate(-1143.743 -89.887)" fill="#fff"/><g transform="translate(76.525 54.642)"><path d="M1231.956,143.063c1.286,6.808-.777,13.812-3.566,20.155s-6.334,12.392-8.274,19.044-2.069,14.265,1.715,20.07a17.482,17.482,0,0,1,3.138-9.395,21.641,21.641,0,0,0,11.7,10.677c-4.165-9.134-2.127-19.765.085-29.556s4.476-20.316.688-29.612C1235.931,143.9,1233.463,143.61,1231.956,143.063Z" transform="translate(-1218.784 -143.063)" fill="#ddd7d7"/><path d="M1229.433,143.866c4.082,6.832,4.633,15.2,4.138,23.144s-1.922,15.872-1.379,23.812,3.42,16.2,9.8,20.959a20.082,20.082,0,0,1-.337-11.371,24.855,24.855,0,0,0,16.842,6.878c-8.109-8.2-10.122-20.467-11.616-31.9s-3.219-23.678-10.986-32.2C1234.051,143.193,1231.275,143.858,1229.433,143.866Z" transform="translate(-1218.385 -143.058)" fill="#fff"/></g></g><g transform="translate(163.224 82.784)"><path d="M1046.562,186.79l.84,3.154.84-3.154a16.674,16.674,0,0,1,6.3-9.513,16.674,16.674,0,0,1-6.3-9.512l-.84-3.154-.84,3.154a16.679,16.679,0,0,1-6.3,9.512A16.678,16.678,0,0,1,1046.562,186.79Z" transform="translate(-1040.265 -164.611)" fill="#d5d7db"/><path d="M1064.567,207.25l1.157,4.342,1.158-4.342a22.96,22.96,0,0,1,8.667-13.1,22.957,22.957,0,0,1-8.667-13.1l-1.158-4.342-1.157,4.342a22.965,22.965,0,0,1-8.669,13.1A22.967,22.967,0,0,1,1064.567,207.25Z" transform="translate(-1039.678 -164.157)" fill="#d5d7db"/></g><g transform="translate(393.942 251.512)"><path d="M1266.5,342.232l.516-1.933.516,1.933a10.227,10.227,0,0,0,3.861,5.834,10.228,10.228,0,0,0-3.861,5.833l-.516,1.934-.516-1.934a10.229,10.229,0,0,0-3.861-5.833A10.228,10.228,0,0,0,1266.5,342.232Z" transform="translate(-1262.637 -326.745)" fill="#fafafa"/><path d="M1277.538,329.9l.711-2.662.709,2.662a14.088,14.088,0,0,0,5.316,8.033,14.079,14.079,0,0,0-5.316,8.032l-.709,2.662-.711-2.662a14.073,14.073,0,0,0-5.315-8.032A14.083,14.083,0,0,0,1277.538,329.9Z" transform="translate(-1262.277 -327.235)" fill="#fafafa"/></g><g transform="translate(237.646)"><path d="M1116.788,103.44l.64-2.4.64,2.4a12.692,12.692,0,0,0,4.792,7.241,12.7,12.7,0,0,0-4.792,7.242l-.64,2.4-.64-2.4a12.691,12.691,0,0,0-4.793-7.242A12.688,12.688,0,0,0,1116.788,103.44Z" transform="translate(-1111.995 -84.213)" fill="#fafafa"/><path d="M1130.495,88.128l.881-3.306.88,3.306a17.491,17.491,0,0,0,6.6,9.971,17.491,17.491,0,0,0-6.6,9.971l-.88,3.3-.881-3.3a17.49,17.49,0,0,0-6.6-9.971A17.49,17.49,0,0,0,1130.495,88.128Z" transform="translate(-1111.548 -84.822)" fill="#fafafa"/></g><g transform="translate(0 208.961)"><path d="M899.2,301.222l-.473-1.934-.475,1.934a10.31,10.31,0,0,1-3.554,5.833,10.31,10.31,0,0,1,3.554,5.833l.475,1.934.473-1.934a10.318,10.318,0,0,1,3.556-5.833A10.317,10.317,0,0,1,899.2,301.222Z" transform="translate(-882.505 -285.734)" fill="#fafafa"/><path d="M889.146,288.887l-.654-2.663-.654,2.663a14.2,14.2,0,0,1-4.893,8.032,14.194,14.194,0,0,1,4.893,8.032l.654,2.663.654-2.663a14.189,14.189,0,0,1,4.893-8.032A14.192,14.192,0,0,1,889.146,288.887Z" transform="translate(-882.946 -286.224)" fill="#fafafa"/></g></g></g></g></g></svg>