<svg width="30" height="30" viewBox="0 0 30 30" fill="none" xmlns="http://www.w3.org/2000/svg">
<g clip-path="url(#clip0_1229_3392)">
<path d="M15 29.9906C23.2843 29.9906 30 23.277 30 14.9953C30 6.71363 23.2843 0 15 0C6.71572 0 0 6.71363 0 14.9953C0 23.277 6.71572 29.9906 15 29.9906Z" fill="#FF060A"/>
<path d="M24.9998 12.2714C24.0624 11.4061 22.7656 10.0846 21.7092 9.14744L21.6467 9.10369C21.543 9.02024 21.4254 8.95474 21.3 8.91001C18.7529 8.43515 6.89998 6.22018 6.66877 6.24831C6.60397 6.25744 6.54203 6.28089 6.48754 6.31703L6.42813 6.36393C6.355 6.43814 6.29951 6.52784 6.26559 6.62632L6.25 6.66697V6.88872V6.92317C7.58436 10.6376 12.8531 22.8056 13.8906 25.6609C13.9531 25.8548 14.0719 26.2234 14.2937 26.2421H14.3437C14.4625 26.2421 14.9687 25.5735 14.9687 25.5735C14.9687 25.5735 24.0187 14.602 24.9344 13.4336C25.0529 13.2897 25.1577 13.1348 25.2467 12.9712C25.2698 12.8432 25.259 12.7115 25.2157 12.5888C25.1724 12.4662 25.0982 12.3569 24.9998 12.2714ZM17.2908 13.5491L21.1529 10.347L23.4187 12.4339L17.2908 13.5491ZM15.7908 13.3398L9.14066 7.89159L19.8998 9.87533L15.7908 13.3398ZM16.3908 14.7676L23.1969 13.6711L15.4156 23.0432L16.3908 14.7676ZM8.2375 8.43515L15.2346 14.3708L14.2219 23.0491L8.2375 8.43515Z" fill="white"/>
</g>
<defs>
<clipPath id="clip0_1229_3392">
<rect width="30" height="30" fill="white"/>
</clipPath>
</defs>
</svg>
