<svg width="500" height="500" viewBox="0 0 500 500" fill="none" xmlns="http://www.w3.org/2000/svg">
<g clip-path="url(#clip0_1177_57961)">
<path d="M250 500C112.5 500 0 387.5 0 250C0 112.5 112.5 0 250 0C387.5 0 500 112.5 500 250C500 387.5 387.5 500 250 500Z" fill="#002868"/>
<path d="M376 400H124C110.8 400 100 389.2 100 376V124C100 110.8 110.8 100 124 100H376C389.2 100 400 110.8 400 124V376C400 389.2 389.2 400 376 400Z" fill="white"/>
<path d="M158.539 369.8C157.749 369.8 157.109 369.08 157.109 368.29V327.98C157.109 327.19 156.469 326.47 155.679 326.47H141.449C140.649 326.47 139.939 325.83 139.939 325.04V317.25C139.939 316.46 140.659 315.74 141.449 315.74H185.249C186.039 315.74 186.759 316.45 186.759 317.25V325.04C186.759 325.83 186.039 326.47 185.249 326.47H171.099C170.309 326.47 169.589 327.18 169.589 327.98V368.29C169.589 369.08 168.949 369.8 168.159 369.8H158.539Z" fill="#002868"/>
<path d="M230.48 317.25C230.48 316.46 231.12 315.74 231.91 315.74H241.45C242.24 315.74 242.96 316.45 242.96 317.25V344.76C242.96 361.06 233.74 370.52 219.11 370.52C204.56 370.52 195.42 361.06 195.42 344.76V317.25C195.42 316.46 196.06 315.74 196.85 315.74H206.39C207.18 315.74 207.9 316.45 207.9 317.25V345.15C207.9 353.18 212.03 358.9 219.19 358.9C226.35 358.9 230.48 353.18 230.48 345.15V317.25V317.25Z" fill="#002868"/>
<path d="M286.769 333.39C285.499 333.39 285.099 332.91 284.619 331.96C282.949 328.06 279.289 325.6 273.729 325.6C268.719 325.6 264.509 327.35 264.509 330.69C264.509 334.35 268.409 335.86 276.989 336.89C290.029 338.4 297.499 342.38 297.499 352.71C297.499 364.32 287.319 370.44 274.289 370.44C262.999 370.44 253.299 364.95 251.789 353.43C251.629 352.32 252.189 351.92 253.299 351.92H262.049C263.159 351.92 263.799 352.4 264.119 353.27C265.309 357.09 269.369 360.03 275.249 360.03C280.419 360.03 284.949 358.12 284.949 354.07C284.949 349.22 280.179 348.35 270.639 347.15C259.669 345.72 252.039 342.54 252.039 332.44C252.039 322.34 260.709 315.11 274.299 315.11C286.539 315.11 295.049 321.71 296.799 331.57C297.039 332.68 296.719 333.4 295.529 333.4H286.769V333.39Z" fill="#002868"/>
<path d="M308.309 369.8C307.519 369.8 306.879 369.08 306.879 368.29V317.25C306.879 316.46 307.519 315.74 308.309 315.74H329.929C345.989 315.74 358.469 326.79 358.469 342.93C358.469 358.83 346.149 369.8 329.929 369.8H308.309ZM329.929 359.06C338.599 359.06 345.349 352.22 345.349 342.76C345.349 333.3 338.589 326.46 329.849 326.46H320.869C320.079 326.46 319.439 327.17 319.439 327.97V357.62C319.439 358.41 320.079 359.05 320.869 359.05H329.929V359.06Z" fill="#002868"/>
<path d="M392 286H108C105.8 286 104 284.2 104 282V124C104 113 113 104 124 104H376C387 104 396 113 396 124V282C396 284.2 394.2 286 392 286Z" fill="#002868"/>
<path d="M264.73 253.56H238.73C237.08 253.56 235.73 252.21 235.73 250.56V140.56C235.73 138.91 237.08 137.56 238.73 137.56H264.73C266.38 137.56 267.73 138.91 267.73 140.56V250.56C267.73 252.21 266.38 253.56 264.73 253.56Z" fill="white"/>
<path d="M309 169.56H191C189.35 169.56 188 168.21 188 166.56V140.56C188 138.91 189.35 137.56 191 137.56H309C310.65 137.56 312 138.91 312 140.56V166.56C312 168.21 310.65 169.56 309 169.56Z" fill="white"/>
</g>
<defs>
<clipPath id="clip0_1177_57961">
<rect width="500" height="500" fill="white"/>
</clipPath>
</defs>
</svg>
