<svg width="115" height="29" viewBox="0 0 115 29" fill="none" xmlns="http://www.w3.org/2000/svg">
<g clip-path="url(#clip0_11316_12636)">
<path d="M33.0181 6.3623H43.9946V8.5011H39.6727V20.5579H37.3038V8.5011H33L33.0181 6.3623ZM43.5244 10.2803H45.5497V12.2677H45.5859C45.6582 11.9838 45.7848 11.7188 45.9656 11.4538C46.1465 11.1888 46.3635 10.9427 46.6347 10.7345C46.8879 10.5074 47.1772 10.3371 47.5027 10.2046C47.8101 10.0721 48.1356 9.99637 48.4611 9.99637C48.7143 9.99637 48.8951 10.0153 48.9855 10.0153C49.0759 10.0342 49.1844 10.0532 49.2749 10.0532V12.2298C49.1302 12.192 48.9675 12.173 48.8047 12.1541C48.642 12.1352 48.4973 12.1162 48.3345 12.1162C47.9729 12.1162 47.6293 12.192 47.3038 12.3434C46.9783 12.4948 46.7071 12.7219 46.4539 13.0058C46.2188 13.3087 46.0199 13.6683 45.8752 14.1036C45.7306 14.539 45.6582 15.05 45.6582 15.6178V20.5011H43.4882L43.5244 10.2803ZM59.2206 20.5579H57.0868V19.1194H57.0506C56.7794 19.6494 56.3816 20.0469 55.8571 20.3686C55.3327 20.6904 54.7902 20.8418 54.2477 20.8418C52.9638 20.8418 52.0235 20.52 51.4448 19.8386C50.8662 19.1762 50.5769 18.1541 50.5769 16.8103V10.2803H52.7468V16.5831C52.7468 17.4916 52.9096 18.1352 53.2532 18.4948C53.5787 18.8733 54.0488 19.0626 54.6456 19.0626C55.0976 19.0626 55.4774 18.9869 55.7848 18.8355C56.0922 18.6841 56.3454 18.4948 56.5262 18.2487C56.7251 18.0027 56.8517 17.6998 56.9421 17.3591C57.0325 17.0185 57.0687 16.6399 57.0687 16.2424V10.2803H59.2387V20.5579H59.2206ZM62.9096 17.2645C62.9819 17.927 63.217 18.3812 63.6329 18.6651C64.0488 18.9301 64.5552 19.0626 65.1338 19.0626C65.3327 19.0626 65.5678 19.0437 65.821 19.0058C66.0741 18.968 66.3273 18.9112 66.5443 18.8166C66.7794 18.7219 66.9602 18.5894 67.1049 18.4002C67.2495 18.2109 67.3219 17.9838 67.3038 17.6998C67.2857 17.4159 67.1953 17.1699 66.9964 16.9806C66.7975 16.7913 66.5624 16.6588 66.2731 16.5263C65.9837 16.4128 65.6401 16.3181 65.2604 16.2424C64.8807 16.1667 64.5009 16.0721 64.1031 15.9774C63.7052 15.8828 63.3074 15.7692 62.9277 15.6368C62.5479 15.5043 62.2224 15.3339 61.915 15.0879C61.6257 14.8607 61.3725 14.5768 61.2098 14.2172C61.0289 13.8576 60.9385 13.4412 60.9385 12.9112C60.9385 12.3434 61.0651 11.8891 61.3363 11.5106C61.5895 11.132 61.9331 10.8292 62.3309 10.6021C62.7287 10.3749 63.1808 10.2046 63.6691 10.1099C64.1573 10.0153 64.6275 9.97744 65.0615 9.97744C65.5678 9.97744 66.0561 10.0342 66.5081 10.1478C66.9602 10.2614 67.3942 10.4317 67.7559 10.6967C68.1356 10.9427 68.443 11.2834 68.6781 11.6809C68.9313 12.0784 69.0759 12.5705 69.1483 13.1383H66.8879C66.7794 12.5894 66.5443 12.2298 66.1826 12.0405C65.8029 11.8513 65.387 11.7566 64.8987 11.7566C64.7541 11.7566 64.5552 11.7756 64.3562 11.7945C64.1392 11.8323 63.9584 11.8702 63.7595 11.9459C63.5787 12.0216 63.4159 12.1352 63.2893 12.2677C63.1627 12.4002 63.0904 12.5894 63.0904 12.8166C63.0904 13.1005 63.1808 13.3087 63.3617 13.479C63.5425 13.6494 63.7776 13.7819 64.085 13.9144C64.3743 14.0279 64.7179 14.1226 65.0977 14.1983C65.4774 14.274 65.8752 14.3686 66.2731 14.4633C66.6709 14.5579 67.0506 14.6714 67.4304 14.8039C67.8101 14.9364 68.1537 15.1068 68.443 15.3528C68.7324 15.58 68.9855 15.8639 69.1664 16.2046C69.3472 16.5453 69.4376 16.9806 69.4376 17.4727C69.4376 18.0784 69.311 18.5894 69.0398 19.0248C68.7685 19.4412 68.425 19.8008 68.009 20.0658C67.5931 20.3308 67.1049 20.52 66.5985 20.6525C66.0741 20.7661 65.5678 20.8418 65.0615 20.8418C64.4467 20.8418 63.868 20.7661 63.3436 20.6147C62.8192 20.4633 62.349 20.2361 61.9693 19.9522C61.5895 19.6494 61.2821 19.2898 61.0651 18.8355C60.8481 18.4002 60.7215 17.8702 60.7034 17.2456H62.8915V17.2645H62.9096ZM70.0524 10.2803H71.698V7.17618H73.868V10.2614H75.821V11.9459H73.868V17.4349C73.868 17.6809 73.8861 17.8702 73.9042 18.0595C73.9222 18.2298 73.9765 18.3812 74.0307 18.4948C74.1031 18.6084 74.2116 18.703 74.3382 18.7598C74.4828 18.8166 74.6637 18.8544 74.9168 18.8544C75.0615 18.8544 75.2242 18.8544 75.3689 18.8355C75.5136 18.8166 75.6763 18.7976 75.821 18.7598V20.52C75.5859 20.5579 75.3508 20.5768 75.1157 20.5957C74.8806 20.6336 74.6637 20.6336 74.4105 20.6336C73.8318 20.6336 73.3797 20.5768 73.0362 20.4633C72.6926 20.3497 72.4213 20.1793 72.2224 19.9711C72.0235 19.744 71.8969 19.479 71.8246 19.1573C71.7523 18.8355 71.7161 18.438 71.698 18.0216V11.9648H70.0524V10.2424V10.2803ZM77.34 10.2803H79.3834V11.6809H79.4195C79.7269 11.0752 80.1429 10.6588 80.6853 10.3938C81.2278 10.1289 81.8065 9.99637 82.4575 9.99637C83.2351 9.99637 83.9042 10.1289 84.4828 10.4317C85.0615 10.7156 85.5316 11.0942 85.9114 11.6052C86.2911 12.0973 86.5805 12.6841 86.7613 13.3465C86.9421 14.009 87.0506 14.7282 87.0506 15.4664C87.0506 16.1667 86.9602 16.8292 86.7975 17.4727C86.6166 18.1162 86.3635 18.703 86.0199 19.1951C85.6763 19.6872 85.2423 20.0847 84.6998 20.3875C84.1573 20.6904 83.5425 20.8418 82.8192 20.8418C82.5118 20.8418 82.1863 20.8039 81.8788 20.7472C81.5714 20.6904 81.264 20.5957 80.9747 20.4633C80.6854 20.3308 80.4141 20.1604 80.179 19.9522C79.9259 19.744 79.7269 19.498 79.5642 19.233H79.528V24.3623H77.358V10.2803H77.34ZM84.9168 15.4286C84.9168 14.9743 84.8626 14.52 84.736 14.0847C84.6275 13.6494 84.4467 13.2708 84.2116 12.9301C83.9765 12.5894 83.6872 12.3244 83.3617 12.1162C83.0181 11.908 82.6203 11.8134 82.1863 11.8134C81.2821 11.8134 80.5949 12.1352 80.1248 12.7976C79.6727 13.4601 79.4376 14.3497 79.4376 15.4475C79.4376 15.9774 79.4919 16.4506 79.6184 16.886C79.745 17.3213 79.9078 17.6998 80.1609 18.0216C80.396 18.3434 80.6854 18.5894 81.0289 18.7787C81.3725 18.968 81.7523 19.0626 82.2043 19.0626C82.7107 19.0626 83.1085 18.9491 83.4521 18.7409C83.7957 18.5327 84.0669 18.2487 84.302 17.927C84.519 17.5863 84.6817 17.2077 84.7721 16.7724C84.8626 16.3181 84.9168 15.8828 84.9168 15.4286ZM88.7324 6.3623H90.9023V8.5011H88.7324V6.3623ZM88.7324 10.2803H90.9023V20.5579H88.7324V10.2803ZM92.8372 6.3623H95.0072V20.5579H92.8372V6.3623ZM101.626 20.8418C100.848 20.8418 100.143 20.7093 99.528 20.4254C98.9132 20.1415 98.4069 19.7819 97.9729 19.3087C97.557 18.8355 97.2315 18.2487 97.0145 17.5863C96.7975 16.9238 96.6709 16.1856 96.6709 15.4096C96.6709 14.6336 96.7794 13.9144 97.0145 13.2519C97.2315 12.5894 97.557 12.0216 97.9729 11.5295C98.3888 11.0563 98.9132 10.6778 99.528 10.4128C100.143 10.1478 100.848 9.99637 101.626 9.99637C102.403 9.99637 103.108 10.1289 103.723 10.4128C104.338 10.6778 104.844 11.0563 105.278 11.5295C105.694 12.0027 106.02 12.5894 106.237 13.2519C106.454 13.9144 106.58 14.6336 106.58 15.4096C106.58 16.2046 106.472 16.9238 106.237 17.5863C106.002 18.2487 105.694 18.8166 105.278 19.3087C104.863 19.7819 104.338 20.1604 103.723 20.4254C103.108 20.6904 102.421 20.8418 101.626 20.8418ZM101.626 19.0437C102.096 19.0437 102.53 18.9301 102.873 18.7219C103.235 18.5137 103.506 18.2298 103.741 17.8891C103.976 17.5484 104.139 17.1509 104.248 16.7345C104.356 16.2992 104.41 15.8639 104.41 15.4096C104.41 14.9743 104.356 14.539 104.248 14.1036C104.139 13.6683 103.976 13.2897 103.741 12.9491C103.506 12.6084 103.217 12.3434 102.873 12.1352C102.512 11.927 102.096 11.8134 101.626 11.8134C101.156 11.8134 100.722 11.927 100.378 12.1352C100.016 12.3434 99.745 12.6273 99.5099 12.9491C99.2749 13.2897 99.1121 13.6683 99.0036 14.1036C98.8951 14.539 98.8409 14.9743 98.8409 15.4096C98.8409 15.8639 98.8951 16.2992 99.0036 16.7345C99.1121 17.1699 99.2749 17.5484 99.5099 17.8891C99.745 18.2298 100.034 18.5137 100.378 18.7219C100.74 18.9491 101.156 19.0437 101.626 19.0437ZM107.231 10.2803H108.877V7.17618H111.047V10.2614H113V11.9459H111.047V17.4349C111.047 17.6809 111.065 17.8702 111.083 18.0595C111.101 18.2298 111.156 18.3812 111.21 18.4948C111.282 18.6084 111.391 18.703 111.517 18.7598C111.662 18.8166 111.843 18.8544 112.096 18.8544C112.241 18.8544 112.403 18.8544 112.548 18.8355C112.693 18.8166 112.855 18.7976 113 18.7598V20.52C112.765 20.5579 112.53 20.5768 112.295 20.5957C112.06 20.6336 111.843 20.6336 111.59 20.6336C111.011 20.6336 110.559 20.5768 110.215 20.4633C109.872 20.3497 109.6 20.1793 109.401 19.9711C109.203 19.744 109.076 19.479 109.004 19.1573C108.931 18.8355 108.895 18.438 108.877 18.0216V11.9648H107.231V10.2424V10.2803Z" fill="#5A78A6"/>
<path d="M27.654 10.2849H17.1707L13.9436 0.362305L10.6974 10.2849L0.214111 10.2659L8.69242 16.4058L5.44622 26.3284L13.9245 20.1885L22.4028 26.3284L19.1757 16.4058L27.654 10.2849Z" fill="#00B67A"/>
<path d="M19.9011 18.6487L19.1755 16.4057L13.9434 20.1885L19.9011 18.6487Z" fill="#005128"/>
</g>
<defs>
<clipPath id="clip0_11316_12636">
<rect width="115" height="28" fill="white" transform="translate(0 0.362305)"/>
</clipPath>
</defs>
</svg>
