<svg xmlns="http://www.w3.org/2000/svg" width="436.891" height="436.891" viewBox="0 0 436.891 436.891"><g transform="translate(-770.609 -2434)"><g transform="translate(154.24 2347.945)"><circle cx="152.003" cy="152.003" r="152.003" transform="translate(682.811 152.497)" fill="#d5d7db" opacity="0.204"/><circle cx="218.445" cy="218.445" r="218.445" transform="translate(616.369 86.055)" fill="#d5d7db" opacity="0.152"/></g><g transform="translate(316.586 2280.299)"><g transform="translate(808.998 230.457)"><path d="M561.845,270.562c3.906-3.982,18.612-21.365,26.15-30.508,2.941.92,12.017,6.182,10.685,9.224-1.677,3.806-18.744,28.7-20.58,29.116C577.92,278.629,560.557,271.259,561.845,270.562Z" transform="translate(-561.777 -181.373)" fill="#ffc89f"/><g transform="translate(26.175)"><path d="M568.362,267.363c3.2-8.643,11.076-36.407,11.076-36.407s8.031.3,8.372.348c0,1.613-2.221,32.613-8.94,45.482C577.782,278.867,567.566,269.52,568.362,267.363Z" transform="translate(-568.318 -208.682)" fill="#ffc89f"/><path d="M574.905,252.8c-.288-.172-.94-6.471-1.052-6.751-.424-1.1-.864-2.209-1.276-3.321-.781-2.129-.8-4.446-1.545-6.583-.216-.636-1.229-2.589-.88-3.261a.536.536,0,0,1,.456-.228c2.749-.3,3,3.109,3.537,4.918.2.684.616,1.365.881,2.033q.5-3.073,1.008-6.154c.184-1.176.992-7.151,2.425-6.871.717.14.676,1.2.676,1.753a48.031,48.031,0,0,1-.628,7.107c.376-1.973.737-3.962,1.113-5.93.16-.92,1.009-4.458,2.413-4.1a.875.875,0,0,1,.624.884A30.2,30.2,0,0,1,581,234.8c.6-2.125,1.22-4.242,1.845-6.367.152-.552.556-1.6,1.341-1.629.956-.036,1,1.2.94,1.781a43.038,43.038,0,0,1-1.457,7.331c1.037-1.669,2.473-7.611,3.406-6.058a2.339,2.339,0,0,1,.164,1.437c-.292,2.945-.416,4.722-.712,7.679a27.123,27.123,0,0,1-.861,4.294c-.444,1.453-2.9,5.246-3.249,6.723-.476,2.037-.824,7.807-1.9,9.6Z" transform="translate(-563.032 -225.39)" fill="#ffc89f"/></g></g><path d="M492.068,243.37l10.264-.648-.268-1.2,28.191-.3c13.741,52.773,5.314,53.69-10.668,54.69-.48.032-4.842.256-5.326.264-.48.056-.932.136-1.417.172C496.885,297.352,485.069,297.448,492.068,243.37Z" transform="translate(31.8 52.587)" fill="#2b1e16"/><g transform="translate(479.414 245.666)"><path d="M503.829,265.412c-3.87-7.779-16.427-30.424-16.427-30.424s-6.3,1.477-6.623,1.541c.16,1.513,5.138,26.587,12.717,37.975C494.734,276.345,504.79,267.357,503.829,265.412Z" transform="translate(-475.314 -211.788)" fill="#ffc89f"/><path d="M491.439,253.03c.248-.16.5-5.746.584-6.018.32-.988.656-1.985.968-2.977.58-1.929.484-3.974,1.028-5.89.172-.58.964-2.345.612-2.925a.472.472,0,0,0-.408-.18c-2.433-.12-2.493,2.893-2.873,4.522-.144.6-.484,1.229-.68,1.833-.388-1.789-.792-3.586-1.193-5.378-.228-1.032-1.244-6.258-2.485-5.942-.628.156-.536,1.092-.5,1.577a41.621,41.621,0,0,0,.892,6.247q-.636-2.593-1.272-5.182c-.2-.8-1.117-3.882-2.333-3.489a.76.76,0,0,0-.508.8,26.543,26.543,0,0,0,1.893,7.431c-.652-1.841-1.3-3.686-1.949-5.526-.168-.472-.576-1.389-1.265-1.372-.844.02-.828,1.112-.74,1.609a38.72,38.72,0,0,0,1.641,6.4c-.992-1.413-2.553-6.587-3.3-5.174a2.022,2.022,0,0,0-.076,1.268c.4,2.6.6,4.158,1.008,6.755a25.075,25.075,0,0,0,.988,3.745c.452,1.257.792,2.233,1.176,3.513a30.115,30.115,0,0,0,2.953,6.483Z" transform="translate(-479.414 -229.19)" fill="#ffc89f"/><path d="M519.85,283.864c-.02-1.237,4.894-6.371,3.533-7.059-4.146-4-19.068-25.062-27.123-34.29-3.017,1.032-14.146,4.618-12.673,7.719,1.061,2.253,14.614,22.177,23.666,34.614,6.575,9.012,16.971,9.568,17.775,9.72C525.22,294.8,519.914,287.137,519.85,283.864Z" transform="translate(-467.289 -189.195)" fill="#d5d7db"/><path d="M489.043,234.7c4,7.259,13.265,24.79,16.491,31.285,1.056,2.125-10.3,11.5-11.649,9.476-6.439-9.672-11.637-30.424-13.521-39.116C481.909,235.978,489.02,234.705,489.043,234.7Z" transform="translate(-476.562 -212.662)" fill="#d5d7db"/></g><g transform="translate(724.488 223.701)"><g transform="translate(16.597)"><path d="M578.453,273.4c-3.189-4.574-14.758-24.178-20.656-34.458-3.065.412-12.881,4.078-12.081,7.295,1,4.042,13.657,31.445,15.4,32.153C561.246,278.659,579.605,274.321,578.453,273.4Z" transform="translate(-542.213 -177.94)" fill="#ffc89f"/><path d="M559.476,268.063c-1.709-9.068-4.81-37.751-4.81-37.751s-7.967-1.044-8.311-1.064c-.26,1.589-3.29,32.529,1.177,46.339C548.255,277.826,559.9,270.315,559.476,268.063Z" transform="translate(-543.892 -207.056)" fill="#ffc89f"/><path d="M553.983,251.9c.308-.124,2.017-6.218,2.169-6.491.6-1.02,1.225-2.025,1.813-3.057,1.133-1.961,1.549-4.242,2.629-6.223.328-.6,1.649-2.349,1.421-3.069a.548.548,0,0,0-.412-.3c-2.657-.768-3.481,2.553-4.314,4.254-.3.632-.832,1.229-1.212,1.849.02-2.081.036-4.154.044-6.239.008-1.188.212-7.211-1.237-7.179-.732.016-.872,1.072-.952,1.613a45.7,45.7,0,0,0-.588,7.119c-.036-2.009-.06-4.026-.088-6.042-.02-.932-.256-4.546-1.7-4.438a.863.863,0,0,0-.757.756,29.921,29.921,0,0,0,.2,8.659c-.244-2.185-.484-4.382-.74-6.571-.064-.58-.284-1.673-1.056-1.845-.925-.188-1.188,1.016-1.22,1.6a44.085,44.085,0,0,0,.2,7.483c-.74-1.821-1.161-7.923-2.337-6.551a2.3,2.3,0,0,0-.4,1.385c-.2,2.969-.384,4.73-.592,7.7a26.767,26.767,0,0,0,.14,4.382c.18,1.493,1.961,5.658,2.057,7.167.136,2.089-.5,7.835.276,9.792Z" transform="translate(-544.806 -223.701)" fill="#ffc89f"/></g><path d="M582.956,260.905a49.564,49.564,0,0,1,2.749-14.83c-8.031-1.112-12.049-1.665-20.068-2.773a50.121,50.121,0,0,1-1.217,14.306c-6.663.256-11.561,2.321-12.237,5.686-.992,4.95,7.531,10.836,19.048,13.137,11.5,2.313,21.628.172,22.621-4.782C594.593,267.968,590.063,263.762,582.956,260.905Z" transform="translate(-506.298 -164.868)" fill="#d4a47d"/><path d="M572.842,260.905a49.564,49.564,0,0,1,2.749-14.83c-8.031-1.112-12.049-1.665-20.068-2.773.068,2.4.056,4.466-.048,6.363,3.033,12.869,15,16.975,27.4,18.275C581.25,265.367,577.64,262.834,572.842,260.905Z" transform="translate(-496.184 -164.868)" fill="#a88f7b" opacity="0.3"/><path d="M540.658,319.65l52.481,32.413c22.477-7.275,38.211-56.827,38.347-62.341.08-3.638,14.214-20.856,14.042-21.1-7.707-10.98-15.1-14.342-15.1-14.342l-9.652,9.36s-2.437,10.472-5.426,12.265c-2.381,1.433-6.206,1.645-9.888.944-3.67-.78-7.119-2.445-8.764-4.694-2.069-2.809.152-13.273.152-13.273s-8.64-14-12.637-15.946c-.945-.464-11.681,6.211-16.987,10.688-.756.636,11.145,18.852,11.024,19.82C577.357,280.678,555.352,315.772,540.658,319.65Z" transform="translate(-540.658 -166.026)" fill="#85b53c"/><path d="M604.568,310.874c5.27-4.942,10.54-8.891,15.814-13.837a10.147,10.147,0,0,0,.652-14.814c-.328-.656-.328-2.313.328-2.313,4.29-1.308,8.9-2.3,10.873-6.583,2.225-6.026-1.969-11.753-4.05-16.863l-7.407,7.179s-2.437,10.472-5.426,12.265c-2.381,1.433-6.206,1.645-9.888.944-3.67-.78-7.119-2.445-8.764-4.694-2.069-2.809.152-13.273.152-13.273s-8.64-14-12.637-15.946c-.945-.464-11.681,6.211-16.987,10.688-.756.636,11.145,18.852,11.024,19.82-.9,7.231-22.9,42.325-37.595,46.2l25.67,15.854c8.079-6.807,17.415-11.669,27.367-15.734C597.985,318.121,601.278,314.5,604.568,310.874Z" transform="translate(-540.658 -166.026)" fill="#85b53c"/><path d="M611.175,245.757l-2.245,2.181c2.081,5.11,6.274,10.836,4.05,16.863-1.969,4.278-6.583,5.274-10.873,6.583-.656,0-.656,1.657-.328,2.313a10.147,10.147,0,0,1-.652,14.814c-5.274,4.946-10.544,8.9-15.814,13.837-3.289,3.621-6.583,7.247-10.873,8.9-9.952,4.066-19.288,8.928-27.367,15.734l26.811,16.559c22.477-7.275,38.211-56.827,38.347-62.341.08-3.638,14.214-20.856,14.042-21.1C618.566,249.118,611.175,245.757,611.175,245.757Z" transform="translate(-521.403 -157.499)" fill="#699626"/><g transform="translate(52.177 47.135)"><path d="M570.628,235.491c-14.938-.412-16.2,11.633-16.5,22.4-.2,7.1,4.21,14.726,4.21,14.726s6.118,6.255,7.887,6.755l6.358.168c1.376-.3,7.067-5.254,7.067-5.254s6-7.863,6.215-15.51C586.162,248,586.5,235.943,570.628,235.491Z" transform="translate(-552.433 -235.48)" fill="#ffc89f"/><path d="M568.606,235.49c-7.555-.2-11.6,2.761-13.814,7.147,4.186,5.822,13.389,2.817,20.2,4.594,3.617.984,4.618,5.266,3.946,8.892-.328,3.621-4.606,4.278-5.918,7.243-1.316,3.293,1.313,6.923-.989,10.212-3.305,3.954-9.219,5.27-12.853,1.641a30.448,30.448,0,0,1-3.277-3.353c.26.48.412.752.412.752s6.118,6.255,7.887,6.755l6.358.168c1.376-.3,7.067-5.254,7.067-5.254s6-7.863,6.215-15.51C584.14,248,584.48,235.942,568.606,235.49Z" transform="translate(-550.411 -235.48)" fill="#f0b990"/><g transform="translate(0 22.002)"><path d="M558.511,244.757c.46,2.337-.208,4.426-1.493,4.686s-2.709-1.425-3.173-3.766c-.464-2.325.2-4.414,1.5-4.674S558.05,242.432,558.511,244.757Z" transform="translate(-553.697 -240.979)" fill="#ffc89f"/><path d="M561.368,244.807c-.584,2.3-.036,4.438,1.24,4.758,1.272.336,2.773-1.268,3.374-3.573s.036-4.418-1.24-4.754S561.969,242.514,561.368,244.807Z" transform="translate(-531.372 -240.328)" fill="#f0b990"/></g></g><path d="M559.038,236.342c-1.164.3-2.545,1.837-3.5,2.609l-1.841,4.206a5.251,5.251,0,0,0-.352,3.157l1.553,7.831,1.745,3.293a48.359,48.359,0,0,0,2.429-5.382c.852-2.485.548-4.942,1.208-7.431.668-2.533,3.1-5.134,5.03-6.783a32.477,32.477,0,0,0-4.97-1.561A3.979,3.979,0,0,0,559.038,236.342Z" transform="translate(-502.872 -186.016)" fill="#b05223"/><path d="M561.962,236.552a2.014,2.014,0,0,0-1.257,1.577c-.3,2.077,1.524,3.693,2.289,5.418a39.023,39.023,0,0,1,1.8,5.978c.428,1.633-.176,3.1.244,4.658.264,1.044,1.1,1.853.973,2.977a27.418,27.418,0,0,0,2.309-4.426l1.589-5.374-1.681-8.431C567.964,237.532,563.058,236.016,561.962,236.552Z" transform="translate(-480.585 -185.461)" fill="#b05223"/><path d="M587.887,243.548c-.84-2.785-2.017-3.125-4.714-4.358-6.215-2.845-10.9-6.519-18.159-4.478-3.753,1.068-9.1,3.221-10.48,7.295a3.614,3.614,0,0,0-.164,1.012c-.048,1.469,1.22,2.849,2.745,3.938a18.465,18.465,0,0,0,1.8,1.1,14.85,14.85,0,0,0,2.053.872,12.892,12.892,0,0,0,4.506.364c4.954-.228,10.584-1.389,15.482-.412a12.251,12.251,0,0,1,7.723,4.65,4.437,4.437,0,0,1,.388.524,6.81,6.81,0,0,1,.016-2.669c.016-.224.052-.452.068-.676s.036-.44.06-.628a8.244,8.244,0,0,0,.06-.98.7.7,0,0,0-.008-.192A29.646,29.646,0,0,0,587.887,243.548Z" transform="translate(-499.504 -192.425)" fill="#b05223"/></g><g transform="translate(516.737 273.311)"><g transform="translate(36.027 5.779)"><path d="M509.241,253.926c7.983-3.433,32.217-12.6,32.217-12.6s3.845,5.214,4.042,5.474c-1.1,1.04-21.1,16.955-34.246,20.736C509.121,268.152,507.256,254.774,509.241,253.926Z" transform="translate(-465.768 -226.191)" fill="#ffc89f"/><path d="M516.566,253.225c-.084-.292,3.329-4.722,3.438-4.982.4-.956.792-1.937,1.2-2.889.788-1.849,2.189-3.341,3.013-5.166.252-.544.792-2.417,1.428-2.629a.453.453,0,0,1,.42.132c1.937,1.477.036,3.822-.72,5.306-.288.552-.436,1.252-.672,1.841,1.449-1.112,2.921-2.221,4.386-3.333.84-.648,4.986-3.974,5.742-2.933.372.528-.292,1.184-.64,1.533a41.576,41.576,0,0,1-4.73,4.182c1.449-1.04,2.885-2.089,4.334-3.133.656-.48,3.354-2.229,4.034-1.153a.776.776,0,0,1-.128.948,27.051,27.051,0,0,1-6.243,4.438c1.685-.98,3.361-1.969,5.054-2.953.428-.26,1.332-.684,1.849-.228.632.556-.084,1.377-.48,1.709a38.477,38.477,0,0,1-5.4,3.826c1.685-.444,6.226-3.377,5.878-1.825a2,2,0,0,1-.769,1.016c-1.989,1.729-3.149,2.785-5.13,4.5a23.681,23.681,0,0,1-3.173,2.229c-1.164.66-2.049,1.184-3.165,1.913a29.859,29.859,0,0,1-6.463,3.033Z" transform="translate(-441.252 -237.543)" fill="#ffc89f"/><path d="M503.15,260.894c.72-1-3.237-6,1.1-7.827,5.306-2.237,23.79-5.8,35.67-8.815,1.9,2.565,12.553,9.064,9.58,10.788-2.153,1.244-26.091,13.761-40.612,18.832-10.532,3.689-10.376-.6-11.128-.92C497.472,273.031,501.229,263.547,503.15,260.894Z" transform="translate(-497.744 -217.408)" fill="#e0e0e0"/><path d="M544.833,240.694c-7.747,2.941-29.8,11.637-36.454,14.5-2.181.944,2.805,15.538,5.158,14.862,11.168-3.213,29.876-16.591,36.927-22.009C549.519,246.784,544.841,240.71,544.833,240.694Z" transform="translate(-467.442 -228.085)" fill="#e0e0e0"/></g><path d="M533.436,255.293c-1.016-3.417-4.39-5.658-15.142-.384-1.4-4-1.549-5.414-1.873-10.548-6.663,1.549-9.992,2.325-16.655,3.886a41.609,41.609,0,0,1,3.473,12.477c-7.867,3.573-12.833,8.647-11.669,12.557,1.445,4.834,11.713,6.042,22.941,2.7S534.881,260.131,533.436,255.293Z" transform="translate(-480.751 -211.299)" fill="#d4a47d"/><path d="M526.458,255.157c.16-.168.324-.336.48-.508-1.261-3.037-4.862-4.678-14.918.26-1.4-4-1.549-5.414-1.873-10.548-6.663,1.549-9.992,2.325-16.655,3.886a53.032,53.032,0,0,1,2.513,7.139C504.033,264.025,518.719,263.545,526.458,255.157Z" transform="translate(-474.477 -211.299)" fill="#a88f7b" opacity="0.3"/><path d="M490.431,257.509c-.7-11.032,8.1-20.572,19.692-21.393l2.533,40.116C501.055,276.876,491.131,268.529,490.431,257.509Z" transform="translate(-483.784 -236.047)" fill="#3b2c23"/><path d="M495.511,236.144c11.669-.736,21.709,7.655,22.405,18.74s-8.2,20.66-19.872,21.4h-.188l-2.533-40.116Z" transform="translate(-468.985 -236.099)" fill="#3b2c23"/><path d="M492.513,259.817c.632,9.936,7.487,17.595,15.3,17.107s13.641-8.96,13.013-18.9c-.628-9.952-2.145-21.048-15.486-20.208C491.18,238.712,491.884,249.869,492.513,259.817Z" transform="translate(-478.223 -231.068)" fill="#ffc89f"/><path d="M515.839,258.025c-.612-9.72-2.093-20.532-14.59-20.244a14.691,14.691,0,0,0,.9,7.175c1.657,3.946,4.946,6.587,7.583,10.212a12.43,12.43,0,0,1-.664,15.8c-3.714,4.418-9.888,4.894-15.166,2.717a12.354,12.354,0,0,0,8.92,3.233C510.645,276.425,516.467,267.961,515.839,258.025Z" transform="translate(-473.238 -231.066)" fill="#f0b990"/><g transform="translate(10.871 21.058)"><path d="M499.028,244.95c-.356,2.173.332,4.094,1.537,4.282s2.457-1.413,2.813-3.573-.34-4.082-1.537-4.282S499.38,242.789,499.028,244.95Z" transform="translate(-469.018 -241.361)" fill="#ffc89f"/><path d="M495.965,245.1c.616,2.1.176,4.09-.988,4.434s-2.617-1.076-3.245-3.2c-.608-2.1-.168-4.09.988-4.43C493.9,241.558,495.349,242.987,495.965,245.1Z" transform="translate(-491.458 -239.89)" fill="#ffc89f"/></g><path d="M505.159,237.776c7.287,6.519,11.428,6.767,7.215,9.568-3.449,2.3-12.725,7.015-18.948,15.634-.832,1.144-3.253-13.125.228-19.448C497.14,237.192,503.13,235.96,505.159,237.776Z" transform="translate(-479.469 -233.358)" fill="#3b2c23"/><path d="M495.186,238.141a37.455,37.455,0,0,1,9.068-1.256c5.7-.084,12.689,1.236,16.647,7.371,1.793,2.765,2.129,17.395-.468,13.521-3.653-5.466-10.3-11.8-16.146-13.7-4.174-1.353-7.579,1.821-10.8-1.208C490.064,239.634,495.266,238.169,495.186,238.141Z" transform="translate(-477.996 -233.751)" fill="#3b2c23"/><path d="M551.438,285.068c-.712,3.3,1.513,9.076,2.869,14.262,2.773,10.612,11.168,11.953,16.787,20.252l-33.081,17.887c-13.669-11-28.9-27.267-33.413-38.547-1.48-3.681-4.782-13.337-6.627-18.535-.1-.264-9.252-9.244-9.232-9.536.716-12.245.052-13.145,3.285-16.739,4.038-4.506,16.555,3.137,16.555,3.137s2.161,10.876,5.3,12.385c2.5,1.2,4.926,1.257,8.523.224,3.573-1.108,6.855-3.081,8.287-5.458,1.8-2.985-2.249-15.282-2.249-15.282s6.847-5.006,13.469-2.417c.98.392,10.456,2.5,12.777,12.489.216.96-8.3,8.84-8.087,9.788C548.157,276.092,551.982,282.595,551.438,285.068Z" transform="translate(-488.741 -206.507)" fill="#62b2f0"/><path d="M536.436,294.039c-1.653-6.594-12.521-1.312-18.448.324v-1.313c6.923-3.625,15.482-3.3,20.1-10.868,2.961-5.274,7.575-10.208,6.591-16.467a34.388,34.388,0,0,0-10.876-19.6,19.058,19.058,0,0,0-5.358,2.541s4.046,12.3,2.249,15.282c-1.433,2.377-4.714,4.35-8.287,5.458-3.6,1.032-6.026.98-8.523-.224-3.137-1.509-5.3-12.385-5.3-12.385s-12.517-7.643-16.555-3.137c-3.233,3.593-2.569,4.494-3.285,16.739-.02.292,9.136,9.272,9.232,9.536,1.845,5.2,5.146,14.854,6.627,18.535,2.009,5.038,6.175,11.076,11.369,17.2C525.724,310.626,539.381,305.24,536.436,294.039Z" transform="translate(-488.741 -206.043)" fill="#d5d7db"/><path d="M533.885,299.688c-1.357-5.186-3.582-10.964-2.869-14.262.544-2.473-3.281-8.976-4.838-16.09-.208-.948,8.1-8.792,8.087-9.788-.108-14.458-11.977-11.8-12.777-12.489-3.942-3.377-10.388,1.252-12.757,1.953,5.626,4.95,9.212,12.337,10.684,20.132.988,6.255-1.581,8.3-4.55,13.573-4.606,7.567-10.376,7.531-17.3,11.156v1.313c5.927-1.637,16.795-6.919,18.448-.324,2.945,11.2-10.712,16.587-20.468,21.617a170.392,170.392,0,0,0,22.045,21.349l33.081-17.887C545.053,311.64,536.658,310.3,533.885,299.688Z" transform="translate(-468.318 -206.865)" fill="#e0e0e0"/><path d="M512.941,266.967a58.071,58.071,0,0,1,.3,12.281c.072.26.128.492.168.64.456,1.685.876,3.385,1.349,5.054a21.583,21.583,0,0,0,1.7,4.822c.632,1.12,1.073,1.221,1.617-.048,1.361-3.169,1.9-6.887,2.589-10.248A58.362,58.362,0,0,0,522,266.082c-.052-1.773-.124-3.533-.2-5.306a70.512,70.512,0,0,0-2.757-9.316c-1.649-4.414-3.233-9.552-7.211-12.481a11.072,11.072,0,0,0-7.587-1.973,11.956,11.956,0,0,0-5.034,1.5c-1.649.956-4.094,1.917-4.11,4.134a3.1,3.1,0,0,0,.668,2.049.631.631,0,0,0,.532.6,2.267,2.267,0,0,0,.236.064c.168.1.34.2.528.288a1.4,1.4,0,0,0,.252.1,3.038,3.038,0,0,0,.776.208,20.452,20.452,0,0,1,5.082,4.31c2.153,2.269,2.545,5.438,4.5,7.831a1.026,1.026,0,0,0,1.741-.324c.04-.172.1-.336.148-.5.084.168.168.352.26.528.452.936.876,1.869,1.269,2.837A28.538,28.538,0,0,1,512.941,266.967Z" transform="translate(-469.636 -233.516)" fill="#3b2c23"/><path d="M514.619,241.661c-.3-2.2-2.829-2.841-4.586-3.586a12.342,12.342,0,0,0-5.186-.848,11.071,11.071,0,0,0-7.279,2.917c-3.577,3.4-4.506,8.7-5.586,13.289-1.8,7.563-2.125,15.51-2.193,23.265-.008,1.164-.04,2.333-.112,3.5.372.432.736.856,1.084,1.289a29.922,29.922,0,0,0,5.342,5.374,8.739,8.739,0,0,0,2.829,1.317,2.778,2.778,0,0,0,.392.088,3.218,3.218,0,0,0,.016-.392c.032-.6.1-1.216.084-1.829a59.875,59.875,0,0,1-.14-6.619c.124-1.865.276-3.746.528-5.6.052-.38.12-1.2.26-2.113-.08-1.221-.108-2.449-.08-3.661.044-1.533-.264-8.623-.1-10.284a12.536,12.536,0,0,1,3.177-6.727,27.184,27.184,0,0,1,7.071-5.562,25.759,25.759,0,0,0,3.481-2.313c.324-.272.668-.572,1.033-.828A3.367,3.367,0,0,0,514.619,241.661Z" transform="translate(-485.932 -232.748)" fill="#3b2c23"/></g><g transform="translate(519.061 310.13)"><g transform="translate(0 62.814)"><path d="M517.362,281.217H495.785a3.142,3.142,0,0,1-2.929-2.341l-3.477-15.53A1.845,1.845,0,0,1,491.251,261h26.111a2.4,2.4,0,0,1,2.4,2.4V278.82A2.4,2.4,0,0,1,517.362,281.217Z" transform="translate(-489.322 -260.997)" fill="#62b2f0"/><path d="M508.9,274.285a2.159,2.159,0,0,1,0,3.061h0a2.164,2.164,0,0,1-3.065,0l-9.524-9.524a2.159,2.159,0,0,1,0-3.061h0a2.164,2.164,0,0,1,3.065,0Z" transform="translate(-470.267 -251.608)" fill="#2278ba"/><g transform="translate(268.57)"><path d="M561.034,281.217h21.581a3.125,3.125,0,0,0,2.917-2.341l3.485-15.53A1.841,1.841,0,0,0,587.145,261H561.034a2.4,2.4,0,0,0-2.389,2.4V278.82A2.394,2.394,0,0,0,561.034,281.217Z" transform="translate(-549.811 -260.997)" fill="#62b2f0"/><path d="M557.068,274.285a2.174,2.174,0,0,0,0,3.061h0a2.169,2.169,0,0,0,3.069,0l9.524-9.524a2.16,2.16,0,0,0,0-3.061h0a2.159,2.159,0,0,0-3.061,0Z" transform="translate(-556.438 -251.608)" fill="#2278ba"/></g></g><g transform="translate(27.364 133.514)"><path d="M543.963,295.672v42.209a17.017,17.017,0,0,1-16.751,16.851H513.167a17.012,17.012,0,0,1-17.007-17V295.672a17.005,17.005,0,0,1,17.007-17.007H526.96A17,17,0,0,1,543.963,295.672Z" transform="translate(-496.16 -278.665)" fill="#26252e"/><g transform="translate(18.888 41.043)"><rect width="2.615" height="35.022" transform="translate(7.409)" fill="#26252e"/><rect width="2.626" height="35.022" fill="#26252e"/></g><g transform="translate(27.813 32.329)"><path d="M523.1,289.628v3.814l-18.894,19-1.1,1.1v-3.791l1.1-1.11Z" transform="translate(-503.11 -278.088)" fill="#26252e"/><path d="M523.1,292.512v3.806l-16.753,16.85h-3.24v-.539l1.1-1.1Z" transform="translate(-503.11 -269.432)" fill="#26252e"/><path d="M523.1,286.744v3.818l-18.894,19-1.1,1.1v-3.795l1.1-1.094Z" transform="translate(-503.11 -286.744)" fill="#26252e"/></g><g transform="translate(0.001 32.329)"><path d="M496.16,289.628v3.814l18.887,19,1.106,1.1v-3.791l-1.106-1.11Z" transform="translate(-496.16 -278.088)" fill="#26252e"/><path d="M496.16,292.512v3.806l16.761,16.85h3.232v-.539l-1.106-1.1Z" transform="translate(-496.16 -269.432)" fill="#26252e"/><path d="M496.16,286.744v3.818l18.887,19,1.106,1.1v-3.795l-1.106-1.094Z" transform="translate(-496.16 -286.744)" fill="#26252e"/></g><g transform="translate(205.337)"><path d="M595.277,295.672v42.209a17.017,17.017,0,0,1-16.751,16.851H564.481a17.01,17.01,0,0,1-17.007-17V295.672a17,17,0,0,1,17.007-17.007h13.8A17,17,0,0,1,595.277,295.672Z" transform="translate(-547.473 -278.665)" fill="#26252e"/><g transform="translate(18.894 41.043)"><rect width="2.614" height="35.022" transform="translate(7.401)" fill="#26252e"/><rect width="2.614" height="35.022" fill="#26252e"/></g><g transform="translate(27.812 32.329)"><path d="M574.417,289.628v3.814l-18.894,19-1.1,1.1v-3.791l1.1-1.11Z" transform="translate(-554.424 -278.088)" fill="#26252e"/><path d="M574.417,292.512v3.806l-16.749,16.85h-3.244v-.539l1.1-1.1Z" transform="translate(-554.424 -269.432)" fill="#26252e"/><path d="M574.417,286.744v3.818l-18.894,19-1.1,1.1v-3.795l1.1-1.094Z" transform="translate(-554.424 -286.744)" fill="#26252e"/></g><g transform="translate(0 32.329)"><path d="M547.474,289.628v3.814l18.894,19,1.1,1.1v-3.791l-1.1-1.11Z" transform="translate(-547.474 -278.088)" fill="#26252e"/><path d="M547.474,292.512v3.806l16.749,16.85h3.243v-.539l-1.1-1.1Z" transform="translate(-547.474 -269.432)" fill="#26252e"/><path d="M547.474,286.744v3.818l18.894,19,1.1,1.1v-3.795l-1.1-1.094Z" transform="translate(-547.474 -286.744)" fill="#26252e"/></g></g></g><g transform="translate(22.858 98.058)"><path d="M757.183,292.5V342.54a18.694,18.694,0,0,1-16.631,18.131,1439.456,1439.456,0,0,1-207.667,1.537q-10.606-.69-21.208-1.537a18.516,18.516,0,0,1-13.017-7.523,18.142,18.142,0,0,1-3.625-10.608V292.5a18.751,18.751,0,0,1,13.894-17.647,17.5,17.5,0,0,1,2.749-.488,1439.555,1439.555,0,0,1,228.876,0A18.73,18.73,0,0,1,757.183,292.5Z" transform="translate(-495.034 -269.804)" fill="#2278ba"/></g><g transform="translate(18.384 84.167)"><path d="M765.021,289.806v51.753a19.341,19.341,0,0,1-17.2,18.747,1487.14,1487.14,0,0,1-214.762,1.589q-10.972-.708-21.937-1.589a19.125,19.125,0,0,1-13.449-7.771,18.691,18.691,0,0,1-3.754-10.976V289.806a19.076,19.076,0,0,1,5.59-13.133,18.539,18.539,0,0,1,1.961-1.749,18.857,18.857,0,0,1,6.811-3.365,16.681,16.681,0,0,1,2.841-.5,1485.851,1485.851,0,0,1,236.7,0,19.355,19.355,0,0,1,17.2,18.752Z" transform="translate(-493.916 -266.333)" fill="#62b2f0"/></g><path d="M742.25,331.323c-6.971-17.975-12.929-36.286-18.624-54.686-4.506-11.493-15.422-23.373-27.971-25.738a517.7,517.7,0,0,0-152.429.084c-12.529,2.357-23.421,14.262-27.867,25.742-5.574,18.363-11.4,36.639-18.191,54.6A506.372,506.372,0,0,0,742.25,331.323Z" transform="translate(-465.771 -245.3)" fill="#62b2f0"/><path d="M498.166,325.158S510.155,290,514.733,274.941c3.854-9.824,13.489-20.82,24.558-22.957A513.091,513.091,0,0,1,690.3,251.9c11.076,2.125,20.764,13.117,24.666,22.957,4.694,15.126,16.947,50.3,16.947,50.3Z" transform="translate(-462.775 -242.124)" fill="#26252e"/><path d="M555.323,253.68a5.085,5.085,0,0,1-5.09,5.09H528.468a5.089,5.089,0,0,1-5.086-5.09h0a5.088,5.088,0,0,1,5.086-5.086h21.765a5.084,5.084,0,0,1,5.09,5.086Z" transform="translate(-387.087 -235.412)" fill="#1c1c1f"/><g transform="translate(66.823 37.38)"><path d="M563.668,300.227V267.358a12.72,12.72,0,0,0-12.729-12.717h-32.2a12.716,12.716,0,0,0-12.721,12.717v32.869Z" transform="translate(-506.021 -254.641)" fill="#1c1c1f"/><path d="M591.971,300.227V267.358a12.72,12.72,0,0,0-12.729-12.717h-32.2a12.72,12.72,0,0,0-12.725,12.717v32.869Z" transform="translate(-421.079 -254.641)" fill="#1c1c1f"/></g><path d="M757.966,277.2l-8.992-10.4H504.309l-9.386,10.4Z" transform="translate(-472.51 -180.775)" fill="#62b2f0"/><path d="M.8,0H70.816a.795.795,0,0,1,.795.795V14.539a.8.8,0,0,1-.8.8H.793A.793.793,0,0,1,0,14.542V.8A.8.8,0,0,1,.8,0Z" transform="translate(118.108 174.842)" fill="#26252e"/><path d="M735.5,271.466l-27.127,22.529a15.99,15.99,0,0,1-10.2,4.422H536.644a15.994,15.994,0,0,1-10.192-4.422l-27.223-22.529c-2.289-2.441-1.429-4.414,1.925-4.414H733.587C736.936,267.052,737.793,269.025,735.5,271.466Z" transform="translate(-463.43 -180.009)" fill="#83c8fc"/><g transform="translate(14.278 113.118)"><path d="M539.057,296.861v5.29a10.119,10.119,0,0,1-10.116,10.124H503.01a10.125,10.125,0,0,1-10.12-10.124V283.688a10.119,10.119,0,0,1,10.12-10.12h8.767a17.778,17.778,0,0,1,9.74,3.5l13.3,11A13,13,0,0,1,539.057,296.861Z" transform="translate(-492.89 -273.568)" fill="#2278ba"/><path d="M500.735,306.971a7.1,7.1,0,0,1-7.087-7.095V281.413a7.087,7.087,0,0,1,7.087-7.087H509.5a14.716,14.716,0,0,1,7.815,2.809l13.3,11a10.056,10.056,0,0,1,3.141,6.451v5.29a7.108,7.108,0,0,1-7.091,7.095Z" transform="translate(-490.615 -271.293)" fill="#e0e0e0"/><path d="M551.153,296.861v5.29a10.12,10.12,0,0,0,10.124,10.124H587.2a10.114,10.114,0,0,0,10.116-10.124V283.688a10.108,10.108,0,0,0-10.116-10.12h-8.763a17.8,17.8,0,0,0-9.748,3.5l-13.293,11A13.039,13.039,0,0,0,551.153,296.861Z" transform="translate(-318.008 -273.568)" fill="#2278ba"/><path d="M559,306.971a7.1,7.1,0,0,1-7.091-7.095v-5.29a10,10,0,0,1,3.145-6.451l13.293-11a14.68,14.68,0,0,1,7.811-2.809h8.763a7.091,7.091,0,0,1,7.091,7.087v18.464a7.1,7.1,0,0,1-7.091,7.095Z" transform="translate(-315.732 -271.293)" fill="#e0e0e0"/></g><rect width="37.488" height="12.575" transform="translate(41.097 162.642)" fill="#2278ba"/><rect width="37.495" height="12.575" transform="translate(229.289 162.642)" fill="#2278ba"/><g transform="translate(37.043 4.234)" opacity="0.3"><g transform="translate(7.179)"><path d="M610.089,246.358c-3.562,0-7.119.052-10.692.12L502.986,296c-.872,2.637-1.761,5.286-2.613,7.839l111.885-57.463C611.534,246.366,610.818,246.358,610.089,246.358Z" transform="translate(-500.373 -246.358)" fill="#242130"/></g><g transform="translate(0 0.076)"><path d="M623.709,246.377,504.485,307.61c-3.281,9.752-5.906,17.491-5.906,17.491h9.416l149.952-77.015C646.518,247.125,635.082,246.565,623.709,246.377Z" transform="translate(-498.579 -246.377)" fill="#242130"/></g><g transform="translate(160.16 46.659)"><path d="M601.184,258.018,538.6,290.159h15.554l49.32-25.33C602.7,262.568,601.944,260.279,601.184,258.018Z" transform="translate(-538.603 -258.018)" fill="#242130"/></g></g><g transform="translate(83.642 124.42)"><path d="M650.808,305.094a15.37,15.37,0,0,1-12.661,14.55,480.366,480.366,0,0,1-115.258,0,15.381,15.381,0,0,1-12.665-14.55V294.418a15.374,15.374,0,0,1,12.665-14.55,479.55,479.55,0,0,1,115.258,0,15.363,15.363,0,0,1,12.661,14.55Z" transform="translate(-510.224 -276.393)" fill="#ccc"/><path d="M577.412,315.7a480.516,480.516,0,0,1-57.007-3.433,11.127,11.127,0,0,1-9.044-10.412V291.294a11.123,11.123,0,0,1,9.044-10.412,475.57,475.57,0,0,1,114.018,0,11.128,11.128,0,0,1,9.044,10.412v10.556a11.107,11.107,0,0,1-9.044,10.4A477.968,477.968,0,0,1,577.412,315.7Z" transform="translate(-506.808 -273.209)" fill="#26252e"/></g><g transform="translate(90.933 136.083)"><path d="M638.048,281.916a2.6,2.6,0,0,1-2.6,2.6H514.643a2.6,2.6,0,0,1-2.6-2.6h0a2.6,2.6,0,0,1,2.6-2.609H635.452a2.6,2.6,0,0,1,2.6,2.609Z" transform="translate(-512.046 -279.307)" fill="#1c1c1f"/><path d="M638.048,284.133a2.6,2.6,0,0,1-2.6,2.609H514.643a2.6,2.6,0,0,1-2.6-2.609h0a2.6,2.6,0,0,1,2.6-2.6H635.452a2.6,2.6,0,0,1,2.6,2.6Z" transform="translate(-512.046 -272.629)" fill="#1c1c1f"/><path d="M638.048,286.452a2.6,2.6,0,0,1-2.6,2.6H514.643a2.6,2.6,0,0,1-2.6-2.6h0a2.6,2.6,0,0,1,2.6-2.6H635.452a2.592,2.592,0,0,1,2.6,2.6Z" transform="translate(-512.046 -265.668)" fill="#1c1c1f"/></g><path d="M508.213,282.419a6.887,6.887,0,1,1-6.887-6.887A6.881,6.881,0,0,1,508.213,282.419Z" transform="translate(-473.962 -154.555)" fill="#fff"/><path d="M569.684,282.419a6.887,6.887,0,1,1-6.883-6.887A6.877,6.877,0,0,1,569.684,282.419Z" transform="translate(-289.451 -154.555)" fill="#fff"/><rect width="5.885" height="14.474" transform="translate(149.328 4.235)" fill="#1c1c1f"/><g transform="translate(44.442 154.268)"><rect width="27.152" height="12.638" fill="#e0e0e0"/><rect width="27.144" height="12.638" transform="translate(191.839)" fill="#e0e0e0"/></g><path d="M509.858,291.871a6.843,6.843,0,1,0-6.847,6.847A6.841,6.841,0,0,0,509.858,291.871Z" transform="translate(-468.761 -126.028)" fill="#e0e0e0"/><path d="M569.606,291.871a6.841,6.841,0,1,0-6.847,6.847A6.841,6.841,0,0,0,569.606,291.871Z" transform="translate(-289.409 -126.028)" fill="#e0e0e0"/><path d="M540.451,276.721c0-1.765-3.341-3.193-7.467-3.193s-7.479,1.429-7.479,3.193c0,1.749,3.345,3.185,7.479,3.185S540.451,278.47,540.451,276.721Z" transform="translate(-380.715 -160.57)" fill="#fff"/></g></g></g></svg>