<svg xmlns="http://www.w3.org/2000/svg" width="367.039" height="369.963" viewBox="0 0 367.039 369.963"><g transform="translate(-1309.957 -441.365)"><g transform="translate(1309.957 767.888)"><path d="M1467.215,722.022a242.461,242.461,0,0,0-30.1,1.6c-3.779.484-7.477,1.551-11.264,1.98-7.563.859-14.992,2.461-22.584,3.2-6.113.594-12.251.946-18.346,1.7a56.126,56.126,0,0,1-17.711-.625c-4.2-.866-8.415-1.353-12.542-2.745a45.063,45.063,0,0,0-14.444-2.627c-6.86.057-13.54.063-20.1,2.81a19.324,19.324,0,0,0-6.876,4.574c-4.006,4.632-4.548,16.19-.548,21,6.736,8.086,21.115,11.259,30.559,11.409,10.348.164,20.4-.723,30.764-1.243,9.63-.484,19.235-1.173,28.881-1.148,19.7.049,39.4,0,59.068-1.518,18.475-1.425,37-.937,55.512-.937,18.987,0,37.847.172,56.7,3.083,8.213,1.267,16.58,1.711,24.835,2.6,7.392.8,14.5-.015,21.86-.75a46.875,46.875,0,0,0,17.943-5.544c4.445-2.451,12.372-10.064,13.736-15.912,3.823-16.4-53.872-16-62.731-15.966-9.909.041-19.9.416-29.8-.019a61.607,61.607,0,0,1-12.335-2.151c-4.049-1.024-8.128-.763-12.235-1.195-17.124-1.8-34.285-1.533-51.463-1.533C1478.4,722.059,1472.809,722,1467.215,722.022Z" transform="translate(-1309.957 -722.018)" opacity="0.07"/></g><g transform="translate(1309.957 441.365)"><g transform="translate(0 100.706)"><path d="M1448.679,587.352a5.758,5.758,0,0,1,.889-2.812,1.831,1.831,0,0,1,2.6-.411c1.7,1.7.98,1.874,3.3,1.453,3.426-.622,6.221-4.569,9-1.5,2.7,2.982.515,4.241-2.283,5.543-2.2,1.028-4.657,1.93-6.333,3.778-1.1,1.215-4.345,6.451-4.345,7.874a1.647,1.647,0,0,1-.576.675,1.55,1.55,0,0,1-1.5-.291C1443.657,597.964,1447.893,592.784,1448.679,587.352Z" transform="translate(-1287.649 -518.934)" fill="#b77858"/><path d="M1353.937,648.29c-5.174,9-11.355,17.869-12.809,28.148-.54,3.808-.244,8.1,2.422,10.87,2.652,2.755,6.825,3.219,10.636,3.519q8.672-24.713,17.345-49.429,4.295-12.244,8.592-24.488c2.158-6.15,7.93-16.188,7.429-22.52-7.665-.1-14.661,17.134-17.6,22.707C1364.5,627.436,1359.766,638.149,1353.937,648.29Z" transform="translate(-1304.899 -517.06)" fill="#8ec3cb"/><g transform="translate(15.917)"><path d="M1450.417,710.135c-.979-8.468-5.223-15.19-13.064-18.871-6.359-2.985-13.509-3.687-20.477-4.582-15.52-1.992-30.336-3.982-46-3.366-12.531.492-20.254,11.183-26.119,21.727-3.7,6.646-2.67,9.763,1.984,15.328a56.259,56.259,0,0,0,15.313,12.8c11.516,6.544,29.208,4.927,41.891,3.512A97.872,97.872,0,0,0,1438.3,726.2C1445.177,722.612,1451.371,718.38,1450.417,710.135Z" transform="translate(-1320.553 -502.545)" fill="#2a3693"/><path d="M1369.428,729.31a148.135,148.135,0,0,0-5.44,14.91,25.276,25.276,0,0,0-1.462,8.232c.243,6.553,7.533,11.3,12.3,5.241a32.923,32.923,0,0,0,4.946-8.8c1.747-4.663-1.943-1.946-5.061-3.379-3.59-1.649-3.5-2.931-1.979-6.3,1.964-4.335,4.288-7.16,4.009-12.146-.077-1.377-.465-2.975-1.735-3.514a2.792,2.792,0,0,0-2.882.7,7.923,7.923,0,0,0-1.649,2.646Q1369.942,728.106,1369.428,729.31Z" transform="translate(-1317.283 -495.974)" fill="#292949"/><g transform="translate(0 71.346)"><path d="M1406.693,590.219c5.9-.786,11.9-1.857,16.84.3,4.188,1.825,4.116,7.113,5.053,11.112,3.1,13.225,5.426,26.612,7.25,40.069.871,6.434,2.377,13.324,2.34,19.822-.03,5.215-1.336,10.284-.934,15.6.308,4.084,2.044,8.491,5.782,10.16,1.881.84,4.043.88,5.929,1.71s3.5,3.052,2.55,4.881a5.085,5.085,0,0,1-2.209,1.871l-13.989,7.8a74.79,74.79,0,0,1-10.982,5.36,59.086,59.086,0,0,1-17.022,2.911,140.194,140.194,0,0,1-44.313-4.861c-7.745-2.137-15.227-5.929-13.348-14.692,1.934-9.018,5.674-18.017,9.707-26.275,4.882-10,6.33-22.045,9.788-32.594,3.209-9.79,6.456-19.6,10.011-29.271,1.745-4.749,4.833-9.2,9.395-11.6C1394.18,589.55,1400.578,591.033,1406.693,590.219Z" transform="translate(-1319.436 -589.246)" fill="#8ec3cb"/><g transform="translate(0 100.538)"><path d="M1412.773,732.177l4.03.215c1.459.078,3.088.1,4.174-.877,1.326-1.193,1.176-3.446.1-4.87a8.781,8.781,0,0,0-4.5-2.729,47.754,47.754,0,0,0-12.741-1.888,3.065,3.065,0,0,0-1.277.133,2.632,2.632,0,0,0-1.329,1.73C1398.791,731.3,1407.554,731.9,1412.773,732.177Z" transform="translate(-1311.024 -668.084)" fill="#b77858"/><path d="M1366.67,744.129a3.242,3.242,0,0,0,.116,1.779,2.365,2.365,0,0,0,.9.934c2.77,1.766,6.5-.136,8.616-2.646s3.558-5.683,6.263-7.547c6.193-4.265.525-12.075-5.948-10.285C1369.061,728.456,1367.477,737.532,1366.67,744.129Z" transform="translate(-1316.615 -667.417)" fill="#b77858"/><path d="M1449.1,712.158c5.347-3.93,10.709-8.384,12.663-15s-.8-15.965-7.7-19.781c-8.412-4.653-16.674,1.065-22.672,6.463-12.287,11.044-25.677,20.809-38.769,30.913-4.425,3.414-19.774,15.984-19.774,15.984-.422,1.772,7.828,17.8,10.015,17.214C1406.742,741.634,1429.97,726.214,1449.1,712.158Z" transform="translate(-1315.598 -675.661)" fill="#474ebb"/><path d="M1336.941,718.829c-5.237-2.549-10.5-5.619-12.573-11.74s.284-16.194,6.769-21.8c7.908-6.839,15.988-3.255,21.891.6,12.093,7.875,25.2,14.182,38.036,20.906,4.337,2.272,19.407,10.882,19.407,10.882.457,1.665-6.95,19.853-9.061,19.832C1378.368,737.367,1355.671,727.947,1336.941,718.829Z" transform="translate(-1323.637 -674.718)" fill="#474ebb"/></g><path d="M1404.159,734.939a150.029,150.029,0,0,0,14.785,6.234,25.534,25.534,0,0,0,8.239,1.885c6.628.081,11.785-7.045,5.9-12.16a33.3,33.3,0,0,0-8.635-5.43c-4.621-2-2.062,1.865-3.663,4.942-1.844,3.543-3.134,3.391-6.456,1.686-4.279-2.2-7.016-4.686-12.064-4.653-1.4.009-3.027.322-3.635,1.578a2.823,2.823,0,0,0,.567,2.945,7.981,7.981,0,0,0,2.589,1.8Q1402.97,734.361,1404.159,734.939Z" transform="translate(-1311.414 -567.072)" fill="#292949"/></g><g transform="translate(22.147)"><g transform="translate(37.121 12.735)"><g transform="translate(0 12.175)"><path d="M1393.643,604.522a3.923,3.923,0,0,0,.73.68,10.182,10.182,0,0,0,4.073,1.438,11.884,11.884,0,0,0,5.595.206c5.885-1.711,3.218-11.783,2.581-15.965,3.818-1.407,8.22-3.55,8.8-8.011a14.359,14.359,0,0,0-.309-4.269q-1.529-8.778-3.056-17.554a17.522,17.522,0,0,0-1.743-5.859c-1.787-3.076-5.166-4.489-8.354-5.185-8.135-1.778-16.927-.054-23.1,5.693a13.1,13.1,0,0,0-3.809,5.657c-1.067,3.51-.141,7.436.788,11.093q1.286,5.063,2.571,10.128c.985,3.882,2.385,8.3,5.753,9.838,1.788.816,3.877.646,5.5,1.824C1393.086,596.7,1391.4,601.827,1393.643,604.522Z" transform="translate(-1374.58 -549.333)" fill="#b77858"/></g><path d="M1402.128,557.72a5.894,5.894,0,0,1,.66.9c.991,1.682.98,3.808,1.957,5.5,1.549,2.678,5.252,3.73,6.361,6.619.906,2.363-.3,5.026.062,7.531.392,2.736,2.641,4.949,2.911,7.674a18.022,18.022,0,0,1-1.59,8.063c.313-.662,4.238-1.24,5.121-2.059,1.354-1.254,1.41-1.884,1.545-3.585s-.536-3.192-.156-4.971c.466-2.184,1.962-4.019,2.157-6.285.268-3.094-1.908-5.863-2.4-8.928-.745-4.641,2.359-9.781.032-13.865-1.365-2.4-4.187-3.535-6.056-5.562-1.418-1.54-2.228-3.53-3.352-5.3s-2.781-3.426-4.866-3.61a33.961,33.961,0,0,0-3.472.285c-2.01.03-3.891-.983-5.885-1.238-2.854-.365-7.021,3.287-8.123,5.864-1.095,2.56.071,4.312,2.054,5.98C1392.39,553.516,1399.194,554.4,1402.128,557.72Z" transform="translate(-1372.613 -538.869)" fill="#292949"/></g><path d="M1365.771,552.311c-1.365,1.5-3.169,2.745-4.355,4.412-2.309,3.25-1.99,7.638-1.3,11.567.611,3.5-.289,6.9.82,10.445a9.045,9.045,0,0,0,4.548,5.676c2.828,1.294,6.762.806,8.437,3.427,1.818,2.847-.6,7.382,1.886,9.674,1.371,1.263,3.515,1.058,5.248,1.743,1.934.764,3.212,2.569,4.61,4.109s3.321,2.978,5.367,2.611c-.542-3.117-.946-5.593-2.842-8.16-1.1-1.5-3.991-4.085-2.606-6.226.8-1.708,3.3-2.715,2.995-4.577a4.35,4.35,0,0,0-1.523-2.12,10.852,10.852,0,0,1-2.733-9.508,14.108,14.108,0,0,1,5.437-8.459c3.2-2.433,2.454-3.183,2.8-6.785.319-3.316,1.944-4.406,4.526-6.112,2.32-1.531,3-2.333,3.458-4.883.333-1.867.755-4.108-.624-5.838a11.881,11.881,0,0,0-4.312-2.955c-3.3-1.606-6.983-3.252-10.522-2.27-1.965.547-3.652,1.862-5.626,2.378-1.316.343-2.7.315-4.041.54a10.819,10.819,0,0,0-6.113,3.281c-1.581,1.739-1.24,3.156-1.881,5.3A7.08,7.08,0,0,1,1365.771,552.311Z" transform="translate(-1339.906 -526.311)" fill="#292949"/><path d="M1378.11,539.556c-.086-2.23-.878-5-3.088-5.313-1.211-.172-2.39.521-3.612.52-2.606,0-4.07-2.864-5.824-4.791a1.94,1.94,0,0,0-.945-.66,3.136,3.136,0,0,0-1.607.368c-2.43.806-4.819-1.27-7.345-1.689a6.009,6.009,0,0,0-6.688,5.192c-.112,1.3.216,2.6.127,3.9-.362,5.263-7.238,8.858-6.38,14.064.579,3.517,4.672,6.174,4,9.674-.433,2.238-2.807,4.184-2.057,6.336a3.146,3.146,0,0,0,3.629,1.739,6.326,6.326,0,0,0,3.487-2.529c1.417-1.848,2.323-4.035,3.64-5.954s3.24-3.649,5.562-3.823c2.248-.169,4.577,1.139,6.683.334,1.685-.645,2.666-2.461,4.29-3.244,1.519-.733,3.312-.44,4.983-.674s3.526-1.5,3.237-3.163a4.248,4.248,0,0,1-.216-1.2c.137-1.137,1.97-1.443,2.1-2.581-1.13-1.155-2.25-.434-3.218-2.044C1378.115,542.771,1378.164,540.957,1378.11,539.556Z" transform="translate(-1342.673 -527.924)" fill="#292949"/></g></g><g transform="translate(0 120.794)"><path d="M1314.261,697.761l66.982-23.863,83.994,1.159-46.64,22.7Z" transform="translate(-1309.253 -624.859)" fill="#e6e6e6"/><path d="M1314.964,698.78l-5.008-65.729,103.7-1.3,5.641,70.279Z" transform="translate(-1309.957 -631.748)" fill="#c6cccc"/><path d="M1463.788,674.885l-45.038,20.033c-.056.024-.1.059-.152.087v-3.25H1314.261v5.871h103.315a1.528,1.528,0,0,0,2.182,1.21L1464.8,678.8C1467.015,677.815,1466.042,673.882,1463.788,674.885Z" transform="translate(-1309.253 -624.725)" fill="#b9c1c1"/></g><path d="M1434.624,619.851a195.083,195.083,0,0,1,11.171-19.123c1.244-1.875,3.839-7.474,6.015-8.148,2.471-.766,8.2,2.106,10.486,3.052a359.161,359.161,0,0,1-14.922,46.421c-.877,2.2-1.827,4.47-3.571,6.076-3.6,3.316-9.571,2.655-13.578-.157s-6.516-7.24-8.893-11.52c-4.162-7.494-8.952-15.428-10.882-23.875-1.2-5.238-5.454-14.1-.547-18.461s9.112-.481,12,3.782c2.372,3.495,4.555,7.139,6.671,10.793C1429.372,610.058,1435.27,618.586,1434.624,619.851Z" transform="translate(-1293.999 -517.417)" fill="#8ec3cb"/></g><g transform="translate(226.127)"><g transform="translate(0.309)"><g transform="translate(21.394 28.115)"><path d="M1528.366,480.684a48.6,48.6,0,0,0,10.237,7.824,82.7,82.7,0,0,1-7.582-21.3,2.167,2.167,0,0,0-.76-1.5,2.032,2.032,0,0,0-1.57-.049C1519.37,468.038,1523.057,475.374,1528.366,480.684Z" transform="translate(-1522.972 -465.53)" fill="#292949"/></g><path d="M1555.016,492.538a13.981,13.981,0,0,0,1.455-2c5.628-9.385,5.372-44.588-19.79-39.956-22.848,4.2-8.112,31.173,1.5,40.69a16.693,16.693,0,0,0,6.835,4.414c.727.211.509,7.287,1.153,8.352a5.278,5.278,0,0,0,6.511,1.77,8.789,8.789,0,0,0,4.135-5.446C1557.116,498.93,1554.49,493.142,1555.016,492.538Z" transform="translate(-1501.317 -439.927)" fill="#eac5b0"/><g transform="translate(44.357 4.417)"><path d="M1552.326,483.19c2.3,1.226,5-.759,6.56-2.842a25.322,25.322,0,0,0-.288-29.856c-5.5-7.059-18.329-8.015-15.483,2.708,1.01,3.8,5.491,7.534,6.917,11.6C1552.07,470.61,1552.127,477.109,1552.326,483.19Z" transform="translate(-1542.709 -445.162)" fill="#292949"/></g><path d="M1515.021,452.474c-6.95,10.63-5.014,24.92-10.438,36.4a37.671,37.671,0,0,0,26.253-13.063c6.378-7.512,24.522-19.616,16.086-29.5C1538.337,436.26,1521.111,443.159,1515.021,452.474Z" transform="translate(-1504.583 -441.365)" fill="#292949"/><g transform="translate(24.005 171.977)"><path d="M1556.032,734.366l-1.856,2.278-.807,2.446,5.576,8.435,5.268,2.024,5.9-.506s2.53-.927,1.012-2.952-5.567-3.037-5.567-3.037l.591-6.811Z" transform="translate(-1520.614 -565.453)" fill="#292949"/><path d="M1537.423,735.248l-.759,4.217-4.133,7.169,1.855,2.277,6.917-.59,4.217-5.989V730.524l-7.929.759Z" transform="translate(-1524.02 -566.081)" fill="#292949"/><g transform="translate(0 3.762)"><path d="M1529.341,592.416l-4.125,22.6,11.637,144.423,12.18-2.554,20.207-159.638Z" transform="translate(-1525.216 -592.416)" fill="#ccd2d9"/></g><g transform="translate(32.755)"><path d="M1588.442,589.977l2.353,93.092-23.644,80.359-13.782-5.125,11.607-71.664-10.658-97.457Z" transform="translate(-1553.369 -589.183)" fill="#ccd2d9"/></g></g><g transform="translate(15.693 54.457)"><path d="M1523.48,512.868c-2.208,4.8-2.617,10.112-3.346,15.9a271.714,271.714,0,0,0-2.031,30.188c-.164,11.716.329,23.426,1.254,35.1q.694,8.755,1.686,17.484c.337,3.014-.993,10.755,2.27,12.341,1.813.881,4.006.688,6.057.472l54.248-5.7c2.9-.3,5.9-.64,8.41-2.03,4.493-2.492,3.715-7.387,4.425-11.511a87.04,87.04,0,0,0,1.041-16.528c-.229-11.341-1.969-22.571-2.785-33.87-.878-12.149-2.826-28.443-7.433-39.993a38.19,38.19,0,0,0-8.981-13.132c-4.981-4.653-9.565-5.825-16.274-7.041a1.726,1.726,0,0,1-.79-.28,1.512,1.512,0,0,1-.422-.752l-1.284-3.922a2.008,2.008,0,0,0-.846-1.28,2.35,2.35,0,0,0-1.562-.007l-13.479,3.065a8.24,8.24,0,0,1,.339,3.125,3.06,3.06,0,0,1-1.867,2.474c-4.6,1.631-9.4,5.254-13.113,8.548A21.871,21.871,0,0,0,1523.48,512.868Z" transform="translate(-1518.071 -488.172)" fill="#d34e4e"/></g></g><g transform="translate(52.336 33.223)"><rect width="61.495" height="106.608" rx="1.747" transform="translate(29.48 0) rotate(16.053)" fill="#292949"/><rect width="52.373" height="86.377" transform="matrix(0.961, 0.277, -0.277, 0.961, 32.329, 6.593)" fill="#e8e9ea"/><rect width="13.764" height="4.516" rx="1.104" transform="translate(25.374 100.571) rotate(16.053)" fill="#fff"/></g><g transform="translate(108.62 120.153)"><path d="M1614.905,562.1a5,5,0,0,1-5.136.954,6.4,6.4,0,0,1-2.63-3.117,30.549,30.549,0,0,1-2.33-6.43c-1.334-5.568,3.424-11.46,9.025-7.659C1618.81,549.224,1619.631,558.317,1614.905,562.1Z" transform="translate(-1596.549 -544.639)" fill="#d34e4e"/><path d="M1601.53,561.911c-1.417-.448-3.072-1.255-3.594-2.848a9.919,9.919,0,0,1,.323-5.446c.534-1.644,2.264-1.334,3.526-.887a7.453,7.453,0,0,0,3.625.618c-.077-1.654-1.83-2.065-2.024-3.653a4.421,4.421,0,0,1,.3-1.988c.076-.214.186-.451.383-.5a.6.6,0,0,1,.393.1c2.9,1.507,5.958,1.039,8.62,3.349,2.841,2.465,2.859,6.048.234,8.77-2.833,2.94-7.591,3.615-11.163,2.663C1601.953,562.039,1601.744,561.979,1601.53,561.911Z" transform="translate(-1597.678 -544.22)" fill="#eac5b0"/></g><g transform="translate(0 66.589)"><g transform="translate(60.621 71.711)"><path d="M1562.566,570.991a55.1,55.1,0,0,0,5.723,3.1,3.723,3.723,0,0,0,3.376.336l2.707-.674a5.879,5.879,0,0,0,1.631-.583c1.281-.768,1.778-2.347,2.174-3.787a1.867,1.867,0,0,0,.093-.9,1.271,1.271,0,0,0-1.137-.875c-1.609-.173-2.147.079-3.779-.739a17.956,17.956,0,0,1-3.952-2.478,3.88,3.88,0,0,1,1.941-.669c.6-.13,1.292-.342,1.489-.922.262-.772-.585-1.473-1.368-1.7-1.571-.456-3.248-.127-4.884-.161-2.432-.051-6.377-1.771-7.97.346-.969,1.288-1.5,3.224-2.19,4.694l4.153,3.523A20.556,20.556,0,0,0,1562.566,570.991Z" transform="translate(-1556.422 -560.237)" fill="#eac5b0"/></g><path d="M1521.735,514.2q2.149-3.115,4.411-6.148c3.331-4.465,7.935-10.547,14.016-9.284,6.838,1.421,7.66,8.259,6.081,13.746-1.8,6.242-14.793,23.429-16.59,29.67,0,0,25.429,16.954,40.719,27.275-1.07,2.115-1.8,6.329-4.026,7.552-5.216,2.869-22.9-6.464-27.855-8.576a133.017,133.017,0,0,1-32.156-19.46,5.174,5.174,0,0,1-1.907-2.354,5.237,5.237,0,0,1,.714-3.581A203.979,203.979,0,0,1,1521.735,514.2Z" transform="translate(-1504.317 -498.6)" fill="#d34e4e"/></g></g></g></g></svg>