<svg xmlns="http://www.w3.org/2000/svg" id="_003-channel" width="44.403" height="44.403" data-name="003-channel" viewBox="0 0 44.403 44.403">
    <defs>
        <style>
            .cls-1{fill:#ffffff}.cls-2{fill:#87AB49}
        </style>
    </defs>
    <circle id="Ellipse_3258" cx="10.5" cy="10.5" r="10.5" class="cls-1" data-name="Ellipse 3258" transform="translate(13 12)"/>
    <path id="Path_50182" d="M37.743 0h-5.92a6.668 6.668 0 0 0-6.66 6.66v7.966a8.029 8.029 0 0 0-5.92 0V6.66A6.668 6.668 0 0 0 12.581 0H6.66A6.668 6.668 0 0 0 0 6.66v.74a6.668 6.668 0 0 0 6.66 6.66h7.226l3.373 1.686a8.169 8.169 0 0 0-2.633 3.494H7.264a2.22 2.22 0 1 0 0 1.48H14.2a8.14 8.14 0 0 0-.141 1.48H9.621a.74.74 0 0 0-.74.74v2.22H7.264a2.22 2.22 0 1 0 0 1.48h2.357a.74.74 0 0 0 .74-.74v-2.22H14.2a8.142 8.142 0 0 0 3.057 4.974l-3.373 1.686H6.66A6.668 6.668 0 0 0 0 37v.74a6.668 6.668 0 0 0 6.66 6.66h5.92a6.668 6.668 0 0 0 6.66-6.66v-7.963a8.029 8.029 0 0 0 5.92 0v7.966a6.668 6.668 0 0 0 6.66 6.66h5.92a6.668 6.668 0 0 0 6.66-6.66V37a6.668 6.668 0 0 0-6.66-6.66h-7.223l-3.373-1.686a8.159 8.159 0 0 0 2.883-4.234h7.112a2.22 2.22 0 1 0 0-1.48H30.3c.022-.244.038-.49.038-.74s-.016-.5-.038-.74h4.478a.74.74 0 0 0 .74-.74V18.5h1.616a2.22 2.22 0 1 0 0-1.48h-2.351a.74.74 0 0 0-.74.74v2.22h-4.016a8.158 8.158 0 0 0-2.887-4.234l3.376-1.686h7.226A6.668 6.668 0 0 0 44.4 7.4v-.74A6.668 6.668 0 0 0 37.743 0zM14.061 12.581H6.66A5.186 5.186 0 0 1 1.48 7.4v-.74a5.186 5.186 0 0 1 5.18-5.18h5.92a5.186 5.186 0 0 1 5.18 5.18v7.683l-3.37-1.685a.739.739 0 0 0-.329-.077zM5.18 20.722a.74.74 0 1 1 .74-.74.74.74 0 0 1-.74.74zm0 5.92a.74.74 0 1 1 .74-.74.74.74 0 0 1-.74.74zm12.581 11.1a5.186 5.186 0 0 1-5.18 5.18H6.66a5.186 5.186 0 0 1-5.18-5.18V37a5.186 5.186 0 0 1 5.18-5.18h7.4a.742.742 0 0 0 .331-.074l3.37-1.689zm12.581-5.92h7.4A5.186 5.186 0 0 1 42.923 37v.74a5.186 5.186 0 0 1-5.18 5.18h-5.92a5.186 5.186 0 0 1-5.18-5.18v-7.68l3.37 1.689a.742.742 0 0 0 .329.073zm8.881-8.881a.74.74 0 1 1-.74.74.74.74 0 0 1 .74-.739zm0-5.92a.74.74 0 1 1-.74.74.74.74 0 0 1 .74-.74zM28.862 22.2a6.66 6.66 0 1 1-6.66-6.66 6.66 6.66 0 0 1 6.66 6.66zM42.923 7.4a5.186 5.186 0 0 1-5.18 5.18h-7.4a.739.739 0 0 0-.331.078l-3.37 1.685V6.66a5.186 5.186 0 0 1 5.18-5.18h5.92a5.186 5.186 0 0 1 5.18 5.18zm0 0" class="cls-2" data-name="Path 50182"/>
    <path id="Path_50183" d="M33.742 363.025l1.158.924a6.637 6.637 0 0 1 10.39 0l1.156-.924a8.118 8.118 0 0 0-12.7 0zm0 0" class="cls-2" data-name="Path 50183" transform="translate(-30.621 -326.662)"/>
    <path id="Path_50184" d="M65.335 392.8a5.212 5.212 0 0 0-6.635 1.25l1.156.924a3.688 3.688 0 0 1 5.773 0l1.156-.924a5.17 5.17 0 0 0-1.45-1.25zm0 0" class="cls-2" data-name="Path 50184" transform="translate(-53.273 -355.84)"/>
    <path id="Path_50185" d="M86.626 424.352a2.215 2.215 0 0 0-2.907.5l1.156.924a.735.735 0 0 1 .962-.169.752.752 0 0 1 .181.169l1.155-.924a2.166 2.166 0 0 0-.547-.5zm0 0" class="cls-2" data-name="Path 50185" transform="translate(-75.974 -384.791)"/>
    <path id="Path_50186" d="M358.29 35.044l-5.18-2.96a.74.74 0 0 0-1.11.642v6.66a.74.74 0 0 0 1.17.6l5.18-3.7a.74.74 0 0 0-.063-1.245zm-4.81 2.9V34l3.07 1.755zm0 0" class="cls-2" data-name="Path 50186" transform="translate(-319.438 -29.026)"/>
    <path id="Path_50187" d="M96 72h1.48v1.48H96zm0 0" class="cls-2" data-name="Path 50187" transform="translate(-87.119 -65.34)"/>
    <path id="Path_50188" d="M64 72h1.48v1.48H64zm0 0" class="cls-2" data-name="Path 50188" transform="translate(-58.08 -65.34)"/>
    <path id="Path_50189" d="M128 72h1.48v1.48H128zm0 0" class="cls-2" data-name="Path 50189" transform="translate(-116.159 -65.34)"/>
    <path id="Path_50191" d="M320.74 368.141h8.881a.74.74 0 0 0 .74-.74v-6.672a.722.722 0 0 0-.042-.24c0-.008-.007-.013-.01-.02s-.024-.04-.035-.063a.739.739 0 0 0-.106-.157.646.646 0 0 0-.062-.059.7.7 0 0 0-.148-.1.825.825 0 0 0-.074-.036.736.736 0 0 0-.263-.052h-8.881a.733.733 0 0 0-.261.052 1.01 1.01 0 0 0-.074.036.7.7 0 0 0-.148.1.645.645 0 0 0-.062.059.738.738 0 0 0-.106.157c-.011.022-.026.041-.035.063s-.008.013-.01.02a.731.731 0 0 0-.042.24V367.4a.74.74 0 0 0 .738.741zm.74-1.48v-4.341l3.227 2.689a.741.741 0 0 0 .947 0l3.227-2.689v4.341zm6.1-5.18l-2.4 2-2.4-2zm0 0" class="cls-2" data-name="Path 50191" transform="translate(-290.398 -326.698)"/>
</svg>
