<svg width="16" height="16" viewBox="0 0 16 16" fill="none" xmlns="http://www.w3.org/2000/svg">
<path fill-rule="evenodd" clip-rule="evenodd" d="M10.7492 7.57419C11.5516 6.80342 12.0542 5.69951 12.0542 4.47344C12.0542 2.14363 10.2395 0.254944 8.00086 0.254944C5.76224 0.254944 3.94748 2.14363 3.94748 4.47344C3.94748 5.69923 4.44984 6.80291 5.25199 7.57366C4.28737 7.97379 3.40103 8.58412 2.65469 9.37748C1.45838 10.6492 0.704447 12.3032 0.498188 14.0694C0.434618 14.6137 0.884892 15.0595 1.43294 15.0595C1.98098 15.0595 2.41719 14.6125 2.50331 14.0712C2.69504 12.8662 3.23435 11.7448 4.05805 10.8693C5.1035 9.75794 6.52144 9.1336 7.99994 9.1336C9.47844 9.1336 10.8964 9.75794 11.9418 10.8693C12.7655 11.7448 13.3048 12.8662 13.4966 14.0712C13.5827 14.6125 14.0189 15.0595 14.5669 15.0595C15.115 15.0595 15.5653 14.6137 15.5017 14.0694C15.2954 12.3032 14.5415 10.6492 13.3452 9.37748C12.5992 8.58447 11.7133 7.97433 10.7492 7.57419ZM8.00086 7.00453C6.65769 7.00453 5.56883 5.87132 5.56883 4.47344C5.56883 3.07555 6.65769 1.94234 8.00086 1.94234C9.34403 1.94234 10.4329 3.07555 10.4329 4.47344C10.4329 5.87132 9.34403 7.00453 8.00086 7.00453Z" fill="#87AB49"/>
</svg>
