<svg xmlns="http://www.w3.org/2000/svg" width="436.891" height="436.891"><defs><style>.cls-3{fill:#38312a}.cls-12,.cls-8{fill:#fff}.cls-9{fill:#fdc63a}.cls-10{fill:#fda23a}.cls-12{stroke:#fff;stroke-linecap:round;stroke-linejoin:round;stroke-width:6px}.cls-15{fill:#0f303f}</style></defs><g id="Group_3865" data-name="Group 3865" transform="translate(299.114 -12.902)"><g id="Symbol_20_64" data-name="Symbol 20 – 64" transform="translate(-915.482 -73.152)"><circle id="Ellipse_1742" cx="152.003" cy="152.003" r="152.003" data-name="Ellipse 1742" transform="translate(682.811 152.497)" style="opacity:.204;fill:#d5d7db"/><circle id="Ellipse_1743" cx="218.445" cy="218.445" r="218.445" data-name="Ellipse 1743" transform="translate(616.369 86.055)" style="opacity:.152;fill:#d5d7db"/></g><g id="Group_3855" data-name="Group 3855" transform="translate(-156.954 131.045)"><g id="Group_3851" data-name="Group 3851" transform="translate(0 20.718)"><path id="Rectangle_5700" d="M0 0h175.253v112.602H0z" class="cls-3" data-name="Rectangle 5700"/><path id="Path_39141" d="M-86.166 206.016h-66.5l18.084-24.186h30.338z" data-name="Path 39141" transform="translate(209.75 -57.512)" style="fill:#adadad"/><path id="Path_39142" d="M-10.253 201.162H-159.8c-7.1 0-12.852-5.249-12.852-11.718v-11.717H2.6v11.718c0 6.468-5.759 11.717-12.853 11.717z" data-name="Path 39142" transform="translate(172.655 -65.126)" style="fill:#dbdbdb"/><path id="Rectangle_5701" d="M0 0h66.502v7.608H0z" data-name="Rectangle 5701" transform="translate(57.084 148.504)"/><g id="Group_3850" data-name="Group 3850" transform="translate(5.137 5.14)"><path id="Rectangle_5702" d="M0 0h79.825v102.322H0z" data-name="Rectangle 5702" style="fill:#c1d64b"/><path id="Rectangle_5703" d="M0 0h85.147v102.322H0z" data-name="Rectangle 5703" transform="translate(79.825)" style="fill:#9fb603"/></g></g><path id="Path_39143" d="M-36.73 131.045h-80.539A28.958 28.958 0 0 0-146.228 160v6.706a28.958 28.958 0 0 0 26.36 28.83l-18.061 33.954 48.99-33.825h52.209a28.96 28.96 0 0 0 28.962-28.956V160a28.955 28.955 0 0 0-28.962-28.955z" class="cls-3" data-name="Path 39143" transform="translate(221.699 -131.045)"/><g id="Group_3854" data-name="Group 3854" transform="translate(117.888 9.133)"><g id="Group_3852" data-name="Group 3852" transform="translate(0 18.78)"><path id="Path_39144" d="M-115.25 149.744a31.18 31.18 0 0 1-1.965-2.622l-13.011 6.337a2.043 2.043 0 0 0-.942 2.73 2.04 2.04 0 0 0 2.73.945l13.874-6.757a5.5 5.5 0 0 1-.686-.633z" class="cls-8" data-name="Path 39144" transform="translate(131.376 -129.121)"/><path id="Path_39145" d="M-104.99 141.967a2.037 2.037 0 0 0-2.73-.94l-9.09 4.424c.148.126.317.228.454.363a7.177 7.177 0 0 1 1.819 3.079l8.6-4.19a2.044 2.044 0 0 0 .947-2.736z" class="cls-8" data-name="Path 39145" transform="translate(158.406 -140.819)"/><path id="Path_39146" d="M-120.445 148.15a9.4 9.4 0 0 1 .7-2.89l-8.69-4.232a2.038 2.038 0 0 0-2.73.94 2.047 2.047 0 0 0 .942 2.736l9.767 4.758c-.011-.435-.023-.869.011-1.312z" class="cls-8" data-name="Path 39146" transform="translate(131.376 -140.819)"/><path id="Path_39147" d="m-103.249 153.3-12.515-6.1c-.111.151-.211.28-.246.326q-1.114 1.512-2.248 3.007l13.22 6.44a2.039 2.039 0 0 0 2.73-.945 2.038 2.038 0 0 0-.941-2.728z" class="cls-8" data-name="Path 39147" transform="translate(155.722 -128.965)"/></g><g id="Group_3853" data-name="Group 3853" transform="translate(6.084)"><path id="Path_39148" d="M-109.033 172.327c-1.205.294-2.276.328-2.856-1.294-.208-.84 1.385-4.884 1.719-5.809a1.592 1.592 0 0 1 1.616-.777v-30.2c-9.881.006-17.569 6.5-18.975 16.987-.423 3.147-2.29 6.411-1.542 9.407.9 3.3 3.747 5.395 4.8 8.391l-2.545-4.212c-1.371 1.659-.077 7.323 1.948 8.556a4.833 4.833 0 0 0 .988.408c1.559 3.384 1.248 2.936 1.1 5.5a4.073 4.073 0 0 1 2.242 1.462 3.875 3.875 0 0 1 3.007-1.554 3.874 3.874 0 0 1 3 1.554 3.884 3.884 0 0 1 3.007-1.554 3.86 3.86 0 0 1 2.97 1.516v-9.256a.7.7 0 0 0-.479.875zm-10.264-8.045c-3.05-.72-3.59-3.056-2.69-5.749 1.251-3.233 4.127-2.873 7-1.793l-.534-.36c2.153 1.077 6.643 3.59 3.407 6.463-1.077 1.079-5.747 1.616-7.186 1.439z" class="cls-9" data-name="Path 39148" transform="translate(129.245 -134.241)"/><path id="Path_39149" d="M-102.463 150.9c-1.405-10.487-9.636-16.658-19.526-16.658H-122v30.2a4.194 4.194 0 0 1 2.585 2.2c1.1 1.754.88 3.29.22 5.263a3.76 3.76 0 0 0-1.973.077.647.647 0 0 0-.657-.56.834.834 0 0 0-.174.02v9.256l.037.037a3.869 3.869 0 0 1 3-1.554 3.869 3.869 0 0 1 3 1.554 3.888 3.888 0 0 1 3.007-1.554 3.879 3.879 0 0 1 3.007 1.554 4.086 4.086 0 0 1 2.173-1.448c-.163-2.807-.563-2.727 1.242-5.512h-.123a4.924 4.924 0 0 0 .991-.408c2.136-1.305 3.676-7.02 1.942-8.556a12.9 12.9 0 0 0 2.25-4.178c.761-2.989-.57-6.584-.99-9.733zm-8.77 13.383c-1.439.177-6.109-.36-7.185-1.439-3.233-2.873 1.257-5.386 3.413-6.463l-.54.36c2.873-1.08 5.746-1.439 7.005 1.793.894 2.694.36 5.03-2.693 5.75zm4.978 4.747a16.956 16.956 0 0 1 2.542-4.21z" class="cls-10" data-name="Path 39149" transform="translate(142.692 -134.243)"/></g></g><path id="Path_39150" d="M-112.141 184.129a3.536 3.536 0 0 1-3.536 3.533 3.533 3.533 0 0 1-3.533-3.533 3.534 3.534 0 0 1 3.533-3.536 3.536 3.536 0 0 1 3.536 3.536z" data-name="Path 39150" transform="translate(271.843 -39.089)" style="fill:#b8b8b8"/></g><g id="Group_3856" data-name="Group 3856" transform="translate(-181.114 217.419)"><path id="Path_39151" d="M-162.876 237.4c-13.191-23.276-11.047-45.512-11.047-45.512a134.056 134.056 0 0 0 22.019-8.528c9.6-4.841 18.155-13.708 18.155-13.708v-8.359s-10.053 10.418-21.336 16.1a157.127 157.127 0 0 1-25.877 10.024s-2.519 26.131 12.986 53.485c14.879 26.246 34.228 32.574 34.228 32.574v-8.362s-16.468-5.385-29.128-27.714z" class="cls-12" data-name="Path 39151" transform="translate(181.114 -161.289)"/><path id="Path_39152" d="M-156.493 177.924a134.056 134.056 0 0 1-22.019 8.528s-2.145 22.236 11.047 45.512c12.66 22.333 29.127 27.719 29.127 27.719v-95.467s-8.554 8.868-18.155 13.708z" class="cls-12" data-name="Path 39152" transform="translate(185.703 -155.857)"/><path id="Path_39153" d="m-153.1 179.281 2.219-6.52a102.027 102.027 0 0 1-13.648-11.472v8.359a86.811 86.811 0 0 0 11.429 9.633z" class="cls-12" data-name="Path 39153" transform="translate(211.894 -161.289)"/><path id="Path_39154" d="M-117.318 176.949a157.088 157.088 0 0 1-25.866-10.019l-2.707 6.2a134.353 134.353 0 0 0 21.533 8.288s2.145 22.236-11.047 45.512c-12.66 22.333-29.124 27.719-29.124 27.719v8.362s19.346-6.329 34.225-32.574c15.504-27.357 12.986-53.488 12.986-53.488z" class="cls-12" data-name="Path 39154" transform="translate(211.894 -150.82)"/><path id="Path_39155" d="M-135.4 231.964c13.191-23.276 11.047-45.512 11.047-45.512a134.353 134.353 0 0 1-21.533-8.288l-3.061 7.011 13.728 1.628-19.863 25.146 7.734-19.2h-12.175l6.429-18.9a86.811 86.811 0 0 1-11.429-9.633v95.467s16.458-5.383 29.123-27.719z" class="cls-12" data-name="Path 39155" transform="translate(211.894 -155.857)"/></g><g id="Group_3864" data-name="Group 3864" transform="translate(-181.114 217.419)"><g id="Group_3862" data-name="Group 3862"><g id="Group_3861" data-name="Group 3861"><g id="Group_3857" data-name="Group 3857" transform="translate(0 1.045)"><path id="Path_39156" d="M-162.876 237.762c-13.191-23.273-11.047-45.512-11.047-45.512a134.056 134.056 0 0 0 22.019-8.528c9.6-4.838 18.155-13.706 18.155-13.706v-8.362s-10.053 10.418-21.336 16.1a157.238 157.238 0 0 1-25.877 10.024s-2.519 26.131 12.986 53.485c14.876 26.246 34.228 32.577 34.228 32.577v-8.365s-16.468-5.38-29.128-27.713z" class="cls-9" data-name="Path 39156" transform="translate(181.114 -161.655)"/><path id="Path_39157" d="M-156.493 178.288a134.056 134.056 0 0 1-22.019 8.528s-2.145 22.239 11.047 45.512c12.66 22.333 29.127 27.719 29.127 27.719v-95.464s-8.554 8.868-18.155 13.705z" data-name="Path 39157" transform="translate(185.703 -156.221)" style="fill:#ff002f"/><path id="Path_39158" d="m-153.1 179.65 2.219-6.523a101.781 101.781 0 0 1-13.648-11.472v8.362a87.062 87.062 0 0 0 11.429 9.633z" class="cls-10" data-name="Path 39158" transform="translate(211.894 -161.655)"/><path id="Path_39159" d="M-117.318 177.314a157.094 157.094 0 0 1-25.866-10.014l-2.707 6.2a134.346 134.346 0 0 0 21.533 8.288s2.145 22.239-11.047 45.512c-12.66 22.333-29.124 27.719-29.124 27.719v8.365s19.346-6.332 34.225-32.577c15.504-27.361 12.986-53.493 12.986-53.493z" class="cls-10" data-name="Path 39159" transform="translate(211.894 -151.186)"/><path id="Path_39160" d="M-135.4 232.328c13.191-23.273 11.047-45.512 11.047-45.512a134.346 134.346 0 0 1-21.533-8.288l-3.061 7.011 13.728 1.628-19.863 25.146 7.734-19.195h-12.175l6.429-18.9a87.062 87.062 0 0 1-11.429-9.633v95.464s16.458-5.388 29.123-27.721z" data-name="Path 39160" transform="translate(211.894 -156.221)" style="fill:#b90020"/></g><g id="Group_3858" data-name="Group 3858" transform="translate(59.968)"><path id="Path_39161" d="M-159.071 168.92a1.044 1.044 0 0 1-1.045-1.045v-5.54a1.044 1.044 0 0 1 1.045-1.045 1.044 1.044 0 0 1 1.045 1.045v5.54a1.044 1.044 0 0 1-1.045 1.045z" class="cls-15" data-name="Path 39161" transform="translate(160.116 -161.289)"/></g><g id="Group_3859" data-name="Group 3859" transform="translate(67.692 1.675)"><path id="Path_39162" d="M-156.828 168.837a1.042 1.042 0 0 1-.477-1.4l2.433-4.978a1.042 1.042 0 0 1 1.4-.48 1.047 1.047 0 0 1 .48 1.4l-2.433 4.978a1.041 1.041 0 0 1-1.403.48z" class="cls-15" data-name="Path 39162" transform="translate(157.411 -161.876)"/></g><g id="Group_3860" data-name="Group 3860" transform="translate(71.24 10.479)"><path id="Path_39163" d="M-156.1 168.339a1.041 1.041 0 0 1 .605-1.345l5.183-1.968a1.042 1.042 0 0 1 1.345.605 1.044 1.044 0 0 1-.6 1.351l-5.181 1.962a1.044 1.044 0 0 1-1.352-.605z" class="cls-15" data-name="Path 39163" transform="translate(156.169 -164.958)"/></g></g><path id="Path_39164" d="M-162.322 186.7a4.07 4.07 0 0 1 4.064-4.067h1.928a4.07 4.07 0 0 1 4.064 4.067v2.265h3.418V186.7a7.494 7.494 0 0 0-7.482-7.485h-1.928a7.494 7.494 0 0 0-7.482 7.485v6.8h-2.687v16.52h22.267V193.5h-16.161z" class="cls-8" data-name="Path 39164" transform="translate(204.658 -128.024)"/></g><g id="Group_3863" data-name="Group 3863" transform="translate(56.786 19.263)"><path id="Path_39165" d="M-158.208 208.608a3.066 3.066 0 0 1-2.593-1.454 3.061 3.061 0 0 1 1.025-4.17l33.571-20.143 3.847-7.257 12.592-7.551-2.493 9.973 9.976 2.5-12.595 7.551-8.211-.02-33.565 20.143a3.15 3.15 0 0 1-1.554.428z" class="cls-8" data-name="Path 39165" transform="translate(161.23 -168.034)"/><path id="Path_39166" d="m-107.909 178.8-7.588-1.9 1.9-7.582-8.571 5.141-3.847 7.254L-160 202.1a1.291 1.291 0 0 0-.443 1.765 1.31 1.31 0 0 0 1.111.628 1.324 1.324 0 0 0 .657-.186l33.979-20.391 8.214.02z" class="cls-3" data-name="Path 39166" transform="translate(162.354 -165.658)"/></g></g></g></svg>