<svg width="20" height="20" viewBox="0 0 20 20" fill="none" xmlns="http://www.w3.org/2000/svg">
<g clip-path="url(#clip0_1367_57761)">
<path fill-rule="evenodd" clip-rule="evenodd" d="M18 10C18 14.4183 14.4183 18 10 18C5.58172 18 2 14.4183 2 10C2 5.58172 5.58172 2 10 2C14.4183 2 18 5.58172 18 10ZM10.3683 13.8202H9.60358C9.60358 13.8202 7.91629 13.9218 6.43046 12.3748C4.81003 10.6875 3.37891 7.33931 3.37891 7.33931C3.37891 7.33931 3.29641 7.11978 3.38603 7.01367C3.48677 6.89435 3.76118 6.88671 3.76118 6.88671L5.58915 6.87472C5.58915 6.87472 5.76145 6.90355 5.88476 6.99404C5.98636 7.06872 6.04333 7.20836 6.04333 7.20836C6.04333 7.20836 6.33875 7.95553 6.73005 8.63149C7.49372 9.95111 7.84942 10.2398 8.10872 10.0984C8.48647 9.89223 8.37324 8.2329 8.37324 8.2329C8.37324 8.2329 8.38018 7.63058 8.18306 7.36241C8.03039 7.15452 7.74243 7.09391 7.6153 7.07689C7.51248 7.06316 7.6813 6.82436 7.90013 6.7172C8.22908 6.55602 8.81004 6.54682 9.49642 6.55394C10.0312 6.55932 10.1851 6.59267 10.3942 6.64321C10.8793 6.76035 10.8642 7.13571 10.8315 7.94558C10.8218 8.18758 10.8105 8.46837 10.8105 8.79266C10.8105 8.86563 10.8084 8.9434 10.8062 9.02341C10.7948 9.43819 10.7819 9.91307 11.0548 10.0895C11.1948 10.1798 11.5373 10.1031 12.3939 8.64851C12.8 7.95918 13.1044 7.14862 13.1044 7.14862C13.1044 7.14862 13.171 7.00411 13.2743 6.94211C13.3801 6.87889 13.5227 6.89834 13.5227 6.89834L15.4463 6.88636C15.4463 6.88636 16.0243 6.81741 16.1179 7.07827C16.2161 7.35217 15.9019 7.99165 15.116 9.03912C14.3696 10.0339 14.007 10.3995 14.0411 10.7233C14.0659 10.9594 14.3017 11.1733 14.7533 11.5926C15.7002 12.4715 15.9526 12.933 16.0126 13.0427C16.0174 13.0515 16.021 13.0581 16.0236 13.0624C16.4474 13.7651 15.5537 13.8202 15.5537 13.8202L13.8452 13.844C13.8452 13.844 13.478 13.9167 12.9948 13.5848C12.7422 13.4114 12.4951 13.1282 12.2598 12.8583C11.8999 12.4458 11.5674 12.0646 11.2836 12.1546C10.8074 12.3057 10.8223 13.3318 10.8223 13.3318C10.8223 13.3318 10.8258 13.551 10.7172 13.6677C10.5993 13.7948 10.3683 13.8202 10.3683 13.8202Z" fill="#5A78A6"/>
</g>
<defs>
<clipPath id="clip0_1367_57761">
<rect width="16" height="16" fill="white" transform="translate(2 2)"/>
</clipPath>
</defs>
</svg>
