<svg width="50" height="51" viewBox="0 0 50 51" fill="none" xmlns="http://www.w3.org/2000/svg">
<g clip-path="url(#clip0_7846_143351)">
<path d="M19.6584 5.82394L0.908434 8.25939C0.38568 8.32687 -0.00426171 8.77404 3.51668e-05 9.30109V23.8844C3.51668e-05 24.4597 0.466442 24.9261 1.04173 24.9261H19.7917C20.367 24.9261 20.8334 24.4597 20.8334 23.8844V6.85519C20.833 6.55597 20.704 6.2714 20.4792 6.07394C20.2528 5.87921 19.955 5.78849 19.6584 5.82394Z" fill="#F44336"/>
<path d="M49.6461 2.26976C49.4229 2.06859 49.1237 1.97367 48.8253 2.00931L23.8253 5.26976C23.3027 5.33724 22.9126 5.78441 22.917 6.31146V23.8844C22.917 24.4597 23.3834 24.9261 23.9587 24.9261H48.9587C49.534 24.9261 50.0004 24.4597 50.0004 23.8844V3.05101C49.9999 2.7518 49.8708 2.46722 49.6461 2.26976Z" fill="#4CAF50"/>
<path d="M19.7917 27.0088H1.04173C0.466442 27.0088 3.51668e-05 27.4752 3.51668e-05 28.0505V42.6338C-0.00426171 43.1608 0.38568 43.608 0.908336 43.6755L19.6583 46.1213C19.7028 46.1243 19.7473 46.1243 19.7916 46.1213C20.3669 46.1213 20.8333 45.6549 20.8333 45.0796V28.0505C20.8334 27.4752 20.367 27.0088 19.7917 27.0088Z" fill="#2196F3"/>
<path d="M48.9587 27.0088H23.9587C23.3834 27.0088 22.917 27.4752 22.917 28.0505V45.6234C22.9127 46.1505 23.3027 46.5977 23.8253 46.6651L48.8253 49.9256C48.8698 49.9286 48.9143 49.9286 48.9586 49.9256C49.5339 49.9256 50.0003 49.4592 50.0003 48.8839V28.0505C50.0003 27.4752 49.534 27.0088 48.9587 27.0088Z" fill="#FFC107"/>
</g>
<defs>
<clipPath id="clip0_7846_143351">
<rect width="50" height="50" fill="white" transform="translate(0 0.964844)"/>
</clipPath>
</defs>
</svg>
