<svg width="103" height="26" viewBox="0 0 103 26" fill="none" xmlns="http://www.w3.org/2000/svg">
<g clip-path="url(#clip0_11316_12741)">
<path d="M9.82922 2.7917L0.454217 4.00942C0.19284 4.04316 -0.00213085 4.26675 1.75834e-05 4.53027V11.8219C1.75834e-05 12.1096 0.233221 12.3428 0.520867 12.3428H9.89587C10.1835 12.3428 10.4167 12.1096 10.4167 11.8219V3.30732C10.4165 3.15772 10.352 3.01543 10.2396 2.9167C10.1264 2.81934 9.97751 2.77397 9.82922 2.7917Z" fill="#F44336"/>
<path d="M24.8229 1.01464C24.7113 0.914057 24.5617 0.866596 24.4125 0.884418L11.9125 2.51464C11.6512 2.54838 11.4562 2.77197 11.4584 3.03549V11.822C11.4584 12.1096 11.6916 12.3428 11.9792 12.3428H24.4792C24.7669 12.3428 25.0001 12.1096 25.0001 11.822V1.40527C24.9998 1.25566 24.9353 1.11337 24.8229 1.01464Z" fill="#4CAF50"/>
<path d="M9.89587 13.3844H0.520867C0.233221 13.3844 1.75834e-05 13.6176 1.75834e-05 13.9053V21.1969C-0.00213085 21.4605 0.19284 21.684 0.454168 21.7178L9.82917 22.9407C9.85139 22.9422 9.87365 22.9422 9.89582 22.9407C10.1835 22.9407 10.4167 22.7075 10.4167 22.4198V13.9053C10.4167 13.6176 10.1835 13.3844 9.89587 13.3844Z" fill="#2196F3"/>
<path d="M24.4792 13.3844H11.9792C11.6916 13.3844 11.4584 13.6176 11.4584 13.9053V22.6918C11.4562 22.9553 11.6512 23.1789 11.9125 23.2126L24.4125 24.8428C24.4348 24.8443 24.457 24.8443 24.4792 24.8428C24.7668 24.8428 25 24.6096 25 24.322V13.9053C25 13.6176 24.7669 13.3844 24.4792 13.3844Z" fill="#FFC107"/>
</g>
<path d="M47.804 8.0623L45.522 15.0063L43.282 8.0623H41.182L38.872 14.9503L36.66 8.0623H34.308L37.528 17.8623H39.95L42.176 11.2263L44.332 17.8623H46.768L49.974 8.0623H47.804ZM52.3148 9.2803C53.1268 9.2803 53.6728 8.7483 53.6728 8.0203C53.6728 7.3483 53.1268 6.8443 52.3148 6.8443C51.5028 6.8443 50.9568 7.3763 50.9568 8.0623C50.9568 8.7483 51.5028 9.2803 52.3148 9.2803ZM51.2228 17.8623H53.4068V10.3303H51.2228V17.8623ZM60.0118 10.2183C58.9898 10.2183 58.1078 10.5683 57.5198 11.2123V10.3303H55.4338V17.8623H57.6178V14.1383C57.6178 12.7523 58.3738 12.1083 59.4238 12.1083C60.3898 12.1083 60.9498 12.6683 60.9498 13.8863V17.8623H63.1338V13.5503C63.1338 11.2543 61.7898 10.2183 60.0118 10.2183ZM70.6835 7.4743V11.1283C70.1375 10.5123 69.3535 10.2183 68.4295 10.2183C66.3015 10.2183 64.6635 11.7303 64.6635 14.0963C64.6635 16.4623 66.3015 17.9743 68.4295 17.9743C69.4375 17.9743 70.2355 17.6523 70.7815 16.9943V17.8623H72.8675V7.4743H70.6835ZM68.8075 16.1823C67.7155 16.1823 66.8755 15.3983 66.8755 14.0963C66.8755 12.7943 67.7155 12.0103 68.8075 12.0103C69.8855 12.0103 70.7255 12.7943 70.7255 14.0963C70.7255 15.3983 69.8855 16.1823 68.8075 16.1823ZM78.4729 17.9743C80.8669 17.9743 82.6029 16.3643 82.6029 14.0963C82.6029 11.8283 80.8669 10.2183 78.4729 10.2183C76.0789 10.2183 74.3289 11.8283 74.3289 14.0963C74.3289 16.3643 76.0789 17.9743 78.4729 17.9743ZM78.4729 16.1823C77.3809 16.1823 76.5409 15.3983 76.5409 14.0963C76.5409 12.7943 77.3809 12.0103 78.4729 12.0103C79.5649 12.0103 80.3909 12.7943 80.3909 14.0963C80.3909 15.3983 79.5649 16.1823 78.4729 16.1823ZM94.0216 10.3303L92.1876 15.4263L90.3956 10.3303H88.5476L86.6996 15.4263L84.9216 10.3303H82.8636L85.5796 17.8623H87.6796L89.4296 13.1863L91.1236 17.8623H93.2236L95.9536 10.3303H94.0216ZM99.3936 17.9743C101.648 17.9743 102.95 16.9803 102.95 15.5803C102.95 12.6123 98.3996 13.8583 98.3996 12.5703C98.3996 12.1783 98.8196 11.8703 99.7996 11.8703C100.486 11.8703 101.228 12.0103 101.97 12.4303L102.698 10.8763C101.984 10.4563 100.836 10.2183 99.7996 10.2183C97.6016 10.2183 96.3136 11.2263 96.3136 12.6543C96.3136 15.6643 100.864 14.4043 100.864 15.6363C100.864 16.0563 100.486 16.3223 99.4776 16.3223C98.5536 16.3223 97.5316 16.0283 96.8596 15.5943L96.1316 17.1623C96.8316 17.6243 98.1196 17.9743 99.3936 17.9743Z" fill="#5A78A6"/>
<defs>
<clipPath id="clip0_11316_12741">
<rect width="25" height="25" fill="white" transform="translate(0 0.362305)"/>
</clipPath>
</defs>
</svg>
