<svg width="91" height="91" viewBox="0 0 91 91" fill="none" xmlns="http://www.w3.org/2000/svg">
<g clip-path="url(#clip0_9221_8569)">
<path d="M85.9572 50.8894C88.6953 50.4471 90.7935 48.0677 90.7935 45.2065C90.7935 42.3454 88.6953 39.966 85.9572 39.5237C84.7993 31.3022 81.0856 23.5554 75.3906 17.4741L82.007 10.8577C82.8875 11.4047 83.9253 11.7216 85.0359 11.7216C88.2107 11.7216 90.7935 9.13887 90.7935 5.96408C90.7935 2.7893 88.2107 0.206543 85.0359 0.206543C81.8611 0.206543 79.2784 2.7893 79.2784 5.96408C79.2784 7.07484 79.5953 8.11248 80.1423 8.99297L73.5259 15.6094C67.4446 9.91441 59.6979 6.20068 51.4763 5.04281C51.034 2.30467 48.6546 0.206543 45.7935 0.206543C42.9323 0.206543 40.5529 2.30467 40.1106 5.04281C31.889 6.20068 24.1423 9.91441 18.061 15.6096L11.4446 8.99314C11.9916 8.11266 12.3087 7.07484 12.3087 5.96426C12.3085 2.7893 9.72578 0.206543 6.551 0.206543C3.37621 0.206543 0.793457 2.7893 0.793457 5.96408C0.793457 9.13887 3.37621 11.7216 6.551 11.7216C7.66176 11.7216 8.69939 11.4047 9.58006 10.8575L16.1965 17.4739C10.5015 23.5552 6.7876 31.3021 5.6299 39.5235C2.89158 39.966 0.793457 42.3454 0.793457 45.2065C0.793457 48.0677 2.89158 50.4471 5.62973 50.8894C6.78742 59.1108 10.5013 66.8577 16.1963 72.939L9.57988 79.5554C8.69922 79.0084 7.66158 78.6913 6.55082 78.6913C3.37621 78.6915 0.793457 81.2744 0.793457 84.449C0.793457 87.6236 3.37621 90.2065 6.551 90.2065C9.72578 90.2065 12.3085 87.6238 12.3085 84.449C12.3085 83.3382 11.9916 82.3006 11.4444 81.4201L18.0608 74.8037C24.1421 80.4987 31.889 84.2126 40.1105 85.3703C40.5529 88.1084 42.9323 90.2065 45.7935 90.2065C48.6546 90.2065 51.034 88.1084 51.4763 85.3703C59.6978 84.2124 67.4446 80.4987 73.5259 74.8037L80.1423 81.4201C79.5953 82.3008 79.2784 83.3384 79.2784 84.449C79.2784 87.6238 81.8611 90.2065 85.0359 90.2065C88.2107 90.2065 90.7935 87.6238 90.7935 84.449C90.7935 81.2742 88.2107 78.6915 85.0359 78.6915C83.9252 78.6915 82.8875 79.0084 82.007 79.5554L75.3906 72.939C81.0856 66.8577 84.7993 59.111 85.9572 50.8894ZM45.7935 78.6915C43.2162 78.6915 41.0291 80.3937 40.2971 82.733C23.8639 80.3359 10.6641 67.136 8.26697 50.7029C10.6063 49.9709 12.3085 47.7838 12.3085 45.2065C12.3085 42.6292 10.6063 40.4422 8.26697 39.7102C10.6641 23.2771 23.864 10.0772 40.2971 7.68006C41.0291 10.0194 43.2162 11.7216 45.7935 11.7216C48.3708 11.7216 50.5578 10.0194 51.2898 7.68006C67.7229 10.077 80.923 23.2771 83.3199 39.7102C80.9806 40.4422 79.2784 42.6292 79.2784 45.2065C79.2784 47.7838 80.9806 49.9709 83.3199 50.7029C80.923 67.136 67.7229 80.3361 51.2898 82.733C50.5578 80.3937 48.3708 78.6915 45.7935 78.6915ZM88.1567 45.2065C88.1567 46.9273 86.7566 48.3274 85.0359 48.3274C83.3152 48.3274 81.9151 46.9273 81.9151 45.2065C81.9151 43.4858 83.3152 42.0857 85.0359 42.0857C86.7566 42.0857 88.1567 43.4858 88.1567 45.2065ZM85.0359 2.84326C86.7566 2.84326 88.1567 4.24336 88.1567 5.96408C88.1567 7.6848 86.7566 9.0849 85.0359 9.0849C83.3152 9.0849 81.9151 7.6848 81.9151 5.96408C81.9151 4.24336 83.3152 2.84326 85.0359 2.84326ZM45.7935 2.84326C47.5142 2.84326 48.9143 4.24336 48.9143 5.96408C48.9143 7.6848 47.5142 9.0849 45.7935 9.0849C44.0726 9.0849 42.6726 7.6848 42.6726 5.96408C42.6726 4.24336 44.0726 2.84326 45.7935 2.84326ZM3.43018 5.96408C3.43018 4.24336 4.8301 2.84326 6.551 2.84326C8.27189 2.84326 9.67182 4.24336 9.67182 5.96408C9.67182 7.6848 8.27189 9.0849 6.551 9.0849C4.8301 9.0849 3.43018 7.6848 3.43018 5.96408ZM3.43018 45.2065C3.43018 43.4858 4.8301 42.0857 6.551 42.0857C8.27189 42.0857 9.67182 43.4858 9.67182 45.2065C9.67182 46.9273 8.27189 48.3274 6.551 48.3274C4.8301 48.3274 3.43018 46.9273 3.43018 45.2065ZM6.551 87.5698C4.8301 87.5698 3.43018 86.1697 3.43018 84.449C3.43018 82.7283 4.8301 81.3282 6.551 81.3282C8.27189 81.3282 9.67182 82.7283 9.67182 84.449C9.67182 86.1697 8.27189 87.5698 6.551 87.5698ZM45.7935 87.5698C44.0726 87.5698 42.6726 86.1697 42.6726 84.449C42.6726 82.7283 44.0726 81.3282 45.7935 81.3282C47.5142 81.3282 48.9143 82.7283 48.9143 84.449C48.9143 86.1697 47.5142 87.5698 45.7935 87.5698ZM88.1567 84.449C88.1567 86.1697 86.7566 87.5698 85.0359 87.5698C83.3152 87.5698 81.9151 86.1697 81.9151 84.449C81.9151 82.7283 83.3152 81.3282 85.0359 81.3282C86.7566 81.3282 88.1567 82.7283 88.1567 84.449Z" fill="#879EC1"/>
<path d="M71.6709 54.695C71.0003 54.412 70.2269 54.7258 69.9433 55.3964C69.0867 57.4239 67.9941 59.2993 66.7098 61.0021C64.5924 59.5993 62.2949 58.4228 59.8719 57.4884C60.7208 54.0853 61.21 50.3722 61.301 46.5249H71.9638C71.9101 47.6023 71.7925 48.6752 71.6094 49.7285C71.4848 50.4457 71.9652 51.1284 72.6825 51.2532C72.759 51.2664 72.8348 51.2728 72.9098 51.2728C73.5388 51.2728 74.0956 50.821 74.2073 50.1799C74.4906 48.5488 74.6346 46.8756 74.6346 45.2065C74.6346 38.2767 72.1773 31.9106 68.0892 26.932C68.0744 26.9082 68.0602 26.8842 68.0435 26.8611C67.9864 26.7815 67.9215 26.7108 67.8514 26.6481C62.5568 20.3648 54.634 16.3652 45.7934 16.3652C35.7929 16.3652 26.6495 21.4311 21.3344 29.9166C20.9478 30.5337 21.1347 31.3472 21.7518 31.7338C22.3692 32.12 23.1827 31.9333 23.5689 31.3163C23.9809 30.6585 24.42 30.0254 24.8809 29.4137C26.9973 30.8152 29.2934 31.9908 31.7148 32.9247C30.8659 36.3278 30.3767 40.0409 30.2857 43.8882H19.6226C19.7458 41.3951 20.218 38.9503 21.0331 36.6038C21.272 35.9162 20.9083 35.1647 20.2203 34.9258C19.5331 34.6867 18.7813 35.0506 18.5424 35.7386C17.487 38.7763 16.952 41.9618 16.952 45.2065C16.952 52.1364 19.4092 58.5028 23.4975 63.4815C23.5123 63.5052 23.5265 63.5291 23.5431 63.5521C23.6002 63.6318 23.665 63.7022 23.735 63.7652C29.0299 70.0485 36.9527 74.048 45.7933 74.048C57.4159 74.048 67.8487 67.1298 72.3721 56.4226C72.6555 55.7518 72.3415 54.9784 71.6709 54.695ZM57.373 56.6235C54.0954 55.6167 50.6343 55.0366 47.1118 54.9204V46.5249H58.6641C58.5764 50.0745 58.1352 53.4923 57.373 56.6235ZM19.6219 46.5249H30.2857C30.3767 50.3722 30.8659 54.0854 31.7148 57.4884C29.2974 58.4207 27.0049 59.5939 24.8913 60.9924C21.8134 56.9269 19.8916 51.94 19.6219 46.5249ZM32.9229 46.5249H44.4751V54.9204C40.9526 55.0366 37.4915 55.6167 34.2139 56.6235C33.4518 53.4923 33.0106 50.0745 32.9229 46.5249ZM44.4751 57.558V71.268C41.6793 70.6663 39.0357 68.1622 36.9202 64.0635C36.1487 62.5688 35.4832 60.9219 34.9252 59.1611C37.9714 58.2195 41.1927 57.6736 44.4751 57.558ZM47.1118 71.268V57.558C50.3942 57.6736 53.6155 58.2195 56.6616 59.1613C56.1037 60.9221 55.4382 62.569 54.6667 64.0637C52.5512 68.1622 49.9076 70.6663 47.1118 71.268ZM54.6667 26.3496C55.4382 27.8443 56.1037 29.491 56.6616 31.2518C53.6155 32.1936 50.3942 32.7394 47.1118 32.8551V19.145C49.9076 19.7467 52.5512 22.2509 54.6667 26.3496ZM44.4751 19.145V32.8551C41.1927 32.7394 37.9714 32.1936 34.9252 31.2518C35.4832 29.491 36.1487 27.8441 36.9202 26.3494C39.0357 22.2509 41.6793 19.7467 44.4751 19.145ZM47.1118 35.4927C50.6343 35.3765 54.0954 34.7964 57.373 33.7896C58.135 36.9207 58.5764 40.3386 58.6641 43.8882H47.1118V35.4927ZM71.965 43.8882H61.3012C61.2102 40.0409 60.721 36.3277 59.8721 32.9245C62.2895 31.9922 64.582 30.819 66.6956 29.4207C69.7735 33.4862 71.6953 38.4731 71.965 43.8882ZM64.9877 27.3872C63.1696 28.5653 61.2112 29.5666 59.1507 30.3782C58.5524 28.501 57.8369 26.7427 57.0097 25.1402C55.997 23.1782 54.8562 21.5223 53.6185 20.1955C58.0187 21.575 61.9219 24.087 64.9877 27.3872ZM26.5813 27.3758C29.7047 23.9973 33.6304 21.5313 37.9808 20.1823C36.7383 21.5114 35.5932 23.1715 34.5772 25.1402C33.7501 26.7428 33.0345 28.501 32.4362 30.3783C30.369 29.5639 28.4045 28.5588 26.5813 27.3758ZM34.2139 33.7896C37.4915 34.7964 40.9524 35.3765 44.4751 35.4927V43.8882H32.9229C33.0106 40.3386 33.4518 36.9207 34.2139 33.7896ZM26.5992 63.0258C28.4173 61.8478 30.3757 60.8463 32.4362 60.0347C33.0345 61.9119 33.75 63.6702 34.5772 65.2729C35.5899 67.2349 36.7305 68.8908 37.9682 70.2176C33.5682 68.838 29.6652 66.3261 26.5992 63.0258ZM53.6148 70.2216C54.8539 68.8941 55.996 67.237 57.0097 65.273C57.8367 63.6704 58.5524 61.9123 59.1507 60.0349C61.2179 60.8491 63.1824 61.8543 65.0056 63.0374C61.9056 66.3803 57.9805 68.8612 53.6148 70.2216Z" fill="#87AB49"/>
</g>
<defs>
<clipPath id="clip0_9221_8569">
<rect width="90" height="90" fill="white" transform="translate(0.793457 0.206543)"/>
</clipPath>
</defs>
</svg>
