<svg width="51" height="50" viewBox="0 0 51 50" fill="none" xmlns="http://www.w3.org/2000/svg">
<g clip-path="url(#clip0_4354_91562)">
<path d="M44.8966 43.75C39.6466 47.625 31.7716 50 25.3966 50C16.2716 50 8.14656 46.375 1.89656 40.75C1.39656 40.25 1.89656 39.75 2.39656 40C9.14656 43.875 16.7716 46.125 25.2716 46.125C31.0216 46.125 38.2716 44.875 44.1466 42.375C45.0216 42.125 45.7716 43.125 44.8966 43.75ZM46.7716 41.125C46.1466 40.25 42.3966 40.75 40.7716 40.875C40.2716 40.875 40.1466 40.5 40.6466 40.125C43.5216 38 48.3966 38.625 48.8966 39.375C49.3966 40.125 48.7716 45 46.0216 47.25C45.6466 47.625 45.1466 47.375 45.3966 47C46.0216 45.5 47.3966 42 46.7716 41.125Z" fill="#FFB300"/>
<path d="M41.5215 32.25C40.2715 30.625 39.0215 29.25 39.0215 26.125V15.75C39.0215 11.375 39.0215 7.5 35.8965 4.5C33.3965 2.125 29.2715 1.25 26.0215 1.25C19.1465 1.25 13.1465 4 11.6465 11.75C11.5215 12.625 12.1465 13 12.6465 13.125L19.0215 13.875C19.6465 13.875 20.0215 13.25 20.1465 12.625C20.6465 10 22.7715 8.75 25.2715 8.75C26.6465 8.75 29.2715 9.5 29.2715 12.5V16.25C25.2715 16.25 21.0215 16.25 17.5215 17.75C13.3965 19.5 10.5215 23.125 10.5215 28.5C10.5215 35.375 14.7715 38.75 20.2715 38.75C24.8965 38.75 27.6465 37.625 31.2715 34C32.3965 35.75 32.8965 36.75 35.0215 38.625C35.5215 38.875 36.1465 38.875 36.5215 38.5C37.7715 37.375 40.1465 35.25 41.5215 34.125C42.1465 33.625 42.0215 32.875 41.5215 32.25ZM29.1465 22.625C29.1465 25.125 29.0215 31.25 22.8965 31.25C19.1465 31.25 19.1465 27.5 19.1465 27.5C19.1465 21.875 24.3965 21.25 29.1465 21.25V22.625Z" fill="#37474F"/>
</g>
<defs>
<clipPath id="clip0_4354_91562">
<rect width="50" height="50" fill="white" transform="translate(0.396484)"/>
</clipPath>
</defs>
</svg>
