<svg width="50" height="51" viewBox="0 0 50 51" fill="none" xmlns="http://www.w3.org/2000/svg">
<g clip-path="url(#clip0_7617_123977)">
<path d="M6.94037 17.1602C6.07887 17.1602 5.34792 17.4606 4.74707 18.0614C4.14622 18.6623 3.8457 19.3833 3.8457 20.2248V33.1454C3.8457 34.008 4.14613 34.7383 4.74707 35.3392C5.34792 35.9401 6.07887 36.2406 6.94037 36.2406C7.80124 36.2406 8.52775 35.9402 9.11929 35.3392C9.70966 34.7384 10.0057 34.008 10.0057 33.1454V20.2248C10.0057 19.3832 9.70523 18.6623 9.10429 18.0614C8.50334 17.4606 7.78189 17.1602 6.94037 17.1602Z" fill="#87AB49"/>
<path d="M31.8204 5.5618L33.9538 1.62616C34.0939 1.3656 34.044 1.1658 33.8039 1.02531C33.5433 0.90416 33.343 0.965547 33.2031 1.20513L31.0398 5.17224C29.1362 4.33063 27.1229 3.90905 24.9999 3.90905C22.8764 3.90905 20.8629 4.33072 18.9601 5.17224L16.7967 1.20513C16.6561 0.965547 16.4559 0.904702 16.1959 1.02531C15.9552 1.16643 15.9054 1.3656 16.046 1.62616L18.1795 5.5618C16.0161 6.66505 14.2931 8.20154 13.0111 10.1746C11.7292 12.1488 11.0879 14.3061 11.0879 16.6504H38.8817C38.8817 14.3066 38.2403 12.1492 36.9584 10.1746C35.6764 8.20154 33.9633 6.66505 31.8204 5.5618ZM19.4857 11.2863C19.255 11.5175 18.9794 11.6326 18.6591 11.6326C18.3382 11.6326 18.0682 11.5175 17.848 11.2863C17.6277 11.0561 17.5176 10.7816 17.5176 10.4602C17.5176 10.1399 17.6277 9.86487 17.848 9.63415C18.0682 9.40397 18.3388 9.28888 18.6591 9.28888C18.9794 9.28888 19.255 9.40397 19.4857 9.63415C19.7159 9.86541 19.8315 10.1399 19.8315 10.4602C19.8309 10.7811 19.7154 11.0561 19.4857 11.2863ZM32.1506 11.2863C31.9299 11.5175 31.6593 11.6326 31.3396 11.6326C31.0185 11.6326 30.7431 11.5175 30.5128 11.2863C30.2822 11.0561 30.1671 10.7816 30.1671 10.4602C30.1671 10.1399 30.2822 9.86487 30.5128 9.63415C30.7431 9.40397 31.0185 9.28888 31.3396 9.28888C31.6599 9.28888 31.9298 9.40397 32.1506 9.63415C32.371 9.86541 32.481 10.1399 32.481 10.4602C32.481 10.7811 32.3709 11.0561 32.1506 11.2863Z" fill="#87AB49"/>
<path d="M11.207 37.7436C11.207 38.666 11.5273 39.4467 12.1681 40.0875C12.8093 40.7282 13.5901 41.0485 14.5118 41.0485H16.7355L16.766 47.8702C16.766 48.7316 17.0664 49.4631 17.6672 50.064C18.2681 50.6649 18.9896 50.9654 19.8306 50.9654C20.6916 50.9654 21.423 50.6649 22.0239 50.064C22.6248 49.4631 22.9253 48.7317 22.9253 47.8702V41.0491H27.0717V47.8702C27.0717 48.7316 27.3721 49.4631 27.973 50.064C28.574 50.6649 29.3047 50.9654 30.1663 50.9654C31.0273 50.9654 31.7587 50.6649 32.3596 50.064C32.9606 49.4631 33.2609 48.7317 33.2609 47.8702V41.0491H35.5146C36.4159 41.0491 37.1866 40.7287 37.8285 40.088C38.4691 39.4473 38.7896 38.6665 38.7896 37.7443V17.7314H11.207V37.7436Z" fill="#87AB49"/>
<path d="M43.0589 17.1602C42.2173 17.1602 41.4964 17.4562 40.8954 18.0465C40.2946 18.638 39.9941 19.3645 39.9941 20.2248V33.1454C39.9941 34.008 40.2945 34.7383 40.8954 35.3392C41.4964 35.9402 42.2178 36.2406 43.0589 36.2406C43.9198 36.2406 44.6512 35.9402 45.2522 35.3392C45.8531 34.7383 46.1535 34.008 46.1535 33.1454V20.2248C46.1535 19.3644 45.8531 18.638 45.2522 18.0465C44.6512 17.4562 43.9198 17.1602 43.0589 17.1602Z" fill="#87AB49"/>
</g>
<defs>
<clipPath id="clip0_7617_123977">
<rect width="50" height="50" fill="white" transform="translate(0 0.964844)"/>
</clipPath>
</defs>
</svg>
