<svg xmlns="http://www.w3.org/2000/svg" xmlns:xlink="http://www.w3.org/1999/xlink" width="539" height="539"><defs><linearGradient id="linear-gradient" x2="1" y1=".5" y2=".5" gradientUnits="objectBoundingBox"><stop offset="0" stop-color="#8faf34"/><stop offset=".225" stop-color="#b4bf38"/><stop offset=".339" stop-color="#a3b733"/><stop offset=".485" stop-color="#95b22f"/><stop offset=".668" stop-color="#8dae2c"/><stop offset="1" stop-color="#8bae2c"/></linearGradient><linearGradient id="linear-gradient-2" x2="1" y1=".5" y2=".5" xlink:href="#linear-gradient"/><linearGradient id="linear-gradient-3" x2="1" y1=".5" y2=".5" xlink:href="#linear-gradient"/><linearGradient id="linear-gradient-4" x2="1" y1=".5" y2=".5" xlink:href="#linear-gradient"/><radialGradient id="radial-gradient" cx="117.579" cy="260.123" r="60.561" gradientTransform="matrix(.476 0 0 .476 9.71 4.005)" gradientUnits="userSpaceOnUse"><stop offset="0" stop-color="#b4bf38"/><stop offset=".146" stop-color="#a3b733"/><stop offset=".336" stop-color="#95b22f"/><stop offset=".572" stop-color="#8dae2c"/><stop offset="1" stop-color="#8bae2c"/></radialGradient><clipPath id="clip-path"><rect id="Rectangle_8230" width="117.265" height="256.27" class="cls-1" data-name="Rectangle 8230" rx="9.717" transform="translate(249.22 107.111)"/></clipPath><style>.cls-1{fill:#102154}.cls-5{fill:#5e4eef}.cls-9{fill:#8daf2d}.cls-14{fill:url(#linear-gradient-4)}.cls-15{fill:#fff}.cls-16{fill:#ffc799}.cls-17{fill:#351926}.cls-18{fill:#264c7c}.cls-19{fill:rgba(16,33,84,.27)}.cls-20{fill:#8c4fdb}.cls-21{fill:#ce763a}.cls-22{fill:#c03b28}.cls-23{fill:#ec5e54}.cls-24,.cls-28{fill:#121c3f}.cls-25{fill:#f7b578}.cls-26{fill:#f77a77}.cls-28{opacity:.324}</style></defs><g id="ILL_Win" transform="translate(-663.726 -864.252)"><circle id="Ellipse_1742" cx="187.529" cy="187.529" r="187.529" data-name="Ellipse 1742" transform="translate(745.698 946.223)" style="opacity:.204;fill:#d5d7db"/><circle id="Ellipse_1743" cx="269.5" cy="269.5" r="269.5" data-name="Ellipse 1743" transform="translate(663.726 864.252)" style="opacity:.152;fill:#d5d7db"/><g id="Group_6905" data-name="Group 6905" transform="translate(664.203 903.908)"><g id="Group_6886" data-name="Group 6886" style="opacity:.376"><path id="Path_47433" d="M217.585 311a1.753 1.753 0 1 1-1.753-1.752 1.752 1.752 0 0 1 1.753 1.752z" class="cls-5" data-name="Path 47433"/><path id="Path_47434" d="M421.3 256.474a1.752 1.752 0 1 1-1.752-1.752 1.752 1.752 0 0 1 1.752 1.752z" class="cls-5" data-name="Path 47434"/><path id="Path_47435" d="M311.409 78.752A1.752 1.752 0 1 1 309.657 77a1.752 1.752 0 0 1 1.752 1.752z" class="cls-5" data-name="Path 47435"/><path id="Path_47436" d="M397.378 194.632a1.752 1.752 0 1 1-1.752-1.752 1.751 1.751 0 0 1 1.752 1.752z" class="cls-5" data-name="Path 47436"/><path id="Path_47437" d="M221.419 248.809a1.753 1.753 0 1 1-1.752-1.753 1.753 1.753 0 0 1 1.752 1.753z" class="cls-5" data-name="Path 47437"/><path id="Path_47438" d="M305.56 390.158a1.752 1.752 0 1 1-1.752-1.752 1.753 1.753 0 0 1 1.752 1.752z" class="cls-5" data-name="Path 47438"/><path id="Path_47439" d="M245.1 385.739a1.752 1.752 0 1 1-1.752-1.752 1.752 1.752 0 0 1 1.752 1.752z" class="cls-5" data-name="Path 47439"/><g id="Group_6867" data-name="Group 6867"><path id="Path_47440" d="M392.937 339.873a1.283 1.283 0 0 1 .4-2.331l9.693-2.257 1.711 7.706 6.649-1.322a1.283 1.283 0 0 1 .5 2.516l-9.11 1.81-1.693-7.625-7.169 1.67a1.284 1.284 0 0 1-.981-.167z" class="cls-5" data-name="Path 47440"/></g><g id="Group_6868" data-name="Group 6868"><path id="Path_47441" d="M198.164 358.238a1.283 1.283 0 0 1-1.616-1.727l4.063-9.085 7.172 3.3 2.968-6.1a1.282 1.282 0 0 1 2.306 1.122l-4.066 8.351-7.1-3.262-3 6.72a1.285 1.285 0 0 1-.727.681z" class="cls-5" data-name="Path 47441"/></g><g id="Group_6869" data-name="Group 6869"><path id="Path_47442" d="M412.4 180.858a1.284 1.284 0 0 1-1.489-1.838l4.7-8.771 6.919 3.8 3.395-5.867a1.282 1.282 0 1 1 2.22 1.284l-4.652 8.039-6.846-3.761-3.477 6.488a1.283 1.283 0 0 1-.77.626z" class="cls-5" data-name="Path 47442"/></g><g id="Group_6870" data-name="Group 6870"><path id="Path_47443" d="M272.1 79.568a1.283 1.283 0 0 1-1.917 1.385l-8.5-5.179 4.177-6.7-5.671-3.714a1.283 1.283 0 1 1 1.4-2.146l7.77 5.089-4.133 6.628 6.286 3.83a1.285 1.285 0 0 1 .588.807z" class="cls-5" data-name="Path 47443"/></g><g id="Group_6871" data-name="Group 6871"><path id="Path_47444" d="M209.034 115.75a1.283 1.283 0 0 1 1.074-2.107l9.925.731-.66 7.867 6.741.717a1.283 1.283 0 1 1-.272 2.551l-9.235-.984.654-7.783-7.342-.541a1.277 1.277 0 0 1-.885-.451z" class="cls-5" data-name="Path 47444"/></g><path id="Path_47445" d="M415.782 287.263s-5.678 0-11.954-5.828c0 0-1.345 4.931 1.793 7.023 0 0 .024.9-2.08 0a5.553 5.553 0 0 0 3.723 5.081 9.376 9.376 0 0 1-1.942.6s.011 2.391 4.339 3.586c0 0-1.351 2.69-7.029 1.644 0 0 5.828 6.725 15.391 1.644a16.057 16.057 0 0 0 8.667-14.943l2.839-2.69-2.839.6 2.092-2.54-3.437.9a5.175 5.175 0 0 0-7.023-.9c-4.184 2.684-2.54 5.823-2.54 5.823z" class="cls-5" data-name="Path 47445"/><path id="Path_47446" d="M91.43 107.791s-5.679 0-11.955-5.828c0 0-1.344 4.932 1.794 7.024 0 0 .024.9-2.08 0a5.552 5.552 0 0 0 3.723 5.08 9.356 9.356 0 0 1-1.942.6s.011 2.391 4.339 3.586c0 0-1.351 2.69-7.029 1.644 0 0 5.828 6.724 15.391 1.644a16.059 16.059 0 0 0 8.667-14.943l2.839-2.69-2.839.6 2.092-2.541-3.437.9a5.175 5.175 0 0 0-7.023-.9c-4.184 2.686-2.54 5.824-2.54 5.824z" class="cls-5" data-name="Path 47446"/><path id="Path_47447" d="M209.924 155.162a1.81 1.81 0 0 1 1.255-.726 8.777 8.777 0 0 1 2.041-.175l-.056-3.146a12.32 12.32 0 0 0-3.74.214 6.354 6.354 0 0 0-2.847 1.273 3.552 3.552 0 0 0-1.267 2 8.378 8.378 0 0 0 .215 3.176l.262 1.233-2.4.511.724 3.407 2.4-.511 1.589 7.482.334 1.575.97 4.566 4.345-.923-1.3-6.141h-.013l-1.589-7.481 3.237-.687-.723-3.407-3.238.687-.245-1.156a2.6 2.6 0 0 1 .046-1.771z" class="cls-5" data-name="Path 47447"/><g id="Group_6872" data-name="Group 6872"><path id="Path_47448" d="M215.381 391.8a1.918 1.918 0 0 0 2.48-1.1l-3.577-1.382a1.917 1.917 0 0 0 1.097 2.482z" class="cls-5" data-name="Path 47448"/><path id="Path_47449" d="m226.168 390.872-.826-4.443 1.891-4.895a7.356 7.356 0 0 0-2.433-8.523l.176-.456a2.014 2.014 0 0 0-1.153-2.6 2.013 2.013 0 0 0-2.6 1.152l-.176.455a7.357 7.357 0 0 0-7.532 4.673l-1.891 4.9-3.6 2.733a1.47 1.47 0 0 0 .36 2.542l15.812 6.11a1.47 1.47 0 0 0 1.972-1.648z" class="cls-5" data-name="Path 47449"/></g><g id="Group_6875" data-name="Group 6875"><g id="Group_6873" data-name="Group 6873"><path id="Path_47450" d="M407.311 141.771h-9.358a7.085 7.085 0 0 1-7.077-7.077v-9.357a7.085 7.085 0 0 1 7.077-7.077h9.358a7.085 7.085 0 0 1 7.077 7.077v9.357a7.085 7.085 0 0 1-7.077 7.077zm-9.358-21.16a4.731 4.731 0 0 0-4.725 4.726v9.357a4.731 4.731 0 0 0 4.725 4.726h9.358a4.731 4.731 0 0 0 4.725-4.726v-9.357a4.731 4.731 0 0 0-4.725-4.726z" class="cls-5" data-name="Path 47450"/></g><g id="Group_6874" data-name="Group 6874"><path id="Path_47451" d="M402.632 136.321a4.987 4.987 0 1 1 4.987-4.987 4.992 4.992 0 0 1-4.987 4.987zm0-7.624a2.636 2.636 0 1 0 2.636 2.637 2.64 2.64 0 0 0-2.636-2.634z" class="cls-5" data-name="Path 47451"/></g><path id="Path_47452" d="M409.54 124.522a1.232 1.232 0 1 1-1.232-1.232 1.231 1.231 0 0 1 1.232 1.232z" class="cls-5" data-name="Path 47452"/></g><path id="Path_47453" d="m199.311 59.792-18.017-3.143a4.145 4.145 0 0 0-4.8 3.371l-1.779 10.2a4.147 4.147 0 0 0 3.371 4.8l18.017 3.143a4.145 4.145 0 0 0 4.8-3.371l1.779-10.2a4.146 4.146 0 0 0-3.371-4.8zm-16.366 11.8L184.7 61.51l11.2 7.148z" class="cls-5" data-name="Path 47453"/><path id="Path_47454" d="M393.468 390.72h-5.4v-5.4a1.623 1.623 0 0 0-1.624-1.623h-.544a1.623 1.623 0 0 0-1.624 1.623v5.4h-5.4a1.624 1.624 0 0 0-1.624 1.623v.54a1.624 1.624 0 0 0 1.624 1.623h5.4v5.4a1.623 1.623 0 0 0 1.624 1.623h.539a1.623 1.623 0 0 0 1.624-1.623v-5.4h5.4a1.624 1.624 0 0 0 1.624-1.623v-.54a1.624 1.624 0 0 0-1.619-1.623z" class="cls-5" data-name="Path 47454"/><path id="Path_47455" d="M341.924 399.711h-2.864v-2.864a.861.861 0 0 0-.861-.86h-.286a.86.86 0 0 0-.86.86v2.864h-2.864a.86.86 0 0 0-.86.861v.285a.86.86 0 0 0 .86.861h2.864v2.864a.86.86 0 0 0 .86.86h.286a.861.861 0 0 0 .861-.86v-2.864h2.864a.86.86 0 0 0 .86-.861v-.285a.86.86 0 0 0-.86-.861z" class="cls-5" data-name="Path 47455"/><path id="Path_47456" d="M394.765 250.743H391.9v-2.864a.86.86 0 0 0-.86-.86h-.286a.86.86 0 0 0-.86.86v2.864h-2.864a.861.861 0 0 0-.861.86v.286a.862.862 0 0 0 .861.861h2.864v2.864a.86.86 0 0 0 .86.86h.286a.86.86 0 0 0 .86-.86v-2.864h2.864a.861.861 0 0 0 .861-.861v-.289a.86.86 0 0 0-.86-.857z" class="cls-5" data-name="Path 47456"/><path id="Path_47457" d="M238.372 73.021h-2.864v-2.864a.861.861 0 0 0-.861-.86h-.286a.86.86 0 0 0-.86.86v2.864h-2.864a.861.861 0 0 0-.86.861v.285a.86.86 0 0 0 .86.861h2.863v2.864a.86.86 0 0 0 .86.86h.286a.861.861 0 0 0 .861-.86v-2.864h2.864a.86.86 0 0 0 .86-.861v-.285a.861.861 0 0 0-.859-.861z" class="cls-5" data-name="Path 47457"/><path id="Path_47458" d="M271.787 393.124h-2.864v-2.864a.861.861 0 0 0-.861-.861h-.285a.862.862 0 0 0-.861.861v2.864h-2.864a.86.86 0 0 0-.86.86v.286a.86.86 0 0 0 .86.86h2.864v2.864a.862.862 0 0 0 .861.861h.285a.861.861 0 0 0 .861-.861v-2.864h2.864a.86.86 0 0 0 .86-.86v-.286a.86.86 0 0 0-.86-.86z" class="cls-5" data-name="Path 47458"/><path id="Path_47459" d="M390.038 86.137h-2.864v-2.864a.86.86 0 0 0-.861-.861h-.285a.86.86 0 0 0-.861.861v2.864H382.3a.86.86 0 0 0-.86.86v.286a.86.86 0 0 0 .86.86h2.864v2.864a.861.861 0 0 0 .861.861h.285a.861.861 0 0 0 .861-.861v-2.864h2.864a.86.86 0 0 0 .86-.86V87a.86.86 0 0 0-.857-.863z" class="cls-5" data-name="Path 47459"/><path id="Path_47460" d="M217.054 279.431h-2.864v-2.864a.86.86 0 0 0-.86-.86h-.286a.86.86 0 0 0-.86.86v2.864h-2.864a.86.86 0 0 0-.861.86v.286a.861.861 0 0 0 .861.861h2.864v2.862a.86.86 0 0 0 .86.86h.286a.86.86 0 0 0 .86-.86v-2.864h2.864a.861.861 0 0 0 .86-.861v-.286a.86.86 0 0 0-.86-.858z" class="cls-5" data-name="Path 47460"/><path id="Path_47461" d="M194.656 117.972h-2.864v-2.864a.861.861 0 0 0-.861-.86h-.286a.86.86 0 0 0-.86.86v2.864h-2.864a.861.861 0 0 0-.86.861v.285a.86.86 0 0 0 .86.861h2.864v2.864a.86.86 0 0 0 .86.86h.286a.861.861 0 0 0 .861-.86v-2.864h2.864a.86.86 0 0 0 .86-.861v-.285a.861.861 0 0 0-.86-.861z" class="cls-5" data-name="Path 47461"/><path id="Path_47462" d="M356.463 76.325h-5.4v-5.4a1.624 1.624 0 0 0-1.623-1.624h-.54a1.624 1.624 0 0 0-1.623 1.624v5.4h-5.4a1.624 1.624 0 0 0-1.623 1.624v.539a1.624 1.624 0 0 0 1.623 1.624h5.4v5.4a1.624 1.624 0 0 0 1.623 1.624h.54a1.624 1.624 0 0 0 1.623-1.624v-5.4h5.4a1.624 1.624 0 0 0 1.624-1.624v-.539a1.624 1.624 0 0 0-1.624-1.624z" class="cls-5" data-name="Path 47462"/><g id="Group_6876" data-name="Group 6876"><path id="Path_47463" d="M407.061 230.688c-1.809-.05-3.619-.128-5.428-.137-.932 0-1.285-.416-1.256-1.312.1-3.052.144-6.107.271-9.159a7.206 7.206 0 0 1 1.479-3.5 21.92 21.92 0 0 1 2.793-3.4 2.909 2.909 0 0 0 .918-2.213c-.005-.187.029-.376.032-.564.014-.989.147-1.928 1.288-2.248.785-.221 2.016.6 2.5 1.607a4.574 4.574 0 0 1-.13 3.521 20.889 20.889 0 0 1-1.045 2.619c-.33.69-.317 1.008.571 1.039 1.505.052 3.006.225 4.511.288a2.325 2.325 0 0 1 2.261 1.2 1.979 1.979 0 0 1-.414 2.481c-.441.41 0 .577.147.823a1.9 1.9 0 0 1-.321 2.723c-.312.286-.406.433-.163.81a2.071 2.071 0 0 1 .276.964c.059.9-1.168 1.162-1.167 1.735 0 .667.619 1.353.168 2.107a1.885 1.885 0 0 1-1.861.826c-1.809-.055-3.618-.1-5.428-.15z" class="cls-5" data-name="Path 47463"/><path id="Path_47464" d="M392.776 225.326c.051-1.847.139-3.693.136-5.539 0-.995.488-1.368 1.377-1.365q1.582.006 3.164.083a1.231 1.231 0 0 1 1.339 1.437q-.178 5.481-.3 10.963c-.024.99-.459 1.44-1.476 1.373-1.09-.073-2.184-.086-3.277-.1-.809-.012-1.15-.4-1.12-1.2.065-1.885.104-3.769.157-5.652z" class="cls-5" data-name="Path 47464"/></g><g id="Group_6877" data-name="Group 6877"><path id="Path_47465" d="M442.9 398.652a6.742 6.742 0 1 1 6.742-6.741 6.749 6.749 0 0 1-6.742 6.741zm0-10.483a3.742 3.742 0 1 0 3.742 3.742 3.746 3.746 0 0 0-3.742-3.742z" class="cls-5" data-name="Path 47465"/></g><g id="Group_6878" data-name="Group 6878"><path id="Path_47466" d="M72.086 172.387a4.563 4.563 0 1 1 4.563-4.563 4.568 4.568 0 0 1-4.563 4.563zm0-7.095a2.532 2.532 0 1 0 2.532 2.532 2.536 2.536 0 0 0-2.532-2.532z" class="cls-5" data-name="Path 47466"/></g><g id="Group_6879" data-name="Group 6879"><path id="Path_47467" d="M303.027 43.5a4.563 4.563 0 1 1 4.564-4.563 4.569 4.569 0 0 1-4.564 4.563zm0-7.1a2.533 2.533 0 1 0 2.533 2.533 2.535 2.535 0 0 0-2.533-2.533z" class="cls-5" data-name="Path 47467"/></g><g id="Group_6880" data-name="Group 6880"><path id="Path_47468" d="m112.908 71.195-8.189-8.189 8.189-8.19 8.189 8.19zm-3.947-8.189 3.947 3.947 3.947-3.947-3.947-3.948z" class="cls-5" data-name="Path 47468"/></g><g id="Group_6881" data-name="Group 6881"><path id="Path_47469" d="m455.036 198.273-5.392-5.393 5.392-5.393 5.393 5.393zm-2.6-5.393 2.6 2.6 2.6-2.6-2.6-2.6z" class="cls-5" data-name="Path 47469"/></g><g id="Group_6882" data-name="Group 6882"><path id="Path_47470" d="M77.479 291.389 72.086 286l5.393-5.393L82.872 286zm-2.6-5.389 2.6 2.6 2.6-2.6-2.6-2.6z" class="cls-5" data-name="Path 47470"/></g><g id="Group_6883" data-name="Group 6883"><path id="Path_47471" d="m418.713 82.523-12.85-16.767 17.663-.229zm-6.831-13.845 5.573 7.272 2.088-7.372z" class="cls-5" data-name="Path 47471"/></g><g id="Group_6884" data-name="Group 6884"><path id="Path_47472" d="m445.3 345.713-7.67-10.008 10.543-.137zm-4.077-8.264 3.326 4.341 1.247-4.4z" class="cls-5" data-name="Path 47472"/></g><g id="Group_6885" data-name="Group 6885"><path id="Path_47473" d="m91.729 340.965-17.548 11.762.891-17.642zm-14.25 5.94 7.611-5.1-7.225-2.551z" class="cls-5" data-name="Path 47473"/></g></g><g id="Group_6894" data-name="Group 6894"><g id="Group_6888" data-name="Group 6888"><g id="Group_6887" data-name="Group 6887"><path id="Path_47474" d="M357.756 98.05h-99.807a18.285 18.285 0 0 0-18.282 18.282v238.484a18.282 18.282 0 0 0 18.282 18.284h99.807a18.282 18.282 0 0 0 18.281-18.282V116.332a18.284 18.284 0 0 0-18.281-18.282zm11.695 255.615a12.68 12.68 0 0 1-12.683 12.678h-97.831a12.68 12.68 0 0 1-12.683-12.678V116.826a12.68 12.68 0 0 1 12.683-12.679h97.831a12.68 12.68 0 0 1 12.683 12.679z" data-name="Path 47474" style="fill:#9db5cd"/></g></g><g id="Group_6889" data-name="Group 6889"><path id="Path_47475" d="M369.451 116.826v236.839a12.68 12.68 0 0 1-12.683 12.678h-97.831a12.68 12.68 0 0 1-12.683-12.678V116.826a12.68 12.68 0 0 1 12.683-12.679h97.831a12.68 12.68 0 0 1 12.683 12.679z" data-name="Path 47475" style="fill:#f7f7f7"/></g><g id="Group_6890" data-name="Group 6890"><path id="Path_47522" d="M9.717 0h97.83a9.717 9.717 0 0 1 9.717 9.717v236.836a9.717 9.717 0 0 1-9.717 9.717H9.717A9.717 9.717 0 0 1 0 246.553V9.717A9.717 9.717 0 0 1 9.717 0z" class="cls-1" data-name="Path 47522" transform="translate(249.22 107.111)"/><g id="Group_6906" data-name="Group 6906" transform="translate(174.726 -61.16)"><g id="ÉåÉCÉÑÅ_1" data-name="ÉåÉCÉÑÅ[ 1" transform="translate(89.797 248.602)"><path id="Path_47523" d="M121.62 272.571a1.091 1.091 0 0 1-.382 1.494 1.086 1.086 0 0 1-1.491-.386l-13.869-23.432a1.094 1.094 0 0 1 .386-1.493 1.088 1.088 0 0 1 1.493.384z" class="cls-9" data-name="Path 47523" transform="translate(-82.526 -248.602)"/><path id="Path_47524" d="M121.884 272.571a1.089 1.089 0 0 0 .386 1.494 1.089 1.089 0 0 0 1.493-.386l13.865-23.432a1.093 1.093 0 0 0-.38-1.493 1.1 1.1 0 0 0-1.5.384z" class="cls-9" data-name="Path 47524" transform="translate(-75.222 -248.602)"/><path id="Path_47525" d="M157.834 280.439a29.423 29.423 0 0 0-58.773 0z" data-name="Path 47525" transform="translate(-85.569 -246.83)" style="fill:url(#radial-gradient)"/><path id="Path_47526" d="M101.051 307.349c0 2.626-1.755 4.757-3.918 4.757h-3.424c-2.161 0-3.912-2.131-3.912-4.757V280c0-2.623 1.751-4.751 3.912-4.751h3.424c2.163 0 3.918 2.128 3.918 4.751z" data-name="Path 47526" transform="translate(-89.797 -236.441)" style="fill:url(#linear-gradient)"/><path id="Path_47527" d="M152.9 292.655c0 2.626-1.756 4.757-3.916 4.757h-3.424c-2.157 0-3.913-2.131-3.913-4.757V265.3c0-2.624 1.756-4.754 3.913-4.754h3.424c2.16 0 3.916 2.129 3.916 4.754z" data-name="Path 47527" transform="translate(-66.135 -243.15)" style="fill:url(#linear-gradient-2)"/><path id="Path_47528" d="M119.729 321.642a4.716 4.716 0 0 1-4.679 4.751h-4.092a4.72 4.72 0 0 1-4.685-4.751v-27.354a4.721 4.721 0 0 1 4.685-4.754h4.092a4.716 4.716 0 0 1 4.679 4.754z" data-name="Path 47528" transform="translate(-82.278 -229.921)" style="fill:url(#linear-gradient-3)"/><path id="Path_47529" d="M136.875 321.642a4.718 4.718 0 0 1-4.679 4.751H128.1a4.716 4.716 0 0 1-4.684-4.751v-27.354a4.717 4.717 0 0 1 4.684-4.754h4.1a4.719 4.719 0 0 1 4.679 4.754z" class="cls-14" data-name="Path 47529" transform="translate(-74.452 -229.921)"/><path id="Path_47530" d="M99.033 273.611v39.241a4.754 4.754 0 0 0 4.757 4.757h49.348a4.757 4.757 0 0 0 4.757-4.757v-39.241z" class="cls-14" data-name="Path 47530" transform="translate(-85.582 -237.188)"/></g><g id="ÉåÉCÉÑÅ_2" data-name="ÉåÉCÉÑÅ[ 2" transform="translate(114.879 266.312)"><path id="Path_47531" d="M113.117 263.812a3.049 3.049 0 1 1-3.051-3.05 3.051 3.051 0 0 1 3.051 3.05z" class="cls-15" data-name="Path 47531" transform="translate(-107.019 -260.762)"/><path id="Path_47532" d="M132.113 263.812a3.049 3.049 0 1 1-3.051-3.05 3.051 3.051 0 0 1 3.051 3.05z" class="cls-15" data-name="Path 47532" transform="translate(-98.349 -260.762)"/></g></g></g><path id="Rectangle_8231" d="M10 0h102a10 10 0 0 1 10 10v9H0v-9A10 10 0 0 1 10 0z" class="cls-15" data-name="Rectangle 8231" transform="translate(247.523 104.442)"/><g id="Group_6892" data-name="Group 6892" transform="translate(282.753 113.85)"><path id="Rectangle_8226" d="M0 0h38.611v1.615H0z" class="cls-5" data-name="Rectangle 8226"/></g><g id="Group_6893" data-name="Group 6893" transform="translate(329.819 112.248)"><path id="Path_47477" d="M331.524 109.657a2.41 2.41 0 1 1-2.409-2.409 2.409 2.409 0 0 1 2.409 2.409z" class="cls-5" data-name="Path 47477" transform="translate(-326.705 -107.248)"/></g></g><g id="Group_6904" data-name="Group 6904"><path id="Rectangle_8227" d="M0 0h8.456v21.015H0z" class="cls-16" data-name="Rectangle 8227" transform="translate(132.533 375.438)"/><path id="Rectangle_8228" d="M0 0h8.456v21.015H0z" class="cls-16" data-name="Rectangle 8228" transform="translate(166.357 375.438)"/><path id="Rectangle_8229" d="M0 0h8.69v16.511H0z" class="cls-16" data-name="Rectangle 8229" transform="rotate(-130.654 161.32 51.444)"/><g id="Group_6901" data-name="Group 6901"><g id="Group_6900" data-name="Group 6900"><g id="Group_6895" data-name="Group 6895"><path id="Path_47478" d="m257.536 189.309-7.86 4.39-1.317-2.359 5.5-3.073a2.7 2.7 0 0 1 3.676 1.042z" class="cls-16" data-name="Path 47478"/></g><g id="Group_6896" data-name="Group 6896"><path id="Path_47479" d="m262.486 191.767-14.335 5.321-1.042-2.893 14.307-5.31a1.537 1.537 0 0 1 1.981.92 1.536 1.536 0 0 1-.911 1.962z" class="cls-16" data-name="Path 47479"/></g><g id="Group_6897" data-name="Group 6897"><path id="Path_47480" d="m247.635 197.075-11.974-1.1a3.1 3.1 0 0 1-2.813-3.085v-.355a1.292 1.292 0 0 1 1.293-1.293h16.877v2.753a3.1 3.1 0 0 1-3.383 3.08z" class="cls-16" data-name="Path 47480"/></g><g id="Group_6898" data-name="Group 6898"><path id="Path_47481" d="m259.842 190.623-10.994 6.413-1.681-4.424 10.857-5.406a1.577 1.577 0 0 1 2.116.709l.32.641a1.579 1.579 0 0 1-.618 2.067z" class="cls-16" data-name="Path 47481"/></g><g id="Group_6899" data-name="Group 6899"><path id="Path_47482" d="M243.331 192.915h-10.483a4.333 4.333 0 0 1 4.333-4.333h3.529a2.621 2.621 0 0 1 2.621 2.621z" class="cls-16" data-name="Path 47482"/></g></g></g><path id="Path_47483" d="m134.232 144.89-4.2-15.973s-1.286-23.712 24.7-23.712c23 0 23 23.086 23 23.086l-5.13 16.6z" class="cls-17" data-name="Path 47483"/><path id="Path_47484" d="M153.966 261.21v23.5l-.129 1.3-10.1 101.89h-14.693l-3.329-118.759v-.011l-.247-8.665 28.369.741z" class="cls-18" data-name="Path 47484"/><path id="Path_47485" d="m182.206 260.469-.333 11.747L178.63 387.9h-14.689l-10.1-101.89-.129-1.3v-23.5h.129z" class="cls-18" data-name="Path 47485"/><path id="Path_47486" d="M153.839 286v-24.8h5.27v20.457z" class="cls-19" data-name="Path 47486"/><path id="Path_47487" d="m182.206 260.469-.333 11.747c-4.939-.182-16.525-.8-27.907-1.439a2.022 2.022 0 0 0-.258-.011c-14.206-.8-27.993-1.621-27.993-1.621v-.011l-.247-8.665 28.369.741z" class="cls-19" data-name="Path 47487"/><path id="Path_47488" d="m184.422 256.5-3.068-78.2-28.139-4.08-28.139 4.08-3.069 78.2s-3.061 3.8 0 9.678h62.415c3.061-5.878 0-9.678 0-9.678z" class="cls-20" data-name="Path 47488"/><path id="Path_47489" d="m148.21 172.584-4.859 3.066-5.18 13.488 10.04-5.816 5 4.653v-15.391z" class="cls-21" data-name="Path 47489"/><path id="Path_47490" d="m158.213 172.584 4.859 3.066 5.18 13.488-10.04-5.816-5 4.653v-15.391z" class="cls-21" data-name="Path 47490"/><path id="Path_47491" d="m116.814 248.809-6.226-7.592 8.255-4.765 4.432 3.583z" class="cls-16" data-name="Path 47491"/><path id="Path_47492" d="m125.075 178.3-29.568 31.744s-6.062 4.436-2.83 10.361c3.05 5.59 20.081 26.814 20.081 26.814l10.1-9.664-14.4-21.4 15.9-13.455z" class="cls-20" data-name="Path 47492"/><path id="Path_47493" d="m238.3 205.2-38.374 26.58a3.407 3.407 0 0 1-4.535-.594l-12.841-15.107-1.192-37.779 18.9 31.966 27.2-19.392 8.966 11.833z" class="cls-20" data-name="Path 47493"/><path id="Path_47494" d="M114.717 398.861v2.7h27.925l-.084-1.685-.211-4.1a3.559 3.559 0 0 0-3.552-3.369h-2.12s-1.488-9.912-6.332-9.912c-3.4 0-4.071 8.859-4.071 8.859h-4.044a7.5 7.5 0 0 0-7.511 7.507z" class="cls-22" data-name="Path 47494"/><path id="Path_47495" d="M114.717 398.861v2.7h16.174v-5.588a4.614 4.614 0 0 0-4.619-4.619h-4.044a7.5 7.5 0 0 0-7.511 7.507z" class="cls-23" data-name="Path 47495"/><path id="Path_47496" d="M114.717 399.872v1.685h27.925l-.084-1.685z" class="cls-24" data-name="Path 47496"/><path id="Path_47497" d="M190.112 398.861v2.7h-27.926l.085-1.685.21-4.1a3.559 3.559 0 0 1 3.552-3.369h2.12s1.489-9.912 6.332-9.912c3.4 0 4.072 8.859 4.072 8.859h4.043a7.5 7.5 0 0 1 7.512 7.507z" class="cls-22" data-name="Path 47497"/><path id="Path_47498" d="M190.112 398.861v2.7h-16.174v-5.588a4.614 4.614 0 0 1 4.619-4.619h4.043a7.5 7.5 0 0 1 7.512 7.507z" class="cls-23" data-name="Path 47498"/><path id="Path_47499" d="M190.112 399.872v1.685h-27.926l.084-1.685z" class="cls-24" data-name="Path 47499"/><path id="Path_47500" d="M158.615 163.55v11.892a5.2 5.2 0 0 1-5.2 5.2 5.2 5.2 0 0 1-5.2-5.2V163.55z" class="cls-16" data-name="Path 47500"/><path id="Path_47501" d="M158.615 163.55v7.914a20.716 20.716 0 0 1-5.208.633 20.505 20.505 0 0 1-5.2-.719v-7.828z" class="cls-25" data-name="Path 47501"/><circle id="Ellipse_2805" cx="5.49" cy="5.49" r="5.49" class="cls-25" data-name="Ellipse 2805" transform="translate(128.742 133.91)"/><path id="Path_47502" d="M137.853 139.4a3.621 3.621 0 1 1-3.621-3.621 3.622 3.622 0 0 1 3.621 3.621z" class="cls-23" data-name="Path 47502"/><circle id="Ellipse_2806" cx="5.49" cy="5.49" r="5.49" class="cls-25" data-name="Ellipse 2806" transform="translate(167.101 133.91)"/><path id="Path_47503" d="M176.212 139.4a3.622 3.622 0 1 1-3.621-3.621 3.622 3.622 0 0 1 3.621 3.621z" class="cls-23" data-name="Path 47503"/><path id="Path_47504" d="M172.6 132.4v17.256a19.183 19.183 0 0 1-38.366 0V132.4a19.183 19.183 0 1 1 38.366 0z" class="cls-16" data-name="Path 47504"/><path id="Path_47505" d="M172.6 132.4v1.514h-3.533a8.4 8.4 0 0 1-8.4-8.4l-2.121 2.1a17.581 17.581 0 0 1-12.366 5.086h-9.62v18.254s.547 17.438 23.172 16.8a19.175 19.175 0 0 1-25.5-18.1V132.4a19.089 19.089 0 0 1 1.911-8.354l24.525-6.314 10.609 7.667a19.193 19.193 0 0 1 1.323 7.001z" class="cls-25" data-name="Path 47505"/><g id="Group_6902" data-name="Group 6902"><path id="Path_47506" d="M143.465 140.08c0 1.436-.533 2.6-1.192 2.6s-1.192-1.165-1.192-2.6.534-2.6 1.192-2.6 1.192 1.164 1.192 2.6z" class="cls-17" data-name="Path 47506"/><path id="Path_47507" d="M164.666 140.08c0 1.436-.534 2.6-1.192 2.6s-1.192-1.165-1.192-2.6.534-2.6 1.192-2.6 1.192 1.164 1.192 2.6z" class="cls-17" data-name="Path 47507"/><path id="Path_47508" d="M144.983 147.426c0 .7-1.454 1.273-3.247 1.273s-3.247-.57-3.247-1.273 1.454-1.272 3.247-1.272 3.247.57 3.247 1.272z" class="cls-26" data-name="Path 47508"/><path id="Path_47509" d="M168.333 147.426c0 .7-1.453 1.273-3.247 1.273s-3.246-.57-3.246-1.273 1.453-1.272 3.246-1.272 3.247.57 3.247 1.272z" class="cls-26" data-name="Path 47509"/></g><path id="Path_47510" d="m160.809 123.1-.341.462a19.157 19.157 0 0 1-15.406 7.77h-12.708s1.09-20.222 20.857-20.222c12.341.001 7.598 11.99 7.598 11.99z" class="cls-17" data-name="Path 47510"/><path id="Path_47511" d="M157.47 112.469s-1.966 6.431-6.782 9.44h-6.1l3.861-5.3-5.441 5.3h-7.02a17.315 17.315 0 0 1 6.008-9.673l3.969-.036-3.814 4 5.478-3.978 5.558.059-2.633 4.27a26.858 26.858 0 0 0 4.381-4.117z" data-name="Path 47511" style="fill:#563545"/><path id="Path_47512" d="m160.809 123.1.286.939a10.289 10.289 0 0 0 9.844 7.293h4.635s-1.874-17.921-16.641-18.848z" class="cls-17" data-name="Path 47512"/><g id="Group_6903" data-name="Group 6903"><path id="Path_47513" d="M162.123 154.008s-.576 8.957-8.663 8.957c-8.016 0-8.76-8.957-8.76-8.957z" class="cls-23" data-name="Path 47513"/><path id="Path_47514" d="M160.663 154.008v1.01a.881.881 0 0 1-.885.885h-12.635a.881.881 0 0 1-.885-.885v-1.01z" class="cls-15" data-name="Path 47514"/></g><path id="Path_47515" d="m123.275 240.035 9.647-4.133a4.055 4.055 0 0 1 3.3.045l1.046.483-.005.007 4.305 1.749a1.983 1.983 0 1 1-1.493 3.675l-5.385-2.188-.43.541 4.731 2.132a1.983 1.983 0 0 1-1.628 3.617l-5.65-2.546-.527.664 3.924 2.234a1.982 1.982 0 0 1-.983 3.706 1.959 1.959 0 0 1-.978-.26l-4.461-2.539-.482.606 2.675 1.666a1.983 1.983 0 1 1-2.1 3.366l-3.005-1.871a2.53 2.53 0 0 1-2.088.911c-1.872-.351-6.548-.751-6.874-3.091z" class="cls-16" data-name="Path 47515"/><path id="Path_47516" d="m124.358 202.7-19.3 13.1 3.4.35z" class="cls-28" data-name="Path 47516"/><path id="Path_47517" d="M238.3 205.2 200 231.732a3.5 3.5 0 0 1-4.664-.611l-12.786-15.042 13.43 11.352a2.94 2.94 0 0 0 3.543.192l36.9-24.912z" class="cls-28" data-name="Path 47517"/><path id="Path_47518" d="M155.93 194.025a1.111 1.111 0 1 1-1.111-1.11 1.111 1.111 0 0 1 1.111 1.11z" class="cls-24" data-name="Path 47518"/><path id="Path_47519" d="M155.93 212.762a1.111 1.111 0 1 1-1.111-1.111 1.111 1.111 0 0 1 1.111 1.111z" class="cls-24" data-name="Path 47519"/><path id="Path_47520" d="M155.93 231.5a1.111 1.111 0 1 1-1.111-1.111 1.111 1.111 0 0 1 1.111 1.111z" class="cls-24" data-name="Path 47520"/><path id="Path_47521" d="M155.93 250.236a1.111 1.111 0 1 1-1.111-1.111 1.112 1.112 0 0 1 1.111 1.111z" class="cls-24" data-name="Path 47521"/></g></g></g></svg>