<svg width="25" height="25" viewBox="0 0 25 25" fill="none" xmlns="http://www.w3.org/2000/svg">
<g clip-path="url(#clip0_7478_129792)">
<path d="M4.13681 8.39575C3.72329 8.39575 3.37243 8.53996 3.08402 8.82836C2.79562 9.11677 2.65137 9.46285 2.65137 9.86678V16.0686C2.65137 16.4827 2.79557 16.8332 3.08402 17.1217C3.37243 17.4101 3.72329 17.5543 4.13681 17.5543C4.55002 17.5543 4.89875 17.4101 5.18269 17.1217C5.46607 16.8333 5.60814 16.4827 5.60814 16.0686V9.86678C5.60814 9.46281 5.46394 9.11677 5.17549 8.82836C4.88704 8.53996 4.54074 8.39575 4.13681 8.39575Z" fill="#87AB49"/>
<path d="M16.0795 2.82824L17.1036 0.939135C17.1708 0.814068 17.1469 0.718163 17.0316 0.650726C16.9065 0.592576 16.8104 0.622042 16.7432 0.737041L15.7048 2.64125C14.7911 2.23728 13.8248 2.03492 12.8057 2.03492C11.7864 2.03492 10.8199 2.23732 9.90658 2.64125L8.86816 0.737041C8.80068 0.622042 8.70456 0.592836 8.57975 0.650726C8.46423 0.718467 8.44032 0.814068 8.5078 0.939135L9.5319 2.82824C8.49348 3.3578 7.66644 4.09531 7.05109 5.04239C6.43574 5.98998 6.12793 7.02549 6.12793 8.15074H19.4689C19.4689 7.02575 19.1611 5.99019 18.5458 5.04239C17.9304 4.09531 17.1081 3.3578 16.0795 2.82824ZM10.1589 5.57598C10.0481 5.68699 9.91587 5.74223 9.76212 5.74223C9.60806 5.74223 9.47848 5.68699 9.37277 5.57598C9.26706 5.46549 9.2142 5.33375 9.2142 5.17947C9.2142 5.02572 9.26706 4.89371 9.37277 4.78296C9.47848 4.67248 9.60837 4.61724 9.76212 4.61724C9.91587 4.61724 10.0481 4.67248 10.1589 4.78296C10.2694 4.89397 10.3249 5.02572 10.3249 5.17947C10.3246 5.33348 10.2691 5.46549 10.1589 5.57598ZM16.238 5.57598C16.1321 5.68699 16.0022 5.74223 15.8487 5.74223C15.6946 5.74223 15.5624 5.68699 15.4519 5.57598C15.3412 5.46549 15.2859 5.33375 15.2859 5.17947C15.2859 5.02572 15.3412 4.89371 15.4519 4.78296C15.5624 4.67248 15.6946 4.61724 15.8487 4.61724C16.0025 4.61724 16.1321 4.67248 16.238 4.78296C16.3438 4.89397 16.3966 5.02572 16.3966 5.17947C16.3966 5.33348 16.3438 5.46549 16.238 5.57598Z" fill="#87AB49"/>
<path d="M6.18457 18.2753C6.18457 18.718 6.33832 19.0928 6.64587 19.4003C6.95367 19.7079 7.32844 19.8616 7.77086 19.8616H8.83823L8.85285 23.136C8.85285 23.5495 8.99706 23.9006 9.28546 24.1891C9.57387 24.4775 9.92022 24.6217 10.3239 24.6217C10.7371 24.6217 11.0882 24.4775 11.3767 24.1891C11.6651 23.9006 11.8093 23.5496 11.8093 23.136V19.8619H13.7996V23.136C13.7996 23.5495 13.9438 23.9006 14.2322 24.1891C14.5207 24.4775 14.8715 24.6217 15.285 24.6217C15.6983 24.6217 16.0494 24.4775 16.3378 24.1891C16.6263 23.9006 16.7704 23.5496 16.7704 23.136V19.8619H17.8522C18.2848 19.8619 18.6548 19.7081 18.9629 19.4006C19.2704 19.0931 19.4242 18.7183 19.4242 18.2756V8.66943H6.18457V18.2753Z" fill="#87AB49"/>
<path d="M21.474 8.39575C21.07 8.39575 20.724 8.53783 20.4355 8.8212C20.1471 9.1051 20.0029 9.45383 20.0029 9.86678V16.0686C20.0029 16.4827 20.1471 16.8332 20.4355 17.1217C20.724 17.4101 21.0703 17.5543 21.474 17.5543C21.8873 17.5543 22.2383 17.4101 22.5268 17.1217C22.8152 16.8332 22.9594 16.4827 22.9594 16.0686V9.86678C22.9594 9.45378 22.8152 9.1051 22.5268 8.8212C22.2383 8.53783 21.8873 8.39575 21.474 8.39575Z" fill="#87AB49"/>
</g>
<defs>
<clipPath id="clip0_7478_129792">
<rect width="24" height="24" fill="white" transform="translate(0.804688 0.621704)"/>
</clipPath>
</defs>
</svg>
