<svg xmlns="http://www.w3.org/2000/svg" width="99.52" height="104" viewBox="0 0 99.52 104">
  <g id="Anon" transform="translate(-62.91 -53)">
    <g id="Background" transform="translate(62.91 53)">
      <path id="Path_34592" data-name="Path 34592" d="M162.43,102.757A49.635,49.635,0,0,1,143.887,141.5c-.125.1-.251.2-.377.3a49.682,49.682,0,0,1-62.094-.326c-.122-.1-.245-.195-.368-.3a49.758,49.758,0,1,1,81.381-38.419Z" transform="translate(-62.91 -53)" fill="#ff8c45"/>
    </g>
    <g id="Objects" transform="translate(75.067 69.846)">
      <path id="Path_34593" data-name="Path 34593" d="M267.6,149.133c-.765,6.8-9.069,15.764-9.069,15.764h-13.7V121.427c.019,0,.051,0,.1.008.031,0,.054-.008.066-.008h.012v.016a20.369,20.369,0,0,1,10.4,4.029,33.145,33.145,0,0,1,4.552,4.447c2.986,5.735,4.86,11.993,6.851,15.1A6.167,6.167,0,0,1,267.6,149.133Z" transform="translate(-207.363 -119.606)" fill="#4a4a4a"/>
      <path id="Path_34594" data-name="Path 34594" d="M182.71,121.435c.031,0,.054-.008.066-.008V164.9h-13.7s-8.784-8.964-9.725-15.768a5.923,5.923,0,0,1,.726-4.111c1.819-2.838,3.682-8.3,6.395-13.6a34.862,34.862,0,0,1,5.711-5.93,20.468,20.468,0,0,1,10.416-4.044v-.016h.012C182.628,121.427,182.659,121.431,182.71,121.435Z" transform="translate(-145.138 -119.606)" fill="#4a4a4a"/>
      <rect id="Rectangle_5432" data-name="Rectangle 5432" width="8.821" height="14.952" transform="translate(33.039 37.27)" fill="#fd916f"/>
      <path id="Path_34595" data-name="Path 34595" d="M237.432,288.825c0,.918-1.949,1.663-4.354,1.663s-4.487-1.1-4.487-2.015,2.083-1.313,4.487-1.313S237.432,287.906,237.432,288.825Z" transform="translate(-195.551 -240.129)" fill="#fd916f"/>
      <path id="Path_34596" data-name="Path 34596" d="M182.529,292.743c-1.28,1.015-13.287,9.14-14.678,10-2.363,1.476-4.939-14.9-7.579-13.9a43.257,43.257,0,0,1-30.655-.1c-2.557-.982-4.912,15.346-7.21,13.913-1.508-.936-13.557-7.85-14.933-8.965,1.886-6.407,14.391-27.329,15.438-27.8,3.453-1.513,17.6-5.533,17.6-5.533s8.769.572,8.821.611c0,0,14.65,2.749,17.777,4.922C168.458,266.833,181.081,286.917,182.529,292.743Z" transform="translate(-107.475 -220.644)" fill="#4a4a4a"/>
      <path id="Path_34597" data-name="Path 34597" d="M194.7,202.94a3.584,3.584,0,0,1-3.5,3.662c-1.934,0-4.052-2.413-4.052-4.436s.7-2.889,2.631-2.889S194.7,200.918,194.7,202.94Z" transform="translate(-165.412 -176.219)" fill="#fd916f"/>
      <path id="Path_34598" data-name="Path 34598" d="M277.614,202.94a3.584,3.584,0,0,0,3.5,3.662c1.935,0,4.053-2.413,4.053-4.436s-.7-2.889-2.631-2.889S277.614,200.918,277.614,202.94Z" transform="translate(-231.201 -176.219)" fill="#fd916f"/>
      <path id="Path_34599" data-name="Path 34599" d="M223.5,147.743c0,10.227-6.2,20.686-13.852,20.686S195.8,157.97,195.8,147.743,202,131.39,209.65,131.39,223.5,137.514,223.5,147.743Z" transform="translate(-171.703 -126.852)" fill="#fd9e80"/>
      <path id="Path_34600" data-name="Path 34600" d="M224.459,198.488H211.3v-.015H198.146a15.835,15.835,0,0,0,1.094,7.541s3.1,1.112,10.423-2.011a4.272,4.272,0,0,1,1.64-.39v.015a4.272,4.272,0,0,1,1.639.39c7.32,3.123,10.423,2.011,10.423,2.011A15.838,15.838,0,0,0,224.459,198.488Z" transform="translate(-173.356 -175.635)" fill="#4a4a4a"/>
      <path id="Path_34601" data-name="Path 34601" d="M182.645,114.77v-.017h-.012c-.012,0-.035,0-.066.008-.051,0-.082-.008-.1-.008h-.012v.017c-15.076,1.8-24.173,25.1-23.33,29.53l.082-.025c.808-.25,7.625-2.2,23.26-2.634h.168c15.756.437,21.952,2.413,22.6,2.638.039.013.058.021.058.021C206.318,138.566,196.794,114.233,182.645,114.77Z" transform="translate(-144.995 -114.753)" fill="#636363"/>
      <rect id="Rectangle_5433" data-name="Rectangle 5433" width="47.502" height="4.781" transform="translate(13.367 81.559)" fill="#4a4a4a"/>
      <rect id="Rectangle_5434" data-name="Rectangle 5434" width="50.582" height="29.411" rx="5.938" transform="translate(12.17 55.229)" fill="#636363"/>
      <path id="Path_34602" data-name="Path 34602" d="M202.668,429.089a.814.814,0,0,1-.814.813H152.9a.814.814,0,0,1-.814-.813h0a.814.814,0,0,1,.814-.815h48.954a.814.814,0,0,1,.814.815Z" transform="translate(-139.916 -342.748)" fill="#636363"/>
      <path id="Path_34603" data-name="Path 34603" d="M236.9,371.146a1.249,1.249,0,1,1-1.249-1.249A1.249,1.249,0,0,1,236.9,371.146Z" transform="translate(-199.774 -300.296)" fill="#636363"/>
      <path id="Path_34604" data-name="Path 34604" d="M248.537,371.146a1.249,1.249,0,1,1-1.249-1.249A1.249,1.249,0,0,1,248.537,371.146Z" transform="translate(-208.24 -300.296)" fill="#636363"/>
      <path id="Path_34605" data-name="Path 34605" d="M242.928,382.84a.3.3,0,1,1-.3-.3A.3.3,0,0,1,242.928,382.84Z" transform="translate(-205.548 -309.493)" fill="#636363"/>
      <path id="Path_34606" data-name="Path 34606" d="M239.125,388.707a.342.342,0,0,0-.342-.342h0a.342.342,0,0,0-.342.342v.6a.342.342,0,0,0,.342.342h0a.342.342,0,0,0,.342-.342Z" transform="translate(-202.714 -313.726)" fill="#636363"/>
      <path id="Path_34607" data-name="Path 34607" d="M244.143,388.707a.342.342,0,0,0-.342-.342h0a.342.342,0,0,0-.342.342v.6a.342.342,0,0,0,.342.342h0a.342.342,0,0,0,.342-.342Z" transform="translate(-206.364 -313.726)" fill="#636363"/>
      <path id="Path_34608" data-name="Path 34608" d="M249.162,388.741a.343.343,0,0,0-.343-.343h0a.343.343,0,0,0-.342.343v.6a.342.342,0,0,0,.342.342h0a.342.342,0,0,0,.343-.342Z" transform="translate(-210.013 -313.75)" fill="#636363"/>
    </g>
  </g>
</svg>
