<svg xmlns="http://www.w3.org/2000/svg" width="46.332" height="48" viewBox="0 0 46.332 48">
    <defs>
        <style>
            .cls-1{fill:#87AB49}
        </style>
    </defs>
    <g id="_004-anonymous" data-name="004-anonymous" transform="translate(-3.58)">
        <path id="Path_30615" d="M49.5 5.538a1.4 1.4 0 0 0-.989-.41H48.5a3.682 3.682 0 0 1-2.618-1.084 3.71 3.71 0 0 1-1.1-2.646 1.4 1.4 0 0 0-1.4-1.4H10.1a1.4 1.4 0 0 0-1.4 1.4 3.71 3.71 0 0 1-1.1 2.646 3.683 3.683 0 0 1-2.608 1.084h-.014a1.4 1.4 0 0 0-1.4 1.4 52.239 52.239 0 0 0 3.8 19.476 45.869 45.869 0 0 0 18.628 21.784 1.4 1.4 0 0 0 1.48 0 45.867 45.867 0 0 0 18.626-21.781 52.239 52.239 0 0 0 3.8-19.476 1.4 1.4 0 0 0-.412-.993zM26.746 44.945C9.857 34 6.661 17.493 6.395 7.773a6.462 6.462 0 0 0 3.189-1.75 6.486 6.486 0 0 0 1.77-3.223h30.783a6.486 6.486 0 0 0 1.769 3.228A6.462 6.462 0 0 0 47.1 7.773c-.269 9.72-3.466 26.227-20.354 37.172z" class="cls-1" data-name="Path 30615"/>
        <path id="Path_30616" d="M72.355 98.683a1.4 1.4 0 0 0-1.9.551l-1.216 2.21h-3.811l-1.367-2.259a1.4 1.4 0 0 0-1.2-.675h-5.68a1.4 1.4 0 0 0-1.2.675l-1.367 2.259h-3.809l-1.216-2.21a1.4 1.4 0 1 0-2.45 1.347l1.614 2.934a1.4 1.4 0 0 0 1.225.724h5.427a1.4 1.4 0 0 0 1.2-.675l1.367-2.259h4.107l1.367 2.259a1.4 1.4 0 0 0 1.2.675h5.427a1.4 1.4 0 0 0 1.225-.724l1.614-2.934a1.4 1.4 0 0 0-.557-1.898z" class="cls-1" data-name="Path 30616" transform="translate(-33.277 -75.556)"/>
        <path id="Path_30617" d="M94.067 142.193l2.714-9.388h-5.428z" class="cls-1" data-name="Path 30617" transform="translate(-67.321 -101.86)"/>
        <path id="Path_30618" d="M40.216 36.8a5.645 5.645 0 0 1 4.87 2.81 1.4 1.4 0 0 0 2.42-1.4 8.421 8.421 0 0 0-14.581 0 1.4 1.4 0 1 0 2.42 1.4 5.645 5.645 0 0 1 4.871-2.81z" class="cls-1" data-name="Path 30618" transform="translate(-22.363 -26.084)"/>
        <path id="Path_30619" d="M54.327 55.071a.932.932 0 1 0 0 1.864h3.7a.932.932 0 0 0 0-1.864z" class="cls-1" data-name="Path 30619" transform="translate(-38.208 -42.239)"/>
        <path id="Path_30620" d="M116.552 34.007a8.45 8.45 0 0 0-7.291 4.207 1.4 1.4 0 1 0 2.42 1.4 5.625 5.625 0 0 1 9.741 0 1.4 1.4 0 0 0 2.42-1.4 8.45 8.45 0 0 0-7.29-4.207z" class="cls-1" data-name="Path 30620" transform="translate(-80.912 -26.083)"/>
        <path id="Path_30621" d="M134.359 56.935a.932.932 0 0 0 0-1.864h-3.7a.932.932 0 1 0 0 1.864z" class="cls-1" data-name="Path 30621" transform="translate(-96.757 -42.239)"/>
        <path id="Path_30622" d="M96.644 119.531a.932.932 0 0 0 0-1.864h-2.869a.932.932 0 0 0 0 1.864z" class="cls-1" data-name="Path 30622" transform="translate(-68.464 -90.249)"/>
    </g>
</svg>
