<svg width="93" height="93" viewBox="0 0 93 93" fill="none" xmlns="http://www.w3.org/2000/svg">
<g clip-path="url(#clip0_9221_8624)">
<path d="M91.7395 90.1825L89.2493 70.6381C88.445 64.3187 84.9274 58.6902 79.5991 55.1961L69.288 48.4323L70.1194 48.0394C74.6524 45.8896 78.4082 39.4206 76.0496 34.4343L65.2829 11.6566C61.9635 4.73072 54.7809 0.206543 47.0971 0.206543H46.4889C38.7991 0.206543 31.6203 4.73557 28.2989 11.6654L17.5356 34.439C16.3326 36.9796 17.0336 40.6197 18.2603 43.007C19.5832 45.5812 21.7473 47.2236 24.3073 48.4386L13.9857 55.2071C8.66123 58.7018 5.14421 64.3304 4.33597 70.6505L1.8473 90.1825C1.78207 90.6945 1.9402 91.2098 2.28125 91.5972C2.62229 91.9846 3.11374 92.2065 3.6298 92.2065H39.5371C40.5293 92.2065 41.334 91.4021 41.334 90.4097C41.334 89.4173 40.5293 88.6128 39.5371 88.6128H25.2969V76.5306C25.2969 75.5382 24.4922 74.7337 23.5 74.7337C22.5078 74.7337 21.7031 75.5382 21.7031 76.5306V88.6128H5.67015L7.90079 71.1055C8.5757 65.829 11.5123 61.1292 15.9571 58.2118L28.1092 50.243L41.3022 56.5046C44.7506 58.1426 48.8717 58.147 52.3237 56.5152L65.5381 50.2704L77.628 58.2009C82.0763 61.1179 85.0128 65.8164 85.6841 71.092L87.9165 88.6128H71.8816V76.5306C71.8816 75.5382 71.0769 74.7337 70.0847 74.7337C69.0925 74.7337 68.2878 75.5382 68.2878 76.5306V88.6128H55.5156C54.5234 88.6128 53.7188 89.4173 53.7188 90.4097C53.7188 91.4021 54.5234 92.2065 55.5156 92.2065H89.957C90.4731 92.2065 90.9644 91.9846 91.3056 91.5972C91.6467 91.21 91.8048 90.6945 91.7395 90.1825ZM35.28 22.4095C42.5611 18.8791 51.0188 18.8781 58.3053 22.4001V34.5682C58.3053 40.9162 53.1407 46.0808 46.7927 46.0808C40.4447 46.0808 35.2801 40.9162 35.2801 34.5682V22.4095H35.28ZM31.5439 13.21C34.2838 7.49377 40.1498 3.80029 46.489 3.80029H47.0973C53.4363 3.80029 59.3025 7.49377 62.0381 13.2012L67.0478 23.7997C61.3637 19.0628 54.2929 16.1558 46.8495 16.1315C39.3775 16.1074 32.2373 19.0511 26.5382 23.8017L31.5439 13.21ZM21.7885 41.9438C20.6617 40.1588 20.31 37.9429 20.8338 35.8977C23.4589 31.3651 27.3459 27.3715 31.6862 24.4678V34.5682C31.6862 42.8978 38.4629 49.6745 46.7925 49.6745C55.1221 49.6745 61.8989 42.898 61.8989 34.5682V24.4446C68.4156 28.7898 72.0747 34.7328 72.75 35.8946C73.6589 39.4178 71.8681 43.2325 68.5812 44.7911L50.6484 53.2666C48.2227 54.4134 45.4062 54.4098 42.9828 53.2586L28.7965 46.5257C26.2338 45.3094 23.4015 44.4891 21.7885 41.9438Z" fill="#879EC1"/>
<path d="M42.5293 30.2495C43.5215 30.2495 44.3262 29.445 44.3262 28.4526C44.3262 28.3336 44.3344 28.214 44.3506 28.0982C44.5245 26.8523 45.5953 25.9274 46.8526 25.9274C46.8698 25.9274 46.8869 25.9276 46.9043 25.928C48.2204 25.9544 49.3048 27.0034 49.3731 28.3159C49.4093 29.0172 49.1643 29.6829 48.6825 30.1904C48.2002 30.6981 47.5499 30.9777 46.8513 30.9777C45.8591 30.9777 45.0544 31.7822 45.0544 32.7746V35.4949C45.0544 36.4873 45.8591 37.2918 46.8513 37.2918C47.8436 37.2918 48.6482 36.4873 48.6482 35.4949V34.2994C49.6453 33.9916 50.5606 33.4317 51.2887 32.6646C52.4556 31.4356 53.05 29.8249 52.962 28.1293C52.7965 24.9444 50.1673 22.3991 46.9766 22.3348C43.8755 22.2719 41.2192 24.5363 40.791 27.6023C40.7522 27.8826 40.7324 28.1685 40.7324 28.4524C40.7324 29.445 41.5369 30.2495 42.5293 30.2495Z" fill="#87AB49"/>
<path d="M48.5112 40.3541C47.5828 38.1273 44.1278 39.7374 45.2751 41.8842C46.3169 43.8336 49.3495 42.401 48.5112 40.3541Z" fill="#87AB49"/>
<path d="M49.3306 89.7233C48.9596 88.8182 47.8859 88.3756 46.9837 88.7511C46.0801 89.1274 45.6377 90.1904 46.0116 91.0961C46.385 92.0006 47.4552 92.4432 48.3585 92.0682C49.2611 91.6935 49.7074 90.6278 49.3306 89.7233Z" fill="#879EC1"/>
</g>
<defs>
<clipPath id="clip0_9221_8624">
<rect width="92" height="92" fill="white" transform="translate(0.793457 0.206543)"/>
</clipPath>
</defs>
</svg>
