<svg xmlns="http://www.w3.org/2000/svg" width="440.946" height="436.891"><defs><clipPath id="clip-path"><path d="M0 0h436.891v436.891H0z" style="fill:none"/></clipPath><style>.cls-14{fill:none}.cls-7{fill:#facc9b}.cls-8{fill:#eab88b}.cls-9{fill:#fec550}.cls-12{fill:#efc095}.cls-13{fill:#070707}.cls-14{stroke:#070707;stroke-miterlimit:10}.cls-16{fill:#676d7a}.cls-17{fill:#444747}.cls-18{fill:#296377}.cls-23{fill:#7a7a7a;opacity:.46}.cls-25{fill:#2b2527}.cls-28{fill:#969187}.cls-30{fill:#838993}.cls-31,.cls-36{fill:#ddd3bf}.cls-32{fill:#2c2c2d}.cls-34,.cls-35{fill:#514943}.cls-35{opacity:.21}.cls-36{opacity:.27}</style></defs><g id="Anon_ill" transform="translate(-616.369 -86.055)"><g id="Symbol_20_84" data-name="Symbol 20 – 84" transform="translate(616.369 86.055)" style="clip-path:url(#clip-path)"><circle id="Ellipse_1742" cx="152.003" cy="152.003" r="152.003" data-name="Ellipse 1742" transform="translate(66.442 66.442)" style="opacity:.204;fill:#d5d7db"/><circle id="Ellipse_1743" cx="218.445" cy="218.445" r="218.445" data-name="Ellipse 1743" style="opacity:.152;fill:#d5d7db"/></g><g id="Group_2957" data-name="Group 2957"><path id="Path_32408" d="M668.594 366.843s-35.909-29.294-35.909-42.524c0-10.438 11.176-35.582 15.893-45.729a16.545 16.545 0 0 1 6.021-6.917l28.169-18.227H714.9v113.4z" data-name="Path 32408" style="fill:#3b3b3b"/><path id="Path_32409" d="M677.1 258.171c16.064 9.449 37.8 39.689 37.8 39.689v-68.039c-29.471 0-50.571 4.68-52.2 15.76.665 3.709 4.874 6.987 14.4 12.59z" data-name="Path 32409" style="fill:#932727"/><path id="Path_32410" d="M714.9 273.29c-17.955 0-24.57-25.514-25.515-34.019s-.945-12.285-.945-12.285h26.46z" class="cls-7" data-name="Path 32410"/><path id="Path_32411" d="M714.9 273.29c17.954 0 24.569-25.514 25.514-34.019s.945-12.285.945-12.285H714.9z" class="cls-8" data-name="Path 32411"/><path id="Path_32412" d="M714.9 229.821v-53.864c-32.13 0-43.469 51.029-49.139 60.479-2.308 3.847-3.519 6.6-3.061 9.145 1.627-11.081 22.727-15.76 52.2-15.76z" class="cls-9" data-name="Path 32412"/><path id="Path_32413" d="M761.2 366.843s35.909-29.294 35.909-42.524c0-10.438-11.177-35.582-15.894-45.729a16.543 16.543 0 0 0-6.02-6.917l-28.17-18.227H714.9v113.4z" data-name="Path 32413" style="fill:#2b2a2a"/><path id="Path_32414" d="M752.7 258.171c-16.065 9.449-37.8 39.689-37.8 39.689v-68.039c29.471 0 50.57 4.68 52.2 15.76-.67 3.709-4.879 6.987-14.4 12.59z" data-name="Path 32414" style="fill:#821d1d"/><path id="Path_32415" d="M714.9 273.29c17.954 0 24.569-25.514 25.514-34.019s.945-12.285.945-12.285H714.9z" class="cls-12" data-name="Path 32415"/><path id="Path_32416" d="M714.9 229.821v-53.864c32.129 0 43.469 51.029 49.139 60.479 2.308 3.847 3.519 6.6 3.061 9.145-1.632-11.081-22.731-15.76-52.2-15.76z" class="cls-9" data-name="Path 32416"/><g id="Group_2956" data-name="Group 2956"><g id="Group_2955" data-name="Group 2955"><path id="Path_32417" d="m724.409 226.495 11.983 1.872a5.873 5.873 0 0 1 4.965 5.8v1.707a5.872 5.872 0 0 1-5.872 5.872H723.5a5.872 5.872 0 0 1-5.872-5.872V232.3a5.872 5.872 0 0 1 6.781-5.805z" class="cls-13" data-name="Path 32417"/><path id="Path_32418" d="m705.661 226.495-11.983 1.872a5.873 5.873 0 0 0-4.965 5.8v1.707a5.872 5.872 0 0 0 5.872 5.872h11.983a5.872 5.872 0 0 0 5.872-5.872V232.3a5.872 5.872 0 0 0-6.779-5.805z" class="cls-13" data-name="Path 32418"/></g><path id="Line_54" d="M8.898 0H0" class="cls-14" data-name="Line 54" transform="translate(710.586 234.333)"/></g><path id="Path_32419" d="M714.9 229.821v-53.864c-32.13 0-43.469 51.029-49.139 60.479-2.308 3.847-3.519 6.6-3.061 9.145 1.627-11.081 22.727-15.76 52.2-15.76z" class="cls-9" data-name="Path 32419"/><path id="Path_32420" d="M662.7 245.581c.017.094.046.186.067.28 8.917-5.888 27.967-8.48 52.133-8.48v-7.56c-29.473 0-50.573 4.679-52.2 15.76z" class="cls-9" data-name="Path 32420"/><path id="Path_32421" d="M714.9 229.821v-53.864c32.129 0 43.469 51.029 49.139 60.479 2.308 3.847 3.519 6.6 3.061 9.145-1.632-11.081-22.731-15.76-52.2-15.76z" data-name="Path 32421" style="fill:#efad3a"/><path id="Path_32422" d="M767.1 245.581c-.017.094-.046.186-.068.28-8.916-5.888-27.967-8.48-52.132-8.48v-7.56c29.469 0 50.568 4.679 52.2 15.76z" class="cls-9" data-name="Path 32422"/></g><g id="Group_2959" data-name="Group 2959"><rect id="Rectangle_4968" width="113.795" height="61.992" class="cls-16" data-name="Rectangle 4968" rx="3.214" transform="translate(658 304.851)"/><path id="Path_32423" d="M771.795 377.278v-6.621a1.973 1.973 0 0 0-1.973-1.973H659.973a1.974 1.974 0 0 0-1.973 1.973v6.621z" class="cls-16" data-name="Path 32423"/><g id="Group_2958" data-name="Group 2958"><path id="Rectangle_4969" d="M0 0h26.712v2.455H0z" class="cls-17" data-name="Rectangle 4969" transform="translate(729.923 366.229)"/><path id="Rectangle_4970" d="M0 0h26.712v2.455H0z" class="cls-17" data-name="Rectangle 4970" transform="translate(673.161 366.229)"/></g></g><g id="Group_2962" data-name="Group 2962"><path id="Path_32424" d="M928.8 366.843s-35.909-29.294-35.909-42.524c0-10.438 11.177-35.582 15.893-45.729a16.552 16.552 0 0 1 6.021-6.917l28.17-18.227H975.1v113.4z" class="cls-18" data-name="Path 32424"/><path id="Path_32425" d="M937.3 258.171c16.065 9.449 37.8 39.689 37.8 39.689v-68.039c-29.471 0-50.57 4.68-52.2 15.76.67 3.709 4.878 6.987 14.4 12.59z" data-name="Path 32425" style="fill:#052026"/><path id="Path_32426" d="M975.1 273.29c-17.955 0-24.569-25.514-25.514-34.019s-.945-12.285-.945-12.285H975.1z" class="cls-7" data-name="Path 32426"/><path id="Path_32427" d="M975.1 273.29c17.955 0 24.57-25.514 25.515-34.019s.944-12.285.944-12.285H975.1z" class="cls-8" data-name="Path 32427"/><path id="Path_32428" d="M975.1 229.821v-53.864c-32.129 0-43.469 51.029-49.139 60.479-2.308 3.847-3.519 6.6-3.061 9.145 1.632-11.081 22.731-15.76 52.2-15.76z" class="cls-9" data-name="Path 32428"/><path id="Path_32429" d="M1021.406 366.843s35.909-29.294 35.909-42.524c0-10.438-11.176-35.582-15.893-45.729a16.552 16.552 0 0 0-6.021-6.917l-28.17-18.227H975.1v113.4z" data-name="Path 32429" style="fill:#154856"/><path id="Path_32430" d="M1012.9 258.171c-16.064 9.449-37.8 39.689-37.8 39.689v-68.039c29.471 0 50.571 4.68 52.2 15.76-.665 3.709-4.874 6.987-14.4 12.59z" data-name="Path 32430" style="fill:#020f11"/><path id="Path_32431" d="M975.1 273.29c17.955 0 24.57-25.514 25.515-34.019s.944-12.285.944-12.285H975.1z" class="cls-12" data-name="Path 32431"/><path id="Path_32432" d="M975.1 229.821v-53.864c32.129 0 43.469 51.029 49.139 60.479 2.308 3.847 3.519 6.6 3.061 9.145-1.627-11.081-22.727-15.76-52.2-15.76z" class="cls-9" data-name="Path 32432"/><g id="Group_2961" data-name="Group 2961"><g id="Group_2960" data-name="Group 2960"><path id="Path_32433" d="m985.791 224.578 13.489 2.107a6.61 6.61 0 0 1 5.59 6.531v1.922a6.611 6.611 0 0 1-6.611 6.61h-13.488a6.61 6.61 0 0 1-6.61-6.61v-4.029a6.609 6.609 0 0 1 7.63-6.531z" class="cls-13" data-name="Path 32433"/><path id="Path_32434" d="m964.687 224.578-13.487 2.107a6.61 6.61 0 0 0-5.589 6.531v1.922a6.61 6.61 0 0 0 6.61 6.61h13.489a6.611 6.611 0 0 0 6.61-6.61v-4.029a6.61 6.61 0 0 0-7.633-6.531z" class="cls-13" data-name="Path 32434"/></g><path id="Line_55" d="M8.898 0H0" class="cls-14" data-name="Line 55" transform="translate(970.79 234.333)"/></g><path id="Path_32435" d="M975.1 233.25v-57.293c-32.129 0-43.469 51.029-49.139 60.479-2.308 3.847-3.519 6.6-3.061 9.145 1.632-11.081 22.731-12.331 52.2-12.331z" data-name="Path 32435" style="fill:#267e96"/><path id="Path_32436" d="M922.9 245.581c.017.094.046.186.068.28 8.916-5.888 27.967-4.654 52.132-4.654v-7.957c-29.469 0-50.568 1.25-52.2 12.331z" class="cls-23" data-name="Path 32436"/><path id="Path_32437" d="M975.1 233.25v-57.293c32.129 0 43.469 51.029 49.139 60.479 2.308 3.847 3.519 6.6 3.061 9.145-1.627-11.081-22.727-12.331-52.2-12.331z" class="cls-18" data-name="Path 32437"/><path id="Path_32438" d="M1027.3 245.581c-.017.094-.046.186-.068.28-8.916-5.888-27.967-4.654-52.132-4.654v-7.957c29.473 0 50.573 1.25 52.2 12.331z" class="cls-23" data-name="Path 32438"/></g><g id="Group_2964" data-name="Group 2964"><rect id="Rectangle_4971" width="113.795" height="61.992" class="cls-16" data-name="Rectangle 4971" rx="3.214" transform="translate(918.205 304.851)"/><path id="Path_32439" d="M1032 377.278v-6.621a1.974 1.974 0 0 0-1.973-1.973h-109.85a1.973 1.973 0 0 0-1.972 1.973v6.621z" class="cls-16" data-name="Path 32439"/><g id="Group_2963" data-name="Group 2963"><path id="Rectangle_4972" d="M0 0h26.712v2.455H0z" class="cls-17" data-name="Rectangle 4972" transform="translate(990.128 366.229)"/><path id="Rectangle_4973" d="M0 0h26.712v2.455H0z" class="cls-17" data-name="Rectangle 4973" transform="translate(933.365 366.229)"/></g></g><path id="Path_32440" d="M784.969 415.472s-46.554-37.978-46.554-55.129c0-13.533 14.49-46.131 20.605-59.286a21.46 21.46 0 0 1 7.806-8.967l36.52-23.631H845v147.013z" data-name="Path 32440" style="fill:#6d1b38"/><path id="Path_32441" d="M795.995 274.585C816.822 286.836 845 310.436 845 310.436v-89.122c-38.208 0-65.562 22.584-67.674 36.949.865 4.809 6.322 9.058 18.669 16.322z" class="cls-25" data-name="Path 32441"/><path id="Path_32442" d="M845 221.314V168c-41.654 0-56.355 66.156-63.706 78.407-2.992 4.988-4.563 8.554-3.968 11.856 2.112-14.363 29.466-36.949 67.674-36.949z" class="cls-9" data-name="Path 32442"/><path id="Path_32443" d="M905.03 415.472s46.555-37.978 46.555-55.129c0-13.533-14.49-46.131-20.605-59.286a21.46 21.46 0 0 0-7.806-8.967l-36.52-23.631H845v147.013z" data-name="Path 32443" style="fill:#591430"/><path id="Path_32444" d="M894 274.585c-20.827 12.251-49 35.851-49 35.851v-89.122c38.208 0 65.562 22.584 67.674 36.949-.865 4.809-6.322 9.058-18.674 16.322z" class="cls-25" data-name="Path 32444"/><path id="Path_32445" d="M845 221.314V168c41.654 0 56.355 66.156 63.706 78.407 2.992 4.988 4.562 8.554 3.968 11.856-2.112-14.363-29.466-36.949-67.674-36.949z" class="cls-9" data-name="Path 32445"/><path id="Path_32446" d="M845 221.314V168c-41.654 0-56.355 66.156-63.706 78.407-2.992 4.988-4.563 8.554-3.968 11.856 2.112-14.363 29.466-36.949 67.674-36.949z" data-name="Path 32446" style="fill:#af5877"/><path id="Path_32447" d="M777.326 258.263c.021.122.06.242.087.363 11.56-7.633 36.656-27.7 67.985-27.7v-9.8c-38.208-.005-65.96 22.774-68.072 37.137z" class="cls-28" data-name="Path 32447"/><path id="Path_32448" d="M845 221.314V168c41.654 0 56.355 66.156 63.706 78.407 2.992 4.988 4.562 8.554 3.968 11.856-2.112-14.363-29.466-36.949-67.674-36.949z" data-name="Path 32448" style="fill:#92425b"/><path id="Path_32449" d="M912.674 258.263c-.022.122-.06.242-.088.363-11.559-7.633-35.859-27.7-67.188-27.7v-9.8c38.202-.005 65.164 22.774 67.276 37.137z" class="cls-28" data-name="Path 32449"/><g id="Group_2966" data-name="Group 2966"><rect id="Rectangle_4974" width="147.529" height="80.369" class="cls-30" data-name="Rectangle 4974" rx="3.214" transform="translate(771.236 335.104)"/><path id="Path_32450" d="M918.764 429v-8.583a2.557 2.557 0 0 0-2.557-2.557H773.793a2.557 2.557 0 0 0-2.557 2.557V429z" class="cls-30" data-name="Path 32450"/><g id="Group_2965" data-name="Group 2965"><path id="Rectangle_4975" d="M0 0h34.63v3.183H0z" class="cls-17" data-name="Rectangle 4975" transform="translate(864.479 414.677)"/><path id="Rectangle_4976" d="M0 0h34.63v3.183H0z" class="cls-17" data-name="Rectangle 4976" transform="translate(790.89 414.677)"/></g></g><g id="Group_2967" data-name="Group 2967"><path id="Path_32451" d="M846.486 307.662c14.079 0 35.671-30.408 40.514-73.131 0 0-5.324-12.852-40.208-12.852S805 236.13 805 236.13s15.153 71.532 41.486 71.532z" class="cls-31" data-name="Path 32451"/><path id="Path_32452" d="M854.831 241.031c-.55.127-.071 3.6.64 3.567a34.465 34.465 0 0 1 23.612.131c1.117.424-5.994-7.897-24.252-3.698z" class="cls-32" data-name="Path 32452"/><path id="Path_32453" d="M838.752 240.4c.55.126.071 3.6-.639 3.566a34.468 34.468 0 0 0-23.613.131c-1.113.422 5.994-7.897 24.252-3.697z" class="cls-32" data-name="Path 32453"/><path id="Path_32454" d="M818.281 241.407c12.352-13.2 31.595-15.995 46.129-7.406 6.515 3.85 10.929 10.549 14.376 18.386 1.1 2.506 2.147 5.045 3.062 7.628A148.381 148.381 0 0 0 887 234.531s-5.324-12.852-40.208-12.852S805 236.13 805 236.13s1.789 8.436 5.2 19.511a38.056 38.056 0 0 1 8.081-14.234z" data-name="Path 32454" style="opacity:.36;fill:#ddd3bf"/><path id="Path_32455" d="M856.39 251.156c0 8.526 12.838 7.216 12.838 0 0-7.614-12.838-7.013-12.838 0z" class="cls-34" data-name="Path 32455"/><path id="Path_32456" d="M837.147 251.156c0 8.526-12.838 7.216-12.838 0 0-7.614 12.838-7.013 12.838 0z" class="cls-34" data-name="Path 32456"/><path id="Path_32457" d="M856.557 252.728c1.424 6.449 11.685 5.285 12.6-.705-4.099 2.111-8.899 2.517-12.6.705z" class="cls-35" data-name="Path 32457"/><path id="Path_32458" d="M824.316 251.29c.161 7.069 12.734 8.326 12.827-.044a13.274 13.274 0 0 1-12.827.044z" class="cls-35" data-name="Path 32458"/><path id="Path_32459" d="M853.8 239.174a162.756 162.756 0 0 1 23.1-6.2c.9-.171.516-1.9-.375-1.734a162.734 162.734 0 0 0-23.1 6.2c-.876.3-.5 2.04.376 1.734z" class="cls-36" data-name="Path 32459"/><path id="Path_32460" d="M842.107 237.44a162.757 162.757 0 0 0-23.1-6.2c-.89-.17-1.274 1.563-.376 1.734a162.769 162.769 0 0 1 23.1 6.2c.878.306 1.253-1.428.375-1.734z" class="cls-36" data-name="Path 32460"/><path id="Path_32461" d="M852.6 267.576c.313 2.143.65 4.62-.653 6.355-.628.837.37 2.11 1 1.271 1.693-2.254 1.43-5.27 1.016-8.1-.166-1.136-1.529-.655-1.363.478z" class="cls-36" data-name="Path 32461"/><path id="Path_32462" d="M839.648 267.1c-.415 2.834-.677 5.85 1.016 8.1.629.839 1.628-.434 1-1.271-1.3-1.735-.966-4.211-.652-6.355.165-1.131-1.2-1.616-1.363-.478z" class="cls-36" data-name="Path 32462"/><path id="Path_32463" d="M846.792 243.493c-4.418 0-4.968 28.639-4.575 29.638s8.087 1.9 9.187 0-.43-29.638-4.612-29.638z" data-name="Path 32463" style="fill:#e8dfcf;opacity:.77"/><path id="Path_32464" d="M854.158 263.558c1.833-3.517 5.888-1.456 8.578-1.626a12.25 12.25 0 0 0 5.794-1.945c4.658-2.96 7.5-10.665 13.171-10.722.909-.009.911-1.807 0-1.8-6.149.062-8.892 7.821-13.884 10.967-3.4 2.144-6.347 1.349-9.926 1.293a5.117 5.117 0 0 0-4.954 2.923c-.5.968.719 1.869 1.221.908z" class="cls-36" data-name="Path 32464"/><path id="Path_32465" d="M840.807 262.65a5.131 5.131 0 0 0-4.954-2.923c-3.586.029-6.509.861-9.926-1.293-4.995-3.148-7.731-10.9-13.884-10.967-.91-.009-.911 1.789 0 1.8 5.671.057 8.512 7.762 13.17 10.722a12.253 12.253 0 0 0 5.795 1.945c2.684.17 6.747-1.886 8.578 1.626.5.96 1.725.061 1.221-.908z" class="cls-36" data-name="Path 32465"/><path id="Path_32466" d="M871.466 277.753c-2.827 4.208-8.124 5.139-14.909 2.085-5.7-2.563-8.351 3.752-9.174 5.665-.822-1.913-3.481-8.228-9.173-5.665-6.785 3.056-12.083 2.123-14.909-2.085-2.811-4.184 6.723 20.823 24.082 8.735 17.36 12.088 26.894-12.919 24.083-8.735z" class="cls-32" data-name="Path 32466"/><path id="Path_32467" d="M841.53 295.8c1.68-4.254 7.919-5.453 9.616-.57.367 1.057 1.585.143 1.221-.907-2.122-6.107-9.92-4.842-12.058.569-.407 1.032.812 1.943 1.221.908z" class="cls-31" data-name="Path 32467"/><path id="Path_32468" d="M845.415 296.542a1.575 1.575 0 0 1 2.349.2c.663.791 1.664-.479 1-1.272a2.78 2.78 0 0 0-4.062-.483c-.755.636-.048 2.194.714 1.552z" class="cls-31" data-name="Path 32468"/></g></g></svg>