<svg width="110" height="33" viewBox="0 0 110 33" fill="none" xmlns="http://www.w3.org/2000/svg">
<path d="M47.9205 18.4265H43.2656L42.3776 20.5788H40L44.4687 10.5347H46.7604L51.2434 20.5788H48.8085L47.9205 18.4265ZM47.1901 16.6616L45.6002 12.8161L44.0104 16.6616H47.1901Z" fill="#5A78A6"/>
<path d="M56.6807 12.7444C57.3969 12.7444 58.0462 12.9118 58.6287 13.2466C59.2207 13.5718 59.6838 14.0358 60.018 14.6384C60.3522 15.2315 60.5193 15.925 60.5193 16.719C60.5193 17.513 60.3522 18.2113 60.018 18.8139C59.6838 19.407 59.2207 19.8709 58.6287 20.2058C58.0462 20.531 57.3969 20.6936 56.6807 20.6936C55.6972 20.6936 54.9238 20.3827 54.3604 19.7609V23.3625H52.1261V12.8592H54.2602V13.7488C54.814 13.0792 55.6209 12.7444 56.6807 12.7444ZM56.294 18.857C56.8669 18.857 57.3348 18.6657 57.6977 18.283C58.0701 17.8908 58.2563 17.3695 58.2563 16.719C58.2563 16.0685 58.0701 15.552 57.6977 15.1693C57.3348 14.7771 56.8669 14.581 56.294 14.581C55.7211 14.581 55.2485 14.7771 54.8761 15.1693C54.5132 15.552 54.3318 16.0685 54.3318 16.719C54.3318 17.3695 54.5132 17.8908 54.8761 18.283C55.2485 18.6657 55.7211 18.857 56.294 18.857Z" fill="#5A78A6"/>
<path d="M66.5697 12.7444C67.2858 12.7444 67.9351 12.9118 68.5176 13.2466C69.1096 13.5718 69.5727 14.0358 69.9069 14.6384C70.2411 15.2315 70.4082 15.925 70.4082 16.719C70.4082 17.513 70.2411 18.2113 69.9069 18.8139C69.5727 19.407 69.1096 19.8709 68.5176 20.2058C67.9351 20.531 67.2858 20.6936 66.5697 20.6936C65.5862 20.6936 64.8127 20.3827 64.2494 19.7609V23.3625H62.015V12.8592H64.1491V13.7488C64.7029 13.0792 65.5098 12.7444 66.5697 12.7444ZM66.1829 18.857C66.7559 18.857 67.2237 18.6657 67.5866 18.283C67.959 17.8908 68.1452 17.3695 68.1452 16.719C68.1452 16.0685 67.959 15.552 67.5866 15.1693C67.2237 14.7771 66.7559 14.581 66.1829 14.581C65.61 14.581 65.1374 14.7771 64.765 15.1693C64.4021 15.552 64.2207 16.0685 64.2207 16.719C64.2207 17.3695 64.4021 17.8908 64.765 18.283C65.1374 18.6657 65.61 18.857 66.1829 18.857Z" fill="#5A78A6"/>
<path d="M75.3557 20.751C74.5632 20.751 73.7945 20.6458 73.0497 20.4353C72.3145 20.2153 71.7225 19.9331 71.2737 19.5888L72.0615 17.8382C72.4911 18.1539 73.002 18.4074 73.594 18.5987C74.186 18.79 74.778 18.8857 75.37 18.8857C76.0289 18.8857 76.5159 18.79 76.831 18.5987C77.1461 18.3978 77.3036 18.1347 77.3036 17.8095C77.3036 17.5704 77.2081 17.3743 77.0172 17.2212C76.8357 17.0586 76.597 16.9294 76.301 16.8338C76.0146 16.7381 75.6231 16.6329 75.1266 16.5181C74.3627 16.3364 73.7372 16.1546 73.2503 15.9729C72.7633 15.7911 72.3431 15.4994 71.9898 15.0976C71.6461 14.6958 71.4742 14.1601 71.4742 13.4905C71.4742 12.907 71.6318 12.3809 71.9469 11.9122C72.262 11.4339 72.7346 11.056 73.3648 10.7786C74.0046 10.5012 74.7828 10.3625 75.6995 10.3625C76.3392 10.3625 76.9647 10.439 77.5758 10.5921C78.1869 10.7451 78.7216 10.9651 79.1799 11.2521L78.4638 13.017C77.5376 12.4909 76.6114 12.2278 75.6851 12.2278C75.0358 12.2278 74.5536 12.3331 74.2385 12.5435C73.933 12.754 73.7802 13.0314 73.7802 13.3757C73.7802 13.7201 73.9569 13.9784 74.3102 14.1506C74.673 14.3132 75.222 14.4758 75.9573 14.6384C76.7212 14.8202 77.3466 15.0019 77.8336 15.1837C78.3205 15.3654 78.7359 15.6524 79.0797 16.0446C79.433 16.4368 79.6096 16.9677 79.6096 17.6373C79.6096 18.2113 79.4473 18.7374 79.1226 19.2157C78.8075 19.6844 78.3301 20.0575 77.6903 20.3349C77.0506 20.6123 76.2724 20.751 75.3557 20.751Z" fill="#5A78A6"/>
<path d="M86.0076 20.2058C85.7879 20.3684 85.5158 20.4927 85.1912 20.5788C84.876 20.6553 84.5419 20.6936 84.1886 20.6936C83.2719 20.6936 82.5605 20.4592 82.0544 19.9905C81.5579 19.5218 81.3097 18.8331 81.3097 17.9243V14.7532H80.1209V13.0314H81.3097V11.1517H83.544V13.0314H85.4633V14.7532H83.544V17.8956C83.544 18.2208 83.6252 18.4743 83.7875 18.6561C83.9594 18.8283 84.1981 18.9144 84.5037 18.9144C84.8569 18.9144 85.1577 18.8187 85.406 18.6274L86.0076 20.2058Z" fill="#5A78A6"/>
<path d="M90.6907 20.6936C89.879 20.6936 89.1486 20.5262 88.4993 20.1914C87.8595 19.847 87.3582 19.3735 86.9954 18.7709C86.6325 18.1682 86.4511 17.4843 86.4511 16.719C86.4511 15.9537 86.6325 15.2698 86.9954 14.6671C87.3582 14.0645 87.8595 13.5957 88.4993 13.2609C89.1486 12.9166 89.879 12.7444 90.6907 12.7444C91.5023 12.7444 92.228 12.9166 92.8677 13.2609C93.5075 13.5957 94.0088 14.0645 94.3717 14.6671C94.7345 15.2698 94.9159 15.9537 94.9159 16.719C94.9159 17.4843 94.7345 18.1682 94.3717 18.7709C94.0088 19.3735 93.5075 19.847 92.8677 20.1914C92.228 20.5262 91.5023 20.6936 90.6907 20.6936ZM90.6907 18.857C91.2636 18.857 91.7315 18.6657 92.0943 18.283C92.4667 17.8908 92.6529 17.3695 92.6529 16.719C92.6529 16.0685 92.4667 15.552 92.0943 15.1693C91.7315 14.7771 91.2636 14.581 90.6907 14.581C90.1178 14.581 89.6451 14.7771 89.2727 15.1693C88.9003 15.552 88.7141 16.0685 88.7141 16.719C88.7141 17.3695 88.9003 17.8908 89.2727 18.283C89.6451 18.6657 90.1178 18.857 90.6907 18.857Z" fill="#5A78A6"/>
<path d="M98.5435 13.8779C98.8109 13.5049 99.1689 13.2227 99.6177 13.0314C100.076 12.84 100.601 12.7444 101.193 12.7444V14.8106C100.945 14.7915 100.778 14.7819 100.692 14.7819C100.052 14.7819 99.5509 14.9637 99.188 15.3272C98.8252 15.6811 98.6438 16.2168 98.6438 16.9342V20.5788H96.4094V12.8592H98.5435V13.8779Z" fill="#5A78A6"/>
<path d="M110 16.7477C110 16.7764 109.986 16.9773 109.957 17.3503H104.128C104.233 17.8286 104.481 18.2065 104.872 18.4839C105.264 18.7613 105.751 18.9 106.333 18.9C106.734 18.9 107.088 18.8426 107.393 18.7278C107.708 18.6035 108 18.4122 108.267 18.1539L109.456 19.4453C108.73 20.2775 107.67 20.6936 106.276 20.6936C105.407 20.6936 104.638 20.5262 103.97 20.1914C103.302 19.847 102.786 19.3735 102.423 18.7709C102.06 18.1682 101.879 17.4843 101.879 16.719C101.879 15.9633 102.056 15.2841 102.409 14.6815C102.772 14.0693 103.263 13.5957 103.884 13.2609C104.514 12.9166 105.216 12.7444 105.99 12.7444C106.744 12.7444 107.427 12.907 108.038 13.2322C108.649 13.5575 109.126 14.0262 109.47 14.6384C109.823 15.2411 110 15.9442 110 16.7477ZM106.004 14.4375C105.498 14.4375 105.073 14.581 104.729 14.868C104.385 15.155 104.175 15.5472 104.099 16.0446H107.895C107.818 15.5567 107.608 15.1693 107.264 14.8824C106.921 14.5858 106.5 14.4375 106.004 14.4375Z" fill="#5A78A6"/>
<g clip-path="url(#clip0_11316_12716)">
<path d="M25.5298 0.651703H6.95364C3.47451 0.651703 0.657715 3.46918 0.657715 6.94917V25.5337C0.657715 29.0098 3.47451 31.8273 6.95364 31.8273H25.5337C29.0089 31.8273 31.8296 29.0098 31.8296 25.5298V6.94917C31.8257 3.46918 29.0089 0.651703 25.5298 0.651703Z" fill="url(#paint0_linear_11316_12716)"/>
<path d="M16.1091 7.81427L16.7403 6.72311C17.1299 6.04112 17.9987 5.81124 18.6805 6.20092C19.3623 6.5906 19.5922 7.45961 19.2026 8.1416L13.1209 18.6712H17.5195C18.9454 18.6712 19.7441 20.3469 19.1246 21.5082H6.22893C5.44196 21.5082 4.81079 20.8768 4.81079 20.0897C4.81079 19.3025 5.44196 18.6712 6.22893 18.6712H9.84444L14.4729 10.6473L13.0275 8.1377C12.6379 7.45571 12.8677 6.5945 13.5496 6.19702C14.2314 5.80734 15.0924 6.03723 15.4898 6.71922L16.1091 7.81427Z" fill="white"/>
<path d="M10.6392 22.9695L9.27564 25.335C8.88605 26.0169 8.01726 26.2468 7.33544 25.8571C6.65361 25.4675 6.42378 24.5985 6.81337 23.9165L7.82633 22.1629C8.97172 21.8083 9.90285 22.081 10.6392 22.9695Z" fill="white"/>
<path d="M22.3817 18.679H26.0712C26.8582 18.679 27.4893 19.3103 27.4893 20.0975C27.4893 20.8846 26.8582 21.516 26.0712 21.516H24.0219L25.4049 23.9165C25.7945 24.5985 25.5647 25.4597 24.8829 25.8572C24.2011 26.2468 23.3401 26.017 22.9427 25.335C20.6129 21.2938 18.8635 18.2698 17.7026 16.2551C16.5143 14.2053 17.3636 12.1477 18.2013 11.4502C19.1325 13.0479 20.5233 15.4601 22.3817 18.679Z" fill="white"/>
</g>
<defs>
<linearGradient id="paint0_linear_11316_12716" x1="16.2437" y1="0.651703" x2="16.2437" y2="31.8273" gradientUnits="userSpaceOnUse">
<stop stop-color="#00BFFC"/>
<stop offset="1" stop-color="#0073F6"/>
</linearGradient>
<clipPath id="clip0_11316_12716">
<rect width="31.1719" height="31.1795" fill="white" transform="translate(0.657715 0.64975)"/>
</clipPath>
</defs>
</svg>
