<svg width="1920" height="409" viewBox="0 0 1920 409" fill="none" xmlns="http://www.w3.org/2000/svg">
<g opacity="0.3">
<path d="M1728.53 307.529C1728.53 307.529 1509.67 -25.8782 1394.15 9.51064C1268.98 47.8479 1289.07 286.473 1295 338.444C1295.89 344.474 1296.25 348.437 1296.25 348.437C1296.25 348.437 1295.73 344.859 1295 338.444C1291.98 318.214 1282.69 274.428 1258.9 276.495C1228.03 279.177 1194.4 360.482 1194.4 360.482C1116.47 21.5716 994.614 198.201 994.614 198.201C983.685 104.654 963.55 203.422 963.55 203.422C963.55 203.422 951.929 -138.177 802.488 -103.268C653.046 -68.3668 553.634 331.163 553.634 331.163C531.406 264.631 482.054 208.611 435.768 227.607C375.526 252.334 345.664 369.885 345.664 369.885C278.881 209.531 133.205 336.918 133.205 336.918C106.874 261.565 80.1733 331.171 80.1733 331.171C62.64 307.631 32.9515 294.901 0 288.588V328.411C183.203 360.741 496.662 404.213 857.776 404.213C1432.67 404.213 2012.25 287.802 2012.25 287.802C1864.31 223.778 1728.53 307.529 1728.53 307.529Z" fill="#D3E5FF"/>
<path fill-rule="evenodd" clip-rule="evenodd" d="M802.487 -103.276C717.345 -76.8742 680.611 104.654 711.99 170.431C743.369 236.216 916.555 284.546 952.801 249.637C989.047 214.736 944.836 -147.416 802.487 -103.276Z" fill="#F8FBFF" fill-opacity="0.67"/>
<path fill-rule="evenodd" clip-rule="evenodd" d="M589.431 324.668C571.08 301.828 679.165 253.772 762.286 263.341C845.408 272.91 956.386 370.475 955.49 385.24C954.594 400.006 661.922 414.913 589.431 324.668Z" fill="#F8FBFF" fill-opacity="0.67"/>
<path fill-rule="evenodd" clip-rule="evenodd" d="M110.414 351.605C110.414 351.605 331.687 407.161 955.5 408.914C1579.31 410.667 2588 220.113 2588 220.113C2588 220.113 1285.38 478.622 110.414 351.605Z" fill="#F8FBFF" fill-opacity="0.67"/>
</g>
</svg>
