<svg width="76" height="18" viewBox="0 0 76 18" fill="none" xmlns="http://www.w3.org/2000/svg">
<g clip-path="url(#clip0_203_36710)">
<path d="M17.444 2.71338H10.3125V15.306H17.444V2.71338Z" fill="#FF5A00"/>
<path d="M10.7897 9.0097C10.7897 6.45126 12.0135 4.18055 13.8913 2.7134C12.5093 1.64544 10.766 1 8.86442 1C4.35974 1 0.714844 4.58233 0.714844 9.0097C0.714844 13.4371 4.35974 17.0194 8.86442 17.0194C10.766 17.0194 12.5093 16.374 13.8913 15.306C12.0108 13.8596 10.7897 11.5681 10.7897 9.0097Z" fill="#EB001B"/>
<path d="M27.0671 9.0097C27.0671 13.4371 23.4222 17.0194 18.9175 17.0194C17.0159 17.0194 15.2726 16.374 13.8906 15.306C15.7922 13.8363 16.9922 11.5681 16.9922 9.0097C16.9922 6.45126 15.7685 4.18055 13.8906 2.7134C15.27 1.64544 17.0133 1 18.9149 1C23.4222 1 27.0671 4.60566 27.0671 9.0097Z" fill="#F79E1B"/>
</g>
<g clip-path="url(#clip1_203_36710)">
<path d="M48.9414 15.4475L51.0312 2.62378H54.2965L52.272 15.4475H48.9414Z" fill="#3C58BF"/>
<path d="M48.9414 15.4475L51.619 2.62378H54.2965L52.272 15.4475H48.9414Z" fill="#293688"/>
<path d="M64.0954 2.76623C63.4423 2.48126 62.3974 2.19629 61.0913 2.19629C57.826 2.19629 55.4749 3.97736 55.4749 6.54211C55.4749 8.46568 57.1076 9.46308 58.4137 10.1043C59.7198 10.7455 60.1117 11.1729 60.1117 11.7429C60.1117 12.5978 59.0668 13.0252 58.1525 13.0252C56.8464 13.0252 56.128 12.8115 55.0178 12.3128L54.5607 12.0991L54.1035 15.02C54.8872 15.3763 56.3239 15.7325 57.826 15.7325C61.2872 15.7325 63.5729 13.9514 63.5729 11.2442C63.5729 9.74805 62.7239 8.60816 60.7647 7.682C59.5892 7.04082 58.8709 6.6846 58.8709 6.04341C58.8709 5.47347 59.4586 4.90352 60.7647 4.90352C61.8749 4.90352 62.6586 5.11725 63.2464 5.40223L63.5729 5.54471L64.0954 2.76623Z" fill="#3C58BF"/>
<path d="M64.0954 2.76623C63.4423 2.48126 62.3974 2.19629 61.0913 2.19629C57.826 2.19629 56.0627 3.97736 56.0627 6.54211C56.0627 8.46568 57.1076 9.46308 58.4137 10.1043C59.7198 10.7455 60.1117 11.1729 60.1117 11.7429C60.1117 12.5978 59.0668 13.0252 58.1525 13.0252C56.8464 13.0252 56.128 12.8115 55.0178 12.3128L54.5607 12.0991L54.1035 15.02C54.8872 15.3763 56.3239 15.7325 57.826 15.7325C61.2872 15.7325 63.5729 13.9514 63.5729 11.2442C63.5729 9.74805 62.7239 8.60816 60.7647 7.682C59.5892 7.04082 58.8709 6.6846 58.8709 6.04341C58.8709 5.47347 59.4586 4.90352 60.7647 4.90352C61.8749 4.90352 62.6586 5.11725 63.2464 5.40223L63.5729 5.54471L64.0954 2.76623Z" fill="#293688"/>
<path d="M69.7092 2.62378C68.9255 2.62378 68.3378 2.69502 68.0112 3.54994L63.1133 15.4475H66.6398L67.2929 13.3102H71.4725L71.8643 15.4475H74.999L72.2561 2.62378H69.7092V2.62378ZM68.2072 11.1729C68.4031 10.5318 69.5133 7.39706 69.5133 7.39706C69.5133 7.39706 69.7745 6.61339 69.9704 6.11469L70.1663 7.32582C70.1663 7.32582 70.8194 10.5318 70.95 11.2442H68.2072V11.1729Z" fill="#3C58BF"/>
<path d="M70.4929 2.62378C69.7092 2.62378 69.1214 2.69502 68.7949 3.54994L63.1133 15.4475H66.6398L67.2929 13.3102H71.4725L71.8643 15.4475H74.999L72.2561 2.62378H70.4929V2.62378ZM68.2072 11.1729C68.4684 10.4605 69.5133 7.39706 69.5133 7.39706C69.5133 7.39706 69.7745 6.61339 69.9704 6.11469L70.1663 7.32582C70.1663 7.32582 70.8194 10.5318 70.95 11.2442H68.2072V11.1729Z" fill="#293688"/>
<path d="M42.9331 11.6004L42.6066 9.74813C42.0188 7.61084 40.125 5.25982 38.0352 4.11993L40.9739 15.5188H44.5005L49.7903 2.69507H46.2637L42.9331 11.6004Z" fill="#3C58BF"/>
<path d="M42.9331 11.6004L42.6066 9.74813C42.0188 7.61084 40.125 5.25982 38.0352 4.11993L40.9739 15.5188H44.5005L49.7903 2.69507H46.9168L42.9331 11.6004Z" fill="#293688"/>
<path d="M33.8574 2.62378L34.4452 2.76627C38.6248 3.83491 41.4982 6.54215 42.6084 9.74808L41.4329 3.69242C41.237 2.83751 40.6493 2.62378 39.9309 2.62378H33.8574V2.62378Z" fill="#FFBC00"/>
<path d="M33.8574 2.62378C38.037 3.69243 41.4982 6.47091 42.6084 9.67684L41.4982 4.61859C41.3023 3.76367 40.6493 3.26497 39.9309 3.26497L33.8574 2.62378Z" fill="#F7981D"/>
<path d="M33.8574 2.62378C38.037 3.69243 41.4982 6.47091 42.6084 9.67684L41.8248 6.89836C41.6289 6.04345 41.3676 5.18853 40.4533 4.83231L33.8574 2.62378Z" fill="#ED7C00"/>
<path d="M46.2015 11.1729L43.9811 8.75063L42.9362 11.4579L42.6749 9.67679C42.0872 7.53949 40.1933 5.18847 38.1035 4.04858L41.0423 15.4475H44.5688L46.2015 11.1729Z" fill="#051244"/>
<path d="M52.274 15.4477L49.4658 12.313L48.9434 15.4477H52.274Z" fill="#051244"/>
<path d="M59.7852 11.0305C60.0464 11.3155 60.177 11.5292 60.1117 11.8142C60.1117 12.6691 59.0668 13.0966 58.1525 13.0966C56.8464 13.0966 56.128 12.8828 55.0178 12.3841L54.5607 12.1704L54.1035 15.0914C54.8872 15.4476 56.3239 15.8038 57.826 15.8038C59.9158 15.8038 61.6137 15.1626 62.5933 14.0227L59.7852 11.0305Z" fill="#051244"/>
<path d="M63.5723 15.4473H66.6417L67.2947 13.31H71.4743L71.8661 15.4473H75.0008L73.8906 10.2466L69.9723 6.1145L70.1682 7.25439C70.1682 7.25439 70.8212 10.4603 70.9519 11.1728H68.209C68.4702 10.4603 69.5151 7.39688 69.5151 7.39688C69.5151 7.39688 69.7763 6.6132 69.9723 6.1145" fill="#051244"/>
</g>
<defs>
<clipPath id="clip0_203_36710">
<rect width="26.3529" height="16" fill="white" transform="translate(0.714844 1)"/>
</clipPath>
<clipPath id="clip1_203_36710">
<rect width="41.1429" height="13.7143" fill="white" transform="translate(33.8574 2.14282)"/>
</clipPath>
</defs>
</svg>
