<svg xmlns="http://www.w3.org/2000/svg" width="448.392" height="436.891" viewBox="0 0 448.392 436.891"><g transform="translate(-766.999 -2387)"><g transform="translate(150.631 2300.945)"><circle cx="152.003" cy="152.003" r="152.003" transform="translate(682.811 152.497)" fill="#d5d7db" opacity="0.204"/><circle cx="218.445" cy="218.445" r="218.445" transform="translate(616.369 86.055)" fill="#d5d7db" opacity="0.152"/></g><g transform="translate(1060.291 2099.069)"><g transform="translate(9.172 478.413)"><path d="M-70.753,425.305s20.716-13.214,27.746,7.235-16.418,28.9-16.418,28.9l-47.507,20.725a12.27,12.27,0,0,1-12.421-1.491c-.09-.067-.181-.139-.269-.208-8.979-7.089-7.854-21.075,1.951-26.966Z" transform="translate(125.738 -421.105)" fill="#a0d2db"/><g transform="translate(17.936 6.594)"><path d="M2.083,575.321s11.7-23.31,9.759-35.255c-1.975-12.115-7.248-32.832-22.364-38.172-5.834-2.061-16.346,1.939-16.346,1.939S-53.2,436.084-84.384,444.893s-31.257,25.913-31.257,25.913,53.693,139.838,66.133,134.332S2.083,575.321,2.083,575.321Z" transform="translate(115.932 -409.182)" fill="#bb802f"/><path d="M-93.621,462.919s-17.046-20.238-13.568-31.222l-4.1,2.235s-1.24,17.877,11.486,31.531l8.228-1.574" transform="translate(119.407 -419.171)" fill="#604835"/><g transform="translate(42.238)"><path d="M-88.635,445.729c-.119.182.4.888,1.859,1.305a7.355,7.355,0,0,0,6.1-1.283,12.259,12.259,0,0,0,4.524-7.973,13.424,13.424,0,0,0-.162-5.549,10.4,10.4,0,0,0-3.226-5.325,8.369,8.369,0,0,0-6.118-2.117,7.359,7.359,0,0,0-5.455,2.892,6.923,6.923,0,0,0-1.146,5.453,6.223,6.223,0,0,0,2.682,3.988,5.3,5.3,0,0,0,3.852.845,4.436,4.436,0,0,0,2.52-1.444c1.027-1.255.8-2.235.6-2.24-.262-.07-.572.626-1.529,1.191a3.482,3.482,0,0,1-1.8.487,3.421,3.421,0,0,1-2.125-.9,3.7,3.7,0,0,1-1.242-2.433,4.014,4.014,0,0,1,.841-2.933,4.128,4.128,0,0,1,3.025-1.377,4.994,4.994,0,0,1,3.533,1.312c2.175,1.861,2.793,4.943,2.462,7.674a10.516,10.516,0,0,1-2.843,6.468,6.853,6.853,0,0,1-4.318,1.868C-87.787,445.705-88.509,445.488-88.635,445.729Z" transform="translate(92.404 -424.758)" fill="#8eb8bc"/></g><g transform="translate(0 52.313)"><path d="M-115.8,464.23a8.732,8.732,0,0,0,1.137-1.421c.361-.469.886-.986,1.453-1.632a21.671,21.671,0,0,1,2.267-1.923,22.444,22.444,0,0,1,7.286-3.516,27.662,27.662,0,0,1,10.661-.852,30.636,30.636,0,0,1,12.23,4.192,51.456,51.456,0,0,1,11.54,9.551,108.293,108.293,0,0,1,10.215,13.21q1.265,1.776,2.43,3.663l2.4,3.767c1.511,2.592,3.121,5.179,4.576,7.9A268.23,268.23,0,0,1-34.95,528.7c3.919,9.961,7.047,19.09,9.607,26.778,2.5,7.676,4.526,13.9,5.943,18.256.7,2.119,1.253,3.782,1.645,4.959a8.663,8.663,0,0,0,.666,1.7,8.519,8.519,0,0,0-.388-1.784c-.329-1.2-.792-2.885-1.385-5.038-1.251-4.359-3.069-10.667-5.508-18.406s-5.473-16.922-9.34-26.948a256.175,256.175,0,0,0-14.627-31.748c-1.464-2.737-3.089-5.343-4.616-7.952l-2.426-3.793q-1.181-1.9-2.459-3.683a107.267,107.267,0,0,0-10.412-13.32,51.932,51.932,0,0,0-11.916-9.681,31.348,31.348,0,0,0-12.725-4.17,27.99,27.99,0,0,0-11,1.1,22.246,22.246,0,0,0-7.4,3.843,19.971,19.971,0,0,0-2.237,2.071c-.549.7-1.049,1.251-1.376,1.756A8.642,8.642,0,0,0-115.8,464.23Z" transform="translate(115.802 -453.737)" fill="#473426"/></g><g transform="translate(88.121 93.945)"><path d="M-49,556.511a14.068,14.068,0,0,0,.211-3.242c.058-2.087,0-5.109-.195-8.84s-.585-8.163-1.215-13.066c-.666-4.9-1.58-10.257-2.821-15.826-1.269-5.564-2.744-10.8-4.244-15.508-1.536-4.7-3.074-8.876-4.513-12.324s-2.67-6.206-3.618-8.067a13.944,13.944,0,0,0-1.581-2.836,13.927,13.927,0,0,0,1.067,3.063c.787,1.926,1.885,4.73,3.183,8.212s2.737,7.665,4.192,12.351c1.421,4.7,2.845,9.905,4.1,15.427,1.233,5.527,2.179,10.84,2.914,15.692.7,4.858,1.2,9.253,1.515,12.954s.536,6.706.652,8.782A14.188,14.188,0,0,0-49,556.511Z" transform="translate(66.986 -476.8)" fill="#473426"/></g><g transform="translate(100.112 116.911)"><path d="M-60.34,499.593c.157.366,5.54-1.581,12.022-4.349s11.613-5.311,11.457-5.677-5.54,1.58-12.024,4.349S-60.5,499.226-60.34,499.593Z" transform="translate(60.344 -489.522)" fill="#473426"/></g><g transform="translate(112.965 130.272)"><path d="M-49.459,499.207c-.116.031.011.5-.238,1.235a8.734,8.734,0,0,1-1.957,2.764,6.588,6.588,0,0,0-1.368,2.293,3.6,3.6,0,0,0-.17,1.632,2.506,2.506,0,0,0,.973,1.641c2.7,1.645,5.668-1.722,4.614-4.374a10.346,10.346,0,0,0-2.484-3.878l-.3,1.119c6.706-2.394,11.548-4.354,11.439-4.672s-5.134,1.116-11.892,3.352l-.975.323.679.8a9.686,9.686,0,0,1,2.141,3.345,2.269,2.269,0,0,1-.514,2.408c-.6.625-1.478.865-1.926.5a1.621,1.621,0,0,1-.439-1.857,5.978,5.978,0,0,1,1.013-1.987,7.458,7.458,0,0,0,1.713-3.287C-49.042,499.621-49.394,499.17-49.459,499.207Z" transform="translate(53.224 -496.924)" fill="#473426"/></g><g transform="translate(64.191 69.769)"><path d="M-80.229,472.941c.233.325,3.383-1.54,7.037-4.161s6.425-5.011,6.194-5.336-3.383,1.538-7.037,4.163S-80.462,472.618-80.229,472.941Z" transform="translate(80.243 -463.408)" fill="#473426"/></g><g transform="translate(51.435 59.535)"><path d="M-87.3,470.547c.153.348,4.988-1.571,10.264-5.161,5.289-3.574,8.86-7.356,8.594-7.627-.282-.31-4.219,2.928-9.4,6.432C-83.02,467.713-87.488,470.172-87.3,470.547Z" transform="translate(87.309 -457.739)" fill="#473426"/></g><g transform="translate(81.407 118.394)"><path d="M-55.053,490.4c-.181-.354-3.831,1.148-8.15,3.358s-7.677,4.287-7.5,4.643,3.831-1.148,8.152-3.358S-54.871,490.752-55.053,490.4Z" transform="translate(70.706 -490.344)" fill="#473426"/></g><g transform="translate(91.77 145.92)"><path d="M-64.954,511.937c.195.348,2.885-.774,6.009-2.507s5.5-3.424,5.309-3.773-2.885.774-6.009,2.509S-65.147,511.588-64.954,511.937Z" transform="translate(64.965 -505.593)" fill="#473426"/></g><g transform="translate(86.768 144.097)"><path d="M-67.7,504.63c-.264.3,1.1,1.926,3.042,3.63s3.731,2.845,3.995,2.544-1.1-1.924-3.042-3.628S-67.44,504.331-67.7,504.63Z" transform="translate(67.736 -504.582)" fill="#473426"/></g><g transform="translate(86.438 137.393)"><path d="M-67.9,500.9c-.244.316,2.41,2.791,5.928,5.531s6.569,4.7,6.815,4.39-2.408-2.791-5.928-5.531S-67.658,500.588-67.9,500.9Z" transform="translate(67.919 -500.869)" fill="#473426"/></g><g transform="translate(82.499 128.594)"><path d="M-70.092,496.019c-.233.343,4.273,3.724,9.566,8.186s9.409,8.306,9.708,8.02c.28-.262-3.4-4.618-8.779-9.127S-69.885,495.7-70.092,496.019Z" transform="translate(70.101 -495.994)" fill="#473426"/></g><g transform="translate(86.613 125.222)"><path d="M-67.808,494.153c-.251.309,2.939,3.3,7.125,6.685s7.782,5.872,8.033,5.562-2.939-3.3-7.125-6.686S-67.557,493.842-67.808,494.153Z" transform="translate(67.822 -494.127)" fill="#473426"/></g><g transform="translate(90.378 122.681)"><path d="M-65.727,492.793c-.177.375,2.206,1.812,4.845,3.924,2.659,2.092,4.6,4.083,4.925,3.825.309-.224-1.215-2.738-4.026-4.957S-65.579,492.439-65.727,492.793Z" transform="translate(65.736 -492.719)" fill="#473426"/></g></g><g transform="translate(47.434 5.155)"><path d="M-86.505,455.346c-.058-.538-2.278-.473-4.554-2.664a13.736,13.736,0,0,1-3.1-4.538,20.583,20.583,0,0,1-1.63-6.7,23.6,23.6,0,0,1,2.515-12.38c1.466-3,2.968-4.61,2.592-5.036-.251-.338-2.475.641-4.755,3.681a20.786,20.786,0,0,0-3.953,14,19.934,19.934,0,0,0,2.244,7.9,13.611,13.611,0,0,0,4.544,5.1,7.6,7.6,0,0,0,4.486,1.321C-87,455.936-86.473,455.57-86.505,455.346Z" transform="translate(99.461 -423.961)" fill="#8eb8bc"/></g></g><g transform="translate(-293.292 349.931)"><path d="M-243.107,530.853s-15.151,2.62-10.746,3.953,35.19-1.11,35.19-1.11V530.21Z" transform="translate(324.401 -204.775)" fill="#154593"/><path d="M-270.314,531.3s-16.454,1.922-12.01,3.258,39.967.236,39.967.236l0-3.488Z" transform="translate(301.509 -203.898)" fill="#154593"/><path d="M-208.019,418.8s-22.946,53.931-33.854,51.215-43.5-60.973-43.5-60.973l17.617-6.253s21.431,35.174,25.792,34.975l14.916-30.354" transform="translate(299.67 -307.372)" fill="#f6ba99"/><path d="M-197.135,403.088s12.647-2.3,17.272,19.956,6.36,43.645-22.256,44.8l-17.227-58.809Z" transform="translate(352.831 -307.185)" fill="#154593"/><g transform="translate(24.258 205.221)"><path d="M-138.905,585.4H-264.834a14.715,14.715,0,0,1-14.714-14.716V475.617a12,12,0,0,1,12-12H-140a19.522,19.522,0,0,1,19.521,19.521v83.829A18.432,18.432,0,0,1-138.905,585.4Z" transform="translate(280.1 -463.616)" fill="#cd945f"/><path d="M-243.611,463.616-279.548,497.5V475.617a12,12,0,0,1,12-12Z" transform="translate(280.1 -463.616)" fill="#af774a"/><path d="M-176.314,499.912-210.2,463.973h14.362a19.522,19.522,0,0,1,19.521,19.521Z" transform="translate(335.94 -463.329)" fill="#af774a"/><path d="M-211.335,546.011l35.937-33.883V527.58a18.43,18.43,0,0,1-18.431,18.431Z" transform="translate(335.024 -424.555)" fill="#af774a"/><path d="M-279.854,511.559l33.883,35.937h-19.167a14.715,14.715,0,0,1-14.716-14.714Z" transform="translate(279.854 -425.014)" fill="#af774a"/><path d="M-229.384,496.761a14.374,14.374,0,0,1-14.375,14.373,14.374,14.374,0,0,1-14.375-14.373,14.374,14.374,0,0,1,14.375-14.375A14.374,14.374,0,0,1-229.384,496.761Z" transform="translate(297.343 -448.503)" fill="#fff"/><path d="M-235.454,494.808a10.256,10.256,0,0,1-10.255,10.257,10.257,10.257,0,0,1-10.257-10.257,10.257,10.257,0,0,1,10.257-10.255A10.255,10.255,0,0,1-235.454,494.808Z" transform="translate(299.088 -446.758)" fill="#ef6c74"/><rect width="52.123" height="17.255" transform="translate(82.086 90.121) rotate(-47.083)" fill="#fff"/><rect width="44.394" height="9.084" transform="matrix(0.681, -0.732, 0.732, 0.681, 87.71, 90.073)" fill="#154593"/><rect width="23.261" height="23.26" transform="translate(82.092 30.899)" fill="#fff"/><rect width="15.505" height="15.505" transform="translate(85.971 34.776)" fill="#a0d2db"/></g><g transform="translate(72.354)"><path d="M-236.86,397.134a22.421,22.421,0,0,1-9.089-.477,10.429,10.429,0,0,1-6.759-5.735c-1.132-2.838-.338-6.5,2.226-8.159,1.217-.789,2.841-1.226,3.406-2.56.63-1.489-.455-3.083-1.163-4.536a10.422,10.422,0,0,1,2.208-11.847,10.418,10.418,0,0,1,11.976-1.359,14.168,14.168,0,0,1,13.4-12.528,14.17,14.17,0,0,1,13.826,12.053c.235,1.959.074,4.065,1.069,5.769,1.132,1.942,3.453,2.827,5.022,4.437,3.062,3.139,2.652,8.269,1.251,12.427s-3.6,8.215-3.473,12.6" transform="translate(253.211 -349.931)" fill="#00143a"/><path d="M-232.486,418.431c.347-2.359-.845-12.2-.845-12.2s-9.028-.735-9.791-9.65-.715-29.522-.715-29.522l16.207-8.416,16.353,13.252.366,44.693Z" transform="translate(260.758 -342.916)" fill="#f6ba99"/><g transform="translate(17.918 36.448)"><path d="M-242.643,372.12a1.141,1.141,0,0,0,1.17,1.114,1.142,1.142,0,0,0,1.116-1.17,1.144,1.144,0,0,0-1.172-1.116A1.143,1.143,0,0,0-242.643,372.12Z" transform="translate(243.801 -369.457)" fill="#00143a"/><path d="M-243.264,371.564c.152.144.978-.594,2.206-.69,1.228-.114,2.168.475,2.293.307.061-.076-.1-.343-.509-.612a3.01,3.01,0,0,0-1.847-.437,2.991,2.991,0,0,0-1.744.744C-243.224,371.211-243.336,371.5-243.264,371.564Z" transform="translate(243.285 -370.122)" fill="#00143a"/></g><g transform="translate(31.558 36.118)"><path d="M-235.307,371.941a1.145,1.145,0,0,0,1.172,1.116,1.145,1.145,0,0,0,1.116-1.172,1.143,1.143,0,0,0-1.172-1.114A1.143,1.143,0,0,0-235.307,371.941Z" transform="translate(236.068 -369.269)" fill="#00143a"/><path d="M-235.708,371.381c.152.144.978-.594,2.206-.69,1.229-.114,2.168.475,2.293.305.061-.074-.1-.343-.509-.61a3.006,3.006,0,0,0-1.847-.437,2.985,2.985,0,0,0-1.744.744C-235.668,371.028-235.78,371.318-235.708,371.381Z" transform="translate(235.729 -369.939)" fill="#00143a"/></g><g transform="translate(24.204 37.323)"><path d="M-236.614,381.344a7.7,7.7,0,0,1-2.025.161,2.031,2.031,0,0,1-.536-.034.781.781,0,0,1-.545-.439,2,2,0,0,1,.088-1.3q.355-1.232.744-2.583a45.291,45.291,0,0,1,2.213-6.544,44.919,44.919,0,0,1-1.7,6.7q-.412,1.346-.783,2.571a1.76,1.76,0,0,0-.153.987c.067.218.368.26.682.269A7.843,7.843,0,0,1-236.614,381.344Z" transform="translate(239.802 -370.607)" fill="#00143a"/></g><g transform="translate(33.312 46.554)" opacity="0.33"><path d="M-234.755,377.693c.058,1.016,1.641,1.71,3.542,1.708s3.464-.708,3.5-1.726-1.556-1.962-3.545-1.955S-234.811,376.682-234.755,377.693Z" transform="translate(234.757 -375.72)" fill="#f2957e"/></g><path d="M-232.977,377.113c.087-.1-3.549,2.193-6.06,2.253a3.4,3.4,0,0,0,4.107,1.06C-232.331,379.253-232.977,377.113-232.977,377.113Z" transform="translate(264.623 -328.047)" fill="#f3f0eb"/><path d="M-238.017,386.916a22.289,22.289,0,0,0,11.734-4.282s-2.522,6.621-11.486,6.468Z" transform="translate(265.444 -323.599)" fill="#f2957e"/><path d="M-246.071,371.04c2.805,2.61,7.2,2.973,10.793,1.645s6.482-4.094,8.825-7.127a13.078,13.078,0,0,0,12.012,3.4q.967,12.2,1.933,24.406a9.44,9.44,0,0,0,4.331-.769c1.045-5.632,1.244-10.956,2.291-16.588.377-2.043.744-4.228-.074-6.139-.874-2.045-2.894-3.309-4.69-4.621-2.231-1.632-4.267-3.524-6.535-5.105a15.549,15.549,0,0,0-7.6-3.069c-2.807-.2-5.558.722-8.219,1.637-3.029,1.042-6.13,2.125-8.6,4.166s-4.2,5.286-3.556,8.423" transform="translate(258.959 -344.203)" fill="#00143a"/><path d="M-225.8,370.886a8.6,8.6,0,0,1,2.861-.762,2.909,2.909,0,0,1,2.578,1.2,2.821,2.821,0,0,1,.256,2.139,4.073,4.073,0,0,1-2.173,2.681,4.078,4.078,0,0,1-3.452-.005" transform="translate(275.281 -333.674)" fill="#f6ba99"/><g transform="translate(35.391 35.293)"><path d="M-232.238,369.482c.146-.018.242.614-.251,1.128s-1.128.453-1.116.305c-.011-.15.394-.305.729-.672C-232.524,369.892-232.39,369.479-232.238,369.482Z" transform="translate(233.605 -369.482)" fill="#00143a"/></g></g><g transform="translate(30.184 175.881)"><path d="M-200.55,447.878s-63.7-4-71.72,10.309-2.372,140.692-2.372,140.692l27.083,1.877,2.7-119.8,49.458,1.273Z" transform="translate(276.571 -447.363)" fill="#f3a28d"/><path d="M-252.231,448.955l.722,32.127h10.037l13.259-31.139S-248.056,447.146-252.231,448.955Z" transform="translate(296.169 -446.571)" fill="#00143a" opacity="0.15"/></g><path d="M-172.888,448.767s-65.838-8.015-73.853,6.3.022,143.125.022,143.125h24.3l3.267-115.428,14.907-.585a30.671,30.671,0,0,0,31.41-32.448Z" transform="translate(327.909 -272.152)" fill="#f6ba99"/><path d="M-166.334,420.194a63,63,0,0,1-21.3,4.865l19.314,70.615-78.189-2.8s5.3-12.58,8.558-22.978c2.885-9.192-.148-41.293-.148-41.293l-17.862-11.34c12.078-23.875,32.4-27.959,32.4-27.959s1.437-1.033,25.428-1.033c25.029,0,32.233,32.379,32.233,32.379" transform="translate(323.346 -319.059)" fill="#fcd588"/><path d="M-240.858,409.445c.273,2.255-1.365,4.266-3.033,5.809s-3.572,3.089-4.118,5.293a7.145,7.145,0,0,0,.552,4.459,12.037,12.037,0,0,0,8.9,7.028" transform="translate(329.628 -302.012)" fill="#fcd588"/><path d="M-237.573,389.082s-1.989,26.411,7.307,26.175,14.456-26.688,14.456-26.688A66.371,66.371,0,0,0-237.573,389.082Z" transform="translate(338.011 -319.355)" fill="#f6ba99"/><path d="M-214.96,388.208a11.571,11.571,0,0,1-.484,2.323c-.208.8-.439,1.693-.7,2.7-.3,1.043-.72,2.206-1.15,3.506q-.333.98-.691,2.034-.428,1.042-.883,2.159c-.619,1.487-1.242,3.1-2.069,4.7a50.669,50.669,0,0,1-2.645,5.053,9.2,9.2,0,0,1-4.764,4.13,6.424,6.424,0,0,1-1.628.222,5.229,5.229,0,0,1-1.637-.305,6.916,6.916,0,0,1-2.664-1.744,11.485,11.485,0,0,1-2.6-5.212c-.442-1.742-.612-3.5-.876-5.08-.211-1.6-.229-3.11-.334-4.477a43.675,43.675,0,0,1,.325-6.477,11.436,11.436,0,0,1,.4-2.339c.211,0-.31,3.4-.063,8.789.148,1.345.2,2.83.444,4.4.3,1.574.478,3.235.946,4.986a10.734,10.734,0,0,0,2.43,4.776,5,5,0,0,0,5.078,1.534,8.577,8.577,0,0,0,4.174-3.711,54.148,54.148,0,0,0,2.641-4.934c.852-1.6,1.486-3.168,2.128-4.625.316-.728.625-1.432.921-2.114q.387-1.034.744-2c.466-1.276.928-2.417,1.274-3.441l.848-2.637A11.377,11.377,0,0,1-214.96,388.208Z" transform="translate(337.742 -319.111)" fill="#c6a88b"/><path d="M-211.077,415.9a7.191,7.191,0,0,1-2.525,2.392,13.81,13.81,0,0,1-3.442,1.645,15.01,15.01,0,0,1-4.619.644,14.024,14.024,0,0,1-7.927-2.87,7.141,7.141,0,0,1-2.345-2.569c.112-.125,1.018.9,2.731,2.027a15.524,15.524,0,0,0,3.233,1.621,15.785,15.785,0,0,0,4.291.85,15.064,15.064,0,0,0,7.732-1.917C-212.139,416.7-211.195,415.776-211.077,415.9Z" transform="translate(342.691 -297.436)" fill="#c6a88b"/><path d="M-251.53,550.7l35.253.431,1.563-64.593s46.5,2.742,45.339-39.114c0,0-69.662-4.5-74.814,0-13.972,12.2-7.342,102.259-7.342,102.259" transform="translate(325.652 -273.044)" fill="#ef6c74"/><path d="M-279.051,549.553h35.89L-241,483.593l22.223,2.814,23.7-37.279s-53.639-11.793-76.294,5.618c-1.8,1.385-3.26,6.282-3.374,8.551Z" transform="translate(304.758 -273.202)" fill="#ef6c74"/><path d="M-223.148,445.926c.007.186-3.468-.016-8.954.357a44.5,44.5,0,0,0-4.486.6,26.928,26.928,0,0,0-4.87,1.516,16.379,16.379,0,0,0-8.416,7.658,20.027,20.027,0,0,0-1.845,5.737,32.412,32.412,0,0,0-.5,5.656c.022,3.627.042,6.923.058,9.766-.126,2.632-.233,4.838-.316,6.574a11.956,11.956,0,0,1-.244,2.406,11.961,11.961,0,0,1-.123-2.415c.005-1.74.011-3.946.018-6.582-.063-2.78-.217-6.06-.26-9.75a32.325,32.325,0,0,1,.457-5.816,20.521,20.521,0,0,1,1.915-6,16.992,16.992,0,0,1,8.914-8.029,26.63,26.63,0,0,1,5.1-1.493,41.087,41.087,0,0,1,4.531-.489c1.408-.078,2.673-.107,3.778-.056,1.108.022,2.06.047,2.836.108A11.857,11.857,0,0,1-223.148,445.926Z" transform="translate(325.666 -272.948)" fill="#a84e59"/><path d="M-259.446,462.025c.253-.058.874,1.673,1.388,3.868s.724,4.024.471,4.082-.874-1.672-1.386-3.867S-259.7,462.084-259.446,462.025Z" transform="translate(320.457 -259.677)" fill="#a84e59"/><path d="M-257.938,460.607c.222-.042.841,2.542.814,5.8-.1,3.3-.814,5.789-1.036,5.768-.291-.029.005-2.659.1-5.784C-258.038,463.227-258.229,460.652-257.938,460.607Z" transform="translate(321.478 -260.818)" fill="#a84e59"/><path d="M-233.061,463.039c.251-.067,1.1,2.349,1.9,5.394s1.242,5.569.991,5.634-1.1-2.349-1.9-5.4S-233.312,463.1-233.061,463.039Z" transform="translate(341.732 -258.861)" fill="#a84e59"/><path d="M-231.04,463.028c.229-.027.7,2.468.556,5.582-.2,3.145-.933,5.517-1.161,5.488-.285-.036.033-2.547.222-5.54C-231.286,465.53-231.328,463.057-231.04,463.028Z" transform="translate(342.836 -258.868)" fill="#a84e59"/><path d="M-213.993,390.252s-8.23,32.6,5.833,55.074l2.208,8.067s-17.831-10.855-17.626-36.4,1.784-28.663,1.784-28.663Z" transform="translate(349.422 -319.011)" fill="#154593"/><path d="M-184.2,405.956s27.419,59.567,17.53,64.91-67.113-16.088-67.113-16.088l2.688-16.138s39.537,11.544,42.624,8.455l-15.766-36.365" transform="translate(341.209 -304.821)" fill="#f6ba99"/><path d="M-261.221,421.523l-.045-4.715a40.231,40.231,0,0,1-.237-7.925,11.584,11.584,0,0,1,.868-3.832,17.692,17.692,0,0,1,2.312-4.318,1.52,1.52,0,0,0-1.211-2.607c-1.341.28-4.2,3.3-5.638,7.945s-4.291-2.453-5.376-5.022-4.814-10.351-5.869-10.643c-1.543-.426-2.287,1.15-1.143,3.688,1.157,2.569,4.035,10.392,2.652,10.9-1.363.5-6.708-12.643-6.708-12.643s-.688-2.995-2.305-2.46c-2.919.962,3.793,14.515,4.462,15.79.466.886-1.018,1.491-1.468.513-.462-1.005-5.026-13.234-8.006-12.282-2.287.729,5.416,11.2,4.953,14.263s-5.035-8.535-7.19-7.748c-.8.292-1.363.623,2.224,6.9,3.674,6.434,16.463,22.238,16.463,22.238l11.342-8.311" transform="translate(294.522 -317.809)" fill="#f6ba99"/><path d="M-271.6,383.4l-21.689,31.687,16.2,12.251,23.534-31.724Z" transform="translate(293.292 -322.98)" fill="#00143a"/><path d="M-274.764,385.122l-16.013,23.734L-275.74,419.8l16.718-23.443Z" transform="translate(295.317 -321.596)" fill="#b4cce9"/><path d="M-290.245,400.543l24.132-1.508,4.02-5.637-25.117,2.871Z" transform="translate(295.746 -314.932)" fill="#f3f0eb"/><path d="M-284.328,402.414s1.255-10.508,5.594-11.284C-274.811,390.43-270.569,396.315-284.328,402.414Z" transform="translate(300.509 -316.804)" fill="#154593"/><path d="M.812,0H2.287A.811.811,0,0,1,3.1.811V2.288a.812.812,0,0,1-.812.812H.811A.811.811,0,0,1,0,2.288V.812A.812.812,0,0,1,.812,0Z" transform="translate(20.186 76.54)" fill="#b4cce9"/><path d="M-215.36,428.036s-27.883-8.053-29.17-6.369,15.822,5.647,15.176,7.217-7.923,11.781,11,15.263Z" transform="translate(332.498 -292.357)" fill="#f6ba99"/><path d="M-275.28,536.908l-.5-12.578h27.908l-.326,14.456Z" transform="translate(307.393 -209.51)" fill="#154593"/><path d="M-247.826,536.6-249,523.1l27,.813-1.226,14.394Z" transform="translate(328.958 -210.498)" fill="#154593"/></g><g transform="translate(-118.605 462.758)"><path d="M-110.625,506.195c-1.738,2.078-19.458,69.707-19.458,69.707l34.829.312,16.34-56.832-11.264-38.595Z" transform="translate(250.017 -357.396)" fill="#493527"/><path d="M-192.462,564.832c3.887,5.894,34.015,41.275,70.059,16.546,37.632-25.818,75.848-77.464,75.848-77.464l12.55,87.54,39.349.352S-8.936,488.179-19.619,472.325c-7.547-11.2-25.713-30.377-114.065,50.666Z" transform="translate(199.791 -372.54)" fill="#604835"/><g transform="translate(131.003 68.486)"><path d="M-123.951,475.361l1.569-4.516a40.791,40.791,0,0,0,2.793-7.538,11.75,11.75,0,0,0,.4-3.964,17.985,17.985,0,0,0-.829-4.9c-.607-1.4.811-2.814,2.009-2.11s2.964,4.531,2.847,9.457,4.917-.971,6.791-3.087,7.973-8.39,9.082-8.331c1.621.09,1.827,1.843-.094,3.914-1.942,2.094-7.239,8.681-6.074,9.618,1.148.921,10.535-9.983,10.535-9.983s1.63-2.654,3.013-1.619c2.493,1.868-8.34,12.723-9.4,13.73-.735.7.495,1.764,1.244.969.769-.818,9.109-11.093,11.667-9.215,1.962,1.442-8.827,9.013-9.372,12.105s7.6-6.573,9.416-5.119c.677.54,1.107,1.038-4.372,5.914-5.61,4.993-23.012,16.046-23.012,16.046l-8.212-11.656" transform="translate(123.951 -450.372)" fill="#f6ba99"/></g><path d="M-150.066,442.741c.137,4.966,4.264,9,8.764,11.1s9.517,2.829,14.163,4.582,9.221,4.97,10.479,9.775c1.451,5.553-1.886,11.734.305,17.037,1.635,3.964,5.923,6.244,7.95,10.026,2.343,4.368,1.184,9.818-.942,14.3A32.778,32.778,0,0,1-122.416,524a26.524,26.524,0,0,1-19.09,2.971c-9.788-2.343-17.129-10.615-21.8-19.527-5.535-10.557-8.23-22.734-6.717-34.556s7.4-23.2,16.785-30.549" transform="translate(217.521 -388.349)" fill="#00143a"/><path d="M-145.271,441.334s-63.69,36.08-45.774,140.121l57.751-39.373-5.168-5.607s8.546-18.566,15.867-34.208c3.8-8.121-2.433-18.366-12.485-48.866C-138.68,442.471-145.271,441.334-145.271,441.334Z" transform="translate(198.374 -389.162)" fill="#fcd588"/><path d="M-177.709,474.5s26.646,63.755,54.581,53.776,55.489-47.768,55.489-47.768l-10.746-14.34s-41.044,36.631-47.265,33.2-26.307-45.1-26.307-45.1Z" transform="translate(211.67 -378.743)" fill="#fcd588"/><path d="M-152.267,475.575c0-2.365,2.61-11.847,2.61-11.847s8.964.6,11.013-8.04,5.009-28.867,5.009-28.867L-148.31,416.2l-19.956,10.3-4.9,44.115Z" transform="translate(215.325 -409.399)" fill="#f6ba99"/><path d="M-163.916,436.5s14.635,1.139,19.447-11.488l13.124,17.138s6.421-8.851-.675-19.348-13.36-9.663-16.756-10.252c-3.164-.551-19.758.069-27.681,17.449-.572,1.26-1.426,4.479-1.9,5.923Z" transform="translate(211.148 -412.433)" fill="#00143a"/><g transform="translate(74.015 28.965)"><path d="M-153.269,430.163a1.132,1.132,0,0,1-1.311.924,1.133,1.133,0,0,1-.924-1.311,1.134,1.134,0,0,1,1.311-.924A1.136,1.136,0,0,1-153.269,430.163Z" transform="translate(155.52 -428.191)" fill="#00143a"/><g transform="translate(0.306)"><path d="M-150.984,430.277c-.17.119-.874-.726-2.065-1-1.188-.292-2.2.15-2.294-.032-.049-.085.146-.323.589-.527a2.97,2.97,0,0,1,1.876-.159,2.981,2.981,0,0,1,1.6.984C-150.972,429.923-150.9,430.227-150.984,430.277Z" transform="translate(155.351 -428.479)" fill="#00143a"/></g></g><g transform="translate(60.886 26.652)"><path d="M-160.542,428.882a1.134,1.134,0,0,1-1.311.926,1.136,1.136,0,0,1-.924-1.312,1.136,1.136,0,0,1,1.312-.924A1.133,1.133,0,0,1-160.542,428.882Z" transform="translate(162.793 -426.909)" fill="#00143a"/><g transform="translate(0.098)"><path d="M-158.374,429c-.168.121-.872-.726-2.063-1-1.188-.291-2.2.15-2.294-.034-.049-.083.148-.321.59-.523a2.96,2.96,0,0,1,1.874-.161,2.972,2.972,0,0,1,1.6.984C-158.36,428.641-158.293,428.943-158.374,429Z" transform="translate(162.739 -427.197)" fill="#00143a"/></g></g><g transform="translate(67.927 28.836)"><path d="M-158.893,438.937a7.773,7.773,0,0,1,2.013.081c.31.038.612.043.708-.164a1.721,1.721,0,0,0-.005-.991q-.187-1.256-.393-2.635a44.306,44.306,0,0,1-.7-6.82,45.144,45.144,0,0,1,1.217,6.746c.123.922.24,1.8.354,2.643a1.986,1.986,0,0,1-.1,1.287.778.778,0,0,1-.6.35,2,2,0,0,1-.534-.045A7.735,7.735,0,0,1-158.893,438.937Z" transform="translate(158.893 -428.407)" fill="#00143a"/></g><g transform="translate(55.138 36.443)" opacity="0.33"><path d="M-159.068,435.136c-.2.991-1.859,1.437-3.724,1.159s-3.3-1.2-3.179-2.2,1.812-1.7,3.764-1.4S-158.864,434.152-159.068,435.136Z" transform="translate(165.978 -432.621)" fill="#f2957e"/></g><path d="M-161.092,434.568c-1.078-1.018,3.015,2.587,5.47,3.013a3.38,3.38,0,0,1-4.184.44C-162.186,436.491-161.092,434.568-161.092,434.568Z" transform="translate(224.847 -394.755)" fill="#f3f0eb"/><path d="M-155.286,445.167a22.108,22.108,0,0,1-10.891-5.914s1.509,6.867,10.327,8.024Z" transform="translate(220.955 -390.838)" fill="#f2957e"/><path d="M-159.7,418.782s2.123,6.737-.051,11.156l13.371,6.04S-140.107,418.787-159.7,418.782Z" transform="translate(226.13 -407.321)" fill="#00143a"/><path d="M-177.8,424.282s-5.239,19.779,11.131,26.365l3.08-24.447Z" transform="translate(210.954 -402.892)" fill="#00143a"/><path d="M-156.682,450.891s-34.871-13.806-36.7-9.279,6.345,4.065,6.345,4.065-13.143,21.644,8.99,32.527Z" transform="translate(198.838 -389.672)" fill="#fcd588"/><path d="M-192.415,494.1a30.553,30.553,0,0,1-2.09,18.465,24.214,24.214,0,0,0-1.843,4.565,5.361,5.361,0,0,0,.877,4.672c.811.933,2.085,1.486,2.587,2.616.989,2.217-1.594,4.249-2.675,6.425a5.71,5.71,0,0,0,2.782,7.5,5.711,5.711,0,0,0,7.309-3.248" transform="translate(196.522 -346.674)" fill="#fcd588"/><g transform="translate(63.386 76.221)"><path d="M-161.364,454.658c.48-.135,3.2,10.724,9.286,23,6,12.315,12.936,21.1,12.535,21.4-.153.123-2.083-1.917-4.786-5.558a100.551,100.551,0,0,1-9.168-15.145,100.512,100.512,0,0,1-6.39-16.512C-161.121,457.477-161.558,454.7-161.364,454.658Z" transform="translate(161.408 -454.656)" fill="#e2bc79"/></g><g transform="translate(33.285 96.078)"><path d="M-148.669,511.027c-.146.135-2.385-1.944-5.648-5.643A134.21,134.21,0,0,1-165.918,490a134.043,134.043,0,0,1-9.3-16.878c-2.042-4.489-3.025-7.383-2.841-7.461.218-.094,1.56,2.636,3.843,6.968s5.571,10.244,9.627,16.512,8.109,11.679,11.132,15.532S-148.494,510.866-148.669,511.027Z" transform="translate(178.083 -465.657)" fill="#e2bc79"/></g><g transform="translate(45.179 145.377)"><path d="M-155.633,495.007c-.112.44-3.614-.132-7.937-.4-4.322-.292-7.869-.177-7.923-.628-.063-.413,3.527-1.251,8.026-.948C-158.971,493.312-155.516,494.6-155.633,495.007Z" transform="translate(171.494 -492.966)" fill="#e2bc79"/></g><g transform="translate(2.905 171.016)"><path d="M-187.341,507.27c.2.4-1.6,1.677-3.607,3.437s-3.524,3.363-3.9,3.109c-.357-.226.664-2.4,2.858-4.3S-187.516,506.885-187.341,507.27Z" transform="translate(194.913 -507.17)" fill="#e2bc79"/></g><g transform="translate(7.276 154.679)"><path d="M-139.419,498.14c.094.229-3.251,1.737-8.492,4.464-2.625,1.354-5.7,3.062-9.055,5.049-3.34,2.015-6.952,4.325-10.632,6.912-3.668,2.608-7.051,5.244-10.066,7.721-2.993,2.5-5.627,4.829-7.78,6.851-4.318,4.033-6.854,6.683-7.04,6.517-.079-.072.464-.818,1.522-2.1.523-.646,1.184-1.422,1.987-2.289s1.693-1.877,2.751-2.926c2.069-2.141,4.648-4.576,7.62-7.163,2.993-2.563,6.387-5.262,10.095-7.9,3.72-2.617,7.4-4.915,10.809-6.88,3.43-1.939,6.587-3.56,9.295-4.8,1.341-.646,2.589-1.154,3.675-1.616s2.036-.832,2.821-1.11A8.21,8.21,0,0,1-139.419,498.14Z" transform="translate(192.491 -498.119)" fill="#e2bc79"/></g><g transform="translate(18.985 151.044)"><path d="M-142.887,496.133c.083.222-2.525,1.357-6.657,3.32a175.946,175.946,0,0,0-15.719,8.446,175.608,175.608,0,0,0-14.727,10.084c-3.643,2.769-5.849,4.563-6.008,4.387-.135-.146,1.811-2.24,5.305-5.257a112.5,112.5,0,0,1,14.606-10.564,112.473,112.473,0,0,1,16.093-8.118C-145.71,496.713-142.955,495.946-142.887,496.133Z" transform="translate(186.005 -496.106)" fill="#e2bc79"/></g><g transform="translate(19.877 68.05)"><path d="M-169.794,450.148c.318.338-3.762,4.529-8.053,10.271-4.322,5.721-7.212,10.8-7.625,10.595-.372-.171,1.941-5.69,6.361-11.546C-174.716,453.6-170.061,449.837-169.794,450.148Z" transform="translate(185.51 -450.13)" fill="#e2bc79"/></g><g transform="translate(7.146 52.642)"><path d="M-135.664,457.176c-.076.215-3.247-.722-8.356-2.264s-12.167-3.645-20.012-5.789-15-3.914-20.184-5.181-8.39-2.074-8.347-2.3c.04-.206,3.327.209,8.585,1.2s12.479,2.6,20.361,4.748,14.914,4.439,19.947,6.255S-135.593,456.979-135.664,457.176Z" transform="translate(192.563 -441.595)" fill="#e2bc79"/></g><g transform="translate(82.995 119.795)"><path d="M-147.635,478.8c.417.126.148,2.247-.6,4.739s-1.7,4.408-2.114,4.282-.15-2.247.6-4.739S-148.054,478.674-147.635,478.8Z" transform="translate(150.545 -478.795)" fill="#e2bc79"/></g><g transform="translate(85.792 120.113)"><path d="M-148.647,478.973c.431-.065,1.1,1.975,1.48,4.556s.348,4.726-.083,4.791-1.1-1.977-1.48-4.558S-149.079,479.036-148.647,478.973Z" transform="translate(148.996 -478.971)" fill="#e2bc79"/></g><g transform="translate(36.063 176.352)"><path d="M-170.769,510.126c.193-.038.637,1.058.841,2.941a18.916,18.916,0,0,1-.769,7.327,18.9,18.9,0,0,1-3.473,6.5c-1.226,1.448-2.206,2.1-2.347,1.964-.352-.32,2.751-3.692,4.307-8.927C-170.563,514.726-171.24,510.191-170.769,510.126Z" transform="translate(176.544 -510.125)" fill="#84644e"/></g><g transform="translate(42.753 104.702)"><path d="M-26.76,584.922a17.35,17.35,0,0,1-.668-2.616c-.374-1.747-.917-4.293-1.616-7.564l-5.65-27.879c-2.33-11.784-5.1-25.81-8.181-41.384-1.524-7.791-3.123-15.97-4.78-24.447a25.247,25.247,0,0,0-1.635-6.1,5.613,5.613,0,0,0-1.787-2.246,3.877,3.877,0,0,0-2.637-.661c-1.932.224-3.771,1.527-5.5,2.894-1.767,1.4-3.547,2.811-5.305,4.267-14.113,11.633-26.673,23.787-38.694,34.2-11.959,10.477-23.444,19.162-33.778,25.365a128.418,128.418,0,0,1-25.754,12.156c-1.585.567-3.029.959-4.273,1.325s-2.3.639-3.168.834a16.8,16.8,0,0,1-2.648.538,17.361,17.361,0,0,1,2.565-.845c.847-.246,1.9-.552,3.114-.977s2.646-.848,4.206-1.455a136.907,136.907,0,0,0,25.374-12.53c10.194-6.284,21.53-15,33.4-25.507,11.936-10.439,24.465-22.63,38.649-34.322,1.767-1.464,3.558-2.881,5.336-4.289a22.851,22.851,0,0,1,2.865-2,8.974,8.974,0,0,1,3.45-1.217,5.462,5.462,0,0,1,3.688.935,7.152,7.152,0,0,1,2.3,2.856,26.467,26.467,0,0,1,1.751,6.484c1.626,8.484,3.193,16.669,4.688,24.466,2.953,15.6,5.612,29.645,7.849,41.449,2.173,11.8,3.935,21.35,5.156,27.973.574,3.3,1.018,5.86,1.325,7.62A17.171,17.171,0,0,1-26.76,584.922Z" transform="translate(172.838 -470.434)" fill="#84644e"/></g><path d="M-103.846,533.712l1.589,6.354,52.846.473s4.13-1.955-22.563-6.544Z" transform="translate(271.142 -314.782)" fill="#14222b"/><path d="M-128.885,531.745l-1.663,9.284,52.846.473s4.13-1.955-22.563-6.546C-100.264,534.956-127.374,531.758-128.885,531.745Z" transform="translate(249.642 -316.366)" fill="#14222b"/></g></g></g></svg>