<svg width="25" height="25" viewBox="0 0 25 25" fill="none" xmlns="http://www.w3.org/2000/svg">
<g clip-path="url(#clip0_10104_65351)">
<path d="M12.666 16.9227C14.8665 16.9227 16.6504 15.1388 16.6504 12.9383C16.6504 10.7378 14.8665 8.95392 12.666 8.95392C10.4655 8.95392 8.68164 10.7378 8.68164 12.9383C8.68164 15.1388 10.4655 16.9227 12.666 16.9227Z" fill="#87AB49"/>
<path d="M7.399 11.7857C7.92831 9.36534 10.0883 7.54767 12.6652 7.54767H23.393C22.8238 6.41765 22.0712 5.3737 21.1505 4.45298C18.8839 2.18653 15.8705 0.938293 12.6652 0.938293C9.45986 0.938293 6.44641 2.18653 4.17986 4.45298C3.96189 4.67095 3.75358 4.89595 3.55469 5.12723L7.399 11.7857Z" fill="#87AB49"/>
<path d="M14.301 18.0752C13.7851 18.2398 13.2358 18.3289 12.666 18.3289C10.6636 18.3289 8.91283 17.2314 7.9833 15.6063C7.97664 15.5961 7.97003 15.5858 7.96384 15.5752L2.63528 6.34579C1.35419 8.28642 0.666016 10.5594 0.666016 12.9383C0.666016 16.1436 1.91425 19.1571 4.1807 21.4236C5.91709 23.16 8.09209 24.2978 10.4557 24.7355L14.301 18.0752Z" fill="#87AB49"/>
<path d="M16.2937 8.95392C17.3765 9.94054 18.0571 11.3614 18.0571 12.9383C18.0571 13.9301 17.7876 14.8599 17.3184 15.6591C17.3136 15.6683 17.3095 15.6776 17.3043 15.6867L11.9746 24.918C12.2042 24.931 12.4348 24.9383 12.6665 24.9383C15.8718 24.9383 18.8853 23.6901 21.1518 21.4236C23.4183 19.1571 24.6665 16.1436 24.6665 12.9383C24.6665 11.5599 24.435 10.2172 23.9917 8.95392H16.2937Z" fill="#87AB49"/>
</g>
<defs>
<clipPath id="clip0_10104_65351">
<rect width="24" height="24" fill="white" transform="translate(0.666016 0.938293)"/>
</clipPath>
</defs>
</svg>
