<svg width="50" height="51" viewBox="0 0 50 51" fill="none" xmlns="http://www.w3.org/2000/svg">
<g clip-path="url(#clip0_7846_143388)">
<path d="M48.167 16.5912H25.0014C19.824 16.5861 15.6227 20.7791 15.6175 25.9565C15.6159 27.5646 16.028 29.1461 16.8142 30.5489L5.23145 10.6748C13.6679 -0.244177 29.3586 -2.25659 40.2775 6.17985C43.7841 8.88921 46.507 12.4825 48.167 16.5912Z" fill="#F44336"/>
<path d="M49.9997 25.9654C49.9882 39.7671 38.8026 50.9528 25.0008 50.9643C23.9556 50.9682 22.9114 50.8986 21.876 50.756L33.1255 30.6527C35.7038 26.1642 34.1668 20.4359 29.6881 17.8408C28.2701 17.0198 26.6601 16.5885 25.0216 16.5908H48.1664C49.383 19.5663 50.0058 22.7509 49.9997 25.9654Z" fill="#FFC107"/>
<path d="M33.1255 30.6531L21.876 50.7564H21.8552C8.16558 49.0268 -1.52988 36.527 0.199728 22.8373C0.759566 18.4064 2.49689 14.2065 5.23095 10.6748L16.8137 30.5489L16.8762 30.6531C19.4592 35.1402 25.1906 36.6838 29.6777 34.1009C31.111 33.2758 32.3005 32.0863 33.1255 30.6531Z" fill="#4CAF50"/>
<path d="M33.1254 30.6528C30.5424 35.1399 24.811 36.6835 20.3239 34.1006C18.8907 33.2755 17.7012 32.086 16.8761 30.6528L16.8136 30.5486C14.2824 26.0321 15.8919 20.3188 20.4084 17.7876C21.8113 17.0014 23.3927 16.5893 25.0008 16.5908H25.0216C26.6601 16.5885 28.2701 17.0198 29.6881 17.8408C34.1669 20.436 35.7037 26.1643 33.1254 30.6528Z" fill="#F44336"/>
<path d="M33.1254 30.6528C30.5424 35.1399 24.811 36.6835 20.3239 34.1006C18.8907 33.2755 17.7012 32.086 16.8761 30.6528L16.8136 30.5486C14.2824 26.0321 15.8919 20.3188 20.4084 17.7876C21.8113 17.0014 23.3927 16.5893 25.0008 16.5908H25.0216C26.6601 16.5885 28.2701 17.0198 29.6881 17.8408C34.1669 20.436 35.7037 26.1643 33.1254 30.6528Z" fill="#2196F3"/>
<path d="M24.9657 36.3822C23.1495 36.382 21.3654 35.9034 19.793 34.9947C18.2074 34.0777 16.8906 32.7602 15.9744 31.1741C13.098 26.1921 14.805 19.8217 19.787 16.9454C21.3722 16.0302 23.1706 15.5488 25.0011 15.5498C30.7538 15.5453 35.421 20.2053 35.4254 25.9579C35.4268 27.7891 34.9454 29.5883 34.0298 31.1741C32.1526 34.4015 28.6993 36.3857 24.9657 36.3822ZM25.0198 17.633C22.0304 17.6171 19.2627 19.2081 17.7722 21.7995C15.4711 25.7896 16.8403 30.8897 20.8303 33.1907C24.8204 35.4918 29.9204 34.1226 32.2215 30.1326C34.5226 26.147 33.157 21.0506 29.1714 18.7495C27.9096 18.021 26.4788 17.636 25.0218 17.6331H25.0198V17.633Z" fill="#FAFAFA"/>
</g>
<defs>
<clipPath id="clip0_7846_143388">
<rect width="50" height="50" fill="white" transform="translate(0 0.964844)"/>
</clipPath>
</defs>
</svg>
