<svg width="720" height="598" fill="none" xmlns="http://www.w3.org/2000/svg"><g clip-path="url(#a)"><rect width="360" height="597" rx="10" fill="#F1F4FB"/><rect x="132" y="120.788" width="96" height="27" rx="13.5" fill="#87AB49"/><path d="M148.067 128.788c1.36 0 2.43.325 3.21.975.78.65 1.17 1.545 1.17 2.685 0 1.14-.39 2.035-1.17 2.685-.78.65-1.85.975-3.21.975h-2.595v3.18h-1.5v-10.5h4.095zm-.045 6.015c.95 0 1.675-.2 2.175-.6.5-.41.75-.995.75-1.755 0-.76-.25-1.34-.75-1.74-.5-.41-1.225-.615-2.175-.615h-2.55v4.71h2.55zm7.667-2.13c.25-.46.62-.81 1.11-1.05.49-.24 1.085-.36 1.785-.36v1.395c-.08-.01-.19-.015-.33-.015-.78 0-1.395.235-1.845.705-.44.46-.66 1.12-.66 1.98v3.96h-1.44v-7.95h1.38v1.335zm8.002 6.705c-.79 0-1.5-.175-2.13-.525a3.877 3.877 0 0 1-1.485-1.44c-.35-.62-.525-1.32-.525-2.1s.175-1.475.525-2.085c.36-.62.855-1.1 1.485-1.44.63-.35 1.34-.525 2.13-.525.79 0 1.495.175 2.115.525.63.34 1.12.82 1.47 1.44.36.61.54 1.305.54 2.085s-.18 1.48-.54 2.1a3.77 3.77 0 0 1-1.47 1.44c-.62.35-1.325.525-2.115.525zm0-1.26c.51 0 .965-.115 1.365-.345.41-.24.73-.57.96-.99.23-.43.345-.92.345-1.47 0-.55-.115-1.035-.345-1.455-.23-.43-.55-.76-.96-.99-.4-.23-.855-.345-1.365-.345s-.97.115-1.38.345c-.4.23-.72.56-.96.99-.23.42-.345.905-.345 1.455s.115 1.04.345 1.47c.24.42.56.75.96.99.41.23.87.345 1.38.345zm10.586.705c-.21.18-.47.32-.78.42-.31.09-.63.135-.96.135-.8 0-1.42-.215-1.86-.645-.44-.43-.66-1.045-.66-1.845v-4.365h-1.35v-1.185h1.35v-1.74h1.44v1.74h2.28v1.185h-2.28v4.305c0 .43.105.76.315.99.22.23.53.345.93.345.44 0 .815-.125 1.125-.375l.45 1.035zm8.663-3.465c0 .11-.01.255-.03.435h-6.45c.09.7.395 1.265.915 1.695.53.42 1.185.63 1.965.63.95 0 1.715-.32 2.295-.96l.795.93c-.36.42-.81.74-1.35.96-.53.22-1.125.33-1.785.33-.84 0-1.585-.17-2.235-.51a3.792 3.792 0 0 1-1.515-1.455c-.35-.62-.525-1.32-.525-2.1 0-.77.17-1.465.51-2.085.35-.62.825-1.1 1.425-1.44.61-.35 1.295-.525 2.055-.525.76 0 1.435.175 2.025.525.6.34 1.065.82 1.395 1.44.34.62.51 1.33.51 2.13zm-3.93-2.88c-.69 0-1.27.21-1.74.63-.46.42-.73.97-.81 1.65h5.1c-.08-.67-.355-1.215-.825-1.635-.46-.43-1.035-.645-1.725-.645zm9.394 6.9c-.81 0-1.535-.175-2.175-.525a3.877 3.877 0 0 1-1.485-1.44c-.36-.62-.54-1.32-.54-2.1s.18-1.475.54-2.085c.36-.62.855-1.1 1.485-1.44.64-.35 1.365-.525 2.175-.525.72 0 1.36.145 1.92.435.57.29 1.01.71 1.32 1.26l-1.095.705c-.25-.38-.56-.665-.93-.855-.37-.19-.78-.285-1.23-.285-.52 0-.99.115-1.41.345-.41.23-.735.56-.975.99-.23.42-.345.905-.345 1.455 0 .56.115 1.055.345 1.485.24.42.565.745.975.975.42.23.89.345 1.41.345.45 0 .86-.095 1.23-.285.37-.19.68-.475.93-.855l1.095.69c-.31.55-.75.975-1.32 1.275-.56.29-1.2.435-1.92.435zm9.677-.555c-.21.18-.47.32-.78.42-.31.09-.63.135-.96.135-.8 0-1.42-.215-1.86-.645-.44-.43-.66-1.045-.66-1.845v-4.365h-1.35v-1.185h1.35v-1.74h1.44v1.74h2.28v1.185h-2.28v4.305c0 .43.105.76.315.99.22.23.53.345.93.345.44 0 .815-.125 1.125-.375l.45 1.035zm8.662-3.465c0 .11-.01.255-.03.435h-6.45c.09.7.395 1.265.915 1.695.53.42 1.185.63 1.965.63.95 0 1.715-.32 2.295-.96l.795.93c-.36.42-.81.74-1.35.96-.53.22-1.125.33-1.785.33-.84 0-1.585-.17-2.235-.51a3.792 3.792 0 0 1-1.515-1.455c-.35-.62-.525-1.32-.525-2.1 0-.77.17-1.465.51-2.085.35-.62.825-1.1 1.425-1.44.61-.35 1.295-.525 2.055-.525.76 0 1.435.175 2.025.525.6.34 1.065.82 1.395 1.44.34.62.51 1.33.51 2.13zm-3.93-2.88c-.69 0-1.27.21-1.74.63-.46.42-.73.97-.81 1.65h5.1c-.08-.67-.355-1.215-.825-1.635-.46-.43-1.035-.645-1.725-.645zm13.43-4.32v11.13h-1.38v-1.26c-.32.44-.725.775-1.215 1.005-.49.23-1.03.345-1.62.345-.77 0-1.46-.17-2.07-.51a3.72 3.72 0 0 1-1.44-1.425c-.34-.62-.51-1.33-.51-2.13 0-.8.17-1.505.51-2.115a3.72 3.72 0 0 1 1.44-1.425c.61-.34 1.3-.51 2.07-.51.57 0 1.095.11 1.575.33.48.21.88.525 1.2.945v-4.38h1.44zm-4.095 9.96c.5 0 .955-.115 1.365-.345.41-.24.73-.57.96-.99.23-.43.345-.92.345-1.47 0-.55-.115-1.035-.345-1.455-.23-.43-.55-.76-.96-.99a2.742 2.742 0 0 0-1.365-.345c-.51 0-.97.115-1.38.345-.4.23-.72.56-.96.99-.23.42-.345.905-.345 1.455s.115 1.04.345 1.47c.24.42.56.75.96.99.41.23.87.345 1.38.345z" fill="#fff"/><rect x="36" y="431.878" width="288" height="50" rx="20" fill="#FB1B43"/><path d="M134.452 451.142h4.896c1.194 0 2.256.235 3.184.704.928.459 1.648 1.115 2.16 1.968.512.843.768 1.819.768 2.928 0 1.11-.256 2.091-.768 2.944-.512.843-1.232 1.499-2.16 1.968-.928.459-1.99.688-3.184.688h-4.896v-11.2zm4.8 9.44c.821 0 1.541-.154 2.16-.464a3.384 3.384 0 0 0 1.44-1.344c.341-.586.512-1.264.512-2.032s-.171-1.44-.512-2.016a3.268 3.268 0 0 0-1.44-1.344c-.619-.32-1.339-.48-2.16-.48h-2.72v7.68h2.72zm8.227-6.784h2v8.544h-2v-8.544zm1.008-1.408a1.3 1.3 0 0 1-.912-.336 1.145 1.145 0 0 1-.368-.864c0-.341.122-.624.368-.848a1.27 1.27 0 0 1 .912-.352c.362 0 .666.112.912.336.245.214.368.486.368.816 0 .352-.123.651-.368.896-.235.235-.539.352-.912.352zm6.257 10.064c-.694 0-1.371-.09-2.032-.272-.662-.181-1.19-.41-1.584-.688l.768-1.52a5.11 5.11 0 0 0 1.376.624 6 6 0 0 0 1.6.224c1.194 0 1.792-.314 1.792-.944 0-.298-.155-.506-.464-.624-.299-.117-.784-.229-1.456-.336-.704-.106-1.28-.229-1.728-.368a2.715 2.715 0 0 1-1.152-.72c-.32-.352-.48-.837-.48-1.456 0-.81.336-1.456 1.008-1.936.682-.49 1.6-.736 2.752-.736.586 0 1.173.07 1.76.208.586.128 1.066.304 1.44.528l-.768 1.52c-.726-.426-1.542-.64-2.448-.64-.587 0-1.035.091-1.344.272-.299.171-.448.4-.448.688 0 .32.16.55.48.688.33.128.837.251 1.52.368.682.107 1.242.23 1.68.368.437.139.81.374 1.12.704.32.331.48.8.48 1.408 0 .8-.347 1.44-1.04 1.92-.694.48-1.638.72-2.832.72zm9.514 0c-.885 0-1.68-.186-2.384-.56a4.124 4.124 0 0 1-1.648-1.552c-.395-.672-.592-1.429-.592-2.272 0-.842.197-1.594.592-2.256a4.168 4.168 0 0 1 1.632-1.552c.704-.373 1.504-.56 2.4-.56.843 0 1.579.171 2.208.512.64.342 1.12.832 1.44 1.472l-1.536.896a2.366 2.366 0 0 0-.928-.88 2.427 2.427 0 0 0-1.2-.304c-.747 0-1.365.246-1.856.736-.491.48-.736 1.126-.736 1.936 0 .811.24 1.462.72 1.952.491.48 1.115.72 1.872.72.437 0 .837-.096 1.2-.288.373-.202.683-.501.928-.896l1.536.896a3.5 3.5 0 0 1-1.456 1.488c-.629.342-1.36.512-2.192.512zm9.092 0c-.864 0-1.643-.186-2.336-.56a4.14 4.14 0 0 1-1.632-1.552c-.384-.672-.576-1.429-.576-2.272 0-.842.192-1.594.576-2.256a4.154 4.154 0 0 1 1.632-1.552c.693-.373 1.472-.56 2.336-.56.874 0 1.658.187 2.352.56a4.053 4.053 0 0 1 1.616 1.552c.394.662.592 1.414.592 2.256 0 .843-.198 1.6-.592 2.272a4.04 4.04 0 0 1-1.616 1.552c-.694.374-1.478.56-2.352.56zm0-1.712c.736 0 1.344-.245 1.824-.736.48-.49.72-1.136.72-1.936s-.24-1.445-.72-1.936c-.48-.49-1.088-.736-1.824-.736s-1.344.246-1.824.736c-.47.491-.704 1.136-.704 1.936s.234 1.446.704 1.936c.48.491 1.088.736 1.824.736zm11.32-7.04c1.078 0 1.942.315 2.592.944.651.63.976 1.563.976 2.8v4.896h-2v-4.64c0-.746-.176-1.306-.528-1.68-.352-.384-.853-.576-1.504-.576-.736 0-1.317.224-1.744.672-.426.438-.64 1.072-.64 1.904v4.32h-2v-8.544h1.904v1.104a3.141 3.141 0 0 1 1.248-.896 4.508 4.508 0 0 1 1.696-.304zm10.953 0c1.078 0 1.942.315 2.592.944.651.63.976 1.563.976 2.8v4.896h-2v-4.64c0-.746-.176-1.306-.528-1.68-.352-.384-.853-.576-1.504-.576-.736 0-1.317.224-1.744.672-.426.438-.64 1.072-.64 1.904v4.32h-2v-8.544h1.904v1.104a3.141 3.141 0 0 1 1.248-.896 4.508 4.508 0 0 1 1.696-.304zm14.216 4.416c0 .139-.011.336-.032.592h-6.704a2.36 2.36 0 0 0 .912 1.504c.501.363 1.12.544 1.856.544.938 0 1.712-.309 2.32-.928l1.072 1.232c-.384.459-.87.806-1.456 1.04-.587.235-1.248.352-1.984.352-.939 0-1.766-.186-2.48-.56a4.091 4.091 0 0 1-1.664-1.552c-.384-.672-.576-1.429-.576-2.272 0-.832.186-1.578.56-2.24a4.074 4.074 0 0 1 1.584-1.568c.672-.373 1.429-.56 2.272-.56.832 0 1.573.187 2.224.56.661.363 1.173.88 1.536 1.552.373.662.56 1.43.56 2.304zm-4.32-2.816c-.64 0-1.184.192-1.632.576-.438.374-.704.875-.8 1.504h4.848c-.086-.618-.347-1.12-.784-1.504-.438-.384-.982-.576-1.632-.576zm10.161 7.152c-.886 0-1.68-.186-2.384-.56a4.118 4.118 0 0 1-1.648-1.552c-.395-.672-.592-1.429-.592-2.272 0-.842.197-1.594.592-2.256a4.154 4.154 0 0 1 1.632-1.552c.704-.373 1.504-.56 2.4-.56.842 0 1.578.171 2.208.512.64.342 1.12.832 1.44 1.472l-1.536.896a2.372 2.372 0 0 0-.928-.88 2.427 2.427 0 0 0-1.2-.304c-.747 0-1.366.246-1.856.736-.491.48-.736 1.126-.736 1.936 0 .811.24 1.462.72 1.952.49.48 1.114.72 1.872.72.437 0 .837-.096 1.2-.288.373-.202.682-.501.928-.896l1.536.896a3.5 3.5 0 0 1-1.456 1.488c-.63.342-1.36.512-2.192.512zm10.622-.576a2.355 2.355 0 0 1-.864.432 3.774 3.774 0 0 1-1.056.144c-.939 0-1.664-.245-2.176-.736-.512-.49-.768-1.205-.768-2.144v-4.112h-1.408v-1.6h1.408v-1.952h2v1.952h2.288v1.6h-2.288v4.064c0 .416.101.736.304.96.203.214.496.32.88.32.448 0 .821-.117 1.12-.352l.56 1.424zM.195 519.848h360v77h-360z" fill="#fff"/><g clip-path="url(#b)"><g clip-path="url(#c)"><path fill-rule="evenodd" clip-rule="evenodd" d="M56.145 562.698v1.697a4.363 4.363 0 0 1 2.653 2.653h7.497v2.9h-7.497a4.353 4.353 0 0 1-8.205 0h-7.498v-2.9h7.498a4.363 4.363 0 0 1 2.652-2.653v-1.697h-5.459c-4.174 0-7.59-3.227-7.59-7.25 0-3.399 2.452-6.273 5.795-7.047 1.713-2.783 5.036-4.553 8.704-4.553 4.322 0 8.11 2.456 9.415 6.013 2.935.737 5.085 3.289 5.085 6.312 0 3.622-3.073 6.525-6.823 6.525h-6.227zm-1.45 7.25a1.45 1.45 0 1 0-.001-2.901 1.45 1.45 0 0 0 .001 2.901zm11.6-13.775c0-1.83-1.487-3.391-3.47-3.602l-1.028-.109-.232-1.006c-.618-2.678-3.468-4.708-6.87-4.708-2.88 0-5.407 1.46-6.471 3.602l-.344.69-.764.102c-2.309.305-4.02 2.151-4.02 4.306 0 2.383 2.082 4.35 4.69 4.35h14.586c2.184 0 3.923-1.643 3.923-3.625z" fill="#D7DEED"/></g></g><g clip-path="url(#d)" fill="#D7DEED"><path d="M99.796 561.291h2.196l-2.754-6.3H97.15l-2.754 6.3h2.16l.423-1.098h2.394l.423 1.098zm-2.232-2.628.612-1.584.612 1.584h-1.224zM102.331 561.291h3.105c2.106 0 3.555-1.197 3.555-3.15 0-1.953-1.449-3.15-3.555-3.15h-3.105v6.3zm2.124-1.656v-2.988h.891c.891 0 1.503.531 1.503 1.494s-.612 1.494-1.503 1.494h-.891zM112.115 561.435c1.953 0 2.934-.972 2.934-2.124 0-2.322-3.483-1.692-3.483-2.448 0-.216.198-.396.819-.396.549 0 1.134.153 1.755.468l.639-1.539c-.657-.369-1.53-.549-2.376-.549-1.953 0-2.934.954-2.934 2.124 0 2.349 3.483 1.71 3.483 2.502 0 .216-.216.342-.819.342a4.322 4.322 0 0 1-2.079-.576l-.684 1.548c.63.387 1.692.648 2.745.648z"/><path fill-rule="evenodd" clip-rule="evenodd" d="M104.895 570.348c6.628 0 12-5.373 12-12 0-6.628-5.372-12-12-12-6.627 0-12 5.372-12 12 0 6.627 5.373 12 12 12zm0 2.5c8.008 0 14.5-6.492 14.5-14.5s-6.492-14.5-14.5-14.5-14.5 6.492-14.5 14.5 6.492 14.5 14.5 14.5z"/><path d="m96.394 567.848.896.872 5.715-5.872h-3.489l-4.017 4.127.895.873zM108.274 553.848h3.488l3.529-3.629-1.793-1.743-5.224 5.372z"/></g><g clip-path="url(#e)" fill="#D7DEED"><path d="M169.562 557.695a4.78 4.78 0 0 1-2.383.653c-1.917 0-3.557-1.125-4.339-2.742a4.793 4.793 0 0 1-1.703.325 4.835 4.835 0 0 1-4.834-4.833c0-1.192.449-2.269 1.165-3.112-1.414-.843-2.373-2.372-2.373-4.138-8.007 0-14.5 6.492-14.5 14.5s6.493 14.5 14.5 14.5c8.009 0 14.5-6.492 14.5-14.5 0-.22-.023-.435-.033-.653zm-14.467 12.736c-6.662 0-12.083-5.421-12.083-12.083 0-6.001 4.397-10.993 10.136-11.927.288.758.705 1.46 1.232 2.081a7.13 7.13 0 0 0-.493 2.596c0 3.997 3.252 7.25 7.25 7.25.207 0 .416-.01.626-.029a7.157 7.157 0 0 0 5.174 2.441c-1.121 5.511-6.005 9.671-11.842 9.671z"/><path d="M162.345 563.785a1.813 1.813 0 1 1-3.625.001 1.813 1.813 0 0 1 3.625-.001zM155.095 566.202a1.812 1.812 0 1 1-3.623 0 1.812 1.812 0 0 1 3.623 0zM156.303 560.16a1.813 1.813 0 1 1-3.625.001 1.813 1.813 0 0 1 3.625-.001zM151.47 552.91a1.813 1.813 0 1 1-3.625.001 1.813 1.813 0 0 1 3.625-.001zM149.054 558.951a1.813 1.813 0 1 1-3.625 0 1.813 1.813 0 0 1 3.625 0z"/></g><g clip-path="url(#f)" fill="#D7DEED"><path d="m217.813 558.925.525-.574-.525-.574c-2.036-2.223-4.11-3.919-6.164-5.041-2.099-1.146-4.236-1.727-6.352-1.727-2.117 0-4.254.581-6.352 1.727-2.055 1.122-4.129 2.818-6.165 5.041l-.525.574.525.574c2.036 2.223 4.11 3.919 6.165 5.041 2.098 1.146 4.235 1.727 6.352 1.727 2.116 0 4.253-.581 6.352-1.727 2.054-1.122 4.128-2.818 6.164-5.041zm-12.517 5.046a5.626 5.626 0 0 1-5.62-5.62 5.626 5.626 0 0 1 5.62-5.62 5.626 5.626 0 0 1 5.62 5.62 5.626 5.626 0 0 1-5.62 5.62zm-10.724-5.62c1.461-1.521 2.93-2.744 4.382-3.651a7.277 7.277 0 0 0-.977 3.651c0 1.329.356 2.576.977 3.651-1.452-.907-2.921-2.13-4.382-3.651zm17.065 3.652a7.271 7.271 0 0 0 .978-3.652 7.271 7.271 0 0 0-.978-3.652c1.453.907 2.922 2.13 4.385 3.652-1.463 1.522-2.932 2.745-4.385 3.652z"/><path d="M205.296 555.602a2.752 2.752 0 0 0-2.749 2.749 2.752 2.752 0 0 0 2.749 2.749 2.752 2.752 0 0 0 2.749-2.749 2.752 2.752 0 0 0-2.749-2.749zm0 3.798a1.05 1.05 0 1 1 0-2.099 1.05 1.05 0 0 1 0 2.099z"/><path fill-rule="evenodd" clip-rule="evenodd" d="M191.145 544.198h6.751v2.3h-4.451v4.882h-2.3v-7.182zm26 2.3h-4.468v-2.3h6.768v7.195h-2.3v-4.895zm-23.7 23.7v-5.807h-2.3v8.107h7.702v-2.3h-5.402zm23.7 0v-4.86h2.3v7.16h-7.65v-2.3h5.35z"/></g><g clip-path="url(#g)" fill-rule="evenodd" clip-rule="evenodd" fill="#D7DEED"><path d="M264.611 549.384a1.25 1.25 0 0 0 0-2.5h-19.5a1.25 1.25 0 1 0 0 2.5h19.5zm.63 3.829a1.25 1.25 0 0 0-.63-2.329h-19.5a1.25 1.25 0 1 0 0 2.5h12.973a9.21 9.21 0 0 1 3.781-.806c1.191 0 2.33.225 3.376.635zm-12.56 9.671c.1.876.322 1.715.65 2.5h-8.22a1.25 1.25 0 1 1 0-2.5h7.57zm.416-4a9.19 9.19 0 0 0-.466 2.5h-7.52a1.25 1.25 0 1 1 0-2.5h7.986zm2.659-4a9.261 9.261 0 0 0-2.002 2.5h-8.643a1.25 1.25 0 1 1 0-2.5h10.645zm-7.195 14.5a1.25 1.25 0 0 0 0-2.5h-3.45a1.25 1.25 0 1 0 0 2.5h3.45zM267.029 561.823a5.165 5.165 0 0 1-7.529 4.593l6.958-6.957c.365.708.571 1.512.571 2.364zm-9.252 3.158 7.245-7.246a5.165 5.165 0 0 0-7.245 7.246zm11.218-3.158a7.13 7.13 0 1 1-14.261-.001 7.13 7.13 0 0 1 14.261.001z"/></g><g clip-path="url(#h)" fill="#D7DEED"><path d="M305.695 544.85c.021-.002.043-.002.064-.002.594 0 1.076.481 1.076 1.075v1.673c0 .594-.482 1.076-1.076 1.075l-.064-.001-.063.001a1.075 1.075 0 0 1-1.076-1.075v-1.673a1.075 1.075 0 0 1 1.139-1.073zM297.388 551.442a1.076 1.076 0 0 0-.108-1.518l-1.378-1.196a1.076 1.076 0 0 0-1.41 1.625l1.379 1.196c.448.39 1.128.341 1.517-.107zM306.126 554.312a1.076 1.076 0 0 0 0 2.152c.498 0 1.05.254 1.5.747.447.489.722 1.14.722 1.792a1.075 1.075 0 1 0 2.151 0c0-1.242-.514-2.399-1.285-3.243-.769-.842-1.866-1.448-3.088-1.448z"/><path fill-rule="evenodd" clip-rule="evenodd" d="M305.695 550.01a8.687 8.687 0 0 0-8.68 8.341l-.029.714a7.323 7.323 0 0 0 2.139 5.471l.806.806c.549.549.883 1.276.943 2.05l.036.472a4.893 4.893 0 0 0 4.692 4.514v.004l.093-.001.094.001v-.004a4.894 4.894 0 0 0 4.692-4.514l.036-.472a3.249 3.249 0 0 1 .943-2.05l.805-.806a7.324 7.324 0 0 0 2.14-5.471l-.029-.714a8.688 8.688 0 0 0-8.681-8.341zm2.641 17.689a2.743 2.743 0 0 1-2.641 2.53 2.741 2.741 0 0 1-2.64-2.53l-.037-.472a5.407 5.407 0 0 0-1.566-3.407l-.806-.805a5.175 5.175 0 0 1-1.511-3.864l.029-.714a6.537 6.537 0 0 1 13.063 0l.028.714a5.171 5.171 0 0 1-1.511 3.864l-.805.805a5.408 5.408 0 0 0-1.567 3.407l-.036.472z"/><path d="M298.282 564.953a1.076 1.076 0 0 0-1.521 0l-1.291 1.29a1.076 1.076 0 0 0 1.521 1.521l1.291-1.29c.42-.42.42-1.101 0-1.521zM294.096 556.929a1.076 1.076 0 0 1 0 2.152h-1.825a1.076 1.076 0 0 1 0-2.152h1.825zM313.109 564.953c.42-.42 1.101-.42 1.521 0l1.291 1.29a1.076 1.076 0 0 1-1.521 1.521l-1.291-1.29a1.076 1.076 0 0 1 0-1.521zM317.295 556.929a1.076 1.076 0 0 0 0 2.152h1.825a1.075 1.075 0 0 0 0-2.152h-1.825zM314.003 551.442a1.076 1.076 0 0 1 .107-1.518l1.379-1.196a1.075 1.075 0 0 1 1.41 1.625l-1.379 1.196a1.075 1.075 0 0 1-1.517-.107z"/></g><g clip-path="url(#i)"><path d="M94.5 180.151c4.97 0 9-4.253 9-9.5 0-5.246-4.03-9.5-9-9.5s-9 4.254-9 9.5c0 5.247 4.03 9.5 9 9.5z" fill="#F0F0F0"/><path d="M103.5 170.651c0-4.084-2.442-7.566-5.87-8.909v17.819c3.428-1.343 5.87-4.825 5.87-8.91z" fill="#D80027"/><path d="M85.5 170.651c0 4.085 2.442 7.567 5.87 8.909v-17.818c-3.428 1.343-5.87 4.825-5.87 8.909z" fill="#0052B4"/></g><path d="M120.51 167.569v3.416h4.914v1.204h-4.914v3.962h-1.4v-9.8h6.916v1.218h-5.516zm8.442 2.408a2.29 2.29 0 0 1 1.036-.98c.457-.224 1.012-.336 1.666-.336v1.302a2.712 2.712 0 0 0-.308-.014c-.728 0-1.302.22-1.722.658-.411.43-.616 1.046-.616 1.848v3.696h-1.344v-7.42h1.288v1.246zm7.046-1.316c1.027 0 1.811.252 2.352.756.551.504.826 1.256.826 2.254v4.48h-1.274v-.98a2.153 2.153 0 0 1-.966.798c-.41.178-.9.266-1.47.266-.83 0-1.498-.2-2.002-.602-.494-.401-.742-.928-.742-1.582 0-.653.238-1.176.714-1.568.476-.401 1.232-.602 2.268-.602h2.128v-.266c0-.578-.168-1.022-.504-1.33-.336-.308-.83-.462-1.484-.462a3.83 3.83 0 0 0-1.288.224c-.42.14-.774.332-1.064.574l-.56-1.008c.383-.308.84-.541 1.372-.7a5.595 5.595 0 0 1 1.694-.252zm-.308 6.538c.514 0 .957-.112 1.33-.336.374-.233.644-.56.812-.98v-1.036h-2.072c-1.138 0-1.708.383-1.708 1.148 0 .374.145.668.434.882.29.215.691.322 1.204.322zm9.936-6.538c.942 0 1.689.276 2.24.826.56.542.84 1.34.84 2.394v4.27h-1.344v-4.116c0-.718-.173-1.26-.518-1.624-.346-.364-.84-.546-1.484-.546-.728 0-1.302.215-1.722.644-.42.42-.63 1.027-.63 1.82v3.822h-1.344v-7.42h1.288v1.12c.27-.382.634-.676 1.092-.882.466-.205.994-.308 1.582-.308zm8.842 7.574c-.756 0-1.433-.163-2.03-.49a3.61 3.61 0 0 1-1.386-1.344c-.336-.578-.504-1.232-.504-1.96s.168-1.376.504-1.946a3.5 3.5 0 0 1 1.386-1.344c.597-.326 1.274-.49 2.03-.49.672 0 1.269.136 1.792.406.532.271.943.663 1.232 1.176l-1.022.658a2.294 2.294 0 0 0-.868-.798 2.479 2.479 0 0 0-1.148-.266c-.485 0-.924.108-1.316.322a2.345 2.345 0 0 0-.91.924c-.215.392-.322.845-.322 1.358 0 .523.107.985.322 1.386.224.392.527.696.91.91.392.215.831.322 1.316.322.42 0 .803-.088 1.148-.266.345-.177.635-.443.868-.798l1.022.644c-.289.514-.7.91-1.232 1.19-.523.271-1.12.406-1.792.406zm11.361-3.752c0 .103-.01.238-.028.406h-6.02c.084.654.368 1.181.854 1.582.494.392 1.106.588 1.834.588.886 0 1.6-.298 2.142-.896l.742.868a3.237 3.237 0 0 1-1.26.896c-.495.206-1.05.308-1.666.308-.784 0-1.48-.158-2.086-.476a3.53 3.53 0 0 1-1.414-1.358c-.327-.578-.49-1.232-.49-1.96 0-.718.158-1.367.476-1.946a3.478 3.478 0 0 1 1.33-1.344 3.788 3.788 0 0 1 1.918-.49c.709 0 1.339.164 1.89.49.56.318.994.766 1.302 1.344.317.579.476 1.242.476 1.988zm-3.668-2.688c-.644 0-1.186.196-1.624.588-.43.392-.682.906-.756 1.54h4.76c-.075-.625-.332-1.134-.77-1.526-.43-.401-.966-.602-1.61-.602zm9.49-3.444h1.4v9.8h-1.4v-9.8zm8.156 0c1.269 0 2.268.304 2.996.91.728.607 1.092 1.442 1.092 2.506 0 1.064-.364 1.9-1.092 2.506-.728.607-1.727.91-2.996.91h-2.422v2.968h-1.4v-9.8h3.822zm-.042 5.614c.886 0 1.563-.186 2.03-.56.466-.382.7-.928.7-1.638 0-.709-.234-1.25-.7-1.624-.467-.382-1.144-.574-2.03-.574h-2.38v4.396h2.38zm6.449-1.386a.94.94 0 0 1-.672-.266.947.947 0 0 1-.28-.7c0-.27.093-.494.28-.672a.92.92 0 0 1 .672-.28c.261 0 .481.089.658.266a.93.93 0 0 1 .266.686c0 .28-.093.514-.28.7a.874.874 0 0 1-.644.266zm0 5.656a.94.94 0 0 1-.672-.266.947.947 0 0 1-.28-.7c0-.27.093-.494.28-.672a.92.92 0 0 1 .672-.28c.261 0 .481.089.658.266a.93.93 0 0 1 .266.686c0 .28-.093.514-.28.7a.874.874 0 0 1-.644.266zm9.046-9.884v9.8h-1.386v-8.582h-2.212v-1.218h3.598zm9.031 8.582v1.218h-7.042v-.952l3.99-3.85c.486-.466.812-.868.98-1.204.168-.345.252-.69.252-1.036 0-.513-.182-.91-.546-1.19-.354-.289-.868-.434-1.54-.434-1.082 0-1.918.355-2.506 1.064l-.952-.826c.383-.466.882-.83 1.498-1.092.626-.261 1.321-.392 2.086-.392 1.027 0 1.844.248 2.45.742.607.486.91 1.148.91 1.988 0 .523-.112 1.018-.336 1.484-.224.467-.648.999-1.274 1.596l-2.996 2.884h5.026zm7.144-3.92c.56.215.989.523 1.288.924.298.402.448.882.448 1.442 0 .588-.159 1.102-.476 1.54-.318.43-.77.761-1.358.994-.588.234-1.279.35-2.072.35-.784 0-1.47-.116-2.058-.35-.579-.233-1.027-.564-1.344-.994-.318-.438-.476-.952-.476-1.54 0-.56.144-1.04.434-1.442.298-.401.728-.709 1.288-.924-.448-.214-.789-.499-1.022-.854-.234-.354-.35-.774-.35-1.26 0-.541.144-1.012.434-1.414.298-.401.714-.709 1.246-.924.532-.214 1.148-.322 1.848-.322.709 0 1.33.108 1.862.322.541.215.956.523 1.246.924.298.402.448.873.448 1.414 0 .476-.122.896-.364 1.26-.234.355-.574.64-1.022.854zm-2.17-3.64c-.663 0-1.186.145-1.568.434-.383.28-.574.663-.574 1.148 0 .486.186.868.56 1.148.382.28.91.42 1.582.42.681 0 1.213-.14 1.596-.42.392-.28.588-.662.588-1.148 0-.485-.201-.868-.602-1.148-.392-.289-.92-.434-1.582-.434zm0 7.756c.774 0 1.386-.158 1.834-.476.448-.326.672-.765.672-1.316 0-.541-.224-.966-.672-1.274-.448-.317-1.06-.476-1.834-.476-.775 0-1.382.159-1.82.476-.439.308-.658.733-.658 1.274 0 .551.219.99.658 1.316.438.318 1.045.476 1.82.476zm6.248 1.106a.94.94 0 0 1-.672-.266.947.947 0 0 1-.28-.7c0-.27.093-.494.28-.672a.92.92 0 0 1 .672-.28c.261 0 .481.089.658.266a.93.93 0 0 1 .266.686c0 .28-.093.514-.28.7a.874.874 0 0 1-.644.266zm5.108-9.884v9.8h-1.386v-8.582h-2.212v-1.218h3.598zm5.182 0v9.8h-1.386v-8.582h-2.212v-1.218h3.598zm9.031 8.582v1.218h-7.042v-.952l3.99-3.85c.486-.466.812-.868.98-1.204.168-.345.252-.69.252-1.036 0-.513-.182-.91-.546-1.19-.354-.289-.868-.434-1.54-.434-1.082 0-1.918.355-2.506 1.064l-.952-.826c.383-.466.882-.83 1.498-1.092.626-.261 1.321-.392 2.086-.392 1.027 0 1.844.248 2.45.742.607.486.91 1.148.91 1.988 0 .523-.112 1.018-.336 1.484-.224.467-.648.999-1.274 1.596l-2.996 2.884h5.026zm2.212 1.302a.94.94 0 0 1-.672-.266.951.951 0 0 1-.28-.7c0-.27.094-.494.28-.672a.92.92 0 0 1 .672-.28c.262 0 .481.089.658.266a.927.927 0 0 1 .266.686c0 .28-.093.514-.28.7a.874.874 0 0 1-.644.266zm5.108-9.884v9.8h-1.386v-8.582h-2.212v-1.218h3.598zm4.944 3.906c1.4 0 2.427.266 3.08.798.663.523.994 1.242.994 2.156 0 .579-.14 1.102-.42 1.568-.271.458-.686.822-1.246 1.092-.551.262-1.232.392-2.044.392a6.529 6.529 0 0 1-2.002-.308c-.644-.214-1.176-.508-1.596-.882l.644-1.106c.336.318.765.574 1.288.77.523.187 1.073.28 1.652.28.737 0 1.307-.154 1.708-.462.411-.317.616-.746.616-1.288 0-.588-.224-1.031-.672-1.33-.448-.308-1.213-.462-2.296-.462h-2.226l.518-5.124h5.53v1.218h-4.354l-.266 2.688h1.092zm6.163 5.978a.94.94 0 0 1-.672-.266.947.947 0 0 1-.28-.7c0-.27.093-.494.28-.672a.92.92 0 0 1 .672-.28c.261 0 .481.089.658.266a.93.93 0 0 1 .266.686c0 .28-.093.514-.28.7a.874.874 0 0 1-.644.266zm5.108-9.884v9.8h-1.386v-8.582h-2.212v-1.218h3.598zm5.182 0v9.8h-1.386v-8.582h-2.212v-1.218h3.598zm6.147 9.912c-.774 0-1.465-.196-2.072-.588-.597-.401-1.068-.98-1.414-1.736-.345-.756-.518-1.652-.518-2.688 0-1.036.173-1.932.518-2.688.346-.756.817-1.33 1.414-1.722.607-.401 1.298-.602 2.072-.602.766 0 1.447.201 2.044.602.607.392 1.083.966 1.428 1.722.346.756.518 1.652.518 2.688 0 1.036-.172 1.932-.518 2.688-.345.756-.821 1.335-1.428 1.736-.597.392-1.278.588-2.044.588zm0-1.246c.784 0 1.41-.322 1.876-.966.476-.644.714-1.577.714-2.8 0-1.222-.238-2.156-.714-2.8-.466-.644-1.092-.966-1.876-.966-.793 0-1.428.322-1.904.966-.466.644-.7 1.578-.7 2.8 0 1.223.234 2.156.7 2.8.476.644 1.111.966 1.904.966z" fill="#3B577F"/><path fill="#F1F4FB" d="M0 0h360v48H0z"/><rect x="14.996" y="16.276" width="18" height="2.483" rx="1.241" fill="#87AB49"/><rect x="14.996" y="22.759" width="18" height="2.483" rx="1.241" fill="#87AB49"/><rect x="14.996" y="29.241" width="18" height="2.483" rx="1.241" fill="#87AB49"/><path fill-rule="evenodd" clip-rule="evenodd" d="M341.996 28.08c-.76 0-1.44.3-1.96.77l-7.13-4.15c.05-.23.09-.46.09-.7 0-.24-.04-.47-.09-.7l7.05-4.11c.54.5 1.25.81 2.04.81 1.66 0 3-1.34 3-3s-1.34-3-3-3-3 1.34-3 3c0 .24.04.47.09.7l-7.05 4.11c-.54-.5-1.25-.81-2.04-.81-1.66 0-3 1.34-3 3s1.34 3 3 3c.79 0 1.5-.31 2.04-.81l7.12 4.16c-.05.21-.08.43-.08.65 0 1.61 1.31 2.92 2.92 2.92 1.61 0 2.92-1.31 2.92-2.92 0-1.61-1.31-2.92-2.92-2.92z" fill="#87AB49"/><path d="M129.278 18.6c1.054 0 1.967.176 2.737.527.782.351 1.383.85 1.802 1.496.42.646.629 1.411.629 2.295 0 .873-.209 1.638-.629 2.295-.419.646-1.02 1.145-1.802 1.496-.77.34-1.683.51-2.737.51h-2.397V30.5h-2.754V18.6h5.151zm-.153 6.375c.828 0 1.457-.176 1.887-.527.431-.363.646-.873.646-1.53 0-.669-.215-1.179-.646-1.53-.43-.363-1.059-.544-1.887-.544h-2.244v4.131h2.244zm7.287-6.375h2.754v9.656h5.967V30.5h-8.721V18.6zm18.197 9.35h-5.525l-1.054 2.55h-2.822l5.304-11.9h2.72l5.321 11.9h-2.89l-1.054-2.55zm-.867-2.091-1.887-4.556-1.887 4.556h3.774zm16.959-7.259v11.9h-2.261l-5.933-7.225V30.5h-2.72V18.6h2.278l5.916 7.225V18.6h2.72zm12.03 9.69v2.21h-9.214V18.6h8.993v2.21h-6.256v2.584h5.525v2.142h-5.525v2.754h6.477zm4.656-7.446h-3.808V18.6h10.37v2.244h-3.808V30.5h-2.754v-9.656z" fill="#233654"/><path d="m211.686 18.6-5.151 11.9h-2.72l-5.134-11.9h2.975l3.621 8.5 3.672-8.5h2.737zm6.145 0c1.054 0 1.966.176 2.737.527.782.351 1.383.85 1.802 1.496.419.646.629 1.411.629 2.295 0 .873-.21 1.638-.629 2.295-.419.646-1.02 1.145-1.802 1.496-.771.34-1.683.51-2.737.51h-2.397V30.5h-2.754V18.6h5.151zm-.153 6.375c.827 0 1.456-.176 1.887-.527.431-.363.646-.873.646-1.53 0-.669-.215-1.179-.646-1.53-.431-.363-1.06-.544-1.887-.544h-2.244v4.131h2.244zm18.201-6.375v11.9h-2.261l-5.933-7.225V30.5h-2.72V18.6h2.278l5.916 7.225V18.6h2.72z" fill="#87AB49"/><circle cx="180" cy="305.727" r="75.66" fill="url(#j)"/><path fill-rule="evenodd" clip-rule="evenodd" d="M94.617 332.616c1.302-1.61 3.798-1.366 4.829.43.661 1.152.485 2.597-.396 3.592-5.133 5.797-7.347 10.307-5.871 12.877 4.742 8.258 45.78-6.638 91.662-33.271 1.584-.919 3.153-1.84 4.705-2.763.538-.319.848-.912.848-1.538 0-10.603 8.596-19.198 19.199-19.198 1.29 0 2.55.127 3.769.369 3.289.655 6.864.616 9.59-1.337 24.713-17.702 39.659-32.997 36.379-38.71-1.409-2.454-6.023-2.863-13.015-1.528-1.26.24-2.549-.318-3.188-1.431-1.003-1.747.021-3.964 2.015-4.255 13.736-2.01 23.48-.332 26.895 5.616 6.397 11.139-11.204 34.118-41.844 57.485-.92.702-1.402 1.832-1.402 2.989 0 10.604-8.596 19.199-19.199 19.199a19.28 19.28 0 0 1-4.112-.441c-3.079-.672-6.4-.719-9.114.881-.733.432-1.47.863-2.211 1.293-51.622 29.966-100.45 42.104-109.06 27.11-3.534-6.153.255-15.92 9.52-27.369z" fill="#D7DEED"/><circle cx="209.593" cy="311.943" r="9.599" fill="#70AF09"/><g opacity=".32" fill="#E5E5E5"><path d="M141.228 279.851c-4.657 11.498-3.188 23.622-8.899 21.309-5.711-2.313-6.566-13.508-1.91-25.006 4.657-11.498 13.061-18.943 18.772-16.63 5.712 2.313-3.307 8.829-7.963 20.327zM137.643 312.582c.416 3.787-1.337 7.086-3.916 7.369-2.579.283-5.006-2.556-5.422-6.343-.416-3.786 1.337-7.085 3.916-7.368 2.578-.284 5.006 2.556 5.422 6.342z"/></g><path d="M157.662 363.367c-2.629-1.519-1.369-4.065 5.017-6.182 13.465-2.956 11.193 3.02 30.57.721 19.377-2.299 29.593-10.287 34.738-15.542 4.116-4.204 7.921-9.893 7.739-7.886-.876 4.27-7.948 15.524-29.23 26.384-26.603 13.575-44.803 4.834-48.834 2.505z" fill="#080F1B" fill-opacity=".11"/><path d="M243.214 263.836c2.497-1.654 3.193-5.033 1.376-7.414a81.26 81.26 0 0 0-138.267 83.576c1.263 2.716 4.579 3.67 7.204 2.228 2.626-1.442 3.565-4.732 2.329-7.461a70.412 70.412 0 0 1 119.67-72.334c1.841 2.362 5.191 3.06 7.688 1.405zM133.659 365.755c-1.83 2.371-1.401 5.794 1.087 7.462a81.256 81.256 0 0 0 126.466-70.206c-.1-2.994-2.778-5.168-5.758-4.869-2.981.3-5.132 2.96-5.062 5.955a70.415 70.415 0 0 1-75.691 71.841 70.42 70.42 0 0 1-33.311-11.33c-2.505-1.643-5.9-1.224-7.731 1.147z" fill="#D7DEED"/><rect x="41.5" y="61" width="277" height="40" rx="20" fill="#D7DEED"/><g clip-path="url(#k)"><path d="M61.5 95c7.732 0 14-6.268 14-14s-6.268-14-14-14-14 6.268-14 14 6.268 14 14 14z" fill="#F0F0F0"/><path d="M75.5 81c0-6.02-3.8-11.151-9.13-13.13v26.26C71.7 92.15 75.5 87.02 75.5 81z" fill="#D80027"/><path d="M47.5 81c0 6.02 3.8 11.151 9.13 13.13V67.87C51.3 69.85 47.5 74.98 47.5 81z" fill="#0052B4"/></g><path d="M88.575 76.805v3.66h5.265v1.29h-5.265V86h-1.5V75.5h7.41v1.305h-5.91zm9.045 2.58c.25-.46.62-.81 1.11-1.05.49-.24 1.085-.36 1.785-.36v1.395c-.08-.01-.19-.015-.33-.015-.78 0-1.395.235-1.845.705-.44.46-.66 1.12-.66 1.98V86h-1.44v-7.95h1.38v1.335zm7.55-1.41c1.1 0 1.94.27 2.52.81.59.54.885 1.345.885 2.415V86h-1.365v-1.05c-.24.37-.585.655-1.035.855-.44.19-.965.285-1.575.285-.89 0-1.605-.215-2.145-.645-.53-.43-.795-.995-.795-1.695 0-.7.255-1.26.765-1.68.51-.43 1.32-.645 2.43-.645h2.28v-.285c0-.62-.18-1.095-.54-1.425-.36-.33-.89-.495-1.59-.495-.47 0-.93.08-1.38.24-.45.15-.83.355-1.14.615l-.6-1.08c.41-.33.9-.58 1.47-.75.57-.18 1.175-.27 1.815-.27zm-.33 7.005c.55 0 1.025-.12 1.425-.36.4-.25.69-.6.87-1.05v-1.11h-2.22c-1.22 0-1.83.41-1.83 1.23 0 .4.155.715.465.945.31.23.74.345 1.29.345zm7.78-5.595c.25-.46.62-.81 1.11-1.05.49-.24 1.085-.36 1.785-.36v1.395c-.08-.01-.19-.015-.33-.015-.78 0-1.395.235-1.845.705-.44.46-.66 1.12-.66 1.98V86h-1.44v-7.95h1.38v1.335zm8.915-1.41c1.01 0 1.81.295 2.4.885.6.58.9 1.435.9 2.565V86h-1.44v-4.41c0-.77-.185-1.35-.555-1.74-.37-.39-.9-.585-1.59-.585-.78 0-1.395.23-1.845.69-.45.45-.675 1.1-.675 1.95V86h-1.44v-7.95h1.38v1.2c.29-.41.68-.725 1.17-.945.5-.22 1.065-.33 1.695-.33zm9.474 8.115c-.81 0-1.535-.175-2.175-.525a3.877 3.877 0 0 1-1.485-1.44c-.36-.62-.54-1.32-.54-2.1s.18-1.475.54-2.085c.36-.62.855-1.1 1.485-1.44.64-.35 1.365-.525 2.175-.525.72 0 1.36.145 1.92.435.57.29 1.01.71 1.32 1.26l-1.095.705c-.25-.38-.56-.665-.93-.855-.37-.19-.78-.285-1.23-.285-.52 0-.99.115-1.41.345-.41.23-.735.56-.975.99-.23.42-.345.905-.345 1.455 0 .56.115 1.055.345 1.485.24.42.565.745.975.975.42.23.89.345 1.41.345.45 0 .86-.095 1.23-.285.37-.19.68-.475.93-.855l1.095.69c-.31.55-.75.975-1.32 1.275-.56.29-1.2.435-1.92.435zm12.172-4.02c0 .11-.01.255-.03.435h-6.45c.09.7.395 1.265.915 1.695.53.42 1.185.63 1.965.63.95 0 1.715-.32 2.295-.96l.795.93c-.36.42-.81.74-1.35.96-.53.22-1.125.33-1.785.33-.84 0-1.585-.17-2.235-.51a3.792 3.792 0 0 1-1.515-1.455c-.35-.62-.525-1.32-.525-2.1 0-.77.17-1.465.51-2.085.35-.62.825-1.1 1.425-1.44.61-.35 1.295-.525 2.055-.525.76 0 1.435.175 2.025.525.6.34 1.065.82 1.395 1.44.34.62.51 1.33.51 2.13zm-3.93-2.88c-.69 0-1.27.21-1.74.63-.46.42-.73.97-.81 1.65h5.1c-.08-.67-.355-1.215-.825-1.635-.46-.43-1.035-.645-1.725-.645zm9.448 2.07h4.035v1.245h-4.035V81.26zm11.99-4.455v3.66h5.265v1.29h-5.265V86h-1.5V75.5h7.41v1.305h-5.91zm9.045 2.58c.25-.46.62-.81 1.11-1.05.49-.24 1.085-.36 1.785-.36v1.395c-.08-.01-.19-.015-.33-.015-.78 0-1.395.235-1.845.705-.44.46-.66 1.12-.66 1.98V86h-1.44v-7.95h1.38v1.335zm11.782 2.685c0 .11-.01.255-.03.435h-6.45c.09.7.395 1.265.915 1.695.53.42 1.185.63 1.965.63.95 0 1.715-.32 2.295-.96l.795.93c-.36.42-.81.74-1.35.96-.53.22-1.125.33-1.785.33-.84 0-1.585-.17-2.235-.51a3.792 3.792 0 0 1-1.515-1.455c-.35-.62-.525-1.32-.525-2.1 0-.77.17-1.465.51-2.085.35-.62.825-1.1 1.425-1.44.61-.35 1.295-.525 2.055-.525.76 0 1.435.175 2.025.525.6.34 1.065.82 1.395 1.44.34.62.51 1.33.51 2.13zm-3.93-2.88c-.69 0-1.27.21-1.74.63-.46.42-.73.97-.81 1.65h5.1c-.08-.67-.355-1.215-.825-1.635-.46-.43-1.035-.645-1.725-.645zm13.114 2.88c0 .11-.01.255-.03.435h-6.45c.09.7.395 1.265.915 1.695.53.42 1.185.63 1.965.63.95 0 1.715-.32 2.295-.96l.795.93c-.36.42-.81.74-1.35.96-.53.22-1.125.33-1.785.33-.84 0-1.585-.17-2.235-.51a3.792 3.792 0 0 1-1.515-1.455c-.35-.62-.525-1.32-.525-2.1 0-.77.17-1.465.51-2.085.35-.62.825-1.1 1.425-1.44.61-.35 1.295-.525 2.055-.525.76 0 1.435.175 2.025.525.6.34 1.065.82 1.395 1.44.34.62.51 1.33.51 2.13zm-3.93-2.88c-.69 0-1.27.21-1.74.63-.46.42-.73.97-.81 1.65h5.1c-.08-.67-.355-1.215-.825-1.635-.46-.43-1.035-.645-1.725-.645z" fill="#879EC1"/><path d="M297.178 84.5a1 1 0 0 0 1.732 0l2.598-4.5a1 1 0 0 0-.866-1.5h-5.196a1 1 0 0 0-.866 1.5l2.598 4.5z" fill="#5A78A6"/></g><g clip-path="url(#l)"><path d="M495.322 491.499c113.771 0 206-92.229 206-206 0-113.77-92.229-206-206-206-113.77 0-206 92.23-206 206 0 113.771 92.23 206 206 206z" fill="#F1F1F1"/><path d="M496.544 209.84h160.9c10.747 22.978 16.745 48.615 16.745 75.659 0 98.787-80.081 178.868-178.867 178.868-3.956 0-7.884-.131-11.774-.382l-16.923-101.278" fill="#FCBD00"/><path d="M549.655 315.75c2.416-2.902 8.443 12.168 10.374 8.977.27-.448.541-.905.811-1.362l-77.292 140.618c-93.3-6.063-167.093-83.653-167.093-178.484 0-38.212 11.978-73.625 32.4-102.685l80.155 139.144" fill="#16A663"/><path d="m657.444 209.84-150.111 39.984-8.988-61.572 159.099 21.588z" fill="#FD9F37"/><path d="M657.444 209.84H496.479a79.94 79.94 0 0 0-3.629.027l-68.467 101.968a74.797 74.797 0 0 0 4.627 10.123l-5.196-9.021-74.959-130.124c32.354-46.076 85.893-76.181 146.467-76.181 71.741 0 133.622 42.242 162.122 103.208z" fill="#ED402D"/><path d="M495.322 356.405c39.16 0 70.906-31.746 70.906-70.906 0-39.16-31.746-70.906-70.906-70.906-39.16 0-70.906 31.746-70.906 70.906 0 39.16 31.746 70.906 70.906 70.906z" fill="#4192CF"/><path d="m483.549 463.985 24.125-117.449 52.355-21.807-76.48 139.256z" fill="#12945A"/><path d="m438.638 261.953-14.255 49.882-.569 1.101-74.959-130.123 89.783 79.14z" fill="#E1382A"/><path d="M495.322 361.624c-41.975 0-76.125-34.149-76.125-76.125 0-41.975 34.15-76.126 76.125-76.126s76.126 34.151 76.126 76.126c0 41.976-34.151 76.125-76.126 76.125zm0-136.055c-33.046 0-59.93 26.884-59.93 59.93s26.885 59.93 59.93 59.93c33.046 0 59.931-26.884 59.931-59.93-.001-33.046-26.885-59.93-59.931-59.93z" fill="#fff"/></g><defs><clipPath id="f"><path fill="#fff" transform="translate(190.795 543.848)" d="M0 0h29v29H0z"/></clipPath><clipPath id="l"><path fill="#fff" transform="translate(289.322 79.5)" d="M0 0h412v412H0z"/></clipPath><clipPath id="b"><path fill="#fff" transform="translate(40.195 543.848)" d="M0 0h29v29H0z"/></clipPath><clipPath id="c"><path fill="#fff" transform="translate(40.195 543.848)" d="M0 0h29v29H0z"/></clipPath><clipPath id="d"><path fill="#fff" transform="translate(90.395 543.848)" d="M0 0h29v29H0z"/></clipPath><clipPath id="e"><path fill="#fff" transform="translate(140.595 543.848)" d="M0 0h29v29H0z"/></clipPath><clipPath id="a"><rect width="360" height="597" rx="10" fill="#fff"/></clipPath><clipPath id="g"><path fill="#fff" transform="translate(240.995 543.848)" d="M0 0h29v29H0z"/></clipPath><clipPath id="h"><path fill="#fff" transform="translate(291.195 543.848)" d="M0 0h29v29H0z"/></clipPath><clipPath id="i"><path fill="#fff" transform="translate(85.5 161.151)" d="M0 0h18v19H0z"/></clipPath><clipPath id="k"><path fill="#fff" transform="translate(47.5 67)" d="M0 0h28v28H0z"/></clipPath><linearGradient id="j" x1="99.763" y1="176.329" x2="214.221" y2="371.331" gradientUnits="userSpaceOnUse"><stop offset=".395" stop-color="#FF3A3A"/><stop offset=".72" stop-color="#D64D12"/><stop offset=".75" stop-color="#87AB49"/></linearGradient></defs></svg>