<svg xmlns="http://www.w3.org/2000/svg" id="prefix___001-computer" width="38.199" height="38.199" data-name="001-computer" viewBox="0 0 38.199 38.199">
    <defs>
        <style>
            .prefix__cls-1{fill:#87AB49}
        </style>
    </defs>
    <path id="prefix__Path_48847" d="M48 160h2.464v1.232H48zm0 0" class="prefix__cls-1" data-name="Path 48847" transform="translate(-44.303 -147.678)"/>
    <path id="prefix__Path_48848" d="M36.35 9.858a1.851 1.851 0 0 0 1.85-1.849V1.848A1.851 1.851 0 0 0 36.35 0h-8.625a1.851 1.851 0 0 0-1.848 1.848v6.161a1.851 1.851 0 0 0 1.848 1.848h1.848v1.233h-1.232v1.232h3.081v6.161h-2.543a4.308 4.308 0 0 0-1.779-1.049v-.183a4.925 4.925 0 0 0-9.08-2.649 4.9 4.9 0 0 0-2.01-.432 4.956 4.956 0 0 0-4.606 3.179 4.283 4.283 0 0 0-1.3.517H5.545v-1.847h2.464a1.851 1.851 0 0 0 1.849-1.849V1.848A1.851 1.851 0 0 0 8.009 0H1.848A1.851 1.851 0 0 0 0 1.848V14.17a1.851 1.851 0 0 0 1.848 1.848h2.465V19.1H8.8a4.289 4.289 0 0 0-.6 1.232H5.545v6.777H3.081a1.851 1.851 0 0 0-1.848 1.848V34.5H0v1.85a1.851 1.851 0 0 0 1.848 1.85h9.858a1.851 1.851 0 0 0 1.848-1.848V34.5h-1.232v-5.543a1.851 1.851 0 0 0-1.848-1.848h-3.7v-5.545h1.235a4.318 4.318 0 0 0 4.313 4.313h13.554a4.316 4.316 0 0 0 4.263-3.7h2.514v4.929h-4.312V38.2H38.2V27.109h-4.314v-6.161h-3.749a4.264 4.264 0 0 0-.383-1.232h2.9v-7.394h3.081V11.09H34.5V9.858zm-27.725 0H1.232V3.7h7.393zM1.848 1.232h6.161a.617.617 0 0 1 .616.616v.616H1.232v-.616a.617.617 0 0 1 .616-.616zM1.232 14.17v-3.08h7.393v3.08a.617.617 0 0 1-.616.616H1.848a.617.617 0 0 1-.616-.616zm11.09 22.18a.617.617 0 0 1-.616.616H1.848a.617.617 0 0 1-.616-.616v-.616h11.09zm-1.232-7.393V34.5H2.464v-5.543a.617.617 0 0 1 .616-.616h7.393a.617.617 0 0 1 .617.616zm18.483 8.009v-3.7h7.393v3.7zm7.393-4.929h-7.393v-3.7h7.393zm-11.09-7.393H12.322a3.079 3.079 0 0 1-.37-6.136l.4-.049.114-.391a3.686 3.686 0 0 1 5.481-2.114l.588.363.293-.627a3.688 3.688 0 0 1 6.994 2.13l-.093.609.609.092a3.079 3.079 0 0 1-.467 6.122zm1.849-23.412h8.625a.617.617 0 0 1 .616.616v4.313h-9.857V1.848a.617.617 0 0 1 .616-.616zm-.616 6.777v-.616h9.858v.616a.617.617 0 0 1-.616.616h-8.626a.617.617 0 0 1-.616-.616zm6.161 3.081h-2.465V9.858h2.465zm0 0" class="prefix__cls-1" data-name="Path 48848"/>
    <path id="prefix__Path_48849" d="M400 384h1.232v1.232H400zm0 0" class="prefix__cls-1" data-name="Path 48849" transform="translate(-369.195 -354.427)"/>
    <path id="prefix__Path_48850" d="M448 448h1.232v1.232H448zm0 0" class="prefix__cls-1" data-name="Path 48850" transform="translate(-413.498 -413.498)"/>
    <path id="prefix__Path_48851" d="M432 384h2.464v1.232H432zm0 0" class="prefix__cls-1" data-name="Path 48851" transform="translate(-398.73 -354.427)"/>
    <path id="prefix__Path_48852" d="M400 448h2.464v1.232H400zm0 0" class="prefix__cls-1" data-name="Path 48852" transform="translate(-369.195 -413.498)"/>
</svg>
