<svg xmlns="http://www.w3.org/2000/svg" width="57" height="45.999" viewBox="0 0 57 45.999">
    <defs>
        <style>
            .cls-1{fill:#ffffff}.cls-2{fill:#87AB49}
        </style>
    </defs>
    <g id="_001-devices" data-name="001-devices" transform="translate(0 -55.467)">
        <g id="Group_7926" data-name="Group 7926" transform="translate(0 55.467)">
            <rect id="Rectangle_9797" width="34" height="25" class="cls-1" data-name="Rectangle 9797" rx="5" transform="translate(13 4.999)"/>
            <rect id="Rectangle_9798" width="19" height="25" class="cls-1" data-name="Rectangle 9798" rx="5" transform="translate(38 20.999)"/>
            <path id="Path_50175" d="M52.246 76.586h-6.335V60.058a4.6 4.6 0 0 0-4.591-4.591H13.773a4.6 4.6 0 0 0-4.591 4.591v5.509H4.145A4.149 4.149 0 0 0 0 69.712v24.766a4.149 4.149 0 0 0 4.145 4.145H18.81a4.138 4.138 0 0 0 3.89-2.755h15.865a.918.918 0 0 0 .918-.918v-1.836a2.755 2.755 0 0 0-2.755-2.755h-2.754v-3.673h7.346v9.09a2.846 2.846 0 0 0 2.846 2.846h8.08a2.846 2.846 0 0 0 2.846-2.846V79.432a2.846 2.846 0 0 0-2.846-2.846zM21.119 94.478a2.31 2.31 0 0 1-2.308 2.308H4.145a2.31 2.31 0 0 1-2.308-2.308v-.446h19.282v.446zm0-2.283H1.836v-20.2h19.283zm0-22.037H1.836v-.446A2.31 2.31 0 0 1 4.145 67.4h14.666a2.31 2.31 0 0 1 2.308 2.308v.446zM36.729 92.2a.918.918 0 0 1 .918.918v.918H22.955V92.2zm-13.774-1.841v-3.673h9.182v3.673zM41.32 84.85H22.955V82.1H41.32zm0-5.417v.826H22.955V69.712a4.149 4.149 0 0 0-4.145-4.145h-7.791v-5.509a2.755 2.755 0 0 1 2.754-2.758H41.32a2.755 2.755 0 0 1 2.755 2.755V76.6a2.846 2.846 0 0 0-2.755 2.832zm11.936 16.344a1.01 1.01 0 0 1-1.01 1.01h-8.08a1.01 1.01 0 0 1-1.01-1.01v-.827h10.1zm0-2.663h-10.1V82.1h10.1zm0-12.855h-10.1v-.826a1.01 1.01 0 0 1 1.01-1.01h8.08a1.01 1.01 0 0 1 1.01 1.01z" class="cls-2" data-name="Path 50175" transform="translate(0 -55.467)"/>
        </g>
    </g>
</svg>
