<svg width="219" height="170" viewBox="0 0 219 170" fill="none" xmlns="http://www.w3.org/2000/svg">
<path d="M212.927 0.252075H5.00215C2.25282 0.252075 0.0240479 2.48704 0.0240479 5.24402V165.008C0.0240479 167.765 2.25282 170 5.00215 170H212.927C215.677 170 217.905 167.765 217.905 165.008V5.24402C217.905 2.48704 215.677 0.252075 212.927 0.252075Z" fill="#F1F4FB"/>
<path d="M21.2197 146.607C26.3274 146.607 30.4681 142.454 30.4681 137.332C30.4681 132.209 26.3274 128.057 21.2197 128.057C16.112 128.057 11.9714 132.209 11.9714 137.332C11.9714 142.454 16.112 146.607 21.2197 146.607Z" fill="#F0F0F0"/>
<path d="M29.8927 140.558C30.6597 138.476 30.6597 136.188 29.8927 134.106H12.547C11.7799 136.188 11.7799 138.476 12.547 140.558L21.2208 141.365L29.8927 140.558Z" fill="#0052B4"/>
<path d="M21.2206 146.606C23.1093 146.606 24.9527 146.026 26.5032 144.945C28.0538 143.863 29.2372 142.332 29.8944 140.556H12.5468C13.204 142.332 14.3874 143.863 15.938 144.945C17.4885 146.026 19.3319 146.606 21.2206 146.606Z" fill="#D80027"/>
<path d="M21.2207 46.7679C26.329 46.7679 30.47 42.6154 30.47 37.4929C30.47 32.3705 26.329 28.2179 21.2207 28.2179C16.1125 28.2179 11.9714 32.3705 11.9714 37.4929C11.9714 42.6154 16.1125 46.7679 21.2207 46.7679Z" fill="#F0F0F0"/>
<path d="M13.8832 31.8459C13.1462 32.8067 12.6049 33.9035 12.2902 35.0737H17.102L13.8832 31.8459Z" fill="#0052B4"/>
<path d="M30.1514 35.0737C29.8367 33.9035 29.2954 32.8067 28.5584 31.8459L25.3396 35.0737H30.1514Z" fill="#0052B4"/>
<path d="M12.2902 39.913C12.605 41.0832 13.1462 42.18 13.8832 43.1408L17.101 39.913H12.2902Z" fill="#0052B4"/>
<path d="M26.8531 30.1348C25.895 29.3958 24.8013 28.853 23.6343 28.5374V33.3626L26.8531 30.1348Z" fill="#0052B4"/>
<path d="M15.5896 44.85C16.5477 45.589 17.6414 46.1318 18.8084 46.4474V41.6222L15.5896 44.85Z" fill="#0052B4"/>
<path d="M18.8083 28.5374C17.6413 28.853 16.5476 29.3958 15.5895 30.1348L18.8083 33.3626V28.5374Z" fill="#0052B4"/>
<path d="M23.6343 46.4485C24.8013 46.1328 25.895 45.59 26.8531 44.8511L23.6343 41.6233V46.4485Z" fill="#0052B4"/>
<path d="M25.3396 39.913L28.5584 43.1408C29.2954 42.18 29.8367 41.0832 30.1514 39.913H25.3396Z" fill="#0052B4"/>
<path d="M30.3904 36.2828H22.4254V28.2957C21.6243 28.191 20.8131 28.191 20.012 28.2957V36.2828H12.0471C11.9426 37.0861 11.9426 37.8996 12.0471 38.7029H20.012V46.69C20.8131 46.7947 21.6243 46.7947 22.4254 46.69V38.7029H30.3904C30.4948 37.8996 30.4948 37.0861 30.3904 36.2828Z" fill="#D80027"/>
<path d="M23.634 39.9129L27.7619 44.0522C27.9517 43.8619 28.1329 43.6622 28.3055 43.4532L24.772 39.9099L23.634 39.9129Z" fill="#D80027"/>
<path d="M18.8084 39.913L14.6805 44.0523C14.8704 44.2426 15.0695 44.4244 15.2779 44.5974L18.8114 41.0541L18.8084 39.913Z" fill="#D80027"/>
<path d="M18.8084 35.0738L14.6806 30.9344C14.4907 31.1248 14.3095 31.3245 14.137 31.5335L17.6704 35.0768H18.8074L18.8084 35.0738Z" fill="#D80027"/>
<path d="M23.6341 35.0737L27.7619 30.9344C27.5721 30.744 27.373 30.5623 27.1646 30.3893L23.6311 33.9326L23.6341 35.0737Z" fill="#D80027"/>
<path d="M21.2188 78.7163C26.3259 78.7163 30.4661 74.5637 30.4661 69.4413C30.4661 64.3188 26.3259 60.1663 21.2188 60.1663C16.1116 60.1663 11.9714 64.3188 11.9714 69.4413C11.9714 74.5637 16.1116 78.7163 21.2188 78.7163Z" fill="#F0F0F0"/>
<path d="M20.8164 69.4424H30.466C30.4664 68.6252 30.3593 67.8115 30.1474 67.0223H20.8164V69.4424Z" fill="#D80027"/>
<path d="M20.8165 64.6032H29.11C28.5447 63.6782 27.8227 62.8592 26.9764 62.1831H20.8165V64.6032Z" fill="#D80027"/>
<path d="M21.2178 78.7174C23.3095 78.7205 25.3398 78.0092 26.9745 76.7007H15.4622C17.0966 78.009 19.1265 78.7203 21.2178 78.7174Z" fill="#D80027"/>
<path d="M13.3286 74.2815H29.1082C29.5681 73.5288 29.9178 72.7138 30.1466 71.8615H12.2902C12.519 72.7138 12.8687 73.5288 13.3286 74.2815Z" fill="#D80027"/>
<path d="M16.2526 61.6149H17.0949L16.3113 62.186L16.61 63.1105L15.8265 62.5394L15.0429 63.1105L15.3018 62.3118C14.6108 62.8896 14.0072 63.5649 13.5097 64.3166H13.7795L13.2817 64.68C13.204 64.8131 13.1293 64.9462 13.0577 65.0793L13.2956 65.8152L12.8516 65.4877C12.7414 65.7226 12.6418 65.9626 12.5529 66.2075L12.8157 67.0182H13.7845L13.0009 67.5893L13.2996 68.5138L12.5121 67.9427L12.0421 68.2852C11.9948 68.6687 11.9712 69.0548 11.9714 69.4413H21.2188V60.1663C19.4593 60.1631 17.7358 60.6659 16.2526 61.6149ZM16.611 68.5138L15.8275 67.9427L15.0439 68.5138L15.3426 67.5893L14.56 67.0182H15.5288L15.8275 66.0937L16.1262 67.0182H17.0949L16.3113 67.5893L16.611 68.5138ZM16.3123 64.8877L16.611 65.8122L15.8275 65.2411L15.0439 65.8122L15.3426 64.8877L14.56 64.3166H15.5288L15.8275 63.3921L16.1262 64.3166H17.0949L16.3123 64.8877ZM19.9304 68.5138L19.1469 67.9427L18.3633 68.5138L18.662 67.5893L17.8784 67.0182H18.8472L19.1459 66.0937L19.4446 67.0182H20.4143L19.6307 67.5893L19.9304 68.5138ZM19.6317 64.8877L19.9304 65.8122L19.1469 65.2411L18.3633 65.8122L18.662 64.8877L17.8784 64.3166H18.8472L19.1459 63.3921L19.4446 64.3166H20.4143L19.6317 64.8877ZM19.6317 62.186L19.9304 63.1105L19.1469 62.5394L18.3633 63.1105L18.662 62.186L17.8784 61.6149H18.8472L19.1459 60.6904L19.4446 61.6149H20.4143L19.6317 62.186Z" fill="#0052B4"/>
<path d="M12.5468 106.613C13.2043 108.389 14.3879 109.92 15.9385 111.001C17.4891 112.082 19.3325 112.662 21.2211 112.662C23.1097 112.662 24.9531 112.082 26.5037 111.001C28.0543 109.92 29.2379 108.389 29.8954 106.613L21.2206 105.807L12.5468 106.613Z" fill="#FFDA44"/>
<path d="M21.2216 94.1115C19.3328 94.1114 17.4892 94.691 15.9385 95.7724C14.3878 96.8537 13.2042 98.3851 12.5468 100.161L21.2216 100.967L29.8964 100.161C29.239 98.3851 28.0554 96.8537 26.5047 95.7724C24.954 94.691 23.1104 94.1114 21.2216 94.1115Z" fill="black"/>
<path d="M12.5468 100.161C11.7796 102.243 11.7796 104.531 12.5468 106.613H29.8925C30.6596 104.531 30.6596 102.243 29.8925 100.161H12.5468Z" fill="#D80027"/>
<path d="M69.1958 35.2065H39.4735C38.0851 35.2065 36.9596 36.3352 36.9596 37.7275C36.9596 39.1197 38.0851 40.2484 39.4735 40.2484H69.1958C70.5842 40.2484 71.7097 39.1197 71.7097 37.7275C71.7097 36.3352 70.5842 35.2065 69.1958 35.2065Z" fill="#D7DEED"/>
<path d="M69.1958 67.155H39.4735C38.0851 67.155 36.9596 68.2837 36.9596 69.676C36.9596 71.0682 38.0851 72.1969 39.4735 72.1969H69.1958C70.5842 72.1969 71.7097 71.0682 71.7097 69.676C71.7097 68.2837 70.5842 67.155 69.1958 67.155Z" fill="#D7DEED"/>
<path d="M69.1958 100.102H39.4735C38.0851 100.102 36.9596 101.23 36.9596 102.623C36.9596 104.015 38.0851 105.144 39.4735 105.144H69.1958C70.5842 105.144 71.7097 104.015 71.7097 102.623C71.7097 101.23 70.5842 100.102 69.1958 100.102Z" fill="#D7DEED"/>
<path d="M69.1958 135.045H39.4735C38.0851 135.045 36.9596 136.174 36.9596 137.566C36.9596 138.959 38.0851 140.087 39.4735 140.087H69.1958C70.5842 140.087 71.7097 138.959 71.7097 137.566C71.7097 136.174 70.5842 135.045 69.1958 135.045Z" fill="#D7DEED"/>
<path opacity="0.102" d="M155.341 98.1051C172.936 98.1051 187.2 83.8013 187.2 66.1567C187.2 48.512 172.936 34.2083 155.341 34.2083C137.745 34.2083 123.481 48.512 123.481 66.1567C123.481 83.8013 137.745 98.1051 155.341 98.1051Z" fill="white"/>
<path opacity="0.102" d="M155.341 114.079C181.734 114.079 203.13 92.6236 203.13 66.1566C203.13 39.6897 181.734 18.234 155.341 18.234C128.947 18.234 107.551 39.6897 107.551 66.1566C107.551 92.6236 128.947 114.079 155.341 114.079Z" fill="white"/>
<path d="M155.654 44.1921L155.561 44.2011C149.044 44.8826 142.804 47.2041 137.42 50.9502C137.886 81.2443 153.672 86.7924 155.561 87.3435L155.654 87.3704C157.019 86.994 173.414 81.8314 173.887 50.9502C168.478 47.1854 162.204 44.86 155.654 44.1921ZM159.163 73.2832C159.18 73.5103 159.151 73.7385 159.078 73.954C159.004 74.1696 158.888 74.3679 158.736 74.5372C158.62 74.6732 158.477 74.7831 158.316 74.8596C158.155 74.9362 157.98 74.9777 157.801 74.9814H153.39C153.212 74.9776 153.036 74.936 152.875 74.8595C152.714 74.7829 152.571 74.6731 152.456 74.5372C152.304 74.368 152.187 74.1696 152.114 73.9541C152.041 73.7385 152.012 73.5103 152.029 73.2832L152.871 64.683C152.133 64.1145 151.591 63.3293 151.32 62.4369C151.049 61.5446 151.062 60.5896 151.358 59.7052C151.654 58.8207 152.218 58.051 152.971 57.5034C153.724 56.9557 154.629 56.6574 155.559 56.65H155.592C156.777 56.6527 157.912 57.1258 158.75 57.9659C159.588 58.806 160.06 59.9447 160.062 61.1328C160.064 61.8354 159.908 62.5294 159.606 63.1634C159.304 63.7973 158.863 64.3549 158.317 64.7949L159.163 73.2832Z" fill="#B3E14A"/>
<path d="M115.516 128.057H192.079C193.928 128.057 195.7 128.793 197.007 130.104C198.314 131.414 199.048 133.192 199.048 135.045V144.597C199.048 146.45 198.314 148.228 197.007 149.539C195.7 150.849 193.928 151.586 192.079 151.586H115.516C113.668 151.586 111.895 150.849 110.588 149.539C109.281 148.228 108.547 146.45 108.547 144.597V135.045C108.547 133.192 109.281 131.414 110.588 130.104C111.895 128.793 113.668 128.057 115.516 128.057V128.057Z" fill="#9BD417"/>
<path d="M145.167 139.985C145.517 139.073 146.184 138.319 147.046 137.863C147.907 137.407 148.905 137.28 149.853 137.505C151.867 135.434 154.586 134.199 157.467 134.047C157.511 134.044 157.554 134.051 157.595 134.067C157.636 134.082 157.673 134.106 157.703 134.137C157.734 134.168 157.758 134.205 157.773 134.246C157.789 134.286 157.796 134.33 157.793 134.374C157.636 137.249 156.431 139.966 154.408 142.009C154.611 142.959 154.475 143.949 154.023 144.808C153.572 145.667 152.833 146.339 151.938 146.708C152.275 145.809 152.32 144.827 152.066 143.901C151.755 144.1 151.428 144.275 151.089 144.423C151.027 144.46 150.954 144.474 150.882 144.462C150.811 144.451 150.746 144.414 150.699 144.358L147.445 141.096C147.413 141.047 147.396 140.991 147.396 140.932C147.396 140.874 147.413 140.817 147.445 140.769C147.58 140.444 147.755 140.137 147.966 139.856C147.043 139.602 146.063 139.647 145.167 139.985V139.985Z" fill="#102154"/>
<path d="M83.656 0H213.024C215.786 0 218.024 2.23858 218.024 5V165C218.024 167.761 215.786 170 213.024 170H83.656V0Z" fill="white"/>
<path d="M110.581 67.0585C110.581 45.2784 128.237 27.6222 150.017 27.6222H151.79C173.57 27.6222 191.226 45.2784 191.226 67.0585C191.226 88.8386 173.57 106.495 151.79 106.495H150.017C128.237 106.495 110.581 88.8386 110.581 67.0585Z" fill="white"/>
<ellipse cx="150.904" cy="67.0585" rx="27.4849" ry="26.8808" fill="url(#paint0_linear_6215_77270)"/>
<path fill-rule="evenodd" clip-rule="evenodd" d="M119.905 76.59C120.374 76.0239 121.257 76.1109 121.63 76.7449C121.876 77.164 121.81 77.6942 121.485 78.0547C119.629 80.1074 118.829 81.7046 119.364 82.6157C121.087 85.5497 135.995 80.2575 152.662 70.7951C153.239 70.4675 153.811 70.1392 154.377 69.8105C154.569 69.699 154.68 69.4892 154.68 69.2672C154.68 65.5 157.802 62.4462 161.654 62.4462C163.722 62.4462 165.956 62.506 167.638 61.3013C175.936 55.355 180.863 50.2923 179.722 48.3494C179.208 47.4746 177.523 47.3312 174.968 47.8114C174.525 47.8947 174.072 47.6998 173.844 47.311C173.478 46.6877 173.844 45.8901 174.559 45.7875C179.554 45.0714 183.097 45.6672 184.338 47.7815C186.662 51.7399 180.265 59.907 169.13 68.2106C168.801 68.4559 168.628 68.8568 168.628 69.2672C168.628 73.0343 165.506 76.0882 161.654 76.0882C161.457 76.0882 161.262 76.0802 161.069 76.0645C159.358 75.9255 157.54 75.8561 156.046 76.7038C137.293 87.3502 119.556 91.6625 116.428 86.3355C115.142 84.1455 116.526 80.6671 119.905 76.59Z" fill="#D7DEED"/>
<ellipse cx="161.654" cy="69.2672" rx="3.48714" ry="3.4105" fill="#70AF09"/>
<g opacity="0.32">
<path d="M136.819 57.8652C135.127 61.9501 135.661 66.2578 133.586 65.436C131.512 64.6142 131.201 60.6366 132.893 56.5517C134.584 52.4668 137.637 49.8215 139.712 50.6433C141.787 51.4651 138.51 53.7803 136.819 57.8652Z" fill="#E5E5E5"/>
<path d="M135.517 69.4941C135.668 70.8393 135.031 72.0114 134.094 72.1121C133.157 72.2127 132.276 71.2038 132.125 69.8586C131.973 68.5134 132.61 67.3414 133.547 67.2407C134.484 67.14 135.365 68.1489 135.517 69.4941Z" fill="#E5E5E5"/>
</g>
<path d="M142.789 87.5369C141.834 86.9972 142.292 86.0927 144.611 85.3407C149.503 84.2906 148.678 86.4135 155.717 85.5967C162.756 84.78 166.467 81.9419 168.336 80.0749C169.831 78.5814 171.213 76.5602 171.147 77.2733C170.829 78.7902 168.26 82.7886 160.529 86.6469C150.865 91.4698 144.253 88.3644 142.789 87.5369Z" fill="#080F1B" fill-opacity="0.11"/>
<path d="M173.834 52.1973C174.754 51.601 175.009 50.3607 174.333 49.4977C170.138 44.1443 164.142 40.378 157.372 38.8908C149.941 37.2584 142.152 38.4985 135.634 42.3519C129.116 46.2052 124.373 52.3736 122.397 59.5675C120.59 66.143 121.223 73.1102 124.145 79.2457C124.604 80.21 125.783 80.5487 126.724 80.0434C127.69 79.5245 128.035 78.3161 127.577 77.3196C125.165 72.0765 124.666 66.1586 126.202 60.5674C127.914 54.3339 132.024 48.989 137.672 45.65C143.32 42.311 150.07 41.2365 156.509 42.651C162.313 43.926 167.461 47.1345 171.09 51.6955C171.753 52.529 172.94 52.7766 173.834 52.1973Z" fill="#D7DEED"/>
<path d="M134.079 88.3735C133.41 89.2205 133.574 90.4537 134.49 91.0531C138.71 93.8144 143.597 95.4708 148.682 95.8461C154.434 96.2706 160.187 95.0376 165.231 92.2994C170.274 89.5613 174.386 85.4379 177.06 80.4389C179.424 76.0192 180.571 71.0863 180.406 66.1232C180.371 65.0461 179.386 64.2584 178.297 64.3654C177.221 64.4712 176.449 65.4121 176.474 66.4768C176.575 70.7001 175.58 74.8909 173.568 78.6527C171.252 82.9844 167.688 86.5573 163.318 88.93C158.948 91.3027 153.963 92.3711 148.979 92.0032C144.651 91.6838 140.489 90.2937 136.877 87.9775C135.966 87.3929 134.74 87.5357 134.079 88.3735Z" fill="#D7DEED"/>
<rect x="119.691" y="132.865" width="66" height="17" rx="8.5" fill="#71B00A"/>
<path d="M130.339 141.365C130.339 139.978 131.463 138.854 132.85 138.854H172.532C173.919 138.854 175.043 139.978 175.043 141.365C175.043 142.752 173.919 143.876 172.532 143.876H132.85C131.463 143.876 130.339 142.752 130.339 141.365Z" fill="#56820E"/>
<defs>
<linearGradient id="paint0_linear_6215_77270" x1="121.756" y1="21.0857" x2="161.975" y2="91.1468" gradientUnits="userSpaceOnUse">
<stop offset="0.394669" stop-color="#E87D1B"/>
<stop offset="0.72037" stop-color="#D64D12"/>
<stop offset="0.749987" stop-color="#70AF09"/>
</linearGradient>
</defs>
</svg>
