<svg width="50" height="50" viewBox="0 0 50 50" fill="none" xmlns="http://www.w3.org/2000/svg">
<circle cx="25" cy="25" r="25" fill="#FFEBD5"/>
<path d="M27.9141 25.3437C26.3007 23.6109 24.7671 21.8183 23.4724 19.8266C22.5562 18.3925 21.7396 16.7792 20.7637 15.7833C19.8873 14.8671 19.3296 13.8911 19.0508 12.8953C17.0989 13.453 15.7445 13.931 13.9917 15.7634C1.7823 28.3512 19.469 47.7907 33.0528 35.0037C34.0486 34.0676 33.6901 32.9323 34.2876 31.9165C32.3955 29.7255 29.9058 27.4749 27.9141 25.3437Z" fill="#DE814B"/>
<path d="M33.0533 35.0037C20.4654 45.2213 2.93804 28.9886 13.9922 15.7434C14.1715 15.5443 14.3707 15.3252 14.5699 15.126C17.0994 12.6164 19.9077 11.4413 22.6564 11.262C22.9352 11.2421 23.1543 11.4612 23.1742 11.7201C23.2141 13.3533 24.2697 14.4488 25.8232 14.6679C26.0623 14.7077 26.2017 14.9268 26.1419 15.1658C25.9826 15.6837 25.9228 16.2414 25.9228 16.819C25.9826 19.7469 28.4125 22.1569 31.3404 22.1768C31.9379 22.1768 32.5155 22.0971 33.0732 21.9179C33.2923 21.8382 33.5313 21.9776 33.5711 22.2166C33.9297 24.1685 35.7023 23.81 36.5389 23.5312C36.7779 23.4515 37.0368 23.5909 37.0965 23.8299C38.7298 29.7853 33.0533 35.0037 33.0533 35.0037Z" fill="#F6B059"/>
<path d="M24.5079 22.4158C24.5079 23.8897 23.3128 24.8855 21.8389 24.8855C20.365 24.8855 19.17 23.8897 19.17 22.4158C19.17 20.9419 20.365 19.7468 21.8389 19.7468C23.3128 19.7468 24.5079 20.922 24.5079 22.4158Z" fill="#6D420D"/>
<path d="M32.8932 28.8493C32.8932 29.9846 31.977 30.9008 30.8417 30.9008C29.7064 30.9008 28.9296 30.2236 28.9296 29.0883C28.9296 27.953 29.7064 26.7778 30.8417 26.7778C31.977 26.7778 32.8932 27.714 32.8932 28.8493Z" fill="#6D420D"/>
<path d="M17.5574 26.3396C17.5574 27.216 16.92 27.7139 16.0436 27.7139C15.1673 27.7139 14.4104 27.216 14.4104 26.3396C14.4104 25.4632 15.1075 24.7661 15.9839 24.7661C16.8603 24.7661 17.5574 25.4632 17.5574 26.3396Z" fill="#6D420D"/>
<path d="M22.3764 31.6775C22.3764 32.0758 22.0577 32.3945 21.6594 32.3945C21.261 32.3945 20.9423 32.0758 20.9423 31.6775C20.9423 31.2791 21.261 30.9604 21.6594 30.9604C22.0577 30.9604 22.3764 31.2791 22.3764 31.6775Z" fill="#6D420D"/>
<path d="M17.5166 17.9144C17.9566 17.9144 18.3133 17.5577 18.3133 17.1177C18.3133 16.6777 17.9566 16.321 17.5166 16.321C17.0766 16.321 16.7199 16.6777 16.7199 17.1177C16.7199 17.5577 17.0766 17.9144 17.5166 17.9144Z" fill="#6D420D"/>
<path d="M31.9169 12.3374C31.9966 13.2935 31.16 14.0702 30.0447 14.0702C28.9293 14.0702 28.0728 13.2138 28.1326 12.1582C28.1923 11.1025 29.0289 10.3258 30.0048 10.4253C30.9808 10.5249 31.8372 11.3615 31.9169 12.3374Z" fill="#F6B059"/>
<path d="M30.4833 13.6917C30.9215 13.6917 31.3199 13.5722 31.6385 13.3531C31.2999 13.7913 30.7422 14.0702 30.0651 14.0702C28.9497 14.0702 28.0932 13.2137 28.153 12.178C28.1928 11.5406 28.5115 11.0029 28.9696 10.7041C28.7505 11.0029 28.5912 11.3813 28.5712 11.7996C28.5314 12.8154 29.3879 13.6718 30.4833 13.6917Z" fill="#DE814B"/>
<path d="M31.8174 17.7548C31.7776 18.3922 31.2398 18.93 30.6224 18.9897C30.0049 19.0295 29.507 18.5117 29.5269 17.8345C29.5269 17.1573 30.0647 16.5996 30.722 16.5996C31.3792 16.5996 31.8573 17.1175 31.8174 17.7548Z" fill="#F6B059"/>
<path d="M30.8605 18.7109C31.0995 18.691 31.3385 18.5914 31.5377 18.4519C31.3186 18.7507 30.98 18.9499 30.6016 18.9897C29.9841 19.0295 29.5061 18.5117 29.5061 17.8345C29.5061 17.4361 29.7053 17.0577 30.004 16.8386C29.8646 17.0378 29.765 17.2967 29.765 17.5557C29.7451 18.2328 30.2431 18.7507 30.8605 18.7109Z" fill="#DE814B"/>
<path d="M39.9638 18.2531C39.904 19.0099 39.2866 19.6473 38.5496 19.6871C37.8326 19.727 37.255 19.1294 37.255 18.3327C37.2749 17.536 37.8924 16.8987 38.6691 16.8987C39.4459 16.8987 40.0235 17.5161 39.9638 18.2531Z" fill="#F6B059"/>
<path d="M38.848 19.3885C39.1467 19.3686 39.4256 19.2491 39.6447 19.0698C39.3857 19.4283 38.9874 19.6673 38.5492 19.6872C37.8322 19.7271 37.2546 19.1295 37.2546 18.3328C37.2546 17.8548 37.4936 17.4366 37.8322 17.1577C37.6529 17.3967 37.5533 17.6955 37.5533 18.0142C37.5533 18.8308 38.1309 19.4283 38.848 19.3885Z" fill="#DE814B"/>
</svg>
