<svg width="79" height="31" viewBox="0 0 79 31" fill="none" xmlns="http://www.w3.org/2000/svg">
<g clip-path="url(#clip0_1202_4854)">
<path d="M30.343 19.0412C28.3396 27.077 20.2007 31.9674 12.1639 29.9635C4.13058 27.9602 -0.759843 19.8207 1.24439 11.7856C3.24687 3.74888 11.3858 -1.14191 19.4201 0.861448C27.4563 2.8648 32.3464 11.0052 30.3428 19.0413L30.343 19.0412H30.343Z" fill="#F7931A"/>
<path d="M22.4077 13.2755C22.7063 11.2793 21.1866 10.2063 19.1084 9.49053L19.7826 6.78654L18.1366 6.37639L17.4803 9.00918C17.0476 8.90125 16.6032 8.79953 16.1615 8.69875L16.8226 6.04857L15.1776 5.63843L14.5031 8.34156C14.145 8.26 13.7933 8.17943 13.452 8.09453L13.454 8.08604L11.1841 7.5192L10.7462 9.27725C10.7462 9.27725 11.9674 9.55715 11.9417 9.57437C12.6082 9.74072 12.7288 10.182 12.7087 10.5317L11.9408 13.6122C11.9867 13.6238 12.0463 13.6407 12.1119 13.6671C12.057 13.6535 11.9986 13.6386 11.9379 13.6241L10.8615 17.9394C10.7801 18.1419 10.5733 18.4458 10.1073 18.3304C10.1238 18.3543 8.91096 18.0319 8.91096 18.0319L8.09375 19.916L10.2358 20.45C10.6343 20.5499 11.0247 20.6545 11.4093 20.7528L10.7282 23.4878L12.3723 23.8979L13.0468 21.1919C13.496 21.3139 13.9319 21.4264 14.3585 21.5324L13.6863 24.2256L15.3324 24.6357L16.0134 21.9058C18.8202 22.437 20.9307 22.2229 21.819 19.6841C22.5348 17.6402 21.7834 16.4612 20.3067 15.6924C21.3822 15.4444 22.1923 14.737 22.4083 13.2757L22.4079 13.2754L22.4077 13.2755ZM18.647 18.549C18.1384 20.593 14.6969 19.4881 13.5812 19.211L14.485 15.5876C15.6007 15.8662 19.1787 16.4174 18.6471 18.549H18.647ZM19.1561 13.2459C18.6921 15.1051 15.8277 14.1606 14.8985 13.9289L15.718 10.6427C16.6472 10.8743 19.6395 11.3066 19.1562 13.2459H19.1561Z" fill="white"/>
</g>
<rect x="16.7935" y="0.412598" width="30" height="30" rx="15" fill="#328332"/>
<g clip-path="url(#clip1_1202_4854)">
<path d="M25.231 16.3486C27.5332 17.5729 29.9356 18.8544 31.791 19.8461L38.2974 16.3486C35.9415 19.8532 33.9786 22.7708 31.791 25.9998C29.5995 22.778 27.1793 19.2228 25.231 16.3486ZM25.4812 15.3819L31.7981 12.0065L38.0328 15.3572L31.8017 18.7363L25.4812 15.3819ZM31.791 10.9251L25.231 14.3832L31.7624 4.80713L38.2974 14.4047L31.791 10.9251Z" fill="white"/>
<path d="M31.791 19.8461L38.2973 16.3486C35.9415 19.8532 31.791 25.9998 31.791 25.9998V19.8461ZM31.7981 12.0065L38.0328 15.3572L31.8016 18.7363L31.7981 12.0065ZM31.791 10.9253L31.7623 4.80713L38.2973 14.4047L31.791 10.9253Z" fill="#CCE2CC"/>
<path opacity="0.5" d="M25.4812 15.3819L31.7985 15.9011L38.0332 15.3605L31.8017 18.7398L25.4812 15.3819Z" fill="#5ABF5A"/>
<path opacity="0.5" d="M31.7981 15.9011L38.0328 15.3605L31.8016 18.7398L31.7981 15.9011Z" fill="#5ABF5A"/>
</g>
<rect x="32.7935" y="0.412598" width="30" height="30" rx="15" fill="#008DE4"/>
<g clip-path="url(#clip2_1202_4854)">
<path d="M50.5674 8.67432H44.1077L43.572 11.6692L49.4027 11.6761C52.2748 11.6761 53.1216 12.7205 53.0974 14.4496C53.0836 15.3349 52.6999 16.8358 52.534 17.3235C52.0917 18.6203 51.1826 20.097 47.7748 20.0935L42.1065 20.0901L41.5725 23.0884H48.0184C50.2927 23.0884 51.2569 22.8221 52.2835 22.3518C54.5542 21.297 55.9056 19.056 56.4483 16.1304C57.2519 11.7729 56.2495 8.67432 50.5674 8.67432Z" fill="white"/>
<path d="M41.3203 14.377C39.6267 14.377 39.3847 15.4802 39.2258 16.1477C39.0149 17.0192 38.9458 17.3753 38.9458 17.3753H45.5611C47.2547 17.3753 47.4966 16.2722 47.6556 15.6047C47.8664 14.7332 47.9356 14.377 47.9356 14.377H41.3203Z" fill="white"/>
</g>
<g clip-path="url(#clip3_1202_4854)">
<path d="M63.7935 30.4126C72.0777 30.4126 78.7935 23.6969 78.7935 15.4126C78.7935 7.12832 72.0777 0.412598 63.7935 0.412598C55.5092 0.412598 48.7935 7.12832 48.7935 15.4126C48.7935 23.6969 55.5092 30.4126 63.7935 30.4126Z" fill="#0AC18E"/>
<path d="M68.4723 10.3758C67.7185 8.66641 65.9863 8.30096 63.8658 8.65504L63.1843 6.01288L61.5777 6.42783L62.2477 9.06238C61.8251 9.16897 61.3911 9.26031 60.9609 9.38219L60.2908 6.76287L58.6843 7.17783L59.3658 9.82C59.0193 9.91897 56.1221 10.6613 56.1221 10.6613L56.5637 12.3822C56.5637 12.3822 57.7439 12.051 57.7325 12.0776C58.3873 11.9063 58.6957 12.2337 58.8404 12.5421L60.7135 19.7832C60.7363 19.9926 60.6982 20.3505 60.249 20.4723C60.2756 20.4875 59.0802 20.773 59.0802 20.773L59.2553 22.7794C59.2553 22.7794 62.1259 22.0446 62.5028 21.9494L63.1919 24.622L64.7985 24.2071L64.1094 21.5154C64.551 21.4126 64.9812 21.306 65.4 21.1956L66.0853 23.872L67.6919 23.4571L67.0028 20.7883C69.4774 20.1868 71.2248 18.6258 70.867 16.2388C70.6386 14.7997 69.0663 13.6195 67.7604 13.4862C68.5637 12.7743 68.9711 11.735 68.4723 10.3758ZM67.6995 16.6766C68.0193 19.0408 64.7338 19.3301 63.6487 19.6156L62.7046 16.0789C63.7934 15.7933 67.1589 14.5941 67.6995 16.6766ZM65.7198 11.8606C66.0586 13.9621 63.249 14.2057 62.3429 14.438L61.4825 11.2286C62.3924 11.004 65.0307 9.91516 65.7198 11.8606Z" fill="white"/>
</g>
<defs>
<clipPath id="clip0_1202_4854">
<rect width="30" height="30" fill="white" transform="translate(0.793457 0.412598)"/>
</clipPath>
<clipPath id="clip1_1202_4854">
<rect width="13.0664" height="21.2109" fill="white" transform="translate(25.231 4.80713)"/>
</clipPath>
<clipPath id="clip2_1202_4854">
<rect width="17.7539" height="14.4141" fill="white" transform="translate(38.9458 8.67432)"/>
</clipPath>
<clipPath id="clip3_1202_4854">
<rect width="30" height="30" fill="white" transform="translate(48.7935 0.412598)"/>
</clipPath>
</defs>
</svg>
