<svg width="512" height="512" viewBox="0 0 512 512" fill="none" xmlns="http://www.w3.org/2000/svg">
<path d="M26.6797 64.8209V215.347H512V64.8209C512 60.1529 508.215 56.3679 503.547 56.3679H35.1327C30.4647 56.3679 26.6797 60.1529 26.6797 64.8209Z" fill="#F5F5F5"/>
<path d="M512 215.347H26.6797V294.838H512V215.347Z" fill="#F5F5F5"/>
<path d="M35.1327 374.337H503.547C508.216 374.337 512 370.552 512 365.884V294.845H26.6797V365.884C26.6797 370.552 30.4647 374.337 35.1327 374.337Z" fill="#F5F5F5"/>
<path d="M19.152 488.46C8.575 488.46 0 479.884 0 469.307V42.534C0 32.044 8.504 23.54 18.994 23.54H19.151C29.728 23.54 38.303 32.115 38.303 42.692V469.31C38.303 479.884 29.728 488.46 19.152 488.46Z" fill="#2E3033"/>
<path d="M171.83 197.099C169.047 194.412 165.952 190.702 164.752 189.182C162.593 189.182 165.472 201.178 165.832 203.937C166.192 206.696 164.752 216.413 164.752 219.052C164.752 221.691 168.711 220.132 170.51 223.131C172.309 226.13 171.83 226.25 177.228 236.207C182.626 246.163 206.258 244.124 206.858 243.644C207.458 243.164 221.013 241.365 222.813 244.964C224.612 248.562 233.729 256 234.449 256C235.169 256 236.008 250.482 236.128 244.964C236.248 239.445 241.646 241.965 246.805 238.486C251.963 235.007 254.002 239.565 270.437 233.927C286.872 228.289 291.91 230.328 296.228 215.213C300.547 200.098 304.866 202.138 305.585 201.778C306.305 201.418 316.622 205.617 318.541 205.617C320.46 205.617 322.74 203.337 328.858 206.576C334.976 209.815 342.293 206.936 343.253 205.617C344.213 204.297 332.936 192.541 325.019 178.746C317.102 164.95 324.179 170.108 334.256 164.83C344.332 159.552 343.013 161.711 346.852 154.873C350.69 148.036 354.049 147.436 360.527 144.557C365.709 142.254 384.439 123.844 393.156 114.927C383.4 118.726 361.247 128.002 350.69 134.72C337.495 143.117 340.854 140.358 328.138 150.555C315.422 160.752 307.385 155.953 296.468 159.312C285.552 162.671 261.44 161.232 245.605 159.312C229.77 157.393 233.369 152.474 230.97 157.393C229.051 161.327 223.932 177.666 221.613 185.343C214.456 181.465 198.245 176.034 190.663 185.343C181.187 196.98 175.308 200.458 171.83 197.099Z" fill="#FFC850"/>
<path fill-rule="evenodd" clip-rule="evenodd" d="M204.526 261.719C208.248 264.515 214.727 272.562 210.859 282.377C210.514 281.964 210.152 281.542 209.78 281.11C207.168 278.072 204.088 274.49 203.427 269.539C202.993 266.293 203.915 262.353 204.526 261.719ZM187.637 265.191C192.27 265.659 201.976 269.196 203.742 279.597C203.233 279.422 202.704 279.248 202.162 279.07C198.356 277.821 193.868 276.348 190.741 272.452C188.691 269.899 187.442 266.05 187.637 265.191ZM220.956 287.889C224.179 279.711 218.78 273.005 215.678 270.674C215.169 271.203 214.401 274.486 214.763 277.191C215.314 281.317 217.88 284.302 220.056 286.833L220.056 286.833L220.056 286.833L220.056 286.833L220.056 286.833L220.056 286.833L220.056 286.833L220.056 286.833L220.057 286.833L220.057 286.833C220.367 287.194 220.669 287.545 220.956 287.889ZM226.715 277.784C229.611 280.367 234.428 287.501 230.532 295.381C230.274 295.014 230.003 294.639 229.724 294.253L229.724 294.253C227.767 291.548 225.46 288.359 225.256 284.201C225.123 281.476 226.163 278.268 226.715 277.784ZM241.657 300.179C244.74 291.947 239.228 285.334 236.087 283.057C235.586 283.594 234.875 286.89 235.282 289.589C235.904 293.705 238.521 296.645 240.74 299.139C241.056 299.494 241.364 299.84 241.657 300.179ZM247.704 285.751C250.845 288.028 256.357 294.641 253.275 302.873C252.981 302.534 252.673 302.188 252.357 301.833C250.138 299.339 247.521 296.398 246.899 292.282C246.492 289.584 247.204 286.288 247.704 285.751ZM250.482 309.862C242.087 307.252 235.799 313.132 233.704 316.398C234.268 316.867 237.6 317.389 240.27 316.829C244.344 315.974 247.131 313.195 249.495 310.837L249.495 310.837C249.831 310.501 250.16 310.174 250.482 309.862ZM223.36 310.124C225.926 307.214 233.034 302.357 240.936 306.21C240.57 306.469 240.197 306.743 239.814 307.023L239.813 307.024L239.813 307.024L239.812 307.024L239.812 307.024C237.118 308.996 233.942 311.321 229.785 311.547C227.061 311.696 223.847 310.673 223.36 310.124ZM251.824 305.831L252.035 305.867C251.93 305.843 251.859 305.831 251.824 305.831ZM252.035 305.867C256.692 306.661 266.578 308.548 270.537 310.037C274.557 311.548 277.558 313.447 278.556 314.207C270.357 311.546 254.174 306.348 252.035 305.867ZM211.836 303.683C214.402 300.773 221.51 295.915 229.411 299.769C229.046 300.028 228.672 300.301 228.288 300.582L228.288 300.583L228.288 300.583C225.594 302.554 222.417 304.879 218.261 305.106C215.536 305.254 212.323 304.232 211.836 303.683ZM218.31 294.888C211.388 289.469 203.423 292.734 200.305 295.043C200.667 295.682 203.596 297.353 206.291 297.777C210.403 298.424 213.995 296.815 217.042 295.449C217.476 295.255 217.899 295.065 218.31 294.888ZM190.335 283.791C194.516 282.055 204.454 280.605 210.762 288.691C210.246 288.776 209.714 288.871 209.168 288.969C205.334 289.656 200.814 290.465 196.341 288.574C193.409 287.334 190.565 284.616 190.335 283.791Z" fill="#8BBC2D"/>
<path fill-rule="evenodd" clip-rule="evenodd" d="M328.629 261.719C324.907 264.515 318.429 272.562 322.296 282.377C322.641 281.964 323.004 281.542 323.376 281.11C325.988 278.072 329.067 274.49 329.728 269.539C330.162 266.293 329.241 262.353 328.629 261.719ZM345.518 265.191C340.886 265.659 331.179 269.196 329.414 279.597C329.922 279.422 330.451 279.248 330.993 279.07C334.8 277.821 339.288 276.348 342.414 272.452C344.464 269.899 345.713 266.05 345.518 265.191ZM312.199 287.889C308.977 279.711 314.375 273.005 317.477 270.674C317.986 271.203 318.754 274.486 318.393 277.191C317.842 281.317 315.276 284.302 313.099 286.833L313.099 286.833L313.099 286.833L313.099 286.833L313.099 286.833L313.099 286.833L313.099 286.833L313.099 286.833L313.099 286.833L313.099 286.833C312.789 287.194 312.487 287.545 312.199 287.889ZM306.441 277.784C303.545 280.367 298.727 287.501 302.624 295.381C302.881 295.014 303.153 294.639 303.431 294.253L303.432 294.253C305.388 291.548 307.695 288.359 307.899 284.201C308.033 281.476 306.992 278.268 306.441 277.784ZM291.498 300.179C288.415 291.947 293.927 285.334 297.069 283.057C297.569 283.594 298.28 286.89 297.873 289.589C297.251 293.705 294.635 296.645 292.415 299.139C292.099 299.494 291.791 299.84 291.498 300.179ZM285.451 285.751C282.31 288.028 276.798 294.641 279.881 302.873C280.174 302.534 280.482 302.188 280.798 301.833C283.018 299.339 285.634 296.398 286.256 292.282C286.663 289.584 285.952 286.288 285.451 285.751ZM282.674 309.862C291.068 307.252 297.357 313.132 299.451 316.398C298.887 316.867 295.555 317.389 292.885 316.829C288.811 315.974 286.024 313.195 283.661 310.837L283.66 310.837C283.324 310.501 282.996 310.174 282.674 309.862ZM309.795 310.124C307.229 307.214 300.121 302.357 292.22 306.21C292.585 306.469 292.958 306.743 293.342 307.023L293.342 307.024L293.342 307.024L293.343 307.024L293.343 307.024C296.037 308.996 299.213 311.321 303.37 311.547C306.095 311.696 309.308 310.673 309.795 310.124ZM281.331 305.831L281.12 305.867C281.225 305.843 281.296 305.831 281.331 305.831ZM281.12 305.867C276.463 306.661 266.578 308.548 262.618 310.037C258.598 311.548 255.597 313.447 254.599 314.207C262.798 311.546 278.981 306.348 281.12 305.867ZM321.319 303.683C318.753 300.773 311.646 295.915 303.744 299.769C304.11 300.028 304.483 300.301 304.867 300.582L304.867 300.583L304.868 300.583C307.562 302.554 310.738 304.879 314.894 305.106C317.619 305.254 320.832 304.232 321.319 303.683ZM314.845 294.888C321.767 289.469 329.732 292.734 332.85 295.043C332.489 295.682 329.56 297.353 326.864 297.777C322.752 298.424 319.16 296.815 316.114 295.449C315.68 295.255 315.257 295.065 314.845 294.888ZM342.82 283.791C338.639 282.055 328.701 280.605 322.393 288.691C322.909 288.776 323.442 288.871 323.988 288.969C327.821 289.656 332.341 290.465 336.814 288.574C339.746 287.334 342.591 284.616 342.82 283.791Z" fill="#8BBC2D"/>
</svg>
