<svg width="30" height="30" viewBox="0 0 30 30" fill="none" xmlns="http://www.w3.org/2000/svg">
<rect width="30" height="30" rx="15" fill="#008DE4"/>
<g clip-path="url(#clip0_1229_3360)">
<path d="M17.774 8.26172H11.3142L10.7785 11.2566L16.6092 11.2635C19.4814 11.2635 20.3282 12.3079 20.304 14.037C20.2901 14.9223 19.9065 16.4232 19.7406 16.9109C19.2982 18.2077 18.3892 19.6844 14.9813 19.6809L9.31305 19.6775L8.77905 22.6758H15.225C17.4992 22.6758 18.4635 22.4095 19.49 21.9392C21.7608 20.8844 23.1122 18.6434 23.6548 15.7178C24.4584 11.3603 23.4561 8.26172 17.774 8.26172Z" fill="white"/>
<path d="M8.5268 13.9644C6.83323 13.9644 6.59129 15.0676 6.4323 15.735C6.22147 16.6065 6.15234 16.9627 6.15234 16.9627H12.7676C14.4612 16.9627 14.7031 15.8595 14.8621 15.1921C15.073 14.3206 15.1421 13.9644 15.1421 13.9644H8.5268Z" fill="white"/>
</g>
<defs>
<clipPath id="clip0_1229_3360">
<rect width="17.7539" height="14.4141" fill="white" transform="translate(6.15234 8.26172)"/>
</clipPath>
</defs>
</svg>
