<svg xmlns="http://www.w3.org/2000/svg" width="436.891" height="436.891" viewBox="0 0 436.891 436.891"><g transform="translate(-481.845 -171.46)"><g transform="translate(593.173 307.945)"><circle cx="152.003" cy="152.003" r="152.003" transform="translate(-44.886 -70.042)" fill="#d5d7db" opacity="0.204"/><circle cx="218.445" cy="218.445" r="218.445" transform="translate(-111.328 -136.485)" fill="#d5d7db" opacity="0.152"/><path d="M612.766,367.958h75.888l2.88,4.344v2.173H609.886V372.3Z" transform="translate(-536.821 -183.404)" fill="#f1f1f5" fill-rule="evenodd"/><rect width="61.939" height="30.293" transform="translate(82.916 154.261)" fill="#e1e8e1"/><path d="M634.241,381.676l-18.965-18.968V351.382h61.939v30.293Z" transform="translate(-532.36 -197.121)" fill="#9d9d9d" fill-rule="evenodd"/><path d="M4.423,0H223.354a4.422,4.422,0,0,1,4.422,4.422V161.166a4.422,4.422,0,0,1-4.422,4.422H4.424A4.424,4.424,0,0,1,0,161.164V4.423A4.423,4.423,0,0,1,4.423,0Z" fill="#d0dcd1"/><path d="M576.635,268.608H788.248a5.11,5.11,0,0,1,5.1,5.1V413.571H571.54V273.7A5.106,5.106,0,0,1,576.635,268.608Z" transform="translate(-568.554 -265.619)" fill="#5a3445" fill-rule="evenodd"/><rect width="204.647" height="124.994" transform="translate(11.565 13.191)" fill="#a5dbe5"/><rect width="143.97" height="78.797" transform="translate(41.903 42.503)" fill="#f5f5f7"/><path d="M571.54,347.93h221.8v9.551a5.11,5.11,0,0,1-5.1,5.1H576.635a5.107,5.107,0,0,1-5.1-5.1Z" transform="translate(-568.554 -199.978)" fill="#e1e8e1" fill-rule="evenodd"/><rect width="39.53" height="28.947" transform="translate(49.129 49.802)" fill="#fdc00f"/><rect width="39.53" height="5.844" transform="translate(49.129 82.09)" fill="#fdc00f"/><rect width="39.525" height="28.947" transform="translate(94.002 49.802)" fill="#018a9d"/><rect width="39.525" height="5.844" transform="translate(94.002 82.09)" fill="#018a9d"/><rect width="39.525" height="28.947" transform="translate(138.87 49.802)" fill="#e74037"/><rect width="39.525" height="5.844" transform="translate(138.87 82.09)" fill="#e74037"/></g><g transform="translate(541.79 217.46)"><path d="M594.328,236.732a52.534,52.534,0,1,1-52.538,52.532A52.532,52.532,0,0,1,594.328,236.732Z" transform="translate(-541.79 -201.513)" fill="#fff" fill-rule="evenodd"/><g transform="translate(4.638 39.89)"><path d="M580.729,267.193v-27.9c-11.592,1.051-20.2,11.442-24.747,22.6A68.149,68.149,0,0,0,580.729,267.193Z" transform="translate(-534.684 -239.283)" fill="#a5dbe5" fill-rule="evenodd"/><path d="M571.479,239.288v27.947a69.4,69.4,0,0,0,25.085-4.825C592.055,251.026,583.331,240.284,571.479,239.288Z" transform="translate(-521.86 -239.288)" fill="#a5dbe5" fill-rule="evenodd"/><path d="M580.08,241.038c5.612,4.773,9.806,11.393,12.63,18.473l7.021-4.174A48,48,0,0,0,580.08,241.038Z" transform="translate(-514.742 -237.84)" fill="#a5dbe5" fill-rule="evenodd"/><path d="M595.619,250.421l-7.953,4.7a71.761,71.761,0,0,1,3.567,21.029h13.03A47.714,47.714,0,0,0,595.619,250.421Z" transform="translate(-508.465 -230.075)" fill="#a5dbe5" fill-rule="evenodd"/><path d="M601.05,273.369a68.471,68.471,0,0,0-3.269-19.589,73.144,73.144,0,0,1-26.3,5.04v14.549Z" transform="translate(-521.86 -227.295)" fill="#a5dbe5" fill-rule="evenodd"/><path d="M582.854,273.606V259.022a71.914,71.914,0,0,1-25.993-5.528,68.215,68.215,0,0,0-3.448,20.112Z" transform="translate(-536.81 -227.532)" fill="#a5dbe5" fill-rule="evenodd"/><path d="M557.353,276.465a71.77,71.77,0,0,1,3.77-21.636l-7.654-4.79a47.673,47.673,0,0,0-9.141,26.426Z" transform="translate(-544.328 -230.391)" fill="#a5dbe5" fill-rule="evenodd"/><path d="M550.542,254.679l6.713,4.236a46.719,46.719,0,0,1,12.387-17.877A48.028,48.028,0,0,0,550.542,254.679Z" transform="translate(-539.186 -237.84)" fill="#a5dbe5" fill-rule="evenodd"/><path d="M557.353,266.456H544.328a47.684,47.684,0,0,0,9.107,26.384l7.672-4.806A71.77,71.77,0,0,1,557.353,266.456Z" transform="translate(-544.328 -216.806)" fill="#a5dbe5" fill-rule="evenodd"/><path d="M553.413,266.456a68.409,68.409,0,0,0,3.427,20.053,71.92,71.92,0,0,1,26.015-5.537V266.456Z" transform="translate(-536.81 -216.806)" fill="#a5dbe5" fill-rule="evenodd"/><path d="M571.479,266.456v14.479a73.152,73.152,0,0,1,26.32,5.048,68.506,68.506,0,0,0,3.251-19.527Z" transform="translate(-521.86 -216.806)" fill="#a5dbe5" fill-rule="evenodd"/><path d="M591.223,266.456a72,72,0,0,1-3.544,20.971l7.963,4.711a47.693,47.693,0,0,0,8.611-25.682Z" transform="translate(-508.454 -216.806)" fill="#a5dbe5" fill-rule="evenodd"/><path d="M599.772,283.963l-7.04-4.185c-2.823,7.1-7.027,13.745-12.652,18.527A48.033,48.033,0,0,0,599.772,283.963Z" transform="translate(-514.742 -205.781)" fill="#a5dbe5" fill-rule="evenodd"/><path d="M571.479,304.352c11.868-1,20.6-11.778,25.108-23.182a69.4,69.4,0,0,0-25.108-4.832Z" transform="translate(-521.86 -208.628)" fill="#a5dbe5" fill-rule="evenodd"/><path d="M580.739,304.323V276.358a68.1,68.1,0,0,0-24.769,5.313C560.506,292.846,569.123,303.274,580.739,304.323Z" transform="translate(-534.694 -208.612)" fill="#a5dbe5" fill-rule="evenodd"/><path d="M569.66,298.035c-5.461-4.649-9.591-11.062-12.409-17.93l-6.731,4.251A48.084,48.084,0,0,0,569.66,298.035Z" transform="translate(-539.204 -205.511)" fill="#a5dbe5" fill-rule="evenodd"/></g><path d="M638.344,228.083a36.276,36.276,0,0,0-51.3,0c-.757.76-1.479,1.548-2.155,2.354v0a36.3,36.3,0,0,0-5.421,37.865c2.677,10.974-4.982,23.407-4.741,23.559s14.028-7.862,23.683-4.781a36.3,36.3,0,0,0,37.371-5.38h.005l-.005,0c.879-.727,1.736-1.5,2.558-2.321A36.276,36.276,0,0,0,638.344,228.083Z" transform="translate(-514.534 -217.461)" fill="#102154" fill-rule="evenodd"/><g transform="translate(83.847 15.208)"><path d="M605.186,227.337a27.707,27.707,0,0,1,18.334,29.807l-5.5-.731a22.164,22.164,0,0,0-28.157-24.2l-1.544-5.32A27.575,27.575,0,0,1,605.186,227.337Z" transform="translate(-587.129 -225.782)" fill="#e6e6e6" fill-rule="evenodd"/><path d="M600.977,231.873A18.477,18.477,0,0,1,613.2,251.743l-5.557-.74A12.87,12.87,0,0,0,591.3,236.955l-1.568-5.382A18.389,18.389,0,0,1,600.977,231.873Z" transform="translate(-585.963 -221.601)" fill="#e6e6e6" fill-rule="evenodd"/><path d="M599.538,236.559a8.925,8.925,0,1,1-11.367,5.484A8.926,8.926,0,0,1,599.538,236.559Z" transform="translate(-587.67 -217.279)" fill="#f5f5f7" fill-rule="evenodd"/></g></g><path d="M620.491,296.9v4.51l-12.224,5.06,12.224,5.12v4.476l-17.742-7.683V304.5Z" transform="translate(50.446 65.738)" fill="#f5f5f7" fill-rule="evenodd"/><path d="M652.493,297.151v4.509l12.224,5.06-12.224,5.122v4.475l17.742-7.683v-3.879Z" transform="translate(91.61 65.946)" fill="#f5f5f7" fill-rule="evenodd"/><g transform="translate(716.698 359.551)"><path d="M661.35,314.91a48.2,48.2,0,1,0,68.033,4.154A48.2,48.2,0,0,0,661.35,314.91Z" transform="translate(-631.212 -288.926)" fill="#f5f5f7" fill-rule="evenodd"/><path d="M760.4,344.905a62.068,62.068,0,1,1-73.205-48.435A62.066,62.066,0,0,1,760.4,344.905Zm-15.642,3.187a46.106,46.106,0,1,0-35.98,54.374A46.151,46.151,0,0,0,744.756,348.092Z" transform="translate(-637.498 -295.211)" fill="#102154" fill-rule="evenodd"/><rect width="8.571" height="18.153" transform="translate(96.187 110.214) rotate(-41.507)" fill="#102154"/><path d="M698.026,360.321h0a9.943,9.943,0,0,0-.853,13.993l36.759,41.536a9.943,9.943,0,0,0,13.993.853v0a9.944,9.944,0,0,0,.853-13.993L712.02,361.174A9.944,9.944,0,0,0,698.026,360.321Z" transform="translate(-590.165 -243.381)" fill="#e1ae15" fill-rule="evenodd"/><path d="M698.026,360.321h0a9.943,9.943,0,0,0-.853,13.993l14.847-13.14a9.944,9.944,0,0,0-13.993-.853Zm2.007,17.223,14.847-13.138,31.041,35.076-14.847,13.138-31.041-35.076Zm33.9,38.307a9.943,9.943,0,0,0,13.993.853v0a9.942,9.942,0,0,0,.855-13.992Z" transform="translate(-590.165 -243.381)" fill="#102154" fill-rule="evenodd"/><g transform="translate(40.627 28.373)"><rect width="19.573" height="26.718" transform="translate(11.356 31.725)" fill="#1a2a3a"/><rect width="9.788" height="26.718" transform="translate(11.356 31.725)" fill="#1a2a3a"/><path d="M674.008,310.736h9.282a11.243,11.243,0,0,1,11.223,11.217v5.411h-5.965v-5.411a5.282,5.282,0,0,0-5.258-5.258h-9.282a5.286,5.286,0,0,0-5.258,5.258v14.935h-5.963V321.953A11.244,11.244,0,0,1,674.008,310.736Z" transform="translate(-657.197 -310.736)" fill="#1a2a3a" fill-rule="evenodd"/><path d="M663.853,324.146H681.18v11.086a5.879,5.879,0,0,0-2.062,11.385v6.855a2.068,2.068,0,0,0,2.062,2.06v11.519H663.853a4.136,4.136,0,0,1-4.125-4.127V328.271A4.135,4.135,0,0,1,663.853,324.146Z" transform="translate(-659.728 -299.639)" fill="#9bd417" fill-rule="evenodd"/><path d="M688.793,324.146H671.466v11.086a5.879,5.879,0,0,1,2.063,11.385v6.855a2.067,2.067,0,0,1-2.063,2.06v11.519h17.327a4.138,4.138,0,0,0,4.128-4.127V328.271A4.137,4.137,0,0,0,688.793,324.146Z" transform="translate(-650.015 -299.639)" fill="#77a216" fill-rule="evenodd"/></g></g></g></svg>