<svg xmlns="http://www.w3.org/2000/svg" width="436.891" height="436.891"><defs><style>.cls-15,.cls-16,.cls-17,.cls-18{fill-rule:evenodd}.cls-15{fill:#a5dbe5}.cls-18{fill:#f5f5f7}.cls-11{fill:#fdc00f}.cls-12{fill:#018a9d}.cls-13{fill:#e74037}.cls-16{fill:#102154}.cls-17{fill:#e6e6e6}.cls-21{fill:#1a2a3a}</style></defs><g id="Data_Protect_Ill" transform="translate(-481.845 -171.461)"><g id="Data_protect" transform="translate(593.173 307.945)"><circle id="Ellipse_2228" cx="152.003" cy="152.003" r="152.003" data-name="Ellipse 2228" transform="translate(-44.886 -70.042)" style="opacity:.204;fill:#d5d7db"/><circle id="Ellipse_2229" cx="218.445" cy="218.445" r="218.445" data-name="Ellipse 2229" transform="translate(-111.328 -136.485)" style="opacity:.152;fill:#d5d7db"/><path id="Path_34510" d="M612.766 367.958h75.888l2.88 4.344v2.173h-81.648V372.3z" data-name="Path 34510" transform="translate(-536.821 -183.404)" style="fill-rule:evenodd;fill:#f1f1f5"/><path id="Rectangle_5403" d="M0 0h61.939v30.293H0z" data-name="Rectangle 5403" transform="translate(82.916 154.261)" style="fill:#e1e8e1"/><path id="Path_34511" d="m634.241 381.676-18.965-18.968v-11.326h61.939v30.293z" data-name="Path 34511" transform="translate(-532.36 -197.121)" style="fill:#9d9d9d;fill-rule:evenodd"/><path id="Rectangle_5404" d="M4.423 0h218.931a4.422 4.422 0 0 1 4.422 4.422v156.744a4.422 4.422 0 0 1-4.422 4.422H4.424A4.424 4.424 0 0 1 0 161.164V4.423A4.423 4.423 0 0 1 4.423 0z" data-name="Rectangle 5404" style="fill:#d0dcd1"/><path id="Path_34512" d="M576.635 268.608h211.613a5.11 5.11 0 0 1 5.1 5.1v139.863H571.54V273.7a5.106 5.106 0 0 1 5.095-5.092z" data-name="Path 34512" transform="translate(-568.554 -265.619)" style="fill:#5a3445;fill-rule:evenodd"/><path id="Rectangle_5405" d="M0 0h204.647v124.994H0z" data-name="Rectangle 5405" transform="translate(11.565 13.191)" style="fill:#a5dbe5"/><path id="Rectangle_5406" d="M0 0h143.97v78.797H0z" data-name="Rectangle 5406" transform="translate(41.903 42.503)" style="fill:#f5f5f7"/><path id="Path_34513" d="M571.54 347.93h221.8v9.551a5.11 5.11 0 0 1-5.1 5.1H576.635a5.107 5.107 0 0 1-5.1-5.1z" data-name="Path 34513" transform="translate(-568.554 -199.978)" style="fill:#e1e8e1;fill-rule:evenodd"/><path id="Rectangle_5407" d="M0 0h39.53v28.947H0z" class="cls-11" data-name="Rectangle 5407" transform="translate(49.129 49.802)"/><path id="Rectangle_5408" d="M0 0h39.53v5.844H0z" class="cls-11" data-name="Rectangle 5408" transform="translate(49.129 82.09)"/><path id="Rectangle_5409" d="M0 0h39.525v28.947H0z" class="cls-12" data-name="Rectangle 5409" transform="translate(94.002 49.802)"/><path id="Rectangle_5410" d="M0 0h39.525v5.844H0z" class="cls-12" data-name="Rectangle 5410" transform="translate(94.002 82.09)"/><path id="Rectangle_5411" d="M0 0h39.525v28.947H0z" class="cls-13" data-name="Rectangle 5411" transform="translate(138.87 49.802)"/><path id="Rectangle_5412" d="M0 0h39.525v5.844H0z" class="cls-13" data-name="Rectangle 5412" transform="translate(138.87 82.09)"/></g><g id="Group_3390" data-name="Group 3390" transform="translate(541.79 217.46)"><path id="Path_34514" d="M594.328 236.732a52.534 52.534 0 1 1-52.538 52.532 52.532 52.532 0 0 1 52.538-52.532z" data-name="Path 34514" transform="translate(-541.79 -201.513)" style="fill:#fff;fill-rule:evenodd"/><g id="Group_3388" data-name="Group 3388" transform="translate(4.638 39.89)"><path id="Path_34515" d="M580.729 267.193v-27.9c-11.592 1.051-20.2 11.442-24.747 22.6a68.149 68.149 0 0 0 24.747 5.3z" class="cls-15" data-name="Path 34515" transform="translate(-534.684 -239.283)"/><path id="Path_34516" d="M571.479 239.288v27.947a69.4 69.4 0 0 0 25.085-4.825c-4.509-11.384-13.233-22.126-25.085-23.122z" class="cls-15" data-name="Path 34516" transform="translate(-521.86 -239.288)"/><path id="Path_34517" d="M580.08 241.038c5.612 4.773 9.806 11.393 12.63 18.473l7.021-4.174a48 48 0 0 0-19.651-14.299z" class="cls-15" data-name="Path 34517" transform="translate(-514.742 -237.84)"/><path id="Path_34518" d="m595.619 250.421-7.953 4.7a71.761 71.761 0 0 1 3.567 21.029h13.03a47.714 47.714 0 0 0-8.644-25.729z" class="cls-15" data-name="Path 34518" transform="translate(-508.465 -230.075)"/><path id="Path_34519" d="M601.05 273.369a68.471 68.471 0 0 0-3.269-19.589 73.144 73.144 0 0 1-26.3 5.04v14.549z" class="cls-15" data-name="Path 34519" transform="translate(-521.86 -227.295)"/><path id="Path_34520" d="M582.854 273.606v-14.584a71.914 71.914 0 0 1-25.993-5.528 68.215 68.215 0 0 0-3.448 20.112z" class="cls-15" data-name="Path 34520" transform="translate(-536.81 -227.532)"/><path id="Path_34521" d="M557.353 276.465a71.77 71.77 0 0 1 3.77-21.636l-7.654-4.79a47.673 47.673 0 0 0-9.141 26.426z" class="cls-15" data-name="Path 34521" transform="translate(-544.328 -230.391)"/><path id="Path_34522" d="m550.542 254.679 6.713 4.236a46.719 46.719 0 0 1 12.387-17.877 48.028 48.028 0 0 0-19.1 13.641z" class="cls-15" data-name="Path 34522" transform="translate(-539.186 -237.84)"/><path id="Path_34523" d="M557.353 266.456h-13.025a47.684 47.684 0 0 0 9.107 26.384l7.672-4.806a71.77 71.77 0 0 1-3.754-21.578z" class="cls-15" data-name="Path 34523" transform="translate(-544.328 -216.806)"/><path id="Path_34524" d="M553.413 266.456a68.409 68.409 0 0 0 3.427 20.053 71.92 71.92 0 0 1 26.015-5.537v-14.516z" class="cls-15" data-name="Path 34524" transform="translate(-536.81 -216.806)"/><path id="Path_34525" d="M571.479 266.456v14.479a73.152 73.152 0 0 1 26.32 5.048 68.506 68.506 0 0 0 3.251-19.527z" class="cls-15" data-name="Path 34525" transform="translate(-521.86 -216.806)"/><path id="Path_34526" d="M591.223 266.456a72 72 0 0 1-3.544 20.971l7.963 4.711a47.693 47.693 0 0 0 8.611-25.682z" class="cls-15" data-name="Path 34526" transform="translate(-508.454 -216.806)"/><path id="Path_34527" d="m599.772 283.963-7.04-4.185c-2.823 7.1-7.027 13.745-12.652 18.527a48.033 48.033 0 0 0 19.692-14.342z" class="cls-15" data-name="Path 34527" transform="translate(-514.742 -205.781)"/><path id="Path_34528" d="M571.479 304.352c11.868-1 20.6-11.778 25.108-23.182a69.4 69.4 0 0 0-25.108-4.832z" class="cls-15" data-name="Path 34528" transform="translate(-521.86 -208.628)"/><path id="Path_34529" d="M580.739 304.323v-27.965a68.1 68.1 0 0 0-24.769 5.313c4.536 11.175 13.153 21.603 24.769 22.652z" class="cls-15" data-name="Path 34529" transform="translate(-534.694 -208.612)"/><path id="Path_34530" d="M569.66 298.035c-5.461-4.649-9.591-11.062-12.409-17.93l-6.731 4.251a48.084 48.084 0 0 0 19.14 13.679z" class="cls-15" data-name="Path 34530" transform="translate(-539.204 -205.511)"/></g><path id="Path_34531" d="M638.344 228.083a36.276 36.276 0 0 0-51.3 0 37.405 37.405 0 0 0-2.155 2.354 36.3 36.3 0 0 0-5.421 37.865c2.677 10.974-4.982 23.407-4.741 23.559s14.028-7.862 23.683-4.781a36.3 36.3 0 0 0 37.371-5.38h.005-.005a36.87 36.87 0 0 0 2.558-2.321 36.276 36.276 0 0 0 .005-51.296z" class="cls-16" data-name="Path 34531" transform="translate(-514.534 -217.461)"/><g id="Group_3389" data-name="Group 3389" transform="translate(83.847 15.208)"><path id="Path_34532" d="M605.186 227.337a27.707 27.707 0 0 1 18.334 29.807l-5.5-.731a22.164 22.164 0 0 0-28.157-24.2l-1.544-5.32a27.575 27.575 0 0 1 16.867.444z" class="cls-17" data-name="Path 34532" transform="translate(-587.129 -225.782)"/><path id="Path_34533" d="M600.977 231.873a18.477 18.477 0 0 1 12.223 19.87l-5.557-.74a12.87 12.87 0 0 0-16.343-14.048l-1.568-5.382a18.389 18.389 0 0 1 11.245.3z" class="cls-17" data-name="Path 34533" transform="translate(-585.963 -221.601)"/><path id="Path_34534" d="M599.538 236.559a8.925 8.925 0 1 1-11.367 5.484 8.926 8.926 0 0 1 11.367-5.484z" class="cls-18" data-name="Path 34534" transform="translate(-587.67 -217.279)"/></g></g><path id="Path_34535" d="M620.491 296.9v4.51l-12.224 5.06 12.224 5.12v4.476l-17.742-7.683V304.5z" class="cls-18" data-name="Path 34535" transform="translate(50.446 65.738)"/><path id="Path_34536" d="M652.493 297.151v4.509l12.224 5.06-12.224 5.122v4.475l17.742-7.683v-3.879z" class="cls-18" data-name="Path 34536" transform="translate(91.61 65.946)"/><g id="Group_3392" data-name="Group 3392" transform="translate(716.698 359.551)"><path id="Path_34537" d="M661.35 314.91a48.2 48.2 0 1 0 68.033 4.154 48.2 48.2 0 0 0-68.033-4.154z" class="cls-18" data-name="Path 34537" transform="translate(-631.212 -288.926)"/><path id="Path_34538" d="M760.4 344.905a62.068 62.068 0 1 1-73.205-48.435 62.066 62.066 0 0 1 73.205 48.435zm-15.642 3.187a46.106 46.106 0 1 0-35.98 54.374 46.151 46.151 0 0 0 35.978-54.374z" class="cls-16" data-name="Path 34538" transform="translate(-637.498 -295.211)"/><path id="Rectangle_5413" d="M0 0h8.571v18.153H0z" data-name="Rectangle 5413" transform="rotate(-41.507 193.52 -71.81)" style="fill:#102154"/><path id="Path_34539" d="M698.026 360.321a9.943 9.943 0 0 0-.853 13.993l36.759 41.536a9.943 9.943 0 0 0 13.993.853 9.944 9.944 0 0 0 .853-13.993l-36.758-41.536a9.944 9.944 0 0 0-13.994-.853z" data-name="Path 34539" transform="translate(-590.165 -243.381)" style="fill:#e1ae15;fill-rule:evenodd"/><path id="Path_34540" d="M698.026 360.321a9.943 9.943 0 0 0-.853 13.993l14.847-13.14a9.944 9.944 0 0 0-13.993-.853zm2.007 17.223 14.847-13.138 31.041 35.076-14.847 13.138-31.041-35.076zm33.9 38.307a9.943 9.943 0 0 0 13.993.853 9.942 9.942 0 0 0 .855-13.992z" class="cls-16" data-name="Path 34540" transform="translate(-590.165 -243.381)"/><g id="Group_3391" data-name="Group 3391" transform="translate(40.627 28.373)"><path id="Rectangle_5414" d="M0 0h19.573v26.718H0z" class="cls-21" data-name="Rectangle 5414" transform="translate(11.356 31.725)"/><path id="Rectangle_5415" d="M0 0h9.788v26.718H0z" class="cls-21" data-name="Rectangle 5415" transform="translate(11.356 31.725)"/><path id="Path_34541" d="M674.008 310.736h9.282a11.243 11.243 0 0 1 11.223 11.217v5.411h-5.965v-5.411a5.282 5.282 0 0 0-5.258-5.258h-9.282a5.286 5.286 0 0 0-5.258 5.258v14.935h-5.963v-14.935a11.244 11.244 0 0 1 11.221-11.217z" data-name="Path 34541" transform="translate(-657.197 -310.736)" style="fill:#1a2a3a;fill-rule:evenodd"/><path id="Path_34542" d="M663.853 324.146h17.327v11.086a5.879 5.879 0 0 0-2.062 11.385v6.855a2.068 2.068 0 0 0 2.062 2.06v11.519h-17.327a4.136 4.136 0 0 1-4.125-4.127v-34.653a4.135 4.135 0 0 1 4.125-4.125z" data-name="Path 34542" transform="translate(-659.728 -299.639)" style="fill:#9bd417;fill-rule:evenodd"/><path id="Path_34543" d="M688.793 324.146h-17.327v11.086a5.879 5.879 0 0 1 2.063 11.385v6.855a2.067 2.067 0 0 1-2.063 2.06v11.519h17.327a4.138 4.138 0 0 0 4.128-4.127v-34.653a4.137 4.137 0 0 0-4.128-4.125z" data-name="Path 34543" transform="translate(-650.015 -299.639)" style="fill:#77a216;fill-rule:evenodd"/></g></g></g></svg>