<svg width="380" height="227" viewBox="0 0 380 227" fill="none" xmlns="http://www.w3.org/2000/svg">
<g clip-path="url(#clip0_239_2618)">
<rect width="380" height="227" rx="10" fill="#F1F4FB"/>
<path opacity="0.1" d="M40.9701 227.936C36.3503 227.936 31.8241 227.281 27.3915 225.97C23.0214 224.596 19.3381 222.724 16.3414 220.351L21.5855 210.893C23.9579 212.828 26.8297 214.389 30.2009 215.575C33.5721 216.761 37.0994 217.355 40.7828 217.355C45.1529 217.355 48.5554 216.481 50.9902 214.732C53.4249 212.922 54.6423 210.487 54.6423 207.428C54.6423 204.431 53.5186 202.059 51.2711 200.311C49.0236 198.563 45.4027 197.689 40.4082 197.689H34.4149V189.355L53.144 167.067L54.736 171.656H19.5253V161.448H64.1941V169.595L45.4651 191.883L39.0972 188.137H42.7494C50.8029 188.137 56.8274 189.948 60.8229 193.569C64.8809 197.127 66.9099 201.716 66.9099 207.334C66.9099 211.018 65.9734 214.42 64.1005 217.542C62.2276 220.663 59.3558 223.192 55.4851 225.127C51.6769 227 46.8386 227.936 40.9701 227.936Z" fill="#233654"/>
<path d="M284.919 44.7221V155.309C284.919 160.124 281.02 164.031 276.197 164.031H104.563C99.7406 164.031 95.8412 160.124 95.8412 155.309V44.7221C95.8412 39.907 99.7406 36 104.563 36H276.197C281.02 36 284.919 39.907 284.919 44.7221Z" fill="white"/>
<path d="M280.157 43.9514H100.603V152.142H280.157V43.9514Z" fill="#D7DEED"/>
<path d="M323.76 185.649H57L97.001 159.544H283.759L323.76 185.649Z" fill="white"/>
<path d="M90.2782 174.744L108.73 162.695H273.572L292.023 174.744H90.2782Z" fill="#3E464D"/>
<path d="M294.595 174.744H87.7067L106.624 162.695H275.678L294.595 174.744Z" fill="#F1F4FB"/>
<path d="M218.034 182.902H162.733L173.371 176.125H207.397L218.034 182.902Z" fill="#626B73"/>
<path d="M231.861 182.902H148.906L164.862 176.125H215.905L231.861 182.902Z" fill="#F0F3FA"/>
<path d="M323.302 185.649C323.302 185.649 321.089 190.113 317.205 190.655H63.5473C59.6631 190.113 57.4502 185.649 57.4502 185.649H323.302Z" fill="white"/>
<path d="M190.388 62.563C184.588 62.563 179.88 67.2789 179.88 73.0783C179.88 78.8702 184.588 83.586 190.388 83.586C196.179 83.586 200.895 78.8702 200.895 73.0783C200.888 67.2789 196.179 62.563 190.388 62.563ZM190.388 81.0221C186 81.0221 182.436 77.4584 182.436 73.0783C182.436 68.6906 186 65.127 190.388 65.127C194.768 65.127 198.331 68.6906 198.331 73.0783C198.331 77.4584 194.76 81.0221 190.388 81.0221Z" fill="white"/>
<g opacity="0.3">
<path d="M190.372 64.3408C185.557 64.3408 181.635 68.2555 181.635 73.0782C181.635 77.8932 185.557 81.8155 190.372 81.8155C195.195 81.8155 199.117 77.8932 199.117 73.0782C199.117 68.2555 195.203 64.3408 190.372 64.3408ZM190.388 81.0219C186 81.0219 182.436 77.4583 182.436 73.0782C182.436 68.6904 186 65.1268 190.388 65.1268C194.768 65.1268 198.331 68.6904 198.331 73.0782C198.331 77.4583 194.76 81.0219 190.388 81.0219Z" fill="black"/>
</g>
<path d="M206.611 80.6786V85.6769C206.611 92.9567 200.712 98.863 193.432 98.863H187.328C184.527 98.863 181.94 97.9855 179.804 96.5051C176.385 94.1242 174.141 90.1562 174.141 85.6769V80.9381C174.141 77.6416 176.82 74.9631 180.116 74.9631H200.903C204.054 74.9631 206.611 77.5195 206.611 80.6786Z" fill="#9BC256"/>
<path d="M192.723 85.921C192.723 86.9817 192.021 87.8745 191.051 88.1568V90.7055C191.051 91.0718 190.754 91.377 190.388 91.377C190.021 91.377 189.724 91.0718 189.724 90.7055V88.1568C188.755 87.8745 188.045 86.9817 188.045 85.921C188.045 84.6314 189.098 83.5859 190.388 83.5859C191.677 83.5859 192.723 84.6314 192.723 85.921Z" fill="#D2E5F3"/>
<path opacity="0.1" d="M206.611 80.6786V85.6769C206.611 92.9567 200.712 98.863 193.432 98.863H187.328C184.527 98.863 181.94 97.9855 179.804 96.5051C192.135 93.1322 197.507 82.4261 199.796 74.9631H200.903C204.055 74.9631 206.611 77.5195 206.611 80.6786Z" fill="black"/>
<path d="M230.77 123.732H149.99C147.777 123.732 145.991 121.939 145.991 119.733V109.035C145.991 106.822 147.784 105.036 149.99 105.036H230.763C232.976 105.036 234.761 106.829 234.761 109.035V119.733C234.769 121.939 232.976 123.732 230.77 123.732Z" fill="white"/>
<path d="M157.567 114.384L159.391 115.391L158.765 116.483L156.903 115.391L156.919 117.459H155.698L155.713 115.407L153.866 116.483L153.225 115.391L155.072 114.384L153.225 113.377L153.866 112.27L155.713 113.362L155.698 111.309H156.919L156.903 113.377L158.765 112.27L159.391 113.377L157.567 114.384Z" fill="#9BC256"/>
<path d="M168.945 114.384L170.769 115.391L170.143 116.483L168.281 115.391L168.296 117.459H167.075L167.091 115.407L165.244 116.483L164.603 115.391L166.45 114.384L164.603 113.377L165.244 112.27L167.091 113.362L167.075 111.309H168.296L168.281 113.377L170.143 112.27L170.769 113.377L168.945 114.384Z" fill="#9BC256"/>
<path d="M180.33 114.384L182.154 115.391L181.528 116.483L179.666 115.391L179.681 117.459H178.461L178.476 115.407L176.629 116.483L175.988 115.391L177.835 114.384L175.988 113.377L176.629 112.27L178.476 113.362L178.461 111.309H179.681L179.666 113.377L181.528 112.27L182.154 113.377L180.33 114.384Z" fill="#9BC256"/>
<path d="M191.708 114.384L193.531 115.391L192.906 116.483L191.044 115.391L191.059 117.459H189.838L189.853 115.407L188.007 116.483L187.366 115.391L189.212 114.384L187.366 113.377L188.007 112.27L189.853 113.362L189.838 111.309H191.059L191.044 113.377L192.906 112.27L193.531 113.377L191.708 114.384Z" fill="#9BC256"/>
<path d="M203.093 114.384L204.917 115.391L204.291 116.483L202.429 115.391L202.444 117.459H201.223L201.239 115.407L199.392 116.483L198.751 115.391L200.598 114.384L198.751 113.377L199.392 112.27L201.239 113.362L201.223 111.309H202.444L202.429 113.377L204.291 112.27L204.917 113.377L203.093 114.384Z" fill="#9BC256"/>
</g>
<defs>
<clipPath id="clip0_239_2618">
<rect width="380" height="227" rx="10" fill="white"/>
</clipPath>
</defs>
</svg>
