<svg width="380" height="227" viewBox="0 0 380 227" fill="none" xmlns="http://www.w3.org/2000/svg">
<g clip-path="url(#clip0_239_2590)">
<rect width="380" height="227" rx="10" fill="#F0F3FA"/>
<rect x="89.0994" y="17" width="202.801" height="48.2338" rx="11.6829" fill="white"/>
<g clip-path="url(#clip1_239_2590)">
<path d="M115.409 52.0795C121.463 52.0795 126.371 47.1715 126.371 41.1173C126.371 35.063 121.463 30.155 115.409 30.155C109.354 30.155 104.447 35.063 104.447 41.1173C104.447 47.1715 109.354 52.0795 115.409 52.0795Z" fill="#F0F0F0"/>
<path d="M126.371 41.1173C126.371 36.4039 123.396 32.3858 119.222 30.8369V51.3977C123.396 49.8488 126.371 45.8307 126.371 41.1173Z" fill="#D80027"/>
<path d="M104.447 41.1173C104.447 45.8307 107.421 49.8488 111.596 51.3977V30.8369C107.421 32.3858 104.447 36.4039 104.447 41.1173Z" fill="#0052B4"/>
</g>
<path d="M138.347 41.0496H144.283V42.4637H138.347V41.0496ZM138.512 47.1172H136.867V35.6068H144.99V37.0374H138.512V47.1172ZM146.914 47.1172V38.4022H148.427V40.7701L148.279 40.1781C148.52 39.5752 148.926 39.1148 149.496 38.7969C150.066 38.4789 150.768 38.32 151.601 38.32V39.8492C151.535 39.8383 151.469 39.8328 151.403 39.8328C151.349 39.8328 151.294 39.8328 151.239 39.8328C150.395 39.8328 149.726 40.0849 149.233 40.5892C148.74 41.0934 148.493 41.8224 148.493 42.7761V47.1172H146.914ZM158.314 47.1172V45.2755L158.232 44.9302V41.7895C158.232 41.1208 158.034 40.6056 157.64 40.2439C157.256 39.8712 156.675 39.6848 155.897 39.6848C155.381 39.6848 154.877 39.7725 154.384 39.9479C153.891 40.1123 153.474 40.337 153.134 40.6221L152.476 39.4381C152.926 39.0764 153.463 38.8023 154.088 38.616C154.724 38.4187 155.387 38.32 156.077 38.32C157.272 38.32 158.193 38.6105 158.84 39.1915C159.487 39.7725 159.81 40.6604 159.81 41.8553V47.1172H158.314ZM155.453 47.2158C154.806 47.2158 154.236 47.1062 153.743 46.887C153.26 46.6677 152.887 46.3663 152.624 45.9826C152.361 45.588 152.23 45.144 152.23 44.6507C152.23 44.1793 152.339 43.7518 152.559 43.3681C152.789 42.9844 153.156 42.6775 153.66 42.4473C154.176 42.2171 154.866 42.102 155.732 42.102H158.495V43.2366H155.798C155.009 43.2366 154.477 43.3681 154.203 43.6312C153.929 43.8943 153.792 44.2122 153.792 44.5849C153.792 45.0124 153.962 45.3577 154.302 45.6208C154.641 45.873 155.113 45.999 155.716 45.999C156.308 45.999 156.823 45.8675 157.261 45.6044C157.711 45.3413 158.034 44.9576 158.232 44.4534L158.544 45.5386C158.336 46.0539 157.968 46.4649 157.442 46.7719C156.916 47.0679 156.253 47.2158 155.453 47.2158ZM167.385 38.32C168.097 38.32 168.722 38.457 169.259 38.7311C169.808 39.0051 170.235 39.4217 170.542 39.9808C170.849 40.5398 171.002 41.2469 171.002 42.102V47.1172H169.424V42.2828C169.424 41.4388 169.216 40.8029 168.799 40.3754C168.393 39.9479 167.818 39.7341 167.072 39.7341C166.513 39.7341 166.026 39.8437 165.609 40.063C165.192 40.2822 164.869 40.6056 164.639 41.0331C164.42 41.4607 164.31 41.9923 164.31 42.6282V47.1172H162.731V38.4022H164.244V40.7536L163.998 40.1288C164.283 39.5587 164.721 39.1148 165.313 38.7969C165.905 38.4789 166.596 38.32 167.385 38.32ZM177.722 47.2158C176.834 47.2158 176.04 47.024 175.338 46.6403C174.647 46.2567 174.105 45.7305 173.71 45.0618C173.315 44.3931 173.118 43.6257 173.118 42.7597C173.118 41.8937 173.315 41.1263 173.71 40.4576C174.105 39.7889 174.647 39.2682 175.338 38.8955C176.04 38.5118 176.834 38.32 177.722 38.32C178.511 38.32 179.213 38.4789 179.827 38.7969C180.452 39.1038 180.934 39.5642 181.274 40.1781L180.074 40.9509C179.789 40.5234 179.438 40.211 179.021 40.0137C178.616 39.8054 178.177 39.7012 177.706 39.7012C177.136 39.7012 176.626 39.8273 176.177 40.0794C175.727 40.3316 175.371 40.6878 175.108 41.1483C174.845 41.5977 174.713 42.1349 174.713 42.7597C174.713 43.3845 174.845 43.9272 175.108 44.3876C175.371 44.848 175.727 45.2043 176.177 45.4564C176.626 45.7085 177.136 45.8346 177.706 45.8346C178.177 45.8346 178.616 45.7359 179.021 45.5386C179.438 45.3303 179.789 45.0124 180.074 44.5849L181.274 45.3413C180.934 45.9442 180.452 46.4101 179.827 46.739C179.213 47.0569 178.511 47.2158 177.722 47.2158ZM187.07 47.2158C186.138 47.2158 185.316 47.024 184.603 46.6403C183.902 46.2567 183.354 45.7305 182.959 45.0618C182.575 44.3931 182.384 43.6257 182.384 42.7597C182.384 41.8937 182.57 41.1263 182.943 40.4576C183.326 39.7889 183.847 39.2682 184.505 38.8955C185.173 38.5118 185.924 38.32 186.757 38.32C187.602 38.32 188.347 38.5064 188.994 38.8791C189.641 39.2518 190.145 39.778 190.507 40.4576C190.879 41.1263 191.066 41.9101 191.066 42.809C191.066 42.8748 191.06 42.9515 191.049 43.0392C191.049 43.1269 191.044 43.2092 191.033 43.2859H183.617V42.1513H190.211L189.569 42.5459C189.58 41.9869 189.465 41.4881 189.224 41.0496C188.983 40.6111 188.648 40.2713 188.221 40.0301C187.804 39.778 187.317 39.6519 186.757 39.6519C186.209 39.6519 185.722 39.778 185.294 40.0301C184.866 40.2713 184.532 40.6166 184.291 41.066C184.05 41.5045 183.929 42.0088 183.929 42.5788V42.8419C183.929 43.4229 184.061 43.9436 184.324 44.404C184.598 44.8535 184.976 45.2043 185.458 45.4564C185.941 45.7085 186.494 45.8346 187.119 45.8346C187.634 45.8346 188.1 45.7469 188.517 45.5715C188.944 45.3961 189.317 45.133 189.635 44.7822L190.507 45.8017C190.112 46.2621 189.619 46.6129 189.027 46.8541C188.446 47.0953 187.793 47.2158 187.07 47.2158Z" fill="#5A78A6"/>
<rect x="257.902" y="42.0964" width="3.28867" height="5.48112" rx="1.64433" fill="#87AB49"/>
<rect x="264.308" y="37.7114" width="3.28867" height="9.86601" rx="1.64433" fill="#87AB49"/>
<rect x="270.715" y="34.4229" width="3.28867" height="13.1547" rx="1.64433" fill="#87AB49"/>
<g opacity="0.8">
<rect x="96.3567" y="73.3792" width="188.287" height="44.7817" rx="10.8468" fill="white"/>
<g clip-path="url(#clip2_239_2590)">
<path d="M130.61 105.948H110.956C110.763 105.948 110.605 105.708 110.605 105.412V86.1282C110.605 85.8324 110.763 85.5925 110.956 85.5925H130.61C130.804 85.5925 130.961 85.8324 130.961 86.1282V105.412C130.961 105.708 130.804 105.948 130.61 105.948Z" fill="#F5F5F5"/>
<path d="M130.961 87.1584H110.605V86.1282C110.605 85.8324 110.763 85.5925 110.956 85.5925H130.61C130.804 85.5925 130.961 85.8324 130.961 86.1282L130.961 87.1584Z" fill="#FF4B55"/>
<path d="M130.961 91.8557H110.605V93.4215H130.961V91.8557Z" fill="#FF4B55"/>
<path d="M130.961 88.7239H110.605V90.2897H130.961V88.7239Z" fill="#FF4B55"/>
<path d="M130.961 96.5532H110.956C110.763 96.5532 110.605 96.3133 110.605 96.0175V94.9873H130.961V96.5532Z" fill="#FF4B55"/>
<path d="M130.961 101.251H110.605V102.817H130.961V101.251Z" fill="#FF4B55"/>
<path d="M130.61 105.948H110.956C110.763 105.948 110.605 105.708 110.605 105.412V104.382H130.961V105.412C130.961 105.708 130.804 105.948 130.61 105.948Z" fill="#FF4B55"/>
<path d="M130.961 98.1194H110.605V99.6852H130.961V98.1194Z" fill="#FF4B55"/>
<path d="M119.73 85.5935H110.956C110.763 85.5935 110.605 85.8333 110.605 86.1291V96.0183C110.605 96.3141 110.763 96.554 110.956 96.554H119.73C119.924 96.554 120.081 96.3141 120.081 96.0183V86.1291C120.081 85.8333 119.924 85.5935 119.73 85.5935Z" fill="#41479B"/>
<path d="M111.591 86.8221L111.669 87.1777L111.914 87.1806C111.946 87.181 111.959 87.2429 111.934 87.2717L111.736 87.4944L111.81 87.8518C111.82 87.898 111.785 87.9364 111.759 87.9081L111.56 87.6902L111.36 87.9081C111.334 87.9364 111.3 87.8981 111.309 87.8518L111.383 87.4945L111.186 87.2718C111.16 87.2429 111.173 87.1811 111.205 87.1806L111.451 87.1778L111.528 86.8222C111.538 86.7761 111.581 86.7761 111.591 86.8221Z" fill="#F5F5F5"/>
<path d="M111.591 88.682L111.669 89.0375L111.914 89.0404C111.946 89.0408 111.959 89.1027 111.934 89.1315L111.736 89.3542L111.81 89.7116C111.82 89.7578 111.785 89.7962 111.759 89.7679L111.56 89.55L111.36 89.768C111.334 89.7962 111.3 89.7579 111.309 89.7116L111.383 89.3543L111.186 89.1316C111.16 89.1027 111.173 89.0409 111.205 89.0405L111.451 89.0376L111.528 88.682C111.538 88.636 111.581 88.636 111.591 88.682Z" fill="#F5F5F5"/>
<path d="M111.591 90.5421L111.669 90.8976L111.914 90.9005C111.946 90.9009 111.959 90.9628 111.934 90.9916L111.736 91.2143L111.81 91.5717C111.82 91.6179 111.785 91.6563 111.759 91.628L111.56 91.4101L111.36 91.6281C111.334 91.6563 111.3 91.618 111.309 91.5718L111.383 91.2144L111.186 90.9917C111.16 90.9628 111.173 90.901 111.205 90.9006L111.451 90.8977L111.528 90.5421C111.538 90.4961 111.581 90.4961 111.591 90.5421Z" fill="#F5F5F5"/>
<path d="M111.591 92.4025L111.669 92.758L111.914 92.7609C111.946 92.7613 111.959 92.8232 111.934 92.852L111.736 93.0747L111.81 93.4321C111.82 93.4783 111.785 93.5167 111.759 93.4884L111.56 93.2705L111.36 93.4885C111.334 93.5167 111.3 93.4784 111.309 93.4321L111.383 93.0748L111.186 92.8521C111.16 92.8232 111.173 92.7614 111.205 92.761L111.451 92.7581L111.528 92.4025C111.538 92.3564 111.581 92.3564 111.591 92.4025Z" fill="#F5F5F5"/>
<path d="M111.591 94.2624L111.669 94.618L111.914 94.6208C111.946 94.6212 111.959 94.6831 111.934 94.7119L111.736 94.9346L111.81 95.292C111.82 95.3382 111.785 95.3766 111.759 95.3483L111.56 95.1304L111.36 95.3484C111.334 95.3766 111.3 95.3383 111.309 95.2921L111.383 94.9347L111.186 94.712C111.16 94.6831 111.173 94.6213 111.205 94.6209L111.451 94.618L111.528 94.2624C111.538 94.2162 111.581 94.2162 111.591 94.2624Z" fill="#F5F5F5"/>
<path d="M112.537 87.734L112.615 88.0895L112.861 88.0924C112.892 88.0928 112.906 88.1547 112.88 88.1835L112.682 88.4062L112.757 88.7636C112.766 88.8098 112.732 88.8482 112.706 88.8199L112.506 88.6019L112.306 88.8199C112.28 88.8481 112.246 88.8098 112.255 88.7636L112.329 88.4062L112.132 88.1835C112.106 88.1547 112.119 88.0928 112.151 88.0924L112.397 88.0895L112.475 87.734C112.485 87.688 112.527 87.688 112.537 87.734Z" fill="#F5F5F5"/>
<path d="M112.537 89.5941L112.615 89.9497L112.861 89.9526C112.892 89.953 112.906 90.0149 112.88 90.0437L112.682 90.2664L112.757 90.6237C112.766 90.67 112.732 90.7083 112.706 90.6801L112.506 90.4621L112.306 90.6801C112.28 90.7083 112.246 90.67 112.255 90.6237L112.329 90.2664L112.132 90.0437C112.106 90.0148 112.119 89.953 112.151 89.9526L112.397 89.9497L112.475 89.5941C112.485 89.5481 112.527 89.5481 112.537 89.5941Z" fill="#F5F5F5"/>
<path d="M112.537 91.4542L112.615 91.8098L112.861 91.8127C112.892 91.8131 112.906 91.875 112.88 91.9038L112.682 92.1265L112.757 92.4838C112.766 92.5301 112.732 92.5684 112.706 92.5402L112.506 92.3222L112.306 92.5402C112.28 92.5684 112.246 92.5301 112.255 92.4838L112.329 92.1265L112.132 91.9038C112.106 91.8749 112.119 91.8131 112.151 91.8127L112.397 91.8098L112.475 91.4542C112.485 91.4082 112.527 91.4082 112.537 91.4542Z" fill="#F5F5F5"/>
<path d="M112.537 93.3143L112.615 93.6699L112.861 93.6727C112.892 93.6731 112.906 93.735 112.88 93.7639L112.682 93.9866L112.757 94.3439C112.766 94.3902 112.732 94.4285 112.706 94.4002L112.506 94.1823L112.306 94.4002C112.28 94.4284 112.246 94.3902 112.255 94.3439L112.329 93.9866L112.132 93.7639C112.106 93.735 112.119 93.6731 112.151 93.6727L112.397 93.6699L112.475 93.3143C112.485 93.2683 112.527 93.2683 112.537 93.3143Z" fill="#F5F5F5"/>
<path d="M113.483 86.8219L113.561 87.1775L113.807 87.1803C113.838 87.1808 113.852 87.2427 113.826 87.2715L113.628 87.4942L113.703 87.8515C113.712 87.8978 113.678 87.9361 113.652 87.9078L113.452 87.6899L113.252 87.9078C113.226 87.9361 113.192 87.8978 113.201 87.8515L113.275 87.4942L113.078 87.2715C113.052 87.2426 113.066 87.1808 113.097 87.1803L113.343 87.1775L113.421 86.8219C113.431 86.7758 113.473 86.7758 113.483 86.8219Z" fill="#F5F5F5"/>
<path d="M113.483 88.682L113.561 89.0375L113.807 89.0404C113.838 89.0408 113.852 89.1027 113.826 89.1315L113.628 89.3542L113.703 89.7116C113.712 89.7578 113.678 89.7962 113.652 89.7679L113.452 89.5499L113.252 89.7679C113.226 89.7961 113.192 89.7578 113.201 89.7116L113.275 89.3542L113.078 89.1315C113.052 89.1027 113.066 89.0408 113.097 89.0404L113.343 89.0375L113.421 88.682C113.431 88.636 113.473 88.636 113.483 88.682Z" fill="#F5F5F5"/>
<path d="M113.483 90.5421L113.561 90.8977L113.807 90.9005C113.838 90.9009 113.852 90.9628 113.826 90.9917L113.628 91.2144L113.703 91.5717C113.712 91.6179 113.678 91.6563 113.652 91.628L113.452 91.41L113.252 91.628C113.226 91.6562 113.192 91.6179 113.201 91.5717L113.275 91.2144L113.078 90.9917C113.052 90.9628 113.066 90.9009 113.097 90.9005L113.343 90.8977L113.421 90.5421C113.431 90.4961 113.473 90.4961 113.483 90.5421Z" fill="#F5F5F5"/>
<path d="M113.483 92.4022L113.561 92.7578L113.807 92.7607C113.838 92.7611 113.852 92.823 113.826 92.8518L113.628 93.0745L113.703 93.4318C113.712 93.4781 113.678 93.5164 113.652 93.4882L113.452 93.2702L113.252 93.4882C113.226 93.5164 113.192 93.4781 113.201 93.4318L113.275 93.0745L113.078 92.8518C113.052 92.8229 113.066 92.7611 113.097 92.7607L113.343 92.7578L113.421 92.4022C113.431 92.3562 113.473 92.3562 113.483 92.4022Z" fill="#F5F5F5"/>
<path d="M113.483 94.2624L113.561 94.618L113.807 94.6208C113.838 94.6212 113.852 94.6831 113.826 94.712L113.628 94.9347L113.703 95.292C113.712 95.3382 113.678 95.3766 113.652 95.3483L113.452 95.1303L113.252 95.3483C113.226 95.3765 113.192 95.3382 113.201 95.292L113.275 94.9347L113.078 94.712C113.052 94.6831 113.066 94.6212 113.097 94.6208L113.343 94.618L113.421 94.2624C113.431 94.2163 113.473 94.2163 113.483 94.2624Z" fill="#F5F5F5"/>
<path d="M114.429 87.734L114.506 88.0895L114.752 88.0924C114.784 88.0928 114.797 88.1547 114.771 88.1835L114.574 88.4062L114.648 88.7636C114.657 88.8098 114.623 88.8482 114.597 88.8199L114.397 88.6019L114.198 88.8199C114.172 88.8481 114.137 88.8098 114.147 88.7636L114.221 88.4062L114.023 88.1835C113.998 88.1547 114.011 88.0928 114.043 88.0924L114.288 88.0895L114.366 87.734C114.376 87.688 114.419 87.688 114.429 87.734Z" fill="#F5F5F5"/>
<path d="M114.429 89.5941L114.506 89.9497L114.752 89.9526C114.784 89.953 114.797 90.0149 114.771 90.0437L114.574 90.2664L114.648 90.6237C114.657 90.67 114.623 90.7083 114.597 90.6801L114.397 90.4621L114.198 90.6801C114.172 90.7083 114.137 90.67 114.147 90.6237L114.221 90.2664L114.023 90.0437C113.998 90.0148 114.011 89.953 114.043 89.9526L114.288 89.9497L114.366 89.5941C114.376 89.5481 114.419 89.5481 114.429 89.5941Z" fill="#F5F5F5"/>
<path d="M114.429 91.4542L114.506 91.8098L114.752 91.8127C114.784 91.8131 114.797 91.875 114.771 91.9038L114.574 92.1265L114.648 92.4838C114.657 92.5301 114.623 92.5684 114.597 92.5402L114.397 92.3222L114.198 92.5402C114.172 92.5684 114.137 92.5301 114.147 92.4838L114.221 92.1265L114.023 91.9038C113.998 91.8749 114.011 91.8131 114.043 91.8127L114.288 91.8098L114.366 91.4542C114.376 91.4082 114.419 91.4082 114.429 91.4542Z" fill="#F5F5F5"/>
<path d="M114.429 93.3143L114.506 93.6699L114.752 93.6727C114.784 93.6731 114.797 93.735 114.771 93.7639L114.574 93.9866L114.648 94.3439C114.657 94.3902 114.623 94.4285 114.597 94.4002L114.397 94.1823L114.198 94.4002C114.172 94.4284 114.137 94.3902 114.147 94.3439L114.221 93.9866L114.023 93.7639C113.998 93.735 114.011 93.6731 114.043 93.6727L114.288 93.6699L114.366 93.3143C114.376 93.2683 114.419 93.2683 114.429 93.3143Z" fill="#F5F5F5"/>
<path d="M115.375 86.8219L115.453 87.1775L115.698 87.1803C115.73 87.1808 115.743 87.2427 115.718 87.2715L115.52 87.4942L115.594 87.8515C115.604 87.8978 115.569 87.9361 115.543 87.9078L115.344 87.6899L115.144 87.9078C115.118 87.9361 115.083 87.8978 115.093 87.8515L115.167 87.4942L114.97 87.2715C114.944 87.2426 114.957 87.1808 114.989 87.1803L115.235 87.1775L115.312 86.8219C115.322 86.7758 115.365 86.7758 115.375 86.8219Z" fill="#F5F5F5"/>
<path d="M115.375 88.682L115.453 89.0375L115.698 89.0404C115.73 89.0408 115.743 89.1027 115.718 89.1315L115.52 89.3542L115.594 89.7116C115.604 89.7578 115.569 89.7962 115.543 89.7679L115.344 89.5499L115.144 89.7679C115.118 89.7961 115.083 89.7578 115.093 89.7116L115.167 89.3542L114.97 89.1315C114.944 89.1027 114.957 89.0408 114.989 89.0404L115.235 89.0375L115.312 88.682C115.322 88.636 115.365 88.636 115.375 88.682Z" fill="#F5F5F5"/>
<path d="M115.375 90.5421L115.453 90.8977L115.698 90.9005C115.73 90.9009 115.743 90.9628 115.718 90.9917L115.52 91.2144L115.594 91.5717C115.604 91.6179 115.569 91.6563 115.543 91.628L115.344 91.41L115.144 91.628C115.118 91.6562 115.083 91.6179 115.093 91.5717L115.167 91.2144L114.97 90.9917C114.944 90.9628 114.957 90.9009 114.989 90.9005L115.235 90.8977L115.312 90.5421C115.322 90.4961 115.365 90.4961 115.375 90.5421Z" fill="#F5F5F5"/>
<path d="M115.375 92.4022L115.453 92.7578L115.698 92.7607C115.73 92.7611 115.743 92.823 115.718 92.8518L115.52 93.0745L115.594 93.4318C115.604 93.4781 115.569 93.5164 115.543 93.4882L115.344 93.2702L115.144 93.4882C115.118 93.5164 115.083 93.4781 115.093 93.4318L115.167 93.0745L114.97 92.8518C114.944 92.8229 114.957 92.7611 114.989 92.7607L115.235 92.7578L115.312 92.4022C115.322 92.3562 115.365 92.3562 115.375 92.4022Z" fill="#F5F5F5"/>
<path d="M115.375 94.2624L115.453 94.618L115.698 94.6208C115.73 94.6212 115.743 94.6831 115.718 94.712L115.52 94.9347L115.594 95.292C115.604 95.3382 115.569 95.3766 115.543 95.3483L115.344 95.1303L115.144 95.3483C115.118 95.3765 115.083 95.3382 115.093 95.292L115.167 94.9347L114.97 94.712C114.944 94.6831 114.957 94.6212 114.989 94.6208L115.235 94.618L115.312 94.2624C115.322 94.2163 115.365 94.2163 115.375 94.2624Z" fill="#F5F5F5"/>
<path d="M116.321 87.734L116.399 88.0895L116.644 88.0924C116.676 88.0928 116.689 88.1547 116.664 88.1835L116.466 88.4062L116.54 88.7636C116.55 88.8098 116.515 88.8482 116.489 88.8199L116.29 88.6019L116.09 88.8199C116.064 88.8481 116.029 88.8098 116.039 88.7636L116.113 88.4062L115.916 88.1835C115.89 88.1547 115.903 88.0928 115.935 88.0924L116.181 88.0895L116.258 87.734C116.268 87.688 116.311 87.688 116.321 87.734Z" fill="#F5F5F5"/>
<path d="M116.321 89.5941L116.399 89.9497L116.644 89.9526C116.676 89.953 116.689 90.0149 116.664 90.0437L116.466 90.2664L116.54 90.6237C116.55 90.67 116.515 90.7083 116.489 90.6801L116.29 90.4621L116.09 90.6801C116.064 90.7083 116.029 90.67 116.039 90.6237L116.113 90.2664L115.916 90.0437C115.89 90.0148 115.903 89.953 115.935 89.9526L116.181 89.9497L116.258 89.5941C116.268 89.5481 116.311 89.5481 116.321 89.5941Z" fill="#F5F5F5"/>
<path d="M116.321 91.4542L116.399 91.8098L116.644 91.8127C116.676 91.8131 116.689 91.875 116.664 91.9038L116.466 92.1265L116.54 92.4838C116.55 92.5301 116.515 92.5684 116.489 92.5402L116.29 92.3222L116.09 92.5402C116.064 92.5684 116.029 92.5301 116.039 92.4838L116.113 92.1265L115.916 91.9038C115.89 91.8749 115.903 91.8131 115.935 91.8127L116.181 91.8098L116.258 91.4542C116.268 91.4082 116.311 91.4082 116.321 91.4542Z" fill="#F5F5F5"/>
<path d="M116.321 93.3143L116.399 93.6699L116.644 93.6727C116.676 93.6731 116.689 93.735 116.664 93.7639L116.466 93.9866L116.54 94.3439C116.55 94.3902 116.515 94.4285 116.489 94.4002L116.29 94.1823L116.09 94.4002C116.064 94.4284 116.029 94.3902 116.039 94.3439L116.113 93.9866L115.916 93.7639C115.89 93.735 115.903 93.6731 115.935 93.6727L116.181 93.6699L116.258 93.3143C116.268 93.2683 116.311 93.2683 116.321 93.3143Z" fill="#F5F5F5"/>
<path d="M117.266 86.8219L117.344 87.1775L117.59 87.1803C117.621 87.1808 117.635 87.2427 117.609 87.2715L117.411 87.4942L117.486 87.8515C117.495 87.8978 117.461 87.9361 117.435 87.9078L117.235 87.6899L117.035 87.9078C117.009 87.9361 116.975 87.8978 116.984 87.8515L117.058 87.4942L116.861 87.2715C116.835 87.2426 116.848 87.1808 116.88 87.1803L117.126 87.1775L117.204 86.8219C117.214 86.7758 117.256 86.7758 117.266 86.8219Z" fill="#F5F5F5"/>
<path d="M117.266 88.682L117.344 89.0375L117.59 89.0404C117.621 89.0408 117.635 89.1027 117.609 89.1315L117.411 89.3542L117.486 89.7116C117.495 89.7578 117.461 89.7962 117.435 89.7679L117.235 89.5499L117.035 89.7679C117.009 89.7961 116.975 89.7578 116.984 89.7116L117.058 89.3542L116.861 89.1315C116.835 89.1027 116.848 89.0408 116.88 89.0404L117.126 89.0375L117.204 88.682C117.214 88.636 117.256 88.636 117.266 88.682Z" fill="#F5F5F5"/>
<path d="M117.266 90.5421L117.344 90.8977L117.59 90.9005C117.621 90.9009 117.635 90.9628 117.609 90.9917L117.411 91.2144L117.486 91.5717C117.495 91.6179 117.461 91.6563 117.435 91.628L117.235 91.41L117.035 91.628C117.009 91.6562 116.975 91.6179 116.984 91.5717L117.058 91.2144L116.861 90.9917C116.835 90.9628 116.848 90.9009 116.88 90.9005L117.126 90.8977L117.204 90.5421C117.214 90.4961 117.256 90.4961 117.266 90.5421Z" fill="#F5F5F5"/>
<path d="M117.266 92.4022L117.344 92.7578L117.59 92.7607C117.621 92.7611 117.635 92.823 117.609 92.8518L117.411 93.0745L117.486 93.4318C117.495 93.4781 117.461 93.5164 117.435 93.4882L117.235 93.2702L117.035 93.4882C117.009 93.5164 116.975 93.4781 116.984 93.4318L117.058 93.0745L116.861 92.8518C116.835 92.8229 116.848 92.7611 116.88 92.7607L117.126 92.7578L117.204 92.4022C117.214 92.3562 117.256 92.3562 117.266 92.4022Z" fill="#F5F5F5"/>
<path d="M117.266 94.2624L117.344 94.618L117.59 94.6208C117.621 94.6212 117.635 94.6831 117.609 94.712L117.411 94.9347L117.486 95.292C117.495 95.3382 117.461 95.3766 117.435 95.3483L117.235 95.1303L117.035 95.3483C117.009 95.3765 116.975 95.3382 116.984 95.292L117.058 94.9347L116.861 94.712C116.835 94.6831 116.848 94.6212 116.88 94.6208L117.126 94.618L117.204 94.2624C117.214 94.2163 117.256 94.2163 117.266 94.2624Z" fill="#F5F5F5"/>
<path d="M118.213 87.734L118.29 88.0895L118.536 88.0924C118.568 88.0928 118.581 88.1547 118.555 88.1835L118.358 88.4062L118.432 88.7636C118.441 88.8098 118.407 88.8482 118.381 88.8199L118.181 88.6019L117.981 88.8199C117.956 88.8481 117.921 88.8098 117.931 88.7636L118.005 88.4062L117.807 88.1835C117.782 88.1547 117.795 88.0928 117.827 88.0924L118.072 88.0895L118.15 87.734C118.16 87.688 118.203 87.688 118.213 87.734Z" fill="#F5F5F5"/>
<path d="M118.213 89.5941L118.29 89.9497L118.536 89.9526C118.568 89.953 118.581 90.0149 118.555 90.0437L118.358 90.2664L118.432 90.6237C118.441 90.67 118.407 90.7083 118.381 90.6801L118.181 90.4621L117.981 90.6801C117.956 90.7083 117.921 90.67 117.931 90.6237L118.005 90.2664L117.807 90.0437C117.782 90.0148 117.795 89.953 117.827 89.9526L118.072 89.9497L118.15 89.5941C118.16 89.5481 118.203 89.5481 118.213 89.5941Z" fill="#F5F5F5"/>
<path d="M118.213 91.4542L118.29 91.8098L118.536 91.8127C118.568 91.8131 118.581 91.875 118.555 91.9038L118.358 92.1265L118.432 92.4838C118.441 92.5301 118.407 92.5684 118.381 92.5402L118.181 92.3222L117.981 92.5402C117.956 92.5684 117.921 92.5301 117.931 92.4838L118.005 92.1265L117.807 91.9038C117.782 91.8749 117.795 91.8131 117.827 91.8127L118.072 91.8098L118.15 91.4542C118.16 91.4082 118.203 91.4082 118.213 91.4542Z" fill="#F5F5F5"/>
<path d="M118.213 93.3145L118.29 93.6701L118.536 93.673C118.568 93.6734 118.581 93.7353 118.555 93.7641L118.358 93.9868L118.432 94.3442C118.441 94.3904 118.407 94.4288 118.381 94.4005L118.181 94.1825L117.981 94.4005C117.956 94.4287 117.921 94.3904 117.931 94.3442L118.005 93.9868L117.807 93.7641C117.782 93.7352 117.795 93.6734 117.827 93.673L118.072 93.6701L118.15 93.3145C118.16 93.2685 118.203 93.2685 118.213 93.3145Z" fill="#F5F5F5"/>
<path d="M119.158 86.8219L119.236 87.1775L119.482 87.1803C119.513 87.1808 119.527 87.2427 119.501 87.2715L119.303 87.4942L119.378 87.8515C119.387 87.8978 119.353 87.9361 119.327 87.9078L119.127 87.6899L118.927 87.9078C118.901 87.9361 118.867 87.8978 118.876 87.8515L118.951 87.4942L118.753 87.2715C118.727 87.2426 118.741 87.1808 118.772 87.1803L119.018 87.1775L119.096 86.8219C119.106 86.7758 119.148 86.7758 119.158 86.8219Z" fill="#F5F5F5"/>
<path d="M119.158 88.682L119.236 89.0375L119.482 89.0404C119.513 89.0408 119.527 89.1027 119.501 89.1315L119.303 89.3542L119.378 89.7116C119.387 89.7578 119.353 89.7962 119.327 89.7679L119.127 89.5499L118.927 89.7679C118.901 89.7961 118.867 89.7578 118.876 89.7116L118.951 89.3542L118.753 89.1315C118.727 89.1027 118.741 89.0408 118.772 89.0404L119.018 89.0375L119.096 88.682C119.106 88.636 119.148 88.636 119.158 88.682Z" fill="#F5F5F5"/>
<path d="M119.158 90.5421L119.236 90.8977L119.482 90.9005C119.513 90.9009 119.527 90.9628 119.501 90.9917L119.303 91.2144L119.378 91.5717C119.387 91.6179 119.353 91.6563 119.327 91.628L119.127 91.41L118.927 91.628C118.901 91.6562 118.867 91.6179 118.876 91.5717L118.951 91.2144L118.753 90.9917C118.727 90.9628 118.741 90.9009 118.772 90.9005L119.018 90.8977L119.096 90.5421C119.106 90.4961 119.148 90.4961 119.158 90.5421Z" fill="#F5F5F5"/>
<path d="M119.158 92.4022L119.236 92.7578L119.482 92.7607C119.513 92.7611 119.527 92.823 119.501 92.8518L119.303 93.0745L119.378 93.4318C119.387 93.4781 119.353 93.5164 119.327 93.4882L119.127 93.2702L118.927 93.4882C118.901 93.5164 118.867 93.4781 118.876 93.4318L118.951 93.0745L118.753 92.8518C118.727 92.8229 118.741 92.7611 118.772 92.7607L119.018 92.7578L119.096 92.4022C119.106 92.3562 119.148 92.3562 119.158 92.4022Z" fill="#F5F5F5"/>
<path d="M119.158 94.2624L119.236 94.618L119.482 94.6208C119.513 94.6212 119.527 94.6831 119.501 94.712L119.303 94.9347L119.378 95.292C119.387 95.3382 119.353 95.3766 119.327 95.3483L119.127 95.1303L118.927 95.3483C118.901 95.3765 118.867 95.3382 118.876 95.292L118.951 94.9347L118.753 94.712C118.727 94.6831 118.741 94.6212 118.772 94.6208L119.018 94.618L119.096 94.2624C119.106 94.2163 119.148 94.2163 119.158 94.2624Z" fill="#F5F5F5"/>
</g>
<path d="M145.133 101.392C143.729 101.392 142.624 100.99 141.82 100.186C141.016 99.3823 140.614 98.2068 140.614 96.6598V90.5837H142.141V96.5987C142.141 97.7895 142.401 98.6597 142.92 99.2093C143.449 99.7589 144.192 100.034 145.149 100.034C146.115 100.034 146.858 99.7589 147.377 99.2093C147.907 98.6597 148.171 97.7895 148.171 96.5987V90.5837H149.652V96.6598C149.652 98.2068 149.25 99.3823 148.446 100.186C147.652 100.99 146.548 101.392 145.133 101.392ZM155.896 101.392C155.082 101.392 154.304 101.27 153.561 101.026C152.818 100.772 152.232 100.446 151.805 100.049L152.37 98.8582C152.777 99.2144 153.296 99.5095 153.927 99.7436C154.558 99.9777 155.215 100.095 155.896 100.095C156.517 100.095 157.021 100.023 157.408 99.881C157.795 99.7385 158.08 99.5451 158.263 99.3009C158.446 99.0464 158.538 98.7615 158.538 98.446C158.538 98.0796 158.415 97.7844 158.171 97.5605C157.937 97.3366 157.627 97.1585 157.24 97.0262C156.863 96.8837 156.446 96.7616 155.988 96.6598C155.53 96.558 155.067 96.441 154.599 96.3087C154.141 96.1662 153.718 95.9881 153.332 95.7743C152.955 95.5606 152.65 95.2756 152.416 94.9194C152.182 94.553 152.065 94.0848 152.065 93.5149C152.065 92.9653 152.207 92.4615 152.492 92.0035C152.787 91.5353 153.235 91.1638 153.835 90.889C154.446 90.6041 155.22 90.4616 156.156 90.4616C156.777 90.4616 157.393 90.543 158.003 90.7058C158.614 90.8687 159.143 91.1028 159.591 91.4081L159.087 92.6294C158.629 92.3241 158.146 92.1053 157.637 91.973C157.128 91.8305 156.634 91.7592 156.156 91.7592C155.555 91.7592 155.062 91.8356 154.675 91.9882C154.288 92.1409 154.003 92.3445 153.82 92.5989C153.647 92.8533 153.561 93.1383 153.561 93.4538C153.561 93.8304 153.678 94.1306 153.912 94.3545C154.156 94.5785 154.466 94.7566 154.843 94.8889C155.23 95.0212 155.652 95.1433 156.11 95.2553C156.568 95.357 157.026 95.4741 157.484 95.6064C157.952 95.7387 158.375 95.9117 158.751 96.1255C159.138 96.3392 159.448 96.6242 159.683 96.9804C159.917 97.3366 160.034 97.7946 160.034 98.3544C160.034 98.8938 159.886 99.3976 159.591 99.8657C159.296 100.324 158.838 100.695 158.217 100.98C157.606 101.255 156.833 101.392 155.896 101.392ZM160.646 101.27L165.485 90.5837H166.997L171.851 101.27H170.248L165.928 91.4386H166.539L162.218 101.27H160.646ZM162.707 98.5986L163.119 97.3773H169.134L169.577 98.5986H162.707Z" fill="#5A78A6"/>
<rect x="253.223" y="96.3972" width="3.0533" height="5.08883" rx="1.52665" fill="#87AB49"/>
<rect x="259.17" y="92.3262" width="3.0533" height="9.1599" rx="1.52665" fill="#87AB49"/>
<rect x="265.119" y="89.2727" width="3.0533" height="12.2132" rx="1.52665" fill="#87AB49"/>
</g>
<g opacity="0.6">
<rect x="108.798" y="126.306" width="163.403" height="38.8635" rx="9.41331" fill="white"/>
<g clip-path="url(#clip3_239_2590)">
<path d="M116.73 136.906H143.299V154.618H116.73V136.906Z" fill="#000066"/>
<path d="M116.73 136.906V138.886L140.329 154.618H143.299V152.638L119.7 136.906H116.73ZM143.299 136.906V138.886L119.7 154.618H116.73V152.638L140.329 136.906H143.299Z" fill="white"/>
<path d="M127.8 136.906V154.618H132.229V136.906H127.8ZM116.73 142.81V148.714H143.299V142.81H116.73Z" fill="white"/>
<path d="M116.73 143.991V147.533H143.299V143.991H116.73ZM128.686 136.906V154.618H131.343V136.906H128.686ZM116.73 154.618L125.586 148.714H127.567L118.71 154.618H116.73ZM116.73 136.906L125.586 142.81H123.606L116.73 138.226V136.906ZM132.462 142.81L141.319 136.906H143.299L134.443 142.81H132.462ZM143.299 154.618L134.443 148.714H136.423L143.299 153.298V154.618Z" fill="#CC0000"/>
</g>
<path d="M151.129 150.844C149.91 150.844 148.951 150.495 148.254 149.797C147.556 149.1 147.207 148.079 147.207 146.737V141.464H148.532V146.684C148.532 147.717 148.757 148.472 149.207 148.949C149.667 149.426 150.312 149.665 151.142 149.665C151.981 149.665 152.626 149.426 153.076 148.949C153.535 148.472 153.765 147.717 153.765 146.684V141.464H155.05V146.737C155.05 148.079 154.701 149.1 154.004 149.797C153.315 150.495 152.356 150.844 151.129 150.844ZM158.932 148.499L158.866 146.883L164.126 141.464H165.636L161.569 145.756L160.827 146.578L158.932 148.499ZM157.767 150.738V141.464H159.091V150.738H157.767ZM164.338 150.738L160.536 146.313L161.423 145.332L165.888 150.738H164.338Z" fill="#5A78A6"/>
<rect x="244.916" y="146.19" width="2.64978" height="4.41631" rx="1.32489" fill="#87AB49"/>
<rect x="250.077" y="142.657" width="2.64978" height="7.94935" rx="1.32489" fill="#87AB49"/>
<rect x="255.24" y="140.007" width="2.64978" height="10.5991" rx="1.32489" fill="#87AB49"/>
</g>
<g opacity="0.4">
<rect x="119" y="173.315" width="143" height="34.0108" rx="8.23792" fill="white"/>
<g clip-path="url(#clip4_239_2590)">
<path d="M130.302 193.009C131.394 195.953 134.228 198.05 137.551 198.05C140.875 198.05 143.708 195.953 144.8 193.009L137.551 192.337L130.302 193.009Z" fill="#FFDA44"/>
<path d="M137.551 182.591C134.228 182.591 131.394 184.689 130.302 187.632L137.551 188.304L144.8 187.632C143.708 184.689 140.875 182.591 137.551 182.591Z" fill="black"/>
<path d="M130.302 187.632C129.992 188.469 129.822 189.375 129.822 190.321C129.822 191.266 129.992 192.172 130.302 193.009H144.8C145.111 192.172 145.281 191.266 145.281 190.321C145.281 189.375 145.111 188.469 144.8 187.632H130.302Z" fill="#D80027"/>
</g>
<path d="M156.346 194.414C155.72 194.414 155.144 194.313 154.619 194.112C154.093 193.903 153.637 193.614 153.25 193.243C152.864 192.864 152.562 192.423 152.346 191.921C152.13 191.418 152.021 190.866 152.021 190.263C152.021 189.66 152.13 189.107 152.346 188.605C152.562 188.102 152.864 187.666 153.25 187.294C153.645 186.916 154.105 186.626 154.63 186.425C155.156 186.216 155.736 186.112 156.369 186.112C157.011 186.112 157.598 186.216 158.132 186.425C158.665 186.634 159.117 186.947 159.488 187.364L158.769 188.083C158.437 187.758 158.074 187.523 157.68 187.376C157.293 187.221 156.872 187.144 156.416 187.144C155.952 187.144 155.519 187.221 155.117 187.376C154.723 187.53 154.379 187.747 154.085 188.025C153.799 188.303 153.575 188.636 153.413 189.022C153.258 189.401 153.181 189.814 153.181 190.263C153.181 190.703 153.258 191.117 153.413 191.503C153.575 191.882 153.799 192.214 154.085 192.5C154.379 192.779 154.723 192.995 155.117 193.15C155.511 193.304 155.94 193.382 156.404 193.382C156.837 193.382 157.251 193.316 157.645 193.185C158.047 193.045 158.418 192.817 158.758 192.5L159.419 193.382C159.017 193.722 158.545 193.981 158.004 194.158C157.471 194.329 156.918 194.414 156.346 194.414ZM158.306 193.231V190.216H159.419V193.382L158.306 193.231ZM164.213 194.39C163.556 194.39 162.976 194.255 162.473 193.985C161.979 193.714 161.592 193.343 161.314 192.871C161.043 192.4 160.908 191.859 160.908 191.248C160.908 190.638 161.04 190.097 161.302 189.625C161.573 189.153 161.94 188.786 162.404 188.524C162.875 188.253 163.405 188.118 163.992 188.118C164.588 188.118 165.113 188.249 165.569 188.512C166.025 188.775 166.381 189.146 166.636 189.625C166.899 190.097 167.03 190.649 167.03 191.283C167.03 191.329 167.026 191.384 167.019 191.445C167.019 191.507 167.015 191.565 167.007 191.619H161.778V190.819H166.427L165.975 191.098C165.983 190.703 165.902 190.352 165.732 190.042C165.561 189.733 165.326 189.494 165.024 189.324C164.731 189.146 164.387 189.057 163.992 189.057C163.606 189.057 163.262 189.146 162.96 189.324C162.659 189.494 162.423 189.737 162.253 190.054C162.083 190.363 161.998 190.719 161.998 191.121V191.306C161.998 191.716 162.091 192.083 162.276 192.408C162.47 192.725 162.736 192.972 163.076 193.15C163.416 193.328 163.807 193.416 164.247 193.416C164.611 193.416 164.939 193.355 165.233 193.231C165.534 193.107 165.797 192.922 166.021 192.674L166.636 193.393C166.358 193.718 166.01 193.965 165.592 194.135C165.183 194.305 164.723 194.39 164.213 194.39ZM168.576 194.321V188.176H169.642V189.845L169.538 189.428C169.708 189.003 169.994 188.678 170.396 188.454C170.798 188.23 171.293 188.118 171.88 188.118V189.196C171.834 189.188 171.787 189.184 171.741 189.184C171.702 189.184 171.664 189.184 171.625 189.184C171.03 189.184 170.558 189.362 170.211 189.718C169.863 190.073 169.689 190.587 169.689 191.26V194.321H168.576ZM180.939 188.118C181.434 188.118 181.871 188.214 182.249 188.408C182.628 188.601 182.922 188.895 183.131 189.289C183.347 189.683 183.455 190.182 183.455 190.784V194.321H182.342V190.912C182.342 190.317 182.203 189.868 181.925 189.567C181.647 189.266 181.256 189.115 180.754 189.115C180.383 189.115 180.058 189.192 179.78 189.347C179.502 189.501 179.285 189.729 179.131 190.031C178.984 190.332 178.91 190.707 178.91 191.155V194.321H177.797V190.912C177.797 190.317 177.658 189.868 177.38 189.567C177.109 189.266 176.719 189.115 176.209 189.115C175.845 189.115 175.525 189.192 175.246 189.347C174.968 189.501 174.752 189.729 174.597 190.031C174.442 190.332 174.365 190.707 174.365 191.155V194.321H173.252V188.176H174.319V189.811L174.145 189.393C174.338 188.991 174.636 188.678 175.038 188.454C175.44 188.23 175.907 188.118 176.441 188.118C177.028 188.118 177.534 188.265 177.959 188.558C178.385 188.844 178.663 189.281 178.794 189.868L178.342 189.683C178.528 189.211 178.852 188.833 179.316 188.547C179.78 188.261 180.321 188.118 180.939 188.118ZM189.318 194.321V193.022L189.26 192.779V190.564C189.26 190.093 189.121 189.729 188.843 189.474C188.572 189.211 188.162 189.08 187.614 189.08C187.25 189.08 186.895 189.142 186.547 189.266C186.199 189.382 185.905 189.54 185.666 189.741L185.202 188.906C185.519 188.651 185.898 188.458 186.338 188.326C186.787 188.187 187.254 188.118 187.741 188.118C188.584 188.118 189.233 188.323 189.689 188.732C190.145 189.142 190.373 189.768 190.373 190.611V194.321H189.318ZM187.301 194.39C186.845 194.39 186.443 194.313 186.095 194.158C185.755 194.004 185.492 193.791 185.306 193.521C185.121 193.243 185.028 192.929 185.028 192.582C185.028 192.249 185.105 191.948 185.26 191.677C185.422 191.407 185.681 191.19 186.037 191.028C186.4 190.866 186.887 190.784 187.498 190.784H189.446V191.584H187.544C186.988 191.584 186.613 191.677 186.419 191.863C186.226 192.048 186.13 192.272 186.13 192.535C186.13 192.837 186.249 193.08 186.489 193.266C186.729 193.443 187.061 193.532 187.486 193.532C187.903 193.532 188.267 193.44 188.576 193.254C188.893 193.069 189.121 192.798 189.26 192.442L189.48 193.208C189.333 193.571 189.075 193.861 188.704 194.077C188.332 194.286 187.865 194.39 187.301 194.39ZM195.714 188.118C196.217 188.118 196.657 188.214 197.036 188.408C197.423 188.601 197.724 188.895 197.94 189.289C198.157 189.683 198.265 190.182 198.265 190.784V194.321H197.152V190.912C197.152 190.317 197.005 189.868 196.711 189.567C196.425 189.266 196.02 189.115 195.494 189.115C195.1 189.115 194.756 189.192 194.462 189.347C194.168 189.501 193.94 189.729 193.778 190.031C193.623 190.332 193.546 190.707 193.546 191.155V194.321H192.433V188.176H193.5V189.834L193.326 189.393C193.527 188.991 193.836 188.678 194.253 188.454C194.671 188.23 195.158 188.118 195.714 188.118ZM200.478 196.64C200.185 196.64 199.899 196.589 199.62 196.489C199.342 196.396 199.103 196.257 198.902 196.072L199.377 195.237C199.532 195.384 199.702 195.496 199.887 195.573C200.073 195.65 200.27 195.689 200.478 195.689C200.749 195.689 200.973 195.619 201.151 195.48C201.329 195.341 201.495 195.094 201.65 194.738L202.032 193.892L202.148 193.753L204.56 188.176H205.65L202.67 194.935C202.492 195.368 202.291 195.708 202.067 195.956C201.85 196.203 201.611 196.377 201.348 196.477C201.085 196.586 200.795 196.64 200.478 196.64ZM201.939 194.518L199.133 188.176H200.293L202.681 193.648L201.939 194.518Z" fill="#5A78A6"/>
<rect x="238.744" y="191.088" width="2.31892" height="3.86487" rx="1.15946" fill="#87AB49"/>
<rect x="243.261" y="187.996" width="2.31892" height="6.95676" rx="1.15946" fill="#87AB49"/>
<rect x="247.779" y="185.677" width="2.31892" height="9.27568" rx="1.15946" fill="#87AB49"/>
</g>
<g opacity="0.2">
<rect x="133" y="215.471" width="115" height="27.3514" rx="6.6249" fill="white"/>
<g clip-path="url(#clip5_239_2590)">
<path d="M154.135 229.147C154.135 228.387 153.998 227.658 153.748 226.985L147.919 226.715L142.089 226.985C141.839 227.658 141.703 228.387 141.703 229.147C141.703 229.907 141.839 230.636 142.089 231.309L147.919 231.579L153.748 231.309C153.998 230.636 154.135 229.907 154.135 229.147Z" fill="white"/>
<path d="M142.089 226.985H153.749C152.87 224.618 150.592 222.931 147.919 222.931C145.246 222.931 142.968 224.618 142.089 226.985Z" fill="#AE1C28"/>
</g>
<path d="M160.087 232.647V226.12H160.852L165.169 231.482H164.768V226.12H165.7V232.647H164.936L160.619 227.286H161.02V232.647H160.087ZM169.724 232.703C169.196 232.703 168.73 232.594 168.325 232.377C167.928 232.159 167.617 231.861 167.393 231.482C167.175 231.102 167.067 230.667 167.067 230.176C167.067 229.685 167.172 229.25 167.384 228.871C167.601 228.492 167.897 228.196 168.27 227.985C168.649 227.767 169.075 227.659 169.547 227.659C170.026 227.659 170.448 227.764 170.815 227.976C171.182 228.187 171.468 228.485 171.673 228.871C171.884 229.25 171.99 229.695 171.99 230.204C171.99 230.242 171.987 230.285 171.981 230.335C171.981 230.385 171.977 230.431 171.971 230.475H167.766V229.831H171.505L171.141 230.055C171.148 229.738 171.082 229.455 170.946 229.207C170.809 228.958 170.619 228.765 170.377 228.628C170.141 228.485 169.864 228.414 169.547 228.414C169.236 228.414 168.96 228.485 168.717 228.628C168.475 228.765 168.285 228.961 168.148 229.216C168.012 229.465 167.943 229.75 167.943 230.074V230.223C167.943 230.552 168.018 230.848 168.167 231.109C168.322 231.364 168.537 231.562 168.81 231.705C169.084 231.848 169.398 231.92 169.752 231.92C170.044 231.92 170.308 231.87 170.545 231.771C170.787 231.671 170.998 231.522 171.179 231.323L171.673 231.901C171.449 232.162 171.169 232.361 170.834 232.498C170.504 232.635 170.134 232.703 169.724 232.703ZM174.93 232.703C174.433 232.703 174.047 232.57 173.774 232.302C173.5 232.035 173.363 231.653 173.363 231.155V226.624H174.259V231.118C174.259 231.385 174.324 231.59 174.454 231.733C174.591 231.876 174.784 231.948 175.033 231.948C175.312 231.948 175.545 231.87 175.732 231.715L176.012 232.358C175.875 232.476 175.71 232.563 175.517 232.619C175.331 232.675 175.135 232.703 174.93 232.703ZM172.524 228.442V227.705H175.676V228.442H172.524ZM179.733 227.659C180.137 227.659 180.491 227.736 180.796 227.892C181.106 228.047 181.349 228.283 181.523 228.6C181.697 228.917 181.784 229.318 181.784 229.803V232.647H180.889V229.906C180.889 229.427 180.771 229.067 180.534 228.824C180.304 228.582 179.978 228.461 179.555 228.461C179.238 228.461 178.962 228.523 178.726 228.647C178.489 228.771 178.306 228.955 178.175 229.197C178.051 229.44 177.989 229.741 177.989 230.102V232.647H177.094V225.729H177.989V229.039L177.812 228.684C177.973 228.361 178.222 228.109 178.558 227.929C178.893 227.749 179.285 227.659 179.733 227.659ZM185.641 232.703C185.113 232.703 184.646 232.594 184.242 232.377C183.845 232.159 183.534 231.861 183.31 231.482C183.092 231.102 182.984 230.667 182.984 230.176C182.984 229.685 183.089 229.25 183.301 228.871C183.518 228.492 183.813 228.196 184.186 227.985C184.566 227.767 184.991 227.659 185.464 227.659C185.943 227.659 186.365 227.764 186.732 227.976C187.099 228.187 187.385 228.485 187.59 228.871C187.801 229.25 187.907 229.695 187.907 230.204C187.907 230.242 187.904 230.285 187.898 230.335C187.898 230.385 187.894 230.431 187.888 230.475H183.683V229.831H187.422L187.058 230.055C187.065 229.738 186.999 229.455 186.863 229.207C186.726 228.958 186.536 228.765 186.294 228.628C186.058 228.485 185.781 228.414 185.464 228.414C185.153 228.414 184.876 228.485 184.634 228.628C184.392 228.765 184.202 228.961 184.065 229.216C183.928 229.465 183.86 229.75 183.86 230.074V230.223C183.86 230.552 183.935 230.848 184.084 231.109C184.239 231.364 184.454 231.562 184.727 231.705C185.001 231.848 185.315 231.92 185.669 231.92C185.961 231.92 186.225 231.87 186.462 231.771C186.704 231.671 186.915 231.522 187.096 231.323L187.59 231.901C187.366 232.162 187.086 232.361 186.751 232.498C186.421 232.635 186.051 232.703 185.641 232.703ZM189.15 232.647V227.705H190.008V229.048L189.924 228.712C190.06 228.37 190.29 228.109 190.614 227.929C190.937 227.749 191.335 227.659 191.807 227.659V228.526C191.77 228.52 191.733 228.517 191.695 228.517C191.664 228.517 191.633 228.517 191.602 228.517C191.123 228.517 190.744 228.66 190.465 228.945C190.185 229.231 190.045 229.645 190.045 230.186V232.647H189.15ZM192.911 232.647V225.729H193.806V232.647H192.911ZM198.582 232.647V231.603L198.536 231.407V229.626C198.536 229.247 198.424 228.955 198.2 228.75C197.983 228.538 197.653 228.433 197.212 228.433C196.92 228.433 196.634 228.482 196.354 228.582C196.074 228.675 195.838 228.802 195.645 228.964L195.272 228.293C195.527 228.088 195.832 227.932 196.186 227.827C196.547 227.715 196.923 227.659 197.314 227.659C197.992 227.659 198.514 227.823 198.881 228.153C199.248 228.482 199.431 228.986 199.431 229.663V232.647H198.582ZM196.96 232.703C196.593 232.703 196.27 232.641 195.99 232.517C195.717 232.392 195.505 232.221 195.356 232.004C195.207 231.78 195.132 231.528 195.132 231.249C195.132 230.981 195.195 230.739 195.319 230.521C195.449 230.304 195.658 230.13 195.944 229.999C196.236 229.869 196.627 229.803 197.119 229.803H198.685V230.447H197.156C196.708 230.447 196.407 230.521 196.251 230.67C196.096 230.82 196.018 231 196.018 231.211C196.018 231.454 196.115 231.65 196.307 231.799C196.5 231.942 196.767 232.013 197.109 232.013C197.445 232.013 197.737 231.939 197.986 231.789C198.241 231.64 198.424 231.423 198.536 231.137L198.713 231.752C198.595 232.044 198.387 232.277 198.088 232.451C197.79 232.619 197.414 232.703 196.96 232.703ZM203.726 227.659C204.13 227.659 204.485 227.736 204.789 227.892C205.1 228.047 205.343 228.283 205.517 228.6C205.691 228.917 205.778 229.318 205.778 229.803V232.647H204.883V229.906C204.883 229.427 204.764 229.067 204.528 228.824C204.298 228.582 203.972 228.461 203.549 228.461C203.232 228.461 202.955 228.523 202.719 228.647C202.483 228.771 202.3 228.955 202.169 229.197C202.045 229.44 201.983 229.741 201.983 230.102V232.647H201.088V227.705H201.945V229.039L201.805 228.684C201.967 228.361 202.216 228.109 202.551 227.929C202.887 227.749 203.279 227.659 203.726 227.659ZM209.476 232.703C208.998 232.703 208.569 232.597 208.19 232.386C207.817 232.175 207.521 231.88 207.304 231.5C207.086 231.121 206.977 230.68 206.977 230.176C206.977 229.673 207.086 229.235 207.304 228.862C207.521 228.482 207.817 228.187 208.19 227.976C208.569 227.764 208.998 227.659 209.476 227.659C209.893 227.659 210.269 227.752 210.605 227.938C210.94 228.125 211.207 228.405 211.406 228.778C211.612 229.151 211.714 229.617 211.714 230.176C211.714 230.736 211.615 231.202 211.416 231.575C211.223 231.948 210.959 232.231 210.623 232.423C210.287 232.61 209.905 232.703 209.476 232.703ZM209.551 231.92C209.862 231.92 210.141 231.848 210.39 231.705C210.645 231.562 210.844 231.36 210.987 231.099C211.136 230.832 211.211 230.524 211.211 230.176C211.211 229.822 211.136 229.517 210.987 229.262C210.844 229.001 210.645 228.799 210.39 228.656C210.141 228.513 209.862 228.442 209.551 228.442C209.234 228.442 208.951 228.513 208.702 228.656C208.454 228.799 208.255 229.001 208.106 229.262C207.956 229.517 207.882 229.822 207.882 230.176C207.882 230.524 207.956 230.832 208.106 231.099C208.255 231.36 208.454 231.562 208.702 231.705C208.951 231.848 209.234 231.92 209.551 231.92ZM211.239 232.647V231.314L211.295 230.167L211.201 229.02V225.729H212.096V232.647H211.239ZM215.207 232.703C214.797 232.703 214.405 232.647 214.033 232.535C213.666 232.423 213.377 232.287 213.165 232.125L213.538 231.416C213.75 231.559 214.011 231.681 214.322 231.78C214.632 231.88 214.949 231.929 215.273 231.929C215.689 231.929 215.988 231.87 216.168 231.752C216.354 231.634 216.448 231.469 216.448 231.258C216.448 231.102 216.392 230.981 216.28 230.894C216.168 230.807 216.019 230.742 215.832 230.698C215.652 230.655 215.45 230.618 215.226 230.587C215.002 230.549 214.778 230.506 214.555 230.456C214.331 230.4 214.126 230.325 213.939 230.232C213.753 230.133 213.604 229.999 213.492 229.831C213.38 229.657 213.324 229.427 213.324 229.141C213.324 228.843 213.408 228.582 213.576 228.358C213.743 228.134 213.98 227.963 214.284 227.845C214.595 227.721 214.962 227.659 215.385 227.659C215.708 227.659 216.034 227.699 216.364 227.78C216.699 227.855 216.973 227.963 217.184 228.106L216.802 228.815C216.578 228.666 216.345 228.563 216.103 228.507C215.86 228.451 215.618 228.423 215.375 228.423C214.984 228.423 214.691 228.489 214.499 228.619C214.306 228.743 214.21 228.905 214.21 229.104C214.21 229.272 214.266 229.402 214.378 229.496C214.496 229.583 214.645 229.651 214.825 229.701C215.012 229.75 215.217 229.794 215.44 229.831C215.664 229.862 215.888 229.906 216.112 229.962C216.336 230.012 216.538 230.083 216.718 230.176C216.904 230.27 217.054 230.4 217.165 230.568C217.284 230.736 217.343 230.96 217.343 231.239C217.343 231.538 217.256 231.796 217.082 232.013C216.908 232.231 216.662 232.402 216.345 232.526C216.028 232.644 215.649 232.703 215.207 232.703Z" fill="#5A78A6"/>
<rect x="235.914" y="225.742" width="1.86487" height="7.45946" rx="0.932433" fill="#87AB49"/>
</g>
<path opacity="0.1" d="M19.5253 227V218.853L45.5587 194.131C47.7438 192.07 49.367 190.26 50.4283 188.699C51.4896 187.138 52.1763 185.702 52.4885 184.391C52.8631 183.018 53.0504 181.738 53.0504 180.552C53.0504 177.555 52.0203 175.245 49.9601 173.622C47.8999 171.937 44.872 171.094 40.8765 171.094C37.6925 171.094 34.7895 171.656 32.1675 172.779C29.6078 173.903 27.3915 175.62 25.5186 177.93L16.9969 171.375C19.5566 167.941 22.9902 165.288 27.2979 163.415C31.668 161.48 36.5376 160.512 41.9066 160.512C46.6513 160.512 50.7717 161.292 54.2677 162.853C57.8263 164.351 60.542 166.505 62.4149 169.315C64.3502 172.124 65.3179 175.464 65.3179 179.335C65.3179 181.457 65.037 183.58 64.4751 185.702C63.9132 187.763 62.8519 189.948 61.2911 192.258C59.7304 194.568 57.4517 197.158 54.455 200.03L32.0738 221.288L29.5454 216.699H67.8463V227H19.5253Z" fill="#233654"/>
</g>
<defs>
<clipPath id="clip0_239_2590">
<rect width="380" height="227" rx="10" fill="white"/>
</clipPath>
<clipPath id="clip1_239_2590">
<rect width="21.9245" height="21.9245" fill="white" transform="translate(104.447 30.155)"/>
</clipPath>
<clipPath id="clip2_239_2590">
<rect x="110.605" y="85.5925" width="20.3553" height="20.3553" rx="10.1777" fill="white"/>
</clipPath>
<clipPath id="clip3_239_2590">
<rect x="121.164" y="136.906" width="17.6652" height="17.6652" rx="8.83261" fill="white"/>
</clipPath>
<clipPath id="clip4_239_2590">
<rect width="15.4595" height="15.4595" fill="white" transform="translate(129.822 182.591)"/>
</clipPath>
<clipPath id="clip5_239_2590">
<rect width="12.4324" height="12.4324" fill="white" transform="translate(141.703 222.931)"/>
</clipPath>
</defs>
</svg>
