<svg width="25" height="25" viewBox="0 0 25 25" fill="none" xmlns="http://www.w3.org/2000/svg">
<path d="M22.149 18.64C21.829 18.8074 21.499 18.9548 21.1609 19.0816C20.0846 19.4843 18.9444 19.6895 17.7953 19.6872C13.359 19.6872 9.49465 16.6356 9.49465 12.7197C9.50033 12.1945 9.64608 11.6803 9.91685 11.2302C10.1876 10.7801 10.5736 10.4105 11.035 10.1594C7.02246 10.3281 5.99121 14.5094 5.99121 16.9591C5.99121 23.8853 12.3746 24.5875 13.75 24.5875C14.4915 24.5875 15.61 24.3719 16.2812 24.16L16.404 24.1188C18.9871 23.2258 21.1891 21.48 22.6478 19.1688C22.6924 19.0984 22.7124 19.0151 22.7045 18.9321C22.6965 18.8491 22.6612 18.7711 22.604 18.7105C22.5467 18.6498 22.471 18.61 22.3886 18.5972C22.3062 18.5845 22.2219 18.5995 22.149 18.64Z" fill="#87AB49"/>
<path opacity="0.35" d="M22.149 18.64C21.829 18.8074 21.499 18.9548 21.1609 19.0816C20.0846 19.4843 18.9444 19.6895 17.7953 19.6872C13.359 19.6872 9.49465 16.6356 9.49465 12.7197C9.50033 12.1945 9.64608 11.6803 9.91685 11.2302C10.1876 10.7801 10.5736 10.4105 11.035 10.1594C7.02246 10.3281 5.99121 14.5094 5.99121 16.9591C5.99121 23.8853 12.3746 24.5875 13.75 24.5875C14.4915 24.5875 15.61 24.3719 16.2812 24.16L16.404 24.1188C18.9871 23.2258 21.1891 21.48 22.6478 19.1688C22.6924 19.0984 22.7124 19.0151 22.7045 18.9321C22.6965 18.8491 22.6612 18.7711 22.604 18.7105C22.5467 18.6498 22.471 18.61 22.3886 18.5972C22.3062 18.5845 22.2219 18.5995 22.149 18.64Z" fill="#87AB49"/>
<path d="M10.3985 23.41C9.56227 22.891 8.8376 22.2109 8.26658 21.4094C7.61576 20.5177 7.1679 19.4944 6.95442 18.4113C6.74094 17.3283 6.76701 16.2116 7.0308 15.1396C7.29458 14.0677 7.7897 13.0664 8.48143 12.2061C9.17315 11.3458 10.0447 10.6472 11.035 10.1594C11.3275 10.0216 11.8272 9.77219 12.4919 9.78438C12.9602 9.78779 13.4213 9.89959 13.8392 10.111C14.257 10.3225 14.6202 10.6278 14.9003 11.0031C15.2789 11.5086 15.4877 12.121 15.4966 12.7525C15.4966 12.7328 17.7897 5.29 7.99658 5.29C3.88096 5.29 0.496583 9.19563 0.496583 12.6222C0.480349 14.4348 0.868183 16.2282 1.6319 17.8722C2.88002 20.5352 5.06264 22.6472 7.76529 23.807C10.468 24.9669 13.5024 25.0938 16.2925 24.1637C15.3156 24.4718 14.2835 24.5642 13.2674 24.4347C12.2513 24.3053 11.2753 23.9569 10.4069 23.4137L10.3985 23.41Z" fill="#87AB49"/>
<path opacity="0.41" d="M10.3985 23.41C9.56227 22.891 8.8376 22.2109 8.26658 21.4094C7.61576 20.5177 7.1679 19.4944 6.95442 18.4113C6.74094 17.3283 6.76701 16.2116 7.0308 15.1396C7.29458 14.0677 7.7897 13.0664 8.48143 12.2061C9.17315 11.3458 10.0447 10.6472 11.035 10.1594C11.3275 10.0216 11.8272 9.77219 12.4919 9.78438C12.9602 9.78779 13.4213 9.89959 13.8392 10.111C14.257 10.3225 14.6202 10.6278 14.9003 11.0031C15.2789 11.5086 15.4877 12.121 15.4966 12.7525C15.4966 12.7328 17.7897 5.29 7.99658 5.29C3.88096 5.29 0.496583 9.19563 0.496583 12.6222C0.480349 14.4348 0.868183 16.2282 1.6319 17.8722C2.88002 20.5352 5.06264 22.6472 7.76529 23.807C10.468 24.9669 13.5024 25.0938 16.2925 24.1637C15.3156 24.4718 14.2835 24.5642 13.2674 24.4347C12.2513 24.3053 11.2753 23.9569 10.4069 23.4137L10.3985 23.41Z" fill="#87AB49"/>
<path d="M14.7673 14.7325C14.6913 14.8309 14.4579 14.9669 14.4579 15.2631C14.4579 15.5078 14.6173 15.7431 14.9004 15.9409C16.2485 16.8784 18.7901 16.7547 18.7966 16.7547C19.7956 16.7523 20.7756 16.482 21.6345 15.9719C22.5009 15.466 23.22 14.7423 23.7204 13.8727C24.2209 13.0031 24.4852 12.0177 24.4873 11.0144C24.5116 8.91344 23.7373 7.51657 23.4241 6.89782C21.4376 3.01188 17.1495 0.776878 12.4863 0.776878C9.33275 0.776567 6.3058 2.01766 4.06016 4.23173C1.81451 6.4458 0.530675 9.45487 0.486328 12.6081C0.531328 9.1825 3.93633 6.41594 7.98633 6.41594C8.31445 6.41594 10.1857 6.44782 11.9238 7.36C13.4557 8.16438 14.2582 9.13563 14.816 10.0984C15.3954 11.0988 15.4985 12.3625 15.4985 12.8659C15.4985 13.3694 15.2416 14.1156 14.7673 14.7325Z" fill="#87AB49"/>
<path d="M14.7673 14.7325C14.6913 14.8309 14.4579 14.9669 14.4579 15.2631C14.4579 15.5078 14.6173 15.7431 14.9004 15.9409C16.2485 16.8784 18.7901 16.7547 18.7966 16.7547C19.7956 16.7523 20.7756 16.482 21.6345 15.9719C22.5009 15.466 23.22 14.7423 23.7204 13.8727C24.2209 13.0031 24.4852 12.0177 24.4873 11.0144C24.5116 8.91344 23.7373 7.51657 23.4241 6.89782C21.4376 3.01188 17.1495 0.776878 12.4863 0.776878C9.33275 0.776567 6.3058 2.01766 4.06016 4.23173C1.81451 6.4458 0.530675 9.45487 0.486328 12.6081C0.531328 9.1825 3.93633 6.41594 7.98633 6.41594C8.31445 6.41594 10.1857 6.44782 11.9238 7.36C13.4557 8.16438 14.2582 9.13563 14.816 10.0984C15.3954 11.0988 15.4985 12.3625 15.4985 12.8659C15.4985 13.3694 15.2416 14.1156 14.7673 14.7325Z" fill="#87AB49"/>
</svg>
