<svg width="30" height="30" viewBox="0 0 30 30" fill="none" xmlns="http://www.w3.org/2000/svg">
<path d="M27.4695 23.3318H2.53809C3.38171 24.5938 4.41052 25.7118 5.58336 26.6651H24.4242C25.5902 25.7186 26.6259 24.5938 27.4695 23.3318Z" fill="white"/>
<path d="M29.8968 16.6707H9.99969H6.66635H0.0957031C0.226019 17.8229 0.479791 18.9409 0.857021 20.004H29.1286C29.5127 18.9409 29.7665 17.8229 29.8968 16.6707Z" fill="white"/>
<path d="M16.6665 13.3358H29.9038C29.7735 12.1835 29.5197 11.0655 29.1425 10.0024H16.6734V13.3358H16.6665Z" fill="white"/>
<path d="M16.6665 6.66755H27.469C26.6254 5.41241 25.5966 4.28759 24.4237 3.33423H16.6665V6.66755Z" fill="white"/>
<path d="M5.57617 26.666C8.14819 28.7511 11.4267 29.9993 14.9932 29.9993C18.5597 29.9993 21.8382 28.7511 24.4102 26.666H5.57617Z" fill="#0061AA"/>
<path d="M29.1359 20.0046H0.864258C1.28264 21.1912 1.84506 22.3092 2.53779 23.338H27.4692C28.1551 22.3092 28.7175 21.1912 29.1359 20.0046Z" fill="#0061AA"/>
<path d="M6.66667 10.0024H0.857339C0.301783 11.5666 0 13.2474 0 15.0036C0 15.5661 0.0342931 16.1218 0.0960216 16.6706H6.66667V10.0024Z" fill="#0061AA"/>
<path d="M16.6665 10.0016H29.1356C28.7173 8.815 28.1548 7.69702 27.469 6.66821H16.6665V10.0016Z" fill="#0061AA"/>
<path d="M16.6666 10.0024H10.0068V16.6706H29.904C29.9657 16.1218 30 15.5661 30 15.0036C30 14.441 29.9657 13.8853 29.904 13.3365H16.6666V10.0024Z" fill="#0061AA"/>
<path d="M10.0005 6.66819H16.6603V3.33411H24.4175C21.8455 1.24858 18.567 0 14.9937 0C13.2378 0 11.5574 0.301852 9.99365 0.857535V6.66819H10.0005Z" fill="#0061AA"/>
<path d="M6.66706 2.53149C5.03469 3.62889 3.62179 5.03492 2.53125 6.6673H6.66706V2.53149Z" fill="#0061AA"/>
<path d="M6.66675 16.6704H10.0001V10.0022H16.6599V6.66808H10.0001V0.857422C8.81353 1.2759 7.69556 1.83846 6.66675 2.52448V6.66123H2.53094C1.84507 7.69027 1.28266 8.80849 0.857422 9.99532H6.66675V16.6704Z" fill="white"/>
</svg>
