<svg width="30" height="30" viewBox="0 0 30 30" fill="none" xmlns="http://www.w3.org/2000/svg">
<rect width="30" height="30" rx="15" fill="#328332"/>
<g clip-path="url(#clip0_1229_3333)">
<path d="M8.4375 15.936C10.7397 17.1603 13.1421 18.4418 14.9976 19.4335L21.5039 15.936C19.148 19.4406 17.1851 22.3582 14.9976 25.5872C12.8061 22.3654 10.3859 18.8102 8.4375 15.936ZM8.68773 14.9693L15.0047 11.5939L21.2394 14.9446L15.0082 18.3237L8.68773 14.9693ZM14.9976 10.5125L8.4375 13.9706L14.9689 4.39453L21.5039 13.9921L14.9976 10.5125Z" fill="white"/>
<path d="M14.9976 19.4335L21.504 15.936C19.1481 19.4406 14.9976 25.5872 14.9976 25.5872V19.4335ZM15.0047 11.5939L21.2394 14.9446L15.0083 18.3237L15.0047 11.5939ZM14.9976 10.5127L14.969 4.39453L21.504 13.9921L14.9976 10.5127Z" fill="#CCE2CC"/>
<path opacity="0.5" d="M8.68774 14.9694L15.005 15.4886L21.2397 14.948L15.0082 18.3274L8.68774 14.9694Z" fill="#5ABF5A"/>
<path opacity="0.5" d="M15.0046 15.4886L21.2393 14.948L15.0082 18.3274L15.0046 15.4886Z" fill="#5ABF5A"/>
</g>
<defs>
<clipPath id="clip0_1229_3333">
<rect width="13.0664" height="21.2109" fill="white" transform="translate(8.4375 4.39453)"/>
</clipPath>
</defs>
</svg>
