<svg width="170" height="169" fill="none" xmlns="http://www.w3.org/2000/svg"><rect x=".5" width="169" height="169" rx="83" fill="#D7DEED"/><circle cx="85" cy="84.5" r="73.182" fill="#F1F4FB"/><circle cx="85" cy="84.5" r="73.182" fill="#F1F4FB"/><circle cx="85" cy="84.5" r="73.182" fill="#F1F4FB"/><circle cx="85" cy="84.5" r="45.339" fill="#fff"/><path d="M143.774 149.404H26.226c-6.372 0-11.538-5.166-11.538-11.539V31.135c0-6.373 5.166-11.539 11.538-11.539h117.548c6.372 0 11.538 5.166 11.538 11.539v106.73c0 6.373-5.166 11.539-11.538 11.539z" fill="#CAD4EB"/><path d="M143.774 19.596H26.226c-6.372 0-11.538 5.166-11.538 11.539v17.77h140.624v-17.77c0-6.373-5.166-11.539-11.538-11.539z" fill="#5A78A6"/><path d="M108.286 80.568h15.388V58.605c0-.563-.743-1.024-1.651-1.024H29.34c-.908 0-1.65.46-1.65 1.024v22.197c0 .564.742 1.024 1.65 1.024h76.655c.14-.707 1.113-1.258 2.291-1.258zM57.998 114.917H30.215a2.475 2.475 0 1 1 0-4.951h27.783a2.475 2.475 0 1 1 0 4.951zM87.994 103.662H30.215a2.475 2.475 0 1 1 0-4.951h57.779a2.475 2.475 0 1 1 0 4.951zM52.832 122.999h-23.04c-1.133 0-2.052-1.108-2.052-2.475 0-1.368.919-2.476 2.053-2.476h23.039c1.134 0 2.053 1.108 2.053 2.476 0 1.367-.92 2.475-2.053 2.475zM47.192 131.082h-17.86c-.88 0-1.592-1.108-1.592-2.476 0-1.367.712-2.475 1.591-2.475h17.861c.88 0 1.592 1.108 1.592 2.475 0 1.368-.713 2.476-1.592 2.476zM87.467 114.937H73.166a2.475 2.475 0 1 1 0-4.952h14.301a2.476 2.476 0 0 1 0 4.952zM82.41 122.999h-9.99c-.955 0-1.73-1.108-1.73-2.475 0-1.368.775-2.476 1.73-2.476h9.99c.955 0 1.73 1.108 1.73 2.476 0 1.367-.775 2.475-1.73 2.475z" fill="#fff"/><path d="M143.774 150.576H26.226c-7.009 0-12.71-5.702-12.71-12.711V31.135c0-7.009 5.701-12.711 12.71-12.711h117.548c7.008 0 12.71 5.702 12.71 12.71v106.731c0 7.009-5.701 12.711-12.71 12.711zM26.226 20.768c-5.716 0-10.367 4.65-10.367 10.367v106.73c0 5.717 4.651 10.367 10.367 10.367h117.548c5.715 0 10.366-4.651 10.366-10.367V31.135c0-5.717-4.651-10.367-10.366-10.367H26.226z" fill="#5A78A6"/><path d="M126.378 36.474h-6.852a1.25 1.25 0 0 1-1.25-1.25v-6.898c0-.69.559-1.25 1.25-1.25h6.852c.69 0 1.249.56 1.249 1.25v6.898c.001.69-.559 1.25-1.249 1.25zM105.52 38.015H97.6c-1.619 0-2.932-1.502-2.932-3.354s1.313-3.353 2.933-3.353h7.919c1.62 0 2.933 1.501 2.933 3.353 0 1.852-1.313 3.354-2.933 3.354z" fill="#879EC1"/><path d="M122.189 39.498h-6.852a1.25 1.25 0 0 1-1.25-1.25V31.35c0-.69.559-1.25 1.25-1.25h6.852c.69 0 1.249.56 1.249 1.25v6.898c0 .69-.559 1.25-1.249 1.25z" fill="#96AFD6"/><path d="M146.834 38.886a2.6 2.6 0 0 1-3.69 0l-7.453-7.49a2.631 2.631 0 0 1 0-3.708 2.6 2.6 0 0 1 3.69 0l7.453 7.489a2.632 2.632 0 0 1 0 3.709z" fill="#879EC1"/><path d="M135.691 38.886a2.6 2.6 0 0 0 3.691 0l7.452-7.49a2.631 2.631 0 0 0 0-3.708 2.6 2.6 0 0 0-3.69 0l-7.453 7.489a2.632 2.632 0 0 0 0 3.709z" fill="#879EC1"/><path d="M83.926 39.146H25.625a2.93 2.93 0 0 1-2.93-2.93v-5.859a2.93 2.93 0 0 1 2.93-2.93h58.3a2.93 2.93 0 0 1 2.93 2.93v5.86a2.93 2.93 0 0 1-2.93 2.93z" fill="#E0EBFC"/><path d="M26.773 30.418v1.738a2.53 2.53 0 0 1 .436-.408c.142-.1.298-.175.47-.225a1.98 1.98 0 0 1 .553-.075c.298 0 .562.063.793.189.23.126.41.308.542.55.083.14.14.296.168.47.029.172.043.372.043.598v2.244c0 .235-.054.412-.161.532a.546.546 0 0 1-.427.18c-.386 0-.58-.237-.58-.712v-1.978c0-.375-.055-.663-.167-.865-.112-.202-.324-.303-.635-.303a.956.956 0 0 0-.565.178 1.077 1.077 0 0 0-.375.488c-.063.175-.095.485-.095.931v1.55c0 .231-.052.408-.157.53a.544.544 0 0 1-.435.182c-.386 0-.58-.238-.58-.713v-5.081c0-.237.051-.415.153-.534a.53.53 0 0 1 .427-.179c.186 0 .331.06.435.18.105.121.157.299.157.533zM31 31.551h.13v-.704c0-.188.004-.337.014-.444.01-.107.038-.199.084-.276a.562.562 0 0 1 .485-.27c.149 0 .283.055.403.167.08.075.131.165.152.273.022.107.033.26.033.457v.798h.428c.166 0 .293.039.38.118a.39.39 0 0 1 .131.302c0 .158-.062.268-.186.33-.125.064-.303.095-.534.095h-.22v2.155c0 .183.007.324.02.423a.433.433 0 0 0 .103.24c.056.061.146.092.273.092.068 0 .161-.012.278-.037.118-.024.209-.036.275-.036.095 0 .18.038.256.113.075.077.113.17.113.282 0 .188-.103.333-.308.433-.206.1-.503.15-.889.15-.366 0-.644-.061-.832-.184a.853.853 0 0 1-.371-.511c-.06-.218-.088-.508-.088-.872v-2.248h-.155c-.169 0-.298-.04-.386-.12a.394.394 0 0 1-.133-.305c0-.123.046-.224.14-.303.093-.078.227-.118.404-.118zM34.112 31.551h.129v-.704c0-.188.004-.337.014-.444.01-.107.038-.199.084-.276a.562.562 0 0 1 .485-.27c.149 0 .283.055.403.167.08.075.132.165.153.273.021.107.032.26.032.457v.798h.429c.166 0 .292.039.38.118a.39.39 0 0 1 .13.302c0 .158-.061.268-.186.33-.124.064-.303.095-.534.095h-.22v2.155c0 .183.007.324.02.423a.432.432 0 0 0 .103.24c.057.061.147.092.273.092.068 0 .162-.012.279-.037.117-.024.208-.036.275-.036.094 0 .179.038.255.113.076.077.114.17.114.282 0 .188-.103.333-.31.433-.205.1-.501.15-.887.15-.367 0-.644-.061-.833-.184a.853.853 0 0 1-.37-.511c-.06-.218-.089-.508-.089-.872v-2.248h-.154c-.17 0-.298-.04-.387-.12a.394.394 0 0 1-.133-.305c0-.123.047-.224.14-.303.093-.078.228-.118.405-.118zM38.24 32.105v.142c.22-.272.45-.471.687-.6.237-.126.506-.19.807-.19.36 0 .692.093.995.279.303.185.543.457.72.815.175.358.263.781.263 1.27 0 .361-.051.693-.152.994a2.24 2.24 0 0 1-.419.76 1.827 1.827 0 0 1-1.408.637c-.334 0-.616-.067-.843-.201a2.398 2.398 0 0 1-.65-.593v1.76c0 .515-.188.772-.562.772-.22 0-.366-.066-.438-.2-.071-.133-.107-.327-.107-.58v-5.056c0-.224.048-.39.146-.5a.505.505 0 0 1 .399-.166c.166 0 .3.057.405.17.105.113.157.275.157.487zm2.296 1.703c0-.309-.047-.574-.141-.796a1.167 1.167 0 0 0-.393-.51.937.937 0 0 0-.555-.179c-.324 0-.596.127-.818.382-.222.255-.332.63-.332 1.125 0 .466.11.829.33 1.087.22.26.493.389.82.389a.94.94 0 0 0 .54-.17c.166-.113.3-.282.4-.508.1-.226.15-.5.15-.82zM42.776 32.087c0-.203.064-.36.191-.472a.675.675 0 0 1 .462-.168c.174 0 .324.057.45.17.126.113.189.27.189.47 0 .16-.069.308-.206.442a.63.63 0 0 1-.447.202.608.608 0 0 1-.45-.194.622.622 0 0 1-.189-.45zm.653 4.125a.67.67 0 0 1-.46-.172c-.129-.114-.193-.275-.193-.48 0-.175.061-.325.184-.451a.61.61 0 0 1 .455-.189c.18 0 .334.062.462.187a.611.611 0 0 1 .19.453.616.616 0 0 1-.19.478.646.646 0 0 1-.448.174zM47.064 30.577l-1.202 4.948a5.8 5.8 0 0 1-.105.386.469.469 0 0 1-.137.221c-.062.053-.151.08-.269.08-.291 0-.437-.127-.437-.379 0-.066.028-.23.085-.493l1.197-4.948c.063-.264.123-.444.18-.541.058-.098.17-.146.335-.146.143 0 .253.034.329.103a.363.363 0 0 1 .114.283c0 .09-.03.251-.09.486zM49.531 30.577l-1.201 4.948c-.04.163-.075.292-.106.386a.47.47 0 0 1-.137.221c-.062.053-.15.08-.268.08-.292 0-.438-.127-.438-.379 0-.066.029-.23.085-.493l1.197-4.948c.063-.264.123-.444.18-.541.058-.098.17-.146.335-.146.144 0 .253.034.33.103a.363.363 0 0 1 .113.283c0 .09-.03.251-.09.486z" fill="#CAD4EB"/><path d="M100.353 126.097c-.77 0-1.399-.742-1.399-1.65V58.119c0-.907.63-1.65 1.399-1.65h42.714c.769 0 1.399.743 1.399 1.65v66.328c0 .908-.63 1.65-1.399 1.65h-42.714z" fill="#A8B6D7"/><path d="M103.485 122.326c-.769 0-1.399-.742-1.399-1.65V54.348c0-.907.63-1.65 1.399-1.65H146.2c.769 0 1.398.743 1.398 1.65v66.328c0 .908-.629 1.65-1.398 1.65h-42.715z" fill="#F1F4FB"/><path d="M147.598 59.066v-4.718c0-.907-.629-1.65-1.398-1.65h-42.715c-.769 0-1.399.743-1.399 1.65v4.718h45.512z" fill="#F1F4FB"/><circle cx="124.842" cy="90.611" r="8.179" fill="url(#a)"/><path fill-rule="evenodd" clip-rule="evenodd" d="M115.611 93.518a.318.318 0 0 1 .523.047.336.336 0 0 1-.043.388c-.555.626-.795 1.114-.635 1.392.513.893 4.949-.718 9.909-3.597.172-.1.341-.199.509-.299a.193.193 0 0 0 .092-.166c0-1.146.929-2.075 2.075-2.075.615 0 1.281.018 1.776-.345 2.473-1.811 3.941-3.353 3.601-3.945-.152-.265-.651-.31-1.407-.165a.325.325 0 0 1-.344-.155.307.307 0 0 1 .218-.46c1.485-.217 2.538-.036 2.907.607.692 1.205-1.211 3.689-4.524 6.215a.405.405 0 0 0-.151.323 2.075 2.075 0 0 1-2.247 2.069c-.51-.042-1.054-.063-1.498.194-5.58 3.24-10.859 4.552-11.79 2.93-.382-.664.028-1.72 1.029-2.958z" fill="#fff"/><circle cx="128.041" cy="91.283" r="1.038" fill="#70AF09"/><g opacity=".32" fill="#E5E5E5"><path d="M120.651 87.814c-.504 1.243-.345 2.554-.962 2.304-.618-.25-.71-1.46-.207-2.704.504-1.243 1.412-2.048 2.03-1.798.617.25-.358.955-.861 2.198zM120.263 91.352c.045.41-.144.766-.423.797-.279.03-.541-.276-.586-.686-.045-.41.144-.766.423-.796.279-.031.541.276.586.685z"/></g><path d="M122.427 96.843c-.284-.165-.148-.44.543-.669 1.456-.32 1.21.327 3.305.078 2.095-.248 3.199-1.112 3.755-1.68.445-.455.856-1.07.837-.853-.095.462-.859 1.679-3.16 2.853-2.876 1.467-4.844.522-5.28.27z" fill="#080F1B" fill-opacity=".11"/><path d="M131.676 86.082a.557.557 0 0 0 .149-.801 8.784 8.784 0 0 0-14.948 9.035.557.557 0 0 0 .779.241.624.624 0 0 0 .252-.806 7.612 7.612 0 0 1 12.937-7.82c.199.255.561.33.831.151zM119.832 97.1a.558.558 0 0 0 .118.807 8.782 8.782 0 0 0 12.676-3.224 8.78 8.78 0 0 0 .996-4.366.557.557 0 0 0-.623-.526.624.624 0 0 0-.547.644 7.612 7.612 0 0 1-11.784 6.542.624.624 0 0 0-.836.124z" fill="#fff"/><path d="M140.629 68.149c0 .409-.742.744-1.65.744h-28.273c-.908 0-1.651-.335-1.651-.744v-2.517c0-.409.743-.744 1.651-.744h28.273c.908 0 1.65.335 1.65.744v2.517z" fill="#D7DEED"/><path d="M133.627 71.977c0 .222-.413.403-.918.403h-15.733c-.505 0-.918-.181-.918-.403v-1.363c0-.222.413-.404.918-.404h15.733c.505 0 .918.182.918.404v1.363z" fill="#FB1B43"/><path d="M133.627 57.927c0 .222-.413.403-.918.403h-15.733c-.505 0-.918-.181-.918-.403v-1.363c0-.222.413-.404.918-.404h15.733c.505 0 .918.182.918.404v1.363z" fill="#D7DEED"/><rect x="109.688" y="108.842" width="30.309" height="6.054" rx="3.027" fill="#87AB49"/><defs><linearGradient id="a" x1="116.168" y1="76.622" x2="128.542" y2="97.704" gradientUnits="userSpaceOnUse"><stop offset=".395" stop-color="#FF3A3A"/><stop offset=".72" stop-color="#D64D12"/><stop offset=".75" stop-color="#70AF09"/></linearGradient></defs></svg>