<svg width="170" height="169" fill="none" xmlns="http://www.w3.org/2000/svg"><rect x=".5" width="169" height="169" rx="83" fill="#D7DEED"/><circle cx="85" cy="84.5" r="73.182" fill="#F1F4FB"/><circle cx="85" cy="84.5" r="73.182" fill="#F1F4FB"/><circle cx="85" cy="84.5" r="73.182" fill="#F1F4FB"/><circle cx="85" cy="84.5" r="45.339" fill="#fff"/><g clip-path="url(#a)"><path d="M148.197 124.19H21.803a2.303 2.303 0 0 1-2.303-2.303V46.413h131v75.474a2.304 2.304 0 0 1-2.303 2.303z" fill="#D7DEED"/><path d="M132.584 46.413v67.659a2.407 2.407 0 0 1-2.407 2.407H19.5v5.304a2.407 2.407 0 0 0 2.407 2.407h126.186a2.407 2.407 0 0 0 2.407-2.407v-75.37h-17.916z" fill="#CBD3E3"/><path d="M150.5 55.985h-131V41.011a2.303 2.303 0 0 1 2.303-2.303h126.394a2.303 2.303 0 0 1 2.303 2.303v14.974z" fill="#5A78A6"/><path d="M148.093 38.708h-15.51v17.277H150.5v-14.87a2.407 2.407 0 0 0-2.407-2.407z" fill="#4E678D"/><path d="M108.379 61.038c-5.485 0-11.677 3.386-18.929 10.349a92.095 92.095 0 0 0-4.821 5.016 91.804 91.804 0 0 0-4.823-5.016c-7.251-6.963-13.442-10.349-18.927-10.349-12.582 0-22.819 10.237-22.819 22.819 0 12.583 10.237 22.819 22.819 22.819 5.485 0 11.676-3.385 18.928-10.349a91.451 91.451 0 0 0 4.822-5.015 91.74 91.74 0 0 0 4.821 5.015c7.252 6.964 13.444 10.349 18.929 10.349 12.582 0 22.818-10.236 22.818-22.82 0-12.581-10.236-22.817-22.818-22.817zm-47.5 36.053c-7.296 0-13.233-5.937-13.233-13.234 0-7.296 5.936-13.233 13.233-13.233 4.296 0 11.806 6.684 17.083 12.68a.84.84 0 0 1 0 1.112C72.694 90.41 65.19 97.09 60.879 97.09zm47.5 0c-4.296 0-11.807-6.685-17.083-12.681a.84.84 0 0 1 0-1.11c5.267-5.996 12.772-12.676 17.083-12.676 7.296 0 13.232 5.937 13.232 13.233 0 7.297-5.936 13.234-13.232 13.234z" fill="#87AB49"/><path d="M108.379 61.038c-.785 0-1.586.072-2.4.211 11.138 1.502 19.758 11.064 19.758 22.608s-8.62 21.107-19.758 22.608c.814.139 1.615.211 2.4.211 12.582 0 22.819-10.236 22.819-22.82 0-12.581-10.237-22.817-22.819-22.817z" fill="#74963B"/><path d="M144.485 116.247c0 16.2-13.133 29.333-29.333 29.333s-29.333-13.133-29.333-29.333 13.133-29.333 29.333-29.333 29.333 13.133 29.333 29.333z" fill="#879EC1"/><path d="M127.398 89.586c6.823 5.37 11.204 13.705 11.204 23.062 0 16.2-13.132 29.333-29.332 29.333-4.371 0-8.519-.958-12.246-2.672a29.212 29.212 0 0 0 18.128 6.271c16.2 0 29.333-13.133 29.333-29.333 0-11.829-7.003-22.02-17.087-26.661z" fill="#748EB6"/><path d="M107.134 121.453a9.503 9.503 0 0 1-1.533-5.712c.247-4.785 4.093-8.705 8.874-9.036 5.579-.387 10.242 4.044 10.242 9.542a9.5 9.5 0 0 1-1.546 5.205.81.81 0 0 0 .175 1.088l5.942 4.563a.805.805 0 0 0 1.149-.177 18.56 18.56 0 0 0 3.331-11.909c-.606-9.373-8.224-16.901-17.603-17.4-10.745-.57-19.67 8.008-19.67 18.63 0 3.97 1.25 7.652 3.373 10.679a.804.804 0 0 0 1.148.177l5.943-4.563a.808.808 0 0 0 .175-1.087z" fill="#FFE046"/><path d="M105.601 115.741a9.494 9.494 0 0 1 1.975-5.312l-7.213-5.54a18.57 18.57 0 0 0-3.867 11.358c0 3.97 1.249 7.652 3.372 10.679a.804.804 0 0 0 1.148.177l5.943-4.563a.808.808 0 0 0 .175-1.087 9.503 9.503 0 0 1-1.533-5.712z" fill="#CAD4EB"/><path d="m129.938 104.891-7.205 5.533a9.512 9.512 0 0 1 1.984 5.823 9.5 9.5 0 0 1-1.546 5.205.81.81 0 0 0 .175 1.088l5.942 4.563a.805.805 0 0 0 1.149-.177 18.566 18.566 0 0 0 3.332-11.909 18.53 18.53 0 0 0-3.831-10.126z" fill="#FB1B43"/><path d="M118.75 116.247a3.598 3.598 0 1 1-7.196 0 3.598 3.598 0 0 1 7.196 0z" fill="#495959"/><path d="M128.687 118.252h-13.535a2.006 2.006 0 0 1 0-4.011h13.535a2.006 2.006 0 0 1 0 4.011z" fill="#495959"/><path d="M34.89 47.438a4.025 4.025 0 1 1-8.05 0 4.025 4.025 0 0 1 8.05 0z" fill="#FB1B43"/><path d="M46.342 47.438a4.025 4.025 0 1 1-8.05 0 4.025 4.025 0 0 1 8.05 0z" fill="#7191C2"/><path d="M58.172 47.438a4.025 4.025 0 1 1-8.05 0 4.025 4.025 0 0 1 8.05 0z" fill="#7192C2"/></g><defs><clipPath id="a"><path fill="#fff" transform="translate(19.5 26.682)" d="M0 0h131v131H0z"/></clipPath></defs></svg>