<svg width="170" height="169" fill="none" xmlns="http://www.w3.org/2000/svg"><g clip-path="url(#a)"><g clip-path="url(#b)"><path d="M88.63 165.369c44.664 0 80.87-36.206 80.87-80.869S133.294 3.63 88.63 3.63C43.969 3.63 7.763 39.838 7.763 84.5c0 44.663 36.206 80.869 80.869 80.869z" fill="#D7DEED"/><path d="M87.783 118.343h-25.98v13.609h25.98v-13.609z" fill="#5A78A6"/><path d="M68.352 118.343h-6.55v13.609h6.55v-13.609z" fill="#445EA0"/><path d="M105.087 131.623H42.605c-.927 0-1.684.758-1.684 1.684v8.44c0 .927.758 1.684 1.684 1.684h62.482v-11.808z" fill="#5A78A6"/><path d="M47.47 141.747v-8.44c0-.927.758-1.684 1.684-1.684h-6.55c-.926 0-1.683.757-1.683 1.684v8.44a1.69 1.69 0 0 0 1.684 1.684h6.549a1.69 1.69 0 0 1-1.684-1.684z" fill="#445EA0"/><path d="M147.403 19.463H2.184c-.926 0-1.684.758-1.684 1.684v95.843a1.69 1.69 0 0 0 1.684 1.684h102.903V68.25a2.314 2.314 0 0 1 2.311-2.31h41.689V21.146a1.69 1.69 0 0 0-1.684-1.684z" fill="#5A78A6"/><path d="M7.893 101.834c0 .556.454 1.01 1.01 1.01h96.184V68.25a2.314 2.314 0 0 1 2.311-2.31h34.296V35.977H7.893v65.856z" fill="#fff"/><path d="M74.794 115.275a4.547 4.547 0 1 0 0-9.094 4.547 4.547 0 0 0 0 9.094z" fill="#445EA0"/><path d="M105.087 73.656H87.453a.993.993 0 0 0-.99.99V94.33c0 .545.446.99.99.99h17.634V73.657z" fill="#D7DEED"/><path d="M107.398 65.94h15.387V44.357c0-.908-.742-1.65-1.65-1.65H28.452c-.908 0-1.65.742-1.65 1.65v21.958c0 .908.742 1.65 1.65 1.65h76.655a2.312 2.312 0 0 1 2.291-2.027zM140.684 28.051H8.903c-.556 0-1.01.455-1.01 1.01v7.247h133.801v-7.246c0-.556-.454-1.011-1.01-1.011zM57.11 78.882H29.327a2.475 2.475 0 1 1 0-4.952H57.11a2.475 2.475 0 1 1 0 4.952zM57.11 86.964H29.327a2.475 2.475 0 1 1 0-4.95H57.11a2.475 2.475 0 1 1 0 4.95zM57.11 95.047H29.327a2.475 2.475 0 1 1 0-4.951H57.11a2.475 2.475 0 1 1 0 4.951zM78.913 78.882h-14.3a2.475 2.475 0 1 1 0-4.952h14.3a2.475 2.475 0 1 1 0 4.952zM78.913 86.964h-14.3a2.475 2.475 0 1 1 0-4.95h14.3a2.475 2.475 0 1 1 0 4.95zM78.913 95.047h-14.3a2.475 2.475 0 1 1 0-4.951h14.3a2.475 2.475 0 1 1 0 4.951z" fill="#CAD4EB"/><path d="M166.86 65.609a2.648 2.648 0 0 1 2.64 2.64v79.804a2.648 2.648 0 0 1-2.64 2.64h-59.462a2.649 2.649 0 0 1-2.641-2.64V68.25a2.649 2.649 0 0 1 2.641-2.641h59.462z" fill="#879EC1"/><path d="M111.923 140.325c-.907 0-1.65-.743-1.65-1.651V72.347c0-.908.743-1.65 1.65-1.65h50.411c.908 0 1.65.742 1.65 1.65v66.327c0 .908-.742 1.651-1.65 1.651h-50.411z" fill="#fff"/><path d="M134.039 146.926a1.656 1.656 0 0 1-1.651-1.65v-.642c0-.908.743-1.651 1.651-1.651h6.18c.907 0 1.65.743 1.65 1.651v.642c0 .907-.743 1.65-1.65 1.65h-6.18z" fill="#445EA0"/><path d="M163.984 77.064v-4.717c0-.908-.742-1.65-1.65-1.65h-50.411c-.907 0-1.65.742-1.65 1.65v4.717h53.711z" fill="#F1F4FB"/><path d="M148.38 107.253h-22.502a2.475 2.475 0 1 1 0-4.951h22.502a2.475 2.475 0 0 1 0 4.951z" fill="#FB1B43"/><path d="M148.38 114.887h-22.502a2.475 2.475 0 0 1 0-4.951h22.502a2.475 2.475 0 1 1 0 4.951zM148.38 122.52h-22.502a2.475 2.475 0 0 1 0-4.951h22.502a2.475 2.475 0 1 1 0 4.951z" fill="#CAD4EB"/><path d="M158.857 96.468c0 .907-.743 1.65-1.651 1.65h-40.155a1.656 1.656 0 0 1-1.651-1.65V82.854c0-.908.743-1.65 1.651-1.65h40.155c.908 0 1.651.742 1.651 1.65v13.614z" fill="#D7DEED"/><path d="M152.916 135.139c0 .908-.743 1.651-1.65 1.651h-28.274c-.908 0-1.65-.743-1.65-1.651v-5.581c0-.908.742-1.651 1.65-1.651h28.274c.907 0 1.65.743 1.65 1.651v5.581z" fill="#87AB49"/><circle cx="41.401" cy="55.337" r="7.157" fill="url(#c)"/><path fill-rule="evenodd" clip-rule="evenodd" d="M33.325 57.88a.278.278 0 0 1 .456.041.293.293 0 0 1-.037.34c-.486.548-.695.975-.556 1.218.449.781 4.331-.628 8.671-3.147l.445-.261c.051-.03.08-.087.08-.146 0-1.003.814-1.816 1.817-1.816.537 0 1.12.016 1.554-.302 2.163-1.584 3.448-2.934 3.15-3.451-.133-.232-.57-.271-1.23-.145a.285.285 0 0 1-.302-.135.269.269 0 0 1 .19-.403c1.3-.19 2.222-.031 2.545.532.605 1.053-1.06 3.227-3.959 5.437a.353.353 0 0 0-.132.283 1.816 1.816 0 0 1-1.966 1.81c-.447-.036-.923-.055-1.31.17-4.884 2.835-9.503 3.983-10.317 2.565-.334-.582.024-1.506.9-2.59z" fill="#fff"/><circle cx="44.2" cy="55.925" r=".908" fill="#70AF09"/><g opacity=".32" fill="#E5E5E5"><path d="M37.734 52.89c-.44 1.087-.302 2.234-.842 2.015-.54-.219-.621-1.278-.18-2.365.44-1.088 1.235-1.792 1.775-1.573.54.218-.313.835-.753 1.922zM37.395 55.986c.039.358-.127.67-.37.697-.245.026-.474-.242-.514-.6-.04-.358.127-.67.37-.697.245-.027.474.241.514.6z"/></g><path d="M39.288 60.79c-.248-.144-.13-.385.475-.585 1.274-.28 1.059.285 2.892.068 1.833-.217 2.8-.973 3.286-1.47.39-.398.75-.936.732-.746-.083.404-.752 1.468-2.765 2.496-2.517 1.284-4.238.457-4.62.237z" fill="#080F1B" fill-opacity=".11"/><path d="M47.381 51.374a.487.487 0 0 0 .13-.7 7.686 7.686 0 0 0-13.08 7.905c.12.257.434.347.682.21a.545.545 0 0 0 .22-.705 6.66 6.66 0 0 1 11.32-6.842c.175.223.492.29.728.133zM37.018 61.016a.487.487 0 0 0 .103.705 7.685 7.685 0 0 0 11.963-6.64.487.487 0 0 0-.545-.461.546.546 0 0 0-.479.563 6.66 6.66 0 0 1-10.31 5.724.546.546 0 0 0-.732.109z" fill="#fff"/><circle cx="137.129" cy="89.204" r="5.453" fill="url(#d)"/><path fill-rule="evenodd" clip-rule="evenodd" d="M130.975 91.141a.211.211 0 0 1 .348.031.224.224 0 0 1-.028.26c-.37.417-.53.742-.423.927.341.596 3.299-.478 6.606-2.397l.339-.2a.128.128 0 0 0 .061-.11c0-.765.62-1.384 1.384-1.384.409 0 .853.012 1.184-.23 1.648-1.207 2.627-2.235 2.4-2.63-.101-.177-.434-.206-.938-.11a.216.216 0 0 1-.229-.103.204.204 0 0 1 .145-.307c.99-.145 1.692-.024 1.938.405.461.803-.807 2.459-3.015 4.143a.268.268 0 0 0-.102.215 1.383 1.383 0 0 1-1.497 1.38c-.341-.028-.703-.042-.999.13-3.72 2.159-7.24 3.034-7.86 1.953-.255-.444.018-1.147.686-1.973z" fill="#fff"/><circle cx="139.262" cy="89.652" r=".692" fill="#70AF09"/><g opacity=".32" fill="#E5E5E5"><path d="M134.335 87.338c-.336.83-.23 1.703-.642 1.536-.411-.166-.473-.973-.137-1.802.335-.829.941-1.365 1.353-1.198.411.166-.239.636-.574 1.465zM134.076 89.698c.03.272-.096.51-.282.53-.186.021-.361-.184-.391-.456-.03-.273.097-.511.283-.532.185-.02.36.185.39.458z"/></g><path d="M135.519 93.358c-.189-.11-.099-.293.362-.446.97-.213.806.218 2.203.052 1.397-.165 2.133-.741 2.504-1.12.296-.303.571-.713.557-.568-.063.307-.572 1.118-2.106 1.901-1.918.979-3.229.349-3.52.18z" fill="#080F1B" fill-opacity=".11"/><path d="M141.685 86.184c.18-.119.23-.362.099-.534a5.858 5.858 0 0 0-10.311 2.034 5.856 5.856 0 0 0 .346 3.99c.091.195.33.264.519.16a.416.416 0 0 0 .168-.538 5.072 5.072 0 0 1 1.998-6.435 5.073 5.073 0 0 1 6.627 1.222c.132.17.374.22.554.101zM133.789 93.53a.372.372 0 0 0 .078.538 5.86 5.86 0 0 0 6.104.256 5.852 5.852 0 0 0 3.011-5.316.371.371 0 0 0-.415-.351.416.416 0 0 0-.365.429 5.073 5.073 0 0 1-7.856 4.361.415.415 0 0 0-.557.083z" fill="#fff"/></g></g><defs><linearGradient id="c" x1="33.811" y1="43.097" x2="44.638" y2="61.543" gradientUnits="userSpaceOnUse"><stop offset=".395" stop-color="#FF3A3A"/><stop offset=".72" stop-color="#D64D12"/><stop offset=".75" stop-color="#70AF09"/></linearGradient><linearGradient id="d" x1="131.346" y1="79.877" x2="139.595" y2="93.932" gradientUnits="userSpaceOnUse"><stop offset=".395" stop-color="#FF3A3A"/><stop offset=".72" stop-color="#D64D12"/><stop offset=".75" stop-color="#70AF09"/></linearGradient><clipPath id="a"><path fill="#fff" transform="translate(.5)" d="M0 0h169v169H0z"/></clipPath><clipPath id="b"><path fill="#fff" transform="translate(.5)" d="M0 0h169v169H0z"/></clipPath></defs></svg>