<svg width="170" height="169" fill="none" xmlns="http://www.w3.org/2000/svg"><rect x=".5" width="169" height="169" rx="83" fill="#D7DEED"/><circle cx="85" cy="84.5" r="73.182" fill="#F1F4FB"/><circle cx="85" cy="84.5" r="73.182" fill="#F1F4FB"/><circle cx="85" cy="84.5" r="73.182" fill="#F1F4FB"/><circle cx="85" cy="84.5" r="45.339" fill="#fff"/><g clip-path="url(#a)"><path d="M85 146c33.966 0 61.5-27.534 61.5-61.5C146.5 50.535 118.966 23 85 23c-33.965 0-61.5 27.535-61.5 61.5 0 33.966 27.535 61.5 61.5 61.5z" fill="#D7DEED"/><path fill-rule="evenodd" clip-rule="evenodd" d="M81.466 23.1c32.321 1.83 57.966 28.62 57.966 61.4s-25.645 59.569-57.966 61.4c1.17.067 2.348.1 3.534.1 33.965 0 61.5-27.534 61.5-61.5C146.5 50.535 118.965 23 85 23c-1.186 0-2.364.034-3.534.1z" fill="#CAD4EB"/><path fill-rule="evenodd" clip-rule="evenodd" d="M82.124 124.946c1.36-10.994 12.173-13.176 13.165-26.257.586-7.719-21.58-14.033-24.043-13.837-10.138.807-8.613 2.542-14.271-6.53C49.88 66.943 67.92 73.714 69.353 66.38c1.182-6.053 5.847-7.021 9.113-9.061 2.613-1.632 7.378-2.127 10.967-3.093 2.936-.79 2.892-4.146 3.27-6.791.83-5.795-.42-6.666-5.51-7.392-8.477-1.207-5.635-7.091-17.04-4.69-11.29 2.376-8.072 1.525-19.44-1.917a61.753 61.753 0 0 0-21.63 25.422c6.32 18.896 19.3 22.507 21.52 24.795 1.919 1.98 4.655 3.496 4.725 9.748.225 20.091 9.355 6.223 13.45 29.186 3.877 21.734 11.762 15.165 13.346 2.359zm25.321-35.357c-13.74-9.01 1.463-15.568-1.182-21.264-.416-.896 2.664-5.029 4.676-4.376 4.617 1.499 16.409 1.695 18.141 1.22 2.167-.594 5.601-8.846-1.841-9.138-1.59-.062-14.498 1.746-15.241.292-.735-1.844-2.206-8.675 1.107-11.704 3.816-3.489 11.483-4.732 12.873-5.979C138.572 49.901 146.5 66.275 146.5 84.5c0 13.252-4.192 25.525-11.321 35.566-4.333 4.136-12.739 3.691-11.568-1.024 1.96-7.888.674-10.086.778-15.005.394-18.684-7.807-11.096-16.944-14.448z" fill="#87AB49"/><path fill-rule="evenodd" clip-rule="evenodd" d="M121.001 40.598c11.375 11.161 18.431 26.707 18.431 43.902a61.235 61.235 0 0 1-13.29 38.188c2.59.646 6.507-.207 9.037-2.622 7.13-10.041 11.321-22.314 11.321-35.566 0-18.225-7.927-34.598-20.522-45.86-.645.579-2.641 1.157-4.977 1.958z" fill="#78993F"/><path d="M85 110.32a16.581 16.581 0 0 1-2.193 6.505 98.093 98.093 0 0 1-7.608 11.872s-3.21-4.251-5.967-8.907a46.858 46.858 0 0 1-2.719-5.243 11.729 11.729 0 0 1-1.115-4.227c0-5.413 4.388-9.801 9.8-9.801 5.414 0 9.802 4.388 9.802 9.801zM146.5 55.184a16.577 16.577 0 0 1-2.193 6.505 98.214 98.214 0 0 1-7.608 11.872s-3.21-4.251-5.967-8.907a46.95 46.95 0 0 1-2.719-5.243 11.726 11.726 0 0 1-1.115-4.227c0-5.413 4.388-9.801 9.801-9.801s9.801 4.388 9.801 9.8zM57.63 35.483a16.587 16.587 0 0 1-2.192 6.506A98.165 98.165 0 0 1 47.83 53.86s-3.21-4.25-5.967-8.907a46.836 46.836 0 0 1-2.72-5.243 11.726 11.726 0 0 1-1.114-4.227c0-5.412 4.388-9.8 9.8-9.8 5.414 0 9.802 4.388 9.802 9.8zM119.514 69.273a16.61 16.61 0 0 1-2.193 6.505 98.205 98.205 0 0 1-7.608 11.871s-3.21-4.25-5.967-8.906a46.792 46.792 0 0 1-2.719-5.243 11.715 11.715 0 0 1-1.115-4.227c0-5.413 4.388-9.801 9.801-9.801s9.801 4.388 9.801 9.8zM65.398 66.123a16.587 16.587 0 0 1-2.193 6.506A98.165 98.165 0 0 1 55.597 84.5s-3.21-4.25-5.967-8.907a46.827 46.827 0 0 1-2.719-5.243 11.727 11.727 0 0 1-1.115-4.227c0-5.412 4.388-9.8 9.8-9.8 5.414 0 9.802 4.388 9.802 9.8z" fill="#FB1B43"/><path d="M78.874 108.996a3.675 3.675 0 1 1-7.35 0 3.675 3.675 0 0 1 7.35 0zM140.374 53.86a3.675 3.675 0 1 1-7.35 0 3.675 3.675 0 0 1 7.35 0zM51.505 34.16a3.675 3.675 0 1 1-7.35-.001 3.675 3.675 0 0 1 7.35 0zM113.388 67.949a3.676 3.676 0 1 1-7.352-.001 3.676 3.676 0 0 1 7.352 0zM59.272 64.8a3.675 3.675 0 1 1-7.35-.001 3.675 3.675 0 0 1 7.35 0z" fill="#F1F2F2"/></g><defs><clipPath id="a"><path fill="#fff" transform="translate(23.5 23)" d="M0 0h123v123H0z"/></clipPath></defs></svg>