<svg width="213" height="213" viewBox="0 0 213 213" fill="none" xmlns="http://www.w3.org/2000/svg">
<rect width="213" height="213" rx="106.5" fill="white"/>
<g clip-path="url(#clip0_4_109408)">
<path d="M178.553 81.0338C175.147 73.0999 168.238 64.5335 162.828 61.8255C166.686 69.0583 169.364 76.8258 170.766 84.852L170.78 84.9792C161.918 63.5975 146.894 54.9626 134.618 36.1851C133.997 35.2355 133.376 34.2839 132.771 33.2794C132.425 32.7057 132.148 32.1888 131.907 31.713C131.398 30.7585 131.006 29.7498 130.738 28.7074C130.739 28.6593 130.721 28.6127 130.688 28.5766C130.655 28.5405 130.61 28.5173 130.56 28.5116C130.512 28.4987 130.461 28.4987 130.413 28.5116C130.403 28.5116 130.386 28.5292 130.374 28.5331C130.362 28.537 130.336 28.5547 130.318 28.5625L130.348 28.5116C110.659 39.6724 103.974 60.3296 103.368 70.668C95.5019 71.1901 87.9814 73.9952 81.7873 78.7175C81.1413 78.1877 80.4661 77.6923 79.7647 77.2333C77.9788 71.1809 77.9027 64.7754 79.5443 58.6848C72.3135 62.0758 65.8885 66.883 60.6762 72.8023H60.6398C57.5332 68.99 57.7516 56.4194 57.9296 53.7937C57.0105 54.1513 56.1332 54.6022 55.3124 55.1388C52.5699 57.0337 50.0062 59.16 47.6511 61.4927C44.9674 64.1268 42.5163 66.974 40.3235 70.0042V70.016V70.0023C35.2845 76.9173 31.71 84.73 29.8064 92.9896L29.7012 93.4908C29.5536 94.1585 29.0216 97.5028 28.9306 98.2292C28.9306 98.286 28.9185 98.3389 28.9124 98.3957C28.2263 101.848 27.8011 105.345 27.6403 108.857V109.249C27.6749 128.239 35.0621 146.527 48.3435 160.501C61.625 174.476 79.8355 183.123 99.3803 184.735C118.925 186.346 138.384 180.806 153.915 169.206C169.447 157.607 179.922 140.793 183.273 122.082C183.405 121.103 183.512 120.134 183.629 119.145C185.244 106.226 183.496 93.1206 178.545 81.0221L178.553 81.0338ZM88.2068 140.44C88.5728 140.611 88.9167 140.795 89.2928 140.957L89.3475 140.991C88.9672 140.814 88.587 140.631 88.2068 140.44V140.44ZM170.782 85.0008V84.9283L170.797 85.0086L170.782 85.0008Z" fill="url(#paint0_linear_4_109408)"/>
<path d="M178.553 81.0338C175.147 73.0999 168.238 64.5335 162.828 61.8256C166.686 69.0583 169.364 76.8258 170.766 84.852V84.9245L170.781 85.0047C176.824 101.744 175.95 120.097 168.341 136.227C159.357 154.889 137.619 174.017 103.58 173.077C66.8108 172.069 34.4099 145.645 28.3626 111.047C27.2603 105.59 28.3626 102.823 28.9168 98.3879C28.1609 101.833 27.739 105.339 27.6567 108.859V109.251C27.6914 128.241 35.0786 146.529 48.36 160.503C61.6415 174.478 79.852 183.125 99.3968 184.736C118.942 186.348 138.4 180.807 153.932 169.208C169.463 157.609 179.938 140.795 183.29 122.084C183.421 121.105 183.529 120.136 183.646 119.147C185.26 106.228 183.513 93.1226 178.561 81.0241L178.553 81.0338Z" fill="url(#paint1_radial_4_109408)"/>
<path d="M178.553 81.0338C175.147 73.0999 168.238 64.5335 162.828 61.8256C166.686 69.0583 169.364 76.8258 170.766 84.852V84.9245L170.781 85.0047C176.824 101.744 175.95 120.097 168.341 136.227C159.357 154.889 137.619 174.017 103.58 173.077C66.8108 172.069 34.4099 145.645 28.3626 111.047C27.2603 105.59 28.3626 102.823 28.9168 98.3879C28.1609 101.833 27.739 105.339 27.6567 108.859V109.251C27.6914 128.241 35.0786 146.529 48.36 160.503C61.6415 174.478 79.852 183.125 99.3968 184.736C118.942 186.348 138.4 180.807 153.932 169.208C169.463 157.609 179.938 140.795 183.29 122.084C183.421 121.105 183.529 120.136 183.646 119.147C185.26 106.228 183.513 93.1226 178.561 81.0241L178.553 81.0338Z" fill="url(#paint2_radial_4_109408)"/>
<path d="M140.449 89.9429C140.619 90.0584 140.776 90.174 140.936 90.2895C138.967 86.9093 136.516 83.8146 133.655 81.0965C109.284 57.5022 127.27 29.9527 130.302 28.543L130.332 28.4999C110.643 39.6607 103.958 60.3179 103.352 70.6563C104.266 70.5956 105.172 70.5212 106.106 70.5212C113.092 70.5343 119.949 72.3378 125.981 75.7484C132.013 79.1591 137.005 84.0552 140.449 89.939V89.9429Z" fill="url(#paint3_radial_4_109408)"/>
<path d="M106.147 94.6618C106.017 96.5494 99.1286 103.06 96.7198 103.06C74.4316 103.06 70.8113 116.114 70.8113 116.114C71.7983 127.106 79.7104 136.164 89.2749 140.942C89.7118 141.161 90.1547 141.359 90.5976 141.553C91.3648 141.882 92.132 142.186 92.8993 142.465C96.1818 143.59 99.6198 144.232 103.099 144.37C142.174 146.144 149.738 99.1398 121.542 85.4924C128.193 84.6545 134.929 86.2378 140.443 89.9351C136.999 84.0513 132.007 79.1552 125.975 75.7446C119.943 72.334 113.086 70.5304 106.1 70.5173C105.17 70.5173 104.26 70.5917 103.346 70.6524C95.4799 71.1745 87.9594 73.9797 81.7653 78.7019C82.9606 79.6809 84.3096 80.9889 87.1512 83.7008C92.4705 88.774 106.112 94.0294 106.143 94.6462L106.147 94.6618Z" fill="url(#paint4_radial_4_109408)"/>
<path d="M106.147 94.6618C106.017 96.5494 99.1286 103.06 96.7198 103.06C74.4316 103.06 70.8113 116.114 70.8113 116.114C71.7983 127.106 79.7104 136.164 89.2749 140.942C89.7118 141.161 90.1547 141.359 90.5976 141.553C91.3648 141.882 92.132 142.186 92.8993 142.465C96.1818 143.59 99.6198 144.232 103.099 144.37C142.174 146.144 149.738 99.1398 121.542 85.4924C128.193 84.6545 134.929 86.2378 140.443 89.9351C136.999 84.0513 132.007 79.1552 125.975 75.7446C119.943 72.334 113.086 70.5304 106.1 70.5173C105.17 70.5173 104.26 70.5917 103.346 70.6524C95.4799 71.1745 87.9594 73.9797 81.7653 78.7019C82.9606 79.6809 84.3096 80.9889 87.1512 83.7008C92.4705 88.774 106.112 94.0294 106.143 94.6462L106.147 94.6618Z" fill="url(#paint5_radial_4_109408)"/>
<path d="M78.1147 76.1976C78.7497 76.5892 79.2736 76.9299 79.7327 77.2373C77.9468 71.1849 77.8706 64.7794 79.5122 58.6888C72.2814 62.0798 65.8565 66.887 60.6441 72.8063C61.0264 72.7965 72.397 72.5987 78.1147 76.1976V76.1976Z" fill="url(#paint6_radial_4_109408)"/>
<path d="M28.3484 111.051C34.3978 145.649 66.7966 172.082 103.566 173.081C137.605 174.013 159.347 154.883 168.327 136.231C175.935 120.101 176.809 101.748 170.766 85.0087V84.9362C170.766 84.8795 170.754 84.8462 170.766 84.8638L170.781 84.9911C173.562 102.568 164.327 119.589 149.888 131.122L149.843 131.22C121.71 153.405 94.7903 144.601 89.3497 141.01C88.9695 140.834 88.5893 140.651 88.209 140.46C71.8084 132.871 65.0309 118.413 66.4871 105.999C62.594 106.054 58.7677 105.016 55.472 103.009C52.1762 101.002 49.5523 98.1126 47.9183 94.6912C52.2239 92.1378 57.1331 90.6943 62.1782 90.4982C67.2233 90.3022 72.2362 91.3601 76.7393 93.5712C86.0212 97.65 96.583 98.0519 106.167 94.6912C106.137 94.0744 92.4948 88.8171 87.1755 83.7458C84.3339 81.0339 82.9849 79.7279 81.7895 78.7469C81.1435 78.2172 80.4684 77.7217 79.767 77.2627C79.3018 76.9553 78.778 76.6224 78.149 76.223C72.4313 72.6241 61.0607 72.8219 60.6845 72.8317H60.6481C57.5415 69.0194 57.7599 56.4488 57.9379 53.8231C57.0189 54.1807 56.1416 54.6316 55.3208 55.1683C52.5783 57.0632 50.0145 59.1894 47.6595 61.5221C44.9661 64.1488 42.5049 66.9894 40.3015 70.0141V70.0258V70.0121C35.2625 76.9271 31.688 84.7399 29.7844 92.9994C29.746 93.1541 26.961 104.941 28.3342 111.054L28.3484 111.051Z" fill="url(#paint7_radial_4_109408)"/>
<path d="M133.653 81.0925C136.515 83.8136 138.966 86.9117 140.934 90.2953C141.365 90.6105 141.767 90.9238 142.109 91.2273C159.881 107.087 150.569 129.507 149.876 131.093C164.313 119.578 173.539 102.545 170.768 84.9616C161.902 63.5603 146.862 54.9254 134.606 36.1479C133.985 35.1982 133.364 34.2466 132.759 33.2422C132.413 32.6684 132.136 32.1515 131.896 31.6757C131.386 30.7213 130.994 29.7126 130.727 28.6701C130.727 28.622 130.709 28.5755 130.676 28.5394C130.643 28.5033 130.598 28.4801 130.549 28.4743C130.5 28.4615 130.449 28.4615 130.401 28.4743C130.391 28.4743 130.375 28.492 130.362 28.4959C130.35 28.4998 130.324 28.5174 130.306 28.5253C127.274 29.9174 109.292 57.4845 133.663 81.0592L133.653 81.0925Z" fill="url(#paint8_radial_4_109408)"/>
<path d="M142.107 91.2351C141.766 90.9316 141.363 90.6183 140.932 90.3031C140.772 90.1876 140.615 90.072 140.445 89.9565C134.931 86.2592 128.195 84.6759 121.544 85.5137C149.738 99.1612 142.174 146.154 103.101 144.392C99.6219 144.253 96.1839 143.611 92.9013 142.487C92.1341 142.209 91.3669 141.904 90.5997 141.574C90.1568 141.378 89.7138 141.183 89.277 140.963L89.3316 140.997C94.7803 144.597 121.692 153.395 149.825 131.206L149.87 131.108C150.572 129.522 159.883 107.103 142.103 91.2429L142.107 91.2351Z" fill="url(#paint9_radial_4_109408)"/>
<path d="M70.8133 116.102C70.8133 116.102 74.4316 103.048 96.7218 103.048C99.1307 103.048 106.025 96.5376 106.149 94.65C96.5648 98.0108 86.003 97.6089 76.7211 93.53C72.218 91.319 67.2051 90.2611 62.16 90.4571C57.1149 90.6532 52.2057 92.0967 47.9001 94.65C49.5341 98.0715 52.158 100.961 55.4538 102.968C58.7495 104.975 62.5758 106.013 66.4689 105.958C65.0168 118.366 71.7922 132.822 88.1908 140.419C88.5569 140.589 88.9007 140.773 89.2769 140.936C79.7043 136.149 71.8003 127.095 70.8133 116.108V116.102Z" fill="url(#paint10_radial_4_109408)"/>
<path d="M178.553 81.0339C175.147 73.1 168.238 64.5336 162.828 61.8256C166.686 69.0584 169.364 76.8259 170.766 84.8521L170.781 84.9794C161.918 63.5977 146.895 54.9627 134.618 36.1852C133.997 35.2356 133.376 34.284 132.771 33.2795C132.425 32.7058 132.148 32.1889 131.908 31.7131C131.399 30.7586 131.006 29.75 130.739 28.7075C130.739 28.6594 130.721 28.6128 130.688 28.5767C130.655 28.5406 130.61 28.5175 130.561 28.5117C130.512 28.4989 130.461 28.4989 130.413 28.5117C130.403 28.5117 130.387 28.5293 130.375 28.5332C130.362 28.5372 130.336 28.5548 130.318 28.5626L130.348 28.5117C110.659 39.6725 103.975 60.3297 103.368 70.6681C104.282 70.6074 105.188 70.533 106.123 70.533C113.108 70.5461 119.965 72.3496 125.997 75.7603C132.03 79.1709 137.021 84.067 140.465 89.9508C134.951 86.2535 128.216 84.6702 121.565 85.508C149.758 99.1555 142.194 146.148 103.121 144.386C99.6421 144.248 96.2041 143.605 92.9215 142.481C92.1543 142.203 91.3871 141.899 90.6199 141.568C90.177 141.373 89.734 141.177 89.2972 140.958L89.3518 140.991C88.9715 140.815 88.5913 140.631 88.2111 140.441C88.5772 140.611 88.921 140.795 89.2972 140.958C79.7246 136.168 71.8205 127.114 70.8336 116.13C70.8336 116.13 74.4518 103.076 96.7421 103.076C99.1509 103.076 106.046 96.565 106.169 94.6775C106.139 94.0607 92.4968 88.8034 87.1776 83.7321C84.3359 81.0202 82.9869 79.7142 81.7916 78.7333C81.1456 78.2035 80.4704 77.7081 79.7691 77.2491C77.9832 71.1966 77.907 64.7912 79.5486 58.7006C72.3178 62.0915 65.8929 66.8988 60.6805 72.818H60.6441C57.5375 69.0058 57.7559 56.4352 57.9339 53.8095C57.0149 54.167 56.1376 54.618 55.3168 55.1546C52.5743 57.0495 50.0105 59.1757 47.6554 61.5084C44.9717 64.1426 42.5206 66.9897 40.3278 70.02V70.0318V70.0181C35.2888 76.9331 31.7143 84.7458 29.8107 93.0053L29.7055 93.5066C29.5579 94.1743 28.8965 97.5656 28.8015 98.294C28.1965 101.795 27.8102 105.328 27.6446 108.873V109.265C27.6792 128.255 35.0664 146.542 48.3479 160.517C61.6293 174.492 79.8399 183.139 99.3847 184.75C118.929 186.362 138.388 180.821 153.92 169.222C169.451 157.623 179.926 140.809 183.278 122.098C183.409 121.119 183.516 120.15 183.634 119.161C185.248 106.241 183.5 93.1364 178.549 81.0379L178.553 81.0339ZM170.777 84.9324L170.791 85.0127L170.777 84.9324Z" fill="url(#paint11_linear_4_109408)"/>
</g>
<defs>
<linearGradient id="paint0_linear_4_109408" x1="168.177" y1="52.7518" x2="42.1117" y2="178.39" gradientUnits="userSpaceOnUse">
<stop offset="0.048" stop-color="#FFF44F"/>
<stop offset="0.111" stop-color="#FFE847"/>
<stop offset="0.225" stop-color="#FFC830"/>
<stop offset="0.368" stop-color="#FF980E"/>
<stop offset="0.401" stop-color="#FF8B16"/>
<stop offset="0.462" stop-color="#FF672A"/>
<stop offset="0.534" stop-color="#FF3647"/>
<stop offset="0.705" stop-color="#E31587"/>
</linearGradient>
<radialGradient id="paint1_radial_4_109408" cx="0" cy="0" r="1" gradientUnits="userSpaceOnUse" gradientTransform="translate(163.142 46.1221) scale(163.42 158.209)">
<stop offset="0.129" stop-color="#FFBD4F"/>
<stop offset="0.186" stop-color="#FFAC31"/>
<stop offset="0.247" stop-color="#FF9D17"/>
<stop offset="0.283" stop-color="#FF980E"/>
<stop offset="0.403" stop-color="#FF563B"/>
<stop offset="0.467" stop-color="#FF3750"/>
<stop offset="0.71" stop-color="#F5156C"/>
<stop offset="0.782" stop-color="#EB0878"/>
<stop offset="0.86" stop-color="#E50080"/>
</radialGradient>
<radialGradient id="paint2_radial_4_109408" cx="0" cy="0" r="1" gradientUnits="userSpaceOnUse" gradientTransform="translate(102.466 110.737) scale(163.42 158.209)">
<stop offset="0.3" stop-color="#960E18"/>
<stop offset="0.351" stop-color="#B11927" stop-opacity="0.74"/>
<stop offset="0.435" stop-color="#DB293D" stop-opacity="0.343"/>
<stop offset="0.497" stop-color="#F5334B" stop-opacity="0.094"/>
<stop offset="0.53" stop-color="#FF3750" stop-opacity="0"/>
</radialGradient>
<radialGradient id="paint3_radial_4_109408" cx="0" cy="0" r="1" gradientUnits="userSpaceOnUse" gradientTransform="translate(122.691 10.8776) scale(118.378 114.604)">
<stop offset="0.132" stop-color="#FFF44F"/>
<stop offset="0.252" stop-color="#FFDC3E"/>
<stop offset="0.506" stop-color="#FF9D12"/>
<stop offset="0.526" stop-color="#FF980E"/>
</radialGradient>
<radialGradient id="paint4_radial_4_109408" cx="0" cy="0" r="1" gradientUnits="userSpaceOnUse" gradientTransform="translate(84.2631 151.856) scale(77.8065 75.3255)">
<stop offset="0.353" stop-color="#3A8EE6"/>
<stop offset="0.472" stop-color="#5C79F0"/>
<stop offset="0.669" stop-color="#9059FF"/>
<stop offset="1" stop-color="#C139E6"/>
</radialGradient>
<radialGradient id="paint5_radial_4_109408" cx="0" cy="0" r="1" gradientUnits="userSpaceOnUse" gradientTransform="translate(110.37 97.1564) rotate(-13.1735) scale(41.1881 46.8457)">
<stop offset="0.206" stop-color="#9059FF" stop-opacity="0"/>
<stop offset="0.278" stop-color="#8C4FF3" stop-opacity="0.064"/>
<stop offset="0.747" stop-color="#7716A8" stop-opacity="0.45"/>
<stop offset="0.975" stop-color="#6E008B" stop-opacity="0.6"/>
</radialGradient>
<radialGradient id="paint6_radial_4_109408" cx="0" cy="0" r="1" gradientUnits="userSpaceOnUse" gradientTransform="translate(100.443 40.2481) scale(55.9834 54.1983)">
<stop stop-color="#FFE226"/>
<stop offset="0.121" stop-color="#FFDB27"/>
<stop offset="0.295" stop-color="#FFC82A"/>
<stop offset="0.502" stop-color="#FFA930"/>
<stop offset="0.732" stop-color="#FF7E37"/>
<stop offset="0.792" stop-color="#FF7139"/>
</radialGradient>
<radialGradient id="paint7_radial_4_109408" cx="0" cy="0" r="1" gradientUnits="userSpaceOnUse" gradientTransform="translate(144.939 5.00351) scale(238.86 231.244)">
<stop offset="0.113" stop-color="#FFF44F"/>
<stop offset="0.456" stop-color="#FF980E"/>
<stop offset="0.622" stop-color="#FF5634"/>
<stop offset="0.716" stop-color="#FF3647"/>
<stop offset="0.904" stop-color="#E31587"/>
</radialGradient>
<radialGradient id="paint8_radial_4_109408" cx="0" cy="0" r="1" gradientUnits="userSpaceOnUse" gradientTransform="translate(125.086 17.8246) rotate(83.7791) scale(169.521 114.835)">
<stop stop-color="#FFF44F"/>
<stop offset="0.06" stop-color="#FFE847"/>
<stop offset="0.168" stop-color="#FFC830"/>
<stop offset="0.304" stop-color="#FF980E"/>
<stop offset="0.356" stop-color="#FF8B16"/>
<stop offset="0.455" stop-color="#FF672A"/>
<stop offset="0.57" stop-color="#FF3647"/>
<stop offset="0.737" stop-color="#E31587"/>
</radialGradient>
<radialGradient id="paint9_radial_4_109408" cx="0" cy="0" r="1" gradientUnits="userSpaceOnUse" gradientTransform="translate(100.443 59.8283) scale(149.1 144.346)">
<stop offset="0.137" stop-color="#FFF44F"/>
<stop offset="0.48" stop-color="#FF980E"/>
<stop offset="0.592" stop-color="#FF5634"/>
<stop offset="0.655" stop-color="#FF3647"/>
<stop offset="0.904" stop-color="#E31587"/>
</radialGradient>
<radialGradient id="paint10_radial_4_109408" cx="0" cy="0" r="1" gradientUnits="userSpaceOnUse" gradientTransform="translate(138.871 67.6605) scale(163.197 157.994)">
<stop offset="0.094" stop-color="#FFF44F"/>
<stop offset="0.231" stop-color="#FFE141"/>
<stop offset="0.509" stop-color="#FFAF1E"/>
<stop offset="0.626" stop-color="#FF980E"/>
</radialGradient>
<linearGradient id="paint11_linear_4_109408" x1="166.6" y1="52.1058" x2="59.4743" y2="162.78" gradientUnits="userSpaceOnUse">
<stop offset="0.167" stop-color="#FFF44F" stop-opacity="0.8"/>
<stop offset="0.266" stop-color="#FFF44F" stop-opacity="0.634"/>
<stop offset="0.489" stop-color="#FFF44F" stop-opacity="0.217"/>
<stop offset="0.6" stop-color="#FFF44F" stop-opacity="0"/>
</linearGradient>
<clipPath id="clip0_4_109408">
<rect width="156.584" height="156.584" fill="white" transform="translate(27.6324 28.4999)"/>
</clipPath>
</defs>
</svg>
