<svg width="24" height="25" viewBox="0 0 24 25" fill="none" xmlns="http://www.w3.org/2000/svg">
<g clip-path="url(#clip0_10104_65359)">
<path d="M14.4972 15.9501C16.0255 15.9497 17.5341 15.0459 18.4982 13.8996C19.8519 12.2899 20.0112 9.8954 19.4175 7.94657C19.2395 7.36242 18.9882 6.80053 18.6677 6.28059C18.3078 5.69695 17.864 5.16707 17.369 4.69349C15.0672 2.49131 11.761 1.56562 8.66054 2.13009C7.60998 2.32134 6.5484 2.66446 5.62933 3.21515C5.6244 3.21834 5.62004 3.22125 5.61653 3.22364C5.61803 3.22242 5.61958 3.22124 5.62112 3.22003C5.61915 3.22124 5.61709 3.22242 5.61512 3.22359C5.61254 3.2257 5.61011 3.22776 5.608 3.2295C5.60898 3.22846 5.61029 3.2271 5.61189 3.22551C5.61048 3.22635 5.60908 3.2272 5.60767 3.22804C6.55581 2.30784 8.05506 1.57181 9.75995 1.21298C10.5441 1.04793 11.3715 0.963839 12.2104 0.966652C14.0078 0.966183 15.7969 1.40793 17.4117 2.19032C18.5431 2.73853 19.5753 3.47939 20.4518 4.38173C21.1335 5.08354 21.7511 5.85088 22.2632 6.68545C22.8505 7.64273 23.2991 8.69128 23.5907 9.77554C23.5915 9.77821 23.5922 9.78093 23.5929 9.78365C23.8581 10.7756 24 11.818 24 12.8936C24 19.53 18.62 24.91 11.9836 24.91C6.04028 24.91 1.10542 20.5949 0.139325 14.927C0.113825 14.7739 0.102668 14.6175 0.0847151 14.4634C0.0299182 13.9906 0.00198074 13.5122 0.000105744 13.0339C-0.00636301 11.4273 0.283981 9.82092 0.864153 8.42512C1.2069 7.60059 1.78023 6.73303 2.36865 6.11282C2.39668 6.08329 2.42472 6.05432 2.45279 6.02596C2.73343 5.74218 3.01515 5.5176 3.2747 5.38364C3.2245 5.48226 3.17547 5.58149 3.12765 5.68134C2.93561 6.08268 2.76381 6.49443 2.61372 6.91331C2.54556 7.10343 2.48172 7.29562 2.42289 7.48884C2.19662 8.23213 2.06964 8.90503 2.02707 9.4387C2.15889 9.00459 2.32243 8.57882 2.51692 8.16885C2.54289 8.11406 2.56947 8.05954 2.59661 8.00531C3.01061 7.17796 3.56218 6.40987 4.22636 5.7697C4.56001 5.44813 4.92029 5.15292 5.3049 4.89421C6.7254 3.93881 8.38347 3.52495 9.77697 3.56437C10.7873 3.59292 11.6585 3.85964 12.1991 4.33068C12.1606 4.3439 12.122 4.35768 12.0834 4.37212C12.0443 4.38515 12.0055 4.40179 11.9673 4.41726C9.56781 5.38785 7.06169 8.7066 7.63609 12.5773C7.74254 13.2947 7.94664 13.8883 8.22498 14.4721C7.76734 13.2598 7.72558 11.5504 8.46728 10.4441C9.29401 9.21088 10.4815 8.94506 11.1134 9.08081C9.21034 10.6986 9.60236 14.044 12.2324 15.3869C12.9144 15.735 13.7143 15.9504 14.4972 15.9501Z" fill="#87AB49"/>
</g>
<defs>
<clipPath id="clip0_10104_65359">
<rect width="24" height="24" fill="white" transform="translate(0 0.938293)"/>
</clipPath>
</defs>
</svg>
