<svg xmlns="http://www.w3.org/2000/svg" xmlns:xlink="http://www.w3.org/1999/xlink" width="436.891" height="436.891" viewBox="0 0 436.891 436.891"><defs><linearGradient id="a" y1="0.5" x2="2.069" y2="0.5" gradientUnits="objectBoundingBox"><stop offset="0" stop-color="#eaeaea"/><stop offset="0.004" stop-color="#e9e9e9"/><stop offset="0.249" stop-color="#b6b6b6"/><stop offset="0.479" stop-color="#8d8d8d"/><stop offset="0.688" stop-color="#707070"/><stop offset="0.868" stop-color="#5f5f5f"/><stop offset="1" stop-color="#595959"/></linearGradient><linearGradient id="b" x1="-5.525" y1="0.5" x2="2.37" y2="0.5" gradientUnits="objectBoundingBox"><stop offset="0" stop-color="#1e1e1e"/><stop offset="0.414" stop-color="#202020"/><stop offset="0.701" stop-color="#292929"/><stop offset="0.949" stop-color="#393939"/><stop offset="0.995" stop-color="#3d3d3d"/></linearGradient><linearGradient id="c" x1="-0.521" y1="0.5" x2="1.317" y2="0.5" xlink:href="#a"/><linearGradient id="d" x1="-9.054" y1="0.5" x2="7.74" y2="0.5" xlink:href="#a"/><linearGradient id="e" x1="-4.271" y1="0.5" x2="2.568" y2="0.5" xlink:href="#a"/><linearGradient id="f" x1="-26.586" y1="0.5" x2="1" y2="0.5" xlink:href="#a"/><linearGradient id="g" x1="-14.837" y1="0.5" x2="1.957" y2="0.5" xlink:href="#a"/><linearGradient id="h" x1="-1.551" y1="0.5" x2="1.217" y2="0.5" xlink:href="#a"/><linearGradient id="i" x1="-0.047" y1="0.5" x2="1.251" y2="0.5" xlink:href="#a"/><linearGradient id="j" x1="0" y1="0.5" x2="2.069" y2="0.5" xlink:href="#a"/><linearGradient id="k" x1="0" y1="0.5" x2="27.586" y2="0.5" xlink:href="#a"/><linearGradient id="l" x1="0" y1="0.5" x2="7.688" y2="0.5" xlink:href="#a"/><linearGradient id="n" x1="-4.24" y1="0.5" x2="15.596" y2="0.5" xlink:href="#a"/><linearGradient id="p" x1="-3.537" y1="0.5" x2="8.13" y2="0.5" xlink:href="#b"/><linearGradient id="q" x1="-0.862" y1="0.5" x2="7.06" y2="0.5" xlink:href="#a"/><linearGradient id="r" x1="-1.877" y1="0.5" x2="1.473" y2="0.5" xlink:href="#b"/><linearGradient id="s" x1="-2.031" y1="0.5" x2="1.114" y2="0.5" xlink:href="#a"/><linearGradient id="t" x1="-1.64" y1="0.5" x2="1.099" y2="0.5" xlink:href="#a"/><linearGradient id="u" y1="0.5" x2="1" y2="0.5" gradientUnits="objectBoundingBox"><stop offset="0" stop-color="#61d6f2"/><stop offset="0.272" stop-color="#4ac7e1"/><stop offset="0.739" stop-color="#29b1c8"/><stop offset="0.995" stop-color="#1da9bf"/></linearGradient><linearGradient id="v" x1="-3.912" y1="0.5" x2="12.19" y2="0.5" xlink:href="#a"/><linearGradient id="w" x1="-5.525" y1="0.5" x2="2.37" y2="0.5" xlink:href="#b"/><linearGradient id="y" x1="-2.765" y1="0.5" x2="10.762" y2="0.5" xlink:href="#b"/><linearGradient id="z" x1="-13.476" y1="0.5" x2="1.145" y2="0.5" xlink:href="#a"/><linearGradient id="aa" x1="-11.225" y1="-5.773" x2="6.122" y2="3.537" gradientUnits="objectBoundingBox"><stop offset="0" stop-color="#eaeaea"/><stop offset="0.162" stop-color="#bfbfbf"/><stop offset="0.332" stop-color="#9a9a9a"/><stop offset="0.502" stop-color="#7e7e7e"/><stop offset="0.671" stop-color="#696969"/><stop offset="0.838" stop-color="#5d5d5d"/><stop offset="1" stop-color="#595959"/></linearGradient><linearGradient id="ab" x1="-8.442" y1="0.5" x2="6.179" y2="0.5" xlink:href="#a"/><linearGradient id="ac" x1="-8.927" y1="-5.76" x2="8.42" y2="5.759" gradientUnits="objectBoundingBox"><stop offset="0" stop-color="#eaeaea"/><stop offset="0.129" stop-color="#e0e0e0"/><stop offset="0.343" stop-color="#c7c7c7"/><stop offset="0.614" stop-color="#9e9e9e"/><stop offset="0.93" stop-color="#666"/><stop offset="1" stop-color="#595959"/></linearGradient><linearGradient id="ad" x1="-8.2" y1="0.5" x2="1.969" y2="0.5" xlink:href="#a"/><linearGradient id="ae" x1="-10.16" y1="-9.678" x2="5.592" y2="5.361" xlink:href="#aa"/><linearGradient id="af" x1="-4.699" y1="0.5" x2="5.47" y2="0.5" xlink:href="#a"/><linearGradient id="ag" x1="-8.06" y1="-7.673" x2="7.691" y2="7.366" xlink:href="#ac"/><linearGradient id="am" x1="-2.99" y1="0.5" x2="1" y2="0.5" xlink:href="#a"/><linearGradient id="an" x1="-7.291" y1="-1.214" x2="7.125" y2="1.766" xlink:href="#aa"/><linearGradient id="ao" y1="0.5" x2="1" y2="0.5" gradientUnits="objectBoundingBox"><stop offset="0" stop-color="#6f61d6"/><stop offset="0.718" stop-color="#6352c4"/><stop offset="1" stop-color="#5e4bbc"/></linearGradient><linearGradient id="at" x1="0" y1="0.5" y2="0.5" xlink:href="#ao"/><linearGradient id="au" y1="0.5" x2="1" y2="0.5" gradientUnits="objectBoundingBox"><stop offset="0" stop-color="#e89f5d"/><stop offset="1" stop-color="#f2b172"/></linearGradient><linearGradient id="av" y1="0.5" x2="1" y2="0.5" gradientUnits="objectBoundingBox"><stop offset="0" stop-color="#fdc88e"/><stop offset="1" stop-color="#f2b172"/></linearGradient><linearGradient id="ay" y1="0.5" x2="1" y2="0.5" gradientUnits="objectBoundingBox"><stop offset="0" stop-color="#414141"/><stop offset="0.5" stop-color="#474747"/><stop offset="1" stop-color="#353535"/></linearGradient><linearGradient id="az" x1="0.639" y1="-3.224" x2="0.361" y2="4.224" gradientUnits="objectBoundingBox"><stop offset="0" stop-color="#eaeaea"/><stop offset="0.24" stop-color="#d6d6d6"/><stop offset="0.724" stop-color="#a5a5a5"/><stop offset="1" stop-color="#878787"/></linearGradient><linearGradient id="ba" y1="0.5" x2="1" y2="0.5" gradientUnits="objectBoundingBox"><stop offset="0" stop-color="#66c8ff"/><stop offset="0.189" stop-color="#4dbcff"/><stop offset="0.548" stop-color="#23a8ff"/><stop offset="0.831" stop-color="#099cff"/><stop offset="1" stop-color="#0098ff"/></linearGradient><linearGradient id="bc" x1="-0.71" y1="0.5" y2="0.5" xlink:href="#ay"/><linearGradient id="bd" x1="0" y1="0.5" x2="4.161" y2="0.5" xlink:href="#ay"/><linearGradient id="be" x1="-0.662" y1="0.5" x2="3.152" y2="0.5" xlink:href="#ay"/><linearGradient id="bf" x1="-0.036" y1="0.5" x2="1.017" y2="0.5" xlink:href="#az"/><linearGradient id="bh" x1="0" y1="0.5" x2="4.161" y2="0.5" xlink:href="#ay"/><linearGradient id="bk" x1="0.005" y1="0.396" x2="0.866" y2="0.717" xlink:href="#ay"/><linearGradient id="bl" x1="0.552" y1="0.354" x2="-1.513" y2="4.345" xlink:href="#az"/><linearGradient id="bm" x1="-0.056" y1="0.368" x2="1.236" y2="0.802" xlink:href="#ay"/><linearGradient id="bn" x1="0.83" y1="0.079" x2="-0.045" y2="0.959" xlink:href="#az"/><linearGradient id="bo" x1="-0.432" y1="0.111" x2="0.682" y2="0.595" xlink:href="#ay"/><linearGradient id="bp" y1="0.5" x2="1" y2="0.5" gradientUnits="objectBoundingBox"><stop offset="0" stop-color="#303030"/><stop offset="1" stop-color="#353535"/></linearGradient><linearGradient id="bq" x1="0.058" y1="0.263" x2="1.294" y2="0.759" xlink:href="#ay"/><linearGradient id="br" x1="0.804" y1="-0.132" x2="-7.618" y2="16.138" xlink:href="#az"/><linearGradient id="bs" x1="-0.64" y1="0.071" x2="2.927" y2="1.268" xlink:href="#ay"/><linearGradient id="bt" x1="0.912" y1="0.17" x2="0.284" y2="0.802" xlink:href="#az"/><linearGradient id="bu" x1="-3.914" y1="-1.415" x2="1.161" y2="0.79" xlink:href="#ay"/><linearGradient id="bv" x1="0.714" y1="0.27" x2="0.327" y2="0.774" xlink:href="#bp"/><linearGradient id="bw" x1="0" y1="0.5" x2="1" y2="0.5" xlink:href="#bp"/><linearGradient id="bx" x1="0" y1="0.5" x2="1" y2="0.5" xlink:href="#bp"/><linearGradient id="by" x1="0.5" x2="0.5" y2="1" gradientUnits="objectBoundingBox"><stop offset="0" stop-color="#eaeaea"/><stop offset="1" stop-color="#595959"/></linearGradient><linearGradient id="ca" x1="0" y1="0.5" x2="1" y2="0.5" xlink:href="#ba"/><linearGradient id="cb" y1="0.5" x2="1" y2="0.5" gradientUnits="objectBoundingBox"><stop offset="0" stop-color="#fff800"/><stop offset="0.185" stop-color="#ffef00"/><stop offset="1" stop-color="#ffcb00"/></linearGradient><linearGradient id="cd" y1="0.5" x2="1" y2="0.5" gradientUnits="objectBoundingBox"><stop offset="0" stop-color="#eaeaea"/><stop offset="0.195" stop-color="#c8c8c8"/><stop offset="0.574" stop-color="#8c8c8c"/><stop offset="0.853" stop-color="#676767"/><stop offset="1" stop-color="#595959"/></linearGradient><linearGradient id="cf" y1="0.5" x2="1" y2="0.5" gradientUnits="objectBoundingBox"><stop offset="0" stop-color="#474747"/><stop offset="0.456" stop-color="#3a3a3a"/><stop offset="0.876" stop-color="#353535"/></linearGradient><linearGradient id="ch" y1="0.5" x2="1" y2="0.5" gradientUnits="objectBoundingBox"><stop offset="0" stop-color="#878787"/><stop offset="0.607" stop-color="#696969"/><stop offset="1" stop-color="#5b5b5b"/></linearGradient><linearGradient id="cl" y1="0.5" x2="1" y2="0.5" gradientUnits="objectBoundingBox"><stop offset="0" stop-color="#727272"/><stop offset="1" stop-color="#353535"/></linearGradient><linearGradient id="cm" x1="-0.293" y1="0.5" x2="1" y2="0.5" xlink:href="#cb"/><linearGradient id="cn" x1="0" y1="0.5" x2="1.109" y2="0.5" xlink:href="#cb"/><linearGradient id="co" y1="0.5" x2="1" y2="0.5" gradientUnits="objectBoundingBox"><stop offset="0" stop-color="#fff"/><stop offset="0.468" stop-color="#ffe581"/><stop offset="0.835" stop-color="#ffd224"/><stop offset="1" stop-color="#ffcb00"/></linearGradient><linearGradient id="ct" x1="0.5" y1="1" x2="0.5" y2="0" xlink:href="#cb"/><linearGradient id="cy" x1="0.5" x2="0.5" y2="1" gradientUnits="objectBoundingBox"><stop offset="0" stop-color="#d7f1ff"/><stop offset="0.249" stop-color="#b3e4ff"/><stop offset="0.582" stop-color="#89d4ff"/><stop offset="0.844" stop-color="#6fcbff"/><stop offset="1" stop-color="#66c8ff"/></linearGradient><linearGradient id="cz" x1="0.5" y1="0" x2="0.5" y2="1" xlink:href="#cy"/><linearGradient id="da" x1="0.5" y1="0" x2="0.5" y2="1" xlink:href="#cy"/><linearGradient id="db" x1="0.5" y1="0" x2="0.5" y2="1" xlink:href="#cy"/><linearGradient id="dc" y1="0.5" x2="1" y2="0.5" gradientUnits="objectBoundingBox"><stop offset="0" stop-color="#fff"/><stop offset="0.06" stop-color="#e4f4ff"/><stop offset="0.207" stop-color="#a9dcff"/><stop offset="0.355" stop-color="#75c7ff"/><stop offset="0.498" stop-color="#4bb6ff"/><stop offset="0.637" stop-color="#2ba9ff"/><stop offset="0.769" stop-color="#139fff"/><stop offset="0.893" stop-color="#0599ff"/><stop offset="1" stop-color="#0198ff"/></linearGradient><linearGradient id="dd" x1="0" y1="0.5" x2="1" y2="0.5" xlink:href="#ba"/><linearGradient id="de" x1="0" y1="0.5" x2="1" y2="0.5" xlink:href="#dc"/><linearGradient id="df" x1="0" y1="0.5" x2="1" y2="0.5" xlink:href="#ba"/><linearGradient id="dg" x1="0" y1="0.5" x2="1" y2="0.5" xlink:href="#dc"/><linearGradient id="dj" x1="0.5" y1="0" x2="0.5" y2="1" xlink:href="#av"/><linearGradient id="dk" x1="0.5" y1="-0.007" x2="0.5" y2="1" xlink:href="#av"/><linearGradient id="dl" x1="0.5" y1="-1.636" x2="0.5" y2="3.154" xlink:href="#av"/></defs><g transform="translate(-179 -888)"><g transform="translate(-437.369 801.945)"><circle cx="152.003" cy="152.003" r="152.003" transform="translate(682.811 152.497)" fill="#d5d7db" opacity="0.204"/><circle cx="218.445" cy="218.445" r="218.445" transform="translate(616.369 86.055)" fill="#d5d7db" opacity="0.152"/></g><g transform="translate(116 1225.967)"><g transform="translate(118.673 -266.337)"><rect width="96.34" height="38.707" transform="translate(111.321 189.227)" fill="url(#a)"/><rect width="96.34" height="7.735" transform="translate(111.321 191.693)" opacity="0.5" fill="url(#b)"/><rect width="112.899" height="7.512" transform="translate(103.041 224.749)" fill="url(#c)"/><path d="M229.618-266.337l6.834,11.255h12.276l-6.834-11.255Z" transform="translate(-56.598 266.337)" fill="url(#d)"/><path d="M247.754-266.337l6.833,11.255h40.094l-6.834-11.255Z" transform="translate(-47.342 266.337)" fill="url(#e)"/><path d="M319.846-125.291l8.455,13.926h3.178v-60.8l-11.634-19.161Z" transform="translate(-10.546 304.625)" fill="url(#f)"/><path d="M302.784-145.837l6.833,11.255h12.276l-6.834-11.255Z" transform="translate(-19.254 327.841)" fill="url(#g)"/><path d="M234.143-258.886,337.819-88.136h12.276L246.419-258.886Z" transform="translate(-54.289 270.141)" fill="url(#h)"/><path d="M122.769-258.886v170.75h247.17L266.262-258.886Z" transform="translate(-111.135 270.141)" fill="url(#i)"/><path d="M115.066-266.337v33.686L126.7-213.688v-41.394H270.194l-6.833-11.255Z" transform="translate(-115.066 266.337)" fill="url(#j)"/><path d="M115.066-215.271,126.7-196.11v-15.805l-11.634-19.226Z" transform="translate(-115.066 284.302)" fill="url(#k)"/><path d="M126.7-126.406v-38.34l-11.634-19.161v68.755h41.747l-6.834-11.255Z" transform="translate(-115.066 308.411)" fill="url(#l)"/><path d="M175.309-145.837l6.9,11.255H349.955l-6.833-11.255Z" transform="translate(-84.318 327.841)" fill="url(#c)"/><path d="M160.481-145.837l6.834,11.255h9.346l-6.81-11.255Z" transform="translate(-91.886 327.841)" fill="url(#n)"/><path d="M115.066-165.161,126.7-146v-55.473l-11.634-19.161Z" transform="translate(-115.066 289.665)" fill="url(#k)"/><path d="M115.066-165.161,126.7-146v-55.473l-11.634-19.161Z" transform="translate(-115.066 289.665)" opacity="0.5" fill="url(#p)"/><path d="M138.181-145.837l6.834,11.255H178.7l-6.834-11.255Z" transform="translate(-103.268 327.841)" fill="url(#q)"/><path d="M138.181-145.837l6.834,11.255H178.7l-6.834-11.255Z" transform="translate(-103.268 327.841)" opacity="0.5" fill="url(#r)"/><path d="M252.279-258.886,354.333-90.807V-156.84l-61.96-102.046Z" transform="translate(-45.032 270.141)" fill="url(#s)"/><path d="M242.27-258.886,345.946-88.136h13.495v-2.671L257.387-258.886Z" transform="translate(-50.141 270.141)" fill="url(#t)"/><path d="M318.381-258.886H122.769v170.75H420.435v-170.75H318.381Z" transform="translate(-111.135 270.141)" fill="url(#u)"/><path d="M166.684-145.837l6.81,11.255h13.121l-6.9-11.255Z" transform="translate(-88.72 327.841)" fill="url(#v)"/><path d="M166.684-145.837l6.81,11.255h13.121l-6.9-11.255Z" transform="translate(-88.72 327.841)" opacity="0.5" fill="url(#w)"/><path d="M115.066-224.561,126.7-205.334v-19.737l-11.634-18.963Z" transform="translate(-115.066 277.721)" fill="url(#k)"/><path d="M115.066-224.561,126.7-205.334v-19.737l-11.634-18.963Z" transform="translate(-115.066 277.721)" opacity="0.5" fill="url(#y)"/><path d="M324.406-144.934H310.912l6.834,11.255h15.117l-8.455-13.926Z" transform="translate(-15.106 326.939)" fill="url(#z)"/><path d="M324.406-144.934H310.912l6.834,11.255h15.117l-8.455-13.926Z" transform="translate(-15.106 326.939)" fill="url(#aa)"/><path d="M237.746-266.337l6.834,11.255H259.7l-6.833-11.255Z" transform="translate(-52.45 266.337)" fill="url(#ab)"/><path d="M237.746-266.337l6.834,11.255H259.7l-6.833-11.255Z" transform="translate(-52.45 266.337)" opacity="0.7" fill="url(#ac)"/><path d="M286.413-145.837l6.833,11.255h24.726l-6.833-11.255Z" transform="translate(-27.61 327.841)" fill="url(#ad)"/><path d="M286.413-145.837l6.833,11.255h24.726l-6.833-11.255Z" transform="translate(-27.61 327.841)" fill="url(#ae)"/><path d="M213.248-266.337l6.833,11.255h24.726l-6.834-11.255Z" transform="translate(-64.954 266.337)" fill="url(#af)"/><path d="M213.248-266.337l6.833,11.255h24.726l-6.834-11.255Z" transform="translate(-64.954 266.337)" opacity="0.7" fill="url(#ag)"/><g transform="translate(11.634 11.255)"><path d="M144.709-171.812l23.822,39.234H177.9l-23.74-39.234Z" transform="translate(-111.57 303.329)" fill="#d15518"/><path d="M287.012-171.812l23.822,39.234H323.11l-23.822-39.234Z" transform="translate(-38.938 303.329)" fill="#d15518"/><path d="M122.769-132.881h23.279l-23.279-38.34Z" transform="translate(-122.769 303.631)" fill="#d15518"/><path d="M159.374-171.812l24.069,39.234H351.255l-23.822-39.234Z" transform="translate(-104.085 303.329)" fill="#d15518"/><path d="M327.348-135.25v-36.563h-22.2Z" transform="translate(-29.681 303.329)" fill="#d15518"/><path d="M122.769-153.369h33.139l-33.139-54.58Z" transform="translate(-122.769 284.885)" fill="url(#u)"/><path d="M122.769-171.812v.893l23.279,38.34H179.73l-23.822-39.234Z" transform="translate(-122.769 303.329)" fill="#e26630"/><path d="M122.769-211.743l42.59,70.385h12.7L122.769-231.48Z" transform="translate(-122.769 272.874)" fill="url(#u)"/><path d="M150.966-171.812l23.74,39.234h13.027l-24.069-39.234Z" transform="translate(-108.376 303.329)" fill="#e26630"/><path d="M242.27-258.886,322.125-127.37h15.116L257.387-258.886Z" transform="translate(-61.774 258.886)" fill="url(#u)"/><path d="M295.14-171.812l23.822,39.234h13.495v-2.671l-22.2-36.563Z" transform="translate(-34.79 303.329)" fill="#e26630"/><path d="M217.772-258.886,297.626-127.37h24.726L242.5-258.886Z" transform="translate(-74.278 258.886)" fill="url(#u)"/><path d="M270.641-171.812l23.822,39.234H319.19l-23.822-39.234Z" transform="translate(-47.294 303.329)" fill="#e26630"/></g><rect width="297.667" height="2.489" transform="translate(11.634 154.311)" fill="#893e24"/><rect width="297.667" height="2.489" transform="translate(11.634 167.178)" fill="#893e24"/><path d="M340.784-156.84V-258.886h-61.96Z" transform="translate(-31.484 270.141)" fill="url(#u)"/><path d="M322.531-225.111a7.91,7.91,0,0,0-2.134.32,11.946,11.946,0,0,0-11.858-10.535A11.942,11.942,0,0,0,296.6-223.7a7.283,7.283,0,0,0-3.193-.758,7.359,7.359,0,0,0-7.226,5.99h44.24A8.017,8.017,0,0,0,322.531-225.111Z" transform="translate(-27.726 282.166)" fill="#fff"/><path d="M191.029-219.681a4.812,4.812,0,0,0-1.293.193,7.237,7.237,0,0,0-7.183-6.381,7.232,7.232,0,0,0-7.229,7.045,4.408,4.408,0,0,0-1.935-.459,4.459,4.459,0,0,0-4.379,3.628h26.8A4.857,4.857,0,0,0,191.029-219.681Z" transform="translate(-87.533 286.993)" fill="#fff"/><path d="M269-232.519a4.812,4.812,0,0,0-1.293.193,7.236,7.236,0,0,0-7.183-6.381,7.234,7.234,0,0,0-7.229,7.045,4.408,4.408,0,0,0-1.935-.459,4.458,4.458,0,0,0-4.377,3.629h26.8A4.856,4.856,0,0,0,269-232.519Z" transform="translate(-47.736 280.44)" fill="#fff"/><path d="M208.345-232.474h0a15.518,15.518,0,0,0-15.518-15.518,15.512,15.512,0,0,0-15.093,11.968,10.649,10.649,0,0,0-6.572-2.266,10.7,10.7,0,0,0-10.071,7.1,7.58,7.58,0,0,0-4.231-1.282,7.624,7.624,0,0,0-7.625,7.623c0,.021,0,.041,0,.06h67.34A8.255,8.255,0,0,0,208.345-232.474Z" transform="translate(-97.628 275.701)" fill="#fff"/><path d="M165.137-162.317,148.89-238.986l-21.5,101.459h68.672l-18.089-85.364Z" transform="translate(-108.776 280.298)" fill="#159b64"/><path d="M313.913-160.14,297.2-238.986l-16.551,78.107-13.141-62.011-18.089,85.364H345.3L327.21-222.891Z" transform="translate(-46.49 280.298)" fill="#159b64"/><path d="M132.049-137.527,148.89-238.986l-21.5,101.459Z" transform="translate(-108.776 280.298)" fill="#7ae2a9"/><path d="M273.666-137.527l14.5-101.459-21.5,101.459Z" transform="translate(-37.687 280.298)" fill="#7ae2a9"/><path d="M155.72-142.966l11.438-85.364L148.58-142.966Z" transform="translate(-97.961 285.737)" fill="#7ae2a9"/><path d="M256.247-142.966l11.438-85.364-18.578,85.364Z" transform="translate(-46.651 285.737)" fill="#7ae2a9"/><path d="M295.893-142.966l11.244-85.364-18.384,85.364Z" transform="translate(-26.416 285.737)" fill="#7ae2a9"/><path d="M138.913-159.5h8.193l-4.382-36.423Z" transform="translate(-102.895 302.275)" fill="#893e24"/><path d="M158.511-162.87h5.952l-3.184-26.462Z" transform="translate(-92.892 305.641)" fill="#893e24"/><path d="M278.824-159.5h8.193l-4.382-36.423Z" transform="translate(-31.484 302.275)" fill="#893e24"/><path d="M298.422-162.87h5.952l-3.184-26.462Z" transform="translate(-21.481 305.641)" fill="#893e24"/><path d="M259.318-162.87h5.952l-3.184-26.462Z" transform="translate(-41.44 305.641)" fill="#893e24"/><path d="M274.3-266.337l6.834,11.255h61.96v102.046l11.634,19.161V-262.031l-2.615-4.306Z" transform="translate(-33.793 266.337)" fill="url(#am)"/><path d="M274.3-266.337l6.834,11.255h61.96v102.046l11.634,19.161V-266.337H274.3Z" transform="translate(-33.793 266.337)" fill="url(#an)"/><g transform="translate(113.005 71.103)"><rect width="88.72" height="32.726" fill="url(#ao)"/><rect width="76.489" height="22.145" transform="translate(6.115 5.29)" fill="#fff"/><g transform="translate(17.744 8.301)"><path d="M205.135-209.447c0-1.494,2.669-1.835,4.078-1.835a4.436,4.436,0,0,1,.6.042,4.413,4.413,0,0,0,.535-2.093.478.478,0,0,0-.021-.128,4.6,4.6,0,0,0-.939-.107c-5.169,0-7.283,2.371-7.283,4.145,0,3.8,6.428,3.417,6.428,6.022,0,1.411-1.58,2.584-3.4,2.584a1.373,1.373,0,0,1-.813-.213c-.533-.535-.533-3.054-.533-3.054a3.14,3.14,0,0,0-2.072.748,22.076,22.076,0,0,0-.085,2.284,8.776,8.776,0,0,0,.192,2.542,9.668,9.668,0,0,0,2.35.171c4.249,0,7.261-2.349,7.261-5.169C211.435-207.866,205.135-207.4,205.135-209.447Z" transform="translate(-201.632 213.867)" fill="url(#ao)"/><path d="M212.07-213.328c-1.772.107-3.438.13-3.438.13a4.985,4.985,0,0,0-.47,2.05,2.784,2.784,0,0,0,.063.554s2.157-.3,2.969-.3a.612.612,0,0,1,.3.044,4.772,4.772,0,0,1,.063,1.152c0,2.03-.15,6.215-.15,8.886a9.52,9.52,0,0,0,.15,2.433,1.715,1.715,0,0,0,.876.193c1.58,0,2.391-.427,2.391-.535v-.021c-.512-.939-.64-4.506-.64-7.517a43.685,43.685,0,0,1,.15-4.657,4.024,4.024,0,0,1,1-.063,17.59,17.59,0,0,1,2.2.106,7.419,7.419,0,0,0,.364-2.5,8.227,8.227,0,0,0-1.6-.085C215.467-213.455,212.883-213.37,212.07-213.328Z" transform="translate(-198.299 213.925)" fill="url(#ao)"/><path d="M222.019-213.766A4.527,4.527,0,0,0,219.5-213c0,.257.213,1.388.192,1.388a7.715,7.715,0,0,0-1.645.341c-.106.128-1.089,2.755-1.986,5.36-1.026.042-1.772.063-1.772.086a4.14,4.14,0,0,0,1,2.2,30.194,30.194,0,0,0-1.516,4.977,5.768,5.768,0,0,0,2.264.363,2.8,2.8,0,0,0,.514-.021,29.582,29.582,0,0,1,1.281-5.36,23.787,23.787,0,0,1,2.456-.086c.449,0,.876,0,1.175.021.276,1.325,1.622,6.087,1.921,6.087a4.237,4.237,0,0,0,2.692-1.089s-.128-.234-.15-.255C223.834-202.554,222.019-213.766,222.019-213.766Zm-3.46,7.8c.214-.748,1.154-3.2,1.39-3.673.042-.065.086-.086.107-.086.042,0,.042.063.042.063.042.236.4,1.859.853,3.738C220.93-205.971,219.862-205.971,218.558-205.971Z" transform="translate(-195.434 213.766)" fill="url(#ao)"/><path d="M230.448-205.318c1.964-.961,3.33-2.414,3.33-4.271,0-3.353-4.163-3.865-6.9-3.865a23.85,23.85,0,0,0-4.166.234c-.021.023-.021.044-.021.086a5.8,5.8,0,0,0,.811,2.22s-.127,9.185-.127,12.323a1.976,1.976,0,0,0,.769.128,4.252,4.252,0,0,0,2.157-.512,41.278,41.278,0,0,1-.214-5,19.079,19.079,0,0,0,2.028-.449c.13.554,2.2,5.638,2.927,6.365a4.568,4.568,0,0,0,.533.042,3.925,3.925,0,0,0,2.371-.684.074.074,0,0,0-.021-.042C232.733-199.937,230.448-205.019,230.448-205.318Zm-4.379-1.026c0-2.157.042-4.12.128-4.741a8.838,8.838,0,0,1,1.516-.128c1.751,0,3.244.535,3.244,1.731C230.958-208.415,229.785-206.685,226.069-206.344Z" transform="translate(-190.881 213.925)" fill="url(#ao)"/><path d="M234.336-213.328c-1.772.107-3.439.13-3.439.13a4.985,4.985,0,0,0-.47,2.05,2.686,2.686,0,0,0,.065.554s2.157-.3,2.968-.3a.612.612,0,0,1,.3.044,4.773,4.773,0,0,1,.063,1.152c0,2.03-.15,6.215-.15,8.886a9.52,9.52,0,0,0,.15,2.433,1.725,1.725,0,0,0,.878.193c1.58,0,2.391-.427,2.391-.535v-.021c-.512-.939-.64-4.506-.64-7.517a43.218,43.218,0,0,1,.15-4.657,4.015,4.015,0,0,1,1-.063,17.59,17.59,0,0,1,2.2.106,7.462,7.462,0,0,0,.363-2.5,8.207,8.207,0,0,0-1.6-.085C237.733-213.455,235.147-213.37,234.336-213.328Z" transform="translate(-186.935 213.925)" fill="url(#at)"/></g></g></g><rect width="348" height="12.691" transform="translate(108 -34.077)" fill="#ffe566"/><g transform="translate(152.515 -137.285)"><g transform="translate(141.33 67.554)"><path d="M236.374-129.867l8.993,19.539s3.734.461,6.359-3.626-.4-19.335-1.8-19.958Z" transform="translate(-228.322 137.32)" fill="url(#au)"/><path d="M239.058-124.664s1.695,3.693,2.3,4.939c.583,1.195,2.423,4.8,2.423,4.8s1.885-.983,1.666-2.559A22.855,22.855,0,0,0,243.766-124C242.447-127.436,239.058-124.664,239.058-124.664Z" transform="translate(-226.952 141.502)" fill="#ffe2c5"/><path d="M231.979-136.169l-.936,21.487s3.11,2.119,7.313-.317,8.481-17.379,7.529-18.569Z" transform="translate(-231.043 136.169)" fill="url(#av)"/><path d="M231.294-129.382s-.183,4.058-.211,5.445c-.029,1.329-.039,5.374-.039,5.374s2.125-.012,2.652-1.513a22.858,22.858,0,0,0,1.48-6.56C235.576-130.3,231.294-129.382,231.294-129.382Z" transform="translate(-231.043 139.581)" fill="#ffe2c5"/></g><g transform="translate(76.888 67.554)"><path d="M189.413-113.955c2.624,4.087,6.359,3.626,6.359,3.626l8.993-19.539-13.557-4.046C189.818-133.289,186.788-118.043,189.413-113.955Z" transform="translate(-188.378 137.32)" fill="url(#au)"/><path d="M194-124a22.924,22.924,0,0,0-1.684,6.511c-.217,1.575,1.667,2.559,1.667,2.559s1.84-3.6,2.423-4.8c.607-1.246,2.3-4.939,2.3-4.939S195.32-127.436,194-124Z" transform="translate(-186.376 141.502)" fill="#ffe2c5"/><path d="M194.776-133.568c-.952,1.19,3.324,16.133,7.528,18.569s7.315.317,7.315.317l-.936-21.487Z" transform="translate(-185.18 136.169)" fill="url(#av)"/><path d="M205.713-129.382s-4.282-.917-3.882,2.746a22.859,22.859,0,0,0,1.48,6.56c.526,1.5,2.652,1.513,2.652,1.513s-.011-4.045-.039-5.374C205.894-125.323,205.713-129.382,205.713-129.382Z" transform="translate(-181.524 139.581)" fill="#ffe2c5"/></g><g transform="translate(42.677 11.633)"><rect width="89.403" height="38.431" transform="translate(40.102 19.077)" fill="url(#ay)"/><rect width="73.922" height="4.779" transform="translate(45.416 19.077)" opacity="0.2" fill="url(#az)"/><path d="M200.744-173.193h-13.6a2.263,2.263,0,0,0-2.255,2.257v5.463H203v-5.463A2.264,2.264,0,0,0,200.744-173.193Z" transform="translate(-155.946 173.193)" fill="url(#ba)"/><path d="M255.745-173.193h-13.6a2.263,2.263,0,0,0-2.255,2.257v5.463H258v-5.463A2.263,2.263,0,0,0,255.745-173.193Z" transform="translate(-127.874 173.193)" fill="url(#ba)"/><g transform="translate(22.046 4.904)"><path d="M200.869-169.946H189.721l-.657,5.238a23.609,23.609,0,0,1,2.651-.163,23.544,23.544,0,0,1,15.953,6.236l-2.409-8.185A4.637,4.637,0,0,0,200.869-169.946Z" transform="translate(-175.863 169.946)" fill="url(#bc)"/><path d="M183.05-166.957l-2.726,8.23a23.9,23.9,0,0,1,5.518-3.735,36.912,36.912,0,0,1,2.125-7.484h-.58A4.668,4.668,0,0,0,183.05-166.957Z" transform="translate(-180.324 169.946)" fill="url(#bd)"/><path d="M183.977-162.462a23.367,23.367,0,0,1,7.683-2.246l.657-5.238H186.1A36.912,36.912,0,0,0,183.977-162.462Z" transform="translate(-178.46 169.946)" fill="url(#be)"/><path d="M183.977-162.462a23.367,23.367,0,0,1,7.683-2.246l.657-5.238H186.1A36.912,36.912,0,0,0,183.977-162.462Z" transform="translate(-178.46 169.946)" opacity="0.2" fill="url(#bf)"/></g><g transform="translate(105.554 4.904)"><path d="M242.41-169.946a4.634,4.634,0,0,0-4.388,3.127l-2.411,8.185a23.548,23.548,0,0,1,15.954-6.236,23.583,23.583,0,0,1,2.649.163l-.656-5.238Z" transform="translate(-235.612 169.946)" fill="url(#bc)"/><path d="M252.189-169.946h-.579a36.913,36.913,0,0,1,2.125,7.484,23.93,23.93,0,0,1,5.518,3.735l-2.726-8.23A4.669,4.669,0,0,0,252.189-169.946Z" transform="translate(-227.447 169.946)" fill="url(#bh)"/><path d="M247.495-169.946l.656,5.238a23.365,23.365,0,0,1,7.685,2.246,36.913,36.913,0,0,0-2.125-7.484Z" transform="translate(-229.547 169.946)" fill="url(#be)"/><path d="M247.495-169.946l.656,5.238a23.365,23.365,0,0,1,7.685,2.246,36.913,36.913,0,0,0-2.125-7.484Z" transform="translate(-229.547 169.946)" opacity="0.2" fill="url(#bf)"/></g><g transform="translate(0 28.55)"><path d="M205.08-128.64a23.465,23.465,0,0,1-10.006-2.244c-2.835,4.925-16.447,28.47-20.375,33.3-4.484,5.508-7.908.5-5.4-5.774,2-5.005,15.006-37.654,15.006-37.654l.024.027c-1.415-2.59-2.763-10.244-3.124-13.3-2.843,8.581-11.429,40.358-13.763,46.159-3.936,9.781-.476,16.143,4.075,18.836a13.948,13.948,0,0,0,8.745,1.689,12.344,12.344,0,0,0,2.98-2.231c6.165-6.181,12.737-15.7,15.24-19.832a203.551,203.551,0,0,0,10.348-18.977c0-.106-.026-.208-.027-.316A23.473,23.473,0,0,1,205.08-128.64Z" transform="translate(-165.728 154.291)" fill="url(#bk)"/><path d="M178.044-145.484a23.782,23.782,0,0,0,10.743,10.1l.529-.92-6.193-3.586Z" transform="translate(-159.441 158.786)" opacity="0.2" fill="url(#bl)"/><path d="M183.41-145.475l-.024-.027s-13,32.649-15.006,37.654c-2.51,6.276.914,11.283,5.4,5.774,3.929-4.827,17.54-28.371,20.375-33.3A23.782,23.782,0,0,1,183.41-145.475Z" transform="translate(-164.808 158.777)" fill="url(#bm)"/><path d="M183.41-145.475l-.024-.027s-13,32.649-15.006,37.654c-2.51,6.276.914,11.283,5.4,5.774,3.929-4.827,17.54-28.371,20.375-33.3A23.782,23.782,0,0,1,183.41-145.475Z" transform="translate(-164.808 158.777)" opacity="0.2" fill="url(#bn)"/><path d="M193.572-118.335c-2.5,4.128-9.074,13.651-15.24,19.832a12.344,12.344,0,0,1-2.98,2.231,18.336,18.336,0,0,0,11.938-6.952c5.49-6.7,13-17.679,18.94-26.651a14.687,14.687,0,0,1-2.311-7.436A203.541,203.541,0,0,1,193.572-118.335Z" transform="translate(-160.815 162.957)" fill="url(#bo)"/><path d="M193.572-118.335c-2.5,4.128-9.074,13.651-15.24,19.832a12.344,12.344,0,0,1-2.98,2.231,18.336,18.336,0,0,0,11.938-6.952c5.49-6.7,13-17.679,18.94-26.651a14.687,14.687,0,0,1-2.311-7.436A203.541,203.541,0,0,1,193.572-118.335Z" transform="translate(-160.815 162.957)" fill="url(#bp)"/></g><g transform="translate(114.001 33.33)"><path d="M269.972-151.126a23.522,23.522,0,0,1-2.735,8.522l.024-.027s13,32.649,15.006,37.654c2.51,6.276-.914,11.283-5.4,5.774-3.929-4.827-17.54-28.371-20.375-33.3a23.464,23.464,0,0,1-10.006,2.244,23.471,23.471,0,0,1-3.725-.322c0,.107-.024.21-.027.316a203.541,203.541,0,0,0,10.348,18.977c2.5,4.128,9.074,13.651,15.24,19.832a12.345,12.345,0,0,0,2.98,2.231,13.948,13.948,0,0,0,8.745-1.689c4.551-2.693,8.011-9.055,4.075-18.836C281.79-115.548,272.813-142.545,269.972-151.126Z" transform="translate(-240.424 151.126)" fill="url(#bq)"/><path d="M251.5-136.3l.527.92a23.782,23.782,0,0,0,10.744-10.1l-5.079,5.6Z" transform="translate(-235.953 154.006)" opacity="0.2" fill="url(#br)"/><path d="M262.612-145.5l-.024.027a23.782,23.782,0,0,1-10.743,10.1c2.835,4.925,16.447,28.47,20.375,33.3,4.484,5.508,7.908.5,5.4-5.774C275.615-112.853,262.612-145.5,262.612-145.5Z" transform="translate(-235.775 153.997)" fill="url(#bs)"/><path d="M262.612-145.5l-.024.027a23.782,23.782,0,0,1-10.743,10.1c2.835,4.925,16.447,28.47,20.375,33.3,4.484,5.508,7.908.5,5.4-5.774C275.615-112.853,262.612-145.5,262.612-145.5Z" transform="translate(-235.775 153.997)" opacity="0.2" fill="url(#bt)"/><path d="M253.864-118.335a203.541,203.541,0,0,1-10.348-18.977,14.687,14.687,0,0,1-2.311,7.436c5.937,8.972,13.45,19.946,18.94,26.651a18.337,18.337,0,0,0,11.938,6.952A12.345,12.345,0,0,1,269.1-98.5C262.938-104.684,256.366-114.207,253.864-118.335Z" transform="translate(-241.205 158.177)" fill="url(#bu)"/><path d="M253.864-118.335a203.541,203.541,0,0,1-10.348-18.977,14.687,14.687,0,0,1-2.311,7.436c5.937,8.972,13.45,19.946,18.94,26.651a18.337,18.337,0,0,0,11.938,6.952A12.345,12.345,0,0,1,269.1-98.5C262.938-104.684,256.366-114.207,253.864-118.335Z" transform="translate(-241.205 158.177)" fill="url(#bv)"/></g><path d="M197.91-169.946h-3.047s2.183,1.717,2.521,6.688c.3,4.342.322,6.687.322,6.687h4.054s-.887-8.65-1.393-10.432A4.511,4.511,0,0,0,197.91-169.946Z" transform="translate(-150.857 174.85)" fill="url(#bw)"/><path d="M239.309-167c-.506,1.782-1.393,10.432-1.393,10.432h4.052s.027-2.344.323-6.687c.337-4.971,2.519-6.688,2.519-6.688h-3.047A4.507,4.507,0,0,0,239.309-167Z" transform="translate(-128.883 174.85)" fill="url(#bx)"/><path d="M171.166-116.66c-1.3,3.765-3.519,11.172-3.827,13.761a4.78,4.78,0,0,0,1.577,4.14s-.029-3.1,5.859-15.578c4.045-8.569,14.387-28.619,14.387-28.619l-6.2-5.348C183.281-149.174,173.935-124.694,171.166-116.66Z" transform="translate(-164.923 185.885)" fill="url(#by)"/><path d="M273.221-116.66c-2.769-8.034-12.115-32.514-11.8-31.644l-6.2,5.348s10.342,20.051,14.387,28.619c5.888,12.474,5.86,15.578,5.86,15.578a4.78,4.78,0,0,0,1.577-4.14C276.74-105.487,274.518-112.894,273.221-116.66Z" transform="translate(-120.047 185.885)" fill="url(#by)"/><rect width="8.388" height="4.025" transform="translate(85.603 35.198)" fill="url(#ca)"/><rect width="8.388" height="4.025" transform="translate(75.852 44.472)" fill="url(#cb)"/><rect width="8.388" height="4.025" transform="translate(66.07 35.198)" fill="url(#cb)"/><circle cx="22.727" cy="22.727" r="22.727" transform="translate(99.248 8.856)" fill="url(#cd)"/><circle cx="22.727" cy="22.727" r="22.727" transform="translate(8.353 43.994) rotate(-67.716)" fill="url(#cd)"/><circle cx="20.304" cy="20.304" r="20.304" transform="translate(9.285 31.582) rotate(-45)" fill="url(#cf)"/><circle cx="20.304" cy="20.304" r="20.304" transform="matrix(0.974, -0.228, 0.228, 0.974, 97.569, 16.453)" fill="url(#cf)"/><circle cx="13.811" cy="13.811" r="13.811" transform="translate(39.488 45) rotate(-15.301)" fill="url(#ch)"/><circle cx="13.811" cy="13.811" r="13.811" transform="translate(84.295 51.759) rotate(-36.408)" fill="url(#ch)"/><path d="M256.218-152.154v-9.793h-9.606v9.793H236.82v9.606h9.791v9.793h9.606v-9.793h9.8v-9.606h-9.8Z" transform="translate(-129.442 178.933)" opacity="0.5" fill="url(#cd)"/><path d="M200.62-151.674v-9.793h-9.607v9.793h-9.791v9.606h9.791v9.793h9.607v-9.793h9.8v-9.606h-9.8Z" transform="translate(-157.819 179.178)" opacity="0.5" fill="url(#cd)"/><circle cx="11.143" cy="11.143" r="11.143" transform="translate(45.311 43.533)" fill="url(#cl)"/><g transform="translate(46.902 45.285)"><path d="M199.6-127.248a9.333,9.333,0,0,0,5.132,1.533,9.392,9.392,0,0,0,9.392-9.392,9.336,9.336,0,0,0-1.852-5.582C201.85-139.648,199.819-132.043,199.6-127.248Z" transform="translate(-195.341 144.498)" fill="url(#cm)"/><path d="M206.172-143.211a9.392,9.392,0,0,0-9.392,9.392,9.375,9.375,0,0,0,4.259,7.859c.219-4.8,2.25-12.4,12.672-13.441A9.366,9.366,0,0,0,206.172-143.211Z" transform="translate(-196.78 143.211)" fill="url(#cn)"/><path d="M206.172-143.211a9.392,9.392,0,0,0-9.392,9.392,9.375,9.375,0,0,0,4.259,7.859c.219-4.8,2.25-12.4,12.672-13.441A9.366,9.366,0,0,0,206.172-143.211Z" transform="translate(-196.78 143.211)" opacity="0.8" fill="url(#co)"/></g><path d="M238.088-144.371a11.143,11.143,0,0,0-11.142,11.144,11.144,11.144,0,0,0,11.142,11.144,11.144,11.144,0,0,0,11.144-11.144A11.143,11.143,0,0,0,238.088-144.371Z" transform="translate(-134.482 187.904)" fill="url(#cl)"/><g transform="translate(94.056 45.285)"><path d="M230.819-127.248a9.333,9.333,0,0,0,5.132,1.533,9.392,9.392,0,0,0,9.392-9.392,9.336,9.336,0,0,0-1.852-5.582C233.07-139.648,231.04-132.043,230.819-127.248Z" transform="translate(-226.561 144.498)" fill="url(#cm)"/><path d="M237.39-143.211a9.391,9.391,0,0,0-9.39,9.392,9.378,9.378,0,0,0,4.258,7.859c.22-4.8,2.25-12.4,12.672-13.441A9.366,9.366,0,0,0,237.39-143.211Z" transform="translate(-228 143.211)" fill="url(#cn)"/><path d="M237.39-143.211a9.391,9.391,0,0,0-9.39,9.392,9.378,9.378,0,0,0,4.258,7.859c.22-4.8,2.25-12.4,12.672-13.441A9.366,9.366,0,0,0,237.39-143.211Z" transform="translate(-228 143.211)" opacity="0.8" fill="url(#co)"/></g><path d="M189.209-152.94l2.531,2.4,2.535-2.4v-7.116h-5.066Z" transform="translate(-153.743 179.898)" fill="url(#ct)"/><path d="M189.209-147.489v7.116h5.066v-7.117l-2.531-2.4Z" transform="translate(-153.743 185.087)" fill="url(#ct)"/><path d="M192.82-150.969l2.4,2.535h7.116V-153.5h-7.117Z" transform="translate(-151.9 183.244)" fill="url(#ct)"/><path d="M182.652-153.5v5.067h7.117l2.4-2.531-2.4-2.535Z" transform="translate(-157.089 183.244)" fill="url(#ct)"/><path d="M241.274-154.391a3.187,3.187,0,0,0-3.184,3.184,3.188,3.188,0,0,0,3.184,3.184,3.189,3.189,0,0,0,3.185-3.184A3.188,3.188,0,0,0,241.274-154.391Z" transform="translate(-128.794 182.79)" fill="url(#ca)"/><path d="M186.1-168.289h1.3a24.3,24.3,0,0,1,.195-3.811c.3-1.01.869-1.094.869-1.094h-.938C185.552-173.193,186.1-170.039,186.1-168.289Z" transform="translate(-155.366 173.193)" opacity="0.5" fill="url(#cy)"/><path d="M188.443-173.193s-.69,1.068-.471,4.9H190.3c-.131-4.119.307-4.9.307-4.9Z" transform="translate(-154.396 173.193)" opacity="0.5" fill="url(#cz)"/><path d="M250.12-173.193h-.938s.568.083.868,1.094a24.3,24.3,0,0,1,.195,3.811h1.3C251.55-170.039,252.1-173.193,250.12-173.193Z" transform="translate(-123.132 173.193)" opacity="0.5" fill="url(#da)"/><path d="M247.123-173.193s.44.785.307,4.9h2.329c.219-3.836-.471-4.9-.471-4.9Z" transform="translate(-124.183 173.193)" opacity="0.5" fill="url(#db)"/><path d="M241.261-154.391a3.168,3.168,0,0,0-3.169,3.169,3.163,3.163,0,0,0,1.436,2.652,4.39,4.39,0,0,1,4.277-4.536A3.16,3.16,0,0,0,241.261-154.391Z" transform="translate(-128.793 182.79)" opacity="0.8" fill="url(#dc)"/><path d="M254.093-154.391a3.188,3.188,0,0,0-3.185,3.184,3.189,3.189,0,0,0,3.185,3.184,3.187,3.187,0,0,0,3.184-3.184A3.186,3.186,0,0,0,254.093-154.391Z" transform="translate(-122.251 182.79)" fill="url(#dd)"/><path d="M254.08-154.391a3.17,3.17,0,0,0-3.17,3.169,3.161,3.161,0,0,0,1.438,2.652,4.39,4.39,0,0,1,4.276-4.536A3.157,3.157,0,0,0,254.08-154.391Z" transform="translate(-122.25 182.79)" opacity="0.8" fill="url(#de)"/><path d="M247.632-160.852a3.188,3.188,0,0,0-3.184,3.184,3.187,3.187,0,0,0,3.184,3.184,3.188,3.188,0,0,0,3.185-3.184A3.189,3.189,0,0,0,247.632-160.852Z" transform="translate(-125.549 179.492)" fill="url(#df)"/><path d="M247.619-160.852a3.17,3.17,0,0,0-3.17,3.17,3.165,3.165,0,0,0,1.438,2.652,4.391,4.391,0,0,1,4.277-4.537A3.162,3.162,0,0,0,247.619-160.852Z" transform="translate(-125.548 179.492)" opacity="0.8" fill="url(#dg)"/><path d="M247.632-148.245a3.188,3.188,0,0,0-3.184,3.184,3.189,3.189,0,0,0,3.184,3.185,3.189,3.189,0,0,0,3.185-3.185A3.189,3.189,0,0,0,247.632-148.245Z" transform="translate(-125.549 185.927)" fill="url(#df)"/><path d="M247.619-148.245a3.171,3.171,0,0,0-3.17,3.17,3.165,3.165,0,0,0,1.438,2.652,4.391,4.391,0,0,1,4.277-4.537A3.166,3.166,0,0,0,247.619-148.245Z" transform="translate(-125.548 185.927)" opacity="0.8" fill="url(#dg)"/></g><g transform="translate(9.228)"><path d="M197.649-179.949c-.1,3.7-4.62,9.1-6.4,10.689-6.773,6.043-12.255,10.849-16.118,19.125-4.956,10.618-11.1,20.1-14.575,25.588-4.764,7.534-2.113,13.707-2.254,22.378-.124,7.637-.4,19.5-1.06,27.11-1.074,12.307-4.566,27.5-10.117,39.116h23.588c.779-4.95,4.111-11.755,16.24-28.862,4.033-5.688,4.616-12.854,3.824-19.752-.456-1.716-1.012-3.409-1.367-5.2-.9-4.545-.742-11.33,1.232-15.652,2.172-4.761,8.268-7.934,12.266-10.9,5.638-4.188,10.42-8.407,10.12-16.006a.178.178,0,0,1,.071-.147,2.82,2.82,0,0,1,.325-2.648c-2.71-1.914-7.567.48-9.3,1.2-1.666.689-4.119,1.4-6.8,2.531a33.99,33.99,0,0,0-1.634,3.972c-.772,2.349-6.437,6.555-9.194,10.035s-6.185,10.679-10.23,14.131c-5.14,4.388-3.762,1.045-2.491-1.68s6.993-12.452,6.993-12.452c-2.835-4.116.245-12.065,2.763-19.069,2.421-6.732,6.076-12.6,10.023-18.521a64.936,64.936,0,0,0,5.407-10.355,6.116,6.116,0,0,1,4.954-4.019c6.915-1.411,14.512-1.936,20.442-7.008a7.616,7.616,0,0,0,.089-3.343C218.23-180.419,204.126-181.85,197.649-179.949Z" transform="translate(-141.771 180.895)" fill="url(#dj)"/><path d="M177.031-156.971c-1.1,1.927-3.749,8.769-8.325,15.788-4.907,7.525-11.745,15.409-12.4,22.482-.539,5.8-2.6,40.162-3.383,47.551-1.705,16.05-4.3,23.907-9.337,34.887h5.36c5.551-11.62,9.043-26.81,10.117-39.116.665-7.608.936-19.474,1.06-27.11.14-8.671-2.51-14.844,2.254-22.378,3.471-5.49,9.62-14.97,14.575-25.588,3.862-8.276,9.345-13.082,16.118-19.125,1.775-1.584,6.3-6.99,6.4-10.689a6.836,6.836,0,0,0-2.482,1.192C192.786-175.5,179.314-160.966,177.031-156.971Z" transform="translate(-143.582 181.215)" fill="url(#dk)"/><path d="M177.031-156.971c-1.1,1.927-3.749,8.769-8.325,15.788-4.907,7.525-11.745,15.409-12.4,22.482-.539,5.8-2.6,40.162-3.383,47.551-1.705,16.05-4.3,23.907-9.337,34.887h5.36c5.551-11.62,9.043-26.81,10.117-39.116.665-7.608.936-19.474,1.06-27.11.14-8.671-2.51-14.844,2.254-22.378,3.471-5.49,9.62-14.97,14.575-25.588,3.862-8.276,9.345-13.082,16.118-19.125,1.775-1.584,6.3-6.99,6.4-10.689a6.836,6.836,0,0,0-2.482,1.192C192.786-175.5,179.314-160.966,177.031-156.971Z" transform="translate(-143.582 181.215)" fill="#ffe2c5" opacity="0.5"/><path d="M172.169-134.107s-5.721,9.725-6.993,12.452-2.649,6.067,2.491,1.68c4.045-3.453,7.473-10.651,10.23-14.131s8.422-7.686,9.194-10.035a33.989,33.989,0,0,1,1.634-3.972c-.834.352-1.687.745-2.548,1.193C183.166-145.347,174.589-137.55,172.169-134.107Z" transform="translate(-133.161 197.627)" fill="url(#dl)"/><path d="M172.169-134.107s-5.721,9.725-6.993,12.452-2.649,6.067,2.491,1.68c4.045-3.453,7.473-10.651,10.23-14.131s8.422-7.686,9.194-10.035a33.989,33.989,0,0,1,1.634-3.972c-.834.352-1.687.745-2.548,1.193C183.166-145.347,174.589-137.55,172.169-134.107Z" transform="translate(-133.161 197.627)" fill="#ffe2c5" opacity="0.5"/><path d="M205.459-150.582a2.819,2.819,0,0,0-.325,2.648.178.178,0,0,0-.071.147c.3,7.6-4.481,11.817-10.12,16.006-4,2.969-10.094,6.143-12.266,10.9-1.974,4.323-2.136,11.108-1.232,15.652.355,1.788.911,3.481,1.367,5.2.791,6.9.208,14.063-3.824,19.752-12.129,17.107-15.46,23.913-16.24,28.862l6.88.648A184.031,184.031,0,0,1,180.557-71.82c3.761-6.1,10.154-15.806,6.458-33.977a28.9,28.9,0,0,1,2.279-16.4c2.125-4.213,6.771-7.119,8.617-8.624,6.774-5.531,9.44-10.872,9.439-14.687C207.35-148.242,206.59-149.785,205.459-150.582Z" transform="translate(-133.8 196.367)" fill="#e89f5d"/><path d="M198.8-178.332c.032-.032.066-.057.1-.089-.033.027-.069.05-.1.076Z" transform="translate(-115.4 182.158)" fill="#f2af6b"/><path d="M187.984-166.857a64.937,64.937,0,0,1-5.407,10.355c-3.947,5.918-7.6,11.789-10.023,18.521-2.518,7-5.6,14.953-2.763,19.069,1.412-1.69,5.049-5.487,5.049-5.487s.985-3.377,1.527-5.36c1.717-6.3,3.167-11.648,5.04-17.184,1.154-3.41,4.267-6.258,6.227-10.644a41.988,41.988,0,0,1,5.542-9.351,38.481,38.481,0,0,0,13.7-3.859c2.352-1.264,5.623-3.59,6.5-7.087-5.93,5.072-13.527,5.6-20.442,7.008A6.116,6.116,0,0,0,187.984-166.857Z" transform="translate(-130.783 182.432)" fill="#f2af6b"/><path d="M194.917-151.189c-1.205-.577-3.352.07-5.081.743-1.622.633-4.4,1.583-6.62,2.438-.736,1.491.453,5.215,1.461,6.472,2.613,3.258,6.436.983,8.791-1.458C195.2-144.793,198.145-149.643,194.917-151.189Z" transform="translate(-123.469 195.943)" fill="#ffe2c5"/><path d="M190.309-180.8s-1.456,4.413,2.453,4.41a24.274,24.274,0,0,0,7.09-.811c1.643-.384,1.9-2.624,1.9-2.624s-4.27-.453-5.675-.574C194.61-180.531,190.309-180.8,190.309-180.8Z" transform="translate(-119.868 180.941)" fill="#ffe2c5"/></g><g transform="translate(149.925)"><g transform="translate(0.673)"><path d="M303.472-102.17c-.14-8.671,2.51-14.844-2.254-22.378-3.471-5.49-9.62-14.97-14.575-25.588-3.864-8.276-9.345-13.082-16.118-19.125-1.775-1.584-6.3-6.99-6.4-10.689-6.477-1.9-20.581-.47-26.808.26a7.637,7.637,0,0,0,.091,3.343c5.928,5.072,13.527,5.6,20.442,7.008a6.116,6.116,0,0,1,4.954,4.019,65.053,65.053,0,0,0,5.406,10.355c3.948,5.918,7.6,11.789,10.023,18.521,2.518,7,5.6,14.953,2.764,19.069,0,0,5.721,9.725,6.993,12.452s2.648,6.067-2.492,1.68c-4.043-3.453-7.474-10.651-10.228-14.131s-8.424-7.686-9.194-10.035a34.254,34.254,0,0,0-1.634-3.972c-2.678-1.136-5.129-1.843-6.8-2.531-1.732-.716-6.59-3.11-9.3-1.2a2.811,2.811,0,0,1,.325,2.648.183.183,0,0,1,.073.147c-.3,7.6,4.481,11.817,10.12,16.006,4,2.969,10.093,6.143,12.266,10.9,1.973,4.323,2.134,11.108,1.232,15.652-.355,1.788-.911,3.481-1.368,5.2-.79,6.9-.208,14.063,3.824,19.752,12.13,17.107,15.462,23.913,16.241,28.862h23.588c-5.551-11.62-9.043-26.81-10.117-39.116C303.867-82.667,303.6-94.533,303.472-102.17Z" transform="translate(-237.18 180.895)" fill="url(#dj)"/><path d="M298.181-118.7c-.659-7.073-7.5-14.958-12.4-22.482-4.577-7.019-7.224-13.861-8.325-15.788-2.282-3.995-15.755-18.53-19.948-22.106a6.836,6.836,0,0,0-2.482-1.192c.1,3.7,4.62,9.1,6.4,10.689,6.773,6.043,12.254,10.849,16.118,19.125,4.956,10.618,11.1,20.1,14.575,25.588,4.764,7.534,2.113,13.707,2.254,22.378.124,7.637.4,19.5,1.06,27.11,1.074,12.307,4.566,27.5,10.117,39.116h5.36c-5.033-10.981-7.634-18.838-9.337-34.887C300.781-78.539,298.72-112.9,298.181-118.7Z" transform="translate(-228.073 181.215)" fill="url(#dk)"/><path d="M298.181-118.7c-.659-7.073-7.5-14.958-12.4-22.482-4.577-7.019-7.224-13.861-8.325-15.788-2.282-3.995-15.755-18.53-19.948-22.106a6.836,6.836,0,0,0-2.482-1.192c.1,3.7,4.62,9.1,6.4,10.689,6.773,6.043,12.254,10.849,16.118,19.125,4.956,10.618,11.1,20.1,14.575,25.588,4.764,7.534,2.113,13.707,2.254,22.378.124,7.637.4,19.5,1.06,27.11,1.074,12.307,4.566,27.5,10.117,39.116h5.36c-5.033-10.981-7.634-18.838-9.337-34.887C300.781-78.539,298.72-112.9,298.181-118.7Z" transform="translate(-228.073 181.215)" fill="#ffe2c5" opacity="0.5"/><path d="M271.788-134.107c-2.42-3.444-11-11.24-14.007-12.814-.861-.449-1.714-.841-2.548-1.193a34.256,34.256,0,0,1,1.634,3.972c.77,2.349,6.437,6.555,9.194,10.035s6.185,10.679,10.228,14.131c5.14,4.388,3.764,1.045,2.492-1.68S271.788-134.107,271.788-134.107Z" transform="translate(-227.966 197.627)" fill="url(#dl)"/><path d="M271.788-134.107c-2.42-3.444-11-11.24-14.007-12.814-.861-.449-1.714-.841-2.548-1.193a34.256,34.256,0,0,1,1.634,3.972c.77,2.349,6.437,6.555,9.194,10.035s6.185,10.679,10.228,14.131c5.14,4.388,3.764,1.045,2.492-1.68S271.788-134.107,271.788-134.107Z" transform="translate(-227.966 197.627)" fill="#ffe2c5" opacity="0.5"/><path d="M267.86-100.029c.458-1.716,1.014-3.409,1.368-5.2.9-4.545.74-11.33-1.232-15.652-2.173-4.761-8.268-7.934-12.266-10.9-5.638-4.188-10.42-8.407-10.12-16.006a.183.183,0,0,0-.073-.147,2.811,2.811,0,0,0-.325-2.648c-1.13.8-1.89,2.34-1.891,5.072,0,3.815,2.666,9.156,9.44,14.687,1.846,1.506,6.492,4.412,8.617,8.624a28.912,28.912,0,0,1,2.279,16.4c-3.7,18.17,3.622,27.4,6.457,33.977,3.1,7.188,8.106,14.654,12.414,20.406h5.4c-.779-4.95-4.111-11.755-16.241-28.862C267.652-85.965,267.07-93.131,267.86-100.029Z" transform="translate(-234.045 196.367)" fill="#e89f5d"/></g><path d="M236.832-178.332l.006-.014c-.035-.026-.071-.048-.1-.076C236.766-178.389,236.8-178.364,236.832-178.332Z" transform="translate(-236.734 182.158)" fill="#f2af6b"/><path d="M268.136-156.5a65.054,65.054,0,0,1-5.406-10.355,6.116,6.116,0,0,0-4.954-4.019c-6.915-1.411-14.513-1.936-20.442-7.008.881,3.5,4.152,5.823,6.5,7.087a38.477,38.477,0,0,0,13.7,3.859,41.952,41.952,0,0,1,5.543,9.351c1.961,4.386,5.073,7.233,6.227,10.644,1.873,5.536,3.323,10.889,5.04,17.184.541,1.983,1.527,5.36,1.527,5.36s3.637,3.8,5.049,5.487c2.835-4.116-.246-12.065-2.764-19.069C275.739-144.713,272.084-150.583,268.136-156.5Z" transform="translate(-236.428 182.432)" fill="#f2af6b"/><path d="M250.285-150.445c-1.729-.674-3.877-1.32-5.082-.743-3.226,1.545-.285,6.4,1.452,8.2,2.355,2.441,6.178,4.715,8.791,1.458,1.007-1.257,2.195-4.981,1.459-6.472C254.68-148.863,251.907-149.813,250.285-150.445Z" transform="translate(-233.149 195.943)" fill="#ffe2c5"/><path d="M243.481-180.4c-1.4.121-5.675.574-5.675.574s.257,2.24,1.9,2.624a24.274,24.274,0,0,0,7.09.811c3.909,0,2.453-4.41,2.453-4.41S244.947-180.531,243.481-180.4Z" transform="translate(-236.187 180.941)" fill="#ffe2c5"/></g><path d="M137.472-63.077H185l2.042-24.894H145.34Z" transform="translate(-137.472 228.324)" fill="url(#u)"/><path d="M265.174-87.971l2.042,24.894h47.533l-7.868-24.894Z" transform="translate(-72.292 228.324)" fill="url(#u)"/></g></g></g></svg>