<svg width="200" height="200" viewBox="0 0 200 200" fill="none" xmlns="http://www.w3.org/2000/svg">
<rect width="200" height="200" rx="100" fill="#87AB49"/>
<g clip-path="url(#clip0_1971_50563)">
<path d="M159.656 19.6451V34.9531C159.656 43.9019 152.433 51.125 143.484 51.125C134.536 51.125 127.312 43.9019 127.312 34.9531V29.5625C127.312 23.6328 122.461 18.7812 116.531 18.7812C110.602 18.7812 105.75 23.6328 105.75 29.5625V56.5156C105.75 59.5347 103.019 61.9062 100 61.9062C96.9809 61.9062 94.25 59.5347 94.25 56.5156V29.5625C94.25 24.1719 96.55 19.2121 100 15.4391C103.881 10.9113 110.063 8 116.531 8C128.39 8 138.094 17.7035 138.094 29.5625V34.9531C138.094 37.9722 140.465 40.3438 143.484 40.3438C146.503 40.3438 148.875 37.9722 148.875 34.9531V12.7926C148.875 12.7926 151.024 14.0811 155.416 16.8631C159.809 19.6451 159.656 19.6451 159.656 19.6451Z" fill="white"/>
<path d="M116.531 67.2969V77.7543C116.531 80.7734 114.16 83.145 111.141 83.145H88.8594C85.8403 83.145 83.4688 80.7734 83.4688 77.7543V67.2969C83.4688 58.3481 91.0512 51.125 100 51.125C108.949 51.125 116.531 58.3481 116.531 67.2969Z" fill="#4A98F7"/>
<path d="M116.531 67.2969V77.7543C116.531 80.7734 114.16 83.145 111.141 83.145H100V51.125C108.949 51.125 116.531 58.3481 116.531 67.2969Z" fill="#4A7AFF"/>
<path d="M190.706 143.484L184.345 92.7043C182.189 75.5625 167.526 61.9062 150.277 61.9062C144.994 61.9062 139.711 63.2 134.968 65.5722C125.588 70.2082 114.77 72.6875 104.313 72.6875H95.6875C85.23 72.6875 74.4125 70.2082 65.0328 65.5722C60.2887 63.2 55.0062 61.9062 49.7234 61.9062C32.4738 61.9062 17.8106 75.5625 15.655 92.7043L9.29375 143.484C8.43089 150.384 8 157.5 8 164.508C8 179.709 20.2906 192 35.4922 192C43.5781 192 51.2332 188.442 56.5156 182.297L77.1075 159.656H119.657L144.023 183.914C149.091 189.089 156.206 192 164.508 192C179.709 192 192 179.709 192 164.508C192 157.5 191.569 150.384 190.706 143.484Z" fill="#688832"/>
<path d="M192 164.508C192 179.709 179.709 192 164.508 192C156.206 192 149.091 189.089 144.023 183.914L119.657 159.656H100V72.6875H104.313C114.77 72.6875 125.588 70.2082 134.968 65.5722C139.711 63.2 144.994 61.9062 150.277 61.9062C167.526 61.9062 182.189 75.5625 184.345 92.7043L190.706 143.484C191.569 150.384 192 157.5 192 164.508Z" fill="#5A7C20"/>
<path d="M56.5156 105.75H51.125V100.359C51.125 97.3798 48.714 94.9688 45.7344 94.9688C42.7548 94.9688 40.3438 97.3798 40.3438 100.359V105.75H34.9531C31.9735 105.75 29.5625 108.161 29.5625 111.141C29.5625 114.12 31.9735 116.531 34.9531 116.531H40.3438V121.922C40.3438 124.901 42.7548 127.312 45.7344 127.312C48.714 127.312 51.125 124.901 51.125 121.922V116.531H56.5156C59.4952 116.531 61.9062 114.12 61.9062 111.141C61.9062 108.161 59.4952 105.75 56.5156 105.75Z" fill="white"/>
<path d="M88.8594 116.531H78.0781C75.0985 116.531 72.6875 114.12 72.6875 111.141C72.6875 108.161 75.0985 105.75 78.0781 105.75H88.8594C91.839 105.75 94.25 108.161 94.25 111.141C94.25 114.12 91.839 116.531 88.8594 116.531Z" fill="white"/>
<path d="M121.922 116.531H111.141C108.161 116.531 105.75 114.12 105.75 111.141C105.75 108.161 108.161 105.75 111.141 105.75H121.922C124.901 105.75 127.312 108.161 127.312 111.141C127.312 114.12 124.901 116.531 121.922 116.531Z" fill="white"/>
<path d="M154.266 105.75C157.243 105.75 159.656 103.337 159.656 100.359C159.656 97.3822 157.243 94.9688 154.266 94.9688C151.288 94.9688 148.875 97.3822 148.875 100.359C148.875 103.337 151.288 105.75 154.266 105.75Z" fill="#FFC247"/>
<path d="M165.047 116.531C168.024 116.531 170.438 114.118 170.438 111.141C170.438 108.163 168.024 105.75 165.047 105.75C162.07 105.75 159.656 108.163 159.656 111.141C159.656 114.118 162.07 116.531 165.047 116.531Z" fill="#FF468C"/>
<path d="M154.266 127.312C157.243 127.312 159.656 124.899 159.656 121.922C159.656 118.945 157.243 116.531 154.266 116.531C151.288 116.531 148.875 118.945 148.875 121.922C148.875 124.899 151.288 127.312 154.266 127.312Z" fill="#00CB7E"/>
<path d="M143.484 116.531C146.462 116.531 148.875 114.118 148.875 111.141C148.875 108.163 146.462 105.75 143.484 105.75C140.507 105.75 138.094 108.163 138.094 111.141C138.094 114.118 140.507 116.531 143.484 116.531Z" fill="#4A7AFF"/>
<path d="M72.6875 170.438C60.7954 170.438 51.125 160.767 51.125 148.875C51.125 136.983 60.7954 127.312 72.6875 127.312C84.5796 127.312 94.25 136.983 94.25 148.875C94.25 160.767 84.5796 170.438 72.6875 170.438Z" fill="white"/>
<path d="M127.312 170.438C115.42 170.438 105.75 160.767 105.75 148.875C105.75 136.983 115.42 127.312 127.312 127.312C139.205 127.312 148.875 136.983 148.875 148.875C148.875 160.767 139.205 170.438 127.312 170.438Z" fill="white"/>
</g>
<defs>
<clipPath id="clip0_1971_50563">
<rect width="184" height="184" fill="white" transform="translate(8 8)"/>
</clipPath>
</defs>
</svg>
