<svg xmlns="http://www.w3.org/2000/svg" id="prefix___001-globe" width="75.3" height="75.3" data-name="001-globe" viewBox="0 0 75.3 75.3">
    <defs>
        <style>
            .prefix__cls-1{fill:#87AB49}
        </style>
    </defs>
    <g id="prefix__Group_7541" data-name="Group 7541">
        <g id="prefix__Group_7540" data-name="Group 7540">
            <path id="prefix__Path_49053" d="M75.3 38.9v-5.02a6.283 6.283 0 0 0-6.275-6.275H57.7a28.751 28.751 0 0 0-7.68-18.349 1.076 1.076 0 0 0-.1-.133c-.023-.021-.053-.029-.077-.048a28.8 28.8 0 0 0-41.967 0 .723.723 0 0 0-.077.048 1.059 1.059 0 0 0-.1.133 28.84 28.84 0 0 0 .033 39.29l.061.06a28.668 28.668 0 0 0 18.448 8.963 6.35 6.35 0 0 0 1.4 1.416A6.252 6.252 0 0 0 25.1 64v5.02a6.283 6.283 0 0 0 6.275 6.28h37.65a6.283 6.283 0 0 0 6.275-6.275V64a6.253 6.253 0 0 0-2.549-5.02 6.252 6.252 0 0 0 2.549-5.02v-5.02a6.253 6.253 0 0 0-2.549-5.02A6.253 6.253 0 0 0 75.3 38.9zM55.155 27.61h-9.993a48.191 48.191 0 0 0-1.622-11.555A28.821 28.821 0 0 0 49 11.9a26.211 26.211 0 0 1 6.155 15.71zm-7.862-17.553a26.293 26.293 0 0 1-4.518 3.532 26.01 26.01 0 0 0-5.656-9.736 26.374 26.374 0 0 1 10.174 6.204zM30.12 2.635c4.3.781 8.092 5.522 10.354 12.23a26.433 26.433 0 0 1-10.354 2.672V2.635zm0 17.412A28.936 28.936 0 0 0 41.2 17.3a45.255 45.255 0 0 1 1.436 10.31H30.12zM27.61 2.635v14.9a26.436 26.436 0 0 1-10.354-2.672C19.517 8.157 23.309 3.416 27.61 2.635zM15.094 27.61a45.245 45.245 0 0 1 1.437-10.31 28.939 28.939 0 0 0 11.079 2.747v7.563H15.094zm11.294 2.51a6.21 6.21 0 0 0-1.288 3.765V37.9a28.24 28.24 0 0 0-8.59 2.53 45.768 45.768 0 0 1-1.41-10.31zM20.611 3.853a26.011 26.011 0 0 0-5.659 9.736 26.286 26.286 0 0 1-4.518-3.532 26.369 26.369 0 0 1 10.177-6.204zM8.727 11.9a28.821 28.821 0 0 0 5.462 4.156 48.186 48.186 0 0 0-1.622 11.554H2.574A26.212 26.212 0 0 1 8.727 11.9zM2.569 30.12h10.025a47.978 47.978 0 0 0 1.643 11.537 28.379 28.379 0 0 0-5.5 4.188A26.219 26.219 0 0 1 2.569 30.12zm7.879 17.564a25.935 25.935 0 0 1 4.532-3.552 26.164 26.164 0 0 0 5.734 9.768 26.147 26.147 0 0 1-10.266-6.217zM25.1 48.945v5.02c0 .079.02.151.023.228-3.223-1.772-6.062-5.793-7.907-11.285a25.74 25.74 0 0 1 8.091-2.479 6.262 6.262 0 0 0 2.3 3.462v.065a6.246 6.246 0 0 0-2.507 4.989zM72.789 64v5.02a3.765 3.765 0 0 1-3.765 3.765H31.375a3.765 3.765 0 0 1-3.765-3.765V64a3.765 3.765 0 0 1 3.765-3.765h37.65A3.765 3.765 0 0 1 72.789 64zm0-15.06v5.02a3.765 3.765 0 0 1-3.765 3.765H31.375a3.765 3.765 0 0 1-3.765-3.765v-5.02a3.765 3.765 0 0 1 3.765-3.765h37.65a3.765 3.765 0 0 1 3.764 3.77zm0-10.04a3.765 3.765 0 0 1-3.765 3.765H31.375A3.765 3.765 0 0 1 27.61 38.9v-5.02a3.765 3.765 0 0 1 3.765-3.765h37.65a3.765 3.765 0 0 1 3.765 3.765z" class="prefix__cls-1" data-name="Path 49053"/>
            <path id="prefix__Path_49054" d="M421.9 238.934h-2.51a1.255 1.255 0 1 0 0 2.51h2.51a1.255 1.255 0 0 0 0-2.51z" class="prefix__cls-1" data-name="Path 49054" transform="translate(-356.638 -203.794)"/>
            <path id="prefix__Path_49055" d="M370.7 238.934h-2.51a1.255 1.255 0 0 0 0 2.51h2.51a1.255 1.255 0 1 0 0-2.51z" class="prefix__cls-1" data-name="Path 49055" transform="translate(-312.968 -203.794)"/>
            <path id="prefix__Path_49056" d="M225.632 221.867a3.765 3.765 0 1 0 3.765 3.765 3.765 3.765 0 0 0-3.765-3.765zm0 5.02a1.255 1.255 0 1 1 1.255-1.255 1.255 1.255 0 0 1-1.255 1.255z" class="prefix__cls-1" data-name="Path 49056" transform="translate(-189.237 -189.237)"/>
            <path id="prefix__Path_49057" d="M421.9 341.334h-2.51a1.255 1.255 0 1 0 0 2.51h2.51a1.255 1.255 0 1 0 0-2.51z" class="prefix__cls-1" data-name="Path 49057" transform="translate(-356.638 -291.134)"/>
            <path id="prefix__Path_49058" d="M370.7 341.334h-2.51a1.255 1.255 0 1 0 0 2.51h2.51a1.255 1.255 0 1 0 0-2.51z" class="prefix__cls-1" data-name="Path 49058" transform="translate(-312.968 -291.134)"/>
            <path id="prefix__Path_49059" d="M225.632 324.267a3.765 3.765 0 1 0 3.765 3.765 3.765 3.765 0 0 0-3.765-3.765zm0 5.02a1.255 1.255 0 1 1 1.255-1.255 1.255 1.255 0 0 1-1.255 1.255z" class="prefix__cls-1" data-name="Path 49059" transform="translate(-189.237 -276.577)"/>
            <path id="prefix__Path_49060" d="M421.9 443.734h-2.51a1.255 1.255 0 1 0 0 2.51h2.51a1.255 1.255 0 1 0 0-2.51z" class="prefix__cls-1" data-name="Path 49060" transform="translate(-356.638 -378.474)"/>
            <path id="prefix__Path_49061" d="M370.7 443.734h-2.51a1.255 1.255 0 1 0 0 2.51h2.51a1.255 1.255 0 1 0 0-2.51z" class="prefix__cls-1" data-name="Path 49061" transform="translate(-312.968 -378.474)"/>
            <path id="prefix__Path_49062" d="M225.632 426.667a3.765 3.765 0 1 0 3.765 3.765 3.765 3.765 0 0 0-3.765-3.765zm0 5.02a1.255 1.255 0 1 1 1.255-1.255 1.255 1.255 0 0 1-1.255 1.255z" class="prefix__cls-1" data-name="Path 49062" transform="translate(-189.237 -363.917)"/>
        </g>
    </g>
</svg>
