<svg width="24" height="24" viewBox="0 0 24 24" fill="none" xmlns="http://www.w3.org/2000/svg">
<g clip-path="url(#clip0_229_2126)">
<path fill-rule="evenodd" clip-rule="evenodd" d="M6.734 0C1.80341 0 0 1.80309 0 6.73269V17.2673C0 22.1969 1.80341 24 6.734 24H17.2628C22.1932 24 24 22.1969 24 17.2673V6.73269C24 1.80309 22.1966 0 17.266 0H6.734Z" fill="url(#paint0_linear_229_2126)"/>
<path fill-rule="evenodd" clip-rule="evenodd" d="M10.4688 13.9195H11.4323L10.9489 12.7953L10.4688 13.9195ZM10.2315 14.486L9.94565 15.1401H9.29482L10.6788 12.0002H11.2413L12.6198 15.1401H11.9516L11.6694 14.486H10.2315ZM20.7044 15.1378H21.3334V12H20.7044V15.1378ZM18.2008 13.7899H19.3603V13.2177H18.2008V12.5746H19.884V12.0023H17.572V15.1399H19.9446V14.5676H18.2008V13.7899ZM15.7015 14.1606L14.9883 12H14.4679L13.7548 14.1606L13.0607 12.0017H12.3821L13.4774 15.1419H14.0049L14.7192 13.0792L15.4335 15.1419H15.9657L17.0581 12.0017H16.397L15.7015 14.1606ZM8.33459 13.7986C8.33459 14.3093 8.08093 14.5823 7.6203 14.5823C7.15716 14.5823 6.90215 14.3014 6.90215 13.7768V12.0021H6.26463V13.7986C6.26463 14.6822 6.75574 15.1889 7.61162 15.1889C8.47598 15.1889 8.97153 14.6726 8.97153 13.7723V12.0002H8.33459V13.7986ZM4.74365 12.0002H5.38078V15.1421H4.74365V13.8661H3.30427V15.1421H2.66675V12.0002H3.30427V13.2675H4.74365V12.0002Z" fill="white"/>
<path fill-rule="evenodd" clip-rule="evenodd" d="M12.0002 8C9.79442 8 8.00024 6.20563 8.00024 4H8.56525C8.56525 5.8939 10.1063 7.4348 12.0002 7.4348C13.8941 7.4348 15.4352 5.8939 15.4352 4H16.0002C16.0002 6.20563 14.2059 8 12.0002 8Z" fill="white"/>
</g>
<defs>
<linearGradient id="paint0_linear_229_2126" x1="12" y1="0" x2="12" y2="24" gradientUnits="userSpaceOnUse">
<stop stop-color="#FB6361"/>
<stop offset="1" stop-color="#ED3E45"/>
</linearGradient>
<clipPath id="clip0_229_2126">
<rect width="24" height="24" fill="white"/>
</clipPath>
</defs>
</svg>
