<svg xmlns="http://www.w3.org/2000/svg" width="68.809" height="71.008" viewBox="0 0 68.809 71.008"><g transform="translate(-22.133 0)"><rect width="63" height="46" rx="18" transform="translate(22.133 17)" fill="#ffffff"/><g transform="translate(28.133 0)"><g transform="translate(0 0)"><path d="M73.192,12.12H45.5v-9.5A2.621,2.621,0,0,0,41.03.768L28.905,12.892a2.6,2.6,0,0,0,0,3.7L41.03,28.718A2.628,2.628,0,1,0,44.746,25L34.472,14.743l5.8-5.8v5.8A2.631,2.631,0,0,0,42.9,17.366H73.207A12.5,12.5,0,0,1,85.7,29.855a2.623,2.623,0,1,0,5.246,0A17.759,17.759,0,0,0,73.192,12.12Z" transform="translate(-28.133 0)" fill="#87AB49"/></g></g><g transform="translate(28.133 38.511)"><g transform="translate(0)"><path d="M90.155,280.166l-12.11-12.154a2.628,2.628,0,0,0-3.716,3.716L84.6,282l-5.8,5.8V282a2.631,2.631,0,0,0-2.623-2.623H45.868A12.5,12.5,0,0,1,33.379,266.89a2.623,2.623,0,1,0-5.246,0,17.756,17.756,0,0,0,17.735,17.735H73.556v9.5a2.641,2.641,0,0,0,1.618,2.434,2.694,2.694,0,0,0,1.006.2,2.568,2.568,0,0,0,1.851-.772l12.125-12.125a2.6,2.6,0,0,0,0-3.7Z" transform="translate(-28.133 -264.267)" fill="#87AB49"/></g></g><g transform="translate(56.623 32.58)"><g transform="translate(0)"><circle cx="2.915" cy="2.915" r="2.915" fill="#87AB49"/></g></g><g transform="translate(47.544 32.58)"><circle cx="2.915" cy="2.915" r="2.915" fill="#87AB49"/></g><g transform="translate(65.702 32.58)"><circle cx="2.915" cy="2.915" r="2.915" fill="#87AB49"/></g></g></svg>
