<svg xmlns="http://www.w3.org/2000/svg" width="60.5" height="72.6" viewBox="0 0 60.5 72.6"><g transform="translate(-18 -25.473)"><path d="M4.583,0H50.417A4.583,4.583,0,0,1,55,4.583V39.5A27.5,27.5,0,0,1,27.5,67h0A27.5,27.5,0,0,1,0,39.5V4.583A4.583,4.583,0,0,1,4.583,0Z" transform="translate(18 29.694)" fill="#ffffff"/><g transform="translate(18 25.473)"><g transform="translate(0)"><path d="M99.537,0H46.3a3.634,3.634,0,0,0-3.63,3.63v40.3a1.215,1.215,0,0,0,.019.216c.04.221,4.308,22.2,29.945,28.421a1.206,1.206,0,0,0,.571,0c25.636-6.217,29.905-28.2,29.945-28.421a1.229,1.229,0,0,0,.02-.216V3.63A3.634,3.634,0,0,0,99.537,0Zm1.21,43.809c-.323,1.53-4.808,20.6-27.83,26.335-23.194-5.77-27.481-24.588-27.83-26.332V3.63A1.211,1.211,0,0,1,46.3,2.42h53.24a1.211,1.211,0,0,1,1.21,1.21V43.809Z" transform="translate(-42.667)" fill="#87AB49"/><path d="M126.409,34.133h-48.4a1.21,1.21,0,0,0-1.21,1.21V72.71a1.227,1.227,0,0,0,.033.281c.728,3.049,5.357,18.529,25.061,23.863a1.2,1.2,0,0,0,.632,0c19.761-5.345,24.344-20.816,25.062-23.863a1.189,1.189,0,0,0,.032-.278V35.343a1.21,1.21,0,0,0-1.21-1.21ZM125.2,72.571c-.757,3.086-5.1,16.875-22.99,21.862-17.841-4.977-22.223-18.775-22.99-21.868V54.7H125.2V72.571Zm0-20.288H79.219V36.553H125.2v15.73Z" transform="translate(-71.959 -29.293)" fill="#87AB49"/><path d="M182.829,226.517h14.52a3.634,3.634,0,0,0,3.63-3.63v-12.1a3.634,3.634,0,0,0-3.63-3.63v-4.84a6.057,6.057,0,0,0-6.05-6.05h-2.42a6.057,6.057,0,0,0-6.05,6.05v4.84a3.634,3.634,0,0,0-3.63,3.63v12.1A3.634,3.634,0,0,0,182.829,226.517Zm2.42-24.2a3.634,3.634,0,0,1,3.63-3.63h2.42a3.634,3.634,0,0,1,3.63,3.63v4.84h-9.68Zm-3.63,8.47a1.211,1.211,0,0,1,1.21-1.21h14.52a1.211,1.211,0,0,1,1.21,1.21v12.1a1.211,1.211,0,0,1-1.21,1.21h-14.52a1.211,1.211,0,0,1-1.21-1.21Z" transform="translate(-159.839 -168.437)" fill="#87AB49"/><path d="M232.818,314.237v1.433a1.21,1.21,0,1,0,2.42,0v-1.433a3.629,3.629,0,1,0-2.42,0Zm1.21-4.617a1.21,1.21,0,1,1-1.21,1.21A1.21,1.21,0,0,1,234.028,309.62Z" transform="translate(-203.778 -263.64)" fill="#87AB49"/><path d="M148.788,78.4a1.209,1.209,0,0,0,2.224,0l3.63-8.47a1.21,1.21,0,1,0-2.224-.952L149.9,74.856l-2.518-5.874a1.21,1.21,0,1,0-2.224.952Z" transform="translate(-130.54 -58.568)" fill="#87AB49"/><path d="M231.609,79.157a1.21,1.21,0,0,0,1.21-1.21v-2.42h1.21a3.63,3.63,0,0,0,0-7.26h-2.42a1.21,1.21,0,0,0-1.21,1.21v8.47A1.21,1.21,0,0,0,231.609,79.157Zm1.21-8.47h1.21a1.21,1.21,0,0,1,0,2.42h-1.21v-2.42Z" transform="translate(-203.779 -58.587)" fill="#87AB49"/><path d="M299.876,79.156a1.21,1.21,0,0,0,1.21-1.21V73.252l3.855,5.4a1.21,1.21,0,0,0,2.2-.7v-8.47a1.21,1.21,0,1,0-2.42,0v4.695l-3.855-5.4a1.21,1.21,0,0,0-2.195.7v8.47A1.21,1.21,0,0,0,299.876,79.156Z" transform="translate(-262.366 -58.586)" fill="#87AB49"/></g></g></g></svg>
