<svg width="75" height="75" viewBox="0 0 75 75" fill="none" xmlns="http://www.w3.org/2000/svg">
<g clip-path="url(#clip0_3031_69505)">
<path d="M15.3397 33.6821C15.2311 39.5583 17.4845 45.2319 21.5953 49.4321C25.3667 53.4485 27.4057 58.7877 27.2714 64.296V66.4779C27.2714 71.1849 31.0873 75.0009 35.7943 75.0009H39.2034C43.9104 75.0009 47.7264 71.1849 47.7264 66.4779V63.6826C47.6794 58.4426 49.6792 53.391 53.3003 49.6028C61.8776 40.8733 61.7538 26.8433 53.0243 18.2665C48.6538 13.9724 42.7004 11.6793 36.5788 11.9325C24.9166 12.548 15.6786 22.0085 15.3397 33.6821ZM37.2604 57.9546L34.3796 39.2046H40.6185L37.7378 57.9546H37.2604ZM44.4193 61.3638C44.4193 62.1307 44.3172 62.8981 44.3172 63.6822V64.773H30.6805V64.2956C30.6752 63.3159 30.6185 62.3374 30.5102 61.3638H44.4193ZM39.2034 71.5909H35.7943C33.6323 71.5848 31.708 70.2199 30.9876 68.1817H44.0105C43.2897 70.2199 41.3654 71.5848 39.2034 71.5909ZM36.7148 15.3409H37.4989C47.8542 15.3462 56.2448 23.7449 56.2395 34.1003C56.237 39.0049 54.3127 43.7131 50.8795 47.2158C47.9706 50.1852 45.9409 53.9018 45.0159 57.9546H41.1976L44.0783 39.2046H46.0214C46.9627 39.2046 47.7259 38.4414 47.7259 37.5C47.7259 36.5587 46.9627 35.7955 46.0214 35.7955H28.9764C28.035 35.7955 27.2718 36.5587 27.2718 37.5C27.2718 38.4414 28.035 39.2046 28.9764 39.2046H30.9194L33.8001 57.9546H29.9136C28.9625 53.8871 26.9373 50.1492 24.0501 47.1309C20.5555 43.5649 18.6447 38.7419 18.7489 33.7503C19.0282 23.8707 26.8454 15.8607 36.7148 15.3409Z" fill="#87AB49"/>
<path d="M39.2041 8.52291V1.70458C39.2041 0.763264 38.4408 0 37.4995 0C36.5582 0 35.7949 0.763264 35.7949 1.70458V8.52291C35.7949 9.46423 36.5582 10.2275 37.4995 10.2275C38.4408 10.2271 39.2041 9.46423 39.2041 8.52291Z" fill="#87AB49"/>
<path d="M63.5625 9.01701L56.7445 15.8353C56.076 16.4981 56.0715 17.5775 56.7347 18.246C56.738 18.2493 56.7413 18.2526 56.7445 18.2558C57.4074 18.9243 58.4867 18.9288 59.1552 18.2656C59.1585 18.2624 59.1618 18.2591 59.165 18.2558L65.9834 11.4375C66.6519 10.769 66.6519 9.68553 65.9834 9.01701C65.3148 8.3485 64.231 8.3485 63.5625 9.01701Z" fill="#87AB49"/>
<path d="M11.4375 9.01701C10.769 8.3485 9.68553 8.3485 9.01701 9.01701C8.3485 9.68553 8.3485 10.769 9.01701 11.4375L15.8353 18.2558C16.4981 18.9243 17.5775 18.9288 18.246 18.2656L18.2558 18.2558C18.9243 17.593 18.9288 16.5137 18.2656 15.8451C18.2624 15.8419 18.2591 15.8386 18.2558 15.8353L11.4375 9.01701Z" fill="#87AB49"/>
<path d="M61.3633 37.5C61.3633 38.4413 62.1265 39.2046 63.0679 39.2046H69.8862C70.8275 39.2046 71.5908 38.4413 71.5908 37.5C71.5908 36.5587 70.8275 35.7954 69.8862 35.7954H63.0679C62.1265 35.7954 61.3633 36.5587 61.3633 37.5Z" fill="#87AB49"/>
<path d="M3.4082 37.5C3.4082 38.4413 4.17147 39.2046 5.11279 39.2046H11.9311C12.8724 39.2046 13.6357 38.4413 13.6357 37.5C13.6357 36.5587 12.8724 35.7954 11.9311 35.7954H5.11279C4.17147 35.7954 3.4082 36.5587 3.4082 37.5Z" fill="#87AB49"/>
</g>
<defs>
<clipPath id="clip0_3031_69505">
<rect width="75" height="75" fill="white"/>
</clipPath>
</defs>
</svg>
