<svg xmlns="http://www.w3.org/2000/svg" width="488.084" height="488.084" viewBox="0 0 488.084 488.084">
  <g id="Group_3416" data-name="Group 3416" transform="translate(-730.831 -180.085)">
    <g id="Hero_Img" transform="translate(-30.627 -61.373)">
      <g id="Ellipse_2233" data-name="Ellipse 2233" transform="translate(761.458 241.458)" fill="#fff" stroke="#fff" stroke-width="80">
        <circle cx="244.042" cy="244.042" r="244.042" stroke="none"/>
        <circle cx="244.042" cy="244.042" r="204.042" fill="none"/>
      </g>
      <g id="Ellipse_2234" data-name="Ellipse 2234" transform="translate(777.458 257.458)" fill="none" stroke="#eb2554" stroke-width="50">
        <circle cx="228.042" cy="228.042" r="228.042" stroke="none"/>
        <circle cx="228.042" cy="228.042" r="203.042" fill="none"/>
      </g>
      <path id="Path_34587" data-name="Path 34587" d="M81.738-50.1,78.047-11.074l-74,5.8q.527-30.674,1.187-61t1.626-61h45.7q-2.021,19.248-3.867,38.452T46.055-50.1q4.131.176,8.174.176H62.4q4.922,0,9.668-.088T81.738-50.1ZM194.5-62.051a63.721,63.721,0,0,1-1.846,15.425A60.376,60.376,0,0,1,187.339-32.7,57.672,57.672,0,0,1,178.9-20.786a53.707,53.707,0,0,1-11.162,9.272,54.463,54.463,0,0,1-13.491,6.021A54.373,54.373,0,0,1,138.779-3.34a55.244,55.244,0,0,1-15.073-2.021,57.252,57.252,0,0,1-13.4-5.669,53.911,53.911,0,0,1-11.294-8.789A54.66,54.66,0,0,1,90.4-31.245a58.844,58.844,0,0,1-5.537-13.491,56.544,56.544,0,0,1-1.978-15.029,61.2,61.2,0,0,1,1.846-14.985,60.727,60.727,0,0,1,5.317-13.843,59.716,59.716,0,0,1,8.394-11.953,55.332,55.332,0,0,1,11.03-9.4A52.926,52.926,0,0,1,122.7-116.1a50.678,50.678,0,0,1,15.029-2.2,65.5,65.5,0,0,1,23.247,3.955,50.408,50.408,0,0,1,17.93,11.294A50.563,50.563,0,0,1,190.415-85.3,63.166,63.166,0,0,1,194.5-62.051Zm-39.023,2.285a24.743,24.743,0,0,0-1.1-7.339,20.139,20.139,0,0,0-3.208-6.328,16.444,16.444,0,0,0-5.229-4.482,14.635,14.635,0,0,0-7.163-1.714,17.492,17.492,0,0,0-7.383,1.494,16.89,16.89,0,0,0-5.581,4.087,17.927,17.927,0,0,0-3.56,6.064,21.8,21.8,0,0,0-1.23,7.339,26.763,26.763,0,0,0,1.055,7.383,21.933,21.933,0,0,0,3.164,6.68,16.817,16.817,0,0,0,5.229,4.834,13.973,13.973,0,0,0,7.251,1.846,16.562,16.562,0,0,0,7.427-1.626,16.756,16.756,0,0,0,5.581-4.395,20.12,20.12,0,0,0,3.516-6.372A22.96,22.96,0,0,0,155.479-59.766ZM306.738-17.93a41.219,41.219,0,0,1-10.2,9.053,67.14,67.14,0,0,1-13.008,6.416A82.37,82.37,0,0,1,269.3,1.362,80.784,80.784,0,0,1,255.41,2.637a59.232,59.232,0,0,1-23.467-4.57,55.934,55.934,0,0,1-18.5-12.612,58.263,58.263,0,0,1-12.173-18.94,62.158,62.158,0,0,1-4.395-23.467,80.368,80.368,0,0,1,2.2-18.765,79.676,79.676,0,0,1,6.284-17.314,72.629,72.629,0,0,1,9.976-14.941,64.467,64.467,0,0,1,13.359-11.733,63.291,63.291,0,0,1,16.348-7.646,64.371,64.371,0,0,1,18.984-2.725q3.779,0,8.086.308a84.473,84.473,0,0,1,8.569,1.055,60.37,60.37,0,0,1,8.306,2.065,38.526,38.526,0,0,1,7.383,3.252l-2.461,33.574a44.751,44.751,0,0,0-10.151-2.5,81.842,81.842,0,0,0-10.239-.659,39.245,39.245,0,0,0-13.14,2.153,31.477,31.477,0,0,0-10.635,6.2,29.238,29.238,0,0,0-7.163,9.844,31.306,31.306,0,0,0-2.637,13.1,31.689,31.689,0,0,0,1.23,8.833,22.816,22.816,0,0,0,3.735,7.559,19.228,19.228,0,0,0,6.24,5.317,17.908,17.908,0,0,0,8.657,2.021,28.744,28.744,0,0,0,6.9-.879,15.105,15.105,0,0,0,6.108-2.988l.352-6.855-21.094-.352,1.055-26.367q13.1-.439,26.191-.747t26.367-.835Zm96.68-28.828a49.613,49.613,0,0,1-4.175,21.05,41.966,41.966,0,0,1-11.426,14.985,48.993,48.993,0,0,1-16.963,8.965A70.631,70.631,0,0,1,349.98,1.23,43.812,43.812,0,0,1,340.532.088q-5.142-1.143-10.415-2.856T319.966-6.46q-4.878-1.978-8.657-3.735l3.867-36.211a61.778,61.778,0,0,0,16.567,6.812,71.925,71.925,0,0,0,17.886,2.329q1.67,0,4.043-.132a19.009,19.009,0,0,0,4.526-.791,9.734,9.734,0,0,0,3.647-1.978,4.773,4.773,0,0,0,1.494-3.779,4.151,4.151,0,0,0-1.055-2.856,7.891,7.891,0,0,0-2.725-1.934,16.84,16.84,0,0,0-3.779-1.143q-2.109-.4-4.131-.571t-3.779-.176h-2.812A34.785,34.785,0,0,1,331.3-53.262,31.271,31.271,0,0,1,320.669-60.6a33.35,33.35,0,0,1-6.9-11.162,39.057,39.057,0,0,1-2.461-14.019,40.46,40.46,0,0,1,4.175-18.589,43.306,43.306,0,0,1,11.162-13.975,50.536,50.536,0,0,1,16.04-8.833,57.792,57.792,0,0,1,18.721-3.076q4.307,0,8.877.308a86.582,86.582,0,0,1,9.1,1.1,86.052,86.052,0,0,1,8.833,2.021,52.285,52.285,0,0,1,8.174,3.076l-3.34,35.684a107.229,107.229,0,0,0-12.524-3.384,62.7,62.7,0,0,0-12.788-1.362q-1.143,0-2.944.044t-3.779.264a39.2,39.2,0,0,0-4,.659,16.775,16.775,0,0,0-3.6,1.187,6.944,6.944,0,0,0-2.549,1.978,4.18,4.18,0,0,0-.879,2.9,4.207,4.207,0,0,0,1.45,3.12,9.519,9.519,0,0,0,3.516,1.846,24.783,24.783,0,0,0,4.746.923q2.593.264,5.142.308t4.746,0a25.886,25.886,0,0,1,3.6.132,35.843,35.843,0,0,1,12.656,2.988,29.332,29.332,0,0,1,9.536,6.768,28.629,28.629,0,0,1,5.977,10.063A38.415,38.415,0,0,1,403.418-46.758Z" transform="translate(807.077 564.224) rotate(-3)" stroke="#fff" stroke-width="23"/>
      <path id="Path_34588" data-name="Path 34588" d="M81.738-50.1,78.047-11.074l-74,5.8q.527-30.674,1.187-61t1.626-61h45.7q-2.021,19.248-3.867,38.452T46.055-50.1q4.131.176,8.174.176H62.4q4.922,0,9.668-.088T81.738-50.1ZM194.5-62.051a63.721,63.721,0,0,1-1.846,15.425A60.376,60.376,0,0,1,187.339-32.7,57.672,57.672,0,0,1,178.9-20.786a53.707,53.707,0,0,1-11.162,9.272,54.463,54.463,0,0,1-13.491,6.021A54.373,54.373,0,0,1,138.779-3.34a55.244,55.244,0,0,1-15.073-2.021,57.252,57.252,0,0,1-13.4-5.669,53.911,53.911,0,0,1-11.294-8.789A54.66,54.66,0,0,1,90.4-31.245a58.844,58.844,0,0,1-5.537-13.491,56.544,56.544,0,0,1-1.978-15.029,61.2,61.2,0,0,1,1.846-14.985,60.727,60.727,0,0,1,5.317-13.843,59.716,59.716,0,0,1,8.394-11.953,55.332,55.332,0,0,1,11.03-9.4A52.926,52.926,0,0,1,122.7-116.1a50.678,50.678,0,0,1,15.029-2.2,65.5,65.5,0,0,1,23.247,3.955,50.408,50.408,0,0,1,17.93,11.294A50.563,50.563,0,0,1,190.415-85.3,63.166,63.166,0,0,1,194.5-62.051Zm-39.023,2.285a24.743,24.743,0,0,0-1.1-7.339,20.139,20.139,0,0,0-3.208-6.328,16.444,16.444,0,0,0-5.229-4.482,14.635,14.635,0,0,0-7.163-1.714,17.492,17.492,0,0,0-7.383,1.494,16.89,16.89,0,0,0-5.581,4.087,17.927,17.927,0,0,0-3.56,6.064,21.8,21.8,0,0,0-1.23,7.339,26.763,26.763,0,0,0,1.055,7.383,21.933,21.933,0,0,0,3.164,6.68,16.817,16.817,0,0,0,5.229,4.834,13.973,13.973,0,0,0,7.251,1.846,16.562,16.562,0,0,0,7.427-1.626,16.756,16.756,0,0,0,5.581-4.395,20.12,20.12,0,0,0,3.516-6.372A22.96,22.96,0,0,0,155.479-59.766ZM306.738-17.93a41.219,41.219,0,0,1-10.2,9.053,67.14,67.14,0,0,1-13.008,6.416A82.37,82.37,0,0,1,269.3,1.362,80.784,80.784,0,0,1,255.41,2.637a59.232,59.232,0,0,1-23.467-4.57,55.934,55.934,0,0,1-18.5-12.612,58.263,58.263,0,0,1-12.173-18.94,62.158,62.158,0,0,1-4.395-23.467,80.368,80.368,0,0,1,2.2-18.765,79.676,79.676,0,0,1,6.284-17.314,72.629,72.629,0,0,1,9.976-14.941,64.467,64.467,0,0,1,13.359-11.733,63.291,63.291,0,0,1,16.348-7.646,64.371,64.371,0,0,1,18.984-2.725q3.779,0,8.086.308a84.473,84.473,0,0,1,8.569,1.055,60.37,60.37,0,0,1,8.306,2.065,38.526,38.526,0,0,1,7.383,3.252l-2.461,33.574a44.751,44.751,0,0,0-10.151-2.5,81.842,81.842,0,0,0-10.239-.659,39.245,39.245,0,0,0-13.14,2.153,31.477,31.477,0,0,0-10.635,6.2,29.238,29.238,0,0,0-7.163,9.844,31.306,31.306,0,0,0-2.637,13.1,31.689,31.689,0,0,0,1.23,8.833,22.816,22.816,0,0,0,3.735,7.559,19.228,19.228,0,0,0,6.24,5.317,17.908,17.908,0,0,0,8.657,2.021,28.744,28.744,0,0,0,6.9-.879,15.105,15.105,0,0,0,6.108-2.988l.352-6.855-21.094-.352,1.055-26.367q13.1-.439,26.191-.747t26.367-.835Zm96.68-28.828a49.613,49.613,0,0,1-4.175,21.05,41.966,41.966,0,0,1-11.426,14.985,48.993,48.993,0,0,1-16.963,8.965A70.631,70.631,0,0,1,349.98,1.23,43.812,43.812,0,0,1,340.532.088q-5.142-1.143-10.415-2.856T319.966-6.46q-4.878-1.978-8.657-3.735l3.867-36.211a61.778,61.778,0,0,0,16.567,6.812,71.925,71.925,0,0,0,17.886,2.329q1.67,0,4.043-.132a19.009,19.009,0,0,0,4.526-.791,9.734,9.734,0,0,0,3.647-1.978,4.773,4.773,0,0,0,1.494-3.779,4.151,4.151,0,0,0-1.055-2.856,7.891,7.891,0,0,0-2.725-1.934,16.84,16.84,0,0,0-3.779-1.143q-2.109-.4-4.131-.571t-3.779-.176h-2.812A34.785,34.785,0,0,1,331.3-53.262,31.271,31.271,0,0,1,320.669-60.6a33.35,33.35,0,0,1-6.9-11.162,39.057,39.057,0,0,1-2.461-14.019,40.46,40.46,0,0,1,4.175-18.589,43.306,43.306,0,0,1,11.162-13.975,50.536,50.536,0,0,1,16.04-8.833,57.792,57.792,0,0,1,18.721-3.076q4.307,0,8.877.308a86.582,86.582,0,0,1,9.1,1.1,86.052,86.052,0,0,1,8.833,2.021,52.285,52.285,0,0,1,8.174,3.076l-3.34,35.684a107.229,107.229,0,0,0-12.524-3.384,62.7,62.7,0,0,0-12.788-1.362q-1.143,0-2.944.044t-3.779.264a39.2,39.2,0,0,0-4,.659,16.775,16.775,0,0,0-3.6,1.187,6.944,6.944,0,0,0-2.549,1.978,4.18,4.18,0,0,0-.879,2.9,4.207,4.207,0,0,0,1.45,3.12,9.519,9.519,0,0,0,3.516,1.846,24.783,24.783,0,0,0,4.746.923q2.593.264,5.142.308t4.746,0a25.886,25.886,0,0,1,3.6.132,35.843,35.843,0,0,1,12.656,2.988,29.332,29.332,0,0,1,9.536,6.768,28.629,28.629,0,0,1,5.977,10.063A38.415,38.415,0,0,1,403.418-46.758Z" transform="translate(807.077 564.224) rotate(-3)"/>
      <line id="Line_229" data-name="Line 229" x2="413.559" transform="translate(855.15 635.85) rotate(-45)" fill="none" stroke="#eb2554" stroke-width="40"/>
    </g>
  </g>
</svg>
