<svg xmlns="http://www.w3.org/2000/svg" xmlns:xlink="http://www.w3.org/1999/xlink" width="702.423" height="465.356" viewBox="0 0 702.423 465.356"><defs><linearGradient id="a" y1="0.5" x2="1" y2="0.5" gradientUnits="objectBoundingBox"><stop offset="0" stop-color="#e6e6e9"/><stop offset="1" stop-color="#dbdbdf"/></linearGradient><linearGradient id="c" x1="0.5" y1="1.019" x2="0.5" y2="-0.174" xlink:href="#a"/></defs><g transform="translate(-887.486 -266.363)"><g transform="translate(899.544 266.363)" opacity="0.129"><path d="M1069.492,331.036a11.007,11.007,0,0,1,11-11.007h72.651a11.006,11.006,0,0,1,0,22.012h-72.651a11,11,0,0,1-11-11Z" transform="translate(-677.932 -319.478)" fill="#fff" fill-rule="evenodd"/><path d="M1288.976,391.425h-41.207a9.812,9.812,0,0,1,0-19.625h7.038a13.209,13.209,0,1,0,0-26.415H1134.129a13.209,13.209,0,1,0,0,26.415h83.11a9.812,9.812,0,0,1,0,19.625h-.915a11.008,11.008,0,0,0,0,22.017h72.651a11.008,11.008,0,0,0,0-22.017Z" transform="translate(-609.615 -285.666)" fill="#fff" fill-rule="evenodd"/><g transform="translate(0 10.048)"><path d="M1079.426,324.1H966.79a12.516,12.516,0,0,0,0,25.031h11.278a9.812,9.812,0,0,1,0,19.625H936.287a12.286,12.286,0,1,0,0,24.572h81.085a12.286,12.286,0,0,0,0-24.572H1008.6a9.812,9.812,0,0,1,0-19.625h70.829a12.516,12.516,0,1,0,0-25.031Z" transform="translate(-871.945 -324.099)" fill="#fff" fill-rule="evenodd"/><path d="M913.5,344.472a11.806,11.806,0,1,0,11.805,11.805A11.807,11.807,0,0,0,913.5,344.472Z" transform="translate(-901.693 -296.931)" fill="#fff" fill-rule="evenodd"/></g><path d="M1143.786,331.351a11.56,11.56,0,1,1-11.558-11.558A11.559,11.559,0,0,1,1143.786,331.351Z" transform="translate(-609.691 -319.793)" fill="#fff" fill-rule="evenodd"/></g><g transform="translate(1363.427 455.481)" opacity="0.26"><path d="M1238.983,514.4V498.513h-11.914v-9.646h-19.855V438.946h-14.073V424.389h-13.948v14.557h-15.656v85.378h43.677v-.284H1237v.282h9.927V514.4Z" transform="translate(-1075.731 -355.556)" fill="#fff" fill-rule="evenodd"/><path d="M1194.255,401.057v-7.942h3.974v-3.972h-15.883v3.972h3.97v7.942h-11.957V420.91h-24.7a117.646,117.646,0,0,0-7.023,10.61h-10.411v5.96h7.083q-2.041,3.9-3.867,7.991h-8.112v5.956h5.623q-1.635,4.157-3.07,8.5H1122.8v5.851h5.249q-1.447,4.968-2.65,10.157h-6.335v5.853h5.029c-4.65,22.753-6.163,48.358-5.275,76.126h89.548V401.057Z" transform="translate(-1118.575 -389.142)" fill="#fff" fill-rule="evenodd"/><g transform="translate(33.791 42.377)"><rect width="37.395" height="4.381" transform="translate(0 59.851)" fill="#fff"/><rect width="37.395" height="4.381" transform="translate(0 45.773)" fill="#fff"/><rect width="37.399" height="4.375" transform="translate(0.523)" fill="#fff"/><rect width="37.399" height="4.377" transform="translate(0.523 14.74)" fill="#fff"/><rect width="37.399" height="4.383" transform="translate(0.523 29.478)" fill="#fff"/></g></g><g transform="translate(887.486 404.026)" opacity="0.26"><path d="M906.027,487.069c-.637-13.618-5.953-24.7-13.877-31.332V441.688a5.578,5.578,0,1,0-5.566,0v14.053c-7.929,6.63-13.241,17.719-13.879,31.328H861.486v30.66h55.757v-30.66Z" transform="translate(-861.486 -297.507)" fill="#fff" fill-rule="evenodd"/><path d="M995.972,454.782v-44.6H970.884V390.665H959.735V379.514h19.512l-8.363-6.969,8.382-6.969H959.735v-2.783H954.16v27.871H940.219v39.027H915.131v86.415H890.037v66.909H1035V454.782Z" transform="translate(-834.28 -362.793)" fill="#fff" fill-rule="evenodd"/><g transform="translate(22.685 55.365)"><g transform="translate(92.78)"><rect width="10.02" height="10.017" fill="#fff"/></g><g transform="translate(107.929)"><rect width="10.016" height="10.017" fill="#fff"/></g><g transform="translate(92.973 17.678)"><rect width="10.016" height="10.015" fill="#fff"/></g><g transform="translate(108.117 17.678)"><rect width="10.016" height="10.015" fill="#fff"/></g><g transform="translate(93.162 35.358)"><rect width="10.016" height="10.016" fill="#fff"/></g><g transform="translate(108.314 35.358)"><rect width="10.012" height="10.016" fill="#fff"/></g><g transform="translate(40.743 105.412)"><rect width="10.016" height="10.016" fill="#fff"/></g><g transform="translate(55.891 105.412)"><rect width="10.012" height="10.016" fill="#fff"/></g><g transform="translate(72.67 56.146)"><rect width="10.022" height="10.016" fill="#fff"/></g><g transform="translate(40.743 123.074)"><rect width="10.016" height="10.018" fill="#fff"/></g><g transform="translate(55.891 123.074)"><rect width="10.012" height="10.018" fill="#fff"/></g><path d="M883.489,464.2a5.194,5.194,0,1,1-5.2-5.193A5.2,5.2,0,0,1,883.489,464.2Z" transform="translate(-873.102 -326.475)" fill="#fff" fill-rule="evenodd"/></g></g><g transform="translate(1101.899 336.078)"><path d="M1234.049,347H1015.812l-29.785,19.529h277.81Z" transform="translate(-983.351 -309.895)" fill="#ffb600"/><path d="M1087.357,348.16h-5.9v17.7h20.658Z" transform="translate(-892.421 -308.79)" fill="#7a7a85" opacity="0.4"/><path d="M1044.94,348.16h-5.9v17.7h20.654Z" transform="translate(-932.834 -308.79)" fill="#7a7a85" opacity="0.4"/><rect width="11.717" height="17.576" rx="2.977" transform="translate(94.41 44.916)" fill="#0071bc"/><rect width="11.717" height="17.576" rx="2.976" transform="translate(178.384 44.916)" fill="#0071bc"/><path d="M8.835,0H155.207a8.836,8.836,0,0,1,8.836,8.836v33.1a8.835,8.835,0,0,1-8.835,8.835H8.836A8.836,8.836,0,0,1,0,41.939V8.835A8.835,8.835,0,0,1,8.835,0Z" transform="translate(57.305)" fill="#0071bc"/><rect width="271.478" height="224.266" transform="translate(5.902 62.976)" fill="#e6e6e6"/><path d="M1262.037,432.634H990.559l-5.9-5.9h283.281Z" transform="translate(-984.656 -233.918)" fill="#cfcfd5"/><rect width="11.803" height="120.987" transform="translate(94.427 62.976)" fill="#999"/><rect width="11.807" height="120.987" transform="translate(177.051 62.976)" fill="#999"/><rect width="283.281" height="11.805" transform="translate(0 181.01)" fill="url(#a)"/><path d="M1267.937,423.569H984.656l5.9-5.9h271.478Z" transform="translate(-984.656 -242.558)" fill="#f3f3f5"/><rect width="283.281" height="11.805" transform="translate(0 275.437)" fill="url(#a)"/><path d="M1267.937,471.921H984.656l5.9-5.9h271.478Z" transform="translate(-984.656 -196.484)" fill="#f3f3f5"/><g transform="translate(26.556 93.429)"><path d="M1042.591,442.766h-41.313V380.8a45.511,45.511,0,0,1,41.313,0Z" transform="translate(-995.374 -375.841)" fill="#9ce5ff"/><path d="M998.255,415.943l8.857,11.8h59.014L1051.37,407.09Z" transform="translate(-998.255 -346.065)" fill="#7a7a85" opacity="0.4"/><rect width="53.115" height="8.853" transform="translate(0 61.025)" fill="#f2f2f2"/></g><path d="M1007.182,385.756a45.464,45.464,0,0,1,35.41-2.449V380.8a45.511,45.511,0,0,0-41.313,0v56.067h5.9Z" transform="translate(-968.818 -282.413)" fill="#7a7a85" opacity="0.4"/><g transform="translate(120.983 87.527)"><path d="M1087.92,439.746h-41.313V377.777a45.51,45.51,0,0,1,41.313,0Z" transform="translate(-1046.607 -372.819)" fill="#9ce5ff"/></g><path d="M1052.512,382.734a45.459,45.459,0,0,1,35.408-2.449v-2.508a45.51,45.51,0,0,0-41.313,0v61.969h5.905Z" transform="translate(-925.624 -285.292)" fill="#7a7a85" opacity="0.4"/><rect width="41.312" height="47.213" transform="translate(32.461 210.519)" fill="#9ce5ff"/><rect width="41.312" height="47.213" transform="translate(209.512 210.519)" fill="#9ce5ff"/><g transform="translate(203.608 93.429)"><path d="M1133.252,442.766h-41.313V380.8a45.511,45.511,0,0,1,41.313,0Z" transform="translate(-1086.035 -375.841)" fill="#9ce5ff"/><path d="M1088.916,415.943l8.853,11.8h59.017l-14.755-20.654Z" transform="translate(-1088.916 -346.065)" fill="#7a7a85" opacity="0.4"/><rect width="53.115" height="8.853" transform="translate(0 61.025)" fill="#f2f2f2"/></g><path d="M1097.843,385.756a45.464,45.464,0,0,1,35.41-2.449V380.8a45.511,45.511,0,0,0-41.313,0v56.067h5.9Z" transform="translate(-882.428 -282.413)" fill="#7a7a85" opacity="0.4"/><path d="M1127.439,513.734h-94.43V445.861a104.014,104.014,0,0,1,94.43,0Z" transform="translate(-938.581 -226.491)" fill="#9ce5ff"/><rect width="41.312" height="5.902" transform="translate(32.461 121.993)" fill="#7a7a85" opacity="0.4"/><rect width="41.312" height="5.902" transform="translate(209.512 121.993)" fill="#7a7a85" opacity="0.4"/><rect width="5.903" height="76.723" transform="translate(138.691 210.519)" fill="#999"/><path d="M1075.319,360.248l88.525,112.132h-88.525Z" transform="translate(-898.264 -297.272)" fill="#7a7a85" opacity="0.4"/><path d="M1259.157,372.052h-88.523l-11.807-5.9h-70.821l-11.8,5.9H987.679v-11.8h271.478Z" transform="translate(-981.776 -297.272)" fill="#7a7a85" opacity="0.4"/><path d="M1260.6,363.127H989.118l-2.95-5.9h277.381Z" transform="translate(-983.216 -300.151)" fill="#cfcfd5"/><rect width="5.903" height="67.872" transform="translate(94.427 219.37)" fill="#999"/><rect width="5.905" height="67.872" transform="translate(182.954 219.37)" fill="#999"/><path d="M1133.251,435.8h-41.312v47.213h5.9V441.7h35.41Z" transform="translate(-882.427 -225.28)" fill="#7a7a85" opacity="0.4"/><path d="M1103.527,472.675c0,10.645-2.99,16.523-10.323,16.523s-10.331-5.878-10.331-16.523,3-24.788,10.331-24.788S1103.527,462.028,1103.527,472.675Z" transform="translate(-891.067 -213.761)" fill="#2fa49a"/><path d="M1082.873,467.53l2.95,14.755h14.755l2.948-14.755Z" transform="translate(-891.067 -195.043)" fill="#f3f3f5"/><path d="M1029.987,459.048,1089,526.921h132.791l-88.527-106.232Z" transform="translate(-941.461 -239.678)" fill="#7a7a85" opacity="0.4"/><g transform="translate(88.526 181.01)"><rect width="103.28" height="38.36" fill="url(#c)"/><rect width="14.755" height="38.36" fill="#0071bc"/><rect width="14.75" height="38.36" transform="translate(29.511)" fill="#0071bc"/><rect width="14.753" height="38.36" transform="translate(59.016)" fill="#0071bc"/><rect width="14.755" height="38.36" transform="translate(88.525)" fill="#0071bc"/><rect width="103.28" height="8.851" transform="translate(0 29.509)" fill="#7a7a85" opacity="0.4"/></g><rect width="41.312" height="5.901" transform="translate(120.984 116.092)" fill="#7a7a85" opacity="0.4"/><path d="M1042.59,435.8h-41.312v47.213h5.9V441.7h35.409Z" transform="translate(-968.817 -225.28)" fill="#7a7a85" opacity="0.4"/><path d="M1041.575,472.675c0,10.645-2.992,16.523-10.323,16.523s-10.331-5.878-10.331-16.523,3-24.788,10.331-24.788S1041.575,462.028,1041.575,472.675Z" transform="translate(-950.1 -213.761)" fill="#2fa49a"/><path d="M1020.921,467.53l2.952,14.755h14.754l2.948-14.755Z" transform="translate(-950.1 -195.043)" fill="#f3f3f5"/><g transform="translate(77.916 12.682)"><path d="M1050.576,334.8v26.4h-8.9v-9.729h-8.222V361.2h-8.9V334.8h8.9v9.352h8.222V334.8Z" transform="translate(-1024.554 -334.2)" fill="#fff"/><path d="M1046.779,360.327a13.533,13.533,0,0,1,0-24.062,17.434,17.434,0,0,1,15.313,0,13.533,13.533,0,0,1,0,24.062,17.433,17.433,0,0,1-15.313,0Zm10.653-6.241a5.83,5.83,0,0,0,2.132-2.3,8.091,8.091,0,0,0,0-6.978,5.831,5.831,0,0,0-2.132-2.3,5.95,5.95,0,0,0-6,0,5.823,5.823,0,0,0-2.13,2.3,8.09,8.09,0,0,0,0,6.978,5.823,5.823,0,0,0,2.13,2.3,5.95,5.95,0,0,0,6,0Z" transform="translate(-1010.276 -334.494)" fill="#fff"/><path d="M1062.969,341.7h-7.732v-6.9H1079.6v6.9h-7.73v19.5h-8.9Z" transform="translate(-995.315 -334.2)" fill="#fff"/><path d="M1090.84,354.488V361.2h-21.948V334.8h21.458v6.712h-12.709v3.091H1088.8v6.411h-11.163v3.47Z" transform="translate(-982.305 -334.2)" fill="#fff"/><path d="M1081.888,334.8h8.9v19.5h11.918v6.9h-20.818Z" transform="translate(-969.921 -334.2)" fill="#fff"/></g></g><g transform="translate(1253 603.306)"><path d="M1279.823,487.117c0,3.379-43.02,6.12-96.082,6.12s-96.088-2.742-96.088-6.12,43.02-6.113,96.088-6.113S1279.823,483.744,1279.823,487.117Z" transform="translate(-1083.835 -410.245)" fill="#4d4d4d" opacity="0.29"/><rect width="171.496" height="24.247" transform="translate(11.75 39.974)" fill="#8fd5e0"/><g transform="translate(19.728 48.924)"><path d="M1095.8,485.155a15.339,15.339,0,1,0,15.332-15.332A15.334,15.334,0,0,0,1095.8,485.155Zm4.4,0a10.925,10.925,0,1,1,10.928,10.915A10.942,10.942,0,0,1,1100.2,485.155Z" transform="translate(-1095.8 -469.823)" fill="#102249"/><path d="M1098.055,483a10.925,10.925,0,1,0,10.928-10.911A10.941,10.941,0,0,0,1098.055,483Zm4.427,0a6.505,6.505,0,1,1,6.5,6.5A6.514,6.514,0,0,1,1102.482,483Z" transform="translate(-1093.651 -467.666)" fill="#f2f2f2"/><path d="M1100.322,480.533a6.5,6.5,0,0,0,12.942.865,6.2,6.2,0,0,1-2.787.644,6.51,6.51,0,0,1-6.5-6.5,5.125,5.125,0,0,1,.07-.873A6.462,6.462,0,0,0,1100.322,480.533Z" transform="translate(-1091.491 -465.2)" fill="#999"/><path d="M1102.192,475.86a6.51,6.51,0,0,0,6.5,6.5,6.2,6.2,0,0,0,2.787-.644,4.544,4.544,0,0,0,.068-.865,6.515,6.515,0,0,0-6.509-6.5,6.267,6.267,0,0,0-2.779.642A5.113,5.113,0,0,0,1102.192,475.86Z" transform="translate(-1089.709 -465.514)" fill="#ccc"/></g><g transform="translate(143.723 48.924)"><path d="M1159.293,485.155a15.342,15.342,0,1,0,15.342-15.332A15.336,15.336,0,0,0,1159.293,485.155Zm4.413,0a10.924,10.924,0,1,1,10.928,10.915A10.94,10.94,0,0,1,1163.707,485.155Z" transform="translate(-1159.293 -469.823)" fill="#102249"/><path d="M1161.553,483a10.924,10.924,0,1,0,10.928-10.911A10.938,10.938,0,0,0,1161.553,483Zm4.423,0a6.5,6.5,0,1,1,6.505,6.5A6.513,6.513,0,0,1,1165.976,483Z" transform="translate(-1157.14 -467.666)" fill="#f2f2f2"/><path d="M1163.818,480.533a6.5,6.5,0,0,0,12.938.865,6.2,6.2,0,0,1-2.781.644,6.516,6.516,0,0,1-6.507-6.5,4.922,4.922,0,0,1,.07-.873A6.463,6.463,0,0,0,1163.818,480.533Z" transform="translate(-1154.981 -465.2)" fill="#999"/><path d="M1165.687,475.86a6.516,6.516,0,0,0,6.507,6.5,6.2,6.2,0,0,0,2.781-.644,4.91,4.91,0,0,0,.07-.865,6.513,6.513,0,0,0-6.5-6.5,6.267,6.267,0,0,0-2.785.642A4.922,4.922,0,0,0,1165.687,475.86Z" transform="translate(-1153.2 -465.514)" fill="#ccc"/></g><path d="M1182.419,473.685h-.572c.187.965.347,1.943.465,2.939.045.3.076.619.107.92.07.8.127,1.615.154,2.431.017.49.026,1,.026,1.5,0,0,.012-.537.012-1.5C1182.6,478.632,1182.558,476.452,1182.419,473.685Z" transform="translate(-994.079 -417.219)" fill="#fff"/><path d="M1271.946,501.235h-8.78a3.13,3.13,0,0,0-1.336.293c-.375.207-.416.189-.541.312a3.733,3.733,0,0,0-1.355,1.793l-.98-3.628a11.485,11.485,0,0,0-2.463-3.46,5.7,5.7,0,0,0-2.937-1.211,9.212,9.212,0,0,0-1.355-.105h-20.142c-.274,0-.524.021-.754.043-.2.023-.416.043-.625.062a5.6,5.6,0,0,0-.605.105c-.166.041-.311.086-.453.125a5.459,5.459,0,0,0-.611.187c-2,.752-2.418,2.252-3.564,4.318l-4.088,8.966h-82.277l-3-9.03c-1.353-2.459-2.31-4.232-5.4-4.671a9.351,9.351,0,0,0-1.379-.105h-20.14c-.25,0-.5.021-.734.043-.2.023-.412.043-.623.062a5.72,5.72,0,0,0-.607.105c-.162.041-.312.086-.457.125-2.519.668-2.916,2.232-4.169,4.505l-4.083,8.966H1092.1s-4.21,0-4.21-1.4c0-8.944.25-16.514.664-22.937.027-.125.027-.271.047-.416.119-1.687.25-3.275.392-4.816s.314-3.025.5-4.466c0-2.019.207-6.21.669-10.923.561-5.925,1.521-12.594,2.941-16.705a3.743,3.743,0,0,0,.144-.414,12.775,12.775,0,0,1,1.039-2.189h154.905a24.769,24.769,0,0,1,3.357,2.082c-.02,0-.02.025-.02.025-.063.016-.123.037-.207.061a.306.306,0,0,1-.146.021l13.971,20.935c.25.728.481,1.457.711,2.187.143.461.27.918.393,1.379.9,3,1.611,6.044,2.211,9.048.314,1.648.607,3.253.834,4.837.313,1.918.563,3.775.77,5.548C1271.524,494.792,1271.778,498.337,1271.946,501.235Z" transform="translate(-1083.609 -444.771)" fill="#29abe2"/><path d="M1158.716,448.556v13.387a1.941,1.941,0,0,0,1.949,1.945l29.686.014c1.541,0,3.349.113,2.629-1.463l-9.431-13.883c-.83-1.2-.869-1.945-1.947-1.945h-20.937A1.951,1.951,0,0,0,1158.716,448.556Zm1.461,1.181a1.654,1.654,0,0,1,1.722-1.576h18.9c.943,0,.92.406,1.642,1.371l7.962,11.44c.635,1.273-.953,1.174-2.318,1.174H1161.9a1.655,1.655,0,0,1-1.722-1.574Z" transform="translate(-1016.12 -443.018)" fill="#fff"/><path d="M1088.449,457.711a1.089,1.089,0,0,0,1.08,1.092h176.883a1.095,1.095,0,0,0,0-2.189H1089.529A1.09,1.09,0,0,0,1088.449,457.711Z" transform="translate(-1083.077 -433.486)" fill="#fff"/><path d="M1250.928,445.874a1.128,1.128,0,0,1-.545.978c-.02,0-.02.025-.02.025-.063.016-.123.037-.207.061a.307.307,0,0,1-.146.021H1091.082a1.108,1.108,0,0,1,.043-2.189h158.819A1.049,1.049,0,0,1,1250.928,445.874Z" transform="translate(-1081.443 -444.771)" fill="#fff"/><path d="M1143.993,448.609v13.409a1.945,1.945,0,0,0,1.945,1.945h19.716a1.948,1.948,0,0,0,1.949-1.945V448.609a1.947,1.947,0,0,0-1.949-1.945h-19.716A1.944,1.944,0,0,0,1143.993,448.609Zm1.535.578a.981.981,0,0,1,.976-.975h18.578a.978.978,0,0,1,.98.975v12.256a.978.978,0,0,1-.98.973H1146.5a.981.981,0,0,1-.976-.973Z" transform="translate(-1030.149 -442.967)" fill="#fff"/><path d="M.5,0H20.036a.5.5,0,0,1,.5.5V13.7a.5.5,0,0,1-.5.5H.5a.5.5,0,0,1-.5-.5V.5A.5.5,0,0,1,.5,0Z" transform="translate(115.379 5.245)" fill="#3f6271" opacity="0.74"/><path d="M1129.946,448.609v13.409a1.944,1.944,0,0,0,1.941,1.945H1151.6a1.951,1.951,0,0,0,1.949-1.945V448.609a1.95,1.95,0,0,0-1.949-1.945h-19.717A1.943,1.943,0,0,0,1129.946,448.609Zm1.533.578a.978.978,0,0,1,.977-.975h18.588a.976.976,0,0,1,.969.975v12.256a.976.976,0,0,1-.969.973h-18.588a.977.977,0,0,1-.977-.973Z" transform="translate(-1043.535 -442.967)" fill="#fff"/><path d="M.5,0H20.034a.5.5,0,0,1,.5.5v13.21a.5.5,0,0,1-.5.5H.5a.5.5,0,0,1-.5-.5V.5A.5.5,0,0,1,.5,0Z" transform="translate(87.945 5.245)" fill="#3f6271" opacity="0.74"/><path d="M1115.9,448.609v13.409a1.95,1.95,0,0,0,1.951,1.945h19.714a1.944,1.944,0,0,0,1.945-1.945V448.609a1.943,1.943,0,0,0-1.945-1.945h-19.714A1.949,1.949,0,0,0,1115.9,448.609Zm1.539.578a.976.976,0,0,1,.972-.975h18.582a.972.972,0,0,1,.976.975v12.256a.971.971,0,0,1-.976.973h-18.582a.975.975,0,0,1-.972-.973Z" transform="translate(-1056.924 -442.967)" fill="#fff"/><path d="M.5,0H20.034a.5.5,0,0,1,.5.5V13.7a.5.5,0,0,1-.5.5H.5a.5.5,0,0,1-.5-.5V.5A.5.5,0,0,1,.5,0Z" transform="translate(60.51 5.245)" fill="#3f6271" opacity="0.74"/><path d="M1098.964,448.609v13.409a2.214,2.214,0,0,0,2.414,1.945H1125.8a2.216,2.216,0,0,0,2.41-1.945V448.609a2.215,2.215,0,0,0-2.41-1.945h-24.419A2.213,2.213,0,0,0,1098.964,448.609Zm1.9.578a1.117,1.117,0,0,1,1.213-.975h23.019a1.111,1.111,0,0,1,1.207.975v12.256a1.111,1.111,0,0,1-1.207.973h-23.019a1.117,1.117,0,0,1-1.213-.973Z" transform="translate(-1073.057 -442.967)" fill="#fff"/><path d="M1099.936,448.431v12.256a1.117,1.117,0,0,0,1.213.973h23.019a1.111,1.111,0,0,0,1.207-.973V448.431a1.111,1.111,0,0,0-1.207-.975h-23.019A1.117,1.117,0,0,0,1099.936,448.431Z" transform="translate(-1072.131 -442.211)" fill="#3f6271" opacity="0.74"/><path d="M1159.464,448.981v10.835a1.655,1.655,0,0,0,1.722,1.574h26.183c1.365,0,2.953.1,2.318-1.174l-7.962-11.44c-.723-.965-.7-1.371-1.642-1.371h-18.9A1.654,1.654,0,0,0,1159.464,448.981Z" transform="translate(-1015.407 -442.261)" fill="#3f6271" opacity="0.74"/><path d="M1099.56,457.735c1.547.076,3.71,0,6.706,0Z" transform="translate(-1072.489 -432.418)" fill="#be894a"/><path d="M1176.952,473.986q5.255,1.714,10.132,3.558c-.031-.3-.063-.617-.108-.92-.117-1-.277-1.974-.465-2.939h-8.22A3.156,3.156,0,0,0,1176.952,473.986Z" transform="translate(-998.743 -417.219)" fill="#92d2df"/><path d="M1175.846,477.342a3.993,3.993,0,0,0,1.721,3.351,3.225,3.225,0,0,0,.57.295,2.97,2.97,0,0,0,1.209.248h9.638a3.456,3.456,0,0,0,3.05-1.99,3.13,3.13,0,0,1-1.709.49H1180.7a3.716,3.716,0,0,1-3.5-3.894,4.162,4.162,0,0,1,.447-1.906,4.012,4.012,0,0,0-1.052.988,3.336,3.336,0,0,0-.344.627A4.025,4.025,0,0,0,1175.846,477.342Z" transform="translate(-999.797 -416.98)" fill="#b3b3b3"/><path d="M1176.539,476.081a3.716,3.716,0,0,0,3.5,3.894h9.624a3.13,3.13,0,0,0,1.709-.49,4.3,4.3,0,0,0,.455-1.9,4.15,4.15,0,0,0-1.025-2.75,3.361,3.361,0,0,0-2.48-1.146h-9.638a3.388,3.388,0,0,0-1.7.49A4.164,4.164,0,0,0,1176.539,476.081Z" transform="translate(-999.136 -417.219)" fill="#f2f2f2"/><path d="M1085.7,477.431a3.686,3.686,0,0,0,3.435,3.9h9.442a3.427,3.427,0,0,0,3.035-2.058,3.114,3.114,0,0,1-1.236.264h-9.442a3.687,3.687,0,0,1-3.441-3.9,4.135,4.135,0,0,1,.412-1.834A3.916,3.916,0,0,0,1085.7,477.431Z" transform="translate(-1085.698 -417.107)" fill="#b3b3b3"/><path d="M1086.616,475.767a3.687,3.687,0,0,0,3.441,3.9h9.442a3.114,3.114,0,0,0,1.236-.264,4.366,4.366,0,0,0,.4-1.838,4.174,4.174,0,0,0-1-2.757,3.246,3.246,0,0,0-2.433-1.139h-9.442a3.048,3.048,0,0,0-1.23.268A4.135,4.135,0,0,0,1086.616,475.767Z" transform="translate(-1084.823 -417.237)" fill="#f2f2f2"/><path d="M1087.653,460.249v9.286h1.174c.111-1.687.242-3.283.381-4.81q.235-2.317.512-4.476Z" transform="translate(-1083.835 -430.022)" fill="#f68821"/><path d="M1160.224,460.4a1.332,1.332,0,0,0,1.334,1.332h6.978a1.335,1.335,0,0,0,1.338-1.332h0a1.337,1.337,0,0,0-1.338-1.336h-6.978a1.334,1.334,0,0,0-1.334,1.336Z" transform="translate(-1014.683 -431.154)" fill="#3f6271" opacity="0.74"/><path d="M1186.133,464.921c0,1.98-.084,3.691-.75,4.587a1.52,1.52,0,0,1-1.295.625c-4.484,0-8.112-2.334-8.112-5.212,0-2.855,3.629-5.191,8.112-5.191a1.449,1.449,0,0,1,1.23.625C1185.965,461.228,1186.133,462.962,1186.133,464.921Z" transform="translate(-999.673 -430.517)" fill="#cae6e6"/><path d="M1183.219,464.616c0,2.523-1.059,4.568-2.395,4.587.666-.9.75-2.607.75-4.587,0-1.959-.168-3.693-.814-4.566h.045C1182.133,460.05,1183.219,462.091,1183.219,464.616Z" transform="translate(-995.115 -430.212)" fill="#fff"/></g><g transform="translate(972.478 516.726)"><path d="M1043.734,381.7H918.075a9.166,9.166,0,0,0-9.163,9.169V556.3a9.158,9.158,0,0,0,9.163,9.153h125.659a9.162,9.162,0,0,0,9.159-9.153V390.873A9.17,9.17,0,0,0,1043.734,381.7Z" transform="translate(-908.32 -381.108)" fill="#333"/><path d="M1044.022,566.345H918.364a9.767,9.767,0,0,1-9.755-9.751V391.163a9.773,9.773,0,0,1,9.755-9.764h125.659a9.77,9.77,0,0,1,9.757,9.764V556.595A9.763,9.763,0,0,1,1044.022,566.345ZM918.364,382.594a8.573,8.573,0,0,0-8.562,8.569V556.595a8.566,8.566,0,0,0,8.562,8.556h125.659a8.566,8.566,0,0,0,8.562-8.556V391.163a8.573,8.573,0,0,0-8.562-8.569Z" transform="translate(-908.609 -381.399)" fill="#333"/><g transform="translate(8.333 10.533)"><rect width="128.494" height="163.885" fill="#29abe2"/></g><g transform="translate(17.045 38.48)"><path d="M922.628,444.935l.508,2.088q-1.189-1.787-2.226-3.664a1,1,0,0,1,.076.1A15.442,15.442,0,0,0,922.628,444.935Z" transform="translate(-913.932 -360.838)" fill="#fff"/><path d="M960.758,438.6l.8-.294.423.294Z" transform="translate(-875.962 -365.656)" fill="#fff"/><path d="M954.363,448.017l-4.757-2.039-1.529-3.566-3.226-.851-2.888-2.886-6.456-1.7-3.677,2.593.791.293H931.4l-.484.342v3.4l-2.041,2.377v3.738l3.74,4.248.682,2.886,3.734,3.058v6.454l1.312,6.439c.629.3,1.262.582,1.9.853,1.072.453,2.158.867,3.254,1.252l.834-2.088,6.286-5.1V465l3.738-1.019,2.207-2.547.34-5.183,2.892-2.633v-1.869l-2.552-2.547Z" transform="translate(-906.338 -366.921)" fill="#fff"/><path d="M940.9,471.826l-1.021-.34-1.527-3.4-2.719-1.357.609-2.133-2.99.434-2.547-.17-.76-1.7v-4.755l2.8-2.293h6.117l2.377,1.953-.168-2.888,4.248-3.908v-2.547l5.433-5.775,3.74-2.551-.848-2.716H951.6l1.357-1.361h3.906l3.4-2.549-3.06-3.226-.678-3.226H953.3L952.11,424.6h-2.377l-2.551,5.265-1.7,3.4-1.869-1.525-3.74-1.191-1.611-1.357,3.822-4.587,1.529-1.527h2.715l-.676-2.041,1.017-1.359,2.211-3.058,1.019-2.037,1.527,1.527.338,3.06-.849,2.207,2.722,2.039,1.7-2.039-.848-1.359v-1.869l1.7,1.191,1.019,1.357.848-1.357,1.021-1.021-2.039-.678-1.7-1.869V413.73l-2.377-1.359-1.869-2.888,1.869-3.4,3.48-3.722q-2.625.817-5.191,1.9a55.477,55.477,0,0,0-33.914,49.9l1.314.844,3.222,6.794-1.015-5.689,3.4,5.689v3.058l2.377,1.361,5.269.846,2.547,1.871h1.187l1.869,2.716,2.377,1.187H942.4l.424-.293Z" transform="translate(-917.337 -399.901)" fill="#fff"/><path d="M963.393,407.965v-6.032a56.268,56.268,0,0,0-22.55.674l-2.248,3.32-1.189,2.549h3.738l2.884,1.361,1.187,2.037v4.078l1.023,3.226-1.023,2.039,1.023,3.06,2.207,1.527,1.533,2.209v-2.888l1.7-3.736,1.781-1.189,1.783-1.189,1.869-2.718,5.433-3.908Z" transform="translate(-898.213 -401.103)" fill="#fff"/><path d="M956.044,410.619h-6.112l1.526,2.716H953.5Z" transform="translate(-886.278 -392.035)" fill="#fff"/><path d="M988.7,455.928l1.357,3.736,2.715,6,1.326-.561a55.482,55.482,0,0,0-14.5-53.226,56.353,56.353,0,0,0-5.755-5.017l-.092,1.387-.059,1.191-.17,1.191-.453,1.3-.338,1.189-.738,1.416-1.7,2.1-.562.68a12.953,12.953,0,0,1-1.984,1.017c-.17-.057-.34,1.359-.34,1.359l-.17,2.1.4,1.076.568.227.849-.115.56-.057,1.306.281a8.842,8.842,0,0,0,.848-.676c0-.057,1.357-1.529,1.357-1.529l.516-.68.053-1.359.059-1.3.226-1.584,1.131-1.019h.568v1.865l.619,1.361v1.074l-.562.627.563,1.584,2.1-.963.734-.621,3.232.338.166.623-1.074.793h-3l-.738,1.3-.789.738-1.246,1.3-1.019,1.474-1.3.4-1.812-.455v-.906l1.074-1.246s-1.7-.4-1.871-.453l-1.584-.51-.961,1.191-1.189,1.133,1.131.961.793.795-2.1,1.074a5.261,5.261,0,0,1-1.018.736c-.17,0-.791.793-.791.793l-1.131,1.359-1.646.793-2.433.4-.793,1.246,1.3.566,1.3.623.285.9-.223.851-.625.9-1.875-.057-1.523-.113-.908-.057s.113.736.17,1.248a2.98,2.98,0,0,1-.057.961l-.057,1.869v1.187l.852.906,1.3.285,1.529.394,1.02-.225s.965-.793.908-.965.342-1.074.279-1.074a10.774,10.774,0,0,1,.512-1.191l1.584-.338.621-1.133,1.25-.4.848-.4,1.25-1.244.166.4L968.878,439l-.506.455.734,1.189.568.621.51-.057v-.961l.166-.906.512-.113.681.68.961,1.019,1.017.678.062.738-.176.623-1.017.111-.172.4.115.512.508-.117.742-.508.619-.338-.057-1.7.734.109.457-.451-.965-.564-1.074-.965-1.756-1.926V436.45l1.357.4,1.64,1.529,1.078,1.019.676.849v1.246s.965,1.189,1.023,1.359a7.671,7.671,0,0,1-.059,1.189l1.019-.057.848-.963-.279-.963v-.9l.789-.684.738.228,1.02-.281.623-.117-.453-1.3,1.017-3.056,1.017-1.527,1.363,1.7,1.187.51,1.019-1.359h1.191l.678,1.189.51,2.888h2.037l-2.037,2.718-1.357-1.869h-2.041l-3.734.848h-1.873l1.021,2.72,1.187.849h4.418v4.755l-3.054.51h-2.89l-2.377-1.359-2.552.34v1.019h-1.187l-2.039-.85-2.377-1.869-1.187-2.547h-4.929l-2.037,1.187h-3.4l-2.377,2.718-.172,3.314-2.039,1.1-3.054,5.607v7.134l4.247,6.626H960.5l4.923-1.869,1.021,2.379h2.041v1.867l-1.021,3.4,2.041,3.058v4.585l-2.041,4.419,1.021,3.566v5.351a55.916,55.916,0,0,0,18.175-17.25l.508-2.088a15.459,15.459,0,0,0,1.64-1.472c.019-.027.047-.059.08-.1a54.566,54.566,0,0,0,2.615-5.361q1.028-2.431,1.816-4.943l-1.34-.352-.68-1.357-2.15-4.3-.676-2.154c-.115-.338-1.306-3.509-1.306-3.509L986.434,454l.734-1.076Z" transform="translate(-884.786 -395.613)" fill="#fff"/><path d="M956.991,420.309l-.8,1.472V422.8h2.945l.908-1.472v-1.018l-1.585-1.642-.9-1.53-.568-1.924-.9-.679-.908,1.245v1.585l1.017,1.472Z" transform="translate(-881.277 -388.305)" fill="#fff"/><path d="M954.644,419.54l-.112,1.243.566-.565,1.133-.8v-2.037l-.568-.736-1.585.624.454,1.158Z" transform="translate(-882.328 -386.288)" fill="#fff"/></g><g transform="translate(43.059 131.898)"><path d="M952.437,459.828a10.889,10.889,0,1,1-10.893-10.889A10.891,10.891,0,0,1,952.437,459.828Z" transform="translate(-930.658 -448.939)" fill="#fff" opacity="0.4"/><path d="M947.944,458.355a7.87,7.87,0,1,1-7.874-7.87A7.874,7.874,0,0,1,947.944,458.355Z" transform="translate(-929.185 -447.466)" fill="#fff" opacity="0.53"/><path d="M943.216,456.8a4.693,4.693,0,1,1-4.695-4.693A4.692,4.692,0,0,1,943.216,456.8Z" transform="translate(-927.635 -445.915)" fill="#b4ebef"/></g></g><g transform="translate(1008.691 655.848)"><path d="M982.02,478a5.025,5.025,0,0,0-4.818,3.6,12.837,12.837,0,0,0-2.457-.379v-3.443a5.025,5.025,0,1,0-10.049,0v3.408h-2.426V473.2a5.024,5.024,0,0,0-10.048,0v8.013a13.167,13.167,0,0,0-2.422.324V457.665a5.026,5.026,0,1,0-10.051,0v36.007c-.01.189-.029.377-.029.566v12.526l-2.318-2.316v-10.04a7.419,7.419,0,0,0-7.419-7.419h-2.474c-.107,0-.2.01-.311.018v9.3a.4.4,0,0,0-.047-.012v12.338L943.8,524.914a13,13,0,0,0,8.981,3.6h21.208a13.055,13.055,0,0,0,13.055-13.057V483.027A5.023,5.023,0,0,0,982.02,478Z" transform="translate(-927.152 -452.638)" fill="#fec00f"/><g transform="translate(12.569)"><path d="M937.195,510.184V494.238c0-.189.021-.377.029-.566V457.665a5.019,5.019,0,0,1,3.22-4.681,5,5,0,0,0-6.827,4.681v36.007c-.01.189-.029.377-.029.566v12.342Z" transform="translate(-933.588 -452.638)" fill="#f99b1c"/></g></g><g transform="translate(1093.163 618.989)"><g transform="translate(12.481)"><g transform="translate(22.884)"><path d="M1011.392,456.642H994.752a6.242,6.242,0,0,1-6.235-6.24V440a6.241,6.241,0,0,1,6.235-6.237h16.641a6.246,6.246,0,0,1,6.242,6.237v10.4A6.248,6.248,0,0,1,1011.392,456.642Zm-16.641-18.72a2.081,2.081,0,0,0-2.08,2.08v10.4a2.082,2.082,0,0,0,2.08,2.082h16.641a2.079,2.079,0,0,0,2.08-2.082V440a2.079,2.079,0,0,0-2.08-2.08Z" transform="translate(-988.516 -433.764)" fill="#e6e6e6"/></g><g transform="translate(0 12.996)"><rect width="12.48" height="6.242" fill="#e6e6e6"/></g><g transform="translate(62.404 12.996)"><rect width="12.476" height="6.242" fill="#e6e6e6"/></g></g><g transform="translate(0 14.559)"><path d="M1064.013,441.219H976.645a6.257,6.257,0,0,0-6.238,6.241v62.4a6.257,6.257,0,0,0,6.238,6.241h87.368a6.259,6.259,0,0,0,6.24-6.241v-62.4a6.259,6.259,0,0,0-6.24-6.241Z" transform="translate(-970.407 -441.219)" fill="#fff"/></g><g transform="translate(3.119 17.678)"><path d="M1062.491,442.816H975.123A3.125,3.125,0,0,0,972,445.939v62.4a3.123,3.123,0,0,0,3.119,3.121h87.368a3.119,3.119,0,0,0,3.117-3.121v-62.4a3.12,3.12,0,0,0-3.117-3.123Z" transform="translate(-972.004 -442.816)" fill="#29abe2"/></g><g transform="translate(4.548 19.109)"><path d="M1060.37,509.334h-2.08v-.258h2.08Zm-4.165,0h-2.086v-.258h2.086Zm-4.166,0h-2.088v-.258h2.088Zm-4.171,0h-2.08v-.258h2.08Zm-4.169,0h-2.082v-.258h2.082Zm-4.167,0h-2.084v-.258h2.084Zm-4.165,0h-2.086v-.258h2.086Zm-4.169,0h-2.084v-.258h2.084Zm-4.168,0h-2.084v-.258h2.084Zm-4.167,0h-2.088v-.258h2.088Zm-4.168,0h-2.084v-.258h2.084Zm-4.171,0h-2.082v-.258h2.082Zm-4.167,0h-2.084v-.258h2.084Zm-4.165,0H1004.1v-.258h2.086Zm-4.172,0h-2.08v-.258h2.08Zm-4.165,0h-2.086v-.258h2.086Zm-4.169,0H991.6v-.258h2.084Zm-4.167,0h-2.084v-.258h2.084Zm-4.168,0h-2.084v-.258h2.084Zm-4.167,0H979.1v-.258h2.084Zm-4.171,0h-2.062l-.019-.258h2.082Zm85.454-.348-.141-.221a1.951,1.951,0,0,0,.9-1.642l.266-.016v.016A2.221,2.221,0,0,1,1062.463,508.986Zm-89.391-.689a2.232,2.232,0,0,1-.336-1.174v-.92H973v.92a1.935,1.935,0,0,0,.3,1.035Zm90.413-3.273h-.266V502.94h.266ZM973,504.12h-.262v-2.084H973Zm90.487-3.265h-.266v-2.082h.266Zm-90.487-.9h-.262v-2.086H973Zm90.487-3.263h-.266V494.6h.266Zm-90.487-.9h-.262V493.7H973Zm90.487-3.263h-.266v-2.086h.266ZM973,491.613h-.262v-2.08H973Zm90.487-3.261h-.266v-2.084h.266ZM973,487.446h-.262v-2.084H973Zm90.487-3.263h-.266V482.1h.266Zm-90.487-.9h-.262v-2.088H973Zm90.487-3.265h-.266v-2.086h.266ZM973,479.111h-.262v-2.082H973Zm90.487-3.261h-.266v-2.086h.266ZM973,474.942h-.262V472.86H973Zm90.487-3.261h-.266V469.6h.266Zm-90.487-.9h-.262V468.69H973Zm90.487-3.267h-.266v-2.08h.266Zm-90.487-.9h-.262v-2.084H973Zm90.487-3.263h-.266v-2.086h.266Zm-90.487-.9h-.262v-2.084H973Zm90.487-3.261h-.266V457.09h.266ZM973,458.272h-.262v-2.084H973Zm90.487-3.265h-.266v-2.082h.266ZM973,454.1h-.262v-2.084H973Zm90.487-3.263h-.266v-2.084h.266Zm-90.487-.9h-.262v-2.084H973Zm90.487-3.263h-.266v-.91a1.94,1.94,0,0,0-.3-1.045l.221-.137a2.2,2.2,0,0,1,.344,1.182Zm-90.749-.9v-.006a2.208,2.208,0,0,1,1.015-1.859l.143.221a1.936,1.936,0,0,0-.9,1.639Zm88.546-1.957h-2.08v-.262h2.072Zm-4.165,0h-2.086v-.262h2.086Zm-4.167,0h-2.084v-.262h2.084Zm-4.169,0H1046.7v-.262h2.082Zm-4.165,0h-2.086v-.262h2.086Zm-4.171,0h-2.08v-.262h2.08Zm-4.168,0h-2.084v-.262h2.084Zm-4.163,0h-2.092v-.262h2.092Zm-4.171,0h-2.086v-.262h2.086Zm-4.171,0h-2.08v-.262h2.08Zm-4.166,0h-2.086v-.262h2.086Zm-4.165,0h-2.086v-.262h2.086Zm-4.171,0h-2.082v-.262h2.082Zm-4.169,0h-2.082v-.262h2.082Zm-4.164,0h-2.088v-.262h2.088Zm-4.171,0h-2.08v-.262h2.08Zm-4.167,0h-2.084v-.262h2.084Zm-4.168,0h-2.086v-.262h2.086Zm-4.165,0h-2.086v-.262h2.086Zm-4.171,0h-2.08v-.262h2.08Zm-4.166,0h-2.086v-.262h2.086Z" transform="translate(-972.736 -443.549)" fill="#fff"/></g><g transform="translate(16.344 27.122)"><g transform="translate(58.541 4.696)"><rect width="9.358" height="6.242" fill="#e25422"/></g><g transform="translate(5.269 18.589)"><path d="M1008.689,468.164a13.745,13.745,0,1,1-16.225-10.712A13.75,13.75,0,0,1,1008.689,468.164Z" transform="translate(-981.474 -457.171)" fill="#fffef0"/><g transform="translate(2.288 2.291)"><path d="M1005.329,467.505a11.457,11.457,0,1,0-20.589,8.89l20.57-4.207A11.418,11.418,0,0,0,1005.329,467.505Z" transform="translate(-982.646 -458.344)" fill="#8ed4da"/><g transform="translate(2.094 13.844)"><path d="M983.718,469.639a11.454,11.454,0,0,0,20.57-4.206Z" transform="translate(-983.718 -465.433)" fill="#60b9c2"/></g></g><g transform="translate(5.941 7.146)"><rect width="13.748" height="1.526" transform="translate(0 2.733) rotate(-11.467)" fill="#fffef0"/></g><g transform="translate(6.401 9.378)"><rect width="13.747" height="1.528" transform="translate(0 2.758) rotate(-11.573)" fill="#fffef0"/></g><g transform="translate(6.86 12.076)"><rect width="11.456" height="1.526" transform="translate(0 2.308) rotate(-11.624)" fill="#fffef0"/></g></g><g transform="translate(32.763 27.099)"><path d="M995.553,464.458l13.644-2.929,10.535,9.154-13.646,2.931Z" transform="translate(-995.553 -461.528)" fill="#fffef0"/><g transform="translate(3.025 1.511)"><path d="M997.1,464.5l10.232-2.2,7.9,6.868-10.232,2.2Z" transform="translate(-997.102 -462.302)" fill="#e25422"/></g><g transform="translate(7.362 4.119)"><rect width="1.56" height="9.362" transform="translate(0 1.51) rotate(-75.562)" fill="#fffef0"/></g><g transform="translate(8.451 6.648)"><path d="M1005.924,467.5l-6.044-1.558.261-1.007,6.04,1.558Z" transform="translate(-999.88 -464.933)" fill="#fffef0"/></g><g transform="translate(9.423 2.87)"><path d="M1006.422,465.563l-6.044-1.556.261-1.009,6.044,1.556Z" transform="translate(-1000.378 -462.998)" fill="#fffef0"/></g></g><path d="M996.217,450.989a1.562,1.562,0,0,1,1.275-1.8l-.26-1.539-18.457,3.158.266,1.535a1.561,1.561,0,0,1,.525,3.078l.26,1.537,18.459-3.154-.266-1.539A1.564,1.564,0,0,1,996.217,450.989Z" transform="translate(-978.776 -447.652)" fill="#fffef0"/><g transform="translate(3.342 2.062)"><rect width="12.477" height="3.121" transform="translate(0 2.107) rotate(-9.724)" fill="#60b9c2"/></g><g transform="translate(8.102 3.357)"><path d="M983.1,451.448l-.174-1.026,6.148-1.051.179,1.024Z" transform="translate(-982.925 -449.371)" fill="#3f3b3a"/></g><g transform="translate(5.052 4.668)"><rect width="1.56" height="1.041" transform="translate(0 0.261) rotate(-9.611)" fill="#3f3b3a"/></g><g transform="translate(22.958 5.052)"><path d="M991.243,451.378a3.121,3.121,0,0,0,.428,4.392l3.963-4.82A3.117,3.117,0,0,0,991.243,451.378Z" transform="translate(-990.532 -450.239)" fill="#fffef0"/><g transform="translate(1.138 0.711)"><path d="M995.5,454.995a3.115,3.115,0,0,0-.428-4.392l-3.962,4.82A3.119,3.119,0,0,0,995.5,454.995Z" transform="translate(-991.115 -450.603)" fill="#dacec0"/></g></g></g></g></g></svg>