<svg xmlns="http://www.w3.org/2000/svg" id="prefix___004-incognito" width="56" height="37.925" data-name="004-incognito" viewBox="0 0 56 37.925">
    <defs>
        <style>
            .prefix__cls-1{fill:#87AB49}
        </style>
    </defs>
    <path id="prefix__Path_48864" d="M55.979 19.388A.821.821 0 0 0 55 18.77a96.649 96.649 0 0 1-10.622 1.739l-2.155-6.464a.82.82 0 1 0-1.556.519L41 15.58c-1.4.12-2.836.222-4.279.3a.82.82 0 0 0 .044 1.639h.046c1.6-.088 3.18-.2 4.722-.34l1.168 3.5c-4.635.456-9.613.7-14.7.7s-10.069-.239-14.7-.7l1.168-3.5c1.543.136 3.128.251 4.723.339h.046a.82.82 0 0 0 .044-1.639c-1.444-.08-2.878-.182-4.28-.3l4.034-12.1a2.691 2.691 0 0 1 3.076-1.785l4.528.906a6.919 6.919 0 0 0 2.729 0l4.528-.906a2.691 2.691 0 0 1 3.076 1.785l2.527 7.585a.82.82 0 1 0 1.556-.519l-2.532-7.586A4.334 4.334 0 0 0 33.57.084L29.042.99a5.29 5.29 0 0 1-2.086 0L22.428.084a4.334 4.334 0 0 0-4.954 2.875l-5.85 17.55A96.546 96.546 0 0 1 1 18.77a.82.82 0 1 0-.364 1.6A128.564 128.564 0 0 0 28 23.02a128.567 128.567 0 0 0 27.361-2.65.821.821 0 0 0 .618-.982zm0 0" class="prefix__cls-1" data-name="Path 48864" transform="translate(.001)"/>
    <path id="prefix__Path_48865" d="M150.12 235.555a6.086 6.086 0 0 0-5.533 3.565 3.441 3.441 0 0 0-4.715 0 6.077 6.077 0 1 0 .547 2.516 1.81 1.81 0 1 1 3.62 0 6.081 6.081 0 1 0 6.081-6.081zm-15.782 10.521a4.44 4.44 0 1 1 4.44-4.44 4.445 4.445 0 0 1-4.439 4.44zm15.782 0a4.44 4.44 0 1 1 4.44-4.44 4.445 4.445 0 0 1-4.44 4.44zm0 0" class="prefix__cls-1" data-name="Path 48865" transform="translate(-114.23 -209.791)"/>
    <path id="prefix__Path_48866" d="M199.344 51.184a6.958 6.958 0 1 0 6.958 6.958 6.966 6.966 0 0 0-6.958-6.958zm5.253 6.137h-1.826a11.608 11.608 0 0 0-.8-3.8 5.326 5.326 0 0 1 2.629 3.8zm-5.253 6.137c-.564 0-1.615-1.58-1.786-4.5h3.572c-.17 2.92-1.222 4.5-1.786 4.5zm-1.786-6.137c.17-2.916 1.222-4.5 1.786-4.5s1.615 1.58 1.786 4.5zm-.847-3.8a11.608 11.608 0 0 0-.8 3.8h-1.826a5.328 5.328 0 0 1 2.627-3.796zm-2.621 5.437h1.826a11.608 11.608 0 0 0 .8 3.8 5.328 5.328 0 0 1-2.625-3.796zm7.887 3.8a11.62 11.62 0 0 0 .795-3.8h1.828a5.329 5.329 0 0 1-2.622 3.8zm0 0" class="prefix__cls-1" data-name="Path 48866" transform="translate(-171.344 -45.585)"/>
</svg>
