<svg xmlns="http://www.w3.org/2000/svg" width="50.016" height="44.739" viewBox="0 0 50.016 44.739">
    <defs>
        <style>
            .cls-1{fill:#ffffff}.cls-2{fill:#87AB49}
        </style>
    </defs>
    <g id="_002-www" data-name="002-www" transform="translate(0 -.5)">
        <rect id="Rectangle_9796" width="44" height="21" class="cls-1" data-name="Rectangle 9796" rx="4" transform="translate(3 3.5)"/>
        <path id="Path_50176" d="M230.6 168.5a8.6 8.6 0 1 0 8.6 8.6 8.606 8.606 0 0 0-8.6-8.6zm0 15.239a6.643 6.643 0 1 1 6.643-6.643 6.65 6.65 0 0 1-6.643 6.643zm0 0" class="cls-2" data-name="Path 50176" transform="translate(-200.317 -151.589)"/>
        <path id="Path_50177" d="M300.981 211.5a.977.977 0 1 0 0 1.954 2.445 2.445 0 0 1 2.442 2.442.977.977 0 0 0 1.954 0 4.4 4.4 0 0 0-4.396-4.396zm0 0" class="cls-2" data-name="Path 50177" transform="translate(-270.697 -190.392)"/>
        <path id="Path_50178" d="M44.606 71.025a.977.977 0 1 0-1.735.9L45.5 77a.977.977 0 0 0 1.748-.026l1.592-3.314L50.57 77a.978.978 0 0 0 .868.528h.015a.978.978 0 0 0 .866-.554l2.439-5.08A.977.977 0 1 0 53 71.051l-1.6 3.315-1.729-3.341a.977.977 0 0 0-1.748.026l-1.592 3.314zm0 0" class="cls-2" data-name="Path 50178" transform="translate(-38.584 -63.159)"/>
        <path id="Path_50179" d="M116.965 2.454a.978.978 0 1 0-.69-.286.984.984 0 0 0 .69.286zm0 0" class="cls-2" data-name="Path 50179" transform="translate(-104.658)"/>
        <path id="Path_50180" d="M50.016 17.3V4.407A3.912 3.912 0 0 0 46.108.5H16.41a.977.977 0 0 0 0 1.954h29.7a1.956 1.956 0 0 1 1.954 1.954V17.3a1.956 1.956 0 0 1-1.954 1.954h-4.774a12.767 12.767 0 0 0-6.867-5.742l1.448-3.012 1.729 3.34a.976.976 0 0 0 .867.528h.015a.977.977 0 0 0 .866-.554l2.439-5.08a.977.977 0 0 0-1.761-.846l-1.592 3.314-1.728-3.336A.977.977 0 0 0 35 7.892l-1.592 3.314-1.725-3.34a.977.977 0 0 0-1.735.9l2.162 4.176a12.719 12.719 0 0 0-5.292.349L29 8.738a.977.977 0 0 0-1.761-.846l-1.592 3.314-1.725-3.34a.977.977 0 0 0-1.748.026l-1.592 3.314-1.729-3.34a.977.977 0 0 0-1.735.9l2.63 5.08a.977.977 0 0 0 1.748-.026l1.591-3.32 1.729 3.34a.954.954 0 0 0 .1.155 12.784 12.784 0 0 0-5.686 5.257H3.907A1.956 1.956 0 0 1 1.954 17.3V4.407a1.956 1.956 0 0 1 1.953-1.953h4A.977.977 0 0 0 7.912.5h-4A3.912 3.912 0 0 0 0 4.407V17.3a3.912 3.912 0 0 0 3.907 3.91h14.426a12.7 12.7 0 0 0 18.275 15.307l7.753 7.753a3.312 3.312 0 0 0 4.684-4.685L46 36.54a.977.977 0 0 0-1.381 1.381l3.046 3.047a1.359 1.359 0 0 1-1.921 1.922l-7.5-7.5a12.688 12.688 0 0 0 3.989-14.18h3.875a3.912 3.912 0 0 0 3.908-3.91zM30.283 36.253a10.746 10.746 0 1 1 10.746-10.745 10.758 10.758 0 0 1-10.746 10.745zm0 0" class="cls-2" data-name="Path 50180"/>
        <path id="Path_50181" d="M430.376 343.067a.977.977 0 1 0 .691-.286.984.984 0 0 0-.691.286zm0 0" class="cls-2" data-name="Path 50181" transform="translate(-388.076 -308.845)"/>
    </g>
</svg>
