<svg width="219" height="170" viewBox="0 0 219 170" fill="none" xmlns="http://www.w3.org/2000/svg">
<path d="M0.498901 4.51092C0.498901 2.01961 2.51851 0 5.00982 0H213.988C216.479 0 218.499 2.01961 218.499 4.51091V20.9538H0.498901V4.51092Z" fill="#1C2129"/>
<circle cx="10.64" cy="10.947" r="3.1565" fill="#FF3A3A"/>
<circle cx="23.4688" cy="10.947" r="3.1565" fill="#EEB93F"/>
<circle cx="36.2976" cy="10.947" r="3.1565" fill="#71B00A"/>
<path d="M117.044 12.7085C117.853 11.3263 119.335 10.4769 120.936 10.4769H179.285C181.035 10.4769 182.627 11.4893 183.37 13.0743L187.061 20.9538H112.216L117.044 12.7085Z" fill="#AEBAD1"/>
<path d="M63.6266 12.7085C64.4359 11.3263 65.9175 10.4769 67.5192 10.4769H125.868C127.618 10.4769 129.21 11.4893 129.953 13.0743L133.644 20.9538H58.7984L63.6266 12.7085Z" fill="white"/>
<path d="M0.498901 20.9539H218.499V164.249C218.499 167.425 216.255 170 213.487 170H5.51103C2.74291 170 0.498901 167.425 0.498901 164.249V20.9539Z" fill="white"/>
<path d="M180.073 29.8221C180.073 25.8084 183.327 22.5546 187.341 22.5546C191.354 22.5546 194.608 25.8084 194.608 29.8221V30.3234C194.608 34.3371 191.354 37.5909 187.341 37.5909C183.327 37.5909 180.073 34.3371 180.073 30.3234V29.8221Z" fill="white"/>
<ellipse cx="187.341" cy="30.0727" rx="4.95375" ry="5.12457" fill="url(#paint0_linear_6215_77338)"/>
<path fill-rule="evenodd" clip-rule="evenodd" d="M181.745 31.9003C181.832 31.7897 182.002 31.8061 182.07 31.9288C182.111 32.0039 182.1 32.0971 182.044 32.1623C181.706 32.5569 181.559 32.8639 181.656 33.0386C181.967 33.5979 184.654 32.589 187.658 30.7851C187.761 30.7231 187.863 30.661 187.964 30.5988C188.001 30.5766 188.021 30.5363 188.021 30.4938C188.021 29.7757 188.584 29.1935 189.278 29.1935C189.65 29.1935 190.053 29.2049 190.349 28.9808C191.85 27.8448 192.741 26.877 192.535 26.506C192.443 26.3408 192.144 26.3124 191.69 26.4011C191.603 26.418 191.515 26.3791 191.472 26.3019C191.407 26.1843 191.475 26.0371 191.608 26.017C192.506 25.8815 193.143 25.9953 193.367 26.3978C193.785 27.152 192.634 28.7076 190.629 30.2897C190.567 30.3384 190.535 30.4152 190.535 30.4938C190.535 31.212 189.972 31.7942 189.278 31.7942C189.244 31.7942 189.211 31.7928 189.178 31.7901C188.867 31.7647 188.535 31.751 188.268 31.9116C184.888 33.9412 181.691 34.7633 181.127 33.7478C180.896 33.3321 181.142 32.6731 181.745 31.9003Z" fill="#D7DEED"/>
<ellipse cx="189.278" cy="30.4938" rx="0.628509" ry="0.650181" fill="#70AF09"/>
<g opacity="0.32">
<path d="M184.802 28.3201C184.497 29.0989 184.593 29.9201 184.22 29.7634C183.846 29.6068 183.79 28.8485 184.094 28.0697C184.399 27.291 184.95 26.7867 185.324 26.9433C185.698 27.1 185.107 27.5414 184.802 28.3201Z" fill="#E5E5E5"/>
<path d="M184.567 30.5371C184.595 30.7935 184.48 31.017 184.311 31.0362C184.142 31.0553 183.983 30.863 183.956 30.6066C183.929 30.3501 184.044 30.1267 184.212 30.1075C184.381 30.0883 184.54 30.2806 184.567 30.5371Z" fill="#E5E5E5"/>
</g>
<path d="M185.878 33.9768C185.706 33.8739 185.789 33.7014 186.207 33.5581C187.088 33.3579 186.939 33.7626 188.208 33.6069C189.477 33.4512 190.146 32.9101 190.483 32.5542C190.752 32.2695 191.001 31.8842 190.989 32.0201C190.932 32.3093 190.469 33.0715 189.075 33.8071C187.334 34.7265 186.142 34.1345 185.878 33.9768Z" fill="#080F1B" fill-opacity="0.11"/>
<path d="M191.489 27.2292C191.649 27.1196 191.693 26.9021 191.579 26.7459C190.822 25.7142 189.735 24.9883 188.507 24.7029C187.167 24.3917 185.763 24.6281 184.589 25.3627C183.414 26.0973 182.559 27.2732 182.203 28.6447C181.878 29.8964 181.991 31.2226 182.515 32.391C182.598 32.575 182.822 32.6395 182.997 32.5399C183.166 32.4442 183.226 32.2325 183.148 32.0554C182.703 31.0493 182.609 29.9106 182.889 28.8353C183.197 27.647 183.938 26.628 184.956 25.9914C185.974 25.3549 187.19 25.15 188.351 25.4197C189.393 25.6619 190.318 26.2701 190.972 27.1348C191.094 27.2963 191.322 27.3436 191.489 27.2292Z" fill="#D7DEED"/>
<path d="M184.304 34.142C184.185 34.3013 184.211 34.5281 184.371 34.6392C185.134 35.1704 186.019 35.489 186.94 35.5609C187.977 35.6418 189.014 35.4068 189.923 34.8847C190.832 34.3627 191.573 33.5766 192.055 32.6236C192.483 31.7768 192.69 30.8312 192.658 29.8802C192.651 29.6814 192.479 29.5385 192.285 29.5586C192.089 29.5791 191.945 29.7605 191.95 29.9631C191.967 30.7678 191.788 31.5663 191.426 32.2831C191.008 33.1089 190.366 33.7901 189.578 34.2424C188.791 34.6947 187.892 34.8984 186.994 34.8283C186.214 34.7674 185.464 34.5024 184.813 34.0609C184.649 33.95 184.425 33.9801 184.304 34.142Z" fill="#D7DEED"/>
<path d="M16.7955 85C16.7955 61.804 35.5995 43 58.7955 43H59.7955C82.9914 43 101.795 61.804 101.795 85C101.795 108.196 82.9914 127 59.7955 127H58.7955C35.5995 127 16.7955 108.196 16.7955 85Z" fill="white"/>
<ellipse cx="59.2954" cy="85" rx="28.969" ry="28.6282" fill="url(#paint1_linear_6215_77338)"/>
<path fill-rule="evenodd" clip-rule="evenodd" d="M26.6137 95.1619C27.1103 94.556 28.0527 94.6485 28.4463 95.3258C28.7027 95.7672 28.6345 96.3235 28.294 96.7039C26.3335 98.8934 25.4885 100.597 26.053 101.568C27.8687 104.693 43.5817 99.0569 61.1491 88.9794C61.7564 88.6309 62.358 88.2818 62.9535 87.9322C63.1576 87.8124 63.2752 87.5887 63.2752 87.3521C63.2752 83.3401 66.5663 80.0877 70.6261 80.0877C72.8045 80.0877 75.1606 80.1515 76.9251 78.874C85.6763 72.5387 90.8726 67.1443 89.6699 65.0746C89.1294 64.1444 87.3574 63.9906 84.6716 64.4992C84.1975 64.5889 83.7128 64.3795 83.4704 63.9623C83.0854 63.2997 83.4743 62.4552 84.2328 62.3454C89.4947 61.5838 93.2273 62.2186 94.5354 64.4697C96.9848 68.685 90.2438 77.3816 78.5096 86.2241C78.1603 86.4873 77.977 86.9147 77.977 87.3521C77.977 91.3641 74.6859 94.6165 70.6261 94.6165C70.4203 94.6165 70.2164 94.6082 70.0148 94.5918C68.2085 94.4448 66.2877 94.3704 64.7157 95.2722C44.9502 106.611 26.2547 111.203 22.9581 105.53C21.6039 103.2 23.0589 99.4993 26.6137 95.1619Z" fill="#D7DEED"/>
<ellipse cx="70.6261" cy="87.3521" rx="3.67545" ry="3.6322" fill="#70AF09"/>
<g opacity="0.32">
<path d="M44.4502 75.209C42.6674 79.5595 43.2298 84.1472 41.0431 83.272C38.8564 82.3968 38.529 78.1606 40.3118 73.8102C42.0947 69.4597 45.3127 66.6425 47.4994 67.5176C49.6861 68.3928 46.2331 70.8586 44.4502 75.209Z" fill="#E5E5E5"/>
<path d="M43.0776 87.5939C43.2368 89.0266 42.5656 90.2749 41.5783 90.3821C40.591 90.4893 39.6616 89.4148 39.5023 87.9821C39.343 86.5495 40.0142 85.3012 41.0015 85.194C41.9888 85.0868 42.9183 86.1613 43.0776 87.5939Z" fill="#E5E5E5"/>
</g>
<path d="M50.7425 106.81C49.7359 106.235 50.2183 105.271 52.6634 104.471C57.8191 103.352 56.9492 105.613 64.3684 104.743C71.7875 103.873 75.6988 100.851 77.6688 98.8625C79.2449 97.2718 80.7017 95.1193 80.6318 95.8788C80.2965 97.4943 77.5887 101.753 69.4402 105.862C59.2546 110.998 52.2861 107.691 50.7425 106.81Z" fill="#080F1B" fill-opacity="0.11"/>
<path d="M83.4801 69.1618C84.4434 68.5309 84.7116 67.23 84.0067 66.3194C79.5848 60.6063 73.2582 56.587 66.1134 55.0011C58.2808 53.2626 50.0714 54.5833 43.2012 58.6872C36.3311 62.791 31.332 69.3604 29.2489 77.0219C27.3455 84.0229 28.0116 91.4408 31.0887 97.9737C31.5726 99.0011 32.8279 99.3619 33.826 98.8203C34.8384 98.2709 35.1999 97.0038 34.7215 95.956C32.169 90.3652 31.6382 84.0515 33.2599 78.0869C35.0648 71.4481 39.3966 65.7557 45.3497 62.1997C51.3027 58.6437 58.4163 57.4993 65.2033 59.0057C71.3171 60.3627 76.7396 63.7761 80.5639 68.6285C81.2658 69.5191 82.5315 69.783 83.4801 69.1618Z" fill="#D7DEED"/>
<path d="M41.5577 107.707C40.8548 108.606 41.0232 109.911 41.9826 110.546C46.4332 113.492 51.5892 115.259 56.9542 115.659C63.0168 116.111 69.0805 114.798 74.3962 111.882C79.7118 108.966 84.0464 104.574 86.8642 99.2502C89.3579 94.5388 90.567 89.2798 90.3908 83.989C90.3528 82.8486 89.321 82.0173 88.1763 82.131C87.0387 82.244 86.2206 83.2482 86.2472 84.3818C86.3529 88.8792 85.3043 93.342 83.184 97.3479C80.7423 101.961 76.9864 105.766 72.3803 108.293C67.7743 110.82 62.52 111.958 57.2667 111.566C52.7054 111.226 48.3185 109.746 44.5122 107.279C43.5522 106.657 42.2564 106.812 41.5577 107.707Z" fill="#D7DEED"/>
<path fill-rule="evenodd" clip-rule="evenodd" d="M11.3989 32.7308L9.00662 30.3386C8.85982 30.1918 8.85982 29.9538 9.00662 29.807L11.3989 27.4147C11.5457 27.2679 11.7837 27.2679 11.9305 27.4147C12.0773 27.5615 12.0773 27.7995 11.9305 27.9463L10.18 29.6968H16.7955V30.4487H10.18L11.9305 32.1992C12.0773 32.346 12.0773 32.584 11.9305 32.7308C11.7837 32.8776 11.5457 32.8776 11.3989 32.7308Z" fill="#D7DEED"/>
<path fill-rule="evenodd" clip-rule="evenodd" d="M31.5234 32.7308L33.9157 30.3386C34.0625 30.1918 34.0625 29.9538 33.9157 29.807L31.5234 27.4147C31.3766 27.2679 31.1386 27.2679 30.9918 27.4147C30.845 27.5615 30.845 27.7995 30.9918 27.9463L32.7424 29.6968H26.1268V30.4487H32.7424L30.9918 32.1992C30.845 32.346 30.845 32.584 30.9918 32.7308C31.1386 32.8776 31.3766 32.8776 31.5234 32.7308Z" fill="#D7DEED"/>
<rect x="124.68" y="62.6385" width="29.9907" height="8.06595" rx="4.03298" fill="#D7DEED"/>
<rect x="124.68" y="85.7129" width="66.4545" height="4.59427" rx="2.29714" fill="#D7DEED"/>
<rect x="26.6252" y="130.235" width="64.5283" height="3.14874" rx="1.57437" fill="#D7DEED"/>
<rect x="124.68" y="95.2032" width="66.4545" height="4.59427" rx="2.29714" fill="#D7DEED"/>
<rect x="26.6252" y="136.74" width="64.5283" height="3.14874" rx="1.57437" fill="#D7DEED"/>
<rect x="124.68" y="104.694" width="66.4545" height="4.59427" rx="2.29714" fill="#D7DEED"/>
<rect x="204.752" y="26.6079" width="8.08087" height="1.50655" rx="0.753275" fill="#D7DEED"/>
<rect x="204.752" y="29.1169" width="8.08087" height="1.50655" rx="0.753275" fill="#D7DEED"/>
<rect x="204.752" y="31.626" width="8.08087" height="1.50655" rx="0.753275" fill="#D7DEED"/>
<path fill-rule="evenodd" clip-rule="evenodd" d="M48.0683 28.1425C47.9881 28.3746 48.1893 28.6064 48.4304 28.5598L49.3118 28.3893C49.6897 28.3162 49.8467 27.8614 49.5945 27.5707L48.9658 26.8462C48.8228 26.6814 48.555 26.7332 48.4837 26.9395C48.4355 27.0792 48.2881 27.1571 48.1425 27.1316C47.8847 27.0864 47.6209 27.0719 47.3565 27.0894C46.6226 27.1381 45.926 27.431 45.3779 27.9215C44.8298 28.412 44.4616 29.0718 44.332 29.7958C44.2024 30.5198 44.3189 31.2664 44.6628 31.9166C45.0068 32.5667 45.5585 33.083 46.23 33.3832C46.9015 33.6835 47.6541 33.7503 48.368 33.5731C49.0819 33.3959 49.7159 32.9848 50.169 32.4054C50.5546 31.9125 50.7903 31.3218 50.852 30.7036C50.87 30.5234 50.7215 30.3762 50.5404 30.3762C50.3593 30.3762 50.2146 30.5235 50.1921 30.7033C50.1332 31.1748 49.9476 31.6239 49.6524 32.0014C49.2895 32.4654 48.7817 32.7946 48.21 32.9365C47.6382 33.0784 47.0355 33.0249 46.4977 32.7845C45.9599 32.5441 45.5181 32.1305 45.2426 31.6099C44.9671 31.0892 44.8738 30.4912 44.9776 29.9114C45.0814 29.3315 45.3763 28.8031 45.8153 28.4102C46.2543 28.0174 46.8121 27.7828 47.3999 27.7439C47.546 27.7342 47.6918 27.7367 47.836 27.7511C48.0238 27.7698 48.1299 27.9641 48.0683 28.1425Z" fill="#D7DEED"/>
<rect x="62.2442" y="25.7139" width="107.783" height="8.71797" rx="4.35898" fill="#D7DEED"/>
<path d="M165.564 129.133H127.639C126.005 129.133 124.68 130.463 124.68 132.104V137.973C124.68 139.613 126.005 140.943 127.639 140.943H165.564C167.199 140.943 168.524 139.613 168.524 137.973V132.104C168.524 130.463 167.199 129.133 165.564 129.133Z" fill="#71B00A"/>
<path fill-rule="evenodd" clip-rule="evenodd" d="M145.348 131.396C145.625 131.396 145.85 131.62 145.85 131.897V135.462C145.85 135.739 145.625 135.963 145.348 135.963H145.055L146.602 137.516L148.149 135.963H147.855C147.579 135.963 147.354 135.739 147.354 135.462V131.897C147.354 131.62 147.579 131.396 147.855 131.396C148.132 131.396 148.357 131.62 148.357 131.897V134.961H149.356C149.559 134.961 149.741 135.083 149.819 135.27C149.897 135.457 149.854 135.672 149.711 135.816L146.957 138.58C146.863 138.675 146.735 138.728 146.602 138.728C146.469 138.728 146.341 138.675 146.247 138.58L143.493 135.816C143.35 135.672 143.307 135.457 143.385 135.27C143.463 135.083 143.645 134.961 143.848 134.961H144.847V131.897C144.847 131.62 145.072 131.396 145.348 131.396Z" fill="#56820D"/>
<defs>
<linearGradient id="paint0_linear_6215_77338" x1="182.087" y1="21.3084" x2="189.965" y2="34.2829" gradientUnits="userSpaceOnUse">
<stop offset="0.394669" stop-color="#E87D1B"/>
<stop offset="0.72037" stop-color="#D64D12"/>
<stop offset="0.749987" stop-color="#70AF09"/>
</linearGradient>
<linearGradient id="paint1_linear_6215_77338" x1="28.5741" y1="36.0386" x2="71.6309" y2="110.268" gradientUnits="userSpaceOnUse">
<stop offset="0.394669" stop-color="#E87D1B"/>
<stop offset="0.72037" stop-color="#D64D12"/>
<stop offset="0.749987" stop-color="#70AF09"/>
</linearGradient>
</defs>
</svg>
