<svg width="25" height="25" viewBox="0 0 25 25" fill="none" xmlns="http://www.w3.org/2000/svg">
<g clip-path="url(#clip0_7478_129785)">
<path d="M18.8551 13.3729C18.8238 10.3316 21.3347 8.87613 21.446 8.8031C20.0358 6.74253 17.8413 6.45909 17.0571 6.42779C15.1913 6.23651 13.4124 7.52676 12.463 7.52676C11.517 7.52676 10.0529 6.45387 8.50353 6.4817C6.46557 6.513 4.58932 7.66761 3.53903 9.48996C1.42282 13.1625 2.9965 18.6017 5.05881 21.5839C6.06736 23.041 7.27067 24.6773 8.84783 24.6199C10.3676 24.5591 10.9414 23.6357 12.7794 23.6357C14.6174 23.6357 15.1339 24.6199 16.7406 24.5904C18.3769 24.5591 19.4115 23.1036 20.4114 21.643C21.5695 19.9511 22.0459 18.3113 22.0755 18.2296C22.0372 18.2087 18.8881 17.0037 18.8551 13.3729Z" fill="#87AB49"/>
<path d="M15.8332 4.45419C16.6696 3.44043 17.2365 2.02846 17.0817 0.621704C15.8732 0.670393 14.4143 1.42333 13.5466 2.43883C12.7693 3.33783 12.0929 4.77241 12.2737 6.15134C13.6196 6.25741 14.9968 5.46622 15.8332 4.45419Z" fill="#87AB49"/>
</g>
<defs>
<clipPath id="clip0_7478_129785">
<rect width="24" height="24" fill="white" transform="translate(0.304688 0.621704)"/>
</clipPath>
</defs>
</svg>
