<svg width="20" height="20" viewBox="0 0 30 30" fill="none" xmlns="http://www.w3.org/2000/svg">
<path d="M30 15C30 23.2823 23.2822 30 15 30C6.71775 30 0 23.2823 0 15C0 6.71779 6.71775 5.25207e-06 15 5.25207e-06C23.2891 -0.0068566 30 6.71092 30 15Z" fill="#F1F4FB"/>
<path d="M20.936 14.6158C21.231 17.8958 18.8225 20.7915 15.5425 21.0866C12.2694 21.3816 9.36688 18.9731 9.07182 15.6931C8.77676 12.42 11.1853 9.51745 14.4584 9.2224C17.7383 8.92734 20.634 11.3427 20.936 14.6158Z" fill="#CE1126"/>
<path d="M9.90894 12.0837C9.05807 13.4904 9.50409 15.3225 10.9108 16.1665C12.3174 17.0174 14.1427 16.5714 14.9936 15.1647C15.8444 13.758 17.6697 13.312 19.0764 14.1629C20.483 15.0137 20.9291 16.839 20.0782 18.2457C18.3765 21.059 14.7191 21.9511 11.9057 20.2493C9.09924 18.5476 8.2072 14.8902 9.90894 12.0837Z" fill="#003F87"/>
<path d="M5.69822 5.40886L2.35547 10.3635L3.12913 10.8855L6.47188 5.93083L5.69822 5.40886Z" fill="black"/>
<path d="M6.88627 6.19145L3.53516 11.1401L4.30785 11.6634L7.65897 6.7147L6.88627 6.19145Z" fill="black"/>
<path d="M8.06899 7.02974L4.72803 11.9856L5.50184 12.5073L8.8428 7.5514L8.06899 7.02974Z" fill="black"/>
<path d="M24.4975 17.8446L22.9497 20.1362L23.7231 20.6585L25.2708 18.3669L24.4975 17.8446Z" fill="black"/>
<path d="M22.6944 20.4827L21.1538 22.7791L21.9287 23.2989L23.4693 21.0026L22.6944 20.4827Z" fill="black"/>
<path d="M25.6988 18.6452L24.1431 20.9397L24.9155 21.4634L26.4712 19.1689L25.6988 18.6452Z" fill="black"/>
<path d="M23.9176 21.3025L22.3677 23.5928L23.1406 24.1158L24.6905 21.8256L23.9176 21.3025Z" fill="black"/>
<path d="M26.8721 19.4312L25.3257 21.7236L26.0993 22.2455L27.6457 19.953L26.8721 19.4312Z" fill="black"/>
<path d="M25.1019 22.0754L23.5566 24.3687L24.3305 24.8901L25.8758 22.5968L25.1019 22.0754Z" fill="black"/>
<path d="M23.1252 6.21499L22.3506 6.73535L25.6832 11.6966L26.4578 11.1762L23.1252 6.21499Z" fill="black"/>
<path d="M24.3111 5.42219L23.5381 5.94507L25.0875 8.23557L25.8605 7.71269L24.3111 5.42219Z" fill="black"/>
<path d="M26.8916 10.8828L27.6601 10.3612L26.1162 8.0625L25.3408 8.59088L26.8916 10.8828Z" fill="black"/>
<path d="M21.9557 6.99359L21.1821 7.51562L22.7329 9.81351L23.5064 9.29147L21.9557 6.99359Z" fill="black"/>
<path d="M24.5039 12.4886L25.2793 11.9671L23.7285 9.67529L22.96 10.1968L24.5039 12.4886Z" fill="black"/>
<path d="M5.52378 17.8152L4.74902 18.3354L8.081 23.2973L8.85575 22.777L5.52378 17.8152Z" fill="black"/>
<path d="M3.12452 19.4181L2.35107 19.9402L5.69503 24.8937L6.46847 24.3715L3.12452 19.4181Z" fill="black"/>
<path d="M4.31518 18.6191L3.54248 19.1423L5.09686 21.4377L5.86956 20.9145L4.31518 18.6191Z" fill="black"/>
<path d="M6.87595 24.1056L7.65133 23.5841L6.10056 21.2922L5.33203 21.8069L6.87595 24.1056Z" fill="black"/>
</svg>
