<svg xmlns="http://www.w3.org/2000/svg" width="16.5" height="16.5" viewBox="0 0 16.5 16.5">
    <defs>
        <style>
            .cls-1{fill:#fff;stroke:#fff;stroke-width:.5px;}
        </style>
    </defs>
    <path id="_002-language" d="M8 0a8 8 0 1 0 8 8 8 8 0 0 0-8-8zm6.919 10.8l-2.275.393a11.938 11.938 0 0 0 .419-2.929h2.4a7.417 7.417 0 0 1-.544 2.536zM.54 8.267h2.4a11.938 11.938 0 0 0 .416 2.933l-2.275-.4A7.417 7.417 0 0 1 .54 8.267zM1.081 5.2l2.275-.4a11.938 11.938 0 0 0-.419 2.929H.54A7.417 7.417 0 0 1 1.081 5.2zm7.186-.916a18.345 18.345 0 0 1 2.859.261l.941.162a11.447 11.447 0 0 1 .463 3.028H8.267zm2.95-.265a18.9 18.9 0 0 0-2.95-.269V.548C9.8.7 11.123 2.095 11.876 4.132zm-3.484-.271a18.9 18.9 0 0 0-2.949.269l-.66.114C4.877 2.094 6.2.693 7.733.547zm-2.858.794a18.34 18.34 0 0 1 2.858-.261v3.452H3.471a11.447 11.447 0 0 1 .463-3.028zm-1.4 3.724h4.258v3.452a18.345 18.345 0 0 1-2.859-.261l-.941-.162a11.447 11.447 0 0 1-.462-3.028zm1.313 3.716a18.966 18.966 0 0 0 2.95.27v3.2c-1.529-.147-2.857-1.547-3.609-3.584zm3.483.27a18.964 18.964 0 0 0 2.949-.27l.66-.114c-.753 2.038-2.081 3.438-3.609 3.584zm2.858-.8a18.34 18.34 0 0 1-2.858.261V8.267h4.263a11.447 11.447 0 0 1-.463 3.028zm1.937-3.724a11.938 11.938 0 0 0-.422-2.928l2.275.393a7.417 7.417 0 0 1 .541 2.536zm1.583-3.118l-2.181-.376A7.353 7.353 0 0 0 10.347.913a7.5 7.5 0 0 1 4.302 3.697zm-9-3.7a7.353 7.353 0 0 0-2.122 3.32l-2.176.38A7.5 7.5 0 0 1 5.653.913zM1.351 11.39l2.181.376a7.353 7.353 0 0 0 2.122 3.32 7.5 7.5 0 0 1-4.303-3.696zm9 3.7a7.353 7.353 0 0 0 2.122-3.32l2.181-.376a7.5 7.5 0 0 1-4.307 3.693zm0 0" class="cls-1" data-name="002-language" transform="translate(.25 .25)"/>
</svg>
