<svg xmlns="http://www.w3.org/2000/svg" width="215" height="184.52" viewBox="0 0 215 184.52">
    <defs>
        <style>
            .cls-1{fill:#97f2ff}.cls-2{fill:#ac594d}.cls-3{fill:#8d3e3b}.cls-4{fill:#ca9f4b}.cls-5{fill:#6d2c32}.cls-6{fill:#455a93}.cls-7,.cls-8{fill:#092039}.cls-7{opacity:.4}.cls-9{fill:#bad1c7}.cls-10{fill:#729ba4}.cls-11{fill:#420010}.cls-12{fill:#e5cc63}.cls-13{fill:#ae8146}.cls-14{fill:#fffb77}.cls-15{fill:#683424}.cls-16{fill:#955e37}.cls-17{fill:#8b553a}
        </style>
    </defs>
    <g id="Group_7535" data-name="Group 7535" transform="translate(-102.424 -19.673)">
        <circle id="Ellipse_3224" cx="79" cy="79" r="79" class="cls-1" data-name="Ellipse 3224" transform="translate(128.424 46.193)"/>
        <rect id="Rectangle_9468" width="86.272" height="121.301" class="cls-2" data-name="Rectangle 9468" rx="4.623" transform="translate(208.169 62.458)"/>
        <rect id="Rectangle_9469" width="74.111" height="121.301" class="cls-3" data-name="Rectangle 9469" rx="4.623" transform="translate(220.33 62.458)"/>
        <path id="Rectangle_9470" d="M0 0h52.65v8.276H0z" class="cls-4" data-name="Rectangle 9470" transform="translate(233.743 72.424)"/>
        <path id="Rectangle_9471" d="M0 0h52.65v1.708H0z" class="cls-4" data-name="Rectangle 9471" transform="translate(233.743 83.203)"/>
        <path id="Rectangle_9472" d="M0 0h52.65v2.146H0z" class="cls-4" data-name="Rectangle 9472" transform="translate(233.743 109.135)"/>
        <path id="Rectangle_9473" d="M0 0h52.65v59.83H0z" class="cls-4" data-name="Rectangle 9473" transform="translate(233.743 113.963)"/>
        <path id="Rectangle_9474" d="M0 0h2.669v121.301H0z" class="cls-5" data-name="Rectangle 9474" transform="translate(223.773 62.458)"/>
        <path id="Path_48985" d="M148.149 297.2c-7.272 0-7.272 35.493 0 35.493h79.4v-3.934h-3.219v-27.63h3.219V297.2z" class="cls-6" data-name="Path 48985" transform="translate(-21.611 -148.929)"/>
        <path id="Path_48986" d="M257.367 297.2h-3.756c-7.273 0-7.273 35.493 0 35.493h3.756c-7.273-.005-7.273-35.493 0-35.493z" class="cls-4" data-name="Path 48986" transform="translate(-78.206 -148.929)"/>
        <path id="Path_48987" d="M163.851 297.2H160.1c-7.273 0-7.273 35.493 0 35.493h3.756c-7.278-.005-7.278-35.493-.005-35.493z" class="cls-4" data-name="Path 48987" transform="translate(-28.022 -148.929)"/>
        <path id="Path_48988" d="M145.222 360.179c.9 3.744 2.331 6.308 4.283 6.308h59.486v-6.308z" class="cls-7" data-name="Path 48988" transform="translate(-22.967 -182.728)"/>
        <path id="Path_48989" d="M276.094 297.2c-7.273 0-7.273 35.493 0 35.493h67.157a1.516 1.516 0 0 0 1.517-1.517v-.9a1.517 1.517 0 0 0-1.517-1.517h-1.7v-27.63h1.7a1.516 1.516 0 0 0 1.517-1.517v-.9a1.516 1.516 0 0 0-1.517-1.517z" class="cls-8" data-name="Path 48989" transform="translate(-90.271 -148.929)"/>
        <path id="Path_48990" d="M346.207 305.686h-61.92c-6.621 0-6.621 27.624 0 27.624h61.92z" class="cls-9" data-name="Path 48990" transform="translate(-94.929 -153.485)"/>
        <g id="Group_7514" data-name="Group 7514" transform="translate(193.468 156.974)">
            <path id="Rectangle_9475" d="M0 0h57.809v1.609H0z" class="cls-10" data-name="Rectangle 9475"/>
        </g>
        <g id="Group_7515" data-name="Group 7515" transform="translate(202.947 172.533)">
            <path id="Rectangle_9476" d="M0 0h48.331v1.609H0z" class="cls-10" data-name="Rectangle 9476"/>
        </g>
        <g id="Group_7516" data-name="Group 7516" transform="translate(214.571 168.427)">
            <path id="Rectangle_9477" d="M0 0h36.706v1.609H0z" class="cls-10" data-name="Rectangle 9477"/>
        </g>
        <g id="Group_7532" data-name="Group 7532" transform="translate(105.292 19.673)">
            <path id="Rectangle_9478" d="M0 0h5.317v102.835H0z" class="cls-11" data-name="Rectangle 9478" transform="translate(60.29 11.762)"/>
            <g id="Group_7531" data-name="Group 7531" transform="translate(0 7.624)">
                <g id="Group_7523" data-name="Group 7523">
                    <g id="Group_7522" data-name="Group 7522" transform="translate(.612)">
                        <g id="Group_7517" data-name="Group 7517" transform="translate(38.719 54.89)">
                            <path id="Path_48991" d="M194.106 155.8a.607.607 0 0 1-.431-.181.588.588 0 0 1-.181-.431.633.633 0 0 1 .176-.436.616.616 0 0 1 1.052.436.607.607 0 0 1-.181.431.618.618 0 0 1-.435.181z" class="cls-12" data-name="Path 48991" transform="translate(-193.494 -154.587)"/>
                        </g>
                        <g id="Group_7518" data-name="Group 7518" transform="translate(20.166 2.277)">
                            <path id="Path_48992" d="M171.234 92.174a.615.615 0 0 1 .375-.783.615.615 0 0 1 .783.375.615.615 0 0 1-.375.783.606.606 0 0 1-.2.032.613.613 0 0 1-.583-.407zm-.806-2.289a.617.617 0 0 1 .375-.783.615.615 0 0 1 .783.375.615.615 0 0 1-.375.783.632.632 0 0 1-.2.037.611.611 0 0 1-.583-.412zm-.806-2.284a.615.615 0 0 1 .375-.783.617.617 0 0 1 .783.375.617.617 0 0 1-.375.783.645.645 0 0 1-.2.032.613.613 0 0 1-.583-.408zm-.806-2.289a.617.617 0 0 1 .375-.783.617.617 0 0 1 .783.375.615.615 0 0 1-.375.783.655.655 0 0 1-.2.037.611.611 0 0 1-.584-.413zm-.806-2.284a.611.611 0 0 1 .375-.783.613.613 0 0 1 .783.375.617.617 0 0 1-.375.783.645.645 0 0 1-.2.032.613.613 0 0 1-.584-.408zm-.806-2.289a.617.617 0 0 1 .375-.783.617.617 0 0 1 .783.375.615.615 0 0 1-.375.783.655.655 0 0 1-.2.037.611.611 0 0 1-.587-.413zm-.806-2.289a.608.608 0 0 1 .375-.778.614.614 0 0 1 .783.371.613.613 0 0 1-.375.783.544.544 0 0 1-.2.037.611.611 0 0 1-.581-.414zm-.806-2.284a.607.607 0 0 1 .375-.783.612.612 0 0 1 .778.375.607.607 0 0 1-.375.783.606.606 0 0 1-.2.032.611.611 0 0 1-.58-.409zm-.806-2.289a.612.612 0 0 1 .371-.783.615.615 0 0 1 .783.375.612.612 0 0 1-.371.783.655.655 0 0 1-.2.037.611.611 0 0 1-.585-.414zm-.806-2.284a.609.609 0 0 1 .371-.783.615.615 0 0 1 .783.375.613.613 0 0 1-.375.783.606.606 0 0 1-.2.032.611.611 0 0 1-.581-.409zm-.811-2.289a.617.617 0 0 1 .375-.783.615.615 0 0 1 .783.375.611.611 0 0 1-.375.783.61.61 0 0 1-.2.037.619.619 0 0 1-.585-.416zm-.806-2.284a.615.615 0 0 1 .375-.783.611.611 0 0 1 .783.375.61.61 0 0 1-.375.778.513.513 0 0 1-.2.037.622.622 0 0 1-.585-.409zm-.806-2.289a.615.615 0 0 1 .375-.783.615.615 0 0 1 .783.375.615.615 0 0 1-.375.783.606.606 0 0 1-.2.032.611.611 0 0 1-.585-.409zm-.806-2.289a.612.612 0 0 1 .375-.778.609.609 0 0 1 .783.371.615.615 0 0 1-.375.783.513.513 0 0 1-.2.037.615.615 0 0 1-.586-.415zm-.806-2.284a.615.615 0 0 1 .375-.783.615.615 0 0 1 .783.375.615.615 0 0 1-.375.783.625.625 0 0 1-.2.032.613.613 0 0 1-.586-.41zm-.806-2.289a.61.61 0 0 1 .375-.778.61.61 0 0 1 .783.371.615.615 0 0 1-.375.783.632.632 0 0 1-.2.037.611.611 0 0 1-.586-.416zm-.806-2.284a.615.615 0 0 1 .375-.783.615.615 0 0 1 .783.375.617.617 0 0 1-.375.783.625.625 0 0 1-.2.032.613.613 0 0 1-.587-.41zm-.806-2.289a.617.617 0 0 1 .375-.783.617.617 0 0 1 .783.375.615.615 0 0 1-.375.783.655.655 0 0 1-.2.037.611.611 0 0 1-.587-.415zm-.806-2.284a.615.615 0 0 1 .375-.783.613.613 0 0 1 .783.375.61.61 0 0 1-.375.778.544.544 0 0 1-.2.037.613.613 0 0 1-.587-.41zm-.806-2.289a.611.611 0 0 1 .375-.783.617.617 0 0 1 .783.375.615.615 0 0 1-.375.783.645.645 0 0 1-.2.032.613.613 0 0 1-.587-.41zm-.806-2.284a.611.611 0 0 1 .375-.783.612.612 0 0 1 .783.371.615.615 0 0 1-.375.783.655.655 0 0 1-.2.037.613.613 0 0 1-.592-.412zm-.806-2.289a.612.612 0 0 1 .371-.783.62.62 0 0 1 .788.375.617.617 0 0 1-.375.783.645.645 0 0 1-.2.032.613.613 0 0 1-.587-.411zm-.806-2.289a.613.613 0 0 1 .375-.783.612.612 0 0 1 .778.375.607.607 0 0 1-.375.783.61.61 0 0 1-.2.037.609.609 0 0 1-.583-.416z" class="cls-12" data-name="Path 48992" transform="translate(-153.456 -41.04)"/>
                        </g>
                        <g id="Group_7519" data-name="Group 7519" transform="translate(19.359)">
                            <path id="Path_48993" d="M152.33 37.344a.61.61 0 0 1-.436-.181.6.6 0 0 1-.181-.431.618.618 0 0 1 .181-.436.636.636 0 0 1 .866 0 .618.618 0 0 1 .181.436.6.6 0 0 1-.181.431.607.607 0 0 1-.43.181z" class="cls-12" data-name="Path 48993" transform="translate(-151.714 -36.127)"/>
                        </g>
                        <g id="Group_7520" data-name="Group 7520" transform="translate(.809 2.277)">
                            <path id="Path_48994" d="M112.089 92.549a.617.617 0 0 1-.375-.783.615.615 0 0 1 .783-.375.615.615 0 0 1 .375.783.622.622 0 0 1-.579.408.606.606 0 0 1-.204-.033zm.806-2.289a.615.615 0 0 1-.375-.783.615.615 0 0 1 .783-.375.617.617 0 0 1 .375.783.611.611 0 0 1-.579.412.61.61 0 0 1-.199-.037zm.806-2.284a.617.617 0 0 1-.375-.783.615.615 0 0 1 .783-.375.615.615 0 0 1 .375.783.613.613 0 0 1-.579.408.606.606 0 0 1-.205-.033zm.806-2.289a.615.615 0 0 1-.375-.783.615.615 0 0 1 .783-.375.617.617 0 0 1 .375.783.611.611 0 0 1-.579.412.632.632 0 0 1-.203-.037zm.806-2.284a.617.617 0 0 1-.375-.783.613.613 0 0 1 .783-.375.615.615 0 0 1 .375.783.613.613 0 0 1-.579.408.645.645 0 0 1-.203-.036zm.806-2.289a.615.615 0 0 1-.375-.783.617.617 0 0 1 .783-.375.617.617 0 0 1 .375.783.611.611 0 0 1-.579.412.655.655 0 0 1-.202-.038zm.806-2.289a.613.613 0 0 1-.375-.783.614.614 0 0 1 .783-.371.608.608 0 0 1 .375.778.611.611 0 0 1-.579.412.544.544 0 0 1-.202-.037zm.806-2.284a.615.615 0 0 1-.375-.783.617.617 0 0 1 .783-.375.615.615 0 0 1 .375.783.613.613 0 0 1-.579.408.645.645 0 0 1-.202-.034zm.806-2.289a.615.615 0 0 1-.375-.783.617.617 0 0 1 .783-.375.615.615 0 0 1 .375.783.611.611 0 0 1-.579.412.655.655 0 0 1-.202-.038zm.806-2.284a.61.61 0 0 1-.371-.783.612.612 0 0 1 .778-.375.607.607 0 0 1 .375.783.613.613 0 0 1-.579.408.645.645 0 0 1-.2-.035zm.806-2.289a.612.612 0 0 1-.371-.783.615.615 0 0 1 .783-.375.61.61 0 0 1 .371.783.609.609 0 0 1-.575.412.66.66 0 0 1-.205-.039zm.811-2.289a.606.606 0 0 1-.375-.778.611.611 0 0 1 .783-.375.609.609 0 0 1 .371.783.611.611 0 0 1-.575.408.513.513 0 0 1-.201-.04zm.806-2.284a.611.611 0 0 1-.375-.783.615.615 0 0 1 .783-.375.615.615 0 0 1 .375.783.622.622 0 0 1-.579.408.606.606 0 0 1-.201-.039zm.806-2.289a.615.615 0 0 1-.375-.783.609.609 0 0 1 .783-.371.612.612 0 0 1 .375.778.62.62 0 0 1-.579.412.513.513 0 0 1-.201-.038zm.806-2.284a.615.615 0 0 1-.375-.783.615.615 0 0 1 .783-.375.615.615 0 0 1 .375.783.617.617 0 0 1-.579.408.606.606 0 0 1-.2-.035zm.806-2.289a.615.615 0 0 1-.375-.783.609.609 0 0 1 .783-.371.61.61 0 0 1 .375.778.615.615 0 0 1-.579.412.61.61 0 0 1-.2-.038zm.806-2.284a.617.617 0 0 1-.375-.783.615.615 0 0 1 .783-.375.615.615 0 0 1 .375.783.613.613 0 0 1-.579.408.625.625 0 0 1-.2-.036zm.806-2.289a.615.615 0 0 1-.375-.783.617.617 0 0 1 .783-.375.617.617 0 0 1 .375.783.611.611 0 0 1-.579.412.655.655 0 0 1-.2-.04zm.806-2.289a.61.61 0 0 1-.375-.778.613.613 0 0 1 .783-.375.615.615 0 0 1 .375.783.613.613 0 0 1-.579.408.544.544 0 0 1-.199-.041zm.806-2.284a.615.615 0 0 1-.375-.783.617.617 0 0 1 .783-.375.615.615 0 0 1 .375.783.613.613 0 0 1-.579.408.645.645 0 0 1-.199-.036zm.806-2.289a.615.615 0 0 1-.375-.783.61.61 0 0 1 .783-.371.612.612 0 0 1 .375.778.611.611 0 0 1-.579.412.655.655 0 0 1-.199-.039zm.806-2.284a.617.617 0 0 1-.375-.783.617.617 0 0 1 .783-.375.611.611 0 0 1 .375.783.613.613 0 0 1-.579.408.645.645 0 0 1-.199-.036zm.806-2.289a.609.609 0 0 1-.371-.783.612.612 0 0 1 .778-.375.613.613 0 0 1 .375.783.611.611 0 0 1-.579.412.655.655 0 0 1-.197-.04z" class="cls-12" data-name="Path 48994" transform="translate(-111.68 -41.04)"/>
                        </g>
                        <g id="Group_7521" data-name="Group 7521" transform="translate(0 54.89)">
                            <path id="Path_48995" d="M110.55 155.8a.618.618 0 0 1-.436-.181.607.607 0 0 1-.181-.431.618.618 0 0 1 .181-.436.636.636 0 0 1 .866 0 .618.618 0 0 1 .181.436.617.617 0 0 1-.612.612z" class="cls-12" data-name="Path 48995" transform="translate(-109.934 -154.587)"/>
                        </g>
                    </g>
                    <path id="Rectangle_9479" d="M0 0h41.169a6.7 6.7 0 0 1-6.7 6.7H6.7A6.7 6.7 0 0 1 0 0z" class="cls-12" data-name="Rectangle 9479" transform="translate(0 54.267)"/>
                    <path id="Path_48996" d="M111.721 162.176a6.679 6.679 0 0 0 5.256 2.556h27.778a6.679 6.679 0 0 0 5.256-2.556z" class="cls-13" data-name="Path 48996" transform="translate(-110.281 -103.769)"/>
                    <path id="Path_48997" d="M165.183 157.279a12.74 12.74 0 0 0 .627-4.037h-12.754v4.037z" class="cls-14" data-name="Path 48997" transform="translate(-132.463 -98.975)"/>
                </g>
                <g id="Group_7530" data-name="Group 7530" transform="translate(85.042 15.95)">
                    <g id="Group_7529" data-name="Group 7529" transform="translate(.615)">
                        <g id="Group_7524" data-name="Group 7524" transform="translate(38.714 54.889)">
                            <path id="Path_48998" d="M377.636 190.224a.6.6 0 0 1-.431-.176.615.615 0 0 1 0-.871.636.636 0 0 1 .866 0 .614.614 0 0 1 0 .871.6.6 0 0 1-.435.176z" class="cls-12" data-name="Path 48998" transform="translate(-377.024 -189.007)"/>
                        </g>
                        <g id="Group_7525" data-name="Group 7525" transform="translate(20.163 2.278)">
                            <path id="Path_48999" d="M354.766 126.6a.618.618 0 0 1 .375-.783.615.615 0 0 1 .783.375.615.615 0 0 1-.375.783.61.61 0 0 1-.2.037.619.619 0 0 1-.583-.412zm-.806-2.284a.615.615 0 0 1 .375-.783.611.611 0 0 1 .783.375.617.617 0 0 1-.375.783.606.606 0 0 1-.2.032.621.621 0 0 1-.583-.41zm-.806-2.289a.616.616 0 0 1 .375-.783.615.615 0 0 1 .783.375.615.615 0 0 1-.375.783.61.61 0 0 1-.2.037.619.619 0 0 1-.583-.415zm-.806-2.284a.615.615 0 0 1 .375-.783.611.611 0 0 1 .783.375.618.618 0 0 1-.376.783.6.6 0 0 1-.2.032.612.612 0 0 1-.583-.411zm-.806-2.289a.615.615 0 0 1 .375-.783.615.615 0 0 1 .783.375.615.615 0 0 1-.375.783.647.647 0 0 1-.2.032.613.613 0 0 1-.584-.411zm-.806-2.289a.612.612 0 0 1 .375-.778.609.609 0 0 1 .783.375.612.612 0 0 1-.375.778.655.655 0 0 1-.2.037.611.611 0 0 1-.584-.416zm-.806-2.284a.614.614 0 0 1 .375-.783.617.617 0 0 1 .783.375.615.615 0 0 1-.375.783.645.645 0 0 1-.2.032.613.613 0 0 1-.584-.411zm-.806-2.289a.617.617 0 0 1 .375-.783.617.617 0 0 1 .783.375.615.615 0 0 1-.375.783.655.655 0 0 1-.2.037.611.611 0 0 1-.585-.416zm-.806-2.284a.611.611 0 0 1 .375-.783.613.613 0 0 1 .784.375.617.617 0 0 1-.375.783.647.647 0 0 1-.2.032.613.613 0 0 1-.586-.415zm-.806-2.289a.613.613 0 0 1 .375-.783.619.619 0 0 1 .783.375.615.615 0 0 1-.375.783.655.655 0 0 1-.2.037.611.611 0 0 1-.585-.417zm-.806-2.284a.611.611 0 0 1 .375-.783.606.606 0 0 1 .778.375.612.612 0 0 1-.371.783.647.647 0 0 1-.2.032.613.613 0 0 1-.588-.412zm-.806-2.289a.608.608 0 0 1 .371-.783.615.615 0 0 1 .783.375.609.609 0 0 1-.371.783.653.653 0 0 1-.208.032.611.611 0 0 1-.575-.412zm-.806-2.289a.605.605 0 0 1 .371-.778.607.607 0 0 1 .783.375.608.608 0 0 1-.375.778.61.61 0 0 1-.2.037.609.609 0 0 1-.582-.417zm-.811-2.284a.615.615 0 0 1 .375-.783.615.615 0 0 1 .784.375.613.613 0 0 1-.375.783.606.606 0 0 1-.2.032.622.622 0 0 1-.587-.412zm-.806-2.289a.616.616 0 0 1 .375-.783.615.615 0 0 1 .783.375.615.615 0 0 1-.375.783.612.612 0 0 1-.2.037.62.62 0 0 1-.586-.417zm-.807-2.284a.615.615 0 0 1 .376-.783.611.611 0 0 1 .783.375.616.616 0 0 1-.375.783.607.607 0 0 1-.2.032.623.623 0 0 1-.587-.413zm-.806-2.289a.617.617 0 0 1 .375-.783.615.615 0 0 1 .783.375.615.615 0 0 1-.375.783.61.61 0 0 1-.2.037.62.62 0 0 1-.586-.418zm-.806-2.284a.615.615 0 0 1 .375-.783.611.611 0 0 1 .784.375.619.619 0 0 1-.375.783.625.625 0 0 1-.2.032.617.617 0 0 1-.587-.413zm-.806-2.289a.614.614 0 0 1 .375-.783.617.617 0 0 1 .783.375.615.615 0 0 1-.375.783.612.612 0 0 1-.2.037.615.615 0 0 1-.586-.418zm-.807-2.289a.619.619 0 0 1 .376-.783.616.616 0 0 1 .783.375.614.614 0 0 1-.375.783.658.658 0 0 1-.2.037.612.612 0 0 1-.587-.418zm-.806-2.284a.615.615 0 0 1 .375-.783.617.617 0 0 1 .783.375.615.615 0 0 1-.375.783.645.645 0 0 1-.2.032.612.612 0 0 1-.586-.414zm-.806-2.289a.617.617 0 0 1 .375-.783.617.617 0 0 1 .783.375.615.615 0 0 1-.376.783.65.65 0 0 1-.2.037.61.61 0 0 1-.585-.419zm-.806-2.284a.614.614 0 0 1 .375-.783.613.613 0 0 1 .783.375.617.617 0 0 1-.375.783.645.645 0 0 1-.2.032.613.613 0 0 1-.586-.414z" class="cls-12" data-name="Path 48999" transform="translate(-336.989 -75.466)"/>
                        </g>
                        <g id="Group_7526" data-name="Group 7526" transform="translate(19.354)">
                            <path id="Path_49000" d="M335.859 71.77a.617.617 0 0 1-.435-.181.61.61 0 0 1-.181-.436.619.619 0 0 1 .181-.431.627.627 0 0 1 .866 0 .6.6 0 0 1 .181.431.618.618 0 0 1-.181.436.607.607 0 0 1-.431.181z" class="cls-12" data-name="Path 49000" transform="translate(-335.243 -70.549)"/>
                        </g>
                        <g id="Group_7527" data-name="Group 7527" transform="translate(.804 2.278)">
                            <path id="Path_49001" d="M295.619 126.972a.615.615 0 0 1-.375-.783.617.617 0 0 1 .783-.375.617.617 0 0 1 .375.783.611.611 0 0 1-.579.412.655.655 0 0 1-.204-.037zm.806-2.284a.617.617 0 0 1-.375-.783.617.617 0 0 1 .783-.375.615.615 0 0 1 .375.783.613.613 0 0 1-.579.408.645.645 0 0 1-.203-.033zm.806-2.289a.615.615 0 0 1-.375-.783.617.617 0 0 1 .783-.375.613.613 0 0 1 .375.783.611.611 0 0 1-.579.412.655.655 0 0 1-.203-.036zm.806-2.289a.612.612 0 0 1-.375-.778.613.613 0 0 1 .783-.375.611.611 0 0 1 .375.783.613.613 0 0 1-.579.408.544.544 0 0 1-.203-.038zm.806-2.284a.615.615 0 0 1-.375-.783.617.617 0 0 1 .783-.375.611.611 0 0 1 .375.783.613.613 0 0 1-.579.408.645.645 0 0 1-.203-.034zm.811-2.289a.607.607 0 0 1-.375-.783.607.607 0 0 1 .783-.371.612.612 0 0 1 .371.783.613.613 0 0 1-.579.408.506.506 0 0 1-.199-.038zm.806-2.284a.609.609 0 0 1-.375-.783.615.615 0 0 1 .783-.375.609.609 0 0 1 .371.783.611.611 0 0 1-.575.408.607.607 0 0 1-.202-.034zm.806-2.289a.611.611 0 0 1-.375-.783.615.615 0 0 1 .783-.375.61.61 0 0 1 .371.783.609.609 0 0 1-.575.412.61.61 0 0 1-.202-.038zm.806-2.284a.613.613 0 0 1-.375-.783.611.611 0 0 1 .783-.375.615.615 0 0 1 .375.783.622.622 0 0 1-.579.408.607.607 0 0 1-.202-.034zm.806-2.289a.615.615 0 0 1-.375-.783.615.615 0 0 1 .783-.375.617.617 0 0 1 .375.783.619.619 0 0 1-.579.412.61.61 0 0 1-.202-.038zm.806-2.289a.612.612 0 0 1-.375-.778.611.611 0 0 1 .783-.375.615.615 0 0 1 .375.783.622.622 0 0 1-.579.408.513.513 0 0 1-.201-.04zm.806-2.284a.615.615 0 0 1-.375-.783.615.615 0 0 1 .783-.375.615.615 0 0 1 .375.783.617.617 0 0 1-.579.408.606.606 0 0 1-.201-.035zm.806-2.289a.612.612 0 0 1-.375-.778.607.607 0 0 1 .783-.375.613.613 0 0 1 .375.783.617.617 0 0 1-.579.408.528.528 0 0 1-.2-.04zm.806-2.284a.617.617 0 0 1-.375-.783.615.615 0 0 1 .783-.375.615.615 0 0 1 .375.783.613.613 0 0 1-.579.408.625.625 0 0 1-.201-.035zm.806-2.289a.615.615 0 0 1-.375-.783.615.615 0 0 1 .783-.375.617.617 0 0 1 .375.783.611.611 0 0 1-.579.412.632.632 0 0 1-.2-.039zm.806-2.284a.617.617 0 0 1-.375-.783.611.611 0 0 1 .783-.375.615.615 0 0 1 .375.783.613.613 0 0 1-.579.408.625.625 0 0 1-.2-.035zm.806-2.289a.615.615 0 0 1-.375-.783.617.617 0 0 1 .783-.375.617.617 0 0 1 .375.783.611.611 0 0 1-.579.412.655.655 0 0 1-.2-.039zm.806-2.289a.612.612 0 0 1-.375-.778.613.613 0 0 1 .783-.375.615.615 0 0 1 .375.783.613.613 0 0 1-.579.408.544.544 0 0 1-.2-.04zm.806-2.284a.61.61 0 0 1-.371-.783.61.61 0 0 1 .778-.375.611.611 0 0 1 .375.783.613.613 0 0 1-.579.408.645.645 0 0 1-.198-.036zm.806-2.289a.609.609 0 0 1-.371-.783.612.612 0 0 1 .778-.375.613.613 0 0 1 .375.783.609.609 0 0 1-.575.412.66.66 0 0 1-.202-.04zm.806-2.284a.614.614 0 0 1-.371-.783.611.611 0 0 1 .778-.375.611.611 0 0 1 .376.783.613.613 0 0 1-.579.408.645.645 0 0 1-.199-.036zm.806-2.289a.609.609 0 0 1-.371-.783.612.612 0 0 1 .778-.375.613.613 0 0 1 .375.783.611.611 0 0 1-.579.412.655.655 0 0 1-.198-.04zm.811-2.284a.613.613 0 0 1-.375-.783.611.611 0 0 1 .783-.375.608.608 0 0 1 .37.783.61.61 0 0 1-.574.408.6.6 0 0 1-.199-.037z" class="cls-12" data-name="Path 49001" transform="translate(-295.21 -75.466)"/>
                        </g>
                        <g id="Group_7528" data-name="Group 7528" transform="translate(0 54.889)">
                            <path id="Path_49002" d="M294.086 190.224a.609.609 0 0 1-.612-.612.633.633 0 0 1 .176-.436.642.642 0 0 1 .871 0 .633.633 0 0 1 .176.436.605.605 0 0 1-.176.436.613.613 0 0 1-.435.176z" class="cls-12" data-name="Path 49002" transform="translate(-293.474 -189.007)"/>
                        </g>
                    </g>
                    <path id="Path_49003" d="M298.843 194.361h27.777a6.7 6.7 0 0 0 6.7-6.7h-41.173a6.7 6.7 0 0 0 6.696 6.7z" class="cls-12" data-name="Path 49003" transform="translate(-292.147 -133.398)"/>
                    <path id="Path_49004" d="M294.924 196.158a6.68 6.68 0 0 0 5.409 2.761h27.777a6.68 6.68 0 0 0 5.409-2.761z" class="cls-13" data-name="Path 49004" transform="translate(-293.637 -137.956)"/>
                    <path id="Path_49005" d="M348.759 191.6a9.74 9.74 0 0 0 .788-3.935h-12.456v3.935z" class="cls-14" data-name="Path 49005" transform="translate(-316.266 -133.398)"/>
                </g>
            </g>
            <path id="Path_49006" d="M144.7 32.043l45.2 14.772 1.592-8.44-45.887-11.155z" class="cls-11" data-name="Path 49006" transform="translate(-127.976 -23.723)"/>
            <path id="Path_49007" d="M289.736 62.451l-47.481-2.716 1.592-8.44 46.8 6.333z" class="cls-11" data-name="Path 49007" transform="translate(-180.331 -36.643)"/>
            <path id="Path_49008" d="M240.9 28.894a3.08 3.08 0 0 1 3.08 3.08v4.41h-6.16v-4.41a3.08 3.08 0 0 1 3.08-3.08z" class="cls-11" data-name="Path 49008" transform="translate(-177.95 -24.622)"/>
            <path id="Path_49009" d="M225.049 200.605c0 12.746 4.028 16.944 9 16.944s9-4.2 9-16.944c0-8.79-4.278-22.265-6.934-29.785a2.188 2.188 0 0 0-4.126 0c-2.662 7.52-6.94 20.996-6.94 29.785z" class="cls-15" data-name="Path 49009" transform="translate(-171.097 -100.002)"/>
            <path id="Path_49010" d="M225.214 242.939c.567 10.526 4.343 14.094 8.92 14.094s8.353-3.568 8.92-14.094c0 7.089-17.84 7.089-17.84 0z" class="cls-11" data-name="Path 49010" transform="translate(-171.186 -139.486)"/>
            <path id="Path_49011" d="M231.392 152.39c0 1.786 2.712 3.234 6.058 3.234s6.058-1.448 6.058-3.234-2.712-3.234-6.058-3.234-6.058 1.444-6.058 3.234z" class="cls-15" data-name="Path 49011" transform="translate(-174.501 -89.159)"/>
            <ellipse id="Ellipse_3213" cx="6.057" cy="6.148" class="cls-15" data-name="Ellipse 3213" rx="6.057" ry="6.148" transform="translate(56.891 45.887)"/>
            <ellipse id="Ellipse_3214" cx="6.057" cy="9.35" class="cls-15" data-name="Ellipse 3214" rx="6.057" ry="9.35" transform="translate(56.891 9.691)"/>
            <path id="Path_49012" d="M158.847 276.665h79.344v-4.242a4.457 4.457 0 0 0-3.721-4.392 215.454 215.454 0 0 0-71.9 0 4.457 4.457 0 0 0-3.721 4.392z" class="cls-15" data-name="Path 49012" transform="translate(-135.571 -151.331)"/>
            <path id="Path_49013" d="M232 273.125a2.432 2.432 0 0 0-2.254-2.313 206.764 206.764 0 0 0-25.211.029 2.436 2.436 0 0 0-2.285 2.284z" class="cls-16" data-name="Path 49013" transform="translate(-158.863 -154.244)"/>
            <path id="Rectangle_9480" d="M0 0h79.344v1.636H0z" class="cls-11" data-name="Rectangle 9480" transform="translate(23.276 121.039)"/>
            <path id="Rectangle_9481" d="M6.249 0h75.23a6.249 6.249 0 0 1 6.249 6.249H0A6.249 6.249 0 0 1 6.249 0z" class="cls-15" data-name="Rectangle 9481" transform="translate(19.049 122.675)"/>
            <circle id="Ellipse_3215" cx="5.066" cy="5.066" r="5.066" class="cls-15" data-name="Ellipse 3215" transform="rotate(-67.5 13.988 -5.77)"/>
            <ellipse id="Ellipse_3216" cx="5.066" cy="5.066" class="cls-15" data-name="Ellipse 3216" rx="5.066" ry="5.066" transform="rotate(-13.346 132.82 -419.385)"/>
            <ellipse id="Ellipse_3217" cx="1.796" cy="1.158" class="cls-16" data-name="Ellipse 3217" rx="1.796" ry="1.158" transform="translate(17.983 3.033)"/>
            <ellipse id="Ellipse_3218" cx="1.796" cy="1.158" class="cls-16" data-name="Ellipse 3218" rx="1.796" ry="1.158" transform="translate(60.129 12.336)"/>
            <ellipse id="Ellipse_3219" cx="1.796" cy="1.158" class="cls-16" data-name="Ellipse 3219" rx="1.796" ry="1.158" transform="translate(103.831 19.634)"/>
            <ellipse id="Ellipse_3220" cx="1.796" cy="1.158" class="cls-16" data-name="Ellipse 3220" rx="1.796" ry="1.158" transform="translate(60.29 47.783)"/>
            <ellipse id="Ellipse_3221" cx="1.796" cy="1.158" class="cls-16" data-name="Ellipse 3221" rx="1.796" ry="1.158" transform="translate(60.29 60.732)"/>
            <ellipse id="Ellipse_3222" cx="1.796" cy="3.967" class="cls-17" data-name="Ellipse 3222" rx="1.796" ry="3.967" transform="translate(60.29 80.445)"/>
        </g>
        <g id="Group_7533" data-name="Group 7533" transform="translate(186.823 118.322)">
            <path id="Path_49014" d="M371.731 288.6l-86.385 30.642c-.961.341-1.041 2.585-.179 5.011s2.338 4.118 3.3 3.777l86.385-30.642z" class="cls-15" data-name="Path 49014" transform="translate(-284.569 -262.639)"/>
            <path id="Path_49015" d="M294.084 327.064a.927.927 0 0 1 .562-1.184l72.429-25.808.622 1.746-72.429 25.808a.927.927 0 0 1-1.184-.562z" class="cls-16" data-name="Path 49015" transform="translate(-289.646 -268.795)"/>
            <path id="Path_49016" d="M461.938 299.144c.961-.341 1.041-2.585.18-5.011s-2.339-4.118-3.3-3.777l-6.7 2.378c-.961.341-1.041 2.585-.18 5.012s2.339 4.117 3.3 3.777z" class="cls-11" data-name="Path 49016" transform="translate(-374.066 -263.558)"/>
            <path id="Path_49017" d="M476.821 237.821c-1.34-3.715-9.025-4.346-17.165-1.41s-13.656 8.328-12.314 12.043l3.622 10.042a3.322 3.322 0 0 0 2.25 1.479 15.939 15.939 0 0 0 4.06 11.273l-.376 3.7 3.536 9.8 29.479-10.632-3.535-9.8-2.817-3.067c.246-4.269-1.456-7.839-4-11.106a3.663 3.663 0 0 0 .753-2.642z" class="cls-15" data-name="Path 49017" transform="translate(-371.811 -233.641)"/>
            <path id="Path_49018" d="M483.568 261.918a3.663 3.663 0 0 0 .752-2.642l-.181-.5c-3.4-6.1-29.169.96-29.533 10.482l.364 1.009a3.293 3.293 0 0 0 2.092 1.44c.393-7.745 22.769-15.174 26.506-9.789z" class="cls-11" data-name="Path 49018" transform="translate(-375.817 -245.412)"/>
            <ellipse id="Ellipse_3223" cx="15.669" cy="7.15" class="cls-11" data-name="Ellipse 3223" rx="15.669" ry="7.15" transform="rotate(-19.78 170.038 -224.675)"/>
            <path id="Path_49019" d="M497.511 294.715l-.234-.352a3.981 3.981 0 0 0-.809-.792 5.572 5.572 0 0 0-1.54-.753 10.327 10.327 0 0 0-2.194-.41 22.876 22.876 0 0 0-5.644.367 38.983 38.983 0 0 0-6.317 1.718l-.8.3-.765.3c-.512.216-1.026.424-1.524.656-1 .46-1.963.943-2.871 1.459a22.945 22.945 0 0 0-4.578 3.32 10.375 10.375 0 0 0-1.427 1.715 5.575 5.575 0 0 0-.706 1.561 3.951 3.951 0 0 0-.117 1.129l.044.417a4.024 4.024 0 0 1-.185-.385 3.569 3.569 0 0 1-.241-1.212 5.25 5.25 0 0 1 .334-1.928 8.811 8.811 0 0 1 1.188-2.23 14.511 14.511 0 0 1 1.944-2.231 21.3 21.3 0 0 1 2.552-2.053 25.879 25.879 0 0 1 3-1.77 26.558 26.558 0 0 1 1.619-.758l.844-.348.829-.316a28.247 28.247 0 0 1 6.882-1.557 21.253 21.253 0 0 1 3.274-.048 14.559 14.559 0 0 1 2.92.475 8.807 8.807 0 0 1 2.338.958 5.248 5.248 0 0 1 1.488 1.269 3.59 3.59 0 0 1 .59 1.089c.081.265.106.41.106.41z" class="cls-16" data-name="Path 49019" transform="translate(-382.792 -263.643)"/>
            <path id="Path_49020" d="M476.82 236.816l-.234-.352a3.959 3.959 0 0 0-.809-.792 5.572 5.572 0 0 0-1.54-.752 10.354 10.354 0 0 0-2.194-.411 22.877 22.877 0 0 0-5.644.367 38.938 38.938 0 0 0-6.317 1.718l-.8.295-.765.3c-.512.216-1.026.424-1.524.656-1 .46-1.963.943-2.87 1.458a22.959 22.959 0 0 0-4.578 3.32 10.354 10.354 0 0 0-1.427 1.715 5.572 5.572 0 0 0-.706 1.562 3.947 3.947 0 0 0-.117 1.129l.044.417a4.182 4.182 0 0 1-.185-.385 3.569 3.569 0 0 1-.241-1.212 5.258 5.258 0 0 1 .334-1.928 8.8 8.8 0 0 1 1.188-2.231 14.531 14.531 0 0 1 1.944-2.231 21.247 21.247 0 0 1 2.552-2.053 25.745 25.745 0 0 1 3-1.77 26.558 26.558 0 0 1 1.619-.758l.844-.348.829-.316a28.272 28.272 0 0 1 6.882-1.557 21.257 21.257 0 0 1 3.274-.048 14.526 14.526 0 0 1 2.92.475 8.809 8.809 0 0 1 2.338.957 5.248 5.248 0 0 1 1.488 1.27 3.57 3.57 0 0 1 .59 1.089c.08.27.105.416.105.416z" class="cls-16" data-name="Path 49020" transform="translate(-371.689 -232.572)"/>
        </g>
        <g id="Group_7534" data-name="Group 7534" transform="translate(247.191 172.042)">
            <path id="Path_49021" d="M419.132 357.161h56.711v-3.6a3.666 3.666 0 0 0-3.162-3.733c-19.889-1.784-29.514-1.725-50.385 0a3.656 3.656 0 0 0-3.163 3.733z" class="cls-15" data-name="Path 49021" transform="translate(-417.149 -348.507)"/>
            <path id="Rectangle_9482" d="M0 0h56.711v1.391H0z" class="cls-11" data-name="Rectangle 9482" transform="translate(1.983 5.004)"/>
            <path id="Rectangle_9483" d="M4.35 0h51.918a4.35 4.35 0 0 1 4.35 4.35v.962H0V4.35A4.35 4.35 0 0 1 4.35 0z" class="cls-15" data-name="Rectangle 9483" transform="translate(0 6.394)"/>
        </g>
        <path id="Path_49022" d="M103.912 376.768h212.024a1.487 1.487 0 0 0 1.487-1.487 1.488 1.488 0 0 0-1.487-1.488H103.912a1.488 1.488 0 0 0-1.488 1.488 1.487 1.487 0 0 0 1.488 1.487z" class="cls-7" data-name="Path 49022" transform="translate(0 -190.034)"/>
    </g>
</svg>
