<svg width="26" height="26" viewBox="0 0 26 26" fill="none" xmlns="http://www.w3.org/2000/svg">
<g clip-path="url(#clip0_10104_65323)">
<path d="M22.681 20.5112C21.9479 20.211 21.6343 19.8125 21.6646 19.218C21.6959 18.5241 21.3022 18.0158 21.1152 17.815C21.2281 17.3835 21.5582 15.8909 21.1155 14.5944C20.6398 13.2067 19.1873 11.0872 17.6886 9.00384C17.0751 8.14826 17.0461 7.21826 17.0125 6.14136C16.9804 5.11423 16.9442 3.94996 16.3714 2.65569C15.7486 1.24641 14.4989 0.438293 12.9426 0.438293C12.0168 0.438293 11.0664 0.72764 10.3351 1.23207C8.83757 2.2656 9.03553 4.51898 9.16651 6.01005C9.18446 6.21423 9.20135 6.4071 9.21118 6.57178C9.2984 8.03211 9.21905 8.80179 9.11528 9.03573C9.04815 9.1886 8.71766 9.62368 8.3679 10.0843C8.00618 10.5607 7.59609 11.1007 7.25994 11.6039C6.85887 12.2094 6.5351 13.1349 6.22198 14.0299C5.99288 14.6849 5.77649 15.3035 5.56583 15.6731C5.16657 16.3843 5.26591 17.0474 5.34886 17.3539C5.19771 17.4589 4.97935 17.6656 4.79501 18.0553C4.57222 18.5307 4.12017 18.7862 3.18016 18.9669C2.74819 19.0553 2.45032 19.2369 2.29458 19.5068C2.06794 19.8995 2.19138 20.3929 2.30401 20.7302C2.4704 21.2259 2.36671 21.5397 2.17818 22.1093C2.13474 22.2408 2.08548 22.3897 2.03556 22.5539C1.95695 22.813 1.98531 23.0485 2.11966 23.254C2.47466 23.7967 3.51057 23.9881 4.57697 24.114C5.2137 24.1896 5.91059 24.4443 6.58461 24.6907C7.24502 24.932 7.9279 25.1816 8.54864 25.2573C8.64298 25.2692 8.73643 25.2752 8.82651 25.2752C9.76373 25.2752 10.1872 24.6533 10.3214 24.3978C10.6581 24.3291 11.8192 24.1091 13.0158 24.0796C14.2106 24.0455 15.3666 24.2814 15.694 24.3548C15.797 24.5518 16.0684 25.0019 16.501 25.2338C16.7388 25.3638 17.0697 25.4383 17.4086 25.4383C17.4087 25.4383 17.4086 25.4383 17.4087 25.4383C17.7707 25.4383 18.4593 25.3527 19.0043 24.7794C19.5479 24.2033 20.9061 23.4679 21.8979 22.9309C22.1192 22.8111 22.3263 22.6989 22.5078 22.5977C23.065 22.2888 23.369 21.8475 23.3419 21.387C23.3192 21.0044 23.066 20.6688 22.681 20.5112ZM10.3473 20.4003C10.278 19.9118 9.64955 19.4273 8.92175 18.8663C8.32667 18.4075 7.65216 17.8876 7.46634 17.4473C7.08232 16.5389 7.38502 14.9417 7.91281 14.1192C8.17364 13.7074 8.38667 13.0829 8.59274 12.4789C8.8152 11.8268 9.04528 11.1525 9.30258 10.8574C9.71004 10.3966 10.0866 9.49991 10.1533 8.79327C10.5349 9.15753 11.1268 9.61975 11.6736 9.61975C11.7578 9.61975 11.8395 9.60876 11.9176 9.58671C12.2917 9.47868 12.8419 9.16073 13.3741 8.85335C13.8329 8.58827 14.3986 8.26138 14.6115 8.23162C14.9765 8.75573 17.0974 13.4493 17.3141 14.9566C17.4856 16.1492 17.3044 17.1351 17.2134 17.5213C17.1401 17.5113 17.0527 17.5032 16.9609 17.5032C16.3702 17.5032 16.2138 17.8256 16.173 18.0182C16.0683 18.5184 16.0572 20.118 16.0561 20.4774C15.8425 20.7488 14.7622 22.0269 13.2113 22.2566C12.5796 22.3484 11.9896 22.395 11.458 22.395C11.0036 22.395 10.7136 22.3599 10.5932 22.3416L9.81381 21.4499C10.1211 21.2982 10.4283 20.978 10.3473 20.4003ZM11.3363 5.69644C11.3119 5.70693 11.288 5.71816 11.2645 5.73013C11.2621 5.67734 11.2566 5.62382 11.2482 5.57013C11.1631 5.08037 10.8383 4.72488 10.4761 4.72488C10.4493 4.72488 10.4223 4.72693 10.3927 4.73144C10.1773 4.76734 10.0082 4.92922 9.91561 5.15873C9.99684 4.65512 10.2822 4.28225 10.6207 4.28225C11.0182 4.28225 11.3541 4.81799 11.3541 5.4521C11.3541 5.53202 11.3482 5.61152 11.3363 5.69644ZM14.4253 6.07407C14.4617 5.95817 14.4814 5.83276 14.4814 5.70259C14.4814 5.12767 14.1166 4.67726 13.651 4.67726C13.1959 4.67726 12.8256 5.13718 12.8256 5.70259C12.8256 5.74112 12.8275 5.77972 12.8311 5.81825C12.807 5.80898 12.7835 5.79997 12.7606 5.79128C12.7082 5.63267 12.6817 5.46718 12.6817 5.29824C12.6817 4.61078 13.121 4.05143 13.6612 4.05143C14.2013 4.05143 14.6407 4.61078 14.6407 5.29824C14.6407 5.58423 14.5618 5.85718 14.4253 6.07407ZM14.027 7.41211C14.0192 7.44686 14.0027 7.46227 13.8196 7.55752C13.7271 7.60564 13.612 7.66555 13.468 7.75326L13.3718 7.81154C12.9851 8.04597 12.0796 8.59507 11.8337 8.62728C11.6668 8.64974 11.5635 8.58499 11.3313 8.4272C11.2789 8.39154 11.2232 8.35367 11.1637 8.31556C10.7451 8.04088 10.4759 7.73834 10.4455 7.62006C10.5819 7.51457 10.9202 7.25055 11.0934 7.09424C11.445 6.76735 11.7987 6.54768 11.9738 6.54768C11.9831 6.54768 11.9914 6.54833 12.0001 6.54997C12.2059 6.58628 12.7133 6.78883 13.084 6.9367C13.2553 7.00506 13.4033 7.06407 13.5074 7.10145C13.8353 7.21408 14.0063 7.35818 14.027 7.41211ZM16.9735 22.6884C17.1585 21.8539 17.3716 20.7187 17.3371 20.0494C17.3292 19.8974 17.3157 19.7319 17.3027 19.5719C17.2784 19.2727 17.2422 18.828 17.2795 18.6961C17.2869 18.6927 17.2951 18.6897 17.3042 18.6872C17.3057 19.0698 17.3889 19.833 17.9992 20.0992C18.1811 20.1785 18.389 20.2187 18.617 20.2187C19.2284 20.2187 19.9067 19.9188 20.1846 19.6409C20.3482 19.4773 20.4858 19.2771 20.5822 19.1186C20.6033 19.1803 20.6163 19.261 20.6095 19.3649C20.5731 19.9292 20.8474 20.6779 21.3694 20.9538L21.4454 20.9938C21.6313 21.0913 22.125 21.3506 22.133 21.4735C22.1329 21.4736 22.1288 21.488 22.1013 21.5136C21.9776 21.6266 21.5423 21.8489 21.1213 22.0639C20.3745 22.4452 19.528 22.8775 19.1478 23.2773C18.6126 23.8406 18.0071 24.2189 17.6416 24.2189C17.5976 24.2189 17.5575 24.2134 17.5218 24.2021C17.1248 24.0783 16.798 23.5054 16.9735 22.6884ZM3.43975 20.5595C3.39926 20.37 3.36729 20.2204 3.40164 20.0755C3.42655 19.9681 3.95664 19.853 4.18303 19.8039C4.50132 19.7348 4.8305 19.6634 5.04574 19.5328C5.33681 19.3565 5.49444 19.0313 5.63345 18.7444C5.73411 18.5369 5.83805 18.3224 5.96173 18.252C5.9687 18.2479 5.97936 18.2432 5.99969 18.2432C6.23141 18.2432 6.71764 18.7303 6.99781 19.1663C7.06887 19.2762 7.20051 19.4965 7.35281 19.7515C7.8083 20.5136 8.432 21.5575 8.75774 21.9073C9.05126 22.2218 9.52643 22.8265 9.40955 23.3451C9.32397 23.7475 8.86839 24.0747 8.76093 24.1471C8.72192 24.1559 8.67364 24.1604 8.61684 24.1604C7.99339 24.1604 6.75928 23.6417 6.09624 23.363L5.99813 23.3218C5.62788 23.1666 5.02345 23.0688 4.43894 22.9742C3.97385 22.8989 3.33696 22.7958 3.23139 22.7027C3.14581 22.6067 3.24508 22.2947 3.33262 22.0193C3.39565 21.8215 3.46073 21.6169 3.49639 21.4027C3.54696 21.0611 3.48746 20.7829 3.43975 20.5595Z" fill="#87AB49"/>
</g>
<defs>
<clipPath id="clip0_10104_65323">
<rect width="25" height="25" fill="white" transform="translate(0.167969 0.438293)"/>
</clipPath>
</defs>
</svg>
