<svg width="225" height="201" viewBox="0 0 225 201" fill="none" xmlns="http://www.w3.org/2000/svg">
<path d="M176.043 21.6128C175.59 98.9824 112.982 161.59 35.6128 162.043C59.4951 192.24 98.5957 206.039 136.141 197.524C173.687 189.006 203.006 159.687 211.524 122.141C220.039 84.5957 206.24 45.4951 176.043 21.6128Z" fill="#CAD4EB"/>
<path d="M176.043 21.6125C136.26 -9.9084 79.1681 -6.61185 43.2781 29.2781C7.38815 65.1681 4.0916 122.26 35.6125 162.043C112.982 161.59 175.59 98.9821 176.043 21.6125Z" fill="#CAD4EB"/>
<path d="M162.274 41.3836C154.654 44.8317 150.448 40.764 145.034 44.8317C138.345 49.8657 135.656 62.9004 141.586 72.4163C145.783 79.1205 153.309 80.8025 161.806 82.6578C170.406 65.0151 175.221 45.7712 175.943 26.1569C173.436 32.755 168.564 38.183 162.274 41.3836Z" fill="#92A9CB"/>
<path d="M177.132 22.4681C176.821 23.7258 176.418 24.9582 175.928 26.1569C175.208 45.7712 170.391 65.0151 161.792 82.6579L162.274 82.7606C174.102 85.3466 178.688 79.8647 189.859 82.7606C194.842 84.19 199.518 86.5285 203.651 89.6567C208.441 93.6082 211.982 98.8662 213.84 104.791C213.916 103.202 213.995 101.612 213.995 100.001C214.022 69.9212 200.477 41.4359 177.132 22.4681Z" fill="#879EC1"/>
<path d="M110.553 141.378C117.38 148.929 119.173 161.688 114.001 168.962C109.795 174.894 104.037 172.858 100.209 179.307C97.3128 184.689 97.3128 191.166 100.209 196.547C100.741 197.52 101.375 198.431 102.103 199.268C106.051 199.744 110.024 199.987 114.001 199.995C150.465 200.005 184.04 180.159 201.614 148.208C195.342 144.013 185.545 138.462 176.066 137.93C166.352 136.98 156.607 139.416 148.482 144.826C138.311 152.274 136.311 162.826 131.241 162.066C127.655 161.549 125.69 155.756 124.345 151.722C121.266 142.536 122.936 136.32 122.907 131.168C118.697 134.537 114.297 137.662 109.73 140.526C110.085 140.874 110.378 141.183 110.553 141.378Z" fill="#879EC1"/>
<path d="M120.897 124.138C117.346 119.172 110.726 118.241 103.657 117.241C88.8307 115.172 83.0036 121.551 76.0721 117.241C70.4235 113.48 67.6792 106.623 69.176 100.001C72.0735 91.3471 84.7277 94.2783 100.209 82.7606C105.209 79.0718 117.104 70.2108 117.449 58.6241C117.794 47.2798 106.726 44.0388 103.657 31.0394C102.323 25.4397 104.812 12.5616 111.119 0.111145C73.9996 1.16005 40.5223 22.6987 24.1793 56.0414V56.0734C21.967 68.3235 22.0259 80.8766 24.351 93.1048C26.4555 107.002 28.385 119.62 38.1433 131.034C42.4197 136.068 49.0044 143.723 58.8317 144.826C69.7282 146.033 84.1064 139.068 86.4164 137.93C89.5058 135.901 93.0717 134.712 96.7606 134.482C101.69 134.797 106.32 136.953 109.73 140.526C114.297 137.662 118.697 134.537 122.907 131.168C123.024 128.668 122.318 126.198 120.897 124.138Z" fill="#92A9CB"/>
<path d="M86.4163 27.5913C86.4163 42.8316 58.8317 79.3125 58.8317 79.3125C58.8317 79.3125 41.6267 56.5548 34.3854 39.4879C32.6024 35.7536 31.5383 31.7179 31.2471 27.5913C31.2471 12.3578 43.5982 0.00671387 58.8317 0.00671387C74.0669 0.00671387 86.4163 12.3578 86.4163 27.5913Z" fill="#87AB49"/>
<path d="M69.176 24.1432C69.176 29.8558 64.5443 34.4875 58.8318 34.4875C53.1192 34.4875 48.4875 29.8558 48.4875 24.1432C48.4875 18.4307 53.1192 13.799 58.8318 13.799C64.5443 13.799 69.176 18.4307 69.176 24.1432Z" fill="#F1F2F2"/>
<path fill-rule="evenodd" clip-rule="evenodd" d="M22.6404 125.077C5.23481 142.752 -3.09196 157.877 1.85296 166.138C11.5762 182.383 68.9303 165.941 129.957 129.414C190.984 92.8867 232.573 50.1067 222.85 33.8619C218.501 26.5954 204.621 25.8691 185.145 30.5553L190.106 36.3205C202.355 32.8247 210.515 32.5261 212.686 36.153C218.625 46.0767 177.481 81.63 120.788 115.563C64.0944 149.497 13.3202 168.961 7.38042 159.037C5.11828 155.258 9.6854 147.761 19.3398 138.052L22.6404 125.077Z" fill="#87AB49"/>
<g clip-path="url(#clip0_1971_50538)">
<path d="M103.877 106.199C102.912 104.354 101.304 102.917 99.3523 102.156C86.3445 97.1566 73.5535 92.3849 61.0834 88.3137C59.8169 87.895 58.4475 87.895 57.181 88.3137C44.713 92.3742 31.9242 97.1373 18.9185 102.13C17.2044 102.806 15.7524 104.005 14.7734 105.555C14.8449 105.566 12.0981 114.063 11.632 132.84C11.3437 151.594 13.7024 157.22 13.6244 157.227C14.8991 161.35 17.2882 165.548 20.7136 169.815C24.5401 174.58 29.7107 179.502 35.9544 184.342C46.2956 192.384 55.9713 197.19 56.3767 197.36C57.2365 197.782 58.1833 198.002 59.143 198.002C60.1028 198.002 61.0495 197.782 61.9094 197.36C62.3169 197.19 72.0034 192.369 82.3381 184.329C88.584 179.487 93.7568 174.565 97.5855 169.802C101.254 165.232 103.734 160.748 104.933 156.344C104.885 156.344 106.619 149.445 106.379 133.65C106.073 117.863 103.853 106.208 103.877 106.199Z" fill="#87AB49"/>
<path d="M59.143 87.9999C58.48 87.9997 57.8213 88.1049 57.1919 88.3115C44.7239 92.372 31.935 97.1351 18.9294 102.128C17.211 102.802 15.7548 104.003 14.7734 105.555C14.8449 105.566 12.0981 114.063 11.632 132.84C11.3437 151.594 13.7024 157.22 13.6244 157.227C14.8991 161.35 17.2882 165.548 20.7136 169.815C21.708 171.054 22.792 172.303 23.9656 173.564C25.7997 173.728 27.6562 173.812 29.5351 173.815C62.8979 173.815 89.9455 147.011 89.9455 113.949C89.9497 108.466 89.1948 103.008 87.7017 97.7281C78.6959 94.355 69.8116 91.1624 61.0855 88.3136C60.459 88.1074 59.8032 88.0016 59.143 87.9999Z" fill="#9DC656"/>
<path d="M86.3164 132.324C77.1394 141.689 67.7065 151.495 58.4623 161.174C57.7119 161.963 56.8065 162.592 55.8017 163.022C54.7969 163.451 53.714 163.673 52.6196 163.672H52.5828C51.4875 163.66 50.4056 163.431 49.4005 163C48.3955 162.568 47.4873 161.942 46.7293 161.159C41.7798 156.082 36.7956 151.016 31.844 146.046C28.6766 142.875 28.7741 137.882 32.0478 134.782C35.3214 131.682 40.4812 131.665 43.6117 134.849C46.5544 137.835 49.5079 140.843 52.4722 143.872C59.8173 136.237 67.1906 128.541 74.3687 121.064C77.419 117.883 82.5181 117.921 85.8373 121.064C89.1564 124.208 89.3906 129.185 86.3164 132.324Z" fill="white"/>
</g>
<path d="M189.859 120.689C189.101 127.156 186.998 133.392 183.686 138.999C177.359 150.634 170.204 161.8 162.274 172.41C162.274 172.41 153.24 160.447 145.482 147.343C142.623 142.59 140.065 137.66 137.828 132.586C136.045 128.852 134.981 124.816 134.689 120.689C134.689 105.456 147.041 93.1047 162.274 93.1047C177.509 93.1047 189.859 105.456 189.859 120.689Z" fill="#FB1B43"/>
<path d="M172.618 117.241C172.618 122.954 167.986 127.585 162.274 127.585C156.561 127.585 151.93 122.954 151.93 117.241C151.93 111.529 156.561 106.897 162.274 106.897C167.986 106.897 172.618 111.529 172.618 117.241Z" fill="#F1F2F2"/>
<defs>
<clipPath id="clip0_1971_50538">
<rect width="111" height="110" fill="white" transform="translate(3.5 88)"/>
</clipPath>
</defs>
</svg>
