<svg width="220" height="171" viewBox="0 0 220 171" fill="none" xmlns="http://www.w3.org/2000/svg">
<path d="M214.598 0.0118408H5.75818C2.99675 0.0118408 0.758179 2.25042 0.758179 5.01184V165.034C0.758179 167.795 2.99675 170.034 5.75818 170.034H214.598C217.36 170.034 219.598 167.795 219.598 165.034V5.01184C219.598 2.25042 217.36 0.0118408 214.598 0.0118408Z" fill="#F4F6FA"/>
<path d="M27.6922 39.5719H191.822C192.938 39.5719 194.009 40.0152 194.798 40.8044C195.587 41.5935 196.03 42.6639 196.03 43.7799V64.8229C196.03 65.9389 195.587 67.0093 194.798 67.7984C194.009 68.5876 192.938 69.0309 191.822 69.0309H27.6922C26.5762 69.0309 25.5058 68.5876 24.7167 67.7984C23.9275 67.0093 23.4842 65.9389 23.4842 64.8229V43.7799C23.4842 42.6639 23.9275 41.5935 24.7167 40.8044C25.5058 40.0152 26.5762 39.5719 27.6922 39.5719V39.5719Z" fill="#D5D7DB"/>
<path d="M191.031 79.9728H28.4842C25.7228 79.9728 23.4842 82.2114 23.4842 84.9728V104.432C23.4842 107.193 25.7228 109.432 28.4842 109.432H191.031C193.793 109.432 196.031 107.193 196.031 104.432V84.9728C196.031 82.2114 193.793 79.9728 191.031 79.9728Z" fill="#D5D7DB"/>
<path d="M47.4182 93.4388H44.1592C42.5023 93.4388 41.1592 94.782 41.1592 96.4388V98.0138C41.1592 99.6707 42.5023 101.014 44.1592 101.014H47.4182C49.075 101.014 50.4182 99.6707 50.4182 98.0138V96.4388C50.4182 94.782 49.075 93.4388 47.4182 93.4388Z" fill="#787E8C"/>
<path d="M45.7882 97.4888C47.7924 97.4888 49.4172 95.8641 49.4172 93.8598C49.4172 91.8556 47.7924 90.2308 45.7882 90.2308C43.7839 90.2308 42.1592 91.8556 42.1592 93.8598C42.1592 95.8641 43.7839 97.4888 45.7882 97.4888Z" stroke="#787E8C" stroke-width="2"/>
<path d="M45.6912 53.8807H45.8852C46.4804 53.8806 47.0698 53.9977 47.6198 54.2254C48.1698 54.4531 48.6695 54.7869 49.0904 55.2078C49.5114 55.6286 49.8453 56.1283 50.0731 56.6782C50.3009 57.2281 50.4182 57.8175 50.4182 58.4127C50.4182 58.7733 50.275 59.119 50.0202 59.374C49.7654 59.6291 49.4197 59.7725 49.0592 59.7727H42.5192C42.1585 59.7727 41.8126 59.6295 41.5575 59.3744C41.3025 59.1194 41.1592 58.7734 41.1592 58.4127C41.1592 57.2108 41.6367 56.058 42.4866 55.2081C43.3365 54.3582 44.4892 53.8807 45.6912 53.8807V53.8807Z" fill="#787E8C"/>
<path d="M46.2092 52.6907C47.6037 52.6907 48.7342 51.5603 48.7342 50.1657C48.7342 48.7712 47.6037 47.6407 46.2092 47.6407C44.8147 47.6407 43.6842 48.7712 43.6842 50.1657C43.6842 51.5603 44.8147 52.6907 46.2092 52.6907Z" fill="#787E8C"/>
<path d="M153.105 52.1969H67.2522C65.8577 52.1969 64.7272 53.3274 64.7272 54.7219C64.7272 56.1164 65.8577 57.2469 67.2522 57.2469H153.105C154.5 57.2469 155.63 56.1164 155.63 54.7219C155.63 53.3274 154.5 52.1969 153.105 52.1969Z" fill="black"/>
<path d="M153.105 92.5978H67.2522C65.8577 92.5978 64.7272 93.7283 64.7272 95.1228C64.7272 96.5173 65.8577 97.6478 67.2522 97.6478H153.105C154.5 97.6478 155.63 96.5173 155.63 95.1228C155.63 93.7283 154.5 92.5978 153.105 92.5978Z" fill="black"/>
<path d="M148.63 127.107H71.7272C67.8612 127.107 64.7272 130.241 64.7272 134.107V143.674C64.7272 147.54 67.8612 150.674 71.7272 150.674H148.63C152.496 150.674 155.63 147.54 155.63 143.674V134.107C155.63 130.241 152.496 127.107 148.63 127.107Z" fill="#71B00A"/>
<path d="M103.865 141.446H110.975V144.452L116.491 138.936L110.975 133.42V136.426H103.865" stroke="white" stroke-width="2" stroke-miterlimit="10" stroke-linecap="round" stroke-linejoin="round"/>
<path d="M179.196 53.7557L182.107 56.6678L185.93 52.1957" stroke="#71B00A" stroke-width="3" stroke-linecap="round" stroke-linejoin="round"/>
<path d="M179.196 94.1569L182.107 97.069L185.93 92.5968" stroke="#71B00A" stroke-width="3" stroke-linecap="round" stroke-linejoin="round"/>
</svg>
