<svg width="25" height="25" viewBox="0 0 25 25" fill="none" xmlns="http://www.w3.org/2000/svg">
<g clip-path="url(#clip0_10104_65315)">
<path d="M6.9775 18.0453C6.4915 17.7838 6.3105 17.1768 6.5725 16.6903C6.8345 16.2038 7.441 16.0228 7.9275 16.2848C9.07399 16.9033 10.3475 17.2783 11.6515 17.3943C11.7155 16.1338 11.9135 15.0413 12.1035 14.2503H9.52199V13.2503C9.52199 10.2288 11.5805 5.00478 12.4655 2.89728H2.5C1.4 2.89728 0.5 3.79728 0.5 4.89728V20.9783C0.5 22.0783 1.4 22.9783 2.5 22.9783H12.4475C12.0015 21.7608 11.765 20.5473 11.676 19.4043C10.0315 19.2878 8.42199 18.8253 6.9775 18.0453ZM6.5935 8.31928C6.5935 7.84478 6.9785 7.45978 7.453 7.45978C7.9275 7.45978 8.31249 7.84428 8.31249 8.31928V9.56928C8.31249 10.0438 7.928 10.4288 7.453 10.4288C6.9785 10.4288 6.5935 10.0438 6.5935 9.56928V8.31928Z" fill="#87AB49"/>
<path d="M22.5007 2.89728H14.6422C14.3062 3.66428 12.0357 8.92928 11.5957 12.2503H14.8772L14.3712 13.6008C14.3612 13.6268 13.7962 15.2008 13.6652 17.3623C14.9282 17.2088 16.1542 16.8103 17.2592 16.1823C17.7392 15.9088 18.3507 16.0768 18.6232 16.5573C18.8962 17.0373 18.7282 17.6478 18.2482 17.9208C16.8477 18.7178 15.2887 19.2063 13.6847 19.3703C13.7722 20.3928 13.9867 21.4698 14.4072 22.5338C14.4652 22.6803 14.4817 22.8318 14.4707 22.9788H22.4997C23.5997 22.9788 24.4997 22.0788 24.4997 20.9788V4.89728C24.5007 3.79728 23.6007 2.89728 22.5007 2.89728ZM18.6142 9.58478C18.6142 10.0593 18.2287 10.4443 17.7542 10.4443C17.2802 10.4443 16.8947 10.0593 16.8947 9.58478V8.33478C16.8947 7.86028 17.2792 7.47528 17.7542 7.47528C18.2287 7.47528 18.6142 7.86028 18.6142 8.33478V9.58478Z" fill="#87AB49"/>
</g>
<defs>
<clipPath id="clip0_10104_65315">
<rect width="24" height="24" fill="white" transform="translate(0.5 0.938293)"/>
</clipPath>
</defs>
</svg>
