<svg width="50" height="51" viewBox="0 0 50 51" fill="none" xmlns="http://www.w3.org/2000/svg">
<path d="M4.16667 1.65155C4.01357 1.64937 3.86074 1.66688 3.71094 1.70378C1.62679 1.97219 0 4.01007 0 6.51414V45.4148C0 47.9205 1.62892 49.9589 3.71501 50.2252C3.86348 50.2618 4.01493 50.2793 4.16667 50.2774H29.1667H45.8333C48.1105 50.2774 50 48.0724 50 45.4148V6.51414C50 3.85658 48.1105 1.65155 45.8333 1.65155H27.0833H4.16667ZM24.7681 6.51414H45.8333V45.4148H28.536C28.3404 43.8562 28.1429 42.2899 27.9338 40.3528C26.9963 40.4768 26.0208 40.5523 25 40.5523C16.2667 40.5523 10.4326 35.4051 10.1888 35.1863C9.2763 34.367 9.10423 32.8393 9.80631 31.7768C10.5063 30.7119 11.8113 30.5112 12.7238 31.3257C12.8175 31.4059 17.7708 35.6897 25 35.6897C25.8583 35.6897 26.6743 35.6233 27.4618 35.5187C27.2388 32.9002 27.0833 30.3773 27.0833 28.3958H22.2616C21.4782 28.3958 20.8308 27.6314 20.8537 26.7148C21.0774 17.5386 23.0877 10.7285 24.7681 6.51414ZM27.4618 35.5187C27.5993 37.1282 27.7629 38.77 27.9338 40.3528C35.0171 39.4119 39.5945 35.3808 39.8112 35.1863C40.7216 34.367 40.8958 32.8393 40.1937 31.7768C39.4916 30.7095 38.1825 30.5135 37.2721 31.3304C37.2305 31.3693 33.4013 34.731 27.4618 35.5187ZM37.4674 13.7748C36.9156 13.7848 36.3898 14.05 36.0053 14.5121C35.6208 14.9741 35.4091 15.5953 35.4167 16.2393V18.6706C35.4128 18.9928 35.4638 19.3127 35.5667 19.6116C35.6697 19.9106 35.8225 20.1827 36.0163 20.4121C36.2102 20.6416 36.4412 20.8238 36.6959 20.9481C36.9506 21.0725 37.2239 21.1365 37.5 21.1365C37.7761 21.1365 38.0494 21.0725 38.3041 20.9481C38.5588 20.8238 38.7898 20.6416 38.9837 20.4121C39.1775 20.1827 39.3303 19.9106 39.4333 19.6116C39.5362 19.3127 39.5872 18.9928 39.5833 18.6706V16.2393C39.5871 15.914 39.535 15.5912 39.43 15.2898C39.3249 14.9885 39.1691 14.7148 38.9719 14.485C38.7746 14.2552 38.5397 14.0739 38.2813 13.9519C38.0229 13.8299 37.7462 13.7697 37.4674 13.7748ZM12.5 13.808C13.65 13.808 14.5833 14.8948 14.5833 16.2393V18.6706C14.5833 20.0151 13.65 21.1019 12.5 21.1019C11.35 21.1019 10.4167 20.0151 10.4167 18.6706V16.2393C10.4167 14.8948 11.35 13.808 12.5 13.808Z" fill="#1C2129"/>
</svg>
