<svg xmlns="http://www.w3.org/2000/svg" width="444" height="444" viewBox="0 0 444 444"><g transform="translate(-139 -3856)"><circle cx="154.476" cy="154.476" r="154.476" transform="translate(206.523 3923.523)" fill="#fff" opacity="0.096"/><circle cx="222" cy="222" r="222" transform="translate(139 3856)" fill="#fff" opacity="0.096"/><g transform="translate(-122.877 3946.093)"><g transform="translate(481.622 30.486)"><g transform="translate(0 46.96)"><path d="M531.748,88.637a10.258,10.258,0,0,1-13.171-5.1l-14.452,5.975V73.382l8.752-3.616a10.25,10.25,0,0,1,19.092-7.455,10.094,10.094,0,0,1,.127,7.509,10.26,10.26,0,0,1-.348,18.817Z" transform="translate(-418.05 -55.98)" fill="rgba(0,0,0,0.29)"/><path d="M504.953,89.256,470.17,103.614a10.243,10.243,0,0,1-19.111,7.365,10.091,10.091,0,0,1-.126-7.51,10.257,10.257,0,1,1,13.553-13.646l20.937-8.641,2.153-.894h34.732l2.154.894Z" transform="translate(-444.929 -44.943)" fill="rgba(0,0,0,0.29)"/></g><g transform="translate(0 46.96)"><path d="M543.785,97.611a10.262,10.262,0,0,1-5.226,5.425,10.1,10.1,0,0,1-.127,7.51,10.244,10.244,0,0,1-19.112-7.365L489.89,91.033l15.365-9.792,19.73,8.166a10.258,10.258,0,0,1,18.8,8.2Z" transform="translate(-424.514 -44.51)" fill="rgba(0,0,0,0.29)"/><path d="M478.921,73.382v16.15L464.45,83.54a10.252,10.252,0,1,1-13.517-13.72,10.087,10.087,0,0,1,.126-7.509,10.249,10.249,0,0,1,19.09,7.455Z" transform="translate(-444.929 -55.98)" fill="rgba(0,0,0,0.29)"/></g><path d="M497.31,23.684a35.55,35.55,0,0,0-23.291,62.408v17.154h4.2v-6.63h4.747v6.63h3.674v-6.63h4.75v6.63h3.67v-6.63h4.75v6.63h3.674v-6.63h4.747v6.63h3.673v-6.63h4.752v6.63h3.964V86.092A35.551,35.551,0,0,0,497.31,23.684ZM482.861,73.595a12.112,12.112,0,1,1,12.112-12.112A12.118,12.118,0,0,1,482.861,73.595ZM497.8,78.711l-5.315,4.621,5.315-14.1,5.48,14.1Zm15.035-5.117a12.112,12.112,0,1,1,12.13-12.112A12.117,12.117,0,0,1,512.838,73.595Z" transform="translate(-437.286 -23.684)" fill="rgba(0,0,0,0.29)"/></g><g transform="translate(364.193 8.704)"><path d="M480.177,53.582c0,5.76-2.617,10.682-6.353,12.775-1.851,11.816-7.071,21.991-14.293,28.747-5.832,5.463-12.97,8.657-20.667,8.657-8.483,0-16.267-3.893-22.4-10.386-6.248-6.631-10.767-15.986-12.495-26.7-4.066-1.87-7-7.017-7-13.091,0-6.808,3.683-12.479,8.548-13.6,5.134-17.645,18.139-30.178,33.34-30.178,15.273,0,28.306,12.62,33.4,30.353C476.808,41.61,480.177,47.073,480.177,53.582Z" transform="translate(-349.273 -8.203)" fill="#f4d2ae"/><path d="M541.62,131.513H364.171s6.334-22.219,9.6-34.471c3.247-12.165,9.39-13.089,9.39-13.089l42.027-10.645c.174.558.368,1.1.579,1.623a29.076,29.076,0,0,0,54.263,0c.211-.526.4-1.064.577-1.623L522.63,83.952s6.075.942,9.393,13.089C535.372,109.331,541.62,131.513,541.62,131.513Z" transform="translate(-364.168 20.629)" fill="#364d7b"/><path d="M460.794,77.666a29.076,29.076,0,0,1-54.263,0l5.6-2.008V67.28c6.129,6.494,13.912,10.386,22.4,10.386,7.7,0,14.834-3.195,20.667-8.657v7.052Z" transform="translate(-344.934 17.893)" fill="#e0bb9b"/><path d="M471.111,49.219c0,.521,0,1.022-.035,1.544H443.5c-1.562-2.888-4.1-4.771-6.952-4.771s-5.408,1.883-6.953,4.771H402c-.035-.522-.035-1.024-.035-1.544a56.986,56.986,0,0,1,2.872-18.055h63.4A57.07,57.07,0,0,1,471.111,49.219Z" transform="translate(-347.007 1.494)" fill="#364d7b"/><path d="M426.13,39.9A12.135,12.135,0,0,1,407.937,38.5,12.135,12.135,0,0,1,426.13,39.9Z" transform="translate(-344.296 3.256)" fill="#fff"/><path d="M430.656,39.9a12.132,12.132,0,0,0,18.19-1.394,12.131,12.131,0,0,0-18.19,1.394Z" transform="translate(-333.98 3.256)" fill="#fff"/><path d="M466.448,27.2H404.169c7.349-11.294,18.568-18.5,31.14-18.5S459.086,15.91,466.448,27.2Z" transform="translate(-346.007 -8.702)" fill="#a8c2c7"/><path d="M473.571,27.634a6.206,6.206,0,0,1-3.626,5.65,5.979,5.979,0,0,1-2.6.573H406.9a6.215,6.215,0,1,1,0-12.429h60.448A6.205,6.205,0,0,1,473.571,27.634Z" transform="translate(-347.593 -2.927)" fill="#bbd7d9"/><path d="M479.739,41.136a171.328,171.328,0,0,0-82.534,0c1.013-5.185,4.205-9.179,8.215-10.106.142-.49.281-.96.439-1.429a6.22,6.22,0,0,0,2.617.574h60.445a5.879,5.879,0,0,0,2.6-.574.446.446,0,0,0,.119-.071c.195.541.369,1.117.525,1.677C475.867,32.392,478.779,36.232,479.739,41.136Z" transform="translate(-349.169 0.752)" fill="#b3b3b3"/><path d="M453.691,8.7V160.846H364.169s6.337-22.219,9.6-34.471c3.247-12.165,9.39-13.089,9.39-13.089l42.027-10.645c.174.558.368,1.1.579,1.623l5.6-2.008V93.877c-6.248-6.631-10.769-15.986-12.495-26.7-4.066-1.87-7-7.017-7-13.091a19.067,19.067,0,0,1,.333-3.491l.1-.471c.054-.262.122-.523.195-.768.016-.087.035-.157.049-.244.089-.244.159-.473.228-.7a14.679,14.679,0,0,1,1.691-3.474,3.909,3.909,0,0,1,.387-.558,4.805,4.805,0,0,1,.47-.592,5.764,5.764,0,0,1,.417-.474,10.665,10.665,0,0,1,2.233-1.831,6.676,6.676,0,0,1,.664-.35l.035-.035a7.263,7.263,0,0,1,.787-.314.283.283,0,0,1,.087-.033,7.137,7.137,0,0,1,.87-.263c.142-.49.281-.96.439-1.429a6.668,6.668,0,0,1-.941-.542,6.258,6.258,0,0,1-2.671-5.1,6.218,6.218,0,0,1,6.229-6.213h-1.15c7.349-11.292,18.57-18.5,31.134-18.5Z" transform="translate(-364.169 -8.704)" fill="#b3b3b3" opacity="0.2"/><rect width="133.083" height="86.396" rx="2.401" transform="translate(22.186 106.763)" fill="#c4c4c4"/><path d="M512.511,85.619v7.417a3.5,3.5,0,0,0-3.491-3.491h-126.1a3.492,3.492,0,0,0-3.49,3.491V85.619a3.491,3.491,0,0,1,3.49-3.491h126.1A3.5,3.5,0,0,1,512.511,85.619Z" transform="translate(-357.241 24.635)" fill="#f5f5f5"/></g><path d="M472.091,142.649a69.115,69.115,0,0,1-11.125,9.873,32.063,32.063,0,0,1-42.458,23.7l-22.449,28.194A10.059,10.059,0,1,1,380.31,191.9l22.451-28.209c-.233-.349-.451-.712-.669-1.076a68.9,68.9,0,0,1-32.106-19.964,68.762,68.762,0,0,1,39.886-21.709h.013a32,32,0,0,1,47.562,9.48A68.821,68.821,0,0,1,472.091,142.649Z" transform="translate(2.665 47.885)" fill="rgba(22,23,25,0.2)"/><g transform="translate(364.116 153.235)"><path d="M466.224,134.76a68.957,68.957,0,0,1-102.108,0,68.933,68.933,0,0,1,102.108,0Z" transform="translate(-364.116 -106.267)" fill="#fff"/><path d="M417.766,133.485a18.541,18.541,0,0,1-18.538,18.538V114.947A18.533,18.533,0,0,1,417.766,133.485Z" transform="translate(-348.173 -104.995)" fill="#7cc6c9"/><path d="M405.017,114.947v37.076a18.538,18.538,0,1,1,0-37.076Z" transform="translate(-353.962 -104.995)" fill="#47b4bb"/><path d="M411.3,130.569a9.2,9.2,0,1,1-9.2-9.2A9.2,9.2,0,0,1,411.3,130.569Z" transform="translate(-351.046 -102.08)" fill="#49444f"/><path d="M402.1,121.37v9.2h-9.2A9.19,9.19,0,0,1,402.1,121.37Z" transform="translate(-351.046 -102.078)" fill="#fff"/><path d="M441.109,115.077a32.023,32.023,0,0,0-46.761,42.556l-22.455,28.2a10.061,10.061,0,0,0,15.749,12.525l22.452-28.19a32.02,32.02,0,0,0,31.015-55.093Zm-2.175,39.2a22.674,22.674,0,0,1-22.595,8.041,22.331,22.331,0,0,1-9.328-4.413,22.72,22.72,0,1,1,31.922-3.628Z" transform="translate(-361.576 -108.102)" fill="#364d7b"/><path d="M429.96,151.366a22.674,22.674,0,0,1-22.595,8.041,22.331,22.331,0,0,1-9.328-4.413,22.72,22.72,0,1,1,31.922-3.628Z" transform="translate(-352.603 -105.196)" fill="#a5dae1" opacity="0.68"/></g><g transform="translate(467.262 150.222)"><path d="M571.617,182.838a3.708,3.708,0,0,1-3.872,3.52H444.188a3.71,3.71,0,0,1-3.871-3.52V109.549a3.709,3.709,0,0,1,3.871-3.519H567.745a3.707,3.707,0,0,1,3.872,3.519Z" transform="translate(-432.663 -106.03)" fill="#595360"/><rect width="120.114" height="66.73" transform="translate(13.249 6.637)" fill="#f85427"/><path d="M581.667,170.648H435.053l6.6-9.374h133.4Z" transform="translate(-435.053 -80.946)" fill="#dce7e8"/><path d="M581.667,167.721c0,4.015-2.971,7.259-6.625,7.259H441.666c-3.657,0-6.613-3.244-6.613-7.259Z" transform="translate(-435.053 -78.019)" fill="#595360"/><g transform="translate(47.801 18.019)"><path d="M525.063,163.3a2.615,2.615,0,0,1-1.762.643,3.034,3.034,0,0,1-2.468-.931l-6.639-10.069,6.684,11.521a4,4,0,0,1-1.458,5.473,4.01,4.01,0,0,1-5.473-1.457l-7.3-12.585c-.84-1.131-2.114-.3-1.659,1.067l3.728,13.985a4.01,4.01,0,0,1-2.849,4.907,4.273,4.273,0,0,1-1.032.135,4.012,4.012,0,0,1-3.872-2.974l-4.141-15.564a2.308,2.308,0,0,0-.336-.6,1.116,1.116,0,0,0-.923-.439,1.158,1.158,0,0,0-.868.343,1.736,1.736,0,0,0-.422,1.089L493.2,176.424c-.128,2.213-.023,7.9-4.23,7.9-3.807,0-3.785-6-3.785-8.119,0-.073,0-.154.006-.234l.33-18.074c-.113-1.253-.8-.852-1.492-.042l-8.134,9.482c-1.579,2.1-3.959,3.408-6.229,2.726-1.483-.448-1.74-1.178-1.74-2.619a7.92,7.92,0,0,1,1.4-3.666l4.97-8.839a81.585,81.585,0,0,0,4.394-9.668c.3-.768.592-1.5.846-2.146.673-1.71,1.115-2.879,1.115-2.888l.714-5.857a15.432,15.432,0,0,1,29.386-4.435l.023.065.358.881.033.08.57,1.4a52.018,52.018,0,0,0,2.725,8.464c.321.8.666,1.594,1.019,2.364C520.4,154.011,527.132,161.923,525.063,163.3Z" transform="translate(-467.927 -117.322)" fill="#f6b88c"/><path d="M513.646,138.191a19.467,19.467,0,0,1-.967,6.107c-.353-.771-.7-1.562-1.019-2.364a18.487,18.487,0,0,0,.387-3.743,18.168,18.168,0,1,0-35.312,6.029c-.254.647-.544,1.378-.846,2.146a19.467,19.467,0,0,1-1.781-8.175,19.769,19.769,0,1,1,39.539,0Z" transform="translate(-465.121 -118.422)" fill="#fff"/><path d="M511.546,137.69a18.488,18.488,0,0,1-.387,3.743,52.018,52.018,0,0,1-2.725-8.464l-.57-1.4-.033-.08-.358-.881-.023-.065a15.432,15.432,0,0,0-29.386,4.435l-.714,5.857c0,.009-.442,1.178-1.115,2.888a18.169,18.169,0,1,1,35.312-6.029Z" transform="translate(-464.621 -117.92)" fill="#1a1a1a"/></g><path d="M513.644,110.6v31.143a19.767,19.767,0,1,0-39.534,0V110.6Z" transform="translate(-417.319 -103.955)" fill="#e5e5e5"/><path d="M551.266,153.232v27.541a3.7,3.7,0,0,1-3.876,3.509H485.138c.177-1.239.19-2.434.246-3.2l.221-3.754.836-14.811a1.847,1.847,0,0,1,.429-1.1,1.189,1.189,0,0,1,.867-.346,1.094,1.094,0,0,1,.918.439,2.3,2.3,0,0,1,.345.595l4.045,15.22.1.345a4.013,4.013,0,0,0,3.875,2.984,4.477,4.477,0,0,0,1.029-.138,4.032,4.032,0,0,0,2.931-3.19,4.248,4.248,0,0,0-.083-1.719l-3.725-13.985c-.455-1.377.813-2.2,1.649-1.073l7.3,12.582a3.986,3.986,0,0,0,3.477,2.008,4.133,4.133,0,0,0,2.01-.535,4.037,4.037,0,0,0,1.455-5.488L506.369,157.6l6.639,10.065a3.049,3.049,0,0,0,2.478.934,2.593,2.593,0,0,0,1.757-.646c2.065-1.373-4.657-9.294-9.582-20.1a19.465,19.465,0,0,0,.977-6.107V110.6Z" transform="translate(-412.312 -103.954)" fill="#b3b3b3" opacity="0.84"/><path d="M484.684,164.885a23.892,23.892,0,0,0,.193,3.426h-6.254l-6.949-6.959-2.654-2.654.138.041c2.27.688,4.649-.619,6.229-2.721l8.143-9.478c.685-.81,1.374-1.223,1.483.029l-.273,14.782-.057,3.3Z" transform="translate(-419.63 -87.983)" fill="#b3b3b3" opacity="0.84"/><path d="M560.467,170.647H491.575l-9.831-4.841a2.957,2.957,0,0,0,.963.151,3.536,3.536,0,0,0,3.437-2.53l40.539-2.158h27.171Z" transform="translate(-413.853 -80.948)" fill="#b3b3b3" opacity="0.84"/><g transform="translate(22.932 16.168)"><path d="M461.251,137.747l-10.427-17.782,4.791-2.816,10.43,17.786,3.247,6.347-4.089,2.393Zm8.226,14.03-2.827-4.822,4.794-2.814,2.824,4.819Z" transform="translate(-450.824 -117.149)" fill="#fff"/></g><g transform="translate(44.184 19.625)"><path d="M469.167,134.46l-3.727-13.925,3.759-1.008,3.724,13.931,1.008,4.88-3.2.856Zm2.933,10.99-1-3.776,3.756-1.006,1.008,3.776Z" transform="translate(-465.44 -119.527)" fill="#fff"/></g><g transform="translate(15.778 39.353)"><path d="M456.756,146.335,445.9,136.025l2.776-2.931,10.856,10.315,3.541,3.775-2.372,2.5Zm8.561,8.135-2.94-2.795,2.78-2.928,2.94,2.795Z" transform="translate(-445.904 -133.094)" fill="#fff"/></g><g transform="translate(108.608 27.133)"><path d="M515.811,142.432l-2.735-1.6,2.171-4.246,6.978-11.9,3.2,1.886-6.977,11.891Zm-6.065,3.539,1.89-3.227,3.206,1.883-1.89,3.225Z" transform="translate(-509.746 -124.69)" fill="#fff"/></g><g transform="translate(99.994 12.525)"><path d="M510.316,139.521l-4.055-1.079,1.277-6.174,4.708-17.625L517,115.919l-4.713,17.617Zm-6.494,6.645,1.275-4.777,4.75,1.269-1.275,4.779Z" transform="translate(-503.822 -114.644)" fill="#fff"/></g><g transform="translate(111.943 46.236)"><path d="M517.811,147.781l-1.279-2.268,3.293-2.117,9.879-5.568,1.495,2.665-9.872,5.565Zm-5.771,0,2.673-1.508,1.5,2.662-2.674,1.508Z" transform="translate(-512.04 -137.828)" fill="#fff"/></g></g></g></g></svg>