<svg width="26" height="26" viewBox="0 0 26 26" fill="none" xmlns="http://www.w3.org/2000/svg">
<path fill-rule="evenodd" clip-rule="evenodd" d="M24.2627 17.713C23.3599 19.9609 21.8305 21.8936 19.8662 23.2871C19.4157 23.6067 18.7992 23.4481 18.5164 22.9738L16.9208 20.297C16.638 19.8226 16.7986 19.2137 17.231 18.8701C18.2407 18.0678 19.0302 17.0136 19.5151 15.8063C20.1248 14.2881 20.2192 12.6118 19.7837 11.0348C19.3482 9.45783 18.4069 8.06748 17.1045 7.07738C15.8021 6.08728 14.2107 5.55223 12.5747 5.55442C10.9387 5.55662 9.34863 6.09595 8.0489 7.08954C6.74917 8.08313 5.81165 9.476 5.38038 11.0541C4.94912 12.6323 5.04798 14.3084 5.66178 15.8249C6.14991 17.0309 6.94223 18.0829 7.95413 18.8826C8.38745 19.225 8.54965 19.8335 8.26814 20.3086L6.67973 22.9896C6.39822 23.4648 5.7821 23.625 5.33079 23.3066C3.36271 21.9184 1.8281 19.9898 0.919279 17.7444C-0.11499 15.189 -0.281575 12.3647 0.445119 9.70548C1.17181 7.04624 2.75158 4.69918 4.94169 3.02494C7.13179 1.3507 9.81105 0.441907 12.5678 0.438206C15.3245 0.434504 18.0062 1.3361 20.2008 3.00445C22.3954 4.67281 23.9815 7.01561 24.7153 9.67289C25.4491 12.3302 25.2901 15.1549 24.2627 17.713ZM16.4426 13.0228C16.4426 14.2662 15.8543 15.3723 14.9409 16.0778C14.5907 16.3484 14.3632 16.773 14.4405 17.2088L15.6913 24.2638C15.7999 24.8764 15.3288 25.4384 14.7067 25.4384H10.8481C10.2369 25.4384 9.76872 24.895 9.85906 24.2906L10.9039 17.3006C10.9703 16.8562 10.7233 16.4326 10.3567 16.1729C9.37035 15.474 8.72656 14.3236 8.72656 13.0228C8.72656 10.892 10.4539 9.16476 12.5846 9.16476C14.7153 9.16476 16.4426 10.892 16.4426 13.0228Z" fill="#87AB49"/>
</svg>
