<svg width="50" height="51" viewBox="0 0 50 51" fill="none" xmlns="http://www.w3.org/2000/svg">
<g clip-path="url(#clip0_7617_123997)">
<path d="M11.525 30.9689V30.8626C11.1469 29.3122 10.9375 27.6712 10.9375 25.9708C10.9375 24.2704 11.1469 22.6294 11.525 21.079V20.9727C13.8312 11.061 22.8344 3.47482 33.8531 2.61524C31.0938 1.56499 28.1188 0.964844 25 0.964844C11.2156 0.964844 0 12.1831 0 25.9708C0 39.7584 11.2156 50.9767 25 50.9767C28.1188 50.9767 31.0937 50.3766 33.85 49.3263C22.8344 48.4699 13.8312 40.8806 11.525 30.9689Z" fill="url(#paint0_linear_7617_123997)"/>
<path d="M40.0094 6.01903C38.6875 5.78773 37.3281 5.65332 35.9375 5.65332C31.6375 5.65332 27.6375 6.8286 24.25 8.82595C24.5 8.81032 24.7469 8.77906 25 8.77906C32.7656 8.77906 39.0625 16.4746 39.0625 25.9707C39.0625 35.4667 32.7656 43.1622 25 43.1622C24.7469 43.1622 24.5 43.131 24.25 43.1154C27.6344 45.1127 31.6375 46.288 35.9375 46.288C37.3281 46.288 38.6875 46.1536 40.0094 45.9223C46.0625 41.3524 50 34.1226 50 25.9707C50 17.8187 46.0625 10.5889 40.0094 6.01903Z" fill="url(#paint1_linear_7617_123997)"/>
</g>
<defs>
<linearGradient id="paint0_linear_7617_123997" x1="16.9266" y1="0.964844" x2="16.9266" y2="50.9767" gradientUnits="userSpaceOnUse">
<stop stop-color="#FF152E"/>
<stop offset="0.524914" stop-color="#FF1A2E"/>
<stop offset="1" stop-color="#AA000E"/>
</linearGradient>
<linearGradient id="paint1_linear_7617_123997" x1="37.125" y1="5.65332" x2="37.125" y2="46.288" gradientUnits="userSpaceOnUse">
<stop stop-color="#9A0103"/>
<stop offset="0.518714" stop-color="#E33735"/>
<stop offset="0.970934" stop-color="#FF4C4D"/>
</linearGradient>
<clipPath id="clip0_7617_123997">
<rect width="50" height="50.0119" fill="white" transform="translate(0 0.964844)"/>
</clipPath>
</defs>
</svg>
