<svg width="341" height="22" viewBox="0 0 341 22" fill="none" xmlns="http://www.w3.org/2000/svg">
<path fill-rule="evenodd" clip-rule="evenodd" d="M168.553 21.4858C169.771 21.4858 170.941 21.2751 172.027 20.8881C177.864 18.8077 183.159 13.1796 189.356 13.1796L309.485 13.1796C315.682 13.1796 320.976 18.8077 326.814 20.8881C327.9 21.2751 329.069 21.4858 330.288 21.4858C336.002 21.4858 340.634 16.8537 340.634 11.1396C340.634 5.4256 336.002 0.793457 330.288 0.793457C329.063 0.793457 327.888 1.00634 326.797 1.39713C321.421 3.32348 316.497 8.09985 310.787 8.09985L188.054 8.09985C182.343 8.09985 177.419 3.32348 172.043 1.39713C170.953 1.00634 169.778 0.793457 168.553 0.793457C162.839 0.793457 158.207 5.4256 158.207 11.1396C158.207 16.8537 162.839 21.4858 168.553 21.4858Z" fill="#87AB49"/>
<path d="M331.375 9.39064L333.429 7.05064V5.68564H327.059V7.37564H330.933L329.061 9.49464V10.8856H330.023C331.219 10.8856 331.726 11.3146 331.726 12.0036C331.726 12.7446 331.076 13.1736 330.023 13.1736C329.074 13.1736 328.112 12.8746 327.423 12.3546L326.604 13.9666C327.488 14.5906 328.801 14.9416 330.075 14.9416C332.662 14.9416 333.845 13.5376 333.845 12.0036C333.845 10.6646 333.013 9.65064 331.375 9.39064Z" fill="white"/>
<path d="M166.457 6.19346V7.88346H168.277V15.2935H170.383V6.19346H166.457Z" fill="white"/>
<path fill-rule="evenodd" clip-rule="evenodd" d="M10.5527 21.4858C11.7715 21.4858 12.941 21.2751 14.0268 20.8881C19.8642 18.8077 25.1586 13.1796 31.3556 13.1796L147.485 13.1796C153.682 13.1796 158.976 18.8077 164.814 20.8881C165.9 21.2751 167.069 21.4858 168.288 21.4858C174.002 21.4858 178.634 16.8537 178.634 11.1396C178.634 5.4256 174.002 0.793457 168.288 0.793457C167.063 0.793457 165.888 1.00634 164.797 1.39713C159.421 3.32348 154.497 8.09985 148.787 8.09985L30.0538 8.09985C24.3433 8.09985 19.4192 3.32348 14.0435 1.39713C12.9529 1.00634 11.7777 0.793457 10.5527 0.793457C4.83869 0.793457 0.206543 5.4256 0.206543 11.1396C0.206543 16.8537 4.83869 21.4858 10.5527 21.4858Z" fill="#87AB49"/>
<path d="M168.01 13.0696L170.103 11.0936C171.377 9.91064 171.624 9.10464 171.624 8.22064C171.624 6.56964 170.272 5.52964 168.244 5.52964C166.606 5.52964 165.332 6.19264 164.63 7.21964L166.164 8.20764C166.606 7.59664 167.269 7.29764 168.049 7.29764C169.011 7.29764 169.505 7.71364 169.505 8.42864C169.505 8.87064 169.362 9.33864 168.556 10.1056L165.046 13.4206V14.7856H171.923V13.0696H168.01Z" fill="white"/>
<path d="M12.383 6.19346V15.2935H10.277V7.88346H8.45697V6.19346H12.383Z" fill="white"/>
</svg>
