<svg xmlns="http://www.w3.org/2000/svg" id="prefix__Page-1" width="69.024" height="69.025" viewBox="0 0 69.024 69.025">
    <defs>
        <style>
            .prefix__cls-1{fill:#87AB49}
        </style>
    </defs>
    <g id="prefix___027---Secure" data-name="027---Secure">
        <path id="prefix__Shape" d="M68.334 9.046L49.928 1.094a1.15 1.15 0 0 0-.911 0L38.115 5.8A19.535 19.535 0 0 0 5.752 20.557v5.752A5.759 5.759 0 0 0 0 32.061v32.211a5.759 5.759 0 0 0 5.752 5.752h39.114a5.759 5.759 0 0 0 5.752-5.752v-15.3c.037-.023.079-.032.115-.058l12.72-9.056a13.23 13.23 0 0 0 5.571-10.744V10.1a1.15 1.15 0 0 0-.69-1.054zM8.053 20.557a17.25 17.25 0 0 1 27.7-13.734L30.6 9.046l-.04.024a12.636 12.636 0 0 0-17.906 11.487v5.752h-4.6zm21.858 5.752H14.955v-5.752a10.315 10.315 0 0 1 14.955-9.25zm14.955 41.415H5.752A3.451 3.451 0 0 1 2.3 64.272v-1.15h6.9a1.15 1.15 0 1 0 0-2.3H2.3v-2.3h6.9a1.15 1.15 0 1 0 0-2.3H2.3v-2.3h6.9a1.15 1.15 0 1 0 0-2.3H2.3v-2.3h6.9a1.15 1.15 0 1 0 0-2.3H2.3v-2.3h6.9a1.15 1.15 0 1 0 0-2.3H2.3v-2.3h6.9a1.15 1.15 0 1 0 0-2.3H2.3v-2.3h6.9a1.15 1.15 0 1 0 0-2.3H2.3v-1.15a3.451 3.451 0 0 1 3.452-3.462h24.159v.505a13.223 13.223 0 0 0 5.569 10.741l10.058 7.16h-4.123a1.15 1.15 0 1 0 0 2.3h6.9v2.3h-6.9a1.15 1.15 0 1 0 0 2.3h6.9v2.3h-6.9a1.15 1.15 0 1 0 0 2.3h6.9v2.3h-6.9a1.15 1.15 0 1 0 0 2.3h6.9v1.15a3.451 3.451 0 0 1-3.449 3.458zm21.858-38.609a10.92 10.92 0 0 1-4.6 8.867L49.467 46.99l-12.654-9.008a10.92 10.92 0 0 1-4.6-8.867V10.858L38.366 8.2l.032-.014L49.467 3.4l17.256 7.455z" class="prefix__cls-1" transform="translate(0 -.999)"/>
        <path id="prefix__Shape-2" d="M44.5 5.452l-13.8 5.964a1.15 1.15 0 0 0-.7 1.055v15.991a8.62 8.62 0 0 0 3.636 6.993l10.652 7.581a1.15 1.15 0 0 0 1.334 0l10.652-7.581a8.615 8.615 0 0 0 3.636-7V12.469a1.15 1.15 0 0 0-.69-1.056l-13.8-5.964a1.15 1.15 0 0 0-.92.003zm13.11 7.778v15.23a6.309 6.309 0 0 1-2.67 5.119l-9.984 7.106-9.984-7.106A6.316 6.316 0 0 1 32.3 28.46V13.23l12.655-5.468z" class="prefix__cls-1" data-name="Shape" transform="translate(4.512 -.344)"/>
        <path id="prefix__Shape-3" d="M36.983 24.147a1.15 1.15 0 0 0-1.38 1.841l5.258 3.944a1.15 1.15 0 0 0 1.589-.2l10.518-13.149a1.151 1.151 0 1 0-1.8-1.437L41.35 27.422z" class="prefix__cls-1" data-name="Shape" transform="translate(5.286 1.063)"/>
        <path id="prefix__Shape-4" d="M29.8 38.9a6.9 6.9 0 1 0-10.967 5.576l-1.663 9.176a1.15 1.15 0 0 0 1.13 1.357h9.2a1.15 1.15 0 0 0 1.131-1.356l-1.668-9.173A6.93 6.93 0 0 0 29.8 38.9zm-4.672 4.026a1.15 1.15 0 0 0-.567 1.208l1.558 8.571h-6.438l1.56-8.572a1.15 1.15 0 0 0-.567-1.208 4.6 4.6 0 1 1 4.461 0z" class="prefix__cls-1" data-name="Shape" transform="translate(2.406 3.663)"/>
    </g>
</svg>
