<svg width="451" height="438" fill="none" xmlns="http://www.w3.org/2000/svg"><g clip-path="url(#a)"><path opacity=".204" d="M219.265 372.178c83.949 0 152.003-68.054 152.003-152.003 0-83.949-68.054-152.003-152.003-152.003-83.949 0-152.003 68.054-152.003 152.003 0 83.949 68.054 152.003 152.003 152.003z" fill="#D5D7DB"/><path opacity=".152" d="M219.265 438.62c120.644 0 218.445-97.801 218.445-218.445C437.71 99.531 339.909 1.73 219.265 1.73 98.622 1.73.82 99.53.82 220.175c0 120.644 97.802 218.445 218.445 218.445z" fill="#D5D7DB"/><path opacity=".087" d="M243.36 73.132 77.878 102.371a2 2 0 0 0-1.622 2.317l51.247 290.041a2 2 0 0 0 2.317 1.621l165.482-29.238a2 2 0 0 0 1.621-2.318l-51.246-290.04a2 2 0 0 0-2.317-1.622z" fill="#000"/><path d="M229.022 53.292 65.472 82.19a6 6 0 0 0-4.865 6.953l52.601 297.702a5.999 5.999 0 0 0 6.952 4.865l163.55-28.897a6 6 0 0 0 4.864-6.953l-52.6-297.702a6 6 0 0 0-6.952-4.865z" fill="#C9CBCE"/><path d="m70.578 116.117 165.379-29.22 42.572 240.951-165.378 29.22-42.573-240.951zM212.723 350.856l-29.866 5.277a6.63 6.63 0 0 0-5.377 7.683l.001.001a6.63 6.63 0 0 0 7.683 5.376l29.867-5.277a6.63 6.63 0 0 0 5.376-7.683v-.001a6.632 6.632 0 0 0-7.684-5.376z" fill="#454547"/><path opacity=".06" d="m238.235 70.595 48.188 272.73a18.726 18.726 0 0 1-15.21 21.643l-18.862 3.333L134.809 69.938l81.729-14.42a18.682 18.682 0 0 1 21.697 15.077z" fill="#FCFCFC"/><ellipse cx="340.149" cy="225.464" rx="77.024" ry="74.297" transform="rotate(54.296 340.149 225.464)" fill="url(#b)"/><path fill-rule="evenodd" clip-rule="evenodd" d="M268.108 170.299c2.025.155 3.251 2.273 2.44 4.135-.546 1.254-1.867 1.977-3.226 1.815-7.623-.906-12.503-.147-13.672 2.536-3.767 8.653 32.492 34.042 80.989 56.709 1.682.786 3.357 1.559 5.023 2.317.558.254 1.208.166 1.705-.191 8.456-6.077 20.417-3.897 26.716 4.868a20.275 20.275 0 0 1 2.055 3.571c1.327 2.97 3.38 5.748 6.442 6.843 28.907 10.343 50.079 13.965 52.692 7.965 1.126-2.585-1.322-6.664-6.601-11.719-.894-.855-1.186-2.175-.692-3.309.802-1.843 3.2-2.315 4.59-.864 9.782 10.216 14.244 19.244 11.528 25.481-5.085 11.676-33.885 10.29-70.741-1.661-1.077-.35-2.256-.094-3.176.567-8.455 6.077-20.416 3.897-26.716-4.869a20.26 20.26 0 0 1-2.19-3.881c-1.198-2.808-3.04-5.434-5.815-6.707a380.57 380.57 0 0 1-2.548-1.18c-54.565-25.502-93.253-58.912-86.412-74.622 2.816-6.466 12.906-8.926 27.609-7.804z" fill="#3B577F"/><ellipse cx="352.773" cy="253.491" rx="9.772" ry="9.426" transform="rotate(54.296 352.773 253.491)" fill="#70AF09"/><g opacity=".32" fill="#E5E5E5"><path d="M337.748 178.583c-11.935 2.74-20.73 10.903-22.279 4.856-1.549-6.047 6.871-13.17 18.806-15.909 11.934-2.74 22.865-.059 24.414 5.988 1.548 6.047-9.006 2.326-20.941 5.065zM309.518 194.377c-2.772 2.514-6.445 2.956-8.203.986-1.757-1.969-.935-5.603 1.837-8.117 2.772-2.514 6.444-2.955 8.202-.986s.936 5.604-1.836 8.117z"/></g><path d="M280.915 240.03c-.351-3.044 2.428-3.461 7.91.605 10.357 9.438 4.242 10.984 17.588 25.685 13.345 14.701 25.784 18.568 33.031 19.81 5.798.994 12.595.879 10.886 1.878-3.925 1.723-17.101 2.326-38.405-9.044-26.629-14.212-30.472-34.266-31.01-38.934z" fill="#080F1B" fill-opacity=".11"/><path d="M410.94 253.648c2.868 1.142 6.129-.315 6.967-3.285 5.125-18.155 3.763-37.838-3.958-55.613-8.49-19.544-24.011-35.269-43.32-43.887-19.309-8.617-40.911-9.461-60.289-2.355-17.72 6.498-32.327 19.184-41.319 35.739-1.412 2.6-.268 5.794 2.382 7.109 2.766 1.373 6.102.172 7.618-2.519 7.827-13.898 20.271-24.545 35.298-30.056 16.792-6.158 35.51-5.426 52.241 2.041 16.731 7.467 30.181 21.093 37.537 38.028 6.638 15.279 7.851 32.186 3.535 47.812-.784 2.839.573 5.897 3.308 6.986zM264.819 221.56c-3.005-.156-5.523 2.233-5.367 5.308.712 14.039 4.987 27.814 12.452 39.977 8.454 13.774 20.63 24.877 35.024 31.937 14.394 7.061 30.375 9.768 45.967 7.789 13.768-1.748 26.701-7.083 37.563-15.445 2.379-1.831 2.546-5.374.518-7.688-1.991-2.27-5.348-2.5-7.698-.724-9.315 7.043-20.35 11.54-32.085 13.03-13.511 1.715-27.358-.631-39.83-6.749-12.473-6.118-23.024-15.739-30.349-27.674-6.361-10.364-10.048-22.079-10.756-34.034-.179-3.02-2.488-5.574-5.439-5.727z" fill="#3B577F"/><g opacity=".18" fill="#020202"><path opacity=".18" d="M175.798 263.5a5.634 5.634 0 0 1 4.249-6.711l9.464-2.127a5.63 5.63 0 0 1 6.71 4.248l.462 2.039a5.63 5.63 0 0 1-4.247 6.71l-9.465 2.126a5.633 5.633 0 0 1-6.709-4.247l-.462-2.039-.002.001zm-4.89 1.098.462 2.039a10.644 10.644 0 0 0 12.701 8.041l9.465-2.127a10.639 10.639 0 0 0 8.041-12.702l-.461-2.038a10.64 10.64 0 0 0-12.702-8.041l-9.465 2.126a10.647 10.647 0 0 0-8.04 12.702h-.001zM142.252 263.477a5.63 5.63 0 0 1 5.58-5.65l9.7-.062a5.633 5.633 0 0 1 5.651 5.58l.013 2.091a5.63 5.63 0 0 1-5.58 5.65l-9.7.062a5.633 5.633 0 0 1-5.651-5.581l-.014-2.091.001.001zm-5.016.031.013 2.091a10.644 10.644 0 0 0 3.165 7.495 10.644 10.644 0 0 0 7.536 3.067l9.7-.061a10.641 10.641 0 0 0 10.562-10.701l-.013-2.09a10.641 10.641 0 0 0-10.7-10.562l-9.701.061a10.641 10.641 0 0 0-10.563 10.701l.001-.001zM107.992 266.382a5.635 5.635 0 0 1 5.231-5.976l9.678-.644a5.635 5.635 0 0 1 5.976 5.23l.138 2.086a5.63 5.63 0 0 1-5.229 5.976l-9.679.644a5.635 5.635 0 0 1-5.976-5.231l-.139-2.086v.001zm-5.004.333.139 2.086a10.644 10.644 0 0 0 11.313 9.9l9.679-.644a10.64 10.64 0 0 0 9.902-11.312l-.139-2.086a10.64 10.64 0 0 0-11.313-9.901l-9.679.644a10.644 10.644 0 0 0-9.901 11.312l-.001.001zM210.278 258.821a5.63 5.63 0 0 1 4.596-6.477l9.564-1.623a5.63 5.63 0 0 1 6.475 4.596l.35 2.061a5.633 5.633 0 0 1-4.596 6.476l-9.564 1.623a5.634 5.634 0 0 1-6.475-4.597l-.35-2.061v.002zm-4.945.837.35 2.062a10.639 10.639 0 0 0 12.259 8.699l9.564-1.622a10.645 10.645 0 0 0 8.699-12.26l-.35-2.062a10.64 10.64 0 0 0-12.259-8.699l-9.564 1.624a10.642 10.642 0 0 0-8.7 12.258h.001zM243.895 252.387a5.634 5.634 0 0 1 4.597-6.477l9.563-1.624a5.635 5.635 0 0 1 6.477 4.598l.35 2.061a5.634 5.634 0 0 1-4.596 6.476l-9.564 1.623a5.63 5.63 0 0 1-6.475-4.596l-.35-2.061h-.002zm-4.942.84.35 2.061a10.644 10.644 0 0 0 12.259 8.7l9.564-1.624a10.643 10.643 0 0 0 8.699-12.26l-.35-2.06a10.642 10.642 0 0 0-12.258-8.7l-9.564 1.624a10.643 10.643 0 0 0-8.699 12.259h-.001zM278.619 245.208a5.636 5.636 0 0 1 4.325-6.661l9.494-2.016a5.63 5.63 0 0 1 6.659 4.326l.435 2.045a5.634 5.634 0 0 1-4.325 6.66l-9.494 2.016a5.635 5.635 0 0 1-6.66-4.326l-.434-2.044zm-4.906 1.041.435 2.046a10.643 10.643 0 0 0 12.607 8.189l9.488-2.016a10.643 10.643 0 0 0 8.189-12.607l-.435-2.043a10.64 10.64 0 0 0-12.607-8.191l-9.488 2.016a10.638 10.638 0 0 0-8.189 12.607v-.001zM311.971 235.997a5.632 5.632 0 0 1 3.613-7.072l9.229-2.988a5.63 5.63 0 0 1 7.072 3.613l.644 1.988a5.634 5.634 0 0 1-3.612 7.073l-9.229 2.987a5.632 5.632 0 0 1-7.072-3.614l-.644-1.988-.001.001zm-4.771 1.543.645 1.989a10.64 10.64 0 0 0 13.387 6.839l9.229-2.987a10.643 10.643 0 0 0 6.839-13.389l-.644-1.989a10.643 10.643 0 0 0-13.387-6.839l-9.229 2.988a10.643 10.643 0 0 0-6.84 13.388zM344.76 223.441a5.633 5.633 0 0 1 3.162-7.286l9.022-3.562a5.636 5.636 0 0 1 7.286 3.162l.768 1.944a5.636 5.636 0 0 1-3.162 7.286l-9.023 3.561a5.626 5.626 0 0 1-7.284-3.161l-.768-1.945-.001.001zm-4.664 1.839.768 1.944a10.644 10.644 0 0 0 13.791 5.986l9.018-3.56a10.644 10.644 0 0 0 5.985-13.791l-.767-1.944a10.642 10.642 0 0 0-13.791-5.985l-9.023 3.561a10.646 10.646 0 0 0-5.985 13.791l.004-.002z"/><path opacity=".18" d="M195.138 258.756a2.934 2.934 0 0 0 .39 5.853l16.555-1.101a2.933 2.933 0 0 0-.389-5.853l-16.556 1.101zM161.529 260.935a2.933 2.933 0 1 0 .391 5.853l16.555-1.106a2.933 2.933 0 1 0-.391-5.853l-16.555 1.106zM228.338 252.793a2.933 2.933 0 1 0 1.02 5.776l16.339-2.887a2.932 2.932 0 1 0-1.02-5.776l-16.339 2.887zM279.604 243.124l-16.081 4.083a2.932 2.932 0 1 0 1.443 5.685l16.082-4.082a2.934 2.934 0 0 0-1.444-5.686zM297.2 238.858a2.933 2.933 0 1 0 1.821 5.577l15.773-5.148a2.934 2.934 0 0 0-1.821-5.577l-15.773 5.148zM328.814 232.115a2.935 2.935 0 0 1 1.421-3.896l15.038-7.005a2.933 2.933 0 0 1 2.476 5.318l-15.039 7.003a2.935 2.935 0 0 1-3.896-1.42zM359.849 218.208a2.935 2.935 0 0 1 1.42-3.896l15.04-7.008a2.935 2.935 0 0 1 4.168 2.531 2.928 2.928 0 0 1-1.691 2.786l-15.04 7.008a2.937 2.937 0 0 1-2.243.097 2.94 2.94 0 0 1-1.654-1.518zM127.361 263.203a2.934 2.934 0 0 0 .389 5.853l16.556-1.101a2.934 2.934 0 0 0-.39-5.853l-16.555 1.101zM93.725 265.229a2.933 2.933 0 0 0 .39 5.853l16.556-1.105a2.933 2.933 0 0 0-.391-5.853l-16.555 1.105z"/></g><path d="M187.009 262.345a6.479 6.479 0 0 1 4.886-7.718l10.884-2.445a6.475 6.475 0 0 1 7.717 4.885l.527 2.344a6.48 6.48 0 0 1-4.886 7.717l-10.885 2.445a6.475 6.475 0 0 1-7.716-4.885l-.527-2.344v.001zm-5.627 1.263.527 2.344a12.239 12.239 0 0 0 14.608 9.248l10.884-2.447a12.239 12.239 0 0 0 9.248-14.607l-.527-2.344a12.243 12.243 0 0 0-14.609-9.248l-10.885 2.445a12.238 12.238 0 0 0-9.248 14.608l.002.001zM148.428 262.314a6.484 6.484 0 0 1 1.869-4.573 6.482 6.482 0 0 1 4.55-1.925l11.157-.071a6.475 6.475 0 0 1 6.5 6.417l.018 2.403a6.474 6.474 0 0 1-6.417 6.499l-11.157.071a6.475 6.475 0 0 1-6.499-6.417l-.019-2.404h-.002zm-5.764.037.018 2.403a12.242 12.242 0 0 0 12.301 12.145l11.158-.07a12.238 12.238 0 0 0 12.145-12.301l-.019-2.404a12.24 12.24 0 0 0-12.3-12.145l-11.158.072a12.24 12.24 0 0 0-12.145 12.301v-.001zM109.028 265.658a6.477 6.477 0 0 1 6.015-6.872l11.131-.74a6.474 6.474 0 0 1 6.873 6.015l.16 2.399a6.477 6.477 0 0 1-6.015 6.872l-11.132.741a6.478 6.478 0 0 1-6.873-6.015l-.159-2.399v-.001zm-5.756.385.16 2.398a12.239 12.239 0 0 0 13.01 11.388l11.132-.742a12.235 12.235 0 0 0 11.386-13.009l-.16-2.399a12.236 12.236 0 0 0-13.01-11.387l-11.131.741a12.24 12.24 0 0 0-11.387 13.011v-.001zM226.663 256.961a6.474 6.474 0 0 1 5.284-7.447l10.999-1.867a6.476 6.476 0 0 1 7.448 5.285l.401 2.366a6.476 6.476 0 0 1-5.284 7.448l-10.999 1.867a6.475 6.475 0 0 1-7.448-5.284l-.402-2.367.001-.001zm-5.687.966.402 2.367a12.24 12.24 0 0 0 14.099 10.006l10.999-1.868a12.236 12.236 0 0 0 10.006-14.098l-.402-2.366a12.24 12.24 0 0 0-14.099-10.007l-10.999 1.867a12.243 12.243 0 0 0-10.007 14.1l.001-.001zM265.32 249.566a6.482 6.482 0 0 1 5.285-7.448l10.999-1.867a6.476 6.476 0 0 1 7.448 5.285l.401 2.366a6.476 6.476 0 0 1-5.285 7.447l-10.998 1.867a6.476 6.476 0 0 1-7.448-5.284l-.402-2.367v.001zm-5.686.964.401 2.367a12.24 12.24 0 0 0 14.1 10.007l10.998-1.867a12.24 12.24 0 0 0 10.008-14.099l-.402-2.366a12.24 12.24 0 0 0-14.099-10.008l-10.999 1.868a12.24 12.24 0 0 0-10.006 14.099l-.001-.001zM305.258 241.305a6.48 6.48 0 0 1 4.976-7.658l10.913-2.319a6.474 6.474 0 0 1 7.659 4.975l.499 2.349a6.478 6.478 0 0 1-4.974 7.659l-10.912 2.319a6.477 6.477 0 0 1-7.659-4.975l-.5-2.349-.002-.001zm-5.639 1.201.499 2.349a12.24 12.24 0 0 0 14.5 9.421l10.913-2.318a12.244 12.244 0 0 0 9.421-14.501l-.5-2.349a12.24 12.24 0 0 0-14.499-9.421l-10.913 2.32a12.238 12.238 0 0 0-9.421 14.499zM343.618 230.713a6.475 6.475 0 0 1 4.155-8.134l10.614-3.437a6.477 6.477 0 0 1 8.133 4.156l.74 2.287a6.477 6.477 0 0 1-4.155 8.134l-10.613 3.436a6.48 6.48 0 0 1-8.133-4.156l-.74-2.286h-.001zm-5.486 1.776.741 2.288a12.24 12.24 0 0 0 15.396 7.866l10.613-3.436a12.243 12.243 0 0 0 7.117-6.072 12.242 12.242 0 0 0 .748-9.325l-.74-2.287a12.236 12.236 0 0 0-15.397-7.866l-10.613 3.437a12.235 12.235 0 0 0-7.865 15.396v-.001zM381.323 216.272a6.477 6.477 0 0 1 3.636-8.378l10.376-4.095a6.476 6.476 0 0 1 8.379 3.635l.882 2.237a6.477 6.477 0 0 1-3.635 8.378l-10.377 4.095a6.478 6.478 0 0 1-8.379-3.635l-.882-2.237zm-5.365 2.117.883 2.237a12.243 12.243 0 0 0 15.86 6.883l10.377-4.097a12.24 12.24 0 0 0 6.882-15.861l-.882-2.236a12.241 12.241 0 0 0-15.861-6.883l-10.376 4.097a12.237 12.237 0 0 0-6.883 15.86z" fill="#D3C8C1"/><path d="M209.253 256.886a3.374 3.374 0 0 0 .448 6.731l19.038-1.266a3.372 3.372 0 1 0-.447-6.731l-19.039 1.266zM170.592 259.386a3.374 3.374 0 0 0 .448 6.732l19.039-1.267a3.373 3.373 0 1 0-.448-6.731l-19.039 1.266zM247.433 250.029a3.373 3.373 0 0 0 1.174 6.643l18.79-3.32a3.373 3.373 0 0 0-1.174-6.643l-18.79 3.32zM287.895 243.603l18.488-4.701a3.384 3.384 0 0 1 2.555.37 3.376 3.376 0 0 1-.893 6.167l-18.488 4.7a3.374 3.374 0 0 1-2.849-5.97 3.363 3.363 0 0 1 1.187-.566zM326.626 234.003a3.373 3.373 0 1 0 2.093 6.413l18.139-5.921a3.373 3.373 0 1 0-2.093-6.413l-18.139 5.921zM364.617 221.766l17.295-8.055a3.376 3.376 0 0 1 4.592 4.213 3.371 3.371 0 0 1-1.744 1.902l-17.295 8.054a3.373 3.373 0 1 1-2.848-6.114zM400.311 205.773a3.373 3.373 0 1 0 2.849 6.115l17.295-8.059a3.373 3.373 0 1 0-2.849-6.115l-17.295 8.059zM128.161 265.59a3.389 3.389 0 0 1 .826-2.445 3.39 3.39 0 0 1 1.043-.802 3.39 3.39 0 0 1 1.271-.342l19.037-1.271a3.36 3.36 0 0 1 2.446.827 3.379 3.379 0 0 1 1.143 2.314 3.362 3.362 0 0 1-.827 2.446 3.379 3.379 0 0 1-2.314 1.143l-19.035 1.272a3.378 3.378 0 0 1-3.249-1.87 3.375 3.375 0 0 1-.341-1.272zM92.624 264.329a3.373 3.373 0 0 0 .448 6.731l19.039-1.266a3.374 3.374 0 0 0-.448-6.731l-19.039 1.266z" fill="#D3C8C1"/></g><defs><linearGradient id="b" x1="258.467" y1="98.398" x2="368.85" y2="293.36" gradientUnits="userSpaceOnUse"><stop offset=".395" stop-color="#E87D1B"/><stop offset=".72" stop-color="#D64D12"/><stop offset=".75" stop-color="#70AF09"/></linearGradient><clipPath id="a"><path fill="#fff" transform="translate(.84 .633)" d="M0 0h449.449v436.891H0z"/></clipPath></defs></svg>