<svg xmlns="http://www.w3.org/2000/svg" width="232" height="232" viewBox="0 0 232 232">
    <defs>
        <style>
            .cls-1,.cls-38{fill:#787e8c}.cls-1{opacity:.133}.cls-2{fill:#efefef}.cls-3{fill:#7fb5fa}.cls-4{fill:#e2e2e2}.cls-5{fill:#231f20}.cls-12,.cls-30,.cls-35,.cls-5{opacity:.1}.cls-10,.cls-6{fill:#0b2e44}.cls-11,.cls-12,.cls-31,.cls-37,.cls-7{fill:#fff}.cls-7{opacity:.8}.cls-8{fill:#424242}.cls-9{fill:#f3ae1b}.cls-10,.cls-11,.cls-35{fill-rule:evenodd}.cls-11,.cls-23{opacity:.2}.cls-13{fill:#d0edfa}.cls-14{fill:#ff651f}.cls-15{fill:#0051c4}.cls-16{fill:#e46400}.cls-17{fill:#c0003b}.cls-18{fill:#ffea50}.cls-19{fill:#ff2c0d}.cls-20{fill:#ff1a2c}.cls-21{fill:#ff2c4d}.cls-22{fill:#ffd74c}.cls-24{fill:#4c4c4b}.cls-25{fill:#6cd2ea}.cls-26{fill:#f7674f}.cls-27{fill:#fff064}.cls-28{fill:#4f4e4f}.cls-29{fill:#1e2f47}.cls-31{opacity:.4}.cls-32{fill:#f2f2f2}.cls-33{fill:#0076c6}.cls-34{fill:#8e4387}.cls-36{fill:#ff3e03}.cls-39{fill:#ff6900}.cls-40{opacity:.6}.cls-41{opacity:.5}
        </style>
    </defs>
    <g id="Group_7144" data-name="Group 7144" transform="translate(-8944.686 -168.278)">
        <circle id="Background_2" cx="82.024" cy="82.024" r="82.024" class="cls-1" data-name="Background 2" transform="rotate(-45 4815.497 -10655.052)"/>
        <g id="Group_7122" data-name="Group 7122" transform="translate(9004.873 219.498)">
            <g id="Group_7120" data-name="Group 7120">
                <path id="Path_48076" d="M9338.629 594.193l-.916-.942s-.689.667-1.354 1.363c-.334.347-.66.7-.9.969l-.291.33-.114.132 1.007.846.376-.429c.233-.259.552-.6.876-.94.642-.676 1.316-1.329 1.316-1.329z" class="cls-2" data-name="Path 48076" transform="translate(-9335.05 -578.948)"/>
                <path id="Path_48077" d="M9364.9 569.692l-.826-1.023s-.748.6-1.474 1.228-1.435 1.273-1.435 1.273l.888.97s.694-.633 1.405-1.246 1.442-1.202 1.442-1.202z" class="cls-2" data-name="Path 48077" transform="translate(-9357.141 -558.156)"/>
                <path id="Path_48078" d="M9393.473 547.877l-.723-1.1-.5.332c-.3.2-.69.476-1.086.75-.782.556-1.547 1.136-1.547 1.136l.795 1.048s.748-.567 1.513-1.111c.386-.267.768-.538 1.061-.733z" class="cls-2" data-name="Path 48078" transform="translate(-9381.203 -539.64)"/>
                <path id="Path_48079" d="M9424.189 529.247l-.6-1.172-.534.274c-.321.168-.74.4-1.163.63s-.835.476-1.145.661l-.514.312.686 1.122.5-.3c.3-.18.711-.41 1.115-.645l1.131-.612z" class="cls-2" data-name="Path 48079" transform="translate(-9407.104 -523.821)"/>
                <path id="Path_48080" d="M9457.006 514.622l-.436-1.242s-.231.074-.568.2-.793.288-1.236.478-.892.366-1.22.517l-.55.246.547 1.2.535-.238c.316-.147.75-.323 1.182-.5s.87-.337 1.2-.462.546-.199.546-.199z" class="cls-2" data-name="Path 48080" transform="translate(-9434.812 -511.391)"/>
                <path id="Path_48081" d="M9491.832 505.106l-.232-1.294s-.954.167-1.895.395c-.471.106-.936.243-1.285.332-.177.045-.32.09-.422.121l-.159.048.374 1.261.152-.046c.1-.03.238-.074.406-.116.338-.085.786-.217 1.238-.32.907-.221 1.823-.381 1.823-.381z" class="cls-2" data-name="Path 48081" transform="translate(-9464.281 -503.299)"/>
                <path id="Path_48082" d="M9528.228 501.8v-1.315l-.605.009-.621.01c-.227.006-.469.027-.71.039l-.711.043-.616.063-.6.062.157 1.305.577-.06.592-.061.681-.041c.231-.012.463-.032.68-.037l.594-.01z" class="cls-2" data-name="Path 48082" transform="translate(-9495.177 -500.482)"/>
            </g>
            <g id="Group_7121" data-name="Group 7121" transform="translate(34.864 .075)">
                <path id="Path_48083" d="M9564.846 502.767l.26-1.289s-.058-.015-.163-.034l-.433-.075c-.359-.056-.834-.16-1.317-.21s-.962-.131-1.325-.149l-.6-.046-.09 1.312.577.043c.349.016.807.091 1.268.142s.914.148 1.258.2l.414.072a5.5 5.5 0 0 1 .151.034z" class="cls-2" data-name="Path 48083" transform="translate(-9561.173 -500.966)"/>
                <path id="Path_48084" d="M9599.956 509.608l.5-1.218-.565-.217c-.339-.13-.787-.312-1.251-.456s-.917-.315-1.271-.4l-.585-.161-.341 1.269.558.155c.339.082.775.244 1.217.384s.875.312 1.2.437z" class="cls-2" data-name="Path 48084" transform="translate(-9591.003 -506.2)"/>
                <path id="Path_48085" d="M9633.281 523.137l.692-1.117-.512-.321c-.311-.186-.735-.417-1.155-.655s-.855-.451-1.178-.617l-.541-.27-.566 1.186.52.262c.31.159.732.355 1.133.591s.813.453 1.113.633z" class="cls-2" data-name="Path 48085" transform="translate(-9619.406 -517.198)"/>
                <path id="Path_48086" d="M9664.039 542.291l.84-1.012-.463-.383c-.273-.236-.658-.525-1.043-.815s-.761-.59-1.064-.789l-.5-.343-.746 1.082.479.332c.295.192.658.486 1.033.764s.746.561 1.011.791z" class="cls-2" data-name="Path 48086" transform="translate(-9645.665 -533.093)"/>
                <path id="Path_48087" d="M9692.008 565.649l.949-.91-.414-.435c-.244-.263-.6-.59-.939-.928s-.684-.677-.956-.911l-.448-.4-.879.978.436.39c.266.229.593.565.932.89s.678.647.916.9l.403.426z" class="cls-2" data-name="Path 48087" transform="translate(-9669.563 -552.642)"/>
                <path id="Path_48088" d="M9717.3 592.086l1.027-.82-1.22-1.479c-.3-.372-.63-.722-.865-.994s-.4-.449-.4-.449l-.977.88s.154.176.389.439.551.609.847.974l1.199 1.449z" class="cls-2" data-name="Path 48088" transform="translate(-9691.172 -574.871)"/>
                <path id="Path_48089" d="M9740.128 620.764l1.084-.744-.333-.5c-.2-.295-.488-.68-.766-1.069s-.561-.776-.77-1.067l-.365-.474-1.048.793.358.466.756 1.05c.275.383.553.762.754 1.052z" class="cls-2" data-name="Path 48089" transform="translate(-9710.678 -599.038)"/>
            </g>
        </g>
        <g id="Group_7125" data-name="Group 7125" transform="translate(9083.18 242.411)">
            <g id="Group_7123" data-name="Group 7123">
                <path id="Path_48090" d="M9846.609 651.047l.277-1.286s-.936-.2-1.883-.373a45.44 45.44 0 0 0-1.308-.216l-.437-.061-.173-.021-.148 1.306.566.077c.344.05.806.126 1.267.209.923.166 1.839.365 1.839.365z" class="cls-2" data-name="Path 48090" transform="translate(-9842.938 -649.09)"/>
                <path id="Path_48091" d="M9881.969 658.494l.394-1.255s-.913-.291-1.838-.548-1.854-.492-1.854-.492l-.316 1.276s.911.227 1.814.482 1.8.537 1.8.537z" class="cls-2" data-name="Path 48091" transform="translate(-9872.893 -655.103)"/>
                <path id="Path_48092" d="M9916.6 669.366l.515-1.21-.553-.232c-.332-.14-.779-.313-1.226-.491-.9-.343-1.8-.661-1.8-.661l-.434 1.242s.887.31 1.762.645c.438.175.873.343 1.2.48z" class="cls-2" data-name="Path 48092" transform="translate(-9902.282 -664.046)"/>
                <path id="Path_48093" d="M9950 683.619l.648-1.145-.525-.294c-.314-.174-.742-.394-1.168-.62s-.857-.432-1.184-.587l-.543-.255-.557 1.192.53.249c.317.151.733.364 1.153.572l1.137.6z" class="cls-2" data-name="Path 48093" transform="translate(-9930.675 -675.841)"/>
                <path id="Path_48094" d="M9981.557 701.55l.793-1.049s-.187-.152-.482-.36-.68-.5-1.082-.765-.8-.542-1.105-.731l-.508-.323-.694 1.118.493.313c.3.183.686.446 1.07.708s.763.539 1.049.741.466.348.466.348z" class="cls-2" data-name="Path 48094" transform="translate(-9957.58 -690.731)"/>
                <path id="Path_48095" d="M10010.436 723.638l.949-.909s-.666-.7-1.376-1.359c-.349-.334-.72-.645-.987-.888-.135-.122-.252-.217-.334-.284l-.127-.105-.845 1.008.124.1c.078.064.191.157.32.274.259.234.615.534.952.855a34.228 34.228 0 0 1 1.324 1.308z" class="cls-2" data-name="Path 48095" transform="translate(-9982.311 -709.145)"/>
                <path id="Path_48096" d="M10035.512 750.1l1.1-.723-.343-.5-.353-.511c-.131-.187-.281-.376-.426-.571l-.428-.567-.4-.48-.385-.467-1 .854.369.448.378.459.41.544c.139.186.283.367.408.546s.237.346.336.489z" class="cls-2" data-name="Path 48096" transform="translate(-10003.935 -731.298)"/>
            </g>
            <g id="Group_7124" data-name="Group 7124" transform="translate(31.805 19.703)">
                <path id="Path_48097" d="M10055.492 780.864l1.218-.495s-.021-.058-.062-.156-.1-.236-.177-.4c-.152-.33-.328-.783-.555-1.213s-.422-.874-.609-1.186l-.3-.529-1.142.651s.114.2.283.506.369.722.582 1.134.384.843.53 1.158l.17.385c.043.091.062.145.062.145z" class="cls-2" data-name="Path 48097" transform="translate(-10053.151 -776.883)"/>
                <path id="Path_48098" d="M10069.409 815.045l1.29-.259-.132-.591c-.079-.354-.175-.829-.313-1.295s-.243-.938-.367-1.281-.188-.576-.188-.576l-1.247.418.181.551c.118.327.226.78.352 1.226s.224.9.3 1.241.124.566.124.566z" class="cls-2" data-name="Path 48098" transform="translate(-10065.486 -805.776)"/>
                <path id="Path_48099" d="M10076.951 851.323l1.313-.042-.017-.6c-.01-.359-.059-.843-.092-1.325s-.1-.962-.14-1.322-.073-.6-.073-.6l-1.3.184.071.577c.043.346.108.807.133 1.272s.073.929.09 1.277.015.579.015.579z" class="cls-2" data-name="Path 48099" transform="translate(-10072.413 -836.553)"/>
                <path id="Path_48100" d="M10077.176 888.239l1.309.14s.024-.239.063-.6.074-.839.1-1.32.071-.961.068-1.323.011-.6.011-.6l-1.314-.023s0 .233-.011.583-.042.815-.067 1.281-.053.932-.1 1.281-.059.581-.059.581z" class="cls-2" data-name="Path 48100" transform="translate(-10072.865 -867.918)"/>
                <path id="Path_48101" d="M10071.205 924.134l1.283.287.133-.585c.08-.351.161-.825.254-1.3s.186-.943.23-1.3l.088-.6-1.3-.193s-.033.232-.086.579-.141.807-.225 1.268-.164.923-.248 1.265-.129.579-.129.579z" class="cls-2" data-name="Path 48101" transform="translate(-10067.815 -898.315)"/>
                <path id="Path_48102" d="M10061.681 959.536l1.252.4.558-1.833c.143-.458.252-.925.35-1.272s.154-.579.154-.579l-1.273-.327-.152.567c-.091.34-.2.8-.341 1.245-.276.899-.548 1.799-.548 1.799z" class="cls-2" data-name="Path 48102" transform="translate(-10059.76 -928.321)"/>
                <path id="Path_48103" d="M10049.22 994.153l1.219.493.228-.552c.134-.333.3-.782.468-1.23s.337-.9.464-1.23.193-.566.193-.566l-1.241-.435-.189.556-.456 1.212c-.168.44-.328.881-.46 1.208z" class="cls-2" data-name="Path 48103" transform="translate(-10049.22 -957.677)"/>
            </g>
        </g>
        <g id="Globe" transform="translate(8947.051 227.413)">
            <path id="Path_48104" d="M9052.461 598.035a46.218 46.218 0 1 1-46.219-46.219 46.219 46.219 0 0 1 46.219 46.219z" class="cls-3" data-name="Path 48104" transform="translate(-8960.024 -551.816)"/>
            <path id="Path_48105" d="M9082.112 652.232c-.292 0-.643-.554-1.022-.905s-2.414.1-2.9.1a2.1 2.1 0 0 1-1.188-.488c-.448-.272-.936.06-1.285.137s-.506-.234-.291-.623-.722-.292-1.424-.156-.428.488-.992.293.662-.838 1.07-1.326-.078-1.3-.311-1.382-.682-.78-1.384-1.324-1.228-.137-2.063-.137a1.86 1.86 0 0 1-1.423-.662c-.39-.293-.272-.876-1.831-1.695s-.9-.37-.8-.525.253-.137-.292-.39-.994.292-1.539.506a2.729 2.729 0 0 1-1.441.1c-.233-.058-.506-.622-.779-.74a1.663 1.663 0 0 1-.682-.643.418.418 0 0 0-.721.351c.02.506-.272.8-.817 1.013s-.312-.6-.312-.858.486-.506.525-.9-.486.371-.993.915-.856.039-1.831.137-.506 1.11-.506 1.675-.818.759-.955.623-.137-.448-.428-.448-.37-.467-.447-.643a1.043 1.043 0 0 0-1.442.349c-.37.7-.759.137-1.207 0s-1.325-1.888-1.13-2.2.2-.448-.02-.662-.117-.369.059-.7.643-.643-.293-1.247-2.395-.077-3.174-.156-.156-.643 0-.8a3.984 3.984 0 0 0 .623-1.169c.155-.467-.137-.506.136-1.129s.194-1.052-.429-1.091a1.225 1.225 0 0 0-1.246 1.324c-.039.9-.935.857-3 .7s-1.869-1.791-2.1-3.115.429-2.455.467-3.117.857-1.4 1.636-1.986a2.888 2.888 0 0 1 1.889-.435 12.351 12.351 0 0 0 1.968.279c.468-.039.079-.39.116-.857s2.3-.156 2.689-.156.312.312.74.734.35-.422.779-.345.078.35.7 1.365a5.015 5.015 0 0 1 .7 2.22c.194.857.624.428.9-.272s-.312-2.962-.468-4.13.9-.74 1.908-1.83 2.064-1.169 2.533-1.947-.04-2.065.233-1.364.312-.272.351-1.013.428-1.05.623-.623.428.118.584-.622a4.933 4.933 0 0 1 1.13-1.87c.312-.37.935-.019 1.792 0s.039-.156-.215-1.013a.88.88 0 0 1 .877-1.149 9.362 9.362 0 0 0 2.064-.955c.313-.195.721-.176 1.266.234s-.506.1-.857.7.508.681.878.135 1.187-.291 1.889-.992-.8-.448-1.13-.546-.535-.915-.506-1.178a1.856 1.856 0 0 0-.555-1.227c-.352-.293-1.257.029-2.047.349s-1.021.614-.963.235 1.373-1.256 1.725-1.316a4.039 4.039 0 0 0 1.811-.992c.467-.527 1.812.087 2.424.145s1.49.409 1.812-.029.585-.438 1.228-.525.76-1.023.322-1.432-1.082-1.9-1.988-2.366-.555-.76-.262-1.139-.916-1.316-1.3-2.289.039-1.208-.429-1.247-.156.7-.39 1.363-1.207.312-1.363.274a1.686 1.686 0 0 1-.662-1.324c.039-.624.194-1.169 0-1.364s-.623-.039-.857-.272-.545-.934-.9-1.247-1.13-.116-1.677-.234-1.051.077-.934.429a5.28 5.28 0 0 1-.155 2.065c-.2 1.245-.585.585-.9.9s.2.39.468 1.285a1.834 1.834 0 0 1-.624 1.83 6.263 6.263 0 0 1-1.753.662c-.584.2.039.936.117 1.559a2.025 2.025 0 0 1-.818 1.637c-.311.116-1.324-1.169-1.4-1.911s.623-1.557.313-1.791a8.366 8.366 0 0 1-2.648-1.169c-1.131-.934-2.493-1.44-2.961-2.571s.468-2.143.857-2.959 1.168-.7 2.414-1.169.468-.9.779-.9 1.324-.156 1.559-.467a4.371 4.371 0 0 1 1.285-.9c.506-.274.623-.818.817-1.129s.74.429 1.364.35.584.118 1.441-.272.117-.623.039-1.052.545-.312.352-.78a1.83 1.83 0 0 0-1.618-.857c-.565.079.176.623-.409 1.17s-.467.9-.662.973-1.052-.195-1.052-.467.39-.506.545-.623-.116-.7-.194-.9-.429.234-.506.623-.507.429-.39.077-.312-.778-.624-1.206.312-.39.662-.936.234-.778-.233-1.052-1.013.156-1.558.741-.351.544-.156 1.285 0 0 .117.7-.9.623-.9.623a3.516 3.516 0 0 1-.7-.118c-.194-.077 0-.349-.43-.506s-.623.546-.623.546-1.169-.04-1.636-.04a1.965 1.965 0 0 1-1.246-.427 1.762 1.762 0 0 0-1.207-.586c-.507 0-.7.428-.7.936s-.857.546-.818.311a5.7 5.7 0 0 0-.117-1.05l-.469.272s-1.285-.079-1.713-.118-.272-.583-.272-.583l.856-.079.117-.195a1.466 1.466 0 0 0-.467-.311c-.234-.079-1.247-.272-1.247-.272l-.312-.428h-.662c-.2 0-.507.388-.662.388s-.156-.429-.156-.429l.078-.349-.39.195c-.39.195-.546.039-.546.039l.156-.39.039-.428s-.234-.272-.234-.079a.807.807 0 0 1-.739.586c-.352-.04-.585.311-1.091.193a2.923 2.923 0 0 0-2.025.7c-.546.467-.9.623-.779.077s-1.52-.467-1.793-.585a8.72 8.72 0 0 0-1.635-.272.945.945 0 0 1-.818-.623l-.271-.962a46.434 46.434 0 0 0-9.366 6.746 8.873 8.873 0 0 0 .872 1.422.486.486 0 0 0 .546 0 31.888 31.888 0 0 0-2.844 2.286c-1.754 1.548-1.17 1.725-1.17 2.31s.352.351.352.351-1.363 1.4-1.753 1.791-1.091.936-1.091.936l-.7.857.312.118 4.237-3.557s.262-.058.291-.2a1.847 1.847 0 0 1 .35-.673 3.9 3.9 0 0 0 .469-.641 2.467 2.467 0 0 0 .584-.409c.321-.293.643-.731.906-.76s0 .38-.469.76a7.1 7.1 0 0 0-1.021 1.2s1.549-.817 2.074-1.168.352-.876.556-.905.671.407.817.847.321-.089 1.109 0 .264.7.557 1.108.291.527 1.051.351-.292 1.637-.292 1.637l-.059.585a3.281 3.281 0 0 1 .292.467c0 .058-.35 1.11-.35 1.11h.584a2.279 2.279 0 0 1-.526.467c-.292.175.059.643.351.876s0 0-.408.934 0 .645.467 1.287a16.911 16.911 0 0 0 1.111 1.344c.35.409 0 1.343-.352 1.4s-1.11-.527-1.11-.527c.058 8.765-.526 2.922-.818 3.681s-.7 1.169-.7 1.636a2.889 2.889 0 0 1-.468 1.811c-.468.643-.058 2.1 0 2.279s.429.936.429.936v2.4c0 .778 1.4 1.168 1.869 1.83a4.634 4.634 0 0 1 .391 2.162 2.506 2.506 0 0 0 .6.994c.273.253.293.681.507 1.071s-.331.253-.391.759.488.527.781.644a.6.6 0 0 1 .427.838c-.155.545-.077.351.214.662s.157.116.313.7.546.332.546.332v.349c0 .1.351.2.351.2l.233-.351s-.175-.077-.175-.135-.039-.351-.039-.351l-.526-.214a2.545 2.545 0 0 1-.077-.409v-.506c0-.077-.2-.137-.2-.137s-.02-.525-.02-.838-.506-.6-.527-.739a2.147 2.147 0 0 0-.252-.876 2.906 2.906 0 0 1-.643-1.579c.02-.662-.156-1.091.1-1.091s.682.643.8.76a5.14 5.14 0 0 0 .508 1.616 17.557 17.557 0 0 1 1.631 2.318c-.115.118-.438.074-.264.512a1.184 1.184 0 0 0 .922.628c.321.087.847 1.869 1.2 2.453s-.088.585-.176.965.029.583.614.847.467.905 1.14 1.11 1.986 1.062 2.336 1.139.313.39.779.433a1.24 1.24 0 0 1 .78.346c.233.155 1.051-.156 1.208-.274s.311-.077.738 0 1.676 1.4 2.065 1.793.7-.156 1.013 0 .895.506 1.129.467.234-.234.391-.234.039.311.623 1.052.467.9.467 1.013.273.7.662.622.779.33.779.33v.644s1.324.079 1.6.156.313.662.43.739.585-.467.508-.778.506-.467.74-.7.545.274.738.507a2.487 2.487 0 0 1 .625 1.285c0 .467-.04 1.168-.04 1.909s-.585 1.091-1.013 1.6-.818.739-1.014.975a2.276 2.276 0 0 0-.271 1.4c.078.429.623.039.623.546s-.506.234-1.091.7.077.506.272.9-.272.077-.272.546.7.39 1.363.585 1.364 1.909 1.753 2.8.779 1.675 1.17 1.832.428.506 1.245.7 1.461.837 1.92.837.446.788.3 1.11-.029.409.087 1.577a17.012 17.012 0 0 1-.388 4.09c-.124.293-.089.235.125.448s-.351 1.15-.37 1.442-.564.467-.677.741.269.272.347.525-.156.876.078 1.11.447.156.508.527a.616.616 0 0 1-.605.72c-.391 0-.391.409-.215.274a.4.4 0 0 1 .41 0l.313.551c.953-.1 1.9-.229 2.834-.383.2-.232.375-.417.515-.441.467-.077.233-.544-.04-1.519s.663-.156 1.247-.39.39-1.011 1.208-1.129a3.473 3.473 0 0 0 2.064-1.4c.35-.546-.155-.818 1.129-.664s2.454-1.48 3.467-2.687.117-1.6 1.909-2.727 4.694-4.2 4.868-5.161-.32-.994.7-1.666a8.2 8.2 0 0 0 2.425-3.069c.114-.527-.186-1.316-.474-1.316z" class="cls-4" data-name="Path 48105" transform="translate(-9009.279 -582.586)"/>
            <path id="Path_48106" d="M9361.268 577.2c-1.48 0-1.793 1.48-.468 1.714s4.051.233 4.519 2.181-1.4 2.494 0 3.428-.312 1.949-.312 3.273a3.834 3.834 0 0 0 1.558 3.115c.936.7 1.87 1.636 1.948 2.183s1.013.388 1.013.388a2.081 2.081 0 0 1 0-.778c.078-.467.857-1.013.857-2.337s.7-1.247 1.242-1.169 1.641-.077 1.951 0 2.182.079 2.338-.857-1.247-2.336-1.247-2.336a5.834 5.834 0 0 0 .78-1.9 3.594 3.594 0 0 0-.22-.781 46.242 46.242 0 0 0-12.765-8.067c-.002.738-.162 1.943-1.194 1.943z" class="cls-4" data-name="Path 48106" transform="translate(-9298.298 -571.645)"/>
            <path id="Path_48107" d="M9501.318 823.918c-2.688-2.22-4.441-2.22-4.675-1.635s1.87 2.687 0 5.259-3.272 3.621-2.57 5.725-2.938 3.974-.185 5.844 2.171 1.869 4.158 1.753c1.951-.116 1.7 2.974 1.553 3.4a46.052 46.052 0 0 0 3.529-17.738c0-.192 0-.383-.006-.575a7.781 7.781 0 0 0-1.804-2.033z" class="cls-4" data-name="Path 48107" transform="translate(-9410.692 -780.303)"/>
            <path id="Path_48108" d="M9287.529 647.872a46.222 46.222 0 0 0 3.745-91.543c26.802 10.783 40.126 76.224-3.745 91.543z" class="cls-5" data-name="Path 48108" transform="translate(-9237.034 -555.633)"/>
        </g>
        <g id="Phone" transform="translate(9092.329 256.795)">
            <rect id="Rectangle_8272" width="53.489" height="93.066" class="cls-6" data-name="Rectangle 8272" rx="5"/>
            <path id="Rectangle_8273" d="M0 0h43.622v63.622H0z" class="cls-7" data-name="Rectangle 8273" transform="translate(4.933 11.042)"/>
            <g id="Group_7133" data-name="Group 7133" transform="translate(7.886 26.683)">
                <g id="Setting" transform="translate(0 8.033)">
                    <path id="Path_48109" d="M9971.633 977.718a7.331 7.331 0 1 1-7.33-7.331 7.33 7.33 0 0 1 7.33 7.331z" class="cls-8" data-name="Path 48109" transform="translate(-9956.424 -969.949)"/>
                    <path id="Path_48110" d="M9968.088 974.88a7.331 7.331 0 1 1-7.331-7.332 7.332 7.332 0 0 1 7.331 7.332z" class="cls-9" data-name="Path 48110" transform="translate(-9953.426 -967.548)"/>
                    <g id="Group_7126" data-name="Group 7126" transform="translate(2.51 2.482)">
                        <path id="Path_48111" d="M9975.064 983.649h-.99a.1.1 0 0 0-.1.1v.514a3.935 3.935 0 0 0-1.721.686l-.483-.484a.1.1 0 0 0-.136 0l-.7.7a.1.1 0 0 0 0 .135l.462.462a4.348 4.348 0 0 0-.747 1.418l-.664-.118a.1.1 0 0 0-.111.078l-.172.976a.1.1 0 0 0 .077.112l.676.118v.156a4.51 4.51 0 0 0 .148 1.151l-.609.284a.1.1 0 0 0-.046.128l.418.9a.1.1 0 0 0 .129.047l.564-.264a4.213 4.213 0 0 0 .873 1.052l-.283.49a.094.094 0 0 0 .034.13l.858.5a.1.1 0 0 0 .131-.036l.256-.441a3.9 3.9 0 0 0 1.381.336l.043.49a.1.1 0 0 0 .1.087l.987-.086a.1.1 0 0 0 .087-.1l-.043-.5a3.963 3.963 0 0 0 1.273-.583l.365.437a.1.1 0 0 0 .136.012l.759-.636a.1.1 0 0 0 .012-.135l-.405-.484a4.328 4.328 0 0 0 .663-1.143l.678.182a.1.1 0 0 0 .117-.068l.256-.958a.1.1 0 0 0-.067-.117l-.7-.189a4.692 4.692 0 0 0 .023-.472 4.49 4.49 0 0 0-.072-.809l.691-.252a.1.1 0 0 0 .057-.122l-.34-.932a.1.1 0 0 0-.123-.057l-.65.238a4.284 4.284 0 0 0-.754-1.089l.367-.522a.1.1 0 0 0-.023-.134l-.813-.569a.1.1 0 0 0-.133.024l-.327.468a3.876 3.876 0 0 0-1.312-.469v-.528a.1.1 0 0 0-.1-.1zm-.541 2.771a2.078 2.078 0 1 1-2.077 2.078 2.076 2.076 0 0 1 2.077-2.078z" class="cls-10" data-name="Path 48111" transform="translate(-9969.703 -983.649)"/>
                        <path id="Path_48112" d="M9985.181 996.429a2.878 2.878 0 1 1-2.878 2.879 2.878 2.878 0 0 1 2.878-2.879zm0 .8a2.078 2.078 0 1 1-2.078 2.078 2.076 2.076 0 0 1 2.078-2.078z" class="cls-11" data-name="Path 48112" transform="translate(-9980.36 -994.458)"/>
                        <path id="Path_48113" d="M10005.724 989.159l-.705-.189a4.419 4.419 0 0 0 .024-.472 4.58 4.58 0 0 0-.072-.809l.691-.252a.1.1 0 0 0 .057-.122l-.339-.932a.1.1 0 0 0-.124-.057l-.651.238a4.278 4.278 0 0 0-.752-1.089l.366-.522a.1.1 0 0 0-.024-.134l-.812-.569a.1.1 0 0 0-.134.024l-.328.468a3.856 3.856 0 0 0-1.311-.469v-.528a.1.1 0 0 0-.1-.1h-.539v2.771a2.078 2.078 0 0 1 0 4.156v2.764l.918-.08a.1.1 0 0 0 .088-.1l-.043-.5a3.948 3.948 0 0 0 1.272-.583l.366.437a.1.1 0 0 0 .136.012l.759-.636a.1.1 0 0 0 .012-.135l-.405-.484a4.328 4.328 0 0 0 .663-1.143l.678.182a.1.1 0 0 0 .117-.068l.257-.958a.1.1 0 0 0-.065-.121z" class="cls-12" data-name="Path 48113" transform="translate(-9996.153 -983.649)"/>
                    </g>
                </g>
                <g id="Game" transform="translate(15.52)">
                    <path id="Path_48114" d="M10072.385 926.059a7.331 7.331 0 1 1-7.332-7.332 7.331 7.331 0 0 1 7.332 7.332z" class="cls-8" data-name="Path 48114" transform="translate(-10057.162 -918.221)"/>
                    <path id="Path_48115" d="M10068.748 922.777a7.331 7.331 0 1 1-7.332-7.332 7.332 7.332 0 0 1 7.332 7.332z" class="cls-13" data-name="Path 48115" transform="translate(-10054.086 -915.446)"/>
                    <g id="Rocket" transform="translate(1.987 4.05)">
                        <path id="Path_48116" d="M10084.48 941.86a6.266 6.266 0 0 0-6.719 2.828l.84 1.221.842 1.222a6.267 6.267 0 0 0 5.037-5.271z" class="cls-14" data-name="Path 48116" transform="translate(-10076.099 -941.715)"/>
                        <path id="Path_48117" d="M10078.011 962.305l-.019-.027-.885-1.286a2.146 2.146 0 0 0-.09.946l.475.686.018.027.412.6a1.958 1.958 0 0 0 .864.182z" class="cls-15" data-name="Path 48117" transform="translate(-10075.445 -958.02)"/>
                        <path id="Rectangle_8274" d="M0 0h.446v1.542H0z" class="cls-16" data-name="Rectangle 8274" transform="rotate(-34.51 7.281 .15)"/>
                        <path id="Rectangle_8275" d="M0 0h.209v1.217H0z" class="cls-17" data-name="Rectangle 8275" transform="rotate(-34.599 7.634 .412)"/>
                        <path id="Path_48118" d="M10074.924 950.95l-2.65-.048 1.264 1.7z" class="cls-18" data-name="Path 48118" transform="translate(-10071.457 -949.485)"/>
                        <path id="Path_48119" d="M10091.072 968.1l-.9 2.493-1.141-1.787z" class="cls-18" data-name="Path 48119" transform="translate(-10085.631 -964.034)"/>
                        <path id="Path_48120" d="M10112.982 943.273a.956.956 0 1 0-1.07-1.553z" class="cls-19" data-name="Path 48120" transform="translate(-10104.983 -941.719)"/>
                        <path id="Path_48121" d="M10066.977 969.932l1.021-.082 1.021-.08-.582-.844-.581-.843-.44.924z" class="cls-20" data-name="Path 48121" transform="translate(-10066.977 -964.017)"/>
                        <path id="Path_48122" d="M10069.711 970.713l.727-.042.728-.042-.429-.622-.429-.622-.3.665z" class="cls-21" data-name="Path 48122" transform="translate(-10069.289 -965.118)"/>
                        <path id="Path_48123" d="M10073.148 971.376l.391.043.392.043-.292-.424-.292-.425-.1.382z" class="cls-22" data-name="Path 48123" transform="translate(-10072.196 -966.159)"/>
                        <path id="Path_48124" d="M10074.975 944.018a6.385 6.385 0 0 0 .375-1.347c0-.024.006-.041.007-.05h-.009l-.027-.006-8.326 5.734-.021.044 1.021-.082 1.021-.08-.168-.242-.068-.1.172-.118.092.134.367-.253.04.057a1.954 1.954 0 0 0 .864.182q.208-.04.407-.09l.789 1.238.643-1.779a6.1 6.1 0 0 0 2.821-3.242z" class="cls-23" data-name="Path 48124" transform="translate(-10066.977 -942.464)"/>
                    </g>
                    <g id="Group_7127" data-name="Group 7127" transform="translate(3.032 10.207)">
                        <path id="Path_48125" d="M10078.8 982.571a.515.515 0 0 0-.125.015 1.125 1.125 0 0 0-1.035-.937 1.038 1.038 0 0 0-.881.545.931.931 0 0 0-.41-.094.918.918 0 0 0-.9 1.124h3.877a.558.558 0 0 0 .014-.121.534.534 0 0 0-.54-.532z" class="cls-24" data-name="Path 48125" transform="translate(-10075.166 -981.65)"/>
                        <path id="Path_48126" d="M10077.13 982.571a.513.513 0 0 0-.124.015 1.126 1.126 0 0 0-1.036-.937 1.038 1.038 0 0 0-.88.545.931.931 0 0 0-.41-.094.921.921 0 0 0-.926.914.986.986 0 0 0 .024.21h3.876a.5.5 0 0 0 .014-.121.534.534 0 0 0-.538-.532z" class="cls-25" data-name="Path 48126" transform="translate(-10073.754 -981.65)"/>
                        <path id="Path_48127" d="M10089.037 982.571a.515.515 0 0 0-.125.015 1.126 1.126 0 0 0-1.036-.937h-.046v1.573h1.73a.5.5 0 0 0 .014-.121.536.536 0 0 0-.537-.53z" class="cls-23" data-name="Path 48127" transform="translate(-10085.66 -981.65)"/>
                    </g>
                    <g id="Group_7128" data-name="Group 7128" transform="translate(2.621 1.194)">
                        <path id="Path_48128" d="M10078.7 924.583a.808.808 0 0 0-.187.021 1.7 1.7 0 0 0-1.563-1.411 1.563 1.563 0 0 0-1.327.821 1.427 1.427 0 0 0-.619-.143 1.389 1.389 0 0 0-1.4 1.381 1.406 1.406 0 0 0 .036.316h5.849a.874.874 0 0 0 .021-.184.806.806 0 0 0-.81-.801z" class="cls-24" data-name="Path 48128" transform="translate(-10073.22 -923.193)"/>
                        <path id="Path_48129" d="M10076.183 924.583a.814.814 0 0 0-.187.021 1.7 1.7 0 0 0-1.563-1.411 1.564 1.564 0 0 0-1.327.821 1.42 1.42 0 0 0-.619-.143 1.389 1.389 0 0 0-1.4 1.381 1.352 1.352 0 0 0 .037.316h5.848a.8.8 0 0 0-.79-.986z" class="cls-25" data-name="Path 48129" transform="translate(-10071.088 -923.193)"/>
                        <path id="Path_48130" d="M10094.149 924.583a.829.829 0 0 0-.188.021 1.7 1.7 0 0 0-1.562-1.411h-.069v2.374h2.61a.8.8 0 0 0-.79-.986z" class="cls-23" data-name="Path 48130" transform="translate(-10089.054 -923.193)"/>
                    </g>
                    <g id="Group_7129" data-name="Group 7129" transform="translate(8.916 7.222)">
                        <path id="Path_48131" d="M10118.449 963.481a.7.7 0 0 0-.16.018 1.457 1.457 0 0 0-1.342-1.212 1.342 1.342 0 0 0-1.14.7 1.211 1.211 0 0 0-.532-.123 1.192 1.192 0 0 0-1.2 1.185 1.176 1.176 0 0 0 .031.271h5.019a.687.687 0 0 0-.678-.845z" class="cls-24" data-name="Path 48131" transform="translate(-10113.743 -962.288)"/>
                        <path id="Path_48132" d="M10116.285 963.481a.707.707 0 0 0-.161.018 1.456 1.456 0 0 0-1.341-1.212 1.345 1.345 0 0 0-1.141.7 1.2 1.2 0 0 0-1.73 1.063 1.176 1.176 0 0 0 .032.271h5.019a.687.687 0 0 0-.678-.845z" class="cls-25" data-name="Path 48132" transform="translate(-10111.912 -962.288)"/>
                        <path id="Path_48133" d="M10131.705 963.481a.7.7 0 0 0-.16.018 1.456 1.456 0 0 0-1.342-1.212h-.059v2.038h2.239a.636.636 0 0 0 .019-.157.693.693 0 0 0-.697-.687z" class="cls-23" data-name="Path 48133" transform="translate(-10127.333 -962.288)"/>
                    </g>
                </g>
                <g id="Idea" transform="translate(13.344 17.647)">
                    <path id="Path_48134" d="M10058.68 1039.978a7.331 7.331 0 1 1-7.331-7.332 7.33 7.33 0 0 1 7.331 7.332z" class="cls-8" data-name="Path 48134" transform="translate(-10043.395 -1032.222)"/>
                    <path id="Path_48135" d="M10054.637 1037.23a7.331 7.331 0 1 1-7.331-7.331 7.332 7.332 0 0 1 7.331 7.331z" class="cls-26" data-name="Path 48135" transform="translate(-10039.975 -1029.899)"/>
                    <g id="Lamp" transform="translate(1.567 2.359)">
                        <path id="Path_48136" d="M10074.676 1066.549a2.218 2.218 0 0 0-2.36 2.383 8.336 8.336 0 0 0 1.291 2.874h2.138a8.33 8.33 0 0 0 1.293-2.874 2.22 2.22 0 0 0-2.362-2.383z" class="cls-27" data-name="Path 48136" transform="translate(-10068.896 -1063.257)"/>
                        <g id="Group_7130" data-name="Group 7130" transform="translate(5.268 6.511)">
                            <path id="Path_48137" d="M10085.112 1089.531a6.715 6.715 0 0 1-.1-1.262 1.783 1.783 0 0 1 .058-.538.489.489 0 0 1-.179 0 .179.179 0 0 1-.1-.051.442.442 0 0 1-.206.076l.023.035a6 6 0 0 1 .057 1.736l-.066-.006a5.8 5.8 0 0 0-.046-1.695.861.861 0 0 0-.047-.065h-.048c-.14-.006-.146-.045-.148-.058a.083.083 0 0 1 .053-.088c.037-.015.094-.008.174.078a.514.514 0 0 0 .143-.029.28.28 0 0 0 .082-.046.2.2 0 0 1 .06-.178.041.041 0 0 1 .05 0c.023.017.025.049.01.112a.218.218 0 0 1-.04.083.1.1 0 0 0 .065.032.463.463 0 0 0 .2-.008.25.25 0 0 1 .08-.093.138.138 0 0 1 .132-.008l.039.022-.031.031a.47.47 0 0 1-.173.1 1.431 1.431 0 0 0-.069.558 6.581 6.581 0 0 0 .1 1.248zm-.74-1.848a.281.281 0 0 0 .059.01c-.024-.017-.041-.02-.05-.016a.013.013 0 0 0-.009.006z" class="cls-28" data-name="Path 48137" transform="translate(-10084.302 -1087.429)"/>
                        </g>
                        <path id="Path_48138" d="M10080.691 1100.648v1.128a.262.262 0 0 0 .255.267h1.628a.262.262 0 0 0 .256-.267v-1.128z" class="cls-29" data-name="Path 48138" transform="translate(-10075.98 -1092.099)"/>
                        <g id="Group_7131" data-name="Group 7131" transform="translate(4.711 8.649)">
                            <path id="Path_48139" d="M10082.83 1101.37a.078.078 0 0 1-.082.072h-1.975a.078.078 0 0 1-.082-.072.078.078 0 0 1 .082-.072h1.975a.078.078 0 0 1 .082.072z" class="cls-12" data-name="Path 48139" transform="translate(-10080.691 -1101.298)"/>
                            <path id="Path_48140" d="M10082.83 1103.245a.078.078 0 0 1-.082.073h-1.975a.078.078 0 0 1-.082-.073.078.078 0 0 1 .082-.072h1.975a.078.078 0 0 1 .082.072z" class="cls-12" data-name="Path 48140" transform="translate(-10080.691 -1102.884)"/>
                            <path id="Path_48141" d="M10082.83 1105.127a.078.078 0 0 1-.082.072h-1.975a.078.078 0 0 1-.082-.072.078.078 0 0 1 .082-.072h1.975a.078.078 0 0 1 .082.072z" class="cls-12" data-name="Path 48141" transform="translate(-10080.691 -1104.476)"/>
                            <path id="Path_48142" d="M10082.83 1107a.078.078 0 0 1-.082.072h-1.975a.078.078 0 0 1-.082-.072.078.078 0 0 1 .082-.072h1.975a.078.078 0 0 1 .082.072z" class="cls-12" data-name="Path 48142" transform="translate(-10080.691 -1106.062)"/>
                            <path id="Path_48143" d="M10082.83 1102.308a.078.078 0 0 1-.082.072h-1.975a.078.078 0 0 1-.082-.072.078.078 0 0 1 .082-.072h1.975a.078.078 0 0 1 .082.072z" class="cls-30" data-name="Path 48143" transform="translate(-10080.691 -1102.091)"/>
                            <path id="Path_48144" d="M10082.83 1104.188a.079.079 0 0 1-.082.073h-1.975a.079.079 0 0 1-.082-.073.078.078 0 0 1 .082-.071h1.975a.078.078 0 0 1 .082.071z" class="cls-30" data-name="Path 48144" transform="translate(-10080.691 -1103.682)"/>
                            <path id="Path_48145" d="M10082.83 1106.064a.078.078 0 0 1-.082.072h-1.975a.078.078 0 0 1-.082-.072.078.078 0 0 1 .082-.072h1.975a.078.078 0 0 1 .082.072z" class="cls-30" data-name="Path 48145" transform="translate(-10080.691 -1105.268)"/>
                            <path id="Path_48146" d="M10082.83 1107.939a.078.078 0 0 1-.082.072h-1.975a.078.078 0 0 1-.082-.072.078.078 0 0 1 .082-.072h1.975a.078.078 0 0 1 .082.072z" class="cls-30" data-name="Path 48146" transform="translate(-10080.691 -1106.854)"/>
                        </g>
                        <path id="Path_48147" d="M10091.622 1067.06a5.967 5.967 0 0 1-.059 5.182h.462a8.332 8.332 0 0 0 1.292-2.873 2.127 2.127 0 0 0-1.695-2.309z" class="cls-30" data-name="Path 48147" transform="translate(-10085.176 -1063.69)"/>
                        <path id="Path_48148" d="M10076.459 1078.393c.045.126-.074.283-.268.35s-.382.02-.426-.106.074-.283.266-.351.383-.019.428.107z" class="cls-31" data-name="Path 48148" transform="translate(-10071.806 -1073.159)"/>
                        <path id="Path_48149" d="M10078.072 1070.831c.086.243-.145.546-.515.676s-.738.038-.824-.2.145-.546.515-.677.738-.042.824.201z" class="cls-31" data-name="Path 48149" transform="translate(-10072.618 -1066.656)"/>
                        <g id="Group_7132" data-name="Group 7132">
                            <path id="Path_48150" d="M10064.125 1053.043l.073-.065 1.991 2.027-.072.065z" class="cls-27" data-name="Path 48150" transform="translate(-10061.969 -1051.779)"/>
                            <path id="Path_48151" d="M10050.138 1071.427l.013-.1 2.867.367-.014.1z" class="cls-27" data-name="Path 48151" transform="translate(-10050.138 -1067.302)"/>
                            <path id="Path_48152" d="M10050.761 1085.982l-.021-.094 2.834-.552.021.1z" class="cls-27" data-name="Path 48152" transform="translate(-10050.647 -1079.147)"/>
                            <path id="Path_48153" d="M10098.3 1053.043l-.074-.065-1.992 2.027.074.065z" class="cls-27" data-name="Path 48153" transform="translate(-10089.13 -1051.779)"/>
                            <path id="Path_48154" d="M10109.109 1072.4l-.014-.1-2.867.367.014.1z" class="cls-27" data-name="Path 48154" transform="translate(-10097.58 -1068.128)"/>
                            <path id="Path_48155" d="M10108.1 1084.516l.021-.094-2.835-.551-.021.094z" class="cls-27" data-name="Path 48155" transform="translate(-10096.768 -1077.908)"/>
                            <path id="Rectangle_8276" d="M0 0h.102v2.75H0z" class="cls-27" data-name="Rectangle 8276" transform="rotate(-1.185 2.942 -275.106)"/>
                        </g>
                    </g>
                </g>
            </g>
            <g id="Group_7135" data-name="Group 7135" transform="translate(10.396 61.321)">
                <path id="Rectangle_8277" d="M0 0h34.696v2.673H0z" class="cls-32" data-name="Rectangle 8277" transform="translate(0 4.623)"/>
                <path id="Rectangle_8278" d="M0 0h20.542v2.673H0z" class="cls-33" data-name="Rectangle 8278" transform="translate(0 4.623)"/>
                <g id="Group_7134" data-name="Group 7134" transform="translate(11.187)">
                    <path id="Path_48156" d="M10043.494 1143.5v.248h-1.234v-2.048h.287v1.8z" class="cls-34" data-name="Path 48156" transform="translate(-10042.26 -1141.451)"/>
                    <path id="Path_48157" d="M10052.768 1145.577a.961.961 0 0 1-.054.332.764.764 0 0 1-.149.255.668.668 0 0 1-.229.164.766.766 0 0 1-.581 0 .663.663 0 0 1-.229-.164.78.78 0 0 1-.149-.255.985.985 0 0 1-.053-.332 1 1 0 0 1 .053-.33.761.761 0 0 1 .149-.255.654.654 0 0 1 .229-.165.755.755 0 0 1 .581 0 .66.66 0 0 1 .229.165.745.745 0 0 1 .149.255.972.972 0 0 1 .054.33zm-.287 0a.66.66 0 0 0-.117-.413.409.409 0 0 0-.637 0 .793.793 0 0 0 0 .826.409.409 0 0 0 .637 0 .661.661 0 0 0 .116-.413z" class="cls-34" data-name="Path 48157" transform="translate(-10049.926 -1144.05)"/>
                    <path id="Path_48158" d="M10063.1 1144.769a.815.815 0 0 1 .28.043.459.459 0 0 1 .183.122.448.448 0 0 1 .1.187.873.873 0 0 1 .03.239v.962l-.1.016a5.801 5.801 0 0 1-.317.035 2.312 2.312 0 0 1-.186.007 1 1 0 0 1-.24-.026.548.548 0 0 1-.189-.084.386.386 0 0 1-.124-.153.522.522 0 0 1-.044-.228.439.439 0 0 1 .051-.219.417.417 0 0 1 .141-.148.652.652 0 0 1 .207-.083 1.115 1.115 0 0 1 .249-.027c.027 0 .057 0 .086.005l.085.011.069.014.042.009v-.077a.625.625 0 0 0-.016-.135.309.309 0 0 0-.053-.119.287.287 0 0 0-.105-.083.426.426 0 0 0-.174-.031 1.3 1.3 0 0 0-.238.02.876.876 0 0 0-.152.039l-.032-.228a.854.854 0 0 1 .178-.046 1.642 1.642 0 0 1 .269-.022zm.023 1.38c.065 0 .123 0 .173-.005a.655.655 0 0 0 .127-.016v-.458a.358.358 0 0 0-.1-.025 1.058 1.058 0 0 0-.161-.01 1.019 1.019 0 0 0-.133.008.411.411 0 0 0-.126.037.279.279 0 0 0-.1.077.2.2 0 0 0-.039.129.221.221 0 0 0 .1.206.482.482 0 0 0 .262.057z" class="cls-34" data-name="Path 48158" transform="translate(-10059.376 -1144.05)"/>
                    <path id="Path_48159" d="M10073.754 1140.154l.275-.047v2.252a2.704 2.704 0 0 1-.242.053 1.921 1.921 0 0 1-.341.027.861.861 0 0 1-.319-.056.685.685 0 0 1-.243-.161.712.712 0 0 1-.155-.253.959.959 0 0 1-.055-.336 1.106 1.106 0 0 1 .046-.325.724.724 0 0 1 .134-.254.627.627 0 0 1 .219-.167.771.771 0 0 1 .529-.023.732.732 0 0 1 .152.067zm0 1.036a.569.569 0 0 0-.145-.079.542.542 0 0 0-.207-.039.446.446 0 0 0-.2.043.38.38 0 0 0-.139.118.508.508 0 0 0-.076.179 1 1 0 0 0-.023.222.6.6 0 0 0 .133.417.457.457 0 0 0 .355.146 1.6 1.6 0 0 0 .188-.01.866.866 0 0 0 .117-.023z" class="cls-34" data-name="Path 48159" transform="translate(-10067.984 -1140.107)"/>
                    <path id="Path_48160" d="M10084.446 1141.235a.178.178 0 0 1-.126-.048.194.194 0 0 1 0-.264.188.188 0 0 1 .252 0 .194.194 0 0 1 0 .264.178.178 0 0 1-.126.048zm.139 1.818h-.274v-1.539h.274z" class="cls-34" data-name="Path 48160" transform="translate(-10077.792 -1140.757)"/>
                    <path id="Path_48161" d="M10089.4 1144.885c.063-.016.146-.033.252-.05a2.112 2.112 0 0 1 .361-.027.8.8 0 0 1 .3.052.479.479 0 0 1 .193.145.551.551 0 0 1 .1.224 1.309 1.309 0 0 1 .031.287v.864h-.277v-.8a1.339 1.339 0 0 0-.019-.243.421.421 0 0 0-.063-.162.255.255 0 0 0-.118-.09.535.535 0 0 0-.183-.028h-.093l-.09.007c-.028 0-.055.007-.077.011l-.049.009v1.3h-.275z" class="cls-34" data-name="Path 48161" transform="translate(-10082.129 -1144.083)"/>
                    <path id="Path_48162" d="M10100.912 1146.226a.7.7 0 0 1-.139.06.686.686 0 0 1-.238.037.788.788 0 0 1-.262-.044.581.581 0 0 1-.215-.138.672.672 0 0 1-.145-.232.942.942 0 0 1-.053-.332.9.9 0 0 1 .05-.309.714.714 0 0 1 .146-.243.66.66 0 0 1 .235-.159.8.8 0 0 1 .314-.058 1.8 1.8 0 0 1 .335.028c.1.019.177.036.242.052v1.373a.654.654 0 0 1-.184.516.83.83 0 0 1-.558.16 1.488 1.488 0 0 1-.273-.024 1.366 1.366 0 0 1-.223-.056l.05-.24a1.284 1.284 0 0 0 .452.083.528.528 0 0 0 .354-.1.405.405 0 0 0 .108-.311zm0-1.142a.765.765 0 0 0-.113-.023 1.418 1.418 0 0 0-.187-.01.42.42 0 0 0-.342.145.587.587 0 0 0-.119.385.684.684 0 0 0 .033.228.483.483 0 0 0 .092.157.363.363 0 0 0 .134.092.436.436 0 0 0 .155.029.616.616 0 0 0 .2-.031.506.506 0 0 0 .146-.072z" class="cls-34" data-name="Path 48162" transform="translate(-10090.98 -1144.083)"/>
                    <path id="Path_48163" d="M10115.883 1152.878a.2.2 0 0 1-.053.139.211.211 0 0 1-.291 0 .211.211 0 0 1 0-.279.208.208 0 0 1 .291 0 .2.2 0 0 1 .053.14z" class="cls-34" data-name="Path 48163" transform="translate(-10104.196 -1150.741)"/>
                    <path id="Path_48164" d="M10120.606 1152.878a.2.2 0 0 1-.054.139.186.186 0 0 1-.146.058.188.188 0 0 1-.146-.058.211.211 0 0 1 0-.279.189.189 0 0 1 .146-.059.186.186 0 0 1 .146.059.206.206 0 0 1 .054.14z" class="cls-34" data-name="Path 48164" transform="translate(-10108.19 -1150.741)"/>
                    <path id="Path_48165" d="M10125.33 1152.878a.2.2 0 0 1-.054.139.187.187 0 0 1-.146.058.185.185 0 0 1-.145-.058.208.208 0 0 1 0-.279.186.186 0 0 1 .145-.059.188.188 0 0 1 .146.059.206.206 0 0 1 .054.14z" class="cls-34" data-name="Path 48165" transform="translate(-10112.187 -1150.741)"/>
                </g>
            </g>
            <path id="Path_48166" d="M9977.9 814h-.81l-42.812 61.054v2.568h43.622z" class="cls-35" data-name="Path 48166" transform="translate(-9929.342 -802.959)"/>
        </g>
        <g id="Command" transform="translate(9026.581 272.236)">
            <g id="Group_7137" data-name="Group 7137" transform="translate(9.36 5.349)">
                <path id="Path_48167" d="M9559.6 877.223c12.727 0 23.043 7.9 23.043 17.638 0 6.8-5.028 12.694-12.388 15.639a13.131 13.131 0 0 0 5.187 5.848s-5.121-2.148-7.811-4.952a29.339 29.339 0 0 1-8.031 1.1c-12.727 0-23.043-7.9-23.043-17.639s10.316-17.634 23.043-17.634z" class="cls-36" data-name="Path 48167" transform="translate(-9536.557 -877.223)"/>
                <g id="Group_7136" data-name="Group 7136" transform="translate(5.779 14.875)">
                    <path id="Path_48168" d="M9763.406 980.9a1.954 1.954 0 1 0 1.952-1.954 1.952 1.952 0 0 0-1.952 1.954z" class="cls-30" data-name="Path 48168" transform="translate(-9734.209 -978.138)"/>
                    <circle id="Ellipse_2823" cx="1.954" cy="1.954" r="1.954" class="cls-30" data-name="Ellipse 2823" transform="rotate(-45 13.8 -23.88)"/>
                    <path id="Path_48169" d="M9669.994 980.9a1.955 1.955 0 1 0 1.955-1.954 1.954 1.954 0 0 0-1.955 1.954z" class="cls-30" data-name="Path 48169" transform="translate(-9655.199 -978.138)"/>
                    <circle id="Ellipse_2824" cx="1.954" cy="1.954" r="1.954" class="cls-30" data-name="Ellipse 2824" transform="rotate(-45 6.883 -7.18)"/>
                    <circle id="Ellipse_2825" cx="1.954" cy="1.954" r="1.954" class="cls-30" data-name="Ellipse 2825" transform="rotate(-67.5 2.86 1.911)"/>
                </g>
                <path id="Path_48170" d="M9582.643 991.623c0 6.8-5.028 12.694-12.388 15.639a13.131 13.131 0 0 0 5.187 5.848s-5.121-2.148-7.811-4.952a29.337 29.337 0 0 1-8.031 1.1c-12.727 0-23.043-7.9-23.043-17.639z" class="cls-30" data-name="Path 48170" transform="translate(-9536.557 -973.985)"/>
            </g>
            <g id="Group_7139" data-name="Group 7139">
                <path id="Path_48171" d="M9498.889 842.529c-12.727 0-23.042 7.9-23.042 17.638 0 6.8 5.026 12.694 12.388 15.639a13.139 13.139 0 0 1-5.187 5.848s5.12-2.148 7.811-4.952a29.341 29.341 0 0 0 8.031 1.1c12.727 0 23.043-7.9 23.043-17.638s-10.318-17.635-23.044-17.635z" class="cls-37" data-name="Path 48171" transform="translate(-9475.847 -842.529)"/>
                <g id="Group_7138" data-name="Group 7138" transform="translate(7.2 15.684)">
                    <path id="Path_48172" d="M9526.455 946.208a1.955 1.955 0 1 1-1.954-1.954 1.954 1.954 0 0 1 1.954 1.954z" class="cls-30" data-name="Path 48172" transform="translate(-9522.546 -944.254)"/>
                    <path id="Path_48173" d="M9574.834 946.208a1.955 1.955 0 1 1-1.955-1.954 1.954 1.954 0 0 1 1.955 1.954z" class="cls-30" data-name="Path 48173" transform="translate(-9563.466 -944.254)"/>
                    <path id="Path_48174" d="M9619.861 946.208a1.955 1.955 0 1 1-1.955-1.954 1.955 1.955 0 0 1 1.955 1.954z" class="cls-30" data-name="Path 48174" transform="translate(-9601.55 -944.254)"/>
                    <circle id="Ellipse_2826" cx="1.954" cy="1.954" r="1.954" class="cls-30" data-name="Ellipse 2826" transform="translate(21.294)"/>
                    <circle id="Ellipse_2827" cx="1.954" cy="1.954" r="1.954" class="cls-30" data-name="Ellipse 2827" transform="translate(28.598)"/>
                </g>
                <path id="Path_48175" d="M9475.847 956.93c0 6.8 5.026 12.694 12.388 15.639a13.139 13.139 0 0 1-5.187 5.848s5.12-2.148 7.811-4.952a29.341 29.341 0 0 0 8.031 1.1c12.727 0 23.043-7.9 23.043-17.638z" class="cls-30" data-name="Path 48175" transform="translate(-9475.847 -939.291)"/>
            </g>
        </g>
        <g id="Key" transform="translate(9043.713 193.567)">
            <path id="Path_48176" d="M9639.918 344.073h5.171v-7.818a3.959 3.959 0 0 0-3.962-3.958h-21.573a3.961 3.961 0 0 0-3.962 3.958v32.36a3.962 3.962 0 0 0 3.962 3.962h1.214v-36.1h19.15z" class="cls-38" data-name="Path 48176" transform="translate(-9611.178 -332.298)"/>
            <path id="Path_48177" d="M9625.389 515.946a3.965 3.965 0 0 1-3.963 3.962h-30.5a3.965 3.965 0 0 1-3.963-3.962v-33.739a3.965 3.965 0 0 1 3.963-3.962h30.5a3.966 3.966 0 0 1 3.963 3.962z" class="cls-39" data-name="Path 48177" transform="translate(-9586.964 -455.743)"/>
            <path id="Path_48178" d="M9696.193 568.945a3.428 3.428 0 1 0-5.055 3v8.211h3.253v-8.211a3.417 3.417 0 0 0 1.802-3z" class="cls-40" data-name="Path 48178" transform="translate(-9673.553 -529.558)"/>
            <path id="Path_48179" d="M9696.707 570.651a2.7 2.7 0 0 0-1.283 5.079v8.139h2.563v-1.646h.008v-6.493a2.7 2.7 0 0 0-1.287-5.079z" class="cls-41" data-name="Path 48179" transform="translate(-9677.495 -533.901)"/>
            <path id="Path_48180" d="M9604.646 522.786h30.5a3.965 3.965 0 0 0 3.962-3.962v-33.739a3.951 3.951 0 0 0-2-3.438l-33.924 40.853a3.953 3.953 0 0 0 1.462.286z" class="cls-30" data-name="Path 48180" transform="translate(-9600.683 -458.62)"/>
        </g>
        <g id="Group_7143" data-name="Group 7143" transform="translate(8997.378 289.185)">
            <g id="Group_7140" data-name="Group 7140" transform="translate(57.628 48.218)">
                <path id="Path_48181" d="M9896.557 1266.463l.5 1.679s1-.3 2-.622c.5-.161 1-.328 1.372-.458l.629-.225-.613-1.642-.592.211c-.361.125-.848.289-1.336.447-.974.316-1.96.61-1.96.61z" class="cls-2" data-name="Path 48181" transform="translate(-9860.116 -1265.195)"/>
                <path id="Path_48182" d="M9858.112 1278.07l.409 1.7s.256-.06.637-.153l1.395-.352c1.013-.262 2.021-.543 2.021-.543l-.47-1.689s-.992.276-1.99.535l-1.374.347z" class="cls-2" data-name="Path 48182" transform="translate(-9827.6 -1275.211)"/>
                <path id="Path_48183" d="M9819.167 1287.517l.322 1.724.643-.12 1.41-.28c.513-.1 1.022-.217 1.407-.3l.639-.14-.381-1.711-.629.138c-.379.078-.881.194-1.388.292l-1.39.277z" class="cls-2" data-name="Path 48183" transform="translate(-9794.659 -1283.378)"/>
                <path id="Path_48184" d="M9779.851 1294.96l.231 1.737 2.07-.3 1.422-.223.645-.109-.294-1.729-.636.107-1.4.22z" class="cls-2" data-name="Path 48184" transform="translate(-9761.404 -1289.848)"/>
                <path id="Path_48185" d="M9740.268 1300.336l.133 1.749.652-.049 1.435-.128c.521-.043 1.041-.109 1.431-.147l.65-.069-.2-1.743-.641.069c-.383.038-.895.1-1.408.145l-1.41.126z" class="cls-2" data-name="Path 48185" transform="translate(-9727.924 -1294.589)"/>
                <path id="Path_48186" d="M9700.547 1303.469l.023 1.753.654-.006 1.44-.044c.522-.011 1.046-.041 1.438-.061l.654-.033-.1-1.751-.643.033c-.386.019-.9.048-1.414.06l-1.414.042z" class="cls-2" data-name="Path 48186" transform="translate(-9694.328 -1297.447)"/>
                <path id="Path_48187" d="M9660.307 1303.43l-.1 1.751s.262.02.654.037l1.44.054c.525.025 1.05.027 1.441.033l.656.009.015-1.753-.643-.009c-.385-.006-.9-.008-1.413-.033l-1.413-.052c-.381-.018-.637-.037-.637-.037z" class="cls-2" data-name="Path 48187" transform="translate(-9660.209 -1297.535)"/>
            </g>
            <g id="Group_7141" data-name="Group 7141" transform="translate(17.951 38.265)">
                <path id="Path_48188" d="M9620.064 1299.713l-.232 1.737s.259.041.65.083l1.434.168c.521.065 1.045.1 1.438.138l.653.058.141-1.748-.639-.057c-.384-.038-.9-.07-1.405-.134l-1.4-.165c-.386-.04-.64-.08-.64-.08z" class="cls-2" data-name="Path 48188" transform="translate(-9586.381 -1284.439)"/>
                <path id="Path_48189" d="M9580.248 1292.753l-.385 1.71 2.058.433 2.069.367.283-1.73-2.02-.358z" class="cls-2" data-name="Path 48189" transform="translate(-9552.574 -1278.552)"/>
                <path id="Path_48190" d="M9541.242 1282.18l-.551 1.664.626.2c.376.118.874.292 1.384.427l1.393.394c.189.055.349.1.459.125l.178.043.438-1.7-.17-.042c-.111-.024-.265-.068-.449-.12l-1.354-.384c-.5-.131-.978-.3-1.344-.416z" class="cls-2" data-name="Path 48190" transform="translate(-9519.442 -1269.609)"/>
                <path id="Path_48191" d="M9503.521 1267.766l-.729 1.595.6.275c.357.174.85.361 1.336.564s.973.41 1.344.542l.619.227.609-1.644-.6-.22c-.362-.13-.829-.335-1.3-.525s-.949-.379-1.293-.548z" class="cls-2" data-name="Path 48191" transform="translate(-9487.387 -1257.417)"/>
                <path id="Path_48192" d="M9467.661 1249.374l-.909 1.5.154.1c.099.065.238.145.412.242l1.262.718c.455.27.928.5 1.279.684l.588.3.787-1.566-.568-.291c-.34-.175-.8-.4-1.237-.661l-1.22-.694a7.925 7.925 0 0 1-.4-.234z" class="cls-2" data-name="Path 48192" transform="translate(-9456.902 -1241.861)"/>
                <path id="Path_48193" d="M9434.342 1226.9l-1.086 1.376.523.4c.316.237.726.573 1.159.875l1.732 1.206.969-1.461-1.673-1.165c-.419-.292-.813-.617-1.119-.845z" class="cls-2" data-name="Path 48193" transform="translate(-9428.571 -1222.852)"/>
                <path id="Path_48194" d="M9404.116 1200.644l-1.245 1.234.459.474c.283.276.674.632 1.057.995.193.181.387.36.566.53l.262.243.244.208.5.426 1.142-1.332-.486-.411-.235-.2-.252-.236c-.175-.162-.36-.337-.547-.512-.371-.349-.748-.694-1.021-.96z" class="cls-2" data-name="Path 48194" transform="translate(-9402.871 -1200.644)"/>
            </g>
            <g id="Group_7142" data-name="Group 7142">
                <path id="Path_48195" d="M9377.359 1171.021l-1.383 1.077.41.516c.251.307.566.731.912 1.128l1.395 1.587 1.293-1.184-1.348-1.534c-.334-.385-.64-.8-.882-1.092s-.397-.498-.397-.498z" class="cls-2" data-name="Path 48195" transform="translate(-9362.172 -1137.323)"/>
                <path id="Path_48196" d="M9354.208 1138.632l-1.493.919 1.147 1.769c.145.219.283.444.426.646l.394.548.385.536 1.422-1.026-.372-.519-.383-.531c-.138-.2-.271-.415-.413-.627l-1.113-1.715z" class="cls-2" data-name="Path 48196" transform="translate(-9342.496 -1109.928)"/>
                <path id="Path_48197" d="M9334.8 1103.938l-1.576.767.076.164c.049.1.117.255.21.427l.671 1.283c.247.465.482.936.678 1.279l.332.569 1.522-.869-.322-.552c-.194-.331-.419-.792-.658-1.244l-.653-1.248a4.61 4.61 0 0 1-.2-.417z" class="cls-2" data-name="Path 48197" transform="translate(-9326.01 -1080.583)"/>
                <path id="Path_48198" d="M9318.767 1067.577l-1.638.625s.021.062.063.17.09.264.168.445c.15.365.352.85.553 1.335s.4.971.554 1.334c.073.184.149.329.2.435l.077.163 1.6-.719-.075-.16c-.045-.1-.12-.245-.192-.424-.146-.355-.343-.828-.539-1.3l-.539-1.3c-.077-.177-.125-.33-.165-.434l-.067-.17z" class="cls-2" data-name="Path 48198" transform="translate(-9312.397 -1049.828)"/>
                <path id="Path_48199" d="M9305.816 1030l-1.682.5s.019.062.049.174.085.265.145.453l.439 1.374.439 1.374c.135.37.227.616.227.616l1.652-.582-.22-.6-.431-1.345-.43-1.345c-.059-.184-.107-.337-.143-.444s-.045-.175-.045-.175z" class="cls-2" data-name="Path 48199" transform="translate(-9301.406 -1018.044)"/>
                <path id="Path_48200" d="M9295.749 991.523l-1.712.382.482 2.04c.061.255.12.51.178.749s.124.459.176.648c.1.378.174.631.174.631l1.693-.459s-.07-.248-.172-.619c-.051-.187-.115-.4-.174-.635s-.113-.485-.173-.736c-.237-1-.472-2.001-.472-2.001z" class="cls-2" data-name="Path 48200" transform="translate(-9292.866 -985.5)"/>
                <path id="Path_48201" d="M9288.17 952.46l-1.729.282s.041.258.1.646.137.905.238 1.419l.406 2.054 1.719-.349-.4-2.02c-.1-.5-.17-1.016-.234-1.4s-.1-.632-.1-.632z" class="cls-2" data-name="Path 48201" transform="translate(-9286.44 -952.46)"/>
            </g>
        </g>
    </g>
</svg>
