<svg xmlns="http://www.w3.org/2000/svg" width="216.773" height="161.832" viewBox="0 0 216.773 161.832">
    <defs>
        <style>
            .cls-1{fill:#a8a8a8;opacity:.142}.cls-2{fill:#033}.cls-3{fill:#34495e}.cls-3,.cls-4,.cls-5,.cls-6,.cls-9{fill-rule:evenodd}.cls-4,.cls-8{opacity:.5}.cls-17,.cls-5,.cls-8{fill:#fff}.cls-5{opacity:.8}.cls-6{fill:#cacfd0}.cls-7{opacity:.3}.cls-9{fill:#333}.cls-10{fill:#f1c40f}.cls-11{fill:#f46464}.cls-12{fill:#ededed}.cls-13{fill:#88604a}.cls-14{fill:#785741}.cls-15,.cls-17{opacity:.2}.cls-16{fill:#ce6405}.cls-18{fill:#d3d3d3;opacity:.4}.cls-19{opacity:.1}.cls-20{fill:#f7d546}
        </style>
    </defs>
    <g id="Group_7098" data-name="Group 7098" transform="translate(-3583.504 1566.501)">
        <ellipse id="Background_2" cx="80.173" cy="80.916" class="cls-1" data-name="Background 2" rx="80.173" ry="80.916" transform="translate(3615.245 -1566.501)"/>
        <g id="Laptop" transform="translate(3630.788 -1547.534)">
            <g id="Group_7093" data-name="Group 7093">
                <path id="Rectangle_8254" d="M0 0h79.649v3.698H0z" class="cls-2" data-name="Rectangle 8254" transform="translate(27.205 45.007)"/>
                <path id="Path_47747" d="M4020.608-1441.8h-119.8c-5.491 0-7.186 3.448-6.126 7.523 0-.051.007-.1.009-.148a2.835 2.835 0 0 0 .087.84l8.67 32.728c1.31 4.97 2.485 5.124 8.949 5.114l100.168-.01c5.2 0 7.737.01 8.766-4.979l6.754-32.853a3.01 3.01 0 0 0 .045-.374.028.028 0 0 1 0 .009l.328-2.784c.465-3.995-4.796-5.066-7.85-5.066zm-125.866 6.939a3.06 3.06 0 0 0 .001.002zm.26-.761c-.018.038-.04.074-.058.113.019-.037.04-.073.056-.111zm-.148.354c-.022.063-.047.126-.065.19.02-.062.043-.122.066-.188zm4.89-3.2a6.165 6.165 0 0 1 .001-.002zm-3.331 1.239l.037-.028zm.393-.263l.076-.047zm.429-.242c.038-.02.076-.04.115-.058a1.498 1.498 0 0 0-.114.056zm.46-.216c.05-.022.1-.042.151-.062-.046.019-.099.038-.146.06zm.485-.185c.065-.022.13-.04.2-.061a2.544 2.544 0 0 0-.199.059zm.506-.149c.082-.021.164-.038.245-.055-.08.015-.162.032-.244.052zm.523-.113c.106-.018.212-.03.317-.042-.104.01-.21.022-.316.039z" class="cls-3" data-name="Path 47747" transform="translate(-3894.382 1441.798)"/>
                <path id="Path_47748" d="M3900.808-1441.8h119.8c3.054 0 8.314 1.069 7.851 5.066l-.328 2.784a6.415 6.415 0 0 0-5.557-4.546h-122.286c-2.755 0-5.635 1.907-5.606 4.219-1.06-4.075.635-7.523 6.126-7.523z" class="cls-4" data-name="Path 47748" transform="translate(-3894.382 1441.798)"/>
                <path id="Path_47749" d="M3936.435-1405.633l121.959-.136-6.579 38.121-107.731.029z" class="cls-5" data-name="Path 47749" transform="translate(-3930.039 1411.249)"/>
                <path id="Path_47750" d="M3957.36-1131.642h109.985a3.326 3.326 0 0 1 3.314 3.313v60.648a3.326 3.326 0 0 1-3.314 3.314H3957.36a3.326 3.326 0 0 1-3.314-3.314v-60.648a3.326 3.326 0 0 1 3.314-3.313z" class="cls-6" data-name="Path 47750" transform="translate(-3944.971 1178.816)"/>
                <path id="Rectangle_8255" d="M0 0h31.154v16.307H0z" class="cls-2" data-name="Rectangle 8255" transform="translate(51.799 93.934)"/>
                <path id="Rectangle_8256" d="M0 0h105.047v38.185H0z" class="cls-7" data-name="Rectangle 8256" transform="translate(14.857 52.856)"/>
                <path id="Path_47751" d="M4275.122-808.8c0 3.883-.671 7.033-1.5 7.033H4250.5c-.829 0-1.5-3.15-1.5-7.033 0-3.882.671-7.031 1.5-7.031h23.122c.828 0 1.5 3.149 1.5 7.031z" class="cls-7" data-name="Path 47751" transform="translate(-4195.063 911.037)"/>
            </g>
            <g id="Light" transform="translate(28.219 5.48)">
                <path id="Path_47752" d="M4132.536-1405.764h-25.692l-26.932 38.142 17.991-.009z" class="cls-8" data-name="Path 47752" transform="translate(-4079.911 1405.769)"/>
                <path id="Path_47753" d="M4322.834-1405.681l-33.509 38.1h3.6l42.215-38.124z" class="cls-8" data-name="Path 47753" transform="translate(-4257.474 1405.719)"/>
            </g>
            <g id="Keyboard" transform="translate(16.603 55.114)">
                <path id="Path_47754" d="M4004.072-1079.441h4.877a.616.616 0 0 1 .517.679v5.251a.615.615 0 0 1-.517.679h-4.877a.622.622 0 0 1-.528-.679v-5.251a.622.622 0 0 1 .528-.679z" class="cls-9" data-name="Path 47754" transform="translate(-4003.544 1079.441)"/>
                <path id="Path_47755" d="M4056.093-1079.441h4.876a.622.622 0 0 1 .527.679v5.251a.622.622 0 0 1-.527.679h-4.876a.622.622 0 0 1-.527-.679v-5.251a.622.622 0 0 1 .527-.679z" class="cls-9" data-name="Path 47755" transform="translate(-4047.653 1079.441)"/>
                <path id="Path_47756" d="M4108.171-1079.441h4.866a.623.623 0 0 1 .527.679v5.251a.622.622 0 0 1-.527.679h-4.866a.622.622 0 0 1-.528-.679v-5.251a.622.622 0 0 1 .528-.679z" class="cls-9" data-name="Path 47756" transform="translate(-4091.81 1079.441)"/>
                <path id="Path_47757" d="M4160.188-1079.441h4.866a.615.615 0 0 1 .527.679v5.251a.615.615 0 0 1-.527.679h-4.866a.622.622 0 0 1-.527-.679v-5.251a.622.622 0 0 1 .527-.679z" class="cls-9" data-name="Path 47757" transform="translate(-4135.916 1079.441)"/>
                <path id="Path_47758" d="M4212.2-1079.441h4.877a.623.623 0 0 1 .527.679v5.251a.622.622 0 0 1-.527.679h-4.877a.622.622 0 0 1-.527-.679v-5.251a.622.622 0 0 1 .527-.679z" class="cls-9" data-name="Path 47758" transform="translate(-4180.02 1079.441)"/>
                <path id="Path_47759" d="M4264.286-1079.441h4.867a.622.622 0 0 1 .526.679v5.251a.621.621 0 0 1-.526.679h-4.867a.622.622 0 0 1-.527-.679v-5.251a.622.622 0 0 1 .527-.679z" class="cls-9" data-name="Path 47759" transform="translate(-4224.181 1079.441)"/>
                <path id="Path_47760" d="M4316.305-1079.441h4.866a.615.615 0 0 1 .527.679v5.251a.614.614 0 0 1-.527.679h-4.866a.621.621 0 0 1-.527-.679v-5.251a.622.622 0 0 1 .527-.679z" class="cls-9" data-name="Path 47760" transform="translate(-4268.288 1079.441)"/>
                <path id="Path_47761" d="M4368.319-1079.441h4.877a.622.622 0 0 1 .527.679v5.251a.622.622 0 0 1-.527.679h-4.877a.622.622 0 0 1-.527-.679v-5.251a.622.622 0 0 1 .527-.679z" class="cls-9" data-name="Path 47761" transform="translate(-4312.391 1079.441)"/>
                <path id="Path_47762" d="M4420.4-1079.441h4.866a.622.622 0 0 1 .526.679v5.251a.621.621 0 0 1-.526.679h-4.866a.615.615 0 0 1-.529-.679v-5.251a.615.615 0 0 1 .529-.679z" class="cls-9" data-name="Path 47762" transform="translate(-4356.547 1079.441)"/>
                <path id="Path_47763" d="M4472.415-1079.441h4.867a.616.616 0 0 1 .527.679v5.251a.615.615 0 0 1-.527.679h-4.867a.622.622 0 0 1-.528-.679v-5.251a.622.622 0 0 1 .528-.679z" class="cls-9" data-name="Path 47763" transform="translate(-4400.653 1079.441)"/>
                <path id="Path_47764" d="M4524.438-1079.441h4.878a.622.622 0 0 1 .526.679v5.251a.621.621 0 0 1-.526.679h-4.878a.621.621 0 0 1-.526-.679v-5.251a.622.622 0 0 1 .526-.679z" class="cls-9" data-name="Path 47764" transform="translate(-4444.766 1079.441)"/>
                <path id="Path_47765" d="M4082.2-1019.135h4.867a.621.621 0 0 1 .527.679v5.251a.621.621 0 0 1-.527.678h-4.867a.621.621 0 0 1-.527-.678v-5.251a.621.621 0 0 1 .527-.679z" class="cls-9" data-name="Path 47765" transform="translate(-4069.786 1028.307)"/>
                <path id="Path_47766" d="M4134.214-1019.135h4.877a.622.622 0 0 1 .528.679v5.251a.622.622 0 0 1-.528.678h-4.877a.622.622 0 0 1-.526-.678v-5.251a.622.622 0 0 1 .526-.679z" class="cls-9" data-name="Path 47766" transform="translate(-4113.894 1028.307)"/>
                <path id="Path_47767" d="M4186.285-1019.135h4.877a.622.622 0 0 1 .527.679v5.251a.622.622 0 0 1-.527.678h-4.877a.615.615 0 0 1-.517-.678v-5.251a.615.615 0 0 1 .517-.679z" class="cls-9" data-name="Path 47767" transform="translate(-4158.052 1028.307)"/>
                <path id="Path_47768" d="M4238.313-1019.135h4.867a.622.622 0 0 1 .527.679v5.251a.622.622 0 0 1-.527.678h-4.867a.621.621 0 0 1-.527-.678v-5.251a.621.621 0 0 1 .527-.679z" class="cls-9" data-name="Path 47768" transform="translate(-4202.158 1028.307)"/>
                <path id="Path_47769" d="M4290.328-1019.135h4.876a.615.615 0 0 1 .518.679v5.251a.615.615 0 0 1-.518.678h-4.876a.621.621 0 0 1-.527-.678v-5.251a.622.622 0 0 1 .527-.679z" class="cls-9" data-name="Path 47769" transform="translate(-4246.262 1028.307)"/>
                <path id="Path_47770" d="M4342.338-1019.135h4.876a.621.621 0 0 1 .527.679v5.251a.621.621 0 0 1-.527.678h-4.876a.622.622 0 0 1-.529-.678v-5.251a.622.622 0 0 1 .529-.679z" class="cls-9" data-name="Path 47770" transform="translate(-4290.36 1028.307)"/>
                <path id="Path_47771" d="M4394.422-1019.135h4.866a.621.621 0 0 1 .526.679v5.251a.621.621 0 0 1-.526.678h-4.866a.622.622 0 0 1-.529-.678v-5.251a.622.622 0 0 1 .529-.679z" class="cls-9" data-name="Path 47771" transform="translate(-4334.522 1028.307)"/>
                <path id="Path_47772" d="M4446.437-1019.135h4.878a.616.616 0 0 1 .517.679v5.251a.615.615 0 0 1-.517.678h-4.878a.621.621 0 0 1-.527-.678v-5.251a.622.622 0 0 1 .527-.679z" class="cls-9" data-name="Path 47772" transform="translate(-4378.627 1028.307)"/>
                <path id="Path_47773" d="M4498.456-1019.135h4.876a.621.621 0 0 1 .526.679v5.251a.621.621 0 0 1-.526.678h-4.876a.621.621 0 0 1-.527-.678v-5.251a.622.622 0 0 1 .527-.679z" class="cls-9" data-name="Path 47773" transform="translate(-4422.734 1028.307)"/>
                <path id="Path_47774" d="M4550.528-1019.135h4.868a.621.621 0 0 1 .526.679v5.251a.621.621 0 0 1-.526.678h-4.868a.622.622 0 0 1-.529-.678v-5.251a.622.622 0 0 1 .529-.679z" class="cls-9" data-name="Path 47774" transform="translate(-4466.884 1028.307)"/>
                <path id="Path_47775" d="M4576.516-1079.441h4.865a.623.623 0 0 1 .528.679v5.251a.622.622 0 0 1-.528.679h-4.865a.615.615 0 0 1-.528-.679v-5.251a.616.616 0 0 1 .528-.679z" class="cls-9" data-name="Path 47775" transform="translate(-4488.92 1079.441)"/>
                <path id="Path_47776" d="M4628.528-1079.441h4.865a.622.622 0 0 1 .527.679v5.251a.621.621 0 0 1-.527.679h-4.865a.622.622 0 0 1-.528-.679v-5.251a.622.622 0 0 1 .528-.679z" class="cls-9" data-name="Path 47776" transform="translate(-4533.021 1079.441)"/>
                <path id="Path_47777" d="M4603.393-1019.135h8.688a.621.621 0 0 1 .526.679v5.251a.62.62 0 0 1-.526.678h-8.687a.623.623 0 0 1-.53-.678v-5.251a.623.623 0 0 1 .53-.679z" class="cls-9" data-name="Path 47777" transform="translate(-4511.708 1028.307)"/>
                <path id="Path_47778" d="M4004.6-1019.135h9.017a.621.621 0 0 1 .526.679v5.251a.621.621 0 0 1-.526.678h-9.017a.614.614 0 0 1-.527-.678v-5.251a.614.614 0 0 1 .527-.679z" class="cls-9" data-name="Path 47778" transform="translate(-4003.99 1028.307)"/>
                <path id="Path_47779" d="M4004.6-958.835h10.768a.621.621 0 0 1 .527.678v5.253a.621.621 0 0 1-.527.678H4004.6a.614.614 0 0 1-.527-.678v-5.253a.614.614 0 0 1 .527-.678z" class="cls-9" data-name="Path 47779" transform="translate(-4003.99 977.179)"/>
                <path id="Path_47780" d="M4004.6-898.529h4.857a.621.621 0 0 1 .527.678v5.252a.622.622 0 0 1-.527.679h-4.857a.615.615 0 0 1-.527-.679v-5.252a.614.614 0 0 1 .527-.678z" class="cls-9" data-name="Path 47780" transform="translate(-4003.99 926.045)"/>
                <path id="Path_47781" d="M4056.549-898.529h4.856a.622.622 0 0 1 .528.678v5.252a.623.623 0 0 1-.528.679h-4.856a.623.623 0 0 1-.527-.679v-5.252a.622.622 0 0 1 .527-.678z" class="cls-9" data-name="Path 47781" transform="translate(-4048.04 926.045)"/>
                <path id="Path_47782" d="M4108.5-898.529h4.856a.614.614 0 0 1 .527.678v5.252a.615.615 0 0 1-.527.679h-4.856a.622.622 0 0 1-.527-.679v-5.252a.621.621 0 0 1 .527-.678z" class="cls-9" data-name="Path 47782" transform="translate(-4092.091 926.045)"/>
                <path id="Path_47783" d="M4160.452-898.529h50.6a.615.615 0 0 1 .529.678v5.252a.616.616 0 0 1-.529.679h-50.6a.622.622 0 0 1-.527-.679v-5.252a.621.621 0 0 1 .527-.678z" class="cls-9" data-name="Path 47783" transform="translate(-4136.14 926.045)"/>
                <path id="Path_47784" d="M4094.628-958.243h4.866a.621.621 0 0 1 .528.678v5.252a.621.621 0 0 1-.528.678h-4.866a.621.621 0 0 1-.527-.678v-5.252a.621.621 0 0 1 .527-.678z" class="cls-9" data-name="Path 47784" transform="translate(-4080.328 976.677)"/>
                <path id="Path_47785" d="M4146.646-958.243h4.876a.621.621 0 0 1 .527.678v5.252a.621.621 0 0 1-.527.678h-4.876a.621.621 0 0 1-.527-.678v-5.252a.621.621 0 0 1 .527-.678z" class="cls-9" data-name="Path 47785" transform="translate(-4124.434 976.677)"/>
                <path id="Path_47786" d="M4198.717-958.243h4.876a.622.622 0 0 1 .528.678v5.252a.622.622 0 0 1-.528.678h-4.876a.614.614 0 0 1-.518-.678v-5.252a.614.614 0 0 1 .518-.678z" class="cls-9" data-name="Path 47786" transform="translate(-4168.592 976.677)"/>
                <path id="Path_47787" d="M4250.744-958.243h4.867a.621.621 0 0 1 .527.678v5.252a.621.621 0 0 1-.527.678h-4.867a.621.621 0 0 1-.527-.678v-5.252a.621.621 0 0 1 .527-.678z" class="cls-9" data-name="Path 47787" transform="translate(-4212.699 976.677)"/>
                <path id="Path_47788" d="M4302.76-958.243h4.876a.614.614 0 0 1 .517.678v5.252a.614.614 0 0 1-.517.678h-4.876a.621.621 0 0 1-.527-.678v-5.252a.621.621 0 0 1 .527-.678z" class="cls-9" data-name="Path 47788" transform="translate(-4256.803 976.677)"/>
                <path id="Path_47789" d="M4354.773-958.243h4.875a.622.622 0 0 1 .528.678v5.252a.622.622 0 0 1-.528.678h-4.875a.622.622 0 0 1-.529-.678v-5.252a.622.622 0 0 1 .529-.678z" class="cls-9" data-name="Path 47789" transform="translate(-4300.903 976.677)"/>
                <path id="Path_47790" d="M4406.854-958.243h4.868a.622.622 0 0 1 .527.678v5.252a.622.622 0 0 1-.527.678h-4.868a.621.621 0 0 1-.527-.678v-5.252a.621.621 0 0 1 .527-.678z" class="cls-9" data-name="Path 47790" transform="translate(-4345.065 976.677)"/>
                <path id="Path_47791" d="M4458.873-958.243h4.876a.615.615 0 0 1 .519.678v5.252a.615.615 0 0 1-.519.678h-4.876a.621.621 0 0 1-.527-.678v-5.252a.621.621 0 0 1 .527-.678z" class="cls-9" data-name="Path 47791" transform="translate(-4389.172 976.677)"/>
                <path id="Path_47792" d="M4510.89-958.243h9.065a.623.623 0 0 1 .529.678v5.252a.623.623 0 0 1-.529.678h-9.065a.621.621 0 0 1-.527-.678v-5.252a.621.621 0 0 1 .527-.678z" class="cls-9" data-name="Path 47792" transform="translate(-4433.277 976.677)"/>
                <path id="Path_47793" d="M4589.334-958.835h10.779a.622.622 0 0 1 .528.678v5.253a.622.622 0 0 1-.528.678h-10.779a.622.622 0 0 1-.526-.678v-5.253a.621.621 0 0 1 .526-.678z" class="cls-9" data-name="Path 47793" transform="translate(-4499.791 977.179)"/>
                <path id="Path_47794" d="M4597.627-898.529h4.06a.216.216 0 0 1 .189.229v1.82a.217.217 0 0 1-.189.231h-4.06a.21.21 0 0 1-.18-.231v-1.82a.209.209 0 0 1 .18-.229z" class="cls-9" data-name="Path 47794" transform="translate(-4507.116 926.045)"/>
                <path id="Path_47795" d="M4597.627-872.514h4.06a.217.217 0 0 1 .189.232v1.806a.216.216 0 0 1-.189.23h-4.06a.209.209 0 0 1-.18-.23v-1.806a.21.21 0 0 1 .18-.232z" class="cls-9" data-name="Path 47795" transform="translate(-4507.116 903.987)"/>
                <path id="Path_47796" d="M4558.041-872.514h4.061a.217.217 0 0 1 .189.232v1.806a.215.215 0 0 1-.189.23h-4.061a.208.208 0 0 1-.178-.23v-1.806a.21.21 0 0 1 .178-.232z" class="cls-9" data-name="Path 47796" transform="translate(-4473.552 903.987)"/>
                <path id="Path_47797" d="M4637.09-872.514h4.06a.209.209 0 0 1 .179.232v1.806a.208.208 0 0 1-.179.23h-4.06a.215.215 0 0 1-.188-.23v-1.806a.216.216 0 0 1 .188-.232z" class="cls-9" data-name="Path 47797" transform="translate(-4540.569 903.987)"/>
                <path id="Path_47798" d="M4509.646-898.529h4.878a.621.621 0 0 1 .528.678v5.252a.622.622 0 0 1-.528.679h-4.878a.623.623 0 0 1-.525-.679v-5.252a.621.621 0 0 1 .525-.678z" class="cls-9" data-name="Path 47798" transform="translate(-4432.223 926.045)"/>
            </g>
        </g>
        <g id="Point" transform="translate(3583.504 -1519.043)">
            <g id="Group_7094" data-name="Group 7094" transform="translate(0 20.216)">
                <path id="Path_47799" d="M3637.689-1005.619l-.288-1.233 16.6-3.488.288 1.234z" class="cls-10" data-name="Path 47799" transform="translate(-3629.204 1027.256)"/>
                <path id="Path_47800" d="M3673.59-1100.316l.883-.864 12.051 12.527-.883.865z" class="cls-10" data-name="Path 47800" transform="translate(-3659.888 1104.28)"/>
                <path id="Path_47801" d="M3621.069-1088.842l1.1.624-8.007 14.958-1.1-.624z" class="cls-10" data-name="Path 47801" transform="translate(-3608.567 1093.819)"/>
                <path id="Path_47802" d="M3591.6-1009.288a4.529 4.529 0 0 1-.864 6.345 4.529 4.529 0 0 1-6.316-1.055 4.53 4.53 0 0 1 .863-6.345 4.53 4.53 0 0 1 6.317 1.055z" class="cls-11" data-name="Path 47802" transform="translate(-3583.504 1027.978)"/>
                <path id="Path_47803" d="M3658.651-1119.982a3.762 3.762 0 0 1-.718 5.271 3.762 3.762 0 0 1-5.247-.876 3.762 3.762 0 0 1 .718-5.271 3.763 3.763 0 0 1 5.247.876z" class="cls-11" data-name="Path 47803" transform="translate(-3641.517 1121.564)"/>
                <path id="Path_47804" d="M3742.331-1046.945a5.714 5.714 0 0 1-1.09 8 5.712 5.712 0 0 1-7.967-1.331 5.713 5.713 0 0 1 1.089-8 5.714 5.714 0 0 1 7.968 1.331z" class="cls-11" data-name="Path 47804" transform="translate(-3709.512 1060.329)"/>
            </g>
            <g id="Group_7096" data-name="Group 7096" transform="translate(43.244 27.927)">
                <path id="Path_47805" d="M3878.551-1027.657l.224-.352 4.854 3.216-.223.353z" class="cls-10" data-name="Path 47805" transform="translate(-3876.919 1034.527)"/>
                <g id="Group_7095" data-name="Group 7095">
                    <path id="Path_47806" d="M3907.151-1045l-.415.056-.917-5.734.415-.055z" class="cls-10" data-name="Path 47806" transform="translate(-3900.04 1053.797)"/>
                    <path id="Path_47807" d="M3874.929-1050.773l-.274-.329 4.339-3.652.275.328z" class="cls-10" data-name="Path 47807" transform="translate(-3873.615 1057.204)"/>
                    <path id="Path_47808" d="M3904.256-1014.088a1.53 1.53 0 0 1 2.1.508 1.513 1.513 0 0 1-.443 2.1 1.529 1.529 0 0 1-2.1-.507 1.514 1.514 0 0 1 .443-2.101z" class="cls-11" data-name="Path 47808" transform="translate(-3898.13 1022.913)"/>
                    <path id="Path_47809" d="M3868.393-1037.791a1.271 1.271 0 0 1 1.741.422 1.258 1.258 0 0 1-.368 1.745 1.272 1.272 0 0 1-1.741-.421 1.258 1.258 0 0 1 .368-1.746z" class="cls-11" data-name="Path 47809" transform="translate(-3867.822 1042.979)"/>
                    <path id="Path_47810" d="M3894.035-1070.581a1.93 1.93 0 0 1 2.644.641 1.91 1.91 0 0 1-.558 2.65 1.932 1.932 0 0 1-2.645-.64 1.911 1.911 0 0 1 .559-2.651z" class="cls-11" data-name="Path 47810" transform="translate(-3889.312 1070.863)"/>
                </g>
            </g>
            <g id="Group_7097" data-name="Group 7097" transform="translate(23.425)">
                <path id="Path_47811" d="M3807.75-1208.3l-.74.1-1.636-10.238.739-.1z" class="cls-10" data-name="Path 47811" transform="translate(-3795.053 1224.003)"/>
                <path id="Path_47812" d="M3750.212-1218.6l-.489-.587 7.748-6.52.489.586z" class="cls-10" data-name="Path 47812" transform="translate(-3747.867 1230.086)"/>
                <path id="Path_47813" d="M3756.683-1177.323l.4-.628 8.667 5.743-.4.629z" class="cls-10" data-name="Path 47813" transform="translate(-3753.768 1189.59)"/>
                <path id="Path_47814" d="M3802.578-1153.092a2.732 2.732 0 0 1 3.742.906 2.7 2.7 0 0 1-.791 3.752 2.73 2.73 0 0 1-3.741-.906 2.7 2.7 0 0 1 .79-3.752z" class="cls-11" data-name="Path 47814" transform="translate(-3791.64 1168.852)"/>
                <path id="Path_47815" d="M3738.541-1195.423a2.268 2.268 0 0 1 3.108.752 2.247 2.247 0 0 1-.656 3.117 2.271 2.271 0 0 1-3.109-.753 2.245 2.245 0 0 1 .657-3.116z" class="cls-11" data-name="Path 47815" transform="translate(-3737.519 1204.688)"/>
                <path id="Path_47816" d="M3784.326-1253.973a3.446 3.446 0 0 1 4.72 1.144 3.409 3.409 0 0 1-1 4.731 3.446 3.446 0 0 1-4.721-1.142 3.411 3.411 0 0 1 1.001-4.733z" class="cls-11" data-name="Path 47816" transform="translate(-3775.892 1254.477)"/>
            </g>
        </g>
        <g id="Cup" transform="translate(3610.217 -1474.185)">
            <path id="Path_47817" d="M3782.041-936.752a12.845 12.845 0 0 0 1.819-18.075 12.846 12.846 0 0 0-18.076-1.818 12.839 12.839 0 0 0-2.8 16.679 1.719 1.719 0 0 0-.262.174l-2.933 2.4a1.8 1.8 0 0 0-.254 2.528 1.8 1.8 0 0 0 2.527.255l2.933-2.4a1.807 1.807 0 0 0 .236-.236 12.837 12.837 0 0 0 16.81.493z" class="cls-12" data-name="Path 47817" transform="translate(-3759.133 959.545)"/>
            <path id="Path_47818" d="M3803.863-926.027a10.612 10.612 0 0 1-14.932-1.5 10.613 10.613 0 0 1 1.5-14.932 10.613 10.613 0 0 1 14.932 1.5 10.611 10.611 0 0 1-1.5 14.932z" class="cls-13" data-name="Path 47818" transform="translate(-3782.368 947.09)"/>
            <path id="Path_47819" d="M3826.866-903.685a5.959 5.959 0 0 1-8.383-.844 5.959 5.959 0 0 1 .844-8.383 5.958 5.958 0 0 1 8.383.844 5.958 5.958 0 0 1-.844 8.383z" class="cls-14" data-name="Path 47819" transform="translate(-3808.316 921.144)"/>
            <path id="Path_47820" d="M3817.854-939.2a10.65 10.65 0 0 0-1.167-1.759 10.613 10.613 0 0 0-14.932-1.5 10.647 10.647 0 0 0-1.867 1.992 34.918 34.918 0 0 1 17.966 1.267z" class="cls-15" data-name="Path 47820" transform="translate(-3793.69 947.09)"/>
        </g>
        <g id="Lens" transform="translate(3712.673 -1526.468)">
            <path id="Path_47821" d="M4803.822-942.187a6.2 6.2 0 0 1 .023 8.768 6.2 6.2 0 0 1-8.767.023l-24.03-23.9a6.2 6.2 0 0 1-.025-8.766 6.2 6.2 0 0 1 8.767-.025z" class="cls-16" data-name="Path 47821" transform="translate(-4718.045 1018.902)"/>
            <path id="Path_47822" d="M4816.738-927.984a5.257 5.257 0 0 1 .021 7.436 5.258 5.258 0 0 1-7.437.021l-20.384-20.27a5.261 5.261 0 0 1-.022-7.437 5.26 5.26 0 0 1 7.438-.021z" class="cls-17" data-name="Path 47822" transform="translate(-4733.449 1003.553)"/>
            <path id="Path_47823" d="M4511.455-1256.062a22.252 22.252 0 0 1 .088 31.468 22.253 22.253 0 0 1-31.468.089 22.252 22.252 0 0 1-.088-31.469 22.251 22.251 0 0 1 31.468-.088z" class="cls-18" data-name="Path 47823" transform="translate(-4467.313 1268.735)"/>
            <path id="Path_47824" d="M4775.961-967.843a6.182 6.182 0 0 0-4.9 1.8 6.174 6.174 0 0 0-1.8 4.236c1.291.2 3.106-.573 4.613-2.088a6.721 6.721 0 0 0 2.087-3.948z" class="cls-19" data-name="Path 47824" transform="translate(-4718.081 1018.882)"/>
            <path id="Path_47825" d="M4481.266-1295.016a28.452 28.452 0 0 0-40.237.112 28.453 28.453 0 0 0 .113 40.236 28.451 28.451 0 0 0 37.677 2.161l5.231 5.2s5.349.158 5.438-4.915l-5.552-5.521a28.452 28.452 0 0 0-2.67-37.273zm-4.284 35.864a22.252 22.252 0 0 1-31.468.089 22.253 22.253 0 0 1-.088-31.469 22.251 22.251 0 0 1 31.468-.088 22.251 22.251 0 0 1 .087 31.467z" class="cls-20" data-name="Path 47825" transform="translate(-4432.752 1303.294)"/>
            <path id="Path_47826" d="M4489.086-1257.5a22.149 22.149 0 0 0-9.558 5.676 22.249 22.249 0 0 0-1.182 30.086c-8.546-19.373 3.223-30.784 10.74-35.762z" class="cls-15" data-name="Path 47826" transform="translate(-4466.927 1264.464)"/>
        </g>
    </g>
</svg>
