<svg xmlns="http://www.w3.org/2000/svg" width="240" height="224" viewBox="0 0 240 224">
    <defs>
        <style>
            .cls-1{fill:#a8a8a8;opacity:.147}.cls-2{fill:#005984}.cls-3{fill:#ffdf42}.cls-4{fill:#231f20}.cls-11,.cls-4{opacity:.1}.cls-5{fill:#09c6a2}.cls-6{fill:#3f3f3f}.cls-7{fill:#dbdbdb}.cls-8{fill:#223666}.cls-9{opacity:.6}.cls-10,.cls-17,.cls-21{opacity:.5}.cls-12{fill:#ffc221}.cls-13{fill:#ff6900}.cls-14{fill:#dbf9fd}.cls-15{fill:#033}.cls-16{fill:#34495e}.cls-16,.cls-17,.cls-18,.cls-19,.cls-22{fill-rule:evenodd}.cls-18,.cls-21{fill:#fff}.cls-18{opacity:.8}.cls-19{fill:#ecf0f1}.cls-20{opacity:.3}.cls-22{fill:#333}
        </style>
    </defs>
    <g id="Group_7108" data-name="Group 7108" transform="translate(-5317.475 1886.194)">
        <circle id="Background_2" cx="79.196" cy="79.196" r="79.196" class="cls-1" data-name="Background 2" transform="rotate(-45 517.096 -7305.857)"/>
        <g id="Network_Security" data-name="Network Security" transform="translate(5341.391 -1845.756)">
            <g id="Security" transform="translate(61.815)">
                <path id="Path_47827" d="M5928.231-1614.556l-34.858 15.054v37.335s2.058 26 34.858 40.433c32.8-14.435 34.857-40.433 34.857-40.433v-37.333z" class="cls-2" data-name="Path 47827" transform="translate(-5893.373 1614.556)"/>
                <path id="Path_47828" d="M5968.958-1550.845l-27.734 11.978v29.705s1.637 20.686 27.734 32.172c26.1-11.486 27.734-32.172 27.734-32.172v-29.705z" class="cls-3" data-name="Path 47828" transform="translate(-5934.101 1560.329)"/>
                <path id="Path_47829" d="M6162.387-1562.167v-37.333l-34.857-15.054v92.823c32.8-14.437 34.857-40.436 34.857-40.436z" class="cls-4" data-name="Path 47829" transform="translate(-6092.672 1614.556)"/>
                <path id="Path_47830" d="M6013.739-1400.3l27.645-23.645-4.153-4.856-22.909 19.594-9.516-10.708-4.775 4.245 13.646 15.356.033.038z" class="cls-5" data-name="Path 47830" transform="translate(-5984.153 1456.452)"/>
            </g>
            <g id="Connection" transform="translate(20.522 78.026)">
                <g id="Group_7099" data-name="Group 7099" transform="translate(0 2.846)">
                    <path id="Path_47831" d="M5617.24-1008.668l-1.25-.692 34.294-61.934h28.647v1.429h-27.8z" class="cls-6" data-name="Path 47831" transform="translate(-5615.99 1071.294)"/>
                </g>
                <g id="Group_7100" data-name="Group 7100" transform="translate(62.59 2.341)">
                    <path id="Path_47832" d="M6037.865-1007.392h-1.429v-54.229l13.065-13.065 1.01 1.011-12.646 12.646z" class="cls-6" data-name="Path 47832" transform="translate(-6036.436 1074.687)"/>
                </g>
                <g id="Group_7101" data-name="Group 7101" transform="translate(81.762 1.627)">
                    <path id="Path_47833" d="M6225.4-1012.861l-24.023-65.2h-36.147v-1.429h37.143l24.369 66.13z" class="cls-6" data-name="Path 47833" transform="translate(-6165.225 1079.485)"/>
                </g>
                <path id="Path_47834" d="M6029.984-1080.593a2.342 2.342 0 0 1-2.342 2.343 2.342 2.342 0 0 1-2.342-2.343 2.342 2.342 0 0 1 2.342-2.342 2.342 2.342 0 0 1 2.342 2.342z" class="cls-6" data-name="Path 47834" transform="translate(-5964.368 1084.049)"/>
                <path id="Path_47835" d="M6113.985-1084.682a2.342 2.342 0 0 1-2.343 2.342 2.342 2.342 0 0 1-2.342-2.342 2.342 2.342 0 0 1 2.342-2.342 2.342 2.342 0 0 1 2.343 2.342z" class="cls-6" data-name="Path 47835" transform="translate(-6035.863 1087.529)"/>
                <path id="Path_47836" d="M6159.854-1088.073a2.342 2.342 0 0 1-2.342 2.342 2.342 2.342 0 0 1-2.342-2.342 2.342 2.342 0 0 1 2.342-2.342 2.341 2.341 0 0 1 2.342 2.342z" class="cls-6" data-name="Path 47836" transform="translate(-6074.905 1090.415)"/>
            </g>
            <g id="Key" transform="translate(40.737 94.12)">
                <g id="Key-2" data-name="Key">
                    <path id="Path_47837" d="M5762.557-979.954h1.032v-1.56a.79.79 0 0 0-.791-.79h-4.306a.791.791 0 0 0-.791.79v6.459a.791.791 0 0 0 .791.791h.242v-7.2h3.822z" class="cls-7" data-name="Path 47837" transform="translate(-5756.821 982.304)"/>
                    <rect id="Rectangle_8257" width="7.669" height="8.315" class="cls-8" data-name="Rectangle 8257" rx="3.835" transform="translate(0 4.492)"/>
                    <path id="Path_47838" d="M5774.314-933.41a.684.684 0 0 0-.684-.684.684.684 0 0 0-.684.684.683.683 0 0 0 .359.6v1.639h.649v-1.639a.681.681 0 0 0 .36-.6z" class="cls-9" data-name="Path 47838" transform="translate(-5769.795 941.271)"/>
                    <path id="Path_47839" d="M5774.451-933.033a.541.541 0 0 0-.541.541.541.541 0 0 0 .284.474v1.623h.512V-932.019a.54.54 0 0 0 .284-.474.541.541 0 0 0-.539-.54z" class="cls-10" data-name="Path 47839" transform="translate(-5770.616 940.368)"/>
                    <path id="Path_47840" d="M5755.429-943.22h6.087a.791.791 0 0 0 .791-.791v-6.733a.792.792 0 0 0-.4-.687l-6.771 8.154a.772.772 0 0 0 .293.057z" class="cls-11" data-name="Path 47840" transform="translate(-5754.638 956.027)"/>
                </g>
                <g id="Key-3" data-name="Key" transform="translate(38.586 2.234)">
                    <path id="Path_47841" d="M6021.76-964.946h1.031v-1.56a.791.791 0 0 0-.79-.791h-4.301a.791.791 0 0 0-.791.791v6.459a.791.791 0 0 0 .791.791h.242v-7.2h3.822z" class="cls-7" data-name="Path 47841" transform="translate(-6016.023 967.297)"/>
                    <path id="Rectangle_8258" d="M3.834 0a3.832 3.832 0 0 1 3.835 3.832v.648a3.834 3.834 0 0 1-3.835 3.835A3.834 3.834 0 0 1 0 4.48v-.646A3.834 3.834 0 0 1 3.834 0z" class="cls-12" data-name="Rectangle 8258" transform="translate(0 4.492)"/>
                    <path id="Path_47842" d="M6033.517-918.4a.684.684 0 0 0-.684-.684.684.684 0 0 0-.685.684.68.68 0 0 0 .359.6v1.639h.65v-1.639a.681.681 0 0 0 .36-.6z" class="cls-9" data-name="Path 47842" transform="translate(-6028.998 926.259)"/>
                    <path id="Path_47843" d="M6033.65-918.026a.542.542 0 0 0-.541.542.537.537 0 0 0 .284.473v1.623h.513V-917.016a.537.537 0 0 0 .284-.473.541.541 0 0 0-.54-.537z" class="cls-10" data-name="Path 47843" transform="translate(-6029.816 925.361)"/>
                    <path id="Path_47844" d="M6014.628-928.208h6.087a.791.791 0 0 0 .791-.791v-6.733a.788.788 0 0 0-.4-.686l-6.77 8.154a.785.785 0 0 0 .292.056z" class="cls-11" data-name="Path 47844" transform="translate(-6013.838 941.015)"/>
                </g>
                <g id="Key-4" data-name="Key" transform="translate(103.797 3.166)">
                    <path id="Path_47845" d="M6459.813-958.684h1.032v-1.56a.79.79 0 0 0-.791-.79h-4.306a.79.79 0 0 0-.791.79v6.458a.79.79 0 0 0 .791.791h.242v-7.2h3.822z" class="cls-7" data-name="Path 47845" transform="translate(-6454.077 961.034)"/>
                    <rect id="Rectangle_8259" width="7.669" height="8.316" class="cls-13" data-name="Rectangle 8259" rx="3.835" transform="translate(0 4.491)"/>
                    <path id="Path_47846" d="M6471.571-912.141a.684.684 0 0 0-.684-.684.684.684 0 0 0-.685.684.683.683 0 0 0 .36.6v1.639h.649v-1.639a.681.681 0 0 0 .36-.6z" class="cls-9" data-name="Path 47846" transform="translate(-6467.052 920.002)"/>
                    <path id="Path_47847" d="M6471.707-911.763a.541.541 0 0 0-.541.541.537.537 0 0 0 .285.473v1.624h.512v-1.629a.538.538 0 0 0 .284-.473.541.541 0 0 0-.54-.536z" class="cls-10" data-name="Path 47847" transform="translate(-6467.872 919.098)"/>
                    <path id="Path_47848" d="M6452.685-921.951h6.087a.791.791 0 0 0 .791-.791v-6.734a.789.789 0 0 0-.4-.686l-6.771 8.154a.791.791 0 0 0 .293.057z" class="cls-11" data-name="Path 47848" transform="translate(-6451.894 934.758)"/>
                </g>
            </g>
            <g id="Clouds" transform="translate(3.423 3.954)">
                <g id="Group_7102" data-name="Group 7102" transform="translate(0 32.041)">
                    <path id="Path_47849" d="M5568.074-1348.177h-1.124a9.2 9.2 0 0 0 .3-2.319 9.165 9.165 0 0 0-9.166-9.166 9.121 9.121 0 0 0-4.572 1.223 17.717 17.717 0 0 0-17.386-14.32 17.718 17.718 0 0 0-17.385 14.31 9.711 9.711 0 0 0-2.8-.411 9.714 9.714 0 0 0-9.714 9.714 9.841 9.841 0 0 0 .095 1.344 7.544 7.544 0 0 0-5.193 7.167 7.543 7.543 0 0 0 7.542 7.543h59.4a7.543 7.543 0 0 0 7.542-7.543 7.542 7.542 0 0 0-7.539-7.542z" class="cls-14" data-name="Path 47849" transform="translate(-5522.955 1368.326)"/>
                    <path id="Path_47850" d="M5764.431-1348.177h-1.124a9.176 9.176 0 0 0 .3-2.319 9.166 9.166 0 0 0-9.166-9.166 9.122 9.122 0 0 0-4.571 1.223 17.718 17.718 0 0 0-17.387-14.32c-.219 0-.437.007-.652.014v39.653h32.6a7.543 7.543 0 0 0 7.542-7.543 7.542 7.542 0 0 0-7.542-7.542z" class="cls-11" data-name="Path 47850" transform="translate(-5719.312 1368.326)"/>
                </g>
                <g id="Group_7103" data-name="Group 7103" transform="translate(107.701)">
                    <path id="Path_47851" d="M6291.557-1563.412h-1.124a9.167 9.167 0 0 0 .3-2.319 9.164 9.164 0 0 0-9.166-9.164 9.122 9.122 0 0 0-4.572 1.222 17.717 17.717 0 0 0-17.386-14.321 17.718 17.718 0 0 0-17.384 14.311 9.714 9.714 0 0 0-2.8-.412 9.714 9.714 0 0 0-9.713 9.714 9.845 9.845 0 0 0 .094 1.344 7.546 7.546 0 0 0-5.193 7.168 7.542 7.542 0 0 0 7.542 7.542h59.4a7.542 7.542 0 0 0 7.542-7.542 7.543 7.543 0 0 0-7.54-7.543z" class="cls-14" data-name="Path 47851" transform="translate(-6194.141 1583.602)"/>
                    <path id="Path_47852" d="M6487.91-1563.412h-1.124a9.167 9.167 0 0 0 .3-2.319 9.164 9.164 0 0 0-9.166-9.164 9.12 9.12 0 0 0-4.571 1.222 17.718 17.718 0 0 0-17.387-14.321c-.218 0-.436.007-.653.015v39.653h32.6a7.543 7.543 0 0 0 7.543-7.542 7.544 7.544 0 0 0-7.542-7.544z" class="cls-11" data-name="Path 47852" transform="translate(-6390.496 1583.602)"/>
                </g>
                <g id="Group_7104" data-name="Group 7104" transform="translate(101.596 61.069)">
                    <path id="Path_47853" d="M6231.253-1160.269h-.8a6.57 6.57 0 0 0 .211-1.651 6.525 6.525 0 0 0-6.524-6.524 6.5 6.5 0 0 0-3.254.87 12.611 12.611 0 0 0-12.375-10.193 12.612 12.612 0 0 0-12.375 10.186 6.89 6.89 0 0 0-1.992-.293 6.915 6.915 0 0 0-6.915 6.914 6.951 6.951 0 0 0 .068.957 5.371 5.371 0 0 0-3.7 5.1 5.369 5.369 0 0 0 5.369 5.369h42.283a5.369 5.369 0 0 0 5.369-5.369 5.369 5.369 0 0 0-5.365-5.366z" class="cls-14" data-name="Path 47853" transform="translate(-6152.537 1172.071)"/>
                    <path id="Path_47854" d="M6371.018-1160.269h-.8a6.548 6.548 0 0 0 .211-1.651 6.524 6.524 0 0 0-6.524-6.524 6.5 6.5 0 0 0-3.254.87 12.611 12.611 0 0 0-12.375-10.193c-.156 0-.311 0-.465.011v28.224h23.207a5.368 5.368 0 0 0 5.368-5.369 5.368 5.368 0 0 0-5.368-5.368z" class="cls-11" data-name="Path 47854" transform="translate(-6292.301 1172.071)"/>
                </g>
            </g>
            <g id="Computer" transform="translate(0 122.966)">
                <g id="Laptop">
                    <g id="Group_7105" data-name="Group 7105">
                        <path id="Rectangle_8260" d="M0 0h24.75v1.149H0z" class="cls-15" data-name="Rectangle 8260" transform="translate(8.454 13.985)"/>
                        <path id="Path_47855" d="M5517.357-788.534h-37.227c-1.707 0-2.233 1.071-1.9 2.338v-.047a.847.847 0 0 0 .026.262l2.694 10.169c.407 1.544.772 1.592 2.781 1.589h31.126c1.617 0 2.4 0 2.724-1.548l2.1-10.208a.876.876 0 0 0 .014-.116l.1-.864c.145-1.241-1.489-1.575-2.438-1.575zm-39.112 2.156a.581.581 0 0 0-.012.072.69.69 0 0 1 .013-.072zm.081-.238c-.006.013-.013.023-.018.035.006-.011.013-.019.019-.034zm-.046.111l-.021.059c.007-.019.014-.039.022-.054zm1.519-1c.057 0 .113-.008.168-.008-.054.005-.111.013-.167.013zm-1.035.385l.012-.009zm.122-.081l.023-.016zm.134-.076l.036-.018zm.143-.067l.047-.019zm.15-.057c.021-.008.041-.013.061-.019-.02.01-.04.02-.06.02zm.158-.047l.076-.016zm.162-.035l.1-.013z" class="cls-16" data-name="Path 47855" transform="translate(-5478.133 788.534)"/>
                        <path id="Path_47856" d="M5480.13-788.534h37.227c.949 0 2.583.331 2.439 1.574l-.1.864a2 2 0 0 0-1.727-1.412h-38c-.856 0-1.751.592-1.742 1.311-.329-1.267.2-2.338 1.9-2.338z" class="cls-17" data-name="Path 47856" transform="translate(-5478.133 788.534)"/>
                        <path id="Path_47857" d="M5491.485-777.053l37.9-.042-2.044 11.845-33.477.009z" class="cls-18" data-name="Path 47857" transform="translate(-5489.498 778.798)"/>
                        <path id="Path_47858" d="M5498.107-690.064h34.177a1.034 1.034 0 0 1 1.03 1.029v18.846a1.034 1.034 0 0 1-1.03 1.03h-34.177a1.034 1.034 0 0 1-1.03-1.03v-18.846a1.033 1.033 0 0 1 1.03-1.029z" class="cls-19" data-name="Path 47858" transform="translate(-5494.257 704.723)"/>
                        <path id="Rectangle_8261" d="M0 0h9.681v5.068H0z" class="cls-15" data-name="Rectangle 8261" transform="translate(16.096 29.189)"/>
                        <path id="Rectangle_8262" d="M0 0h32.642v11.866H0z" class="cls-20" data-name="Rectangle 8262" transform="translate(4.617 16.425)"/>
                        <path id="Path_47859" d="M5598.838-587.613c0 1.207-.209 2.185-.467 2.185h-7.185c-.258 0-.467-.979-.467-2.185s.209-2.184.467-2.184h7.185c.258 0 .467.979.467 2.184z" class="cls-20" data-name="Path 47859" transform="translate(-5573.959 619.382)"/>
                    </g>
                    <g id="Light" transform="translate(8.769 1.703)">
                        <path id="Path_47860" d="M5553.39-777.094h-7.983l-8.37 11.852h5.591z" class="cls-21" data-name="Path 47860" transform="translate(-5537.038 777.095)"/>
                        <path id="Path_47861" d="M5613.938-777.067l-10.412 11.837h1.119l13.118-11.846z" class="cls-21" data-name="Path 47861" transform="translate(-5593.628 777.079)"/>
                    </g>
                    <g id="Keyboard" transform="translate(5.16 17.125)">
                        <path id="Path_47862" d="M5512.958-673.495h1.515a.192.192 0 0 1 .161.211v1.632a.192.192 0 0 1-.161.211h-1.515a.193.193 0 0 1-.164-.211v-1.632a.193.193 0 0 1 .164-.211z" class="cls-22" data-name="Path 47862" transform="translate(-5512.794 673.495)"/>
                        <path id="Path_47863" d="M5529.471-673.495h1.515a.194.194 0 0 1 .164.211v1.632a.194.194 0 0 1-.164.211h-1.515a.193.193 0 0 1-.164-.211v-1.632a.193.193 0 0 1 .164-.211z" class="cls-22" data-name="Path 47863" transform="translate(-5526.849 673.495)"/>
                        <path id="Path_47864" d="M5546-673.495h1.512a.194.194 0 0 1 .164.211v1.632a.194.194 0 0 1-.164.211H5546a.194.194 0 0 1-.164-.211v-1.632a.194.194 0 0 1 .164-.211z" class="cls-22" data-name="Path 47864" transform="translate(-5540.92 673.495)"/>
                        <path id="Path_47865" d="M5562.521-673.495h1.512a.191.191 0 0 1 .164.211v1.632a.191.191 0 0 1-.164.211h-1.512a.194.194 0 0 1-.164-.211v-1.632a.194.194 0 0 1 .164-.211z" class="cls-22" data-name="Path 47865" transform="translate(-5554.979 673.495)"/>
                        <path id="Path_47866" d="M5579.036-673.495h1.515a.194.194 0 0 1 .164.211v1.632a.194.194 0 0 1-.164.211h-1.515a.194.194 0 0 1-.165-.211v-1.632a.194.194 0 0 1 .165-.211z" class="cls-22" data-name="Path 47866" transform="translate(-5569.034 673.495)"/>
                        <path id="Path_47867" d="M5595.57-673.495h1.513a.193.193 0 0 1 .164.211v1.632a.193.193 0 0 1-.164.211h-1.513a.194.194 0 0 1-.164-.211v-1.632a.194.194 0 0 1 .164-.211z" class="cls-22" data-name="Path 47867" transform="translate(-5583.109 673.495)"/>
                        <path id="Path_47868" d="M5612.085-673.495h1.512a.191.191 0 0 1 .164.211v1.632a.191.191 0 0 1-.164.211h-1.512a.194.194 0 0 1-.165-.211v-1.632a.194.194 0 0 1 .165-.211z" class="cls-22" data-name="Path 47868" transform="translate(-5597.164 673.495)"/>
                        <path id="Path_47869" d="M5628.6-673.495h1.516a.194.194 0 0 1 .164.211v1.632a.194.194 0 0 1-.164.211h-1.516a.193.193 0 0 1-.164-.211v-1.632a.193.193 0 0 1 .164-.211z" class="cls-22" data-name="Path 47869" transform="translate(-5611.22 673.495)"/>
                        <path id="Path_47870" d="M5645.135-673.495h1.512a.194.194 0 0 1 .164.211v1.632a.194.194 0 0 1-.164.211h-1.512a.191.191 0 0 1-.164-.211v-1.632a.191.191 0 0 1 .164-.211z" class="cls-22" data-name="Path 47870" transform="translate(-5625.294 673.495)"/>
                        <path id="Path_47871" d="M5661.648-673.495h1.512a.191.191 0 0 1 .164.211v1.632a.191.191 0 0 1-.164.211h-1.512a.193.193 0 0 1-.164-.211v-1.632a.193.193 0 0 1 .164-.211z" class="cls-22" data-name="Path 47871" transform="translate(-5639.35 673.495)"/>
                        <path id="Path_47872" d="M5678.166-673.495h1.516a.194.194 0 0 1 .164.211v1.632a.194.194 0 0 1-.164.211h-1.516a.194.194 0 0 1-.164-.211v-1.632a.194.194 0 0 1 .164-.211z" class="cls-22" data-name="Path 47872" transform="translate(-5653.408 673.495)"/>
                        <path id="Path_47873" d="M5537.762-654.348h1.513a.194.194 0 0 1 .163.211v1.632a.193.193 0 0 1-.163.21h-1.513a.192.192 0 0 1-.164-.21v-1.632a.193.193 0 0 1 .164-.211z" class="cls-22" data-name="Path 47873" transform="translate(-5533.906 657.198)"/>
                        <path id="Path_47874" d="M5554.272-654.348h1.515a.193.193 0 0 1 .164.211v1.632a.192.192 0 0 1-.164.21h-1.515a.193.193 0 0 1-.165-.21v-1.632a.194.194 0 0 1 .165-.211z" class="cls-22" data-name="Path 47874" transform="translate(-5547.958 657.198)"/>
                        <path id="Path_47875" d="M5570.806-654.348h1.515a.193.193 0 0 1 .164.211v1.632a.192.192 0 0 1-.164.21h-1.515a.191.191 0 0 1-.161-.21v-1.632a.192.192 0 0 1 .161-.211z" class="cls-22" data-name="Path 47875" transform="translate(-5562.033 657.198)"/>
                        <path id="Path_47876" d="M5587.326-654.348h1.512a.193.193 0 0 1 .164.211v1.632a.192.192 0 0 1-.164.21h-1.512a.193.193 0 0 1-.164-.21v-1.632a.194.194 0 0 1 .164-.211z" class="cls-22" data-name="Path 47876" transform="translate(-5576.091 657.198)"/>
                        <path id="Path_47877" d="M5603.839-654.348h1.515a.192.192 0 0 1 .161.211v1.632a.191.191 0 0 1-.161.21h-1.515a.193.193 0 0 1-.164-.21v-1.632a.194.194 0 0 1 .164-.211z" class="cls-22" data-name="Path 47877" transform="translate(-5590.146 657.198)"/>
                        <path id="Path_47878" d="M5620.353-654.348h1.515a.194.194 0 0 1 .164.211v1.632a.193.193 0 0 1-.164.21h-1.515a.192.192 0 0 1-.164-.21v-1.632a.193.193 0 0 1 .164-.211z" class="cls-22" data-name="Path 47878" transform="translate(-5604.202 657.198)"/>
                        <path id="Path_47879" d="M5636.89-654.348h1.512a.194.194 0 0 1 .164.211v1.632a.193.193 0 0 1-.164.21h-1.512a.192.192 0 0 1-.164-.21v-1.632a.193.193 0 0 1 .164-.211z" class="cls-22" data-name="Path 47879" transform="translate(-5618.277 657.198)"/>
                        <path id="Path_47880" d="M5653.4-654.348h1.516a.192.192 0 0 1 .161.211v1.632a.191.191 0 0 1-.161.21h-1.516a.192.192 0 0 1-.164-.21v-1.632a.193.193 0 0 1 .164-.211z" class="cls-22" data-name="Path 47880" transform="translate(-5632.332 657.198)"/>
                        <path id="Path_47881" d="M5669.917-654.348h1.516a.193.193 0 0 1 .164.211v1.632a.192.192 0 0 1-.164.21h-1.516a.193.193 0 0 1-.164-.21v-1.632a.194.194 0 0 1 .164-.211z" class="cls-22" data-name="Path 47881" transform="translate(-5646.387 657.198)"/>
                        <path id="Path_47882" d="M5686.451-654.348h1.512a.194.194 0 0 1 .164.211v1.632a.193.193 0 0 1-.164.21h-1.512a.193.193 0 0 1-.165-.21v-1.632a.194.194 0 0 1 .165-.211z" class="cls-22" data-name="Path 47882" transform="translate(-5660.459 657.198)"/>
                        <path id="Path_47883" d="M5694.7-673.495h1.512a.194.194 0 0 1 .165.211v1.632a.194.194 0 0 1-.165.211h-1.512a.192.192 0 0 1-.164-.211v-1.632a.192.192 0 0 1 .164-.211z" class="cls-22" data-name="Path 47883" transform="translate(-5667.48 673.495)"/>
                        <path id="Path_47884" d="M5711.212-673.495h1.512a.193.193 0 0 1 .164.211v1.632a.193.193 0 0 1-.164.211h-1.512a.194.194 0 0 1-.164-.211v-1.632a.194.194 0 0 1 .164-.211z" class="cls-22" data-name="Path 47884" transform="translate(-5681.535 673.495)"/>
                        <path id="Path_47885" d="M5703.234-654.348h2.7a.193.193 0 0 1 .164.211v1.632a.192.192 0 0 1-.164.21h-2.7a.193.193 0 0 1-.164-.21v-1.632a.194.194 0 0 1 .164-.211z" class="cls-22" data-name="Path 47885" transform="translate(-5674.745 657.198)"/>
                        <path id="Path_47886" d="M5513.124-654.348h2.8a.194.194 0 0 1 .164.211v1.632a.193.193 0 0 1-.164.21h-2.8a.191.191 0 0 1-.164-.21v-1.632a.191.191 0 0 1 .164-.211z" class="cls-22" data-name="Path 47886" transform="translate(-5512.935 657.198)"/>
                        <path id="Path_47887" d="M5513.124-635.2h3.346a.192.192 0 0 1 .164.21v1.633a.193.193 0 0 1-.164.21h-3.346a.191.191 0 0 1-.164-.21v-1.633a.191.191 0 0 1 .164-.21z" class="cls-22" data-name="Path 47887" transform="translate(-5512.935 640.902)"/>
                        <path id="Path_47888" d="M5513.124-616.054h1.509a.193.193 0 0 1 .165.21v1.632a.193.193 0 0 1-.165.211h-1.509a.191.191 0 0 1-.164-.211v-1.632a.191.191 0 0 1 .164-.21z" class="cls-22" data-name="Path 47888" transform="translate(-5512.935 624.605)"/>
                        <path id="Path_47889" d="M5529.618-616.054h1.509a.193.193 0 0 1 .164.21v1.632a.193.193 0 0 1-.164.211h-1.509a.193.193 0 0 1-.164-.211v-1.632a.192.192 0 0 1 .164-.21z" class="cls-22" data-name="Path 47889" transform="translate(-5526.974 624.605)"/>
                        <path id="Path_47890" d="M5546.112-616.054h1.509a.191.191 0 0 1 .164.21v1.632a.191.191 0 0 1-.164.211h-1.509a.193.193 0 0 1-.164-.211v-1.632a.193.193 0 0 1 .164-.21z" class="cls-22" data-name="Path 47890" transform="translate(-5541.013 624.605)"/>
                        <path id="Path_47891" d="M5562.605-616.054h15.724a.191.191 0 0 1 .165.21v1.632a.191.191 0 0 1-.165.211h-15.724a.193.193 0 0 1-.164-.211v-1.632a.193.193 0 0 1 .164-.21z" class="cls-22" data-name="Path 47891" transform="translate(-5555.05 624.605)"/>
                        <path id="Path_47892" d="M5541.708-635.012h1.513a.193.193 0 0 1 .164.21v1.632a.194.194 0 0 1-.164.211h-1.513a.193.193 0 0 1-.164-.211v-1.63a.192.192 0 0 1 .164-.21z" class="cls-22" data-name="Path 47892" transform="translate(-5537.264 640.741)"/>
                        <path id="Path_47893" d="M5558.221-635.012h1.515a.193.193 0 0 1 .164.21v1.632a.194.194 0 0 1-.164.211h-1.515a.194.194 0 0 1-.165-.211v-1.63a.193.193 0 0 1 .165-.21z" class="cls-22" data-name="Path 47893" transform="translate(-5551.319 640.741)"/>
                        <path id="Path_47894" d="M5574.753-635.012h1.515a.193.193 0 0 1 .164.21v1.632a.194.194 0 0 1-.164.211h-1.515a.191.191 0 0 1-.161-.211v-1.63a.19.19 0 0 1 .161-.21z" class="cls-22" data-name="Path 47894" transform="translate(-5565.393 640.741)"/>
                        <path id="Path_47895" d="M5591.271-635.012h1.512a.193.193 0 0 1 .164.21v1.632a.194.194 0 0 1-.164.211h-1.512a.194.194 0 0 1-.164-.211v-1.63a.193.193 0 0 1 .164-.21z" class="cls-22" data-name="Path 47895" transform="translate(-5579.449 640.741)"/>
                        <path id="Path_47896" d="M5607.787-635.012h1.516a.19.19 0 0 1 .161.21v1.632a.191.191 0 0 1-.161.211h-1.516a.194.194 0 0 1-.164-.211v-1.63a.193.193 0 0 1 .164-.21z" class="cls-22" data-name="Path 47896" transform="translate(-5593.506 640.741)"/>
                        <path id="Path_47897" d="M5624.3-635.012h1.515a.193.193 0 0 1 .164.21v1.632a.2.2 0 0 1-.164.211h-1.515a.194.194 0 0 1-.165-.211v-1.63a.193.193 0 0 1 .165-.21z" class="cls-22" data-name="Path 47897" transform="translate(-5607.559 640.741)"/>
                        <path id="Path_47898" d="M5640.835-635.012h1.513a.193.193 0 0 1 .164.21v1.632a.194.194 0 0 1-.164.211h-1.513a.194.194 0 0 1-.164-.211v-1.63a.193.193 0 0 1 .164-.21z" class="cls-22" data-name="Path 47898" transform="translate(-5621.634 640.741)"/>
                        <path id="Path_47899" d="M5657.348-635.012h1.516a.191.191 0 0 1 .16.21v1.632c0 .115-.071.211-.16.211h-1.516a.194.194 0 0 1-.164-.211v-1.63a.193.193 0 0 1 .164-.21z" class="cls-22" data-name="Path 47899" transform="translate(-5635.69 640.741)"/>
                        <path id="Path_47900" d="M5673.865-635.012h2.818a.193.193 0 0 1 .164.21v1.632a.194.194 0 0 1-.164.211h-2.818a.193.193 0 0 1-.163-.211v-1.63a.192.192 0 0 1 .163-.21z" class="cls-22" data-name="Path 47900" transform="translate(-5649.748 640.741)"/>
                        <path id="Path_47901" d="M5698.77-635.2h3.35a.193.193 0 0 1 .165.21v1.633a.194.194 0 0 1-.165.21h-3.35a.193.193 0 0 1-.164-.21v-1.633a.193.193 0 0 1 .164-.21z" class="cls-22" data-name="Path 47901" transform="translate(-5670.945 640.902)"/>
                        <path id="Path_47902" d="M5701.407-616.054h1.261a.067.067 0 0 1 .059.071v.566a.067.067 0 0 1-.059.072h-1.261a.065.065 0 0 1-.056-.072v-.566a.065.065 0 0 1 .056-.071z" class="cls-22" data-name="Path 47902" transform="translate(-5673.282 624.605)"/>
                        <path id="Path_47903" d="M5701.407-607.792h1.261a.067.067 0 0 1 .059.072v.561a.067.067 0 0 1-.059.072h-1.261a.065.065 0 0 1-.056-.072v-.561a.065.065 0 0 1 .056-.072z" class="cls-22" data-name="Path 47903" transform="translate(-5673.282 617.573)"/>
                        <path id="Path_47904" d="M5688.835-607.792h1.262a.066.066 0 0 1 .059.072v.561a.067.067 0 0 1-.059.072h-1.262a.065.065 0 0 1-.056-.072v-.561a.065.065 0 0 1 .056-.072z" class="cls-22" data-name="Path 47904" transform="translate(-5662.582 617.573)"/>
                        <path id="Path_47905" d="M5713.933-607.792h1.262c.031 0 .055.031.055.072v.561a.065.065 0 0 1-.055.072h-1.262a.067.067 0 0 1-.059-.072v-.561a.066.066 0 0 1 .059-.072z" class="cls-22" data-name="Path 47905" transform="translate(-5683.94 617.573)"/>
                        <path id="Path_47906" d="M5673.471-616.054h1.516a.193.193 0 0 1 .164.21v1.632a.193.193 0 0 1-.164.211h-1.516a.192.192 0 0 1-.163-.211v-1.632a.192.192 0 0 1 .163-.21z" class="cls-22" data-name="Path 47906" transform="translate(-5649.413 624.605)"/>
                    </g>
                </g>
                <g id="Laptop-2" data-name="Laptop" transform="translate(70.926)">
                    <g id="Group_7106" data-name="Group 7106">
                        <path id="Rectangle_8263" d="M0 0h24.75v1.149H0z" class="cls-15" data-name="Rectangle 8263" transform="translate(8.454 13.985)"/>
                        <path id="Path_47907" d="M5993.8-788.534h-37.228c-1.706 0-2.233 1.071-1.9 2.338v-.047a.894.894 0 0 0 .027.262l2.694 10.169c.407 1.544.772 1.592 2.781 1.589h31.126c1.616 0 2.4 0 2.724-1.548l2.1-10.208a1.08 1.08 0 0 0 .015-.116l.1-.864c.145-1.241-1.49-1.575-2.439-1.575zm-39.112 2.156a.691.691 0 0 0-.012.072l.012-.072zm.081-.238c-.006.013-.013.023-.018.035.006-.011.013-.019.019-.034zm-.046.111a1.366 1.366 0 0 0 0 .005zm1.52-1c.056 0 .112-.008.168-.008-.056.005-.111.013-.168.013zm-1.035.385l.011-.009zm.122-.081l.023-.016zm.133-.076l.035-.018zm.144-.067l.046-.019zm.15-.057c.021-.008.04-.013.061-.019a.134.134 0 0 1-.061.02zm.157-.047l.076-.016zm.162-.035l.1-.013z" class="cls-16" data-name="Path 47907" transform="translate(-5954.577 788.534)"/>
                        <path id="Path_47908" d="M5956.573-788.534h37.227c.948 0 2.583.331 2.44 1.574l-.1.864a2 2 0 0 0-1.728-1.412h-38c-.856 0-1.751.592-1.742 1.311-.33-1.267.2-2.338 1.9-2.338z" class="cls-17" data-name="Path 47908" transform="translate(-5954.577 788.534)"/>
                        <path id="Path_47909" d="M5967.927-777.053l37.9-.042-2.044 11.845-33.477.009z" class="cls-18" data-name="Path 47909" transform="translate(-5965.939 778.798)"/>
                        <path id="Path_47910" d="M5974.549-690.064h34.177a1.033 1.033 0 0 1 1.03 1.029v18.846a1.034 1.034 0 0 1-1.03 1.03h-34.177a1.034 1.034 0 0 1-1.03-1.03v-18.846a1.034 1.034 0 0 1 1.03-1.029z" class="cls-19" data-name="Path 47910" transform="translate(-5970.699 704.723)"/>
                        <path id="Rectangle_8264" d="M0 0h9.681v5.068H0z" class="cls-15" data-name="Rectangle 8264" transform="translate(16.096 29.189)"/>
                        <path id="Rectangle_8265" d="M0 0h32.642v11.866H0z" class="cls-20" data-name="Rectangle 8265" transform="translate(4.617 16.425)"/>
                        <path id="Path_47911" d="M6075.28-587.613c0 1.207-.209 2.185-.466 2.185h-7.185c-.258 0-.467-.979-.467-2.185s.209-2.184.467-2.184h7.185c.257 0 .466.979.466 2.184z" class="cls-20" data-name="Path 47911" transform="translate(-6050.402 619.382)"/>
                    </g>
                    <g id="Light-2" data-name="Light" transform="translate(8.769 1.703)">
                        <path id="Path_47912" d="M6029.833-777.094h-7.983l-8.37 11.852h5.591z" class="cls-21" data-name="Path 47912" transform="translate(-6013.48 777.095)"/>
                        <path id="Path_47913" d="M6090.38-777.067l-10.412 11.837h1.119l13.119-11.846z" class="cls-21" data-name="Path 47913" transform="translate(-6070.07 777.079)"/>
                    </g>
                    <g id="Keyboard-2" data-name="Keyboard" transform="translate(5.159 17.125)">
                        <path id="Path_47914" d="M5989.4-673.495h1.515a.191.191 0 0 1 .161.211v1.632a.191.191 0 0 1-.161.211h-1.515a.193.193 0 0 1-.164-.211v-1.632a.193.193 0 0 1 .164-.211z" class="cls-22" data-name="Path 47914" transform="translate(-5989.235 673.495)"/>
                        <path id="Path_47915" d="M6005.914-673.495h1.515a.194.194 0 0 1 .164.211v1.632a.194.194 0 0 1-.164.211h-1.515a.194.194 0 0 1-.165-.211v-1.632a.194.194 0 0 1 .165-.211z" class="cls-22" data-name="Path 47915" transform="translate(-6003.291 673.495)"/>
                        <path id="Path_47916" d="M6022.45-673.495h1.512a.194.194 0 0 1 .164.211v1.632a.194.194 0 0 1-.164.211h-1.512a.194.194 0 0 1-.164-.211v-1.632a.194.194 0 0 1 .164-.211z" class="cls-22" data-name="Path 47916" transform="translate(-6017.366 673.495)"/>
                        <path id="Path_47917" d="M6038.963-673.495h1.512a.191.191 0 0 1 .164.211v1.632a.191.191 0 0 1-.164.211h-1.512a.194.194 0 0 1-.164-.211v-1.632a.194.194 0 0 1 .164-.211z" class="cls-22" data-name="Path 47917" transform="translate(-6031.421 673.495)"/>
                        <path id="Path_47918" d="M6055.48-673.495h1.515a.193.193 0 0 1 .165.211v1.632a.193.193 0 0 1-.165.211h-1.515a.193.193 0 0 1-.164-.211v-1.632a.193.193 0 0 1 .164-.211z" class="cls-22" data-name="Path 47918" transform="translate(-6045.479 673.495)"/>
                        <path id="Path_47919" d="M6072.013-673.495h1.512a.194.194 0 0 1 .164.211v1.632a.194.194 0 0 1-.164.211h-1.512a.194.194 0 0 1-.164-.211v-1.632a.194.194 0 0 1 .164-.211z" class="cls-22" data-name="Path 47919" transform="translate(-6059.551 673.495)"/>
                        <path id="Path_47920" d="M6088.53-673.495h1.512a.191.191 0 0 1 .164.211v1.632a.191.191 0 0 1-.164.211h-1.512a.193.193 0 0 1-.164-.211v-1.632a.193.193 0 0 1 .164-.211z" class="cls-22" data-name="Path 47920" transform="translate(-6073.609 673.495)"/>
                        <path id="Path_47921" d="M6105.041-673.495h1.516a.194.194 0 0 1 .164.211v1.632a.194.194 0 0 1-.164.211h-1.516a.194.194 0 0 1-.164-.211v-1.632a.194.194 0 0 1 .164-.211z" class="cls-22" data-name="Path 47921" transform="translate(-6087.662 673.495)"/>
                        <path id="Path_47922" d="M6121.577-673.495h1.512a.194.194 0 0 1 .164.211v1.632a.194.194 0 0 1-.164.211h-1.512a.191.191 0 0 1-.164-.211v-1.632a.191.191 0 0 1 .164-.211z" class="cls-22" data-name="Path 47922" transform="translate(-6101.736 673.495)"/>
                        <path id="Path_47923" d="M6138.091-673.495h1.512a.191.191 0 0 1 .165.211v1.632a.191.191 0 0 1-.165.211h-1.512a.194.194 0 0 1-.164-.211v-1.632a.194.194 0 0 1 .164-.211z" class="cls-22" data-name="Path 47923" transform="translate(-6115.792 673.495)"/>
                        <path id="Path_47924" d="M6154.61-673.495h1.516a.194.194 0 0 1 .164.211v1.632a.194.194 0 0 1-.164.211h-1.516a.193.193 0 0 1-.164-.211v-1.632a.193.193 0 0 1 .164-.211z" class="cls-22" data-name="Path 47924" transform="translate(-6129.853 673.495)"/>
                        <path id="Path_47925" d="M6014.2-654.348h1.512a.194.194 0 0 1 .164.211v1.632a.193.193 0 0 1-.164.21h-1.512a.192.192 0 0 1-.164-.21v-1.632a.193.193 0 0 1 .164-.211z" class="cls-22" data-name="Path 47925" transform="translate(-6010.347 657.198)"/>
                        <path id="Path_47926" d="M6030.718-654.348h1.515a.193.193 0 0 1 .164.211v1.632a.192.192 0 0 1-.164.21h-1.515a.193.193 0 0 1-.164-.21v-1.632a.194.194 0 0 1 .164-.211z" class="cls-22" data-name="Path 47926" transform="translate(-6024.403 657.198)"/>
                        <path id="Path_47927" d="M6047.248-654.348h1.516a.194.194 0 0 1 .164.211v1.632a.193.193 0 0 1-.164.21h-1.516a.191.191 0 0 1-.161-.21v-1.632a.192.192 0 0 1 .161-.211z" class="cls-22" data-name="Path 47927" transform="translate(-6038.475 657.198)"/>
                        <path id="Path_47928" d="M6063.768-654.348h1.513a.194.194 0 0 1 .164.211v1.632a.193.193 0 0 1-.164.21h-1.513a.192.192 0 0 1-.164-.21v-1.632a.193.193 0 0 1 .164-.211z" class="cls-22" data-name="Path 47928" transform="translate(-6052.533 657.198)"/>
                        <path id="Path_47929" d="M6080.282-654.348h1.516c.089 0 .16.1.16.211v1.632a.19.19 0 0 1-.16.21h-1.516a.192.192 0 0 1-.164-.21v-1.632a.193.193 0 0 1 .164-.211z" class="cls-22" data-name="Path 47929" transform="translate(-6066.589 657.198)"/>
                        <path id="Path_47930" d="M6096.795-654.348h1.516a.193.193 0 0 1 .163.211v1.632a.192.192 0 0 1-.163.21h-1.516a.193.193 0 0 1-.164-.21v-1.632a.194.194 0 0 1 .164-.211z" class="cls-22" data-name="Path 47930" transform="translate(-6080.644 657.198)"/>
                        <path id="Path_47931" d="M6113.332-654.348h1.512a.194.194 0 0 1 .165.211v1.632a.193.193 0 0 1-.165.21h-1.512a.192.192 0 0 1-.164-.21v-1.632a.193.193 0 0 1 .164-.211z" class="cls-22" data-name="Path 47931" transform="translate(-6094.719 657.198)"/>
                        <path id="Path_47932" d="M6129.845-654.348h1.516a.192.192 0 0 1 .161.211v1.632a.191.191 0 0 1-.161.21h-1.516a.193.193 0 0 1-.164-.21v-1.632a.194.194 0 0 1 .164-.211z" class="cls-22" data-name="Path 47932" transform="translate(-6108.773 657.198)"/>
                        <path id="Path_47933" d="M6146.361-654.348h1.516a.193.193 0 0 1 .164.211v1.632a.192.192 0 0 1-.164.21h-1.516a.192.192 0 0 1-.163-.21v-1.632a.193.193 0 0 1 .163-.211z" class="cls-22" data-name="Path 47933" transform="translate(-6122.832 657.198)"/>
                        <path id="Path_47934" d="M6162.893-654.348h1.513a.193.193 0 0 1 .163.211v1.632a.192.192 0 0 1-.163.21h-1.513a.193.193 0 0 1-.165-.21v-1.632a.194.194 0 0 1 .165-.211z" class="cls-22" data-name="Path 47934" transform="translate(-6136.901 657.198)"/>
                        <path id="Path_47935" d="M6171.142-673.495h1.512a.194.194 0 0 1 .165.211v1.632a.194.194 0 0 1-.165.211h-1.512a.191.191 0 0 1-.165-.211v-1.632a.191.191 0 0 1 .165-.211z" class="cls-22" data-name="Path 47935" transform="translate(-6143.922 673.495)"/>
                        <path id="Path_47936" d="M6187.658-673.495h1.512a.194.194 0 0 1 .164.211v1.632a.194.194 0 0 1-.164.211h-1.512a.194.194 0 0 1-.164-.211v-1.632a.194.194 0 0 1 .164-.211z" class="cls-22" data-name="Path 47936" transform="translate(-6157.98 673.495)"/>
                        <path id="Path_47937" d="M6179.677-654.348h2.7a.193.193 0 0 1 .164.211v1.632a.192.192 0 0 1-.164.21h-2.7a.194.194 0 0 1-.165-.21v-1.632a.2.2 0 0 1 .165-.211z" class="cls-22" data-name="Path 47937" transform="translate(-6151.186 657.198)"/>
                        <path id="Path_47938" d="M5989.568-654.348h2.8a.194.194 0 0 1 .164.211v1.632a.193.193 0 0 1-.164.21h-2.8a.19.19 0 0 1-.163-.21v-1.632a.19.19 0 0 1 .163-.211z" class="cls-22" data-name="Path 47938" transform="translate(-5989.379 657.198)"/>
                        <path id="Path_47939" d="M5989.568-635.2h3.346a.193.193 0 0 1 .164.21v1.633a.194.194 0 0 1-.164.21h-3.346a.19.19 0 0 1-.163-.21v-1.633a.19.19 0 0 1 .163-.21z" class="cls-22" data-name="Path 47939" transform="translate(-5989.379 640.902)"/>
                        <path id="Path_47940" d="M5989.568-616.054h1.509a.193.193 0 0 1 .164.21v1.632a.193.193 0 0 1-.164.211h-1.509c-.093 0-.163-.095-.163-.211v-1.632a.19.19 0 0 1 .163-.21z" class="cls-22" data-name="Path 47940" transform="translate(-5989.379 624.605)"/>
                        <path id="Path_47941" d="M6006.06-616.054h1.51a.193.193 0 0 1 .164.21v1.632a.194.194 0 0 1-.164.211h-1.51a.193.193 0 0 1-.163-.211v-1.632a.193.193 0 0 1 .163-.21z" class="cls-22" data-name="Path 47941" transform="translate(-6003.416 624.605)"/>
                        <path id="Path_47942" d="M6022.554-616.054h1.509a.19.19 0 0 1 .164.21v1.632a.191.191 0 0 1-.164.211h-1.509a.193.193 0 0 1-.164-.211v-1.632a.192.192 0 0 1 .164-.21z" class="cls-22" data-name="Path 47942" transform="translate(-6017.455 624.605)"/>
                        <path id="Path_47943" d="M6039.047-616.054h15.725a.191.191 0 0 1 .165.21v1.632a.191.191 0 0 1-.165.211h-15.725a.193.193 0 0 1-.164-.211v-1.632a.193.193 0 0 1 .164-.21z" class="cls-22" data-name="Path 47943" transform="translate(-6031.493 624.605)"/>
                        <path id="Path_47944" d="M6018.149-635.012h1.512a.193.193 0 0 1 .164.21v1.632a.194.194 0 0 1-.164.211h-1.512a.193.193 0 0 1-.164-.211v-1.63a.192.192 0 0 1 .164-.21z" class="cls-22" data-name="Path 47944" transform="translate(-6013.705 640.741)"/>
                        <path id="Path_47945" d="M6034.664-635.012h1.515a.193.193 0 0 1 .164.21v1.632a.194.194 0 0 1-.164.211h-1.515a.194.194 0 0 1-.165-.211v-1.63a.193.193 0 0 1 .165-.21z" class="cls-22" data-name="Path 47945" transform="translate(-6027.761 640.741)"/>
                        <path id="Path_47946" d="M6051.2-635.012h1.515a.193.193 0 0 1 .164.21v1.632a.194.194 0 0 1-.164.211h-1.515a.192.192 0 0 1-.161-.211v-1.63a.191.191 0 0 1 .161-.21z" class="cls-22" data-name="Path 47946" transform="translate(-6041.836 640.741)"/>
                        <path id="Path_47947" d="M6067.713-635.012h1.513a.193.193 0 0 1 .164.21v1.632a.194.194 0 0 1-.164.211h-1.513a.194.194 0 0 1-.164-.211v-1.63a.193.193 0 0 1 .164-.21z" class="cls-22" data-name="Path 47947" transform="translate(-6055.891 640.741)"/>
                        <path id="Path_47948" d="M6084.229-635.012h1.515a.19.19 0 0 1 .162.21v1.632a.191.191 0 0 1-.162.211h-1.515a.193.193 0 0 1-.164-.211v-1.63a.192.192 0 0 1 .164-.21z" class="cls-22" data-name="Path 47948" transform="translate(-6069.949 640.741)"/>
                        <path id="Path_47949" d="M6100.742-635.012h1.515a.193.193 0 0 1 .164.21v1.632a.194.194 0 0 1-.164.211h-1.515a.194.194 0 0 1-.165-.211v-1.63a.193.193 0 0 1 .165-.21z" class="cls-22" data-name="Path 47949" transform="translate(-6084.002 640.741)"/>
                        <path id="Path_47950" d="M6117.276-635.012h1.513a.193.193 0 0 1 .164.21v1.632a.194.194 0 0 1-.164.211h-1.513a.193.193 0 0 1-.164-.211v-1.63a.192.192 0 0 1 .164-.21z" class="cls-22" data-name="Path 47950" transform="translate(-6098.076 640.741)"/>
                        <path id="Path_47951" d="M6133.791-635.012h1.516a.191.191 0 0 1 .161.21v1.632a.192.192 0 0 1-.161.211h-1.516a.194.194 0 0 1-.164-.211v-1.63a.193.193 0 0 1 .164-.21z" class="cls-22" data-name="Path 47951" transform="translate(-6112.132 640.741)"/>
                        <path id="Path_47952" d="M6150.308-635.012h2.817a.194.194 0 0 1 .165.21v1.632a.2.2 0 0 1-.165.211h-2.817a.194.194 0 0 1-.164-.211v-1.63a.193.193 0 0 1 .164-.21z" class="cls-22" data-name="Path 47952" transform="translate(-6126.19 640.741)"/>
                        <path id="Path_47953" d="M6175.212-635.2h3.35a.193.193 0 0 1 .164.21v1.633a.193.193 0 0 1-.164.21h-3.35a.193.193 0 0 1-.163-.21v-1.633a.193.193 0 0 1 .163-.21z" class="cls-22" data-name="Path 47953" transform="translate(-6147.388 640.902)"/>
                        <path id="Path_47954" d="M6177.85-616.054h1.262a.067.067 0 0 1 .059.071v.566a.068.068 0 0 1-.059.072h-1.262a.065.065 0 0 1-.056-.072v-.566a.065.065 0 0 1 .056-.071z" class="cls-22" data-name="Path 47954" transform="translate(-6149.724 624.605)"/>
                        <path id="Path_47955" d="M6177.85-607.792h1.262a.067.067 0 0 1 .059.072v.561a.068.068 0 0 1-.059.072h-1.262a.065.065 0 0 1-.056-.072v-.561a.065.065 0 0 1 .056-.072z" class="cls-22" data-name="Path 47955" transform="translate(-6149.724 617.573)"/>
                        <path id="Path_47956" d="M6165.28-607.792h1.262a.067.067 0 0 1 .059.072v.561a.067.067 0 0 1-.059.072h-1.262a.065.065 0 0 1-.055-.072v-.561a.065.065 0 0 1 .055-.072z" class="cls-22" data-name="Path 47956" transform="translate(-6139.026 617.573)"/>
                        <path id="Path_47957" d="M6190.375-607.792h1.261c.032 0 .056.031.056.072v.561a.065.065 0 0 1-.056.072h-1.261a.067.067 0 0 1-.059-.072v-.561a.067.067 0 0 1 .059-.072z" class="cls-22" data-name="Path 47957" transform="translate(-6160.382 617.573)"/>
                        <path id="Path_47958" d="M6149.913-616.054h1.517a.193.193 0 0 1 .163.21v1.632a.193.193 0 0 1-.163.211h-1.517a.193.193 0 0 1-.163-.211v-1.632a.193.193 0 0 1 .163-.21z" class="cls-22" data-name="Path 47958" transform="translate(-6125.855 624.605)"/>
                    </g>
                </g>
                <g id="Laptop-3" data-name="Laptop" transform="translate(138.929)">
                    <g id="Group_7107" data-name="Group 7107">
                        <path id="Rectangle_8266" d="M0 0h24.75v1.149H0z" class="cls-15" data-name="Rectangle 8266" transform="translate(8.453 13.985)"/>
                        <path id="Path_47959" d="M6450.615-788.534h-37.228c-1.706 0-2.233 1.071-1.9 2.338v-.047a.9.9 0 0 0 .027.262l2.694 10.169c.407 1.544.772 1.592 2.78 1.589h31.127c1.616 0 2.4 0 2.725-1.548l2.1-10.208c.008-.039.011-.078.015-.116l.1-.864c.145-1.241-1.492-1.575-2.44-1.575zm-39.112 2.156a.581.581 0 0 0-.012.072.581.581 0 0 1 .009-.072zm.081-.238c-.006.013-.013.023-.018.035.005-.011.012-.019.018-.034zm-.046.111a.694.694 0 0 0 0 .005zm1.52-1c.056 0 .112-.008.168-.008-.056.005-.113.013-.168.013zm-1.035.385l.011-.009zm.122-.081l.023-.016zm.133-.076l.036-.018zm.144-.067l.047-.019zm.15-.057c.021-.008.041-.013.061-.019-.021.01-.041.02-.062.02zm.157-.047l.076-.016zm.163-.035l.1-.013z" class="cls-16" data-name="Path 47959" transform="translate(-6411.391 788.534)"/>
                        <path id="Path_47960" d="M6413.388-788.534h37.228c.948 0 2.583.331 2.439 1.574l-.1.864a2 2 0 0 0-1.728-1.412h-38c-.855 0-1.751.592-1.742 1.311-.329-1.267.2-2.338 1.9-2.338z" class="cls-17" data-name="Path 47960" transform="translate(-6411.391 788.534)"/>
                        <path id="Path_47961" d="M6424.743-777.053l37.9-.042-2.043 11.845-33.477.009z" class="cls-18" data-name="Path 47961" transform="translate(-6422.755 778.798)"/>
                        <path id="Path_47962" d="M6431.363-690.064h34.177a1.034 1.034 0 0 1 1.03 1.029v18.846a1.034 1.034 0 0 1-1.03 1.03h-34.177a1.034 1.034 0 0 1-1.03-1.03v-18.846a1.034 1.034 0 0 1 1.03-1.029z" class="cls-19" data-name="Path 47962" transform="translate(-6427.513 704.723)"/>
                        <path id="Rectangle_8267" d="M0 0h9.681v5.068H0z" class="cls-15" data-name="Rectangle 8267" transform="translate(16.096 29.189)"/>
                        <path id="Rectangle_8268" d="M0 0h32.642v11.866H0z" class="cls-20" data-name="Rectangle 8268" transform="translate(4.617 16.425)"/>
                        <path id="Path_47963" d="M6532.093-587.613c0 1.207-.209 2.185-.466 2.185h-7.185c-.257 0-.467-.979-.467-2.185s.209-2.184.467-2.184h7.185c.257 0 .466.979.466 2.184z" class="cls-20" data-name="Path 47963" transform="translate(-6507.215 619.382)"/>
                    </g>
                    <g id="Light-3" data-name="Light" transform="translate(8.769 1.703)">
                        <path id="Path_47964" d="M6486.649-777.094h-7.983l-8.369 11.852h5.59z" class="cls-21" data-name="Path 47964" transform="translate(-6470.296 777.095)"/>
                        <path id="Path_47965" d="M6547.2-777.067l-10.412 11.837h1.118l13.118-11.846z" class="cls-21" data-name="Path 47965" transform="translate(-6526.887 777.079)"/>
                    </g>
                    <g id="Keyboard-3" data-name="Keyboard" transform="translate(5.159 17.125)">
                        <path id="Path_47966" d="M6446.212-673.495h1.515a.191.191 0 0 1 .161.211v1.632a.191.191 0 0 1-.161.211h-1.515a.194.194 0 0 1-.164-.211v-1.632a.194.194 0 0 1 .164-.211z" class="cls-22" data-name="Path 47966" transform="translate(-6446.048 673.495)"/>
                        <path id="Path_47967" d="M6462.73-673.495h1.515a.194.194 0 0 1 .164.211v1.632a.194.194 0 0 1-.164.211h-1.515a.194.194 0 0 1-.164-.211v-1.632a.194.194 0 0 1 .164-.211z" class="cls-22" data-name="Path 47967" transform="translate(-6460.107 673.495)"/>
                        <path id="Path_47968" d="M6479.264-673.495h1.512a.194.194 0 0 1 .164.211v1.632a.194.194 0 0 1-.164.211h-1.512a.194.194 0 0 1-.165-.211v-1.632a.194.194 0 0 1 .165-.211z" class="cls-22" data-name="Path 47968" transform="translate(-6474.179 673.495)"/>
                        <path id="Path_47969" d="M6495.779-673.495h1.513a.192.192 0 0 1 .164.211v1.632a.192.192 0 0 1-.164.211h-1.513a.194.194 0 0 1-.163-.211v-1.632a.194.194 0 0 1 .163-.211z" class="cls-22" data-name="Path 47969" transform="translate(-6488.237 673.495)"/>
                        <path id="Path_47970" d="M6512.293-673.495h1.515a.194.194 0 0 1 .165.211v1.632a.194.194 0 0 1-.165.211h-1.515a.194.194 0 0 1-.164-.211v-1.632a.194.194 0 0 1 .164-.211z" class="cls-22" data-name="Path 47970" transform="translate(-6502.292 673.495)"/>
                        <path id="Path_47971" d="M6528.826-673.495h1.512a.193.193 0 0 1 .164.211v1.632a.193.193 0 0 1-.164.211h-1.512a.194.194 0 0 1-.164-.211v-1.632a.194.194 0 0 1 .164-.211z" class="cls-22" data-name="Path 47971" transform="translate(-6516.364 673.495)"/>
                        <path id="Path_47972" d="M6545.343-673.495h1.512a.192.192 0 0 1 .165.211v1.632a.192.192 0 0 1-.165.211h-1.512a.193.193 0 0 1-.164-.211v-1.632a.193.193 0 0 1 .164-.211z" class="cls-22" data-name="Path 47972" transform="translate(-6530.422 673.495)"/>
                        <path id="Path_47973" d="M6561.857-673.495h1.515a.193.193 0 0 1 .164.211v1.632a.193.193 0 0 1-.164.211h-1.515a.193.193 0 0 1-.164-.211v-1.632a.193.193 0 0 1 .164-.211z" class="cls-22" data-name="Path 47973" transform="translate(-6544.478 673.495)"/>
                        <path id="Path_47974" d="M6578.391-673.495h1.512a.194.194 0 0 1 .164.211v1.632a.194.194 0 0 1-.164.211h-1.512a.191.191 0 0 1-.165-.211v-1.632a.191.191 0 0 1 .165-.211z" class="cls-22" data-name="Path 47974" transform="translate(-6558.549 673.495)"/>
                        <path id="Path_47975" d="M6594.908-673.495h1.512a.191.191 0 0 1 .164.211v1.632a.191.191 0 0 1-.164.211h-1.512a.194.194 0 0 1-.165-.211v-1.632a.194.194 0 0 1 .165-.211z" class="cls-22" data-name="Path 47975" transform="translate(-6572.607 673.495)"/>
                        <path id="Path_47976" d="M6611.423-673.495h1.516a.193.193 0 0 1 .163.211v1.632a.193.193 0 0 1-.163.211h-1.516a.194.194 0 0 1-.164-.211v-1.632a.194.194 0 0 1 .164-.211z" class="cls-22" data-name="Path 47976" transform="translate(-6586.666 673.495)"/>
                        <path id="Path_47977" d="M6471.017-654.348h1.512a.194.194 0 0 1 .164.211v1.632a.193.193 0 0 1-.164.21h-1.512a.193.193 0 0 1-.164-.21v-1.632a.194.194 0 0 1 .164-.211z" class="cls-22" data-name="Path 47977" transform="translate(-6467.16 657.198)"/>
                        <path id="Path_47978" d="M6487.531-654.348h1.516a.194.194 0 0 1 .165.211v1.632a.193.193 0 0 1-.165.21h-1.516a.193.193 0 0 1-.164-.21v-1.632a.194.194 0 0 1 .164-.211z" class="cls-22" data-name="Path 47978" transform="translate(-6481.216 657.198)"/>
                        <path id="Path_47979" d="M6504.061-654.348h1.515a.193.193 0 0 1 .165.211v1.632a.192.192 0 0 1-.165.21h-1.515a.191.191 0 0 1-.161-.21v-1.632a.192.192 0 0 1 .161-.211z" class="cls-22" data-name="Path 47979" transform="translate(-6495.288 657.198)"/>
                        <path id="Path_47980" d="M6520.581-654.348h1.512a.193.193 0 0 1 .164.211v1.632a.192.192 0 0 1-.164.21h-1.512a.192.192 0 0 1-.164-.21v-1.632a.193.193 0 0 1 .164-.211z" class="cls-22" data-name="Path 47980" transform="translate(-6509.346 657.198)"/>
                        <path id="Path_47981" d="M6537.1-654.348h1.515c.09 0 .16.1.16.211v1.632a.19.19 0 0 1-.16.21h-1.515a.192.192 0 0 1-.164-.21v-1.632a.193.193 0 0 1 .164-.211z" class="cls-22" data-name="Path 47981" transform="translate(-6523.404 657.198)"/>
                        <path id="Path_47982" d="M6553.608-654.348h1.516a.194.194 0 0 1 .164.211v1.632a.193.193 0 0 1-.164.21h-1.516a.193.193 0 0 1-.164-.21v-1.632a.194.194 0 0 1 .164-.211z" class="cls-22" data-name="Path 47982" transform="translate(-6537.457 657.198)"/>
                        <path id="Path_47983" d="M6570.147-654.348h1.512a.193.193 0 0 1 .164.211v1.632a.192.192 0 0 1-.164.21h-1.512a.192.192 0 0 1-.164-.21v-1.632a.193.193 0 0 1 .164-.211z" class="cls-22" data-name="Path 47983" transform="translate(-6551.534 657.198)"/>
                        <path id="Path_47984" d="M6586.659-654.348h1.516c.089 0 .16.1.16.211v1.632a.191.191 0 0 1-.16.21h-1.516a.193.193 0 0 1-.164-.21v-1.632a.194.194 0 0 1 .164-.211z" class="cls-22" data-name="Path 47984" transform="translate(-6565.587 657.198)"/>
                        <path id="Path_47985" d="M6603.174-654.348h1.515a.194.194 0 0 1 .164.211v1.632a.193.193 0 0 1-.164.21h-1.515a.192.192 0 0 1-.164-.21v-1.632a.193.193 0 0 1 .164-.211z" class="cls-22" data-name="Path 47985" transform="translate(-6579.645 657.198)"/>
                        <path id="Path_47986" d="M6619.706-654.348h1.513a.194.194 0 0 1 .163.211v1.632a.193.193 0 0 1-.163.21h-1.513a.193.193 0 0 1-.164-.21v-1.632a.194.194 0 0 1 .164-.211z" class="cls-22" data-name="Path 47986" transform="translate(-6593.715 657.198)"/>
                        <path id="Path_47987" d="M6627.958-673.495h1.512a.194.194 0 0 1 .164.211v1.632a.194.194 0 0 1-.164.211h-1.512a.191.191 0 0 1-.164-.211v-1.632a.191.191 0 0 1 .164-.211z" class="cls-22" data-name="Path 47987" transform="translate(-6600.738 673.495)"/>
                        <path id="Path_47988" d="M6644.471-673.495h1.512a.193.193 0 0 1 .164.211v1.632a.193.193 0 0 1-.164.211h-1.512a.193.193 0 0 1-.164-.211v-1.632a.193.193 0 0 1 .164-.211z" class="cls-22" data-name="Path 47988" transform="translate(-6614.793 673.495)"/>
                        <path id="Path_47989" d="M6636.49-654.348h2.7a.194.194 0 0 1 .164.211v1.632a.193.193 0 0 1-.164.21h-2.7a.193.193 0 0 1-.165-.21v-1.632a.194.194 0 0 1 .165-.211z" class="cls-22" data-name="Path 47989" transform="translate(-6608 657.198)"/>
                        <path id="Path_47990" d="M6446.381-654.348h2.8a.194.194 0 0 1 .164.211v1.632a.193.193 0 0 1-.164.21h-2.8a.19.19 0 0 1-.164-.21v-1.632a.191.191 0 0 1 .164-.211z" class="cls-22" data-name="Path 47990" transform="translate(-6446.192 657.198)"/>
                        <path id="Path_47991" d="M6446.381-635.2h3.346a.193.193 0 0 1 .164.21v1.633a.193.193 0 0 1-.164.21h-3.346a.191.191 0 0 1-.164-.21v-1.633a.19.19 0 0 1 .164-.21z" class="cls-22" data-name="Path 47991" transform="translate(-6446.192 640.902)"/>
                        <path id="Path_47992" d="M6446.381-616.054h1.509a.193.193 0 0 1 .164.21v1.632a.193.193 0 0 1-.164.211h-1.509a.19.19 0 0 1-.164-.211v-1.632a.19.19 0 0 1 .164-.21z" class="cls-22" data-name="Path 47992" transform="translate(-6446.192 624.605)"/>
                        <path id="Path_47993" d="M6462.875-616.054h1.509a.193.193 0 0 1 .164.21v1.632a.193.193 0 0 1-.164.211h-1.509a.193.193 0 0 1-.164-.211v-1.632a.193.193 0 0 1 .164-.21z" class="cls-22" data-name="Path 47993" transform="translate(-6460.23 624.605)"/>
                        <path id="Path_47994" d="M6479.369-616.054h1.509a.191.191 0 0 1 .164.21v1.632a.191.191 0 0 1-.164.211h-1.509a.192.192 0 0 1-.163-.211v-1.632a.192.192 0 0 1 .163-.21z" class="cls-22" data-name="Path 47994" transform="translate(-6474.27 624.605)"/>
                        <path id="Path_47995" d="M6495.86-616.054h15.724a.191.191 0 0 1 .164.21v1.632a.191.191 0 0 1-.164.211h-15.724a.193.193 0 0 1-.164-.211v-1.632a.193.193 0 0 1 .164-.21z" class="cls-22" data-name="Path 47995" transform="translate(-6488.305 624.605)"/>
                        <path id="Path_47996" d="M6474.962-635.012h1.512a.193.193 0 0 1 .165.21v1.632a.194.194 0 0 1-.165.211h-1.512a.194.194 0 0 1-.164-.211v-1.63a.193.193 0 0 1 .164-.21z" class="cls-22" data-name="Path 47996" transform="translate(-6470.518 640.741)"/>
                        <path id="Path_47997" d="M6491.48-635.012h1.515a.193.193 0 0 1 .164.21v1.632a.194.194 0 0 1-.164.211h-1.515a.193.193 0 0 1-.164-.211v-1.63a.192.192 0 0 1 .164-.21z" class="cls-22" data-name="Path 47997" transform="translate(-6484.578 640.741)"/>
                        <path id="Path_47998" d="M6508.01-635.012h1.516a.193.193 0 0 1 .164.21v1.632a.194.194 0 0 1-.164.211h-1.516a.192.192 0 0 1-.161-.211v-1.63a.191.191 0 0 1 .161-.21z" class="cls-22" data-name="Path 47998" transform="translate(-6498.649 640.741)"/>
                        <path id="Path_47999" d="M6524.529-635.012h1.513a.192.192 0 0 1 .164.21v1.632a.193.193 0 0 1-.164.211h-1.513a.193.193 0 0 1-.163-.211v-1.63a.192.192 0 0 1 .163-.21z" class="cls-22" data-name="Path 47999" transform="translate(-6512.708 640.741)"/>
                        <path id="Path_48000" d="M6541.042-635.012h1.516a.19.19 0 0 1 .16.21v1.632c0 .115-.071.211-.16.211h-1.516a.193.193 0 0 1-.164-.211v-1.63a.192.192 0 0 1 .164-.21z" class="cls-22" data-name="Path 48000" transform="translate(-6526.762 640.741)"/>
                        <path id="Path_48001" d="M6557.558-635.012h1.514a.192.192 0 0 1 .164.21v1.632a.193.193 0 0 1-.164.211h-1.514a.194.194 0 0 1-.165-.211v-1.63a.193.193 0 0 1 .165-.21z" class="cls-22" data-name="Path 48001" transform="translate(-6540.817 640.741)"/>
                        <path id="Path_48002" d="M6574.09-635.012h1.513a.193.193 0 0 1 .164.21v1.632a.2.2 0 0 1-.164.211h-1.513a.194.194 0 0 1-.164-.211v-1.63a.193.193 0 0 1 .164-.21z" class="cls-22" data-name="Path 48002" transform="translate(-6554.889 640.741)"/>
                        <path id="Path_48003" d="M6590.607-635.012h1.515a.191.191 0 0 1 .161.21v1.632a.192.192 0 0 1-.161.211h-1.515a.194.194 0 0 1-.164-.211v-1.63a.193.193 0 0 1 .164-.21z" class="cls-22" data-name="Path 48003" transform="translate(-6568.947 640.741)"/>
                        <path id="Path_48004" d="M6607.121-635.012h2.817a.193.193 0 0 1 .165.21v1.632a.194.194 0 0 1-.165.211h-2.817a.193.193 0 0 1-.164-.211v-1.63a.192.192 0 0 1 .164-.21z" class="cls-22" data-name="Path 48004" transform="translate(-6583.003 640.741)"/>
                        <path id="Path_48005" d="M6632.029-635.2h3.35a.192.192 0 0 1 .164.21v1.633a.193.193 0 0 1-.164.21h-3.35a.193.193 0 0 1-.163-.21v-1.633a.192.192 0 0 1 .163-.21z" class="cls-22" data-name="Path 48005" transform="translate(-6604.205 640.902)"/>
                        <path id="Path_48006" d="M6634.663-616.054h1.262a.067.067 0 0 1 .059.071v.566a.068.068 0 0 1-.059.072h-1.262a.065.065 0 0 1-.056-.072v-.566a.065.065 0 0 1 .056-.071z" class="cls-22" data-name="Path 48006" transform="translate(-6606.537 624.605)"/>
                        <path id="Path_48007" d="M6634.663-607.792h1.262a.067.067 0 0 1 .059.072v.561a.068.068 0 0 1-.059.072h-1.262a.065.065 0 0 1-.056-.072v-.561a.065.065 0 0 1 .056-.072z" class="cls-22" data-name="Path 48007" transform="translate(-6606.537 617.573)"/>
                        <path id="Path_48008" d="M6622.094-607.792h1.262a.067.067 0 0 1 .059.072v.561a.068.068 0 0 1-.059.072h-1.262a.065.065 0 0 1-.056-.072v-.561a.065.065 0 0 1 .056-.072z" class="cls-22" data-name="Path 48008" transform="translate(-6595.839 617.573)"/>
                        <path id="Path_48009" d="M6647.188-607.792h1.262a.065.065 0 0 1 .056.072v.561a.065.065 0 0 1-.056.072h-1.262a.068.068 0 0 1-.06-.072v-.561a.067.067 0 0 1 .06-.072z" class="cls-22" data-name="Path 48009" transform="translate(-6617.194 617.573)"/>
                        <path id="Path_48010" d="M6606.727-616.054h1.516a.193.193 0 0 1 .165.21v1.632a.194.194 0 0 1-.165.211h-1.516a.193.193 0 0 1-.164-.211v-1.632a.192.192 0 0 1 .164-.21z" class="cls-22" data-name="Path 48010" transform="translate(-6582.668 624.605)"/>
                    </g>
                </g>
            </g>
        </g>
    </g>
</svg>
