<svg xmlns="http://www.w3.org/2000/svg" width="52" height="52" viewBox="0 0 52 52">
    <defs>
        <style>
            .cls-1,.cls-4{fill:#87AB49}.cls-1{stroke:#707070}.cls-2{fill:#ffffff}.cls-3{clip-path:url(#clip-path)}
        </style>
        <clipPath id="clip-path">
            <path id="Rectangle_9785" d="M0 0h52v52H0z" class="cls-1" data-name="Rectangle 9785" transform="translate(241 2281)"/>
        </clipPath>
    </defs>
    <g id="Group_7912" data-name="Group 7912" transform="translate(-241 -2281)">
        <circle id="Ellipse_3253" cx="20" cy="20" r="20" class="cls-2" data-name="Ellipse 3253" transform="translate(249 2292)"/>
        <g id="Mask_Group_35" class="cls-3" data-name="Mask Group 35">
            <g id="_002-planet-earth" data-name="002-planet-earth" transform="translate(241 2281)">
                <g id="Group_7894" data-name="Group 7894">
                    <g id="Group_7893" data-name="Group 7893">
                        <path id="Path_50136" d="M39.372 47.127a1.016 1.016 0 0 0-1.388-.369l-.039.023a1.016 1.016 0 1 0 1.019 1.757l.036-.023a1.016 1.016 0 0 0 .372-1.388z" class="cls-4" data-name="Path 50136"/>
                    </g>
                </g>
                <g id="Group_7896" data-name="Group 7896">
                    <g id="Group_7895" data-name="Group 7895">
                        <path id="Path_50137" d="M48.516 13.008A25.993 25.993 0 0 0 .9 19.277a26 26 0 0 0 34.4 31.005 1.016 1.016 0 1 0-.729-1.9 23.809 23.809 0 0 1-22.911-3.149l.91-4.75.438-.142a3.163 3.163 0 0 0 2.029-3.981l-.322-.99a1.121 1.121 0 0 1 0-.7 3.16 3.16 0 0 0-2.4-4.086l-2.292-.448-4.415-3.358a1.016 1.016 0 0 0-.928-.158l-2.589.841a23.943 23.943 0 0 1 0-2.773c.1.1.169.16.21.2a1.065 1.065 0 0 0 .992.509 14.751 14.751 0 0 0 1.82-.207c.857-.127 1.709-.269 1.718-.271a1.015 1.015 0 0 0 .669-1.571l-1.248-1.826 1.784-1.275a1.016 1.016 0 0 0 .291-.321l2.764-4.826 1.115-1.2a4.29 4.29 0 0 0 .828-4.55 4.671 4.671 0 0 0-1.85-2.179A23.932 23.932 0 0 1 25.727 2.05l-1.814 2.275-6.725 2.357a1.015 1.015 0 0 0-.6.571l-1.878 4.553a1.016 1.016 0 0 0 .112.977l2.743 3.842a9.652 9.652 0 0 0-1.232 1.529c-.2.284-.389.553-.52.7-.114.131-.227.259-.34.386a9.5 9.5 0 0 0-1.633 2.267 6.052 6.052 0 0 0 .5 6.118 5.7 5.7 0 0 0 5.382 2.309 7.907 7.907 0 0 0 .992-.2c.871-.215 1.147-.237 1.426.024.136.127.148.151.146.583a3.948 3.948 0 0 0 .091 1.006 3.209 3.209 0 0 0 .858 1.4 2.276 2.276 0 0 1 .368.47 2.529 2.529 0 0 1-.123 2.1l-.079.242c-.459 1.421.181 2.831.746 4.075.183.4.357.785.47 1.122.913 2.71 1.6 3.33 2.147 3.58a2.117 2.117 0 0 0 .886.188c1.464 0 2.992-1.359 3.694-2.221a3.121 3.121 0 0 0 .629-1.479 1.619 1.619 0 0 1 .13-.454 2.661 2.661 0 0 1 .333-.428 3.523 3.523 0 0 0 .831-1.38 2.235 2.235 0 0 1 .689-1.081l.224-.241c1.353-1.472 1-2.6.635-3.787-.31-1 .233-1.642 1.546-2.865a10.97 10.97 0 0 0 1.613-1.737 2.193 2.193 0 0 0 .43-2.034c-.367-.852-1.3-1-2.051-1.11a3.365 3.365 0 0 1-.886-.207 4.8 4.8 0 0 1-1.385-2.1c-.074-.165-.147-.328-.221-.486a14.238 14.238 0 0 1-.4-.985 8.52 8.52 0 0 0-1.5-2.8 6.487 6.487 0 0 0-2.914-1.295c-.358-.1-.7-.189-.92-.271a1.014 1.014 0 0 0-.583-.036 2.635 2.635 0 0 0-1.083.448 1.262 1.262 0 0 0-.362.486 11.616 11.616 0 0 1-1.2-.729l-.02-.013a1.44 1.44 0 0 0-.09-.978c-.567-1.2-2.451-1.106-2.822-1.075-.211.018-.478.027-.76.037-.444.016-.934.033-1.419.088l.025-.07a2.6 2.6 0 0 1 2.438-1.715h.577a1.016 1.016 0 0 0 0-2.031h-.577a4.636 4.636 0 0 0-3.931 2.193l-1.52-2.107 1.49-3.612 6.571-2.3a1.016 1.016 0 0 0 .458-.325L28.24 2.16a23.95 23.95 0 0 1 18.517 11.863 23.7 23.7 0 0 1 2.393 5.813l-.431.384a2.713 2.713 0 0 0-.9 1.973v.024l-.7-1.929a2.535 2.535 0 0 0-.457-.784l-1.257-1.464a2.545 2.545 0 0 0-1.938-.893h-1.531a1.471 1.471 0 0 0-1.224 2.287l.155.233a11.255 11.255 0 0 1-3.353 1.991l-2.1-4.021v-.9A1.015 1.015 0 0 0 35.1 16l-1.89-1.8a1.017 1.017 0 0 0-.365-.224l-1.7-.6a1.016 1.016 0 0 0-.673 1.916l1.5.526 1.418 1.354v.712a1.016 1.016 0 0 0 .115.47l2.628 5.034a1.015 1.015 0 0 0 1.252.483l.765-.282a13.291 13.291 0 0 0 4.766-3.05 1.015 1.015 0 0 0 .127-1.281l-.054-.081h.485a.517.517 0 0 1 .394.181l1.251 1.465a.516.516 0 0 1 .093.159l1.381 3.8a1.015 1.015 0 0 0 1.672.371l.657-.657a3.171 3.171 0 0 0 .84-1.527 24.049 24.049 0 0 1-8.929 21.871 1.016 1.016 0 1 0 1.254 1.6 26 26 0 0 0 6.436-33.428zM4.8 28.716L8.99 31.9a1.015 1.015 0 0 0 .42.188l2.524.493a1.128 1.128 0 0 1 .856 1.459 3.139 3.139 0 0 0 0 1.961l.322.99a1.13 1.13 0 0 1-.725 1.422l-1.009.328a1.015 1.015 0 0 0-.684.775l-.812 4.24a24.231 24.231 0 0 1-4.626-5.771A23.836 23.836 0 0 1 2.3 29.529zm5.919-16.2L9.526 13.8a1.02 1.02 0 0 0-.139.188l-2.713 4.735-2.411 1.724a1.016 1.016 0 0 0-.248 1.4l.9 1.323c-.52.077-.986.141-1.3.175l-.186-.175a49.856 49.856 0 0 0-1.077-.961A24 24 0 0 1 9.51 8.622a2.641 2.641 0 0 1 1.646 1.507 2.254 2.254 0 0 1-.435 2.389zM19 18.068a6.512 6.512 0 0 1 2.272-.319c.308-.011.6-.021.858-.043a2.762 2.762 0 0 1 .433 0 1.015 1.015 0 0 0 .467 1.264c.191.1.456.279.736.466a5.852 5.852 0 0 0 2.539 1.183 1.685 1.685 0 0 0 1.38-.575c.015-.015.028-.03.043-.043a1.088 1.088 0 0 0 .272-.332c.162.046.333.093.508.14a6.762 6.762 0 0 1 1.968.728 7.209 7.209 0 0 1 1.084 2.134c.153.4.3.768.459 1.114.069.148.138.3.207.456a6.342 6.342 0 0 0 2.127 2.967 4.2 4.2 0 0 0 1.69.515l.221.035a9.82 9.82 0 0 1-1.289 1.352c-1.257 1.171-2.822 2.628-2.1 4.953.34 1.1.356 1.216-.191 1.811l-.209.224a4.173 4.173 0 0 0-1.145 1.857 1.585 1.585 0 0 1-.414.646 4.534 4.534 0 0 0-.568.752 3.291 3.291 0 0 0-.368 1.079 1.243 1.243 0 0 1-.212.6 5.92 5.92 0 0 1-1.282 1.134 1.676 1.676 0 0 1-.851.339 7.245 7.245 0 0 1-1.094-2.385c-.146-.434-.349-.881-.545-1.313a4.354 4.354 0 0 1-.662-2.611l.076-.233a4.437 4.437 0 0 0 .068-3.516 3.663 3.663 0 0 0-.739-1.054 1.888 1.888 0 0 1-.388-.515 2.2 2.2 0 0 1-.033-.514 2.519 2.519 0 0 0-.788-2.079 3.271 3.271 0 0 0-3.3-.513 6.371 6.371 0 0 1-.741.154 3.649 3.649 0 0 1-3.5-1.478 4.021 4.021 0 0 1-.315-4.065 7.711 7.711 0 0 1 1.315-1.785l.356-.4c.2-.228.416-.537.646-.865A7.341 7.341 0 0 1 19 18.068z" class="cls-4" data-name="Path 50137"/>
                    </g>
                </g>
                <g id="Group_7898" data-name="Group 7898">
                    <g id="Group_7897" data-name="Group 7897">
                        <path id="Path_50138" d="M41.643 34.966l-.489-1.842a1.016 1.016 0 0 0-1.874-.224 10.54 10.54 0 0 0-.308.633 4.364 4.364 0 0 1-.507.921 2.242 2.242 0 0 1-.6.354 2.792 2.792 0 0 0-1.691 1.644 2.975 2.975 0 0 0-.067 1.433.924.924 0 0 1-.026.6l-.01.024c-.323.759-.925 2.171-.081 3.371a2.115 2.115 0 0 0 1.726 1.077 1.649 1.649 0 0 0 .271-.022c1.036-.169 1.815-1.247 2.451-3.391l1.195-4.026a1.015 1.015 0 0 0 .01-.552zm-3.15 4a6.161 6.161 0 0 1-.777 1.83 1.55 1.55 0 0 1-.062-.084c-.194-.276.1-.957.288-1.408l.01-.024a2.858 2.858 0 0 0 .167-1.692 1.065 1.065 0 0 1 0-.527c.04-.127.278-.25.636-.423.159-.077.334-.161.511-.263z" class="cls-4" data-name="Path 50138"/>
                    </g>
                </g>
                <g id="Group_7900" data-name="Group 7900">
                    <g id="Group_7899" data-name="Group 7899">
                        <path id="Path_50139" d="M27.425 12.072l-.069-.024a1.016 1.016 0 1 0-.672 1.917l.068.024a1.016 1.016 0 1 0 .672-1.917z" class="cls-4" data-name="Path 50139"/>
                    </g>
                </g>
            </g>
        </g>
    </g>
</svg>
