<svg xmlns="http://www.w3.org/2000/svg" id="focus" width="41" height="41" viewBox="0 0 41 41">
    <defs>
        <style>
            .cls-1{fill:#87AB49}
        </style>
    </defs>
    <path id="Path_30635" d="M59.96 132.381l.384-.627-.384-.628a23.1 23.1 0 0 0-4.615-5.1 20.816 20.816 0 0 0-27.262 0 23.326 23.326 0 0 0-4.651 5.1l-.393.633.393.633a23.326 23.326 0 0 0 4.651 5.1 20.816 20.816 0 0 0 27.262 0 23.093 23.093 0 0 0 4.615-5.111zm-6.216 3.309a18.408 18.408 0 0 1-24.066 0 22.667 22.667 0 0 1-3.762-3.934 22.668 22.668 0 0 1 3.762-3.934 18.408 18.408 0 0 1 24.066 0 22.372 22.372 0 0 1 3.735 3.937 22.377 22.377 0 0 1-3.735 3.931zm0 0" class="cls-1" data-name="Path 30635" transform="translate(-21.194 -111.253)"/>
    <path id="Path_30636" d="M173.085 165.867a7.218 7.218 0 1 0 7.218 7.218 7.226 7.226 0 0 0-7.218-7.218zm0 12.033a4.815 4.815 0 1 1 4.815-4.815 4.821 4.821 0 0 1-4.815 4.815zm0 0" class="cls-1" data-name="Path 30636" transform="translate(-152.585 -152.585)"/>
    <path id="Path_30637" d="M2.4 2.4h5.017V0H0v7.327h2.4zm0 0" class="cls-1" data-name="Path 30637"/>
    <path id="Path_30638" d="M419.375 0v2.4h5.015v4.927h2.4V0zm0 0" class="cls-1" data-name="Path 30638" transform="translate(-385.792)"/>
    <path id="Path_30639" d="M2.4 420.5H0v7.327h7.417v-2.4H2.4zm0 0" class="cls-1" data-name="Path 30639" transform="translate(0 -386.827)"/>
    <path id="Path_30640" d="M424.39 425.425h-5.015v2.4h7.417V420.5h-2.4zm0 0" class="cls-1" data-name="Path 30640" transform="translate(-385.792 -386.827)"/>
</svg>
