<svg xmlns="http://www.w3.org/2000/svg" width="452.199" height="410.532" viewBox="0 0 452.199 410.532">
    <defs>
        <style>
            .cls-1{fill:none;stroke:#a1c1c6;stroke-miterlimit:10;stroke-dasharray:3}.cls-2{fill:#c7eaf2}.cls-3{fill:#c6dce0}.cls-4{fill:#e6e7e8}.cls-5{fill:#96c4cc}.cls-6{fill:#fff}.cls-7{fill:#fdb913}.cls-8{fill:#00addc}.cls-9{fill:#f1f2f2}.cls-10{fill:#c6c6c6;opacity:.85}.cls-11{fill:#d1d3d4}.cls-12{fill:#2c88c6}.cls-13{fill:#39a6e2}.cls-14{fill:#a7a9ac}.cls-15{fill:#125b84}
        </style>
    </defs>
    <g id="Group_7037" data-name="Group 7037" transform="translate(-150.54 -151.062)">
        <path id="Path_47583" d="M500.842 185.556c94.5 61.718 121.078 188.36 59.359 282.861s-188.36 121.076-282.861 59.358-121.078-188.359-59.36-282.86" class="cls-1" data-name="Path 47583"/>
        <path id="Path_47584" d="M234.072 442.859a177.37 177.37 0 1 1 310.037-172.386" class="cls-1" data-name="Path 47584"/>
        <path id="Path_47585" d="M430.863 543.853a4.735 4.735 0 0 1-1.9-.875 21.615 21.615 0 0 1-4.848-4.375 10.5 10.5 0 0 1-2.189-6.3 5.015 5.015 0 0 1 1.694-4.107 3.711 3.711 0 0 1 1.833-.746 8.624 8.624 0 0 1 1.026-.047 5.219 5.219 0 0 1 1.4.208 8.922 8.922 0 0 1 3.241 1.979l.166.136.18-.128a9.144 9.144 0 0 1 3.353-1.845 5.251 5.251 0 0 1 1.412-.153 8.881 8.881 0 0 1 1.036.089 3.626 3.626 0 0 1 1.777.816 4.935 4.935 0 0 1 1.44 4.173 10.707 10.707 0 0 1-2.567 6.2 22.272 22.272 0 0 1-5.106 4.177 4.9 4.9 0 0 1-1.948.798z" class="cls-2" data-name="Path 47585"/>
        <g id="Group_7007" data-name="Group 7007">
            <path id="Path_47586" d="M321.292 155.824l9.876 9.89V178.9h-6.588v-9.89h-6.587v9.89h-6.6v-13.187z" class="cls-2" data-name="Path 47586"/>
            <path id="Path_47587" d="M334.475 167.182a1.426 1.426 0 0 1-1.033-.433l-12.15-12.149-12.161 12.147a1.464 1.464 0 1 1-2.071-2.071l13.191-13.193a1.47 1.47 0 0 1 2.064 0l13.185 13.195a1.448 1.448 0 0 1 0 2.071 1.4 1.4 0 0 1-1.025.433z" class="cls-2" data-name="Path 47587"/>
        </g>
        <g id="Group_7008" data-name="Group 7008">
            <path id="Path_47588" d="M512.572 468.1a3.411 3.411 0 0 0 6.82-.039 1.114 1.114 0 0 0 .374-.793c.044-.486-.114-.9-.348-.926h-.053a3.544 3.544 0 0 0-3.14-2.825 1.437 1.437 0 0 1 .629-.248 3.4 3.4 0 0 0-1 .216 3.922 3.922 0 0 0-.777-.151 1.385 1.385 0 0 1 .525.192.682.682 0 0 1-.089.013 3.286 3.286 0 0 0-1.219.161 1.536 1.536 0 0 1 .6-.012 3.622 3.622 0 0 0-2.311 2.7.336.336 0 0 0-.156-.048c-.244.027-.4.44-.359.926.041.468.277.834.504.834z" class="cls-2" data-name="Path 47588"/>
            <path id="Path_47589" d="M526.489 475.915a1.309 1.309 0 0 0-1.856.113l-1.674 1.87-1-2.681-.549-1.421a1.4 1.4 0 0 0-.663-.74l.008-.006a3.526 3.526 0 0 0-1.814-.487h-.959a5.681 5.681 0 0 1 .106 1.123 5.186 5.186 0 0 1-.952 3.184l-.461-2.62a.306.306 0 0 0-.062-.153.22.22 0 0 0 .1-.087l.452-1.347c.027-.058-.008-.1-.078-.1h-2.328a.082.082 0 0 0-.087.1l.471 1.347a.134.134 0 0 0 .087.087.242.242 0 0 0-.062.153l-.462 2.62a5.185 5.185 0 0 1-.941-3.184 7.669 7.669 0 0 1 .087-1.123h-.951a3.48 3.48 0 0 0-1.822.493h.008a1.469 1.469 0 0 0-.662.74l-.541 1.421-3.322 8.8a1.368 1.368 0 0 0 1.028 1.77 1.677 1.677 0 0 0 2.041-.889l2.015-5.329v19.3a1.889 1.889 0 1 0 3.759 0v-12.834h.941v12.833a1.885 1.885 0 1 0 3.749 0V479.29l.708 1.81a2.26 2.26 0 0 0 .444.732 1.249 1.249 0 0 0 1.858-.108l.916-1.039 2.589-2.9a1.314 1.314 0 0 0-.121-1.87z" class="cls-2" data-name="Path 47589"/>
        </g>
        <path id="Path_47590" d="M182.569 446.338a3.46 3.46 0 0 0 .753-2.142 3.741 3.741 0 0 0-3.831-3.637 3.941 3.941 0 0 0-2.827 1.166 8.314 8.314 0 0 0-15.333.612 5.99 5.99 0 0 0-1.112-.1 6.442 6.442 0 0 0-6.638 6.227 6.861 6.861 0 0 0 .043.7 4.291 4.291 0 0 0-3.084 3.958 4.14 4.14 0 0 0 1.982 3.458l33.471.067a5.757 5.757 0 0 0 2.069-4.389 6.1 6.1 0 0 0-5.493-5.92z" class="cls-2" data-name="Path 47590"/>
        <path id="Path_47591" d="M602.739 292.272a22.005 22.005 0 1 1-22-22.006 22.005 22.005 0 0 1 22 22.006z" class="cls-3" data-name="Path 47591"/>
        <g id="Group_7009" data-name="Group 7009">
            <path id="Path_47592" d="M329.733 244.565a13.586 13.586 0 0 0-13.589-13.576 13.586 13.586 0 0 0 13.589-13.576 13.572 13.572 0 0 0 13.567 13.576 13.572 13.572 0 0 0-13.567 13.576z" class="cls-4" data-name="Path 47592"/>
            <path id="Path_47593" d="M316.144 245.933a8.143 8.143 0 0 0-8.149-8.149 8.142 8.142 0 0 0 8.149-8.148 8.151 8.151 0 0 0 8.148 8.148 8.151 8.151 0 0 0-8.148 8.149z" class="cls-5" data-name="Path 47593"/>
        </g>
        <g id="Group_7010" data-name="Group 7010">
            <path id="Path_47594" d="M517.349 277.951a13.586 13.586 0 0 0-13.59-13.576 13.586 13.586 0 0 0 13.59-13.576 13.572 13.572 0 0 0 13.562 13.576 13.572 13.572 0 0 0-13.562 13.576z" class="cls-6" data-name="Path 47594"/>
            <path id="Path_47595" d="M503.759 279.318a8.142 8.142 0 0 0-8.149-8.148 8.143 8.143 0 0 0 8.149-8.149 8.151 8.151 0 0 0 8.148 8.149 8.151 8.151 0 0 0-8.148 8.148z" class="cls-5" data-name="Path 47595"/>
        </g>
        <g id="Group_7011" data-name="Group 7011">
            <path id="Path_47596" d="M332.35 508.505a13.586 13.586 0 0 0-13.59-13.576 13.586 13.586 0 0 0 13.59-13.576 13.571 13.571 0 0 0 13.562 13.576 13.572 13.572 0 0 0-13.562 13.576z" class="cls-6" data-name="Path 47596"/>
            <path id="Path_47597" d="M318.76 509.872a8.142 8.142 0 0 0-8.149-8.148 8.143 8.143 0 0 0 8.149-8.149 8.151 8.151 0 0 0 8.148 8.149 8.151 8.151 0 0 0-8.148 8.148z" class="cls-5" data-name="Path 47597"/>
        </g>
        <g id="Group_7012" data-name="Group 7012">
            <path id="Path_47598" d="M469.412 507.056a13.587 13.587 0 0 0-13.59-13.577 13.586 13.586 0 0 0 13.59-13.576 13.571 13.571 0 0 0 13.563 13.576 13.573 13.573 0 0 0-13.563 13.577z" class="cls-7" data-name="Path 47598"/>
            <path id="Path_47599" d="M455.822 508.423a8.143 8.143 0 0 0-8.148-8.149 8.142 8.142 0 0 0 8.148-8.148 8.151 8.151 0 0 0 8.149 8.148 8.152 8.152 0 0 0-8.149 8.149z" class="cls-8" data-name="Path 47599"/>
        </g>
        <g id="idea">
            <g id="Group_7014" data-name="Group 7014">
                <g id="Group_7013" data-name="Group 7013">
                    <path id="Path_47600" d="M491.065 172.53a.42.42 0 0 1-.421-.422 4.737 4.737 0 0 0-4.731-4.729.422.422 0 1 1 0-.843 5.58 5.58 0 0 1 5.575 5.572.42.42 0 0 1-.423.422z" class="cls-2" data-name="Path 47600"/>
                </g>
            </g>
            <g id="Group_7019" data-name="Group 7019">
                <g id="Group_7017" data-name="Group 7017">
                    <g id="Group_7015" data-name="Group 7015">
                        <path id="Path_47601" d="M487.522 183.145l-.639-.105 1.258-7.61.64.105-1.259 7.61z" class="cls-2" data-name="Path 47601"/>
                    </g>
                    <g id="Group_7016" data-name="Group 7016">
                        <path id="Path_47602" d="M484.3 183.145l-1.256-7.61.636-.105 1.259 7.61-.639.105z" class="cls-2" data-name="Path 47602"/>
                    </g>
                </g>
                <g id="Group_7018" data-name="Group 7018">
                    <path id="Path_47603" d="M488.42 176.5c-.265 0-.38-.257-.464-.445-.034-.078-.107-.24-.148-.24s-.114.162-.147.24c-.084.188-.2.445-.465.445s-.377-.257-.461-.445c-.035-.078-.106-.24-.147-.24s-.114.162-.148.24c-.084.188-.2.445-.463.445s-.378-.257-.464-.445c-.036-.078-.107-.24-.149-.24s-.113.162-.148.24c-.082.188-.2.445-.463.445s-.378-.257-.461-.445c-.036-.078-.109-.24-.15-.24s-.114.162-.149.24c-.084.188-.2.445-.463.445v-.344c.04 0 .114-.163.148-.24.085-.189.2-.446.464-.446s.378.257.463.446c.037.077.108.24.148.24s.113-.163.15-.24c.083-.187.2-.446.461-.446s.379.259.465.446c.033.077.106.24.148.24s.112-.163.148-.24c.083-.187.2-.446.463-.446s.378.259.46.446c.036.077.109.24.148.24s.115-.163.149-.24c.083-.189.2-.446.463-.446s.378.259.461.446c.037.077.109.24.151.24v.344z" class="cls-2" data-name="Path 47603"/>
                </g>
            </g>
            <g id="Group_7020" data-name="Group 7020">
                <path id="Path_47604" d="M485.91 162.77a.424.424 0 0 1-.423-.422v-4.429a.423.423 0 0 1 .846 0v4.429a.422.422 0 0 1-.423.422z" class="cls-2" data-name="Path 47604"/>
            </g>
            <g id="Group_7021" data-name="Group 7021">
                <path id="Path_47605" d="M490.97 164.123a.409.409 0 0 1-.21-.056.42.42 0 0 1-.155-.575l2.214-3.838a.421.421 0 1 1 .729.423l-2.212 3.835a.422.422 0 0 1-.366.211z" class="cls-2" data-name="Path 47605"/>
            </g>
            <g id="Group_7022" data-name="Group 7022">
                <path id="Path_47606" d="M494.675 167.826a.421.421 0 0 1-.209-.786l3.834-2.217a.423.423 0 0 1 .422.734l-3.836 2.213a.41.41 0 0 1-.211.056z" class="cls-2" data-name="Path 47606"/>
            </g>
            <g id="Group_7023" data-name="Group 7023">
                <path id="Path_47607" d="M500.6 172.885h-4.569a.422.422 0 1 1 0-.844h4.569a.422.422 0 1 1 0 .844z" class="cls-2" data-name="Path 47607"/>
            </g>
            <g id="Group_7024" data-name="Group 7024">
                <path id="Path_47608" d="M498.515 180.16a.42.42 0 0 1-.211-.056l-3.836-2.213a.422.422 0 1 1 .422-.732l3.837 2.213a.423.423 0 0 1-.212.788z" class="cls-2" data-name="Path 47608"/>
            </g>
            <g id="Group_7025" data-name="Group 7025">
                <path id="Path_47609" d="M480.852 164.128a.425.425 0 0 1-.367-.213l-2.214-3.835a.422.422 0 0 1 .156-.577.427.427 0 0 1 .578.154l2.211 3.837a.418.418 0 0 1-.153.576.407.407 0 0 1-.211.058z" class="cls-2" data-name="Path 47609"/>
            </g>
            <g id="Group_7026" data-name="Group 7026">
                <path id="Path_47610" d="M477.149 167.832a.415.415 0 0 1-.211-.056l-3.836-2.215a.422.422 0 1 1 .422-.73l3.838 2.214a.422.422 0 0 1-.213.787z" class="cls-2" data-name="Path 47610"/>
            </g>
            <g id="Group_7027" data-name="Group 7027">
                <path id="Path_47611" d="M475.8 172.893h-4.428a.423.423 0 1 1 0-.845h4.428a.423.423 0 1 1 0 .845z" class="cls-2" data-name="Path 47611"/>
            </g>
            <g id="Group_7028" data-name="Group 7028">
                <path id="Path_47612" d="M473.315 180.167a.423.423 0 0 1-.209-.789l3.835-2.215a.423.423 0 0 1 .423.732l-3.838 2.215a.444.444 0 0 1-.211.057z" class="cls-2" data-name="Path 47612"/>
            </g>
            <g id="Group_7033" data-name="Group 7033">
                <g id="Group_7029" data-name="Group 7029">
                    <path id="Path_47613" d="M489.657 183.274h-7.5a.707.707 0 0 1-.7-.705c0-.03 0-.062.006-.093a5.038 5.038 0 0 0-.518-2.727 14.108 14.108 0 0 1-3.089-7.639 8.065 8.065 0 1 1 16.13 0 14.118 14.118 0 0 1-3.1 7.648 5.069 5.069 0 0 0-.531 2.69 1 1 0 0 1 .01.121.7.7 0 0 1-.708.705zm-7.5-1.408a.7.7 0 0 0-.7.6.7.7 0 0 1 .698-.6zm7.62.009a.768.768 0 0 1 .273.109.76.76 0 0 0-.275-.109zm-6.9-.009h6.072c.012-.319.041-.585.041-.593a4.714 4.714 0 0 1 .779-2.373 12.682 12.682 0 0 0 2.807-6.791 6.657 6.657 0 0 0-13.314 0 12.688 12.688 0 0 0 2.8 6.784 4.7 4.7 0 0 1 .777 2.384c-.004.006.019.272.033.589z" class="cls-2" data-name="Path 47613"/>
                </g>
                <g id="Group_7030" data-name="Group 7030">
                    <path id="Path_47614" d="M489.417 184.78h-7.006a.7.7 0 1 1 0-1.407h7.006a.7.7 0 1 1 0 1.407z" class="cls-2" data-name="Path 47614"/>
                </g>
                <g id="Group_7031" data-name="Group 7031">
                    <path id="Path_47615" d="M488.9 186.286h-5.966a.7.7 0 1 1 0-1.408h5.966a.7.7 0 1 1 0 1.408z" class="cls-2" data-name="Path 47615"/>
                </g>
                <g id="Group_7032" data-name="Group 7032">
                    <path id="Path_47616" d="M488.02 187.75h-4.22a.7.7 0 1 1 0-1.407h4.215a.7.7 0 1 1 0 1.407z" class="cls-2" data-name="Path 47616"/>
                </g>
            </g>
        </g>
        <g id="Group_7034" data-name="Group 7034">
            <path id="Path_47617" d="M235.028 201.622c-3.059 0-5.537 6.729-5.537 15.028s2.478 15.023 5.537 15.023 5.533-6.727 5.533-15.023-2.479-15.028-5.533-15.028zm0 27.608c-2.561 0-4.636-5.634-4.636-12.58s2.075-12.582 4.636-12.582 4.635 5.633 4.635 12.582-2.077 12.58-4.635 12.58z" class="cls-2" data-name="Path 47617"/>
            <path id="Path_47618" d="M250.052 216.65c0-3.058-6.728-5.536-15.024-5.536S220 213.592 220 216.65s6.727 5.535 15.028 5.535 15.024-2.478 15.024-5.535zm-27.61 0c0-2.561 5.636-4.635 12.586-4.635s12.578 2.074 12.578 4.635-5.631 4.634-12.578 4.634-12.586-2.076-12.586-4.634z" class="cls-2" data-name="Path 47618"/>
            <path id="Path_47619" d="M245.651 206.025c-2.162-2.163-8.672.842-14.539 6.711s-8.873 12.376-6.709 14.537 8.671-.84 14.536-6.71 8.873-12.377 6.712-14.538zm-19.522 19.521c-1.81-1.811.705-7.261 5.618-12.175s10.365-7.428 12.175-5.617-.7 7.26-5.619 12.172-10.365 7.43-12.174 5.62z" class="cls-2" data-name="Path 47619"/>
            <path id="Path_47620" d="M245.651 227.273c2.161-2.161-.846-8.671-6.712-14.539s-12.374-8.872-14.536-6.71.842 8.67 6.709 14.539 12.377 8.873 14.539 6.71zm-19.522-19.521c1.809-1.809 7.262.706 12.174 5.619s7.428 10.364 5.617 12.175-7.259-.707-12.173-5.62-7.428-10.362-5.618-12.174z" class="cls-2" data-name="Path 47620"/>
            <path id="Path_47621" d="M237.364 216.65a2.319 2.319 0 1 0-2.323 2.317 2.321 2.321 0 0 0 2.323-2.317z" class="cls-2" data-name="Path 47621"/>
        </g>
        <path id="Path_47622" d="M567.119 285.719v13.535a2.614 2.614 0 0 0 2.613 2.611h22.084a2.614 2.614 0 0 0 2.609-2.611v-13.535a2.616 2.616 0 0 0-2.609-2.614h-22.084a2.616 2.616 0 0 0-2.613 2.614zm1.664 13.535v-13.509l8.617 7.155-8.608 6.414c-.003-.024-.009-.041-.009-.06zm23.971.128l-8.6-6.47 8.616-7.125v13.467a.4.4 0 0 1-.016.128zm-22.543-14.612h21.18l-9.774 8.077a1.415 1.415 0 0 1-1.683 0zm20.873 15.43h-20.709l8.333-6.214.163.134a3.069 3.069 0 0 0 3.807.007l.15-.125z" class="cls-9" data-name="Path 47622"/>
        <g id="Group_7036" data-name="Group 7036">
            <g id="Shield">
                <path id="Path_47623" d="M398.673 509.247c-38.282-18.9-69.194-50.147-89.667-90.352C290.59 382.728 281 340.211 281 295.939v-2.767l2.613-.223c46.334-3.746 50.052-43.035 50.085-43.434l.154-2.515h132.3l.227 2.516c.14 1.623 3.827 39.819 50.01 43.552l2.613.1v2.767c0 44.271-9.59 86.788-28.007 122.956-20.474 40.205-51.457 71.449-89.736 90.352l-1.292.656z" class="cls-10" data-name="Path 47623"/>
                <path id="Path_47624" d="M463.387 249.523H336.615s-3.5 42.422-52.9 46.416c0 83.353 35.435 170.691 116.291 210.619 80.851-39.928 116.288-127.266 116.288-210.619-49.418-3.994-52.907-46.416-52.907-46.416z" class="cls-11" data-name="Path 47624"/>
                <path id="Path_47625" d="M400 249h-63.385s-3.5 42.684-52.9 46.677c0 83.354 35.435 170.953 116.29 210.881z" class="cls-4" data-name="Path 47625"/>
                <path id="Path_47626" d="M400 491.61c-32.8-17.7-58.558-44.615-76.63-80.1-15.68-30.792-24.643-67-26.15-104.582C327.462 300.186 341.9 280 347.318 262h105.365c5.415 18 19.852 38.186 50.1 44.923-1.506 37.58-10.47 73.588-26.15 104.381C458.556 446.793 432.8 473.913 400 491.61z" class="cls-12" data-name="Path 47626"/>
                <path id="Path_47627" d="M400 262h-52.682c-5.418 18-19.856 38.186-50.1 44.923 1.507 37.58 10.47 73.67 26.15 104.462 18.075 35.49 43.832 62.528 76.632 80.225z" class="cls-13" data-name="Path 47627"/>
            </g>
            <path id="Path_47628" d="M345.661 256.815a3.2 3.2 0 1 1-3.2-3.2 3.2 3.2 0 0 1 3.2 3.2z" class="cls-14" data-name="Path 47628"/>
            <path id="Path_47629" d="M461.66 256.815a3.2 3.2 0 1 1-3.2-3.2 3.2 3.2 0 0 1 3.2 3.2z" class="cls-14" data-name="Path 47629"/>
            <path id="Path_47630" d="M511.66 302.815a3.2 3.2 0 1 1-3.2-3.2 3.2 3.2 0 0 1 3.2 3.2z" class="cls-14" data-name="Path 47630"/>
            <path id="Path_47631" d="M293.66 302.815a3.2 3.2 0 1 1-3.2-3.2 3.2 3.2 0 0 1 3.2 3.2z" class="cls-14" data-name="Path 47631"/>
            <path id="Path_47632" d="M403.66 498.815a3.2 3.2 0 1 1-3.2-3.2 3.2 3.2 0 0 1 3.2 3.2z" class="cls-14" data-name="Path 47632"/>
            <path id="Path_47633" d="M488.66 408.815a3.2 3.2 0 1 1-3.2-3.2 3.2 3.2 0 0 1 3.2 3.2z" class="cls-14" data-name="Path 47633"/>
            <path id="Path_47634" d="M317.66 408.815a3.2 3.2 0 1 1-3.2-3.2 3.2 3.2 0 0 1 3.2 3.2z" class="cls-14" data-name="Path 47634"/>
            <g id="Group_7035" data-name="Group 7035">
                <path id="Path_47635" d="M333.114 350.219c4.509 0 6.662 2.437 6.662 7.027v3.7c0 4.59-2.153 7.028-6.662 7.028H331v10.682h-4.468v-28.437zM331 354.281v9.627h2.112c1.422 0 2.194-.61 2.194-2.681v-4.265c0-2.072-.772-2.681-2.194-2.681z" class="cls-15" data-name="Path 47635"/>
                <path id="Path_47636" d="M351.189 378.652c-.041-.2-.122-.365-.163-.527a4.36 4.36 0 0 1-.2-1.544c-.04-.366-.04-.853-.04-1.422v-4.468c0-2.64-.853-3.615-2.925-3.615h-1.544v11.576h-4.467v-28.433h6.742c4.671 0 6.621 2.153 6.621 6.54v2.234c0 2.924-.975 4.834-2.924 5.768 2.274.934 2.964 3.087 2.964 6.052v4.387a8.381 8.381 0 0 0 .488 3.452zm-4.875-24.371v8.733h1.747c1.666 0 2.681-.731 2.681-3.006v-2.8c0-2.072-.691-2.925-2.275-2.925z" class="cls-15" data-name="Path 47636"/>
                <path id="Path_47637" d="M357.809 357.043c0-4.59 2.4-7.149 6.783-7.149s6.783 2.559 6.783 7.149v14.785c0 4.59-2.4 7.15-6.783 7.15s-6.783-2.56-6.783-7.15zm4.467 15.07c0 2.071.894 2.8 2.316 2.8s2.315-.732 2.315-2.8v-15.354c0-2.072-.893-2.8-2.315-2.8s-2.316.731-2.316 2.8z" class="cls-15" data-name="Path 47637"/>
                <path id="Path_47638" d="M372.958 350.219h13.811v4.062H382.1v24.371h-4.469v-24.371h-4.671z" class="cls-15" data-name="Path 47638"/>
                <path id="Path_47639" d="M393.185 362.2h6.133v4.062h-6.133v8.326h7.715v4.062h-12.183v-28.431H400.9v4.062h-7.717z" class="cls-15" data-name="Path 47639"/>
                <path id="Path_47640" d="M416.621 368.051v3.777c0 4.59-2.274 7.15-6.661 7.15s-6.662-2.56-6.662-7.15v-14.785c0-4.59 2.275-7.149 6.662-7.149s6.661 2.559 6.661 7.149v2.757H412.4v-3.046c0-2.072-.893-2.8-2.314-2.8s-2.315.731-2.315 2.8v15.354c0 2.071.893 2.762 2.315 2.762s2.314-.691 2.314-2.762v-4.062z" class="cls-15" data-name="Path 47640"/>
                <path id="Path_47641" d="M418.041 350.219h13.811v4.062h-4.672v24.371h-4.468v-24.371h-4.671z" class="cls-15" data-name="Path 47641"/>
                <path id="Path_47642" d="M433.8 350.219h4.468v28.433H433.8z" class="cls-15" data-name="Path 47642"/>
                <path id="Path_47643" d="M441.15 357.043c0-4.59 2.4-7.149 6.785-7.149s6.783 2.559 6.783 7.149v14.785c0 4.59-2.4 7.15-6.783 7.15s-6.785-2.56-6.785-7.15zm4.469 15.07c0 2.071.894 2.8 2.316 2.8s2.314-.732 2.314-2.8v-15.354c0-2.072-.894-2.8-2.314-2.8s-2.316.731-2.316 2.8z" class="cls-15" data-name="Path 47643"/>
                <path id="Path_47644" d="M461.581 358.059v20.593h-4.021v-28.433h5.605l4.59 17.019v-17.019h3.98v28.433h-4.589z" class="cls-15" data-name="Path 47644"/>
            </g>
        </g>
    </g>
</svg>
