<svg xmlns="http://www.w3.org/2000/svg" width="429.838" height="495.298" viewBox="0 0 429.838 495.298"><g transform="translate(818.404 -81.702)"><g transform="translate(-737.471 545.521)"><path d="M-551.842,658c9.424.025,18.849.226,28.256,1.157,3.547.351,7.02,1.124,10.575,1.435,7.1.622,14.076,1.784,21.2,2.319,5.739.431,11.5.686,17.224,1.233a68.043,68.043,0,0,0,16.628-.453c3.941-.628,7.9-.981,11.775-1.989a53.62,53.62,0,0,1,13.56-1.9c6.44.041,12.713.046,18.876,2.036a19.236,19.236,0,0,1,6.456,3.314c3.761,3.357,4.27,11.733.514,15.214-6.325,5.86-19.824,8.16-28.691,8.268-9.715.119-19.153-.523-28.882-.9-9.041-.35-18.06-.849-27.115-.832-18.5.036-36.993,0-55.456-1.1-17.346-1.033-34.735-.679-52.119-.679-17.825,0-35.531.125-53.229,2.233-7.712.919-15.567,1.241-23.317,1.885-6.941.576-13.61-.011-20.523-.544a53.826,53.826,0,0,1-16.846-4.018c-4.174-1.776-11.616-7.292-12.9-11.531-3.589-11.882,50.578-11.6,58.894-11.57,9.3.03,18.681.3,27.978-.014a73.464,73.464,0,0,0,11.58-1.559c3.8-.743,7.632-.554,11.487-.865,16.076-1.3,32.189-1.111,48.316-1.111C-562.344,658.03-557.093,657.989-551.842,658Z" transform="translate(726.017 -658)" fill="rgba(16,33,84,0.26)" opacity="0.5"/></g><g transform="translate(-785.416 74.701)"><g transform="translate(204.499 154.598)"><path d="M-457.385,662.862l-12.6,6.925,1.094,5.915,22.384-3.073-1.2-8.517Z" transform="translate(520.091 -342.716)" fill="#292949"/><path d="M-386.561,670.873l8.761-.106,2.139,7.419-.222.063.056.007-14.593,8.39-6.895.675-.771-7.88,1.878-1.338Z" transform="translate(506.227 -344.24)" fill="#292949"/><path d="M-418.533,493.044c-1.407-.147-5.247,50.269-5.247,50.269l27.27,91.619,15.724-3.1-9.579-91.476s33.288-38.386,23.7-67.059C-381.146,480.325-418.533,493.044-418.533,493.044Z" transform="translate(511.182 -306.163)" fill="#8cabef"/><path d="M-466.715,498.29l-3.183,44.95,8.774,89.467,16.187-.826s3.9-84.738,5.5-86.468,15.388-46.192,15.388-46.192Z" transform="translate(520.075 -310.981)" fill="#8cabef"/><g transform="translate(9.217 46.564)"><path d="M-455.222,485.179c51.405-.943,55.178-26.881,66.5-29.711s5.419-16.307,5.419-16.307-2.143-6.013-3.06-9.159c-6.6-22.633-26.423-51.685-26.43-51.694-9.776-13.34-19.589-25.124-28.06-32.238-25.2-21.161-52.19-22.149-52.19-22.149-38.876,12.156-25.155,30.434-25.6,35.243,12.788,11.72,22.05,29.28,28.882,48.135a112.464,112.464,0,0,1,4.363,48.17c-.852,6.716-1.836,12.539-2.811,17.608C-488.4,479.7-482.04,485.605-455.222,485.179Z" transform="translate(520.644 -323.921)" fill="#5d66d3"/><path d="M-490.173,328.672s-8.653-4.74-14.012,3.5c-6.5,10.008,30.27,55.145,29.4,151.675,9.636,1.952,34.471,6.611,60.085-5.477C-420.522,449.695-445.636,363.2-490.173,328.672Z" transform="translate(517.619 -324.576)" fill="#fff"/></g><path d="M-514.42,289.75c-4.356,3.4-8.137,10.623-6.636,16.31.722,2.739,2.7,4.573,3.356,7.536,1.318,5.835,11.464,10.132,7.2,16.9-2.193,3.48-6.443,4.951-10.368,6.181a3.018,3.018,0,0,1-1.466.2,2.122,2.122,0,0,1-1.5-1.772,8.608,8.608,0,0,1,.089-2.452c.894-8.544-4.888-17.1-7.03-25.171-2.138-8.059-2.027-17.259,3.559-23.953,4.764.441,6.693-.477,9.751,3.2Z" transform="translate(532.063 -269.57)" fill="#292949"/><path d="M-502.8,323.648c-5.67.446-11.211-2.662-14.805-7.07s-5.488-9.965-6.666-15.53c-3.917-18.517,18.76-24.506,30.714-13.179C-483.14,297.74-486.314,322.352-502.8,323.648Z" transform="translate(530.647 -269.299)" fill="#eacdb0"/><path d="M-474.532,317.105c-3.014-.223-6.019-.534-8.72-2.484-4.365-3.151-6.941-10.253-9.621-14.749-2.823-4.741-6.053-9.824-11.264-11.633-3.4-1.182-6.427-.412-9.625.869-2.19.877-1.927,1.735-4.256,1.339-1.785-.3-4.11-2.469-5.091-3.895a9.789,9.789,0,0,1-.884-8.41,13.724,13.724,0,0,1,7.869-8.968c14.038-6.261,28.2-2.325,38.008,9.842,4.713,5.848,6.4,13.853,11.139,19.4,2.924,3.423,6.564,4.993,9.358,8.772,7.251,9.806,19.152,21.244,23.434,32.733a1.718,1.718,0,0,1,.107,1.318c-.4.833-1.644.546-2.472.133l-14.481-7.226a22.827,22.827,0,0,1-5.38-3.342c-3.887-3.564-5.235-9.72-9.954-12.076C-468.939,317.442-471.74,317.312-474.532,317.105Z" transform="translate(530.612 -266.233)" fill="#292949"/><g transform="translate(48.978 14.536)"><path d="M-444.563,344.9l38.793-9.1,10.369-51.557-12.879,1.125-9.942,33.67-50.288,1.437-2.874,3.831Z" transform="translate(471.383 -284.241)" fill="#5d66d3"/></g></g><path d="M-397.687,274.334l1.268-13.518,9.575-7.323.563,3.943-3.38,3.38s-.845,3.943-3.238,5.914a45.269,45.269,0,0,0,2.112,7.041Z" transform="translate(710.649 -109.178)" fill="#ebceb1"/><g transform="translate(262.636 39.542)"><g transform="translate(67.534 172.402)"><path d="M-362.385,338.2a19.031,19.031,0,0,0-11.656,9.521,19.028,19.028,0,0,0-1.408,14.987,19.013,19.013,0,0,0,9.522,11.656,19.03,19.03,0,0,0,14.985,1.408,20.263,20.263,0,0,0,5.586-2.648,19.076,19.076,0,0,0,6.071-6.875,19.032,19.032,0,0,0,1.408-14.986A19.051,19.051,0,0,0-347.4,339.6,19.046,19.046,0,0,0-362.385,338.2Z" transform="translate(376.368 -337.279)" fill="#97f2ff"/></g><g transform="translate(76.88 172.402)"><path d="M-345.169,339.6a19.046,19.046,0,0,0-14.984-1.407,20.689,20.689,0,0,0-4.637,2.041A18.892,18.892,0,0,1-354,342.475a19.051,19.051,0,0,1,9.525,11.658,19.033,19.033,0,0,1-1.408,14.986,19.077,19.077,0,0,1-6.072,6.875c-.309.211-.628.412-.952.606a20.984,20.984,0,0,0,4.2-.831,20.263,20.263,0,0,0,5.586-2.648,19.076,19.076,0,0,0,6.071-6.875,19.032,19.032,0,0,0,1.408-14.986A19.051,19.051,0,0,0-345.169,339.6Z" transform="translate(364.79 -337.279)" fill="#97f2ff"/></g><path d="M-360.748,129.591c-14.7-7.1-31.7-7.8-50.534-2.061s-32.647,15.811-41.073,29.947c-7.323,12.289-9.424,26.067-6.243,40.949a9.208,9.208,0,0,0,4.322,6,9.2,9.2,0,0,0,7.337.873l11.215-3.415a9.184,9.184,0,0,0,6.348-10.478c-1.521-8.175-.5-15.127,3.121-21.254,4.384-7.415,12.085-12.844,22.886-16.134,10.768-3.28,20.16-2.922,27.912,1.063,7.723,3.977,13.269,11.346,16.485,21.9,4.432,14.552,3.25,25.627-3.515,32.913-7.123,7.672-19.985,14.277-38.254,19.642l-4.853,1.478a9.194,9.194,0,0,0-6.109,11.461l12.873,42.265a9.121,9.121,0,0,0,4.465,5.428,9.118,9.118,0,0,0,6.995.681L-376,287.385a9.144,9.144,0,0,0,2.509-1.2,9.2,9.2,0,0,0,3.6-10.256l-8.336-27.372a.662.662,0,0,1,.416-.817c21.024-7.023,35.875-16.689,44.139-28.731,8.789-12.807,10.2-29.3,4.191-49.031C-335.46,150.323-345.981,136.737-360.748,129.591Z" transform="translate(460.036 -123.69)" fill="#97f2ff"/><g transform="translate(19.635)"><path d="M-356.057,129.591c-14.7-7.1-31.7-7.8-50.534-2.061-11.658,3.551-21.394,8.767-29.119,15.581a88.877,88.877,0,0,1,15.716-6.4c18.835-5.737,35.837-5.043,50.534,2.061,14.767,7.146,25.289,20.732,31.273,40.383,6.009,19.728,4.6,36.225-4.191,49.031a54.442,54.442,0,0,1-9.47,10.415c10.09-5.576,17.749-12.128,22.873-19.595,8.789-12.807,10.2-29.3,4.191-49.031C-330.769,150.323-341.29,136.737-356.057,129.591Z" transform="translate(435.711 -123.69)" fill="#97f2ff"/></g></g><g transform="translate(210.57 223.502)"><path d="M-524.541,401.235l4.472-49.138,11.49-.5,7.851,37.871,9.556,15.946L-505.785,419.5s-12.426-7.688-14.033-8.236Z" transform="translate(524.541 -351.598)" fill="#5d66d3"/></g><g transform="translate(215.978 207.04)"><path d="M-517.841,348.123l.074-12.91,7.835-4.009,7.475,4.645-4.589,6.144-4.242,5.846Z" transform="translate(517.841 -331.204)" fill="#eac1a4"/></g><g transform="translate(364.804 -559.896)"><g transform="translate(-342.182 644.674)"><g transform="translate(75.257 0)"><g transform="translate(3.463 203.372)"><g transform="translate(27.976 5.851)"><path d="M-26.764,516.8l3.87,26.629L-30.661,693.62l-13.028-2.732L-65.3,520.144Z" transform="translate(65.301 -516.799)" fill="#292949"/></g><path d="M-96.307,510.638l-2.517,99.569,25.289,85.949,14.741-5.481-12.415-76.65,11.4-104.237Z" transform="translate(98.824 -509.788)" fill="#292949"/><g transform="translate(18.99 172.838)"><path d="M-54.978,716.893l-17.647,8.088,5.924,12.339-9.255,5.83s-.872,5.138,2.236,7.307,23.244-14.744,23.244-14.744Z" transform="translate(76.069 -716.893)" fill="#1c1c35"/></g><g transform="translate(38.547 175.756)"><path d="M-24.668,720.39l-19.142,3.232,2.519,13.454-10.452,3.229s-2.175,4.735.264,7.637,26.273-8.208,26.273-8.208Z" transform="translate(52.635 -720.39)" fill="#1c1c35"/></g></g><g transform="translate(31.512 27.308)"><path d="M-63.958,313.354a52.349,52.349,0,0,0,5.8,12.595,89.024,89.024,0,0,1,3.5-24.078,2.337,2.337,0,0,0,.031-1.808,2.194,2.194,0,0,0-1.469-.836C-66.152,296.8-66.337,305.63-63.958,313.354Z" transform="translate(65.214 -298.816)" fill="#292949"/></g><g transform="translate(5.146)"><g transform="translate(30.83 14.037)"><path d="M-57.549,323.475c1.049,3.347,2.789,7.133,6.261,9.174,4.088,2.4,8.46,1.176,11.511-.67,10.077-6.1,27.547-39.718,1.276-47.974C-62.355,276.51-61.9,309.583-57.549,323.475Z" transform="translate(59.866 -282.914)" fill="#eac1a4"/></g><g transform="translate(53.902 15.608)"><path d="M-32.219,323.931c1.569,2.323,5.138,1.794,7.672.6A27.253,27.253,0,0,0-9.8,295.978c-1.681-9.485-13.406-16.849-16.094-5.214-.953,4.125,1.433,9.93.744,14.516C-26.132,311.833-29.347,318.045-32.219,323.931Z" transform="translate(32.219 -284.796)" fill="#292949"/></g><path d="M-68.558,269.115c-11.962,6.616-17.31,21.186-28.25,29.383a40.549,40.549,0,0,0,31.552.782c9.848-3.937,33.2-6.324,30.147-19.97C-38.217,265.421-58.077,263.318-68.558,269.115Z" transform="translate(96.808 -266.094)" fill="#292949"/></g><g transform="translate(0 67.032)"><path d="M-23.175,368.354c6.848,11.89,6.817,25.354,5.872,38.234-2.141,29.158.636,62.964-9.416,90.838-18.977-.018-55.355-8.719-74.255-10.662-3.684-25.349-1.537-40.17.54-68.875,1.024-14.153,3.221-33.141,8.23-46.624,4.1-11.038,15.035-25.292,31.539-24.838C-45.2,346.852-29.4,357.54-23.175,368.354Z" transform="translate(102.974 -346.416)" fill="#8cabef"/></g><path d="M-45.8,350.028c-1.729.731-3.846.425-5.9-1.56-1.764-1.708-1.22-2.266-.845-4.783.552-3.71,1.539-7.4,2.3-11.075l10.218,2.125c-.01,0-2.054,9.949-2.211,10.628A6.55,6.55,0,0,1-45.8,350.028Z" transform="translate(94.694 -277.1)" fill="#eac1a4"/></g><g transform="translate(0 91.462)"><path d="M-171.155,383.544l-7.98-7.854-12.581.3-1.436,6.381,19.012,8.213Z" transform="translate(193.152 -375.689)" fill="#eac1a4"/></g><g transform="translate(11.226 67.375)"><path d="M-75.206,355.032l-9.082-8.2-48.93,38.978-35.174-12.346L-179.7,387.878l47.073,27.6L-82.869,383.6Z" transform="translate(179.701 -346.827)" fill="#8cabef"/></g></g><g transform="translate(-397.792 566.896)"><g transform="translate(11.038 212.946)"><path d="M-218.176,428.338a24.1,24.1,0,0,0-18.473,4.688,24.092,24.092,0,0,0-9.636,16.443,24.077,24.077,0,0,0,4.688,18.474,24.1,24.1,0,0,0,16.444,9.636,25.645,25.645,0,0,0,7.827-.048,24.147,24.147,0,0,0,10.646-4.64,24.1,24.1,0,0,0,9.636-16.443,24.125,24.125,0,0,0-4.69-18.476A24.118,24.118,0,0,0-218.176,428.338Z" transform="translate(246.562 -428.062)" fill="#97f2ff"/></g><g transform="translate(27.185 212.949)"><path d="M-198.532,437.973a24.118,24.118,0,0,0-16.442-9.634,26.215,26.215,0,0,0-6.414-.139,23.922,23.922,0,0,1,11.185,8.344,24.122,24.122,0,0,1,4.69,18.475,24.1,24.1,0,0,1-9.636,16.443A24.152,24.152,0,0,1-225.8,476.1c-.468.078-.942.137-1.418.186a26.529,26.529,0,0,0,5.262,1.293,25.645,25.645,0,0,0,7.827-.048,24.147,24.147,0,0,0,10.646-4.64,24.1,24.1,0,0,0,9.636-16.443A24.125,24.125,0,0,0-198.532,437.973Z" transform="translate(227.214 -428.065)" fill="#97f2ff"/></g><g transform="translate(0)"><path d="M-110.363,203.509c-13.064-16.02-32.2-25.916-56.887-29.414s-45.928.67-63.162,12.382c-14.982,10.183-24.767,24.869-29.081,43.651a11.662,11.662,0,0,0,1.751,9.194,11.654,11.654,0,0,0,7.952,4.929l14.7,2.083a11.628,11.628,0,0,0,12.892-8.626c2.63-10.2,7.523-17.627,14.958-22.72,9-6.164,20.743-8.272,34.9-6.266,14.113,2,24.7,7.437,31.461,16.159,6.734,8.7,9.154,20.122,7.193,33.96-2.7,19.073-9.986,31.148-21.649,35.889-12.281,4.991-30.578,5.687-54.414,2.066l-6.36-.9a11.641,11.641,0,0,0-13.145,9.881l-7.85,55.392a11.551,11.551,0,0,0,2.219,8.619,11.554,11.554,0,0,0,7.663,4.527l14.908,2.112a11.582,11.582,0,0,0,3.524-.039,11.651,11.651,0,0,0,9.621-9.842l5.083-35.873a.838.838,0,0,1,.915-.714c27.886,3.193,50.1.048,66.031-9.347,16.94-9.992,27.388-28.168,31.052-54.023C-92.44,240.835-97.242,219.612-110.363,203.509Z" transform="translate(259.788 -172.896)" fill="#97f2ff"/></g><g transform="translate(50.781 0.001)"><path d="M-100.3,203.509c-13.064-16.02-32.2-25.916-56.887-29.414-15.28-2.165-29.244-1.389-41.756,2.294a112.61,112.61,0,0,1,21.462,1.067c24.684,3.5,43.824,13.394,56.887,29.414,13.121,16.1,17.923,37.327,14.274,63.08-3.664,25.855-14.112,44.031-31.052,54.023a68.966,68.966,0,0,1-16.441,6.883c14.564-1,26.859-4.418,36.736-10.244,16.94-9.992,27.388-28.168,31.052-54.023C-82.372,240.835-87.174,219.612-100.3,203.509Z" transform="translate(198.939 -172.898)" fill="#97f2ff"/></g></g></g></g></g></svg>