<svg xmlns="http://www.w3.org/2000/svg" id="prefix___005-shield" width="35.944" height="43.818" data-name="005-shield" viewBox="0 0 35.944 43.818">
    <defs>
        <style>
            .prefix__cls-1{fill:#87AB49}
        </style>
    </defs>
    <g id="prefix__Group_7379" data-name="Group 7379" transform="translate(17.117 3.424)">
        <g id="prefix__Group_7378" data-name="Group 7378">
            <path id="prefix__Path_48867" d="M246.865 40.01a.855.855 0 1 0 .855.855.853.853 0 0 0-.855-.855z" class="prefix__cls-1" data-name="Path 48867" transform="translate(-246.01 -40.01)"/>
        </g>
    </g>
    <g id="prefix__Group_7381" data-name="Group 7381">
        <g id="prefix__Group_7380" data-name="Group 7380">
            <path id="prefix__Path_48868" d="M81.089 5.135a4.284 4.284 0 0 1-4.28-4.279.856.856 0 0 0-.855-.856H51.991a.856.856 0 0 0-.856.856 4.284 4.284 0 0 1-4.279 4.279.856.856 0 0 0-.856.856v13.966a24.859 24.859 0 0 0 17.726 23.825.856.856 0 0 0 .492 0 24.861 24.861 0 0 0 17.726-23.825V5.991a.856.856 0 0 0-.855-.856zm-.856 14.822a23.016 23.016 0 0 1-16.261 22.11 23.141 23.141 0 0 1-16.261-22.11V6.786a6 6 0 0 0 5.074-5.074h22.374a6 6 0 0 0 5.074 5.074z" class="prefix__cls-1" data-name="Path 48868" transform="translate(-46)"/>
        </g>
    </g>
    <g id="prefix__Group_7383" data-name="Group 7383" transform="translate(3.423 3.423)">
        <g id="prefix__Group_7382" data-name="Group 7382">
            <path id="prefix__Path_48869" d="M114.585 44.492a7.709 7.709 0 0 1-3.98-3.98.856.856 0 0 0-.784-.512h-5.851a.856.856 0 0 0 0 1.712h5.31a9.408 9.408 0 0 0 4.106 4.106v10.716a19.5 19.5 0 0 1-12.837 18.495 19.5 19.5 0 0 1-12.837-18.495V45.817a9.409 9.409 0 0 0 4.106-4.106h5.31a.856.856 0 0 0 0-1.712h-5.852a.856.856 0 0 0-.784.512 7.709 7.709 0 0 1-3.98 3.98.856.856 0 0 0-.512.784v11.259a21.3 21.3 0 0 0 14.263 20.212.856.856 0 0 0 .571 0A21.3 21.3 0 0 0 115.1 56.534V45.276a.856.856 0 0 0-.515-.784z" class="prefix__cls-1" data-name="Path 48869" transform="translate(-86 -40)"/>
        </g>
    </g>
    <g id="prefix__Group_7385" data-name="Group 7385" transform="translate(10.27 12.495)">
        <g id="prefix__Group_7384" data-name="Group 7384">
            <path id="prefix__Path_48870" d="M173.7 146a7.7 7.7 0 1 0 7.7 7.7 7.711 7.711 0 0 0-7.7-7.7zm0 13.693a5.991 5.991 0 1 1 5.991-5.991 6 6 0 0 1-5.991 5.991z" class="prefix__cls-1" data-name="Path 48870" transform="translate(-166 -146)"/>
        </g>
    </g>
    <g id="prefix__Group_7387" data-name="Group 7387" transform="translate(14.549 17.63)">
        <g id="prefix__Group_7386" data-name="Group 7386">
            <path id="prefix__Path_48871" d="M223.451 206.251a.856.856 0 0 0-1.21 0l-3.674 3.674-1.106-1.106a.856.856 0 0 0-1.21 1.21l1.712 1.712a.856.856 0 0 0 1.21 0l4.279-4.279a.856.856 0 0 0-.001-1.211z" class="prefix__cls-1" data-name="Path 48871" transform="translate(-215.999 -206)"/>
        </g>
    </g>
</svg>
