<svg xmlns="http://www.w3.org/2000/svg" width="53" height="52" viewBox="0 0 53 52">
    <defs>
        <style>
            .cls-1,.cls-4{fill:#87AB49}.cls-1{stroke:#707070}.cls-2{fill:#ffffff}.cls-3{clip-path:url(#clip-path)}
        </style>
        <clipPath id="clip-path">
            <path id="Rectangle_9785" d="M0 0h52v52H0z" class="cls-1" data-name="Rectangle 9785" transform="translate(241 2281)"/>
        </clipPath>
    </defs>
    <g id="Group_7925" data-name="Group 7925" transform="translate(-240 -2281)">
        <path id="Path_50164" d="M4904.333 11171.152s1.887-17.69 17.691-17.69 17.69 17.69 17.69 17.69h11.886s-6.152-22.39-29.574-22.533c-13.159.057-21.137 10.812-21.174 22.533.081-.035 3.481 0 3.481 0z" class="cls-2" data-name="Path 50164" transform="translate(-4660.85 -8852)"/>
        <g id="Mask_Group_41" class="cls-3" data-name="Mask Group 41">
            <g id="_005-speedometer" data-name="005-speedometer" transform="translate(241 2290.902)">
                <path id="Path_50160" d="M5.586 11.614a1.016 1.016 0 0 0 1.424-.188l.027-.035a1.016 1.016 0 0 0-1.613-1.235l-.027.035a1.015 1.015 0 0 0 .189 1.423zm0 0" class="cls-4" data-name="Path 50160"/>
                <path id="Path_50161" d="M44.914 25.035h-.027a1.016 1.016 0 1 0 0 2.031h.027a1.016 1.016 0 0 0 0-2.031zm0 0" class="cls-4" data-name="Path 50161"/>
                <path id="Path_50162" d="M44.385 7.666A26 26 0 0 0 22.247.323a1.048 1.048 0 0 0-.112.017A25.928 25.928 0 0 0 8.529 6.8a1.016 1.016 0 1 0 1.365 1.5c.225-.2.453-.4.684-.6l1.254 2.172a19.463 19.463 0 0 0-5.664 5.664l-1.324-.764q.28-.524.585-1.034A1.016 1.016 0 0 0 3.688 12.7q-.6.995-1.1 2.037l-.016.033A26 26 0 0 0 0 26.051a1.016 1.016 0 0 0 1.016 1.016h3.047a1.016 1.016 0 0 0 1.016-1.016 17.265 17.265 0 0 1 27.462-13.932L24.36 20.3a6.092 6.092 0 1 0 3.734 3.734l8.181-8.181a17.289 17.289 0 0 1 3.334 10.2 1.016 1.016 0 0 0 2.031 0 19.323 19.323 0 0 0-2.1-8.755l6.794-3.922a23.815 23.815 0 0 1 3.615 11.661h-2.117a1.016 1.016 0 1 0 0 2.031h3.152A1.016 1.016 0 0 0 52 26.051a25.83 25.83 0 0 0-7.615-18.385zM3.073 25.035h-1.02a23.973 23.973 0 0 1 1.911-8.423l1.187.686a19.156 19.156 0 0 0-2.078 7.737zM34.179 3.521L31.1 8.856a19.334 19.334 0 0 0-7.739-2.074V2.228A24.135 24.135 0 0 1 26 2.082a23.856 23.856 0 0 1 8.179 1.439zM12.2 6.452a23.874 23.874 0 0 1 9.127-3.911v4.24a19.16 19.16 0 0 0-7.737 2.077zm24.627 5.976L22.775 26.482a.609.609 0 0 1-.862-.862l14.053-14.053a.609.609 0 0 1 .862.862zM26.406 26.051a4.063 4.063 0 1 1-4.062-4.062c.106 0 .211.006.315.013l-2.182 2.182a2.641 2.641 0 0 0 3.734 3.734l2.182-2.182c.007.105.013.209.013.315zm12.117-10.514q-.377-.581-.8-1.135l.537-.538a2.641 2.641 0 0 0-3.73-3.734l-.538.537q-.553-.42-1.135-.8L36.072 4.3a24.121 24.121 0 0 1 9.108 7.39zm0 0" class="cls-4" data-name="Path 50162"/>
            </g>
        </g>
    </g>
</svg>
