<svg xmlns="http://www.w3.org/2000/svg" width="52" height="52" viewBox="0 0 52 52">
    <defs>
        <style>
            .cls-1,.cls-3{fill:#87AB49}.cls-1{stroke:#707070}.cls-2{clip-path:url(#clip-path)}
        </style>
        <clipPath id="clip-path">
            <path id="Rectangle_9785" d="M0 0h52v52H0z" class="cls-1" data-name="Rectangle 9785" transform="translate(241 2281)"/>
        </clipPath>
    </defs>
    <g id="Mask_Group_37" class="cls-2" data-name="Mask Group 37" transform="translate(-241 -2281)">
        <g id="_025---Live-Recording" data-name="025---Live-Recording" transform="translate(241 2289.235)">
            <path id="Shape" d="M12.132 19.065V30.33a.867.867 0 0 0 1.733 0V19.065a.867.867 0 0 0-1.733 0z" class="cls-3"/>
            <path id="Shape-2" d="M21.686 18.87L19.5 28.354l-2.19-9.484a.867.867 0 0 0-1.69.39l2.6 11.266a.867.867 0 0 0 .845.672h.867a.867.867 0 0 0 .845-.672l2.6-11.266a.867.867 0 0 0-1.69-.39z" class="cls-3" data-name="Shape"/>
            <path id="Shape-3" d="M5.2 18.2a.867.867 0 0 0-.867.867V30.33a.867.867 0 0 0 .867.87h4.332a.867.867 0 0 0 0-1.733H6.066v-10.4A.867.867 0 0 0 5.2 18.2z" class="cls-3" data-name="Shape"/>
            <path id="Shape-4" d="M30.33 19.931a.867.867 0 0 0 0-1.733H26a.867.867 0 0 0-.867.867V30.33a.867.867 0 0 0 .867.87h4.33a.867.867 0 0 0 0-1.733h-3.466V26h3.466a.867.867 0 0 0 0-1.733h-3.466v-4.336z" class="cls-3" data-name="Shape"/>
            <path id="Shape-5" d="M4.333 35.53H33.8a4.315 4.315 0 0 0 4.215-3.357c.163-.7.118-.109.118-10.812a.867.867 0 1 0-1.733 0c0 10.74.031 9.974-.073 10.419A2.588 2.588 0 0 1 33.8 33.8H4.333a2.6 2.6 0 0 1-2.6-2.6v-13a2.6 2.6 0 0 1 2.6-2.6h26.3a.867.867 0 0 0 0-1.733h-26.3A4.338 4.338 0 0 0 0 18.2v13a4.338 4.338 0 0 0 4.333 4.33z" class="cls-3" data-name="Shape"/>
            <path id="Shape-6" d="M44.374 29.34a2.6 2.6 0 0 0 2.152-.638 16.454 16.454 0 1 0-23.544-22.88 2.6 2.6 0 1 0 3.97 3.354 11.259 11.259 0 1 1 16.117 15.652 2.594 2.594 0 0 0 1.305 4.512zm-.149-3.224a12.992 12.992 0 1 0-18.6-18.063.866.866 0 1 1-1.325-1.112 14.722 14.722 0 1 1 21.067 20.47.867.867 0 1 1-1.144-1.3z" class="cls-3" data-name="Shape"/>
            <path id="Shape-7" d="M38.887 21.838a2.6 2.6 0 0 0 4.326.26A9.532 9.532 0 0 0 29.976 8.72a2.59 2.59 0 0 0 .4 4.4A2.53 2.53 0 0 0 33 12.949a4.333 4.333 0 0 1 6.018 6.083 2.553 2.553 0 0 0-.131 2.806zm-2.649-11.4a6.087 6.087 0 0 0-4.255 1.1.877.877 0 0 1-1.32-.693.792.792 0 0 1 .324-.718 7.795 7.795 0 0 1 10.833 10.95.867.867 0 0 1-1.437-.106.834.834 0 0 1 .025-.906 6.066 6.066 0 0 0-4.17-9.626z" class="cls-3" data-name="Shape"/>
            <path id="Shape-8" d="M32.93 16.465a2.6 2.6 0 1 0 2.6-2.6 2.6 2.6 0 0 0-2.6 2.6zm3.466 0a.867.867 0 1 1-.867-.867.867.867 0 0 1 .871.867z" class="cls-3" data-name="Shape"/>
        </g>
    </g>
</svg>
