<svg xmlns="http://www.w3.org/2000/svg" width="43.519" height="43.519" viewBox="0 0 43.519 43.519">
    <defs>
        <style>
            .cls-1{fill:#87AB49;stroke:#87AB49;stroke-width:.5px}
        </style>
    </defs>
    <g id="_007-customer-support" data-name="007-customer-support" transform="translate(-.003 .269)">
        <path id="Path_30630" d="M.406 4.015l2.865 5.014a.716.716 0 0 0 .448.339l2.673.668 9.169 9.169 1.013-1.013-9.312-9.311a.714.714 0 0 0-.332-.189l-2.569-.644-2.44-4.272 2.092-2.092 4.273 2.442.645 2.569a.714.714 0 0 0 .188.333l9.313 9.313 1.013-1.013-9.169-9.17-.669-2.672a.717.717 0 0 0-.339-.449L4.253.173a.716.716 0 0 0-.86.115L.528 3.153a.716.716 0 0 0-.123.861zm0 0" class="cls-1" data-name="Path 30630" transform="translate(-.038 -.073)"/>
        <path id="Path_30631" d="M190.753 174.732l-15.759 15.76-1.013-1.013 15.76-15.759zm0 0" class="cls-1" data-name="Path 30631" transform="translate(-160.603 -160.613)"/>
        <path id="Path_30632" d="M55.53 399.183a.716.716 0 0 0-.614-.347h-4.3a.716.716 0 0 0-.614.347l-2.149 3.582a.716.716 0 0 0 0 .738L50 407.084a.716.716 0 0 0 .614.347h4.3a.717.717 0 0 0 .614-.347l2.149-3.582a.716.716 0 0 0 0-.738zM54.511 406h-3.487l-1.724-2.866 1.719-2.865h3.487l1.719 2.865zm0 0" class="cls-1" data-name="Path 30632" transform="translate(-43.898 -368.748)"/>
        <path id="Path_30633" d="M34.657 17.194A8.566 8.566 0 0 0 42.99 6.52a.716.716 0 0 0-1.2-.334l-4.46 4.457-3.538-1.179-1.18-3.537 4.459-4.46a.716.716 0 0 0-.336-1.2A8.57 8.57 0 0 0 26.062 8.6a8.408 8.408 0 0 0 .174 1.679L10.548 25.964a8.451 8.451 0 0 0-1.678-.174 8.6 8.6 0 1 0 8.6 8.6 8.429 8.429 0 0 0-.174-1.679l3.756-3.756 1.643 1.643a.717.717 0 0 0 1.013 0l.358-.358a.8.8 0 0 1 1.134 1.13l-.358.358a.716.716 0 0 0 0 1.013l8.545 8.545a5.781 5.781 0 1 0 8.213-8.137l-.037-.037-8.545-8.545a.716.716 0 0 0-1.013 0l-.358.358a.8.8 0 0 1-1.138-1.135l.358-.358a.716.716 0 0 0 0-1.013l-1.643-1.643 3.756-3.756a8.429 8.429 0 0 0 1.677.174zm2.815 24.355a4.353 4.353 0 0 1-1.524-.278l5.595-5.595a4.344 4.344 0 0 1-4.071 5.873zm-8.115-18.618a2.236 2.236 0 0 0 3.152 3.147l8.039 8.046c.087.088.169.18.248.273l-6.126 6.126a4.257 4.257 0 0 1-.274-.248l-8.045-8.046a2.236 2.236 0 0 0-3.151-3.147l-1.146-1.146 6.157-6.148zm2.893-7.2L16 31.974a.717.717 0 0 0-.189.681 7.211 7.211 0 1 1-5.211-5.21.723.723 0 0 0 .681-.189l16.247-16.247a.716.716 0 0 0 .188-.68 7.129 7.129 0 0 1 7.348-8.883l-3.779 3.78a.716.716 0 0 0-.173.733l1.432 4.3a.717.717 0 0 0 .456.451l4.3 1.433a.716.716 0 0 0 .733-.173l3.779-3.779c.009.137.013.272.013.407a7.126 7.126 0 0 1-8.895 6.941.717.717 0 0 0-.681.188zm0 0" class="cls-1" data-name="Path 30633"/>
        <path id="Path_30634" d="M391.067 389.788l-1.013 1.013-7.163-7.163 1.013-1.013zm0 0" class="cls-1" data-name="Path 30634" transform="translate(-353.753 -353.76)"/>
    </g>
</svg>
