<svg xmlns="http://www.w3.org/2000/svg" width="444.501" height="436.891" viewBox="0 0 444.501 436.891"><g transform="translate(-743.999 -3732)"><g transform="translate(135.24 3645.945)"><circle cx="152.003" cy="152.003" r="152.003" transform="translate(682.811 152.497)" fill="#d5d7db" opacity="0.204"/><circle cx="218.445" cy="218.445" r="218.445" transform="translate(616.369 86.055)" fill="#d5d7db" opacity="0.152"/></g><g transform="translate(700.176 3296.809)"><g transform="translate(170.873 486.067)"><path d="M200.871,539.324a5.238,5.238,0,0,0,2.494-6.954l-20.431-43.31a5.239,5.239,0,0,0-6.954-2.5l-40.731,19.217,24.891,52.76Z" transform="translate(-91.527 -486.067)" fill="#43b83a"/><path d="M139.724,568.6l40.731-19.217-24.891-52.76-40.729,19.215a5.24,5.24,0,0,0-2.5,6.956L132.772,566.1A5.237,5.237,0,0,0,139.724,568.6Z" transform="translate(-111.842 -476.907)" fill="#3a9e32"/><g transform="translate(5.058 5.146)"><rect width="45.217" height="47.89" transform="translate(0 38.583) rotate(-25.25)" fill="#43b83a"/><rect width="45.217" height="47.892" transform="matrix(0.904, -0.427, 0.427, 0.904, 40.892, 19.294)" fill="#3a9e32"/></g><g transform="translate(36.475 26.187)"><path d="M163.622,511.618a19.8,19.8,0,0,0-26.27-9.679h0l17.035,36.11A19.8,19.8,0,0,0,163.622,511.618Z" transform="translate(-126.177 -500.086)" fill="#43b83a"/><path d="M133.311,527.506a19.8,19.8,0,0,0,26.268,9.681h0l-17.035-36.11A19.8,19.8,0,0,0,133.311,527.506Z" transform="translate(-131.369 -499.226)" fill="#3a9e32"/></g><path d="M123.044,506.7l-10.029,4.729,4.339,9.2a8.725,8.725,0,0,0,2.3-.723,8.85,8.85,0,0,0,4.229-11.781A8.61,8.61,0,0,0,123.044,506.7Z" transform="translate(-110.823 -468.163)" fill="#3a9e32"/><path d="M163.707,487.495l-9.959,4.7a8.847,8.847,0,0,0,12.347,5.783,8.894,8.894,0,0,0,1.959-1.263Z" transform="translate(-75.472 -484.827)" fill="#43b83a"/><path d="M137.034,536.466a8.859,8.859,0,0,0-12.629-7.69,8.675,8.675,0,0,0-2.021,1.319l5.124,10.865Z" transform="translate(-102.692 -449.738)" fill="#3a9e32"/><path d="M171.833,507.343a8.856,8.856,0,0,0-4.315,15.345l9.451-4.459Z" transform="translate(-66.111 -467.602)" fill="#43b83a"/><g transform="translate(21.994 26.974)"><circle cx="5.67" cy="5.67" r="5.67" transform="translate(0 26.897)" fill="#43b83a"/><path d="M164.939,503.758a5.673,5.673,0,1,0-2.71,7.552A5.674,5.674,0,0,0,164.939,503.758Z" transform="translate(-97.13 -500.508)" fill="#43b83a"/></g></g><g transform="translate(141.701 612.482)"><path d="M411.386,625.091c.009.68-.019,1.352-.075,2.008a25.881,25.881,0,0,1-.938,5.075,27.685,27.685,0,0,1-.981,2.791,40.673,40.673,0,0,1-10.921,14.668c-.448.377-.714.573-.714.573H131.469l-.14-.039-7.223-2.043-20.449-5.774-7.212-17.773-.03-2.88-.191-22.676,9.345-5.183s39.558-6.114,40.159-6.366,38.56-20.2,48.335-24.542c31.6-14.022,71.313-7.817,71.313-7.817,8.247.192,25.564,4.47,32.805,8.45,14.846,8.157,29.557,26.2,37.3,27.187,9.192,1.173,68.6,11,74.748,25.433C411.252,618.586,411.368,621.694,411.386,625.091Z" transform="translate(-96.224 -553.746)" fill="#62b2f0"/><path d="M294.171,593.538a88.333,88.333,0,0,0-10.354-5.323c-2.273-1.08-4.507-2.21-6.84-3.16a70.95,70.95,0,0,0-8.1-2.673c-2.817-.755-5.667-1.24-8.517-1.851-2.938-.641-5.845-1.39-8.77-2.086-4.711-1.139-9.474-1.816-14.233-2.673-2.329-.418-4.651-.818-7.014-1.061a21.115,21.115,0,0,0-7.141.039.321.321,0,0,0,.007.633c1.367.247,2.757.3,4.149.446,1.519.144,3.033.39,4.539.658,2.9.523,5.8,1.055,8.7,1.543s5.805.932,8.686,1.573c2.919.654,5.83,1.373,8.749,2.034,2.873.646,5.781,1.139,8.622,1.877a61.364,61.364,0,0,1,8.277,2.882c4.139,1.735,8.108,3.936,12.119,5.962a42.678,42.678,0,0,1,7.122,4.315,14.343,14.343,0,0,1,2.7,2.7,25.667,25.667,0,0,1,1.715,2.94.971.971,0,0,0,1.836-.256C300.959,598.341,296.91,595.322,294.171,593.538Z" transform="translate(13.745 -535.804)" fill="#83c8fc"/><path d="M297.686,578.613c-10.83,2.161-157.434-.133-161.616-2.406,0,0,26.163-.463,32.309-.9,33.091-2.369,122.28.5,122.28.5Z" transform="translate(-61.643 -535.849)" fill="#83c8fc"/><path d="M185.6,621.683H178.19c-.512-6.672-3.151-11.022-7.318-15.763-5.5-6.252-13.626-11.917-22.579-11.917-6.7,0-13.124,5.15-18.131,8.874-6.751,5.036-11.091,9.894-11.784,18.763l-7.229-2.043a37.395,37.395,0,0,1,74.455,2.086Z" transform="translate(-83.272 -525.218)" fill="#2278ba"/><path d="M286.938,621.683h-7.414c-.581-7.556-3.932-12.582-9.091-17.537-5.4-5.189-12.758-10.143-20.8-10.143-10.4,0-19.807,7.238-25.2,15.287-2.787,4.162-4.317,7.126-4.726,12.393h-7.414a37.394,37.394,0,0,1,74.644,0Z" transform="translate(4.51 -525.218)" fill="#2278ba"/><path d="M101.709,604.888l1.851,4.552,27.813,7.856h266.29a41.775,41.775,0,0,0,10.3-12.408H118.68L96.335,591.667Z" transform="translate(-96.128 -520.835)" fill="#2278ba"/><path d="M265.334,601.059a38.607,38.607,0,0,0,12.834-2.426,2.079,2.079,0,0,0,1.35-2.254c-.3-2.83-9.634-14.672-23.191-16.37l-16.445-.019.695,2.4C240.631,582.574,246.276,601.059,265.334,601.059Z" transform="translate(28.453 -530.97)" fill="#2278ba"/><path d="M276.393,596.008c1.274-.454-7.724-13.3-21.451-15.018H241.214S248.512,605.872,276.393,596.008Z" transform="translate(29.609 -530.101)" fill="#e0e0e0"/><g transform="translate(226.353 66.573)"><path d="M267.349,619.28c.064-.7.11-1.4.11-2.116a22.282,22.282,0,1,0-44.564,0c0,.715.043,1.414.112,2.116H217.49c-.058-.7-.084-1.4-.084-2.116a27.772,27.772,0,1,1,55.543,0c0,.715-.022,1.414-.084,2.116Z" transform="translate(-217.406 -589.387)" fill="#26252e"/><g transform="translate(4.268 4.259)"><path d="M255.783,615.185a23.5,23.5,0,0,1-23.505,23.5V591.667A23.513,23.513,0,0,1,255.783,615.185Z" transform="translate(-208.767 -591.667)" fill="#1c1c1f"/><path d="M243.2,591.667h0v47.014h0a23.507,23.507,0,1,1,0-47.014Z" transform="translate(-219.691 -591.667)" fill="#1c1c1f"/></g><path d="M240.437,594.853a17.557,17.557,0,1,1-17.56,17.556A17.558,17.558,0,0,1,240.437,594.853Z" transform="translate(-212.658 -584.643)" fill="#e0e0e0"/><g transform="translate(12.019 14.646)"><g transform="translate(18.827)"><path d="M233.92,607.38a52.173,52.173,0,0,0,5.686-10.152,12.842,12.842,0,0,1,6.986,12.1,52.576,52.576,0,0,0-11.635-.153Z" transform="translate(-233.92 -597.228)" fill="#26252e"/></g><g transform="translate(18.827 14.142)"><path d="M234.957,604.952a52.019,52.019,0,0,0,11.635-.153,12.857,12.857,0,0,1-6.986,12.108,52.094,52.094,0,0,0-5.686-10.159Z" transform="translate(-233.92 -604.799)" fill="#26252e"/></g><g transform="translate(0 14.142)"><path d="M236.536,606.747a51.6,51.6,0,0,0-5.686,10.159,12.879,12.879,0,0,1-7-12.108,52.107,52.107,0,0,0,11.644.153Z" transform="translate(-223.84 -604.799)" fill="#26252e"/></g><path d="M235.5,609.175a52.442,52.442,0,0,0-11.644.153,12.864,12.864,0,0,1,7-12.1,51.975,51.975,0,0,0,5.686,10.152Z" transform="translate(-223.84 -597.228)" fill="#1c1c1f"/></g><g transform="translate(20.789 11.558)"><path d="M239.266,597.639a52.194,52.194,0,0,0-5.953,10.01h-1.035V595.575A13.006,13.006,0,0,1,239.266,597.639Z" transform="translate(-225.288 -595.575)" fill="#26252e"/><path d="M228.536,597.639a12.989,12.989,0,0,1,6.99-2.064v12.074h-1.037A52.1,52.1,0,0,0,228.536,597.639Z" transform="translate(-228.536 -595.575)" fill="#1c1c1f"/><path d="M233.313,606.466a51.962,51.962,0,0,0,5.953,10.01,13.006,13.006,0,0,1-6.988,2.064V606.466Z" transform="translate(-225.288 -586.123)" fill="#26252e"/><path d="M235.526,606.466V618.54a13.021,13.021,0,0,1-6.99-2.064,51.868,51.868,0,0,0,5.953-10.01Z" transform="translate(-228.536 -586.123)" fill="#1c1c1f"/></g></g><g transform="translate(37.236 66.573)"><path d="M166.1,619.28c.069-.7.114-1.4.114-2.116a22.281,22.281,0,1,0-44.562,0,19.891,19.891,0,0,0,.108,2.116h-5.52c-.062-.7-.084-1.4-.084-2.116a27.771,27.771,0,1,1,55.541,0c0,.715-.028,1.414-.082,2.116Z" transform="translate(-116.159 -589.387)" fill="#26252e"/><g transform="translate(4.266 4.259)"><path d="M154.538,615.185a23.507,23.507,0,0,1-23.507,23.5V591.667A23.516,23.516,0,0,1,154.538,615.185Z" transform="translate(-107.518 -591.667)" fill="#1c1c1f"/><path d="M141.95,591.667h.006v47.014h-.006a23.507,23.507,0,0,1,0-47.014Z" transform="translate(-118.443 -591.667)" fill="#1c1c1f"/></g><path d="M139.186,594.853a17.557,17.557,0,1,1-17.552,17.556A17.554,17.554,0,0,1,139.186,594.853Z" transform="translate(-111.407 -584.643)" fill="#e0e0e0"/><g transform="translate(12.022 14.646)"><g transform="translate(18.824)"><path d="M132.673,607.38a52.85,52.85,0,0,0,5.693-10.152,12.863,12.863,0,0,1,6.984,12.1,52.663,52.663,0,0,0-11.644-.153Z" transform="translate(-132.673 -597.228)" fill="#26252e"/></g><g transform="translate(18.824 14.142)"><path d="M133.706,604.952a52.1,52.1,0,0,0,11.644-.153,12.87,12.87,0,0,1-6.993,12.108,52.17,52.17,0,0,0-5.684-10.159Z" transform="translate(-132.673 -604.799)" fill="#26252e"/></g><g transform="translate(0 14.142)"><path d="M135.285,606.747a51.956,51.956,0,0,0-5.691,10.159,12.87,12.87,0,0,1-6.986-12.108,52.1,52.1,0,0,0,11.646.153Z" transform="translate(-122.595 -604.799)" fill="#26252e"/></g><path d="M134.254,609.175a52.435,52.435,0,0,0-11.646.153,12.855,12.855,0,0,1,6.986-12.1,52.034,52.034,0,0,0,5.691,10.152Z" transform="translate(-122.595 -597.228)" fill="#26252e"/></g><g transform="translate(20.789 11.558)"><path d="M138.015,597.639a52.011,52.011,0,0,0-5.949,10.01h-1.035V595.575A12.989,12.989,0,0,1,138.015,597.639Z" transform="translate(-124.041 -595.575)" fill="#26252e"/><path d="M127.289,597.639a12.993,12.993,0,0,1,6.99-2.064v12.074h-1.035A52.385,52.385,0,0,0,127.289,597.639Z" transform="translate(-127.289 -595.575)" fill="#26252e"/><path d="M132.066,606.466a52.065,52.065,0,0,0,5.949,10.01,12.989,12.989,0,0,1-6.984,2.064V606.466Z" transform="translate(-124.041 -586.123)" fill="#26252e"/><path d="M134.279,606.466V618.54a13.026,13.026,0,0,1-6.99-2.064,51.866,51.866,0,0,0,5.955-10.01Z" transform="translate(-127.289 -586.123)" fill="#26252e"/></g></g><path d="M172.864,592.191l-.239-.024c-9.79-1.134-27.521-4.332-36.274-12.946l-.622-.622.159-.878c.17-.88.77-1.149,1.666-1.55.469-.205,1.143-.5,1.986-.854,1.674-.714,4.016-1.7,6.73-2.835,6.525-2.742,15.442-6.489,21.927-9.352,4.716-2.088,14.031-5.592,18.927-6.106,8.807-.934,19.728-1.489,29.221-1.489,11.289,0,20.167.74,26.363,2.187,16.527,3.876,24.015,10.243,27.615,13.31.39.331.751.631,1.063.889,1.143.926,13.983,13.749,13.983,13.749l5.592,6.616-8.327-.1Z" transform="translate(-61.939 -552.194)" fill="#2278ba"/><path d="M241.5,558.573c-14.306-3.353-41.194-2.135-55.033-.671-4.763.493-14.071,4.042-18.43,5.977-11.863,5.243-31.474,13.254-31.345,13.383,9.776,9.623,32,12.1,35.437,12.5H286.383l-3.026-3.695s-12.875-12.834-13.854-13.628C266.223,569.776,259.419,562.772,241.5,558.573Z" transform="translate(-61.105 -551.42)" fill="#1c1c1f"/><path d="M170.91,587.442l-.058,0c-13.406-1.556-24.46-4.9-31.128-9.425l-1.524-1.025,1.687-.721c1.584-.665,3.517-1.476,5.5-2.312,6.523-2.733,15.444-6.482,21.979-9.371,4.729-2.094,13.706-5.4,17.948-5.846,8.7-.921,19.5-1.465,28.887-1.465,10.89,0,19.745.73,25.627,2.1,15.765,3.7,22.586,9.494,26.242,12.621.424.349.792.665,1.134.943,1.05.863,9,8.768,13.025,12.806l1.689,1.7Z" transform="translate(-59.794 -550.685)" fill="#26252e"/><path d="M170.007,585.989c-13.331-1.548-24.189-4.862-30.7-9.257,1.586-.676,3.515-1.483,5.5-2.312,6.53-2.748,15.481-6.5,21.992-9.388,4.675-2.07,13.52-5.331,17.657-5.764,8.667-.913,19.431-1.464,28.778-1.464,10.813,0,19.6.725,25.4,2.085,15.533,3.633,22.231,9.339,25.836,12.4.42.357.8.682,1.139.954.917.753,8.178,7.953,12.952,12.743Z" transform="translate(-58.831 -550.224)" fill="#26252e"/><rect width="3.608" height="31.718" transform="translate(141.472 5.715)" fill="#1c1c1f"/><path d="M273.139,595.734a27.685,27.685,0,0,1-.981,2.791c-.22.534-.45,1.061-.695,1.575a36.713,36.713,0,0,1-4.2,6.756,43.2,43.2,0,0,1-6.024,6.338,8.839,8.839,0,0,1,1.95-17.459Z" transform="translate(41.011 -517.305)" fill="#2278ba"/><path d="M108.281,587.483v4.769A9.249,9.249,0,0,1,99.03,601.5h-.405a9.237,9.237,0,0,1-2.21-.267l-.191-22.682a8.887,8.887,0,0,1,2.4-.318h.405A9.249,9.249,0,0,1,108.281,587.483Z" transform="translate(-96.224 -532.49)" fill="#2278ba"/><path d="M105.569,586.807V590.5a7.171,7.171,0,0,1-7.167,7.173h-.323a6.984,6.984,0,0,1-1.707-.213l-.148-17.579a7.046,7.046,0,0,1,1.855-.245H98.4A7.165,7.165,0,0,1,105.569,586.807Z" transform="translate(-96.224 -531.275)" fill="#e0e0e0"/><path d="M270.991,598.663a36.713,36.713,0,0,1-4.2,6.756l-11.891-2.38,5.65-5.65Z" transform="translate(41.484 -515.869)" fill="#e0e0e0"/><path d="M253.171,585.708a3.777,3.777,0,1,1-3.779-3.779A3.779,3.779,0,0,1,253.171,585.708Z" transform="translate(33.43 -529.286)" fill="#fff"/><path d="M243.511,582.1h13.727a26.482,26.482,0,0,1,7.169,1.974,27.422,27.422,0,0,0-9.464-3.088H241.214s3.3,11.254,13.936,15.625C246.332,591.706,243.511,582.1,243.511,582.1Z" transform="translate(29.609 -530.101)" fill="#ccc"/><path d="M104.374,584.194a3.778,3.778,0,1,1-3.779-3.773A3.782,3.782,0,0,1,104.374,584.194Z" transform="translate(-95.708 -530.595)" fill="#fff"/><path d="M156.383,581a2.222,2.222,0,0,1-2.225,2.219H145.67A2.219,2.219,0,0,1,143.455,581h0a2.22,2.22,0,0,1,2.215-2.215h8.488A2.223,2.223,0,0,1,156.383,581Z" transform="translate(-55.233 -532.013)" fill="#2278ba"/><path d="M188.158,581a2.215,2.215,0,0,1-2.215,2.219h-8.491a2.215,2.215,0,0,1-2.21-2.219h0a2.217,2.217,0,0,1,2.21-2.215h8.491A2.217,2.217,0,0,1,188.158,581Z" transform="translate(-27.646 -532.013)" fill="#2278ba"/><path d="M155.772,580.527a2.215,2.215,0,0,1-2.219,2.217h-8.489a2.213,2.213,0,0,1-2.208-2.217h0a2.215,2.215,0,0,1,2.208-2.215h8.489a2.217,2.217,0,0,1,2.219,2.215Z" transform="translate(-55.753 -532.425)" fill="#e0e0e0"/><path d="M187.562,580.527a2.218,2.218,0,0,1-2.215,2.217h-8.488a2.215,2.215,0,0,1-2.219-2.217h0a2.217,2.217,0,0,1,2.219-2.215h8.488a2.22,2.22,0,0,1,2.215,2.215Z" transform="translate(-28.169 -532.425)" fill="#e0e0e0"/><g transform="translate(78.609 34.255)"><path d="M204.809,626.4l-36.849-1.737-.088-.607a36.813,36.813,0,0,0-28.661-30.254l-.9-.191,9.45-21.531,1.371.6-8.71,19.85a38.354,38.354,0,0,1,28.838,30.689l34.018,1.6-1.227-47.489,1.492-.037Z" transform="translate(-138.309 -572.085)" fill="#2278ba"/></g><g transform="translate(205.873 39.952)"><path d="M207.521,619.874l-1.079-1.04L229.336,595.1l-1.245-19.87,1.494-.1,1.29,20.534Z" transform="translate(-206.442 -575.135)" fill="#2278ba"/></g><path d="M224.345,584.186a3.226,3.226,0,1,1,0-6.452h7.18a3.226,3.226,0,0,1,0,6.452Z" transform="translate(12.169 -532.927)" fill="#2278ba"/><path d="M233.377,580.523a2.288,2.288,0,0,1-2.288,2.286h-7.18a2.281,2.281,0,0,1-2.288-2.286h0a2.287,2.287,0,0,1,2.288-2.286h7.18a2.294,2.294,0,0,1,2.288,2.286Z" transform="translate(12.605 -532.49)" fill="#ffca00"/><path d="M245.055,585.989C240.281,581.2,233.02,574,232.1,573.246c-.336-.273-.719-.6-1.139-.954-3.605-3.065-10.3-8.771-25.836-12.4-5.8-1.36-14.582-2.085-25.4-2.085-.6,0-1.209,0-1.816.006l40.7,28.181Z" transform="translate(-25.326 -550.224)" fill="#242130" opacity="0.2"/><path d="M186.395,557.967c-5.525.252-11.009.65-15.843,1.158-3.493.37-10.354,2.753-15.218,4.731l31.061,21.494Z" transform="translate(-44.924 -550.082)" fill="#242130" opacity="0.2"/><path d="M139.6,582.155c-1.789-.628-3.909-.064-5.647.487a33.667,33.667,0,0,0-6.117,2.688,41.532,41.532,0,0,0-9.6,7.384,55.12,55.12,0,0,0-6.383,7.666,22.991,22.991,0,0,0-2.363,4.3,5.522,5.522,0,0,0-.463,3.661c.125.385.671.246.736-.1a15.245,15.245,0,0,1,.962-3.527,22.889,22.889,0,0,1,2.439-3.975,51.545,51.545,0,0,1,6.205-6.915,43.2,43.2,0,0,1,8.928-6.594,35.1,35.1,0,0,1,5.548-2.445c1.866-.631,4.051-.88,5.757-1.877A.415.415,0,0,0,139.6,582.155Z" transform="translate(-85.25 -529.329)" fill="#83c8fc"/><path d="M263.387,604.028a19.774,19.774,0,0,0-2.322-3.911,33.43,33.43,0,0,0-6.96-6.708,49.845,49.845,0,0,0-8.6-5c-2.553-1.2-5.325-2.5-8.153-2.783a.186.186,0,0,0-.1.357c2.387,1.229,4.931,2.131,7.33,3.343a61.212,61.212,0,0,1,8.123,5.066,33.681,33.681,0,0,1,6.769,6.377,18.64,18.64,0,0,1,2.187,3.517c.56,1.192.749,2.624,1.591,3.669a.452.452,0,0,0,.762-.108C264.48,606.557,263.9,605.219,263.387,604.028Z" transform="translate(26.072 -526.081)" fill="#83c8fc"/></g><g transform="translate(43.823 666.89)"><path d="M49.835,647.345l16.352,31.938,14.061-7.552,12.5-.138,23.333-11.223-25.6-38.242-26.2,15.411L58.3,640.854Z" transform="translate(-38.606 -548.807)" fill="#ffc89f"/><g transform="translate(45.35)"><path d="M211.254,582.874H78.777A10.7,10.7,0,0,0,68.1,593.549v92.213a10.7,10.7,0,0,0,10.675,10.671H207.511a10.707,10.707,0,0,0,10.673-10.671V593.549C218.184,587.68,217.134,582.874,211.254,582.874Z" transform="translate(-68.102 -582.874)" fill="#26252e"/><path d="M1.431,0H135.594a1.431,1.431,0,0,1,1.431,1.431v99.614a1.429,1.429,0,0,1-1.429,1.429H1.428A1.428,1.428,0,0,1,0,101.047V1.431A1.431,1.431,0,0,1,1.431,0Z" transform="translate(6.527 5.546)" fill="#e0e0e0"/></g><path d="M63.669,631.009l-19.846,5.757,14.569,44.225,24.25-13.405Z" transform="translate(-43.823 -541.099)" fill="#ff4140"/><path d="M121.7,648.286c-2.294,6.8-14.136,6.909-24.256,11.51H74.265a2.706,2.706,0,0,1-2.669-2.673V620.261c14.5-1.125,49.646-3.6,55.177,1.8C135.255,630.347,123.706,642.343,121.7,648.286Z" transform="translate(-19.72 -551.775)" fill="#62b2f0"/><path d="M162.583,600.408V631.63a38.815,38.815,0,0,1-7.191,1.956s-36.5,1.076-29.966-21.382c1.933-6.657,9.242-13.122,13.391-14.056C141.459,597.552,153.539,600,162.583,600.408Z" transform="translate(26.318 -569.699)" fill="#699626"/><path d="M177.219,604.922c.473-.484.958-.938,1.451-1.379h29.951v-7.677H158.738V585.842h-7.675v3.971H139.478v3.838h11.585v14.76H116.139v-22.57H112.3v22.57H101.962l-21.038-22.57H75.679l21.036,22.57H71.6v3.838h40.7v21.865H71.6v7.673h64.361c.049.041.093.078.142.123a14.3,14.3,0,0,1,2.854,4.5,34.919,34.919,0,0,1,3,13.055,14.361,14.361,0,0,1-.007,2.438,14.893,14.893,0,0,1-.347,2.55,24.125,24.125,0,0,1-3.906,7.707c-3.777,5.249-8.76,9.53-13.31,14.076q-1.037,1.031-2.043,2.083h7.679c.91-.912,1.831-1.806,2.748-2.708,4.765-4.7,9.356-9.7,12.2-15.836,2.023-4.384,2.221-8.893,1.59-13.609a34.522,34.522,0,0,0-4.657-13.893c-.1-.162-.205-.329-.316-.484h9.479v46.531h7.675V676.7h49.883v-3.837H158.738V655.738h49.883V651.9h-30.3a1.675,1.675,0,0,0,.166-1.642c-1.69-4.339-4.35-8.075-6.965-11.887-2.43-3.545-4.255-7.412-4.229-11.792.022-5.417,2.193-10.522,4.927-15.1A33.717,33.717,0,0,1,177.219,604.922Zm-26.156,29.193H116.139V612.25h34.924Zm12.158-8.824a23.725,23.725,0,0,0,4.04,14.136c2.593,4.141,5.873,7.8,8.006,12.212a2.416,2.416,0,0,0,.148.26H158.738V603.544h14.693a38.277,38.277,0,0,0-3.941,4.849A33.414,33.414,0,0,0,163.221,625.291Z" transform="translate(-19.72 -580.298)" fill="#fff"/><rect width="15.429" height="4.973" transform="translate(74.46 33.777)" fill="#ccc"/><rect width="15.438" height="4.973" transform="translate(100.097 33.777)" fill="#ccc"/><rect width="4.976" height="9.248" transform="translate(123.889 43.121)" fill="#ccc"/><rect width="9.242" height="4.982" transform="translate(119.759 47.387)" fill="#ccc"/><rect width="9.915" height="8.072" transform="translate(118.95 33.777)" fill="#ccc"/><rect width="15.435" height="4.979" transform="translate(143.639 8.375)" fill="#ccc"/><rect width="15.429" height="4.979" transform="translate(166.175 8.375)" fill="#ccc"/><rect width="15.432" height="11.223" transform="translate(109.648 15.007)" fill="#ccc"/><rect width="15.435" height="11.223" transform="translate(143.639 78.573)" fill="#ccc"/><rect width="15.438" height="11.229" transform="translate(100.097 40.703)" fill="#ccc"/><rect width="9.891" height="11.223" transform="translate(80.795 7.738)" fill="#ccc"/><rect width="15.426" height="4.979" transform="translate(67.164 46.954)" fill="#ccc"/><rect width="8.496" height="4.973" transform="translate(64.305 33.777)" fill="#ccc"/><rect width="8.49" height="4.979" transform="translate(98.653 21.252)" fill="#ccc"/><rect width="8.484" height="4.979" transform="translate(56.566 21.252)" fill="#ccc"/><rect width="8.49" height="4.979" transform="translate(82.253 21.252)" fill="#ccc"/><rect width="8.481" height="4.973" transform="translate(53.737 33.777)" fill="#ccc"/><rect width="4.976" height="10.556" transform="translate(84.914 41.04)" fill="#ccc"/><rect width="4.976" height="10.559" transform="translate(98.653 8.072)" fill="#ccc"/><g transform="translate(157.441 36.929)"><path d="M146.7,670.692c.779.684,1.442,1.224,1.442,1.224l7.283-13.581c-4.266-6-15.251-12.939-15.251-12.939l-.374-3.245c8.588-4.711,4.257-12.533,3.467-13.8s-3.768.878-3.768.878l-11.392,9.989,2.169,16.034C132.249,657.964,143.016,667.471,146.7,670.692Z" transform="translate(-128.112 -580.686)" fill="#ffc89f"/><path d="M138.988,654.121l2.841,11.295,30.136-.069-2.086-15.027C166.573,650.865,142.4,653.589,138.988,654.121Z" transform="translate(-118.673 -561.269)" fill="#ffc89f"/><path d="M178.011,687.743s3.388-9.459,3.388-9.573c.123-3.413.824-23.063-1.81-35.269l-.945-6.547a5.351,5.351,0,0,0-10.389-1.029l-.09-1.011a5.707,5.707,0,0,0-11.119-.952l-.1-.949a5.714,5.714,0,1,0-11.31,1.61l.006.006c-.086.013-.168,0-.248.007l-4.616-26.49a5.942,5.942,0,1,0-11.7,2.086s8.174,49.908,8.409,50.388l2.279,12.81-3.741,10.929c.478.5,10.972,9.046,10.972,9.046l3.513,13.987,30.136-.069Z" transform="translate(-127.355 -602.645)" fill="#ffc89f"/><path d="M178.688,650.32l-41.768,6.632,1.428,23.688,47.757-7.237Z" transform="translate(-120.468 -561.269)" fill="#ff4140"/></g><path d="M77.806,614.75a2.009,2.009,0,1,0-2.012,2A2.009,2.009,0,0,0,77.806,614.75Z" transform="translate(-17.818 -556.952)" fill="#ff4140"/><g transform="translate(22.791 43.17)"><path d="M65.3,620.934l19.431-13.712s2.735-2.516,4.115-.37c.8,1.257,2.979,8.215-3.99,13.29-2.068,1.517-8.237,7.016-8.237,7.016s1.705,13.665-1.134,20.989l-19.458,5,2.5-13.439S64.432,623.226,65.3,620.934Z" transform="translate(-56.025 -605.986)" fill="#ffc89f"/></g><g transform="translate(57.976 18.296)"><rect width="0.893" height="0.662" transform="translate(0 39.168)" fill="#ff4140"/><path d="M146.885,614.3h-1.8v-.661h1.8Zm-3.614,0h-1.8v-.661h1.8Zm-3.616,0h-1.814v-.661h1.814Zm-3.627,0h-1.81v-.661h1.81Zm-3.616,0h-1.806v-.661h1.806Zm-3.62,0H126.98v-.661h1.812Zm-3.616,0h-1.814v-.661h1.814Zm-3.622,0h-1.81v-.661h1.81Zm-3.624,0h-1.8v-.661h1.8Zm-3.614,0H112.5v-.661h1.812Zm-3.622,0h-1.808v-.661h1.808Zm-3.618,0h-1.812v-.661h1.812Zm-3.618,0h-1.81v-.661h1.81Zm-3.62,0h-1.81v-.661h1.81Zm-3.624,0H94.408v-.661h1.806Zm-3.616,0H90.782v-.661H92.6Zm-3.626,0h-1.8v-.661h1.8Zm-3.62,0h-1.8v-.661h1.8Zm-3.616,0h-1.8v-.661h1.8Zm-3.618,0H76.306v-.661h1.812Z" transform="translate(-73.609 -574.47)" fill="#ff4140"/><path d="M116.278,614.556h-1.215v-.662h.553v-.55h.662Z" transform="translate(-39.972 -574.726)" fill="#ff4140"/><path d="M116.021,628.109h-.661v-1.78h.661Zm0-3.562h-.661v-1.78h.661Zm0-3.56h-.661v-1.78h.661Zm0-3.562h-.661v-1.778h.661Zm0-3.557h-.661v-1.784h.661Zm0-3.566h-.661v-1.78h.661Zm0-3.564h-.661v-1.776h.661Zm0-3.562h-.661V601.4h.661Zm0-3.56h-.661v-1.782h.661Zm0-3.562h-.661v-1.78h.661Z" transform="translate(-39.715 -591.276)" fill="#ff4140"/><path d="M116.021,593.887h-.662v-1.218h1.218v.664h-.556Z" transform="translate(-39.715 -592.669)" fill="#ff4140"/><path d="M163.148,593.334h-1.717v-.665h1.717Zm-3.424,0h-1.715v-.665h1.715Zm-3.428,0h-1.711v-.665H156.3Zm-3.426,0h-1.7v-.665h1.7Zm-3.418,0h-1.717v-.665h1.717Zm-3.424,0h-1.713v-.665h1.713Zm-3.424,0H140.89v-.665H142.6Zm-3.428,0H137.47v-.665h1.707Zm-3.424,0h-1.705v-.665h1.705Zm-3.418,0h-1.711v-.665h1.711Zm-3.428,0H127.2v-.665h1.711Zm-3.418,0h-1.717v-.665h1.717Zm-3.422,0h-1.717v-.665h1.717Zm-3.431,0h-1.707v-.665h1.707Z" transform="translate(-38.353 -592.669)" fill="#ff4140"/><rect width="0.887" height="0.664" transform="translate(126.499 0.001)" fill="#ff4140"/></g><path d="M117.922,619.982l-10.995-4.206,10.995-4.215Z" transform="translate(10.943 -557.978)" fill="#ff4140"/></g><g transform="translate(95.699 672.436)"><path d="M125.318,585.843,71.6,639.556v-26.82l26.892-26.892Z" transform="translate(-71.596 -585.843)" fill="#fff" opacity="0.3"/></g><g transform="translate(95.699 672.436)"><path d="M187.029,585.843,84.553,688.318H74.265a2.705,2.705,0,0,1-2.669-2.669v-33.2l66.61-66.608Z" transform="translate(-71.596 -585.843)" fill="#fff" opacity="0.3"/></g><g transform="translate(330.453 514.487)"><g transform="translate(75.957 27.97)"><g transform="translate(28.385 38.679)"><path d="M282.358,587.118a5.971,5.971,0,0,0,1.6-7.531l-21.07-39.462a5.973,5.973,0,0,0-5.3-3.16,6.381,6.381,0,0,0-1.761.252,8.172,8.172,0,0,0-.956.4l26.69,50.012A4.912,4.912,0,0,0,282.358,587.118Z" transform="translate(-251.634 -536.964)" fill="#e0e0e0"/><path d="M256.374,537.313a.186.186,0,0,1-.088.037c-.258.149-.489.278-.73.446a6.044,6.044,0,0,0-1.713,7.669l21.071,39.442a5.936,5.936,0,0,0,5.267,3.166,6.139,6.139,0,0,0,1.836-.282,9.6,9.6,0,0,0,.984-.418c.024-.015.045-.043.062-.049Z" transform="translate(-253.137 -536.661)" fill="#ccc"/></g><g transform="translate(30.794 38.634)"><path d="M282.495,587.139,256.141,537.5a.964.964,0,0,0-.9-.557,1.067,1.067,0,0,0-.512.133c-.009,0-.009.021-.015.024L281.7,587.649A4.917,4.917,0,0,0,282.495,587.139Z" transform="translate(-254.179 -536.94)" fill="#ccc"/><path d="M254.96,537.024a.993.993,0,0,0-.523,1.024.688.688,0,0,0,.123.346l26.339,49.65a9.6,9.6,0,0,0,.984-.418c.024-.015.045-.043.062-.049Z" transform="translate(-254.427 -536.867)" fill="#e0e0e0"/></g><path d="M257.262,530.256a63.546,63.546,0,0,0-9.791,6.68,3.576,3.576,0,0,1-4.909-.316,3.49,3.49,0,0,1,.652-5.017,68.863,68.863,0,0,1,10.826-7.384l-2.826-5.3c-2.107,1.132-4.206,2.247-7.014,3.747-4.886,2.609-7.6,9.1-5.589,14.3A101.582,101.582,0,0,0,252.4,562.781c3.2,4.56,10.107,5.912,14.986,3.3,2.817-1.494,4.9-2.619,7-3.741Z" transform="translate(-237.941 -513.95)" fill="#ccc"/><path d="M259.844,521.723a3.5,3.5,0,0,1,4.539,2.24,3.582,3.582,0,0,1-2.458,4.266,64.7,64.7,0,0,0-10.83,4.333l17.13,32.086c2.049-1.093,4.106-2.195,6.84-3.652,4.892-2.609,7.6-9.1,5.589-14.3a101.046,101.046,0,0,0-13.792-25.82c-3.2-4.563-10.1-5.914-14.992-3.3-2.723,1.451-4.782,2.55-6.823,3.646l2.826,5.3A69.77,69.77,0,0,1,259.844,521.723Z" transform="translate(-231.774 -516.257)" fill="#e0e0e0"/><path d="M286.821,546.7a101.279,101.279,0,0,0-13.792-25.82c-3.2-4.563-10.1-5.914-14.992-3.3-2.723,1.451-4.782,2.55-6.823,3.646-2.107,1.132-4.206,2.247-7.014,3.747-4.886,2.609-7.6,9.1-5.589,14.3A101.584,101.584,0,0,0,252.4,565.087c3.2,4.56,10.107,5.912,14.986,3.3,2.817-1.494,4.9-2.619,7-3.741,2.049-1.093,4.106-2.195,6.84-3.652C286.125,558.387,288.831,551.9,286.821,546.7Zm-6.676,12.242L273.3,562.6l-7,3.745a9.767,9.767,0,0,1-11.99-2.6c-6.672-9.513-9.326-14.489-13.525-25.325-1.539-3.967.568-9.3,4.515-11.4l7.014-3.756,6.829-3.648a9.777,9.777,0,0,1,12,2.6,98.551,98.551,0,0,1,13.525,25.317C286.2,551.5,284.087,556.833,280.146,558.94Z" transform="translate(-237.941 -516.257)" fill="#26252e"/><path d="M267.655,533.956a10.845,10.845,0,0,0-14.577-4.492c-.03.02-.06.028-.09.049a10.832,10.832,0,1,0,10.21,19.108c.026-.009.045-.039.075-.049A10.839,10.839,0,0,0,267.655,533.956Z" transform="translate(-229.857 -505.863)" fill="#1c1c1f"/></g><path d="M262.442,529.05l-12.356-6.2-12.38-6.2a11.913,11.913,0,0,0-15.978,5.323l-23.193,46.329a11.908,11.908,0,0,0,5.322,15.97l12.39,6.205,12.362,6.184a11.9,11.9,0,0,0,15.967-5.32l23.186-46.325A11.888,11.888,0,0,0,262.442,529.05ZM258.7,544.9a6.407,6.407,0,1,1,6.411-6.409A6.4,6.4,0,0,1,258.7,544.9Z" transform="translate(-197.276 -489.029)" fill="#26252e"/><path d="M262.441,529.05l-12.356-6.2-12.38-6.2a11.913,11.913,0,0,0-15.978,5.323l-23.193,46.329a11.915,11.915,0,0,0,5.322,15.97l12.39,6.205,12.362,6.184a11.9,11.9,0,0,0,15.967-5.32l23.186-46.325A11.888,11.888,0,0,0,262.441,529.05Zm3.241,14.928L242.5,590.307a9.534,9.534,0,0,1-8.581,5.3,9.42,9.42,0,0,1-4.268-1.014l-12.362-6.19-12.393-6.2a9.6,9.6,0,0,1-4.279-12.858l23.193-46.329a9.538,9.538,0,0,1,8.583-5.3,9.433,9.433,0,0,1,4.272,1.018l12.4,6.2,12.345,6.181a9.574,9.574,0,0,1,4.281,12.857Z" transform="translate(-197.274 -489.029)" fill="#1c1c1f"/><g transform="translate(15.789 70.034)"><path d="M223.965,540.127c-.009,0-.015-.009-.024-.024a12.588,12.588,0,0,0-11.258,22.519h.015a12.579,12.579,0,0,0,11.267-22.495Z" transform="translate(-205.729 -538.776)" fill="#e0e0e0"/><path d="M218.721,542.581l-.015-.005a6.841,6.841,0,1,0-6.121,12.236l.017.005a6.841,6.841,0,0,0,6.119-12.236Z" transform="translate(-203.06 -536.105)" fill="#ff4140"/></g><path d="M248.184,501.282a26.278,26.278,0,0,0-26.273,26.273,24.049,24.049,0,0,0,.364,4.346,26.123,26.123,0,0,0,9.3,16.021,26.461,26.461,0,0,0,11.6,5.421,6.479,6.479,0,0,0,.555-2.606,5.261,5.261,0,0,0-.1-1.089,22.543,22.543,0,0,1-18.006-22.093,22.557,22.557,0,1,1,45.115,0,22.9,22.9,0,0,1-.321,3.829c.493-.256,1-.532,1.534-.814a10.51,10.51,0,0,1,2.421-.923c.065-.7.084-1.391.084-2.092A26.291,26.291,0,0,0,248.184,501.282Zm7.684,47.483a20.683,20.683,0,0,1-3.917,1.022,22.3,22.3,0,0,1-3.767.325c-.235,0-.469,0-.7-.015a10.635,10.635,0,0,1,0,3.7,5.932,5.932,0,0,0,.7.028,24.21,24.21,0,0,0,4.763-.446,22.08,22.08,0,0,0,3.973-1.063,26.266,26.266,0,0,0,15.638-14.964,54.242,54.242,0,0,0-5.628,2.72A22.419,22.419,0,0,1,255.869,548.765Z" transform="translate(-175.896 -501.282)" fill="#ccc"/></g></g></g></svg>