<svg xmlns="http://www.w3.org/2000/svg" width="436.891" height="436.891" viewBox="0 0 436.891 436.891"><g transform="translate(-231 -3179)"><g transform="translate(-385.369 3092.945)"><circle cx="152.003" cy="152.003" r="152.003" transform="translate(682.811 152.497)" fill="#d5d7db" opacity="0.204"/><circle cx="218.445" cy="218.445" r="218.445" transform="translate(616.369 86.055)" fill="#d5d7db" opacity="0.152"/></g><g transform="translate(530.113 3166.097)"><g transform="translate(-156.954 131.045)"><g transform="translate(0 20.718)"><rect width="175.253" height="112.602" fill="#38312a"/><path d="M-86.166,206.016h-66.5l18.084-24.186h30.338Z" transform="translate(209.75 -57.512)" fill="#adadad"/><path d="M-10.253,201.162H-159.8c-7.1,0-12.852-5.249-12.852-11.718V177.727H2.6v11.718C2.6,195.913-3.159,201.162-10.253,201.162Z" transform="translate(172.655 -65.126)" fill="#dbdbdb"/><rect width="66.502" height="7.608" transform="translate(57.084 148.504)"/><g transform="translate(5.137 5.14)"><rect width="79.825" height="102.322" fill="#c1d64b"/><rect width="85.147" height="102.322" transform="translate(79.825)" fill="#9fb603"/></g></g><path d="M-36.73,131.045h-80.539A28.958,28.958,0,0,0-146.228,160v6.706a28.958,28.958,0,0,0,26.36,28.83l-18.061,33.954,48.99-33.825H-36.73A28.96,28.96,0,0,0-7.768,166.709V160A28.955,28.955,0,0,0-36.73,131.045Z" transform="translate(221.699 -131.045)" fill="#38312a"/><g transform="translate(117.888 9.133)"><g transform="translate(0 18.78)"><path d="M-115.25,149.744a31.18,31.18,0,0,1-1.965-2.622l-13.011,6.337a2.043,2.043,0,0,0-.942,2.73,2.04,2.04,0,0,0,2.73.945l13.874-6.757A5.5,5.5,0,0,1-115.25,149.744Z" transform="translate(131.376 -129.121)" fill="#fff"/><path d="M-104.99,141.967a2.037,2.037,0,0,0-2.73-.94l-9.09,4.424c.148.126.317.228.454.363a7.177,7.177,0,0,1,1.819,3.079l8.6-4.19A2.044,2.044,0,0,0-104.99,141.967Z" transform="translate(158.406 -140.819)" fill="#fff"/><path d="M-120.445,148.15a9.4,9.4,0,0,1,.7-2.89l-8.69-4.232a2.038,2.038,0,0,0-2.73.94,2.047,2.047,0,0,0,.942,2.736l9.767,4.758C-120.467,149.027-120.479,148.593-120.445,148.15Z" transform="translate(131.376 -140.819)" fill="#fff"/><path d="M-103.249,153.3l-12.515-6.1c-.111.151-.211.28-.246.326q-1.114,1.512-2.248,3.007l13.22,6.44a2.039,2.039,0,0,0,2.73-.945A2.038,2.038,0,0,0-103.249,153.3Z" transform="translate(155.722 -128.965)" fill="#fff"/></g><g transform="translate(6.084)"><path d="M-109.033,172.327c-1.205.294-2.276.328-2.856-1.294-.208-.84,1.385-4.884,1.719-5.809a1.592,1.592,0,0,1,1.616-.777v-30.2c-9.881.006-17.569,6.5-18.975,16.987-.423,3.147-2.29,6.411-1.542,9.407.9,3.3,3.747,5.395,4.8,8.391l-2.545-4.212c-1.371,1.659-.077,7.323,1.948,8.556a4.833,4.833,0,0,0,.988.408c1.559,3.384,1.248,2.936,1.1,5.5a4.073,4.073,0,0,1,2.242,1.462,3.875,3.875,0,0,1,3.007-1.554,3.874,3.874,0,0,1,3,1.554,3.884,3.884,0,0,1,3.007-1.554,3.86,3.86,0,0,1,2.97,1.516v-9.256A.7.7,0,0,0-109.033,172.327Zm-10.264-8.045c-3.05-.72-3.59-3.056-2.69-5.749,1.251-3.233,4.127-2.873,7-1.793l-.534-.36c2.153,1.077,6.643,3.59,3.407,6.463C-113.191,163.922-117.861,164.459-119.3,164.282Z" transform="translate(129.245 -134.241)" fill="#fdc63a"/><path d="M-102.463,150.9c-1.405-10.487-9.636-16.658-19.526-16.658l-.011,0v30.2a4.194,4.194,0,0,1,2.585,2.2c1.1,1.754.88,3.29.22,5.263a3.76,3.76,0,0,0-1.973.077.647.647,0,0,0-.657-.56.834.834,0,0,0-.174.02v9.256l.037.037a3.869,3.869,0,0,1,3-1.554,3.869,3.869,0,0,1,3,1.554,3.888,3.888,0,0,1,3.007-1.554,3.879,3.879,0,0,1,3.007,1.554,4.086,4.086,0,0,1,2.173-1.448c-.163-2.807-.563-2.727,1.242-5.512h-.123a4.924,4.924,0,0,0,.991-.408c2.136-1.305,3.676-7.02,1.942-8.556a12.9,12.9,0,0,0,2.25-4.178C-100.712,157.644-102.043,154.049-102.463,150.9Zm-8.77,13.383c-1.439.177-6.109-.36-7.185-1.439-3.233-2.873,1.257-5.386,3.413-6.463l-.54.36c2.873-1.08,5.746-1.439,7.005,1.793C-107.646,161.228-108.18,163.564-111.233,164.284Zm4.978,4.747a16.956,16.956,0,0,1,2.542-4.21Z" transform="translate(142.692 -134.243)" fill="#fda23a"/></g></g><path d="M-112.141,184.129a3.536,3.536,0,0,1-3.536,3.533,3.533,3.533,0,0,1-3.533-3.533,3.534,3.534,0,0,1,3.533-3.536A3.536,3.536,0,0,1-112.141,184.129Z" transform="translate(271.843 -39.089)" fill="#b8b8b8"/></g><g transform="translate(-181.114 217.419)"><path d="M-162.876,237.4c-13.191-23.276-11.047-45.512-11.047-45.512a134.056,134.056,0,0,0,22.019-8.528c9.6-4.841,18.155-13.708,18.155-13.708v-8.359s-10.053,10.418-21.336,16.1a157.127,157.127,0,0,1-25.877,10.024s-2.519,26.131,12.986,53.485c14.879,26.246,34.228,32.574,34.228,32.574v-8.362S-150.216,259.729-162.876,237.4Z" transform="translate(181.114 -161.289)" fill="#fff" stroke="#fff" stroke-linecap="round" stroke-linejoin="round" stroke-width="6"/><path d="M-156.493,177.924a134.056,134.056,0,0,1-22.019,8.528s-2.145,22.236,11.047,45.512c12.66,22.333,29.127,27.719,29.127,27.719V164.216S-146.892,173.084-156.493,177.924Z" transform="translate(185.703 -155.857)" fill="#fff" stroke="#fff" stroke-linecap="round" stroke-linejoin="round" stroke-width="6"/><path d="M-153.1,179.281l2.219-6.52a102.027,102.027,0,0,1-13.648-11.472v8.359A86.811,86.811,0,0,0-153.1,179.281Z" transform="translate(211.894 -161.289)" fill="#fff" stroke="#fff" stroke-linecap="round" stroke-linejoin="round" stroke-width="6"/><path d="M-117.318,176.949a157.088,157.088,0,0,1-25.866-10.019l-2.707,6.2a134.353,134.353,0,0,0,21.533,8.288s2.145,22.236-11.047,45.512c-12.66,22.333-29.124,27.719-29.124,27.719v8.362s19.346-6.329,34.225-32.574C-114.8,203.08-117.318,176.949-117.318,176.949Z" transform="translate(211.894 -150.82)" fill="#fff" stroke="#fff" stroke-linecap="round" stroke-linejoin="round" stroke-width="6"/><path d="M-135.4,231.964c13.191-23.276,11.047-45.512,11.047-45.512a134.353,134.353,0,0,1-21.533-8.288l-3.061,7.011,13.728,1.628-19.863,25.146,7.734-19.2h-12.175l6.429-18.9a86.811,86.811,0,0,1-11.429-9.633v95.467S-148.065,254.3-135.4,231.964Z" transform="translate(211.894 -155.857)" fill="#fff" stroke="#fff" stroke-linecap="round" stroke-linejoin="round" stroke-width="6"/></g><g transform="translate(-181.114 217.419)"><g transform="translate(0 1.045)"><path d="M-162.876,237.762c-13.191-23.273-11.047-45.512-11.047-45.512a134.056,134.056,0,0,0,22.019-8.528c9.6-4.838,18.155-13.706,18.155-13.706v-8.362s-10.053,10.418-21.336,16.1a157.238,157.238,0,0,1-25.877,10.024s-2.519,26.131,12.986,53.485c14.876,26.246,34.228,32.577,34.228,32.577v-8.365S-150.216,260.095-162.876,237.762Z" transform="translate(181.114 -161.655)" fill="#fdc63a"/><path d="M-156.493,178.288a134.056,134.056,0,0,1-22.019,8.528s-2.145,22.239,11.047,45.512c12.66,22.333,29.127,27.719,29.127,27.719V164.583S-146.892,173.451-156.493,178.288Z" transform="translate(185.703 -156.221)" fill="#ff002f"/><path d="M-153.1,179.65l2.219-6.523a101.781,101.781,0,0,1-13.648-11.472v8.362A87.062,87.062,0,0,0-153.1,179.65Z" transform="translate(211.894 -161.655)" fill="#fda23a"/><path d="M-117.318,177.314A157.094,157.094,0,0,1-143.184,167.3l-2.707,6.2a134.346,134.346,0,0,0,21.533,8.288s2.145,22.239-11.047,45.512c-12.66,22.333-29.124,27.719-29.124,27.719v8.365s19.346-6.332,34.225-32.577C-114.8,203.446-117.318,177.314-117.318,177.314Z" transform="translate(211.894 -151.186)" fill="#fda23a"/><path d="M-135.4,232.328c13.191-23.273,11.047-45.512,11.047-45.512a134.346,134.346,0,0,1-21.533-8.288l-3.061,7.011,13.728,1.628-19.863,25.146,7.734-19.195h-12.175l6.429-18.9a87.062,87.062,0,0,1-11.429-9.633v95.464S-148.065,254.661-135.4,232.328Z" transform="translate(211.894 -156.221)" fill="#b90020"/></g><g transform="translate(59.968)"><path d="M-159.071,168.92a1.044,1.044,0,0,1-1.045-1.045v-5.54a1.044,1.044,0,0,1,1.045-1.045,1.044,1.044,0,0,1,1.045,1.045v5.54A1.044,1.044,0,0,1-159.071,168.92Z" transform="translate(160.116 -161.289)" fill="#0f303f"/></g><g transform="translate(67.692 1.675)"><path d="M-156.828,168.837a1.042,1.042,0,0,1-.477-1.4l2.433-4.978a1.042,1.042,0,0,1,1.4-.48,1.047,1.047,0,0,1,.48,1.4l-2.433,4.978A1.041,1.041,0,0,1-156.828,168.837Z" transform="translate(157.411 -161.876)" fill="#0f303f"/></g><g transform="translate(71.24 10.479)"><path d="M-156.1,168.339a1.041,1.041,0,0,1,.605-1.345l5.183-1.968a1.042,1.042,0,0,1,1.345.605,1.044,1.044,0,0,1-.6,1.351l-5.181,1.962A1.044,1.044,0,0,1-156.1,168.339Z" transform="translate(156.169 -164.958)" fill="#0f303f"/></g><path d="M-162.322,186.7a4.07,4.07,0,0,1,4.064-4.067h1.928a4.07,4.07,0,0,1,4.064,4.067v2.265h3.418V186.7a7.494,7.494,0,0,0-7.482-7.485h-1.928a7.494,7.494,0,0,0-7.482,7.485v6.8h-2.687V210.02h22.267V193.5h-16.161Z" transform="translate(204.658 -128.024)" fill="#fff"/><g transform="translate(56.786 19.263)"><path d="M-158.208,208.608a3.066,3.066,0,0,1-2.593-1.454,3.061,3.061,0,0,1,1.025-4.17l33.571-20.143,3.847-7.257,12.592-7.551-2.493,9.973,9.976,2.5-12.595,7.551-8.211-.02-33.565,20.143A3.15,3.15,0,0,1-158.208,208.608Z" transform="translate(161.23 -168.034)" fill="#fff"/><path d="M-107.909,178.8l-7.588-1.9,1.9-7.582-8.571,5.141-3.847,7.254L-160,202.1a1.291,1.291,0,0,0-.443,1.765,1.31,1.31,0,0,0,1.111.628,1.324,1.324,0,0,0,.657-.186l33.979-20.391,8.214.02Z" transform="translate(162.354 -165.658)" fill="#38312a"/></g></g></g></g></svg>