<svg width="20" height="20" viewBox="0 0 20 20" fill="none" xmlns="http://www.w3.org/2000/svg">
<g clip-path="url(#clip0_1370_57630)">
<path d="M10 2C8.41775 2 6.87103 2.46919 5.55544 3.34824C4.23985 4.22729 3.21447 5.47672 2.60897 6.93853C2.00347 8.40034 1.84504 10.0089 2.15372 11.5607C2.4624 13.1126 3.22433 14.538 4.34315 15.6569C5.46197 16.7757 6.88743 17.5376 8.43928 17.8463C9.99113 18.155 11.5997 17.9965 13.0615 17.391C14.5233 16.7855 15.7727 15.7602 16.6518 14.4446C17.5308 13.129 18 11.5823 18 10C18 7.87827 17.1571 5.84344 15.6569 4.34315C14.1566 2.84285 12.1217 2 10 2V2ZM13.6063 9.10842C12.8926 9.18737 12.2811 8.90526 11.6695 8.54526C11.6695 8.60421 11.6874 10.4316 11.6568 11.3032C11.6263 12.1989 11.3063 12.9874 10.6042 13.5758C9.11579 14.8253 7.00316 14.1505 6.49895 12.24C6.22527 11.1989 6.46316 10.2611 7.28 9.51895C7.74 9.0979 8.30737 8.91053 8.91579 8.83263C9.04632 8.81579 9.1779 8.80842 9.31895 8.79579V10.2105C9.14 10.2547 8.95895 10.2937 8.78106 10.3463C8.65764 10.382 8.53726 10.4274 8.42106 10.4821C8.25894 10.555 8.11578 10.6643 8.00268 10.8014C7.88958 10.9385 7.80957 11.0999 7.76886 11.2729C7.72815 11.446 7.72782 11.626 7.7679 11.7992C7.80798 11.9724 7.8874 12.134 8 12.2716C8.13541 12.4588 8.31957 12.6053 8.53245 12.6951C8.74533 12.785 8.97877 12.8147 9.20737 12.7811C9.66737 12.7253 9.95579 12.4358 10.1263 12.02C10.2442 11.6909 10.2954 11.3417 10.2768 10.9926C10.2705 9.27474 10.2705 7.5579 10.2674 5.84C10.2688 5.82233 10.2713 5.80476 10.2747 5.78737H11.6484C11.8021 6.93684 12.3853 7.66526 13.6063 7.76842V9.10842Z" fill="#5A78A6"/>
</g>
<defs>
<clipPath id="clip0_1370_57630">
<rect width="16" height="16" fill="white" transform="translate(2 2)"/>
</clipPath>
</defs>
</svg>
