<svg xmlns="http://www.w3.org/2000/svg" width="36.944" height="40" viewBox="0 0 36.944 40">
    <defs>
        <style>
            .cls-1{fill:#87AB49}
        </style>
    </defs>
    <g id="_002-download" data-name="002-download" transform="translate(-18.3)">
        <g id="Group_2776" data-name="Group 2776" transform="translate(18.3)">
            <path id="Path_30610" d="M154.757 16.434a1.124 1.124 0 0 0 0 1.595l5.979 5.979a1.135 1.135 0 0 0 .793.334 1.1 1.1 0 0 0 .793-.334l5.979-5.979a1.128 1.128 0 1 0-1.595-1.595l-4.05 4.05V1.127a1.127 1.127 0 0 0-2.255 0v19.357l-4.05-4.05a1.124 1.124 0 0 0-1.594 0z" class="cls-1" data-name="Path 30610" transform="translate(-143.058)"/>
            <path id="Path_30611" d="M55.2 141.7l-3.925-14.2a1.143 1.143 0 0 0-.618-.727l-.109-.05a1.149 1.149 0 0 0-.468-.1h-7.07a1.127 1.127 0 1 0 0 2.255h6.313l3.315 12.008H43.87a1.123 1.123 0 0 0-1.127 1.127v1.019a2.705 2.705 0 0 1-2.706 2.706h-6.881a2.705 2.705 0 0 1-2.706-2.706v-1.019a1.123 1.123 0 0 0-1.127-1.127H20.9l3.332-12.033h6.313a1.127 1.127 0 1 0 0-2.255h-7.084a1.149 1.149 0 0 0-.468.1l-.109.05a1.119 1.119 0 0 0-.618.727l-3.925 14.2a1.242 1.242 0 0 0-.042.3v5.921a8.144 8.144 0 0 0 8.134 8.134H47.11a8.144 8.144 0 0 0 8.134-8.134V142a.874.874 0 0 0-.044-.3zm-2.213 6.2a5.888 5.888 0 0 1-5.879 5.879H26.434a5.888 5.888 0 0 1-5.879-5.879v-4.752h7.658a4.965 4.965 0 0 0 4.96 4.843h6.881a4.965 4.965 0 0 0 4.96-4.843h7.992v4.752z" class="cls-1" data-name="Path 30611" transform="translate(-18.3 -116.028)"/>
        </g>
    </g>
</svg>
