<svg xmlns="http://www.w3.org/2000/svg" width="436.891" height="464.504" viewBox="0 0 436.891 464.504"><g transform="translate(-178 -3160)"><g transform="translate(-438.369 3073.945)"><circle cx="152.003" cy="152.003" r="152.003" transform="translate(682.811 152.497)" fill="#d5d7db" opacity="0.204"/><circle cx="218.445" cy="218.445" r="218.445" transform="translate(616.369 86.055)" fill="#d5d7db" opacity="0.152"/></g><g transform="translate(-76.135 3139.955)"><g transform="translate(316.857 45.494)"><g transform="translate(80.525)"><g transform="translate(8.998 6.88)"><path d="M395.546,114.908c-.379-2.59.93-13.4.93-13.4s9.917-.808,10.756-10.6.784-32.431.784-32.431l-17.8-9.245L370.031,63.765l-4.543,10.769,6.279,25.483.077,12.866Z" transform="translate(-365.488 -49.231)" fill="#f6ba99"/><g transform="translate(36.453 22.762)"><path d="M388.451,63.772a1.256,1.256,0,1,1-1.226-1.287A1.257,1.257,0,0,1,388.451,63.772Z" transform="translate(-384.744 -60.848)" fill="#00143a"/><path d="M390.247,63.181c-.167.156-1.075-.654-2.424-.758-1.349-.125-2.38.521-2.518.337-.068-.083.109-.377.56-.672a3.338,3.338,0,0,1,3.945.335C390.2,62.791,390.326,63.109,390.247,63.181Z" transform="translate(-385.29 -61.596)" fill="#00143a"/></g><g transform="translate(21.471 22.399)"><path d="M380.027,62.53a1.256,1.256,0,1,1-1.753.285A1.257,1.257,0,0,1,380.027,62.53Z" transform="translate(-376.407 -60.646)" fill="#00143a"/><path d="M382.1,62.983c-.166.158-1.073-.652-2.423-.757-1.349-.125-2.38.519-2.516.335-.068-.083.107-.377.558-.67a3.338,3.338,0,0,1,3.945.335C382.064,62.592,382.185,62.913,382.1,62.983Z" transform="translate(-377.151 -61.398)" fill="#00143a"/></g><path d="M382.341,73.913c0-.085.35-.168.963-.247l1.11-.109a1.985,1.985,0,0,0,1.055-.493c-.037.133-.077.272-.118.416-.379-1.116-.806-2.461-1.237-3.912-1.195-4.041-1.959-7.375-1.706-7.45s1.43,3.137,2.625,7.178c.431,1.451.8,2.811,1.093,3.954l.068.274-.186.142a3.135,3.135,0,0,1-.779.418,2.676,2.676,0,0,1-.4.12,1.659,1.659,0,0,1-.407.011c-.361-.028-.729-.053-1.112-.081C382.694,74.073,382.343,74,382.341,73.913Z" transform="translate(-351.317 -38.395)" fill="#00143a"/><g transform="translate(17.397 31.875)" opacity="0.33"><path d="M382.669,68.713c-.063,1.119-1.8,1.878-3.888,1.876s-3.807-.775-3.842-1.894,1.708-2.156,3.893-2.148S382.732,67.6,382.669,68.713Z" transform="translate(-374.939 -66.546)" fill="#f2957e"/></g><path d="M380,69.24c-1.346-.943,3.722,2.342,6.48,2.408a3.741,3.741,0,0,1-4.512,1.163C379.114,71.52,380,69.24,380,69.24Z" transform="translate(-353.472 -32.549)" fill="#f3f0eb"/><path d="M388.209,79.778a24.49,24.49,0,0,1-12.89-4.705s2.771,7.273,12.617,7.108Z" transform="translate(-357.221 -27.501)" fill="#f2957e"/></g><path d="M392.454,64.286c16.789,6.053,24.1-1.8,27.274-12.017s-37.377-6.329-43.511-4.534-6.863,9.4-6.863,9.4l-5.21-4.91a15.794,15.794,0,0,0-3.24,2.575c-2.327,2.159,9.388,7.312,9.388,7.312h0a7.877,7.877,0,0,0-5.58,6.1c-1.2,6.8,3.566,16.211,5.6,20.678a80.532,80.532,0,0,1,4.409,14.607c1.482,2.7,1.9-5.848,1.9-5.848s1.189-8.223.028-11.415c0,0-4.987,1.655-6.183-7.3-.591-4.427,6.086-6.605,7.951-1.255l4.179.352S382.943,60.856,392.454,64.286Z" transform="translate(-360.6 -45.494)" fill="#fcd588"/><path d="M371.774,68.445c.1,0,.026.4-.433.644a3.63,3.63,0,0,1-1.951.4l-.123-.006-.123-.131a7.871,7.871,0,0,1-1.526-2.515,6.033,6.033,0,0,1-.445-2.176,2.864,2.864,0,0,1,.63-1.808c0-.046.359-.348.51-.287a1.43,1.43,0,0,1,.372.053c.121.035.249.07.383.107.042.129.07-.225.125-.2.031-.009.074.018.121.077a.309.309,0,0,1-.11.466,1.427,1.427,0,0,1-.589.077.872.872,0,0,0-.239.022c-.006.006-.029.006-.02.011a.665.665,0,0,0-.04-.088l-.007-.013-.005-.006,0,0,0,0h0a1.3,1.3,0,1,1,.12.068l-.022.039-.046.075a3.8,3.8,0,0,0,.166,3.236,10.142,10.142,0,0,0,1.248,2.327c-.083-.048-.167-.094-.247-.138a4.761,4.761,0,0,0,1.649-.037C371.559,68.578,371.684,68.425,371.774,68.445Z" transform="translate(-355.074 -31.164)" fill="#f2957e"/></g><g transform="translate(0 57.292)"><path d="M381.223,154.879s8.632,51.439,6.806,80.449-16.22,41.182-26.065,53.963-44.534,45.646-44.534,45.646l22.348,24.079s70.984-61.728,82.942-86.766,0-65.732,0-65.732Z" transform="translate(-316.375 -10.808)" fill="#182933"/><path d="M363.426,132.812c-.714-.156-14.8,20.631-11.546,37.913.326,1.738,3.858,11.747,3.858,11.747,13.917,30.059,31.424,91.318,32.059,99.826,1.839,24.671,11.18,122.024,11.18,122.024l31.3-4.247L426.73,277.815l-7.818-109.171Z" transform="translate(-287.818 -29.364)" fill="#1f3443"/><path d="M396.128,384.216c-.7-.009-1.011-13.138-1.312-34.327-.3-10.581-.225-23.221-.97-37.138q-.207-5.227-.423-10.7-.1-2.736-.208-5.528-.229-2.8-.464-5.648c-.607-7.6-1.237-15.476-1.881-23.539-1.717-15.883-4.2-31.107-7.017-44.722-1.576-6.784-2.938-13.267-4.692-19.211-.841-2.979-1.543-5.894-2.406-8.636q-1.32-4.106-2.529-7.873c-1.5-5.072-3.312-9.455-4.72-13.4-.735-1.961-1.362-3.805-2.021-5.48l-1.911-4.552c-2.264-5.488-3.374-8.589-3.074-8.731s1.979,2.691,4.762,7.936q1.036,1.98,2.29,4.376c.788,1.627,1.55,3.45,2.411,5.388,1.668,3.9,3.742,8.295,5.46,13.337q1.364,3.766,2.855,7.875c.968,2.747,1.767,5.67,2.7,8.663,1.942,5.975,3.47,12.5,5.182,19.348a404.808,404.808,0,0,1,7.487,45.3c.611,8.065,1.206,15.94,1.784,23.547q.207,2.852.411,5.653.077,2.822.147,5.587.138,5.531.269,10.817c.508,14.1.079,26.72-.052,37.342-.208,10.614-.69,19.187-1.024,25.117C396.818,380.949,396.457,384.222,396.128,384.216Z" transform="translate(-278.52 -10.935)" fill="#182933"/><g transform="translate(104.985 156.315)"><path d="M385.952,161.552c.366.236-1.419,3.395-4.922,6.055-3.487,2.68-7,3.571-7.135,3.157-.175-.449,2.866-1.962,6.126-4.479C383.3,163.8,385.565,161.265,385.952,161.552Z" transform="translate(-373.887 -161.53)" fill="#182933"/></g><g transform="translate(98.684 214.543)"><path d="M370.657,193.52s-.681,10.254.519,9.976c3.395-.782,25.8-2.745,25.8-2.745l-3.807-7.59Z" transform="translate(-370.464 -193.161)" fill="#182933"/><path d="M372.7,199.155s-.514,16.68,4.617,17.173,16.752-1.808,16.752-1.808l-1.9-17.127Z" transform="translate(-368.595 -189.602)" fill="#182933"/></g><path d="M408.32,90.122s-47.4-14.839-49.613-13.409-15.809,23.723-3.19,25.573,36.3-12.779,36.3-12.779Z" transform="translate(-288.804 -76.616)" fill="#d26647"/><path d="M401.118,278.462s21.382,2.375,16.8,4.455-39.273,3.553-39.273,3.553l-.773-5.294Z" transform="translate(-265.551 93.109)" fill="#0f356d"/><path d="M337.383,271.352s12.229,17.7,7.656,15.6-28.182-27.685-28.182-27.685l4.794-4.932Z" transform="translate(-316.857 72.825)" fill="#0f356d"/><path d="M378.352,147.713c.609.112,1.02,1.589.41,3.866a14.044,14.044,0,0,1-13.983,9.7c-2.476-.232-3.5-1.125-3.476-1.74.017-.69,1.526-1.027,3.144-1.635a23.171,23.171,0,0,0,11.272-7.818C376.9,148.659,377.673,147.573,378.352,147.713Z" transform="translate(-279.483 -16.844)" fill="#6a401b"/><path d="M375.549,86.959A21.165,21.165,0,0,0,356.309,96.8c-7.455,11.3-7.027,120.31-7.027,120.31l68.966-5.493s5.114-117.679-2.614-123.778S390.819,81.728,375.549,86.959Z" transform="translate(-289.596 -71.128)" fill="#d26647"/><path d="M385.37,141.573c1.219,1.5,1.487,3.527,1.961,5.4s1.381,3.882,3.187,4.576c.663.256,1.476.363,1.841.974.6,1.007-.652,2.156-1.8,2.4s-2.511.232-3.223,1.162a13.18,13.18,0,0,1,7.36,1.9c.7.427,1.438,1.086,1.335,1.9-.107.849-1.049,1.294-1.87,1.539a24.994,24.994,0,0,1-8.468,1.016" transform="translate(-259.247 -21.996)" fill="#d26647"/><path d="M372.695,199.155l.227,4.254,19.677-2.128-.431-3.888Z" transform="translate(-269.905 24.941)" fill="#101b21"/><path d="M348.8,172.249l71.306-46.616v10.614s-44.821,51.428-70.437,39.63Z" transform="translate(-289.993 -35.4)" fill="#a5422b" opacity="0.4"/><path d="M370.926,98.233s-16.141,60.61-11.148,62.148,39.851-26.5,39.851-26.5-28.557,17.985-30.251,1.7c-1.872-18.005,2.54-39.212,2.54-39.212" transform="translate(-281.572 -60.001)" fill="#a5422b" opacity="0.4"/></g><path d="M380.764,81.649c.208.641-7.085,2.609-15.073,6.8-7.824,4.479-13.405,9.58-13.836,9.061-.171-.2,1.088-1.6,3.273-3.687a53.153,53.153,0,0,1,9.641-7.054C373.146,82.387,380.683,81.281,380.764,81.649Z" transform="translate(-287.441 -15.147)" fill="#a5422b" opacity="0.4"/><path d="M382.2,126.98c-.228.075-1.2-2.134-2.343-5.863A75.129,75.129,0,0,1,377.487,90.9c.549-3.846,1.16-6.165,1.4-6.139.287.029.149,2.441-.053,6.287a138.84,138.84,0,0,0,.212,14.942,137.9,137.9,0,0,0,2.126,14.8C381.964,124.547,382.472,126.892,382.2,126.98Z" transform="translate(-266.349 -12.476)" fill="#a5422b" opacity="0.4"/><path d="M389.109,121.075c-.387.2-4.449-7.271-7.6-17.243-2.988-10.1-3.777-18.449-3.356-18.547.606-.14,2.277,8.179,5.188,17.985C386.441,113.082,389.672,120.808,389.109,121.075Z" transform="translate(-265.406 -12.036)" fill="#a5422b" opacity="0.4"/><path d="M380.981,85.223c.037.526-.884,1.025-2.058,1.11s-2.158-.274-2.2-.8.884-1.027,2.056-1.112S380.942,84.695,380.981,85.223Z" transform="translate(-266.516 -12.772)" fill="#a5422b" opacity="0.4"/><path d="M388.155,103.938c.168.5-1.154,1.4-2.951,2s-3.393.677-3.56.175,1.154-1.4,2.953-2S387.987,103.436,388.155,103.938Z" transform="translate(-262.392 3.372)" fill="#ffcaa6"/><path d="M389.512,105.318c.21.484-1.314,1.616-3.407,2.526s-3.962,1.254-4.173.768,1.314-1.616,3.409-2.526S389.3,104.832,389.512,105.318Z" transform="translate(-262.155 4.625)" fill="#ffcaa6"/></g><path d="M490.486,97.28s22.407-1.526,24.375,15.487S526,227.238,510.627,228.85s-26.5-3.717-27.475-4.779S490.486,97.28,490.486,97.28Z" transform="translate(139.765 43.516)" fill="#00143a"/><path d="M452.281,236.289l-17.639-4.267L458.119,90.367l3.975,10.906,1.72,102.538Z" transform="translate(99.041 37.732)" fill="#77483c"/><path d="M455.571,280.31s-20.909,3.378-16.3,5.2,38.791,1.581,38.791,1.581l.5-5.245Z" transform="translate(102.373 197.449)" fill="#0f356d"/><path d="M458.821,156.115s-26.711,81.309-24.741,114.058,24.844,114.06,24.844,114.06Z" transform="translate(98.481 93.018)" fill="#0f356d"/><g transform="translate(547.258 211.195)"><path d="M501.365,135.508c.694-.19,15.563,19.563,13.2,36.716-.239,1.723-3.223,11.739-3.223,11.739-12.22,30.233-26.448,91.322-26.658,99.72-.608,24.349-5.044,120.529-5.044,120.529l-30.987-2.649-2.469-120.391,2.365-107.727Z" transform="translate(-438.509 -135.506)" fill="#154593"/><path d="M458.983,280.31s-20.909,3.378-16.3,5.2,38.791,1.581,38.791,1.581l.5-5.245Z" transform="translate(-442.016 -13.746)" fill="#00143a"/><g transform="translate(24.643 53.999)"><path d="M455.443,164.866c-.348.25,1.561,3.268,5.134,5.712,3.56,2.467,7.06,3.172,7.172,2.758.149-.449-2.914-1.789-6.244-4.105C458.157,166.948,455.81,164.564,455.443,164.866Z" transform="translate(-455.403 -164.84)" fill="#0f356d"/></g><g transform="translate(31.72 71.338)"><path d="M459.271,370.063a9.076,9.076,0,0,0,.447-1.961c.223-1.294.607-3.2.928-5.677.733-4.943,1.491-12.144,1.977-21.067s.608-19.57.381-31.374-.773-24.763-1.167-38.358c-.377-13.6-.434-26.553.144-38.31a253.278,253.278,0,0,1,3.258-31.063,191.456,191.456,0,0,1,4.659-20.542c.633-2.41,1.289-4.232,1.633-5.5a9.119,9.119,0,0,0,.486-1.951,9.47,9.47,0,0,0-.8,1.845c-.444,1.235-1.2,3.03-1.929,5.421a161.34,161.34,0,0,0-5.187,20.522,236.1,236.1,0,0,0-3.625,31.192c-.665,11.807-.654,24.813-.274,38.434s1,26.566,1.294,38.345.318,22.39-.029,31.289-.915,16.087-1.452,21.041c-.223,2.483-.506,4.4-.62,5.709A9.239,9.239,0,0,0,459.271,370.063Z" transform="translate(-459.247 -174.259)" fill="#0f356d"/></g><g transform="translate(19.883 110.726)"><path d="M478.342,195.655s1.169,10.049-.026,9.836c-3.374-.606-25.5-1.443-25.5-1.443l3.372-7.647Z" transform="translate(-452.817 -195.655)" fill="#0f356d"/><path d="M474.091,201.026s1.316,16.376-3.7,17.113-16.56-.961-16.56-.961l1.029-16.934Z" transform="translate(-451.966 -191.796)" fill="#0f356d"/><path d="M473.7,201.028l-19.234-.784-.167,2.734,19.527.626Z" transform="translate(-451.572 -191.797)" fill="#443327" opacity="0.44"/></g></g><path d="M460.081,113.77c.414-2.412-.567-12.538-.567-12.538s-9.243-.978-9.8-10.147,0-30.31,0-30.31l16.838-8.232,18.523,14.033-2.805,45.839Z" transform="translate(111.502 5.927)" fill="#f6ba99"/><path d="M484.285,76.458s-15.121-1.425-17.794-15.15l-16.409,15.15S445.1,66.3,454.192,56.853s15.329-7.485,18.893-7.485c3.323,0,20.128,3.564,25.13,22.683.363,1.386.573,2.555.543,6.947Z" transform="translate(110.88 3.116)" fill="#00143a"/><g transform="translate(561.894 79.414)"><path d="M450.595,65.923a1.174,1.174,0,1,0,1.174-1.174A1.173,1.173,0,0,0,450.595,65.923Z" transform="translate(-449.439 -63.223)" fill="#00143a"/><path d="M449.987,65.341c.151.151,1.02-.585,2.281-.654,1.263-.087,2.211.539,2.345.372.064-.075-.094-.355-.51-.641a3.117,3.117,0,0,0-3.691.226C450.035,64.977,449.914,65.273,449.987,65.341Z" transform="translate(-449.967 -63.92)" fill="#00143a"/></g><g transform="translate(575.898 79.414)"><path d="M457.982,65.923a1.173,1.173,0,1,0,1.174-1.174A1.173,1.173,0,0,0,457.982,65.923Z" transform="translate(-457.231 -63.223)" fill="#00143a"/><path d="M457.594,65.341c.151.151,1.02-.585,2.283-.654,1.261-.087,2.211.539,2.343.372.064-.075-.094-.355-.506-.641a3.119,3.119,0,0,0-3.693.226C457.644,64.977,457.521,65.273,457.594,65.341Z" transform="translate(-457.574 -63.92)" fill="#00143a"/></g><path d="M456.764,75.522c0,.085-.333.153-.909.2-.363.02-.707.039-1.044.055a1.455,1.455,0,0,1-.383-.017,2.424,2.424,0,0,1-.376-.12,2.918,2.918,0,0,1-.725-.407l-.184-.145.075-.274c.291-1.064.67-2.327,1.106-3.674,1.208-3.746,2.391-6.717,2.643-6.636s-.523,3.183-1.732,6.931c-.434,1.348-.865,2.594-1.25,3.627-.035-.142-.074-.285-.109-.418a1.861,1.861,0,0,0,.959.479c.335.042.677.088,1.033.134C456.444,75.345,456.768,75.437,456.764,75.522Z" transform="translate(114.598 15.983)" fill="#00143a"/><g transform="translate(577.427 90.19)" opacity="0.33"><path d="M458.405,71.712c.031,1.046,1.638,1.795,3.59,1.841s3.573-.639,3.63-1.683-1.546-2.053-3.588-2.095S458.37,70.674,458.405,71.712Z" transform="translate(-458.405 -69.774)" fill="#f2957e"/></g><path d="M460.165,71.208c1.279-.849-3.531,2.1-6.106,2.1a3.5,3.5,0,0,0,4.186,1.189C460.942,73.36,460.165,71.208,460.165,71.208Z" transform="translate(115.368 21.493)" fill="#f3f0eb"/><path d="M454.922,80.865a22.88,22.88,0,0,0,12.148-4.1s-2.752,6.73-11.945,6.351Z" transform="translate(116.094 26.294)" fill="#f2957e"/><path d="M466.31,55.376s-3.36,6.493-1.924,11.38l-14.7,3.792S446.334,51.917,466.31,55.376Z" transform="translate(111.514 7.949)" fill="#00143a"/><path d="M467.156,89.323s24-12.356,26.179-10.948,15.566,23.355,3.142,25.178-29.091-12.765-29.091-12.765Z" transform="translate(126.381 27.555)" fill="#986251"/><path d="M466.213,148.267c.679-.14,1.452.926,2.616,2.325a23.04,23.04,0,0,0,11.076,7.682c1.585.6,3.076.946,3.093,1.637.02.613-.979,1.5-3.426,1.736a13.8,13.8,0,0,1-13.784-9.563C465.191,149.835,465.6,148.379,466.213,148.267Z" transform="translate(124.986 86.408)" fill="#6a401b"/><path d="M492.742,88.454a20.839,20.839,0,0,1,18.943,9.688c7.339,11.121,6.918,118.443,6.918,118.443l-67.9-5.408s-5.033-115.853,2.573-121.858S477.707,83.3,492.742,88.454Z" transform="translate(111.174 32.965)" fill="#e5dfc9"/><path d="M514.679,123.209c.372,3.341,2.756,125.727,2.756,125.727h-57L472.807,84.343S509.8,79.531,514.679,123.209Z" transform="translate(120.731 32.535)" fill="#986251"/><path d="M515.047,168.013l-.363-17.483-51.075-11.977-1.165,15.493S504.184,192.76,515.047,168.013Z" transform="translate(122.419 78.251)" fill="#020e23" opacity="0.28"/><path d="M467.156,148.824s10.714,11.279,16.078,9.07-10.022-60.649-10.022-60.649S483.251,142.024,467.156,148.824Z" transform="translate(126.381 43.516)" fill="#020e23" opacity="0.28"/><path d="M491.225,162.737l-21.558-8.079v8.079l21.558,6.87Z" transform="translate(128.492 91.793)" fill="#77483c"/><g transform="translate(589.306 119.3)"><path d="M464.892,247.758a9.448,9.448,0,0,0,.2-1.64c.085-1.11.2-2.693.359-4.72.265-4.131.646-10.059,1.117-17.369.893-14.668,2.054-34.936,3.269-57.323s2.255-42.671,2.953-57.35c.324-7.319.587-13.252.77-17.387.072-2.027.125-3.614.162-4.724a9.564,9.564,0,0,0-.011-1.659,9.248,9.248,0,0,0-.206,1.633c-.1,1.082-.226,2.678-.368,4.726-.265,4.131-.646,10.055-1.116,17.367-.895,14.668-2.056,34.938-3.271,57.334s-2.253,42.662-2.953,57.341c-.324,7.319-.587,13.252-.77,17.387-.066,2.03-.12,3.619-.155,4.731A9.372,9.372,0,0,0,464.892,247.758Z" transform="translate(-464.857 -85.587)" fill="#77483c"/></g><path d="M462.743,160.752a1.371,1.371,0,1,0,1.371-1.37A1.371,1.371,0,0,0,462.743,160.752Z" transform="translate(122.67 95.765)" fill="#77483c"/><path d="M463.488,146.1a1.37,1.37,0,1,0,1.37-1.37A1.371,1.371,0,0,0,463.488,146.1Z" transform="translate(123.297 83.441)" fill="#77483c"/><path d="M465.142,119.808a1.371,1.371,0,1,0,1.37-1.371A1.369,1.369,0,0,0,465.142,119.808Z" transform="translate(124.688 61.335)" fill="#77483c"/><path d="M465.886,105.563a1.371,1.371,0,1,0,1.372-1.371A1.373,1.373,0,0,0,465.886,105.563Z" transform="translate(125.313 49.357)" fill="#77483c"/><path d="M456.112,142.222c-1.2,1.478-1.467,3.472-1.933,5.318s-1.357,3.822-3.133,4.5c-.654.25-1.456.357-1.813.959-.593.99.639,2.121,1.767,2.364s2.47.226,3.172,1.141a12.958,12.958,0,0,0-7.244,1.87c-.688.42-1.416,1.068-1.314,1.868.1.838,1.033,1.274,1.841,1.517a24.651,24.651,0,0,0,8.337,1" transform="translate(108.259 81.335)" fill="#e5dfc9"/><path d="M472.392,158.813l-23.32-1.869,1.632-3.54,21.963,1.749Z" transform="translate(111.175 90.738)" fill="#604835"/><g transform="translate(595.348 115.053)"><path d="M468.14,83.707c-.07.816,7.739,1.605,16.154,5.863,8.472,4.142,13.81,9.895,14.419,9.346.263-.226-.733-1.99-2.969-4.348a34.287,34.287,0,0,0-4.275-3.772,39.074,39.074,0,0,0-12.483-6.211,34.473,34.473,0,0,0-5.587-1.134C470.169,83.09,468.16,83.361,468.14,83.707Z" transform="translate(-468.14 -83.28)" fill="#77483c"/></g><path d="M484.883,67.34a48.12,48.12,0,0,1-19.463,38.945,410.029,410.029,0,0,1,.952-41.847,5.227,5.227,0,0,1,.466-2.135c1.058-1.975,3.938-1.822,6.06-1.1,4.571,1.546,9.013,2.342,11.986,6.141" transform="translate(124.782 12.794)" fill="#00143a"/><path d="M476.031,77.817c-3.882,1.578-7.236,6.546-8.9,10.39-.843,1.942-1.309,4.061-2.419,5.863-1.023,1.668-2.542,2.975-3.641,4.593a11.111,11.111,0,0,0-1.869,7.03,14.843,14.843,0,0,1,.2,4.066,13.16,13.16,0,0,1-2.064,3.943,18.5,18.5,0,0,0-2.22,10.752,41.676,41.676,0,0,0,1.946,9.482c2.84-3.249,5.657-5.346,7.837-9.074,2.283-3.906,4.173-8.838,1.992-12.8a19.385,19.385,0,0,0,5.226-16.573c3.783-1.78,5.125-6.393,6.055-10.471a10.726,10.726,0,0,0,.387-4.153,3.651,3.651,0,0,0-2.524-3.048" transform="translate(116.209 27.179)" fill="#00143a"/><path d="M461.071,108.343q-.221,2.308-.444,4.622a4.055,4.055,0,0,0,.353,2.66c.25.372.646.738.556,1.176a1.033,1.033,0,0,1-.8.668,3.455,3.455,0,0,1-3.9-1.712c.044.839.015,1.835-.683,2.3a1.872,1.872,0,0,1-1.268.225,3.932,3.932,0,0,1-3.3-3.05,5.625,5.625,0,0,1,.764-3.706A7.565,7.565,0,0,1,456.119,108a4.978,4.978,0,0,1,4.976.716" transform="translate(113.218 52.259)" fill="#00143a"/><path d="M460.654,107.385l-5.048-1.545-.775,4.137,2.91,1.084Z" transform="translate(116.018 50.743)" fill="#154593"/><path d="M496.9,93.326s-25.062-7.824-23.1,10.1,9.5,63.425,9.5,63.425l-7.205-2.469s-22.683-88.743,2.68-78.861Z" transform="translate(126.051 33.015)" fill="#00143a"/><path d="M403.024,106.853c.337.315-5.72,7.194-14.3,14.519-8.711,7.249-16.454,12.006-16.734,11.642-.363-.475,6.944-5.985,15.5-13.107C395.981,112.655,402.6,106.437,403.024,106.853Z" transform="translate(46.346 51.578)" fill="#a5422b" opacity="0.4"/><g transform="translate(454.012 106.221)"><path d="M393.993,193.475l-.032-1.428-2.6-110.537,25.63,17.769,20.686-17.769,19.982,18.84,26.4-21.867-1.785,118.336-21.051-14.405-19.98,16.769L424.121,177.8Z" transform="translate(-391.363 -78.482)" fill="#e5dfc9"/><path d="M405.286,97.9l7.128,78.524L429.541,197.8,425.972,80.127Z" transform="translate(-379.656 -77.099)" fill="#fff" opacity="0.36"/><path d="M427.377,100.349l3.567,82.063L452,196.818l1.785-118.336Z" transform="translate(-361.079 -78.482)" fill="#fff" opacity="0.36"/></g><path d="M385.324,124.979l2.176-4.529a42.9,42.9,0,0,0,3.814-7.538,12.293,12.293,0,0,0,.895-4.09,18.929,18.929,0,0,0-.278-5.213c-.468-1.539,1.178-2.842,2.347-1.966s2.555,5.086,1.846,10.217,5.248-.429,7.457-2.415,9.326-7.811,10.475-7.616c1.683.287,1.688,2.143-.565,4.076-2.277,1.955-8.591,8.2-7.487,9.317,1.088,1.1,12.188-9.166,12.188-9.166s2.019-2.577,3.339-1.331c2.382,2.248-10.224,12.29-11.447,13.216-.851.644.307,1.9,1.182,1.16.9-.762,10.835-10.5,13.28-8.231,1.878,1.738-10.29,8.358-11.227,11.52s8.716-5.955,10.441-4.223c.641.646,1.031,1.217-5.27,5.655-6.454,4.545-25.942,14.011-25.942,14.011l-7.185-13.149" transform="translate(57.572 46.975)" fill="#f6ba99"/><g transform="translate(365.157 121.788)"><path d="M368.126,87c-1.745.169-17.565,8.694-19.366,31.63-2.043,26.013-9.874,61.625-2.7,78.148,1.642,3.785,4.074,6.568,7.542,8.006,18.613,7.717,85.882-58.891,85.882-58.891l-12.608-22.206s-48.7,45.363-51.651,39.763c-1.723-3.273,5.055-29.7,5.775-50.6C381.514,98.007,378.965,85.955,368.126,87Z" transform="translate(-343.094 -86.939)" fill="#d26647"/></g><path d="M469.083,125.886l-2.143-4.459a42.229,42.229,0,0,1-3.753-7.422,12.159,12.159,0,0,1-.882-4.028,18.637,18.637,0,0,1,.276-5.132c.46-1.513-1.162-2.8-2.312-1.935s-2.515,5.007-1.817,10.057-5.167-.42-7.343-2.377-9.18-7.689-10.311-7.5c-1.659.282-1.662,2.11.552,4.011,2.244,1.926,8.462,8.074,7.373,9.171-1.071,1.082-12-9.022-12-9.022s-1.986-2.539-3.286-1.311c-2.345,2.213,10.064,12.1,11.27,13.011.836.633-.3,1.868-1.165,1.141-.889-.751-10.668-10.335-13.076-8.1-1.848,1.712,10.132,8.227,11.056,11.342s-8.582-5.863-10.281-4.157c-.63.635-1.014,1.2,5.189,5.567,6.353,4.473,25.54,13.794,25.54,13.794l7.071-12.945" transform="translate(95.368 48.045)" fill="#c49882"/><g transform="translate(546.085 124.541)"><path d="M511.636,88.5c1.719.168,17.295,8.56,19.068,31.14,2.01,25.61,9.72,60.669,2.653,76.937-1.618,3.726-4.009,6.465-7.426,7.881-18.322,7.6-84.551-57.978-84.551-57.978l12.415-21.862s47.945,44.661,50.85,39.148c1.694-3.223-4.98-29.244-5.685-49.814C498.455,99.332,500.966,87.466,511.636,88.5Z" transform="translate(-441.379 -88.434)" fill="#986251"/><path d="M453.793,108.088l5.952,5.458L447.3,135.659l-5.925-5.709Z" transform="translate(-441.379 -71.908)" fill="#77483c"/><path d="M447.991,112.266a1.371,1.371,0,1,0,1.37-1.371A1.369,1.369,0,0,0,447.991,112.266Z" transform="translate(-435.819 -69.547)" fill="#986251"/></g></g></g></svg>