<svg width="92" height="92" viewBox="0 0 92 92" fill="none" xmlns="http://www.w3.org/2000/svg">
<path opacity="0.096" d="M46 92C71.4051 92 92 71.4051 92 46C92 20.5949 71.4051 0 46 0C20.5949 0 0 20.5949 0 46C0 71.4051 20.5949 92 46 92Z" fill="white"/>
<path opacity="0.096" d="M46 80C64.7777 80 80 64.7777 80 46C80 27.2223 64.7777 12 46 12C27.2223 12 12 27.2223 12 46C12 64.7777 27.2223 80 46 80Z" fill="white"/>
<path fill-rule="evenodd" clip-rule="evenodd" d="M16.8344 55.2217C16.4674 54.5827 15.5793 54.4958 15.1158 55.0687C11.8187 59.1429 10.4702 62.6184 11.7276 64.8081C14.7915 70.1436 32.1673 65.8244 50.5376 55.1608C68.9079 44.4972 81.3162 31.5273 78.2524 26.1918C77.037 24.0753 73.5697 23.4781 68.6816 24.1933C67.9721 24.2971 67.6074 25.0859 67.9645 25.7077V25.7077C68.1919 26.1036 68.6504 26.3024 69.0988 26.2168C71.5872 25.7417 73.2289 25.8875 73.7304 26.7607C75.4179 29.6994 63.55 39.7649 47.2227 49.2425C30.8955 58.7202 16.2916 64.021 14.604 61.0823C14.0788 60.1676 14.8667 58.5626 16.6935 56.4998C17.0068 56.1459 17.0697 55.6316 16.8344 55.2217V55.2217Z" fill="#6D85A9"/>
<path d="M67.995 30.593C68.8835 30.0042 69.1315 28.8019 68.4847 27.9546C64.3742 22.5693 58.4867 18.7804 51.8367 17.2868C44.557 15.6518 36.9271 16.8939 30.5418 20.7535C24.1566 24.6131 19.5104 30.7914 17.5744 37.9969C15.8059 44.5791 16.424 51.553 19.2816 57.6957C19.7312 58.6622 20.911 59.0014 21.8453 58.4884V58.4884C22.7796 57.9754 23.1137 56.8046 22.6741 55.8335C20.2902 50.5682 19.7922 44.6185 21.3022 38.9985C22.9798 32.7548 27.0058 27.4013 32.5386 24.0569C38.0715 20.7126 44.6829 19.6363 50.9908 21.0531C56.6687 22.3283 61.7052 25.5347 65.2591 30.0928C65.9145 30.9334 67.1065 31.1818 67.995 30.593V30.593Z" fill="#D2E1F8"/>
<path d="M29.0094 66.8612C28.358 67.705 28.5107 68.923 29.396 69.5166C33.5355 72.2923 38.3324 73.9573 43.324 74.334C48.9586 74.7592 54.5943 73.5242 59.5348 70.7816C64.4752 68.039 68.5038 63.909 71.1227 58.9019C73.4428 54.4663 74.5665 49.5145 74.3999 44.5333C74.3642 43.468 73.4112 42.6943 72.3507 42.8009V42.8009C71.2901 42.9075 70.5246 43.8542 70.5493 44.9199C70.6472 49.1491 69.6727 53.3458 67.7023 57.1129C65.433 61.4516 61.9422 65.0303 57.6612 67.4068C53.3803 69.7832 48.4969 70.8534 43.6145 70.4849C39.3752 70.165 35.2981 68.7727 31.7604 66.453C30.8691 65.8685 29.6607 66.0175 29.0094 66.8612V66.8612Z" fill="#D2E1F8"/>
</svg>
