<svg xmlns="http://www.w3.org/2000/svg" width="436.891" height="436.891"><defs><style>.cls-3{fill:#38312a}.cls-12,.cls-8{fill:#fff}.cls-9{fill:#fdc63a}.cls-10{fill:#fda23a}.cls-12{stroke:#fff;stroke-linecap:round;stroke-linejoin:round;stroke-width:6px}.cls-15{fill:#0f303f}</style></defs><g id="Group_3865" data-name="Group 3865" transform="translate(258.204 -47.201)"><g id="Symbol_20_75" data-name="Symbol 20 – 75" transform="translate(-874.572 -38.854)"><circle id="Ellipse_1742" cx="152.003" cy="152.003" r="152.003" data-name="Ellipse 1742" transform="translate(682.811 152.497)" style="opacity:.204;fill:#d5d7db"/><circle id="Ellipse_1743" cx="218.445" cy="218.445" r="218.445" data-name="Ellipse 1743" transform="translate(616.369 86.055)" style="opacity:.152;fill:#d5d7db"/></g><g id="Group_3855" data-name="Group 3855" transform="translate(-148.651 131.045)"><g id="Group_3851" data-name="Group 3851" transform="translate(0 27.837)"><path id="Rectangle_5700" d="M0 0h235.479v151.298H0z" class="cls-3" data-name="Rectangle 5700"/><path id="Path_39141" d="M-63.313 214.327h-89.353l24.3-32.5H-87.6z" data-name="Path 39141" transform="translate(229.368 -14.789)" style="fill:#adadad"/><path id="Path_39142" d="M45.556 209.216h-200.942c-9.543 0-17.268-7.053-17.268-15.745v-15.744H62.824v15.745c0 8.691-7.736 15.744-17.268 15.744z" data-name="Path 39142" transform="translate(172.655 -26.43)" style="fill:#dbdbdb"/><path id="Rectangle_5701" d="M0 0h89.355v10.223H0z" data-name="Rectangle 5701" transform="translate(76.701 199.538)"/><g id="Group_3850" data-name="Group 3850" transform="translate(6.903 6.906)"><path id="Rectangle_5702" d="M0 0h107.258v137.485H0z" data-name="Rectangle 5702" style="fill:#c1d64b"/><path id="Rectangle_5703" d="M0 0h114.408v137.485H0z" data-name="Rectangle 5703" transform="translate(107.258)" style="fill:#9fb603"/></g></g><path id="Path_39143" d="M.9 131.045h-108.217a38.909 38.909 0 0 0-38.911 38.911v9.01a38.909 38.909 0 0 0 35.419 38.734l-24.267 45.622 65.826-45.449H.9a38.912 38.912 0 0 0 38.914-38.911v-9.01A38.9 38.9 0 0 0 .9 131.045z" class="cls-3" data-name="Path 39143" transform="translate(247.635 -131.045)"/><g id="Group_3854" data-name="Group 3854" transform="translate(158.401 12.272)"><g id="Group_3852" data-name="Group 3852" transform="translate(0 25.234)"><path id="Path_39144" d="M-109.708 150.645a41.9 41.9 0 0 1-2.64-3.523l-17.483 8.515a2.744 2.744 0 0 0-1.266 3.668 2.741 2.741 0 0 0 3.668 1.27l18.642-9.079a7.388 7.388 0 0 1-.921-.851z" class="cls-8" data-name="Path 39144" transform="translate(131.376 -122.935)"/><path id="Path_39145" d="M-100.928 142.361a2.737 2.737 0 0 0-3.672-1.261l-12.214 5.944c.2.169.426.307.61.487a9.643 9.643 0 0 1 2.444 4.137l11.562-5.629a2.747 2.747 0 0 0 1.27-3.678z" class="cls-8" data-name="Path 39145" transform="translate(172.7 -140.819)"/><path id="Path_39146" d="M-116.688 150.669a12.63 12.63 0 0 1 .936-3.883l-11.677-5.687a2.739 2.739 0 0 0-3.668 1.262 2.75 2.75 0 0 0 1.266 3.676l13.124 6.393c-.012-.583-.027-1.166.019-1.761z" class="cls-8" data-name="Path 39146" transform="translate(131.376 -140.819)"/><path id="Path_39147" d="m-98.092 155.4-16.815-8.193-.33.437q-1.5 2.032-3.02 4.041l17.763 8.653a2.739 2.739 0 0 0 3.669-1.27 2.738 2.738 0 0 0-1.267-3.668z" class="cls-8" data-name="Path 39147" transform="translate(168.597 -122.697)"/></g><g id="Group_3853" data-name="Group 3853" transform="translate(8.174)"><path id="Path_39148" d="M-102.087 185.415c-1.619.4-3.058.441-3.837-1.738-.28-1.128 1.861-6.562 2.31-7.805a2.139 2.139 0 0 1 2.172-1.044v-40.584c-13.277.008-23.607 8.738-25.5 22.824-.568 4.229-3.078 8.615-2.072 12.64 1.213 4.428 5.035 7.249 6.443 11.274l-3.419-5.66c-1.842 2.229-.1 9.839 2.617 11.5a6.494 6.494 0 0 0 1.328.549c2.1 4.547 1.677 3.945 1.477 7.387a5.472 5.472 0 0 1 3.012 1.965 5.206 5.206 0 0 1 4.041-2.087 5.205 5.205 0 0 1 4.037 2.087 5.218 5.218 0 0 1 4.041-2.087 5.187 5.187 0 0 1 3.991 2.038v-12.441a.939.939 0 0 0-.641 1.182zm-13.791-10.81c-4.1-.967-4.824-4.106-3.615-7.725 1.681-4.344 5.545-3.86 9.405-2.41l-.718-.484c2.893 1.447 8.926 4.824 4.578 8.684-1.447 1.452-7.721 2.173-9.651 1.935z" class="cls-9" data-name="Path 39148" transform="translate(129.245 -134.24)"/><path id="Path_39149" d="M-95.749 156.626c-1.888-14.091-12.947-22.383-26.236-22.383H-122v40.584a5.636 5.636 0 0 1 3.473 2.955c1.477 2.356 1.182 4.421.3 7.072a5.051 5.051 0 0 0-2.652.1.869.869 0 0 0-.883-.752 1.12 1.12 0 0 0-.234.027v12.437l.05.05a5.2 5.2 0 0 1 4.037-2.087 5.2 5.2 0 0 1 4.037 2.087 5.224 5.224 0 0 1 4.041-2.087 5.212 5.212 0 0 1 4.041 2.087 5.49 5.49 0 0 1 2.92-1.946c-.219-3.772-.756-3.665 1.669-7.406h-.165a6.616 6.616 0 0 0 1.332-.549c2.87-1.754 4.939-9.432 2.609-11.5a17.335 17.335 0 0 0 3.024-5.614c1.001-4.015-.784-8.846-1.348-13.075zm-11.784 17.982c-1.934.238-8.208-.483-9.655-1.934-4.344-3.86 1.688-7.237 4.586-8.684l-.725.484c3.86-1.451 7.721-1.934 9.413 2.41 1.2 3.616.483 6.757-3.619 7.724zm6.688 6.378a22.783 22.783 0 0 1 3.415-5.656z" class="cls-10" data-name="Path 39149" transform="translate(149.803 -134.243)"/></g></g><path id="Path_39150" d="M-109.712 185.344a4.751 4.751 0 0 1-4.751 4.747 4.748 4.748 0 0 1-4.747-4.747 4.748 4.748 0 0 1 4.747-4.751 4.752 4.752 0 0 1 4.751 4.751z" data-name="Path 39150" transform="translate(324.296 9.539)" style="fill:#b8b8b8"/></g><g id="Group_3856" data-name="Group 3856" transform="translate(-181.114 247.101)"><path id="Path_39151" d="M-156.609 263.55c-17.725-31.274-14.843-61.152-14.843-61.152a180.125 180.125 0 0 0 29.586-11.458c12.9-6.5 24.394-18.419 24.394-18.419v-11.232s-13.507 14-28.669 21.639a211.124 211.124 0 0 1-34.77 13.469s-3.384 35.112 17.448 71.866c19.993 35.265 45.99 43.769 45.99 43.769V300.8s-22.127-7.242-39.136-37.25z" class="cls-12" data-name="Path 39151" transform="translate(181.114 -161.289)"/><path id="Path_39152" d="M-148.882 182.635a180.123 180.123 0 0 1-29.586 11.458s-2.882 29.877 14.843 61.152c17.011 30.008 39.137 37.245 39.137 37.245V164.216s-11.493 11.915-24.394 18.419z" class="cls-12" data-name="Path 39152" transform="translate(188.13 -152.984)"/><path id="Path_39153" d="m-149.172 185.464 2.982-8.761a137.09 137.09 0 0 1-18.339-15.415v11.232a116.644 116.644 0 0 0 15.357 12.944z" class="cls-12" data-name="Path 39153" transform="translate(228.171 -161.289)"/><path id="Path_39154" d="M-101.094 180.391a211.072 211.072 0 0 1-34.755-13.461l-3.638 8.327a180.523 180.523 0 0 0 28.934 11.136s2.882 29.877-14.843 61.152c-17.011 30.008-39.133 37.245-39.133 37.245v11.236s25.994-8.5 45.987-43.769c20.833-36.757 17.448-71.866 17.448-71.866z" class="cls-12" data-name="Path 39154" transform="translate(228.171 -145.284)"/><path id="Path_39155" d="M-125.4 255.245c17.725-31.274 14.843-61.152 14.843-61.152a180.523 180.523 0 0 1-28.934-11.136l-4.114 9.421 18.446 2.187-26.689 33.788 10.392-25.795h-16.354l8.638-25.4a116.644 116.644 0 0 1-15.357-12.943V292.49s22.122-7.237 39.129-37.245z" class="cls-12" data-name="Path 39155" transform="translate(228.171 -152.984)"/></g><g id="Group_3864" data-name="Group 3864" transform="translate(-181.114 247.101)"><g id="Group_3862" data-name="Group 3862"><g id="Group_3861" data-name="Group 3861"><g id="Group_3857" data-name="Group 3857" transform="translate(0 1.404)"><path id="Path_39156" d="M-156.609 263.916c-17.725-31.27-14.843-61.152-14.843-61.152a180.123 180.123 0 0 0 29.586-11.458c12.9-6.5 24.394-18.415 24.394-18.415v-11.236s-13.507 14-28.669 21.639a211.272 211.272 0 0 1-34.77 13.469s-3.384 35.112 17.448 71.866c19.989 35.265 45.99 43.772 45.99 43.772v-11.24s-22.127-7.237-39.136-37.245z" class="cls-9" data-name="Path 39156" transform="translate(181.114 -161.655)"/><path id="Path_39157" d="M-148.882 183a180.125 180.125 0 0 1-29.586 11.458s-2.882 29.881 14.843 61.152c17.011 30.008 39.137 37.245 39.137 37.245V164.583S-135.981 176.5-148.882 183z" data-name="Path 39157" transform="translate(188.13 -153.347)" style="fill:#ff002f"/><path id="Path_39158" d="m-149.172 185.834 2.982-8.764a136.759 136.759 0 0 1-18.339-15.415v11.236a116.982 116.982 0 0 0 15.357 12.943z" class="cls-10" data-name="Path 39158" transform="translate(228.171 -161.655)"/><path id="Path_39159" d="M-101.094 180.757a211.08 211.08 0 0 1-34.755-13.457l-3.638 8.327a180.515 180.515 0 0 0 28.934 11.136s2.882 29.881-14.843 61.152c-17.011 30.008-39.133 37.245-39.133 37.245v11.24s25.994-8.507 45.987-43.772c20.833-36.759 17.448-71.871 17.448-71.871z" class="cls-10" data-name="Path 39159" transform="translate(228.171 -145.65)"/><path id="Path_39160" d="M-125.4 255.608c17.725-31.27 14.843-61.152 14.843-61.152a180.515 180.515 0 0 1-28.934-11.136l-4.114 9.421 18.446 2.187-26.689 33.788 10.392-25.791h-16.354l8.638-25.4a116.982 116.982 0 0 1-15.357-12.943v128.272s22.122-7.238 39.129-37.246z" data-name="Path 39160" transform="translate(228.171 -153.347)" style="fill:#b90020"/></g><g id="Group_3858" data-name="Group 3858" transform="translate(80.577)"><path id="Path_39161" d="M-158.712 171.542a1.4 1.4 0 0 1-1.4-1.4v-7.444a1.4 1.4 0 0 1 1.4-1.4 1.4 1.4 0 0 1 1.4 1.4v7.444a1.4 1.4 0 0 1-1.4 1.4z" class="cls-15" data-name="Path 39161" transform="translate(160.116 -161.289)"/></g><g id="Group_3859" data-name="Group 3859" transform="translate(90.955 2.251)"><path id="Path_39162" d="M-156.627 171.229a1.4 1.4 0 0 1-.641-1.876l3.269-6.689a1.4 1.4 0 0 1 1.876-.645 1.407 1.407 0 0 1 .645 1.88l-3.269 6.688a1.4 1.4 0 0 1-1.88.642z" class="cls-15" data-name="Path 39162" transform="translate(157.411 -161.876)"/></g><g id="Group_3860" data-name="Group 3860" transform="translate(95.722 14.08)"><path id="Path_39163" d="M-156.077 169.5a1.4 1.4 0 0 1 .814-1.807l6.965-2.644a1.4 1.4 0 0 1 1.807.814 1.4 1.4 0 0 1-.81 1.815l-6.961 2.636a1.4 1.4 0 0 1-1.815-.814z" class="cls-15" data-name="Path 39163" transform="translate(156.169 -164.958)"/></g></g><path id="Path_39164" d="M-160.224 189.271a5.468 5.468 0 0 1 5.46-5.464h2.59a5.468 5.468 0 0 1 5.461 5.464v3.043h4.593v-3.043a10.069 10.069 0 0 0-10.054-10.058h-2.59a10.069 10.069 0 0 0-10.054 10.058v9.137h-3.611v22.2h29.92v-22.2h-21.715z" class="cls-8" data-name="Path 39164" transform="translate(217.109 -110.433)"/></g><g id="Group_3863" data-name="Group 3863" transform="translate(76.301 25.883)"><path id="Path_39165" d="M-157.17 222.551a4.119 4.119 0 0 1-3.484-1.953 4.113 4.113 0 0 1 1.378-5.6l45.108-27.065 5.168-9.753 16.919-10.146-3.35 13.4 13.4 3.354-16.919 10.146-11.032-.027-45.1 27.065a4.233 4.233 0 0 1-2.088.579z" class="cls-8" data-name="Path 39165" transform="translate(161.23 -168.034)"/><path id="Path_39166" d="m-89.793 182.054-10.2-2.552 2.548-10.188-11.516 6.907-5.169 9.747-45.66 27.4a1.735 1.735 0 0 0-.595 2.371 1.761 1.761 0 0 0 1.493.844 1.778 1.778 0 0 0 .883-.249l45.657-27.4 11.036.027z" class="cls-3" data-name="Path 39166" transform="translate(162.948 -164.402)"/></g></g></g></svg>