<svg xmlns="http://www.w3.org/2000/svg" width="436.891" height="436.891" viewBox="0 0 436.891 436.891"><g transform="translate(-215 -2792)"><g transform="translate(-401.369 2705.945)"><circle cx="152.003" cy="152.003" r="152.003" transform="translate(682.811 152.497)" fill="#d5d7db" opacity="0.204"/><circle cx="218.445" cy="218.445" r="218.445" transform="translate(616.369 86.055)" fill="#d5d7db" opacity="0.152"/></g><g transform="translate(478.275 2645.013)"><path d="M-115.225,245.728a36.32,36.32,0,0,1,8.5,50.656,36.319,36.319,0,0,1-50.654,8.5,36.317,36.317,0,0,1-8.5-50.654A36.321,36.321,0,0,1-115.225,245.728Z" transform="translate(31.551 0)" fill="#018a9d" fill-rule="evenodd"/><path d="M-128.639,315.546a33.331,33.331,0,0,1,7.8,46.487,33.333,33.333,0,0,1-46.487,7.8,33.332,33.332,0,0,1-7.8-46.488A33.331,33.331,0,0,1-128.639,315.546Z" transform="translate(34.55 81.806)" fill="#018a9d" fill-rule="evenodd"/><path d="M-70.428,471.054a.881.881,0,0,1-.579-.2,1.035,1.035,0,0,1-.264.142.875.875,0,0,1-.311.054l-.274,0-.711-.012-.711-.016-.709-.022-.709-.024-.707-.03-.707-.034-.7-.04-.7-.042-.7-.05-.7-.05-.7-.058-.7-.06-.531-.05a.949.949,0,0,1-.214-1.829.921.921,0,0,1,.389-.05l.519.05.685.062.689.054.691.054.689.046.693.044.693.036.695.036.7.026.7.026.7.022.7.016.7.01.274,0a.862.862,0,0,1,.565.2.946.946,0,0,1,.345-.168.892.892,0,0,1,.22-.026l.7,0,.7-.008.7-.01.7-.016.7-.022.695-.026.7-.026.695-.036.693-.036.691-.044.693-.046.689-.054.689-.054.078-.008a.945.945,0,0,1,.367,1.833.815.815,0,0,1-.216.044l-.08.008-.7.058-.7.05-.7.05-.7.042-.7.04-.707.034-.707.03-.711.024-.707.022-.713.016-.711.012-.713.008-.713,0Zm-15.686-3.037h0a.947.947,0,0,1,.016,1.863,1.018,1.018,0,0,1-.282,0l-.174-.028-.687-.1-.685-.106-.681-.116-.683-.12-.679-.12-.681-.128-.677-.13L-92,468.9l-.675-.142-.675-.142-.671-.146-.669-.152-.667-.156-.148-.036a.946.946,0,0,1,.19-1.859.847.847,0,0,1,.236.026l.134.032.659.154.659.15.661.142.661.144.663.136.663.132.667.13.667.124.669.12.671.116.671.112.675.108.673.1.174.024Zm-14.267-3.133h0a.947.947,0,0,1-.274,1.849.965.965,0,0,1-.24-.038l-.409-.12-.653-.2-.651-.2-.649-.2-.647-.21-.645-.212-.645-.214-.641-.224-.643-.222-.637-.228-.637-.234-.635-.236-.633-.238-.631-.246-.054-.02a.946.946,0,0,1,.391-1.819.866.866,0,0,1,.274.062l.042.016.621.238.623.238.623.232.627.228.629.224.631.222.629.216.633.212.635.21.635.206.639.2.639.2.643.192.409.12Zm-13.726-5.074h0a.944.944,0,0,1-.431,1.8.886.886,0,0,1-.317-.08l-.391-.178-.613-.278-.609-.287-.609-.286-.607-.294-.605-.3-.6-.3-.6-.3-.6-.306-.6-.311-.6-.312-.591-.319-.591-.319-.587-.323-.136-.076a.943.943,0,0,1,.663-1.741.833.833,0,0,1,.226.09l.126.07.579.319.581.313.579.313.585.307.587.306.587.3.591.3.591.292.593.294.6.286.6.284.6.28.605.276.391.18Zm-12.933-6.927h0a.953.953,0,0,1,.425.962.918.918,0,0,1-1.392.643l-.234-.148-.567-.359-.563-.363-.561-.363-.559-.371-.557-.369-.553-.377-.553-.379-.547-.383-.549-.383-.545-.389-.539-.393-.541-.4-.537-.4-.3-.222a.941.941,0,0,1,.8-1.663.87.87,0,0,1,.294.15l.288.214.529.391.529.389.535.385.535.383.537.379.539.375.545.371.545.371.545.365.549.363.555.357.551.357.559.353.234.148Zm-11.909-8.638h0a.938.938,0,0,1-.958,1.589,1.043,1.043,0,0,1-.206-.128l-.024-.022-.513-.431-.509-.433-.509-.437-.5-.437-.5-.443-.5-.445-.5-.447-.493-.453-.491-.453-.491-.459-.483-.459-.485-.463-.481-.465-.461-.453a.94.94,0,0,1,.966-1.559.881.881,0,0,1,.314.2l.453.445.473.461.475.453.477.455.481.447.483.447.485.443.489.441.491.439.493.435.5.431.5.429.5.425.505.423.026.022Zm-10.673-10.189h0a.937.937,0,0,1-1.1,1.476.942.942,0,0,1-.244-.19l-.278-.305-.451-.5-.447-.5-.443-.505-.441-.5-.439-.509-.433-.513-.433-.513-.431-.515-.425-.519-.423-.523-.421-.525-.415-.525-.413-.531-.164-.208a.934.934,0,0,1,1.278-1.338,1,1,0,0,1,.17.174l.158.2.407.521.409.517.413.517.415.511.419.511.423.507.423.507.427.5.433.5.431.5.439.493.439.493.441.489.28.3Zm-9.253-11.555h0a.957.957,0,0,1-.014,1.112.91.91,0,0,1-1.486-.02l-.082-.116-.385-.557-.377-.555-.377-.559-.373-.563-.369-.565-.367-.567-.365-.571-.361-.571-.357-.573-.351-.577-.351-.577-.347-.583-.343-.583-.258-.439a.928.928,0,0,1,1.5-1.086,1.1,1.1,0,0,1,.088.126l.252.431.337.571.341.575.347.569.345.567.349.563.357.563.355.559.361.559.365.553.367.551.369.553.373.547.377.547.082.116Zm-7.656-12.711h0a.926.926,0,0,1-1.565.98,1.263,1.263,0,0,1-.068-.112l-.278-.543-.306-.607-.3-.609-.3-.613-.3-.613-.292-.617-.29-.621-.286-.619-.282-.623-.28-.623-.274-.629-.272-.627-.268-.629-.252-.605a.926.926,0,0,1,1.543-.984.891.891,0,0,1,.152.252l.25.593.262.619.266.619.27.615.278.615.274.611.281.611.284.607.29.607.29.6.3.6.3.6.3.6.276.541Zm-5.916-13.656h0a.922.922,0,0,1-1.673.767.7.7,0,0,1-.06-.13l-.176-.5-.226-.655-.224-.653-.22-.655-.216-.657-.208-.659-.208-.661-.208-.661-.2-.665-.2-.667-.192-.667-.19-.669-.182-.673-.164-.611a.94.94,0,0,1,.066-.667.913.913,0,0,1,1.711.176l.16.6.182.659.186.659.188.657.192.657.2.651.2.653.2.649.208.647.212.647.216.645.218.643.224.639.176.5ZM-176.5,381.79h0a.922.922,0,0,1-1.745.571,1.2,1.2,0,0,1-.058-.182l-.134-.647-.142-.689-.136-.693-.13-.689-.13-.695-.122-.695-.12-.695-.114-.7-.112-.7-.106-.7-.1-.7-.1-.7-.094-.7-.046-.343a.922.922,0,0,1,1.779-.447,1.126,1.126,0,0,1,.05.208l.042.333.092.695.1.693.1.687.1.691.11.687.114.687.116.681.12.687.126.679.13.683.134.679.138.675.136.649Zm-2.133-14.78h0a.92.92,0,0,1-1.8.329.722.722,0,0,1-.03-.186l-.032-.389-.054-.717-.044-.719-.042-.721-.04-.719-.034-.723-.028-.725-.024-.725-.022-.725-.016-.729-.008-.729-.008-.729,0-.729v-.413a.919.919,0,0,1,1.807-.25.958.958,0,0,1,.034.262l0,.4,0,.717.008.719.01.715.016.715.018.715.024.713.03.713.032.709.04.711.038.709.046.7.052.709.03.385Zm-.19-14.938h0a.947.947,0,0,1-.415.735.921.921,0,0,1-1.424-.841l.024-.427.042-.721.044-.717.054-.719.054-.715.06-.717.066-.715.066-.711.074-.713.078-.707.082-.713.086-.7.09-.707.062-.469a.918.918,0,0,1,1.807-.09.977.977,0,0,1,.016.349l-.06.457-.088.7-.086.7-.078.693-.078.7-.072.7-.068.7-.062.7-.06.7-.054.7-.052.7-.046.707-.038.709-.024.425Zm1.749-14.832h0a.919.919,0,0,1-1.825-.146,1.253,1.253,0,0,1,.016-.21l.038-.2.13-.693.136-.691.142-.687.144-.687.15-.687.15-.685.156-.681.162-.681.164-.679.166-.679.174-.677.176-.673.182-.673.048-.182a.919.919,0,0,1,1.807.228.913.913,0,0,1-.036.286l-.046.17-.176.663-.176.665-.168.663-.166.667-.16.667-.158.669-.154.673-.15.673-.146.673-.142.677-.138.677-.134.677-.13.683-.036.2Zm3.684-14.45h0a.918.918,0,0,1-1.789-.226.937.937,0,0,1,.046-.379l.112-.345.22-.655.224-.653.226-.653.232-.649.232-.651.24-.645.242-.643.244-.643.25-.641.254-.637.258-.637.26-.637.262-.631.066-.152a.92.92,0,0,1,1.759.475,1.009,1.009,0,0,1-.072.28l-.06.142-.262.623-.254.623-.254.627-.248.627-.246.631-.242.631-.236.633-.234.633-.232.639-.226.639-.224.641-.218.643-.216.643-.114.347Zm5.559-13.812h0a.922.922,0,0,1-1.729-.6.945.945,0,0,1,.082-.236l.132-.278.3-.613.3-.609.306-.607.311-.607.314-.6.317-.6.319-.6.323-.6.327-.593.329-.591.333-.593.339-.587.341-.587.156-.266a.925.925,0,0,1,1.649.825,1.221,1.221,0,0,1-.076.154l-.15.256-.335.577-.331.577-.329.581-.325.583-.322.585-.319.587-.313.589-.311.591-.309.6-.3.6-.3.6-.3.6-.3.6-.134.278Zm7.326-12.919h0a.925.925,0,0,1-1.613-.887.913.913,0,0,1,.088-.17l.064-.1.373-.561.377-.561.377-.557.385-.553.385-.553.389-.551.393-.545.4-.547.4-.543.4-.539.405-.535.405-.537.413-.533.337-.431a.919.919,0,0,1,1.631.7.946.946,0,0,1-.2.485l-.329.423-.405.523-.4.527-.4.527-.4.531-.393.535-.387.535-.387.539-.383.541-.379.543-.377.543-.373.551-.369.549-.367.553-.064.1Zm8.947-11.8h0a.928.928,0,0,1-1.486-1.1,1.2,1.2,0,0,1,.114-.164l.343-.389.443-.5.447-.5.451-.5.451-.5.455-.493.457-.487.461-.489.463-.483.469-.479.469-.477.471-.475.477-.471.475-.469.122-.116a.928.928,0,0,1,1.408,1.188.985.985,0,0,1-.146.184l-.112.106-.469.463-.467.463-.465.469-.461.467-.459.473-.457.475-.453.477-.449.481-.449.485-.445.485-.441.491-.439.491-.439.5-.339.389Zm10.411-10.475h0a.932.932,0,0,1-1.326-1.294.936.936,0,0,1,.13-.138l.174-.152.5-.439.509-.437.509-.431.513-.431.513-.427.517-.425.521-.419.523-.419.523-.413.529-.409.531-.409.531-.405.535-.4.353-.262a.931.931,0,0,1,1.34,1.23,1.021,1.021,0,0,1-.264.3l-.345.256-.525.4-.525.4-.521.4-.517.405-.517.407-.515.411-.511.413-.507.417-.507.419-.505.423-.5.425-.5.429-.5.433-.174.152Zm11.679-8.955h0a.934.934,0,0,1-1.184-1.42.946.946,0,0,1,.19-.166l.533-.351.561-.367.563-.361.567-.357.567-.357.569-.351.573-.349.575-.343.577-.341.579-.339.579-.335.585-.331.585-.327.571-.315a.938.938,0,0,1,1.092,1.494.913.913,0,0,1-.222.168l-.563.311-.575.321-.571.323-.573.331-.571.331-.565.335-.569.341-.559.341-.563.347-.555.351-.559.349-.551.357-.555.359-.531.351Zm12.749-7.274h0a.937.937,0,0,1-.948-1.6,1.108,1.108,0,0,1,.17-.106l.421-.2.609-.29.609-.282.613-.284.613-.276.617-.274.617-.272.619-.268.623-.262.625-.258.625-.254.627-.25.631-.25.631-.244.074-.028a.941.941,0,0,1,.829,1.669,1.135,1.135,0,0,1-.2.1l-.064.022-.621.24-.619.242-.617.248-.615.252-.611.254-.613.26-.611.26-.609.268-.605.27-.6.27-.605.278-.6.282-.6.281-.421.2Zm13.588-5.447h0a.94.94,0,0,1-.761-1.7.882.882,0,0,1,.214-.1l.423-.134.649-.206.651-.2.653-.2.655-.194.653-.19.657-.182.659-.182.663-.176.663-.172.661-.168.667-.166.669-.16.637-.146a.937.937,0,0,1,.984,1.414.935.935,0,0,1-.581.425l-.629.144-.655.158-.655.16-.651.166-.651.17-.651.176-.649.176-.645.182-.643.184-.645.188-.643.2-.639.2-.639.2-.421.136Zm14.181-3.518h0a.945.945,0,0,1-.645-1.725.907.907,0,0,1,.345-.136l.645-.112.681-.112.685-.11.687-.108.685-.1.691-.1.689-.092.693-.09.693-.082.693-.08.7-.074.695-.072.7-.064.272-.024a.945.945,0,0,1,.367,1.833.915.915,0,0,1-.218.044l-.258.024-.689.064-.683.068-.685.074-.683.078-.681.082-.679.086-.679.09-.677.1-.677.1-.673.1-.675.106-.671.112-.645.114Zm14.52-1.539h0a.946.946,0,0,1-.325-1.833,1.112,1.112,0,0,1,.268-.05l.5-.016.709-.022.711-.016.711-.012.713-.006.715,0,.713,0,.713.006.711.012.713.016.707.022.711.026.707.028.246.012a.947.947,0,0,1,.2,1.847,1,1,0,0,1-.3.038l-.234-.014-.7-.03-.695-.026-.7-.018-.7-.018-.7-.01-.7-.006-.7,0-.7,0-.7.006-.7.01-.7.018-.7.018-.5.018Zm14.592.449h0a.907.907,0,0,1-.585-.3.943.943,0,0,1,.771-1.575l.511.052.695.074.693.08.693.082.691.09.691.092.689.1.687.1.685.108.687.11.683.112.681.118.681.12.423.082a.946.946,0,0,1-.142,1.869,1.03,1.03,0,0,1-.194-.016l-.413-.078-.669-.12-.671-.116-.671-.112-.671-.106-.677-.1-.677-.1-.675-.1-.679-.09-.679-.086-.681-.082-.683-.078-.683-.074-.511-.05Zm14.4,2.436h0a.945.945,0,0,1,.19-1.857,1.025,1.025,0,0,1,.236.022l.182.044.667.166.663.168.661.172.663.176.659.182.655.182.657.19.653.194.653.2.651.2.649.206.647.206.645.214.234.08a.945.945,0,0,1-.379,1.833.981.981,0,0,1-.2-.046l-.222-.074-.637-.208-.635-.206-.641-.2-.637-.2-.643-.2-.643-.188-.645-.184-.645-.182-.649-.176-.651-.176-.649-.17-.653-.166-.655-.16-.182-.044Zm13.945,4.4h0a.945.945,0,0,1,.389-1.819.814.814,0,0,1,.276.062l.252.1.627.25.627.254.623.258.621.262.621.268.617.272.617.274.615.276.611.284.611.282.609.29.607.292.6.3.256.128a.944.944,0,0,1-.541,1.777,1.033,1.033,0,0,1-.27-.086l-.244-.124-.6-.288-.6-.29-.6-.281-.6-.282-.6-.278-.605-.27-.605-.27-.609-.268-.607-.26-.613-.26-.615-.254-.615-.252-.617-.248-.25-.1Zm13.24,6.288h0a.943.943,0,0,1,.661-1.741,1,1,0,0,1,.228.092l.142.08.585.331.581.335.579.339.577.341.573.343.571.349.571.351.567.357.567.357.563.361.561.367.559.367.557.375.387.262a.948.948,0,0,1,.407.823.92.92,0,0,1-1.432.743l-.377-.254-.547-.367-.549-.363-.551-.359-.553-.357-.557-.349-.559-.351-.559-.347-.563-.341-.565-.341-.567-.335-.569-.331-.573-.331-.573-.323-.142-.082Zm12.288,8.053h0a.945.945,0,0,1,.635-1.693.923.923,0,0,1,.467.184l.485.369.531.409.525.409.527.413.521.419.521.419.517.425.515.427.511.431.511.431.507.437.5.439.5.443.5.443.05.044a.937.937,0,0,1-1.072,1.522.939.939,0,0,1-.15-.112l-.04-.036-.489-.437-.493-.435-.5-.433-.5-.429-.5-.425-.5-.423-.509-.419-.509-.417-.509-.413-.515-.411-.515-.407-.517-.405-.525-.4-.483-.369Zm11.13,9.666h0a.94.94,0,0,1,.992-1.547.9.9,0,0,1,.3.2l.238.236.469.475.471.477.465.479.463.483.463.489.455.487.459.493.449.5.451.5.447.5.443.5.441.505.439.509.226.264a.932.932,0,0,1-1.292,1.336.757.757,0,0,1-.1-.1l-.222-.26-.429-.5-.435-.5-.435-.5-.441-.491-.439-.491L8.6,281.91l-.449-.485-.449-.481-.453-.477-.455-.475-.459-.473-.463-.467-.465-.469-.238-.234Zm9.776,11.1h0a.932.932,0,0,1,1.276-1.334.92.92,0,0,1,.172.17l.032.04.407.537.405.535.4.539.4.543.393.547.393.545.387.551.389.553.381.553.381.557.377.561.371.561.371.565.333.515a.934.934,0,0,1-1.144,1.378.9.9,0,0,1-.393-.339l-.329-.507-.361-.555-.369-.553-.367-.549-.377-.551-.373-.543-.381-.543-.383-.541-.385-.539-.393-.535-.389-.535-.4-.531-.4-.527-.4-.527-.03-.04Zm8.233,12.328h0a.928.928,0,0,1,1.474-1.11.918.918,0,0,1,.116.162l.242.421.335.593.331.591.325.593.323.6.319.6.319.6.311.6.311.607.306.607.3.609.3.613.294.615.3.617.054.114a.926.926,0,0,1-1.549.992,1.1,1.1,0,0,1-.114-.186l-.05-.1-.29-.607-.288-.6-.3-.6-.3-.6-.3-.6-.3-.6-.307-.6-.312-.591-.317-.589-.317-.587-.321-.585-.323-.583-.329-.581-.242-.421Zm6.541,13.354h0a.926.926,0,0,1,1.567-.953,1.056,1.056,0,0,1,.136.23l.132.327.256.637.254.637.25.641.244.643.244.643.236.645.234.651.234.649.226.653.222.653.222.655.214.657.21.659.05.158a.923.923,0,1,1-1.755.573l-.046-.15-.208-.647-.212-.647-.216-.643-.218-.643-.224-.641-.226-.639-.23-.639-.234-.633-.238-.633-.24-.631-.248-.631-.248-.627-.254-.627-.134-.327Zm4.72,14.131h0a.922.922,0,1,1,1.781-.479l.1.383.172.677.17.679.162.679.162.681.156.681.152.685.148.687.146.687.14.687.134.691.134.693.126.695.12.663a.949.949,0,0,1-.561,1.04.921.921,0,0,1-1.252-.707l-.118-.657-.124-.679-.13-.683-.134-.677-.138-.677-.14-.677-.146-.673-.152-.673-.152-.673-.158-.669-.162-.667-.166-.667-.17-.663-.1-.387Zm2.817,14.662h0a.92.92,0,0,1,1.775-.449,1.074,1.074,0,0,1,.052.21v.006l.086.7.08.713.08.707.07.713.07.711.064.715.06.717.056.715.05.719.046.717.044.721.038.723.032.723.008.166a.942.942,0,0,1-.685.946.922.922,0,0,1-1.154-.875l-.008-.154-.032-.709-.038-.713-.04-.709-.048-.707-.05-.7-.054-.7-.058-.7-.066-.7-.066-.7-.07-.7-.078-.7-.08-.693-.084-.7v0Zm.869,14.906h0a.92.92,0,0,1,1.793-.3,1.027,1.027,0,0,1,.05.319l-.008.685-.01.729-.018.729-.018.725-.024.725-.032.725-.032.723-.038.719-.044.721-.046.719-.05.717-.056.719-.06.715-.014.136a.917.917,0,0,1-1.785.224.97.97,0,0,1-.048-.4l.014-.126.058-.7.054-.7.05-.709.048-.7.04-.709.038-.711.032-.709.03-.713.024-.713.018-.715.018-.715.01-.715.006-.685Zm-1.066,14.9h0a.919.919,0,0,1,1.821-.014,1.066,1.066,0,0,1,0,.288l-.082.577-.1.7-.11.7-.108.7-.116.7-.118.695-.126.695-.126.695-.134.689-.134.693-.14.689-.146.687-.148.685-.1.431a.919.919,0,0,1-1.817-.182,1.09,1.09,0,0,1,.024-.242l.094-.421.146-.673.14-.677.138-.675.134-.679.13-.683.124-.679.122-.687.118-.681.114-.687.11-.687.1-.691.1-.687.08-.581Zm-3.009,14.618h0a.918.918,0,0,1,1.805.23,1.045,1.045,0,0,1-.034.286l-.04.146-.188.669-.19.667-.2.667-.2.665-.206.661-.208.661-.21.659-.214.657-.222.655-.222.653-.226.655-.234.649-.234.647-.114.314a.92.92,0,0,1-1.781-.385,1,1,0,0,1,.06-.284l.112-.3.23-.637.226-.639.224-.639.218-.643.216-.645.212-.647.208-.647.206-.649.2-.653.2-.651.2-.657.186-.657.188-.659.038-.144Zm-4.91,14.065h0a.92.92,0,0,1,1.759.477.976.976,0,0,1-.072.28l-.064.15-.27.627-.276.629-.28.623-.282.623-.286.619-.288.621-.3.617-.294.613-.3.613-.3.609-.306.607-.311.609-.311.6-.2.379a.924.924,0,0,1-1.717-.627,1.152,1.152,0,0,1,.1-.274l.2-.367.307-.6.3-.593.3-.6.3-.6.3-.6.288-.6.29-.607.284-.607.282-.611.276-.611.274-.615.27-.615.268-.619.064-.152ZM22.417,415.67h0a.924.924,0,0,1,1.647.823,1.23,1.23,0,0,1-.074.156l-.008.01-.347.583-.351.577-.351.577-.357.573-.363.571-.363.571-.365.567-.371.565-.371.563-.377.559-.381.555-.381.557-.389.553-.367.521a.929.929,0,1,1-1.49-1.11l.365-.513.381-.543.373-.547.377-.547.367-.553.369-.551.361-.553.361-.559.359-.559.355-.563.349-.563.347-.567.345-.569.341-.575.008-.008Zm-8.4,12.214h0a.926.926,0,0,1,1.555.978.9.9,0,0,1-.126.212l-.272.339-.419.525-.425.523-.425.519-.429.515-.433.513-.433.513-.439.509-.441.5-.443.505-.447.5-.451.5-.449.5-.459.491-.166.18a.926.926,0,0,1-1.524-.988.953.953,0,0,1,.2-.321l.16-.168.449-.487.447-.485.439-.489.441-.493.435-.493.435-.5.429-.5.429-.5.423-.507.425-.507.419-.511.415-.511.413-.517.268-.339ZM4.1,438.847h0a.928.928,0,0,1,1.408,1.188.8.8,0,0,1-.146.182l-.108.106-.483.463-.485.459L3.8,441.7l-.491.453-.5.453-.5.447-.5.445-.5.443-.5.437-.507.437-.511.433-.511.431-.515.427-.409.333a.9.9,0,0,1-1.1.034.956.956,0,0,1-.044-1.51l.4-.327.509-.419.5-.423.5-.425.5-.429.5-.431.493-.435.489-.439.487-.441.485-.443.487-.447.481-.447.475-.455.475-.453.11-.106Zm-11.256,9.508h0a.9.9,0,0,1,1.086.012.956.956,0,0,1-.02,1.519l-.435.322-.543.393-.543.389-.547.383-.549.383-.551.379-.555.377-.557.369-.559.371-.561.363-.563.363-.567.359-.567.353-.571.353-.088.058a.937.937,0,0,1-1.06-1.536.921.921,0,0,1,.124-.088l.08-.05.559-.347.559-.349.557-.353.553-.357.551-.357.549-.363.547-.365.547-.371.541-.371.541-.375.537-.379.535-.383.533-.385.437-.318Zm-12.4,7.883h0a.937.937,0,0,1,.944,1.613l-.088.05-.292.16-.589.319-.6.312-.6.311-.6.306-.6.3-.6.3-.6.3-.607.294-.609.286-.611.287-.611.278-.615.278-.617.276-.224.1a.94.94,0,0,1-.962-1.581.961.961,0,0,1,.242-.156l.218-.094.605-.27.605-.273.6-.276.6-.28.6-.284.6-.286.6-.294.593-.292.589-.3.587-.3.587-.306.585-.307.581-.313.294-.156Zm-13.324,6.1h0a.94.94,0,0,1,.831,1.667.867.867,0,0,1-.2.1l-.232.088-.633.236-.637.234-.641.228-.639.222-.643.224-.645.214-.645.212-.647.21-.649.2-.651.2-.653.2-.653.192-.657.188-.214.06a.879.879,0,0,1-.655-.068.95.95,0,0,1,.174-1.751l.2-.056.645-.186.643-.19.643-.192.637-.2.641-.2.635-.206.637-.21.629-.212.633-.216.629-.222.629-.224.627-.228.623-.232.23-.088Zm-14,4.207h0a.942.942,0,0,1,.639,1.745.978.978,0,0,1-.25.1l-.353.08-.671.146-.673.142-.675.142-.675.134-.679.13-.677.128-.681.12-.681.12-.683.116-.687.106-.685.1-.687.1-.627.088a.922.922,0,0,1-.619-.138.952.952,0,0,1,.373-1.731l.615-.086.677-.1.677-.1.671-.108.671-.112.671-.116.669-.12.669-.124.665-.13.665-.132.665-.136.661-.144.659-.142Z" transform="translate(23.377 6.089)" fill="#787e8c" fill-rule="evenodd"/><path d="M-51.524,277.285A27.427,27.427,0,0,1-45.1,315.537a27.429,27.429,0,0,1-38.254,6.422,27.428,27.428,0,0,1-6.42-38.252A27.427,27.427,0,0,1-51.524,277.285Z" transform="translate(131.052 3.098)" fill="#018a9d" fill-rule="evenodd"/><g transform="translate(-126.112 249.816)"><path d="M-126.772,244.41c18.294,0,33.7,11.743,38.358,25.493-4.654,13.748-20.063,25.49-38.358,25.49s-33.7-11.743-38.358-25.49C-160.474,256.153-145.067,244.41-126.772,244.41Z" transform="translate(165.13 -244.41)" fill="#eec64a" fill-rule="evenodd"/><path d="M-128.308,249.973c16.827,0,31,6.625,35.283,14.385-4.283,7.757-18.456,14.385-35.283,14.385s-31-6.627-35.281-14.385C-159.308,256.6-145.135,249.973-128.308,249.973Z" transform="translate(166.666 -238.865)" fill="#e1e8e1" fill-rule="evenodd"/><path d="M-138.749,249.982a14.366,14.366,0,0,1,14.367,14.367,14.365,14.365,0,0,1-14.367,14.365,14.365,14.365,0,0,1-14.365-14.365A14.365,14.365,0,0,1-138.749,249.982Z" transform="translate(177.107 -238.856)" fill="#14b0bf" fill-rule="evenodd"/><path d="M-141.426,252.667a9,9,0,0,1,9.005,9.005,9,9,0,0,1-9.005,9,9,9,0,0,1-9-9A9,9,0,0,1-141.426,252.667Z" transform="translate(179.783 -236.18)" fill="#7dcbdb" fill-rule="evenodd"/><path d="M-142.686,253.932a6.48,6.48,0,0,1,6.479,6.479,6.478,6.478,0,0,1-6.479,6.477,6.478,6.478,0,0,1-6.479-6.477A6.48,6.48,0,0,1-142.686,253.932Z" transform="translate(181.043 -234.919)" fill="#5a3445" fill-rule="evenodd"/><path d="M-142.237,253.328a2.945,2.945,0,0,1,2.945,2.947,2.944,2.944,0,0,1-2.945,2.943,2.945,2.945,0,0,1-2.945-2.943A2.946,2.946,0,0,1-142.237,253.328Z" transform="translate(185.013 -235.521)" fill="#e1e8e1" fill-rule="evenodd"/><path d="M-142.1,253.193h0a3.225,3.225,0,0,0,3.215,3.217h0a3.223,3.223,0,0,0-3.215,3.215h0a3.224,3.224,0,0,0-3.215-3.215h0A3.226,3.226,0,0,0-142.1,253.193Z" transform="translate(184.879 -235.656)" fill="#fff" fill-rule="evenodd"/></g><g transform="translate(-69.816 344.172)"><path d="M-110.27,354.108H-59l1.944,2.935v1.466h-55.159v-1.466Z" transform="translate(161.577 -229.424)" fill="#785b68" fill-rule="evenodd"/><rect width="41.847" height="20.467" transform="translate(56.017 104.217)" fill="#785b68"/><path d="M-96.067,364.325l-12.815-12.815v-7.652h41.847v20.467Z" transform="translate(164.9 -239.641)" fill="#5a3445" fill-rule="evenodd"/><rect width="153.882" height="111.869" rx="2.735" fill="#8c8287"/><path d="M-132.484,292.676H10.476a3.452,3.452,0,0,1,3.444,3.442v94.492H-135.926V296.118A3.453,3.453,0,0,1-132.484,292.676Z" transform="translate(137.944 -290.657)" fill="#f5f5f7" fill-rule="evenodd"/><rect width="138.255" height="84.443" transform="translate(7.813 8.913)" fill="#a5dbe5"/><rect width="138.255" height="14.87" transform="translate(7.813 8.913)" fill="#eec64a"/><rect width="97.267" height="53.234" transform="translate(28.308 28.715)" fill="#f5f5f7"/><path d="M-135.926,341.723H13.92v6.453a3.453,3.453,0,0,1-3.444,3.444H-132.484a3.453,3.453,0,0,1-3.442-3.444Z" transform="translate(137.944 -241.77)" fill="#8c8287" fill-rule="evenodd"/><rect width="40.498" height="19.558" transform="translate(33.193 33.644)" fill="#eec64a"/><rect width="43.665" height="3.949" transform="translate(33.193 55.459)" fill="#eec64a"/><rect width="26.702" height="3.949" transform="translate(63.507 55.459)" fill="#018a9d"/><path d="M-87.118,339.549l1.8-1.02-4.126-7.283,4.967-2.814-7.826-5.8-7.577-5.614-.14-.246.016.154-.125-.092.14.246.919,9.387.95,9.693,5.076-2.876,4.127,7.283,1.8-1.02Z" transform="translate(173.624 -266.638)" fill="#5a3445" fill-rule="evenodd"/><rect width="26.703" height="19.558" transform="translate(93.82 33.644)" fill="#e74037"/><rect width="26.703" height="3.949" transform="translate(93.82 55.459)" fill="#e74037"/><path d="M-103.156,309.618v3.646l-9.887,4.093,9.887,4.14v3.621l-14.35-6.214v-3.136Z" transform="translate(156.304 -273.77)" fill="#f5f5f7" fill-rule="evenodd"/><path d="M-86.857,309.531v3.646l9.888,4.093-9.888,4.14v3.621l14.352-6.215v-3.135Z" transform="translate(186.853 -273.857)" fill="#f5f5f7" fill-rule="evenodd"/><g transform="translate(60.41 13.19)"><path d="M-92.538,309.883a29.373,29.373,0,0,0-2.532,41.461,29.375,29.375,0,0,0,41.463,2.528,29.368,29.368,0,0,0,2.528-41.456A29.369,29.369,0,0,0-92.538,309.883Z" transform="translate(110.906 -294.048)" fill="#f5f5f7" fill-rule="evenodd"/><path d="M-31.787,328.556a37.821,37.821,0,0,1-29.518,44.607,37.825,37.825,0,0,1-44.609-29.518A37.822,37.822,0,0,1-76.4,299.038a37.826,37.826,0,0,1,44.611,29.518Zm-9.53,1.941a28.126,28.126,0,0,0-33.138-21.928,28.123,28.123,0,0,0-21.926,33.138,28.119,28.119,0,0,0,33.136,21.926A28.12,28.12,0,0,0-41.318,330.5Z" transform="translate(106.682 -298.271)" fill="#5a3445" fill-rule="evenodd"/><rect width="9.257" height="19.605" transform="translate(54.764 63.949) rotate(-41.507)" fill="#5a3445"/><path d="M-71.145,335.271h0a10.738,10.738,0,0,0-.922,15.111l39.7,44.859a10.74,10.74,0,0,0,15.113.922v0a10.74,10.74,0,0,0,.922-15.113l-39.7-44.855A10.736,10.736,0,0,0-71.145,335.271Z" transform="translate(138.518 -264.058)" fill="#e1ae15" fill-rule="evenodd"/><path d="M-71.145,335.271h0a10.737,10.737,0,0,0-.922,15.111l16.034-14.189a10.736,10.736,0,0,0-15.111-.922Zm2.166,18.6,16.034-14.189,33.523,37.88-16.034,14.191-33.523-37.882Zm36.608,41.371a10.74,10.74,0,0,0,15.113.922v0a10.738,10.738,0,0,0,.924-15.111Z" transform="translate(138.518 -264.058)" fill="#5a3445" fill-rule="evenodd"/><g transform="translate(24.759 17.291)"><rect width="11.928" height="16.282" transform="translate(6.92 19.333)" fill="#1a2a3a"/><rect width="5.965" height="16.282" transform="translate(6.92 19.333)" fill="#1a2a3a"/><path d="M-85.738,306.93h5.657a6.851,6.851,0,0,1,6.837,6.835v3.3h-3.634v-3.3a3.219,3.219,0,0,0-3.2-3.2h-5.657a3.221,3.221,0,0,0-3.2,3.2v9.1h-3.634v-9.1A6.852,6.852,0,0,1-85.738,306.93Z" transform="translate(95.983 -306.93)" fill="#1a2a3a" fill-rule="evenodd"/><path d="M-91.769,314.409H-81.21v6.757a3.582,3.582,0,0,0-3.582,3.584,3.587,3.587,0,0,0,2.326,3.354v4.175a1.26,1.26,0,0,0,1.256,1.256v7.021H-91.769a2.52,2.52,0,0,1-2.514-2.516V316.923A2.521,2.521,0,0,1-91.769,314.409Z" transform="translate(94.283 -299.475)" fill="#e74037" fill-rule="evenodd"/><path d="M-77.177,314.409H-87.736v6.757a3.584,3.584,0,0,1,3.584,3.584,3.587,3.587,0,0,1-2.326,3.354v4.175a1.261,1.261,0,0,1-1.258,1.256v7.021h10.559a2.52,2.52,0,0,0,2.514-2.516V316.923A2.521,2.521,0,0,0-77.177,314.409Z" transform="translate(100.809 -299.475)" fill="#c5262b" fill-rule="evenodd"/></g></g></g><g transform="translate(2.961 242.073)"><path d="M-100.489,240.532H-53.86l11.992,11.99v64.4h-58.62Z" transform="translate(100.489 -240.532)" fill="#dddde6" fill-rule="evenodd"/><path d="M-77.136,249.53l11.99,11.988V249.53l-5.994-6Z" transform="translate(123.766 -237.54)" fill="#c3c3c9" fill-rule="evenodd"/><path d="M-77.136,240.532l11.99,11.99h-11.99Z" transform="translate(123.766 -240.532)" fill="#a5dbe5" fill-rule="evenodd"/><rect width="21.891" height="2.071" transform="translate(4.06 27.492)" fill="#f5f5f7"/><rect width="7.267" height="2.071" transform="translate(4.06 31.164)" fill="#f5f5f7"/><rect width="21.891" height="2.071" transform="translate(4.06 34.787)" fill="#f5f5f7"/><rect width="21.891" height="2.071" transform="translate(4.06 38.459)" fill="#f5f5f7"/><rect width="26.782" height="2.071" transform="translate(28.244 27.492)" fill="#f5f5f7"/><rect width="26.782" height="2.071" transform="translate(28.244 31.164)" fill="#f5f5f7"/><rect width="26.782" height="2.071" transform="translate(28.244 38.459)" fill="#f5f5f7"/><rect width="7.355" height="2.071" transform="translate(18.596 31.164)" fill="#f5f5f7"/><rect width="5.776" height="2.071" transform="translate(12.03 31.164)" fill="#8c8287"/><rect width="7.267" height="2.071" transform="translate(28.244 34.787)" fill="#f5f5f7"/><rect width="12.248" height="2.071" transform="translate(42.779 34.787)" fill="#f5f5f7"/><rect width="5.776" height="2.071" transform="translate(36.214 34.787)" fill="#8c8287"/><rect width="21.89" height="2.071" transform="translate(33.136 42.302)" fill="#f5f5f7"/><rect width="7.265" height="2.071" transform="translate(47.761 45.974)" fill="#f5f5f7"/><rect width="21.89" height="2.071" transform="translate(33.136 49.597)" fill="#f5f5f7"/><rect width="21.89" height="2.071" transform="translate(33.136 53.269)" fill="#f5f5f7"/><rect width="26.784" height="2.071" transform="translate(4.06 42.302)" fill="#f5f5f7"/><rect width="26.784" height="2.071" transform="translate(4.06 45.974)" fill="#f5f5f7"/><rect width="26.784" height="2.071" transform="translate(4.06 53.269)" fill="#f5f5f7"/><rect width="7.355" height="2.071" transform="translate(33.136 45.974)" fill="#f5f5f7"/><rect width="5.776" height="2.071" transform="translate(41.281 45.974)" fill="#8c8287"/><rect width="7.267" height="2.069" transform="translate(23.576 49.599)" fill="#f5f5f7"/><rect width="12.247" height="2.069" transform="translate(4.06 49.599)" fill="#f5f5f7"/><rect width="5.776" height="2.069" transform="translate(17.098 49.599)" fill="#8c8287"/><rect width="36.418" height="12.109" transform="translate(4.06 12.4)" fill="#14b0bf"/><path d="M-90.526,254.244a2.02,2.02,0,0,1-.6,1.468,1.962,1.962,0,0,1-1.452.605h-2.053v-8.664h2.053a1.96,1.96,0,0,1,1.454.609,2,2,0,0,1,.6,1.46v4.523Zm-2.8.781h.789a.7.7,0,0,0,.525-.226.74.74,0,0,0,.214-.527v-4.533a.739.739,0,0,0-.218-.533.714.714,0,0,0-.521-.222h-.789v6.04Zm5.988-7.468a1.982,1.982,0,0,1,1.466.607,2.007,2.007,0,0,1,.605,1.466v4.724a1.993,1.993,0,0,1-.607,1.466,2,2,0,0,1-1.464.605,1.972,1.972,0,0,1-1.464-.609,2,2,0,0,1-.6-1.462V249.63a1.994,1.994,0,0,1,.607-1.47,1.986,1.986,0,0,1,1.456-.6Zm.709,2.049a.73.73,0,0,0-.216-.529.734.734,0,0,0-.531-.218.734.734,0,0,0-.531.218.71.71,0,0,0-.22.529v4.732a.713.713,0,0,0,.22.529.733.733,0,0,0,.531.216.733.733,0,0,0,.531-.216.733.733,0,0,0,.216-.529v-4.732Zm4.563,6.819a1.988,1.988,0,0,1-1.466-.605,1.982,1.982,0,0,1-.605-1.458V249.64a1.993,1.993,0,0,1,.609-1.47,1.991,1.991,0,0,1,1.462-.605,1.982,1.982,0,0,1,1.464.609,2.01,2.01,0,0,1,.6,1.466v.988h-1.352v-1.016a.733.733,0,0,0-.222-.533.724.724,0,0,0-.529-.22.714.714,0,0,0-.529.22.74.74,0,0,0-.216.533v4.736a.725.725,0,0,0,.216.529.718.718,0,0,0,.529.216.728.728,0,0,0,.529-.216.712.712,0,0,0,.222-.529v-1.194H-80v1.208a1.977,1.977,0,0,1-.607,1.464,2,2,0,0,1-1.456.6Zm7.284-2.256a2.441,2.441,0,0,1-.471,1.546,1.68,1.68,0,0,1-.9.613,2.463,2.463,0,0,1-.723.1,2.058,2.058,0,0,1-1.274-.379,2.155,2.155,0,0,1-.667-.847,3.512,3.512,0,0,1-.288-1.228l1.244-.09a1.881,1.881,0,0,0,.4,1.094.683.683,0,0,0,.539.246.816.816,0,0,0,.683-.421,1.049,1.049,0,0,0,.132-.573,1.6,1.6,0,0,0-.491-1.074c-.26-.244-.643-.607-1.16-1.1a4.871,4.871,0,0,1-.919-1.128,2.617,2.617,0,0,1-.29-1.214,2.121,2.121,0,0,1,.793-1.791,1.988,1.988,0,0,1,1.22-.365,2.2,2.2,0,0,1,1.192.311,1.766,1.766,0,0,1,.627.675,2.439,2.439,0,0,1,.286,1l-1.252.226a1.489,1.489,0,0,0-.306-.825.639.639,0,0,0-.519-.212.593.593,0,0,0-.545.315,1.209,1.209,0,0,0-.152.637,1.893,1.893,0,0,0,.511,1.2,4.111,4.111,0,0,0,.583.555c.3.256.5.431.6.533a4.494,4.494,0,0,1,.747.95,3.833,3.833,0,0,1,.2.409A2.41,2.41,0,0,1-74.783,254.168Z" transform="translate(106.328 -233.53)" fill="#f5f5f7" fill-rule="evenodd"/><g transform="translate(41.863 38.774)"><rect width="12.934" height="17.653" transform="translate(7.501 18.952)" fill="#1a2a3a"/><rect width="6.466" height="17.653" transform="translate(7.501 18.952)" fill="#1a2a3a"/><path d="M-70.26,259.951h6.132a7.431,7.431,0,0,1,7.414,7.414v9.866h-3.94v-9.866a3.488,3.488,0,0,0-3.474-3.472H-70.26a3.488,3.488,0,0,0-3.472,3.472v9.866h-3.942v-9.866A7.431,7.431,0,0,1-70.26,259.951Z" transform="translate(81.366 -259.951)" fill="#1a2a3a" fill-rule="evenodd"/><path d="M-76.8,267.054H-65.35v7.326a3.884,3.884,0,0,0-3.884,3.884,3.883,3.883,0,0,0,2.522,3.638v4.527a1.365,1.365,0,0,0,1.362,1.364v7.61H-76.8a2.733,2.733,0,0,1-2.726-2.726v-22.9A2.733,2.733,0,0,1-76.8,267.054Z" transform="translate(79.523 -252.871)" fill="#e74037" fill-rule="evenodd"/><path d="M-60.976,267.054H-72.425v7.326a3.882,3.882,0,0,1,3.882,3.884,3.884,3.884,0,0,1-2.52,3.638v4.527a1.366,1.366,0,0,1-1.362,1.364v7.61h11.449a2.733,2.733,0,0,0,2.726-2.726v-22.9A2.733,2.733,0,0,0-60.976,267.054Z" transform="translate(86.598 -252.871)" fill="#c5262b" fill-rule="evenodd"/></g></g><g transform="translate(-204.275 395.299)"><rect width="80.765" height="52.477" transform="translate(10.565 2.152)" fill="#f5f5f7"/><path d="M-203.856,346.406l8.991-1.728,82.111-.1,8.383,1.827Z" transform="translate(204.693 -290.05)" fill="#8c8287" fill-rule="evenodd"/><path d="M.418,0h100.32a.419.419,0,0,1,.419.419V5.433a.419.419,0,0,1-.419.419H.419A.419.419,0,0,1,0,5.433V.418A.418.418,0,0,1,.418,0Z" transform="translate(0 56.357)" fill="#5a3445"/><path d="M-198.407,317.27h81.5a1.9,1.9,0,0,1,1.9,1.895V370a1.905,1.905,0,0,1-1.9,1.9h-81.5a1.905,1.905,0,0,1-1.9-1.9V319.165a1.9,1.9,0,0,1,1.9-1.895Zm2.334,4.227V367.67h76.835V321.5Z" transform="translate(208.234 -317.27)" fill="#5a3445" fill-rule="evenodd"/><g transform="translate(16.826 10.252)"><rect width="18.263" height="1.728" fill="#a5dbe5"/><rect width="6.063" height="1.728" transform="translate(0 3.061)" fill="#a5dbe5"/><rect width="18.263" height="1.728" transform="translate(0 6.086)" fill="#a5dbe5"/><rect width="18.263" height="1.728" transform="translate(0 9.149)" fill="#a5dbe5"/><rect width="22.344" height="1.728" transform="translate(20.176)" fill="#a5dbe5"/><rect width="22.344" height="1.728" transform="translate(20.176 3.061)" fill="#a5dbe5"/><rect width="22.344" height="1.728" transform="translate(20.176 9.149)" fill="#a5dbe5"/><rect width="22.344" height="1.728" transform="translate(44.949)" fill="#a5dbe5"/><rect width="22.344" height="1.728" transform="translate(44.949 3.061)" fill="#a5dbe5"/><rect width="22.344" height="1.728" transform="translate(44.949 6.086)" fill="#a5dbe5"/><rect width="22.344" height="1.728" transform="translate(44.949 9.149)" fill="#a5dbe5"/><rect width="6.136" height="1.728" transform="translate(12.128 3.061)" fill="#a5dbe5"/><rect width="4.819" height="1.728" transform="translate(6.649 3.061)" fill="#c3c3c9"/><rect width="6.062" height="1.728" transform="translate(20.176 6.086)" fill="#a5dbe5"/><rect width="10.218" height="1.728" transform="translate(32.303 6.086)" fill="#a5dbe5"/><rect width="4.818" height="1.728" transform="translate(26.825 6.086)" fill="#c3c3c9"/></g><g transform="translate(16.826 27.332)"><rect width="3.955" height="12.251" transform="translate(0 6.565)" fill="#c3c3c9"/><rect width="3.955" height="15.483" transform="translate(5.933 3.334)" fill="#c3c3c9"/><rect width="3.955" height="18.817" transform="translate(11.865)" fill="#c3c3c9"/></g><g transform="translate(34.624 27.332)"><rect width="3.955" height="12.251" transform="translate(17.798 6.565)" fill="#c3c3c9"/><rect width="3.955" height="15.483" transform="translate(11.865 3.334)" fill="#c3c3c9"/><rect width="3.956" height="18.817" transform="translate(5.933)" fill="#c3c3c9"/><rect width="3.956" height="15.247" transform="translate(0 3.57)" fill="#c3c3c9"/></g><g transform="translate(57.591 9.535)"><path d="M-151.226,322.045a63.5,63.5,0,0,1,24.207,4.387c0,25.167-2.059,36.61-24.1,53.842l-.1.082-.1-.082c-22.046-17.232-24.1-28.675-24.1-53.842A63.509,63.509,0,0,1-151.226,322.045Z" transform="translate(175.433 -322.045)" fill="#e74037" fill-rule="evenodd"/><path d="M-173.807,327.044c.144,22.8,2.754,32.773,20.96,47.553,18.208-14.78,20.816-24.75,20.96-47.553a61.509,61.509,0,0,0-20.96-3.377A61.517,61.517,0,0,0-173.807,327.044Z" transform="translate(177.054 -320.427)" fill="#e1ae15" fill-rule="evenodd"/><path d="M-154.551,368.5c14.79-12.586,17.258-21.551,17.547-40.714a59.891,59.891,0,0,0-17.547-2.428,59.91,59.91,0,0,0-17.547,2.428C-171.806,346.954-169.34,355.919-154.551,368.5Z" transform="translate(178.757 -318.738)" fill="#e74037" fill-rule="evenodd"/><path d="M-137.242,331.644l-29.2,29.2-1.176-1.591c-.685-.926-1.334-1.883-1.933-2.867l-.7-1.144,29.782-29.782.958.27c.387.106.773.22,1.158.337l1.226.373-.02,1.282q-.027,1.623-.076,3.249Z" transform="translate(180.601 -318.641)" fill="#e1ae15" fill-rule="evenodd"/><path d="M-139.994,329.963q.051-1.561.074-3.221c-.371-.114-.745-.222-1.12-.327l-28.13,28.132q.842,1.381,1.851,2.742Z" transform="translate(181.675 -317.689)" fill="#e1ae15" fill-rule="evenodd"/></g></g></g></g></svg>