<svg xmlns="http://www.w3.org/2000/svg" width="502" height="353.354" viewBox="0 0 502 353.354"><g transform="translate(-885.3 -662.266)"><g transform="translate(885.3 960.453)"><path d="M1115.606,1234.113a409.05,409.05,0,0,0-44.077,2.03c-5.533.615-10.951,1.969-16.5,2.515-11.078,1.091-21.957,3.126-33.074,4.064-8.952.756-17.942,1.2-26.868,2.16a94.569,94.569,0,0,1-25.938-.794c-6.148-1.1-12.323-1.719-18.368-3.485a75.124,75.124,0,0,0-21.153-3.337c-10.046.072-19.83.081-29.444,3.569-3.375,1.225-7.506,3.238-10.069,5.807-5.867,5.883-6.661,20.562-.8,26.663,9.866,10.269,30.925,14.3,44.755,14.488,15.154.209,29.877-.917,45.054-1.578,14.1-.615,28.17-1.489,42.3-1.458,28.851.063,57.706,0,86.5-1.927,27.058-1.81,54.182-1.189,81.3-1.189,27.807,0,55.426.219,83.032,3.914,12.029,1.61,24.283,2.174,36.371,3.3,10.827,1.01,21.231-.02,32.014-.953a76.41,76.41,0,0,0,26.276-7.041c6.512-3.112,18.12-12.779,20.117-20.207,5.6-20.824-78.9-20.323-91.869-20.277-14.513.053-29.141.53-43.642-.023a102.828,102.828,0,0,1-18.063-2.731c-5.93-1.3-11.9-.97-17.918-1.517-25.078-2.28-50.21-1.947-75.368-1.947C1131.987,1234.161,1123.8,1234.089,1115.606,1234.113Z" transform="translate(-885.3 -1234.108)" fill="#e2e2e2" opacity="0.4"/></g><g transform="translate(946.689 662.266)"><g transform="translate(37.219 142.767)"><path d="M1162.641,936.072a2.551,2.551,0,0,0-.432.081c-1.324.375-1.6,1.722-2.64,2.366-.464.287-2.078.054-1.911.943.064.327.186,1.449.378,2.565-.185.925-.328,1.86-.6,2.763-.686,2.286-4.827,6.306-2.445,8.556a5.363,5.363,0,0,0,1.518,1.127,4.629,4.629,0,0,0,1.519.3c.4.026,1.036.163,1.333-.1.311-.272.491-1.3.641-1.694l1.288-3.4c.421-1.112,1.021-2.383,2.188-2.61a5.8,5.8,0,0,0,.768-.127,2.038,2.038,0,0,0,.717-.5,13.952,13.952,0,0,0,2.1-2.472c1.047-1.62-.146-4.4-.7-6a2.833,2.833,0,0,0-.592-1.107,3.025,3.025,0,0,0-1.91-.65A6.048,6.048,0,0,0,1162.641,936.072Z" transform="translate(-1112.62 -936.054)" fill="#efbbbb"/><path d="M1108.768,986.508a74.22,74.22,0,0,0,13.489-14.846c1.469-2.138,4.284-5.181,3.028-7.918-1.289-2.809-7.259-4.291-9.941-4.888-4.667,7.843-12.687,21.863-23.807,13.97-2.9-2.06-5.032-5.576-8.545-6.149a6.923,6.923,0,0,0-6.046,2.31c-5.925,6.489-.309,14.211,4.82,19.041,5.423,5.106,14.133,6.127,20.8,2.791a30.231,30.231,0,0,0,5.508-3.737Q1108.423,986.8,1108.768,986.508Z" transform="translate(-1074.403 -946.966)" fill="#eed5d5"/></g><g transform="translate(0 14.234)"><ellipse cx="37.219" cy="37.366" rx="37.219" ry="37.366" fill="#d67086"/><g transform="translate(12.334 10.563)"><path d="M1069.929,744.513a7.29,7.29,0,0,0-6.582,4.168l-15.724-2.131a10.441,10.441,0,0,0-3.363-7.23l8.89-12.841a8.693,8.693,0,1,0-3.389-2.571l-9.15,13.216a10.469,10.469,0,1,0,6.28,13.756l15.865,2.149a7.279,7.279,0,1,0,7.173-8.518Z" transform="translate(-1026.682 -709.819)" fill="#fff"/></g></g><g transform="translate(232.634 150.125)"><path d="M1451.918,950.253a2.45,2.45,0,0,1,.422-.079c1.339-.127,2.067,1,3.242,1.22.524.1,1.912-.687,2.074.182.057.321.344,1.385.564,2.471.5.777.957,1.578,1.524,2.3,1.434,1.84,6.63,4.034,5.257,6.927a5.249,5.249,0,0,1-.983,1.564,4.517,4.517,0,0,1-1.279.807c-.358.166-.886.516-1.248.385-.38-.137-.906-1.008-1.184-1.316l-2.377-2.642c-.777-.864-1.773-1.808-2.917-1.6a5.619,5.619,0,0,1-.745.156,1.992,1.992,0,0,1-.829-.2,13.646,13.646,0,0,1-2.789-1.508c-1.527-1.105-1.424-4.057-1.486-5.714a2.783,2.783,0,0,1,.147-1.219,2.962,2.962,0,0,1,1.51-1.269A5.937,5.937,0,0,1,1451.918,950.253Z" transform="translate(-1449.157 -950.164)" fill="#efbbbb"/><path d="M1488.208,989.435a16.715,16.715,0,0,1-4.393-.731,14.95,14.95,0,0,1-3.128-1.686,71.1,71.1,0,0,1-16.279-14.8,26.357,26.357,0,0,1,7.285-7.314,114.057,114.057,0,0,0,15.126,9.99,13.816,13.816,0,0,0,3.395,1.47,14.708,14.708,0,0,0,5.316-.046l20.562-2.692c4.135-.542,8.425-1.072,12.408.164,11.045,3.426,8.349,17.8-2.408,18.634C1514.013,993.362,1500.321,990.355,1488.208,989.435Z" transform="translate(-1456.456 -957.219)" fill="#d67086"/></g><g transform="translate(8.43 121.504)"><path d="M1060.658,1291.419l-.261,3.022-1.995,2.457s-.573,3.687.518,4.334,18.108,2.668,18.108,2.668l1.754-2.617-1.406-2.888-8.995-4.114-3.089-3.431Z" transform="translate(-1037.886 -1084.579)" fill="#292949"/><path d="M1094.8,1278.9l-.26,3.022-1.966,2.46s-.568,3.687.5,4.333,17.813,2.642,17.813,2.642l1.729-2.618-1.38-2.886-8.844-4.1-3.035-3.426Z" transform="translate(-1054.239 -1078.582)" fill="#292949"/><path d="M1049.427,1142.8c1.461,3.074,2.777,5.863,3.015,9.823.234,3.895-.494,7.773-1.046,11.635-1.91,13.366-1.722,26.931-1.531,40.432q6.985.3,13.979.29a2.169,2.169,0,0,0,2.6-2.919c-1.07-9.592-.995-19.3-.851-28.932a66.123,66.123,0,0,1,1.208-13.385,50.439,50.439,0,0,0,.482-13.876c-.764-11.295-3.052-22.38-3.683-33.67-.114-2.047-.308-4.249-1.633-5.814-1.593-1.881-4.324-2.266-6.79-2.265-6.778,0-14.427,1.073-14.768,9.293a25.41,25.41,0,0,0,1.375,8.074,166.978,166.978,0,0,0,6.1,17.924C1048.388,1140.613,1048.917,1141.722,1049.427,1142.8Z" transform="translate(-1029.34 -995.217)" fill="#292949"/><path d="M1086.5,1133.072c1.393,3.143,2.646,5.993,2.695,9.96.048,3.9-.926,7.738-1.711,11.569-2.717,13.255-3.217,26.813-3.711,40.306q7.4.648,14.831.98a3.209,3.209,0,0,0,2.384-.531,2.759,2.759,0,0,0,.526-2.256c-.8-11.986-1.7-24.01-.852-35.992.323-4.586.9-9.154,1.159-13.743a150.479,150.479,0,0,0-1.3-26.763c-.671-5.468.28-17.174-5.253-20.484a13.044,13.044,0,0,0-8.6-1.271,11.243,11.243,0,0,0-4.247,1.414,9.17,9.17,0,0,0-3.98,7.014,23.984,23.984,0,0,0,1.044,8.132,159.667,159.667,0,0,0,5.553,18.2C1085.511,1130.839,1086.015,1131.973,1086.5,1133.072Z" transform="translate(-1047.516 -990.682)" fill="#292949"/><path d="M1043.587,969.648a19.431,19.431,0,0,0-7.34,14.18c-.418,6.825-2.194,13.684-2.785,20.537a198.68,198.68,0,0,0,.742,40.656c.178,1.493.454,3.161,1.668,4.049,1.374,1,3.285.549,4.918.068a240.69,240.69,0,0,1,39.309-8.079c.8-.094-2.606-32.126-2.954-35.058-1.241-10.44-3.2-21.285-9.846-29.828a24.806,24.806,0,0,0-10.646-8.377A13.4,13.4,0,0,0,1043.587,969.648Z" transform="translate(-1025.684 -929.541)" fill="#eed5d5"/><path d="M1072.984,918.468c.174,2.755.307,5.694-1.07,8.087-1.174,2.039-3.263,3.352-4.868,5.072a7.206,7.206,0,0,0-1.974,3.853c-.18,1.424.585,2.638.576,4.062a.833.833,0,0,1-.069.39.73.73,0,0,1-.316.279,4.5,4.5,0,0,1-2.142.367,21.591,21.591,0,0,1-2.667.016c-1.121-.137-.893-.364-1-1.506a22,22,0,0,0-.938-5.041c-1.135-3.358-3.549-6.226-4.233-9.744-.757-3.893.374-7.709,1.609-11.411a13.636,13.636,0,0,1,2.294-4.671c2.494-2.914,8.344-3.845,11.14-.867C1072.648,910.892,1072.689,913.793,1072.984,918.468Z" transform="translate(-1035.87 -900.182)" fill="#efbbbb"/><path d="M1082.716,916.411a8.621,8.621,0,0,1,.734,8.737c2.105-1.469,3.1-4.086,3.52-6.617a15.178,15.178,0,0,0,.172-4.218c-.5-4.429-4.016-8.522-8.434-9.11-2.923-.388-2.911,3.337-1.772,5.15C1078.433,912.738,1081.069,914.153,1082.716,916.411Z" transform="translate(-1046.486 -900.014)" fill="#292949"/><path d="M1047.684,898.151a10.312,10.312,0,0,0-5.338-.674c-2.479.212-7.465.944-10.409,2.79-1.66-3.551-6.453-6.234-9.95-4.392a4.006,4.006,0,0,0-1.989,5.261,3.745,3.745,0,0,0,1.012,1.231,10.315,10.315,0,0,1,1.12.85c1.19,1.247.089,3.016-.787,4.427a14.883,14.883,0,0,0-2,5.079,4.718,4.718,0,0,0,.2,2.982,3.065,3.065,0,0,0,2.793,1.668c2.225-.1,2.673-1.991,2.788-3.713a14.254,14.254,0,0,1,1.366-5.571,2.683,2.683,0,0,1,1.507-1.584,1.6,1.6,0,0,1,.419-.051,12.008,12.008,0,0,0-.5,5.179,21.819,21.819,0,0,0,4.122,10.208,17.316,17.316,0,0,0,8.986,6.234c.253-2.261-2.132-3.973-2.566-6.207a5.108,5.108,0,0,1,.77-3.53,15.178,15.178,0,0,1,2.38-2.814l4.495-4.514a22.835,22.835,0,0,0,3.37-3.942C1051.328,904.074,1051.242,899.854,1047.684,898.151Z" transform="translate(-1019.195 -895.278)" fill="#292949"/></g><g transform="translate(77.241 11.946)"><circle cx="88.237" cy="88.237" r="88.237" fill="#353a85"/><g transform="translate(11.375 9.87)"><path d="M1320.651,751.965a78.2,78.2,0,0,0-16.47-24.909,76.533,76.533,0,0,0-24.43-16.793,75.741,75.741,0,0,0-59.839,0,76.533,76.533,0,0,0-24.43,16.793,78.2,78.2,0,0,0-16.471,24.909,80.029,80.029,0,0,0,0,61.01,78.2,78.2,0,0,0,16.471,24.908,76.532,76.532,0,0,0,24.43,16.793,75.741,75.741,0,0,0,59.839,0,76.532,76.532,0,0,0,24.43-16.793,78.2,78.2,0,0,0,16.47-24.908,80.027,80.027,0,0,0,0-61.01Zm-1.694,30.5a72.28,72.28,0,0,1-1.988,16.891h-23.1a90.565,90.565,0,0,0,2.082-19.307,87.429,87.429,0,0,0-1.844-17.968h21.933A72.029,72.029,0,0,1,1318.957,782.47Zm-20.246-49.837a70.507,70.507,0,0,1,14.481,21.567h-21.142q-1.162-3.718-2.664-7.329A91.014,91.014,0,0,0,1275.01,723.4a99.346,99.346,0,0,0-9.126-9.514A68.343,68.343,0,0,1,1298.711,732.633ZM1253.7,714a89.688,89.688,0,0,1,15.433,14.532,83.125,83.125,0,0,1,13.135,21.424q.876,2.1,1.622,4.246H1253.7Zm32.475,48.089a79.172,79.172,0,0,1,2.038,17.968,82.6,82.6,0,0,1-2.29,19.307H1253.7V762.086Zm-73.7,17.968a79.172,79.172,0,0,1,2.038-17.968h31.452v37.275h-31.2A82.637,82.637,0,0,1,1212.472,780.054Zm33.491-65.285V754.2H1216.8q.719-2.061,1.554-4.085a83,83,0,0,1,13.022-21.369A90.543,90.543,0,0,1,1245.963,714.769Zm-45.012,17.864a68.287,68.287,0,0,1,34.2-19.057,99.333,99.333,0,0,0-9.472,9.828A91.009,91.009,0,0,0,1211.3,746.87q-1.5,3.61-2.663,7.329H1186.47A70.512,70.512,0,0,1,1200.951,732.633Zm-17.326,29.453h22.956a87.471,87.471,0,0,0-1.843,17.968,90.6,90.6,0,0,0,2.081,19.307h-24.127a72.667,72.667,0,0,1,.933-37.275Zm17.326,70.221a70.443,70.443,0,0,1-15.872-25.059h23.829q1.052,3.366,2.364,6.681a105.87,105.87,0,0,0,14.287,25.047,118.1,118.1,0,0,0,11.232,12.728A68.23,68.23,0,0,1,1200.951,832.307Zm30.718,1.832a97.956,97.956,0,0,1-13.226-23.167q-.734-1.853-1.38-3.725h28.9v42.316A109.055,109.055,0,0,1,1231.669,834.139Zm22.03,16.31v-43.2h29.922q-.619,1.8-1.322,3.579a97.78,97.78,0,0,1-13.127,23.108A108.709,108.709,0,0,1,1253.7,850.449Zm45.013-18.142a68.274,68.274,0,0,1-34.55,19.135,118.191,118.191,0,0,0,10.965-12.465,105.87,105.87,0,0,0,14.287-25.047q1.314-3.313,2.364-6.681h22.807A70.445,70.445,0,0,1,1298.711,832.307Z" transform="translate(-1172.969 -704.103)" fill="#fff"/></g></g><g transform="translate(264.874 130.859)"><g transform="translate(35.941 99.815)"><g transform="translate(41.372 88.272)"><path d="M1671.561,1281.86a30.456,30.456,0,0,1-2.865,2.6,59.8,59.8,0,0,1-9.446-9.294c2.584-.306,3.1-2.546,6.075-.158C1666.29,1275.779,1669.895,1280.76,1671.561,1281.86Z" transform="translate(-1659.25 -1273.917)" fill="#efbbbb"/><path d="M1669.73,1288.788a1.976,1.976,0,0,0-.7,1.824,5.224,5.224,0,0,1,.054,1.269,2.966,2.966,0,0,1-.591,1.079c-1.414,1.9-5.149,5.859-.279,6.376,4.422.469,8.072-5.658,10.07-9.3a1.392,1.392,0,0,0,.27-.755,1.9,1.9,0,0,0-.318-.842c-.937-1.476-2.07-3.36-3.99-2.3-.819.451-.934,1.448-1.8,1.922C1671.724,1288.448,1670.38,1288.288,1669.73,1288.788Z" transform="translate(-1662.377 -1279.618)" fill="#292949"/></g><path d="M1615.035,1127.092c.554,8.792-7.235,21.653-4.99,28.82,4.7,14.992,9.624,23.561,18.2,35.437.613.849,2.641,2.746,3.514,3.82a45.875,45.875,0,0,1-7.24,6.973c-12.565-10.717-23.777-17.651-31.89-34.03-6.413-12.948-8.67-33.966-12.009-49.238-.553-2.53-1.393-6.177.281-8.479,1.284-1.765,3.095-2.537,5.387-3.092,6.136-1.486,14.526-4.7,20.285-.827C1612.867,1110.711,1614.61,1120.337,1615.035,1127.092Z" transform="translate(-1579.91 -1104.636)" fill="#5d66d3"/></g><g transform="translate(0 98.187)"><g transform="translate(0 92.33)"><path d="M1531.842,1292.226c-1.323.273-2.654.14-3.978.284a64.806,64.806,0,0,1-1.958-13.933c2.325,1.524,4.085.092,4.979,4.014C1531.174,1283.861,1531.106,1290.242,1531.842,1292.226Z" transform="translate(-1518.125 -1278.578)" fill="#efbbbb"/><path d="M1519.885,1300.576a2.09,2.09,0,0,0-1.7,1.05,9.566,9.566,0,0,1-.7,1.086,2.331,2.331,0,0,1-1.123.488c-2.324.576-7.748,1.4-4.209,4.845,3.214,3.129,9.885.567,13.745-1.051a1.485,1.485,0,0,0,.7-.43,1.9,1.9,0,0,0,.276-.865c.205-1.728.486-4.016-1.687-4.382-.927-.157-1.7.561-2.7.384C1521.677,1301.555,1520.713,1300.575,1519.885,1300.576Z" transform="translate(-1510.985 -1289.105)" fill="#292949"/></g><path d="M1559.264,1138.083c-6.359,6.35-24.559,11.011-27.52,18.32-1.188,2.932-5.1,24.615-5.692,39.881-.042,1.091.457,3.935.468,5.377-3.391.972-6.44.769-10.1,1.026-2.67-17.591-5.439-48.4-5.439-48.4,3.617-15.385,21.076-33.027,30.765-46.887,1.6-2.3,3.481-5.44,6.361-5.826,2.209-.3,3.953.484,5.939,1.775,5.314,3.456,13.444,7.306,14.621,14.19C1569.959,1125.068,1564.151,1133.2,1559.264,1138.083Z" transform="translate(-1510.985 -1101.514)" fill="#5d66d3"/></g><path d="M1572.191,982.149c5.845,5.134,10.7,12.409,14.121,20.358,6.057,14.077,8.375,30.171,10.607,45.952q1.115,7.878,2.229,15.757c.732,5.168.55,6.367-3.682,6.747-7.842.7-16.11.6-23.7-2.243-3.612-1.354-7.088-3.343-10.795-4.187-5.391-1.229-10.4,1.24-15.617.879.543-5.52,1.774-10.748,1.9-16.424a155.7,155.7,0,0,0-.735-17c-.87-9.859-1.323-19.766-2.135-29.6-.581-7.045-2.046-12.561,2.76-18.513,2.616-3.24,7.412-8.867,11.75-8.791C1563.493,975.159,1568.924,979.28,1572.191,982.149Z" transform="translate(-1526.645 -942.82)" fill="#d67086"/><g transform="translate(16.28 10.319)"><path d="M1545.924,952.788a41.6,41.6,0,0,0,5.444,3.743,12.371,12.371,0,0,1,3.846,4.344c.772,1.3,1.706,2.182,3.471,1.744,3.329-.827,1.376-3.063,1.325-5.245-.058-2.494.993-4.908,1.43-7.332,1.261-7-4.206-17.62-12.473-17.012C1539.927,933.7,1541.059,948.192,1545.924,952.788Z" transform="translate(-1542.206 -933.006)" fill="#efbbbb"/></g><path d="M1548.853,931.255a2.261,2.261,0,0,1,.9,2.8c-.269.51-.767.864-1.075,1.352-.9,1.431.148,3.333,1.473,4.386s2.986,1.781,3.88,3.219c4.506-3.651,7.955-8.941,8.27-14.733a14.545,14.545,0,0,0-4.548-11.365c-3.653-3.322-7.347-3.14-12.1-3.545a15.581,15.581,0,0,0-5.85.242c-1.711.52-3.2,1.615-4.892,2.188-2.806.948-6.371.6-8.178,2.95a5.233,5.233,0,0,0-.531,4.9,11.906,11.906,0,0,0,2.915,4.183,34.354,34.354,0,0,0,5.318,4.407c-.909-.611,2.242-4.124,2.96-4.279,1.7-.364,4.382,1.562,6.119,1.977C1545.186,930.339,1547.372,930.3,1548.853,931.255Z" transform="translate(-1518.092 -913.217)" fill="#292949"/></g><g transform="translate(171.93 140.187)"><path d="M1333.37,935.5,1360.8,1048.98l22.285-22.435,26.495,34.565,12.646-9.693,12.646-9.693-26.495-34.565,27.455-15.691Z" transform="translate(-1333.043 -933.207)" fill="#292949"/><path d="M1436.334,1037.836l-8.941-11.664-14.263-18.608-2.506-3.27,23-13.148,3.434-1.963c.818-.467.438-1.6-.224-1.966l-10.21-5.577-24.511-13.39-29.539-16.136-25.546-13.954-8.479-4.632c-1.323-.723-2.632-1.542-4-2.184-.061-.028-.118-.065-.177-.1a.931.931,0,0,0-1.115.091.887.887,0,0,0-.485,1.087l2.733,11.308,6.562,27.149,7.908,32.717,6.838,28.294c1.113,4.606,2.214,9.216,3.34,13.819.016.065.031.131.047.2a1.164,1.164,0,0,0,2.034.583l19.5-19.629,1.776-1.788,8.139,10.619,14.263,18.608,3.29,4.292a1.163,1.163,0,0,0,1.6.231l20.137-15.435,5.155-3.951A1.163,1.163,0,0,0,1436.334,1037.836Zm-21.74,15.2-4.256,3.263-8.236-10.745-14.263-18.607-3.29-4.293a1.165,1.165,0,0,0-1.814-.027l-19.5,19.629-1.264,1.273q-1.111-4.6-2.222-9.192l-6.562-27.148q-3.953-16.358-7.907-32.717l-6.839-28.294q-1.408-5.825-2.814-11.65l8.036,4.39,24.511,13.39,29.54,16.136L1423.26,982.4l8.479,4.632c.725.4,1.465.871,2.218,1.305l-22.288,12.738-3.434,1.963a1.155,1.155,0,0,0-.231,1.6l8.941,11.665,14.264,18.608,2.6,3.394Z" transform="translate(-1332.743 -931.106)" fill="#fff"/></g><g transform="translate(234.795 179.291)"><path d="M1453.49,1104.168a2.414,2.414,0,0,1,.149-.4c.578-1.214,1.921-1.26,2.711-2.157.352-.4.392-1.993,1.221-1.687.3.115,1.365.416,2.41.784.921-.027,1.845-.012,2.76-.125,2.315-.287,6.865-3.62,8.644-.957a5.231,5.231,0,0,1,.837,1.647,4.524,4.524,0,0,1,.037,1.512c-.041.392-.013,1.025-.31,1.268a5.528,5.528,0,0,1-1.737.341l-3.487.685c-1.141.224-2.462.594-2.873,1.681a5.514,5.514,0,0,1-.248.719,1.987,1.987,0,0,1-.6.609,13.621,13.621,0,0,1-2.726,1.62c-1.732.744-4.213-.86-5.667-1.657a2.777,2.777,0,0,1-.97-.752,2.959,2.959,0,0,1-.314-1.947A5.913,5.913,0,0,1,1453.49,1104.168Z" transform="translate(-1453.301 -1050.364)" fill="#efbbbb"/><path d="M1507.975,1051.506a16.7,16.7,0,0,1-2.882,3.395,14.938,14.938,0,0,1-3.052,1.82,71.1,71.1,0,0,1-21.054,6.378,26.351,26.351,0,0,1-2.54-10.005,114.072,114.072,0,0,0,16.337-7.856,13.807,13.807,0,0,0,3-2.159,14.7,14.7,0,0,0,2.688-4.586l8.242-19.03c1.657-3.827,3.4-7.78,6.508-10.565,8.609-7.722,19.563,1.97,14.757,11.629C1524.588,1031.372,1514.981,1041.581,1507.975,1051.506Z" transform="translate(-1465.335 -1006.097)" fill="#d67086"/></g><g transform="translate(255.075)"><circle cx="46.053" cy="46.053" r="46.053" fill="#5d66d3"/><g transform="translate(13.877 20.698)"><path d="M1583.248,721.379A15.009,15.009,0,0,0,1566.4,714.5c-.012,0-.024,0-.036.006a6.839,6.839,0,0,0-4.321,4.409.4.4,0,0,1-.76-.215,7.591,7.591,0,0,1,4.526-4.827c-2.256-7.287-9.124-12.449-16.671-11.874a16.779,16.779,0,0,0-14.9,13.77,9.765,9.765,0,0,1,1.831.64,12.575,12.575,0,0,1,5.5,5.286.4.4,0,0,1-.68.408,13.061,13.061,0,0,0-1.5-2.106,10.423,10.423,0,0,0-8.273-3.689,13.345,13.345,0,0,0-8.8,4.3,13.618,13.618,0,0,0-3.471,10.214,13.248,13.248,0,0,0,5.078,9.315,15.659,15.659,0,0,0,9.111,3.111c2.172.085,4.347.117,6.521.147,6.213.087,12.427.111,18.641.128q4.095.011,8.189.014a35.328,35.328,0,0,0,6.812-.251,14.957,14.957,0,0,0,11.972-15.885A14.74,14.74,0,0,0,1583.248,721.379Z" transform="translate(-1518.804 -701.958)" fill="#fff"/></g></g><g transform="translate(59.805 165.827)"><circle cx="35.075" cy="35.075" r="35.075" transform="translate(0 49.603) rotate(-45)" fill="#5d66d3"/><path d="M1213.971,1048.745a7.68,7.68,0,0,0-6.565-3.794c-.6-.007-1.2,0-1.8,0h-9.373c-2.337,0-4.675-.008-7.012,0a7.692,7.692,0,0,0-5.619,2.378,7.948,7.948,0,0,0-2.057,5.416h-3.8c-2.337,0-4.675-.008-7.012,0a7.691,7.691,0,0,0-5.619,2.378,8.006,8.006,0,0,0-2.064,5.614v4.547a17.615,17.615,0,0,0,.226,4.139,7.645,7.645,0,0,0,5.359,5.468,11.384,11.384,0,0,0,3.026.264h17.26a7.39,7.39,0,0,0,7.459-6.611h0l0-.049c.046-.374.075-.752.09-1.135h10.931a7.657,7.657,0,0,0,6.671-3.99,9.96,9.96,0,0,0,.9-4.849v-4.862A9.445,9.445,0,0,0,1213.971,1048.745Zm-24.458,7.443.044.009c.2.043.4.086.593.144.1.029.191.065.287.094l.081.023.066.035c.221.115.439.227.65.362.025.016.2.146.24.166s.083.067.122.1a5.864,5.864,0,0,1,.665.692l.008.009.035.059c.076.128.162.249.236.377.055.1.3.639.233.455a6.239,6.239,0,0,1,.207.668c.025.1.046.206.065.31-.006-.012.028.247.031.308.058,1.085.008,2.184.008,3.271v.676h-3.508c-.155,0-.309,0-.464,0-.18,0-.36-.011-.54-.027.088,0-.442-.088-.543-.116-.146-.039-.288-.092-.433-.135l-.059-.017-.02-.01a9.309,9.309,0,0,1-.841-.475c-.022-.013-.07-.048-.1-.071-.084-.069-.166-.141-.246-.215-.182-.168-.345-.349-.509-.535l-.047-.052c-.011-.02-.024-.043-.043-.075-.051-.084-.11-.165-.161-.249q-.117-.191-.218-.39c-.031-.062-.06-.125-.089-.187l-.009-.022a6.538,6.538,0,0,1-.234-.8c-.011-.052-.019-.1-.029-.156,0-.009-.03-.276-.032-.312-.009-.166-.008-.331-.008-.5,0-1.15,0-2.3,0-3.45h3.969C1189.117,1056.16,1189.314,1056.17,1189.512,1056.188Zm3.551,11.867c0,.02,0,.038,0,.054l-.006.031a9.334,9.334,0,0,1-.251.956c-.007.022-.026.069-.04.105-.048.1-.1.206-.154.307-.1.177-.2.345-.316.511-.007,0-.154.206-.179.234-.065.073-.132.146-.2.216-.1.106-.21.208-.321.305-.045.04-.092.078-.138.116l-.04.029a6.946,6.946,0,0,1-.7.42c-.046.023-.094.045-.142.067-.028.007-.251.1-.282.105a7.349,7.349,0,0,1-.737.189l-.083.019-.078,0c-.158.005-.315.017-.473.019h-17.833c-.154,0-.309,0-.463,0-.18,0-.36-.011-.54-.027.088,0-.442-.088-.543-.116-.147-.039-.288-.092-.434-.135l-.059-.017-.019-.009a9.588,9.588,0,0,1-.841-.476c-.022-.013-.07-.048-.1-.071q-.126-.1-.246-.215c-.182-.168-.345-.349-.509-.534l-.047-.053c-.01-.019-.024-.043-.043-.074-.051-.084-.109-.165-.161-.249q-.116-.191-.217-.39c-.032-.062-.061-.125-.09-.187l-.008-.022a6.532,6.532,0,0,1-.234-.8c-.011-.052-.02-.1-.029-.156,0-.009-.031-.276-.032-.312-.009-.166-.008-.331-.008-.5,0-1.339,0-2.678,0-4.017,0-1.074-.029-2.151,0-3.225,0-.105.013-.21.017-.314,0-.034,0-.061,0-.083s.012-.047.019-.078c.058-.248.109-.495.189-.737.011-.033.114-.292.1-.284.033-.069.067-.138.1-.206.058-.11.118-.218.183-.324.026-.043.23-.333.235-.354a5.545,5.545,0,0,1,.418-.455c.088-.087.181-.166.272-.249.025-.022.078-.062.12-.093a6.458,6.458,0,0,1,.569-.354c.094-.051.19-.1.286-.144-.025.017.285-.1.341-.121a6.024,6.024,0,0,1,.732-.177c.035,0,.074-.009.095-.01.158-.005.315-.017.474-.019h10.911v.073h-.014v.219l.014,0v1.035a17.608,17.608,0,0,0,.226,4.139,7.643,7.643,0,0,0,5.358,5.468,11.385,11.385,0,0,0,3.026.264h2.935c0,.073,0,.147,0,.22C1193.08,1067.74,1193.069,1067.9,1193.063,1068.054Zm18.5-12.576c0,1.363,0,2.726,0,4.089,0,.073,0,.146,0,.22,0,.158-.014.315-.019.473,0,.02,0,.038,0,.054l-.006.031a9.2,9.2,0,0,1-.251.956c-.007.022-.025.069-.04.105-.048.1-.1.207-.153.307-.1.177-.2.345-.316.511-.008,0-.154.206-.179.234-.065.074-.132.146-.2.216q-.155.159-.321.305c-.045.04-.092.078-.138.116l-.04.029a6.891,6.891,0,0,1-.7.42c-.046.024-.094.045-.142.067-.028.007-.25.1-.281.105a7.4,7.4,0,0,1-.738.189l-.083.019-.078,0c-.158.005-.315.017-.474.019H1196.5v-2.5a9.439,9.439,0,0,0-1.01-4.914,7.679,7.679,0,0,0-6.565-3.794c-.6-.007-1.2,0-1.8,0h-2.171c0-.126,0-.253,0-.379,0-.105.013-.21.017-.315,0-.033,0-.06,0-.083s.012-.046.019-.078c.058-.248.109-.495.189-.737.011-.033.114-.292.105-.284q.049-.1.1-.205c.058-.11.118-.218.183-.324.026-.043.229-.333.235-.354a5.653,5.653,0,0,1,.418-.456c.088-.086.181-.166.272-.249.025-.022.078-.062.12-.093a6.461,6.461,0,0,1,.569-.354c.094-.051.19-.1.287-.144-.025.018.284-.1.341-.12a5.975,5.975,0,0,1,.732-.177c.035,0,.074-.009.095-.01.158-.005.315-.017.474-.019h.11c.273,0,.545,0,.818,0h16.387c.284,0,.568,0,.852,0h.127c.2,0,.4.012.595.03l.043.009c.2.043.4.086.593.144.1.029.191.065.288.094l.08.023.066.035c.221.115.439.227.65.363.025.016.2.146.24.166s.082.067.122.1a5.907,5.907,0,0,1,.665.691l.008.009.035.059c.076.128.162.249.236.378.055.1.3.639.233.455a6.488,6.488,0,0,1,.207.668c.024.1.046.206.065.31-.006-.012.028.247.031.308C1211.617,1053.293,1211.567,1054.392,1211.567,1055.478Z" transform="translate(-1139.405 -1011.224)" fill="#fff"/></g><g transform="translate(323.622 98.685)"><circle cx="21.725" cy="21.725" r="21.725" fill="#eed5d5"/></g><g transform="translate(22.622 164.051)"><path d="M1143.929,1085.953a2.456,2.456,0,0,0-.1-.418c-.422-1.277-1.749-1.489-2.421-2.477-.3-.441-.14-2.027-1-1.826-.317.077-1.407.242-2.489.478-.911-.141-1.829-.241-2.723-.468-2.261-.573-6.36-4.447-8.457-2.027a5.256,5.256,0,0,0-1.037,1.53,4.531,4.531,0,0,0-.224,1.495c-.008.395-.116,1.019.15,1.3s1.287.425,1.681.554l3.375,1.114c1.1.365,2.369.9,2.641,2.026a5.626,5.626,0,0,0,.156.745,1.993,1.993,0,0,0,.518.679,13.676,13.676,0,0,0,2.5,1.947c1.626.953,4.287-.329,5.829-.939a2.77,2.77,0,0,0,1.057-.625,2.962,2.962,0,0,0,.554-1.892A5.912,5.912,0,0,0,1143.929,1085.953Z" transform="translate(-1084.235 -1025.47)" fill="#efbbbb"/><path d="M1065.029,1023.733a16.7,16.7,0,0,0,2.437,3.727,14.951,14.951,0,0,0,2.8,2.186,71.1,71.1,0,0,0,20.1,8.953,26.363,26.363,0,0,0,3.767-9.611,114.026,114.026,0,0,1-15.23-9.831,13.8,13.8,0,0,1-2.711-2.516,14.708,14.708,0,0,1-2.1-4.885l-5.806-19.908c-1.168-4-2.407-8.144-5.141-11.294-7.579-8.734-19.656-.484-16.091,9.7C1051.056,1001.686,1059.315,1013.013,1065.029,1023.733Z" transform="translate(-1046.41 -976.871)" fill="#eed5d5"/></g></g></g></svg>