<svg xmlns="http://www.w3.org/2000/svg" width="436.891" height="436.891"><defs><style>.cls-3{fill:#38312a}.cls-4{fill:#ff002f}.cls-5{fill:#fff}</style></defs><g id="Zoom" transform="translate(-813 -3025)"><g id="Symbol_20_63" data-name="Symbol 20 – 63" transform="translate(196.631 2938.945)"><circle id="Ellipse_1742" cx="152.003" cy="152.003" r="152.003" data-name="Ellipse 1742" transform="translate(682.811 152.497)" style="opacity:.204;fill:#d5d7db"/><circle id="Ellipse_1743" cx="218.445" cy="218.445" r="218.445" data-name="Ellipse 1743" transform="translate(616.369 86.055)" style="opacity:.152;fill:#d5d7db"/></g><g id="Group_3849" data-name="Group 3849" transform="translate(707.158 2899.478)"><g id="Group_3845" data-name="Group 3845" transform="translate(287.661 240.522)"><g id="Group_3842" data-name="Group 3842"><path id="Path_39099" d="M257.453 251.943a18.232 18.232 0 0 1-.629 5.081 10.473 10.473 0 0 1-1.741 3.563 7.031 7.031 0 0 1-2.641 2.1 7.917 7.917 0 0 1-3.309.693 7.823 7.823 0 0 1-3.293-.693 7 7 0 0 1-2.619-2.1 10.5 10.5 0 0 1-1.727-3.563 21.135 21.135 0 0 1 0-10.165 10.489 10.489 0 0 1 1.727-3.56 6.919 6.919 0 0 1 2.619-2.1 7.921 7.921 0 0 1 3.293-.681 8.017 8.017 0 0 1 3.309.681 6.952 6.952 0 0 1 2.641 2.1 10.462 10.462 0 0 1 1.741 3.56 18.237 18.237 0 0 1 .629 5.084zm-4.914 0a20.279 20.279 0 0 0-.29-3.8 7.843 7.843 0 0 0-.774-2.329 2.8 2.8 0 0 0-1.1-1.157 2.688 2.688 0 0 0-1.245-.315 2.637 2.637 0 0 0-1.234.315 2.748 2.748 0 0 0-1.077 1.157 7.961 7.961 0 0 0-.751 2.329 25.506 25.506 0 0 0 0 7.607 8.042 8.042 0 0 0 .751 2.325 2.758 2.758 0 0 0 1.077 1.168 2.637 2.637 0 0 0 1.234.315 2.688 2.688 0 0 0 1.245-.315 2.8 2.8 0 0 0 1.1-1.168 7.923 7.923 0 0 0 .774-2.325 20.275 20.275 0 0 0 .29-3.807z" class="cls-3" data-name="Path 39099" transform="translate(-240.873 -240.522)"/><path id="Path_39100" d="M251.207 259.566h4.3v-11.281c0-.552.018-1.132.05-1.736l-2.537 2.1a1.588 1.588 0 0 1-.489.285 1.463 1.463 0 0 1-.475.084 1.437 1.437 0 0 1-.715-.174 1.568 1.568 0 0 1-.469-.378l-1.505-2 6.969-5.849h3.932v18.943h3.687v3.443h-12.748z" class="cls-3" data-name="Path 39100" transform="translate(-230.144 -240.394)"/><path id="Path_39101" d="M259.077 259.566h4.3v-11.281c0-.552.018-1.132.05-1.736l-2.535 2.1a1.642 1.642 0 0 1-.489.285 1.476 1.476 0 0 1-.478.084 1.436 1.436 0 0 1-.715-.174 1.554 1.554 0 0 1-.466-.378l-1.507-2 6.971-5.849h3.932v18.943h3.685v3.443h-12.748z" class="cls-3" data-name="Path 39101" transform="translate(-220.204 -240.394)"/><path id="Path_39102" d="M281.059 251.943a18.14 18.14 0 0 1-.632 5.081 10.432 10.432 0 0 1-1.741 3.563 7.024 7.024 0 0 1-2.639 2.1 7.943 7.943 0 0 1-3.311.693 7.8 7.8 0 0 1-3.291-.693 6.98 6.98 0 0 1-2.619-2.1 10.416 10.416 0 0 1-1.727-3.563 21.06 21.06 0 0 1 0-10.165 10.4 10.4 0 0 1 1.727-3.56 6.9 6.9 0 0 1 2.619-2.1 7.9 7.9 0 0 1 3.291-.681 8.043 8.043 0 0 1 3.311.681 6.946 6.946 0 0 1 2.639 2.1 10.421 10.421 0 0 1 1.741 3.56 18.145 18.145 0 0 1 .632 5.084zm-4.914 0a20.058 20.058 0 0 0-.292-3.8 7.778 7.778 0 0 0-.774-2.329 2.8 2.8 0 0 0-1.1-1.157 2.7 2.7 0 0 0-1.245-.315 2.652 2.652 0 0 0-1.236.315 2.731 2.731 0 0 0-1.075 1.157 7.958 7.958 0 0 0-.751 2.329 25.506 25.506 0 0 0 0 7.607 8.038 8.038 0 0 0 .751 2.325 2.741 2.741 0 0 0 1.075 1.168 2.652 2.652 0 0 0 1.236.315 2.7 2.7 0 0 0 1.245-.315 2.8 2.8 0 0 0 1.1-1.168 7.857 7.857 0 0 0 .774-2.325 20.055 20.055 0 0 0 .292-3.807z" class="cls-3" data-name="Path 39102" transform="translate(-211.051 -240.522)"/><path id="Path_39103" d="M288.926 251.943a18.232 18.232 0 0 1-.629 5.081 10.515 10.515 0 0 1-1.741 3.563 7.048 7.048 0 0 1-2.641 2.1 7.932 7.932 0 0 1-3.309.693 7.815 7.815 0 0 1-3.293-.693 7 7 0 0 1-2.619-2.1 10.5 10.5 0 0 1-1.727-3.563 21.139 21.139 0 0 1 0-10.165 10.49 10.49 0 0 1 1.727-3.56 6.919 6.919 0 0 1 2.619-2.1 7.913 7.913 0 0 1 3.293-.681 8.033 8.033 0 0 1 3.309.681 6.969 6.969 0 0 1 2.641 2.1 10.5 10.5 0 0 1 1.741 3.56 18.237 18.237 0 0 1 .629 5.084zm-4.914 0a20.279 20.279 0 0 0-.29-3.8 7.838 7.838 0 0 0-.776-2.329 2.791 2.791 0 0 0-1.1-1.157 2.694 2.694 0 0 0-1.245-.315 2.652 2.652 0 0 0-1.236.315 2.717 2.717 0 0 0-1.075 1.157 7.959 7.959 0 0 0-.751 2.329 25.506 25.506 0 0 0 0 7.607 8.04 8.04 0 0 0 .751 2.325 2.727 2.727 0 0 0 1.075 1.168 2.652 2.652 0 0 0 1.236.315 2.694 2.694 0 0 0 1.245-.315 2.8 2.8 0 0 0 1.1-1.168 7.918 7.918 0 0 0 .776-2.325 20.276 20.276 0 0 0 .29-3.807z" class="cls-3" data-name="Path 39103" transform="translate(-201.108 -240.522)"/><path id="Path_39104" d="M282.677 259.566h4.3v-11.281c0-.552.018-1.132.045-1.736l-2.533 2.1a1.6 1.6 0 0 1-.491.285 1.486 1.486 0 0 1-1.191-.091 1.554 1.554 0 0 1-.466-.378l-1.505-2 6.969-5.849h3.929v18.943h3.687v3.443h-12.744z" class="cls-3" data-name="Path 39104" transform="translate(-190.381 -240.394)"/><path id="Path_39105" d="M290.547 259.566h4.3v-11.281c0-.552.018-1.132.047-1.736l-2.535 2.1a1.572 1.572 0 0 1-.491.285 1.481 1.481 0 0 1-1.188-.091 1.568 1.568 0 0 1-.469-.378l-1.505-2 6.969-5.849h3.925v18.943h3.687v3.443h-12.74z" class="cls-3" data-name="Path 39105" transform="translate(-180.44 -240.394)"/><path id="Path_39106" d="M257.453 268.222a18.231 18.231 0 0 1-.629 5.081 10.42 10.42 0 0 1-1.741 3.56 7.044 7.044 0 0 1-2.641 2.105 7.951 7.951 0 0 1-3.309.69 7.856 7.856 0 0 1-3.293-.69 7.011 7.011 0 0 1-2.619-2.105 10.448 10.448 0 0 1-1.727-3.56 21.126 21.126 0 0 1 0-10.163 10.513 10.513 0 0 1 1.727-3.565 6.906 6.906 0 0 1 2.619-2.091 7.852 7.852 0 0 1 3.293-.684 7.947 7.947 0 0 1 3.309.684 6.94 6.94 0 0 1 2.641 2.091 10.486 10.486 0 0 1 1.741 3.565 18.209 18.209 0 0 1 .629 5.082zm-4.914 0a20.323 20.323 0 0 0-.29-3.8 7.831 7.831 0 0 0-.774-2.325 2.818 2.818 0 0 0-1.1-1.159 2.691 2.691 0 0 0-1.245-.317 2.64 2.64 0 0 0-1.234.317 2.77 2.77 0 0 0-1.077 1.159 7.949 7.949 0 0 0-.751 2.325 25.507 25.507 0 0 0 0 7.607 8.055 8.055 0 0 0 .751 2.329 2.764 2.764 0 0 0 1.077 1.166 2.637 2.637 0 0 0 1.234.315 2.688 2.688 0 0 0 1.245-.315 2.811 2.811 0 0 0 1.1-1.166 7.936 7.936 0 0 0 .774-2.329 20.233 20.233 0 0 0 .29-3.807z" class="cls-3" data-name="Path 39106" transform="translate(-240.873 -219.954)"/><path id="Path_39107" d="M251.207 275.848h4.3v-11.285c0-.552.018-1.13.05-1.732l-2.537 2.1a1.589 1.589 0 0 1-.489.285 1.463 1.463 0 0 1-.475.084 1.415 1.415 0 0 1-.715-.177 1.5 1.5 0 0 1-.469-.376l-1.505-2 6.969-5.851h3.932v18.947h3.687v3.438h-12.748z" class="cls-3" data-name="Path 39107" transform="translate(-230.144 -219.828)"/><path id="Path_39108" d="M259.077 275.848h4.3v-11.285c0-.552.018-1.13.05-1.732l-2.535 2.1a1.643 1.643 0 0 1-.489.285 1.476 1.476 0 0 1-.478.084 1.414 1.414 0 0 1-.715-.177 1.486 1.486 0 0 1-.466-.376l-1.507-2 6.963-5.847h3.932v18.947h3.685v3.438h-12.74z" class="cls-4" data-name="Path 39108" transform="translate(-220.204 -219.828)"/><path id="Path_39109" d="M281.059 268.222a18.14 18.14 0 0 1-.632 5.081 10.379 10.379 0 0 1-1.741 3.56 7.037 7.037 0 0 1-2.639 2.105 7.977 7.977 0 0 1-3.311.69 7.838 7.838 0 0 1-3.291-.69 6.993 6.993 0 0 1-2.619-2.105 10.364 10.364 0 0 1-1.727-3.56 21.051 21.051 0 0 1 0-10.163 10.428 10.428 0 0 1 1.727-3.565 6.889 6.889 0 0 1 2.619-2.091 7.834 7.834 0 0 1 3.291-.684 7.973 7.973 0 0 1 3.311.684 6.933 6.933 0 0 1 2.639 2.091 10.444 10.444 0 0 1 1.741 3.565 18.118 18.118 0 0 1 .632 5.082zm-4.914 0a20.1 20.1 0 0 0-.292-3.8 7.767 7.767 0 0 0-.774-2.325 2.817 2.817 0 0 0-1.1-1.159 2.7 2.7 0 0 0-1.245-.317 2.656 2.656 0 0 0-1.236.317 2.753 2.753 0 0 0-1.075 1.159 7.946 7.946 0 0 0-.751 2.325 25.507 25.507 0 0 0 0 7.607 8.051 8.051 0 0 0 .751 2.329 2.747 2.747 0 0 0 1.075 1.166 2.652 2.652 0 0 0 1.236.315 2.7 2.7 0 0 0 1.245-.315 2.811 2.811 0 0 0 1.1-1.166 7.87 7.87 0 0 0 .774-2.329 20.014 20.014 0 0 0 .292-3.807z" class="cls-4" data-name="Path 39109" transform="translate(-211.051 -219.954)"/><path id="Path_39110" d="M288.926 268.222a18.231 18.231 0 0 1-.629 5.081 10.461 10.461 0 0 1-1.741 3.56 7.061 7.061 0 0 1-2.641 2.105 7.966 7.966 0 0 1-3.309.69 7.848 7.848 0 0 1-3.293-.69 7.011 7.011 0 0 1-2.619-2.105 10.449 10.449 0 0 1-1.727-3.56 21.13 21.13 0 0 1 0-10.163 10.515 10.515 0 0 1 1.727-3.565 6.906 6.906 0 0 1 2.619-2.091 7.844 7.844 0 0 1 3.293-.684 7.962 7.962 0 0 1 3.309.684 6.956 6.956 0 0 1 2.641 2.091 10.527 10.527 0 0 1 1.741 3.565 18.209 18.209 0 0 1 .629 5.082zm-4.914 0a20.324 20.324 0 0 0-.29-3.8 7.826 7.826 0 0 0-.776-2.325 2.814 2.814 0 0 0-1.1-1.159 2.7 2.7 0 0 0-1.245-.317 2.656 2.656 0 0 0-1.236.317 2.739 2.739 0 0 0-1.075 1.159 7.947 7.947 0 0 0-.751 2.325 25.507 25.507 0 0 0 0 7.607 8.053 8.053 0 0 0 .751 2.329 2.733 2.733 0 0 0 1.075 1.166 2.652 2.652 0 0 0 1.236.315 2.694 2.694 0 0 0 1.245-.315 2.807 2.807 0 0 0 1.1-1.166 7.93 7.93 0 0 0 .776-2.329 20.234 20.234 0 0 0 .29-3.807z" class="cls-4" data-name="Path 39110" transform="translate(-201.108 -219.954)"/><path id="Path_39111" d="M282.677 275.848h4.3v-11.285c0-.552.018-1.13.045-1.732l-2.533 2.1a1.6 1.6 0 0 1-.491.285 1.443 1.443 0 0 1-.475.084 1.415 1.415 0 0 1-.715-.177 1.487 1.487 0 0 1-.466-.376l-1.505-2 6.969-5.851h3.929v18.947h3.687v3.438h-12.745z" class="cls-3" data-name="Path 39111" transform="translate(-190.381 -219.828)"/><path id="Path_39112" d="M304.662 268.222a18.231 18.231 0 0 1-.629 5.081 10.462 10.462 0 0 1-1.743 3.56 7.027 7.027 0 0 1-2.641 2.105 7.951 7.951 0 0 1-3.309.69 7.838 7.838 0 0 1-3.291-.69 6.975 6.975 0 0 1-2.619-2.105 10.407 10.407 0 0 1-1.727-3.56 21.13 21.13 0 0 1 0-10.163 10.472 10.472 0 0 1 1.727-3.565 6.872 6.872 0 0 1 2.619-2.091 7.834 7.834 0 0 1 3.291-.684 7.947 7.947 0 0 1 3.309.684 6.923 6.923 0 0 1 2.641 2.091 10.528 10.528 0 0 1 1.743 3.565 18.209 18.209 0 0 1 .629 5.082zm-4.914 0a20.3 20.3 0 0 0-.292-3.8 7.767 7.767 0 0 0-.774-2.325 2.818 2.818 0 0 0-1.1-1.159 2.691 2.691 0 0 0-1.245-.317 2.64 2.64 0 0 0-1.234.317 2.753 2.753 0 0 0-1.075 1.159 7.942 7.942 0 0 0-.754 2.325 25.708 25.708 0 0 0 0 7.607 8.048 8.048 0 0 0 .754 2.329 2.747 2.747 0 0 0 1.075 1.166 2.637 2.637 0 0 0 1.234.315 2.687 2.687 0 0 0 1.245-.315 2.811 2.811 0 0 0 1.1-1.166 7.87 7.87 0 0 0 .774-2.329 20.207 20.207 0 0 0 .292-3.807z" class="cls-3" data-name="Path 39112" transform="translate(-181.227 -219.954)"/><path id="Path_39113" d="M243.337 292.126h4.3V280.84c0-.552.018-1.132.045-1.734l-2.533 2.1a1.644 1.644 0 0 1-.491.285 1.44 1.44 0 0 1-.473.084 1.464 1.464 0 0 1-.718-.174 1.522 1.522 0 0 1-.466-.378l-1.505-2 6.969-5.849h3.935v18.945h3.687v3.438h-12.75z" class="cls-3" data-name="Path 39113" transform="translate(-240.085 -199.259)"/><path id="Path_39114" d="M265.322 284.5a18.128 18.128 0 0 1-.629 5.079 10.433 10.433 0 0 1-1.743 3.563 7.019 7.019 0 0 1-2.641 2.1 7.915 7.915 0 0 1-3.307.693 7.808 7.808 0 0 1-3.293-.693 6.969 6.969 0 0 1-2.619-2.1 10.374 10.374 0 0 1-1.725-3.563 21.044 21.044 0 0 1 0-10.161 10.374 10.374 0 0 1 1.725-3.563 6.906 6.906 0 0 1 2.619-2.1 7.907 7.907 0 0 1 3.293-.684 8.016 8.016 0 0 1 3.307.684 6.956 6.956 0 0 1 2.641 2.1 10.433 10.433 0 0 1 1.743 3.563 18.134 18.134 0 0 1 .629 5.082zm-4.914 0a20.517 20.517 0 0 0-.29-3.8 7.8 7.8 0 0 0-.776-2.325 2.823 2.823 0 0 0-1.1-1.161A2.709 2.709 0 0 0 257 276.9a2.662 2.662 0 0 0-1.236.312 2.776 2.776 0 0 0-1.077 1.161 7.992 7.992 0 0 0-.751 2.325 25.521 25.521 0 0 0 0 7.61 8.11 8.11 0 0 0 .751 2.325 2.758 2.758 0 0 0 1.077 1.168 2.666 2.666 0 0 0 1.236.315 2.714 2.714 0 0 0 1.243-.315 2.8 2.8 0 0 0 1.1-1.168 7.916 7.916 0 0 0 .776-2.325 20.47 20.47 0 0 0 .289-3.808z" class="cls-3" data-name="Path 39114" transform="translate(-230.931 -199.388)"/><path id="Path_39115" d="M259.077 292.126h4.3V280.84c0-.552.018-1.132.05-1.734l-2.535 2.1a1.692 1.692 0 0 1-.489.285 1.492 1.492 0 0 1-1.193-.091 1.521 1.521 0 0 1-.466-.378l-1.507-2 6.971-5.849h3.932v18.945h3.685v3.438h-12.748z" class="cls-3" data-name="Path 39115" transform="translate(-220.204 -199.259)"/><path id="Path_39116" d="M281.059 284.5a18.122 18.122 0 0 1-.632 5.079 10.391 10.391 0 0 1-1.741 3.563 7.03 7.03 0 0 1-2.639 2.1 7.943 7.943 0 0 1-3.311.693 7.8 7.8 0 0 1-3.291-.693 6.986 6.986 0 0 1-2.619-2.1 10.375 10.375 0 0 1-1.727-3.563 21.042 21.042 0 0 1 0-10.161 10.375 10.375 0 0 1 1.727-3.563 6.922 6.922 0 0 1 2.619-2.1 7.9 7.9 0 0 1 3.291-.684 8.044 8.044 0 0 1 3.311.684 6.967 6.967 0 0 1 2.639 2.1 10.391 10.391 0 0 1 1.741 3.563 18.128 18.128 0 0 1 .632 5.082zm-4.914 0a20.1 20.1 0 0 0-.292-3.8 7.744 7.744 0 0 0-.774-2.325 2.823 2.823 0 0 0-1.1-1.161 2.725 2.725 0 0 0-1.245-.312 2.676 2.676 0 0 0-1.236.312 2.759 2.759 0 0 0-1.075 1.161 7.922 7.922 0 0 0-.751 2.325 25.521 25.521 0 0 0 0 7.61 8.038 8.038 0 0 0 .751 2.325 2.741 2.741 0 0 0 1.077 1.165 2.68 2.68 0 0 0 1.236.315 2.73 2.73 0 0 0 1.245-.315 2.8 2.8 0 0 0 1.1-1.168 7.857 7.857 0 0 0 .774-2.325 20.056 20.056 0 0 0 .29-3.807z" class="cls-3" data-name="Path 39116" transform="translate(-211.051 -199.388)"/><path id="Path_39117" d="M274.81 292.126h4.3V280.84c0-.552.016-1.132.045-1.734l-2.533 2.1a1.674 1.674 0 0 1-.491.285 1.487 1.487 0 0 1-1.191-.091 1.52 1.52 0 0 1-.466-.378l-1.505-2 6.969-5.849h3.929v18.945h3.687v3.438H274.81z" class="cls-3" data-name="Path 39117" transform="translate(-200.32 -199.259)"/><path id="Path_39118" d="M282.677 292.126h4.3V280.84c0-.552.018-1.132.045-1.734l-2.533 2.1a1.643 1.643 0 0 1-.491.285 1.443 1.443 0 0 1-.475.084 1.462 1.462 0 0 1-.715-.174 1.521 1.521 0 0 1-.466-.378l-1.505-2 6.969-5.849h3.929v18.945h3.687v3.438h-12.745z" class="cls-3" data-name="Path 39118" transform="translate(-190.381 -199.259)"/><path id="Path_39119" d="M304.662 284.5a18.214 18.214 0 0 1-.629 5.079 10.474 10.474 0 0 1-1.743 3.563 7.019 7.019 0 0 1-2.641 2.1 7.917 7.917 0 0 1-3.309.693 7.8 7.8 0 0 1-3.291-.693 6.968 6.968 0 0 1-2.619-2.1 10.418 10.418 0 0 1-1.727-3.563 21.12 21.12 0 0 1 0-10.161 10.418 10.418 0 0 1 1.727-3.563 6.9 6.9 0 0 1 2.619-2.1 7.9 7.9 0 0 1 3.291-.684 8.018 8.018 0 0 1 3.309.684 6.956 6.956 0 0 1 2.641 2.1 10.474 10.474 0 0 1 1.743 3.563 18.22 18.22 0 0 1 .629 5.082zm-4.914 0a20.3 20.3 0 0 0-.292-3.8 7.744 7.744 0 0 0-.774-2.325 2.824 2.824 0 0 0-1.1-1.161 2.711 2.711 0 0 0-1.245-.312 2.66 2.66 0 0 0-1.234.312 2.759 2.759 0 0 0-1.075 1.161 7.919 7.919 0 0 0-.754 2.325 25.723 25.723 0 0 0 0 7.61 8.035 8.035 0 0 0 .754 2.325 2.741 2.741 0 0 0 1.075 1.168 2.664 2.664 0 0 0 1.234.315 2.716 2.716 0 0 0 1.245-.315 2.8 2.8 0 0 0 1.1-1.168 7.857 7.857 0 0 0 .774-2.325 20.25 20.25 0 0 0 .292-3.81z" class="cls-3" data-name="Path 39119" transform="translate(-181.227 -199.388)"/><path id="Path_39120" d="M257.453 300.782a18.2 18.2 0 0 1-.629 5.079 10.431 10.431 0 0 1-1.741 3.563 7.014 7.014 0 0 1-2.641 2.1 7.952 7.952 0 0 1-3.309.693 7.856 7.856 0 0 1-3.293-.693 6.981 6.981 0 0 1-2.619-2.1 10.459 10.459 0 0 1-1.727-3.563 21.126 21.126 0 0 1 0-10.163 10.468 10.468 0 0 1 1.727-3.56 6.9 6.9 0 0 1 2.619-2.1 7.922 7.922 0 0 1 3.293-.684 8.019 8.019 0 0 1 3.309.684 6.93 6.93 0 0 1 2.641 2.1 10.441 10.441 0 0 1 1.741 3.56 18.237 18.237 0 0 1 .629 5.084zm-4.914 0a20.278 20.278 0 0 0-.29-3.8 7.843 7.843 0 0 0-.774-2.329 2.818 2.818 0 0 0-1.1-1.159 2.712 2.712 0 0 0-1.245-.312 2.661 2.661 0 0 0-1.234.312 2.77 2.77 0 0 0-1.077 1.159 7.962 7.962 0 0 0-.751 2.329 25.491 25.491 0 0 0 0 7.605 8.038 8.038 0 0 0 .751 2.327 2.759 2.759 0 0 0 1.077 1.168 2.637 2.637 0 0 0 1.234.315 2.688 2.688 0 0 0 1.245-.315 2.805 2.805 0 0 0 1.1-1.168 7.919 7.919 0 0 0 .774-2.327 20.232 20.232 0 0 0 .29-3.805z" class="cls-3" data-name="Path 39120" transform="translate(-240.873 -178.82)"/><path id="Path_39121" d="M251.207 308.4h4.3v-11.278c0-.552.018-1.132.05-1.736l-2.537 2.1a1.683 1.683 0 0 1-.489.285 1.524 1.524 0 0 1-.475.084 1.437 1.437 0 0 1-.715-.174 1.568 1.568 0 0 1-.469-.378l-1.505-2 6.969-5.849h3.932V308.4h3.687v3.443h-12.748z" class="cls-3" data-name="Path 39121" transform="translate(-230.144 -178.691)"/><path id="Path_39122" d="M273.191 300.782a18.111 18.111 0 0 1-.631 5.079 10.431 10.431 0 0 1-1.741 3.563 7 7 0 0 1-2.641 2.1 7.966 7.966 0 0 1-3.309.693 7.824 7.824 0 0 1-3.291-.693 6.953 6.953 0 0 1-2.621-2.1 10.374 10.374 0 0 1-1.725-3.563 21.053 21.053 0 0 1 0-10.163 10.383 10.383 0 0 1 1.725-3.56 6.87 6.87 0 0 1 2.621-2.1 7.889 7.889 0 0 1 3.291-.684 8.033 8.033 0 0 1 3.309.684 6.913 6.913 0 0 1 2.641 2.1 10.441 10.441 0 0 1 1.741 3.56 18.145 18.145 0 0 1 .631 5.084zm-4.914 0a20.253 20.253 0 0 0-.292-3.8 7.774 7.774 0 0 0-.776-2.329 2.828 2.828 0 0 0-1.1-1.159 2.726 2.726 0 0 0-1.245-.312 2.669 2.669 0 0 0-1.236.312 2.753 2.753 0 0 0-1.075 1.159 7.96 7.96 0 0 0-.751 2.329 25.491 25.491 0 0 0 0 7.605 8.036 8.036 0 0 0 .751 2.327 2.741 2.741 0 0 0 1.075 1.168 2.646 2.646 0 0 0 1.236.315 2.7 2.7 0 0 0 1.245-.315 2.815 2.815 0 0 0 1.1-1.168 7.848 7.848 0 0 0 .776-2.327 20.207 20.207 0 0 0 .292-3.805z" class="cls-3" data-name="Path 39122" transform="translate(-220.991 -178.82)"/><path id="Path_39123" d="M266.942 308.4h4.3v-11.278q0-.828.048-1.736l-2.533 2.1a1.753 1.753 0 0 1-.491.285 1.535 1.535 0 0 1-.475.084 1.431 1.431 0 0 1-.715-.174 1.5 1.5 0 0 1-.466-.378l-1.505-2 6.969-5.849H276V308.4h3.685v3.443h-12.743z" class="cls-3" data-name="Path 39123" transform="translate(-210.261 -178.691)"/><path id="Path_39124" d="M288.926 300.782a18.2 18.2 0 0 1-.629 5.079 10.472 10.472 0 0 1-1.741 3.563 7.031 7.031 0 0 1-2.641 2.1 7.967 7.967 0 0 1-3.309.693 7.849 7.849 0 0 1-3.293-.693 6.981 6.981 0 0 1-2.619-2.1 10.46 10.46 0 0 1-1.727-3.563 21.13 21.13 0 0 1 0-10.163 10.469 10.469 0 0 1 1.727-3.56 6.9 6.9 0 0 1 2.619-2.1 7.915 7.915 0 0 1 3.293-.684 8.034 8.034 0 0 1 3.309.684 6.946 6.946 0 0 1 2.641 2.1 10.482 10.482 0 0 1 1.741 3.56 18.237 18.237 0 0 1 .629 5.084zm-4.914 0a20.279 20.279 0 0 0-.29-3.8 7.838 7.838 0 0 0-.776-2.329 2.814 2.814 0 0 0-1.1-1.159 2.719 2.719 0 0 0-1.245-.312 2.676 2.676 0 0 0-1.236.312 2.739 2.739 0 0 0-1.075 1.159 7.96 7.96 0 0 0-.751 2.329 25.491 25.491 0 0 0 0 7.605 8.036 8.036 0 0 0 .751 2.327 2.728 2.728 0 0 0 1.075 1.168 2.653 2.653 0 0 0 1.236.315 2.7 2.7 0 0 0 1.245-.315 2.8 2.8 0 0 0 1.1-1.168 7.914 7.914 0 0 0 .776-2.327 20.232 20.232 0 0 0 .29-3.805z" class="cls-3" data-name="Path 39124" transform="translate(-201.108 -178.82)"/><path id="Path_39125" d="M296.793 300.782a18.291 18.291 0 0 1-.627 5.079 10.472 10.472 0 0 1-1.743 3.563 7.032 7.032 0 0 1-2.641 2.1 7.952 7.952 0 0 1-3.309.693 7.831 7.831 0 0 1-3.291-.693 6.971 6.971 0 0 1-2.621-2.1 10.459 10.459 0 0 1-1.727-3.563 21.128 21.128 0 0 1 0-10.163 10.468 10.468 0 0 1 1.727-3.56 6.887 6.887 0 0 1 2.621-2.1 7.9 7.9 0 0 1 3.291-.684 8.019 8.019 0 0 1 3.309.684 6.947 6.947 0 0 1 2.641 2.1 10.482 10.482 0 0 1 1.743 3.56 18.325 18.325 0 0 1 .627 5.084zm-4.912 0a20.253 20.253 0 0 0-.292-3.8 7.772 7.772 0 0 0-.776-2.329 2.8 2.8 0 0 0-1.1-1.159 2.719 2.719 0 0 0-1.245-.312 2.676 2.676 0 0 0-1.236.312 2.766 2.766 0 0 0-1.075 1.159 7.96 7.96 0 0 0-.751 2.329 25.491 25.491 0 0 0 0 7.605 8.036 8.036 0 0 0 .751 2.327 2.755 2.755 0 0 0 1.075 1.168 2.653 2.653 0 0 0 1.236.315 2.7 2.7 0 0 0 1.245-.315 2.787 2.787 0 0 0 1.1-1.168 7.847 7.847 0 0 0 .776-2.327 20.206 20.206 0 0 0 .292-3.805z" class="cls-3" data-name="Path 39125" transform="translate(-191.169 -178.82)"/><path id="Path_39126" d="M304.662 300.782a18.2 18.2 0 0 1-.629 5.079 10.473 10.473 0 0 1-1.743 3.563 7 7 0 0 1-2.641 2.1 7.951 7.951 0 0 1-3.309.693 7.838 7.838 0 0 1-3.291-.693 6.946 6.946 0 0 1-2.619-2.1 10.418 10.418 0 0 1-1.727-3.563 21.13 21.13 0 0 1 0-10.163 10.427 10.427 0 0 1 1.727-3.56 6.862 6.862 0 0 1 2.619-2.1 7.9 7.9 0 0 1 3.291-.684 8.018 8.018 0 0 1 3.309.684 6.913 6.913 0 0 1 2.641 2.1 10.483 10.483 0 0 1 1.743 3.56 18.237 18.237 0 0 1 .629 5.084zm-4.914 0a20.253 20.253 0 0 0-.292-3.8 7.779 7.779 0 0 0-.774-2.329 2.818 2.818 0 0 0-1.1-1.159 2.712 2.712 0 0 0-1.245-.312 2.661 2.661 0 0 0-1.234.312 2.753 2.753 0 0 0-1.075 1.159 7.955 7.955 0 0 0-.754 2.329 25.692 25.692 0 0 0 0 7.605 8.031 8.031 0 0 0 .754 2.327 2.742 2.742 0 0 0 1.075 1.168 2.637 2.637 0 0 0 1.234.315 2.688 2.688 0 0 0 1.245-.315 2.805 2.805 0 0 0 1.1-1.168 7.853 7.853 0 0 0 .774-2.327 20.206 20.206 0 0 0 .292-3.805z" class="cls-3" data-name="Path 39126" transform="translate(-181.227 -178.82)"/></g><path id="Path_39127" d="m348.788 327.731-33.875-33.881a10.556 10.556 0 0 0-4.4-2.6 15.405 15.405 0 0 0-4.2-13.9l-3.667-3.66a15.878 15.878 0 0 0-1.091-.989c.032-.059.057-.122.091-.181-.951.084-1.917.145-2.922.145a32.157 32.157 0 0 1-4.694-.346A25.565 25.565 0 0 1 281 286.127c-.421 2.92-1.879 3.429-3.1 6.086.355-.165.763.783 1.722 1.849a15.623 15.623 0 0 0 1.231 1.408l3.669 3.664a15.3 15.3 0 0 0 10.889 4.513c.525 0 1.046-.029 1.562-.079a10.56 10.56 0 0 0 2.884 5.328l33.872 33.879a10.641 10.641 0 1 0 15.052-15.045z" class="cls-5" data-name="Path 39127" transform="translate(-194.084 -200.347)"/><g id="Group_3844" data-name="Group 3844" transform="translate(14.762 .504)"><path id="Path_39128" d="M335.408 317.79a8.368 8.368 0 0 1 0 11.845 8.376 8.376 0 0 1-11.851 0l-33.872-33.879a8.374 8.374 0 0 1 0-11.847 8.381 8.381 0 0 1 11.849 0z" class="cls-3" data-name="Path 39128" transform="translate(-197.066 -189.309)"/><path id="Path_39129" d="M304.314 279.444a13.142 13.142 0 0 1 0 18.581 13.131 13.131 0 0 1-18.578 0l-3.671-3.667a13.141 13.141 0 0 1 0-18.576 13.136 13.136 0 0 1 18.583 0z" data-name="Path 39129" transform="translate(-208.45 -201.341)" style="fill:#14b0bf"/><path id="Path_39130" d="M281.506 276.189a11.084 11.084 0 0 0-1.56 1.962 11.22 11.22 0 0 1 13.9 1.555l3.135 3.133a11.222 11.222 0 0 1 1.555 13.9 11.069 11.069 0 0 0 1.965-1.562 11.213 11.213 0 0 0 0-15.862l-3.128-3.126a11.212 11.212 0 0 0-15.867 0z" data-name="Path 39130" transform="translate(-206.268 -200.121)" style="fill:#16c1d1"/><path id="Path_39131" d="M264.425 298.416a31.939 31.939 0 0 1-1.759-1.623 29.928 29.928 0 0 1 3.8-45.541 37.186 37.186 0 0 0-2.046 47.163z" class="cls-5" data-name="Path 39131" transform="translate(-239.176 -227.468)"/><g id="Group_3843" data-name="Group 3843"><path id="Path_39132" d="M261.5 254.851a48.165 48.165 0 1 0 68.116 0 48.16 48.16 0 0 0-68.116 0zm59.234 59.239a35.61 35.61 0 1 1 0-50.362 35.617 35.617 0 0 1 .004 50.362z" class="cls-5" data-name="Path 39132" transform="translate(-247.395 -240.745)"/></g><path id="Path_39133" d="M262.219 255.567a43.349 43.349 0 1 0 61.305 0 43.348 43.348 0 0 0-61.305 0zm55.83 55.835a35.61 35.61 0 1 1 0-50.362 35.617 35.617 0 0 1 0 50.36z" data-name="Path 39133" transform="translate(-244.706 -238.057)" style="fill:#c4c4c4"/><path id="Path_39134" d="M325.969 319.423a2.294 2.294 0 0 1 0 3.248 2.291 2.291 0 0 1-3.253 0l-33.37-33.365a2.3 2.3 0 0 1 0-3.253 2.3 2.3 0 0 1 3.253 0z" data-name="Path 39134" transform="translate(-195.241 -184.349)" style="fill:#4b4b55"/><path id="Path_39135" d="M265.99 319.153a45.426 45.426 0 0 1 25.962-77.181 45.44 45.44 0 1 0 8.282 90.4 45.318 45.318 0 0 1-34.244-13.219z" data-name="Path 39135" transform="translate(-245.951 -239.194)" style="fill:#d1d1d1"/></g></g><g id="Group_3848" data-name="Group 3848" transform="translate(203.841 300.003)"><g id="Group_3846" data-name="Group 3846"><path id="Path_39136" d="M227.681 366.282c-17.247-30.423-14.443-59.49-14.443-59.49a175.141 175.141 0 0 0 28.784-11.143c12.551-6.331 23.728-17.917 23.728-17.917V266.8s-13.139 13.619-27.888 21.055a205.5 205.5 0 0 1-33.823 13.1s-3.3 34.16 16.974 69.909c19.445 34.312 44.737 42.582 44.737 42.582v-10.933s-21.523-7.037-38.069-36.231z" data-name="Path 39136" transform="translate(-203.841 -266.801)" style="fill:#63564b"/><path id="Path_39137" d="M292.908 300.954a205.53 205.53 0 0 1-33.83-13.1c-14.751-7.435-27.886-21.055-27.886-21.055v10.93s11.179 11.587 23.73 17.917a175.039 175.039 0 0 0 28.787 11.143s2.8 29.067-14.445 59.49c-16.548 29.194-38.071 36.231-38.071 36.231v10.932s25.292-8.271 44.744-42.582c20.263-35.746 16.971-69.906 16.971-69.906z" class="cls-3" data-name="Path 39137" transform="translate(-169.284 -266.801)"/><path id="Path_39138" d="M269.264 360.181c17.243-30.423 14.445-59.49 14.445-59.49a175.039 175.039 0 0 1-28.787-11.143c-12.551-6.331-23.73-17.917-23.73-17.917v124.781s21.524-7.037 38.072-36.231z" data-name="Path 39138" transform="translate(-169.284 -260.7)" style="fill:#fda014"/><path id="Path_39139" d="M236.872 289.547a175.141 175.141 0 0 1-28.784 11.143s-2.8 29.067 14.443 59.49c16.546 29.194 38.069 36.231 38.069 36.231V271.63s-11.178 11.587-23.728 17.917z" data-name="Path 39139" transform="translate(-198.69 -260.7)" style="fill:#fdc63a"/></g><g id="Group_3847" data-name="Group 3847" transform="translate(53.215 35.203)"><path id="Path_39140" d="M227.352 346.606a8.2 8.2 0 0 1 .668-3.314 8.416 8.416 0 0 1 1.829-2.666 8.666 8.666 0 0 1 2.743-1.8 8.789 8.789 0 0 1 3.458-.668 8.667 8.667 0 0 1 3.411.668 9.017 9.017 0 0 1 2.768 1.8 8.175 8.175 0 0 1 2.519 5.98 8.365 8.365 0 0 1-.668 3.336 8.086 8.086 0 0 1-1.852 2.691 8.632 8.632 0 0 1-2.768 1.779 8.945 8.945 0 0 1-3.411.645 9.072 9.072 0 0 1-3.458-.645 8.336 8.336 0 0 1-5.24-7.807zm16.014-64.252v28.273a75.169 75.169 0 0 1-.543 9.02q-.547 4.472-1.433 9.117h-10.38q-.89-4.645-1.433-9.117a74.717 74.717 0 0 1-.543-9.02v-28.273z" data-name="Path 39140" transform="translate(-227.352 -282.354)" style="fill:#b90020"/></g></g></g></g></svg>