<svg width="20" height="21" fill="none" xmlns="http://www.w3.org/2000/svg"><path fill-rule="evenodd" clip-rule="evenodd" d="M18.962 5.908a3.905 3.905 0 00-3.905-3.904H4.944a3.905 3.905 0 00-3.905 3.904v9.839a3.905 3.905 0 003.905 3.905h10.113a3.905 3.905 0 003.905-3.905v-1.07a.781.781 0 10-1.563 0v1.07a2.342 2.342 0 01-2.342 2.342H4.944A2.342 2.342 0 012.6 15.747V5.908a2.342 2.342 0 012.343-2.342h10.113A2.342 2.342 0 0117.4 5.908v.726a.781.781 0 001.563 0v-.726z" fill="#87AB49"/><path fill-rule="evenodd" clip-rule="evenodd" d="M9.74 6.641a.781.781 0 00-1.104 0L6.159 9.118c-.86.86-.86 2.256 0 3.117l2.477 2.476a.781.781 0 101.105-1.105L7.264 11.13a.642.642 0 010-.908l2.477-2.476a.781.781 0 000-1.105zm9.222 4.035a.781.781 0 00-.781-.781h-7.722a.781.781 0 000 1.562h7.722a.78.78 0 00.78-.78z" fill="#87AB49"/></svg>