<svg width="113" height="13" viewBox="0 0 113 13" fill="none" xmlns="http://www.w3.org/2000/svg">
<path d="M5.95018 0.599999H0.799184V12.5H3.55318V9.219H5.95018C9.12918 9.219 11.1182 7.57 11.1182 4.918C11.1182 2.249 9.12918 0.599999 5.95018 0.599999ZM5.79718 6.975H3.55318V2.844H5.79718C7.48018 2.844 8.33018 3.609 8.33018 4.918C8.33018 6.21 7.48018 6.975 5.79718 6.975ZM13.0843 12.5H21.8053V10.256H15.8383V0.599999H13.0843V12.5ZM32.3347 12.5H35.2247L29.9037 0.599999H27.1837L21.8797 12.5H24.7017L25.7557 9.95H31.2807L32.3347 12.5ZM26.6397 7.859L28.5267 3.303L30.4137 7.859H26.6397ZM44.6533 0.599999V7.825L38.7373 0.599999H36.4593V12.5H39.1793V5.275L45.1123 12.5H47.3733V0.599999H44.6533ZM52.9258 10.29V7.536H58.4508V5.394H52.9258V2.81H59.1818V0.599999H50.1888V12.5H59.4028V10.29H52.9258ZM64.0591 12.5H66.8131V2.844H70.6211V0.599999H60.2511V2.844H64.0591V12.5Z" fill="#5A78A6"/>
<path d="M85.6213 0.599999L81.9493 9.1L78.3283 0.599999H75.3533L80.4873 12.5H83.2073L88.3583 0.599999H85.6213ZM94.5029 0.599999H89.3519V12.5H92.1059V9.219H94.5029C97.6819 9.219 99.6709 7.57 99.6709 4.918C99.6709 2.249 97.6819 0.599999 94.5029 0.599999ZM94.3499 6.975H92.1059V2.844H94.3499C96.0329 2.844 96.8829 3.609 96.8829 4.918C96.8829 6.21 96.0329 6.975 94.3499 6.975ZM109.831 0.599999V7.825L103.915 0.599999H101.637V12.5H104.357V5.275L110.29 12.5H112.551V0.599999H109.831Z" fill="#87AB49"/>
</svg>
