<svg width="192" height="192" viewBox="0 0 192 192" fill="none" xmlns="http://www.w3.org/2000/svg">
<g clip-path="url(#clip0_4387_11674)">
<rect width="192" height="192" transform="translate(-0.000976562)" fill="url(#paint0_linear_4387_11674)"/>
<circle cx="95.9975" cy="96.0004" r="65.436" fill="url(#paint1_linear_4387_11674)"/>
<path fill-rule="evenodd" clip-rule="evenodd" d="M22.1549 119.254C23.282 117.862 25.4414 118.073 26.3337 119.626C26.9059 120.623 26.753 121.874 25.9911 122.734C21.5518 127.747 19.6371 131.648 20.9136 133.871C25.015 141.013 60.508 128.13 100.189 105.096C101.559 104.301 102.915 103.504 104.258 102.706C104.723 102.43 104.991 101.918 104.991 101.377C104.991 92.2065 112.425 84.7724 121.596 84.7724C126.512 84.7724 131.837 84.9183 135.804 82.0132C155.584 67.5259 167.331 55.1886 164.613 50.4561C163.394 48.3339 159.404 47.9797 153.357 49.1344C152.267 49.3424 151.152 48.8591 150.6 47.897C149.732 46.3854 150.618 44.4683 152.343 44.216C164.221 42.4784 172.646 43.9303 175.6 49.0736C181.132 58.7069 165.911 78.5797 139.414 98.7874C138.617 99.3952 138.2 100.375 138.2 101.377C138.2 110.547 130.766 117.981 121.596 117.981C121.135 117.981 120.678 117.962 120.227 117.926C116.14 117.592 111.789 117.421 108.243 119.479C63.5957 145.396 21.3659 155.893 13.9195 142.926C10.8634 137.604 14.1411 129.157 22.1549 119.254Z" fill="white"/>
<circle cx="121.594" cy="101.376" r="8.30218" fill="#70AF09"/>
<g opacity="0.32">
<path d="M62.4666 73.6204C58.4394 83.5642 59.7099 94.0504 54.7705 92.05C49.831 90.0496 49.0915 80.3668 53.1186 70.423C57.1458 60.4791 64.4146 54.0396 69.354 56.0401C74.2935 58.0405 66.4937 63.6765 62.4666 73.6204Z" fill="#E5E5E5"/>
<path d="M59.3659 101.929C59.7257 105.203 58.2095 108.057 55.9794 108.302C53.7493 108.547 51.6498 106.091 51.29 102.816C50.9302 99.5414 52.4464 96.6882 54.6765 96.4432C56.9066 96.1981 59.0061 98.6541 59.3659 101.929Z" fill="#E5E5E5"/>
</g>
<path d="M76.68 145.85C74.4061 144.536 75.4959 142.334 81.019 140.504C92.6649 137.948 90.6998 143.116 107.458 141.127C124.217 139.139 133.052 132.23 137.502 127.685C141.062 124.05 144.353 119.13 144.195 120.865C143.437 124.558 137.321 134.291 118.915 143.684C95.9073 155.424 80.1667 147.865 76.68 145.85Z" fill="#080F1B" fill-opacity="0.11"/>
<path d="M150.67 59.7699C152.829 58.3388 153.432 55.4169 151.86 53.3577C141.87 40.2693 127.561 31.0609 111.399 27.4309C93.7067 23.4571 75.1631 26.4759 59.6446 35.8561C44.1261 45.2364 32.834 60.252 28.1288 77.7641C23.8306 93.7613 25.3329 110.711 32.278 125.64C33.3707 127.989 36.2379 128.813 38.5087 127.566C40.7794 126.319 41.5914 123.474 40.5229 121.114C34.7291 108.317 33.5189 93.8573 37.1888 80.1984C41.2659 65.024 51.0506 52.0128 64.4975 43.8848C77.9444 35.7567 94.0127 33.1409 109.343 36.5842C123.143 39.6836 135.383 47.4763 144.021 58.5542C145.614 60.5972 148.51 61.2009 150.67 59.7699Z" fill="white"/>
<path d="M55.9205 147.915C54.3375 149.966 54.7085 152.926 56.8601 154.369C66.9207 161.115 78.579 165.162 90.7105 166.077C104.405 167.111 118.102 164.109 130.109 157.444C142.116 150.778 151.907 140.74 158.272 128.571C163.911 117.791 166.642 105.756 166.237 93.6501C166.15 91.061 163.834 89.1806 161.256 89.4397C158.679 89.6988 156.818 91.9997 156.878 94.5896C157.116 104.868 154.748 115.068 149.959 124.223C144.444 134.768 135.96 143.466 125.555 149.241C115.151 155.017 103.283 157.618 91.4165 156.722C81.1135 155.945 71.2044 152.561 62.6067 146.923C60.4403 145.503 57.5036 145.865 55.9205 147.915Z" fill="white"/>
</g>
<defs>
<linearGradient id="paint0_linear_4387_11674" x1="96" y1="0" x2="96" y2="192" gradientUnits="userSpaceOnUse">
<stop stop-color="#7E9BC5"/>
<stop offset="1" stop-color="#EAF3FF"/>
</linearGradient>
<linearGradient id="paint1_linear_4387_11674" x1="26.6034" y1="-15.9115" x2="125.594" y2="152.739" gradientUnits="userSpaceOnUse">
<stop offset="0.394669" stop-color="#FF3A3A"/>
<stop offset="0.72037" stop-color="#D64D12"/>
<stop offset="0.749987" stop-color="#70AF09"/>
</linearGradient>
<clipPath id="clip0_4387_11674">
<rect width="192" height="192" rx="48" fill="white"/>
</clipPath>
</defs>
</svg>
